<?xml version="1.0" encoding="UTF-8" standalone="no"?>
<svg xmlns:dc="http://purl.org/dc/elements/1.1/"
     xmlns:cc="http://creativecommons.org/ns#"
     xmlns:rdf="http://www.w3.org/1999/02/22-rdf-syntax-ns#"
     xmlns:svg="http://www.w3.org/2000/svg"
     xmlns="http://www.w3.org/2000/svg"
     xmlns:xlink="http://www.w3.org/1999/xlink"
     width="128" height="128" version="1.1">
    <title>Clarity Icon</title>
    <desc>This is shape (source) for Clarity vector icon theme for gtk</desc>
    <metadata>
        <rdf:RDF>
            <cc:Work rdf:about="">
                <dc:title>Clarity Icon</dc:title>
                <dc:description>This is shape (source) for Clarity vector icon theme for gtk</dc:description>
                <dc:creator>
                    <cc:Agent>
                        <dc:title>Jakub Jankiewicz</dc:title>
                    </cc:Agent>
                </dc:creator>
                <dc:rights>
                    <cc:Agent>
                        <dc:title>Jakub Jankiewicz</dc:title>
                    </cc:Agent>
                </dc:rights>
                <dc:date>2010</dc:date>
                <dc:format>image/svg+xml</dc:format>
                <dc:type rdf:resource="http://purl.org/dc/dcmitype/StillImage" />
                <cc:license rdf:resource="http://creativecommons.org/licenses/by-sa/3.0/" />
             </cc:Work>
        </rdf:RDF>
    </metadata>
    <path d="M 109.5625 19.6875 C 108.83456 19.713629 108.15345 19.926601 107.59375 20.21875 C 106.8475 20.608282 106.31762 21.159618 106.09375 21.875 C 105.10373 25.038587 103.12403 27.960784 100.53125 29.96875 C 96.767005 33.088478 91.165491 34.20273 85.34375 35.71875 C 82.410089 36.425285 79.352058 37.241743 76.28125 38.46875 C 73.197571 39.687039 70.178166 41.433355 67.5625 43.90625 C 64.653577 46.706461 62.54841 50.303268 61.5625 54.21875 C 61.239933 55.507888 61.049385 56.806191 60.96875 58.125 L 51.28125 58.125 C 45.445903 58.125 40.75 62.820903 40.75 68.65625 L 40.75 91.4375 L 51.03125 91.4375 L 51.03125 106.5625 C 51.03125 107.81479 52.028963 108.8125 53.28125 108.8125 L 56.90625 108.8125 C 58.158537 108.8125 59.15625 107.81479 59.15625 106.5625 L 59.15625 91.4375 L 68.8125 91.4375 L 68.8125 106.5625 C 68.8125 107.81479 69.810213 108.8125 71.0625 108.8125 L 74.6875 108.8125 C 75.939787 108.8125 76.9375 107.81479 76.9375 106.5625 L 76.9375 91.4375 L 87.25 91.4375 L 87.25 68.65625 C 87.25 62.820903 82.554097 58.125 76.71875 58.125 L 68.375 58.125 C 68.441573 57.410208 68.513306 56.690647 68.6875 56 C 69.325826 53.444645 70.724017 51.041814 72.625 49.21875 C 74.313407 47.554577 76.579357 46.298544 79.03125 45.28125 C 81.49618 44.272607 84.227308 43.583149 87.09375 42.875 C 92.87147 41.561835 99.375411 39.96606 105.03125 35.75 C 108.84975 32.765259 111.66524 28.654408 113.09375 24.0625 C 113.41678 23.024132 113.24701 21.945309 112.71875 21.15625 C 112.19049 20.367191 111.32051 19.884219 110.3125 19.75 C 110.0605 19.716445 109.80515 19.67879 109.5625 19.6875 z " style="fill:#aaaaaa"/>
</svg>