<?xml version="1.0" encoding="UTF-8" standalone="no"?>
<svg xmlns:dc="http://purl.org/dc/elements/1.1/"
     xmlns:cc="http://creativecommons.org/ns#"
     xmlns:rdf="http://www.w3.org/1999/02/22-rdf-syntax-ns#"
     xmlns:svg="http://www.w3.org/2000/svg"
     xmlns="http://www.w3.org/2000/svg"
     xmlns:xlink="http://www.w3.org/1999/xlink"
     width="128" height="128" version="1.1">
    <title>Clarity Icon</title>
    <desc>This is shape (source) for Clarity vector icon theme for gtk</desc>
    <metadata>
        <rdf:RDF>
            <cc:Work rdf:about="">
                <dc:title>Clarity Icon</dc:title>
                <dc:description>This is shape (source) for Clarity vector icon theme for gtk</dc:description>
                <dc:creator>
                    <cc:Agent>
                        <dc:title>Jakub Jankiewicz</dc:title>
                    </cc:Agent>
                </dc:creator>
                <dc:rights>
                    <cc:Agent>
                        <dc:title>Jakub Jankiewicz</dc:title>
                    </cc:Agent>
                </dc:rights>
                <dc:date>2010</dc:date>
                <dc:format>image/svg+xml</dc:format>
                <dc:type rdf:resource="http://purl.org/dc/dcmitype/StillImage" />
                <cc:license rdf:resource="http://creativecommons.org/licenses/by-sa/3.0/" />
             </cc:Work>
        </rdf:RDF>
    </metadata>
    <path d="m 23.8481,25.997385 c -3.191414,0 -5.78125,2.589836 -5.78125,5.78125 l 0,2.21875 c -5.32195,0.167792 -9.5625,4.479565 -9.5625,9.84375 l 0,48.3125 c 0,5.471296 4.403704,9.874995 9.875,9.874995 l 91.21875,0 c 5.4713,0 9.875,-4.403699 9.875,-9.874995 l 0,-48.3125 c 0,-5.471296 -4.4037,-9.875 -9.875,-9.875 l -70.90625,0 0,-2.1875 c 0,-3.191414 -2.558586,-5.78125 -5.75,-5.78125 l -9.09375,0 z m 61.875,21.96875 c 11.057987,0 20.03125,8.973263 20.03125,20.03125 0,11.057987 -8.973263,20.03125 -20.03125,20.03125 -11.057986,0 -20.03125,-8.973263 -20.03125,-20.03125 0,-11.057987 8.973264,-20.03125 20.03125,-20.03125 z m -52.4375,2.03125 c 1.057279,0 1.90625,0.848972 1.90625,1.90625 l 0,32.1875 c 0,1.057278 -0.848971,1.90625 -1.90625,1.90625 -1.057278,0 -1.90625,-0.848972 -1.90625,-1.90625 l 0,-32.1875 c 0,-1.057278 0.848972,-1.90625 1.90625,-1.90625 z m 52.4375,6 c -6.634792,0 -12,5.365208 -12,12 0,6.634792 5.365208,12.03125 12,12.03125 6.634792,0 12.03125,-5.396458 12.03125,-12.03125 0,-6.634792 -5.396458,-12 -12.03125,-12 z" style="fill:#aaaaaa"/>
</svg>