<?xml version="1.0" encoding="UTF-8" standalone="no"?>
<svg xmlns:dc="http://purl.org/dc/elements/1.1/"
     xmlns:cc="http://creativecommons.org/ns#"
     xmlns:rdf="http://www.w3.org/1999/02/22-rdf-syntax-ns#"
     xmlns:svg="http://www.w3.org/2000/svg"
     xmlns="http://www.w3.org/2000/svg"
     xmlns:xlink="http://www.w3.org/1999/xlink"
     width="128" height="128" version="1.1">
    <title>E-Book Reader Icon</title>
    <desc>This is shape (source) for Clarity vector icon theme for gtk</desc>
    <metadata>
        <rdf:RDF>
            <cc:Work rdf:about="">
                <dc:title>E-Book Reader Icon</dc:title>
                <dc:description>This is shape (source) for Clarity vector icon theme for gtk</dc:description>
                <dc:creator>
                    <cc:Agent>
                        <dc:title>Jakub Jankiewicz</dc:title>
                    </cc:Agent>
                </dc:creator>
                <dc:rights>
                    <cc:Agent>
                        <dc:title>Jakub Jankiewicz</dc:title>
                    </cc:Agent>
                </dc:rights>
                <dc:date>2010</dc:date>
                <dc:format>image/svg+xml</dc:format>
                <dc:type rdf:resource="http://purl.org/dc/dcmitype/StillImage" />
                <cc:license rdf:resource="http://creativecommons.org/licenses/by-sa/3.0/" />
             </cc:Work>
        </rdf:RDF>
    </metadata>
    <path d="m 36.338867,5.2158206 c -6.310394,0 -11.388672,5.0782734 -11.388672,11.3886714 v 94.791018 c 0,6.31041 5.078278,11.38867 11.388672,11.38867 h 55.322266 c 6.310392,0 11.388677,-5.07826 11.388677,-11.38867 V 16.604492 c 0,-6.310398 -5.078285,-11.3886714 -11.388677,-11.3886714 z m 1.183594,6.9277344 h 52.955078 c 2.983801,0 5.373046,2.389243 5.373046,5.373046 v 79.009766 c 0,2.983802 -2.389245,5.373053 -5.373046,5.373053 H 37.522461 c -2.983801,0 -5.373047,-2.389251 -5.373047,-5.373053 V 17.516601 c 0,-2.983803 2.389246,-5.373046 5.373047,-5.373046 z m 9.274662,7.151615 -4.904297,12.580078 c -1.911048,4.877451 -2.368249,5.531544 -4.279297,5.902344 l -0.314453,0.05859 v 0.882812 h 7.644531 v -0.882812 c -1.026831,-0.142616 -1.512417,-0.25737 -1.826172,-0.457031 -1.026831,-0.684555 -0.79743,-1.824582 -0.169921,-3.421876 l 0.912109,-2.453124 h 7.359375 l 1.425781,3.679687 c 0.627509,1.768433 0.427965,2.310066 -1.939453,2.652344 v 0.882812 h 8.015625 V 37.836186 C 56.866949,37.550955 56.525127,37.236881 55.498295,34.584233 L 49.45142,19.29517 Z m 0.65625,2.425781 3.251953,8.556641 h -6.417969 z m 18.689453,2.908204 c -2.795264,0 -6.21875,1.426767 -6.21875,3.623046 0,0.684555 0.62754,1.253907 1.369141,1.253907 0.798647,0 1.455078,-0.654478 1.455078,-1.453125 l -0.0293,-0.798828 c 0,-0.827171 1.283565,-1.484376 2.880859,-1.484376 2.025141,0 3.310547,0.999589 3.310547,2.56836 v 2.28125 c -2.966403,0.313754 -9.613281,0.798554 -9.613281,4.820312 0,2.053664 1.854022,3.53711 4.392578,3.53711 1.911048,0 3.309655,-0.599972 5.220703,-2.197266 0.541939,1.540248 1.510496,2.197266 3.19336,2.197266 1.19797,0 2.138853,-0.343158 2.9375,-1.113282 l -0.541013,-0.740234 c -0.484893,0.427847 -0.79831,0.570313 -1.283203,0.570313 -1.568771,0 -1.597656,-1.425813 -1.597656,-2.794922 v -6.048828 c 0,-3.422773 -3.166191,-4.220704 -5.476563,-4.220703 z m 2.767578,6.988281 v 3.878906 c -1.597294,1.511725 -2.796501,2.111328 -4.222656,2.111328 -1.369109,0 -2.480469,-1.084016 -2.480469,-2.453125 0,-1.911048 2.396136,-3.166309 6.703125,-3.537109 z M 41.510742,107.27246 c 2.742939,0 4.966797,2.2258 4.966797,4.96875 0,2.74294 -2.223858,4.9668 -4.966797,4.9668 -2.74294,0 -4.96875,-2.22386 -4.96875,-4.9668 0,-2.74295 2.22581,-4.96875 4.96875,-4.96875 z m 15.003906,0 c 2.74294,0 4.966797,2.2258 4.966797,4.96875 0,2.74294 -2.223857,4.9668 -4.966797,4.9668 -2.742952,0 -4.966797,-2.22386 -4.966797,-4.9668 0,-2.74295 2.223845,-4.96875 4.966797,-4.96875 z m 15.003906,0 c 2.74294,0 4.96875,2.2258 4.96875,4.96875 0,2.74294 -2.22581,4.9668 -4.96875,4.9668 -2.742939,0 -4.966797,-2.22386 -4.966797,-4.9668 0,-2.74295 2.223858,-4.96875 4.966797,-4.96875 z m 15.00586,0 c 2.742939,0 4.966797,2.2258 4.966797,4.96875 0,2.74294 -2.223858,4.9668 -4.966797,4.9668 -2.742939,0 -4.96875,-2.22386 -4.96875,-4.9668 0,-2.74295 2.225811,-4.96875 4.96875,-4.96875 z" style="fill:#aaaaaa"/>
</svg>