<?xml version="1.0" encoding="UTF-8" standalone="no"?>
<svg xmlns:dc="http://purl.org/dc/elements/1.1/"
     xmlns:cc="http://creativecommons.org/ns#"
     xmlns:rdf="http://www.w3.org/1999/02/22-rdf-syntax-ns#"
     xmlns:svg="http://www.w3.org/2000/svg"
     xmlns="http://www.w3.org/2000/svg"
     xmlns:xlink="http://www.w3.org/1999/xlink"
     width="128" height="128" version="1.1">
    <title>Dialpad icon</title>
    <desc>This is shape (source) for Clarity vector icon theme for gtk</desc>
    <metadata>
        <rdf:RDF>
            <cc:Work rdf:about="">
                <dc:title>Dialpad icon</dc:title>
                <dc:description>This is shape (source) for Clarity vector icon theme for gtk</dc:description>
                <dc:creator>
                    <cc:Agent>
                        <dc:title>Jakub Jankiewicz</dc:title>
                    </cc:Agent>
                </dc:creator>
                <dc:rights>
                    <cc:Agent>
                        <dc:title>Jakub Jankiewicz</dc:title>
                    </cc:Agent>
                </dc:rights>
                <dc:date>2010</dc:date>
                <dc:format>image/svg+xml</dc:format>
                <dc:type rdf:resource="http://purl.org/dc/dcmitype/StillImage" />
                <cc:license rdf:resource="http://creativecommons.org/licenses/by-sa/3.0/" />
             </cc:Work>
        </rdf:RDF>
    </metadata>
    <path d="m 15.390625,14.65625 c -1.059211,0 -1.9375,0.847039 -1.9375,1.90625 l 0,16.78125 c 0,1.059211 0.878289,1.90625 1.9375,1.90625 l 24.375,0 c 1.059211,0 1.90625,-0.847039 1.90625,-1.90625 l 0,-16.78125 c 0,-1.059211 -0.847039,-1.90625 -1.90625,-1.90625 l -24.375,0 z m 36.40625,0 c -1.059211,0 -1.90625,0.847039 -1.90625,1.90625 l 0,16.78125 c 0,1.059211 0.847039,1.90625 1.90625,1.90625 l 24.40625,0 c 1.059211,0 1.90625,-0.847039 1.90625,-1.90625 l 0,-16.78125 c 0,-1.059211 -0.847039,-1.90625 -1.90625,-1.90625 l -24.40625,0 z m 36.4375,0 c -1.059211,0 -1.90625,0.847039 -1.90625,1.90625 l 0,16.78125 c 0,1.059211 0.847039,1.90625 1.90625,1.90625 l 24.375005,0 c 1.0592,0 1.9375,-0.847039 1.9375,-1.90625 l 0,-16.78125 c 0,-1.059211 -0.8783,-1.90625 -1.9375,-1.90625 l -24.375005,0 z M 15.390625,40.6875 c -1.059211,0 -1.9375,0.847039 -1.9375,1.90625 l 0,16.78125 c 0,1.059211 0.878289,1.90625 1.9375,1.90625 l 24.375,0 c 1.059211,0 1.90625,-0.847039 1.90625,-1.90625 l 0,-16.78125 c 0,-1.059211 -0.847039,-1.90625 -1.90625,-1.90625 l -24.375,0 z m 36.40625,0 c -1.059211,0 -1.90625,0.847039 -1.90625,1.90625 l 0,16.78125 c 0,1.059211 0.847039,1.90625 1.90625,1.90625 l 24.40625,0 c 1.059211,0 1.90625,-0.847039 1.90625,-1.90625 l 0,-16.78125 c 0,-1.059211 -0.847039,-1.90625 -1.90625,-1.90625 l -24.40625,0 z m 36.4375,0 c -1.059211,0 -1.90625,0.847039 -1.90625,1.90625 l 0,16.78125 c 0,1.059211 0.847039,1.90625 1.90625,1.90625 l 24.375005,0 c 1.0592,0 1.9375,-0.847039 1.9375,-1.90625 l 0,-16.78125 c 0,-1.059211 -0.8783,-1.90625 -1.9375,-1.90625 l -24.375005,0 z m -72.84375,26.03125 c -1.059211,0 -1.9375,0.847039 -1.9375,1.90625 l 0,16.78125 c 0,1.059211 0.878289,1.90625 1.9375,1.90625 l 24.375,0 c 1.059211,0 1.90625,-0.847039 1.90625,-1.90625 l 0,-16.78125 c 0,-1.059211 -0.847039,-1.90625 -1.90625,-1.90625 l -24.375,0 z m 36.40625,0 c -1.059211,0 -1.90625,0.847039 -1.90625,1.90625 l 0,16.78125 c 0,1.059211 0.847039,1.90625 1.90625,1.90625 l 24.40625,0 c 1.059211,0 1.90625,-0.847039 1.90625,-1.90625 l 0,-16.78125 c 0,-1.059211 -0.847039,-1.90625 -1.90625,-1.90625 l -24.40625,0 z m 36.4375,0 c -1.059211,0 -1.90625,0.847039 -1.90625,1.90625 l 0,16.78125 c 0,1.059211 0.847039,1.90625 1.90625,1.90625 l 24.375005,0 c 1.0592,0 1.9375,-0.847039 1.9375,-1.90625 l 0,-16.78125 c 0,-1.059211 -0.8783,-1.90625 -1.9375,-1.90625 l -24.375005,0 z M 51.796875,92.75 c -1.059211,0 -1.90625,0.847039 -1.90625,1.90625 l 0,16.78125 c 0,1.05921 0.847039,1.90625 1.90625,1.90625 l 24.40625,0 c 1.059211,0 1.90625,-0.84704 1.90625,-1.90625 l 0,-16.78125 c 0,-1.059211 -0.847039,-1.90625 -1.90625,-1.90625 l -24.40625,0 z" style="fill:#aaaaaa"/>
</svg>