<?xml version="1.0" encoding="UTF-8" standalone="no"?>
<svg xmlns:dc="http://purl.org/dc/elements/1.1/"
     xmlns:cc="http://creativecommons.org/ns#"
     xmlns:rdf="http://www.w3.org/1999/02/22-rdf-syntax-ns#"
     xmlns:svg="http://www.w3.org/2000/svg"
     xmlns="http://www.w3.org/2000/svg"
     xmlns:xlink="http://www.w3.org/1999/xlink"
     width="128" height="128" version="1.1">
    <title>Clarity Icon</title>
    <desc>This is shape (source) for Clarity vector icon theme for gtk</desc>
    <metadata>
        <rdf:RDF>
            <cc:Work rdf:about="">
                <dc:title>Clarity Icon</dc:title>
                <dc:description>This is shape (source) for Clarity vector icon theme for gtk</dc:description>
                <dc:creator>
                    <cc:Agent>
                        <dc:title>Jakub Jankiewicz</dc:title>
                    </cc:Agent>
                </dc:creator>
                <dc:rights>
                    <cc:Agent>
                        <dc:title>Jakub Jankiewicz</dc:title>
                    </cc:Agent>
                </dc:rights>
                <dc:date>2010</dc:date>
                <dc:format>image/svg+xml</dc:format>
                <dc:type rdf:resource="http://purl.org/dc/dcmitype/StillImage" />
                <cc:license rdf:resource="http://creativecommons.org/licenses/by-sa/3.0/" />
             </cc:Work>
        </rdf:RDF>
    </metadata>
    <path d="m 20.16939,28.596711 c -3.726976,0 -6.71908,3.020574 -6.71908,6.747551 l 0,33.680813 c -1.199302,1.213691 -1.936006,2.877147 -1.936006,4.726133 l 0,18.933001 c 0,3.726977 2.992103,6.719085 6.71908,6.719085 l 1.936006,0 88.08828,0 1.50895,0 c 3.72698,0 6.71908,-2.992108 6.71908,-6.719085 l 0,-18.933001 c 0,-1.616218 -0.56589,-3.084617 -1.50894,-4.242131 l 0,-34.164815 c 0,-3.726977 -2.9921,-6.747551 -6.71909,-6.747551 l -88.08828,0 z m 20.328065,24.114665 c 4.404182,0 7.97179,3.567607 7.97179,7.97179 0,4.404184 -3.567608,8.000261 -7.97179,8.000261 -4.404182,0 -7.97179,-3.596077 -7.97179,-8.000261 0,-4.404183 3.567608,-7.97179 7.97179,-7.97179 z m 13.210395,0 21.011361,0 0,10.135562 -21.011361,0 0,-10.135562 z m 34.250226,0 c 4.404182,0 7.97179,3.567607 7.97179,7.97179 0,4.404184 -3.567608,8.000261 -7.97179,8.000261 -4.404181,0 -7.97179,-3.596077 -7.97179,-8.000261 0,-4.404183 3.567609,-7.97179 7.97179,-7.97179 z M 51.771844,84.228417 c 2.470635,0 4.469896,1.999258 4.469896,4.469897 0,2.470639 -1.999261,4.469897 -4.469896,4.469897 -2.470636,0 -4.469897,-1.999258 -4.469897,-4.469897 0,-2.470639 1.999261,-4.469897 4.469897,-4.469897 z m 24.883373,0 c 2.470635,0 4.469896,1.999258 4.469896,4.469897 0,2.470639 -1.999261,4.469897 -4.469896,4.469897 -2.470635,0 -4.469897,-1.999258 -4.469897,-4.469897 0,-2.470639 1.999262,-4.469897 4.469897,-4.469897 z M 39.8711,86.961603 c 1.826123,0 3.302599,1.476474 3.302599,3.302598 0,1.826125 -1.476476,3.302599 -3.302599,3.302599 -1.826123,0 -3.302599,-1.476474 -3.302599,-3.302599 0,-1.826124 1.476476,-3.302598 3.302599,-3.302598 z m 48.22933,0 c 1.826123,0 3.302599,1.476474 3.302599,3.302598 0,1.826125 -1.476476,3.302599 -3.302599,3.302599 -1.826123,0 -3.302599,-1.476474 -3.302599,-3.302599 0,-1.826124 1.476476,-3.302598 3.302599,-3.302598 z" style="fill:#aaaaaa"/>
</svg>