<?xml version="1.0" encoding="UTF-8" standalone="no"?>
<svg xmlns:dc="http://purl.org/dc/elements/1.1/"
     xmlns:cc="http://creativecommons.org/ns#"
     xmlns:rdf="http://www.w3.org/1999/02/22-rdf-syntax-ns#"
     xmlns:svg="http://www.w3.org/2000/svg"
     xmlns="http://www.w3.org/2000/svg"
     xmlns:xlink="http://www.w3.org/1999/xlink"
     width="128" height="128" version="1.1">
    <title>CDRW Icon</title>
    <desc>This is shape (source) for Clarity vector icon theme for gtk</desc>
    <metadata>
        <rdf:RDF>
            <cc:Work rdf:about="">
                <dc:title>CDRW Icon</dc:title>
                <dc:description>This is shape (source) for Clarity vector icon theme for gtk</dc:description>
                <dc:creator>
                    <cc:Agent>
                        <dc:title>Jakub Jankiewicz</dc:title>
                    </cc:Agent>
                </dc:creator>
                <dc:rights>
                    <cc:Agent>
                        <dc:title>Jakub Jankiewicz</dc:title>
                    </cc:Agent>
                </dc:rights>
                <dc:date>2010</dc:date>
                <dc:format>image/svg+xml</dc:format>
                <dc:type rdf:resource="http://purl.org/dc/dcmitype/StillImage" />
                <cc:license rdf:resource="http://creativecommons.org/licenses/by-sa/3.0/" />
             </cc:Work>
        </rdf:RDF>
    </metadata>
    <path d="M 64 13 C 35.830851 13 13 35.830851 13 64 C 13 92.169149 35.830851 115 64 115 C 92.169149 115 115 92.169149 115 64 C 115 35.830851 92.169149 13 64 13 z M 64 54.03125 C 69.50281 54.03125 73.9375 58.49719 73.9375 64 C 73.9375 69.50281 69.50281 73.9375 64 73.9375 C 58.49719 73.9375 54.03125 69.50281 54.03125 64 C 54.03125 58.49719 58.49719 54.03125 64 54.03125 z M 43.84375 84.5625 C 45.098221 84.562517 46.121407 84.826912 46.9375 85.3125 C 47.753576 85.79812 48.306199 86.396608 48.5625 87.125 C 48.818781 87.846676 48.937489 88.969009 48.9375 90.5 L 48.9375 92.0625 L 44.6875 92.0625 L 44.6875 89.21875 C 44.687493 88.389188 44.625667 87.858599 44.53125 87.65625 C 44.443565 87.447184 44.247741 87.343764 43.9375 87.34375 C 43.58678 87.343764 43.375668 87.469217 43.28125 87.71875 C 43.186822 87.96831 43.124995 88.514188 43.125 89.34375 L 43.125 96.9375 C 43.124995 97.733355 43.186822 98.257201 43.28125 98.5 C 43.375668 98.742805 43.575764 98.875002 43.90625 98.875 C 44.223236 98.875002 44.436821 98.742805 44.53125 98.5 C 44.632411 98.257201 44.687493 97.709523 44.6875 96.8125 L 44.6875 94.75 L 48.9375 94.75 L 48.9375 95.375 C 48.937489 97.067876 48.805292 98.26058 48.5625 98.96875 C 48.326432 99.676925 47.79157 100.31093 46.96875 100.84375 C 46.152657 101.37657 45.169265 101.65625 43.96875 101.65625 C 42.721012 101.65625 41.684337 101.42063 40.875 100.96875 C 40.065657 100.51687 39.513034 99.889603 39.25 99.09375 C 38.986963 98.291157 38.874999 97.073947 38.875 95.46875 L 38.875 90.6875 C 38.874999 89.507223 38.919065 88.618035 39 88.03125 C 39.080933 87.437747 39.320823 86.89007 39.71875 86.34375 C 40.123418 85.79746 40.666824 85.372763 41.375 85.0625 C 42.089914 84.745525 42.919748 84.562517 43.84375 84.5625 z M 50.46875 84.90625 L 53.65625 84.90625 C 55.713319 84.906266 57.12208 84.99867 57.84375 85.1875 C 58.572148 85.376362 59.122298 85.693367 59.5 86.125 C 59.877682 86.556663 60.124316 87.060948 60.21875 87.59375 C 60.313162 88.119835 60.343739 89.136275 60.34375 90.6875 L 60.34375 96.4375 C 60.343739 97.907806 60.266624 98.875909 60.125 99.375 C 59.990099 99.86735 59.75021 100.27923 59.40625 100.5625 C 59.062271 100.83903 58.662079 101.01034 58.15625 101.125 C 57.650404 101.23291 56.862163 101.3125 55.84375 101.3125 L 50.46875 101.3125 L 50.46875 84.90625 z M 61.9375 84.90625 L 64.9375 84.90625 C 66.947357 84.906266 68.323069 85.001143 69.03125 85.15625 C 69.746159 85.31139 70.336103 85.703037 70.78125 86.34375 C 71.233122 86.977748 71.43749 88.01015 71.4375 89.40625 C 71.43749 90.680973 71.285732 91.530367 70.96875 91.96875 C 70.651749 92.407152 70.024483 92.66233 69.09375 92.75 C 69.936805 92.959088 70.522477 93.243044 70.8125 93.59375 C 71.102504 93.944472 71.276295 94.265749 71.34375 94.5625 C 71.417929 94.85252 71.43749 95.646832 71.4375 96.96875 L 71.4375 101.3125 L 67.5 101.3125 L 67.5 95.84375 C 67.499994 94.96697 67.422878 94.427837 67.28125 94.21875 C 67.146354 94.009678 66.774266 93.906257 66.1875 93.90625 L 66.1875 101.3125 L 61.9375 101.3125 L 61.9375 84.90625 z M 72.25 84.90625 L 76.40625 84.90625 L 76.8125 90.625 L 77.28125 96.15625 C 77.436369 93.303331 77.810255 89.539739 78.4375 84.90625 L 82.875 84.90625 C 82.93569 85.385126 83.094192 87.189807 83.34375 90.3125 L 83.8125 96.53125 C 84.048546 92.572233 84.446938 88.696676 85 84.90625 L 89.125 84.90625 L 87.25 101.3125 L 81.90625 101.3125 C 81.420636 98.796801 80.995939 95.922397 80.625 92.71875 C 80.456379 94.087892 80.057987 96.962297 79.4375 101.3125 L 74.15625 101.3125 L 72.25 84.90625 z M 54.75 87.71875 L 54.75 98.5 C 55.363744 98.500003 55.733359 98.367805 55.875 98.125 C 56.016628 97.875457 56.093744 97.217614 56.09375 96.125 L 56.09375 89.75 C 56.093744 89.008116 56.078455 88.552842 56.03125 88.34375 C 55.984032 88.134683 55.856106 87.969436 55.6875 87.875 C 55.518881 87.773846 55.215365 87.718764 54.75 87.71875 z M 66.1875 87.71875 L 66.1875 91.375 C 66.666354 91.37501 66.998648 91.315656 67.1875 91.1875 C 67.383084 91.05262 67.499994 90.596673 67.5 89.875 L 67.5 89 C 67.499994 88.480686 67.40759 88.130631 67.21875 87.96875 C 67.036642 87.806895 66.679843 87.718764 66.1875 87.71875 z " style="fill:#aaaaaa"/>
</svg>