<?xml version="1.0" encoding="UTF-8" standalone="no"?>
<svg xmlns:dc="http://purl.org/dc/elements/1.1/"
     xmlns:cc="http://creativecommons.org/ns#"
     xmlns:rdf="http://www.w3.org/1999/02/22-rdf-syntax-ns#"
     xmlns:svg="http://www.w3.org/2000/svg"
     xmlns="http://www.w3.org/2000/svg"
     xmlns:xlink="http://www.w3.org/1999/xlink"
     width="128" height="128" version="1.1">
    <title>Clarity Icon</title>
    <desc>This is shape (source) for Clarity vector icon theme for gtk</desc>
    <metadata>
        <rdf:RDF>
            <cc:Work rdf:about="">
                <dc:title>Clarity Icon</dc:title>
                <dc:description>This is shape (source) for Clarity vector icon theme for gtk</dc:description>
                <dc:creator>
                    <cc:Agent>
                        <dc:title>Jakub Jankiewicz</dc:title>
                    </cc:Agent>
                </dc:creator>
                <dc:rights>
                    <cc:Agent>
                        <dc:title>Jakub Jankiewicz</dc:title>
                    </cc:Agent>
                </dc:rights>
                <dc:date>2010</dc:date>
                <dc:format>image/svg+xml</dc:format>
                <dc:type rdf:resource="http://purl.org/dc/dcmitype/StillImage" />
                <cc:license rdf:resource="http://creativecommons.org/licenses/by-sa/3.0/" />
             </cc:Work>
        </rdf:RDF>
    </metadata>
    <path d="m 55.636768,20.029218 c -11.080001,0 -20.000001,8.92 -20.000001,20 l 0,39.8125 0,0.9375 c 0,1.508728 0.186289,2.963438 0.5,4.375 2.485633,13.10687 13.982424,23.000002 27.812501,23.000002 13.689418,0 25.108531,-9.68522 27.749999,-22.593752 0.0041,-0.01986 -0.004,-0.04262 0,-0.0625 0.365263,-1.516335 0.59375,-3.087152 0.59375,-4.71875 l 0,-0.9375 0,-39.8125 c 0,-11.08 -8.92,-20 -20,-20 l -4.15625,0 0,12.0625 c 1.280881,0.954754 2.125,2.491299 2.125,4.21875 l 0,10.46875 c 0,1.727451 -0.844119,3.263996 -2.125,4.21875 l 0,8.375 c 0,1.743738 -1.381261,3.15625 -3.124999,3.15625 -1.743738,0 -3.15625,-1.412512 -3.15625,-3.15625 l 0,-8.40625 c -1.263636,-0.956162 -2.09375,-2.473681 -2.09375,-4.1875 l 0,-10.46875 c 0,-1.713819 0.830114,-3.231338 2.09375,-4.1875 l 0,-12.09375 -6.21875,0 z" style="fill:#aaaaaa"/>
</svg>