<?xml version="1.0" encoding="UTF-8" standalone="no"?>
<svg xmlns:dc="http://purl.org/dc/elements/1.1/"
     xmlns:cc="http://creativecommons.org/ns#"
     xmlns:rdf="http://www.w3.org/1999/02/22-rdf-syntax-ns#"
     xmlns:svg="http://www.w3.org/2000/svg"
     xmlns="http://www.w3.org/2000/svg"
     xmlns:xlink="http://www.w3.org/1999/xlink"
     width="128" height="128" version="1.1">
    <title>Clarity Icon</title>
    <desc>This is shape (source) for Clarity vector icon theme for gtk</desc>
    <metadata>
        <rdf:RDF>
            <cc:Work rdf:about="">
                <dc:title>Clarity Icon</dc:title>
                <dc:description>This is shape (source) for Clarity vector icon theme for gtk</dc:description>
                <dc:creator>
                    <cc:Agent>
                        <dc:title>Jakub Jankiewicz</dc:title>
                    </cc:Agent>
                </dc:creator>
                <dc:rights>
                    <cc:Agent>
                        <dc:title>Jakub Jankiewicz</dc:title>
                    </cc:Agent>
                </dc:rights>
                <dc:date>2010</dc:date>
                <dc:format>image/svg+xml</dc:format>
                <dc:type rdf:resource="http://purl.org/dc/dcmitype/StillImage" />
                <cc:license rdf:resource="http://creativecommons.org/licenses/by-sa/3.0/" />
             </cc:Work>
        </rdf:RDF>
    </metadata>
    <path d="m 30.415586,21.164325 c -4.147657,0 -7.485415,3.337759 -7.485415,7.485415 l 0,70.700525 c 0,4.147655 3.337758,7.485415 7.485415,7.485415 l 67.168828,0 c 4.147656,0 7.485416,-3.33776 7.485416,-7.485415 l 0,-70.700525 c 0,-4.147656 -3.33776,-7.485415 -7.485416,-7.485415 l -67.168828,0 z m 3.509482,9.306792 58.01752,0 c 2.15882,0 3.909297,1.728268 3.909297,3.887085 l 0,26.943051 -65.813901,0 0,-26.943051 c 0,-2.158817 1.728264,-3.887085 3.887084,-3.887085 z m 6.308184,42.136 19.835239,11.461348 -19.835239,11.461351 0,-22.922699 z m 27.809316,0 7.485415,0 0,22.922699 -7.485415,0 0,-22.922699 z m 12.260977,0 7.463203,0 0,22.922699 -7.463203,0 0,-22.922699 z" style="fill:#aaaaaa"/>
</svg>