<?xml version="1.0" encoding="UTF-8" standalone="no"?>
<svg xmlns:dc="http://purl.org/dc/elements/1.1/"
     xmlns:cc="http://creativecommons.org/ns#"
     xmlns:rdf="http://www.w3.org/1999/02/22-rdf-syntax-ns#"
     xmlns:svg="http://www.w3.org/2000/svg"
     xmlns="http://www.w3.org/2000/svg"
     xmlns:xlink="http://www.w3.org/1999/xlink"
     width="128" height="128" version="1.1">
    <title>Clarity Icon</title>
    <desc>This is shape (source) for Clarity vector icon theme for gtk</desc>
    <metadata>
        <rdf:RDF>
            <cc:Work rdf:about="">
                <dc:title>Clarity Icon</dc:title>
                <dc:description>This is shape (source) for Clarity vector icon theme for gtk</dc:description>
                <dc:creator>
                    <cc:Agent>
                        <dc:title>Jakub Jankiewicz</dc:title>
                    </cc:Agent>
                </dc:creator>
                <dc:rights>
                    <cc:Agent>
                        <dc:title>Jakub Jankiewicz</dc:title>
                    </cc:Agent>
                </dc:rights>
                <dc:date>2010</dc:date>
                <dc:format>image/svg+xml</dc:format>
                <dc:type rdf:resource="http://purl.org/dc/dcmitype/StillImage" />
                <cc:license rdf:resource="http://creativecommons.org/licenses/by-sa/3.0/" />
             </cc:Work>
        </rdf:RDF>
    </metadata>
    <path d="m 25.629974,19.755348 c -3.851301,0 -6.936216,3.084915 -6.936216,6.936216 l 0,74.590596 c 0,3.8513 3.084915,6.96249 6.936216,6.96249 l 76.718756,0 c 3.8513,0 6.96249,-3.11119 6.96249,-6.96249 l 0,-74.590596 c 0,-3.851301 -3.11119,-6.936216 -6.96249,-6.936216 l -76.718756,0 z m 29.610287,18.365209 17.471908,0 0,4.256314 12.296019,0 0,8.95928 6.620934,0 c 1.832304,0 3.310471,1.478163 3.310471,3.310467 l 0,30.240851 c 0,1.832304 -1.478167,3.310467 -3.310471,3.310467 l -55.279541,0 c -1.832304,0 -3.310467,-1.478163 -3.310467,-3.310467 l 0,-30.240851 c 0,-1.832304 1.478163,-3.310467 3.310467,-3.310467 l 6.59466,0 0,-8.95928 12.29602,0 0,-4.256314 z" style="fill:#aaaaaa"/>
</svg>