<?xml version="1.0" encoding="UTF-8" standalone="no"?>
<svg xmlns:dc="http://purl.org/dc/elements/1.1/"
     xmlns:cc="http://creativecommons.org/ns#"
     xmlns:rdf="http://www.w3.org/1999/02/22-rdf-syntax-ns#"
     xmlns:svg="http://www.w3.org/2000/svg"
     xmlns="http://www.w3.org/2000/svg"
     xmlns:xlink="http://www.w3.org/1999/xlink"
     width="128" height="128" version="1.1">
    <title>Clarity Icon</title>
    <desc>This is shape (source) for Clarity vector icon theme for gtk</desc>
    <metadata>
        <rdf:RDF>
            <cc:Work rdf:about="">
                <dc:title>Clarity Icon</dc:title>
                <dc:description>This is shape (source) for Clarity vector icon theme for gtk</dc:description>
                <dc:creator>
                    <cc:Agent>
                        <dc:title>Jakub Jankiewicz</dc:title>
                    </cc:Agent>
                </dc:creator>
                <dc:rights>
                    <cc:Agent>
                        <dc:title>Jakub Jankiewicz</dc:title>
                    </cc:Agent>
                </dc:rights>
                <dc:date>2010</dc:date>
                <dc:format>image/svg+xml</dc:format>
                <dc:type rdf:resource="http://purl.org/dc/dcmitype/StillImage" />
                <cc:license rdf:resource="http://creativecommons.org/licenses/by-sa/3.0/" />
             </cc:Work>
        </rdf:RDF>
    </metadata>
    <path d="m 42.081739,17.418674 c -5.000392,0 -9.024379,4.023986 -9.024379,9.024379 l 0,75.113897 c 0,5.0004 4.023987,9.02438 9.024379,9.02438 l 43.836523,0 c 5.000392,0 9.024383,-4.02398 9.024383,-9.02438 l 0,-75.113897 c 0,-5.000393 -4.023991,-9.024379 -9.024383,-9.024379 l -43.836523,0 z m 0.93725,5.489607 41.962023,0 c 2.364382,0 4.257793,1.893411 4.257793,4.257793 l 0,62.608302 c 0,2.364383 -1.893411,4.257793 -4.257793,4.257793 l -41.962023,0 c -2.364383,0 -4.257793,-1.89341 -4.257793,-4.257793 l 0,-62.608302 c 0,-2.364382 1.89341,-4.257793 4.257793,-4.257793 z m 3.159871,75.381685 c 2.173523,0 3.936451,1.762924 3.936451,3.936454 0,2.17352 -1.762928,3.93645 -3.936451,3.93645 -2.173522,0 -3.93645,-1.76293 -3.93645,-3.93645 0,-2.17353 1.762928,-3.936454 3.93645,-3.936454 z m 11.889687,0 c 2.173522,0 3.93645,1.762924 3.93645,3.936454 0,2.17352 -1.762928,3.93645 -3.93645,3.93645 -2.173522,0 -3.936451,-1.76293 -3.936451,-3.93645 0,-2.17353 1.762929,-3.936454 3.936451,-3.936454 z m 11.889686,0 c 2.173522,0 3.93645,1.762924 3.93645,3.936454 0,2.17352 -1.762928,3.93645 -3.93645,3.93645 -2.173522,0 -3.93645,-1.76293 -3.93645,-3.93645 0,-2.17353 1.762928,-3.936454 3.93645,-3.936454 z m 11.889686,0 c 2.173522,0 3.93645,1.762924 3.93645,3.936454 0,2.17352 -1.762928,3.93645 -3.93645,3.93645 -2.173522,0 -3.93645,-1.76293 -3.93645,-3.93645 0,-2.17353 1.762928,-3.936454 3.93645,-3.936454 z" style="fill:#aaaaaa"/>
</svg>