<?xml version="1.0" encoding="UTF-8" standalone="no"?>
<svg xmlns:dc="http://purl.org/dc/elements/1.1/"
     xmlns:cc="http://creativecommons.org/ns#"
     xmlns:rdf="http://www.w3.org/1999/02/22-rdf-syntax-ns#"
     xmlns:svg="http://www.w3.org/2000/svg"
     xmlns="http://www.w3.org/2000/svg"
     xmlns:xlink="http://www.w3.org/1999/xlink"
     width="128" height="128" version="1.1">
    <title>Clarity Icon</title>
    <desc>This is shape (source) for Clarity vector icon theme for gtk</desc>
    <metadata>
        <rdf:RDF>
            <cc:Work rdf:about="">
                <dc:title>Clarity Icon</dc:title>
                <dc:description>This is shape (source) for Clarity vector icon theme for gtk</dc:description>
                <dc:creator>
                    <cc:Agent>
                        <dc:title>Jakub Jankiewicz</dc:title>
                    </cc:Agent>
                </dc:creator>
                <dc:rights>
                    <cc:Agent>
                        <dc:title>Jakub Jankiewicz</dc:title>
                    </cc:Agent>
                </dc:rights>
                <dc:date>2010</dc:date>
                <dc:format>image/svg+xml</dc:format>
                <dc:type rdf:resource="http://purl.org/dc/dcmitype/StillImage" />
                <cc:license rdf:resource="http://creativecommons.org/licenses/by-sa/3.0/" />
             </cc:Work>
        </rdf:RDF>
    </metadata>
    <path d="m 22.171875,22.046877 c -3.97497,0 -7.1875,3.181281 -7.1875,7.15625 l 0,57 c 0,3.974969 3.21253,7.1875 7.1875,7.1875 l 83.687505,0 c 3.97497,0 7.15625,-3.212531 7.15625,-7.1875 l 0,-57 c 0,-3.974969 -3.18128,-7.15625 -7.15625,-7.15625 l -83.687505,0 z m 2.96875,8.21875 77.750005,0 0,54.9375 -77.750005,0 0,-54.9375 z m 27.53125,4.90625 -1.09375,2.34375 -0.0312,0.5 0.34375,1.65625 -2.1875,0.875 -0.875,-1.375 -0.40625,-0.375 -2.40625,-0.84375 -0.84375,0.8125 0.84375,2.4375 0.375,0.375 1.40625,0.90625 -0.90625,2.1875 -1.625,-0.34375 -0.53125,0 -2.34375,1.125 0,1.1875 2.34375,1.125 0.53125,0 1.625,-0.34375 0.90625,2.15625 -1.40625,0.9375 -0.375,0.375 -0.84375,2.4375 0.84375,0.84375 2.40625,-0.875 0.40625,-0.375 0.875,-1.375 2.1875,0.875 -0.34375,1.65625 0.0312,0.5 1.09375,2.34375 1.1875,0 1.09375,-2.34375 0.0312,-0.5 -0.3437,-1.65625 2.1875,-0.875 0.875,1.375 0.40625,0.375 2.40625,0.875 0.84375,-0.84375 -0.84375,-2.4375 -0.34375,-0.375 -1.40625,-0.9375 0.90625,-2.15625 1.59375,0.34375 0.5625,0 2.3125,-1.125 0,-1.1875 -2.3125,-1.125 -0.5625,0 -1.59375,0.34375 -0.90625,-2.1875 1.40625,-0.90625 0.34375,-0.375 0.84375,-2.4375 -0.84375,-0.8125 -2.40625,0.84375 -0.40625,0.375 -0.875,1.375 -2.1875,-0.875 0.34375,-1.65625 -0.0312,-0.5 -1.09375,-2.34375 -1.1875,0 z m 0.59375,7.3125 c 1.97188,0 3.59375,1.590615 3.59375,3.5625 0,1.971885 -1.62187,3.5625 -3.59375,3.5625 -1.97189,0 -3.5625,-1.590615 -3.5625,-3.5625 0,-1.971885 1.59061,-3.5625 3.5625,-3.5625 z m 12.25,6.9375 -1.53125,0.46875 -0.34375,3.09375 0.21875,0.8125 0.84375,1.625 -2.4375,1.78125 -1.28125,-1.34375 -0.71875,-0.40625 -3.03125,-0.625 -0.90625,1.28125 1.46875,2.6875 0.65625,0.53125 1.65625,0.8125 -0.90625,2.875 -1.84375,-0.3125 -0.8125,0.0625 -2.8125,1.28125 0,1.59375 2.8125,1.28125 0.8125,0.09375 1.84375,-0.34375 0.90625,2.875 -1.65625,0.8125 -0.65625,0.53125 -1.46875,2.71875 0.90625,1.25 3.03125,-0.59375 0.71875,-0.4375 1.28125,-1.34375 2.4375,1.78125 -0.84375,1.65625 -0.21875,0.8125 0.34375,3.0625 1.53125,0.5 2.09375,-2.28125 0.28125,-0.78125 0.28125,-1.8125 3.03125,0 0.25,1.8125 0.3125,0.78125 2.09375,2.28125 1.53125,-0.5 0.34375,-3.0625 -0.1875,-0.8125 -0.875,-1.65625 2.4375,-1.78125 1.28125,1.34375 0.71875,0.4375 3.03125,0.59375 0.9375,-1.25 -1.5,-2.71875 -0.65625,-0.53125 -1.65625,-0.8125 0.9375,-2.875 1.84375,0.34375 0.8125,-0.09375 2.78125,-1.28125 0,-1.59375 -2.78125,-1.28125 -0.8125,-0.0625 -1.84375,0.3125 -0.9375,-2.875 1.65625,-0.8125 0.65625,-0.53125 1.5,-2.6875 -0.9375,-1.28125 -3.03125,0.625 -0.71875,0.40625 -1.28125,1.34375 -2.4375,-1.78125 0.875,-1.625 0.1875,-0.8125 -0.34375,-3.09375 -1.53125,-0.46875 -2.09375,2.28125 -0.3125,0.75 -0.25,1.84375 -3.03125,0 -0.28125,-1.84375 -0.28125,-0.75 -2.09375,-2.28125 z m 4.15625,9.5 c 3.27723,0 5.96875,2.660262 5.96875,5.9375 0,3.277237 -2.69152,5.9375 -5.96875,5.9375 -3.27724,0 -5.9375,-2.660263 -5.9375,-5.9375 0,-3.277238 2.66026,-5.9375 5.9375,-5.9375 z m -29.9375,39.40625 c -4.23032,0 -7.625,3.394673 -7.625,7.624993 l 63.84375,0 c 0,-4.23032 -3.42593,-7.624993 -7.65625,-7.624993 l -48.5625,0 z" style="fill:#aaaaaa"/>
</svg>