<?xml version="1.0" encoding="UTF-8" standalone="no"?>
<svg xmlns:dc="http://purl.org/dc/elements/1.1/"
     xmlns:cc="http://creativecommons.org/ns#"
     xmlns:rdf="http://www.w3.org/1999/02/22-rdf-syntax-ns#"
     xmlns:svg="http://www.w3.org/2000/svg"
     xmlns="http://www.w3.org/2000/svg"
     xmlns:xlink="http://www.w3.org/1999/xlink"
     width="128" height="128" version="1.1">
    <title>Clarity Icon</title>
    <desc>This is shape (source) for Clarity vector icon theme for gtk</desc>
    <metadata>
        <rdf:RDF>
            <cc:Work rdf:about="">
                <dc:title>Clarity Icon</dc:title>
                <dc:description>This is shape (source) for Clarity vector icon theme for gtk</dc:description>
                <dc:creator>
                    <cc:Agent>
                        <dc:title>Jakub Jankiewicz</dc:title>
                    </cc:Agent>
                </dc:creator>
                <dc:rights>
                    <cc:Agent>
                        <dc:title>Jakub Jankiewicz</dc:title>
                    </cc:Agent>
                </dc:rights>
                <dc:date>2010</dc:date>
                <dc:format>image/svg+xml</dc:format>
                <dc:type rdf:resource="http://purl.org/dc/dcmitype/StillImage" />
                <cc:license rdf:resource="http://creativecommons.org/licenses/by-sa/3.0/" />
             </cc:Work>
        </rdf:RDF>
    </metadata>
    <path d="m 64.000181,18.04379 c -13.650936,0 -24.805879,11.154941 -24.805879,24.805879 l 0,14.728491 c -5.434652,1.19027 -9.474468,5.997902 -9.474468,11.800017 l 0,28.251136 c 0,6.701757 5.399731,12.101477 12.101479,12.101477 l 44.357737,0 c 6.70175,0 12.05842,-5.39972 12.05842,-12.101477 l 0,-28.251136 c 0,-5.787578 -4.01734,-10.59459 -9.43141,-11.800017 l 0,-14.728491 c 0,-13.650938 -11.15494,-24.805879 -24.805879,-24.805879 z m 0,8.268626 c 9.182244,0 16.537259,7.355011 16.537259,16.537253 l 0,14.470096 -33.074512,0 0,-14.470096 c 0,-9.182242 7.355013,-16.537253 16.537253,-16.537253 z" style="fill:#aaaaaa"/>
</svg>