<?xml version="1.0" encoding="UTF-8" standalone="no"?>
<svg xmlns:dc="http://purl.org/dc/elements/1.1/"
     xmlns:cc="http://creativecommons.org/ns#"
     xmlns:rdf="http://www.w3.org/1999/02/22-rdf-syntax-ns#"
     xmlns:svg="http://www.w3.org/2000/svg"
     xmlns="http://www.w3.org/2000/svg"
     xmlns:xlink="http://www.w3.org/1999/xlink"
     width="128" height="128" version="1.1">
    <title>Hash-Comment Icon</title>
    <desc>This is shape (source) for Clarity vector icon theme for gtk</desc>
    <metadata>
        <rdf:RDF>
            <cc:Work rdf:about="">
                <dc:title>Hash-Comment Icon</dc:title>
                <dc:description>This is shape (source) for Clarity vector icon theme for gtk</dc:description>
                <dc:creator>
                    <cc:Agent>
                        <dc:title>Jakub Jankiewicz</dc:title>
                    </cc:Agent>
                </dc:creator>
                <dc:rights>
                    <cc:Agent>
                        <dc:title>Jakub Jankiewicz</dc:title>
                    </cc:Agent>
                </dc:rights>
                <dc:date>2010</dc:date>
                <dc:format>image/svg+xml</dc:format>
                <dc:type rdf:resource="http://purl.org/dc/dcmitype/StillImage" />
                <cc:license rdf:resource="http://creativecommons.org/licenses/by-sa/3.0/" />
             </cc:Work>
        </rdf:RDF>
    </metadata>
    <path d="m 31.061471,117.80906 6.175976,-30.240976 -11.997007,0 0,-10.577237 14.126652,0 5.253128,-25.768727 -19.37978,0 0,-10.577237 21.509426,0 6.175974,-30.45395 10.648231,0 -6.175974,30.45395 22.361286,0 6.175973,-30.45395 10.719221,0 -6.175974,30.45395 12.280957,0 0,10.577237 -14.410604,0 -5.324116,25.768727 19.73472,0 0,10.577237 -21.864365,0 -6.175976,30.240976 -10.64823,0 6.104987,-30.240976 -22.290298,0 -6.175975,30.240976 -10.648232,0 m 18.953853,-40.818213 22.290297,0 5.324115,-25.768727 -22.361284,0 -5.253128,25.768727" style="fill:#aaaaaa"/>
</svg>