<?xml version="1.0" encoding="UTF-8" standalone="no"?>
<svg xmlns:dc="http://purl.org/dc/elements/1.1/"
     xmlns:cc="http://creativecommons.org/ns#"
     xmlns:rdf="http://www.w3.org/1999/02/22-rdf-syntax-ns#"
     xmlns:svg="http://www.w3.org/2000/svg"
     xmlns="http://www.w3.org/2000/svg"
     xmlns:xlink="http://www.w3.org/1999/xlink"
     width="128" height="128" version="1.1">
    <title>Sound Icon</title>
    <desc>This is shape (source) for Clarity vector icon theme for gtk</desc>
    <metadata>
        <rdf:RDF>
            <cc:Work rdf:about="">
                <dc:title>Sound Icon</dc:title>
                <dc:description>This is shape (source) for Clarity vector icon theme for gtk</dc:description>
                <dc:creator>
                    <cc:Agent>
                        <dc:title>Jakub Jankiewicz</dc:title>
                    </cc:Agent>
                </dc:creator>
                <dc:rights>
                    <cc:Agent>
                        <dc:title>Jakub Jankiewicz</dc:title>
                    </cc:Agent>
                </dc:rights>
                <dc:date>2010</dc:date>
                <dc:format>image/svg+xml</dc:format>
                <dc:type rdf:resource="http://purl.org/dc/dcmitype/StillImage" />
                <cc:license rdf:resource="http://www.gnu.org/copyleft/gpl.html" />
             </cc:Work>
        </rdf:RDF>
    </metadata>
    <path d="m 57.7452,6.8133442 0,23.5528358 0,43.714796 c -3.33278,-1.307033 -7.39636,-2.107841 -11.82223,-2.107841 -11.18986,0 -20.25361,4.923717 -20.25361,10.997433 0,6.073712 9.06375,10.997429 20.25361,10.997429 11.18985,0 20.2536,-4.923717 20.2536,-10.997429 l 0,-46.464157 27.7227,20.207785 0,44.585404 c -3.33277,-1.307033 -7.39638,-2.107834 -11.82224,-2.107834 -11.18986,0 -20.25361,4.923714 -20.25361,10.997434 0,6.07375 9.06375,10.99746 20.25361,10.99746 11.18984,0 20.25361,-4.92371 20.25361,-10.99746 l 0,-47.33477 0,-17.137666 0,-6.415171 L 57.7452,6.8133442 z" style="fill:#aaaaaa"/>
</svg>