<?xml version="1.0" encoding="UTF-8" standalone="no"?>
<svg xmlns:dc="http://purl.org/dc/elements/1.1/"
     xmlns:cc="http://creativecommons.org/ns#"
     xmlns:rdf="http://www.w3.org/1999/02/22-rdf-syntax-ns#"
     xmlns:svg="http://www.w3.org/2000/svg"
     xmlns="http://www.w3.org/2000/svg"
     xmlns:xlink="http://www.w3.org/1999/xlink"
     width="128" height="128" version="1.1">
    <title>Plus Icon</title>
    <desc>This is shape (source) for Clarity vector icon theme for gtk</desc>
    <metadata>
        <rdf:RDF>
            <cc:Work rdf:about="">
                <dc:title>Plus Icon</dc:title>
                <dc:description>This is shape (source) for Clarity vector icon theme for gtk</dc:description>
                <dc:creator>
                    <cc:Agent>
                        <dc:title>Jakub Jankiewicz</dc:title>
                    </cc:Agent>
                </dc:creator>
                <dc:rights>
                    <cc:Agent>
                        <dc:title>Jakub Jankiewicz</dc:title>
                    </cc:Agent>
                </dc:rights>
                <dc:date>2010</dc:date>
                <dc:format>image/svg+xml</dc:format>
                <dc:type rdf:resource="http://purl.org/dc/dcmitype/StillImage" />
                <cc:license rdf:resource="http://www.gnu.org/copyleft/gpl.html" />
             </cc:Work>
        </rdf:RDF>
    </metadata>
    <path d="m 63.984382,18.162123 c -11.73296,0 -23.45575,4.486999 -32.40625,13.437501 -17.901015,17.901004 -17.901015,46.911496 0,64.8125 17.901,17.901006 46.94275,17.901006 64.84375,0 17.900998,-17.901004 17.900998,-46.911496 0,-64.8125 -8.950499,-8.950502 -20.70454,-13.437501 -32.4375,-13.437501 z m -8.40625,18.187501 16.8125,0 0,19.25 19.25,0 0,16.8125 -19.25,0 0,19.25 -16.8125,0 0,-19.25 -19.25,0 0,-16.8125 19.25,0 0,-19.25 z" style="fill:#aaaaaa"/>
</svg>