<?xml version="1.0" encoding="UTF-8" standalone="no"?>
<svg xmlns:dc="http://purl.org/dc/elements/1.1/"
     xmlns:cc="http://creativecommons.org/ns#"
     xmlns:rdf="http://www.w3.org/1999/02/22-rdf-syntax-ns#"
     xmlns:svg="http://www.w3.org/2000/svg"
     xmlns="http://www.w3.org/2000/svg"
     xmlns:xlink="http://www.w3.org/1999/xlink"
     width="128" height="128" version="1.1">
    <title>Public Sharing Icon</title>
    <desc>This is shape (source) for Clarity vector icon theme for gtk</desc>
    <metadata>
        <rdf:RDF>
            <cc:Work rdf:about="">
                <dc:title>Public Sharing Icon</dc:title>
                <dc:description>This is shape (source) for Clarity vector icon theme for gtk</dc:description>
                <dc:creator>
                    <cc:Agent>
                        <dc:title>Jakub Jankiewicz</dc:title>
                    </cc:Agent>
                </dc:creator>
                <dc:rights>
                    <cc:Agent>
                        <dc:title>Jakub Jankiewicz</dc:title>
                    </cc:Agent>
                </dc:rights>
                <dc:date>2010</dc:date>
                <dc:format>image/svg+xml</dc:format>
                <dc:type rdf:resource="http://purl.org/dc/dcmitype/StillImage" />
                <cc:license rdf:resource="http://creativecommons.org/licenses/by-sa/3.0/" />
             </cc:Work>
        </rdf:RDF>
    </metadata>
    <path d="m 15.025864,40.906011 c 1.557044,-0.0074 3.229503,0.111858 4.12457,0.589224 1.432109,0.763791 2.778371,2.101865 3.351214,3.056602 0.572843,0.954735 0.687448,1.178448 1.546713,1.178448 0.859265,0 2.928427,1.609488 4.45601,2.946122 1.527581,1.336635 3.203907,2.565603 3.203907,3.424867 0,0.859262 0.35601,0.471932 1.215275,0.662877 0.859265,0.190946 1.336696,0.70245 2.577857,1.657193 1.241161,0.954736 4.948446,2.947495 7.144345,3.424867 1.462259,0.317858 3.179076,0.605577 5.008407,0.331439 -0.468196,0.523917 -0.904444,1.111788 -1.288929,1.767673 -0.788476,1.345058 -1.06296,2.67754 -0.810183,3.903611 0.252777,1.226071 1.05481,2.300442 2.172765,3.019775 1.045513,0.672725 2.629216,1.214324 4.419182,1.730846 1.789966,0.516522 3.744364,0.980862 5.376672,1.399408 1.700127,0.435924 4.18004,0.838428 6.481468,1.104795 1.150714,0.133188 2.259474,0.223847 3.203907,0.257786 0.944434,0.03394 1.681264,0.03286 2.283245,-0.110479 0.742784,-0.176854 2.983035,-0.464322 5.303019,-0.662878 2.319983,-0.198557 4.82625,-0.331439 6.334163,-0.331439 3.140357,0 6.849732,-0.147306 6.849732,-0.147306 0.402104,-0.01884 0.718548,-0.408087 0.699704,-0.810183 -0.01886,-0.402104 -0.371253,-0.75535 -0.773357,-0.736531 0,0 -3.691071,0.184133 -6.776079,0.184133 -1.604773,0 -4.132426,0.130394 -6.481469,0.331439 -2.349042,0.201043 -4.463278,0.455923 -5.487152,0.699704 -0.281348,0.06654 -0.992832,0.105518 -1.878153,0.07365 -0.885319,-0.0318 -1.972724,-0.128078 -3.093427,-0.257786 -2.241407,-0.259425 -4.679698,-0.699459 -6.260509,-1.104796 -1.648628,-0.422723 -3.596997,-0.896478 -5.339846,-1.399407 -1.742847,-0.50293 -3.290935,-1.044581 -4.01409,-1.509888 -0.833098,-0.536051 -1.346067,-1.194039 -1.509888,-1.988632 -0.163819,-0.794592 -0.01561,-1.777857 0.626051,-2.872469 1.298174,-2.214536 3.793132,-3.756305 3.793132,-3.756305 0.116501,-0.06136 0.223363,-0.183885 0.294612,-0.294612 2.953531,-1.079422 7.243195,-1.408199 10.458732,-1.325755 3.723482,0.09547 5.428565,0.664247 8.101835,1.141623 2.673269,0.477364 5.713611,-1.060722 7.62309,-2.798816 1.909478,-1.738094 7.470742,-3.799449 11.195263,-4.750621 3.770207,-0.962831 9.738641,-1.518256 12.889278,-0.773357 3.15064,0.74489 6.1187,3.057723 8.02819,4.050917 1.90947,0.993195 7.37294,3.130254 9.35393,3.130254 l 0,21.28573 c 0,5.060122 -0.96706,5.053423 -1.73084,5.339845 -0.76379,0.286422 -2.56017,-0.563334 -4.08775,-1.804499 -1.52759,-1.241154 -9.7509,-2.688336 -12.04227,-2.688336 -2.291376,0 -5.050797,-0.362762 -9.538069,1.546714 -4.487273,1.909475 -15.973206,5.844755 -17.787211,6.370988 -1.814004,0.526271 -3.12619,0.03683 -4.271877,0.03683 -1.145686,0 -2.396474,0.371608 -3.351213,0.699704 -0.954738,0.328097 -2.663827,1.24099 -4.382356,0.883837 C 60.518933,86.655663 59.48498,86.191997 57.670975,85.06101 55.856972,83.930029 51.245282,79.545062 45.039479,76.627737 38.833677,73.710417 32.252424,70.53354 29.388207,66.905535 26.52399,63.27753 21.466317,59.264632 17.456414,55.63662 13.44651,52.008614 10.00789,49.992594 9.2440999,49.228805 8.4803085,48.465015 8.2961759,47.918052 9.0599673,48.01353 c 0.7637915,0.09548 0.8674549,-2.028213 0.2946122,-2.982949 -0.5728439,-0.954735 0.090034,-2.201397 0.6628775,-1.914979 0.572844,0.286426 0.9548,-1.87134 2.577856,-2.062285 0.608647,-0.07158 1.496324,-0.14271 2.430551,-0.147306 z" style="fill:#aaaaaa"/>
</svg>