<?xml version="1.0" encoding="UTF-8" standalone="no"?>
<svg xmlns:dc="http://purl.org/dc/elements/1.1/"
     xmlns:cc="http://creativecommons.org/ns#"
     xmlns:rdf="http://www.w3.org/1999/02/22-rdf-syntax-ns#"
     xmlns:svg="http://www.w3.org/2000/svg"
     xmlns="http://www.w3.org/2000/svg"
     xmlns:xlink="http://www.w3.org/1999/xlink"
     width="128" height="128" version="1.1">
    <title>Multimedia Icon</title>
    <desc>This is shape (source) for Clarity vector icon theme for gtk</desc>
    <metadata>
        <rdf:RDF>
            <cc:Work rdf:about="">
                <dc:title>Multimedia Icon</dc:title>
                <dc:description>This is shape (source) for Clarity vector icon theme for gtk</dc:description>
                <dc:creator>
                    <cc:Agent>
                        <dc:title>Jakub Jankiewicz</dc:title>
                    </cc:Agent>
                </dc:creator>
                <dc:rights>
                    <cc:Agent>
                        <dc:title>Jakub Jankiewicz</dc:title>
                    </cc:Agent>
                </dc:rights>
                <dc:date>2010</dc:date>
                <dc:format>image/svg+xml</dc:format>
                <dc:type rdf:resource="http://purl.org/dc/dcmitype/StillImage" />
                <cc:license rdf:resource="http://www.gnu.org/copyleft/gpl.html" />
             </cc:Work>
        </rdf:RDF>
    </metadata>
    <path d="m 27.25902,8.2889273 0,10.6413477 0,28.209012 c -2.1517,-0.843836 -4.76156,-1.35378 -7.61895,-1.35378 -7.22432,0 -13.06556,3.193956 -13.06556,7.115219 0,3.921261 5.84124,7.083737 13.06556,7.083737 7.2243,0 13.06556,-3.162476 13.06556,-7.083737 l 0,-32.301838 c 6.39343,1.207694 4.54275,8.259763 17.81953,17.252835 -11.46593,8.139979 -18.95293,21.51233 -18.95293,36.646529 0,14.466456 6.82298,27.326508 17.441731,35.544598 -0.50243,1.12451 -1.30652,2.5942 -2.73904,4.31322 -0.70412,0.84494 -1.2415,1.14124 -1.70011,1.25933 -0.45859,0.11812 -0.95389,0.11264 -1.63712,-0.15742 -1.36646,-0.54023 -3.25854,-2.15662 -5.194741,-4.09283 -2.23843,-2.23842 -5.74186,-4.63036 -9.63388,-5.79291 -0.97301,-0.29064 -1.98902,-0.4802 -3.0224,-0.5667 -3.10013,-0.25951 -6.31935,0.53868 -8.6579,3.21129 l 3.05388,2.64459 c 1.92037,-2.1947 4.42572,-2.32354 7.46154,-1.41674 3.03581,0.9068 6.21346,3.03365 7.93379,4.75397 2.02255,2.02256 4.077681,4.01656 6.580001,5.00584 1.25115,0.49466 2.67326,0.68035 4.09282,0.31483 1.41957,-0.36552 2.71417,-1.26723 3.80948,-2.58163 1.4186,-1.70231 2.36342,-3.24873 3.0224,-4.56506 6.97028,4.44578 15.2359,7.05225 24.11618,7.05225 24.814979,0 44.926629,-20.11167 44.926629,-44.926628 0,-24.814977 -20.11165,-44.926631 -44.926629,-44.926631 -9.46947,0 -18.25802,2.932664 -25.50145,7.933785 C 43.16178,26.096045 41.97175,12.891587 27.25902,8.2889273 z M 69.0688,36.466457 c 6.55909,0 11.8692,5.34159 11.8692,11.900679 0,6.559087 -5.31011,11.869193 -11.8692,11.869193 -6.55909,0 -11.900669,-5.310106 -11.900669,-11.869193 0,-6.559089 5.341579,-11.900679 11.900669,-11.900679 z m 28.64979,9.13015 c 4.62817,0.008 9.01617,2.738634 10.92469,7.272636 2.54471,6.045336 -0.2828,13.008027 -6.32813,15.552737 -6.04534,2.544709 -13.008039,-0.282803 -15.55275,-6.328138 -2.5447,-6.045336 0.282811,-13.008027 6.32815,-15.552736 1.51133,-0.636179 3.08531,-0.947152 4.62804,-0.944499 z M 48.88803,62.975373 c 1.167551,-0.04345 2.3705,0.08796 3.55761,0.409284 6.33125,1.713731 10.05679,8.245502 8.34307,14.576755 -1.71373,6.331253 -8.24551,10.056798 -14.57675,8.343067 -6.33126,-1.713732 -10.0568,-8.21402 -8.34307,-14.545273 1.3924,-5.144142 5.95973,-8.595518 11.01914,-8.783833 z m 27.61083,7.020771 c 2.48449,0 4.502101,2.017605 4.502101,4.502108 0,2.484502 -2.01761,4.502107 -4.502101,4.502107 -2.4845,0 -4.502109,-2.017605 -4.502109,-4.502107 0,-2.484503 2.017609,-4.502108 4.502109,-4.502108 z m 23.7069,6.517038 c 3.03817,0.08738 6.02875,1.330326 8.28011,3.715025 4.50272,4.7694 4.29715,12.277867 -0.47224,16.780585 -4.7694,4.502708 -12.27788,4.297148 -16.7806,-0.472244 -4.50271,-4.769405 -4.297149,-12.277873 0.47224,-16.780589 2.384711,-2.25136 5.462341,-3.33016 8.50049,-3.242777 z M 70.70593,89.20094 c 1.915,-0.01634 3.8576,0.422235 5.66699,1.385263 5.79006,3.081693 7.99309,10.266397 4.91139,16.056457 -3.08169,5.79008 -10.2664,7.99309 -16.05646,4.9114 -5.79007,-3.0817 -7.99309,-10.26641 -4.9114,-16.056465 2.11867,-3.980667 6.17651,-6.260725 10.38948,-6.296655 z" style="fill:#aaaaaa"/>
</svg>