<?xml version="1.0" encoding="UTF-8" standalone="no"?>
<svg xmlns:dc="http://purl.org/dc/elements/1.1/"
     xmlns:cc="http://creativecommons.org/ns#"
     xmlns:rdf="http://www.w3.org/1999/02/22-rdf-syntax-ns#"
     xmlns:svg="http://www.w3.org/2000/svg"
     xmlns="http://www.w3.org/2000/svg"
     xmlns:xlink="http://www.w3.org/1999/xlink"
     width="128" height="128" version="1.1">
    <title>Blackboard Icon</title>
    <desc>This is shape (source) for Clarity vector icon theme for gtk</desc>
    <metadata>
        <rdf:RDF>
            <cc:Work rdf:about="">
                <dc:title>Blackboard Icon</dc:title>
                <dc:description>This is shape (source) for Clarity vector icon theme for gtk</dc:description>
                <dc:creator>
                    <cc:Agent>
                        <dc:title>Jakub Jankiewicz</dc:title>
                    </cc:Agent>
                </dc:creator>
                <dc:rights>
                    <cc:Agent>
                        <dc:title>Jakub Jankiewicz</dc:title>
                    </cc:Agent>
                </dc:rights>
                <dc:date>2010</dc:date>
                <dc:format>image/svg+xml</dc:format>
                <dc:type rdf:resource="http://purl.org/dc/dcmitype/StillImage" />
                <cc:license rdf:resource="http://creativecommons.org/licenses/by-sa/3.0/" />
             </cc:Work>
        </rdf:RDF>
    </metadata>
    <path d="m 18.71875,11.46875 c -4.751751,0 -8.53125,3.842006 -8.53125,8.59375 l 0,60.0625 c 0,4.751743 3.779499,8.59375 8.53125,8.59375 l 90.5,0 c 4.75174,0 8.59375,-3.842007 8.59375,-8.59375 l 0,-60.0625 c 0,-4.751744 -3.84201,-8.59375 -8.59375,-8.59375 l -90.5,0 z m 2.46875,16.84375 85.5625,0 0,44.03125 c 0,3.1423 -2.51395,5.625 -5.65625,5.625 l -74.1875,0 c -3.142305,0 -5.71875,-2.4827 -5.71875,-5.625 l 0,-44.03125 z M 59.125,36.59375 A 0.49340819,0.49340819 0 0 0 59.03125,36.625 l -5.375,2.1875 A 0.49340819,0.49340819 0 0 0 53.375,39.46875 l 0.25,0.65625 a 0.49340819,0.49340819 0 0 0 0.65625,0.28125 c 0.511338,-0.194773 0.91686,-0.281231 1.1875,-0.28125 0.194663,1.6e-5 0.333921,0.04672 0.46875,0.15625 0.08884,0.07219 0.23568,0.261216 0.3125,0.65625 0.07143,0.321487 0.124997,1.633456 0.125,3.65625 l 0,18.53125 a 0.49340819,0.49340819 0 0 0 0.21875,0.40625 c 1.145182,0.772336 2.287136,1.385468 3.40625,1.78125 1.125871,0.393379 2.212445,0.59375 3.3125,0.59375 2.349651,0 4.521662,-0.889564 6.40625,-2.625 2.209294,-2.032017 3.31248,-4.777035 3.3125,-8.0625 -2e-5,-2.8016 -0.695422,-5.049195 -2.15625,-6.71875 -1.438665,-1.657853 -3.208352,-2.562481 -5.1875,-2.5625 -1.841,1.7e-5 -3.543713,0.995115 -5.09375,2.75 l 0,-11.59375 a 0.49340819,0.49340819 0 0 0 -0.5,-0.5 l -0.875,0 a 0.49340819,0.49340819 0 0 0 -0.0625,0 0.49340819,0.49340819 0 0 0 -0.03125,0 z M 44.84375,45.9375 c -2.144786,1.9e-5 -3.867739,0.502596 -5.125,1.53125 -1.221382,0.999327 -1.906252,2.180693 -1.90625,3.46875 -2e-6,0.663426 0.168933,1.242617 0.5625,1.6875 a 0.49340819,0.49340819 0 0 0 0,0.03125 c 0.399382,0.432683 0.970492,0.656265 1.5625,0.65625 0.581005,1.4e-5 1.135931,-0.207751 1.53125,-0.625 l 0,-0.03125 c 0.410789,-0.440368 0.624993,-1.044052 0.625,-1.71875 l -0.03125,-1.125 c -4e-6,-0.426382 0.177987,-0.784242 0.59375,-1.15625 0.380824,-0.349937 0.859044,-0.531235 1.59375,-0.53125 0.978485,1.5e-5 1.635524,0.269045 2.09375,0.8125 0.435585,0.504903 0.749989,1.615607 0.75,3.34375 l 0,0.375 c -2.884104,1.061524 -5.047933,1.969379 -6.375,2.75 -1.362478,0.809399 -2.347579,1.709098 -2.9375,2.6875 l 0.03125,0 c -0.443254,0.723987 -0.687502,1.582276 -0.6875,2.53125 -2e-6,1.473918 0.425579,2.742424 1.3125,3.6875 a 0.49340819,0.49340819 0 0 0 0.03125,0 c 0.89622,0.93959 2.06194,1.40625 3.40625,1.40625 0.853577,0 1.693889,-0.172523 2.46875,-0.53125 0.490341,-0.231554 1.599054,-1.085957 2.84375,-2.03125 0.08249,0.682668 0.235585,1.267597 0.59375,1.6875 0.463228,0.543112 1.142028,0.874999 1.90625,0.875 1.57189,-10e-7 3.092316,-1.145423 4.59375,-3.15625 A 0.49340819,0.49340819 0 0 0 54.375,62.28125 l 0,-1.09375 a 0.49340819,0.49340819 0 0 0 -0.84375,-0.34375 c -0.768864,0.768851 -1.316792,1.23033 -1.5,1.34375 l 0,-0.03125 C 51.918549,62.22199 51.855527,62.25 51.75,62.25 c -0.0858,10e-7 -0.13189,-0.02217 -0.1875,-0.0625 0.02306,0.02096 -0.09935,-0.169935 -0.15625,-0.5 -0.04588,-0.275192 -0.09376,-1.331041 -0.09375,-3.03125 l 0,-6.09375 c -1.5e-5,-1.752528 -0.06918,-2.894378 -0.375,-3.625 -0.405932,-0.956786 -1.110217,-1.673879 -1.96875,-2.125 -1.106769,-0.581737 -2.478777,-0.874981 -4.125,-0.875 z m 39,0 c -2.46545,1.9e-5 -4.615642,0.940073 -6.375,2.78125 -1.758315,1.854486 -2.656251,4.308808 -2.65625,7.21875 -10e-7,2.987427 0.771844,5.408296 2.375,7.21875 1.582934,1.787629 3.517513,2.75 5.6875,2.75 1.82975,0 3.522105,-0.703892 5,-2.03125 1.495285,-1.356844 2.47122,-3.284959 2.96875,-5.71875 a 0.49340819,0.49340819 0 0 0 -0.25,-0.53125 l -0.5625,-0.28125 a 0.49340819,0.49340819 0 0 0 -0.6875,0.25 c -0.660519,1.536946 -1.322865,2.548435 -1.9375,3.0625 -0.938721,0.806329 -1.962411,1.187503 -3.125,1.1875 -1.626605,3e-6 -2.860257,-0.681194 -3.84375,-2.1875 -0.0052,-0.0081 0.0051,-0.02313 0,-0.03125 -0.979864,-1.553589 -1.468755,-3.330487 -1.46875,-5.375 -5e-6,-2.016668 0.469549,-3.578891 1.4375,-4.75 0.70775,-0.858575 1.598876,-1.249985 2.78125,-1.25 0.72453,1.5e-5 1.248002,0.172414 1.59375,0.46875 0.350529,0.310488 0.536221,0.727582 0.59375,1.40625 a 0.49340819,0.49340819 0 0 0 0,0.03125 c 0.08176,0.804106 0.211444,1.378887 0.5625,1.8125 0.48949,0.620058 1.247493,0.937514 2.125,0.9375 0.670086,1.4e-5 1.248667,-0.234402 1.65625,-0.625 0.41805,-0.401326 0.65623,-0.951724 0.65625,-1.5625 -2e-5,-1.194805 -0.710033,-2.273746 -1.90625,-3.25 -1.226811,-1.015261 -2.779493,-1.531231 -4.625,-1.53125 z m -19.6875,3.78125 c 1.148804,1.4e-5 2.143909,0.499421 3.09375,1.65625 0.929208,1.105667 1.406235,2.749227 1.40625,4.96875 -1.6e-5,2.420517 -0.473758,4.194618 -1.40625,5.375 -0.956105,1.225761 -1.928998,1.750001 -2.9375,1.75 -0.678725,10e-7 -1.317832,-0.110374 -1.96875,-0.40625 -0.584047,-0.281203 -1.167399,-0.731475 -1.75,-1.28125 l 0,-10.25 c 0.698696,-0.659222 1.293779,-1.146882 1.6875,-1.34375 0.62812,-0.319976 1.270517,-0.468736 1.875,-0.46875 z m -17.0625,5.25 0,5.78125 c -1.479068,1.157229 -2.672565,1.718751 -3.40625,1.71875 -0.582341,2e-6 -1.071854,-0.244954 -1.5625,-0.78125 -0.478857,-0.53453 -0.718754,-1.162082 -0.71875,-2 -4e-6,-0.647545 0.171809,-1.198436 0.5625,-1.75 0.379493,-0.535754 1.076127,-1.106874 2.0625,-1.65625 0.413518,-0.23495 1.671027,-0.744997 3.0625,-1.3125 z m -5.90625,38.46875 -12.71875,23.09375 8.71875,0 12.78125,-23.09375 -8.78125,0 z m 18.0625,0 0.5,23.09375 7.625,0 -0.5,-23.09375 -7.625,0 z m 19.1875,0 12.4375,23.09375 8.65625,0 -12.4375,-23.09375 -8.65625,0 z" style="fill:#aaaaaa"/>
</svg>