<?xml version="1.0" encoding="UTF-8" standalone="no"?>
<svg xmlns:dc="http://purl.org/dc/elements/1.1/"
     xmlns:cc="http://creativecommons.org/ns#"
     xmlns:rdf="http://www.w3.org/1999/02/22-rdf-syntax-ns#"
     xmlns:svg="http://www.w3.org/2000/svg"
     xmlns="http://www.w3.org/2000/svg"
     xmlns:xlink="http://www.w3.org/1999/xlink"
     width="128" height="128" version="1.1">
    <title>Gears Icon</title>
    <desc>This is shape (source) for Clarity vector icon theme for gtk</desc>
    <metadata>
        <rdf:RDF>
            <cc:Work rdf:about="">
                <dc:title>Gears Icon</dc:title>
                <dc:description>This is shape (source) for Clarity vector icon theme for gtk</dc:description>
                <dc:creator>
                    <cc:Agent>
                        <dc:title>Jakub Jankiewicz</dc:title>
                    </cc:Agent>
                </dc:creator>
                <dc:rights>
                    <cc:Agent>
                        <dc:title>Jakub Jankiewicz</dc:title>
                    </cc:Agent>
                </dc:rights>
                <dc:date>2010</dc:date>
                <dc:format>image/svg+xml</dc:format>
                <dc:type rdf:resource="http://purl.org/dc/dcmitype/StillImage" />
                <cc:license rdf:resource="http://www.gnu.org/copyleft/gpl.html" />
             </cc:Work>
        </rdf:RDF>
    </metadata>
    <path d="m 39.171872,14.21875 -2.90625,0.65625 -1.625,6.9375 0.28125,1.25 0.46875,0.9375 c -2.239519,1.258807 -4.224657,2.974512 -5.78125,5 l -1.03125,-0.875 -1.15625,-0.5625 -7.09375,0.03125 -1.312498,2.6875 4.406248,5.59375 1.1875,0.5625 1.46875,0.3125 c -0.244579,1.21412 -0.375,2.463819 -0.375,3.75 0,1.276221 0.134101,2.513386 0.375,3.71875 l -1.46875,0.3125 -1.1875,0.5625 -4.406248,5.59375 1.312498,2.71875 7.09375,0 1.15625,-0.5625 L 29.609372,52 c 1.556593,2.025488 3.541731,3.709943 5.78125,4.96875 l -0.46875,0.9375 -0.28125,1.25 1.625,6.9375 2.90625,0.6875 4.46875,-5.5625 0.28125,-1.25 0,-0.5625 c 0.235434,0.0087 0.449945,0 0.6875,0 2.523595,0 4.923671,-0.509521 7.125,-1.40625 l 0.09375,0.15625 0.78125,1 6.4375,3.09375 2.34375,-1.90625 -1.5625,-6.9375 -0.65625,-0.8125 c 1.780675,-2.138727 3.07984,-4.685997 3.78125,-7.46875 l 0.875,-0.03125 6.40625,-3.09375 0,-3 -6.40625,-3.125 -0.875,0 c -0.699866,-2.792182 -1.995447,-5.323863 -3.78125,-7.46875 l 0.65625,-0.84375 1.5625,-6.90625 -2.34375,-1.90625 -6.4375,3.0625 -0.78125,1 -0.0625,0.15625 c -2.208205,-0.903293 -4.622938,-1.40625 -7.15625,-1.40625 -0.237555,0 -0.452066,0.02257 -0.6875,0.03125 l 0,-0.5625 -0.28125,-1.25 -4.46875,-5.5625 z m 5.4375,14.90625 c 6.269294,0 11.375,5.105706 11.375,11.375 0,6.269295 -5.105706,11.34375 -11.375,11.34375 -6.269295,0 -11.34375,-5.074455 -11.34375,-11.34375 0,-6.269294 5.074455,-11.375 11.34375,-11.375 z m 22.90625,20.84375 -3.15625,1.125 -0.6875,6.90625 0.46875,1.59375 0.6875,1.1875 c -2.20986,1.243916 -4.196877,2.838622 -5.90625,4.6875 l -0.96875,-0.84375 -1.4375,-0.75 -6.90625,-0.6875 -1.71875,2.90625 3.875,5.75 1.40625,0.90625 1,0.34375 c -0.918536,2.346297 -1.516387,4.863032 -1.65625,7.5 l -0.8125,-0.03125 -1.65625,0.375 -5.6875,3.90625 0.53125,3.3125 6.6875,1.90625 1.65625,-0.21875 0.53125,-0.1875 c 0.852749,2.508673 2.140767,4.813022 3.71875,6.875 l -0.375,0.28125 -1,1.3125 -1.875,6.6875 2.5625,2.1875 6.34375,-2.84375 1.125,-1.1875 0.15625,-0.25 c 2.242184,1.31986 4.713988,2.30236 7.34375,2.84375 l -0.0625,0.1875 0.0625,1.65625 2.875,6.3125 3.375,0.0625 3.03125,-6.25 0.09375,-1.65625 -0.03125,-0.21875 c 2.643727,-0.49059 5.140024,-1.41186 7.40625,-2.6875 l 0.15625,0.25 1.09375,1.21875 6.28125,3 2.59375,-2.125 -1.71875,-6.71875 -0.96875,-1.3125 -0.40625,-0.34375 c 1.614784,-2.019096 2.938343,-4.277205 3.84375,-6.75 l 0.625008,0.21875 1.65625,0.25 6.6875,-1.75 0.625,-3.28125 -5.625,-4.09375 -1.59375,-0.40625 -0.9375,0 c -0.0794,-2.629919 -0.55163,-5.146085 -1.406258,-7.5 l 1.031258,-0.34375 1.40625,-0.875 4.03125,-5.65625 -1.65625,-2.90625 -6.906258,0.5 -1.5,0.71875 -1,0.875 c -1.66528,-1.896291 -3.602048,-3.543451 -5.78125,-4.84375 l 0.75,-1.21875 0.53125,-1.5625 -0.5625,-6.90625 -3.125,-1.1875 -4.96875,4.8125 -0.6875,1.5 -0.25,1.53125 c -1.321223,-0.223639 -2.677623,-0.34375 -4.0625,-0.34375 -1.162374,0 -2.287672,0.06015 -3.40625,0.21875 l -0.25,-1.46875 -0.625,-1.53125 -4.875,-4.96875 z m 9.15625,15.625 c 8.98959,0 16.28125,7.291661 16.28125,16.28125 0,8.989589 -7.29166,16.28125 -16.28125,16.28125 -8.989589,0 -16.28125,-7.291661 -16.28125,-16.28125 0,-8.989589 7.291661,-16.28125 16.28125,-16.28125 z" style="fill:#aaaaaa"/>
</svg>