<?xml version="1.0" encoding="UTF-8" standalone="no"?>
<svg xmlns:dc="http://purl.org/dc/elements/1.1/"
     xmlns:cc="http://creativecommons.org/ns#"
     xmlns:rdf="http://www.w3.org/1999/02/22-rdf-syntax-ns#"
     xmlns:svg="http://www.w3.org/2000/svg"
     xmlns="http://www.w3.org/2000/svg"
     xmlns:xlink="http://www.w3.org/1999/xlink"
     width="128" height="128" version="1.1">
    <title>Import CD Project</title>
    <desc>This is shape (source) for Clarity vector icon theme for gtk</desc>
    <metadata>
        <rdf:RDF>
            <cc:Work rdf:about="">
                <dc:title>Import CD Project</dc:title>
                <dc:description>This is shape (source) for Clarity vector icon theme for gtk</dc:description>
                <dc:creator>
                    <cc:Agent>
                        <dc:title>Jakub Jankiewicz</dc:title>
                    </cc:Agent>
                </dc:creator>
                <dc:rights>
                    <cc:Agent>
                        <dc:title>Jakub Jankiewicz</dc:title>
                    </cc:Agent>
                </dc:rights>
                <dc:date>2010</dc:date>
                <dc:format>image/svg+xml</dc:format>
                <dc:type rdf:resource="http://purl.org/dc/dcmitype/StillImage" />
                <cc:license rdf:resource="http://creativecommons.org/licenses/by-sa/3.0/" />
             </cc:Work>
        </rdf:RDF>
    </metadata>
    <path d="m 53.359375,6.734375 c -26.041681,0 -47.15625,21.114567 -47.15625,47.15625 0,26.041687 21.114569,47.156255 47.15625,47.156255 0.521593,0 1.044994,-0.0144 1.5625,-0.0312 l -17.3125,-14.187505 a 2.6036856,2.6036856 0 0 1 0,-4 l 44.53125,-36.4375 a 2.6036856,2.6036856 0 0 1 1.3125,-0.59375 2.6036856,2.6036856 0 0 1 2.9375,2.59375 l 0,14.71875 13.21875,0 c 0.591625,-2.983146 0.906255,-6.061822 0.906255,-9.21875 0,-26.041683 -21.114564,-47.15625 -47.156255,-47.15625 z m 0,37.9375 c 5.087213,0 9.21875,4.131538 9.21875,9.21875 0,5.087212 -4.131537,9.1875 -9.21875,9.1875 -5.087212,0 -9.1875,-4.100288 -9.1875,-9.1875 0,-5.087212 4.100288,-9.21875 9.1875,-9.21875 z m 30.4375,3.71875 -44.53125,36.4375 44.53125,36.437505 0,-17.65625 38.000005,0 0,-37.906255 -38.000005,0 0,-17.3125 z" style="fill:#aaaaaa"/>
</svg>