<?xml version="1.0" encoding="UTF-8" standalone="no"?>
<svg xmlns:dc="http://purl.org/dc/elements/1.1/"
     xmlns:cc="http://creativecommons.org/ns#"
     xmlns:rdf="http://www.w3.org/1999/02/22-rdf-syntax-ns#"
     xmlns:svg="http://www.w3.org/2000/svg"
     xmlns="http://www.w3.org/2000/svg"
     xmlns:xlink="http://www.w3.org/1999/xlink"
     width="128" height="128" version="1.1">
    <title>CD Eraise Icon</title>
    <desc>This is shape (source) for Clarity vector icon theme for gtk</desc>
    <metadata>
        <rdf:RDF>
            <cc:Work rdf:about="">
                <dc:title>CD Eraise Icon</dc:title>
                <dc:description>This is shape (source) for Clarity vector icon theme for gtk</dc:description>
                <dc:creator>
                    <cc:Agent>
                        <dc:title>Jakub Jankiewicz</dc:title>
                    </cc:Agent>
                </dc:creator>
                <dc:rights>
                    <cc:Agent>
                        <dc:title>Jakub Jankiewicz</dc:title>
                    </cc:Agent>
                </dc:rights>
                <dc:date>2010</dc:date>
                <dc:format>image/svg+xml</dc:format>
                <dc:type rdf:resource="http://purl.org/dc/dcmitype/StillImage" />
                <cc:license rdf:resource="http://creativecommons.org/licenses/by-sa/3.0/" />
             </cc:Work>
        </rdf:RDF>
    </metadata>
    <path d="m 15.501715,16.532843 c -1.385608,0.0379 -2.80294,0.411 -4.09375,1.15625 -4.1305924,2.384801 -5.5410508,7.650652 -3.1562497,11.78125 l 18.3124997,31.71875 -14.75,8.5 c -4.1305911,2.384799 -5.5410511,7.6194 -3.1562497,11.75 l 4.9999997,8.6875 7.1875,-4.15625 c 2.849048,4.13204 6.519913,9.43884 9.84375,13.875 2.4962,3.331547 3.479936,5.906097 6.375,7.937497 1.447545,1.01571 3.388818,1.5338 5.28125,1.46875 1.892439,-0.065 3.824934,-0.5394 6.28125,-1.3125 a 3.4731764,3.4731764 0 0 0 0.40625,-0.125 l 42.15625,-19.093747 c 2.635749,-1.1919 4.741376,-2.055457 6.34375,-2.71875 1.60237,-0.663293 2.40697,-0.835645 3.687505,-1.71875 0.32011,-0.220803 0.77207,-0.441143 1.3125,-1.5 0.27023,-0.529415 0.5483,-1.379139 0.375,-2.28125 -0.17329,-0.902111 -0.73238,-1.616322 -1.15625,-2 -0.84776,-0.767356 -1.31572,-0.807188 -1.6875,-0.90625 -0.371775,-0.09906 -0.641365,-0.149204 -0.937505,-0.1875 -1.184578,-0.153169 -2.621678,-0.172325 -4.78125,-0.28125 l -10.875,-0.5625 c -2.561989,-0.129224 -6.229087,-3.184714 -8.1875,-6.0625 l -7.78125,-11.46875 4.59375,-2.65625 -5,-8.65625 c -2.384804,-4.130598 -7.650658,-5.509801 -11.78125,-3.125 l -13.84375,7.96875 -18.3125,-31.71875 c -1.639551,-2.839786 -4.607911,-4.395877 -7.65625,-4.3125 z m 58.25,0.65625 c -15.639904,0 -29.484829,7.620207 -38.0625,19.34375 l 6.875,11.9375 11.25,-6.46875 c 5.523194,-3.188821 12.677059,-1.320242 15.875,4.21875 l 5,8.65625 a 3.0061762,3.0061762 0 0 1 0.1875,0.34375 c 4.553896,0.554826 8.09375,4.388357 8.09375,9.09375 0,2.747496 -1.219811,5.221294 -3.125,6.90625 0.365932,0.350196 0.745102,0.676551 1.125,0.96875 1.211349,0.931712 2.493608,1.366797 2.65625,1.375 l 10.875,0.5625 c 2.110275,0.106439 3.54041,0.123771 5,0.3125 0.39701,0.05134 0.866505,0.122834 1.343755,0.25 -0.0409,-0.0109 1.72009,0.491803 2.9375,1.59375 0.82485,0.746633 1.71871,1.866537 2.0625,3.65625 0.35166,1.830547 -0.14227,3.273028 -0.625,4.21875 -0.77215,1.512872 -2.28032,2.593109 -2.28125,2.59375 -1.6145,1.113422 -2.80616,1.433582 -4.250005,2.03125 -1.61032,0.666582 -3.665219,1.518648 -6.25,2.6875 l -36.5,16.531247 c 5.49785,2.24585 11.506556,3.46875 17.8125,3.46875 26.04169,0 47.156255,-21.11456 47.156255,-47.156247 0,-26.041683 -21.114565,-47.125 -47.156255,-47.125 z m -12.28125,45.3125 8.09375,11.90625 c 2.667033,3.919079 7.106534,8.769709 13.53125,9.09375 l 2.5,0.125 -39.03125,17.687497 c -0.0283,0.009 -0.03427,-0.009 -0.0625,0 -2.13243,0.66651 -3.623448,0.97308 -4.40625,1 -0.793177,0.0273 -0.773583,-0.0379 -1.03125,-0.21875 -0.515325,-0.36159 -2.003182,-2.656797 -4.8125,-6.406247 -3.026513,-4.03948 -6.545086,-9.094051 -9.375,-13.1875 l 34.59375,-20 z m -0.9375,4 -29.28125,16.9375 c 2.431479,3.49662 5.036313,7.27435 7.40625,10.4375 1.428453,1.90648 2.507795,3.46303 3.28125,4.53125 0.254038,0.35085 0.415066,0.54346 0.59375,0.78125 0.435375,-0.0647 1.355779,-0.21655 3.0625,-0.75 l 30.65625,-13.90625 c -4.138851,-2.130626 -7.235893,-5.569706 -9.1875,-8.4375 l -6.53125,-9.59375 z" style="fill:#aaaaaa"/>
</svg>