<?xml version="1.0" encoding="UTF-8" standalone="no"?>
<svg xmlns:dc="http://purl.org/dc/elements/1.1/"
     xmlns:cc="http://creativecommons.org/ns#"
     xmlns:rdf="http://www.w3.org/1999/02/22-rdf-syntax-ns#"
     xmlns:svg="http://www.w3.org/2000/svg"
     xmlns="http://www.w3.org/2000/svg"
     xmlns:xlink="http://www.w3.org/1999/xlink"
     width="128" height="128" version="1.1">
    <title>Clarity Icon</title>
    <desc>This is shape (source) for Clarity vector icon theme for gtk</desc>
    <metadata>
        <rdf:RDF>
            <cc:Work rdf:about="">
                <dc:title>Clarity Icon</dc:title>
                <dc:description>This is shape (source) for Clarity vector icon theme for gtk</dc:description>
                <dc:creator>
                    <cc:Agent>
                        <dc:title>Jakub Jankiewicz</dc:title>
                    </cc:Agent>
                </dc:creator>
                <dc:rights>
                    <cc:Agent>
                        <dc:title>Jakub Jankiewicz</dc:title>
                    </cc:Agent>
                </dc:rights>
                <dc:date>2010</dc:date>
                <dc:format>image/svg+xml</dc:format>
                <dc:type rdf:resource="http://purl.org/dc/dcmitype/StillImage" />
                <cc:license rdf:resource="http://creativecommons.org/licenses/by-sa/3.0/" />
             </cc:Work>
        </rdf:RDF>
    </metadata>
    <path d="m 29.09375,11.234374 c -3.18381,0 -5.71875,2.566196 -5.71875,5.750001 l 0,94.031255 c 0,3.1838 2.53494,5.75 5.71875,5.75 l 69.8125,0 c 3.1838,0 5.71875,-2.5662 5.71875,-5.75 l 0,-70.656255 -21.03125,0 c -4.30611,0 -8.0625,-3.141109 -8.0625,-7.3125 l 0,-21.812501 -46.4375,0 z m 50.4375,0 0,21.812501 c 0,1.714122 1.63197,3.3125 4.0625,3.3125 l 21.03125,0 L 79.53125,11.234374 z M 63.75,41.890625 c 0.15005,-0.0017 0.32459,0.0421 0.46875,0.0625 2.16237,0.306026 3.66433,2.921932 5.8125,3.59375 2.29138,0.716608 5.32346,-0.79586 7.28125,0.59375 1.95779,1.389609 1.50494,4.729662 2.9375,6.65625 1.43256,1.926589 4.76416,2.47502 5.53125,4.75 0.7671,2.274979 -1.5578,4.693071 -1.53125,7.09375 0.0265,2.40068 2.40411,4.802365 1.6875,7.09375 -0.7166,2.291384 -4.04789,2.917207 -5.4375,4.875 -1.38961,1.957793 -0.88591,5.254942 -2.8125,6.6875 -0.95237,0.708152 -2.16861,0.70693 -3.4375,0.625 l 0,30.343755 -9.53125,-13.15625 -9.5625,13.15625 0,-30.218755 c -1.60322,0.150063 -3.21925,0.427192 -4.4375,-0.4375 -1.95779,-1.389609 -1.50494,-4.729662 -2.9375,-6.65625 -1.43256,-1.926589 -4.76415,-2.47502 -5.53125,-4.75 -0.76709,-2.27498 1.55777,-4.693072 1.53125,-7.09375 -0.0266,-2.40068 -2.4041,-4.802366 -1.6875,-7.09375 0.71661,-2.291384 4.04789,-2.885958 5.4375,-4.84375 1.38961,-1.957793 0.85466,-5.286192 2.78125,-6.71875 1.92659,-1.432558 4.94377,0.04834 7.21875,-0.71875 2.27498,-0.767096 3.81807,-3.8172 6.21875,-3.84375 z m 0,6.46875 c -7.66012,0.118291 -14.45869,5.624698 -15.9375,13.4375 -1.69007,8.928918 4.19609,17.591183 13.125,19.28125 8.92892,1.690068 17.59118,-4.227332 19.28125,-13.15625 1.69007,-8.928915 -4.19608,-17.591182 -13.125,-19.28125 -1.11611,-0.211262 -2.24944,-0.29814 -3.34375,-0.28125 z m -0.53125,2.9375 c 0.86785,-0.05013 1.73426,0.0025 2.625,0.125 0.22987,0.03161 0.45689,0.08135 0.6875,0.125 7.37955,1.396803 12.2093,8.464204 10.8125,15.84375 -1.3968,7.379548 -8.4642,12.209302 -15.84375,10.8125 -7.37954,-1.396802 -12.2093,-8.495455 -10.8125,-15.875 1.18401,-6.25532 6.4563,-10.680356 12.53125,-11.03125 z m 0.6875,1.46875 c -5.80955,0.315253 -10.70593,4.961502 -11.5625,10.59375 -0.0843,0.554571 0.064,1.109059 0.34375,1.46875 0.27975,0.359693 0.68103,0.57997 1.125,0.5625 0.44397,-0.01748 0.83482,-0.227039 1.125,-0.5 0.29019,-0.272959 0.50541,-0.632779 0.5625,-1.03125 0.57984,-4.046881 4.45272,-7.80099 8.53125,-7.875 0.17894,-0.0071 0.35205,-0.0037 0.53125,0 0.41321,0.0086 0.80398,-0.126968 1.125,-0.375 0.32102,-0.248029 0.57362,-0.594685 0.65625,-1.03125 0.0826,-0.436563 -0.035,-0.883047 -0.34375,-1.21875 -0.23153,-0.251782 -0.5475,-0.44571 -0.9375,-0.53125 -0.13,-0.02859 -0.29726,-0.02825 -0.4375,-0.03125 -0.24328,-0.0051 -0.47544,-0.04075 -0.71875,-0.03125 z" style="fill:#aaaaaa"/>
</svg>