<?xml version="1.0" encoding="UTF-8" standalone="no"?>
<svg xmlns:dc="http://purl.org/dc/elements/1.1/"
     xmlns:cc="http://creativecommons.org/ns#"
     xmlns:rdf="http://www.w3.org/1999/02/22-rdf-syntax-ns#"
     xmlns:svg="http://www.w3.org/2000/svg"
     xmlns="http://www.w3.org/2000/svg"
     xmlns:xlink="http://www.w3.org/1999/xlink"
     width="128" height="128" version="1.1">
    <title>Ebook File Icon</title>
    <desc>This is shape (source) for Clarity vector icon theme for gtk</desc>
    <metadata>
        <rdf:RDF>
            <cc:Work rdf:about="">
                <dc:title>Ebook File Icon</dc:title>
                <dc:description>This is shape (source) for Clarity vector icon theme for gtk</dc:description>
                <dc:creator>
                    <cc:Agent>
                        <dc:title>Jakub Jankiewicz</dc:title>
                    </cc:Agent>
                </dc:creator>
                <dc:rights>
                    <cc:Agent>
                        <dc:title>Jakub Jankiewicz</dc:title>
                    </cc:Agent>
                </dc:rights>
                <dc:date>2010</dc:date>
                <dc:format>image/svg+xml</dc:format>
                <dc:type rdf:resource="http://purl.org/dc/dcmitype/StillImage" />
                <cc:license rdf:resource="http://www.gnu.org/copyleft/gpl.html" />
             </cc:Work>
        </rdf:RDF>
    </metadata>
    <path d="M 29.09375 11.21875 C 25.909946 11.21875 23.375 13.784945 23.375 16.96875 L 23.375 111.03125 C 23.375 114.21505 25.909946 116.78125 29.09375 116.78125 L 98.90625 116.78125 C 102.09005 116.78125 104.625 114.21505 104.625 111.03125 L 104.625 40.34375 C 97.075611 40.028397 75.885891 43.544612 75.53125 33.03125 L 75.53125 11.21875 L 29.09375 11.21875 z M 79.53125 11.21875 L 79.53125 33.03125 C 79.53125 34.745373 81.163219 36.34375 83.59375 36.34375 L 104.625 36.34375 L 79.53125 11.21875 z M 65.875 50.6875 C 66.432099 50.6741 67.135618 50.924352 68.1875 51.40625 L 96.375 64.3125 C 97.910042 65.015748 97.129925 66.495071 96.1875 67.4375 L 69.90625 95 C 68.544967 96.465992 67.686389 96.150213 65.90625 95.3125 L 39.125 81.6875 C 38.056985 81.144787 36.848799 81.500598 36.375 82.84375 C 35.962965 84.011815 35.918186 87.162252 37.9375 88.21875 L 67.0625 103.4375 C 68.214355 103.96107 68.870073 104.0159 69.8125 102.96875 L 95.65625 75.40625 C 96.284545 74.777963 95.90857 74.052468 95.21875 73.9375 L 95.15625 72.3125 C 95.15625 72.3125 96.269035 73.170081 96.71875 73.65625 C 97.158122 74.131246 97.326746 75.745069 96.59375 76.6875 L 70.1875 105.46875 C 69.245073 106.51589 68.434747 106.41885 66.96875 106 L 37.75 91.125 C 36.104839 90.287571 34.934502 89.439225 34.09375 87.25 C 33.233472 85.009931 33.495359 81.567902 34.65625 80.4375 L 64.375 51.46875 C 64.896194 50.961244 65.317902 50.70089 65.875 50.6875 z " style="fill:#aaaaaa"/>
</svg>