<?xml version="1.0" encoding="UTF-8" standalone="no"?>
<svg xmlns:dc="http://purl.org/dc/elements/1.1/"
     xmlns:cc="http://creativecommons.org/ns#"
     xmlns:rdf="http://www.w3.org/1999/02/22-rdf-syntax-ns#"
     xmlns:svg="http://www.w3.org/2000/svg"
     xmlns="http://www.w3.org/2000/svg"
     xmlns:xlink="http://www.w3.org/1999/xlink"
     width="128" height="128" version="1.1">
    <title>Scribus Document Icon</title>
    <desc>This is shape (source) for Clarity vector icon theme for gtk</desc>
    <metadata>
        <rdf:RDF>
            <cc:Work rdf:about="">
                <dc:title>Scribus Document Icon</dc:title>
                <dc:description>This is shape (source) for Clarity vector icon theme for gtk</dc:description>
                <dc:creator>
                    <cc:Agent>
                        <dc:title>Jakub Jankiewicz</dc:title>
                    </cc:Agent>
                </dc:creator>
                <dc:rights>
                    <cc:Agent>
                        <dc:title>Jakub Jankiewicz</dc:title>
                    </cc:Agent>
                </dc:rights>
                <dc:date>2010</dc:date>
                <dc:format>image/svg+xml</dc:format>
                <dc:type rdf:resource="http://purl.org/dc/dcmitype/StillImage" />
                <cc:license rdf:resource="http://www.gnu.org/copyleft/gpl.html" />
             </cc:Work>
        </rdf:RDF>
    </metadata>
    <path d="M 28.5 11.25 C 25.598129 11.54359 23.375 14.015184 23.375 17 L 23.375 111.03125 C 23.375 114.21505 25.909946 116.78125 29.09375 116.78125 L 98.90625 116.78125 C 102.09005 116.78125 104.625 114.21505 104.625 111.03125 L 104.625 40.375 L 83.59375 40.375 C 79.287642 40.375 75.53125 37.233891 75.53125 33.0625 L 75.53125 11.25 L 29.09375 11.25 C 28.894762 11.25 28.693458 11.23043 28.5 11.25 z M 79.53125 11.25 L 79.53125 33.0625 C 79.53125 34.776622 81.163218 36.375 83.59375 36.375 L 104.625 36.375 L 79.53125 11.25 z M 81.5 52.59375 C 83.940409 52.623804 86.807133 53.542591 89.5 56.8125 C 92.577562 60.549538 94.994593 65.802818 92.90625 67.78125 C 90.817902 69.759682 75.446596 80.693146 74 81.65625 C 73.516412 81.97821 71.163135 82.20221 70.46875 81.9375 C 71.404357 81.242623 72.92222 79.643729 72.96875 78.21875 C 73.031396 76.300227 71.99775 74.949956 70.375 73.5 C 68.808418 72.100231 66.420961 71.940712 65.4375 72.40625 C 64.29063 72.949139 63.63341 74.454383 63.5625 74.625 C 63.575255 74.671597 64.549171 78.267568 65.96875 79.46875 C 67.397618 80.677792 70.375 81.96875 70.375 81.96875 C 70.375 81.96875 64.664856 86.597003 62.90625 89.125 C 61.147644 91.652996 59.719825 95.491392 59.5 97.25 C 59.28017 99.008605 59.171307 99.003224 56.09375 98.34375 C 53.016188 97.684271 47.081861 99.571132 43.125 101 C 39.168134 102.42887 34.3125 105.84375 34.3125 105.84375 C 41.861644 94.520042 45.742518 90.526869 47.21875 88.28125 C 48.575555 86.217296 49.054966 86.052791 50.59375 84.84375 C 52.128181 83.638122 63.46704 74.70687 63.53125 74.65625 C 63.461643 74.530438 62.516405 72.768864 64 70.4375 C 65.538781 68.019417 72.475231 59.012909 74.34375 56.375 C 76.212269 53.73709 77.862091 52.844826 80.5 52.625 C 80.829739 52.59752 81.151372 52.58945 81.5 52.59375 z " style="fill:#aaaaaa"/>
</svg>