<?xml version="1.0" encoding="UTF-8" standalone="no"?>
<svg xmlns:dc="http://purl.org/dc/elements/1.1/"
     xmlns:cc="http://creativecommons.org/ns#"
     xmlns:rdf="http://www.w3.org/1999/02/22-rdf-syntax-ns#"
     xmlns:svg="http://www.w3.org/2000/svg"
     xmlns="http://www.w3.org/2000/svg"
     xmlns:xlink="http://www.w3.org/1999/xlink"
     width="128" height="128" version="1.1">
    <title>Postscript File Icon</title>
    <desc>This is shape (source) for Clarity vector icon theme for gtk</desc>
    <metadata>
        <rdf:RDF>
            <cc:Work rdf:about="">
                <dc:title>Postscript File Icon</dc:title>
                <dc:description>This is shape (source) for Clarity vector icon theme for gtk</dc:description>
                <dc:creator>
                    <cc:Agent>
                        <dc:title>Jakub Jankiewicz</dc:title>
                    </cc:Agent>
                </dc:creator>
                <dc:rights>
                    <cc:Agent>
                        <dc:title>Jakub Jankiewicz</dc:title>
                    </cc:Agent>
                </dc:rights>
                <dc:date>2010</dc:date>
                <dc:format>image/svg+xml</dc:format>
                <dc:type rdf:resource="http://purl.org/dc/dcmitype/StillImage" />
                <cc:license rdf:resource="http://www.gnu.org/copyleft/gpl.html" />
             </cc:Work>
        </rdf:RDF>
    </metadata>
    <path d="M 28.5 11.25 C 25.598125 11.54359 23.375 14.015184 23.375 17 L 23.375 111 C 23.375 114.1838 25.90994 116.75 29.09375 116.75 L 98.90625 116.75 C 102.09005 116.75 104.625 114.1838 104.625 111 L 104.625 40.375 L 83.59375 40.375 C 79.28764 40.375 75.53125 37.233891 75.53125 33.0625 L 75.53125 11.25 L 29.09375 11.25 C 28.894762 11.25 28.693458 11.230427 28.5 11.25 z M 79.53125 11.25 L 79.53125 33.0625 C 79.53125 34.776622 81.16322 36.375 83.59375 36.375 L 104.625 36.375 L 79.53125 11.25 z M 69.90625 49.90625 C 69.90625 49.90625 76.90931 50.579444 75.90625 58.15625 C 75.90625 58.15625 80.355623 61.067154 80.03125 65.0625 C 79.706418 69.05757 76.708536 73.759914 67.15625 75.34375 C 67.15625 75.34375 72.703735 73.839414 72.90625 70.75 C 73.123114 67.453782 67.40625 66.033651 67.40625 62.9375 C 67.40625 59.84121 74.472865 59.427327 73.90625 54.21875 C 73.531125 50.776313 69.90625 49.90625 69.90625 49.90625 z M 69.625 50.96875 C 69.625 50.96875 71.71129 51.614475 71.625 53.5625 C 71.539179 55.510433 67.020772 57.058292 63.46875 57.84375 C 59.916818 58.629346 55.860551 60.435129 55.40625 63.71875 C 54.426858 70.797096 61.47544 70.887691 61.5625 73.75 C 61.659628 76.945447 54.125 75.440528 54.125 78.03125 C 54.125 79.935303 60.852624 80.302134 66.15625 80.46875 C 72.253365 80.660373 80.76548 82.006561 83.5625 86.84375 C 84.888129 89.136402 84.468752 92.70248 80.8125 94.9375 C 75.911405 97.9339 68.334989 97.996517 62.5 97.03125 C 58.720133 96.405619 57.35756 95.110528 57.40625 93.5625 C 57.439563 92.509607 58.559139 91.6961 60.1875 91.625 C 62.469217 91.524966 64.21875 92.28125 64.21875 92.28125 C 64.21875 92.28125 59.51882 91.385614 59.5625 93.21875 C 59.594982 94.58406 63.040148 95.26913 67.9375 95.09375 C 72.598894 94.927691 75.65625 93.840476 75.65625 91.90625 C 75.65625 89.520578 71.808524 88.522717 61.6875 88.3125 C 51.709705 88.105142 45.310673 86.791173 45.125 81.28125 C 44.937717 75.736075 54.90625 74.03125 54.90625 74.03125 C 45.670584 71.150716 44.997514 63.957797 49.15625 59.5625 C 53.125292 55.368102 59.156536 54.87303 63.3125 54.78125 C 68.217929 54.673141 69.890981 54.556663 70.375 53.125 C 70.858971 51.693707 69.625 50.96875 69.625 50.96875 z M 63.84375 61.875 C 64.541266 61.856544 64.054 62.591921 64 63.78125 C 63.952751 64.833449 64.757482 65.426421 64.3125 65.65625 C 63.742566 65.950629 62.757746 64.981854 62.625 63.9375 C 62.492206 62.893053 63.297674 61.88945 63.84375 61.875 z M 60 62.9375 C 60.042396 62.92704 60.0901 62.9404 60.125 62.9375 C 60.648099 62.893515 60.350347 63.680442 60.53125 64.78125 C 60.70179 65.819928 61.637357 66.242144 61.25 66.5625 C 60.75339 66.97274 59.595137 66.242261 59.25 65.25 C 58.90473 64.257554 59.469657 63.069602 60 62.9375 z M 64.09375 68.75 C 64.947958 68.698173 66.22771 69.278523 66.71875 70.125 C 67.323336 71.166725 66.572104 72.482438 65.78125 72.65625 C 64.771216 72.878742 65.201838 71.964649 64.8125 70.71875 C 64.467925 69.616489 63.035258 69.242419 63.59375 68.875 C 63.727952 68.786838 63.896622 68.76191 64.09375 68.75 z M 49.5 89.5625 C 51.73116 89.545208 53.6875 90.03125 53.6875 90.03125 C 53.6875 90.03125 49.6875 90.216641 49.6875 93.8125 C 49.6875 96.808848 54.361322 99.144583 63.84375 99.40625 C 80.729015 99.872519 84.205634 94.603307 84.8125 93.28125 C 84.206742 94.823837 80.451816 102.09375 62.96875 102.09375 C 43.410838 102.09375 43.16416 94.619672 43.1875 94 C 43.322722 90.416385 46.631358 89.58474 49.5 89.5625 z " style="fill:#aaaaaa"/>
</svg>