<?xml version="1.0" encoding="UTF-8" standalone="no"?>
<svg xmlns:dc="http://purl.org/dc/elements/1.1/"
     xmlns:cc="http://creativecommons.org/ns#"
     xmlns:rdf="http://www.w3.org/1999/02/22-rdf-syntax-ns#"
     xmlns:svg="http://www.w3.org/2000/svg"
     xmlns="http://www.w3.org/2000/svg"
     xmlns:xlink="http://www.w3.org/1999/xlink"
     width="128" height="128" version="1.1">
    <title>Shared Library Icon</title>
    <desc>This is shape (source) for Clarity vector icon theme for gtk</desc>
    <metadata>
        <rdf:RDF>
            <cc:Work rdf:about="">
                <dc:title>Shared Library Icon</dc:title>
                <dc:description>This is shape (source) for Clarity vector icon theme for gtk</dc:description>
                <dc:creator>
                    <cc:Agent>
                        <dc:title>Jakub Jankiewicz</dc:title>
                    </cc:Agent>
                </dc:creator>
                <dc:rights>
                    <cc:Agent>
                        <dc:title>Jakub Jankiewicz</dc:title>
                    </cc:Agent>
                </dc:rights>
                <dc:date>2010</dc:date>
                <dc:format>image/svg+xml</dc:format>
                <dc:type rdf:resource="http://purl.org/dc/dcmitype/StillImage" />
                <cc:license rdf:resource="http://creativecommons.org/licenses/by-sa/3.0/" />
             </cc:Work>
        </rdf:RDF>
    </metadata>
    <path d="M 28.5 11.25 C 25.598125 11.54359 23.375 14.015184 23.375 17 L 23.375 111 C 23.375 114.1838 25.90994 116.75 29.09375 116.75 L 98.90625 116.75 C 102.09005 116.75 104.625 114.1838 104.625 111 L 104.625 40.375 L 83.59375 40.375 C 79.28764 40.375 75.53125 37.233891 75.53125 33.0625 L 75.53125 11.25 L 29.09375 11.25 C 28.894762 11.25 28.693458 11.23043 28.5 11.25 z M 79.53125 11.25 L 79.53125 33.0625 C 79.53125 34.776622 81.16322 36.375 83.59375 36.375 L 104.625 36.375 L 79.53125 11.25 z M 79.5625 51.9375 C 81.715048 52.077796 84.325644 53.075644 86.96875 55.71875 C 91.197723 59.947721 91.222036 64.059694 90.25 66.4375 C 89.492534 68.290431 87.678193 69.892852 84.84375 69.25 C 82.250882 68.661935 81.485096 68.468731 80.59375 69.90625 C 79.745827 71.27374 80.174002 72.419053 81 73.28125 L 88.3125 80.90625 L 66.21875 103 L 58.59375 95.6875 C 57.731554 94.861498 56.586239 94.433326 55.21875 95.28125 C 53.781231 96.172596 53.974436 96.93838 54.5625 99.53125 C 55.205351 102.36569 53.602931 104.18004 51.75 104.9375 C 49.372194 105.90954 45.260221 105.88522 41.03125 101.65625 C 36.80228 97.427278 36.777966 93.315308 37.75 90.9375 C 38.507465 89.084572 40.321808 87.482144 43.15625 88.125 C 45.74912 88.713062 46.514905 88.906271 47.40625 87.46875 C 48.254173 86.101263 47.826004 84.955946 47 84.09375 L 39.6875 76.46875 L 61.78125 54.375 L 69.40625 61.6875 C 70.268445 62.513503 71.41376 62.941673 72.78125 62.09375 C 74.21877 61.202404 74.025564 60.43662 73.4375 57.84375 C 72.794646 55.009309 74.397069 53.194966 76.25 52.4375 C 77.141677 52.072988 78.270971 51.853322 79.5625 51.9375 z " style="fill:#aaaaaa"/>
</svg>