<?xml version="1.0" encoding="UTF-8" standalone="no"?>
<svg xmlns:dc="http://purl.org/dc/elements/1.1/"
     xmlns:cc="http://creativecommons.org/ns#"
     xmlns:rdf="http://www.w3.org/1999/02/22-rdf-syntax-ns#"
     xmlns:svg="http://www.w3.org/2000/svg"
     xmlns="http://www.w3.org/2000/svg"
     xmlns:xlink="http://www.w3.org/1999/xlink"
     width="128" height="128" version="1.1">
    <title>Burn CD File Icon</title>
    <desc>This is shape (source) for Clarity vector icon theme for gtk</desc>
    <metadata>
        <rdf:RDF>
            <cc:Work rdf:about="">
                <dc:title>Burn CD File Icon</dc:title>
                <dc:description>This is shape (source) for Clarity vector icon theme for gtk</dc:description>
                <dc:creator>
                    <cc:Agent>
                        <dc:title>Jakub Jankiewicz</dc:title>
                    </cc:Agent>
                </dc:creator>
                <dc:rights>
                    <cc:Agent>
                        <dc:title>Jakub Jankiewicz</dc:title>
                    </cc:Agent>
                </dc:rights>
                <dc:date>2010</dc:date>
                <dc:format>image/svg+xml</dc:format>
                <dc:type rdf:resource="http://purl.org/dc/dcmitype/StillImage" />
                <cc:license rdf:resource="http://creativecommons.org/licenses/by-sa/3.0/" />
             </cc:Work>
        </rdf:RDF>
    </metadata>
    <path d="M 28.5 11.25 C 25.598125 11.54359 23.375 14.015184 23.375 17 L 23.375 111 C 23.375 114.1838 25.90994 116.75 29.09375 116.75 L 98.90625 116.75 C 102.09005 116.75 104.625 114.1838 104.625 111 L 104.625 40.375 L 83.59375 40.375 C 79.28764 40.375 75.53125 37.233891 75.53125 33.0625 L 75.53125 11.25 L 29.09375 11.25 C 28.894762 11.25 28.693458 11.23043 28.5 11.25 z M 79.53125 11.25 L 79.53125 33.0625 C 79.53125 34.776622 81.16322 36.375 83.59375 36.375 L 104.625 36.375 L 79.53125 11.25 z M 65.9375 40.71875 C 63.407005 41.655406 61.619295 43.907541 61.1875 46.15625 C 60.737844 48.398163 61.584558 50.756239 63 52 C 64.298932 53.324808 66.485829 53.859628 68.9375 54.90625 C 70.201283 55.382783 71.592085 55.993962 73.03125 56.90625 C 74.491936 57.814667 75.893023 59.129063 77.03125 60.96875 C 77.201085 61.260959 77.32672 61.538899 77.46875 61.84375 C 75.266419 61.192316 72.944867 60.84375 70.53125 60.84375 C 69.003481 60.84375 67.512657 60.981954 66.0625 61.25 C 65.916693 61.131267 65.781021 61.028777 65.625 60.90625 C 63.594225 59.464492 61.015139 57.527503 59.28125 54.71875 C 57.537212 51.656308 57.550751 48.062577 59 45.3125 C 60.467111 42.569218 63.245298 40.899795 65.9375 40.71875 z M 54.78125 41.59375 C 55.348551 47.868272 57.244165 53.823638 60.15625 58.96875 C 60.780988 60.073178 61.441109 61.126906 62.15625 62.15625 C 62.695723 62.011924 63.237105 61.91294 63.78125 61.8125 C 53.554959 64.739193 46.0625 74.114583 46.0625 85.28125 C 46.0625 86.163843 46.12758 87.047847 46.21875 87.90625 C 45.189483 87.37582 44.071499 86.861598 42.9375 86.28125 C 41.211195 85.418732 39.449435 84.334784 37.96875 82.875 C 36.093357 80.996012 34.926681 78.567849 34.59375 76.09375 C 34.262841 73.61918 34.776972 71.15524 35.9375 69.125 C 35.211284 71.347912 35.276257 73.755319 36 75.8125 C 36.721723 77.870152 38.117121 79.614683 39.8125 80.71875 C 41.14219 81.606754 42.72547 82.113859 44.40625 82.59375 C 44.862997 82.719108 45.336058 82.814579 45.8125 82.9375 C 45.83042 82.159452 45.90058 81.393889 46 80.625 C 44.979845 79.36876 44.116531 77.999245 43.4375 76.5625 C 41.681433 72.607082 41.364438 69.004593 40.75 65.78125 C 39.888971 61.396792 38.240097 57.023399 35.8125 52.96875 C 39.415797 56.026469 42.574644 59.806448 45.0625 64.125 C 46.641154 66.83203 47.871482 69.521958 49.40625 71.375 C 49.477338 71.266037 49.55189 71.170312 49.625 71.0625 C 49.26478 69.911568 49.026607 68.741288 48.90625 67.5625 C 48.718829 65.477683 48.876209 63.63555 49.0625 61.96875 C 49.225129 60.304542 49.412763 58.789387 49.3125 57.34375 C 49.123028 53.955834 47.228991 50.324747 43.96875 48.0625 C 47.772598 49.192865 51.259146 52.22247 52.96875 56.4375 C 53.673214 58.213598 54.06166 60.00473 54.40625 61.65625 C 54.704998 62.995527 54.982711 64.243288 55.375 65.28125 C 55.572916 65.145585 55.765177 65.005034 55.96875 64.875 C 55.556087 63.557387 55.200043 62.241578 54.90625 60.90625 C 53.470927 54.373144 53.48493 47.759055 54.78125 41.59375 z M 74.875 52.375 C 77.561961 53.515126 80.037719 55.467214 81.84375 58.03125 C 83.348399 60.16993 84.391779 62.713768 84.8125 65.4375 C 83.495434 64.48922 82.057744 63.67452 80.5625 63 C 80.481298 61.704075 80.235093 60.394459 79.78125 59.125 C 78.873277 56.580141 77.162615 54.18787 74.875 52.375 z M 70.53125 62.3125 C 83.220795 62.3125 93.5 72.591698 93.5 85.28125 C 93.5 97.970809 83.220795 108.25 70.53125 108.25 C 57.841698 108.25 47.5625 97.970809 47.5625 85.28125 C 47.5625 72.591698 57.841698 62.3125 70.53125 62.3125 z M 70.53125 80.8125 C 68.052359 80.8125 66.03125 82.802362 66.03125 85.28125 C 66.03125 87.760137 68.052359 89.78125 70.53125 89.78125 C 73.01014 89.78125 75 87.760137 75 85.28125 C 75 82.802362 73.01014 80.8125 70.53125 80.8125 z " style="fill:#aaaaaa"/>
</svg>