<?xml version="1.0" encoding="UTF-8" standalone="no"?>
<svg xmlns:dc="http://purl.org/dc/elements/1.1/"
     xmlns:cc="http://creativecommons.org/ns#"
     xmlns:rdf="http://www.w3.org/1999/02/22-rdf-syntax-ns#"
     xmlns:svg="http://www.w3.org/2000/svg"
     xmlns="http://www.w3.org/2000/svg"
     xmlns:xlink="http://www.w3.org/1999/xlink"
     width="128" height="128" version="1.1">
    <title>Glade Project Icon</title>
    <desc>This is shape (source) for Clarity vector icon theme for gtk</desc>
    <metadata>
        <rdf:RDF>
            <cc:Work rdf:about="">
                <dc:title>Glade Project Icon</dc:title>
                <dc:description>This is shape (source) for Clarity vector icon theme for gtk</dc:description>
                <dc:creator>
                    <cc:Agent>
                        <dc:title>Jakub Jankiewicz</dc:title>
                    </cc:Agent>
                </dc:creator>
                <dc:rights>
                    <cc:Agent>
                        <dc:title>Jakub Jankiewicz</dc:title>
                    </cc:Agent>
                </dc:rights>
                <dc:date>2010</dc:date>
                <dc:format>image/svg+xml</dc:format>
                <dc:type rdf:resource="http://purl.org/dc/dcmitype/StillImage" />
                <cc:license rdf:resource="http://www.gnu.org/copyleft/gpl.html" />
             </cc:Work>
        </rdf:RDF>
    </metadata>
    <path d="m 29.09375,11.234375 c -3.1838,0 -5.71875,2.566196 -5.71875,5.75 l 0,94.031255 c 0,3.18379 2.53495,5.75 5.71875,5.75 l 69.8125,0 c 3.1838,0 5.71875,-2.56621 5.71875,-5.75 l 0,-70.656255 -21.03125,0 c -4.30611,0 -8.0625,-3.141109 -8.0625,-7.3125 l 0,-21.8125 -46.4375,0 z m 50.4375,0 0,21.8125 c 0,1.714122 1.63197,3.3125 4.0625,3.3125 l 21.03125,0 -25.09375,-25.125 z M 67.75,41.265625 c -2.53359,0.937798 -4.31768,3.186048 -4.75,5.4375 -0.4502,2.244647 0.42658,4.598472 1.84375,5.84375 1.30051,1.326424 3.48284,1.858352 5.9375,2.90625 1.26532,0.477115 2.65283,1.0866 4.09375,2 1.46247,0.909526 2.86039,2.220569 4,4.0625 0.56044,0.964252 0.95395,2.013079 1.21875,3.09375 0.778,0.416419 1.55384,0.864248 2.28125,1.375 0.22761,-2.049838 -0.0093,-4.209423 -0.75,-6.28125 -0.90908,-2.547963 -2.58459,-4.966169 -4.875,-6.78125 2.69025,1.141517 5.12926,3.120336 6.9375,5.6875 1.80669,2.567986 2.9583,5.679132 3.15625,9.03125 0.0469,0.821414 0.03505,1.67107 -0.03125,2.5 0.72315,0.892518 1.37617,1.848615 1.96875,2.875 6.08963,10.547551 2.48505,24.03537 -8.0625,30.125005 -10.54755,6.08963 -24.03537,2.45381 -30.125,-8.093755 -1.20273,-2.08319 -2.03296,-4.2671 -2.5,-6.5 -1.05001,-0.54332 -2.18297,-1.09344 -3.34375,-1.6875 -1.72841,-0.86357 -3.48625,-1.91343 -4.96875,-3.375 -1.87768,-1.881274 -3.07291,-4.304133 -3.40625,-6.78125 -0.33131,-2.477589 0.1818,-4.967283 1.34375,-7 -0.72709,2.225623 -0.66213,4.62781 0.0625,6.6875 0.7226,2.060162 2.1463,3.800839 3.84375,4.90625 1.33132,0.889087 2.91092,1.394517 4.59375,1.875 0.45731,0.125505 0.92923,0.251923 1.40625,0.375 0.01794,-0.779002 0.088,-1.573924 0.1875,-2.34375 -1.02139,-1.25777 -1.88264,-2.624002 -2.5625,-4.0625 -1.7582,-3.960242 -2.0723,-7.553975 -2.6875,-10.78125 -0.86208,-4.389805 -2.5382,-8.784156 -4.96875,-12.84375 3.60769,3.061448 6.79036,6.863681 9.28125,11.1875 1.58058,2.710332 2.80712,5.394697 4.34375,7.25 0.07118,-0.109096 0.14555,-0.204557 0.21875,-0.3125 -0.36066,-1.152336 -0.59825,-2.319775 -0.71875,-3.5 -0.18765,-2.08736 -0.03027,-3.956167 0.15625,-5.625 0.16279,-1.666238 0.35039,-3.14635 0.25,-4.59375 -0.18969,-3.392048 -2.11079,-7.047494 -5.375,-9.3125 3.80848,1.131744 7.31956,4.154828 9.03125,8.375 0.70532,1.778264 1.09249,3.596464 1.4375,5.25 0.29912,1.34091 0.57598,2.585772 0.96875,3.625 0.19815,-0.13583 0.42118,-0.276058 0.625,-0.40625 -0.41316,-1.319221 -0.76836,-2.631793 -1.0625,-3.96875 -1.43708,-6.541074 -1.45415,-13.170925 -0.15625,-19.34375 0.568,6.282175 2.45937,12.223612 5.375,17.375 0.6255,1.105775 1.31523,2.18815 2.03125,3.21875 1.37571,-0.368049 2.76181,-0.59205 4.15625,-0.6875 -0.22942,-0.188882 -0.46846,-0.397191 -0.71875,-0.59375 -2.03325,-1.443517 -4.60774,-3.344071 -6.34375,-6.15625 -1.74616,-3.066177 -1.70102,-6.684068 -0.25,-9.4375 1.4689,-2.746628 4.21077,-4.412484 6.90625,-4.59375 z m 2,24.96875 c -9.98321,0 -18.0625,8.07929 -18.0625,18.0625 0,9.98358 8.07929,18.093755 18.0625,18.093755 9.9823,0 18.09375,-8.110085 18.09375,-18.093755 0,-9.98321 -8.11145,-18.0625 -18.09375,-18.0625 z m 0,1.375 c 0.29482,0 0.58396,0.01619 0.875,0.03125 l 0.9375,0.375 -0.78125,2.03125 c -0.97749,0.452117 -1.90909,0.807044 -2.9375,1.125 l -0.65625,1.03125 -0.53125,0.3125 -0.8125,-1.5625 0.59375,-0.625 0,-0.59375 -1.5,-1.0625 0.46875,-0.4375 0.875,-0.25 0.125,-0.03125 c 1.08691,-0.222131 2.19071,-0.34375 3.34375,-0.34375 z m -7.34375,1.71875 0.03125,0.3125 1.28125,0.1875 0.34375,0.65625 0.71875,0.3125 -0.65625,0.59375 c -0.44396,-0.300922 -0.90016,-0.60487 -1.34375,-0.90625 L 62.125,70.265625 c -0.29241,0.195426 -0.5879,0.390723 -0.875,0.59375 l -0.3125,0.75 -0.6875,0 0.34375,-0.8125 0.53125,-0.46875 -0.03125,-0.28125 c 0.11846,-0.07194 0.25463,-0.1497 0.375,-0.21875 l 0.0625,0.125 0.09375,-0.25 c 0.24478,-0.136293 0.52908,-0.250865 0.78125,-0.375 z m 15.78125,0.5625 c 0.54224,0.317828 1.06166,0.687423 1.5625,1.0625 l -0.3125,0 0.875,0.90625 0.21875,-0.28125 c 2.94393,2.494951 5.0247,5.961495 5.6875,9.9375 -0.12517,-0.116264 -0.24679,-0.196107 -0.375,-0.3125 l -0.78125,0.09375 -0.6875,-0.78125 0,0.96875 0.59375,0.46875 0.40625,0.4375 0.53125,-0.59375 c 0.13417,0.251291 0.273,0.498719 0.40625,0.75 l 0,0.75 -0.625,0.6875 -1.09375,0.75 -0.8125,0.78125 c 0.38772,-0.0279 0.79118,-0.0439 1.1875,-0.0937 l 0,0.5 -0.8125,1.96875 -0.71875,0.84375 -0.59375,1.25 0,2.125 0.1875,0.84375 -0.3125,0.375 -0.75,0.4375 -0.78125,0.65625 0.65625,0.6875 -0.875,0.78125 0.1875,0.46875 -0.625,0.71875 c -0.3206,0.27104 -0.65935,0.53467 -1,0.78125 l -0.5625,0 -0.71875,0.4375 -0.46875,0 0,-0.625 -0.21875,-1.1875 c -0.2576,-0.7566 -0.50844,-1.49879 -0.78125,-2.25 0,-0.5545 0.0293,-1.10185 0.0625,-1.65625 l 0.34375,-0.75 -0.46875,-0.90625 0.03125,-1.2813 -0.65625,-0.6875 0.34375,-1.03125 -0.53125,-0.59375 -0.90625,0 -0.28125,-0.34375 -0.90625,0.5625 -0.375,-0.40625 -0.8125,0.71875 c -0.56522,-0.64077 -1.15271,-1.2972 -1.71875,-1.9375 l -0.65625,-1.5625 0.59375,-0.90625 -0.3125,-0.375 0.71875,-1.75 c 0.60102,-0.747639 1.24,-1.436364 1.875,-2.15625 l 1.125,-0.3125 1.28125,-0.15625 0.84375,0.21875 1.25,1.25 0.40625,-0.5 0.625,-0.0625 1.125,0.375 0.875,0 0.59375,-0.53125 0.25,-0.375 -0.59375,-0.375 -1,-0.0625 c -0.27721,-0.384531 -0.51462,-0.783323 -0.84375,-1.125 l -0.34375,0.125 -0.15625,1 -0.59375,-0.6875 -0.125,-0.75 -0.65625,-0.53125 -0.28125,0 0.65625,0.75 -0.25,0.6875 -0.53125,0.125 0.34375,-0.65625 -0.625,-0.3125 -0.53125,-0.59375 -1,0.21875 -0.125,0.3125 -0.59375,0.375 -0.34375,0.84375 -0.8125,0.40625 -0.375,-0.40625 -0.40625,0 0,-1.375 0.875,-0.46875 0.65625,0 -0.125,-0.5 -0.53125,-0.5625 0.90625,-0.15625 0.46875,-0.5625 0.21875,-0.375 -0.53125,0.5 -0.75,0.15625 0.125,-0.875 0,-0.6875 -0.25,-0.3125 0,-0.46875 0.375,0 c 0.19589,0.399735 0.406,0.801982 0.5625,1.21875 l 0.46875,0.46875 0.1875,-0.3125 0.75,0 -0.1875,-0.53125 0.4375,-0.3125 0,0.59375 1,0.25 1,-0.84375 0.0625,-0.375 0.875,-0.59375 c -0.31302,0.03892 -0.63163,0.07301 -0.9375,0.15625 l 0,-0.6875 0.34375,-0.75 -0.34375,0 -0.71875,0.6875 -0.1875,0.375 0.1875,0.53125 -0.34375,0.90625 -0.53125,-0.3125 -0.46875,-0.53125 -0.71875,0.53125 -0.28125,-1.21875 1.28125,-0.8125 0,-0.4375 0.78125,-0.5625 1.21875,-0.28125 z m -17.6875,0.53125 -0.03125,0.59375 -0.75,0.6875 -1.65625,0.96875 0.1875,0.6875 1.28125,0.5 0.1875,0.9375 0.46875,-1 0.75,-0.28125 -0.09375,-0.46875 0.75,-1.28125 0.9375,0.53125 -0.15625,0.59375 0.8125,-0.28125 0.34375,0.65625 -0.125,0.46875 0.4375,0.125 0.40625,0.40625 -0.125,0.4375 -1.125,0.375 -0.8125,0 -1.125,0.53125 1.78125,0 -0.59375,0.90625 -1.1875,0.21875 -0.53125,0.78125 -0.9375,0.34375 -0.46875,1.125 -1.28125,1.0625 -0.09375,1.5 -0.75,-0.90625 -1,-0.21875 -0.125,0.46875 -0.8125,0 -1,0.75 -0.125,0.90625 0.0625,0.8125 0.65625,0.40625 0.46875,-0.25 0.46875,-0.59375 0.46875,0 c -0.06713,0.527577 -0.1208,1.06608 -0.1875,1.59375 l 0.78125,-0.0937 0,0.84375 0.28125,0.75 c 0.32291,0.19854 0.76235,0.20783 1.125,0.3125 l 0,-0.15625 1.21875,-1.0625 1.125,0.8125 1.3125,-0.125 0.53125,1.40625 1,0.21875 0.53125,1.09375 c 1.08473,0.55799 2.18837,1.1143 3.28125,1.65625 l -0.15625,1.125 -0.78125,1.125 0.125,1.5 -0.53125,1.1875 -1,0.25 -0.46875,0.65625 0.1875,0.46875 -0.65625,1.65625 -0.84375,0.28125 -0.21875,0.5625 -0.3125,0.3125 c -0.84854,-0.4178 -1.67791,-0.9185 -2.4375,-1.46875 l 0.21875,-0.87505 -0.40625,-0.9375 0.0625,-1.5625 -0.53125,-0.75 -1.1875,-1.0625 -1.1875,-2.1875 0.34375,-1.125 -0.15625,-0.3125 0.40625,-0.59375 0.53125,-1.4375 0,-0.125 -0.40625,-0.1875 -0.53125,0.0937 -0.9375,-0.6875 -0.59375,-0.75 -1.40625,-0.375 -1.125,-0.65625 c 0.0067,-5.790306 2.96038,-10.887575 7.4375,-13.875 z m 11.125,0.4375 0.40625,0.4375 -0.78125,0.5625 -0.46875,-0.3125 0.0625,-0.46875 0.25,0.09375 0.53125,-0.3125 z m -8.78125,0.15625 0.6875,0.28125 0,0.5625 -0.53125,0 -0.6875,-0.46875 0.53125,-0.375 z m 10.25,2.625 0.28125,0.6875 -0.59375,0.3125 -0.15625,-0.84375 0.46875,-0.15625 z m -9.1875,1.375 0.625,0.4375 -0.40625,0.625 -0.21875,-1.0625 z m 17.40625,5.875 -0.21875,0.21875 0.3125,1.09375 0.5625,0.65625 c 0.32281,0.931889 0.63858,1.79674 1.0625,2.6875 0.24139,0 0.48401,-0.0152 0.71875,-0.0312 l -0.5,-0.56255 0.25,-0.6875 -0.53125,-0.59375 -0.90625,-1.9375 -0.75,-0.84375 z" style="fill:#aaaaaa"/>
</svg>