<?xml version="1.0" encoding="UTF-8" standalone="no"?>
<svg xmlns:dc="http://purl.org/dc/elements/1.1/"
     xmlns:cc="http://creativecommons.org/ns#"
     xmlns:rdf="http://www.w3.org/1999/02/22-rdf-syntax-ns#"
     xmlns:svg="http://www.w3.org/2000/svg"
     xmlns="http://www.w3.org/2000/svg"
     xmlns:xlink="http://www.w3.org/1999/xlink"
     width="128" height="128" version="1.1">
    <title>Snap file icon</title>
    <desc>This is shape (source) for Clarity vector icon theme for gtk</desc>
    <metadata>
        <rdf:RDF>
            <cc:Work rdf:about="">
                <dc:title>Snap file icon</dc:title>
                <dc:description>This is shape (source) for Clarity vector icon theme for gtk</dc:description>
                <dc:creator>
                    <cc:Agent>
                        <dc:title>Jakub Jankiewicz</dc:title>
                    </cc:Agent>
                </dc:creator>
                <dc:rights>
                    <cc:Agent>
                        <dc:title>Jakub Jankiewicz</dc:title>
                    </cc:Agent>
                </dc:rights>
                <dc:date>2010</dc:date>
                <dc:format>image/svg+xml</dc:format>
                <dc:type rdf:resource="http://purl.org/dc/dcmitype/StillImage" />
                <cc:license rdf:resource="http://creativecommons.org/licenses/by-sa/3.0/" />
             </cc:Work>
        </rdf:RDF>
    </metadata>
    <path d="M 29.09375 11.234375 C 25.909946 11.234375 23.375 13.800571 23.375 16.984375 L 23.375 111.01562 C 23.375 114.19944 25.909946 116.76564 29.09375 116.76562 L 98.90625 116.76562 C 102.09005 116.76562 104.625 114.19943 104.625 111.01562 L 104.625 40.359375 L 83.59375 40.359375 C 79.287642 40.359375 75.53125 37.218266 75.53125 33.046875 L 75.53125 11.234375 L 29.09375 11.234375 z M 79.53125 11.234375 L 79.53125 33.046875 C 79.53125 34.760997 81.163218 36.359375 83.59375 36.359375 L 104.625 36.359375 L 79.53125 11.234375 z M 32.619141 46.953125 L 67.550781 59.578125 L 67.550781 81.667969 L 32.619141 46.953125 z M 69.527344 59.578125 L 89.65625 59.578125 L 95.380859 71.074219 L 69.527344 59.578125 z M 68.730469 60.513672 L 82.574219 66.660156 L 68.730469 80.498047 L 68.730469 60.513672 z M 59.271484 75.105469 L 66.71875 82.5 L 42.300781 106.92188 L 59.271484 75.105469 z" style="fill:#aaaaaa"/>
</svg>