<?xml version="1.0" encoding="UTF-8" standalone="no"?>
<svg xmlns:dc="http://purl.org/dc/elements/1.1/"
     xmlns:cc="http://creativecommons.org/ns#"
     xmlns:rdf="http://www.w3.org/1999/02/22-rdf-syntax-ns#"
     xmlns:svg="http://www.w3.org/2000/svg"
     xmlns="http://www.w3.org/2000/svg"
     xmlns:xlink="http://www.w3.org/1999/xlink"
     width="128" height="128" version="1.1">
    <title>Wine Source Code Icon</title>
    <desc>This is shape (source) for Clarity vector icon theme for gtk</desc>
    <metadata>
        <rdf:RDF>
            <cc:Work rdf:about="">
                <dc:title>Wine Source Code Icon</dc:title>
                <dc:description>This is shape (source) for Clarity vector icon theme for gtk</dc:description>
                <dc:creator>
                    <cc:Agent>
                        <dc:title>Jakub Jankiewicz</dc:title>
                    </cc:Agent>
                </dc:creator>
                <dc:rights>
                    <cc:Agent>
                        <dc:title>Jakub Jankiewicz</dc:title>
                    </cc:Agent>
                </dc:rights>
                <dc:date>2010</dc:date>
                <dc:format>image/svg+xml</dc:format>
                <dc:type rdf:resource="http://purl.org/dc/dcmitype/StillImage" />
                <cc:license rdf:resource="http://creativecommons.org/licenses/by-sa/3.0/" />
             </cc:Work>
        </rdf:RDF>
    </metadata>
    <path d="m 29.09375,11.21875 c -3.183804,0 -5.71875,2.56619 -5.71875,5.75 v 94.0625 c 0,3.1838 2.534946,5.75 5.71875,5.75 h 32.845703 c -0.356869,-0.31391 -0.693878,-0.64833 -1.015625,-1 -0.154751,-0.16754 -0.305693,-0.33828 -0.451172,-0.51563 -0.09396,-0.11566 -0.187587,-0.23149 -0.277344,-0.35156 -0.238402,-0.31616 -0.466714,-0.64323 -0.671874,-0.99414 -0.212898,-0.35468 -0.377914,-0.72937 -0.498047,-1.11328 -0.06044,-0.19315 -0.1105,-0.38835 -0.148438,-0.58594 -0.03778,-0.19677 -0.06397,-0.39454 -0.08008,-0.59375 -0.03217,-0.39777 -0.02107,-0.79952 0.0293,-1.19531 v -0.002 c 0.05058,-0.39642 0.141318,-0.78727 0.269531,-1.16602 0.128213,-0.37875 0.293467,-0.74443 0.494141,-1.08984 0.602021,-1.03624 1.518592,-1.88762 2.679687,-2.3418 1.70304,-0.67057 3.466467,-0.82124 5.238281,-0.7207 h 0.002 c 0.885265,0.0503 1.773968,0.1627 2.65625,0.30469 0.882939,0.14205 1.760463,0.31385 2.626953,0.48046 0.755887,-0.40227 1.22262,-1.23035 1.632812,-2.04101 0.136561,-0.27006 0.266075,-0.53752 0.398438,-0.78711 0.846358,-2.13445 1.971057,-4.504882 1.933593,-6.84961 v -0.002 c -0.0127,-0.781787 -0.154366,-1.559674 -0.478515,-2.326172 -0.694293,-1.400213 -1.384083,-2.816817 -1.955078,-4.275391 v -0.002 c -0.142785,-0.364695 -0.278101,-0.731328 -0.404297,-1.101562 -0.378488,-1.110558 -0.674569,-2.247789 -0.839844,-3.421875 -0.428045,-2.387476 -0.518847,-4.774083 -0.384766,-7.154297 0.02675,-0.475877 0.0637,-0.950608 0.107422,-1.425781 0.17505,-1.90086 0.478154,-3.79547 0.851563,-5.679688 0.559894,-2.82608 1.276484,-5.628236 1.953125,-8.392578 0.646167,-2.47772 1.243695,-4.978907 1.892578,-7.464844 0.09519,-0.364872 0.183088,-0.731749 0.28125,-1.095703 v -0.002 c 0.191587,-0.710302 0.390512,-1.417821 0.597656,-2.123047 V 51.75 c 0.207161,-0.705225 0.424051,-1.407409 0.652344,-2.105469 v -0.002 c 0.457012,-1.397288 0.961912,-2.776783 1.537109,-4.132812 0.0867,-0.191006 0.182296,-0.37599 0.285157,-0.552735 v -0.002 c 0.103191,-0.177199 0.213835,-0.346589 0.332031,-0.509766 0.236391,-0.326351 0.502118,-0.624318 0.791015,-0.896484 1.73339,-1.632996 4.321298,-2.314156 6.683594,-2.316406 1.049233,-0.03236 2.099075,0.0029 3.144532,0.09375 0.662621,0.06871 1.324516,0.156819 1.986328,0.253906 0.241233,0.03523 0.481754,0.07421 0.722656,0.113281 0.40827,0.06657 0.815896,0.138824 1.222656,0.216797 0.293479,0.05592 0.586481,0.111872 0.878906,0.173828 0.457927,0.0976 0.91263,0.20551 1.367188,0.31836 0.469737,0.115955 0.935242,0.244244 1.40039,0.376953 0.275391,0.07896 0.550718,0.157217 0.824218,0.242187 0.37476,0.115914 0.74647,0.237767 1.11719,0.365235 0.21645,0.07468 0.43155,0.153752 0.64648,0.232422 0.87189,0.318232 1.73197,0.666041 2.57422,1.052734 0.0265,0.01217 0.0536,0.02292 0.0801,0.03516 V 40.34375 H 83.59375 c -4.30611,0 -8.0625,-3.14111 -8.0625,-7.3125 v -21.8125 z m 50.4375,0 v 21.8125 c 0,1.71412 1.63197,3.3125 4.0625,3.3125 H 104.625 Z m 10,34 c -2.218062,-0.0051 -3.977584,0.315216 -4.90625,1.34375 -0.436915,0.483897 -0.742571,1.256163 -1.1875,2.5 -0.444929,1.243837 -0.951618,2.910641 -1.53125,4.96875 -1.159265,4.116219 -2.566271,9.77757 -4.125,16.625 -2.271112,9.951001 -0.686221,15.81294 0.90625,19 0.98718,1.975687 1.809495,3.496131 2.03125,5.4375 0.221755,1.941369 -0.124212,4.378825 -1.65625,8.25 -1.103273,2.78775 -2.217701,4.40572 -3.25,5.34375 -0.998737,0.90753 -1.917505,1.211 -2.875,1.34375 -2.552144,-0.60828 -4.777115,-0.93378 -6.5,-0.9375 -0.873022,-0.002 -1.642579,0.0833 -2.25,0.28125 -0.607421,0.19796 -1.103882,0.55254 -1.3125,1.125 -0.285399,0.78318 0.08231,1.56841 0.71875,2.3125 0.636438,0.74409 1.598677,1.5126 2.8125,2.3125 2.427646,1.59981 5.916963,3.28157 9.90625,4.71875 3.988231,1.4368 7.711637,2.36123 10.59375,2.6875 1.441057,0.16314 2.69301,0.19404 3.65625,0.0312 0.96324,-0.16259 1.746417,-0.53086 2.03125,-1.3125 0.208716,-0.57277 0.05409,-1.17112 -0.28125,-1.71875 -0.335343,-0.54763 -0.861303,-1.09028 -1.53125,-1.65625 -1.322434,-1.11719 -3.256907,-2.33621 -5.625,-3.5 -1.023423,-1.05031 -1.908537,-1.88643 -2.375,-3.1875 -0.479138,-1.33642 -0.562782,-3.25574 0.25,-6.53125 1.598988,-6.443874 3.517858,-8.345503 5.8125,-9.8125 2.294642,-1.466997 5.137984,-2.463767 8.125,-6.625 4.99406,-6.957251 6.33576,-12.363913 9.1875,-20.40625 1.51559,-4.274179 2.58134,-7.395712 3.25,-9.5625 0.33433,-1.083394 0.56306,-1.912119 0.6875,-2.5625 0.12444,-0.650381 0.24468,-1.075175 0,-1.5625 -1.44352,-2.875053 -4.96666,-5.024089 -8.90625,-6.53125 -3.939588,-1.507161 -8.333115,-2.367345 -11.65625,-2.375 z m 0.4375,2.96875 c 2.317076,0.02032 5.34025,0.575284 7.75,1.4375 2.62896,0.940652 5.12504,2.060806 6.90625,3.125 0.8906,0.532097 1.59443,1.026816 2.03125,1.46875 0.43682,0.441934 0.54747,0.783197 0.53125,0.875 -0.6169,3.492084 -1.79703,6.198787 -2.375,7.6875 -1.29117,-0.84638 -2.74708,-0.86011 -4.125,-0.40625 -1.627098,0.535936 -3.28185,1.5527 -5.0625,2.3125 -1.780653,0.7598 -3.628179,1.266234 -5.6875,0.875 -2.00121,-0.380194 -4.25457,-1.644257 -6.78125,-4.5 0.100445,-0.383714 2.009801,-7.67852 3.375,-12.03125 0.04374,-0.139463 0.29178,-0.412004 0.90625,-0.59375 0.61447,-0.181746 1.509729,-0.258956 2.53125,-0.25 z M 57.03125,67.625 v 6.53125 l -16.09375,6.15625 16.09375,6.375 v 6.5 L 33.96875,83.15625 v -5.5625 z" style="fill:#aaaaaa"/>
</svg>