<?xml version="1.0" encoding="UTF-8" standalone="no"?>
<svg xmlns:dc="http://purl.org/dc/elements/1.1/"
     xmlns:cc="http://creativecommons.org/ns#"
     xmlns:rdf="http://www.w3.org/1999/02/22-rdf-syntax-ns#"
     xmlns:svg="http://www.w3.org/2000/svg"
     xmlns="http://www.w3.org/2000/svg"
     xmlns:xlink="http://www.w3.org/1999/xlink"
     width="128" height="128" version="1.1">
    <title>Math Formula File Icon</title>
    <desc>This is shape (source) for Clarity vector icon theme for gtk</desc>
    <metadata>
        <rdf:RDF>
            <cc:Work rdf:about="">
                <dc:title>Math Formula File Icon</dc:title>
                <dc:description>This is shape (source) for Clarity vector icon theme for gtk</dc:description>
                <dc:creator>
                    <cc:Agent>
                        <dc:title>Jakub Jankiewicz</dc:title>
                    </cc:Agent>
                </dc:creator>
                <dc:rights>
                    <cc:Agent>
                        <dc:title>Jakub Jankiewicz</dc:title>
                    </cc:Agent>
                </dc:rights>
                <dc:date>2010</dc:date>
                <dc:format>image/svg+xml</dc:format>
                <dc:type rdf:resource="http://purl.org/dc/dcmitype/StillImage" />
                <cc:license rdf:resource="http://www.gnu.org/copyleft/gpl.html" />
             </cc:Work>
        </rdf:RDF>
    </metadata>
    <path d="M 29.09375 11.21875 C 25.909946 11.21875 23.375 13.784945 23.375 16.96875 L 23.375 111.03125 C 23.375 114.21505 25.909946 116.78125 29.09375 116.78125 L 98.90625 116.78125 C 102.09005 116.78125 104.625 114.21505 104.625 111.03125 L 104.625 40.34375 C 97.075611 40.028397 75.885891 43.544612 75.53125 33.03125 L 75.53125 11.21875 L 29.09375 11.21875 z M 79.53125 11.21875 L 79.53125 33.03125 C 79.53125 34.745373 81.163219 36.34375 83.59375 36.34375 L 104.625 36.34375 L 79.53125 11.21875 z M 56.3125 52.9375 L 90.71875 52.9375 C 91.494159 52.9375 92.12453 53.568345 92.125 54.34375 L 92.125 57.9375 C 92.125 58.712905 91.494159 59.34375 90.71875 59.34375 L 57.96875 59.34375 L 49.75 105.34375 C 49.63535 105.98767 49.090768 106.4682 48.4375 106.5 C 47.783764 106.53183 47.177355 106.12987 47 105.5 L 41.21875 85 L 38.25 86.5 C 37.598136 86.82991 36.819353 86.591133 36.4375 85.96875 L 36.09375 85.40625 C 35.701602 84.767021 35.879489 83.95288 36.5 83.53125 L 42.5625 79.375 C 42.939205 79.119028 43.448223 79.089959 43.875 79.25 C 44.301309 79.410041 44.602697 79.747153 44.71875 80.1875 L 48.09375 92.96875 L 54.9375 54.09375 C 55.055893 53.423168 55.631155 52.9375 56.3125 52.9375 z M 72.625 69.09375 C 74.153816 71.490157 75.215752 74.121129 75.84375 77 C 77.420297 74.667703 78.601364 73.058575 79.40625 72.125 C 80.483955 70.870408 81.394622 70.03436 82.09375 69.65625 C 82.793345 69.278609 83.523516 69.09375 84.3125 69.09375 C 85.19693 69.09375 85.900496 69.324889 86.375 69.8125 C 86.849973 70.299175 87.0625 70.953434 87.0625 71.78125 C 87.0625 72.561802 86.849508 73.222715 86.375 73.71875 C 85.900027 74.214316 85.301763 74.46875 84.59375 74.46875 C 84.078995 74.46875 83.480277 74.358875 82.8125 74.15625 C 82.143792 73.953625 81.664094 73.84375 81.40625 73.84375 C 80.73052 73.84375 80.111152 74.080036 79.5 74.5625 C 78.661889 75.221851 77.629021 76.657558 76.40625 78.8125 C 77.768941 83.629181 78.869511 86.535231 79.6875 87.59375 C 80.168091 88.220812 80.627093 88.53125 81.125 88.53125 C 81.541481 88.53125 81.91411 88.415396 82.21875 88.1875 C 82.682965 87.82109 83.382088 86.905481 84.34375 85.4375 L 85.25 85.96875 C 83.83911 88.347843 82.470842 90.027588 81.125 91 C 80.099238 91.752944 79.08769 92.125 78.09375 92.125 C 77.067053 92.125 76.213063 91.898437 75.53125 91.4375 C 74.849904 90.976094 74.247073 90.230106 73.71875 89.1875 C 73.18949 88.144424 72.533622 86.484232 71.8125 84.1875 C 69.918211 86.597478 68.451301 88.361096 67.375 89.46875 C 66.298699 90.577337 65.399263 91.284793 64.6875 91.625 C 63.974802 91.964267 63.216284 92.125 62.40625 92.125 C 61.565332 92.125 60.899944 91.887782 60.40625 91.40625 C 59.912555 90.924723 59.65625 90.30104 59.65625 89.53125 C 59.65625 88.713264 59.934343 88.029727 60.46875 87.5 C 61.005029 86.97074 61.67312 86.71875 62.5 86.71875 C 62.937072 86.71875 63.448279 86.859669 64 87.125 C 64.809565 87.522764 65.394821 87.71875 65.75 87.71875 C 66.218425 87.71875 66.627506 87.634042 67 87.4375 C 67.484335 87.192758 68.099698 86.660803 68.84375 85.84375 C 69.295796 85.338356 70.131741 84.242362 71.34375 82.59375 C 69.788261 76.889823 68.561644 73.496693 67.6875 72.375 C 67.131567 71.653411 66.441688 71.28125 65.59375 71.28125 C 65.153871 71.28125 64.604703 71.340529 63.96875 71.46875 L 64.1875 70.53125 L 72.625 69.09375 z " style="fill:#aaaaaa"/>
</svg>