<?xml version="1.0" encoding="UTF-8" standalone="no"?>
<svg xmlns:dc="http://purl.org/dc/elements/1.1/"
     xmlns:cc="http://creativecommons.org/ns#"
     xmlns:rdf="http://www.w3.org/1999/02/22-rdf-syntax-ns#"
     xmlns:svg="http://www.w3.org/2000/svg"
     xmlns="http://www.w3.org/2000/svg"
     xmlns:xlink="http://www.w3.org/1999/xlink"
     width="128" height="128" version="1.1">
    <title>Kexi File Icon</title>
    <desc>This is shape (source) for Clarity vector icon theme for gtk</desc>
    <metadata>
        <rdf:RDF>
            <cc:Work rdf:about="">
                <dc:title>Kexi File Icon</dc:title>
                <dc:description>This is shape (source) for Clarity vector icon theme for gtk</dc:description>
                <dc:creator>
                    <cc:Agent>
                        <dc:title>Jakub Jankiewicz</dc:title>
                    </cc:Agent>
                </dc:creator>
                <dc:rights>
                    <cc:Agent>
                        <dc:title>Jakub Jankiewicz</dc:title>
                    </cc:Agent>
                </dc:rights>
                <dc:date>2010</dc:date>
                <dc:format>image/svg+xml</dc:format>
                <dc:type rdf:resource="http://purl.org/dc/dcmitype/StillImage" />
                <cc:license rdf:resource="http://www.gnu.org/copyleft/gpl.html" />
             </cc:Work>
        </rdf:RDF>
    </metadata>
    <path d="M 28.5 11.25 C 25.598125 11.54359 23.375 14.015184 23.375 17 L 23.375 111 C 23.375 114.1838 25.90994 116.75 29.09375 116.75 L 98.90625 116.75 C 102.09005 116.75 104.625 114.1838 104.625 111 L 104.625 40.375 L 83.59375 40.375 C 79.28764 40.375 75.53125 37.233891 75.53125 33.0625 L 75.53125 11.25 L 29.09375 11.25 C 28.894762 11.25 28.693458 11.23043 28.5 11.25 z M 79.53125 11.25 L 79.53125 33.0625 C 79.53125 34.776622 81.16322 36.375 83.59375 36.375 L 104.625 36.375 L 79.53125 11.25 z M 56.46875 55.40625 L 59.65625 59.03125 L 62.125 58.875 L 63.5 55.75 L 70.6875 58.0625 L 71.0625 61.6875 L 73.59375 62.875 L 76.78125 61.625 L 82.625 66.28125 L 80.6875 68.9375 L 82.78125 71.59375 L 87.21875 72.5625 L 90.09375 79.28125 L 85.9375 82.6875 L 91 86.625 L 89.46875 92.3125 L 84.46875 96.75 L 85.28125 97.5625 L 79.15625 104.375 L 75.03125 106.09375 L 71.59375 102.09375 L 69.21875 102.1875 L 65.3125 107.40625 L 57.46875 105.4375 L 56.46875 98.6875 L 53.6875 97.34375 L 48.1875 100.53125 L 42.03125 94.09375 L 44.5 87.46875 L 43.625 85.15625 L 38.03125 85.15625 L 37 78.40625 L 38.46875 71.21875 L 41.65625 70.78125 L 40.5 69.6875 L 40.71875 63.59375 L 44.78125 59.46875 L 49.6875 62 L 49.6875 56.5625 L 56.46875 55.40625 z M 56.25 56.5625 L 51.125 57.3125 L 52.90625 61.0625 C 52.90625 61.0625 50.804377 62.346889 50.09375 63.53125 C 47.488163 61.715231 44.84375 60.75 44.84375 60.75 L 41.875 64.0625 L 46.6875 67.375 C 46.6875 67.375 45.435835 69.302323 45.59375 71.75 C 42.198588 71.986874 39.375 72.0625 39.375 72.0625 L 40.0625 78.21875 L 46.625 78.4375 C 46.625 78.437502 47.741484 82.466896 50.03125 84.125 C 48.531067 85.704147 46.125 88.96875 46.125 88.96875 L 50.3125 92.71875 L 55.78125 89.4375 C 55.781251 89.4375 58.769414 91.945634 61.375 92.65625 C 61.375 95.340801 61.6875 99.375 61.6875 99.375 L 67.46875 100.53125 L 68.40625 94.3125 C 68.406249 94.3125 72.588564 94.537911 74.5625 93.90625 C 75.509987 95.406441 78.59375 99.625 78.59375 99.625 L 82.9375 97.46875 L 79.84375 91.625 C 79.843751 91.625 82.212092 90.047897 82.84375 88.46875 C 84.896641 89.495196 88.59375 91.15625 88.59375 91.15625 L 89.875 87.0625 L 84.34375 83.09375 C 84.34375 83.09375 84.990199 80.888318 84.4375 79.625 C 87.201004 79.230213 89.09375 78.90625 89.09375 78.90625 L 86.96875 73.71875 L 81.96875 72.625 C 81.96875 72.625 80.654776 70.30936 79.3125 69.125 C 80.733728 67.466896 81.34375 66.46875 81.34375 66.46875 L 76.6875 62.90625 L 73.84375 64.21875 C 73.84375 64.21875 71.483739 62.486871 70.0625 62.25 C 69.904532 60.118153 69.90625 59.03125 69.90625 59.03125 L 64.1875 57.1875 L 62.96875 60.0625 L 58.84375 59.90625 L 56.25 56.5625 z M 63.6875 62.53125 C 64.058456 62.51866 64.420181 62.523848 64.8125 62.53125 C 77.366721 62.768122 79.96875 74.56859 79.96875 78.4375 C 79.968751 82.306408 77.024057 88.605213 68.8125 89 C 60.600928 89.394787 51.653018 79.992244 51.21875 76.28125 C 50.798057 72.686225 52.18785 62.921536 63.6875 62.53125 z " style="fill:#aaaaaa"/>
</svg>