<?xml version="1.0" encoding="UTF-8" standalone="no"?>
<svg xmlns:dc="http://purl.org/dc/elements/1.1/"
     xmlns:cc="http://creativecommons.org/ns#"
     xmlns:rdf="http://www.w3.org/1999/02/22-rdf-syntax-ns#"
     xmlns:svg="http://www.w3.org/2000/svg"
     xmlns="http://www.w3.org/2000/svg"
     xmlns:xlink="http://www.w3.org/1999/xlink"
     width="128" height="128" version="1.1">
    <title>Comic File Icon</title>
    <desc>This is shape (source) for Clarity vector icon theme for gtk</desc>
    <metadata>
        <rdf:RDF>
            <cc:Work rdf:about="">
                <dc:title>Comic File Icon</dc:title>
                <dc:description>This is shape (source) for Clarity vector icon theme for gtk</dc:description>
                <dc:creator>
                    <cc:Agent>
                        <dc:title>Jakub Jankiewicz</dc:title>
                    </cc:Agent>
                </dc:creator>
                <dc:rights>
                    <cc:Agent>
                        <dc:title>Jakub Jankiewicz</dc:title>
                    </cc:Agent>
                </dc:rights>
                <dc:date>2010</dc:date>
                <dc:format>image/svg+xml</dc:format>
                <dc:type rdf:resource="http://purl.org/dc/dcmitype/StillImage" />
                <cc:license rdf:resource="http://www.gnu.org/copyleft/gpl.html" />
             </cc:Work>
        </rdf:RDF>
    </metadata>
    <path d="M 28.5 11.25 C 25.598125 11.54359 23.375 14.015184 23.375 17 L 23.375 111 C 23.375 114.1838 25.90994 116.75 29.09375 116.75 L 98.90625 116.75 C 102.09005 116.75 104.625 114.1838 104.625 111 L 104.625 40.375 L 83.59375 40.375 C 79.28764 40.375 75.53125 37.233891 75.53125 33.0625 L 75.53125 11.25 L 29.09375 11.25 C 28.894762 11.25 28.693458 11.230427 28.5 11.25 z M 79.53125 11.25 L 79.53125 33.0625 C 79.53125 34.776622 81.16322 36.375 83.59375 36.375 L 104.625 36.375 L 79.53125 11.25 z M 55.1875 49.375 C 67.552285 49.375 77.5625 54.073517 77.5625 59.84375 C 77.5625 63.594116 73.296863 66.875786 66.9375 68.71875 C 67.292506 71.195385 68.411651 73.867432 70.59375 76.90625 C 65.579806 75.087209 60.820935 73.05525 56.9375 70.21875 C 56.359597 70.23962 55.776874 70.28125 55.1875 70.28125 C 42.822715 70.28125 32.78125 65.613983 32.78125 59.84375 C 32.78125 54.073517 42.822715 49.375 55.1875 49.375 z M 74.5625 80.40625 C 86.724408 80.40625 96.59375 85.011943 96.59375 90.6875 C 96.59375 96.363058 86.724408 100.96875 74.5625 100.96875 C 73.977678 100.96875 73.417083 100.92715 72.84375 100.90625 C 69.025286 103.6935 64.334892 105.7119 59.40625 107.5 C 61.556435 104.50563 62.65299 101.8458 63 99.40625 C 56.73919 97.594098 52.5625 94.378378 52.5625 90.6875 C 52.5625 85.011943 62.400593 80.40625 74.5625 80.40625 z " style="fill:#aaaaaa"/>
</svg>