<?xml version="1.0" encoding="UTF-8" standalone="no"?>
<svg xmlns:dc="http://purl.org/dc/elements/1.1/"
     xmlns:cc="http://creativecommons.org/ns#"
     xmlns:rdf="http://www.w3.org/1999/02/22-rdf-syntax-ns#"
     xmlns:svg="http://www.w3.org/2000/svg"
     xmlns="http://www.w3.org/2000/svg"
     xmlns:xlink="http://www.w3.org/1999/xlink"
     width="128" height="128" version="1.1">
    <title>Shebang File Icon</title>
    <desc>This is shape (source) for Clarity vector icon theme for gtk</desc>
    <metadata>
        <rdf:RDF>
            <cc:Work rdf:about="">
                <dc:title>Shebang File Icon</dc:title>
                <dc:description>This is shape (source) for Clarity vector icon theme for gtk</dc:description>
                <dc:creator>
                    <cc:Agent>
                        <dc:title>Jakub Jankiewicz</dc:title>
                    </cc:Agent>
                </dc:creator>
                <dc:rights>
                    <cc:Agent>
                        <dc:title>Jakub Jankiewicz</dc:title>
                    </cc:Agent>
                </dc:rights>
                <dc:date>2010</dc:date>
                <dc:format>image/svg+xml</dc:format>
                <dc:type rdf:resource="http://purl.org/dc/dcmitype/StillImage" />
                <cc:license rdf:resource="http://www.gnu.org/copyleft/gpl.html" />
             </cc:Work>
        </rdf:RDF>
    </metadata>
    <path d="m 29.09375,11.234375 c -3.183804,0 -5.71875,2.566196 -5.71875,5.75 l 0,94.031255 c 0,3.1838 2.534946,5.75 5.71875,5.75 l 69.8125,0 c 3.1838,0 5.71875,-2.5662 5.71875,-5.75 l 0,-70.656255 -21.03125,0 c -4.306108,0 -8.0625,-3.141109 -8.0625,-7.3125 l 0,-21.8125 -46.4375,0 z m 50.4375,0 0,21.8125 c 0,1.714122 1.631968,3.3125 4.0625,3.3125 l 21.03125,0 -25.09375,-25.125 z m -25.21875,49.59375 4.90625,0 -1.71875,8.5625 4.84375,0 1.6875,-8.5625 5.09375,0 -1.75,8.5625 3.03125,0 0,4.84375 -4.03125,0 -1.3125,6.46875 5.34375,0 0,4.8125 -6.3125,0 -1.75,8.5625 -4.875,0 1.6875,-8.5625 -4.875,0 -1.75,8.5625 -4.9375,0 1.71875,-8.5625 -2.96875,0 0,-4.8125 3.9375,0 1.3125,-6.46875 -5.25,0 0,-4.84375 6.25,0 1.71875,-8.5625 z m 20.65625,0.53125 6.65625,0 0,7.5625 -1.5625,16.3125 -3.5,0 -1.59375,-16.3125 0,-7.5625 z m -18.4375,12.875 -1.28125,6.46875 4.875,0 1.25,-6.46875 -4.84375,0 z m 18.71875,13.125 6.15625,0 0,6.15625 -6.15625,0 0,-6.15625 z" style="fill:#aaaaaa"/>
</svg>