<?xml version="1.0" encoding="UTF-8" standalone="no"?>
<svg xmlns:dc="http://purl.org/dc/elements/1.1/"
     xmlns:cc="http://creativecommons.org/ns#"
     xmlns:rdf="http://www.w3.org/1999/02/22-rdf-syntax-ns#"
     xmlns:svg="http://www.w3.org/2000/svg"
     xmlns="http://www.w3.org/2000/svg"
     xmlns:xlink="http://www.w3.org/1999/xlink"
     width="128" height="128" version="1.1">
    <title>Java Application Icon</title>
    <desc>This is shape (source) for Clarity vector icon theme for gtk</desc>
    <metadata>
        <rdf:RDF>
            <cc:Work rdf:about="">
                <dc:title>Java Application Icon</dc:title>
                <dc:description>This is shape (source) for Clarity vector icon theme for gtk</dc:description>
                <dc:creator>
                    <cc:Agent>
                        <dc:title>Jakub Jankiewicz</dc:title>
                    </cc:Agent>
                </dc:creator>
                <dc:rights>
                    <cc:Agent>
                        <dc:title>Jakub Jankiewicz</dc:title>
                    </cc:Agent>
                </dc:rights>
                <dc:date>2010</dc:date>
                <dc:format>image/svg+xml</dc:format>
                <dc:type rdf:resource="http://purl.org/dc/dcmitype/StillImage" />
                <cc:license rdf:resource="http://www.gnu.org/copyleft/gpl.html" />
             </cc:Work>
        </rdf:RDF>
    </metadata>
    <path d="M 23.625 23.1875 C 20.414 23.1875 17.875 25.788995 17.875 29 L 17.875 99 C 17.875 102.21098 20.414 104.8125 23.625 104.8125 L 104.375 104.8125 C 107.586 104.8125 110.15625 102.21099 110.15625 99 L 110.15625 29 C 110.15625 25.788995 107.586 23.1875 104.375 23.1875 L 23.625 23.1875 z M 23.875 41.9375 L 104.15625 41.9375 L 104.15625 99 L 23.875 99 L 23.875 41.9375 z M 68.6875 45.9375 C 68.48984 46.006036 68.37372 46.238244 68.4375 46.4375 C 68.923402 48.351103 68.746704 49.90579 68.15625 51.25 C 67.565804 52.59421 66.544259 53.756504 65.34375 54.84375 C 62.942731 57.01824 59.822803 58.841171 58.09375 61.4375 C 56.881039 63.258327 57.175896 65.238132 58.34375 67.15625 C 59.511604 69.074369 61.490325 71.026782 63.78125 73.09375 C 64.045299 73.37096 64.604023 73.000977 64.4375 72.65625 C 63.496485 70.529374 61.57661 68.617006 60.875 66.59375 C 60.524199 65.582123 60.43487 64.546809 60.90625 63.375 C 61.37763 62.203191 62.422509 60.892267 64.34375 59.375 C 69.281898 55.476508 70.56784 52.176042 70.53125 49.8125 C 70.494644 47.448958 69.125 46.0625 69.125 46.0625 C 69.036441 45.966445 68.879376 45.91927 68.75 45.9375 C 68.73311 45.9364 68.73563 45.9364 68.71875 45.9375 C 68.71031 45.937237 68.6959 45.937237 68.6875 45.9375 z M 74.875 55.71875 C 74.84892 55.72471 74.83694 55.73911 74.8125 55.75 C 74.79504 55.75727 74.76629 55.77165 74.75 55.78125 C 74.75 55.78125 70.602081 56.835007 67.375 59.0625 C 65.761459 60.176246 64.351102 61.56953 63.875 63.375 C 63.398898 65.18047 63.911715 67.322037 65.9375 69.65625 C 67.005046 70.885334 66.834614 71.944163 66.4375 72.78125 C 66.040386 73.618337 65.375 74.15625 65.375 74.15625 C 65.130755 74.419398 65.473489 74.930712 65.8125 74.8125 C 65.8125 74.8125 67.36255 74.052226 68.5625 72.75 C 69.16247 72.098887 69.681205 71.297323 69.875 70.375 C 70.068795 69.452676 69.888868 68.437477 69.15625 67.40625 C 68.518383 66.509756 67.940839 65.707522 67.59375 65 C 67.24666 64.292478 67.12199 63.685325 67.34375 62.96875 C 67.78727 61.5356 69.831692 59.564934 75.0625 56.53125 C 75.274897 56.484787 75.42146 56.274897 75.375 56.0625 C 75.328538 55.850104 75.087397 55.67229 74.875 55.71875 z M 77.53125 72 C 76.994191 72.02759 76.429247 72.13791 75.84375 72.34375 C 75.185585 72.577413 74.84375 73.125 74.84375 73.125 C 74.667098 73.416617 75.030429 73.853198 75.34375 73.71875 C 75.34375 73.71875 75.590162 73.612594 76.28125 73.46875 C 77.505105 73.213619 79.072527 74.04714 79.3125 75.4375 C 79.432491 76.13268 79.281174 77.021589 78.5 78.03125 C 77.718834 79.04091 76.318976 80.156186 74.09375 81.3125 C 74.004685 81.352717 73.94647 81.41093 73.90625 81.5 C 73.91964 81.46442 73.89682 81.50723 73.875 81.53125 C 73.86413 81.54326 73.85105 81.58665 73.84375 81.59375 L 74.09375 81.90625 L 74.21875 82.28125 C 76.996641 81.550986 78.93776 80.566338 80.21875 79.46875 C 81.49974 78.371162 82.09735 77.150316 82.15625 76 C 82.274091 73.699369 80.16593 71.864615 77.53125 72 z M 57.96875 72.46875 C 56.773425 72.500199 54.016273 72.763842 50.8125 74.3125 C 50.479933 74.47337 50.224501 74.625901 50.03125 74.8125 C 49.837999 74.999099 49.67265 75.251818 49.6875 75.53125 C 49.702363 75.810682 49.867691 76.031206 50.0625 76.1875 C 50.257309 76.343793 50.525058 76.452826 50.8125 76.5625 C 51.962263 77.001198 53.931138 77.26585 56.34375 77.40625 C 61.168981 77.687047 67.663422 77.377337 72.1875 76.1875 C 72.232206 76.1779 72.30475 76.14888 72.34375 76.125 C 73.21243 75.53185 74.46875 75.03125 74.46875 75.03125 C 74.674524 74.971531 74.80974 74.737023 74.75 74.53125 C 74.69026 74.325478 74.424517 74.19024 74.21875 74.25 C 74.21875 74.25 70.631771 74.883784 67.03125 75.1875 C 62.615691 75.55747 57.841168 75.62176 55.53125 75.3125 C 54.843075 75.2206 54.363765 75.102173 54.125 75 C 54.058878 74.97171 54.0624 74.958 54.03125 74.9375 C 54.042665 74.942028 54.033313 74.916172 54.1875 74.8125 C 54.385173 74.679589 54.675123 74.554307 55.03125 74.40625 C 56.455751 73.814022 58.65625 73.28125 58.65625 73.28125 C 58.868174 73.26074 59.05111 73.055735 59.03125 72.84375 C 59.011387 72.631763 58.805796 72.44953 58.59375 72.46875 C 58.59375 72.46875 58.363738 72.45839 57.96875 72.46875 z M 56.46875 77.90625 C 56.45995 77.91432 56.47675 77.9287 56.46875 77.9375 C 56.45128 77.94475 56.42253 77.95915 56.40625 77.96875 C 55.360155 78.315951 54.635946 78.67035 54.15625 79.0625 C 53.916406 79.258575 53.730087 79.473788 53.625 79.71875 C 53.51994 79.963713 53.50592 80.224406 53.59375 80.46875 C 53.769412 80.957436 54.220009 81.288155 54.8125 81.5625 C 55.40499 81.836844 56.176506 82.042867 57.09375 82.21875 C 60.762721 82.92228 66.819771 82.844642 72.59375 81.15625 C 72.905864 81.05232 72.898266 80.530701 72.59375 80.40625 C 71.472229 80.010828 70.75 79.28125 70.75 79.28125 C 70.656577 79.194128 70.5316 79.16288 70.40625 79.1875 C 64.862234 80.255048 61.748068 80.200157 57.6875 79.78125 C 56.935557 79.703474 56.487877 79.546316 56.34375 79.4375 C 56.19966 79.328679 56.25367 79.34551 56.28125 79.25 C 56.30881 79.154492 56.441925 78.998738 56.5625 78.875 C 56.683075 78.751266 56.78125 78.6875 56.78125 78.6875 C 57.121305 78.511632 56.908814 77.84291 56.53125 77.90625 C 56.51436 77.90515 56.48563 77.90515 56.46875 77.90625 z M 57.65625 83.1875 C 57.63878 83.19475 57.61003 83.20915 57.59375 83.21875 C 57.58495 83.22682 57.5705 83.2412 57.5625 83.25 C 56.605266 83.517468 55.941881 83.81526 55.5 84.1875 C 55.058122 84.55974 54.83263 85.058851 55 85.53125 C 55.167371 86.003649 55.609184 86.381783 56.15625 86.6875 C 56.703316 86.993217 57.385742 87.225353 58.21875 87.4375 C 61.550797 88.286086 66.959888 88.378858 71.78125 86.3125 C 72.089188 86.197926 72.089188 85.645823 71.78125 85.53125 C 70.27265 84.94461 69.15625 84.28125 69.15625 84.28125 C 69.073299 84.23194 68.97001 84.20176 68.875 84.21875 C 64.686409 85.011503 62.831464 85.058539 59.03125 84.625 C 58.269904 84.537469 57.84112 84.414756 57.65625 84.3125 C 57.58973 84.27569 57.57337 84.26184 57.5625 84.25 C 57.576657 84.230845 57.6097 84.1602 57.6875 84.09375 C 57.779311 84.015315 57.875 83.96875 57.875 83.96875 C 58.244865 83.837209 58.078 83.14734 57.6875 83.1875 C 57.67061 83.1864 57.67313 83.1864 57.65625 83.1875 z M 52.53125 86.71875 C 50.754257 86.773508 48.278334 87.547556 46.875 88.5 C 46.524171 88.738108 46.227032 88.986684 46.03125 89.28125 C 45.835445 89.575816 45.759454 89.962807 45.90625 90.3125 C 46.053046 90.662194 46.37616 90.89637 46.8125 91.09375 C 47.24884 91.291131 47.796546 91.469589 48.5625 91.59375 C 58.227518 93.161144 67.052758 92.781005 72.84375 91.75 C 75.739246 91.234494 77.879856 90.59923 79.0625 89.84375 C 79.653822 89.46601 80.07491 89.007112 80.0625 88.4375 C 80.056318 88.152694 79.923757 87.895833 79.71875 87.6875 C 79.513744 87.479163 79.247985 87.310396 78.90625 87.15625 C 78.548918 86.969469 78.14587 87.602251 78.46875 87.84375 C 78.46875 87.84375 78.66275 88.038603 78.65625 88.1875 C 78.653216 88.261953 78.617171 88.355661 78.40625 88.53125 C 78.195337 88.706839 77.777598 88.948801 77.09375 89.15625 C 74.474071 89.949845 68.806876 90.4648 63.25 90.53125 C 60.471558 90.564481 57.725758 90.501112 55.375 90.28125 C 53.024241 90.061388 51.046439 89.67019 49.9375 89.1875 C 49.793496 89.124825 49.7788 89.08871 49.75 89.0625 C 49.784391 89.028766 49.928387 88.904179 50.21875 88.75 C 50.869873 88.404258 51.911051 88.06839 52.375 87.96875 C 53.389868 87.748689 53.9375 87.8125 53.9375 87.8125 C 54.283751 87.82719 54.469212 87.264348 54.1875 87.0625 C 53.756068 86.758577 53.192603 86.69838 52.53125 86.71875 z M 81.59375 89.625 C 81.499542 89.653817 81.42611 89.72828 81.375 89.8125 C 81.275948 89.969243 80.225094 91.33412 74.53125 92.40625 C 67.189528 93.787873 58.073272 93.601563 52.71875 92.71875 L 52.65625 93.125 L 52.96875 93.40625 C 52.96875 93.40625 52.44467 93.46479 52.5 93.5 C 52.555363 93.535216 52.610207 93.57243 52.71875 93.625 C 52.935837 93.730071 53.269443 93.855881 53.78125 94 C 54.804864 94.28823 56.565435 94.628319 59.4375 94.8125 C 63.776051 95.090223 69.210997 95.010758 73.6875 94.34375 C 75.925756 94.01025 77.941613 93.544548 79.4375 92.875 C 80.933386 92.205453 82.011231 91.317932 82.15625 90.09375 C 82.193643 89.837497 81.910104 89.57381 81.65625 89.625 C 81.63937 89.6239 81.61062 89.6239 81.59375 89.625 z " style="fill:#aaaaaa"/>
</svg>