<?xml version="1.0" encoding="UTF-8" standalone="no"?>
<svg xmlns:dc="http://purl.org/dc/elements/1.1/"
     xmlns:cc="http://creativecommons.org/ns#"
     xmlns:rdf="http://www.w3.org/1999/02/22-rdf-syntax-ns#"
     xmlns:svg="http://www.w3.org/2000/svg"
     xmlns="http://www.w3.org/2000/svg"
     xmlns:xlink="http://www.w3.org/1999/xlink"
     width="128" height="128" version="1.1">
    <title>Aqsis File Icon</title>
    <desc>This is shape (source) for Clarity vector icon theme for gtk</desc>
    <metadata>
        <rdf:RDF>
            <cc:Work rdf:about="">
                <dc:title>Aqsis File Icon</dc:title>
                <dc:description>This is shape (source) for Clarity vector icon theme for gtk</dc:description>
                <dc:creator>
                    <cc:Agent>
                        <dc:title>Jakub Jankiewicz</dc:title>
                    </cc:Agent>
                </dc:creator>
                <dc:rights>
                    <cc:Agent>
                        <dc:title>Jakub Jankiewicz</dc:title>
                    </cc:Agent>
                </dc:rights>
                <dc:date>2010</dc:date>
                <dc:format>image/svg+xml</dc:format>
                <dc:type rdf:resource="http://purl.org/dc/dcmitype/StillImage" />
                <cc:license rdf:resource="http://creativecommons.org/licenses/by-sa/3.0/" />
             </cc:Work>
        </rdf:RDF>
    </metadata>
    <path d="M 28.5 11.25 C 25.598125 11.54359 23.375 14.015184 23.375 17 L 23.375 111 C 23.375 114.1838 25.90994 116.75 29.09375 116.75 L 98.90625 116.75 C 102.09005 116.75 104.625 114.1838 104.625 111 L 104.625 40.375 L 83.59375 40.375 C 79.28764 40.375 75.53125 37.233891 75.53125 33.0625 L 75.53125 11.25 L 29.09375 11.25 C 28.894762 11.25 28.693458 11.23043 28.5 11.25 z M 79.53125 11.25 L 79.53125 33.0625 C 79.53125 34.776622 81.16322 36.375 83.59375 36.375 L 104.625 36.375 L 79.53125 11.25 z M 62.78125 54.8125 C 63.195333 54.79151 63.580701 54.8125 64 54.8125 C 77.417616 54.8125 88.3125 65.64489 88.3125 79.0625 C 88.3125 90.509101 88.312549 80.654813 88.3125 81.4375 C 88.312012 89.53778 88.3125 91.347882 88.3125 100.25 C 88.3125 103.67309 85.803847 105.71875 83.125 105.71875 L 64 105.71875 C 55.338999 105.71875 47.772234 101.16758 43.46875 94.34375 L 61.21875 94.28125 C 61.21875 94.28125 58.921656 92.080461 58.34375 90 C 57.765844 87.91954 58.5625 85.53125 58.5625 85.53125 L 40.15625 86.09375 C 39.861459 84.581343 39.6875 83.035957 39.6875 81.4375 L 39.6875 79.0625 C 39.6875 73.098091 41.865207 67.634437 45.4375 63.40625 C 47.959269 63.249343 51.635332 63.1231 54.75 63.40625 C 59.919554 63.876208 65.004305 66.425965 68.125 68.96875 C 71.245693 71.511536 71.724737 74.873322 71.03125 78.6875 C 71.03125 78.6875 74.859593 81.45079 75.4375 83.53125 C 76.015407 85.611711 76.940931 85.374123 77.75 83.0625 C 78.559069 80.750878 79.464443 74.851415 76.34375 70.34375 C 73.223055 65.836085 64.204149 62.624561 58.65625 61.46875 C 55.393738 60.789061 51.237886 60.61903 48.3125 60.5625 C 52.257387 57.21933 57.279034 55.091405 62.78125 54.8125 z M 51.5625 72.78125 C 50.381576 72.78125 49.4375 73.756571 49.4375 74.9375 C 49.4375 76.11843 50.381576 77.0625 51.5625 77.0625 C 52.743425 77.0625 53.71875 76.11843 53.71875 74.9375 C 53.71875 73.756571 52.743425 72.78125 51.5625 72.78125 z M 58.21875 74.53125 C 56.112235 74.53125 54.375 76.23723 54.375 78.34375 C 54.375 80.450259 56.112235 82.15625 58.21875 82.15625 C 60.325265 82.15625 62.03125 80.450259 62.03125 78.34375 C 62.03125 76.23723 60.325265 74.53125 58.21875 74.53125 z M 66.65625 79.96875 C 62.698556 79.96875 59.5 83.167309 59.5 87.125 C 59.5 91.082691 62.698556 94.28125 66.65625 94.28125 C 70.613943 94.28125 73.8125 91.082691 73.8125 87.125 C 73.8125 83.167309 70.613943 79.96875 66.65625 79.96875 z " style="fill:#aaaaaa"/>
</svg>