<?xml version="1.0" encoding="UTF-8" standalone="no"?>
<svg xmlns:dc="http://purl.org/dc/elements/1.1/"
     xmlns:cc="http://creativecommons.org/ns#"
     xmlns:rdf="http://www.w3.org/1999/02/22-rdf-syntax-ns#"
     xmlns:svg="http://www.w3.org/2000/svg"
     xmlns="http://www.w3.org/2000/svg"
     xmlns:xlink="http://www.w3.org/1999/xlink"
     width="128" height="128" version="1.1">
    <title>File Storage Icon</title>
    <desc>This is shape (source) for Clarity vector icon theme for gtk</desc>
    <metadata>
        <rdf:RDF>
            <cc:Work rdf:about="">
                <dc:title>File Storage Icon</dc:title>
                <dc:description>This is shape (source) for Clarity vector icon theme for gtk</dc:description>
                <dc:creator>
                    <cc:Agent>
                        <dc:title>Jakub Jankiewicz</dc:title>
                    </cc:Agent>
                </dc:creator>
                <dc:rights>
                    <cc:Agent>
                        <dc:title>Jakub Jankiewicz</dc:title>
                    </cc:Agent>
                </dc:rights>
                <dc:date>2010</dc:date>
                <dc:format>image/svg+xml</dc:format>
                <dc:type rdf:resource="http://purl.org/dc/dcmitype/StillImage" />
                <cc:license rdf:resource="http://www.gnu.org/copyleft/gpl.html" />
             </cc:Work>
        </rdf:RDF>
    </metadata>
    <path d="M 28.5 11.25 C 25.598125 11.54359 23.375 14.015184 23.375 17 L 23.375 111 C 23.375 114.1838 25.90994 116.75 29.09375 116.75 L 98.90625 116.75 C 102.09005 116.75 104.625 114.1838 104.625 111 L 104.625 40.375 L 83.59375 40.375 C 79.28764 40.375 75.53125 37.233891 75.53125 33.0625 L 75.53125 11.25 L 29.09375 11.25 C 28.894762 11.25 28.693458 11.23043 28.5 11.25 z M 79.53125 11.25 L 79.53125 33.0625 C 79.53125 34.776622 81.16322 36.375 83.59375 36.375 L 104.625 36.375 L 79.53125 11.25 z M 40.15625 52.1875 L 87.8125 52.1875 C 89.943434 52.1875 91.65625 53.869064 91.65625 56 L 91.65625 101.875 C 91.65625 104.00594 89.943434 105.71875 87.8125 105.71875 L 46.4375 105.71875 C 45.70391 105.71875 45.255563 105.59931 44.6875 105.03125 L 37.21875 97.53125 C 36.666152 96.978652 36.34375 96.672357 36.34375 95.71875 L 36.34375 56 C 36.34375 53.869064 38.025315 52.1875 40.15625 52.1875 z M 44.125 58.03125 L 44.125 76.53125 L 83.875 76.53125 L 83.875 58.03125 L 44.125 58.03125 z M 51.28125 82.96875 C 49.150316 82.96875 47.4375 84.681563 47.4375 86.8125 L 47.4375 97.78125 C 47.4375 99.912179 49.150316 101.625 51.28125 101.625 L 74.34375 101.625 C 76.474685 101.625 78.21875 99.912179 78.21875 97.78125 L 78.21875 86.8125 C 78.21875 84.681563 76.474685 82.96875 74.34375 82.96875 L 51.28125 82.96875 z M 52.84375 84.5 L 60.96875 84.5 L 60.96875 97.34375 L 52.84375 97.34375 L 52.84375 84.5 z " style="fill:#aaaaaa"/>
</svg>