<?xml version="1.0" encoding="UTF-8" standalone="no"?>
<svg xmlns:dc="http://purl.org/dc/elements/1.1/"
     xmlns:cc="http://creativecommons.org/ns#"
     xmlns:rdf="http://www.w3.org/1999/02/22-rdf-syntax-ns#"
     xmlns:svg="http://www.w3.org/2000/svg"
     xmlns="http://www.w3.org/2000/svg"
     xmlns:xlink="http://www.w3.org/1999/xlink"
     width="128" height="128" version="1.1">
    <title>Search File Icon</title>
    <desc>This is shape (source) for Clarity vector icon theme for gtk</desc>
    <metadata>
        <rdf:RDF>
            <cc:Work rdf:about="">
                <dc:title>Search File Icon</dc:title>
                <dc:description>This is shape (source) for Clarity vector icon theme for gtk</dc:description>
                <dc:creator>
                    <cc:Agent>
                        <dc:title>Jakub Jankiewicz</dc:title>
                    </cc:Agent>
                </dc:creator>
                <dc:rights>
                    <cc:Agent>
                        <dc:title>Jakub Jankiewicz</dc:title>
                    </cc:Agent>
                </dc:rights>
                <dc:date>2010</dc:date>
                <dc:format>image/svg+xml</dc:format>
                <dc:type rdf:resource="http://purl.org/dc/dcmitype/StillImage" />
                <cc:license rdf:resource="http://www.gnu.org/copyleft/gpl.html" />
             </cc:Work>
        </rdf:RDF>
    </metadata>
    <path d="M 29.09375 11.21875 C 25.909946 11.21875 23.375 13.784945 23.375 16.96875 L 23.375 111.03125 C 23.375 114.21505 25.909946 116.78125 29.09375 116.78125 L 98.90625 116.78125 C 102.09005 116.78125 104.625 114.21505 104.625 111.03125 L 104.625 40.34375 L 83.59375 40.34375 C 79.28764 40.34375 75.53125 37.202641 75.53125 33.03125 L 75.53125 11.21875 L 29.09375 11.21875 z M 79.53125 11.21875 L 79.53125 33.03125 C 79.53125 34.745373 81.163219 36.34375 83.59375 36.34375 L 104.625 36.34375 L 79.53125 11.21875 z M 54.5625 49 C 65.140203 49 73.8125 57.641048 73.8125 68.21875 C 73.8125 72.168009 72.596639 75.87465 70.53125 78.9375 L 74.34375 82.75 C 75.975647 81.870772 78.056235 82.087485 79.4375 83.46875 L 91.40625 95.46875 C 93.094284 97.156784 93.094284 99.874478 91.40625 101.5625 L 88.34375 104.59375 C 86.655715 106.28179 83.938034 106.28179 82.25 104.59375 L 70.28125 92.625 C 68.899985 91.243735 68.652023 89.163148 69.53125 87.53125 L 65.78125 83.8125 C 62.61071 86.108407 58.750763 87.46875 54.5625 87.46875 C 43.984804 87.46875 35.34375 78.796452 35.34375 68.21875 C 35.34375 57.641048 43.984804 49 54.5625 49 z M 54.5625 56.53125 C 48.056067 56.53125 42.875 61.71231 42.875 68.21875 C 42.875 74.72519 48.056067 79.9375 54.5625 79.9375 C 61.06894 79.9375 66.28125 74.72519 66.28125 68.21875 C 66.28125 61.71231 61.06894 56.53125 54.5625 56.53125 z " style="fill:#aaaaaa"/>
</svg>