<?xml version="1.0" encoding="UTF-8" standalone="no"?>
<svg xmlns:dc="http://purl.org/dc/elements/1.1/"
     xmlns:cc="http://creativecommons.org/ns#"
     xmlns:rdf="http://www.w3.org/1999/02/22-rdf-syntax-ns#"
     xmlns:svg="http://www.w3.org/2000/svg"
     xmlns="http://www.w3.org/2000/svg"
     xmlns:xlink="http://www.w3.org/1999/xlink"
     width="128" height="128" version="1.1">
    <title>Blender File Icon</title>
    <desc>This is shape (source) for Clarity vector icon theme for gtk</desc>
    <metadata>
        <rdf:RDF>
            <cc:Work rdf:about="">
                <dc:title>Blender File Icon</dc:title>
                <dc:description>This is shape (source) for Clarity vector icon theme for gtk</dc:description>
                <dc:creator>
                    <cc:Agent>
                        <dc:title>Jakub Jankiewicz</dc:title>
                    </cc:Agent>
                </dc:creator>
                <dc:rights>
                    <cc:Agent>
                        <dc:title>Jakub Jankiewicz</dc:title>
                    </cc:Agent>
                </dc:rights>
                <dc:date>2010</dc:date>
                <dc:format>image/svg+xml</dc:format>
                <dc:type rdf:resource="http://purl.org/dc/dcmitype/StillImage" />
                <cc:license rdf:resource="http://www.gnu.org/copyleft/gpl.html" />
             </cc:Work>
        </rdf:RDF>
    </metadata>
    <path d="M 28.5 11.25 C 25.598125 11.54359 23.375 14.015184 23.375 17 L 23.375 111 C 23.375 114.1838 25.90994 116.75 29.09375 116.75 L 98.90625 116.75 C 102.09005 116.75 104.625 114.1838 104.625 111 L 104.625 40.375 L 83.59375 40.375 C 79.28764 40.375 75.53125 37.233891 75.53125 33.0625 L 75.53125 11.25 L 29.09375 11.25 C 28.894762 11.25 28.693458 11.23043 28.5 11.25 z M 79.53125 11.25 L 79.53125 33.0625 C 79.53125 34.776622 81.16322 36.375 83.59375 36.375 L 104.625 36.375 L 79.53125 11.25 z M 65.3125 53.78125 A 3.7235618 3.7235618 0 0 1 67.75 54.5625 L 81.96875 65.21875 C 89.375741 68.703568 94.53125 76.240814 94.53125 84.96875 C 94.53125 97.01243 84.762431 106.78125 72.71875 106.78125 C 61.815425 106.78125 52.769332 98.764143 51.15625 88.3125 L 40.40625 96.90625 A 4.257152 4.257152 0 1 1 35.0625 90.28125 L 52.78125 76.09375 C 53.085024 75.411239 53.442827 74.768381 53.8125 74.125 L 44.65625 74.125 A 4.2554993 4.2554993 0 1 1 44.65625 65.59375 L 62.6875 65.59375 C 64.233616 64.790852 65.889936 64.16577 67.625 63.75 L 63.28125 60.5 A 3.7235618 3.7235618 0 0 1 65.3125 53.78125 z M 73.15625 71.09375 C 66.005315 71.09375 60.21875 76.475882 60.21875 83.125 C 60.21875 89.77411 66.005315 95.1875 73.15625 95.1875 C 80.307183 95.1875 86.125 89.77411 86.125 83.125 C 86.125 76.475882 80.307183 71.09375 73.15625 71.09375 z M 73.15625 74.75 C 78.148411 74.75 82.21875 78.483162 82.21875 83.125 C 82.21875 87.766834 78.148411 91.5625 73.15625 91.5625 C 68.164086 91.5625 64.125 87.766834 64.125 83.125 C 64.125 78.483162 68.164086 74.75 73.15625 74.75 z " style="fill:#aaaaaa"/>
</svg>