<?xml version="1.0" encoding="UTF-8" standalone="no"?>
<svg xmlns:dc="http://purl.org/dc/elements/1.1/"
     xmlns:cc="http://creativecommons.org/ns#"
     xmlns:rdf="http://www.w3.org/1999/02/22-rdf-syntax-ns#"
     xmlns:svg="http://www.w3.org/2000/svg"
     xmlns="http://www.w3.org/2000/svg"
     xmlns:xlink="http://www.w3.org/1999/xlink"
     width="128" height="128" version="1.1">
    <title>Binary File Icon</title>
    <desc>This is shape (source) for Clarity vector icon theme for gtk</desc>
    <metadata>
        <rdf:RDF>
            <cc:Work rdf:about="">
                <dc:title>Binary File Icon</dc:title>
                <dc:description>This is shape (source) for Clarity vector icon theme for gtk</dc:description>
                <dc:creator>
                    <cc:Agent>
                        <dc:title>Jakub Jankiewicz</dc:title>
                    </cc:Agent>
                </dc:creator>
                <dc:rights>
                    <cc:Agent>
                        <dc:title>Jakub Jankiewicz</dc:title>
                    </cc:Agent>
                </dc:rights>
                <dc:date>2010</dc:date>
                <dc:format>image/svg+xml</dc:format>
                <dc:type rdf:resource="http://purl.org/dc/dcmitype/StillImage" />
                <cc:license rdf:resource="http://www.gnu.org/copyleft/gpl.html" />
             </cc:Work>
        </rdf:RDF>
    </metadata>
    <path d="m 29.09375,11.234375 c -3.183804,0 -5.71875,2.566196 -5.71875,5.75 l 0,94.031255 c 0,3.1838 2.534946,5.75 5.71875,5.75 l 69.8125,0 c 3.1838,0 5.71875,-2.5662 5.71875,-5.75 l 0,-70.656255 -21.03125,0 c -4.306108,0 -8.0625,-3.141109 -8.0625,-7.3125 l 0,-21.8125 -46.4375,0 z m 50.4375,0 0,21.8125 c 0,1.714122 1.631968,3.3125 4.0625,3.3125 l 21.03125,0 -25.09375,-25.125 z m -32.25,39.6875 c 2.081981,2.2e-5 3.702035,0.733031 4.875,2.21875 1.397754,1.759447 2.093735,4.705254 2.09375,8.78125 -1.5e-5,4.066243 -0.686221,6.971025 -2.09375,8.75 -1.163191,1.466191 -2.793019,2.187499 -4.875,2.1875 -2.091772,-10e-7 -3.782031,-0.771964 -5.0625,-2.375 -1.280476,-1.612806 -1.937502,-4.50011 -1.9375,-8.625 -2e-6,-4.046673 0.717454,-6.971004 2.125,-8.75 1.163173,-1.466171 2.793003,-2.187478 4.875,-2.1875 z m 16.9375,0 3.34375,0 0,21.59375 -4.125,0 0,-15.53125 c -1.505296,1.407558 -3.269611,2.450565 -5.3125,3.125 l 0,-3.75 c 1.075204,-0.351869 2.239071,-1.022522 3.5,-2 1.260917,-0.987216 2.124561,-2.127682 2.59375,-3.4375 z m 16.5,0 c 2.081981,2.2e-5 3.702035,0.733031 4.875,2.21875 1.397754,1.759447 2.093735,4.705254 2.09375,8.78125 -1.5e-5,4.066243 -0.717471,6.971025 -2.125,8.75 -1.16319,1.466191 -2.761769,2.187499 -4.84375,2.1875 -2.091772,-10e-7 -3.782031,-0.771964 -5.0625,-2.375 -1.280475,-1.612806 -1.937501,-4.50011 -1.9375,-8.625 -10e-7,-4.046673 0.717455,-6.971004 2.125,-8.75 1.163174,-1.466171 2.793003,-2.187478 4.875,-2.1875 z m -33.4375,3.40625 c -0.498513,1.8e-5 -0.952773,0.177456 -1.34375,0.5 -0.390991,0.312805 -0.691215,0.86645 -0.90625,1.6875 -0.28347,1.065447 -0.437505,2.884415 -0.4375,5.40625 -5e-6,2.521857 0.152105,4.239369 0.40625,5.1875 0.254134,0.938366 0.556284,1.562217 0.9375,1.875 0.390977,0.312791 0.845237,0.468753 1.34375,0.46875 0.498496,3e-6 0.921507,-0.155959 1.3125,-0.46875 0.390974,-0.322558 0.722448,-0.897679 0.9375,-1.71875 0.283452,-1.055652 0.406239,-2.821893 0.40625,-5.34375 -1.1e-5,-2.521835 -0.120871,-4.280373 -0.375,-5.21875 -0.25415,-0.94812 -0.577775,-1.562195 -0.96875,-1.875 -0.381219,-0.322544 -0.814004,-0.499982 -1.3125,-0.5 z m 33.4375,0 c -0.498512,1.8e-5 -0.952773,0.177456 -1.34375,0.5 -0.390991,0.312805 -0.691215,0.86645 -0.90625,1.6875 -0.283469,1.065447 -0.437506,2.884415 -0.4375,5.40625 -6e-6,2.521857 0.120855,4.239369 0.375,5.1875 0.254134,0.938366 0.587533,1.562217 0.96875,1.875 0.390977,0.312791 0.845238,0.468753 1.34375,0.46875 0.498497,3e-6 0.921507,-0.155959 1.3125,-0.46875 0.390975,-0.322558 0.691198,-0.897679 0.90625,-1.71875 0.283453,-1.055652 0.437489,-2.821893 0.4375,-5.34375 -1.1e-5,-2.521835 -0.120871,-4.280373 -0.375,-5.21875 -0.254151,-0.94812 -0.577775,-1.562195 -0.96875,-1.875 -0.381218,-0.322544 -0.814003,-0.499982 -1.3125,-0.5 z m -33.21875,26.625 3.34375,0 0,21.593755 -4.125,0 0,-15.531255 c -1.505295,1.407557 -3.269612,2.450565 -5.3125,3.125 l 0,-3.75 c 1.075203,-0.35187 2.239071,-1.022522 3.5,-2 1.260917,-0.987217 2.124561,-2.127683 2.59375,-3.4375 z m 16.5,0 c 2.081981,2.1e-5 3.702035,0.733031 4.875,2.21875 1.397754,1.759447 2.093735,4.674003 2.09375,8.75 -1.5e-5,4.066243 -0.717471,7.002273 -2.125,8.781255 -1.16319,1.46618 -2.761769,2.1875 -4.84375,2.1875 -2.091772,0 -3.782031,-0.80322 -5.0625,-2.40625 C 57.657024,98.871569 56.999999,96.015516 57,91.890625 c -10e-7,-4.046673 0.717455,-6.971004 2.125,-8.75 1.163174,-1.46617 2.793002,-2.187479 4.875,-2.1875 z m 16.9375,0 3.34375,0 0,21.593755 -4.125,0 0,-15.531255 c -1.505296,1.407557 -3.269611,2.450565 -5.3125,3.125 l 0,-3.75 c 1.075203,-0.35187 2.239071,-1.022522 3.5,-2 1.260917,-0.987217 2.124561,-2.127683 2.59375,-3.4375 z M 64,84.359375 c -0.498513,1.8e-5 -0.952773,0.177456 -1.34375,0.5 -0.390991,0.312805 -0.691214,0.866449 -0.90625,1.6875 -0.283469,1.065447 -0.437506,2.853164 -0.4375,5.375 -6e-6,2.521857 0.120854,4.27062 0.375,5.21875 0.254133,0.938367 0.587534,1.562216 0.96875,1.875 0.390977,0.31279 0.845237,0.46875 1.34375,0.46875 0.498496,0 0.921506,-0.15596 1.3125,-0.46875 0.390974,-0.322558 0.691199,-0.897678 0.90625,-1.71875 0.283453,-1.055651 0.437489,-2.853143 0.4375,-5.375 -1.1e-5,-2.521836 -0.120871,-4.249122 -0.375,-5.1875 -0.25415,-0.94812 -0.577776,-1.562195 -0.96875,-1.875 -0.381219,-0.322544 -0.814004,-0.499982 -1.3125,-0.5 z" style="fill:#aaaaaa"/>
</svg>