<?xml version="1.0" encoding="UTF-8" standalone="no"?>
<svg xmlns:dc="http://purl.org/dc/elements/1.1/"
     xmlns:cc="http://creativecommons.org/ns#"
     xmlns:rdf="http://www.w3.org/1999/02/22-rdf-syntax-ns#"
     xmlns:svg="http://www.w3.org/2000/svg"
     xmlns="http://www.w3.org/2000/svg"
     xmlns:xlink="http://www.w3.org/1999/xlink"
     width="128" height="128" version="1.1">
    <title>Emacs File Icon</title>
    <desc>This is shape (source) for Clarity vector icon theme for gtk</desc>
    <metadata>
        <rdf:RDF>
            <cc:Work rdf:about="">
                <dc:title>Emacs File Icon</dc:title>
                <dc:description>This is shape (source) for Clarity vector icon theme for gtk</dc:description>
                <dc:creator>
                    <cc:Agent>
                        <dc:title>Jakub Jankiewicz</dc:title>
                    </cc:Agent>
                </dc:creator>
                <dc:rights>
                    <cc:Agent>
                        <dc:title>Jakub Jankiewicz</dc:title>
                    </cc:Agent>
                </dc:rights>
                <dc:date>2010</dc:date>
                <dc:format>image/svg+xml</dc:format>
                <dc:type rdf:resource="http://purl.org/dc/dcmitype/StillImage" />
                <cc:license rdf:resource="http://www.gnu.org/copyleft/gpl.html" />
             </cc:Work>
        </rdf:RDF>
    </metadata>
    <path d="m 29.09375,11.234373 c -3.1838,0 -5.71875,2.566196 -5.71875,5.75 l 0,94.031257 c 0,3.1838 2.53495,5.75 5.71875,5.75 l 69.8125,0 c 3.1838,0 5.71875,-2.5662 5.71875,-5.75 l 0,-70.656257 -21.03125,0 c -4.306108,0 -8.0625,-3.141109 -8.0625,-7.3125 l 0,-21.8125 -46.4375,0 z m 50.4375,0 0,21.8125 c 0,1.714122 1.631968,3.3125 4.0625,3.3125 l 21.03125,0 -25.09375,-25.125 z M 64,54.890623 c 12.8204,0 23.21875,10.517375 23.21875,23.46875 0,12.951374 -10.39835,23.437507 -23.21875,23.437507 -12.820399,0 -23.21875,-10.486133 -23.21875,-23.437507 0,-12.951375 10.398351,-23.46875 23.21875,-23.46875 z m 8.4375,5.75 c -3.020009,0.0323 -8,0.375 -8,0.375 7.598005,1.566412 8.853671,1.960392 9.25,2.875 0.234061,0.540142 -0.40633,1.073674 -2.5,0.96875 -2.279353,-0.114234 -6.9375,-0.65625 -6.9375,-0.65625 -4.447172,-0.68418 -7.524644,-1.358215 -8.875,0.40625 -0.882205,1.152748 0.103896,2.578031 0.5,3.40625 1.764467,3.078813 4.813805,5.167599 6.75,6.65625 0.728512,0.560118 2.96875,1.8125 2.96875,1.8125 -6.913822,-1.8905 -12.444578,-0.805236 -15.9375,1.03125 -4.015062,2.376626 -3.339797,6.375531 3.03125,10.125 3.762993,2.214583 5.65131,3.274833 11.8125,4.03125 3.601305,0.57423 4.15237,0.793996 4.125,1.09375 -0.03854,0.422028 -4.276477,0.60742 -5.4375,0.6875 -2.953659,0.203695 -10.58681,0.21875 -10.625,0.21875 0,0 2.064503,0.62607 4.8125,0.96875 1.11287,0.138778 5.347272,0.606489 8.59375,0.59375 0,0 3.942451,0.02878 6.125,-0.28125 2.283685,-0.324405 3.592456,-0.736296 4.3125,-1.5625 0.01876,-0.196995 0.325185,-0.849501 -0.5625,-1.46875 -2.269463,-1.583178 -5.176238,-2.021625 -10.875,-3.375 -6.301733,-1.584371 -8.215415,-3.08952 -9.15625,-4.1875 -0.891978,-1.100414 0.203397,-3.410139 5.28125,-4.53125 2.570969,-0.625643 12.125,-0.75 12.125,-0.75 -2.747131,-2.181062 -7.914545,-6.075839 -8.96875,-6.90625 -0.924584,-0.72831 -2.402341,-1.844978 -2.5625,-2.84375 -0.216057,-0.972258 1.314786,-1.445981 2.125,-1.5 2.610688,-0.180047 6.174914,0.151083 9.34375,0.78125 1.592835,0.316749 1.875,0.25 1.875,0.25 2.268598,0.108028 4.05877,-1.059839 3.96875,-3.5625 -0.018,-2.53867 -2.565805,-4.56733 -5.375,-4.65625 -0.33068,-0.01046 -0.756069,-0.0046 -1.1875,0 z" style="fill:#aaaaaa"/>
</svg>