<?xml version="1.0" encoding="UTF-8" standalone="no"?>
<svg xmlns:dc="http://purl.org/dc/elements/1.1/"
     xmlns:cc="http://creativecommons.org/ns#"
     xmlns:rdf="http://www.w3.org/1999/02/22-rdf-syntax-ns#"
     xmlns:svg="http://www.w3.org/2000/svg"
     xmlns="http://www.w3.org/2000/svg"
     xmlns:xlink="http://www.w3.org/1999/xlink"
     width="128" height="128" version="1.1">
    <title>Bitmap Font Icon</title>
    <desc>This is shape (source) for Clarity vector icon theme for gtk</desc>
    <metadata>
        <rdf:RDF>
            <cc:Work rdf:about="">
                <dc:title>Bitmap Font Icon</dc:title>
                <dc:description>This is shape (source) for Clarity vector icon theme for gtk</dc:description>
                <dc:creator>
                    <cc:Agent>
                        <dc:title>Jakub Jankiewicz</dc:title>
                    </cc:Agent>
                </dc:creator>
                <dc:rights>
                    <cc:Agent>
                        <dc:title>Jakub Jankiewicz</dc:title>
                    </cc:Agent>
                </dc:rights>
                <dc:date>2010</dc:date>
                <dc:format>image/svg+xml</dc:format>
                <dc:type rdf:resource="http://purl.org/dc/dcmitype/StillImage" />
                <cc:license rdf:resource="http://creativecommons.org/licenses/by-sa/3.0/" />
             </cc:Work>
        </rdf:RDF>
    </metadata>
    <path d="M 28.5 11.25 C 25.598125 11.54359 23.375 14.015184 23.375 17 L 23.375 111 C 23.375 114.1838 25.90994 116.75 29.09375 116.75 L 98.90625 116.75 C 102.09005 116.75 104.625 114.1838 104.625 111 L 104.625 40.375 L 83.59375 40.375 C 79.28764 40.375 75.53125 37.233891 75.53125 33.0625 L 75.53125 11.25 L 29.09375 11.25 C 28.894762 11.25 28.693458 11.23043 28.5 11.25 z M 79.53125 11.25 L 79.53125 33.0625 C 79.53125 34.776622 81.16322 36.375 83.59375 36.375 L 104.625 36.375 L 79.53125 11.25 z M 52.5 51.53125 L 57.5 51.53125 L 57.5 56.53125 L 52.5 56.53125 L 52.5 51.53125 z M 58.5 51.53125 L 63.5 51.53125 L 63.5 56.53125 L 58.5 56.53125 L 58.5 51.53125 z M 64.5 51.53125 L 69.5 51.53125 L 69.5 56.53125 L 64.5 56.53125 L 64.5 51.53125 z M 70.5 51.53125 L 75.5 51.53125 L 75.5 56.53125 L 70.5 56.53125 L 70.5 51.53125 z M 46.5 57.53125 L 51.5 57.53125 L 51.5 62.53125 L 46.5 62.53125 L 46.5 57.53125 z M 70.5 57.53125 L 75.5 57.53125 L 75.5 62.53125 L 70.5 62.53125 L 70.5 57.53125 z M 76.5 57.53125 L 81.5 57.53125 L 81.5 62.53125 L 76.5 62.53125 L 76.5 57.53125 z M 58.5 63.53125 L 63.5 63.53125 L 63.5 68.53125 L 58.5 68.53125 L 58.5 63.53125 z M 64.5 63.53125 L 69.5 63.53125 L 69.5 68.53125 L 64.5 68.53125 L 64.5 63.53125 z M 70.5 63.53125 L 75.5 63.53125 L 75.5 68.53125 L 70.5 68.53125 L 70.5 63.53125 z M 76.5 63.53125 L 81.5 63.53125 L 81.5 68.53125 L 76.5 68.53125 L 76.5 63.53125 z M 46.5 69.53125 L 51.5 69.53125 L 51.5 74.53125 L 46.5 74.53125 L 46.5 69.53125 z M 52.5 69.53125 L 57.5 69.53125 L 57.5 74.53125 L 52.5 74.53125 L 52.5 69.53125 z M 58.5 69.53125 L 63.5 69.53125 L 63.5 74.53125 L 58.5 74.53125 L 58.5 69.53125 z M 70.5 69.53125 L 75.5 69.53125 L 75.5 74.53125 L 70.5 74.53125 L 70.5 69.53125 z M 76.5 69.53125 L 81.5 69.53125 L 81.5 74.53125 L 76.5 74.53125 L 76.5 69.53125 z M 46.5 75.53125 L 51.5 75.53125 L 51.5 80.53125 L 46.5 80.53125 L 46.5 75.53125 z M 70.5 75.53125 L 75.5 75.53125 L 75.5 80.53125 L 70.5 80.53125 L 70.5 75.53125 z M 76.5 75.53125 L 81.5 75.53125 L 81.5 80.53125 L 76.5 80.53125 L 76.5 75.53125 z M 46.5 81.53125 L 51.5 81.53125 L 51.5 86.53125 L 46.5 86.53125 L 46.5 81.53125 z M 64.5 81.53125 L 69.5 81.53125 L 69.5 86.53125 L 64.5 86.53125 L 64.5 81.53125 z M 70.5 81.53125 L 75.5 81.53125 L 75.5 86.53125 L 70.5 86.53125 L 70.5 81.53125 z M 76.5 81.53125 L 81.5 81.53125 L 81.5 86.53125 L 76.5 86.53125 L 76.5 81.53125 z M 52.5 87.53125 L 57.5 87.53125 L 57.5 92.53125 L 52.5 92.53125 L 52.5 87.53125 z M 58.5 87.53125 L 63.5 87.53125 L 63.5 92.53125 L 58.5 92.53125 L 58.5 87.53125 z M 76.5 87.53125 L 81.5 87.53125 L 81.5 92.53125 L 76.5 92.53125 L 76.5 87.53125 z " style="fill:#aaaaaa"/>
</svg>