<?xml version="1.0" encoding="UTF-8" standalone="no"?>
<svg xmlns:dc="http://purl.org/dc/elements/1.1/"
     xmlns:cc="http://creativecommons.org/ns#"
     xmlns:rdf="http://www.w3.org/1999/02/22-rdf-syntax-ns#"
     xmlns:svg="http://www.w3.org/2000/svg"
     xmlns="http://www.w3.org/2000/svg"
     xmlns:xlink="http://www.w3.org/1999/xlink"
     width="128" height="128" version="1.1">
    <title>Audacity Project Icon</title>
    <desc>This is shape (source) for Clarity vector icon theme for gtk</desc>
    <metadata>
        <rdf:RDF>
            <cc:Work rdf:about="">
                <dc:title>Audacity Project Icon</dc:title>
                <dc:description>This is shape (source) for Clarity vector icon theme for gtk</dc:description>
                <dc:creator>
                    <cc:Agent>
                        <dc:title>Jakub Jankiewicz</dc:title>
                    </cc:Agent>
                </dc:creator>
                <dc:rights>
                    <cc:Agent>
                        <dc:title>Jakub Jankiewicz</dc:title>
                    </cc:Agent>
                </dc:rights>
                <dc:date>2010</dc:date>
                <dc:format>image/svg+xml</dc:format>
                <dc:type rdf:resource="http://purl.org/dc/dcmitype/StillImage" />
                <cc:license rdf:resource="http://www.gnu.org/copyleft/gpl.html" />
             </cc:Work>
        </rdf:RDF>
    </metadata>
    <path d="M 29.09375 11.21875 C 25.909946 11.21875 23.375 13.784946 23.375 16.96875 L 23.375 111.03125 C 23.375 114.21505 25.909946 116.78125 29.09375 116.78125 L 98.90625 116.78125 C 102.09005 116.78125 104.625 114.21505 104.625 111.03125 L 104.625 40.34375 L 83.59375 40.34375 C 79.287642 40.34375 75.53125 37.202641 75.53125 33.03125 L 75.53125 11.21875 L 29.09375 11.21875 z M 79.53125 11.21875 L 79.53125 33.03125 C 79.53125 34.745372 81.163218 36.34375 83.59375 36.34375 L 104.625 36.34375 L 79.53125 11.21875 z M 63.96875 40.75 C 63.98118 40.75 63.98757 40.749984 64 40.75 C 64.01242 40.749984 64.01882 40.75 64.03125 40.75 C 79.362061 40.75 91.418527 53.23229 91.8125 68.5 L 92.03125 76.875 L 92.03125 76.9375 L 92.03125 87.375 C 92.03125 89.932164 90.057306 92.086463 87.5625 92.34375 C 86.878682 99.267055 83.396434 104.56825 79.15625 104.78125 L 79.15625 74.9375 C 79.218938 74.9406 79.2814 74.9321 79.34375 74.9375 C 83.751907 75.317797 87.301544 81.226576 87.65625 88.65625 C 88.14034 88.441919 88.46875 87.960198 88.46875 87.375 L 88.46875 76.96875 L 88.46875 76.9375 L 88.25 68.59375 C 87.902985 55.146058 77.425397 44.34375 64.03125 44.34375 C 64.01877 44.34375 64.01248 44.343732 64 44.34375 C 63.98752 44.343732 63.98124 44.34375 63.96875 44.34375 C 50.574602 44.34375 40.097017 55.146058 39.75 68.59375 L 39.53125 76.9375 L 39.53125 76.96875 L 39.53125 87.375 C 39.53125 87.960198 39.859657 88.441919 40.34375 88.65625 C 40.698455 81.226576 44.248094 75.317797 48.65625 74.9375 C 48.718604 74.9321 48.78107 74.9406 48.84375 74.9375 L 48.84375 104.78125 C 44.603564 104.56825 41.121314 99.267055 40.4375 92.34375 C 37.942695 92.086463 35.96875 89.932164 35.96875 87.375 L 35.96875 76.9375 L 35.96875 76.875 L 36.1875 68.5 C 36.581482 53.23229 48.637935 40.75 63.96875 40.75 z M 50.1875 74.90625 L 52.875 74.90625 L 52.875 104.8125 L 50.1875 104.8125 L 50.1875 74.90625 z M 75.125 74.90625 L 77.8125 74.90625 L 77.8125 104.8125 L 75.125 104.8125 L 75.125 74.90625 z M 66.53125 81.1875 C 66.884276 81.161936 67.282282 81.175141 67.71875 81.28125 C 68.579048 81.785161 68.99901 82.296689 69.09375 82.625 C 69.422784 83.176142 69.665586 83.695394 69.84375 84.15625 L 71.5625 88.4375 C 71.824187 88.950458 71.92974 89.327596 72 89.5 C 72.088879 89.48645 72.233095 89.45431 72.4375 89.5 C 73.763797 89.507942 74.84375 90.324092 74.84375 91.3125 C 74.84375 92.300908 73.763797 93.08585 72.4375 93.09375 C 71.861444 93.207044 70.882627 93.056733 69.71875 92.28125 C 68.755214 91.27319 68.362703 90.314804 68.21875 89.75 L 66.9375 86.5625 L 64.9375 93.34375 C 64.778636 94.004609 64.518136 94.837803 63.9375 95.71875 C 63.745496 96.307775 62.916963 96.795954 61.5 96.90625 C 60.429327 96.596912 59.81544 96.144027 59.65625 95.75 C 59.308592 95.294127 59.082508 94.869701 58.90625 94.5 C 58.601067 93.969527 58.417512 93.5687 58.21875 93.46875 C 58.159356 93.342825 57.804736 93.31877 57.40625 93.28125 L 55.5625 93.28125 C 54.226912 93.28125 53.15625 92.493374 53.15625 91.5 C 53.15625 90.506625 54.226912 89.6875 55.5625 89.6875 L 57.40625 89.6875 C 58.377417 89.649981 59.468094 89.946112 60.46875 90.6875 C 60.951172 91.118382 61.343705 91.570653 61.625 92 L 64.125 83.53125 C 64.260025 83.092532 64.546713 82.494785 65.15625 81.8125 C 65.46833 81.448159 65.942873 81.23011 66.53125 81.1875 z M 61.0625 93.5625 C 60.99042 93.58773 60.9427 93.61995 61 93.65625 C 61.01801 93.63643 61.04577 93.58709 61.0625 93.5625 z " style="fill:#aaaaaa"/>
</svg>