<?xml version="1.0" encoding="UTF-8" standalone="no"?>
<svg xmlns:dc="http://purl.org/dc/elements/1.1/"
     xmlns:cc="http://creativecommons.org/ns#"
     xmlns:rdf="http://www.w3.org/1999/02/22-rdf-syntax-ns#"
     xmlns:svg="http://www.w3.org/2000/svg"
     xmlns="http://www.w3.org/2000/svg"
     xmlns:xlink="http://www.w3.org/1999/xlink"
     width="128" height="128" version="1.1">
    <title>ASM File Icon</title>
    <desc>This is shape (source) for Clarity vector icon theme for gtk</desc>
    <metadata>
        <rdf:RDF>
            <cc:Work rdf:about="">
                <dc:title>ASM File Icon</dc:title>
                <dc:description>This is shape (source) for Clarity vector icon theme for gtk</dc:description>
                <dc:creator>
                    <cc:Agent>
                        <dc:title>Jakub Jankiewicz</dc:title>
                    </cc:Agent>
                </dc:creator>
                <dc:rights>
                    <cc:Agent>
                        <dc:title>Jakub Jankiewicz</dc:title>
                    </cc:Agent>
                </dc:rights>
                <dc:date>2010</dc:date>
                <dc:format>image/svg+xml</dc:format>
                <dc:type rdf:resource="http://purl.org/dc/dcmitype/StillImage" />
                <cc:license rdf:resource="http://www.gnu.org/copyleft/gpl.html" />
             </cc:Work>
        </rdf:RDF>
    </metadata>
    <path d="m 29.09375,11.234375 c -3.183804,0 -5.71875,2.566196 -5.71875,5.75 l 0,94.031255 c 0,3.1838 2.534946,5.75 5.71875,5.75 l 69.8125,0 c 3.1838,0 5.71875,-2.5662 5.71875,-5.75 l 0,-70.656255 -21.03125,0 c -4.306108,0 -8.0625,-3.141109 -8.0625,-7.3125 l 0,-21.8125 -46.4375,0 z m 50.4375,0 0,21.8125 c 0,1.714122 1.631968,3.3125 4.0625,3.3125 l 21.03125,0 -25.09375,-25.125 z m -18.5625,51.875 c 1.74123,2.6e-5 3.247748,0.281059 4.46875,0.84375 1.231594,0.562743 2.044645,1.296272 2.4375,2.15625 0.403442,0.849407 0.593734,2.29463 0.59375,4.34375 l 0,1 -6.21875,0 0,-1.90625 c -1e-5,-0.891833 -0.09075,-1.443281 -0.25,-1.6875 -0.159268,-0.244176 -0.409653,-0.374978 -0.78125,-0.375 -0.403466,2.2e-5 -0.725161,0.170885 -0.9375,0.5 -0.201736,0.329157 -0.312508,0.83113 -0.3125,1.5 -8e-6,0.860022 0.141412,1.502209 0.375,1.9375 0.222956,0.435328 0.834495,0.946713 1.875,1.5625 2.983452,1.773106 4.881172,3.238961 5.65625,4.375 0.775048,1.136063 1.156234,2.973089 1.15625,5.5 -1.6e-5,1.8368 -0.220956,3.191884 -0.65625,4.0625 -0.424708,0.870622 -1.268406,1.592931 -2.5,2.1875 -1.23162,0.583952 -2.646194,0.874999 -4.28125,0.875 -1.794332,-10e-7 -3.319678,-0.351742 -4.59375,-1.03125 -1.263463,-0.679507 -2.107161,-1.542635 -2.5,-2.59375 -0.392842,-1.05111 -0.593751,-2.536394 -0.59375,-4.46875 l 0,-1.6875 6.21875,0 0,3.15625 c -7e-6,0.96618 0.111364,1.567704 0.28125,1.84375 0.180486,0.276054 0.491565,0.406254 0.9375,0.40625 0.445918,4e-6 0.756394,-0.149624 0.96875,-0.5 0.222953,-0.350366 0.34374,-0.87237 0.34375,-1.5625 -1e-5,-1.518268 -0.210934,-2.53283 -0.625,-3 -0.424701,-0.467152 -1.45809,-1.250157 -3.125,-2.34375 -1.666922,-1.104188 -2.77102,-1.875973 -3.3125,-2.375 -0.541485,-0.499 -1.014013,-1.212498 -1.375,-2.09375 -0.350372,-0.88122 -0.500001,-2.00535 -0.5,-3.375 -10e-7,-1.974799 0.219736,-3.399389 0.71875,-4.3125 0.509629,-0.913065 1.343312,-1.646594 2.46875,-2.15625 1.12543,-0.520222 2.469897,-0.781224 4.0625,-0.78125 z m -21.40625,0.5625 9.71875,0 3.84375,25.78125 -6.875,0 -0.34375,-4.65625 -2.40625,0 -0.375,4.65625 -6.96875,0 3.40625,-25.78125 z m 31.59375,0 8.65625,0 c 0.254805,1.550151 0.525822,3.366545 0.8125,5.46875 l 0.9375,6.5625 1.53125,-12.03125 8.75,0 0,25.78125 -5.875,0 0,-17.40625 -2.34375,17.40625 -4.15625,0 L 77,72.421875 l 0,17.03125 -5.84375,0 0,-25.78125 z m -26.4375,5.75 c -0.679515,4.926447 -1.11138,8.529789 -1.28125,10.8125 l 2.28125,0 c -0.339763,-2.919749 -0.660254,-6.523091 -1,-10.8125 z" style="fill:#aaaaaa"/>
</svg>