<?xml version="1.0" encoding="UTF-8" standalone="no"?>
<svg xmlns:dc="http://purl.org/dc/elements/1.1/"
     xmlns:cc="http://creativecommons.org/ns#"
     xmlns:rdf="http://www.w3.org/1999/02/22-rdf-syntax-ns#"
     xmlns:svg="http://www.w3.org/2000/svg"
     xmlns="http://www.w3.org/2000/svg"
     xmlns:xlink="http://www.w3.org/1999/xlink"
     width="128" height="128" version="1.1">
    <title>PDF File Icon</title>
    <desc>This is shape (source) for Clarity vector icon theme for gtk</desc>
    <metadata>
        <rdf:RDF>
            <cc:Work rdf:about="">
                <dc:title>PDF File Icon</dc:title>
                <dc:description>This is shape (source) for Clarity vector icon theme for gtk</dc:description>
                <dc:creator>
                    <cc:Agent>
                        <dc:title>Jakub Jankiewicz</dc:title>
                    </cc:Agent>
                </dc:creator>
                <dc:rights>
                    <cc:Agent>
                        <dc:title>Jakub Jankiewicz</dc:title>
                    </cc:Agent>
                </dc:rights>
                <dc:date>2010</dc:date>
                <dc:format>image/svg+xml</dc:format>
                <dc:type rdf:resource="http://purl.org/dc/dcmitype/StillImage" />
                <cc:license rdf:resource="http://www.gnu.org/copyleft/gpl.html" />
             </cc:Work>
        </rdf:RDF>
    </metadata>
    <path d="m 29.09375,11.234375 c -3.183804,0 -5.71875,2.566196 -5.71875,5.75 l 0,94.031255 c 0,3.1838 2.534946,5.75 5.71875,5.75 l 69.8125,0 c 3.1838,0 5.71875,-2.5662 5.71875,-5.75 l 0,-70.656255 -21.03125,0 c -4.306108,0 -8.0625,-3.141109 -8.0625,-7.3125 l 0,-21.8125 -46.4375,0 z m 50.4375,0 0,21.8125 c 0,1.714122 1.631968,3.3125 4.0625,3.3125 l 21.03125,0 -25.09375,-25.125 z M 63.125,42.171875 c 0.38824,0.003 0.736398,0.0853 1.0625,0.21875 1.304409,0.533783 2.034771,1.641665 2.625,2.96875 0.59023,1.327086 0.99039,2.975367 1.0625,4.90625 0.143069,3.83078 -0.365131,6.951466 -1.15625,10.21875 1.261304,3.080635 2.67569,6.201579 4.09375,8.53125 1.902802,3.12603 4.541999,6.72283 7.09375,9.6875 0.473376,0.549977 0.903359,0.908437 1.375,1.40625 1.72727,-0.31957 3.323629,-0.51431 4.6875,-0.4375 2.602064,0.146539 4.387747,0.598604 5.65625,1.59375 0.634251,0.497572 1.117648,1.198459 1.28125,2 0.163602,0.801542 -0.03341,1.602511 -0.375,2.21875 -0.683176,1.232477 -1.838645,1.967804 -3.1875,2.375 -1.348854,0.407195 -2.950422,0.424903 -4.5,-0.21875 -1.559903,-0.647941 -3.135571,-1.998782 -4.75,-3.625 -3.004722,0.724606 -6.545733,1.830396 -10.09375,3.21875 -3.048166,1.192761 -7.127868,2.943931 -10.90625,4.625 -1.947612,4.647273 -4.448463,8.590065 -8.25,11.281255 -3.402916,2.40899 -6.149189,3.0803 -8.28125,2.6875 -1.06603,-0.1964 -1.938417,-0.67585 -2.5625,-1.3125 -0.624084,-0.63667 -1.06646,-1.401 -0.96875,-2.4375 0.193938,-2.05717 1.578837,-3.382833 3.1875,-4.843755 1.608663,-1.460921 3.606027,-2.852764 5.5625,-3.90625 1.720222,-0.926274 5.004513,-2.451124 8.4375,-4 1.703489,-4.322683 3.111194,-9.382514 4.71875,-14.875 1.73203,-5.917768 3.185506,-9.966438 4.15625,-13.59375 -0.265421,-0.672285 -0.600654,-1.371839 -0.84375,-2.03125 -1.515695,-4.111411 -2.57574,-7.5844 -2.65625,-9.875 -0.07584,-2.157934 0.144939,-3.745174 0.8125,-5 0.333781,-0.627412 0.841605,-1.207987 1.5625,-1.53125 0.360448,-0.161634 0.76801,-0.253 1.15625,-0.25 z m 0.1875,4.09375 c -0.131789,0.548224 -0.26199,1.30099 -0.21875,2.53125 0.02366,0.673267 0.512597,2.566608 1.15625,4.75 0.06068,-1.032233 0.16774,-2.011657 0.125,-3.15625 -0.05743,-1.53782 -0.377717,-2.78795 -0.75,-3.625 -0.163069,-0.366649 -0.162993,-0.315008 -0.3125,-0.5 z m 1.90625,19.5625 c -0.890832,2.88544 -1.727671,5.566937 -2.90625,9.59375 -1.227106,4.192611 -2.388234,8.18831 -3.65625,11.96875 2.819919,-1.22072 5.768284,-2.508513 8.0625,-3.40625 2.981166,-1.166543 5.885792,-2.165062 8.625,-2.9375 -0.02915,-0.03379 -0.06453,-0.02856 -0.09375,-0.0625 -2.690343,-3.12569 -5.414136,-6.863403 -7.4375,-10.1875 -0.897064,-1.473748 -1.759247,-3.20245 -2.59375,-4.96875 z m 18.5625,17.3125 c -0.308355,-0.01736 -0.796465,0.06786 -1.1875,0.09375 0.585932,0.45937 1.271446,1.053624 1.59375,1.1875 0.716999,0.297821 1.501813,0.291313 2.15625,0.09375 0.533289,-0.160991 0.78106,-0.432089 0.9375,-0.59375 -0.398108,-0.239124 -1.472299,-0.667057 -3.5,-0.78125 z M 51.875,94.296875 c -1.526064,0.722173 -3.605283,1.676883 -4.4375,2.125 -1.68925,0.909596 -3.521403,2.176969 -4.875,3.40625 -1.157259,1.050975 -1.732759,2.045785 -1.90625,2.343755 0.111322,0.0823 0.209249,0.1907 0.53125,0.25 0.854765,0.15748 2.697107,-0.0523 5.625,-2.125 2.043903,-1.446925 3.660692,-3.52277 5.0625,-6.000005 z" style="fill:#aaaaaa"/>
</svg>