<?xml version="1.0" encoding="UTF-8" standalone="no"?>
<svg xmlns:dc="http://purl.org/dc/elements/1.1/"
     xmlns:cc="http://creativecommons.org/ns#"
     xmlns:rdf="http://www.w3.org/1999/02/22-rdf-syntax-ns#"
     xmlns:svg="http://www.w3.org/2000/svg"
     xmlns="http://www.w3.org/2000/svg"
     xmlns:xlink="http://www.w3.org/1999/xlink"
     width="128" height="128" version="1.1">
    <title>SQL File Icon</title>
    <desc>This is shape (source) for Clarity vector icon theme for gtk</desc>
    <metadata>
        <rdf:RDF>
            <cc:Work rdf:about="">
                <dc:title>SQL File Icon</dc:title>
                <dc:description>This is shape (source) for Clarity vector icon theme for gtk</dc:description>
                <dc:creator>
                    <cc:Agent>
                        <dc:title>Jakub Jankiewicz</dc:title>
                    </cc:Agent>
                </dc:creator>
                <dc:rights>
                    <cc:Agent>
                        <dc:title>Jakub Jankiewicz</dc:title>
                    </cc:Agent>
                </dc:rights>
                <dc:date>2010</dc:date>
                <dc:format>image/svg+xml</dc:format>
                <dc:type rdf:resource="http://purl.org/dc/dcmitype/StillImage" />
                <cc:license rdf:resource="http://www.gnu.org/copyleft/gpl.html" />
             </cc:Work>
        </rdf:RDF>
    </metadata>
    <path d="m 29.09375,11.234375 c -3.183804,0 -5.71875,2.566196 -5.71875,5.75 l 0,94.031255 c 0,3.1838 2.534946,5.75 5.71875,5.75 l 69.8125,0 c 3.1838,0 5.71875,-2.5662 5.71875,-5.75 l 0,-70.656255 -21.03125,0 c -4.306108,0 -8.0625,-3.141109 -8.0625,-7.3125 l 0,-21.8125 -46.4375,0 z m 50.4375,0 0,21.8125 c 0,1.714122 1.631968,3.3125 4.0625,3.3125 l 21.03125,0 -25.09375,-25.125 z M 48.25,63.109375 c 1.741229,2.6e-5 3.216498,0.281059 4.4375,0.84375 1.231594,0.562743 2.044645,1.296272 2.4375,2.15625 0.403442,0.849407 0.624984,2.29463 0.625,4.34375 l 0,1 -6.25,0 0,-1.90625 c -9e-6,-0.891833 -0.0595,-1.443281 -0.21875,-1.6875 -0.159268,-0.244176 -0.440903,-0.374978 -0.8125,-0.375 -0.403466,2.2e-5 -0.693911,0.170885 -0.90625,0.5 -0.201736,0.329157 -0.312507,0.83113 -0.3125,1.5 -7e-6,0.860022 0.110162,1.502209 0.34375,1.9375 0.222956,0.435328 0.865745,0.946713 1.90625,1.5625 2.983452,1.773106 4.849922,3.238961 5.625,4.375 0.775048,1.136063 1.156234,2.973089 1.15625,5.5 -1.6e-5,1.8368 -0.220956,3.191884 -0.65625,4.0625 -0.424708,0.870622 -1.237156,1.592931 -2.46875,2.1875 -1.23162,0.583952 -2.677444,0.874999 -4.3125,0.875 -1.794332,-10e-7 -3.319678,-0.351742 -4.59375,-1.03125 -1.263463,-0.679507 -2.075911,-1.542635 -2.46875,-2.59375 -0.392841,-1.05111 -0.593751,-2.536394 -0.59375,-4.46875 l 0,-1.6875 6.21875,0 0,3.15625 c -7e-6,0.96618 0.08011,1.567704 0.25,1.84375 0.180486,0.276054 0.491565,0.406254 0.9375,0.40625 0.445918,4e-6 0.787644,-0.149624 1,-0.5 0.22295,-0.350366 0.31249,-0.87237 0.3125,-1.5625 -1e-5,-1.518268 -0.179684,-2.53283 -0.59375,-3 -0.424701,-0.467152 -1.48934,-1.250157 -3.15625,-2.34375 -1.666922,-1.104188 -2.77102,-1.875973 -3.3125,-2.375 -0.541485,-0.499 -0.982763,-1.212498 -1.34375,-2.09375 -0.350372,-0.88122 -0.531251,-2.00535 -0.53125,-3.375 -10e-7,-1.974799 0.250986,-3.399389 0.75,-4.3125 0.509629,-0.913065 1.343312,-1.646594 2.46875,-2.15625 1.12543,-0.520222 2.469896,-0.781224 4.0625,-0.78125 z m 17.46875,0 c 1.497031,2.6e-5 2.800834,0.271645 3.96875,0.78125 1.178508,0.509656 2.082901,1.151844 2.65625,1.9375 0.583937,0.785704 0.955107,1.588137 1.125,2.4375 0.18048,0.838788 0.249984,2.114351 0.25,3.78125 l 0,8.375 c -1.6e-5,2.293346 -0.08955,3.838723 -0.3125,4.65625 -0.22298,0.817537 -0.675477,1.480357 -1.3125,1.96875 -0.626436,0.477781 -1.4489,0.838936 -2.5,1.09375 0.03184,0.573335 0.142009,0.945108 0.34375,1.09375 0.212334,0.14864 0.693673,0.21875 1.46875,0.21875 l 2.34375,0 0,3.125 -5.0625,0 c -1.221001,-3e-6 -2.094746,-0.121393 -2.59375,-0.3125 -0.499023,-0.180497 -0.819514,-0.440897 -1,-0.8125 -0.16988,-0.371608 -0.250008,-1.033826 -0.25,-2 -1.518281,-0.04247 -2.843922,-0.433671 -3.9375,-1.1875 -1.093586,-0.753828 -1.805881,-1.717711 -2.15625,-2.875 -0.350372,-1.167899 -0.531251,-2.90417 -0.53125,-5.21875 l 0,-8 c -10e-7,-1.751838 0.110769,-3.086891 0.3125,-4 0.212344,-0.923684 0.633592,-1.786812 1.28125,-2.59375 0.647652,-0.817509 1.480734,-1.42965 2.5,-1.84375 1.019255,-0.414049 2.164018,-0.624974 3.40625,-0.625 z m 10.53125,0.5625 6.6875,0 0,20.625 4.09375,0 0,5.15625 -10.78125,0 0,-25.78125 z M 66,67.484375 c -0.35038,2.2e-5 -0.621396,0.130222 -0.8125,0.40625 -0.1805,0.265454 -0.250008,1.079106 -0.25,2.40625 l 0,12.03125 c -8e-6,1.497047 0.03945,2.430884 0.15625,2.78125 0.127399,0.350376 0.429064,0.500004 0.875,0.5 0.456535,4e-6 0.747583,-0.190288 0.875,-0.59375 0.1274,-0.403453 0.18749,-1.356719 0.1875,-2.875 l 0,-11.84375 c -1e-5,-1.199736 -0.08073,-1.983343 -0.21875,-2.3125 -0.127417,-0.339733 -0.398435,-0.499978 -0.8125,-0.5 z" style="fill:#aaaaaa"/>
</svg>