<?xml version="1.0" encoding="UTF-8" standalone="no"?>
<svg xmlns:dc="http://purl.org/dc/elements/1.1/"
     xmlns:cc="http://creativecommons.org/ns#"
     xmlns:rdf="http://www.w3.org/1999/02/22-rdf-syntax-ns#"
     xmlns:svg="http://www.w3.org/2000/svg"
     xmlns="http://www.w3.org/2000/svg"
     xmlns:xlink="http://www.w3.org/1999/xlink"
     width="128" height="128" version="1.1">
    <title>Image File Icon</title>
    <desc>This is shape (source) for Clarity vector icon theme for gtk</desc>
    <metadata>
        <rdf:RDF>
            <cc:Work rdf:about="">
                <dc:title>Image File Icon</dc:title>
                <dc:description>This is shape (source) for Clarity vector icon theme for gtk</dc:description>
                <dc:creator>
                    <cc:Agent>
                        <dc:title>Jakub Jankiewicz</dc:title>
                    </cc:Agent>
                </dc:creator>
                <dc:rights>
                    <cc:Agent>
                        <dc:title>Jakub Jankiewicz</dc:title>
                    </cc:Agent>
                </dc:rights>
                <dc:date>2010</dc:date>
                <dc:format>image/svg+xml</dc:format>
                <dc:type rdf:resource="http://purl.org/dc/dcmitype/StillImage" />
                <cc:license rdf:resource="http://www.gnu.org/copyleft/gpl.html" />
             </cc:Work>
        </rdf:RDF>
    </metadata>
    <path d="m 29.09375,11.25 c -3.1838,0 -5.71875,2.566196 -5.71875,5.75 l 0,94 c 0,3.1838 2.53495,5.75 5.71875,5.75 l 69.8125,0 c 3.1838,0 5.71875,-2.5662 5.71875,-5.75 l 0,-70.625 -21.03125,0 c -4.30611,0 -8.0625,-3.141109 -8.0625,-7.3125 l 0,-21.8125 -46.4375,0 z m 50.4375,0 0,21.8125 c 0,1.714122 1.63197,3.3125 4.0625,3.3125 l 21.03125,0 L 79.53125,11.25 z M 38.375,57.875 l 51.25,0 0,38.125 -51.25,0 0,-38.125 z m 3.5,4.34375 0,26.8125 c 0.845074,-1.285379 2.291137,-2.886678 4.71875,-4.0625 13.328591,-6.455741 20.173249,1.404429 28.71875,2.90625 4.36081,0.766387 8.53988,-2.458634 10.84375,-4.625 l 0,-21.03125 -44.28125,0 z m 32.09375,5.0625 c 2.458191,0 4.4375,2.010559 4.4375,4.46875 0,2.45819 -1.979309,4.4375 -4.4375,4.4375 -2.458191,0 -4.46875,-1.97931 -4.46875,-4.4375 0,-2.458191 2.010559,-4.46875 4.46875,-4.46875 z" style="fill:#aaaaaa"/>
</svg>