<?xml version="1.0" encoding="UTF-8" standalone="no"?>
<svg xmlns:dc="http://purl.org/dc/elements/1.1/"
     xmlns:cc="http://creativecommons.org/ns#"
     xmlns:rdf="http://www.w3.org/1999/02/22-rdf-syntax-ns#"
     xmlns:svg="http://www.w3.org/2000/svg"
     xmlns="http://www.w3.org/2000/svg"
     xmlns:xlink="http://www.w3.org/1999/xlink"
     width="128" height="128" version="1.1">
    <title>Sigma raw file icon</title>
    <desc>This is shape (source) for Clarity vector icon theme for gtk</desc>
    <metadata>
        <rdf:RDF>
            <cc:Work rdf:about="">
                <dc:title>Sigma raw file icon</dc:title>
                <dc:description>This is shape (source) for Clarity vector icon theme for gtk</dc:description>
                <dc:creator>
                    <cc:Agent>
                        <dc:title>Jakub Jankiewicz</dc:title>
                    </cc:Agent>
                </dc:creator>
                <dc:rights>
                    <cc:Agent>
                        <dc:title>Jakub Jankiewicz</dc:title>
                    </cc:Agent>
                </dc:rights>
                <dc:date>2010</dc:date>
                <dc:format>image/svg+xml</dc:format>
                <dc:type rdf:resource="http://purl.org/dc/dcmitype/StillImage" />
                <cc:license rdf:resource="http://creativecommons.org/licenses/by-sa/3.0/" />
             </cc:Work>
        </rdf:RDF>
    </metadata>
    <path d="M 28.5 11.253906 C 25.598125 11.547496 23.375 14.019086 23.375 17.003906 L 23.375 111.00391 C 23.375 114.18771 25.90994 116.75391 29.09375 116.75391 L 98.90625 116.75391 C 102.09005 116.75391 104.625 114.18771 104.625 111.00391 L 104.625 40.378906 L 83.59375 40.378906 C 79.28764 40.378906 75.53125 37.237792 75.53125 33.066406 L 75.53125 11.253906 L 29.09375 11.253906 C 28.894762 11.253906 28.693458 11.234306 28.5 11.253906 z M 79.53125 11.253906 L 79.53125 33.066406 C 79.53125 34.780526 81.16322 36.378906 83.59375 36.378906 L 104.625 36.378906 L 79.53125 11.253906 z M 52 35.910156 L 53.25 35.910156 L 54.4375 38.378906 L 54.46875 38.910156 L 54.09375 40.660156 L 56.375 41.566406 L 57.34375 40.128906 L 57.75 39.722656 L 60.3125 38.816406 L 61.1875 39.691406 L 60.28125 42.285156 L 59.90625 42.691406 L 58.4375 43.597656 L 59.375 45.941406 L 61.09375 45.566406 L 61.65625 45.597656 L 64.125 46.753906 L 64.125 48.003906 L 61.65625 49.191406 L 61.09375 49.191406 L 59.375 48.816406 L 58.4375 51.097656 L 59.90625 52.097656 L 60.28125 52.503906 L 61.1875 55.066406 L 60.3125 55.941406 L 57.75 55.035156 L 57.34375 54.660156 L 56.375 53.191406 L 54.09375 54.128906 L 54.46875 55.847656 L 54.4375 56.410156 L 53.25 58.847656 L 52 58.847656 L 50.84375 56.410156 L 50.8125 55.847656 L 51.1875 54.128906 L 48.875 53.191406 L 47.96875 54.660156 L 47.53125 55.035156 L 44.96875 55.941406 L 44.0625 55.066406 L 45 52.503906 L 45.375 52.097656 L 46.84375 51.097656 L 45.90625 48.816406 L 44.1875 49.191406 L 43.625 49.191406 L 41.15625 48.003906 L 41.15625 46.753906 L 43.625 45.597656 L 44.1875 45.566406 L 45.90625 45.941406 L 46.84375 43.597656 L 45.375 42.691406 L 45 42.285156 L 44.0625 39.691406 L 44.96875 38.816406 L 47.53125 39.722656 L 47.96875 40.128906 L 48.875 41.566406 L 51.1875 40.660156 L 50.8125 38.910156 L 50.84375 38.378906 L 52 35.910156 z M 52.65625 43.597656 C 50.574572 43.597656 48.84375 45.297229 48.84375 47.378906 C 48.84375 49.460584 50.574572 51.128906 52.65625 51.128906 C 54.737927 51.128906 56.40625 49.460584 56.40625 47.378906 C 56.40625 45.297229 54.737927 43.597656 52.65625 43.597656 z M 65.5625 50.941406 L 67.75 53.347656 L 68.09375 54.128906 L 68.375 56.128906 L 71.5625 56.128906 L 71.84375 54.128906 L 72.15625 53.347656 L 74.375 50.941406 L 75.96875 51.472656 L 76.375 54.691406 L 76.15625 55.566406 L 75.21875 57.285156 L 77.8125 59.191406 L 79.15625 57.753906 L 79.90625 57.285156 L 83.09375 56.660156 L 84.09375 58.035156 L 82.5 60.847656 L 81.84375 61.410156 L 80.0625 62.285156 L 81.0625 65.316406 L 83 64.941406 L 83.875 65.035156 L 86.8125 66.378906 L 86.8125 68.066406 L 83.875 69.410156 L 83 69.503906 L 81.0625 69.160156 L 80.0625 72.191406 L 81.84375 73.066406 L 82.5 73.597656 L 84.09375 76.503906 L 83.09375 77.816406 L 79.90625 77.191406 L 79.15625 76.722656 L 77.8125 75.316406 L 75.21875 77.191406 L 76.15625 78.910156 L 76.375 79.785156 L 75.96875 83.003906 L 74.375 83.535156 L 72.15625 81.128906 L 71.84375 80.316406 L 71.5625 78.378906 L 68.375 78.378906 L 68.09375 80.316406 L 67.75 81.128906 L 65.5625 83.535156 L 63.96875 83.003906 L 63.59375 79.785156 L 63.8125 78.910156 L 64.71875 77.191406 L 62.125 75.316406 L 60.78125 76.722656 L 60 77.191406 L 56.8125 77.816406 L 55.875 76.503906 L 57.4375 73.597656 L 58.09375 73.066406 L 59.84375 72.191406 L 58.90625 69.160156 L 56.9375 69.503906 L 56.09375 69.410156 L 53.125 68.066406 L 53.125 66.378906 L 56.09375 65.035156 L 56.9375 64.941406 L 58.90625 65.316406 L 59.84375 62.285156 L 58.09375 61.410156 L 57.4375 60.847656 L 55.875 58.035156 L 56.8125 56.660156 L 60 57.285156 L 60.78125 57.753906 L 62.125 59.191406 L 64.71875 57.285156 L 63.8125 55.566406 L 63.59375 54.691406 L 63.96875 51.472656 L 65.5625 50.941406 z M 69.96875 60.972656 C 66.50904 60.972656 63.6875 63.794197 63.6875 67.253906 C 63.6875 70.713618 66.50904 73.503906 69.96875 73.503906 C 73.42846 73.503906 76.25 70.713618 76.25 67.253906 C 76.25 63.794197 73.42846 60.972656 69.96875 60.972656 z M 36.273438 92.386719 C 38.453265 92.429055 40.632293 92.942291 42.171875 93.597656 C 42.190155 93.615906 41.484375 96.02537 41.484375 96.052734 C 40.522169 95.475696 35.519119 94.082176 32.806641 95.630859 C 31.597042 96.602504 32.08283 98.481989 34.832031 98.380859 C 35.015295 98.371859 38.496912 98.535354 40.769531 99.433594 C 43.051311 100.33151 43.41788 104.7488 40.769531 106.42578 C 37.827786 108.29519 32.851557 107.87365 29.369141 106.42578 C 29.497568 105.69272 29.735632 104.84062 29.873047 103.81445 C 31.696567 104.88651 35.821751 105.59329 38.460938 104.60352 C 40.119636 103.59547 39.540917 101.71598 37.607422 101.52344 C 35.206467 101.27604 32.614136 101.37728 30.396484 100.10352 C 29.553414 99.581168 29.16867 98.471926 29.150391 97.326172 L 29.150391 97.134766 C 29.168661 95.879162 29.61777 94.595677 30.369141 94 C 31.913284 92.771959 34.09361 92.344383 36.273438 92.386719 z M 58.115234 92.59375 C 61.101949 92.553707 62.786334 93.364039 64.037109 93.982422 C 63.982102 94.138282 63.477101 96.061519 63.394531 96.308594 C 59.710766 95.007408 56.658784 94.431256 54.111328 96.300781 C 51.371288 99.233049 52.665085 104.47386 56.009766 105.11523 C 56.834713 105.23433 58.015215 105.27987 58.839844 105.19727 C 61.62573 104.99573 61.755537 102.91537 61.810547 101.56836 C 60.720084 101.54096 58.593322 101.48633 56.980469 101.48633 L 56.980469 99.177734 L 64.943359 99.259766 C 64.970803 105.57359 63.760931 107.16778 58.839844 107.67188 C 57.850193 107.77275 56.402523 107.75396 55.421875 107.60742 C 47.394497 106.3885 47.990871 94.182921 54.662109 92.955078 C 55.979423 92.714447 57.119663 92.607098 58.115234 92.59375 z M 44.710938 93.083984 L 47.587891 93.083984 L 47.505859 106.92969 L 44.710938 106.92969 L 44.710938 93.083984 z M 70.548828 93.322266 C 71.257881 93.328017 71.963616 93.339844 72.421875 93.339844 C 72.770081 94.439588 74.34561 100.21304 74.611328 101.25781 C 74.675568 101.24881 74.767805 101.24887 74.804688 101.23047 C 75.381726 99.351781 76.590329 94.880072 77.103516 93.322266 L 80.962891 93.322266 C 81.494319 96.868574 82.391252 102.84373 83.050781 107.1875 L 80.15625 107.1875 C 80.036881 106.26186 79.000523 98.087123 78.835938 97.125 C 78.780807 97.10676 78.69901 97.124334 78.634766 97.115234 C 77.938353 99.653488 76.608939 104.58489 75.884766 107.1875 L 73.410156 107.1875 C 73.272936 106.53682 71.056731 97.921983 70.791016 97.005859 C 70.735886 97.014959 70.634787 97.014959 70.607422 97.005859 C 70.222337 98.966758 69.076172 106.04204 69.076172 107.1875 L 66.208984 107.1875 C 66.777297 104.18163 68.232721 95.007505 68.654297 93.339844 C 69.126238 93.316839 69.839775 93.316514 70.548828 93.322266 z M 89.447266 93.359375 L 93.599609 93.359375 C 94.598222 96.07205 97.850597 104.56616 98.849609 107.29688 L 95.84375 107.27734 C 95.614521 106.81923 95.08409 105.23403 94.791016 104.57422 C 92.451133 104.59362 90.11136 104.55664 87.771484 104.55664 C 87.661625 104.8406 86.816909 106.91087 86.679688 107.25 L 83.820312 107.19531 C 84.608733 105.30763 88.457379 95.888826 89.447266 93.359375 z M 91.5 95.796875 C 91.45441 95.796875 91.390664 95.795187 91.335938 95.804688 C 91.326737 95.822928 91.318124 95.860912 91.308594 95.888672 C 90.887416 96.93329 89.200234 100.99102 88.769531 102.04492 C 88.769531 102.05392 88.759766 102.14627 88.759766 102.17383 C 90.452014 102.21223 92.144845 102.23717 93.837891 102.20117 C 93.837891 102.19217 93.845703 102.12767 93.845703 102.10938 C 93.607356 101.31216 92.004065 96.942623 91.5 95.796875 z " style="fill:#aaaaaa"/>
</svg>