<?xml version="1.0" encoding="UTF-8" standalone="no"?>
<svg xmlns:dc="http://purl.org/dc/elements/1.1/"
     xmlns:cc="http://creativecommons.org/ns#"
     xmlns:rdf="http://www.w3.org/1999/02/22-rdf-syntax-ns#"
     xmlns:svg="http://www.w3.org/2000/svg"
     xmlns="http://www.w3.org/2000/svg"
     xmlns:xlink="http://www.w3.org/1999/xlink"
     width="128" height="128" version="1.1">
    <title>Olympus Raw File Icon</title>
    <desc>This is shape (source) for Clarity vector icon theme for gtk</desc>
    <metadata>
        <rdf:RDF>
            <cc:Work rdf:about="">
                <dc:title>Olympus Raw File Icon</dc:title>
                <dc:description>This is shape (source) for Clarity vector icon theme for gtk</dc:description>
                <dc:creator>
                    <cc:Agent>
                        <dc:title>Jakub Jankiewicz</dc:title>
                    </cc:Agent>
                </dc:creator>
                <dc:rights>
                    <cc:Agent>
                        <dc:title>Jakub Jankiewicz</dc:title>
                    </cc:Agent>
                </dc:rights>
                <dc:date>2010</dc:date>
                <dc:format>image/svg+xml</dc:format>
                <dc:type rdf:resource="http://purl.org/dc/dcmitype/StillImage" />
                <cc:license rdf:resource="http://creativecommons.org/licenses/by-sa/3.0/" />
             </cc:Work>
        </rdf:RDF>
    </metadata>
    <path d="M 28.5 11.25 C 25.598125 11.54359 23.375 14.01518 23.375 17 L 23.375 111 C 23.375 114.1838 25.90994 116.75 29.09375 116.75 L 98.90625 116.75 C 102.09005 116.75 104.625 114.1838 104.625 111 L 104.625 40.375 L 83.59375 40.375 C 79.28764 40.375 75.53125 37.233886 75.53125 33.0625 L 75.53125 11.25 L 29.09375 11.25 C 28.894762 11.25 28.693458 11.2304 28.5 11.25 z M 79.53125 11.25 L 79.53125 33.0625 C 79.53125 34.77662 81.16322 36.375 83.59375 36.375 L 104.625 36.375 L 79.53125 11.25 z M 52 35.90625 L 53.25 35.90625 L 54.4375 38.375 L 54.46875 38.90625 L 54.09375 40.65625 L 56.375 41.5625 L 57.34375 40.125 L 57.75 39.71875 L 60.3125 38.8125 L 61.1875 39.6875 L 60.28125 42.28125 L 59.90625 42.6875 L 58.4375 43.59375 L 59.375 45.9375 L 61.09375 45.5625 L 61.65625 45.59375 L 64.125 46.75 L 64.125 48 L 61.65625 49.1875 L 61.09375 49.1875 L 59.375 48.8125 L 58.4375 51.09375 L 59.90625 52.09375 L 60.28125 52.5 L 61.1875 55.0625 L 60.3125 55.9375 L 57.75 55.03125 L 57.34375 54.65625 L 56.375 53.1875 L 54.09375 54.125 L 54.46875 55.84375 L 54.4375 56.40625 L 53.25 58.84375 L 52 58.84375 L 50.84375 56.40625 L 50.8125 55.84375 L 51.1875 54.125 L 48.875 53.1875 L 47.96875 54.65625 L 47.53125 55.03125 L 44.96875 55.9375 L 44.0625 55.0625 L 45 52.5 L 45.375 52.09375 L 46.84375 51.09375 L 45.90625 48.8125 L 44.1875 49.1875 L 43.625 49.1875 L 41.15625 48 L 41.15625 46.75 L 43.625 45.59375 L 44.1875 45.5625 L 45.90625 45.9375 L 46.84375 43.59375 L 45.375 42.6875 L 45 42.28125 L 44.0625 39.6875 L 44.96875 38.8125 L 47.53125 39.71875 L 47.96875 40.125 L 48.875 41.5625 L 51.1875 40.65625 L 50.8125 38.90625 L 50.84375 38.375 L 52 35.90625 z M 52.65625 43.59375 C 50.574572 43.59375 48.84375 45.293323 48.84375 47.375 C 48.84375 49.456678 50.574572 51.125 52.65625 51.125 C 54.737927 51.125 56.40625 49.456678 56.40625 47.375 C 56.40625 45.293323 54.737927 43.59375 52.65625 43.59375 z M 65.5625 50.9375 L 67.75 53.34375 L 68.09375 54.125 L 68.375 56.125 L 71.5625 56.125 L 71.84375 54.125 L 72.15625 53.34375 L 74.375 50.9375 L 75.96875 51.46875 L 76.375 54.6875 L 76.15625 55.5625 L 75.21875 57.28125 L 77.8125 59.1875 L 79.15625 57.75 L 79.90625 57.28125 L 83.09375 56.65625 L 84.09375 58.03125 L 82.5 60.84375 L 81.84375 61.40625 L 80.0625 62.28125 L 81.0625 65.3125 L 83 64.9375 L 83.875 65.03125 L 86.8125 66.375 L 86.8125 68.0625 L 83.875 69.40625 L 83 69.5 L 81.0625 69.15625 L 80.0625 72.1875 L 81.84375 73.0625 L 82.5 73.59375 L 84.09375 76.5 L 83.09375 77.8125 L 79.90625 77.1875 L 79.15625 76.71875 L 77.8125 75.3125 L 75.21875 77.1875 L 76.15625 78.90625 L 76.375 79.78125 L 75.96875 83 L 74.375 83.53125 L 72.15625 81.125 L 71.84375 80.3125 L 71.5625 78.375 L 68.375 78.375 L 68.09375 80.3125 L 67.75 81.125 L 65.5625 83.53125 L 63.96875 83 L 63.59375 79.78125 L 63.8125 78.90625 L 64.71875 77.1875 L 62.125 75.3125 L 60.78125 76.71875 L 60 77.1875 L 56.8125 77.8125 L 55.875 76.5 L 57.4375 73.59375 L 58.09375 73.0625 L 59.84375 72.1875 L 58.90625 69.15625 L 56.9375 69.5 L 56.09375 69.40625 L 53.125 68.0625 L 53.125 66.375 L 56.09375 65.03125 L 56.9375 64.9375 L 58.90625 65.3125 L 59.84375 62.28125 L 58.09375 61.40625 L 57.4375 60.84375 L 55.875 58.03125 L 56.8125 56.65625 L 60 57.28125 L 60.78125 57.75 L 62.125 59.1875 L 64.71875 57.28125 L 63.8125 55.5625 L 63.59375 54.6875 L 63.96875 51.46875 L 65.5625 50.9375 z M 69.96875 60.96875 C 66.50904 60.96875 63.6875 63.790291 63.6875 67.25 C 63.6875 70.709712 66.50904 73.5 69.96875 73.5 C 73.42846 73.5 76.25 70.709712 76.25 67.25 C 76.25 63.790291 73.42846 60.96875 69.96875 60.96875 z M 99.28125 92.3125 C 99.809275 92.3125 100.21875 92.753754 100.21875 93.28125 C 100.21875 93.808349 99.809275 94.21875 99.28125 94.21875 C 98.754155 94.21875 98.3125 93.808349 98.3125 93.28125 C 98.3125 92.753754 98.754152 92.3125 99.28125 92.3125 z M 99.28125 92.46875 C 98.839413 92.46875 98.46875 92.808163 98.46875 93.25 C 98.46875 93.691393 98.839413 94.0625 99.28125 94.0625 C 99.723045 94.0625 100.0625 93.691396 100.0625 93.25 C 100.0625 92.808163 99.723045 92.46875 99.28125 92.46875 z M 33.625 92.53125 C 36.928396 92.53125 39.28125 94.174122 39.28125 96.90625 C 39.28125 99.63693 36.928381 101.28125 33.625 101.28125 C 30.321604 101.28125 27.9375 99.636927 27.9375 96.90625 C 27.9375 94.174113 30.321604 92.53125 33.625 92.53125 z M 93.3125 92.59375 C 95.348931 92.59375 98.005988 93.133214 98.1875 95 L 94.71875 95 C 94.571324 94.478556 94.108718 94.25 93.28125 94.25 C 92.302294 94.25 91.96875 94.614952 91.96875 94.96875 C 91.96875 95.311951 92.208191 95.565771 92.90625 95.6875 C 93.433215 95.778235 94.823873 96.021121 95.8125 96.21875 C 97.701493 96.596565 98.46875 97.402284 98.46875 98.59375 C 98.46875 100.78824 95.75299 101.3125 93.5 101.3125 C 91.260884 101.3125 88.426048 100.83931 88.21875 98.625 L 91.75 98.625 C 91.908023 99.295859 92.486095 99.59375 93.4375 99.59375 C 94.441049 99.59375 94.9375 99.311083 94.9375 98.78125 C 94.9375 98.285632 94.497054 98.121397 93.65625 97.9375 C 93.051843 97.804423 91.849726 97.614897 91.125 97.46875 C 90.103611 97.261892 88.625 96.769292 88.625 95.28125 C 88.625 93.244786 91.277095 92.59375 93.3125 92.59375 z M 98.84375 92.71875 L 99.46875 92.71875 C 99.641916 92.72655 99.75 92.8787 99.75 93.03125 C 99.75 93.20221 99.614213 93.315668 99.53125 93.34375 L 99.75 93.8125 L 99.53125 93.8125 L 99.3125 93.34375 L 99.0625 93.34375 L 99.0625 93.8125 L 98.84375 93.8125 L 98.84375 92.71875 z M 40.0625 92.84375 L 43.4375 92.84375 L 43.4375 99.15625 L 47.6875 99.15625 L 47.6875 100.96875 L 40.0625 100.96875 L 40.0625 92.84375 z M 45 92.84375 L 48.375 92.84375 L 48.46875 93.03125 L 50 95.71875 C 50.100934 95.891521 50.13847 95.891521 50.25 95.71875 L 51.78125 93.03125 L 51.875 92.84375 L 55.25 92.84375 L 51.71875 98.25 L 51.71875 100.96875 L 48.5 100.96875 L 48.5 98.25 L 45 92.84375 z M 55.59375 92.84375 L 58.9375 92.84375 L 59 93.03125 L 61.0625 97.6875 C 61.138531 97.863537 61.20509 97.86442 61.28125 97.6875 L 63.34375 93.03125 L 63.40625 92.84375 L 66.75 92.84375 L 66.75 100.96875 L 64 100.96875 L 64 96.8125 C 63.998588 96.71987 63.88839 96.675725 63.84375 96.78125 L 62.125 100.8125 L 62.0625 100.96875 L 60.28125 100.96875 L 60.21875 100.8125 L 58.5 96.78125 C 58.454789 96.675724 58.344357 96.71987 58.34375 96.8125 L 58.34375 100.96875 L 55.59375 100.96875 L 55.59375 92.84375 z M 67.875 92.84375 L 74.4375 92.84375 C 76.969169 92.84375 77.5 94.525256 77.5 95.4375 C 77.5 96.428647 76.876595 97.96875 74.4375 97.96875 L 71.09375 97.96875 L 71.09375 100.96875 L 67.875 100.96875 L 67.875 92.84375 z M 78.125 92.84375 L 81.40625 92.84375 L 81.40625 98.09375 C 81.40625 99.110592 82.138498 99.59375 82.96875 99.59375 C 83.799885 99.59375 84.5625 99.110589 84.5625 98.09375 L 84.5625 92.84375 L 87.84375 92.84375 L 87.84375 98.34375 C 87.84375 100.50729 85.609184 101.3125 82.96875 101.3125 C 80.329333 101.3125 78.125 100.50729 78.125 98.34375 L 78.125 92.84375 z M 99.0625 92.875 L 99.0625 93.1875 L 99.4375 93.1875 C 99.543952 93.15748 99.559762 93.103084 99.5625 93.03125 C 99.5652 92.96074 99.505669 92.875 99.4375 92.875 L 99.0625 92.875 z M 33.625 94.25 C 32.213742 94.25 31.34375 95.261862 31.34375 96.90625 C 31.34375 98.550107 32.213742 99.5625 33.625 99.5625 C 35.03573 99.5625 35.875 98.550107 35.875 96.90625 C 35.875 95.261865 35.035727 94.25 33.625 94.25 z M 71.09375 94.625 L 71.09375 96.21875 L 73.25 96.21875 C 73.984351 96.21875 74.25 95.83013 74.25 95.375 C 74.25 94.858455 73.785443 94.625 73.25 94.625 L 71.09375 94.625 z M 63.25 103.6875 L 98.71875 104.59375 L 98.71875 105.03125 L 63.25 105.9375 L 27.78125 105.03125 L 27.78125 104.59375 L 63.25 103.6875 z " style="fill:#aaaaaa"/>
</svg>