<?xml version="1.0" encoding="UTF-8" standalone="no"?>
<svg xmlns:dc="http://purl.org/dc/elements/1.1/"
     xmlns:cc="http://creativecommons.org/ns#"
     xmlns:rdf="http://www.w3.org/1999/02/22-rdf-syntax-ns#"
     xmlns:svg="http://www.w3.org/2000/svg"
     xmlns="http://www.w3.org/2000/svg"
     xmlns:xlink="http://www.w3.org/1999/xlink"
     width="128" height="128" version="1.1">
    <title>Panasonic raw file icon</title>
    <desc>This is shape (source) for Clarity vector icon theme for gtk</desc>
    <metadata>
        <rdf:RDF>
            <cc:Work rdf:about="">
                <dc:title>Panasonic raw file icon</dc:title>
                <dc:description>This is shape (source) for Clarity vector icon theme for gtk</dc:description>
                <dc:creator>
                    <cc:Agent>
                        <dc:title>Jakub Jankiewicz</dc:title>
                    </cc:Agent>
                </dc:creator>
                <dc:rights>
                    <cc:Agent>
                        <dc:title>Jakub Jankiewicz</dc:title>
                    </cc:Agent>
                </dc:rights>
                <dc:date>2010</dc:date>
                <dc:format>image/svg+xml</dc:format>
                <dc:type rdf:resource="http://purl.org/dc/dcmitype/StillImage" />
                <cc:license rdf:resource="http://creativecommons.org/licenses/by-sa/3.0/" />
             </cc:Work>
        </rdf:RDF>
    </metadata>
    <path d="M 28.5 11.253906 C 25.598125 11.547496 23.375 14.019086 23.375 17.003906 L 23.375 111.00391 C 23.375 114.18771 25.90994 116.75391 29.09375 116.75391 L 98.90625 116.75391 C 102.09005 116.75391 104.625 114.18771 104.625 111.00391 L 104.625 40.378906 L 83.59375 40.378906 C 79.28764 40.378906 75.53125 37.237792 75.53125 33.066406 L 75.53125 11.253906 L 29.09375 11.253906 C 28.894762 11.253906 28.693458 11.234306 28.5 11.253906 z M 79.53125 11.253906 L 79.53125 33.066406 C 79.53125 34.780526 81.16322 36.378906 83.59375 36.378906 L 104.625 36.378906 L 79.53125 11.253906 z M 52 35.910156 L 53.25 35.910156 L 54.4375 38.378906 L 54.46875 38.910156 L 54.09375 40.660156 L 56.375 41.566406 L 57.34375 40.128906 L 57.75 39.722656 L 60.3125 38.816406 L 61.1875 39.691406 L 60.28125 42.285156 L 59.90625 42.691406 L 58.4375 43.597656 L 59.375 45.941406 L 61.09375 45.566406 L 61.65625 45.597656 L 64.125 46.753906 L 64.125 48.003906 L 61.65625 49.191406 L 61.09375 49.191406 L 59.375 48.816406 L 58.4375 51.097656 L 59.90625 52.097656 L 60.28125 52.503906 L 61.1875 55.066406 L 60.3125 55.941406 L 57.75 55.035156 L 57.34375 54.660156 L 56.375 53.191406 L 54.09375 54.128906 L 54.46875 55.847656 L 54.4375 56.410156 L 53.25 58.847656 L 52 58.847656 L 50.84375 56.410156 L 50.8125 55.847656 L 51.1875 54.128906 L 48.875 53.191406 L 47.96875 54.660156 L 47.53125 55.035156 L 44.96875 55.941406 L 44.0625 55.066406 L 45 52.503906 L 45.375 52.097656 L 46.84375 51.097656 L 45.90625 48.816406 L 44.1875 49.191406 L 43.625 49.191406 L 41.15625 48.003906 L 41.15625 46.753906 L 43.625 45.597656 L 44.1875 45.566406 L 45.90625 45.941406 L 46.84375 43.597656 L 45.375 42.691406 L 45 42.285156 L 44.0625 39.691406 L 44.96875 38.816406 L 47.53125 39.722656 L 47.96875 40.128906 L 48.875 41.566406 L 51.1875 40.660156 L 50.8125 38.910156 L 50.84375 38.378906 L 52 35.910156 z M 52.65625 43.597656 C 50.574572 43.597656 48.84375 45.297229 48.84375 47.378906 C 48.84375 49.460584 50.574572 51.128906 52.65625 51.128906 C 54.737927 51.128906 56.40625 49.460584 56.40625 47.378906 C 56.40625 45.297229 54.737927 43.597656 52.65625 43.597656 z M 65.5625 50.941406 L 67.75 53.347656 L 68.09375 54.128906 L 68.375 56.128906 L 71.5625 56.128906 L 71.84375 54.128906 L 72.15625 53.347656 L 74.375 50.941406 L 75.96875 51.472656 L 76.375 54.691406 L 76.15625 55.566406 L 75.21875 57.285156 L 77.8125 59.191406 L 79.15625 57.753906 L 79.90625 57.285156 L 83.09375 56.660156 L 84.09375 58.035156 L 82.5 60.847656 L 81.84375 61.410156 L 80.0625 62.285156 L 81.0625 65.316406 L 83 64.941406 L 83.875 65.035156 L 86.8125 66.378906 L 86.8125 68.066406 L 83.875 69.410156 L 83 69.503906 L 81.0625 69.160156 L 80.0625 72.191406 L 81.84375 73.066406 L 82.5 73.597656 L 84.09375 76.503906 L 83.09375 77.816406 L 79.90625 77.191406 L 79.15625 76.722656 L 77.8125 75.316406 L 75.21875 77.191406 L 76.15625 78.910156 L 76.375 79.785156 L 75.96875 83.003906 L 74.375 83.535156 L 72.15625 81.128906 L 71.84375 80.316406 L 71.5625 78.378906 L 68.375 78.378906 L 68.09375 80.316406 L 67.75 81.128906 L 65.5625 83.535156 L 63.96875 83.003906 L 63.59375 79.785156 L 63.8125 78.910156 L 64.71875 77.191406 L 62.125 75.316406 L 60.78125 76.722656 L 60 77.191406 L 56.8125 77.816406 L 55.875 76.503906 L 57.4375 73.597656 L 58.09375 73.066406 L 59.84375 72.191406 L 58.90625 69.160156 L 56.9375 69.503906 L 56.09375 69.410156 L 53.125 68.066406 L 53.125 66.378906 L 56.09375 65.035156 L 56.9375 64.941406 L 58.90625 65.316406 L 59.84375 62.285156 L 58.09375 61.410156 L 57.4375 60.847656 L 55.875 58.035156 L 56.8125 56.660156 L 60 57.285156 L 60.78125 57.753906 L 62.125 59.191406 L 64.71875 57.285156 L 63.8125 55.566406 L 63.59375 54.691406 L 63.96875 51.472656 L 65.5625 50.941406 z M 69.96875 60.972656 C 66.50904 60.972656 63.6875 63.794197 63.6875 67.253906 C 63.6875 70.713618 66.50904 73.503906 69.96875 73.503906 C 73.42846 73.503906 76.25 70.713618 76.25 67.253906 C 76.25 63.794197 73.42846 60.972656 69.96875 60.972656 z M 27.28125 93.226562 L 32.423828 93.226562 C 35.407905 93.226562 36.978516 94.973555 36.978516 97.107422 C 36.978516 99.34178 35.523179 100.94727 32.539062 100.94727 L 30.603516 100.94727 L 30.603516 104.41797 L 27.28125 104.41797 L 27.28125 93.226562 z M 89.132812 93.492188 L 92.029297 93.492188 L 92.029297 95.476562 L 89.132812 95.476562 L 89.132812 93.492188 z M 30.603516 95.960938 L 30.603516 98.484375 L 32.271484 98.484375 C 33.064696 98.484375 33.640625 98.016516 33.640625 97.123047 C 33.640625 96.156997 32.544889 95.960938 31.824219 95.960938 L 30.603516 95.960938 z M 66.804688 96.294922 C 68.571919 96.294922 70.548857 96.715889 70.623047 98.732422 L 67.898438 98.732422 C 67.867426 98.470515 67.685525 98.246014 67.609375 98.183594 C 67.450787 98.053703 67.127299 97.998047 66.896484 97.998047 C 66.377541 97.998047 65.969991 98.170162 65.962891 98.544922 C 65.943264 99.63333 71.001659 98.681329 70.980469 101.71094 C 70.969871 103.28248 70.04341 104.67773 66.835938 104.67773 C 65.105919 104.67773 63.175647 103.88858 63.123047 101.77344 L 65.814453 101.77344 C 65.846642 102.1217 65.929089 102.30793 66.130859 102.4668 C 66.318492 102.61094 66.62945 102.80469 66.917969 102.80469 C 67.633184 102.80469 68.033203 102.60424 68.033203 102.07031 C 68.033203 100.8597 63.186206 102.01685 63.191406 98.847656 C 63.194625 96.915867 65.233414 96.294922 66.804688 96.294922 z M 41.128906 96.306641 C 44.704153 96.306641 44.919922 97.733144 44.919922 99.535156 C 44.919922 99.535156 44.93239 104.13133 45.058594 104.41992 L 42.408203 104.41992 L 42.080078 103.61133 C 41.229514 104.40458 40.366158 104.60687 39.242188 104.63477 C 38.390721 104.65577 36.759766 104.01854 36.759766 102.44727 C 36.759766 98.955319 41.923375 100.4717 41.921875 98.830078 C 41.921404 98.282515 41.258503 98.208984 40.941406 98.208984 C 40.523426 98.208984 39.913717 98.4977 39.841797 99.146484 L 37.169922 99.146484 C 37.148881 97.379457 38.144828 96.306641 41.128906 96.306641 z M 58.888672 96.306641 C 62.463761 96.306641 62.679688 97.733144 62.679688 99.535156 C 62.679688 99.535156 62.6904 104.13133 62.816406 104.41992 L 60.166016 104.41992 L 59.839844 103.61133 C 58.989438 104.40458 58.123969 104.60687 57 104.63477 C 56.148533 104.65577 54.517578 104.01854 54.517578 102.44727 C 54.517578 98.955319 59.682941 100.4717 59.681641 98.830078 C 59.681013 98.282515 59.018426 98.208984 58.701172 98.208984 C 58.282878 98.208984 57.673632 98.4977 57.601562 99.146484 L 54.929688 99.146484 C 54.90837 97.379457 55.904597 96.306641 58.888672 96.306641 z M 51.224609 96.326172 C 53.213867 96.326172 54.023438 97.57259 54.023438 99.648438 L 54.023438 104.42578 L 51.025391 104.42578 L 51.025391 99.964844 C 51.025391 99.215174 50.856108 98.660156 50.005859 98.660156 C 49.08291 98.660156 48.701172 99.360305 48.701172 100.32617 L 48.701172 104.42578 L 45.806641 104.42578 L 45.806641 96.621094 L 48.552734 96.625 L 48.544922 97.482422 C 49.60416 96.514802 50.085919 96.326172 51.224609 96.326172 z M 75.517578 96.326172 C 78.184127 96.326172 79.857422 97.984378 79.857422 100.33398 C 79.857422 103.102 77.954804 104.5918 75.533203 104.5918 C 73.111209 104.5918 71.210938 103.06292 71.210938 100.48242 C 71.210938 97.858817 72.965652 96.326172 75.517578 96.326172 z M 85.685547 96.326172 L 85.6875 96.326172 C 87.676519 96.326172 88.486328 97.57259 88.486328 99.648438 L 88.486328 104.42578 L 85.486328 104.42578 L 85.486328 99.964844 C 85.486328 99.215184 85.285797 98.769531 84.435547 98.769531 C 83.512284 98.769531 83.015625 99.360305 83.015625 100.32617 L 83.015625 104.42578 L 80.267578 104.42578 L 80.267578 96.621094 L 83.015625 96.625 L 83.007812 97.482422 C 84.066896 96.514802 84.546778 96.326172 85.685547 96.326172 z M 96.683594 96.40625 C 98.701656 96.40625 100.44583 97.27174 100.66211 99.505859 L 97.779297 99.505859 C 97.764776 99.174039 97.648577 98.914079 97.460938 98.726562 C 97.273695 98.524639 97.015293 98.423828 96.683594 98.423828 C 95.559349 98.423828 95.224609 99.624071 95.224609 100.51758 C 95.224609 101.65654 95.739527 102.57422 96.683594 102.57422 C 97.461611 102.57422 97.765232 101.84078 97.851562 101.25 L 100.71875 101.25 C 100.45889 103.54191 98.773498 104.59375 96.683594 104.59375 C 94.247076 104.59375 92.341797 103.02207 92.341797 100.4707 C 92.341797 97.890365 94.189765 96.40625 96.683594 96.40625 z M 89.132812 96.664062 L 92.029297 96.664062 L 92.029297 104.42578 L 89.132812 104.42578 L 89.132812 96.664062 z M 75.5625 98.423828 C 74.539139 98.423828 74.177734 99.475755 74.177734 100.32617 C 74.177734 101.75325 74.768918 102.57422 75.533203 102.57422 C 76.34027 102.57422 76.890625 101.81386 76.890625 100.38672 C 76.890625 99.276732 76.340914 98.380608 75.5625 98.423828 z M 42.007812 101.03906 C 41.027712 101.51471 39.700459 101.49187 39.693359 102.13281 C 39.689081 102.50773 39.944339 102.91016 40.535156 102.91016 C 41.587645 102.91016 42.080202 102.07667 42.007812 101.03906 z M 59.767578 101.03906 C 58.787592 101.51471 57.460325 101.49187 57.453125 102.13281 C 57.449162 102.50773 57.704263 102.91016 58.294922 102.91016 C 59.347253 102.91016 59.839808 102.07667 59.767578 101.03906 z " style="fill:#aaaaaa"/>
</svg>