<?xml version="1.0" encoding="UTF-8" standalone="no"?>
<svg xmlns:dc="http://purl.org/dc/elements/1.1/"
     xmlns:cc="http://creativecommons.org/ns#"
     xmlns:rdf="http://www.w3.org/1999/02/22-rdf-syntax-ns#"
     xmlns:svg="http://www.w3.org/2000/svg"
     xmlns="http://www.w3.org/2000/svg"
     xmlns:xlink="http://www.w3.org/1999/xlink"
     width="128" height="128" version="1.1">
    <title>Canon Raw File Icon</title>
    <desc>This is shape (source) for Clarity vector icon theme for gtk</desc>
    <metadata>
        <rdf:RDF>
            <cc:Work rdf:about="">
                <dc:title>Canon Raw File Icon</dc:title>
                <dc:description>This is shape (source) for Clarity vector icon theme for gtk</dc:description>
                <dc:creator>
                    <cc:Agent>
                        <dc:title>Jakub Jankiewicz</dc:title>
                    </cc:Agent>
                </dc:creator>
                <dc:rights>
                    <cc:Agent>
                        <dc:title>Jakub Jankiewicz</dc:title>
                    </cc:Agent>
                </dc:rights>
                <dc:date>2010</dc:date>
                <dc:format>image/svg+xml</dc:format>
                <dc:type rdf:resource="http://purl.org/dc/dcmitype/StillImage" />
                <cc:license rdf:resource="http://www.gnu.org/copyleft/gpl.html" />
             </cc:Work>
        </rdf:RDF>
    </metadata>
    <path d="M 28.5 11.25 C 25.598125 11.54359 23.375 14.01518 23.375 17 L 23.375 111 C 23.375 114.1838 25.90994 116.75 29.09375 116.75 L 98.90625 116.75 C 102.09005 116.75 104.625 114.1838 104.625 111 L 104.625 40.375 L 83.59375 40.375 C 79.28764 40.375 75.53125 37.233886 75.53125 33.0625 L 75.53125 11.25 L 29.09375 11.25 C 28.894762 11.25 28.693458 11.2304 28.5 11.25 z M 79.53125 11.25 L 79.53125 33.0625 C 79.53125 34.77662 81.16322 36.375 83.59375 36.375 L 104.625 36.375 L 79.53125 11.25 z M 52 35.90625 L 53.25 35.90625 L 54.4375 38.375 L 54.46875 38.90625 L 54.09375 40.65625 L 56.375 41.5625 L 57.34375 40.125 L 57.75 39.71875 L 60.3125 38.8125 L 61.1875 39.6875 L 60.28125 42.28125 L 59.90625 42.6875 L 58.4375 43.59375 L 59.375 45.9375 L 61.09375 45.5625 L 61.65625 45.59375 L 64.125 46.75 L 64.125 48 L 61.65625 49.1875 L 61.09375 49.1875 L 59.375 48.8125 L 58.4375 51.09375 L 59.90625 52.09375 L 60.28125 52.5 L 61.1875 55.0625 L 60.3125 55.9375 L 57.75 55.03125 L 57.34375 54.65625 L 56.375 53.1875 L 54.09375 54.125 L 54.46875 55.84375 L 54.4375 56.40625 L 53.25 58.84375 L 52 58.84375 L 50.84375 56.40625 L 50.8125 55.84375 L 51.1875 54.125 L 48.875 53.1875 L 47.96875 54.65625 L 47.53125 55.03125 L 44.96875 55.9375 L 44.0625 55.0625 L 45 52.5 L 45.375 52.09375 L 46.84375 51.09375 L 45.90625 48.8125 L 44.1875 49.1875 L 43.625 49.1875 L 41.15625 48 L 41.15625 46.75 L 43.625 45.59375 L 44.1875 45.5625 L 45.90625 45.9375 L 46.84375 43.59375 L 45.375 42.6875 L 45 42.28125 L 44.0625 39.6875 L 44.96875 38.8125 L 47.53125 39.71875 L 47.96875 40.125 L 48.875 41.5625 L 51.1875 40.65625 L 50.8125 38.90625 L 50.84375 38.375 L 52 35.90625 z M 52.65625 43.59375 C 50.574572 43.59375 48.84375 45.293323 48.84375 47.375 C 48.84375 49.456678 50.574572 51.125 52.65625 51.125 C 54.737927 51.125 56.40625 49.456678 56.40625 47.375 C 56.40625 45.293323 54.737927 43.59375 52.65625 43.59375 z M 65.5625 50.9375 L 67.75 53.34375 L 68.09375 54.125 L 68.375 56.125 L 71.5625 56.125 L 71.84375 54.125 L 72.15625 53.34375 L 74.375 50.9375 L 75.96875 51.46875 L 76.375 54.6875 L 76.15625 55.5625 L 75.21875 57.28125 L 77.8125 59.1875 L 79.15625 57.75 L 79.90625 57.28125 L 83.09375 56.65625 L 84.09375 58.03125 L 82.5 60.84375 L 81.84375 61.40625 L 80.0625 62.28125 L 81.0625 65.3125 L 83 64.9375 L 83.875 65.03125 L 86.8125 66.375 L 86.8125 68.0625 L 83.875 69.40625 L 83 69.5 L 81.0625 69.15625 L 80.0625 72.1875 L 81.84375 73.0625 L 82.5 73.59375 L 84.09375 76.5 L 83.09375 77.8125 L 79.90625 77.1875 L 79.15625 76.71875 L 77.8125 75.3125 L 75.21875 77.1875 L 76.15625 78.90625 L 76.375 79.78125 L 75.96875 83 L 74.375 83.53125 L 72.15625 81.125 L 71.84375 80.3125 L 71.5625 78.375 L 68.375 78.375 L 68.09375 80.3125 L 67.75 81.125 L 65.5625 83.53125 L 63.96875 83 L 63.59375 79.78125 L 63.8125 78.90625 L 64.71875 77.1875 L 62.125 75.3125 L 60.78125 76.71875 L 60 77.1875 L 56.8125 77.8125 L 55.875 76.5 L 57.4375 73.59375 L 58.09375 73.0625 L 59.84375 72.1875 L 58.90625 69.15625 L 56.9375 69.5 L 56.09375 69.40625 L 53.125 68.0625 L 53.125 66.375 L 56.09375 65.03125 L 56.9375 64.9375 L 58.90625 65.3125 L 59.84375 62.28125 L 58.09375 61.40625 L 57.4375 60.84375 L 55.875 58.03125 L 56.8125 56.65625 L 60 57.28125 L 60.78125 57.75 L 62.125 59.1875 L 64.71875 57.28125 L 63.8125 55.5625 L 63.59375 54.6875 L 63.96875 51.46875 L 65.5625 50.9375 z M 69.96875 60.96875 C 66.50904 60.96875 63.6875 63.790291 63.6875 67.25 C 63.6875 70.709712 66.50904 73.5 69.96875 73.5 C 73.42846 73.5 76.25 70.709712 76.25 67.25 C 76.25 63.790291 73.42846 60.96875 69.96875 60.96875 z M 29.25 90.15625 L 36.1875 90.15625 C 38.714219 90.15625 40.125 91.238221 40.125 94.21875 L 40.125 96.90625 C 40.125 99.36204 38.690389 100.375 36.1875 100.375 L 33.15625 100.375 L 33.15625 103.65625 L 29.25 103.65625 L 29.25 90.15625 z M 41.375 90.15625 L 50.71875 90.15625 L 50.71875 92.6875 L 45.1875 92.6875 L 45.1875 95.46875 L 49.875 95.46875 L 49.875 98.03125 L 45.1875 98.03125 L 45.1875 101.15625 L 50.71875 101.15625 L 50.71875 103.65625 L 41.375 103.65625 L 41.375 90.15625 z M 52.34375 90.15625 L 56.0625 90.15625 L 59.375 98.125 L 59.375 90.15625 L 62.75 90.15625 L 62.75 103.65625 L 58.875 103.65625 L 55.78125 96.25 L 55.78125 103.65625 L 52.34375 103.65625 L 52.34375 90.15625 z M 63.9375 90.15625 L 75.6875 90.15625 L 75.6875 92.75 L 71.75 92.75 L 71.75 103.65625 L 67.8125 103.65625 L 67.8125 92.75 L 63.9375 92.75 L 63.9375 90.15625 z M 78.3125 90.15625 L 81.59375 90.15625 L 86.125 103.65625 L 82.4375 103.65625 L 81.8125 101.5 L 78.1875 101.5 L 77.59375 103.65625 L 74.03125 103.65625 L 78.3125 90.15625 z M 86.28125 90.15625 L 90.4375 90.15625 L 92.375 94.28125 L 94.15625 90.15625 L 98 90.15625 L 94.625 96.6875 L 98.75 103.65625 L 94.65625 103.65625 L 92.375 98.96875 L 90.375 103.65625 L 86.15625 103.65625 L 89.96875 96.59375 L 86.28125 90.15625 z M 33.1875 92.59375 L 33.1875 97.6875 L 34.6875 97.6875 C 35.923155 97.6875 36.1875 96.888761 36.1875 96.3125 L 36.1875 93.8125 C 36.1875 93.050609 35.688533 92.59375 34.96875 92.59375 L 33.1875 92.59375 z M 79.96875 94.40625 L 78.78125 99.1875 L 81.15625 99.1875 L 79.96875 94.40625 z " style="fill:#aaaaaa"/>
</svg>