<?xml version="1.0" encoding="UTF-8" standalone="no"?>
<svg xmlns:dc="http://purl.org/dc/elements/1.1/"
     xmlns:cc="http://creativecommons.org/ns#"
     xmlns:rdf="http://www.w3.org/1999/02/22-rdf-syntax-ns#"
     xmlns:svg="http://www.w3.org/2000/svg"
     xmlns="http://www.w3.org/2000/svg"
     xmlns:xlink="http://www.w3.org/1999/xlink"
     width="128" height="128" version="1.1">
    <title>Canon Raw File Icon</title>
    <desc>This is shape (source) for Clarity vector icon theme for gtk</desc>
    <metadata>
        <rdf:RDF>
            <cc:Work rdf:about="">
                <dc:title>Canon Raw File Icon</dc:title>
                <dc:description>This is shape (source) for Clarity vector icon theme for gtk</dc:description>
                <dc:creator>
                    <cc:Agent>
                        <dc:title>Jakub Jankiewicz</dc:title>
                    </cc:Agent>
                </dc:creator>
                <dc:rights>
                    <cc:Agent>
                        <dc:title>Jakub Jankiewicz</dc:title>
                    </cc:Agent>
                </dc:rights>
                <dc:date>2010</dc:date>
                <dc:format>image/svg+xml</dc:format>
                <dc:type rdf:resource="http://purl.org/dc/dcmitype/StillImage" />
                <cc:license rdf:resource="http://www.gnu.org/copyleft/gpl.html" />
             </cc:Work>
        </rdf:RDF>
    </metadata>
    <path d="m 28.5,11.254356 c -2.901875,0.29359 -5.125,2.76518 -5.125,5.75 l 0,94.000004 c 0,3.1838 2.53494,5.75 5.71875,5.75 l 69.8125,0 c 3.1838,0 5.71875,-2.5662 5.71875,-5.75 l 0,-70.625004 -21.03125,0 c -4.30611,0 -8.0625,-3.141114 -8.0625,-7.3125 l 0,-21.8125 -46.4375,0 c -0.198988,0 -0.400292,-0.0196 -0.59375,0 z m 51.03125,0 0,21.8125 c 0,1.71412 1.63197,3.3125 4.0625,3.3125 l 21.03125,0 -25.09375,-25.125 z M 52,35.910606 l 1.25,0 1.1875,2.46875 0.03125,0.53125 -0.375,1.75 2.28125,0.90625 0.96875,-1.4375 0.40625,-0.40625 2.5625,-0.90625 0.875,0.875 -0.90625,2.59375 -0.375,0.40625 -1.46875,0.90625 0.9375,2.34375 1.71875,-0.375 0.5625,0.03125 2.46875,1.15625 0,1.25 -2.46875,1.1875 -0.5625,0 -1.71875,-0.375 -0.9375,2.28125 1.46875,1 0.375,0.40625 0.90625,2.5625 -0.875,0.875 -2.5625,-0.90625 -0.40625,-0.375 -0.96875,-1.46875 -2.28125,0.9375 0.375,1.71875 -0.03125,0.5625 -1.1875,2.4375 -1.25,0 -1.15625,-2.4375 -0.03125,-0.5625 0.375,-1.71875 -2.3125,-0.9375 -0.90625,1.46875 -0.4375,0.375 -2.5625,0.90625 -0.90625,-0.875 0.9375,-2.5625 0.375,-0.40625 1.46875,-1 -0.9375,-2.28125 -1.71875,0.375 -0.5625,0 -2.46875,-1.1875 0,-1.25 2.46875,-1.15625 0.5625,-0.03125 1.71875,0.375 0.9375,-2.34375 -1.46875,-0.90625 -0.375,-0.40625 -0.9375,-2.59375 0.90625,-0.875 2.5625,0.90625 0.4375,0.40625 0.90625,1.4375 2.3125,-0.90625 -0.375,-1.75 0.03125,-0.53125 L 52,35.910606 z m 0.65625,7.6875 c -2.081678,0 -3.8125,1.699573 -3.8125,3.78125 0,2.081678 1.730822,3.75 3.8125,3.75 2.081677,0 3.75,-1.668322 3.75,-3.75 0,-2.081677 -1.668323,-3.78125 -3.75,-3.78125 z m 12.90625,7.34375 2.1875,2.40625 0.34375,0.78125 0.28125,2 3.1875,0 0.28125,-2 0.3125,-0.78125 2.21875,-2.40625 1.59375,0.53125 0.40625,3.21875 -0.21875,0.875 -0.9375,1.71875 2.59375,1.90625 1.34375,-1.4375 0.75,-0.46875 3.1875,-0.625 1,1.375 -1.59375,2.8125 -0.65625,0.5625 -1.78125,0.875 1,3.03125 1.9375,-0.375 0.875,0.09375 2.9375,1.34375 0,1.6875 -2.9375,1.34375 -0.875,0.09375 -1.9375,-0.34375 -1,3.03125 1.78125,0.875 0.65625,0.53125 1.59375,2.90625 -1,1.3125 -3.1875,-0.625 -0.75,-0.46875 -1.34375,-1.40625 -2.59375,1.875 0.9375,1.71875 0.21875,0.875 -0.40625,3.21875 -1.59375,0.53125 -2.21875,-2.40625 -0.3125,-0.8125 -0.28125,-1.9375 -3.1875,0 -0.28125,1.9375 -0.34375,0.8125 -2.1875,2.40625 -1.59375,-0.53125 -0.375,-3.21875 0.21875,-0.875 0.90625,-1.71875 -2.59375,-1.875 -1.34375,1.40625 -0.78125,0.46875 -3.1875,0.625 -0.9375,-1.3125 1.5625,-2.90625 0.65625,-0.53125 1.75,-0.875 -0.9375,-3.03125 -1.96875,0.34375 -0.84375,-0.09375 -2.96875,-1.34375 0,-1.6875 2.96875,-1.34375 0.84375,-0.09375 1.96875,0.375 0.9375,-3.03125 -1.75,-0.875 -0.65625,-0.5625 -1.5625,-2.8125 0.9375,-1.375 3.1875,0.625 0.78125,0.46875 1.34375,1.4375 2.59375,-1.90625 -0.90625,-1.71875 -0.21875,-0.875 0.375,-3.21875 1.59375,-0.53125 z m 4.40625,10.03125 c -3.45971,0 -6.28125,2.821541 -6.28125,6.28125 0,3.459712 2.82154,6.25 6.28125,6.25 3.45971,0 6.28125,-2.790288 6.28125,-6.25 0,-3.459709 -2.82154,-6.28125 -6.28125,-6.28125 z M 37,89.066856 c 2.219072,0 4.21426,0.542775 5.65625,1.40625 1.133933,0.680844 2.065302,1.552476 2.71875,2.59375 l -6,3.5 3.1875,-5.125 c -0.925427,-0.580217 -2.013818,-0.90625 -3.1875,-0.90625 -3.329912,0 -6.03125,2.700535 -6.03125,6.03125 0,3.330715 2.701338,6.031254 6.03125,6.031254 2.046021,0 3.846809,-1.03583 4.9375,-2.59375 l 0.21875,0.875 c -0.07842,0.0989 -0.13388,0.18626 -0.21875,0.28125 -1.553539,1.72372 -4.294782,2.875 -7.40625,2.875 -3.112629,0 -5.85396,-1.15038 -7.40625,-2.875 -1.146283,-1.273776 -1.84375,-2.849882 -1.84375,-4.593754 0,-1.742976 0.697467,-3.351945 1.84375,-4.625 1.54826,-1.722117 4.3358,-2.875 7.5,-2.875 z m 16.34375,2.5625 c 1.64969,0 3.031858,1.103241 3.4375,2.625 l 2.53125,9.437504 -4.375,0 -0.5625,-2.09375 c -1.029993,1.42032 -2.70431,2.34375 -4.59375,2.34375 -2.62391,0 -4.75,-1.73749 -4.75,-3.90625 0,-2.16948 2.12618,-3.937504 4.75,-3.937504 1.321668,0 2.510461,0.483755 3.4375,1.28125 l -0.9375,-3.5625 -5.59375,0 5.4375,-1.96875 c 0.380216,-0.138411 0.790996,-0.21875 1.21875,-0.21875 z m 9.6875,0 c 1.088454,0 1.984092,0.773644 2.15625,1.8125 l 3.5,-1.625 c 0.279231,-0.13115 0.575542,-0.1875 0.90625,-0.1875 1.211104,0 2.1875,0.977292 2.1875,2.1875 l 0,9.875004 -4.375,0 0,-8.781254 c 0,-0.605104 -0.489809,-1.09375 -1.09375,-1.09375 -0.606357,0 -1.09375,0.488646 -1.09375,1.09375 l 0,8.781254 -4.375,0 0,-9.875004 -3,0 4.25,-2 c 0.283259,-0.13115 0.607508,-0.1875 0.9375,-0.1875 z m 16.8125,0 c 3.429372,0 6.1875,2.758665 6.1875,6.1875 0,3.429814 -2.758128,6.218754 -6.1875,6.218754 -3.431341,0 -6.21875,-2.78902 -6.21875,-6.218754 0,-3.428924 2.787319,-6.1875 6.21875,-6.1875 z m 10.6875,0 c 1.088364,0 1.984003,0.773644 2.15625,1.8125 l 3.46875,-1.625 c 0.283618,-0.13115 0.605539,-0.1875 0.9375,-0.1875 1.209134,0 2.1875,0.977292 2.1875,2.1875 l 0,9.875004 -4.375,0 0,-8.781254 c 0,-0.605104 -0.488914,-1.09375 -1.09375,-1.09375 -0.607521,0 -1.09375,0.488646 -1.09375,1.09375 l 0,8.781254 -4.40625,0 0,-9.875004 -2.96875,0 4.25,-2 c 0.283529,-0.13115 0.607956,-0.1875 0.9375,-0.1875 z m -11.84375,0.875 c -0.09085,0.0055 -0.18992,0.0067 -0.28125,0.03125 -0.729187,0.195613 -1.16508,0.95688 -0.96875,1.6875 l 2.125,7.937504 c 0.196778,0.73151 0.957597,1.16266 1.6875,0.96875 0.731067,-0.19714 1.164722,-0.9568 0.96875,-1.6875 l -2.125,-7.937504 c -0.170457,-0.63937 -0.770274,-1.03857 -1.40625,-1 z m -27.09375,5.3125 c -1.210299,0 -2.1875,1.007646 -2.1875,2.218754 0,1.21191 0.977201,2.1875 2.1875,2.1875 1.210656,0 2.21875,-0.97559 2.21875,-2.1875 0,-1.211108 -1.008094,-2.218754 -2.21875,-2.218754 z" style="fill:#aaaaaa"/>
</svg>