<?xml version="1.0" encoding="UTF-8" standalone="no"?>
<svg xmlns:dc="http://purl.org/dc/elements/1.1/"
     xmlns:cc="http://creativecommons.org/ns#"
     xmlns:rdf="http://www.w3.org/1999/02/22-rdf-syntax-ns#"
     xmlns:svg="http://www.w3.org/2000/svg"
     xmlns="http://www.w3.org/2000/svg"
     xmlns:xlink="http://www.w3.org/1999/xlink"
     width="128" height="128" version="1.1">
    <title>Fuji Raw File Icon</title>
    <desc>This is shape (source) for Clarity vector icon theme for gtk</desc>
    <metadata>
        <rdf:RDF>
            <cc:Work rdf:about="">
                <dc:title>Fuji Raw File Icon</dc:title>
                <dc:description>This is shape (source) for Clarity vector icon theme for gtk</dc:description>
                <dc:creator>
                    <cc:Agent>
                        <dc:title>Jakub Jankiewicz</dc:title>
                    </cc:Agent>
                </dc:creator>
                <dc:rights>
                    <cc:Agent>
                        <dc:title>Jakub Jankiewicz</dc:title>
                    </cc:Agent>
                </dc:rights>
                <dc:date>2010</dc:date>
                <dc:format>image/svg+xml</dc:format>
                <dc:type rdf:resource="http://purl.org/dc/dcmitype/StillImage" />
                <cc:license rdf:resource="http://www.gnu.org/copyleft/gpl.html" />
             </cc:Work>
        </rdf:RDF>
    </metadata>
    <path d="M 28.5 11.25 C 25.598125 11.54359 23.375 14.01518 23.375 17 L 23.375 111 C 23.375 114.1838 25.90994 116.75 29.09375 116.75 L 98.90625 116.75 C 102.09005 116.75 104.625 114.1838 104.625 111 L 104.625 40.375 L 83.59375 40.375 C 79.28764 40.375 75.53125 37.233886 75.53125 33.0625 L 75.53125 11.25 L 29.09375 11.25 C 28.894762 11.25 28.693458 11.2304 28.5 11.25 z M 79.53125 11.25 L 79.53125 33.0625 C 79.53125 34.77662 81.16322 36.375 83.59375 36.375 L 104.625 36.375 L 79.53125 11.25 z M 52 35.90625 L 53.25 35.90625 L 54.4375 38.375 L 54.46875 38.90625 L 54.09375 40.65625 L 56.375 41.5625 L 57.34375 40.125 L 57.75 39.71875 L 60.3125 38.8125 L 61.1875 39.6875 L 60.28125 42.28125 L 59.90625 42.6875 L 58.4375 43.59375 L 59.375 45.9375 L 61.09375 45.5625 L 61.65625 45.59375 L 64.125 46.75 L 64.125 48 L 61.65625 49.1875 L 61.09375 49.1875 L 59.375 48.8125 L 58.4375 51.09375 L 59.90625 52.09375 L 60.28125 52.5 L 61.1875 55.0625 L 60.3125 55.9375 L 57.75 55.03125 L 57.34375 54.65625 L 56.375 53.1875 L 54.09375 54.125 L 54.46875 55.84375 L 54.4375 56.40625 L 53.25 58.84375 L 52 58.84375 L 50.84375 56.40625 L 50.8125 55.84375 L 51.1875 54.125 L 48.875 53.1875 L 47.96875 54.65625 L 47.53125 55.03125 L 44.96875 55.9375 L 44.0625 55.0625 L 45 52.5 L 45.375 52.09375 L 46.84375 51.09375 L 45.90625 48.8125 L 44.1875 49.1875 L 43.625 49.1875 L 41.15625 48 L 41.15625 46.75 L 43.625 45.59375 L 44.1875 45.5625 L 45.90625 45.9375 L 46.84375 43.59375 L 45.375 42.6875 L 45 42.28125 L 44.0625 39.6875 L 44.96875 38.8125 L 47.53125 39.71875 L 47.96875 40.125 L 48.875 41.5625 L 51.1875 40.65625 L 50.8125 38.90625 L 50.84375 38.375 L 52 35.90625 z M 52.65625 43.59375 C 50.574572 43.59375 48.84375 45.293323 48.84375 47.375 C 48.84375 49.456678 50.574572 51.125 52.65625 51.125 C 54.737927 51.125 56.40625 49.456678 56.40625 47.375 C 56.40625 45.293323 54.737927 43.59375 52.65625 43.59375 z M 65.5625 50.9375 L 67.75 53.34375 L 68.09375 54.125 L 68.375 56.125 L 71.5625 56.125 L 71.84375 54.125 L 72.15625 53.34375 L 74.375 50.9375 L 75.96875 51.46875 L 76.375 54.6875 L 76.15625 55.5625 L 75.21875 57.28125 L 77.8125 59.1875 L 79.15625 57.75 L 79.90625 57.28125 L 83.09375 56.65625 L 84.09375 58.03125 L 82.5 60.84375 L 81.84375 61.40625 L 80.0625 62.28125 L 81.0625 65.3125 L 83 64.9375 L 83.875 65.03125 L 86.8125 66.375 L 86.8125 68.0625 L 83.875 69.40625 L 83 69.5 L 81.0625 69.15625 L 80.0625 72.1875 L 81.84375 73.0625 L 82.5 73.59375 L 84.09375 76.5 L 83.09375 77.8125 L 79.90625 77.1875 L 79.15625 76.71875 L 77.8125 75.3125 L 75.21875 77.1875 L 76.15625 78.90625 L 76.375 79.78125 L 75.96875 83 L 74.375 83.53125 L 72.15625 81.125 L 71.84375 80.3125 L 71.5625 78.375 L 68.375 78.375 L 68.09375 80.3125 L 67.75 81.125 L 65.5625 83.53125 L 63.96875 83 L 63.59375 79.78125 L 63.8125 78.90625 L 64.71875 77.1875 L 62.125 75.3125 L 60.78125 76.71875 L 60 77.1875 L 56.8125 77.8125 L 55.875 76.5 L 57.4375 73.59375 L 58.09375 73.0625 L 59.84375 72.1875 L 58.90625 69.15625 L 56.9375 69.5 L 56.09375 69.40625 L 53.125 68.0625 L 53.125 66.375 L 56.09375 65.03125 L 56.9375 64.9375 L 58.90625 65.3125 L 59.84375 62.28125 L 58.09375 61.40625 L 57.4375 60.84375 L 55.875 58.03125 L 56.8125 56.65625 L 60 57.28125 L 60.78125 57.75 L 62.125 59.1875 L 64.71875 57.28125 L 63.8125 55.5625 L 63.59375 54.6875 L 63.96875 51.46875 L 65.5625 50.9375 z M 69.96875 60.96875 C 66.50904 60.96875 63.6875 63.790291 63.6875 67.25 C 63.6875 70.709712 66.50904 73.5 69.96875 73.5 C 73.42846 73.5 76.25 70.709712 76.25 67.25 C 76.25 63.790291 73.42846 60.96875 69.96875 60.96875 z M 30.78125 91.6875 L 36.9375 91.6875 L 36.9375 92.75 C 36.9375 92.82195 36.889175 92.90625 36.78125 92.90625 L 33.125 92.90625 C 32.621358 92.90625 32.375 93.121366 32.375 93.625 L 32.375 96.46875 L 36.6875 96.46875 L 36.6875 97.59375 C 36.6875 97.68371 36.62119 97.71875 36.53125 97.71875 L 32.375 97.71875 L 32.375 102.21875 C 32.35701 102.65045 32.123917 102.8125 31.65625 102.8125 L 29.40625 102.8125 L 29.40625 93.21875 C 29.40625 92.373344 29.396234 91.6875 30.78125 91.6875 z M 39.0625 91.6875 L 41.34375 91.6875 L 41.34375 100.1875 C 41.34375 100.90699 41.465109 101.43096 41.96875 101.71875 C 42.481389 102.0155 43.249437 102.0783 43.90625 101.9375 C 44.125188 101.89057 44.324625 101.81315 44.5 101.71875 C 44.616917 101.65129 44.72819 101.5916 44.8125 101.5 C 45.065446 101.22512 45.1875 100.82154 45.1875 100.1875 L 45.1875 92.25 C 45.1875 91.890254 45.308859 91.6875 45.8125 91.6875 L 48.03125 91.6875 L 48.03125 99.9375 C 48.03125 101.84416 46.811244 102.61844 45.75 102.90625 C 44.329006 103.28397 42.174807 103.31994 40.84375 102.90625 C 40.643642 102.84779 40.454623 102.7613 40.28125 102.6875 C 40.107877 102.61365 39.95963 102.5272 39.8125 102.4375 C 38.929723 101.89957 38.5 101.09768 38.5 99.9375 L 38.5 92.25 C 38.5 91.890254 38.630805 91.6875 39.0625 91.6875 z M 53.84375 91.6875 L 56.125 91.6875 L 56.125 98.90625 C 56.125 100.68697 55.779994 101.58829 54.71875 102.34375 C 54.161146 102.73948 53.193529 103.1875 51.125 103.1875 C 49.919856 103.1875 49.4157 103.11175 49.34375 103.09375 C 49.23583 103.07575 49.1875 103.0274 49.1875 102.9375 L 49.1875 102 C 49.673155 102.018 50.797591 102.0634 51.625 101.9375 C 52.866117 101.75762 53.28125 101.01674 53.28125 99.9375 L 53.28125 92.28125 C 53.28125 91.83156 53.53797 91.6875 53.84375 91.6875 z M 59.375 91.6875 L 61.59375 91.6875 L 61.59375 95.25 C 61.59375 95.411893 61.52743 95.49055 61.4375 95.5625 L 58.71875 97.65625 L 58.71875 92.28125 C 58.71875 91.921504 58.871359 91.6875 59.375 91.6875 z M 65.90625 91.6875 L 72.03125 91.6875 L 72.03125 92.75 C 72.03125 92.82195 71.982923 92.90625 71.875 92.90625 L 68.21875 92.90625 C 67.733096 92.90625 67.46875 93.121366 67.46875 93.625 L 67.46875 96.46875 L 71.8125 96.46875 L 71.8125 97.59375 C 71.8125 97.68371 71.732923 97.71875 71.625 97.71875 L 67.46875 97.71875 L 67.46875 102.21875 C 67.450762 102.65045 67.248917 102.8125 66.78125 102.8125 L 64.53125 102.8125 L 64.53125 97.71875 L 62.53125 97.71875 L 64.46875 96.1875 C 64.50472 96.15152 64.53125 96.13444 64.53125 96.0625 L 64.53125 93.21875 C 64.53125 92.373344 64.521234 91.6875 65.90625 91.6875 z M 74.375 91.6875 L 76.59375 91.6875 L 76.59375 102.21875 C 76.59375 102.68644 76.395718 102.8125 76 102.8125 L 73.71875 102.8125 L 73.71875 92.25 C 73.71875 91.908228 73.87136 91.6875 74.375 91.6875 z M 79.9375 91.6875 L 82.125 91.6875 L 82.125 100.6875 C 82.125 101.28108 82.406422 101.589 83 101.625 L 85.96875 101.625 L 85.96875 102.625 C 85.96875 102.7329 85.907162 102.8125 85.78125 102.8125 L 80.96875 102.8125 C 79.493799 102.8125 79.28125 101.98747 79.28125 101.25 L 79.28125 92.3125 C 79.28125 91.880804 79.433859 91.66952 79.9375 91.6875 z M 88 91.6875 L 90.5625 91.6875 L 92.4375 100.125 L 92.5 100.125 L 94.3125 92.4375 C 94.438412 91.933866 94.736909 91.6875 95.3125 91.6875 L 98.625 91.6875 L 98.625 102.125 C 98.625 102.61065 98.391905 102.8125 97.90625 102.8125 L 95.875 102.8125 L 95.875 93.75 L 95.71875 93.75 L 93.625 102 C 93.481102 102.57557 93.245106 102.8125 92.6875 102.8125 L 91.1875 102.8125 L 88.84375 93.75 L 88.6875 93.75 L 88.6875 102.5625 C 88.6875 102.7424 88.599386 102.8125 88.4375 102.8125 L 87.375 102.8125 L 87.375 92.34375 C 87.375 91.948025 87.496358 91.6875 88 91.6875 z M 58.71875 97.71875 L 61.59375 97.71875 L 61.59375 102.21875 C 61.59375 102.68644 61.395719 102.8125 61 102.8125 L 58.71875 102.8125 L 58.71875 97.71875 z " style="fill:#aaaaaa"/>
</svg>