<?xml version="1.0" encoding="UTF-8" standalone="no"?>
<svg xmlns:dc="http://purl.org/dc/elements/1.1/"
     xmlns:cc="http://creativecommons.org/ns#"
     xmlns:rdf="http://www.w3.org/1999/02/22-rdf-syntax-ns#"
     xmlns:svg="http://www.w3.org/2000/svg"
     xmlns="http://www.w3.org/2000/svg"
     xmlns:xlink="http://www.w3.org/1999/xlink"
     width="128" height="128" version="1.1">
    <title>Kodak raw file icon</title>
    <desc>This is shape (source) for Clarity vector icon theme for gtk</desc>
    <metadata>
        <rdf:RDF>
            <cc:Work rdf:about="">
                <dc:title>Kodak raw file icon</dc:title>
                <dc:description>This is shape (source) for Clarity vector icon theme for gtk</dc:description>
                <dc:creator>
                    <cc:Agent>
                        <dc:title>Jakub Jankiewicz</dc:title>
                    </cc:Agent>
                </dc:creator>
                <dc:rights>
                    <cc:Agent>
                        <dc:title>Jakub Jankiewicz</dc:title>
                    </cc:Agent>
                </dc:rights>
                <dc:date>2010</dc:date>
                <dc:format>image/svg+xml</dc:format>
                <dc:type rdf:resource="http://purl.org/dc/dcmitype/StillImage" />
                <cc:license rdf:resource="http://creativecommons.org/licenses/by-sa/3.0/" />
             </cc:Work>
        </rdf:RDF>
    </metadata>
    <path d="M 28.5 11.253906 C 25.598125 11.547496 23.375 14.019086 23.375 17.003906 L 23.375 111.00391 C 23.375 114.18771 25.90994 116.75391 29.09375 116.75391 L 98.90625 116.75391 C 102.09005 116.75391 104.625 114.18771 104.625 111.00391 L 104.625 40.378906 L 83.59375 40.378906 C 79.28764 40.378906 75.53125 37.237792 75.53125 33.066406 L 75.53125 11.253906 L 29.09375 11.253906 C 28.894762 11.253906 28.693458 11.234306 28.5 11.253906 z M 79.53125 11.253906 L 79.53125 33.066406 C 79.53125 34.780526 81.16322 36.378906 83.59375 36.378906 L 104.625 36.378906 L 79.53125 11.253906 z M 52 35.910156 L 53.25 35.910156 L 54.4375 38.378906 L 54.46875 38.910156 L 54.09375 40.660156 L 56.375 41.566406 L 57.34375 40.128906 L 57.75 39.722656 L 60.3125 38.816406 L 61.1875 39.691406 L 60.28125 42.285156 L 59.90625 42.691406 L 58.4375 43.597656 L 59.375 45.941406 L 61.09375 45.566406 L 61.65625 45.597656 L 64.125 46.753906 L 64.125 48.003906 L 61.65625 49.191406 L 61.09375 49.191406 L 59.375 48.816406 L 58.4375 51.097656 L 59.90625 52.097656 L 60.28125 52.503906 L 61.1875 55.066406 L 60.3125 55.941406 L 57.75 55.035156 L 57.34375 54.660156 L 56.375 53.191406 L 54.09375 54.128906 L 54.46875 55.847656 L 54.4375 56.410156 L 53.25 58.847656 L 52 58.847656 L 50.84375 56.410156 L 50.8125 55.847656 L 51.1875 54.128906 L 48.875 53.191406 L 47.96875 54.660156 L 47.53125 55.035156 L 44.96875 55.941406 L 44.0625 55.066406 L 45 52.503906 L 45.375 52.097656 L 46.84375 51.097656 L 45.90625 48.816406 L 44.1875 49.191406 L 43.625 49.191406 L 41.15625 48.003906 L 41.15625 46.753906 L 43.625 45.597656 L 44.1875 45.566406 L 45.90625 45.941406 L 46.84375 43.597656 L 45.375 42.691406 L 45 42.285156 L 44.0625 39.691406 L 44.96875 38.816406 L 47.53125 39.722656 L 47.96875 40.128906 L 48.875 41.566406 L 51.1875 40.660156 L 50.8125 38.910156 L 50.84375 38.378906 L 52 35.910156 z M 52.65625 43.597656 C 50.574572 43.597656 48.84375 45.297229 48.84375 47.378906 C 48.84375 49.460584 50.574572 51.128906 52.65625 51.128906 C 54.737927 51.128906 56.40625 49.460584 56.40625 47.378906 C 56.40625 45.297229 54.737927 43.597656 52.65625 43.597656 z M 65.5625 50.941406 L 67.75 53.347656 L 68.09375 54.128906 L 68.375 56.128906 L 71.5625 56.128906 L 71.84375 54.128906 L 72.15625 53.347656 L 74.375 50.941406 L 75.96875 51.472656 L 76.375 54.691406 L 76.15625 55.566406 L 75.21875 57.285156 L 77.8125 59.191406 L 79.15625 57.753906 L 79.90625 57.285156 L 83.09375 56.660156 L 84.09375 58.035156 L 82.5 60.847656 L 81.84375 61.410156 L 80.0625 62.285156 L 81.0625 65.316406 L 83 64.941406 L 83.875 65.035156 L 86.8125 66.378906 L 86.8125 68.066406 L 83.875 69.410156 L 83 69.503906 L 81.0625 69.160156 L 80.0625 72.191406 L 81.84375 73.066406 L 82.5 73.597656 L 84.09375 76.503906 L 83.09375 77.816406 L 79.90625 77.191406 L 79.15625 76.722656 L 77.8125 75.316406 L 75.21875 77.191406 L 76.15625 78.910156 L 76.375 79.785156 L 75.96875 83.003906 L 74.375 83.535156 L 72.15625 81.128906 L 71.84375 80.316406 L 71.5625 78.378906 L 68.375 78.378906 L 68.09375 80.316406 L 67.75 81.128906 L 65.5625 83.535156 L 63.96875 83.003906 L 63.59375 79.785156 L 63.8125 78.910156 L 64.71875 77.191406 L 62.125 75.316406 L 60.78125 76.722656 L 60 77.191406 L 56.8125 77.816406 L 55.875 76.503906 L 57.4375 73.597656 L 58.09375 73.066406 L 59.84375 72.191406 L 58.90625 69.160156 L 56.9375 69.503906 L 56.09375 69.410156 L 53.125 68.066406 L 53.125 66.378906 L 56.09375 65.035156 L 56.9375 64.941406 L 58.90625 65.316406 L 59.84375 62.285156 L 58.09375 61.410156 L 57.4375 60.847656 L 55.875 58.035156 L 56.8125 56.660156 L 60 57.285156 L 60.78125 57.753906 L 62.125 59.191406 L 64.71875 57.285156 L 63.8125 55.566406 L 63.59375 54.691406 L 63.96875 51.472656 L 65.5625 50.941406 z M 69.96875 60.972656 C 66.50904 60.972656 63.6875 63.794197 63.6875 67.253906 C 63.6875 70.713618 66.50904 73.503906 69.96875 73.503906 C 73.42846 73.503906 76.25 70.713618 76.25 67.253906 C 76.25 63.794197 73.42846 60.972656 69.96875 60.972656 z M 66.994141 91.404297 L 70.664062 91.404297 L 70.664062 102.00977 C 70.664062 105.46205 68.490298 108.26172 64.269531 108.26172 C 60.048765 108.26172 57.839844 105.46205 57.839844 102.00977 C 57.839844 98.558049 60.082277 95.757812 64.269531 95.757812 C 65.308967 95.757812 66.266593 96.032641 66.994141 96.496094 L 66.994141 91.404297 z M 84.947266 91.404297 L 88.779297 91.404297 L 88.779297 100.89648 L 92.554688 96.142578 L 96.777344 96.142578 L 92.25 101.76367 L 97.177734 107.93359 L 92.519531 107.93359 L 88.779297 103.18555 L 88.779297 107.93359 L 84.947266 107.93359 L 84.947266 91.404297 z M 30.822266 91.904297 L 34.654297 91.904297 L 34.654297 98.425781 L 39.845703 91.904297 L 44.564453 91.904297 L 38.558594 99.404297 L 44.857422 107.93359 L 39.845703 107.93359 L 34.654297 100.79297 L 34.654297 107.93359 L 30.822266 107.93359 L 30.822266 91.904297 z M 77.990234 95.707031 C 81.456986 95.707031 83.349609 97.127737 83.349609 100.44141 L 83.349609 103.90234 C 83.349609 106.34641 81.10344 108.26172 77.658203 108.26172 C 73.921072 108.26172 71.798828 106.65971 71.798828 104.00391 C 71.798828 101.01355 73.895487 100.23828 77.306641 100.23828 L 80.064453 100.23828 C 80.064453 98.85821 79.112871 98.410156 77.337891 98.410156 C 75.77731 98.410156 74.38093 98.709883 73.769531 99.085938 L 73.769531 96.306641 C 74.812775 95.866418 76.658523 95.707031 77.990234 95.707031 z M 50.308594 95.757812 C 54.519079 95.757812 56.773438 98.558049 56.773438 102.00977 C 56.773438 105.46205 54.552971 108.26172 50.308594 108.26172 C 46.064217 108.26172 43.841797 105.46205 43.841797 102.00977 C 43.841797 98.558049 46.097919 95.757812 50.308594 95.757812 z M 50.308594 98.724609 C 48.395759 98.724609 47.371094 100.19556 47.371094 102.00977 C 47.371094 103.82416 48.380907 105.29492 50.308594 105.29492 C 52.235901 105.29492 53.244141 103.82416 53.244141 102.00977 C 53.244141 100.19556 52.220858 98.724609 50.308594 98.724609 z M 64.269531 98.724609 C 62.36774 98.724609 61.349609 100.19556 61.349609 102.00977 C 61.349609 103.82416 62.353078 105.29492 64.269531 105.29492 C 66.186556 105.29492 67.189453 103.82416 67.189453 102.00977 C 67.189453 100.19556 66.171894 98.724609 64.269531 98.724609 z M 77.404297 102.57422 C 75.933017 102.57422 75.083984 102.86315 75.083984 103.85156 C 75.083984 104.77827 75.998335 105.29492 77.609375 105.29492 C 79.095126 105.29492 80.064453 104.64544 80.064453 103.81641 L 80.064453 102.57422 L 77.404297 102.57422 z " style="fill:#aaaaaa"/>
</svg>