<?xml version="1.0" encoding="UTF-8" standalone="no"?>
<svg xmlns:dc="http://purl.org/dc/elements/1.1/"
     xmlns:cc="http://creativecommons.org/ns#"
     xmlns:rdf="http://www.w3.org/1999/02/22-rdf-syntax-ns#"
     xmlns:svg="http://www.w3.org/2000/svg"
     xmlns="http://www.w3.org/2000/svg"
     xmlns:xlink="http://www.w3.org/1999/xlink"
     width="128" height="128" version="1.1">
    <title>Minolta raw file icon</title>
    <desc>This is shape (source) for Clarity vector icon theme for gtk</desc>
    <metadata>
        <rdf:RDF>
            <cc:Work rdf:about="">
                <dc:title>Minolta raw file icon</dc:title>
                <dc:description>This is shape (source) for Clarity vector icon theme for gtk</dc:description>
                <dc:creator>
                    <cc:Agent>
                        <dc:title>Jakub Jankiewicz</dc:title>
                    </cc:Agent>
                </dc:creator>
                <dc:rights>
                    <cc:Agent>
                        <dc:title>Jakub Jankiewicz</dc:title>
                    </cc:Agent>
                </dc:rights>
                <dc:date>2010</dc:date>
                <dc:format>image/svg+xml</dc:format>
                <dc:type rdf:resource="http://purl.org/dc/dcmitype/StillImage" />
                <cc:license rdf:resource="http://creativecommons.org/licenses/by-sa/3.0/" />
             </cc:Work>
        </rdf:RDF>
    </metadata>
    <path d="M 28.5 11.253906 C 25.598125 11.547496 23.375 14.019086 23.375 17.003906 L 23.375 111.00391 C 23.375 114.18771 25.90994 116.75391 29.09375 116.75391 L 98.90625 116.75391 C 102.09005 116.75391 104.625 114.18771 104.625 111.00391 L 104.625 40.378906 L 83.59375 40.378906 C 79.28764 40.378906 75.53125 37.237792 75.53125 33.066406 L 75.53125 11.253906 L 29.09375 11.253906 C 28.894762 11.253906 28.693458 11.234306 28.5 11.253906 z M 79.53125 11.253906 L 79.53125 33.066406 C 79.53125 34.780526 81.16322 36.378906 83.59375 36.378906 L 104.625 36.378906 L 79.53125 11.253906 z M 52 35.910156 L 53.25 35.910156 L 54.4375 38.378906 L 54.46875 38.910156 L 54.09375 40.660156 L 56.375 41.566406 L 57.34375 40.128906 L 57.75 39.722656 L 60.3125 38.816406 L 61.1875 39.691406 L 60.28125 42.285156 L 59.90625 42.691406 L 58.4375 43.597656 L 59.375 45.941406 L 61.09375 45.566406 L 61.65625 45.597656 L 64.125 46.753906 L 64.125 48.003906 L 61.65625 49.191406 L 61.09375 49.191406 L 59.375 48.816406 L 58.4375 51.097656 L 59.90625 52.097656 L 60.28125 52.503906 L 61.1875 55.066406 L 60.3125 55.941406 L 57.75 55.035156 L 57.34375 54.660156 L 56.375 53.191406 L 54.09375 54.128906 L 54.46875 55.847656 L 54.4375 56.410156 L 53.25 58.847656 L 52 58.847656 L 50.84375 56.410156 L 50.8125 55.847656 L 51.1875 54.128906 L 48.875 53.191406 L 47.96875 54.660156 L 47.53125 55.035156 L 44.96875 55.941406 L 44.0625 55.066406 L 45 52.503906 L 45.375 52.097656 L 46.84375 51.097656 L 45.90625 48.816406 L 44.1875 49.191406 L 43.625 49.191406 L 41.15625 48.003906 L 41.15625 46.753906 L 43.625 45.597656 L 44.1875 45.566406 L 45.90625 45.941406 L 46.84375 43.597656 L 45.375 42.691406 L 45 42.285156 L 44.0625 39.691406 L 44.96875 38.816406 L 47.53125 39.722656 L 47.96875 40.128906 L 48.875 41.566406 L 51.1875 40.660156 L 50.8125 38.910156 L 50.84375 38.378906 L 52 35.910156 z M 52.65625 43.597656 C 50.574572 43.597656 48.84375 45.297229 48.84375 47.378906 C 48.84375 49.460584 50.574572 51.128906 52.65625 51.128906 C 54.737927 51.128906 56.40625 49.460584 56.40625 47.378906 C 56.40625 45.297229 54.737927 43.597656 52.65625 43.597656 z M 65.5625 50.941406 L 67.75 53.347656 L 68.09375 54.128906 L 68.375 56.128906 L 71.5625 56.128906 L 71.84375 54.128906 L 72.15625 53.347656 L 74.375 50.941406 L 75.96875 51.472656 L 76.375 54.691406 L 76.15625 55.566406 L 75.21875 57.285156 L 77.8125 59.191406 L 79.15625 57.753906 L 79.90625 57.285156 L 83.09375 56.660156 L 84.09375 58.035156 L 82.5 60.847656 L 81.84375 61.410156 L 80.0625 62.285156 L 81.0625 65.316406 L 83 64.941406 L 83.875 65.035156 L 86.8125 66.378906 L 86.8125 68.066406 L 83.875 69.410156 L 83 69.503906 L 81.0625 69.160156 L 80.0625 72.191406 L 81.84375 73.066406 L 82.5 73.597656 L 84.09375 76.503906 L 83.09375 77.816406 L 79.90625 77.191406 L 79.15625 76.722656 L 77.8125 75.316406 L 75.21875 77.191406 L 76.15625 78.910156 L 76.375 79.785156 L 75.96875 83.003906 C 73.98165 84.01336 73.504923 82.591552 72.15625 81.128906 L 71.84375 80.316406 L 71.5625 78.378906 L 68.375 78.378906 L 68.09375 80.316406 L 67.75 81.128906 C 66.287033 82.87972 66.050795 83.697921 63.96875 83.003906 L 63.59375 79.785156 L 63.8125 78.910156 L 64.71875 77.191406 L 62.125 75.316406 L 60.78125 76.722656 L 60 77.191406 L 56.8125 77.816406 L 55.875 76.503906 L 57.4375 73.597656 L 58.09375 73.066406 L 59.84375 72.191406 L 58.90625 69.160156 L 56.9375 69.503906 L 56.09375 69.410156 L 53.125 68.066406 L 53.125 66.378906 L 56.09375 65.035156 L 56.9375 64.941406 L 58.90625 65.316406 L 59.84375 62.285156 L 58.09375 61.410156 L 57.4375 60.847656 L 55.875 58.035156 L 56.8125 56.660156 L 60 57.285156 L 60.78125 57.753906 L 62.125 59.191406 L 64.71875 57.285156 L 63.8125 55.566406 L 63.59375 54.691406 L 63.96875 51.472656 L 65.5625 50.941406 z M 69.96875 60.972656 C 66.50904 60.972656 63.6875 63.794197 63.6875 67.253906 C 63.6875 70.713618 66.50904 73.503906 69.96875 73.503906 C 73.42846 73.503906 76.25 70.713618 76.25 67.253906 C 76.25 63.794197 73.42846 60.972656 69.96875 60.972656 z M 67.662109 95.619141 C 69.579066 95.592327 71.48042 96.61578 72.480469 98.287109 C 73.981085 100.59704 73.560926 103.93509 71.503906 105.80664 C 70.34051 106.88574 68.686475 107.44255 67.101562 107.24023 C 65.280597 107.02103 63.646496 105.82373 62.820312 104.20508 C 61.774946 102.19866 61.994367 99.619276 63.376953 97.832031 C 64.101971 96.854104 65.163496 96.128948 66.34375 95.808594 C 66.776864 95.685302 67.219735 95.625341 67.662109 95.619141 z M 33.126953 95.640625 C 34.829895 97.916838 36.044868 100.51281 37.191406 103.10938 C 37.781532 101.42329 38.675772 99.856398 39.501953 98.271484 C 40.041499 97.361001 40.513466 96.382504 41.289062 95.640625 C 42.553622 99.366866 43.395122 103.21023 44.373047 107.00391 L 42.486328 107.00391 C 41.896202 104.52538 41.372414 102.0137 40.714844 99.535156 C 39.534586 101.59218 38.624487 103.80171 37.832031 106.02734 C 37.376788 106.02734 36.922041 106.00977 36.466797 106.00977 C 35.927253 104.30683 35.234587 102.6538 34.458984 101.03516 C 34.189215 100.51247 33.954919 99.974051 33.583984 99.501953 C 32.993853 101.99736 32.418971 104.49165 31.845703 107.00391 C 31.221855 107.02081 30.598459 107.00391 29.974609 107.00391 C 30.80079 103.61488 31.643169 100.22711 32.621094 96.888672 C 32.77284 96.467159 32.840321 95.9947 33.126953 95.640625 z M 92.074219 95.673828 C 94.063797 99.45065 96.052684 103.22709 98.025391 107.00391 C 97.317237 107.02081 96.626122 107.00458 95.917969 107.02148 C 94.602831 104.54293 93.354201 102.03128 92.039062 99.552734 C 90.909381 102.03128 89.881627 104.54293 88.751953 107.02148 C 88.178684 107.00458 87.604512 107.00458 87.03125 107.02148 C 88.666743 103.21093 90.388132 99.450648 92.074219 95.673828 z M 51.582031 95.884766 C 51.868662 95.886872 52.146757 95.927809 52.382812 96.113281 C 54.878207 97.748781 56.969251 99.973349 58.587891 102.46875 C 58.587891 100.27684 58.519531 98.084481 58.519531 95.892578 C 59.143383 95.909408 59.751148 95.909408 60.375 95.892578 C 60.39183 99.601953 60.375 103.31139 60.375 107.00391 L 58.992188 107.00391 C 57.693907 103.58116 55.485601 100.41209 52.484375 98.253906 C 52.534965 101.17083 52.551469 104.08699 52.568359 107.00391 L 50.712891 107.00391 C 50.729721 103.31139 50.713639 99.601953 50.730469 95.892578 C 51.000239 95.917898 51.2954 95.882966 51.582031 95.884766 z M 46.144531 95.892578 C 46.768383 95.909408 47.376149 95.893326 48 95.910156 C 48.01689 99.602671 47.998735 103.29576 48.015625 106.98828 C 47.391773 107.02208 46.750805 107.00391 46.126953 107.00391 C 46.143783 103.29453 46.110811 99.601953 46.144531 95.892578 z M 75.179688 95.892578 C 75.786677 95.909408 76.409348 95.892578 77.033203 95.892578 C 77.016273 99.096134 77.032555 102.30035 77.015625 105.50391 C 78.549961 105.50391 80.084812 105.52081 81.619141 105.50391 L 81.619141 107.00391 L 75.162109 107.00391 C 75.178969 103.31139 75.162828 99.601953 75.179688 95.892578 z M 80.625 95.892578 C 83.154116 95.892578 85.683766 95.909408 88.212891 95.892578 L 88.212891 97.376953 L 85.345703 97.376953 L 85.345703 107.00391 L 83.490234 107.00391 L 83.490234 97.376953 L 80.625 97.376953 L 80.625 95.892578 z M 67.810547 97.085938 C 67.557089 97.082667 67.302482 97.110608 67.052734 97.173828 C 66.12539 97.393021 65.331477 97.999988 64.859375 98.826172 C 64.218657 99.922128 64.13413 101.23792 64.302734 102.46875 C 64.471344 103.64901 65.129885 104.81273 66.208984 105.36914 C 67.186905 105.92551 68.417837 105.90796 69.378906 105.35156 C 70.457987 104.79515 71.098971 103.63339 71.267578 102.45312 C 71.436184 101.15484 71.334912 99.737818 70.576172 98.625 C 69.9871 97.707138 68.908857 97.100117 67.810547 97.085938 z " style="fill:#aaaaaa"/>
</svg>