<?xml version="1.0" encoding="UTF-8" standalone="no"?>
<svg xmlns:dc="http://purl.org/dc/elements/1.1/"
     xmlns:cc="http://creativecommons.org/ns#"
     xmlns:rdf="http://www.w3.org/1999/02/22-rdf-syntax-ns#"
     xmlns:svg="http://www.w3.org/2000/svg"
     xmlns="http://www.w3.org/2000/svg"
     xmlns:xlink="http://www.w3.org/1999/xlink"
     width="128" height="128" version="1.1">
    <title>Libreoffice Web Icon</title>
    <desc>This is shape (source) for Clarity vector icon theme for gtk</desc>
    <metadata>
        <rdf:RDF>
            <cc:Work rdf:about="">
                <dc:title>Libreoffice Web Icon</dc:title>
                <dc:description>This is shape (source) for Clarity vector icon theme for gtk</dc:description>
                <dc:creator>
                    <cc:Agent>
                        <dc:title>Jakub Jankiewicz</dc:title>
                    </cc:Agent>
                </dc:creator>
                <dc:rights>
                    <cc:Agent>
                        <dc:title>Jakub Jankiewicz</dc:title>
                    </cc:Agent>
                </dc:rights>
                <dc:date>2010</dc:date>
                <dc:format>image/svg+xml</dc:format>
                <dc:type rdf:resource="http://purl.org/dc/dcmitype/StillImage" />
                <cc:license rdf:resource="http://creativecommons.org/licenses/by-sa/3.0/" />
             </cc:Work>
        </rdf:RDF>
    </metadata>
    <path d="m 25.156248,7.84375 c -3.22156,0 -5.875,2.684691 -5.875,5.90625 v 100.53125 c 0,3.22156 2.63803,5.875 5.875,5.875 H 102.8125 c 3.23697,0 5.90625,-2.63803 5.90625,-5.875 v -64.5 -0.8125 L 108.125,48.375 68.249998,8.4375 67.656248,7.84375 h -0.84375 z M 104.375,8.28125 c -1.85598,0 -18.183618,0.15625 -21.406252,0.15625 -3.222628,0 -4.219717,2.369414 -2.28125,4.75 1.938464,2.380585 21.831862,21.855357 22.937502,23.125 1.47948,1.698904 4.6875,1.494527 4.6875,-2.4375 V 12.21875 c 0,-1.885016 -1.46855,-3.9375 -3.9375,-3.9375 z m -79.218752,3.5625 h 40.8125 l 38.750002,38.75 v 63.6875 c 0,1.06561 -0.84066,1.875 -1.90625,1.875 H 25.156248 c -1.06561,0 -1.875,-0.79398 -1.875,-1.875 V 13.75 c 0,-1.081013 0.79398,-1.90625 1.875,-1.90625 z m 6.48828,47.003906 c -0.554,0 -1,0.446 -1,1 v 2.06836 c 0,0.554 0.446,1 1,1 h 64.169923 c 0.554,0 1,-0.446 1,-1 v -2.06836 c 0,-0.554 -0.446,-1 -1,-1 z m 0,11.185547 c -0.554,0 -1,0.446 -1,1 v 2.068359 c 0,0.554001 0.446,1 1,1 h 64.169923 c 0.554,0 1,-0.445999 1,-1 v -2.068359 c 0,-0.554 -0.446,-1 -1,-1 z m 0,11.1875 c -0.554,0 -1,0.446 -1,1 v 2.068359 c 0,0.554001 0.446,1 1,1 h 36.222657 c 0.554,0 1,-0.445999 1,-1 v -2.068359 c 0,-0.554 -0.446,-1 -1,-1 z m 51.337892,0.976563 c -7.622321,0 -13.798829,6.176505 -13.798829,13.798828 0,7.622606 6.176509,13.806636 13.798829,13.806636 7.621626,0 13.800781,-6.18396 13.800781,-13.806636 0,-7.622323 -6.179155,-13.798828 -13.800781,-13.798828 z m 0,1.05664 c 0.225095,0 0.447707,0.0041 0.669921,0.01563 l 0.716797,0.283203 -0.611328,1.548828 c -0.746329,0.345197 -1.449168,0.620518 -2.234375,0.863282 L 81.017576,86.769531 80.60742,87 79.996091,85.792969 80.458982,85.332031 v -0.46289 l -1.169922,-0.802735 0.357422,-0.34375 0.669922,-0.185547 0.09766,-0.02344 c 0.829875,-0.169602 1.687997,-0.259766 2.56836,-0.259766 z m -5.623047,1.310547 0.04492,0.246094 0.96875,0.119141 0.253907,0.513671 0.558593,0.230469 -0.507811,0.462891 c -0.338973,-0.229759 -0.680838,-0.463252 -1.019531,-0.69336 l -0.50586,-0.171875 c -0.223256,0.149211 -0.444859,0.307877 -0.664062,0.462891 l -0.251953,0.572266 h -0.507813 l 0.253907,-0.632813 0.410156,-0.341797 -0.02344,-0.230469 c 0.09045,-0.05493 0.183485,-0.111341 0.275391,-0.164062 l 0.05273,0.103516 0.08984,-0.185547 c 0.186892,-0.104061 0.379724,-0.196238 0.572266,-0.291016 z m -2.136719,0.423828 h 0.02344 c -0.01132,0.008 -0.01996,0.02324 -0.03125,0.03125 z m 14.203125,0.0078 c 0.414009,0.242665 0.809006,0.5105 1.191406,0.796875 h -0.238281 l 0.654297,0.685547 0.1875,-0.208985 c 2.24773,1.904929 3.820109,4.575587 4.326172,7.611328 -0.09557,-0.08878 -0.193122,-0.17871 -0.291016,-0.267578 l -0.587891,0.08984 -0.529296,-0.603516 v 0.744141 l 0.455078,0.349609 0.304687,0.34375 0.410156,-0.46289 c 0.102436,0.191861 0.20295,0.382356 0.304688,0.574219 v 0.580078 l -0.460938,0.513672 -0.841797,0.574218 -0.611328,0.611328 c 0.296025,-0.02132 0.591937,-0.05172 0.894532,-0.08984 v 0.402343 l -0.611328,1.496094 -0.558594,0.632813 -0.453125,0.976563 v 1.60742 l 0.148437,0.63477 -0.253906,0.28906 -0.558594,0.34375 -0.58789,0.49024 0.484375,0.54492 -0.65625,0.58008 0.126953,0.37304 -0.46875,0.5293 c -0.244779,0.20694 -0.499676,0.40743 -0.759766,0.5957 h -0.423828 l -0.558594,0.3418 h -0.357422 v -0.46094 l -0.15625,-0.92382 c -0.196686,-0.57768 -0.395223,-1.14715 -0.603515,-1.72071 0,-0.42337 0.0196,-0.84232 0.04492,-1.26562 l 0.259765,-0.57422 -0.357422,-0.69336 0.02148,-0.95313 -0.482422,-0.542968 0.244141,-0.789063 -0.394532,-0.447265 h -0.683594 l -0.232421,-0.259766 -0.683594,0.43164 -0.283203,-0.3125 -0.632813,0.542969 c -0.43155,-0.489233 -0.864699,-0.977912 -1.296875,-1.466797 l -0.505859,-1.207031 0.453125,-0.691406 -0.251953,-0.283203 0.558593,-1.326172 c 0.458891,-0.570831 0.937049,-1.118324 1.421876,-1.667969 l 0.863281,-0.230469 0.96875,-0.11914 0.662109,0.177734 0.939453,0.945313 0.328125,-0.371094 0.460938,-0.06055 0.863281,0.291016 h 0.65625 l 0.460937,-0.402344 0.201172,-0.291016 -0.453125,-0.289062 -0.767578,-0.05273 c -0.211649,-0.293596 -0.404954,-0.602408 -0.65625,-0.863281 l -0.259765,0.111328 -0.09766,0.751953 -0.460937,-0.521484 -0.09766,-0.574219 -0.50586,-0.402344 H 88.44139 l 0.507812,0.574219 -0.201172,0.521485 -0.402343,0.111328 0.251953,-0.513672 -0.460938,-0.230469 -0.402343,-0.462891 -0.767579,0.171876 -0.0957,0.230468 -0.46289,0.291016 -0.251953,0.632812 -0.632813,0.3125 -0.283203,-0.3125 H 84.93358 v -1.042968 l 0.664063,-0.341797 h 0.505859 l -0.09766,-0.402344 -0.408203,-0.402344 0.685547,-0.140625 0.378906,-0.43164 0.304687,-0.521485 h 0.558594 l -0.148437,-0.402343 0.357422,-0.230469 v 0.460937 l 0.759765,0.171875 0.759766,-0.632812 0.05273,-0.283203 0.66211,-0.462891 c -0.238991,0.02972 -0.481309,0.04777 -0.714844,0.111328 v -0.513672 l 0.253906,-0.580078 h -0.253906 l -0.558594,0.521485 -0.148437,0.291015 0.148437,0.400391 -0.253906,0.685547 -0.402344,-0.230469 -0.357422,-0.402344 -0.558594,0.402344 -0.207031,-0.916016 0.966797,-0.632812 v -0.341797 l 0.611328,-0.402344 z m -13.509766,0.394531 -0.0293,0.455078 -0.566406,0.521485 -1.265625,0.74414 0.148438,0.521484 0.966797,0.402344 0.15039,0.69336 0.357425,-0.753894 0.558594,-0.230468 -0.05273,-0.341797 0.566407,-0.976563 0.707031,0.402344 -0.103516,0.462891 0.609375,-0.232422 0.253906,0.515625 -0.09766,0.349609 0.357422,0.111328 0.306641,0.291016 -0.10547,0.341797 -0.863281,0.291015 h -0.611328 l -0.863282,0.402344 h 1.371094 l -0.455078,0.683594 -0.916016,0.179687 -0.410156,0.574219 -0.707031,0.28125 -0.357422,0.865234 -0.96875,0.804688 -0.0957,1.154297 -0.558594,-0.693359 -0.767578,-0.171876 -0.0957,0.34375 h -0.611328 l -0.767578,0.580079 -0.0957,0.685547 0.05078,0.632812 0.507812,0.291016 0.357422,-0.171875 0.34961,-0.460938 h 0.357421 c -0.05125,0.402812 -0.09754,0.802195 -0.148437,1.205078 l 0.609375,-0.05859 v 0.632812 l 0.201172,0.580078 c 0.246541,0.151587 0.58835,0.158362 0.865234,0.238281 v -0.125 l 0.916016,-0.804687 0.863281,0.632812 1.011719,-0.111328 0.410156,1.085938 0.759766,0.171875 0.410156,0.8125 c 0.828208,0.426026 1.651898,0.851828 2.486328,1.265618 l -0.103516,0.85547 -0.603515,0.86524 0.09766,1.15429 -0.402344,0.91602 -0.767578,0.17773 -0.349609,0.51368 0.148437,0.34375 -0.505859,1.26562 -0.664063,0.23047 -0.148437,0.40234 -0.253906,0.25391 c -0.647889,-0.31899 -1.257943,-0.69706 -1.837903,-1.11719 l 0.15625,-0.68555 -0.306641,-0.69335 0.05273,-1.20508 -0.410156,-0.57422 -0.908204,-0.8125 -0.916015,-1.66797 0.253906,-0.855469 -0.105469,-0.230469 0.306641,-0.46289 0.408203,-1.09375 v -0.08984 L 73.748044,97.8125 73.337888,97.873047 72.630857,97.351562 72.16992,96.777344 71.105466,96.488281 70.240232,95.980469 c 0.0051,-4.420977 2.257434,-8.308903 5.675781,-10.589844 z m 8.503907,0.34375 0.30664,0.341797 -0.611328,0.402344 -0.357422,-0.222657 0.05273,-0.351562 0.201172,0.06055 z m -6.708985,0.111328 0.505859,0.230469 v 0.402344 h -0.402343 l -0.50586,-0.341797 z m 8.035156,1.326172 h 0.296875 c 0.149561,0.305203 0.290662,0.603667 0.410157,0.921875 l 0.357421,0.34375 -0.408203,0.402344 -0.558593,0.11914 0.103515,-0.693359 v -0.521484 l -0.201172,-0.230469 z m -0.208984,0.691406 0.208984,0.513672 -0.460937,0.232422 -0.105469,-0.634766 z m -7.015625,1.035157 0.462891,0.34375 -0.306641,0.46095 z M 31.644528,92.40625 c -0.554,0 -1,0.446 -1,1 v 2.068359 c 0,0.554 0.446,1 1,1 h 31.031251 c 0.554,0 1,-0.446 1,-1 V 93.40625 c 0,-0.554 -0.446,-1 -1,-1 z m 60.156251,0.984375 -0.15625,0.169922 0.230469,0.833984 0.43164,0.484375 c 0.246466,0.711512 0.488835,1.390196 0.8125,2.070313 0.184304,0 0.36374,-0.0015 0.542969,-0.01367 l -0.386719,-0.447266 0.201172,-0.513672 -0.410156,-0.46289 -0.685547,-1.466797 z M 31.644528,103.59375 c -0.554,0 -1,0.446 -1,1 v 2.06641 c 0,0.554 0.446,1 1,1 h 33.472657 c 0.554,0 1,-0.446 1,-1 v -2.06641 c 0,-0.554 -0.446,-1 -1,-1 z" style="fill:#aaaaaa"/>
</svg>