<?xml version="1.0" encoding="UTF-8" standalone="no"?>
<svg xmlns:dc="http://purl.org/dc/elements/1.1/"
     xmlns:cc="http://creativecommons.org/ns#"
     xmlns:rdf="http://www.w3.org/1999/02/22-rdf-syntax-ns#"
     xmlns:svg="http://www.w3.org/2000/svg"
     xmlns="http://www.w3.org/2000/svg"
     xmlns:xlink="http://www.w3.org/1999/xlink"
     width="128" height="128" version="1.1">
    <title>Libreoffice Master Document Icon</title>
    <desc>This is shape (source) for Clarity vector icon theme for gtk</desc>
    <metadata>
        <rdf:RDF>
            <cc:Work rdf:about="">
                <dc:title>Libreoffice Master Document Icon</dc:title>
                <dc:description>This is shape (source) for Clarity vector icon theme for gtk</dc:description>
                <dc:creator>
                    <cc:Agent>
                        <dc:title>Jakub Jankiewicz</dc:title>
                    </cc:Agent>
                </dc:creator>
                <dc:rights>
                    <cc:Agent>
                        <dc:title>Jakub Jankiewicz</dc:title>
                    </cc:Agent>
                </dc:rights>
                <dc:date>2010</dc:date>
                <dc:format>image/svg+xml</dc:format>
                <dc:type rdf:resource="http://purl.org/dc/dcmitype/StillImage" />
                <cc:license rdf:resource="http://creativecommons.org/licenses/by-sa/3.0/" />
             </cc:Work>
        </rdf:RDF>
    </metadata>
    <path d="m 25.15625,7.8447285 c -3.22154,0 -5.875,2.6847105 -5.875,5.9062505 V 114.28027 c 0,3.22154 2.63805,5.875 5.875,5.875 h 77.65625 c 3.23695,0 5.90625,-2.63805 5.90625,-5.875 v -64.498041 -0.8125 L 108.125,48.375979 68.25,8.4384785 67.65625,7.8447285 H 66.8125 Z m 79.21875,0.4375 c -1.85597,0 -18.18363,0.15625 -21.40625,0.15625 -3.22261,0 -4.21971,2.3694305 -2.28125,4.7500005 1.93845,2.38058 21.83187,21.85536 22.9375,23.125 1.47947,1.6989 4.6875,1.49451 4.6875,-2.4375 v -21.65625 c 0,-1.88501 -1.46857,-3.9375005 -3.9375,-3.9375005 z M 25.15625,11.844729 h 40.8125 l 38.75,38.75 v 63.685541 c 0,1.0656 -0.84067,1.875 -1.90625,1.875 H 25.15625 c -1.0656,0 -1.875,-0.79399 -1.875,-1.875 V 13.750979 c 0,-1.08101 0.79399,-1.90625 1.875,-1.90625 z m 4.58007,50.066406 c -0.5405,0 -0.97656,0.438013 -0.97656,0.978516 v 0.839843 c 0,0.540504 0.43606,0.976563 0.97656,0.976563 h 15.75586 c 0.54051,0 0.97657,-0.436059 0.97657,-0.976563 v -0.839843 c 0,-0.540503 -0.43606,-0.978516 -0.97657,-0.978516 z m 21.07032,0 c -0.32385,0 -0.58594,0.262093 -0.58594,0.585938 v 7.214843 c 0,0.323844 0.26209,0.585938 0.58594,0.585938 h 9.43945 c 0.32385,0 0.58594,-0.262094 0.58594,-0.585938 v -7.214843 c 0,-0.323845 -0.26209,-0.585938 -0.58594,-0.585938 z m 18.25195,0 c -0.5405,0 -0.97656,0.438013 -0.97656,0.978516 v 0.839843 c 0,0.540504 0.43606,0.976563 0.97656,0.976563 H 84.8125 c 0.54051,0 0.97851,-0.436059 0.97851,-0.976563 v -0.839843 c 0,-0.540503 -0.438,-0.978516 -0.97851,-0.978516 z m 21.07031,0 c -0.32385,0 -0.58594,0.262093 -0.58594,0.585938 v 7.214843 c 0,0.323844 0.26209,0.585938 0.58594,0.585938 h 9.43946 c 0.32384,0 0.58593,-0.262094 0.58593,-0.585938 v -7.214843 c 0,-0.323845 -0.26208,-0.585938 -0.58593,-0.585938 z m -60.39258,5.642578 c -0.5405,0 -0.97656,0.438013 -0.97656,0.978516 v 0.820312 c 0,0.540504 0.43606,0.976563 0.97656,0.976563 h 15.75586 c 0.54051,0 0.97657,-0.436059 0.97657,-0.976563 v -0.820312 c 0,-0.540503 -0.43606,-0.978516 -0.97657,-0.978516 z m 39.32227,0 c -0.5405,0 -0.97656,0.438013 -0.97656,0.978516 v 0.820312 c 0,0.540504 0.43606,0.976563 0.97656,0.976563 H 84.8125 c 0.54051,0 0.97851,-0.436059 0.97851,-0.976563 v -0.820312 c 0,-0.540503 -0.438,-0.978516 -0.97851,-0.978516 z M 29.56054,73.17676 c -0.44256,0 -0.80078,0.43606 -0.80078,0.976563 v 0.841797 c 0,0.540501 0.35822,0.976562 0.80078,0.976562 h 30.47071 c 0.44256,0 0.80078,-0.436061 0.80078,-0.976562 v -0.841797 c 0,-0.540503 -0.35822,-0.976563 -0.80078,-0.976563 z m 39.32032,0 c -0.44256,0 -0.79883,0.43606 -0.79883,0.976563 v 0.841797 c 0,0.540501 0.35626,0.976562 0.79883,0.976562 h 30.47265 c 0.44256,0 0.80078,-0.436061 0.80078,-0.976562 v -0.841797 c 0,-0.540503 -0.35822,-0.976563 -0.80078,-0.976563 z m -39.32032,5.642578 c -0.44256,0 -0.80078,0.43606 -0.80078,0.976563 v 0.841797 c 0,0.5405 0.35822,0.976562 0.80078,0.976562 h 30.47071 c 0.44256,0 0.80078,-0.436062 0.80078,-0.976562 v -0.841797 c 0,-0.540503 -0.35822,-0.976563 -0.80078,-0.976563 z m 39.32032,0 c -0.44256,0 -0.79883,0.43606 -0.79883,0.976563 v 0.841797 c 0,0.5405 0.35626,0.976562 0.79883,0.976562 h 30.47265 c 0.44256,0 0.80078,-0.436062 0.80078,-0.976562 v -0.841797 c 0,-0.540503 -0.35822,-0.976563 -0.80078,-0.976563 z m -39.14454,9.667974 c -0.5405,0 -0.97656,0.43801 -0.97656,0.97851 v 0.83984 c 0,0.54051 0.43606,0.97657 0.97656,0.97657 h 15.75586 c 0.54051,0 0.97657,-0.43606 0.97657,-0.97657 v -0.83984 c 0,-0.5405 -0.43606,-0.97852 -0.97657,-0.97851 z m 21.07032,0 c -0.32385,0 -0.58594,0.26208 -0.58594,0.58593 v 7.21485 c 0,0.32385 0.26209,0.58593 0.58594,0.58593 h 9.43945 c 0.32385,0 0.58594,-0.26208 0.58594,-0.58593 v -7.21485 c 0,-0.32385 -0.26209,-0.58593 -0.58594,-0.58593 z m 18.25195,0 c -0.5405,0 -0.97656,0.43801 -0.97656,0.97851 v 0.83984 c 0,0.54051 0.43606,0.97657 0.97656,0.97657 H 84.8125 c 0.54051,0 0.97851,-0.43606 0.97851,-0.97657 v -0.83984 c 0,-0.5405 -0.438,-0.97852 -0.97851,-0.97851 z m 21.07031,0 c -0.32385,0 -0.58594,0.26208 -0.58594,0.58593 v 7.21485 c 0,0.32385 0.26209,0.58593 0.58594,0.58593 h 9.43946 c 0.32384,0 0.58593,-0.26208 0.58593,-0.58593 v -7.21485 c 0,-0.32385 -0.26208,-0.58593 -0.58593,-0.58593 z m -60.39258,5.64257 c -0.5405,0 -0.97656,0.43802 -0.97656,0.97852 v 0.82031 c 0,0.5405 0.43606,0.97656 0.97656,0.97656 h 15.75586 c 0.54051,0 0.97657,-0.43606 0.97657,-0.97656 v -0.82031 c 0,-0.5405 -0.43606,-0.97852 -0.97657,-0.97852 z m 39.32227,0 c -0.5405,0 -0.97656,0.43802 -0.97656,0.97852 v 0.82031 c 0,0.5405 0.43606,0.97656 0.97656,0.97656 H 84.8125 c 0.54051,0 0.97851,-0.43606 0.97851,-0.97656 v -0.82031 c 0,-0.5405 -0.438,-0.97852 -0.97851,-0.97852 z m -39.49805,5.62305 c -0.44256,0 -0.80078,0.436048 -0.80078,0.976558 v 0.8418 c 0,0.5405 0.35822,0.97656 0.80078,0.97656 h 30.47071 c 0.44256,0 0.80078,-0.43606 0.80078,-0.97656 v -0.8418 c 0,-0.54051 -0.35822,-0.976558 -0.80078,-0.976558 z m 39.32032,0 c -0.44256,0 -0.79883,0.436048 -0.79883,0.976558 v 0.8418 c 0,0.5405 0.35626,0.97656 0.79883,0.97656 h 30.47265 c 0.44256,0 0.80078,-0.43606 0.80078,-0.97656 v -0.8418 c 0,-0.54051 -0.35822,-0.976558 -0.80078,-0.976558 z m -39.32032,5.642578 c -0.44256,0 -0.80078,0.43606 -0.80078,0.97656 v 0.8418 c 0,0.5405 0.35822,0.97656 0.80078,0.97656 h 30.47071 c 0.44256,0 0.80078,-0.43606 0.80078,-0.97656 v -0.8418 c 0,-0.5405 -0.35822,-0.97656 -0.80078,-0.97656 z m 39.32032,0 c -0.44256,0 -0.79883,0.43606 -0.79883,0.97656 v 0.8418 c 0,0.5405 0.35626,0.97656 0.79883,0.97656 h 30.47265 c 0.44256,0 0.80078,-0.43606 0.80078,-0.97656 v -0.8418 c 0,-0.5405 -0.35822,-0.97656 -0.80078,-0.97656 z" style="fill:#aaaaaa"/>
</svg>