<?xml version="1.0" encoding="UTF-8" standalone="no"?>
<svg xmlns:dc="http://purl.org/dc/elements/1.1/"
     xmlns:cc="http://creativecommons.org/ns#"
     xmlns:rdf="http://www.w3.org/1999/02/22-rdf-syntax-ns#"
     xmlns:svg="http://www.w3.org/2000/svg"
     xmlns="http://www.w3.org/2000/svg"
     xmlns:xlink="http://www.w3.org/1999/xlink"
     width="128" height="128" version="1.1">
    <title>Libreoffice Presentation Template Icon</title>
    <desc>This is shape (source) for Clarity vector icon theme for gtk</desc>
    <metadata>
        <rdf:RDF>
            <cc:Work rdf:about="">
                <dc:title>Libreoffice Presentation Template Icon</dc:title>
                <dc:description>This is shape (source) for Clarity vector icon theme for gtk</dc:description>
                <dc:creator>
                    <cc:Agent>
                        <dc:title>Jakub Jankiewicz</dc:title>
                    </cc:Agent>
                </dc:creator>
                <dc:rights>
                    <cc:Agent>
                        <dc:title>Jakub Jankiewicz</dc:title>
                    </cc:Agent>
                </dc:rights>
                <dc:date>2010</dc:date>
                <dc:format>image/svg+xml</dc:format>
                <dc:type rdf:resource="http://purl.org/dc/dcmitype/StillImage" />
                <cc:license rdf:resource="http://creativecommons.org/licenses/by-sa/3.0/" />
             </cc:Work>
        </rdf:RDF>
    </metadata>
    <path d="M 14.494141 7.84375 C 11.272582 7.84375 8.6191406 10.528441 8.6191406 13.75 L 8.6191406 114.28125 C 8.6191406 117.50281 11.257172 120.15625 14.494141 120.15625 L 92.150391 120.15625 C 95.387361 120.15625 98.056641 117.51822 98.056641 114.28125 L 98.056641 49.78125 L 98.056641 48.96875 L 97.462891 48.375 L 57.587891 8.4375 L 56.994141 7.84375 L 56.150391 7.84375 L 14.494141 7.84375 z M 106.58203 7.84375 L 106.58203 13.033203 L 115.34766 13.033203 L 115.34766 17.025391 L 106.58203 17.025391 L 106.58203 22.615234 L 111.07227 22.615234 L 111.07227 26.640625 L 106.58203 26.640625 L 106.58203 32.228516 L 111.07227 32.228516 L 111.07227 36.220703 L 106.58203 36.220703 L 106.58203 41.84375 L 111.07227 41.84375 L 111.07227 45.835938 L 106.58203 45.835938 L 106.58203 51.423828 L 115.34766 51.423828 L 115.34766 55.449219 L 106.58203 55.449219 L 106.58203 61.039062 L 111.07227 61.039062 L 111.07227 65.03125 L 106.58203 65.03125 L 106.58203 70.654297 L 111.07227 70.654297 L 111.07227 74.646484 L 106.58203 74.646484 L 106.58203 80.234375 L 111.07227 80.234375 L 111.07227 84.259766 L 106.58203 84.259766 L 106.58203 89.849609 L 115.34766 89.849609 L 115.34766 93.841797 L 106.58203 93.841797 L 106.58203 99.462891 L 111.07227 99.462891 L 111.07227 103.45508 L 106.58203 103.45508 L 106.58203 109.04492 L 111.07227 109.04492 L 111.07227 113.07031 L 106.58203 113.07031 L 106.58203 120.15625 L 119.38086 120.15625 L 119.38086 7.84375 L 106.58203 7.84375 z M 93.712891 8.28125 C 91.856911 8.28125 75.529275 8.4375 72.306641 8.4375 C 69.084013 8.4375 68.086924 10.806914 70.025391 13.1875 C 71.963855 15.568085 91.857251 35.042857 92.962891 36.3125 C 94.442371 38.011404 97.650391 37.807027 97.650391 33.875 L 97.650391 12.21875 C 97.650391 10.333734 96.181841 8.28125 93.712891 8.28125 z M 14.494141 11.84375 L 55.306641 11.84375 L 94.056641 50.59375 L 94.056641 114.28125 C 94.056641 115.34686 93.215981 116.15625 92.150391 116.15625 L 14.494141 116.15625 C 13.428536 116.15625 12.619141 115.36227 12.619141 114.28125 L 12.619141 13.75 C 12.619141 12.668987 13.413126 11.84375 14.494141 11.84375 z M 32.759766 56.361328 C 30.598826 56.361328 28.884766 58.075388 28.884766 60.236328 L 28.884766 87.580078 C 28.884766 89.741018 30.598826 91.455078 32.759766 91.455078 L 73.916016 91.455078 C 76.076956 91.455078 77.791016 89.741018 77.791016 87.580078 L 77.791016 60.236328 C 77.791016 58.075388 76.076956 56.361328 73.916016 56.361328 L 32.759766 56.361328 z M 33.884766 67.392578 L 72.791016 67.392578 L 72.791016 84.017578 C 72.791016 85.446588 71.626276 86.580078 70.197266 86.580078 L 36.478516 86.580078 C 35.049506 86.580078 33.884766 85.446588 33.884766 84.017578 L 33.884766 67.392578 z M 42.978516 93.611328 L 37.166016 104.11133 L 41.134766 104.11133 L 46.978516 93.611328 L 42.978516 93.611328 z M 51.195312 93.611328 L 51.414062 104.11133 L 54.882812 104.11133 L 54.664062 93.611328 L 51.195312 93.611328 z M 59.882812 93.611328 L 65.541016 104.11133 L 69.509766 104.11133 L 63.853516 93.611328 L 59.882812 93.611328 z " style="fill:#aaaaaa"/>
</svg>