<?xml version="1.0" encoding="UTF-8" standalone="no"?>
<svg xmlns:dc="http://purl.org/dc/elements/1.1/"
     xmlns:cc="http://creativecommons.org/ns#"
     xmlns:rdf="http://www.w3.org/1999/02/22-rdf-syntax-ns#"
     xmlns:svg="http://www.w3.org/2000/svg"
     xmlns="http://www.w3.org/2000/svg"
     xmlns:xlink="http://www.w3.org/1999/xlink"
     width="128" height="128" version="1.1">
    <title>Libreoffice Text Icon</title>
    <desc>This is shape (source) for Clarity vector icon theme for gtk</desc>
    <metadata>
        <rdf:RDF>
            <cc:Work rdf:about="">
                <dc:title>Libreoffice Text Icon</dc:title>
                <dc:description>This is shape (source) for Clarity vector icon theme for gtk</dc:description>
                <dc:creator>
                    <cc:Agent>
                        <dc:title>Jakub Jankiewicz</dc:title>
                    </cc:Agent>
                </dc:creator>
                <dc:rights>
                    <cc:Agent>
                        <dc:title>Jakub Jankiewicz</dc:title>
                    </cc:Agent>
                </dc:rights>
                <dc:date>2010</dc:date>
                <dc:format>image/svg+xml</dc:format>
                <dc:type rdf:resource="http://purl.org/dc/dcmitype/StillImage" />
                <cc:license rdf:resource="http://creativecommons.org/licenses/by-sa/3.0/" />
             </cc:Work>
        </rdf:RDF>
    </metadata>
    <path d="M 25.15625 7.84375 C 21.934691 7.84375 19.28125 10.528441 19.28125 13.75 L 19.28125 114.28125 C 19.28125 117.50281 21.919281 120.15625 25.15625 120.15625 L 102.8125 120.15625 C 106.04947 120.15625 108.71875 117.51822 108.71875 114.28125 L 108.71875 49.78125 L 108.71875 48.96875 L 108.125 48.375 L 68.25 8.4375 L 67.65625 7.84375 L 66.8125 7.84375 L 25.15625 7.84375 z M 104.375 8.28125 C 102.51902 8.28125 86.191384 8.4375 82.96875 8.4375 C 79.746122 8.4375 78.749033 10.806914 80.6875 13.1875 C 82.625964 15.568085 102.51936 35.042857 103.625 36.3125 C 105.10448 38.011404 108.3125 37.807027 108.3125 33.875 L 108.3125 12.21875 C 108.3125 10.333734 106.84395 8.28125 104.375 8.28125 z M 25.15625 11.84375 L 65.96875 11.84375 L 104.71875 50.59375 L 104.71875 114.28125 C 104.71875 115.34686 103.87809 116.15625 102.8125 116.15625 L 25.15625 116.15625 C 24.090645 116.15625 23.28125 115.36227 23.28125 114.28125 L 23.28125 13.75 C 23.28125 12.668987 24.075235 11.84375 25.15625 11.84375 z M 34.25 56.216797 C 33.38586 56.216797 32.6875 56.915157 32.6875 57.779297 L 32.6875 59.123047 C 32.6875 59.987187 33.38586 60.685547 34.25 60.685547 L 59.4375 60.685547 C 60.30164 60.685547 61 59.987187 61 59.123047 L 61 57.779297 C 61 56.915157 60.30164 56.216797 59.4375 56.216797 L 34.25 56.216797 z M 68.5625 56.216797 C 67.69836 56.216797 67 56.915157 67 57.779297 L 67 77.029297 C 67 77.893437 67.69836 78.591797 68.5625 78.591797 L 93.75 78.591797 C 94.614141 78.591797 95.3125 77.893437 95.3125 77.029297 L 95.3125 57.779297 C 95.3125 56.915157 94.614141 56.216797 93.75 56.216797 L 68.5625 56.216797 z M 34.25 65.185547 C 33.385859 65.185547 32.6875 65.883907 32.6875 66.748047 L 32.6875 68.060547 C 32.6875 68.924687 33.38586 69.623047 34.25 69.623047 L 59.4375 69.623047 C 60.30164 69.623047 61 68.924687 61 68.060547 L 61 66.748047 C 61 65.883907 60.30164 65.185547 59.4375 65.185547 L 34.25 65.185547 z M 34.25 74.123047 C 33.385859 74.123047 32.6875 74.821407 32.6875 75.685547 L 32.6875 77.029297 C 32.6875 77.893437 33.38586 78.591797 34.25 78.591797 L 59.4375 78.591797 C 60.30164 78.591797 61 77.893437 61 77.029297 L 61 75.685547 C 61 74.821407 60.30164 74.123047 59.4375 74.123047 L 34.25 74.123047 z M 34.25 83.091797 C 33.385859 83.091797 32.6875 83.790157 32.6875 84.654297 L 32.6875 85.998047 C 32.6875 86.862187 33.38586 87.560547 34.25 87.560547 L 93.75 87.560547 C 94.614141 87.560547 95.3125 86.862187 95.3125 85.998047 L 95.3125 84.654297 C 95.3125 83.790157 94.614141 83.091797 93.75 83.091797 L 34.25 83.091797 z M 34.25 92.060547 C 33.385859 92.060547 32.6875 92.758907 32.6875 93.623047 L 32.6875 94.935547 C 32.6875 95.799687 33.38586 96.498047 34.25 96.498047 L 93.75 96.498047 C 94.614141 96.498047 95.3125 95.799687 95.3125 94.935547 L 95.3125 93.623047 C 95.3125 92.758907 94.614141 92.060547 93.75 92.060547 L 34.25 92.060547 z M 34.25 100.99805 C 33.385859 100.99805 32.6875 101.69641 32.6875 102.56055 L 32.6875 103.9043 C 32.6875 104.76844 33.38586 105.4668 34.25 105.4668 L 93.75 105.4668 C 94.614141 105.4668 95.3125 104.76844 95.3125 103.9043 L 95.3125 102.56055 C 95.3125 101.69641 94.614141 100.99805 93.75 100.99805 L 34.25 100.99805 z " style="fill:#aaaaaa"/>
</svg>