<?xml version="1.0" encoding="UTF-8" standalone="no"?>
<svg xmlns:dc="http://purl.org/dc/elements/1.1/"
     xmlns:cc="http://creativecommons.org/ns#"
     xmlns:rdf="http://www.w3.org/1999/02/22-rdf-syntax-ns#"
     xmlns:svg="http://www.w3.org/2000/svg"
     xmlns="http://www.w3.org/2000/svg"
     xmlns:xlink="http://www.w3.org/1999/xlink"
     width="128" height="128" version="1.1">
    <title>Email File Icon</title>
    <desc>This is shape (source) for Clarity vector icon theme for gtk</desc>
    <metadata>
        <rdf:RDF>
            <cc:Work rdf:about="">
                <dc:title>Email File Icon</dc:title>
                <dc:description>This is shape (source) for Clarity vector icon theme for gtk</dc:description>
                <dc:creator>
                    <cc:Agent>
                        <dc:title>Jakub Jankiewicz</dc:title>
                    </cc:Agent>
                </dc:creator>
                <dc:rights>
                    <cc:Agent>
                        <dc:title>Jakub Jankiewicz</dc:title>
                    </cc:Agent>
                </dc:rights>
                <dc:date>2010</dc:date>
                <dc:format>image/svg+xml</dc:format>
                <dc:type rdf:resource="http://purl.org/dc/dcmitype/StillImage" />
                <cc:license rdf:resource="http://www.gnu.org/copyleft/gpl.html" />
             </cc:Work>
        </rdf:RDF>
    </metadata>
    <path d="M 29.09375 11.21875 C 25.909946 11.21875 23.375 13.784945 23.375 16.96875 L 23.375 111.03125 C 23.375 114.21505 25.909946 116.78125 29.09375 116.78125 L 98.90625 116.78125 C 102.09005 116.78125 104.625 114.21505 104.625 111.03125 L 104.625 40.34375 L 83.59375 40.34375 C 79.28764 40.34375 75.53125 37.202641 75.53125 33.03125 L 75.53125 11.21875 L 29.09375 11.21875 z M 79.53125 11.21875 L 79.53125 33.03125 C 79.53125 34.745373 81.163219 36.34375 83.59375 36.34375 L 104.625 36.34375 L 79.53125 11.21875 z M 46.53125 60.0625 C 59.193953 60.12404 69.07903 60.417674 81.1875 60.0625 C 82.38058 60.027504 83.319945 60.129068 84.40625 60.90625 C 85.284959 61.534911 85.542767 63.672629 84.125 64.78125 L 66.4375 78.625 C 65.719579 79.186375 64.778425 79.46875 63.84375 79.46875 C 62.909076 79.46875 61.96792 79.186375 61.25 78.625 L 43.59375 64.78125 C 42.175984 63.672629 42.433791 61.534911 43.3125 60.90625 C 44.398806 60.129069 45.337669 60.0567 46.53125 60.0625 z M 90.125 67.25 C 92.407114 67.506517 94.1875 69.428397 94.1875 71.78125 L 94.1875 97.09375 C 94.1875 99.622462 92.122463 101.65625 89.59375 101.65625 L 38.40625 101.65625 C 35.877538 101.65625 33.8125 99.622462 33.8125 97.09375 L 33.8125 71.78125 C 33.8125 69.538023 35.435461 67.671572 37.5625 67.28125 L 60.21875 85.03125 C 62.210764 86.588898 65.414236 86.588898 67.40625 85.03125 L 90.125 67.25 z " style="fill:#aaaaaa"/>
</svg>