<?xml version="1.0" encoding="UTF-8" standalone="no"?>
<svg xmlns:dc="http://purl.org/dc/elements/1.1/"
     xmlns:cc="http://creativecommons.org/ns#"
     xmlns:rdf="http://www.w3.org/1999/02/22-rdf-syntax-ns#"
     xmlns:svg="http://www.w3.org/2000/svg"
     xmlns="http://www.w3.org/2000/svg"
     xmlns:xlink="http://www.w3.org/1999/xlink"
     width="128" height="128" version="1.1">
    <title>Presentation File Icon</title>
    <desc>This is shape (source) for Clarity vector icon theme for gtk</desc>
    <metadata>
        <rdf:RDF>
            <cc:Work rdf:about="">
                <dc:title>Presentation File Icon</dc:title>
                <dc:description>This is shape (source) for Clarity vector icon theme for gtk</dc:description>
                <dc:creator>
                    <cc:Agent>
                        <dc:title>Jakub Jankiewicz</dc:title>
                    </cc:Agent>
                </dc:creator>
                <dc:rights>
                    <cc:Agent>
                        <dc:title>Jakub Jankiewicz</dc:title>
                    </cc:Agent>
                </dc:rights>
                <dc:date>2010</dc:date>
                <dc:format>image/svg+xml</dc:format>
                <dc:type rdf:resource="http://purl.org/dc/dcmitype/StillImage" />
                <cc:license rdf:resource="http://www.gnu.org/copyleft/gpl.html" />
             </cc:Work>
        </rdf:RDF>
    </metadata>
    <path d="m 29.09375,11.234375 c -3.183804,0 -5.71875,2.566196 -5.71875,5.75 l 0,94.031255 c 0,3.1838 2.534946,5.75 5.71875,5.75 l 69.8125,0 c 3.1838,0 5.71875,-2.5662 5.71875,-5.75 l 0,-70.656255 -21.03125,0 c -4.306108,0 -8.0625,-3.141109 -8.0625,-7.3125 l 0,-21.8125 -46.4375,0 z m 50.4375,0 0,21.8125 c 0,1.714122 1.631968,3.3125 4.0625,3.3125 l 21.03125,0 -25.09375,-25.125 z m -36.125,42.71875 41.15625,0 c 2.160937,0 3.90625,1.745313 3.90625,3.90625 l 0,27.3125 c 0,2.160936 -1.745313,3.90625 -3.90625,3.90625 l -41.15625,0 c -2.160937,0 -3.875,-1.745314 -3.875,-3.90625 l 0,-27.3125 c 0,-2.160937 1.714063,-3.90625 3.875,-3.90625 z m 1.125,11.03125 0,16.65625 c 0,1.429015 1.164735,2.5625 2.59375,2.5625 l 33.75,0 c 1.429015,0 2.5625,-1.133485 2.5625,-2.5625 l 0,-16.65625 -38.90625,0 z m 9.09375,26.25 4,0 -5.8125,10.500005 -3.96875,0 5.78125,-10.500005 z m 8.21875,0 3.46875,0 0.21875,10.500005 -3.46875,0 -0.21875,-10.500005 z m 8.71875,0 3.9375,0 5.65625,10.500005 -3.9375,0 -5.65625,-10.500005 z" style="fill:#aaaaaa"/>
</svg>