<?xml version="1.0" encoding="UTF-8" standalone="no"?>
<svg xmlns:dc="http://purl.org/dc/elements/1.1/"
     xmlns:cc="http://creativecommons.org/ns#"
     xmlns:rdf="http://www.w3.org/1999/02/22-rdf-syntax-ns#"
     xmlns:svg="http://www.w3.org/2000/svg"
     xmlns="http://www.w3.org/2000/svg"
     xmlns:xlink="http://www.w3.org/1999/xlink"
     width="128" height="128" version="1.1">
    <title>Spreadsheet File Icon</title>
    <desc>This is shape (source) for Clarity vector icon theme for gtk</desc>
    <metadata>
        <rdf:RDF>
            <cc:Work rdf:about="">
                <dc:title>Spreadsheet File Icon</dc:title>
                <dc:description>This is shape (source) for Clarity vector icon theme for gtk</dc:description>
                <dc:creator>
                    <cc:Agent>
                        <dc:title>Jakub Jankiewicz</dc:title>
                    </cc:Agent>
                </dc:creator>
                <dc:rights>
                    <cc:Agent>
                        <dc:title>Jakub Jankiewicz</dc:title>
                    </cc:Agent>
                </dc:rights>
                <dc:date>2010</dc:date>
                <dc:format>image/svg+xml</dc:format>
                <dc:type rdf:resource="http://purl.org/dc/dcmitype/StillImage" />
                <cc:license rdf:resource="http://creativecommons.org/licenses/by-sa/3.0/" />
             </cc:Work>
        </rdf:RDF>
    </metadata>
    <path d="m 29.09375,11.234375 c -3.18381,0 -5.71875,2.566196 -5.71875,5.75 l 0,94.031255 c 0,3.1838 2.53494,5.75 5.71875,5.75 l 69.8125,0 c 3.1838,0 5.71875,-2.5662 5.71875,-5.75 l 0,-70.656255 -21.03125,0 c -4.30611,0 -8.0625,-3.141109 -8.0625,-7.3125 l 0,-21.8125 -46.4375,0 z m 50.4375,0 0,21.8125 c 0,1.714122 1.63196,3.3125 4.0625,3.3125 l 21.03125,0 -25.09375,-25.125 z m -48.875,42.625 10.90625,0 0,5.375 -10.90625,0 0,-5.375 z m 13.9375,0 10.9375,0 0,5.375 -10.9375,0 0,-5.375 z m 13.96875,0 10.90625,0 0,5.375 -10.90625,0 0,-5.375 z m 13.9375,0 10.9375,0 0,5.375 -10.9375,0 0,-5.375 z m 13.96875,0 10.90625,0 0,5.375 -10.90625,0 0,-5.375 z m -55.8125,8.25 10.90625,0 0,5.34375 -10.90625,0 0,-5.34375 z m 13.9375,0 52.78125,0 0,5.34375 -52.78125,0 0,-5.34375 z m -13.9375,8.21875 10.90625,0 0,5.34375 -10.90625,0 0,-5.34375 z m 13.9375,0 52.78125,0 0,5.34375 -52.78125,0 0,-5.34375 z m -13.9375,8.25 10.90625,0 0,5.34375 -10.90625,0 0,-5.34375 z m 13.9375,0 52.78125,0 0,5.34375 -52.78125,0 0,-5.34375 z m -13.9375,8.21875 10.90625,0 0,5.34375 -10.90625,0 0,-5.34375 z m 13.9375,0 52.78125,0 0,5.34375 -52.78125,0 0,-5.34375 z m -13.9375,8.25 10.90625,0 0,5.343755 -10.90625,0 0,-5.343755 z m 13.9375,0 52.78125,0 0,5.343755 -52.78125,0 0,-5.343755 z" style="fill:#aaaaaa"/>
</svg>