<?xml version="1.0" encoding="UTF-8" standalone="no"?>
<svg xmlns:dc="http://purl.org/dc/elements/1.1/"
     xmlns:cc="http://creativecommons.org/ns#"
     xmlns:rdf="http://www.w3.org/1999/02/22-rdf-syntax-ns#"
     xmlns:svg="http://www.w3.org/2000/svg"
     xmlns="http://www.w3.org/2000/svg"
     xmlns:xlink="http://www.w3.org/1999/xlink"
     width="128" height="128" version="1.1">
    <title>OpenOffice Drawing File Icon</title>
    <desc>This is shape (source) for Clarity vector icon theme for gtk</desc>
    <metadata>
        <rdf:RDF>
            <cc:Work rdf:about="">
                <dc:title>OpenOffice Drawing File Icon</dc:title>
                <dc:description>This is shape (source) for Clarity vector icon theme for gtk</dc:description>
                <dc:creator>
                    <cc:Agent>
                        <dc:title>Jakub Jankiewicz</dc:title>
                    </cc:Agent>
                </dc:creator>
                <dc:rights>
                    <cc:Agent>
                        <dc:title>Jakub Jankiewicz</dc:title>
                    </cc:Agent>
                </dc:rights>
                <dc:date>2010</dc:date>
                <dc:format>image/svg+xml</dc:format>
                <dc:type rdf:resource="http://purl.org/dc/dcmitype/StillImage" />
                <cc:license rdf:resource="http://creativecommons.org/licenses/by-sa/3.0/" />
             </cc:Work>
        </rdf:RDF>
    </metadata>
    <path d="M 29.09375 11.21875 C 25.90994 11.21875 23.375 13.784946 23.375 16.96875 L 23.375 111.03125 C 23.375 114.21505 25.90994 116.78125 29.09375 116.78125 L 98.90625 116.78125 C 102.09005 116.78125 104.625 114.21505 104.625 111.03125 L 104.625 40.34375 L 83.59375 40.34375 C 79.28764 40.34375 75.53125 37.202641 75.53125 33.03125 L 75.53125 11.21875 L 29.09375 11.21875 z M 79.53125 11.21875 L 79.53125 33.03125 C 79.53125 34.745372 81.16322 36.34375 83.59375 36.34375 L 104.625 36.34375 L 79.53125 11.21875 z M 72.96875 52.90625 L 74.03125 52.90625 L 81.21875 52.90625 L 82.3125 52.90625 L 82.3125 53.96875 L 82.3125 61.15625 L 82.3125 62.25 L 81.21875 62.25 L 74.5 62.25 L 67.15625 69.59375 C 70.405181 67.885294 73.978398 66.935545 77.5625 66.8125 C 82.114781 66.656226 86.677621 67.789367 90.75 70.21875 L 89.65625 72.0625 C 82.226671 67.630376 72.889406 67.943816 65.78125 72.875 C 65.073158 73.366231 64.413346 73.913723 63.78125 74.46875 C 63.85193 74.771415 63.9375 75.113252 63.9375 75.4375 C 63.9375 77.712917 62.056668 79.5625 59.78125 79.5625 C 59.691536 79.5625 59.61952 79.5049 59.53125 79.5 C 55.128085 86.714863 55.082295 96.127211 60.21875 103.53125 L 58.5 104.78125 C 53.215485 97.163773 52.916372 87.583489 56.90625 79.875 L 46.625 90.15625 L 46.625 96.875 L 46.625 97.9375 L 45.53125 97.9375 L 38.34375 97.9375 L 37.25 97.9375 L 37.25 96.875 L 37.25 89.6875 L 37.25 88.59375 L 38.34375 88.59375 L 45.0625 88.59375 L 56.21875 77.4375 C 55.876276 76.836656 55.65625 76.178582 55.65625 75.4375 C 55.65625 73.162086 57.505828 71.28125 59.78125 71.28125 C 60.522336 71.28125 61.211652 71.50127 61.8125 71.84375 L 72.96875 60.71875 L 72.96875 53.96875 L 72.96875 52.90625 z M 75.125 55.0625 L 75.125 60.09375 L 80.15625 60.09375 L 80.15625 55.0625 L 75.125 55.0625 z M 39.4375 90.75 L 39.4375 95.78125 L 44.4375 95.78125 L 44.4375 90.75 L 39.4375 90.75 z " style="fill:#aaaaaa"/>
</svg>