<?xml version="1.0" encoding="UTF-8" standalone="no"?>
<svg xmlns:dc="http://purl.org/dc/elements/1.1/"
     xmlns:cc="http://creativecommons.org/ns#"
     xmlns:rdf="http://www.w3.org/1999/02/22-rdf-syntax-ns#"
     xmlns:svg="http://www.w3.org/2000/svg"
     xmlns="http://www.w3.org/2000/svg"
     xmlns:xlink="http://www.w3.org/1999/xlink"
     width="128" height="128" version="1.1">
    <title>Presentation Template Icon</title>
    <desc>This is shape (source) for Clarity vector icon theme for gtk</desc>
    <metadata>
        <rdf:RDF>
            <cc:Work rdf:about="">
                <dc:title>Presentation Template Icon</dc:title>
                <dc:description>This is shape (source) for Clarity vector icon theme for gtk</dc:description>
                <dc:creator>
                    <cc:Agent>
                        <dc:title>Jakub Jankiewicz</dc:title>
                    </cc:Agent>
                </dc:creator>
                <dc:rights>
                    <cc:Agent>
                        <dc:title>Jakub Jankiewicz</dc:title>
                    </cc:Agent>
                </dc:rights>
                <dc:date>2010</dc:date>
                <dc:format>image/svg+xml</dc:format>
                <dc:type rdf:resource="http://purl.org/dc/dcmitype/StillImage" />
                <cc:license rdf:resource="http://www.gnu.org/copyleft/gpl.html" />
             </cc:Work>
        </rdf:RDF>
    </metadata>
    <path d="m 14.5,11.254349 c -2.901868,0.29359 -5.15625,2.765183 -5.15625,5.75 l 0,94.000001 c 0,3.1838 2.53495,5.75 5.71875,5.75 l 69.8125,0 c 3.183797,0 5.71875,-2.5662 5.71875,-5.75 l 0,-70.625001 -21.03125,0 c -4.306108,0 -8.0625,-3.141109 -8.0625,-7.3125 l 0,-21.8125 -46.4375,0 c -0.198988,0 -0.369042,-0.01957 -0.5625,0 z m 51,0 0,21.8125 c 0,1.714123 1.631968,3.3125 4.0625,3.3125 l 21.03125,0 L 65.5,11.254349 z m 38.1875,0 0,4.875 10.25,0 0,3.75 -10.25,0 0,5.25 5.25,0 0,3.78125 -5.25,0 0,5.25 5.25,0 0,3.75 -5.25,0 0,5.28125 5.25,0 0,3.75 -5.25,0 0,5.25 10.25,0 0,3.78125 -10.25,0 0,5.25 5.25,0 0,3.75 -5.25,0 0,5.28125 5.25,0 0,3.75 -5.25,0 0,5.25 5.25,0 0,3.78125 -5.25,0 0,5.25 10.25,0 0,3.75 -10.25,0 0,5.28125 5.25,0 0,3.750001 -5.25,0 0,5.25 5.25,0 0,3.78125 -5.25,0 0,6.65625 14.96875,0 0,-105.500001 -14.96875,0 z m -74.4375,42.9375 41.15625,0 c 2.16094,0 3.875,1.714063 3.875,3.875 l 0,27.34375 c 0,2.160936 -1.71406,3.875 -3.875,3.875 l -41.15625,0 c -2.16094,0 -3.875,-1.714064 -3.875,-3.875 l 0,-27.34375 c 0,-2.160937 1.71406,-3.875 3.875,-3.875 z m 1.125,11.03125 0,16.625 c 0,1.429015 1.16474,2.5625 2.59375,2.5625 l 33.71875,0 c 1.42901,0 2.59375,-1.133485 2.59375,-2.5625 l 0,-16.625 -38.90625,0 z m 9.09375,26.21875 4,0 -5.84375,10.500001 -3.96875,0 5.8125,-10.500001 z m 8.21875,0 3.46875,0 0.21875,10.500001 -3.46875,0 -0.21875,-10.500001 z m 8.6875,0 3.96875,0 L 66,101.94185 l -3.96875,0 L 56.375,91.441849 z" style="fill:#aaaaaa"/>
</svg>