<?xml version="1.0" encoding="UTF-8" standalone="no"?>
<svg xmlns:dc="http://purl.org/dc/elements/1.1/"
     xmlns:cc="http://creativecommons.org/ns#"
     xmlns:rdf="http://www.w3.org/1999/02/22-rdf-syntax-ns#"
     xmlns:svg="http://www.w3.org/2000/svg"
     xmlns="http://www.w3.org/2000/svg"
     xmlns:xlink="http://www.w3.org/1999/xlink"
     width="128" height="128" version="1.1">
    <title>OpenOffice Drawing Template Icon</title>
    <desc>This is shape (source) for Clarity vector icon theme for gtk</desc>
    <metadata>
        <rdf:RDF>
            <cc:Work rdf:about="">
                <dc:title>OpenOffice Drawing Template Icon</dc:title>
                <dc:description>This is shape (source) for Clarity vector icon theme for gtk</dc:description>
                <dc:creator>
                    <cc:Agent>
                        <dc:title>Jakub Jankiewicz</dc:title>
                    </cc:Agent>
                </dc:creator>
                <dc:rights>
                    <cc:Agent>
                        <dc:title>Jakub Jankiewicz</dc:title>
                    </cc:Agent>
                </dc:rights>
                <dc:date>2010</dc:date>
                <dc:format>image/svg+xml</dc:format>
                <dc:type rdf:resource="http://purl.org/dc/dcmitype/StillImage" />
                <cc:license rdf:resource="http://creativecommons.org/licenses/by-sa/3.0/" />
             </cc:Work>
        </rdf:RDF>
    </metadata>
    <path d="M 15.0625 11.21875 C 11.87869 11.21875 9.34375 13.784946 9.34375 16.96875 L 9.34375 111.03125 C 9.34375 114.21505 11.87869 116.78125 15.0625 116.78125 L 84.875 116.78125 C 88.0588 116.78125 90.59375 114.21505 90.59375 111.03125 L 90.59375 40.34375 L 69.5625 40.34375 C 65.25639 40.34375 61.5 37.202641 61.5 33.03125 L 61.5 11.21875 L 15.0625 11.21875 z M 65.5 11.21875 L 65.5 33.03125 C 65.5 34.745372 67.13197 36.34375 69.5625 36.34375 L 90.59375 36.34375 L 65.5 11.21875 z M 103.6875 11.25 L 103.6875 16.125 L 113.9375 16.125 L 113.9375 19.875 L 103.6875 19.875 L 103.6875 25.125 L 108.9375 25.125 L 108.9375 28.90625 L 103.6875 28.90625 L 103.6875 34.15625 L 108.9375 34.15625 L 108.9375 37.90625 L 103.6875 37.90625 L 103.6875 43.1875 L 108.9375 43.1875 L 108.9375 46.9375 L 103.6875 46.9375 L 103.6875 52.1875 L 113.9375 52.1875 L 113.9375 55.96875 L 103.6875 55.96875 L 103.6875 61.21875 L 108.9375 61.21875 L 108.9375 64.96875 L 103.6875 64.96875 L 103.6875 70.25 L 108.9375 70.25 L 108.9375 74 L 103.6875 74 L 103.6875 79.25 L 108.9375 79.25 L 108.9375 83.03125 L 103.6875 83.03125 L 103.6875 88.28125 L 113.9375 88.28125 L 113.9375 92.03125 L 103.6875 92.03125 L 103.6875 97.3125 L 108.9375 97.3125 L 108.9375 101.0625 L 103.6875 101.0625 L 103.6875 106.3125 L 108.9375 106.3125 L 108.9375 110.09375 L 103.6875 110.09375 L 103.6875 116.75 L 118.65625 116.75 L 118.65625 11.25 L 103.6875 11.25 z M 58.9375 52.90625 L 60 52.90625 L 67.1875 52.90625 L 68.28125 52.90625 L 68.28125 53.96875 L 68.28125 61.15625 L 68.28125 62.25 L 67.1875 62.25 L 60.46875 62.25 L 53.125 69.59375 C 56.373931 67.885294 59.947148 66.935545 63.53125 66.8125 C 68.083531 66.656226 72.646371 67.789367 76.71875 70.21875 L 75.625 72.0625 C 68.195421 67.630376 58.858156 67.943816 51.75 72.875 C 51.041908 73.366231 50.382096 73.913723 49.75 74.46875 C 49.82068 74.771415 49.90625 75.113252 49.90625 75.4375 C 49.90625 77.712917 48.025418 79.5625 45.75 79.5625 C 45.66029 79.5625 45.58827 79.5049 45.5 79.5 C 41.096835 86.714863 41.051045 96.127211 46.1875 103.53125 L 44.46875 104.78125 C 39.184235 97.163773 38.885122 87.583489 42.875 79.875 L 32.59375 90.15625 L 32.59375 96.875 L 32.59375 97.9375 L 31.5 97.9375 L 24.3125 97.9375 L 23.21875 97.9375 L 23.21875 96.875 L 23.21875 89.6875 L 23.21875 88.59375 L 24.3125 88.59375 L 31.03125 88.59375 L 42.1875 77.4375 C 41.845026 76.836656 41.625 76.178582 41.625 75.4375 C 41.625 73.162086 43.474578 71.28125 45.75 71.28125 C 46.491086 71.28125 47.180402 71.50127 47.78125 71.84375 L 58.9375 60.71875 L 58.9375 53.96875 L 58.9375 52.90625 z M 61.09375 55.0625 L 61.09375 60.09375 L 66.125 60.09375 L 66.125 55.0625 L 61.09375 55.0625 z M 25.40625 90.75 L 25.40625 95.78125 L 30.40625 95.78125 L 30.40625 90.75 L 25.40625 90.75 z " style="fill:#aaaaaa"/>
</svg>