<?xml version="1.0" encoding="UTF-8" standalone="no"?>
<svg xmlns:dc="http://purl.org/dc/elements/1.1/"
     xmlns:cc="http://creativecommons.org/ns#"
     xmlns:rdf="http://www.w3.org/1999/02/22-rdf-syntax-ns#"
     xmlns:svg="http://www.w3.org/2000/svg"
     xmlns="http://www.w3.org/2000/svg"
     xmlns:xlink="http://www.w3.org/1999/xlink"
     width="128" height="128" version="1.1">
    <title>Spreadsheet Template File Icon</title>
    <desc>This is shape (source) for Clarity vector icon theme for gtk</desc>
    <metadata>
        <rdf:RDF>
            <cc:Work rdf:about="">
                <dc:title>Spreadsheet Template File Icon</dc:title>
                <dc:description>This is shape (source) for Clarity vector icon theme for gtk</dc:description>
                <dc:creator>
                    <cc:Agent>
                        <dc:title>Jakub Jankiewicz</dc:title>
                    </cc:Agent>
                </dc:creator>
                <dc:rights>
                    <cc:Agent>
                        <dc:title>Jakub Jankiewicz</dc:title>
                    </cc:Agent>
                </dc:rights>
                <dc:date>2010</dc:date>
                <dc:format>image/svg+xml</dc:format>
                <dc:type rdf:resource="http://purl.org/dc/dcmitype/StillImage" />
                <cc:license rdf:resource="http://www.gnu.org/copyleft/gpl.html" />
             </cc:Work>
        </rdf:RDF>
    </metadata>
    <path d="m 14.5,11.254349 c -2.901869,0.29359 -5.15625,2.765183 -5.15625,5.75 l 0,94.000001 c 0,3.1838 2.534949,5.75 5.71875,5.75 l 69.8125,0 c 3.1838,0 5.71875,-2.5662 5.71875,-5.75 l 0,-70.625001 -21.03125,0 c -4.30611,0 -8.0625,-3.141109 -8.0625,-7.3125 l 0,-21.8125 -46.4375,0 c -0.198988,0 -0.369042,-0.01957 -0.5625,0 z m 51,0 0,21.8125 c 0,1.714123 1.63197,3.3125 4.0625,3.3125 l 21.03125,0 L 65.5,11.254349 z m 38.1875,0 0,4.875 10.25,0 0,3.75 -10.25,0 0,5.25 5.25,0 0,3.78125 -5.25,0 0,5.25 5.25,0 0,3.75 -5.25,0 0,5.28125 5.25,0 0,3.75 -5.25,0 0,5.25 10.25,0 0,3.78125 -10.25,0 0,5.25 5.25,0 0,3.75 -5.25,0 0,5.28125 5.25,0 0,3.75 -5.25,0 0,5.25 5.25,0 0,3.78125 -5.25,0 0,5.25 10.25,0 0,3.75 -10.25,0 0,5.28125 5.25,0 0,3.750001 -5.25,0 0,5.25 5.25,0 0,3.78125 -5.25,0 0,6.65625 14.96875,0 0,-105.500001 -14.96875,0 z m -87.21875,41.28125 10.90625,0 0,5.375 -10.90625,0 0,-5.375 z m 13.9375,0 10.9375,0 0,5.375 -10.9375,0 0,-5.375 z m 13.96875,0 10.90625,0 0,5.375 -10.90625,0 0,-5.375 z m 13.9375,0 10.9375,0 0,5.375 -10.9375,0 0,-5.375 z m 13.96875,0 10.90625,0 0,5.375 -10.90625,0 0,-5.375 z m -55.8125,8.25 10.90625,0 0,5.34375 -10.90625,0 0,-5.34375 z m 13.9375,0 52.78125,0 0,5.34375 -52.78125,0 0,-5.34375 z m -13.9375,8.21875 10.90625,0 0,5.34375 -10.90625,0 0,-5.34375 z m 13.9375,0 52.78125,0 0,5.34375 -52.78125,0 0,-5.34375 z m -13.9375,8.25 10.90625,0 0,5.34375 -10.90625,0 0,-5.34375 z m 13.9375,0 52.78125,0 0,5.34375 -52.78125,0 0,-5.34375 z m -13.9375,8.21875 10.90625,0 0,5.34375 -10.90625,0 0,-5.34375 z m 13.9375,0 52.78125,0 0,5.34375 -52.78125,0 0,-5.34375 z m -13.9375,8.25 10.90625,0 0,5.34375 -10.90625,0 0,-5.34375 z m 13.9375,0 52.78125,0 0,5.34375 -52.78125,0 0,-5.34375 z" style="fill:#aaaaaa"/>
</svg>