<?xml version="1.0" encoding="UTF-8" standalone="no"?>
<svg xmlns:dc="http://purl.org/dc/elements/1.1/"
     xmlns:cc="http://creativecommons.org/ns#"
     xmlns:rdf="http://www.w3.org/1999/02/22-rdf-syntax-ns#"
     xmlns:svg="http://www.w3.org/2000/svg"
     xmlns="http://www.w3.org/2000/svg"
     xmlns:xlink="http://www.w3.org/1999/xlink"
     width="128" height="128" version="1.1">
    <title>RealMedia File</title>
    <desc>This is shape (source) for Clarity vector icon theme for gtk</desc>
    <metadata>
        <rdf:RDF>
            <cc:Work rdf:about="">
                <dc:title>RealMedia File</dc:title>
                <dc:description>This is shape (source) for Clarity vector icon theme for gtk</dc:description>
                <dc:creator>
                    <cc:Agent>
                        <dc:title>Jakub Jankiewicz</dc:title>
                    </cc:Agent>
                </dc:creator>
                <dc:rights>
                    <cc:Agent>
                        <dc:title>Jakub Jankiewicz</dc:title>
                    </cc:Agent>
                </dc:rights>
                <dc:date>2010</dc:date>
                <dc:format>image/svg+xml</dc:format>
                <dc:type rdf:resource="http://purl.org/dc/dcmitype/StillImage" />
                <cc:license rdf:resource="http://www.gnu.org/copyleft/gpl.html" />
             </cc:Work>
        </rdf:RDF>
    </metadata>
    <path d="M 28.5 11.25 C 25.598125 11.54359 23.375 14.015184 23.375 17 L 23.375 111 C 23.375 114.1838 25.90994 116.75 29.09375 116.75 L 98.90625 116.75 C 102.09005 116.75 104.625 114.1838 104.625 111 L 104.625 40.375 L 83.59375 40.375 C 79.28764 40.375 75.53125 37.233891 75.53125 33.0625 L 75.53125 11.25 L 29.09375 11.25 C 28.894762 11.25 28.693458 11.230427 28.5 11.25 z M 79.53125 11.25 L 79.53125 33.0625 C 79.53125 34.776622 81.16322 36.375 83.59375 36.375 L 104.625 36.375 L 79.53125 11.25 z M 34.625 56.375 L 93.34375 56.375 C 94.174924 56.375 94.92754 57.045485 94.875 57.875 L 94.4375 64.46875 C 88.534043 62.102213 80.913121 60.65625 72.5625 60.65625 C 53.859778 60.65625 38.71875 67.837562 38.71875 76.65625 C 38.71875 85.411619 53.63909 92.476649 72.15625 92.625 C 72.844181 92.630475 72.923101 92.90465 72.625 93.46875 L 68.0625 102.03125 L 88.78125 90.65625 C 90.211212 90.287665 91.579599 89.863973 92.875 89.40625 L 92.0625 101.90625 C 92.014722 102.66087 91.443637 103.25 90.6875 103.25 L 37.28125 103.25 C 36.525112 103.25 35.98528 102.66087 35.9375 101.90625 L 33.125 57.875 C 33.072474 57.045485 33.793825 56.375 34.625 56.375 z M 89.625 68.6875 L 93.40625 68.6875 L 89.65625 82 L 85.90625 82 L 89.625 68.6875 z M 55.90625 71.96875 C 56.01419 71.96875 56.127276 71.950483 56.34375 71.96875 L 55.625 74.59375 C 55.137487 74.53896 54.873526 74.5 54.46875 74.5 C 52.255977 74.5 50.91005 75.252502 50.5 76.75 L 49.03125 82 L 45.25 82 L 48.03125 72.125 L 51.8125 72.125 L 51.25 74.0625 C 52.474946 72.729362 54.179207 71.96875 55.90625 71.96875 z M 63.9375 71.96875 C 67.553496 71.96875 69.71652 73.603173 69.78125 75.59375 C 69.803816 76.287713 69.672097 76.896952 69.375 77.71875 L 59.59375 77.71875 C 59.52943 78.230091 59.58845 78.27314 59.59375 78.4375 C 59.626412 79.44192 60.649353 80.09375 62.1875 80.09375 C 63.482782 80.09375 64.680506 79.657043 65.125 79.21875 L 68.84375 79.21875 C 67.498132 80.990181 64.796441 82.15625 61.53125 82.15625 C 58.158121 82.15625 55.72989 80.764509 55.65625 78.5 C 55.545794 75.103235 58.594463 71.96875 63.9375 71.96875 z M 79.15625 71.96875 C 82.556365 71.96875 84.33105 72.836099 84.375 74.1875 C 84.382126 74.406646 84.34725 74.671281 84.25 75 L 82.71875 80.46875 C 82.66958 80.614847 82.6839 80.765427 82.6875 80.875 C 82.696407 81.148933 82.86638 81.377043 83.28125 81.6875 L 83.15625 82 L 79.03125 82 C 78.889796 81.799116 78.8185 81.682622 78.8125 81.5 C 78.808343 81.372165 78.86545 81.148933 78.9375 80.875 C 77.350465 81.861158 76.065133 82.15625 74.5 82.15625 C 71.963407 82.15625 70.41835 81.239388 70.375 79.90625 C 70.317397 78.134819 72.272277 76.677743 75.6875 76.3125 L 77.25 76.15625 C 79.186391 75.955366 79.154926 75.969146 79.6875 75.75 C 80.221262 75.567378 80.60622 75.164756 80.59375 74.78125 C 80.575935 74.233385 79.969987 74 78.59375 74 C 76.866707 74 76.019835 74.37058 75.59375 75.375 L 72.09375 75.375 C 72.772131 73.000917 74.919599 71.96875 79.15625 71.96875 z M 63.5625 74 C 61.808473 74 60.577414 74.570277 60.03125 76.03125 L 65.96875 76.03125 L 65.96875 75.75 C 65.926586 74.453385 65.046677 74 63.5625 74 z M 79.90625 77.34375 C 79.426458 77.526375 79.543787 77.50244 78.65625 77.59375 L 76.875 77.78125 C 75.127505 77.982134 74.15959 78.485427 74.1875 79.34375 C 74.207098 79.946402 74.954718 80.09375 76.25 80.09375 C 78.057998 80.09375 79.3712 79.278748 79.78125 77.78125 L 79.90625 77.34375 z " style="fill:#aaaaaa"/>
</svg>