<?xml version="1.0" encoding="UTF-8" standalone="no"?>
<svg xmlns:dc="http://purl.org/dc/elements/1.1/"
     xmlns:cc="http://creativecommons.org/ns#"
     xmlns:rdf="http://www.w3.org/1999/02/22-rdf-syntax-ns#"
     xmlns:svg="http://www.w3.org/2000/svg"
     xmlns="http://www.w3.org/2000/svg"
     xmlns:xlink="http://www.w3.org/1999/xlink"
     width="128" height="128" version="1.1">
    <title>Copyright File Icon</title>
    <desc>This is shape (source) for Clarity vector icon theme for gtk</desc>
    <metadata>
        <rdf:RDF>
            <cc:Work rdf:about="">
                <dc:title>Copyright File Icon</dc:title>
                <dc:description>This is shape (source) for Clarity vector icon theme for gtk</dc:description>
                <dc:creator>
                    <cc:Agent>
                        <dc:title>Jakub Jankiewicz</dc:title>
                    </cc:Agent>
                </dc:creator>
                <dc:rights>
                    <cc:Agent>
                        <dc:title>Jakub Jankiewicz</dc:title>
                    </cc:Agent>
                </dc:rights>
                <dc:date>2010</dc:date>
                <dc:format>image/svg+xml</dc:format>
                <dc:type rdf:resource="http://purl.org/dc/dcmitype/StillImage" />
                <cc:license rdf:resource="http://www.gnu.org/copyleft/gpl.html" />
             </cc:Work>
        </rdf:RDF>
    </metadata>
    <path d="M 28.5 11.25 C 25.598125 11.54359 23.375 14.015184 23.375 17 L 23.375 111 C 23.375 114.1838 25.90994 116.75 29.09375 116.75 L 98.90625 116.75 C 102.09005 116.75 104.625 114.1838 104.625 111 L 104.625 40.375 L 83.59375 40.375 C 79.28764 40.375 75.53125 37.233891 75.53125 33.0625 L 75.53125 11.25 L 29.09375 11.25 C 28.894762 11.25 28.693458 11.23043 28.5 11.25 z M 79.53125 11.25 L 79.53125 33.0625 C 79.53125 34.776622 81.16322 36.375 83.59375 36.375 L 104.625 36.375 L 79.53125 11.25 z M 64 55.96875 C 66.794835 55.968791 69.403733 56.45749 71.8125 57.46875 C 74.239582 58.480088 76.433247 59.995824 78.4375 62 C 80.441669 64.004246 81.944541 66.216298 82.9375 68.625 C 83.930365 71.033759 84.437451 73.637133 84.4375 76.46875 C 84.437451 79.263633 83.930365 81.872532 82.9375 84.28125 C 81.944541 86.671605 80.441669 88.870796 78.4375 90.875 C 76.433247 92.879217 74.239582 94.394952 71.8125 95.40625 C 69.403733 96.41755 66.794835 96.90625 64 96.90625 C 61.205109 96.90625 58.583347 96.41755 56.15625 95.40625 C 53.747499 94.394952 51.566697 92.879217 49.5625 90.875 C 47.558276 88.870796 46.055402 86.671605 45.0625 84.28125 C 44.069579 81.872532 43.562492 79.263633 43.5625 76.46875 C 43.562492 73.637133 44.069579 71.033759 45.0625 68.625 C 46.055402 66.216298 47.558276 64.004246 49.5625 62 C 51.566697 59.995824 53.747499 58.480088 56.15625 57.46875 C 58.583347 56.45749 61.205109 55.968791 64 55.96875 z M 64 58.8125 C 61.591241 58.812538 59.358988 59.229586 57.28125 60.09375 C 55.203468 60.957988 53.290886 62.271631 51.5625 64 C 49.834082 65.728435 48.538826 67.635493 47.65625 69.75 C 46.773649 71.846175 46.312489 74.078427 46.3125 76.46875 C 46.312489 78.840726 46.773649 81.091367 47.65625 83.1875 C 48.538826 85.265274 49.834082 87.177856 51.5625 88.90625 C 53.290886 90.63466 55.203468 91.929916 57.28125 92.8125 C 59.358988 93.676705 61.591241 94.093753 64 94.09375 C 66.427089 94.093753 68.672205 93.676705 70.75 92.8125 C 72.846112 91.929916 74.771557 90.63466 76.5 88.90625 C 78.209974 87.196243 79.466642 85.296524 80.3125 83.21875 C 81.176657 81.141004 81.624954 78.877501 81.625 76.46875 C 81.624954 74.023265 81.176657 71.765288 80.3125 69.6875 C 79.448255 67.591381 78.191587 65.710048 76.5 64 C 74.771557 62.271631 72.846112 60.957988 70.75 60.09375 C 68.672205 59.229586 66.427089 58.812538 64 58.8125 z M 64.6875 64.03125 C 66.02974 64.031283 67.343384 64.180111 68.59375 64.4375 C 69.844051 64.694955 71.054792 65.066075 72.25 65.5625 L 72.25 69.125 C 71.036405 68.518249 69.820139 68.075475 68.625 67.78125 C 67.429796 67.487083 66.244779 67.31253 65.03125 67.3125 C 62.291519 67.31253 60.138257 68.131949 58.59375 69.75 C 57.067585 71.349719 56.312479 73.581971 56.3125 76.46875 C 56.312479 79.392344 57.09331 81.681572 58.65625 83.28125 C 60.237531 84.880955 62.431196 85.656261 65.28125 85.65625 C 66.458005 85.656261 67.628344 85.525821 68.75 85.25 C 69.871589 84.955816 71.036405 84.50018 72.25 83.875 L 72.25 87.375 C 71.018018 87.90824 69.768688 88.305087 68.5 88.5625 C 67.249634 88.81993 65.974579 88.937508 64.6875 88.9375 C 60.715824 88.937508 57.566775 87.837007 55.25 85.59375 C 52.951574 83.350517 51.812484 80.293319 51.8125 76.46875 C 51.812484 72.625834 52.951574 69.599887 55.25 67.375 C 57.566775 65.150172 60.715824 64.031283 64.6875 64.03125 z " style="fill:#aaaaaa"/>
</svg>