<?xml version="1.0" encoding="UTF-8" standalone="no"?>
<svg xmlns:dc="http://purl.org/dc/elements/1.1/"
     xmlns:cc="http://creativecommons.org/ns#"
     xmlns:rdf="http://www.w3.org/1999/02/22-rdf-syntax-ns#"
     xmlns:svg="http://www.w3.org/2000/svg"
     xmlns="http://www.w3.org/2000/svg"
     xmlns:xlink="http://www.w3.org/1999/xlink"
     width="128" height="128" version="1.1">
    <title>C++ Header File Icon</title>
    <desc>This is shape (source) for Clarity vector icon theme for gtk</desc>
    <metadata>
        <rdf:RDF>
            <cc:Work rdf:about="">
                <dc:title>C++ Header File Icon</dc:title>
                <dc:description>This is shape (source) for Clarity vector icon theme for gtk</dc:description>
                <dc:creator>
                    <cc:Agent>
                        <dc:title>Jakub Jankiewicz</dc:title>
                    </cc:Agent>
                </dc:creator>
                <dc:rights>
                    <cc:Agent>
                        <dc:title>Jakub Jankiewicz</dc:title>
                    </cc:Agent>
                </dc:rights>
                <dc:date>2010</dc:date>
                <dc:format>image/svg+xml</dc:format>
                <dc:type rdf:resource="http://purl.org/dc/dcmitype/StillImage" />
                <cc:license rdf:resource="http://creativecommons.org/licenses/by-sa/3.0/" />
             </cc:Work>
        </rdf:RDF>
    </metadata>
    <path d="M 29.09375 11.21875 C 25.909946 11.21875 23.375 13.784946 23.375 16.96875 L 23.375 111.03125 C 23.375 114.21505 25.909946 116.78125 29.09375 116.78125 L 98.90625 116.78125 C 102.09005 116.78125 104.625 114.21505 104.625 111.03125 L 104.625 40.34375 L 83.59375 40.34375 C 79.287639 40.34375 75.53125 37.202641 75.53125 33.03125 L 75.53125 11.21875 L 29.09375 11.21875 z M 79.53125 11.21875 L 79.53125 33.03125 C 79.53125 34.745372 81.163219 36.34375 83.59375 36.34375 L 104.625 36.34375 L 79.53125 11.21875 z M 32.78125 62.90625 L 41.34375 62.90625 L 41.34375 74.71875 L 43.90625 74.71875 L 43.90625 62.90625 L 52.46875 62.90625 L 52.46875 95.90625 L 43.90625 95.90625 L 43.90625 82.03125 L 41.34375 82.03125 L 41.34375 95.90625 L 32.78125 95.90625 L 32.78125 62.90625 z M 61.96875 70 L 66.71875 70 L 66.71875 77.03125 L 73.78125 77.03125 L 73.78125 81.8125 L 66.71875 81.8125 L 66.71875 88.78125 L 61.96875 88.78125 L 61.96875 81.8125 L 54.9375 81.8125 L 54.9375 77.03125 L 61.96875 77.03125 L 61.96875 70 z M 83.28125 70 L 88.0625 70 L 88.0625 77.03125 L 95.09375 77.03125 L 95.09375 81.8125 L 88.0625 81.8125 L 88.0625 88.78125 L 83.28125 88.78125 L 83.28125 81.8125 L 76.28125 81.8125 L 76.28125 77.03125 L 83.28125 77.03125 L 83.28125 70 z " style="fill:#aaaaaa"/>
</svg>