<?xml version="1.0" encoding="UTF-8" standalone="no"?>
<svg xmlns:dc="http://purl.org/dc/elements/1.1/"
     xmlns:cc="http://creativecommons.org/ns#"
     xmlns:rdf="http://www.w3.org/1999/02/22-rdf-syntax-ns#"
     xmlns:svg="http://www.w3.org/2000/svg"
     xmlns="http://www.w3.org/2000/svg"
     xmlns:xlink="http://www.w3.org/1999/xlink"
     width="128" height="128" version="1.1">
    <title>Markdown icon</title>
    <desc>This is shape (source) for Clarity vector icon theme for gtk</desc>
    <metadata>
        <rdf:RDF>
            <cc:Work rdf:about="">
                <dc:title>Markdown icon</dc:title>
                <dc:description>This is shape (source) for Clarity vector icon theme for gtk</dc:description>
                <dc:creator>
                    <cc:Agent>
                        <dc:title>Jakub Jankiewicz</dc:title>
                    </cc:Agent>
                </dc:creator>
                <dc:rights>
                    <cc:Agent>
                        <dc:title>Jakub Jankiewicz</dc:title>
                    </cc:Agent>
                </dc:rights>
                <dc:date>2010</dc:date>
                <dc:format>image/svg+xml</dc:format>
                <dc:type rdf:resource="http://purl.org/dc/dcmitype/StillImage" />
                <cc:license rdf:resource="http://creativecommons.org/licenses/by-sa/3.0/" />
             </cc:Work>
        </rdf:RDF>
    </metadata>
    <path d="M 29.09375 11.236328 C 25.90994 11.236328 23.375 13.802524 23.375 16.986328 L 23.375 111.01367 C 23.375 114.19747 25.90994 116.76367 29.09375 116.76367 L 98.90625 116.76367 C 102.09005 116.76367 104.625 114.19747 104.625 111.01367 L 104.625 40.361328 L 83.59375 40.361328 C 79.28764 40.361328 75.53125 37.220219 75.53125 33.048828 L 75.53125 11.236328 L 29.09375 11.236328 z M 79.53125 11.236328 L 79.53125 33.048828 C 79.53125 34.76295 81.16322 36.361328 83.59375 36.361328 L 104.625 36.361328 L 79.53125 11.236328 z M 44.890625 64.341797 L 51.744141 72.365234 L 58.599609 64.341797 L 67.166016 64.507812 L 67.166016 90.546875 L 58.599609 90.546875 L 58.599609 77.443359 L 51.777344 85.927734 L 51.777344 86.009766 L 51.744141 85.970703 L 51.712891 86.009766 L 51.712891 85.927734 L 44.890625 77.443359 L 44.890625 90.546875 L 36.324219 90.546875 L 36.324219 64.507812 L 44.890625 64.341797 z M 75.742188 64.341797 L 84.548828 64.341797 L 84.548828 77.761719 L 91.675781 77.761719 L 80.144531 93.083984 L 68.615234 77.761719 L 75.742188 77.761719 L 75.742188 64.341797 z " style="fill:#aaaaaa"/>
</svg>