<?xml version="1.0" encoding="UTF-8" standalone="no"?>
<svg xmlns:dc="http://purl.org/dc/elements/1.1/"
     xmlns:cc="http://creativecommons.org/ns#"
     xmlns:rdf="http://www.w3.org/1999/02/22-rdf-syntax-ns#"
     xmlns:svg="http://www.w3.org/2000/svg"
     xmlns="http://www.w3.org/2000/svg"
     xmlns:xlink="http://www.w3.org/1999/xlink"
     width="128" height="128" version="1.1">
    <title>System Log File Icon</title>
    <desc>This is shape (source) for Clarity vector icon theme for gtk</desc>
    <metadata>
        <rdf:RDF>
            <cc:Work rdf:about="">
                <dc:title>System Log File Icon</dc:title>
                <dc:description>This is shape (source) for Clarity vector icon theme for gtk</dc:description>
                <dc:creator>
                    <cc:Agent>
                        <dc:title>Jakub Jankiewicz</dc:title>
                    </cc:Agent>
                </dc:creator>
                <dc:rights>
                    <cc:Agent>
                        <dc:title>Jakub Jankiewicz</dc:title>
                    </cc:Agent>
                </dc:rights>
                <dc:date>2010</dc:date>
                <dc:format>image/svg+xml</dc:format>
                <dc:type rdf:resource="http://purl.org/dc/dcmitype/StillImage" />
                <cc:license rdf:resource="http://creativecommons.org/licenses/by-sa/3.0/" />
             </cc:Work>
        </rdf:RDF>
    </metadata>
    <path d="M 28.5 11.25 C 25.598125 11.54359 23.375 14.015184 23.375 17 L 23.375 111 C 23.375 114.1838 25.90994 116.75 29.09375 116.75 L 98.90625 116.75 C 102.09005 116.75 104.625 114.1838 104.625 111 L 104.625 40.375 L 83.59375 40.375 C 79.28764 40.375 75.53125 37.233891 75.53125 33.0625 L 75.53125 11.25 L 29.09375 11.25 C 28.894762 11.25 28.693458 11.230427 28.5 11.25 z M 79.53125 11.25 L 79.53125 33.0625 C 79.53125 34.776622 81.16322 36.375 83.59375 36.375 L 104.625 36.375 L 79.53125 11.25 z M 29.21875 59.5 L 34.6875 59.5 L 34.6875 61.9375 L 32.15625 61.9375 L 32.15625 77.75 L 34.6875 77.75 L 34.6875 80.1875 L 29.21875 80.1875 L 29.21875 59.5 z M 93.3125 59.5 L 98.78125 59.5 L 98.78125 80.1875 L 93.3125 80.1875 L 93.3125 77.75 L 95.84375 77.75 L 95.84375 61.90625 L 93.3125 61.90625 L 93.3125 59.5 z M 35.4375 63.9375 L 39.21875 63.9375 L 41.28125 67.15625 L 43.46875 63.9375 L 47.09375 63.9375 L 43.15625 69.5 L 47.46875 75.65625 L 43.65625 75.65625 L 41.28125 72.03125 L 38.90625 75.65625 L 35.28125 75.65625 L 39.5 69.625 L 35.4375 63.9375 z M 48 63.9375 L 51.78125 63.9375 L 53.84375 67.15625 L 56.03125 63.9375 L 59.65625 63.9375 L 55.6875 69.5 L 60.03125 75.65625 L 56.21875 75.65625 L 53.84375 72.03125 L 51.4375 75.65625 L 47.8125 75.65625 L 52.03125 69.625 L 48 63.9375 z M 62.46875 63.9375 L 65.5625 63.9375 L 65.5625 67.03125 L 62.46875 67.03125 L 62.46875 63.9375 z M 68.09375 63.9375 L 71.875 63.9375 L 73.9375 67.15625 L 76.125 63.9375 L 79.75 63.9375 L 75.78125 69.5 L 80.125 75.65625 L 76.3125 75.65625 L 73.9375 72.03125 L 71.53125 75.65625 L 67.90625 75.65625 L 72.125 69.625 L 68.09375 63.9375 z M 80.625 63.9375 L 84.40625 63.9375 L 86.5 67.15625 L 88.65625 63.9375 L 92.3125 63.9375 L 88.34375 69.5 L 92.65625 75.65625 L 88.875 75.65625 L 86.5 72.03125 L 84.09375 75.65625 L 80.46875 75.65625 L 84.6875 69.625 L 80.625 63.9375 z M 62.46875 72.5625 L 65.5625 72.5625 L 65.5625 75.65625 L 62.46875 75.65625 L 62.46875 72.5625 z M 29.21875 87.3125 L 34.6875 87.3125 L 34.6875 89.75 L 32.15625 89.75 L 32.15625 105.5625 L 34.6875 105.5625 L 34.6875 108 L 29.21875 108 L 29.21875 87.3125 z M 93.3125 87.3125 L 98.78125 87.3125 L 98.78125 108 L 93.3125 108 L 93.3125 105.5625 L 95.84375 105.5625 L 95.84375 89.71875 L 93.3125 89.71875 L 93.3125 87.3125 z M 35.4375 91.75 L 39.21875 91.75 L 41.28125 94.96875 L 43.46875 91.75 L 47.09375 91.75 L 43.15625 97.28125 L 47.46875 103.4375 L 43.65625 103.4375 L 41.28125 99.8125 L 38.90625 103.4375 L 35.28125 103.4375 L 39.5 97.4375 L 35.4375 91.75 z M 48 91.75 L 51.78125 91.75 L 53.84375 94.96875 L 56.03125 91.75 L 59.65625 91.75 L 55.6875 97.28125 L 60.03125 103.4375 L 56.21875 103.4375 L 53.84375 99.8125 L 51.4375 103.4375 L 47.8125 103.4375 L 52.03125 97.4375 L 48 91.75 z M 62.46875 91.75 L 65.5625 91.75 L 65.5625 94.84375 L 62.46875 94.84375 L 62.46875 91.75 z M 68.09375 91.75 L 71.875 91.75 L 73.9375 94.96875 L 76.125 91.75 L 79.75 91.75 L 75.78125 97.28125 L 80.125 103.4375 L 76.3125 103.4375 L 73.9375 99.8125 L 71.53125 103.4375 L 67.90625 103.4375 L 72.125 97.4375 L 68.09375 91.75 z M 80.625 91.75 L 84.40625 91.75 L 86.5 94.96875 L 88.65625 91.75 L 92.3125 91.75 L 88.34375 97.28125 L 92.65625 103.4375 L 88.875 103.4375 L 86.5 99.8125 L 84.09375 103.4375 L 80.46875 103.4375 L 84.6875 97.4375 L 80.625 91.75 z M 62.46875 100.34375 L 65.5625 100.34375 L 65.5625 103.4375 L 62.46875 103.4375 L 62.46875 100.34375 z " style="fill:#aaaaaa"/>
</svg>