<?xml version="1.0" encoding="UTF-8" standalone="no"?>
<svg xmlns:dc="http://purl.org/dc/elements/1.1/"
     xmlns:cc="http://creativecommons.org/ns#"
     xmlns:rdf="http://www.w3.org/1999/02/22-rdf-syntax-ns#"
     xmlns:svg="http://www.w3.org/2000/svg"
     xmlns="http://www.w3.org/2000/svg"
     xmlns:xlink="http://www.w3.org/1999/xlink"
     width="128" height="128" version="1.1">
    <title>Perl File Icon</title>
    <desc>This is shape (source) for Clarity vector icon theme for gtk</desc>
    <metadata>
        <rdf:RDF>
            <cc:Work rdf:about="">
                <dc:title>Perl File Icon</dc:title>
                <dc:description>This is shape (source) for Clarity vector icon theme for gtk</dc:description>
                <dc:creator>
                    <cc:Agent>
                        <dc:title>Jakub Jankiewicz</dc:title>
                    </cc:Agent>
                </dc:creator>
                <dc:rights>
                    <cc:Agent>
                        <dc:title>Jakub Jankiewicz</dc:title>
                    </cc:Agent>
                </dc:rights>
                <dc:date>2010</dc:date>
                <dc:format>image/svg+xml</dc:format>
                <dc:type rdf:resource="http://purl.org/dc/dcmitype/StillImage" />
                <cc:license rdf:resource="http://www.gnu.org/copyleft/gpl.html" />
             </cc:Work>
        </rdf:RDF>
    </metadata>
    <path d="M 29.09375 11.21875 C 25.909946 11.21875 23.375 13.784945 23.375 16.96875 L 23.375 111.03125 C 23.375 114.21505 25.909946 116.78125 29.09375 116.78125 L 98.90625 116.78125 C 102.09005 116.78125 104.625 114.21505 104.625 111.03125 L 104.625 40.34375 L 83.59375 40.34375 C 79.28764 40.34375 75.53125 37.202641 75.53125 33.03125 L 75.53125 11.21875 L 29.09375 11.21875 z M 79.53125 11.21875 L 79.53125 33.03125 C 79.53125 34.745373 81.163219 36.34375 83.59375 36.34375 L 104.625 36.34375 L 79.53125 11.21875 z M 71.40625 54.46875 C 71.619551 54.456199 71.835928 54.46464 72.0625 54.46875 C 73.572978 54.49616 75.292601 54.852264 76.03125 55.40625 C 77.213088 56.292628 78.392041 58.249973 78.6875 59.875 C 78.982959 61.500026 80.005663 63.397703 81.1875 64.875 C 82.369338 66.352296 83.84375 68.880662 83.84375 70.0625 C 83.84375 71.244337 86.198852 72.707371 86.9375 73.59375 C 87.676149 74.480128 87.96875 77.289743 87.96875 79.0625 C 87.96875 80.835256 86.974439 84.210204 86.53125 85.6875 C 86.088061 87.164797 83.551122 86.585256 84.4375 84.8125 C 85.323841 83.039744 85.60796 79.068216 85.3125 77 C 85.017041 74.931785 83.701709 75.815305 83.40625 78.03125 C 83.110791 80.247195 83.40625 84.377804 83.40625 86.59375 C 83.40625 88.809695 83.83806 90.562473 84.28125 92.1875 C 84.724439 93.812526 84.434668 94.710204 83.84375 96.1875 C 83.252831 97.6648 83.119312 100.46872 83.5625 102.09375 C 84.005689 103.71878 84.4375 106.09375 84.4375 106.09375 L 80.03125 106.09375 C 80.03125 106.09375 80.463061 102.97161 80.90625 101.9375 C 81.349439 100.90339 81.9375 98.44036 81.9375 97.40625 C 81.9375 96.372142 81.65625 91.471609 81.65625 90.4375 C 81.65625 89.403393 80.301148 87.781277 79.5625 86.15625 C 78.823852 84.531224 78.36648 82.610817 78.21875 81.28125 C 78.07102 79.951683 77.224439 80.701683 76.78125 82.03125 C 76.338061 83.360817 75.28125 85.539744 75.28125 87.3125 C 75.28125 89.085256 75.15625 91.153392 75.15625 92.1875 C 75.15625 93.221607 74.252857 93.411913 73.21875 94.59375 C 72.184642 95.775588 71.405315 97.824396 71.25 98.875 C 71.121202 99.746241 72.78125 100.5 72.78125 100.5 C 73.372577 101.92826 73.34995 103.05801 73.34375 104.1875 L 70.625 104.25 C 70.625 104.25 71.315358 102.68467 70.28125 102.09375 C 69.247143 101.50283 69.0625 102.26135 69.0625 103 L 69.0625 103.90625 L 63.90625 103.90625 C 63.90625 103.90625 67.279979 100.73394 68.03125 100.3125 C 68.805452 99.878203 64.090323 95.153276 62.125 93.8125 C 61.07521 93.096315 63.298291 88.826736 63.59375 86.90625 C 63.889263 84.985764 63.90625 84.0625 63.90625 84.0625 L 60.65625 84.0625 C 60.65625 84.0625 59.340919 89.394846 58.75 91.90625 C 58.159081 94.417655 59.488649 95.178954 58.75 96.65625 C 58.011351 98.13355 56.21875 107.15625 56.21875 107.15625 L 50.90625 107.15625 C 50.90625 107.15625 55.056811 105.48301 55.5 101.9375 C 55.943189 98.391985 55.769898 92.948905 55.03125 90.4375 C 54.292602 87.926096 55.1875 82.4375 55.1875 82.4375 C 55.1875 82.4375 51.408337 84.448467 48.25 82.625 C 45.091663 80.801533 42.1875 75.090945 42.1875 72.875 C 42.1875 70.659054 43.073851 67.235817 43.8125 65.90625 C 44.551148 64.576684 44.409108 63.568189 43.375 63.125 C 42.340891 62.68181 41.744337 63.125 40.5625 63.125 C 39.380662 63.125 40.272703 58.826709 41.75 58.53125 C 43.227297 58.235736 44.690332 58.25 45.28125 58.25 C 45.87217 58.25 47.951683 56.15625 49.28125 56.15625 C 51.349465 56.15625 52.235791 57.323852 52.53125 58.0625 C 52.82671 58.801148 54.008521 59.874974 54.15625 61.5 C 54.30398 63.125027 54 64.724413 54 65.90625 C 54 67.088088 52.375 67.823826 52.375 70.1875 C 52.375 72.551176 52.690331 72.875 53.28125 72.875 C 53.872169 72.875 54.28977 71.383546 54.4375 69.90625 C 54.585229 68.428952 56.815331 66.369337 57.40625 65.1875 C 57.997168 64.005663 59.616452 64.281277 61.09375 62.65625 C 62.571046 61.031224 63.596582 58.985818 64.1875 57.65625 C 64.778419 56.326683 68.482932 55.551148 69.8125 54.8125 C 70.18644 54.604753 70.766347 54.506403 71.40625 54.46875 z M 70.09375 82.65625 C 70.09375 82.65625 69.624947 85.062762 69.28125 86.78125 C 68.937552 88.499738 67.218593 90.687658 66.1875 91.71875 C 65.156407 92.749843 64.948039 93.104289 65.75 93.90625 C 66.551961 94.708211 68.687605 97.34375 69.375 97.34375 C 70.062396 97.34375 70.541841 95.624738 71.6875 93.90625 C 72.833159 92.187762 71.333368 89.676752 71.5625 87.5 C 71.791632 85.323249 71.46875 82.65625 71.46875 82.65625 L 70.09375 82.65625 z " style="fill:#aaaaaa"/>
</svg>