<?xml version="1.0" encoding="UTF-8" standalone="no"?>
<svg xmlns:dc="http://purl.org/dc/elements/1.1/"
     xmlns:cc="http://creativecommons.org/ns#"
     xmlns:rdf="http://www.w3.org/1999/02/22-rdf-syntax-ns#"
     xmlns:svg="http://www.w3.org/2000/svg"
     xmlns="http://www.w3.org/2000/svg"
     xmlns:xlink="http://www.w3.org/1999/xlink"
     width="128" height="128" version="1.1">
    <title>Scala source icon</title>
    <desc>This is shape (source) for Clarity vector icon theme for gtk</desc>
    <metadata>
        <rdf:RDF>
            <cc:Work rdf:about="">
                <dc:title>Scala source icon</dc:title>
                <dc:description>This is shape (source) for Clarity vector icon theme for gtk</dc:description>
                <dc:creator>
                    <cc:Agent>
                        <dc:title>Jakub Jankiewicz</dc:title>
                    </cc:Agent>
                </dc:creator>
                <dc:rights>
                    <cc:Agent>
                        <dc:title>Jakub Jankiewicz</dc:title>
                    </cc:Agent>
                </dc:rights>
                <dc:date>2010</dc:date>
                <dc:format>image/svg+xml</dc:format>
                <dc:type rdf:resource="http://purl.org/dc/dcmitype/StillImage" />
                <cc:license rdf:resource="http://www.gnu.org/copyleft/gpl.html" />
             </cc:Work>
        </rdf:RDF>
    </metadata>
    <path d="M 28.5 11.25 C 25.598132 11.543591 23.375 14.015187 23.375 17 L 23.375 111 C 23.375 114.1838 25.90995 116.75 29.09375 116.75 L 98.90625 116.75 C 102.09005 116.75 104.625 114.1838 104.625 111 L 104.625 40.375 L 83.59375 40.375 C 79.28765 40.375 75.53125 37.23389 75.53125 33.0625 L 75.53125 11.25 L 29.09375 11.25 C 28.894762 11.25 28.693458 11.230427 28.5 11.25 z M 79.53125 11.25 L 79.53125 33.0625 C 79.53125 34.77663 81.16322 36.375 83.59375 36.375 L 104.625 36.375 L 79.53125 11.25 z M 80.375 48.375 L 80.375 61.125 C 72.24885 67.232507 56.091898 66.305264 47.625 68.65625 L 47.625 55.90625 C 56.545055 54.320638 76.23208 53.491411 80.375 48.375 z M 80.375 64.6875 L 80.375 77.4375 C 72.24885 83.545025 56.091898 82.617703 47.625 84.96875 L 47.625 72.1875 C 56.545055 70.601888 76.23208 69.803902 80.375 64.6875 z M 80.375 80.96875 L 80.375 93.75 C 72.24885 99.857438 56.091898 98.930207 47.625 101.28125 L 47.625 88.5 C 56.545055 86.914354 76.23208 86.085083 80.375 80.96875 z " style="fill:#aaaaaa"/>
</svg>