<?xml version="1.0" encoding="UTF-8" standalone="no"?>
<svg xmlns:dc="http://purl.org/dc/elements/1.1/"
     xmlns:cc="http://creativecommons.org/ns#"
     xmlns:rdf="http://www.w3.org/1999/02/22-rdf-syntax-ns#"
     xmlns:svg="http://www.w3.org/2000/svg"
     xmlns="http://www.w3.org/2000/svg"
     xmlns:xlink="http://www.w3.org/1999/xlink"
     width="128" height="128" version="1.1">
    <title>Pascal File Icon</title>
    <desc>This is shape (source) for Clarity vector icon theme for gtk</desc>
    <metadata>
        <rdf:RDF>
            <cc:Work rdf:about="">
                <dc:title>Pascal File Icon</dc:title>
                <dc:description>This is shape (source) for Clarity vector icon theme for gtk</dc:description>
                <dc:creator>
                    <cc:Agent>
                        <dc:title>Jakub Jankiewicz</dc:title>
                    </cc:Agent>
                </dc:creator>
                <dc:rights>
                    <cc:Agent>
                        <dc:title>Jakub Jankiewicz</dc:title>
                    </cc:Agent>
                </dc:rights>
                <dc:date>2010</dc:date>
                <dc:format>image/svg+xml</dc:format>
                <dc:type rdf:resource="http://purl.org/dc/dcmitype/StillImage" />
                <cc:license rdf:resource="http://www.gnu.org/copyleft/gpl.html" />
             </cc:Work>
        </rdf:RDF>
    </metadata>
    <path d="m 29.09375,11.234375 c -3.18381,0 -5.71875,2.566196 -5.71875,5.75 l 0,94.031255 c 0,3.1838 2.53494,5.75 5.71875,5.75 l 69.8125,0 c 3.1838,0 5.71875,-2.5662 5.71875,-5.75 l 0,-70.656255 -21.03125,0 c -4.30611,0 -8.0625,-3.141109 -8.0625,-7.3125 l 0,-21.8125 -46.4375,0 z m 50.4375,0 0,21.8125 c 0,1.714122 1.63197,3.3125 4.0625,3.3125 l 21.03125,0 -25.09375,-25.125 z M 72.5,43.890625 c 0.858935,0 0.9375,0.276539 0.9375,1.25 0,0.973462 -0.04039,1.1875 -0.9375,1.1875 -0.782586,0 -0.96875,-0.174002 -0.96875,-0.9375 0,-1.240687 0.109812,-1.5 0.96875,-1.5 z m -38.78125,1.78125 4.34375,0 c 2.691335,0 4.03125,1.060002 4.03125,2.96875 0,0.973461 -0.410151,1.741564 -1.25,2.21875 1.355212,0.477186 2,1.320125 2,2.65625 0,0.973461 -0.436163,1.845788 -1.21875,2.4375 -0.935288,0.68715 -1.929414,0.78125 -3.09375,0.78125 l -0.6875,0 -4.1875,0 c -0.439013,0 -0.65625,-0.248488 -0.65625,-0.6875 0,-0.629881 0.366739,-0.65625 1.1875,-0.65625 l 0.28125,0 0,-8.375 -0.28125,0 c -0.801675,0 -1.125,-0.0767 -1.125,-0.6875 0,-0.439012 0.236325,-0.65625 0.65625,-0.65625 z m 2.25,1.34375 0,3.4375 1.9375,0 c 1.73696,0 2.59375,-0.535327 2.59375,-1.71875 0,-1.087987 -0.749014,-1.71875 -2.21875,-1.71875 l -2.3125,0 z m 13.5625,0.84375 c 2.824947,0 4.53125,1.981964 4.53125,4.0625 0,0.87803 -0.35475,0.875 -1.5,0.875 l -6.25,0 c 0.09544,1.794223 1.228414,2.8125 3.15625,2.8125 1.889661,0 3.066401,-1.15625 3.90625,-1.15625 0.362663,0 0.65625,0.250176 0.65625,0.59375 0,0.381749 -0.227712,0.701524 -0.78125,0.96875 -1.278862,0.629886 -2.646476,0.9375 -3.90625,0.9375 -2.88221,0 -4.6875,-1.775727 -4.6875,-4.5625 0,-2.672248 1.99279,-4.53125 4.875,-4.53125 z m 35,0 c 1.775137,0 3.0625,1.155615 3.0625,3.3125 l 0,4.21875 0.40625,0 c 0.591712,0 0.875,0.179064 0.875,0.65625 0,0.534451 -0.300687,0.6875 -0.96875,0.6875 l -2.0625,0 c -0.668061,0 -0.96875,-0.0767 -0.96875,-0.6875 0,-0.515362 0.300689,-0.65625 0.96875,-0.65625 l 0.28125,0 0,-3.875 c 0,-1.488823 -0.684652,-2.21875 -1.90625,-2.21875 -1.126161,0 -2.4375,0.825363 -2.4375,2.21875 l 0,3.875 0.4375,0 c 0.648974,0 0.875,0.140888 0.875,0.65625 0,0.629894 -0.293763,0.6875 -1,0.6875 l -1.6875,0 -0.46875,0 c -0.534449,0 -0.8125,-0.248488 -0.8125,-0.6875 0,-0.534447 0.330251,-0.65625 1.09375,-0.65625 l 0.1875,0 0,-5.96875 -0.40625,0 c -0.591712,0 -0.875,-0.179063 -0.875,-0.65625 0,-0.648974 0.422314,-0.65625 1.28125,-0.65625 l 0.875,0 c 0.362662,0 0.5625,0.145951 0.5625,0.375 l 0,0.625 c 0.897112,-0.839849 1.714039,-1.25 2.6875,-1.25 z m -24,0.21875 c 0.954374,0 1.884138,0.356263 2.78125,1.0625 l 0,-0.65625 c 0,-0.267221 0.168588,-0.375 0.53125,-0.375 l 1.40625,0 c 0.496275,0 0.71875,0.217239 0.71875,0.65625 0,0.53445 -0.311163,0.65625 -1.09375,0.65625 l -0.15625,0 0,6.8125 0,0.1875 c 0,1.049811 -0.009,1.868425 -0.5625,2.59375 -0.687148,0.897111 -1.981788,1.40625 -3.71875,1.40625 -1.374298,0 -2.0625,-0.23295 -2.0625,-0.84375 0,-0.381751 0.373488,-0.71875 0.8125,-0.71875 0.553536,0 1.066226,0.125 1.5625,0.125 1.946925,0 2.5625,-0.853413 2.5625,-2.78125 l 0,-1.15625 c -0.763499,0.878024 -1.672488,1.3125 -2.875,1.3125 -2.309585,0 -4,-1.713053 -4,-4.15625 0,-2.405025 1.841428,-4.125 4.09375,-4.125 z M 70,48.109375 l 2.71875,0 c 0.362661,0 0.53125,0.14595 0.53125,0.375 l 0,6.90625 3,0 c 0.477186,0 0.6875,0.19815 0.6875,0.65625 0,0.534451 -0.196464,0.6875 -0.75,0.6875 l -7.21875,0 c -0.496275,0 -0.75,-0.248488 -0.75,-0.6875 0,-0.439012 0.297137,-0.65625 0.8125,-0.65625 l 2.8125,0 0,-5.96875 -1.78125,0 c -0.515363,0 -0.8125,-0.217239 -0.8125,-0.65625 0,-0.439012 0.253725,-0.65625 0.75,-0.65625 z m -20.46875,1.03125 c -1.641523,0 -2.824838,0.891413 -3.1875,2.4375 l 6.0625,0 c -0.171787,-1.488824 -1.367088,-2.4375 -2.875,-2.4375 z m 11.09375,0.34375 c -1.622436,0 -2.75,1.1154 -2.75,2.71875 0,1.565173 1.108476,2.6875 2.75,2.6875 1.622436,0 2.78125,-1.103239 2.78125,-2.6875 0,-1.565175 -1.139727,-2.71875 -2.78125,-2.71875 z m -24.65625,2.09375 0,3.8125 2.0625,0 c 2.137798,0 3.1875,-0.417426 3.1875,-1.90625 0,-1.526999 -1.020139,-1.90625 -3.0625,-1.90625 l -2.1875,0 z m 7.96875,9.03125 c 0.954374,0 1.625,0.736676 1.625,1.84375 0,1.107076 -0.651538,1.8125 -1.625,1.8125 -0.973462,0 -1.6875,-0.705424 -1.6875,-1.8125 0,-1.107074 0.733126,-1.84375 1.6875,-1.84375 z m -0.375,11.53125 c 0.110649,-0.02199 0.255704,0 0.375,0 0.954374,0 1.625,0.705425 1.625,1.8125 0,1.107074 -0.651538,1.84375 -1.625,1.84375 -0.973462,0 -1.6875,-0.736676 -1.6875,-1.84375 0,-0.96869 0.537965,-1.658532 1.3125,-1.8125 z m 0.375,11.46875 c 0.954374,0 1.625,0.705426 1.625,1.8125 0,1.107074 -0.651538,1.84375 -1.625,1.84375 -0.973462,0 -1.6875,-0.736676 -1.6875,-1.84375 0,-1.107074 0.733126,-1.8125 1.6875,-1.8125 z m 18.6875,7.84375 1.90625,0 c 0.362663,0 0.53125,0.107775 0.53125,0.375 l 0,10.531255 0.40625,0 c 0.591712,0 0.875,0.17906 0.875,0.65625 0,0.41992 -0.286663,0.65625 -0.6875,0.65625 l -1.75,0 c -0.28632,0 -0.375,-0.14427 -0.375,-0.46875 l 0,-0.78125 c -0.744411,0.93528 -1.870462,1.46875 -3.1875,1.46875 -2.347761,0 -4.15625,-1.82252 -4.15625,-4.437505 0,-2.462286 1.886702,-4.40625 4.40625,-4.40625 1.278862,0 2.337176,0.446638 3.0625,1.34375 l 0,-3.59375 -0.5,0 c -0.878023,0 -1.3125,-0.04545 -1.3125,-0.65625 0,-0.439012 0.284975,-0.6875 0.78125,-0.6875 z m -28.96875,1.15625 c 0.142115,-0.01512 0.282647,0 0.46875,0 l 7.71875,0 c 0.419924,0 0.65625,0.253725 0.65625,0.75 l 0,2.1875 c 0,0.591712 -0.140887,0.875 -0.65625,0.875 -0.496275,0 -0.6875,-0.271125 -0.6875,-0.84375 l 0,-0.3125 0,-1.34375 -4.96875,0 0,3.1875 2.4375,0 0,-0.5 c 0,-0.629886 0.147813,-0.90625 0.625,-0.90625 0.515365,0 0.5625,0.330251 0.5625,1.09375 l 0,1.75 c 0,0.744412 -0.009,1.09375 -0.5625,1.09375 -0.496277,0 -0.625,-0.323326 -0.625,-1.125 l 0,-0.28125 -2.4375,0 0,4.125005 4.96875,0 0,-1.53125 c 0,-0.78259 0.0767,-1.093755 0.6875,-1.093755 0.534448,0 0.65625,0.276365 0.65625,0.906255 l 0,2.34375 c 0,0.43901 -0.236326,0.6875 -0.65625,0.6875 l -7.71875,0 -0.4375,0 c -0.458099,0 -0.6875,-0.21724 -0.6875,-0.65625 0,-0.59172 0.323326,-0.65625 1.125,-0.65625 l 0.59375,0 0,-8.437505 -0.59375,0 c -0.801674,0 -1.125,-0.03329 -1.125,-0.625 0,-0.47242 0.229904,-0.642134 0.65625,-0.6875 z M 50.25,94.828125 c 1.775137,0 3.0625,1.155614 3.0625,3.3125 l 0,4.218755 0.40625,0 c 0.591711,0 0.90625,0.17906 0.90625,0.65625 0,0.53444 -0.331937,0.65625 -1,0.65625 l -2.0625,0 c -0.668062,0 -0.96875,-0.0455 -0.96875,-0.65625 0,-0.51537 0.300688,-0.65625 0.96875,-0.65625 l 0.3125,0 0,-3.875005 c 0,-1.488823 -0.684652,-2.25 -1.90625,-2.25 -1.126163,0 -2.4375,0.856614 -2.4375,2.25 l 0,3.875005 c 0.152699,0 0.291722,-0.0312 0.40625,-0.0312 0.648974,0 0.875,0.17213 0.875,0.6875 0,0.62989 -0.293764,0.65625 -1,0.65625 l -1.65625,0 -0.5,0 c -0.534448,0 -0.8125,-0.21724 -0.8125,-0.65625 0,-0.53445 0.3615,-0.65625 1.125,-0.65625 l 0.1875,0 0,-5.968755 -0.4375,0 c -0.591711,0 -0.875,-0.210313 -0.875,-0.6875 0,-0.648974 0.453564,-0.65625 1.3125,-0.65625 l 0.875,0 c 0.362661,0 0.53125,0.145951 0.53125,0.375 l 0,0.65625 c 0.897111,-0.839849 1.714039,-1.25 2.6875,-1.25 z m 10.46875,1.59375 c -1.756049,0 -2.9375,1.242263 -2.9375,3.09375 0,1.756045 1.276889,2.875005 2.9375,2.875005 1.717874,0 2.96875,-1.28213 2.96875,-3.000005 0,-1.717874 -1.231788,-2.96875 -2.96875,-2.96875 z m 11.46875,4.062505 c 0.125784,-0.0212 0.236616,0 0.375,0 1.107074,0 1.84375,0.68278 1.84375,1.65625 0,0.97346 -0.736676,1.65625 -1.84375,1.65625 -1.107074,0 -1.8125,-0.70188 -1.8125,-1.65625 0,-0.83508 0.557015,-1.50803 1.4375,-1.65625 z" style="fill:#aaaaaa"/>
</svg>