<?xml version="1.0" encoding="UTF-8" standalone="no"?>
<svg xmlns:dc="http://purl.org/dc/elements/1.1/"
     xmlns:cc="http://creativecommons.org/ns#"
     xmlns:rdf="http://www.w3.org/1999/02/22-rdf-syntax-ns#"
     xmlns:svg="http://www.w3.org/2000/svg"
     xmlns="http://www.w3.org/2000/svg"
     xmlns:xlink="http://www.w3.org/1999/xlink"
     width="128" height="128" version="1.1">
    <title>Ada File Icon</title>
    <desc>This is shape (source) for Clarity vector icon theme for gtk</desc>
    <metadata>
        <rdf:RDF>
            <cc:Work rdf:about="">
                <dc:title>Ada File Icon</dc:title>
                <dc:description>This is shape (source) for Clarity vector icon theme for gtk</dc:description>
                <dc:creator>
                    <cc:Agent>
                        <dc:title>Jakub Jankiewicz</dc:title>
                    </cc:Agent>
                </dc:creator>
                <dc:rights>
                    <cc:Agent>
                        <dc:title>Jakub Jankiewicz</dc:title>
                    </cc:Agent>
                </dc:rights>
                <dc:date>2010</dc:date>
                <dc:format>image/svg+xml</dc:format>
                <dc:type rdf:resource="http://purl.org/dc/dcmitype/StillImage" />
                <cc:license rdf:resource="http://www.gnu.org/copyleft/gpl.html" />
             </cc:Work>
        </rdf:RDF>
    </metadata>
    <path d="M 28.5 11.25 C 25.598125 11.54359 23.375 14.015184 23.375 17 L 23.375 111 C 23.375 114.1838 25.90994 116.75 29.09375 116.75 L 98.90625 116.75 C 102.09005 116.75 104.625 114.1838 104.625 111 L 104.625 40.375 L 83.59375 40.375 C 79.28764 40.375 75.53125 37.233891 75.53125 33.0625 L 75.53125 11.25 L 29.09375 11.25 C 28.894762 11.25 28.693458 11.23043 28.5 11.25 z M 79.53125 11.25 L 79.53125 33.0625 C 79.53125 34.776622 81.16322 36.375 83.59375 36.375 L 104.625 36.375 L 79.53125 11.25 z M 71.90625 58.9375 L 71.90625 96.65625 L 74.21875 96.65625 L 74.21875 98.6875 L 69.1875 98.6875 L 69.1875 96.59375 C 67.726914 98.213467 65.868407 99.03125 63.59375 99.03125 C 62.01345 99.03125 60.760919 98.28497 59.875 96.8125 C 59.013019 95.303222 58.593748 93.212951 58.59375 90.5625 L 58.59375 82.90625 C 58.593748 81.654668 58.698059 80.473809 58.9375 79.40625 C 59.176936 78.33873 59.506508 77.429318 59.9375 76.65625 C 60.39243 75.883226 60.932649 75.279953 61.53125 74.875 C 62.153785 74.433283 62.812928 74.218774 63.53125 74.21875 C 64.608716 74.218774 65.643293 74.458972 66.625 74.9375 C 67.606687 75.379264 68.469173 76.125544 69.1875 77.15625 L 69.1875 61.625 L 66.71875 61.625 L 66.71875 59.65625 L 69.875 59.65625 C 70.353863 59.656289 70.751216 59.579224 71.0625 59.46875 C 71.373755 59.358354 71.642853 59.195222 71.90625 58.9375 z M 45.8125 59.3125 L 48.0625 59.3125 L 55.28125 96.59375 L 57.96875 96.59375 L 57.96875 98.6875 L 49 98.6875 L 49 96.59375 L 51.96875 96.59375 L 49.90625 85.53125 L 42.3125 85.53125 L 40.4375 95.25 C 40.533271 95.875802 40.811699 96.259005 41.21875 96.40625 C 41.62579 96.516687 42.314158 96.593752 43.34375 96.59375 L 43.34375 98.6875 L 35.96875 98.6875 L 35.96875 96.59375 C 36.806784 96.593752 37.398147 96.522249 37.78125 96.375 C 38.164349 96.190944 38.486615 95.879244 38.75 95.4375 L 45.8125 59.3125 z M 46.0625 65.15625 L 42.6875 83.5 L 49.53125 83.5 L 46.0625 65.15625 z M 82.15625 74.21875 L 84.59375 74.21875 C 86.102202 74.218774 87.279647 74.67348 88.09375 75.59375 C 88.907828 76.514066 89.312486 77.935122 89.3125 79.8125 L 89.3125 94.8125 C 89.312486 95.548738 89.327099 96.074947 89.375 96.40625 C 89.446818 96.700746 89.604297 96.875002 89.84375 96.875 C 90.155006 96.875002 90.53044 96.700746 90.9375 96.40625 C 91.34453 96.111759 91.659489 95.902812 91.875 95.71875 L 92.03125 97.53125 C 91.528413 97.972992 90.958969 98.330506 90.3125 98.625 C 89.689946 98.882682 88.98494 99.03125 88.21875 99.03125 C 87.763805 99.03125 87.419621 98.836867 87.15625 98.46875 C 86.892856 98.100633 86.72807 97.71743 86.65625 97.3125 C 85.746373 98.011924 84.733714 98.46663 83.65625 98.6875 C 82.602713 98.90837 81.546217 99.03125 80.46875 99.03125 C 79.319441 99.03125 78.488206 98.622358 77.9375 97.8125 C 77.410733 96.965832 77.124998 95.764846 77.125 94.21875 L 77.125 90.78125 C 77.124998 89.014296 77.604744 87.670305 78.5625 86.75 C 79.52025 85.829719 80.944874 85.349325 82.8125 85.3125 L 86.625 85.28125 L 86.625 78.96875 C 86.624989 77.827607 86.414341 77.081327 86.03125 76.75 C 85.648138 76.381905 85.078694 76.218772 84.3125 76.21875 L 82.53125 76.21875 C 81.788984 76.218772 81.180984 76.381905 80.75 76.75 C 80.319006 77.081327 80.124995 77.633224 80.125 78.40625 C 80.148939 78.811199 80.245945 79.225652 80.4375 79.59375 C 80.629046 79.961886 80.718745 80.462407 80.71875 81.125 C 80.455363 81.898063 80.02148 82.281266 79.375 82.28125 C 78.632737 82.207643 78.167604 81.701561 78 80.78125 L 78 79.03125 C 77.999998 77.485178 78.336875 76.309881 79.03125 75.5 C 79.749561 74.653354 80.791445 74.218774 82.15625 74.21875 z M 63.9375 76.21875 C 62.955796 76.218772 62.303958 76.693605 61.96875 77.6875 C 61.633531 78.681437 61.468745 80.245499 61.46875 82.34375 L 61.46875 91 C 61.468745 93.171898 61.633531 94.73596 61.96875 95.65625 C 62.303958 96.576546 63.008964 97.031252 64.0625 97.03125 C 65.499123 97.031252 66.65993 96.673737 67.59375 95.9375 C 68.551492 95.201269 69.091712 94.286295 69.1875 93.21875 L 69.1875 80.75 C 68.948049 79.424797 68.378605 78.31544 67.46875 77.46875 C 66.582818 76.622102 65.398066 76.218772 63.9375 76.21875 z M 86.625 87.09375 L 83.125 87.15625 C 81.903857 87.193073 81.079928 87.499212 80.625 88.125 C 80.170062 88.75081 79.937496 89.783101 79.9375 91.21875 L 79.9375 93.21875 C 79.937496 94.470353 80.080363 95.385327 80.34375 95.9375 C 80.607127 96.489678 81.13071 96.750002 81.96875 96.75 C 83.189879 96.750002 84.187926 96.561181 84.90625 96.15625 C 85.648499 95.751324 86.217944 95.245241 86.625 94.65625 L 86.625 87.09375 z " style="fill:#aaaaaa"/>
</svg>