<?xml version="1.0" encoding="UTF-8" standalone="no"?>
<svg xmlns:dc="http://purl.org/dc/elements/1.1/"
     xmlns:cc="http://creativecommons.org/ns#"
     xmlns:rdf="http://www.w3.org/1999/02/22-rdf-syntax-ns#"
     xmlns:svg="http://www.w3.org/2000/svg"
     xmlns="http://www.w3.org/2000/svg"
     xmlns:xlink="http://www.w3.org/1999/xlink"
     width="128" height="128" version="1.1">
    <title>Stylesheet Icon</title>
    <desc>This is shape (source) for Clarity vector icon theme for gtk</desc>
    <metadata>
        <rdf:RDF>
            <cc:Work rdf:about="">
                <dc:title>Stylesheet Icon</dc:title>
                <dc:description>This is shape (source) for Clarity vector icon theme for gtk</dc:description>
                <dc:creator>
                    <cc:Agent>
                        <dc:title>Jakub Jankiewicz</dc:title>
                    </cc:Agent>
                </dc:creator>
                <dc:rights>
                    <cc:Agent>
                        <dc:title>Jakub Jankiewicz</dc:title>
                    </cc:Agent>
                </dc:rights>
                <dc:date>2010</dc:date>
                <dc:format>image/svg+xml</dc:format>
                <dc:type rdf:resource="http://purl.org/dc/dcmitype/StillImage" />
                <cc:license rdf:resource="http://creativecommons.org/licenses/by-sa/3.0/" />
             </cc:Work>
        </rdf:RDF>
    </metadata>
    <path d="M 28.5 11.25 C 25.598125 11.54359 23.375 14.015184 23.375 17 L 23.375 111 C 23.375 114.1838 25.90994 116.75 29.09375 116.75 L 98.90625 116.75 C 102.09005 116.75 104.625 114.1838 104.625 111 L 104.625 40.375 L 83.59375 40.375 C 79.28764 40.375 75.53125 37.233891 75.53125 33.0625 L 75.53125 11.25 L 29.09375 11.25 C 28.894762 11.25 28.693458 11.23043 28.5 11.25 z M 79.53125 11.25 L 79.53125 33.0625 C 79.53125 34.776622 81.16322 36.375 83.59375 36.375 L 104.625 36.375 L 79.53125 11.25 z M 48.0625 49.5625 L 48.0625 51.5625 C 45.222878 52.159499 43.240269 52.952339 42.0625 53.96875 C 40.997632 54.888427 40.350861 56.225283 40.125 58 C 40.04431 58.70993 39.999988 60.870875 40 64.46875 C 39.999984 68.389355 39.089272 71.123529 37.25 72.65625 C 35.878589 73.81792 33.130319 74.757845 29 75.5 C 33.662743 76.016303 36.719285 77.280633 38.1875 79.28125 C 39.462079 81.023739 40.124984 84.34524 40.125 89.25 C 40.124984 92.622022 40.592402 95.003597 41.625 96.375 C 42.786637 97.90773 45.023159 98.833558 48.25 99.15625 L 48.25 101.25 C 39.87639 101.24999 35.524269 98.032262 35.25 91.5625 C 35.249989 91.48182 35.249989 89.880013 35.25 86.75 C 35.249989 83.168236 34.661644 80.728236 33.5 79.4375 C 32.354471 78.146783 30.017227 77.265284 26.5 76.78125 L 26.5 74.15625 C 30.194701 73.607706 32.634702 72.59322 33.8125 71.125 C 34.732133 69.995633 35.187489 67.982792 35.1875 65.0625 C 35.187489 64.659172 35.2036 63.983186 35.1875 63.03125 C 35.17135 62.063231 35.18749 61.28347 35.1875 60.71875 C 35.187489 56.620722 36.331911 53.710249 38.6875 52 C 40.591307 50.612506 43.706274 49.804551 48.0625 49.5625 z M 79.9375 49.78125 C 83.696737 49.991032 86.577997 50.65292 88.5625 51.75 C 91.224611 53.250506 92.604779 55.660277 92.75 59 C 92.749985 58.854824 92.749985 60.943244 92.75 65.21875 C 92.749985 68.397188 93.457221 70.630657 94.8125 71.9375 C 96.022539 73.083037 98.240883 73.890992 101.5 74.375 L 101.5 77 C 98.257016 77.435632 96.006405 78.199258 94.8125 79.3125 C 93.441086 80.587103 92.749984 82.82159 92.75 86 C 92.74998 86.50016 92.7964 87.204341 92.8125 88.15625 C 92.84475 89.092028 92.87499 89.798244 92.875 90.25 C 92.874985 92.460367 92.625141 94.209267 92.125 95.5 C 91.447353 97.210206 90.165873 98.607525 88.375 99.65625 C 86.293694 100.88243 83.412434 101.46874 79.75 101.46875 L 79.75 99.375 C 83.541506 98.987772 85.983544 97.709344 87 95.53125 C 87.613085 94.240518 87.93749 91.463032 87.9375 87.1875 C 87.93749 83.347591 88.803872 80.570106 90.5625 78.84375 C 92.224297 77.230352 95.061228 76.170517 99.0625 75.71875 C 95.496848 75.0734 92.968188 74.309773 91.5 73.40625 C 89.983384 72.470489 89.014243 71.029859 88.5625 69.09375 C 88.223673 67.641703 88.062489 64.997206 88.0625 61.125 C 88.062489 57.978882 87.427779 55.743377 86.25 54.46875 C 85.185142 53.323265 83.099777 52.442785 79.9375 51.78125 L 79.9375 49.78125 z M 50.6875 55.28125 L 61.625 55.28125 C 62.492463 55.28125 63.1875 55.976287 63.1875 56.84375 C 63.1875 57.711213 62.492463 58.4375 61.625 58.4375 L 50.6875 58.4375 C 49.820037 58.4375 49.125 57.711213 49.125 56.84375 C 49.125 55.976287 49.820037 55.28125 50.6875 55.28125 z M 66.8125 55.28125 L 77.3125 55.28125 C 78.179963 55.28125 78.875 55.976287 78.875 56.84375 L 78.875 69.8125 C 78.875 70.679963 78.179963 71.375 77.3125 71.375 L 66.8125 71.375 C 65.945037 71.375 65.25 70.679963 65.25 69.8125 L 65.25 56.84375 C 65.25 55.976287 65.945037 55.28125 66.8125 55.28125 z M 50.6875 61.625 L 61.625 61.625 C 62.492463 61.625 63.1875 62.351287 63.1875 63.21875 C 63.1875 64.086213 62.492463 64.78125 61.625 64.78125 L 50.6875 64.78125 C 49.820037 64.78125 49.125 64.086213 49.125 63.21875 C 49.125 62.351287 49.820037 61.625 50.6875 61.625 z M 50.6875 67.96875 L 61.625 67.96875 C 62.492463 67.96875 63.1875 68.695037 63.1875 69.5625 C 63.1875 70.429963 62.492463 71.125 61.625 71.125 L 50.6875 71.125 C 49.820037 71.125 49.125 70.429963 49.125 69.5625 C 49.125 68.695037 49.820037 67.96875 50.6875 67.96875 z M 50.6875 74.34375 L 77.3125 74.34375 C 78.179963 74.34375 78.875 75.038787 78.875 75.90625 C 78.875 76.773713 78.179963 77.46875 77.3125 77.46875 L 50.6875 77.46875 C 49.820037 77.46875 49.125 76.773713 49.125 75.90625 C 49.125 75.038787 49.820037 74.34375 50.6875 74.34375 z M 50.6875 80.6875 L 77.3125 80.6875 C 78.179963 80.6875 78.875 81.382537 78.875 82.25 C 78.875 83.117463 78.179963 83.8125 77.3125 83.8125 L 50.6875 83.8125 C 49.820037 83.8125 49.125 83.117463 49.125 82.25 C 49.125 81.382537 49.820037 80.6875 50.6875 80.6875 z M 50.6875 87.03125 L 77.3125 87.03125 C 78.179963 87.03125 78.875 87.726287 78.875 88.59375 C 78.875 89.461213 78.179963 90.15625 77.3125 90.15625 L 50.6875 90.15625 C 49.820037 90.15625 49.125 89.461213 49.125 88.59375 C 49.125 87.726287 49.820037 87.03125 50.6875 87.03125 z M 50.6875 93.375 L 77.3125 93.375 C 78.179963 93.375 78.875 94.070037 78.875 94.9375 C 78.875 95.804963 78.179963 96.5 77.3125 96.5 L 50.6875 96.5 C 49.820037 96.5 49.125 95.804963 49.125 94.9375 C 49.125 94.070037 49.820037 93.375 50.6875 93.375 z " style="fill:#aaaaaa"/>
</svg>