<?xml version="1.0" encoding="UTF-8" standalone="no"?>
<svg xmlns:dc="http://purl.org/dc/elements/1.1/"
     xmlns:cc="http://creativecommons.org/ns#"
     xmlns:rdf="http://www.w3.org/1999/02/22-rdf-syntax-ns#"
     xmlns:svg="http://www.w3.org/2000/svg"
     xmlns="http://www.w3.org/2000/svg"
     xmlns:xlink="http://www.w3.org/1999/xlink"
     width="128" height="128" version="1.1">
    <title>Config File Icon</title>
    <desc>This is shape (source) for Clarity vector icon theme for gtk</desc>
    <metadata>
        <rdf:RDF>
            <cc:Work rdf:about="">
                <dc:title>Config File Icon</dc:title>
                <dc:description>This is shape (source) for Clarity vector icon theme for gtk</dc:description>
                <dc:creator>
                    <cc:Agent>
                        <dc:title>Jakub Jankiewicz</dc:title>
                    </cc:Agent>
                </dc:creator>
                <dc:rights>
                    <cc:Agent>
                        <dc:title>Jakub Jankiewicz</dc:title>
                    </cc:Agent>
                </dc:rights>
                <dc:date>2010</dc:date>
                <dc:format>image/svg+xml</dc:format>
                <dc:type rdf:resource="http://purl.org/dc/dcmitype/StillImage" />
                <cc:license rdf:resource="http://creativecommons.org/licenses/by-sa/3.0/" />
             </cc:Work>
        </rdf:RDF>
    </metadata>
    <path d="m 29.09375,11.234375 c -3.183804,0 -5.71875,2.566196 -5.71875,5.75 l 0,94.031255 c 0,3.1838 2.534946,5.75 5.71875,5.75 l 69.8125,0 c 3.1838,0 5.71875,-2.5662 5.71875,-5.75 l 0,-70.656255 -21.03125,0 c -4.306108,0 -8.0625,-3.141109 -8.0625,-7.3125 l 0,-21.8125 -46.4375,0 z m 50.4375,0 0,21.8125 c 0,1.714122 1.631968,3.3125 4.0625,3.3125 l 21.03125,0 -25.09375,-25.125 z m -32.34375,29.3125 1.71875,0 1.65625,3.5 0.03125,0.75 -0.53125,2.4375 3.25,1.3125 1.3125,-2.0625 0.59375,-0.53125 3.59375,-1.25 1.25,1.21875 -1.28125,3.59375 -0.5,0.59375 -2.0625,1.3125 1.3125,3.28125 2.40625,-0.5625 0.78125,0.03125 3.46875,1.65625 0,1.75 -3.46875,1.65625 -0.78125,0 -2.40625,-0.5 -1.3125,3.21875 2.0625,1.375 0.5,0.59375 1.28125,3.59375 -1.25,1.25 -3.59375,-1.28125 -0.59375,-0.5625 -1.3125,-2.0625 -3.25,1.34375 0.53125,2.40625 -0.03125,0.78125 -1.65625,3.4375 -1.71875,0 -1.65625,-3.4375 -0.0625,-0.78125 0.53125,-2.40625 -3.25,-1.34375 -1.3125,2.0625 -0.59375,0.5625 -3.59375,1.28125 -1.25,-1.25 1.28125,-3.59375 0.5625,-0.59375 2.0625,-1.375 -1.34375,-3.21875 -2.40625,0.5 -0.8125,0 -3.46875,-1.65625 0,-1.75 3.46875,-1.65625 0.8125,-0.03125 2.40625,0.5625 1.34375,-3.28125 -2.0625,-1.3125 -0.5625,-0.59375 L 36,45.921875 l 1.25,-1.21875 3.59375,1.25 0.59375,0.53125 1.3125,2.0625 3.25,-1.3125 -0.53125,-2.4375 0.0625,-0.75 1.65625,-3.5 z m 0.875,10.875 c -2.927972,0 -5.34375,2.353278 -5.34375,5.28125 0,2.927972 2.415778,5.3125 5.34375,5.3125 2.927972,0 5.28125,-2.384528 5.28125,-5.3125 0,-2.927972 -2.353278,-5.28125 -5.28125,-5.28125 z m 18.15625,10.3125 3.09375,3.34375 0.46875,1.15625 0.40625,2.75 4.46875,0 0.40625,-2.75 0.4375,-1.15625 3.125,-3.34375 2.25,0.71875 0.53125,4.53125 -0.28125,1.21875 -1.3125,2.4375 3.625,2.65625 1.90625,-2 1.0625,-0.625 4.5,-0.90625 1.375,1.90625 -2.21875,3.96875 -0.96875,0.8125 -2.46875,1.1875 1.40625,4.28125 2.71875,-0.46875 1.21875,0.09375 4.15625,1.90625 0,2.34375 -4.15625,1.9375 -1.21875,0.09375 -2.71875,-0.46875 -1.40625,4.25 2.46875,1.21875 0.96875,0.78125 2.21875,4.03125 -1.375,1.875 -4.5,-0.875 -1.0625,-0.65625 -1.90625,-2 -3.625,2.65625 1.3125,2.406255 0.28125,1.21875 -0.53125,4.5625 -2.25,0.75 -3.125,-3.40625 -0.4375,-1.125 -0.40625,-2.71875 -4.46875,0 -0.40625,2.71875 -0.46875,1.125 -3.09375,3.40625 -2.25,-0.75 -0.53125,-4.5625 0.3125,-1.21875 1.28125,-2.406255 -3.625,-2.65625 -1.9375,2 -1.0625,0.65625 -4.46875,0.875 -1.375,-1.875 2.21875,-4.03125 0.9375,-0.78125 2.46875,-1.21875 -1.34375,-4.25 -2.71875,0.46875 -1.21875,-0.09375 -4.1875,-1.9375 0,-2.34375 4.1875,-1.90625 1.21875,-0.09375 2.71875,0.46875 1.34375,-4.28125 -2.46875,-1.1875 -0.9375,-0.8125 -2.21875,-3.96875 1.375,-1.90625 4.46875,0.90625 1.0625,0.625 1.9375,2 3.625,-2.65625 -1.28125,-2.4375 -0.3125,-1.21875 0.53125,-4.53125 2.25,-0.71875 z m 6.1875,14.09375 c -4.866236,0 -8.8125,3.946264 -8.8125,8.8125 0,4.866238 3.946264,8.8125 8.8125,8.8125 4.866237,0 8.8125,-3.946262 8.8125,-8.8125 0,-4.866236 -3.946263,-8.8125 -8.8125,-8.8125 z" style="fill:#aaaaaa"/>
</svg>