<?xml version="1.0" encoding="UTF-8" standalone="no"?>
<svg xmlns:dc="http://purl.org/dc/elements/1.1/"
     xmlns:cc="http://creativecommons.org/ns#"
     xmlns:rdf="http://www.w3.org/1999/02/22-rdf-syntax-ns#"
     xmlns:svg="http://www.w3.org/2000/svg"
     xmlns="http://www.w3.org/2000/svg"
     xmlns:xlink="http://www.w3.org/1999/xlink"
     width="128" height="128" version="1.1">
    <title>Python File Icon</title>
    <desc>This is shape (source) for Clarity vector icon theme for gtk</desc>
    <metadata>
        <rdf:RDF>
            <cc:Work rdf:about="">
                <dc:title>Python File Icon</dc:title>
                <dc:description>This is shape (source) for Clarity vector icon theme for gtk</dc:description>
                <dc:creator>
                    <cc:Agent>
                        <dc:title>Jakub Jankiewicz</dc:title>
                    </cc:Agent>
                </dc:creator>
                <dc:rights>
                    <cc:Agent>
                        <dc:title>Jakub Jankiewicz</dc:title>
                    </cc:Agent>
                </dc:rights>
                <dc:date>2010</dc:date>
                <dc:format>image/svg+xml</dc:format>
                <dc:type rdf:resource="http://purl.org/dc/dcmitype/StillImage" />
                <cc:license rdf:resource="http://www.gnu.org/copyleft/gpl.html" />
             </cc:Work>
        </rdf:RDF>
    </metadata>
    <path d="m 29.09375,11.234375 c -3.183804,0 -5.71875,2.566196 -5.71875,5.75 l 0,94.031255 c 0,3.1838 2.534946,5.75 5.71875,5.75 l 69.8125,0 c 3.1838,0 5.71875,-2.5662 5.71875,-5.75 l 0,-70.656255 -21.03125,0 c -4.306108,0 -8.0625,-3.141109 -8.0625,-7.3125 l 0,-21.8125 -46.4375,0 z m 50.4375,0 0,21.8125 c 0,1.714122 1.631968,3.3125 4.0625,3.3125 l 21.03125,0 -25.09375,-25.125 z M 63.75,56.328125 c 1.881064,-0.0087 3.82852,0.154098 5.71875,0.46875 2.986075,0.497684 5.5,2.736751 5.5,5.71875 l 0,10.46875 c 10e-7,3.072489 -2.440597,5.59375 -5.5,5.59375 l -11,0 c -3.731577,10e-7 -6.875,3.18063 -6.875,6.8125 l 0,5.03125 -3.78125,0 c -3.197912,0 -5.061589,-2.30492 -5.84375,-5.5625 -1.055109,-4.37634 -1.010295,-6.996248 0,-11.1875 0.875861,-3.656548 3.677088,-5.59375 6.875,-5.59375 l 4.125,0 11,0 0,-1.375 -11,0 0,-4.1875 c 0,-3.175315 0.843676,-4.89613 5.5,-5.71875 1.580622,-0.27969 3.400185,-0.46005 5.28125,-0.46875 z m -5.96875,3.375 c -1.140658,0 -2.062504,0.933856 -2.0625,2.09375 0,1.155782 0.921842,2.09375 2.0625,2.09375 1.13658,0 2.062499,-0.937967 2.0625,-2.09375 0,-1.159895 -0.92592,-2.09375 -2.0625,-2.09375 z m 18.5625,8.375 4.125,0 c 3.201979,0 4.709688,2.410209 5.5,5.59375 1.099923,4.421584 1.148804,7.74072 0,11.1875 -1.112141,3.34807 -2.302088,5.5625 -5.5,5.5625 l -5.5,0 -11,0 0,1.40625 11,0 0,4.1875 c 10e-7,3.17531 -2.729835,4.791695 -5.5,5.593755 -4.167469,1.20924 -7.516925,1.02415 -11,0 -2.908677,-0.85552 -5.5,-2.611755 -5.5,-5.593755 l 0,-10.46875 c 0,-3.01491 2.489478,-5.59375 5.5,-5.59375 l 11,0 c 3.662322,0 6.875,-3.180583 6.875,-6.96875 l 0,-4.90625 z m -6.1875,26.5625 c -1.136584,0 -2.062499,0.90672 -2.0625,2.0625 0,1.1599 0.925917,2.125 2.0625,2.125 1.140656,0 2.0625,-0.9651 2.0625,-2.125 0,-1.15578 -0.921843,-2.0625 -2.0625,-2.0625 z" style="fill:#aaaaaa"/>
</svg>