<?xml version="1.0" encoding="UTF-8" standalone="no"?>
<svg xmlns:dc="http://purl.org/dc/elements/1.1/"
     xmlns:cc="http://creativecommons.org/ns#"
     xmlns:rdf="http://www.w3.org/1999/02/22-rdf-syntax-ns#"
     xmlns:svg="http://www.w3.org/2000/svg"
     xmlns="http://www.w3.org/2000/svg"
     xmlns:xlink="http://www.w3.org/1999/xlink"
     width="128" height="128" version="1.1">
    <title>Ocatave File Icon</title>
    <desc>This is shape (source) for Clarity vector icon theme for gtk</desc>
    <metadata>
        <rdf:RDF>
            <cc:Work rdf:about="">
                <dc:title>Ocatave File Icon</dc:title>
                <dc:description>This is shape (source) for Clarity vector icon theme for gtk</dc:description>
                <dc:creator>
                    <cc:Agent>
                        <dc:title>Jakub Jankiewicz</dc:title>
                    </cc:Agent>
                </dc:creator>
                <dc:rights>
                    <cc:Agent>
                        <dc:title>Jakub Jankiewicz</dc:title>
                    </cc:Agent>
                </dc:rights>
                <dc:date>2010</dc:date>
                <dc:format>image/svg+xml</dc:format>
                <dc:type rdf:resource="http://purl.org/dc/dcmitype/StillImage" />
                <cc:license rdf:resource="http://creativecommons.org/licenses/by-sa/3.0/" />
             </cc:Work>
        </rdf:RDF>
    </metadata>
    <path d="M 29.09375 11.236328 C 25.90994 11.236328 23.375 13.802524 23.375 16.986328 L 23.375 111.01367 C 23.375 114.19747 25.90994 116.76367 29.09375 116.76367 L 98.90625 116.76367 C 102.09005 116.76367 104.625 114.19747 104.625 111.01367 L 104.625 40.361328 L 83.59375 40.361328 C 79.28764 40.361328 75.53125 37.220219 75.53125 33.048828 L 75.53125 11.236328 L 29.09375 11.236328 z M 79.53125 11.236328 L 79.53125 33.048828 C 79.53125 34.76295 81.16322 36.361328 83.59375 36.361328 L 104.625 36.361328 L 79.53125 11.236328 z M 59.083984 50.738281 C 65.850351 50.630567 73.326928 53.705021 79.564453 59.6875 L 82.720703 59.6875 C 83.417017 59.6875 83.984375 60.254849 83.984375 60.951172 L 83.984375 64.738281 C 90.305642 73.342575 92.513661 83.759749 90.128906 92.007812 C 90.231792 92.233922 90.296875 92.486489 90.296875 92.751953 L 90.296875 99.275391 C 90.296875 100.26624 89.492805 101.07031 88.501953 101.07031 L 84.517578 101.07031 C 75.789789 108.7551 60.999704 106.18133 50.527344 94.800781 C 47.969475 92.021095 45.898504 88.957518 44.326172 85.78125 L 39.894531 85.78125 C 38.25445 85.78125 36.933594 84.460396 36.933594 82.820312 L 36.933594 72.019531 C 36.933594 70.379446 38.25445 69.058594 39.894531 69.058594 L 40.777344 69.058594 C 41.143515 64.213992 42.829917 59.784264 45.925781 56.419922 C 49.373178 52.673563 54.029798 50.818741 59.083984 50.738281 z M 63.896484 55.705078 C 59.971824 55.817704 56.335693 57.306363 53.626953 60.25 C 51.423868 62.644141 50.115626 65.705341 49.644531 69.058594 L 50.708984 69.058594 C 52.349069 69.058594 53.669922 70.379446 53.669922 72.019531 L 53.669922 82.820312 C 53.669922 83.537848 53.417749 84.203496 52.996094 84.714844 C 54.056969 86.57505 55.346776 88.365314 56.867188 90.017578 C 63.810595 97.563118 73.310297 99.956547 80.181641 96.568359 L 80.181641 92.751953 C 80.181641 91.7611 80.987664 90.957031 81.978516 90.957031 L 86.130859 90.957031 C 90.019145 84.272222 88.900667 74.491736 83.324219 66.646484 C 83.146098 66.743011 82.9383 66.800781 82.720703 66.800781 L 78.134766 66.800781 C 77.43844 66.800781 76.886719 66.233431 76.886719 65.537109 L 76.886719 60.951172 C 76.886719 60.690051 76.960445 60.450539 77.095703 60.25 C 72.89968 57.138466 68.224441 55.58088 63.896484 55.705078 z " style="fill:#aaaaaa"/>
</svg>