<?xml version="1.0" encoding="UTF-8" standalone="no"?>
<svg xmlns:dc="http://purl.org/dc/elements/1.1/"
     xmlns:cc="http://creativecommons.org/ns#"
     xmlns:rdf="http://www.w3.org/1999/02/22-rdf-syntax-ns#"
     xmlns:svg="http://www.w3.org/2000/svg"
     xmlns="http://www.w3.org/2000/svg"
     xmlns:xlink="http://www.w3.org/1999/xlink"
     width="128" height="128" version="1.1">
    <title>Calendar File Icon</title>
    <desc>This is shape (source) for Clarity vector icon theme for gtk</desc>
    <metadata>
        <rdf:RDF>
            <cc:Work rdf:about="">
                <dc:title>Calendar File Icon</dc:title>
                <dc:description>This is shape (source) for Clarity vector icon theme for gtk</dc:description>
                <dc:creator>
                    <cc:Agent>
                        <dc:title>Jakub Jankiewicz</dc:title>
                    </cc:Agent>
                </dc:creator>
                <dc:rights>
                    <cc:Agent>
                        <dc:title>Jakub Jankiewicz</dc:title>
                    </cc:Agent>
                </dc:rights>
                <dc:date>2010</dc:date>
                <dc:format>image/svg+xml</dc:format>
                <dc:type rdf:resource="http://purl.org/dc/dcmitype/StillImage" />
                <cc:license rdf:resource="http://www.gnu.org/copyleft/gpl.html" />
             </cc:Work>
        </rdf:RDF>
    </metadata>
    <path d="M 28.5 11.25 C 25.598125 11.54359 23.375 14.015184 23.375 17 L 23.375 111 C 23.375 114.1838 25.90994 116.75 29.09375 116.75 L 98.90625 116.75 C 102.09005 116.75 104.625 114.1838 104.625 111 L 104.625 40.375 L 83.59375 40.375 C 79.28764 40.375 75.53125 37.233891 75.53125 33.0625 L 75.53125 11.25 L 29.09375 11.25 C 28.894762 11.25 28.693458 11.23043 28.5 11.25 z M 79.53125 11.25 L 79.53125 33.0625 C 79.53125 34.776622 81.16322 36.375 83.59375 36.375 L 104.625 36.375 L 79.53125 11.25 z M 47.59375 47.125 L 48.625 47.125 C 49.706471 47.125 50.59375 47.933588 50.59375 48.9375 L 50.59375 60.875 C 50.59375 61.878911 49.706471 62.6875 48.625 62.6875 L 47.59375 62.6875 C 46.512278 62.6875 45.625 61.878911 45.625 60.875 L 45.625 48.9375 C 45.625 47.933588 46.512278 47.125 47.59375 47.125 z M 79.375 47.125 L 80.40625 47.125 C 81.487721 47.125 82.375 47.933588 82.375 48.9375 L 82.375 60.875 C 82.375 61.878911 81.487721 62.6875 80.40625 62.6875 L 79.375 62.6875 C 78.293529 62.6875 77.40625 61.878911 77.40625 60.875 L 77.40625 48.9375 C 77.40625 47.933588 78.293529 47.125 79.375 47.125 z M 39.53125 55.84375 L 44.34375 55.84375 L 44.34375 61.90625 C 44.34375 63.442061 45.658032 64.65625 47.3125 64.65625 L 48.90625 64.65625 C 50.560717 64.65625 51.90625 63.442061 51.90625 61.90625 L 51.90625 55.84375 L 76.09375 55.84375 L 76.09375 61.90625 C 76.09375 63.442061 77.439283 64.65625 79.09375 64.65625 L 80.6875 64.65625 C 82.341967 64.65625 83.65625 63.442061 83.65625 61.90625 L 83.65625 55.84375 L 88.46875 55.84375 C 91.966606 55.84375 94.78125 58.592757 94.78125 62.03125 L 94.78125 98.5 C 94.78125 101.9385 91.966606 104.71875 88.46875 104.71875 L 39.53125 104.71875 C 36.033394 104.71875 33.21875 101.9385 33.21875 98.5 L 33.21875 62.03125 C 33.21875 58.592757 36.033394 55.84375 39.53125 55.84375 z M 37.1875 73.125 L 37.1875 96.125 C 37.1875 98.439548 39.060453 100.28125 41.375 100.28125 L 86.625 100.28125 C 88.939547 100.28125 90.8125 98.439548 90.8125 96.125 L 90.8125 73.125 L 37.1875 73.125 z " style="fill:#aaaaaa"/>
</svg>