<?xml version="1.0" encoding="UTF-8" standalone="no"?>
<svg xmlns:dc="http://purl.org/dc/elements/1.1/"
     xmlns:cc="http://creativecommons.org/ns#"
     xmlns:rdf="http://www.w3.org/1999/02/22-rdf-syntax-ns#"
     xmlns:svg="http://www.w3.org/2000/svg"
     xmlns="http://www.w3.org/2000/svg"
     xmlns:xlink="http://www.w3.org/1999/xlink"
     width="128" height="128" version="1.1">
    <title>Haskell File Icon</title>
    <desc>This is shape (source) for Clarity vector icon theme for gtk</desc>
    <metadata>
        <rdf:RDF>
            <cc:Work rdf:about="">
                <dc:title>Haskell File Icon</dc:title>
                <dc:description>This is shape (source) for Clarity vector icon theme for gtk</dc:description>
                <dc:creator>
                    <cc:Agent>
                        <dc:title>Jakub Jankiewicz</dc:title>
                    </cc:Agent>
                </dc:creator>
                <dc:rights>
                    <cc:Agent>
                        <dc:title>Jakub Jankiewicz</dc:title>
                    </cc:Agent>
                </dc:rights>
                <dc:date>2010</dc:date>
                <dc:format>image/svg+xml</dc:format>
                <dc:type rdf:resource="http://purl.org/dc/dcmitype/StillImage" />
                <cc:license rdf:resource="http://www.gnu.org/copyleft/gpl.html" />
             </cc:Work>
        </rdf:RDF>
    </metadata>
    <path d="m 29.09375,11.234377 c -3.18381,0 -5.71875,2.566196 -5.71875,5.75 l 0,94.031253 c 0,3.18379 2.53494,5.74999 5.71875,5.74999 l 69.8125,0 c 3.1838,0 5.71875,-2.5662 5.71875,-5.74999 l 0,-70.656252 -21.03125,0 c -4.30611,0 -8.0625,-3.141109 -8.0625,-7.3125 l 0,-21.812501 -46.4375,0 z m 50.4375,0 0,21.812501 c 0,1.714123 1.63197,3.3125 4.0625,3.3125 l 21.03125,0 L 79.53125,11.234377 z M 32.875,55.484378 l 11,0 14.65625,21.96875 -14.65625,22.000004 -11,0 L 47.53125,77.453128 32.875,55.484378 z m 14.65625,0 11,0 29.25,43.968754 -10.96875,0 -9.15625,-13.750004 -9.125,13.750004 -11,0 L 62.1875,77.453128 47.53125,55.484378 z m 23.15625,12.84375 24.4375,0 0,7.3125 -19.53125,0 -4.90625,-7.3125 z m 7.34375,10.96875 17.09375,0 0,7.3125 -12.21875,0 -4.875,-7.3125 z" style="fill:#aaaaaa"/>
</svg>