<?xml version="1.0" encoding="UTF-8" standalone="no"?>
<svg xmlns:dc="http://purl.org/dc/elements/1.1/"
     xmlns:cc="http://creativecommons.org/ns#"
     xmlns:rdf="http://www.w3.org/1999/02/22-rdf-syntax-ns#"
     xmlns:svg="http://www.w3.org/2000/svg"
     xmlns="http://www.w3.org/2000/svg"
     xmlns:xlink="http://www.w3.org/1999/xlink"
     width="128" height="128" version="1.1">
    <title>Javascript Icon</title>
    <desc>This is shape (source) for Clarity vector icon theme for gtk</desc>
    <metadata>
        <rdf:RDF>
            <cc:Work rdf:about="">
                <dc:title>Javascript Icon</dc:title>
                <dc:description>This is shape (source) for Clarity vector icon theme for gtk</dc:description>
                <dc:creator>
                    <cc:Agent>
                        <dc:title>Jakub Jankiewicz</dc:title>
                    </cc:Agent>
                </dc:creator>
                <dc:rights>
                    <cc:Agent>
                        <dc:title>Jakub Jankiewicz</dc:title>
                    </cc:Agent>
                </dc:rights>
                <dc:date>2010</dc:date>
                <dc:format>image/svg+xml</dc:format>
                <dc:type rdf:resource="http://purl.org/dc/dcmitype/StillImage" />
                <cc:license rdf:resource="http://www.gnu.org/copyleft/gpl.html" />
             </cc:Work>
        </rdf:RDF>
    </metadata>
    <path d="M 28.5 11.25 C 25.598125 11.54359 23.375 14.015184 23.375 17 L 23.375 111 C 23.375 114.1838 25.90994 116.75 29.09375 116.75 L 98.90625 116.75 C 102.09005 116.75 104.625 114.1838 104.625 111 L 104.625 40.375 L 83.59375 40.375 C 79.28764 40.375 75.53125 37.233891 75.53125 33.0625 L 75.53125 11.25 L 29.09375 11.25 C 28.894762 11.25 28.693458 11.230427 28.5 11.25 z M 79.53125 11.25 L 79.53125 33.0625 C 79.53125 34.776622 81.16322 36.375 83.59375 36.375 L 104.625 36.375 L 79.53125 11.25 z M 48.53125 54.65625 L 48.53125 56.3125 C 46.181786 56.806448 44.50572 57.471534 43.53125 58.3125 C 42.650193 59.073428 42.124374 60.187875 41.9375 61.65625 C 41.87074 62.243637 41.843739 64.023169 41.84375 67 C 41.843737 70.243853 41.084286 72.481849 39.5625 73.75 C 38.427814 74.711149 36.136119 75.510953 32.71875 76.125 C 36.576639 76.552183 39.128971 77.59472 40.34375 79.25 C 41.398318 80.691712 41.937486 83.441872 41.9375 87.5 C 41.937486 90.289964 42.364392 92.240319 43.21875 93.375 C 44.179871 94.643159 45.986408 95.420509 48.65625 95.6875 L 48.65625 97.4375 C 41.728042 97.437491 38.133176 94.759241 37.90625 89.40625 L 37.90625 85.40625 C 37.906241 82.44275 37.429878 80.442936 36.46875 79.375 C 35.520956 78.307078 33.597604 77.556734 30.6875 77.15625 L 30.6875 75 C 33.744443 74.546143 35.775508 73.714784 36.75 72.5 C 37.510892 71.565578 37.87499 69.884958 37.875 67.46875 C 37.87499 67.135041 37.85707 66.568868 37.84375 65.78125 C 37.8304 64.980324 37.84374 64.373492 37.84375 63.90625 C 37.843741 60.5156 38.801017 58.102537 40.75 56.6875 C 42.325183 55.539507 44.926971 54.856518 48.53125 54.65625 z M 79.46875 54.65625 C 82.57909 54.829821 84.9518 55.373542 86.59375 56.28125 C 88.796343 57.522748 89.973594 59.51801 90.09375 62.28125 C 90.093736 62.161134 90.093736 63.868755 90.09375 67.40625 C 90.093737 70.036044 90.628661 71.887486 91.75 72.96875 C 92.75117 73.916551 94.615961 74.599538 97.3125 75 L 97.3125 77.15625 C 94.629309 77.516686 92.800319 78.17267 91.8125 79.09375 C 90.677811 80.148338 90.093737 81.995229 90.09375 84.625 C 90.093737 85.038826 90.11168 85.618653 90.125 86.40625 C 90.15168 87.180499 90.15624 87.782475 90.15625 88.15625 C 90.156237 89.985078 89.94506 91.432066 89.53125 92.5 C 88.970575 93.915 87.950491 95.038549 86.46875 95.90625 C 84.746705 96.920773 82.373994 97.437491 79.34375 97.4375 L 79.34375 95.6875 C 82.480788 95.367112 84.471498 94.302124 85.3125 92.5 C 85.819758 91.432066 86.062491 89.131265 86.0625 85.59375 C 86.062491 82.416663 86.794936 80.115863 88.25 78.6875 C 89.624947 77.352597 91.970653 76.498786 95.28125 76.125 C 92.331079 75.591047 90.246007 74.966313 89.03125 74.21875 C 87.776422 73.444515 86.967515 72.258159 86.59375 70.65625 C 86.313409 69.454847 86.187492 67.235058 86.1875 64.03125 C 86.187492 61.428197 85.693227 59.585858 84.71875 58.53125 C 83.837701 57.583491 82.085173 56.859844 79.46875 56.3125 L 79.46875 54.65625 z M 55.96875 59.875 C 56.716293 59.875028 57.354375 60.135662 57.875 60.65625 C 58.408955 61.163543 58.65624 61.801625 58.65625 62.5625 C 58.65624 63.336774 58.408955 63.966059 57.875 64.5 C 57.341026 65.020639 56.680491 65.281273 55.90625 65.28125 C 55.131994 65.281273 54.476011 65.03854 53.96875 64.53125 C 53.461479 64.010659 53.218746 63.368024 53.21875 62.59375 C 53.218746 61.792828 53.479379 61.132292 54 60.625 C 54.520609 60.117761 55.181144 59.875028 55.96875 59.875 z M 57.8125 67.8125 C 58.386502 67.812519 58.687489 68.082257 58.6875 68.65625 C 58.687489 68.909901 58.642582 69.291902 58.5625 69.8125 C 58.48239 70.319784 58.437491 70.701784 58.4375 70.96875 L 58.4375 85.25 C 58.437491 89.802048 57.161325 93.051022 54.625 95 C 53.570415 95.814288 52.527879 96.218742 51.5 96.21875 C 50.739098 96.218742 50.091911 96.038814 49.53125 95.625 C 48.917189 95.184472 48.625 94.591295 48.625 93.84375 C 48.625 92.375342 49.317091 91.624996 50.71875 91.625 C 51.452949 91.624996 51.978768 91.90353 52.3125 92.4375 C 52.659573 92.984808 52.969664 93.249994 53.25 93.25 C 53.91745 93.249994 54.249994 92.512997 54.25 91.03125 L 54.28125 78.25 C 54.281245 75.313205 54.24089 73.367401 54.1875 72.40625 C 54.14745 71.672064 53.87771 71.195703 53.34375 70.96875 C 52.849829 70.848625 52.355565 70.73181 51.875 70.625 C 51.354382 70.464828 51.093748 70.114382 51.09375 69.59375 C 51.093748 69.086501 51.417188 68.798864 52.03125 68.71875 C 51.871058 68.74547 52.351972 68.75001 53.5 68.75 C 54.02061 68.750018 54.739707 68.601648 55.6875 68.28125 C 56.648629 67.960891 57.358621 67.812519 57.8125 67.8125 z M 70.125 68.71875 C 70.618909 68.718769 71.319797 68.86714 72.1875 69.1875 C 73.055181 69.507898 73.697816 69.687518 74.125 69.6875 C 74.52546 69.687518 74.880457 69.507898 75.1875 69.1875 C 75.494516 68.86714 75.800055 68.718769 76.09375 68.71875 C 76.6277 68.718769 76.874984 68.952397 76.875 69.40625 C 76.874984 69.833439 76.425627 70.853523 75.53125 72.46875 C 74.636847 74.084006 74.039117 74.875012 73.71875 74.875 C 73.264868 74.875012 72.986335 74.72209 72.90625 74.375 C 72.90624 74.375013 72.90624 74.006669 72.90625 73.3125 C 72.90624 72.538266 72.645604 71.873179 72.125 71.3125 C 71.617722 70.738504 71.010891 70.468767 70.25 70.46875 C 69.422347 70.468767 68.694454 70.679945 68.09375 71.09375 C 67.412939 71.560986 67.062495 72.181166 67.0625 72.96875 C 67.062495 74.009994 67.934207 74.836803 69.65625 75.4375 C 72.753235 76.50544 74.348595 77.058264 74.46875 77.125 C 76.204121 78.059448 77.093735 79.439079 77.09375 81.28125 C 77.093735 83.296971 76.284829 84.923581 74.65625 86.125 C 73.187835 87.206279 71.394954 87.75 69.3125 87.75 C 67.884139 87.75 66.491157 87.354649 65.15625 86.59375 C 63.5944 85.699359 62.843749 84.602816 62.84375 83.28125 C 62.843749 81.425728 63.733669 80.500007 65.5625 80.5 C 66.096461 80.500007 66.590724 80.68873 67.03125 81.0625 C 67.471766 81.436281 67.687494 81.87229 67.6875 82.40625 C 67.687494 82.993616 67.453865 83.631699 67 84.3125 C 67.934433 85.340385 68.940862 85.843751 69.96875 85.84375 C 70.969926 85.843751 71.805836 85.574013 72.5 85 C 73.220842 84.372593 73.593738 83.550339 73.59375 82.5625 C 73.593738 81.454528 72.749031 80.600718 71.09375 80 C 69.571942 79.452695 68.035143 78.922322 66.5 78.375 C 64.858055 77.493967 64.062497 76.150444 64.0625 74.375 C 64.062497 72.719724 64.660226 71.362544 65.875 70.28125 C 67.036368 69.240036 68.443004 68.718769 70.125 68.71875 z " style="fill:#aaaaaa"/>
</svg>