<?xml version="1.0" encoding="UTF-8" standalone="no"?>
<svg xmlns:dc="http://purl.org/dc/elements/1.1/"
     xmlns:cc="http://creativecommons.org/ns#"
     xmlns:rdf="http://www.w3.org/1999/02/22-rdf-syntax-ns#"
     xmlns:svg="http://www.w3.org/2000/svg"
     xmlns="http://www.w3.org/2000/svg"
     xmlns:xlink="http://www.w3.org/1999/xlink"
     width="128" height="128" version="1.1">
    <title>Renderman File Icon</title>
    <desc>This is shape (source) for Clarity vector icon theme for gtk</desc>
    <metadata>
        <rdf:RDF>
            <cc:Work rdf:about="">
                <dc:title>Renderman File Icon</dc:title>
                <dc:description>This is shape (source) for Clarity vector icon theme for gtk</dc:description>
                <dc:creator>
                    <cc:Agent>
                        <dc:title>Jakub Jankiewicz</dc:title>
                    </cc:Agent>
                </dc:creator>
                <dc:rights>
                    <cc:Agent>
                        <dc:title>Jakub Jankiewicz</dc:title>
                    </cc:Agent>
                </dc:rights>
                <dc:date>2010</dc:date>
                <dc:format>image/svg+xml</dc:format>
                <dc:type rdf:resource="http://purl.org/dc/dcmitype/StillImage" />
                <cc:license rdf:resource="http://www.gnu.org/copyleft/gpl.html" />
             </cc:Work>
        </rdf:RDF>
    </metadata>
    <path d="M 28.5 11.25 C 25.598125 11.54359 23.375 14.015184 23.375 17 L 23.375 111 C 23.375 114.1838 25.90994 116.75 29.09375 116.75 L 98.90625 116.75 C 102.09005 116.75 104.625 114.1838 104.625 111 L 104.625 40.375 L 83.59375 40.375 C 79.28764 40.375 75.53125 37.233891 75.53125 33.0625 L 75.53125 11.25 L 29.09375 11.25 C 28.894762 11.25 28.693458 11.23043 28.5 11.25 z M 79.53125 11.25 L 79.53125 33.0625 C 79.53125 34.776622 81.16322 36.375 83.59375 36.375 L 104.625 36.375 L 79.53125 11.25 z M 40.4375 46.1875 C 45.61433 52.971625 48.857238 62.696023 51.375 73.46875 C 51.309222 73.205637 53.057835 64.901586 54.78125 59.8125 C 56.617046 54.391563 61.478257 50.316722 67 51.21875 C 72.220006 52.071486 76.84375 57.4375 76.84375 57.4375 C 73.879709 57.576893 71.320053 60.720459 70.84375 63.5625 C 70.84375 63.5625 69.303148 59.98985 64.40625 59.90625 C 59.924097 59.829728 57.984434 66.20623 57.1875 70.75 C 54.994123 83.255682 54.0397 84.641331 54.0625 108.4375 L 49.78125 108.4375 C 49.263259 88.963206 50.331429 69.508491 40.4375 46.1875 z M 79.84375 58.5 C 84.105923 58.5 87.5625 61.956578 87.5625 66.21875 C 87.5625 70.480923 84.105923 73.96875 79.84375 73.96875 C 75.581578 73.96875 72.125 70.480923 72.125 66.21875 C 72.125 61.956578 75.581578 58.5 79.84375 58.5 z " style="fill:#aaaaaa"/>
</svg>