<?xml version="1.0" encoding="UTF-8" standalone="no"?>
<svg xmlns:dc="http://purl.org/dc/elements/1.1/"
     xmlns:cc="http://creativecommons.org/ns#"
     xmlns:rdf="http://www.w3.org/1999/02/22-rdf-syntax-ns#"
     xmlns:svg="http://www.w3.org/2000/svg"
     xmlns="http://www.w3.org/2000/svg"
     xmlns:xlink="http://www.w3.org/1999/xlink"
     width="128" height="128" version="1.1">
    <title>Video File Icon</title>
    <desc>This is shape (source) for Clarity vector icon theme for gtk</desc>
    <metadata>
        <rdf:RDF>
            <cc:Work rdf:about="">
                <dc:title>Video File Icon</dc:title>
                <dc:description>This is shape (source) for Clarity vector icon theme for gtk</dc:description>
                <dc:creator>
                    <cc:Agent>
                        <dc:title>Jakub Jankiewicz</dc:title>
                    </cc:Agent>
                </dc:creator>
                <dc:rights>
                    <cc:Agent>
                        <dc:title>Jakub Jankiewicz</dc:title>
                    </cc:Agent>
                </dc:rights>
                <dc:date>2010</dc:date>
                <dc:format>image/svg+xml</dc:format>
                <dc:type rdf:resource="http://purl.org/dc/dcmitype/StillImage" />
                <cc:license rdf:resource="http://www.gnu.org/copyleft/gpl.html" />
             </cc:Work>
        </rdf:RDF>
    </metadata>
    <path d="m 29.09375,11.234375 c -3.1838,0 -5.71875,2.566196 -5.71875,5.75 l 0,94.031255 c 0,3.1838 2.53495,5.75 5.71875,5.75 l 69.8125,0 c 3.1838,0 5.71875,-2.5662 5.71875,-5.75 l 0,-70.656255 -21.03125,0 c -4.306108,0 -8.0625,-3.141109 -8.0625,-7.3125 l 0,-21.8125 -46.4375,0 z m 50.4375,0 0,21.8125 c 0,1.714122 1.631968,3.3125 4.0625,3.3125 l 21.03125,0 -25.09375,-25.125 z m -47.0625,40.53125 2.96875,0 0,2.28125 c 0,0.579091 0.48341,1.03125 1.0625,1.03125 l 4.53125,0 c 0.57909,0 1.03125,-0.452159 1.03125,-1.03125 l 0,-2.28125 2.96875,0 0,3.5 c 0,2.509396 2.021853,4.53125 4.53125,4.53125 l 28.90625,0 c 2.509397,0 4.53125,-2.021854 4.53125,-4.53125 l 0,-3.5 2.96875,0 0,2.28125 c 0,0.579091 0.483411,1.03125 1.0625,1.03125 l 4.5,0 c 0.579095,0 1.0625,-0.452159 1.0625,-1.03125 l 0,-2.28125 2.96875,0 0,52.625005 -2.96875,0 0,-2.25 c 0,-0.57909 -0.483405,-1.0625 -1.0625,-1.0625 l -4.5,0 c -0.579089,0 -1.0625,0.48341 -1.0625,1.0625 l 0,2.25 -2.96875,0 0,-3.5 c 0,-2.509404 -2.021853,-4.500005 -4.53125,-4.500005 l -28.90625,0 c -2.509397,0 -4.53125,1.990601 -4.53125,4.500005 l 0,3.5 -2.96875,0 0,-2.25 c 0,-0.57909 -0.45216,-1.0625 -1.03125,-1.0625 l -4.53125,0 c -0.57909,0 -1.0625,0.48341 -1.0625,1.0625 l 0,2.25 -2.96875,0 0,-52.625005 z m 4.03125,6.0625 c -0.57909,0 -1.0625,0.452158 -1.0625,1.03125 l 0,3.84375 c 0,0.579092 0.48341,1.03125 1.0625,1.03125 l 4.53125,0 c 0.57909,0 1.03125,-0.452158 1.03125,-1.03125 l 0,-3.84375 c 0,-0.579092 -0.45216,-1.03125 -1.03125,-1.03125 l -4.53125,0 z m 50.53125,0 c -0.579089,0 -1.0625,0.452158 -1.0625,1.03125 l 0,3.84375 c 0,0.579092 0.483411,1.03125 1.0625,1.03125 l 4.5,0 c 0.579095,0 1.0625,-0.452158 1.0625,-1.03125 l 0,-3.84375 c 0,-0.579092 -0.483405,-1.03125 -1.0625,-1.03125 l -4.5,0 z m -37.46875,7.03125 c -2.509397,0 -4.53125,1.990603 -4.53125,4.5 l 0,17.4375 c 0,2.509397 2.021853,4.53125 4.53125,4.53125 l 28.90625,0 c 2.509397,0 4.53125,-2.021853 4.53125,-4.53125 l 0,-17.4375 c 0,-2.509397 -2.021853,-4.5 -4.53125,-4.5 l -28.90625,0 z m -13.0625,1.625 c -0.57909,0 -1.0625,0.452158 -1.0625,1.03125 l 0,3.84375 c 0,0.579092 0.48341,1.03125 1.0625,1.03125 l 4.53125,0 c 0.57909,0 1.03125,-0.452158 1.03125,-1.03125 l 0,-3.84375 c 0,-0.579092 -0.45216,-1.03125 -1.03125,-1.03125 l -4.53125,0 z m 50.53125,0 c -0.579089,0 -1.0625,0.452158 -1.0625,1.03125 l 0,3.84375 c 0,0.579092 0.483411,1.03125 1.0625,1.03125 l 4.5,0 c 0.579095,0 1.0625,-0.452158 1.0625,-1.03125 l 0,-3.84375 c 0,-0.579092 -0.483405,-1.03125 -1.0625,-1.03125 l -4.5,0 z M 36.5,75.109375 c -0.57909,0 -1.0625,0.483408 -1.0625,1.0625 l 0,3.84375 c 0,0.579092 0.48341,1.03125 1.0625,1.03125 l 4.53125,0 c 0.57909,0 1.03125,-0.452158 1.03125,-1.03125 l 0,-3.84375 c 0,-0.579092 -0.45216,-1.0625 -1.03125,-1.0625 l -4.53125,0 z m 50.53125,0 c -0.579089,0 -1.0625,0.483408 -1.0625,1.0625 l 0,3.84375 c 0,0.579092 0.483411,1.03125 1.0625,1.03125 l 4.5,0 c 0.579095,0 1.0625,-0.452158 1.0625,-1.03125 l 0,-3.84375 c 0,-0.579092 -0.483405,-1.0625 -1.0625,-1.0625 l -4.5,0 z M 36.5,83.765625 c -0.57909,0 -1.0625,0.483408 -1.0625,1.0625 l 0,3.8125 c 0,0.579092 0.48341,1.0625 1.0625,1.0625 l 4.53125,0 c 0.57909,0 1.03125,-0.483408 1.03125,-1.0625 l 0,-3.8125 c 0,-0.579092 -0.45216,-1.0625 -1.03125,-1.0625 l -4.53125,0 z m 50.53125,0 c -0.579089,0 -1.0625,0.483408 -1.0625,1.0625 l 0,3.8125 c 0,0.579092 0.483411,1.0625 1.0625,1.0625 l 4.5,0 c 0.579095,0 1.0625,-0.483408 1.0625,-1.0625 l 0,-3.8125 c 0,-0.579092 -0.483405,-1.0625 -1.0625,-1.0625 l -4.5,0 z M 36.5,92.421875 c -0.57909,0 -1.0625,0.483408 -1.0625,1.0625 l 0,3.8125 c 0,0.579096 0.48341,1.0625 1.0625,1.0625 l 4.53125,0 c 0.57909,0 1.03125,-0.483404 1.03125,-1.0625 l 0,-3.8125 c 0,-0.579092 -0.45216,-1.0625 -1.03125,-1.0625 l -4.53125,0 z m 50.53125,0 c -0.579089,0 -1.0625,0.483408 -1.0625,1.0625 l 0,3.8125 c 0,0.579096 0.483411,1.0625 1.0625,1.0625 l 4.5,0 c 0.579095,0 1.0625,-0.483404 1.0625,-1.0625 l 0,-3.8125 c 0,-0.579092 -0.483405,-1.0625 -1.0625,-1.0625 l -4.5,0 z" style="fill:#aaaaaa"/>
</svg>