<?xml version="1.0" encoding="UTF-8" standalone="no"?>
<svg xmlns:dc="http://purl.org/dc/elements/1.1/" xmlns:cc="http://creativecommons.org/ns#" xmlns:rdf="http://www.w3.org/1999/02/22-rdf-syntax-ns#" xmlns:svg="http://www.w3.org/2000/svg" xmlns="http://www.w3.org/2000/svg" id="svg9" version="1.1" height="128" width="128">
  <defs id="defs13" />
  <title id="title2">Blue Earth Icon Element</title>
  <desc id="desc4">This icon is a part of Clarity icon theme</desc>
  <metadata id="metadata6">
    <rdf:RDF>
      <cc:Work rdf:about="">
        <dc:title>Blue Earth Icon Element</dc:title>
        <dc:description>This icon is a part of Clarity icon theme</dc:description>
        <dc:creator>
          <cc:Agent>
            <dc:title>Jakub Jankiewicz</dc:title>
          </cc:Agent>
        </dc:creator>
        <dc:rights>
          <cc:Agent>
            <dc:title>Jakub Jankiewicz</dc:title>
          </cc:Agent>
        </dc:rights>
        <dc:date>2010</dc:date>
        <dc:format>image/svg+xml</dc:format>
        <dc:type rdf:resource="http://purl.org/dc/dcmitype/StillImage" />
        <cc:license rdf:resource="http://creativecommons.org/licenses/by-sa/3.0/" />
      </cc:Work>
    </rdf:RDF>
  </metadata>
  <path style="fill:#276aef;fill-opacity:1;stroke:none" d="M 26.844,74.297505 C 12.016826,74.297505 0,86.314329 0,101.14151 0,115.96923 12.016826,128 26.844,128 c 14.82582,0 26.844,-12.03063 26.844,-26.85849 0,-14.827181 -12.01818,-26.844005 -26.844,-26.844005 z m 0,2.057123 c 0.43786,0 0.87156,0.0066 1.30382,0.02898 l 1.39072,0.550498 -1.18791,3.013249 c -1.45179,0.671489 -2.818626,1.208234 -4.346037,1.680467 l -0.985103,1.564573 -0.796772,0.449089 -1.187913,-2.346858 0.898177,-0.89818 v -0.898181 l -2.274421,-1.564572 0.695362,-0.666391 1.303814,-0.36217 0.188325,-0.04346 c 1.614296,-0.329914 3.28543,-0.507039 4.997938,-0.507039 z m -10.937514,2.549673 0.08692,0.478064 1.88328,0.231788 0.492552,0.999588 1.086507,0.44909 -0.985102,0.898181 c -0.659381,-0.446935 -1.32585,-0.899657 -1.984686,-1.347271 l -0.985103,-0.333196 c -0.434284,0.290249 -0.862923,0.596642 -1.289324,0.898181 l -0.492551,1.115482 H 12.733882 L 13.226427,81.062831 14.0232,80.39644 13.97974,79.947349 c 0.175937,-0.106846 0.357233,-0.216156 0.536011,-0.318709 l 0.101411,0.202814 0.17384,-0.362169 c 0.363548,-0.202424 0.740948,-0.380618 1.115484,-0.564984 z m -4.157707,0.825747 h 0.04346 c -0.02202,0.01552 -0.03596,0.04236 -0.05793,0.05795 l 0.01446,-0.05795 z m 27.626291,0.01448 c 0.80534,0.472042 1.57403,0.99302 2.31788,1.550086 h -0.46357 l 1.27483,1.332783 0.36217,-0.40563 c 4.37235,3.705529 7.43241,8.900271 8.41682,14.80549 -0.18591,-0.17269 -0.37456,-0.348655 -0.56499,-0.521524 l -1.14445,0.17384 -1.02856,-1.173428 v 1.448678 l 0.88369,0.680878 0.59396,0.666393 0.79677,-0.898181 c 0.19926,0.373216 0.39605,0.742267 0.59396,1.115482 v 1.129969 l -0.89818,0.999586 -1.63701,1.11548 -1.18791,1.18792 c 0.57584,-0.0415 1.14979,-0.0997 1.73841,-0.17384 v 0.78229 l -1.18792,2.91184 -1.0865,1.23137 -0.88369,1.89777 v 3.12915 l 0.28973,1.23137 -0.49255,0.56499 -1.08651,0.66639 -1.14445,0.95613 0.94164,1.05753 -1.27484,1.12997 0.24628,0.72434 -0.91267,1.02856 c -0.47616,0.40254 -0.97172,0.79271 -1.47766,1.15894 h -0.82574 l -1.08651,0.6664 h -0.69537 v -0.89819 L 38.44791,119.221 c -0.3826,-1.12372 -0.76825,-2.23074 -1.17342,-3.34644 0,-0.82355 0.0377,-1.63934 0.0869,-2.46275 l 0.50703,-1.11549 -0.69537,-1.34727 0.0435,-1.85431 -0.94163,-1.05753 0.47806,-1.5356 -0.7678,-0.86921 H 34.6524 l -0.44909,-0.50703 -1.33279,0.84023 -0.55049,-0.60844 -1.23138,1.05753 c -0.83947,-0.95167 -1.68002,-1.9029 -2.5207,-2.85389 l -0.9851,-2.34686 0.88369,-1.347273 -0.49255,-0.550498 1.08651,-2.578646 c 0.89265,-1.110398 1.82387,-2.175852 2.76698,-3.245039 l 1.68046,-0.44909 1.88328,-0.231789 1.28932,0.347683 1.82534,1.839821 0.63741,-0.724339 0.89819,-0.115894 1.68046,0.564984 h 1.27484 l 0.89818,-0.782286 0.39115,-0.564985 -0.8837,-0.564984 -1.49214,-0.101407 c -0.4117,-0.571113 -0.78601,-1.173007 -1.27483,-1.680467 l -0.50704,0.217302 -0.18833,1.463165 -0.89818,-1.014075 -0.18833,-1.115482 -0.9851,-0.782286 h -0.40563 l 0.9851,1.115482 -0.39114,1.014074 -0.78228,0.217302 0.49254,-0.999587 -0.89817,-0.44909 -0.78229,-0.898181 -1.49214,0.333196 -0.18833,0.44909 -0.89818,0.564985 -0.49254,1.231376 -1.23138,0.608444 -0.5505,-0.608444 h -0.59396 v -2.02815 l 1.28932,-0.666391 h 0.9851 l -0.18832,-0.782286 -0.79678,-0.782286 1.33279,-0.275249 0.73882,-0.840234 0.59396,-1.014074 h 1.08651 l -0.28974,-0.782287 0.69537,-0.44909 v 0.898181 l 1.47765,0.333196 1.47765,-1.231377 0.10141,-0.550497 1.28933,-0.89818 c -0.4649,0.0578 -0.93646,0.09367 -1.39074,0.217302 v -0.999588 l 0.49255,-1.12997 h -0.49255 l -1.08651,1.014075 -0.28973,0.564985 0.28973,0.782286 -0.49255,1.332784 -0.78229,-0.449091 -0.69536,-0.782285 -1.0865,0.782285 -0.40564,-1.781873 1.88328,-1.231377 v -0.666392 l 1.18792,-0.782286 1.81085,-0.434603 z m -26.279023,0.7678 -0.05793,0.883693 -1.100993,1.014074 -2.462752,1.448679 0.289736,1.014074 1.88328,0.782287 0.289736,1.34727 0.695362,-1.463165 1.086514,-0.44909 -0.101411,-0.666392 1.100998,-1.897768 1.376244,0.782286 -0.202816,0.89818 1.187913,-0.44909 0.492552,0.999588 -0.188325,0.680879 0.695361,0.217302 0.593962,0.564984 -0.202815,0.666392 -1.68047,0.564984 H 15.60228 l -1.680465,0.782287 h 2.665562 l -0.883693,1.332783 -1.781869,0.347682 -0.796778,1.115483 -1.376244,0.550498 -0.695361,1.680466 L 9.170146,94.825266 8.981821,97.070717 7.895313,95.723446 6.403173,95.39025 6.214842,96.056642 H 5.026929 L 3.53479,97.186611 3.346465,98.519395 3.44787,99.750771 4.432973,100.31576 5.128334,99.982559 5.809217,99.08438 h 0.695361 c -0.0997,0.783563 -0.190721,1.56316 -0.289736,2.34686 l 1.187919,-0.1159 v 1.23138 l 0.391141,1.12997 c 0.479578,0.29487 1.141864,0.30811 1.68047,0.46358 v -0.24628 l 1.78187,-1.56457 1.68047,1.23138 1.970201,-0.21731 0.796771,2.11507 1.477655,0.3332 0.796772,1.57906 c 1.611057,0.82872 3.215426,1.65783 4.838584,2.46275 l -0.202816,1.66598 -1.173428,1.68047 0.188325,2.24545 -0.782281,1.78187 -1.49214,0.34768 -0.680877,0.99959 0.289737,0.66639 -0.985104,2.46275 -1.289323,0.4491 -0.289736,0.78228 -0.492552,0.49255 c -1.260269,-0.62051 -2.450074,-1.35577 -3.578232,-2.17301 l 0.304221,-1.33279 -0.593957,-1.34727 0.101411,-2.34685 -0.796772,-1.11549 -1.767391,-1.57905 -1.781875,-3.24504 0.492551,-1.66598 -0.202815,-0.44909 0.593962,-0.89818 0.796772,-2.12956 v -0.17384 l -0.593962,-0.27525 -0.796772,0.11589 -1.376244,-1.01407 -0.898177,-1.11548 -2.071612,-0.56499 -1.680464,-0.9851 c 0.0099,-8.599822 4.389451,-16.163242 11.038927,-20.600199 z m 16.543903,0.666391 0.59396,0.666392 -1.18792,0.782286 -0.69536,-0.434603 0.10141,-0.680879 0.39114,0.115895 z m -13.052588,0.217302 0.985103,0.44909 v 0.782286 H 16.790178 L 15.805075,81.961006 Z M 32.2186,83.974668 h 0.57947 c 0.29093,0.593691 0.56432,1.177372 0.79677,1.796361 l 0.69537,0.666392 -0.79678,0.782286 -1.0865,0.231788 0.20281,-1.34727 V 85.09015 L 32.2186,84.64106 Z m -0.40563,1.347271 0.40563,0.999588 -0.89818,0.44909 -0.20282,-1.231377 z m -13.646548,2.013662 0.898177,0.666391 -0.593956,0.898181 z m 25.829928,8.735528 -0.30422,0.333196 0.44909,1.622519 0.84023,0.941642 c 0.47944,1.384054 0.94946,2.704334 1.57906,4.027324 0.35852,0 0.7089,-0.005 1.05754,-0.029 l -0.75332,-0.8692 0.39114,-0.99959 -0.79677,-0.89818 -1.33278,-2.853894 -1.12997,-1.274836 z M 12.125434,122.78476 c 0.376018,0.2563 0.754765,0.50195 1.144454,0.73882 -0.522634,-0.30238 -0.998833,-0.59427 -1.144454,-0.73882 z" id="shape" />
</svg>
