<?xml version="1.0" encoding="UTF-8" standalone="no"?>
<svg xmlns:dc="http://purl.org/dc/elements/1.1/"
     xmlns:cc="http://creativecommons.org/ns#"
     xmlns:rdf="http://www.w3.org/1999/02/22-rdf-syntax-ns#"
     xmlns:svg="http://www.w3.org/2000/svg"
     xmlns="http://www.w3.org/2000/svg"
     xmlns:xlink="http://www.w3.org/1999/xlink"
     width="128" height="128" version="1.1">
    <title></title>
    <desc>This icon is a part of Clarity icon theme</desc>
    <metadata>
        <rdf:RDF>
            <cc:Work rdf:about="">
                <dc:title></dc:title>
                <dc:description>This icon is a part of Clarity icon theme</dc:description>
                <dc:creator>
                    <cc:Agent>
                        <dc:title>Jakub Jankiewicz</dc:title>
                    </cc:Agent>
                </dc:creator>
                <dc:rights>
                    <cc:Agent>
                        <dc:title>Jakub Jankiewicz</dc:title>
                    </cc:Agent>
                </dc:rights>
                <dc:date>2010</dc:date>
                <dc:format>image/svg+xml</dc:format>
                <dc:type rdf:resource="http://purl.org/dc/dcmitype/StillImage" />
                <cc:license rdf:resource="http://creativecommons.org/licenses/by-sa/3.0/" />
             </cc:Work>
        </rdf:RDF>
    </metadata>
    <path id="shape" d="m 100.66111,0 c -6.993978,0 -13.981898,2.674683 -19.317247,8.010042 -10.670726,10.670719 -10.670726,27.96376 0,38.634478 10.670707,10.670712 27.982387,10.670712 38.653087,0 10.67073,-10.670718 10.67073,-27.963759 0,-38.634478 C 114.6616,2.674683 107.65507,0 100.66109,0 z m -5.010937,10.841499 10.021857,0 0,11.474849 11.47485,0 0,10.021865 -11.47485,0 0,11.474854 -10.021857,0 0,-11.474854 -11.474857,0 0,-10.021865 11.474857,0 0,-11.474849 z" style="fill:#15a100;fill-opacity:1;stroke:none" />
</svg>