<?xml version="1.0" encoding="UTF-8" standalone="no"?>
<svg xmlns:dc="http://purl.org/dc/elements/1.1/" xmlns:cc="http://creativecommons.org/ns#" xmlns:rdf="http://www.w3.org/1999/02/22-rdf-syntax-ns#" xmlns:svg="http://www.w3.org/2000/svg" xmlns="http://www.w3.org/2000/svg" id="svg9" version="1.1" height="128" width="128">
  <defs id="defs13" />
  <title id="title2">RPM element</title>
  <desc id="desc4">This is shape (source) for Clarity vector icon theme for gtk</desc>
  <metadata id="metadata6">
    <rdf:RDF>
      <cc:Work rdf:about="">
        <dc:title>RPM element</dc:title>
        <dc:description>This is shape (source) for Clarity vector icon theme for gtk</dc:description>
        <dc:creator>
          <cc:Agent>
            <dc:title>Jakub Jankiewicz</dc:title>
          </cc:Agent>
        </dc:creator>
        <dc:rights>
          <cc:Agent>
            <dc:title>Jakub Jankiewicz</dc:title>
          </cc:Agent>
        </dc:rights>
        <dc:date>2010</dc:date>
        <dc:format>image/svg+xml</dc:format>
        <dc:type rdf:resource="http://purl.org/dc/dcmitype/StillImage" />
        <cc:license rdf:resource="http://creativecommons.org/licenses/by-sa/3.0/" />
      </cc:Work>
    </rdf:RDF>
  </metadata>
  <path style="fill:#800000" d="m 31.667308,67.730328 c -11.166833,-0.005 -21.453386,4.077881 -26.0659922,10.34365 -1.5512345,2.107292 -2.6893505,4.797882 -2.6893505,6.413064 0,0.595248 0.05164,1.086083 0.103437,1.086083 0.0518,0 2.049863,-0.346719 4.4477705,-0.775774 2.397906,-0.429054 4.4581962,-0.775045 4.5512062,-0.775773 0.09301,-8.28e-4 0.162354,-1.029252 0.155072,-2.275604 -0.0099,-1.786555 0.173508,-2.595081 0.775774,-3.82715 3.568145,-7.297835 17.252292,-11.0049 27.669259,-7.499147 l 2.120464,0.724056 h 0.05164 c 3.571727,1.516048 6.352697,3.872265 7.654307,6.464781 0.75411,1.501898 0.89119,4.074488 0.82749,4.913234 l -0.10344,1.137802 C 36.638864,81.122509 32.722791,80.42202 32.442917,80.039272 32.19596,79.701573 31.897269,79.601446 31.356833,79.780681 c -0.416758,0.138191 -1.190976,0.233518 -1.706695,0.206873 l -0.930929,-0.05164 0.930929,0.362028 c 0.515736,0.189843 1.163728,0.528602 1.448104,0.775774 0.383675,0.333429 0.657972,0.398073 1.086084,0.155072 0.435426,-0.247089 4.183717,0.304186 15.153459,2.275603 15.29938,2.749475 15.93947,2.856834 15.46376,2.430758 -0.0902,-0.08076 -0.89944,-0.2409 -1.9653,-0.465464 -0.0149,-0.226948 -0.0301,-0.650128 -0.20687,-1.706703 -0.35847,-2.144363 -2.22546,-5.452924 -4.13746,-7.39571 -3.2528,-3.305119 -6.70901,-5.386079 -12.36066,-6.878528 h -0.10343 L 42.838302,69.074998 C 40.401322,68.324595 35.635133,67.731979 31.667143,67.730324 Z M 16.669022,87.021236 v 7.602581 7.602583 l 1.965293,-0.20687 c 3.269355,-0.36122 3.361687,-0.40885 3.361687,-1.70671 v -1.189523 l 2.223885,-0.31031 c 2.719966,-0.42831 5.933392,-1.98692 6.981957,-3.36168 0.585683,-0.76792 0.827492,-1.40561 0.827492,-2.5342 0,-1.369926 -0.123296,-1.622576 -1.344674,-2.792776 -1.9729,-1.89019 -4.574535,-2.658831 -9.826462,-2.896222 z m 19.084028,0.05164 v 5.947591 5.99932 h 2.637631 2.68935 v -5.32698 -5.326975 h 2.120464 c 1.67635,0 2.23143,0.132564 2.37904,0.517183 0.10443,0.271913 0.15507,2.67635 0.15507,5.326972 v 4.8098 h 2.53419 2.48248 v -5.32698 -5.326975 l 2.2756,0.05164 2.2756,0.103436 0.0516,5.223539 0.10344,5.27526 h 2.63763 2.68935 v -5.32698 -5.326974 l -1.18952,-0.517182 c -1.00359,-0.44438 -2.81381,-0.569894 -12.51582,-0.672338 l -11.32627,-0.103444 z m -28.1347232,0.155072 -4.8615155,0.05163 -0.05164,5.844159 -0.103436,5.89588 h 2.689349 2.6376315 v -4.8098 -4.80979 l 0.930928,-0.206873 c 0.495635,-0.09913 1.3933312,-0.01705 2.0170122,0.155072 0.981538,0.271036 1.292129,0.213542 2.430758,-0.465465 l 1.344675,-0.775773 -1.086084,-0.465465 C 12.766151,87.311602 11.191848,87.19534 7.6184058,87.227777 Z m 14.3776752,1.086083 0.724055,0.258591 c 0.987695,0.306669 2.209536,1.203935 3.154814,2.327315 1.550025,1.842 0.878052,4.37401 -1.603266,5.9476 -0.797835,0.50593 -1.637656,0.93093 -1.861857,0.93093 -0.317128,0 -0.413746,-1.09444 -0.413746,-4.75808 z" id="shape" />
</svg>
