<?xml version="1.0" encoding="UTF-8" standalone="no"?>
<svg xmlns:dc="http://purl.org/dc/elements/1.1/" xmlns:cc="http://creativecommons.org/ns#" xmlns:rdf="http://www.w3.org/1999/02/22-rdf-syntax-ns#" xmlns:svg="http://www.w3.org/2000/svg" xmlns="http://www.w3.org/2000/svg" id="svg10" version="1.1" height="128" width="128">
  <defs id="defs14">
    <style id="style29" type="text/css">
   
    @font-face { font-family:&quot;CastleT&quot;;src:url(&quot;#FontID0&quot;) format(svg)}
    .fil1 {fill:white}
    .fil0 {fill:#0093DD}
    .fnt1 {font-weight:normal;font-size:40.3513;font-family:'CastleT'}
    .fnt0 {font-weight:normal;font-size:40.7083;font-family:'CastleT'}
   
  </style>
  </defs>
  <title>Password Element Icon</title>
  <desc>This is shape (source) for Clarity vector icon theme for gtk</desc>
  <metadata>
    <rdf:RDF>
      <cc:Work rdf:about="">
        <dc:title>Password Icon</dc:title>
        <dc:description>This is shape (source) for Clarity vector icon theme for gtk</dc:description>
        <dc:creator>
          <cc:Agent>
            <dc:title>Jakub Jankiewicz</dc:title>
          </cc:Agent>
        </dc:creator>
        <dc:rights>
          <cc:Agent>
            <dc:title>Jakub Jankiewicz</dc:title>
          </cc:Agent>
        </dc:rights>
        <dc:date>2010</dc:date>
        <dc:format>image/svg+xml</dc:format>
        <dc:type rdf:resource="http://purl.org/dc/dcmitype/StillImage" />
        <cc:license rdf:resource="http://creativecommons.org/licenses/by-sa/3.0/" />
      </cc:Work>
    </rdf:RDF>
  </metadata>
  <g id="shape"><rect ry="4.4814997" rx="4.4814997" y="78.696457" x="9.0825615" height="27.434317" width="109.83488" style="fill:#f9f9f9;fill-opacity:1;stroke:#000000;stroke-width:2.75129914;stroke-linecap:round;stroke-miterlimit:4;stroke-dasharray:none;stroke-opacity:1" /><path style="fill:#000000;fill-opacity:1;stroke:none;stroke-width:3.97409868;stroke-linecap:round;stroke-miterlimit:4;stroke-dasharray:none;stroke-opacity:1" d="m 103.98964,83.550208 v 17.726522 h 3.56783 V 83.550208 Z m -83.08882,3.37679 c -3.030426,-3.79e-4 -5.487332,2.456045 -5.487549,5.486471 2.17e-4,3.030426 2.457123,5.48685 5.487549,5.486471 3.030008,-2.11e-4 5.486264,-2.456463 5.486481,-5.486471 -2.17e-4,-3.030008 -2.456473,-5.48626 -5.486481,-5.486471 z m 14.434653,0 c -3.030427,-3.82e-4 -5.487337,2.456044 -5.487554,5.486471 2.17e-4,3.030427 2.457127,5.486853 5.487554,5.486471 3.030006,-2.14e-4 5.486258,-2.456465 5.486475,-5.486471 -2.17e-4,-3.030006 -2.456469,-5.486257 -5.486475,-5.486471 z m 14.434648,0 c -3.030428,-3.82e-4 -5.487338,2.456043 -5.487555,5.486471 2.17e-4,3.030428 2.457127,5.486853 5.487555,5.486471 3.030006,-2.14e-4 5.486258,-2.456465 5.486475,-5.486471 -2.17e-4,-3.030006 -2.456469,-5.486257 -5.486475,-5.486471 z m 14.434646,0 c -3.030427,-3.82e-4 -5.487337,2.456044 -5.487554,5.486471 2.17e-4,3.030427 2.457127,5.486853 5.487554,5.486471 3.030007,-2.14e-4 5.486259,-2.456464 5.486476,-5.486471 -2.17e-4,-3.030007 -2.456469,-5.486257 -5.486476,-5.486471 z m 14.434647,0 c -3.030425,-3.78e-4 -5.487331,2.456046 -5.487548,5.486471 2.17e-4,3.030425 2.457123,5.486849 5.487548,5.486471 3.030009,-2.11e-4 5.486265,-2.456462 5.486482,-5.486471 -2.17e-4,-3.030009 -2.456473,-5.48626 -5.486482,-5.486471 z m 14.434651,0 c -3.030427,-3.8e-4 -5.487335,2.456044 -5.487552,5.486471 2.17e-4,3.030427 2.457125,5.486851 5.487552,5.486471 3.030007,-2.14e-4 5.486259,-2.456464 5.486476,-5.486471 -2.17e-4,-3.030007 -2.456469,-5.486257 -5.486476,-5.486471 z" /></g>
</svg>
