<?xml version="1.0" encoding="UTF-8" standalone="no"?>
<svg width="1200" height="630" viewBox="0 0 1200 630" role="img" aria-label="Clarity — a GTK+ icon theme" version="1.1" id="svg14" xml:space="preserve" xmlns:xlink="http://www.w3.org/1999/xlink" xmlns="http://www.w3.org/2000/svg" xmlns:svg="http://www.w3.org/2000/svg" xmlns:rdf="http://www.w3.org/1999/02/22-rdf-syntax-ns#" xmlns:cc="http://creativecommons.org/ns#" xmlns:dc="http://purl.org/dc/elements/1.1/"><title id="title1">Clarity — GTK+ Icon Theme</title><defs id="defs6"><!-- background grid --><pattern id="grid" width="48" height="48" patternUnits="userSpaceOnUse"><path d="M48 0H0V48" fill="none" stroke="#18212e" stroke-width="1" id="path1" /></pattern><!-- vignette: fades the grid toward the edges and darkens the corners --><radialGradient id="vignette" cx="50%" cy="42%" r="62%"><stop offset="0%" stop-color="#0b0e14" stop-opacity="0" id="stop1" /><stop offset="58%" stop-color="#0b0e14" stop-opacity="0.15" id="stop2" /><stop offset="100%" stop-color="#0b0e14" stop-opacity="1" id="stop3" /></radialGradient><!-- electric-blue halo behind the logo --><radialGradient id="glow" cx="500.33295" cy="278.21474" r="410.60658" gradientTransform="scale(1.1992015,0.83388823)" fx="500.33295" fy="278.21474" gradientUnits="userSpaceOnUse"><stop offset="0%" stop-color="#38a8e6" stop-opacity="0.42" id="stop4" /><stop offset="45%" stop-color="#38a8e6" stop-opacity="0.12" id="stop5" /><stop offset="100%" stop-color="#38a8e6" stop-opacity="0" id="stop6" /></radialGradient><filter id="glowBlur" x="-0.07255814" y="-0.11142857" width="1.1451163" height="1.2228571"><feGaussianBlur stdDeviation="26" id="feGaussianBlur6" /></filter><filter id="logoShadow" x="0" y="0" width="1" height="1"><feDropShadow dx="0" dy="8" stdDeviation="12" flood-color="#000000" flood-opacity="0.45" /></filter><linearGradient id="linearGradient4727"><stop style="stop-color:#808080;stop-opacity:1;" offset="0" id="stop4729" /><stop style="stop-color:#2c2c2c;stop-opacity:1;" offset="1" id="stop4731" /></linearGradient><clipPath clipPathUnits="userSpaceOnUse" id="clipPath15"><rect style="color:#000000;display:inline;overflow:visible;visibility:visible;fill:url(#linearGradient16);fill-opacity:1;fill-rule:nonzero;stroke:none;stroke-width:2.24947;marker:none;enable-background:accumulate" id="rect16" width="947.56396" height="497.47107" x="126.21804" y="48.80431" /></clipPath><linearGradient xlink:href="#linearGradient4727" id="linearGradient16" gradientUnits="userSpaceOnUse" gradientTransform="matrix(1.7303231,0,0,3.4866013,127.33304,49.623266)" x1="19.178118" y1="120.73853" x2="517.8092" y2="21.651592" /></defs><!-- base + grid + vignette --><rect width="1200" height="630" fill="#0b0e14" id="rect6" /><rect width="1200" height="630" fill="url(#grid)" id="rect7" /><rect width="1200" height="630" fill="url(#vignette)" id="rect8" /><!-- center glow --><ellipse cx="600" cy="232" rx="430" ry="280" fill="url(#glow)" filter="url(#glowBlur)" id="ellipse8" style="fill:url(#glow)" transform="matrix(1.2664053,0,0,1.2664053,-159.8432,-61.806036)" clip-path="url(#clipPath15)" /><!-- top + bottom hairline accents --><rect x="0" y="0" width="1200" height="17.536993" fill="#38a8e6" opacity="0.5" id="rect9" style="stroke-width:2.96116" /><rect x="0" y="628" width="1200" height="2" fill="#18212e" id="rect10" /><!-- Clarity wordmark (white single-path logo, scaled from its native units) --><!-- blue subtitle below the logo --><!-- short supporting line --><path d="m 306.03702,478.51628 h 1.817 v -16.077 h -1.104 l -5.681,2.944 0.69,1.311 4.278,-2.047 z m 11.61501,0.115 c 3.565,0 5.773,-3.128 5.773,-8.326 0,-5.014 -2.139,-8.096 -5.612,-8.096 -3.611,0 -5.842,3.151 -5.842,8.326 0,5.037 2.162,8.096 5.681,8.096 z m 0.138,-1.633 c -2.392,0 -3.887,-2.507 -3.887,-6.693 0,-4.025 1.449,-6.463 3.772,-6.463 2.346,0 3.818,2.53 3.818,6.693 0,4.025 -1.403,6.463 -3.703,6.463 z m 13.98401,1.633 c 3.565,0 5.773,-3.128 5.773,-8.326 0,-5.014 -2.139,-8.096 -5.612,-8.096 -3.611,0 -5.842,3.151 -5.842,8.326 0,5.037 2.162,8.096 5.681,8.096 z m 0.138,-1.633 c -2.392,0 -3.887,-2.507 -3.887,-6.693 0,-4.025 1.449,-6.463 3.772,-6.463 2.346,0 3.818,2.53 3.818,6.693 0,4.025 -1.403,6.463 -3.703,6.463 z m 13.98401,1.633 c 3.565,0 5.773,-3.128 5.773,-8.326 0,-5.014 -2.139,-8.096 -5.612,-8.096 -3.611,0 -5.842,3.151 -5.842,8.326 0,5.037 2.162,8.096 5.681,8.096 z m 0.138,-1.633 c -2.392,0 -3.887,-2.507 -3.887,-6.693 0,-4.025 1.449,-6.463 3.772,-6.463 2.346,0 3.818,2.53 3.818,6.693 0,4.025 -1.403,6.463 -3.703,6.463 z m 17.75599,1.633 c 1.219,0 2.461,-0.437 3.496,-1.196 l 0.414,0.966 h 1.288 v -11.086 h -1.84 v 8.694 c -0.805,0.644 -1.817,1.012 -2.806,1.012 -1.725,0 -2.714,-1.012 -2.714,-2.806 v -6.9 h -1.84 v 7.268 c 0,2.461 1.633,4.048 4.002,4.048 z m 16.58301,-0.23 h 1.84 v -7.268 c 0,-2.461 -1.633,-4.048 -4.117,-4.048 -1.265,0 -2.53,0.437 -3.588,1.219 l -0.414,-0.989 h -1.288 v 11.086 h 1.84 v -8.671 c 0.851,-0.667 1.863,-1.035 2.944,-1.035 1.794,0 2.783,1.012 2.783,2.806 z m 5.47399,0 h 1.84 v -11.086 h -1.84 z m 0.943,-13.685 c 0.828,0 1.311,-0.483 1.311,-1.311 0,-0.828 -0.483,-1.311 -1.311,-1.311 -0.828,0 -1.311,0.483 -1.311,1.311 0,0.828 0.483,1.311 1.311,1.311 z m 8.947,13.915 c 1.288,0 2.392,-0.437 3.22,-1.219 v 5.98 h 1.84 v -16.077 h -1.288 l -0.391,0.897 c -0.805,-0.736 -1.863,-1.127 -3.128,-1.127 -3.128,0 -5.198,2.346 -5.198,5.865 0,3.404 1.978,5.681 4.945,5.681 z m 3.22,-8.556 v 5.681 c -0.621,0.805 -1.564,1.265 -2.691,1.265 -2.208,0 -3.634,-1.725 -3.634,-4.278 0,-2.438 1.288,-4.048 3.427,-4.048 1.242,0 2.231,0.506 2.898,1.38 z m 9.476,8.556 c 1.219,0 2.461,-0.437 3.496,-1.196 l 0.414,0.966 h 1.288 v -11.086 h -1.84 v 8.694 c -0.805,0.644 -1.817,1.012 -2.806,1.012 -1.725,0 -2.714,-1.012 -2.714,-2.806 v -6.9 h -1.84 v 7.268 c 0,2.461 1.633,4.048 4.002,4.048 z m 14.00701,0 c 1.265,0 2.645,-0.299 3.634,-0.828 l -0.414,-1.334 c -0.851,0.414 -1.932,0.667 -2.898,0.667 -2.346,0 -3.818,-1.403 -4.094,-3.772 h 7.728 c 0.046,-0.345 0.092,-1.15 0.092,-1.587 0,-2.783 -1.84,-4.692 -4.577,-4.692 -3.082,0 -5.175,2.415 -5.175,5.819 0,3.542 2.185,5.727 5.704,5.727 z m -3.795,-6.647 c 0.161,-2.162 1.265,-3.335 3.128,-3.335 1.886,0 2.99,1.219 2.99,3.335 z m 16.00799,6.417 h 1.84 v -11.086 h -1.84 z m 0.943,-13.685 c 0.828,0 1.311,-0.483 1.311,-1.311 0,-0.828 -0.483,-1.311 -1.311,-1.311 -0.828,0 -1.311,0.483 -1.311,1.311 0,0.828 0.483,1.311 1.311,1.311 z m 9.062,13.915 c 1.334,0 2.714,-0.322 3.634,-0.874 l -0.414,-1.334 c -0.92,0.437 -1.932,0.69 -2.783,0.69 -2.3,0 -3.611,-1.61 -3.611,-4.301 0,-2.668 1.288,-4.117 3.588,-4.117 0.874,0 1.863,0.207 2.783,0.621 l 0.437,-1.495 c -1.012,-0.483 -2.093,-0.736 -3.197,-0.736 -3.289,0 -5.497,2.438 -5.497,6.095 0,3.427 1.886,5.451 5.06,5.451 z m 10.85601,0 c 3.266,0 5.474,-2.369 5.474,-5.911 0,-3.427 -2.047,-5.635 -5.198,-5.635 -3.266,0 -5.451,2.346 -5.451,5.888 0,3.427 2.024,5.658 5.175,5.658 z m 0.253,-1.61 c -2.139,0 -3.588,-1.725 -3.588,-4.278 0,-2.461 1.311,-4.048 3.358,-4.048 2.139,0 3.611,1.748 3.611,4.278 0,2.438 -1.334,4.048 -3.381,4.048 z m 15.89301,1.38 h 1.84 v -7.268 c 0,-2.461 -1.633,-4.048 -4.117,-4.048 -1.265,0 -2.53,0.437 -3.588,1.219 l -0.414,-0.989 h -1.288 v 11.086 h 1.84 v -8.671 c 0.851,-0.667 1.863,-1.035 2.944,-1.035 1.794,0 2.783,1.012 2.783,2.806 z m 8.83198,0.23 c 2.737,0 4.416,-1.288 4.416,-3.335 0,-4.071 -6.624,-2.553 -6.624,-5.06 0,-0.966 1.035,-1.587 2.691,-1.587 0.943,0 2.047,0.207 2.99,0.529 l 0.437,-1.495 c -0.943,-0.391 -2.07,-0.598 -3.243,-0.598 -2.875,0 -4.715,1.265 -4.715,3.358 0,3.979 6.601,2.323 6.601,5.037 0,1.012 -0.897,1.587 -2.415,1.587 -1.173,0 -2.737,-0.322 -3.91,-0.828 l -0.437,1.495 c 1.265,0.575 2.806,0.897 4.209,0.897 z m 13.409,-4.83 c 0.874,0 1.472,-0.621 1.472,-1.472 0,-0.851 -0.598,-1.472 -1.472,-1.472 -0.874,0 -1.472,0.621 -1.472,1.472 0,0.851 0.598,1.472 1.472,1.472 z m 13.27099,4.83 c 2.737,0 4.416,-1.288 4.416,-3.335 0,-4.071 -6.624,-2.553 -6.624,-5.06 0,-0.966 1.035,-1.587 2.691,-1.587 0.943,0 2.047,0.207 2.99,0.529 l 0.437,-1.495 c -0.943,-0.391 -2.07,-0.598 -3.243,-0.598 -2.875,0 -4.715,1.265 -4.715,3.358 0,3.979 6.601,2.323 6.601,5.037 0,1.012 -0.897,1.587 -2.415,1.587 -1.173,0 -2.737,-0.322 -3.91,-0.828 l -0.437,1.495 c 1.265,0.575 2.806,0.897 4.209,0.897 z m 7.31402,-0.23 h 1.84 v -11.086 h -1.84 z m 0.943,-13.685 c 0.828,0 1.311,-0.483 1.311,-1.311 0,-0.828 -0.483,-1.311 -1.311,-1.311 -0.828,0 -1.311,0.483 -1.311,1.311 0,0.828 0.483,1.311 1.311,1.311 z m 3.128,13.685 h 2.093 l 2.898,-4.117 2.898,4.117 h 2.116 l -4.025,-5.52 4.232,-5.566 h -2.093 l -3.036,4.324 -2.99,-4.324 h -2.116 l 4.094,5.704 z m 21.78099,0.23 c 1.334,0 2.714,-0.322 3.634,-0.874 l -0.414,-1.334 c -0.92,0.437 -1.932,0.69 -2.783,0.69 -2.3,0 -3.611,-1.61 -3.611,-4.301 0,-2.668 1.288,-4.117 3.588,-4.117 0.874,0 1.863,0.207 2.783,0.621 l 0.437,-1.495 c -1.012,-0.483 -2.093,-0.736 -3.197,-0.736 -3.289,0 -5.497,2.438 -5.497,6.095 0,3.427 1.886,5.451 5.06,5.451 z m 10.85602,0 c 3.266,0 5.474,-2.369 5.474,-5.911 0,-3.427 -2.047,-5.635 -5.198,-5.635 -3.266,0 -5.451,2.346 -5.451,5.888 0,3.427 2.024,5.658 5.175,5.658 z m 0.253,-1.61 c -2.139,0 -3.588,-1.725 -3.588,-4.278 0,-2.461 1.311,-4.048 3.358,-4.048 2.139,0 3.611,1.748 3.611,4.278 0,2.438 -1.334,4.048 -3.381,4.048 z m 10.83299,1.518 c 0.598,0 1.311,-0.138 1.748,-0.368 l -0.414,-1.288 c -0.276,0.115 -0.529,0.184 -0.805,0.184 -0.782,0 -1.196,-0.529 -1.196,-1.38 v -14.283 h -1.84 v 14.513 c 0,1.587 0.989,2.622 2.507,2.622 z m 8.34898,0.092 c 3.266,0 5.474,-2.369 5.474,-5.911 0,-3.427 -2.047,-5.635 -5.198,-5.635 -3.266,0 -5.451,2.346 -5.451,5.888 0,3.427 2.024,5.658 5.175,5.658 z m 0.253,-1.61 c -2.139,0 -3.588,-1.725 -3.588,-4.278 0,-2.461 1.311,-4.048 3.358,-4.048 2.139,0 3.611,1.748 3.611,4.278 0,2.438 -1.334,4.048 -3.381,4.048 z m 8.32599,1.38 h 1.84 v -7.912 c 0.713,-0.966 1.84,-1.541 3.082,-1.541 0.437,0 0.851,0.069 1.219,0.207 l 0.46,-1.702 c -0.483,-0.161 -0.966,-0.253 -1.472,-0.253 -1.334,0 -2.576,0.644 -3.404,1.725 l -0.207,-1.61 h -1.518 z m 16.46801,0 h 1.794 l 4.324,-11.086 h -1.84 l -3.335,9.292 -3.266,-9.292 h -2.047 z m 15.15698,0 h 1.288 v -7.199 c 0,-2.645 -1.564,-4.117 -4.462,-4.117 -1.449,0 -3.013,0.391 -4.209,1.058 l 0.46,1.357 c 1.15,-0.506 2.3,-0.759 3.381,-0.759 1.978,0 2.99,0.828 2.99,2.461 v 0.736 c -4.968,0.046 -7.13,1.081 -7.13,3.45 0,1.978 1.472,3.243 3.749,3.243 1.403,0 2.599,-0.46 3.496,-1.265 z m -0.552,-2.484 c -0.69,0.69 -1.702,1.104 -2.852,1.104 -1.472,0 -2.438,-0.736 -2.438,-1.84 0,-1.38 1.564,-1.955 5.29,-1.978 z m 5.474,2.484 h 1.84 v -7.912 c 0.713,-0.966 1.84,-1.541 3.082,-1.541 0.437,0 0.851,0.069 1.219,0.207 l 0.46,-1.702 c -0.483,-0.161 -0.966,-0.253 -1.472,-0.253 -1.334,0 -2.576,0.644 -3.404,1.725 l -0.207,-1.61 h -1.518 z m 8.67102,0 h 1.84 v -11.086 h -1.84 z m 0.943,-13.685 c 0.828,0 1.311,-0.483 1.311,-1.311 0,-0.828 -0.483,-1.311 -1.311,-1.311 -0.828,0 -1.311,0.483 -1.311,1.311 0,0.828 0.483,1.311 1.311,1.311 z m 11.56899,13.685 h 1.288 v -7.199 c 0,-2.645 -1.564,-4.117 -4.462,-4.117 -1.449,0 -3.013,0.391 -4.209,1.058 l 0.46,1.357 c 1.15,-0.506 2.3,-0.759 3.381,-0.759 1.978,0 2.99,0.828 2.99,2.461 v 0.736 c -4.968,0.046 -7.13,1.081 -7.13,3.45 0,1.978 1.472,3.243 3.749,3.243 1.403,0 2.599,-0.46 3.496,-1.265 z m -0.552,-2.484 c -0.69,0.69 -1.702,1.104 -2.852,1.104 -1.472,0 -2.438,-0.736 -2.438,-1.84 0,-1.38 1.564,-1.955 5.29,-1.978 z m 13.04097,2.484 h 1.84 v -7.268 c 0,-2.461 -1.633,-4.048 -4.117,-4.048 -1.265,0 -2.53,0.437 -3.588,1.219 l -0.414,-0.989 h -1.288 v 11.086 h 1.84 v -8.671 c 0.851,-0.667 1.863,-1.035 2.944,-1.035 1.794,0 2.783,1.012 2.783,2.806 z m 9.26902,0.115 c 0.759,0 1.518,-0.184 2.047,-0.414 l -0.414,-1.334 c -0.345,0.161 -0.851,0.253 -1.242,0.253 -1.15,0 -1.909,-0.736 -1.909,-1.84 v -6.325 h 3.036 v -1.541 h -3.036 v -3.243 h -1.84 v 3.243 h -1.495 v 1.541 h 1.495 v 6.578 c 0,1.84 1.334,3.082 3.358,3.082 z m 7.86598,0.115 c 2.737,0 4.416,-1.288 4.416,-3.335 0,-4.071 -6.624,-2.553 -6.624,-5.06 0,-0.966 1.035,-1.587 2.691,-1.587 0.943,0 2.047,0.207 2.99,0.529 l 0.437,-1.495 c -0.943,-0.391 -2.07,-0.598 -3.243,-0.598 -2.875,0 -4.715,1.265 -4.715,3.358 0,3.979 6.601,2.323 6.601,5.037 0,1.012 -0.897,1.587 -2.415,1.587 -1.173,0 -2.737,-0.322 -3.91,-0.828 l -0.437,1.495 c 1.265,0.575 2.806,0.897 4.209,0.897 z m 13.40899,-4.83 c 0.874,0 1.472,-0.621 1.472,-1.472 0,-0.851 -0.598,-1.472 -1.472,-1.472 -0.874,0 -1.472,0.621 -1.472,1.472 0,0.851 0.598,1.472 1.472,1.472 z m 14.375,4.83 c 3.266,0 5.474,-2.369 5.474,-5.911 0,-3.427 -2.047,-5.635 -5.198,-5.635 -3.266,0 -5.451,2.346 -5.451,5.888 0,3.427 2.024,5.658 5.175,5.658 z m 0.253,-1.61 c -2.139,0 -3.588,-1.725 -3.588,-4.278 0,-2.461 1.311,-4.048 3.358,-4.048 2.139,0 3.611,1.748 3.611,4.278 0,2.438 -1.334,4.048 -3.381,4.048 z m 15.89298,1.38 h 1.84 v -7.268 c 0,-2.461 -1.633,-4.048 -4.117,-4.048 -1.265,0 -2.53,0.437 -3.588,1.219 l -0.414,-0.989 h -1.288 v 11.086 h 1.84 v -8.671 c 0.851,-0.667 1.863,-1.035 2.944,-1.035 1.794,0 2.783,1.012 2.783,2.806 z m 10.46499,0.23 c 1.265,0 2.645,-0.299 3.634,-0.828 l -0.414,-1.334 c -0.851,0.414 -1.932,0.667 -2.898,0.667 -2.346,0 -3.818,-1.403 -4.094,-3.772 h 7.728 c 0.046,-0.345 0.092,-1.15 0.092,-1.587 0,-2.783 -1.84,-4.692 -4.577,-4.692 -3.082,0 -5.175,2.415 -5.175,5.819 0,3.542 2.185,5.727 5.704,5.727 z m -3.795,-6.647 c 0.161,-2.162 1.265,-3.335 3.128,-3.335 1.886,0 2.99,1.219 2.99,3.335 z m 20.35501,6.647 c 1.334,0 2.714,-0.322 3.634,-0.874 l -0.414,-1.334 c -0.92,0.437 -1.932,0.69 -2.783,0.69 -2.3,0 -3.611,-1.61 -3.611,-4.301 0,-2.668 1.288,-4.117 3.588,-4.117 0.874,0 1.863,0.207 2.783,0.621 l 0.437,-1.495 c -1.012,-0.483 -2.093,-0.736 -3.197,-0.736 -3.289,0 -5.497,2.438 -5.497,6.095 0,3.427 1.886,5.451 5.06,5.451 z m 10.856,0 c 3.266,0 5.474,-2.369 5.474,-5.911 0,-3.427 -2.047,-5.635 -5.198,-5.635 -3.266,0 -5.451,2.346 -5.451,5.888 0,3.427 2.024,5.658 5.175,5.658 z m 0.253,-1.61 c -2.139,0 -3.588,-1.725 -3.588,-4.278 0,-2.461 1.311,-4.048 3.358,-4.048 2.139,0 3.611,1.748 3.611,4.278 0,2.438 -1.334,4.048 -3.381,4.048 z m 15.89298,1.38 h 1.84 v -7.268 c 0,-2.461 -1.633,-4.048 -4.117,-4.048 -1.219,0 -2.438,0.391 -3.45,1.173 v -6.854 h -1.84 v 16.997 h 1.84 v -8.579 c 0.851,-0.759 1.863,-1.127 2.944,-1.127 1.794,0 2.783,1.012 2.783,2.806 z m 10.46499,0.23 c 1.265,0 2.645,-0.299 3.634,-0.828 l -0.414,-1.334 c -0.851,0.414 -1.932,0.667 -2.898,0.667 -2.346,0 -3.818,-1.403 -4.094,-3.772 h 7.728 c 0.046,-0.345 0.092,-1.15 0.092,-1.587 0,-2.783 -1.84,-4.692 -4.577,-4.692 -3.082,0 -5.175,2.415 -5.175,5.819 0,3.542 2.185,5.727 5.704,5.727 z m -3.795,-6.647 c 0.161,-2.162 1.265,-3.335 3.128,-3.335 1.886,0 2.99,1.219 2.99,3.335 z m 10.94801,6.417 h 1.84 v -7.912 c 0.713,-0.966 1.84,-1.541 3.082,-1.541 0.437,0 0.851,0.069 1.219,0.207 l 0.46,-1.702 c -0.483,-0.161 -0.966,-0.253 -1.472,-0.253 -1.334,0 -2.576,0.644 -3.404,1.725 l -0.207,-1.61 h -1.518 z m 13.66202,0.23 c 1.265,0 2.645,-0.299 3.634,-0.828 l -0.414,-1.334 c -0.851,0.414 -1.932,0.667 -2.898,0.667 -2.346,0 -3.818,-1.403 -4.094,-3.772 h 7.728 c 0.046,-0.345 0.092,-1.15 0.092,-1.587 0,-2.783 -1.84,-4.692 -4.577,-4.692 -3.082,0 -5.175,2.415 -5.175,5.819 0,3.542 2.185,5.727 5.704,5.727 z m -3.795,-6.647 c 0.161,-2.162 1.265,-3.335 3.128,-3.335 1.886,0 2.99,1.219 2.99,3.335 z m 18.51498,6.417 h 1.84 v -7.268 c 0,-2.461 -1.633,-4.048 -4.117,-4.048 -1.265,0 -2.53,0.437 -3.588,1.219 l -0.414,-0.989 h -1.288 v 11.086 h 1.84 v -8.671 c 0.851,-0.667 1.863,-1.035 2.944,-1.035 1.794,0 2.783,1.012 2.783,2.806 z m 9.26899,0.115 c 0.759,0 1.518,-0.184 2.047,-0.414 l -0.414,-1.334 c -0.345,0.161 -0.851,0.253 -1.242,0.253 -1.15,0 -1.909,-0.736 -1.909,-1.84 v -6.325 h 3.036 v -1.541 h -3.036 v -3.243 h -1.84 v 3.243 h -1.495 v 1.541 h 1.495 v 6.578 c 0,1.84 1.334,3.082 3.358,3.082 z m 12.92597,0.115 c 2.737,0 4.416,-1.288 4.416,-3.335 0,-4.071 -6.624,-2.553 -6.624,-5.06 0,-0.966 1.035,-1.587 2.691,-1.587 0.943,0 2.047,0.207 2.99,0.529 l 0.437,-1.495 c -0.943,-0.391 -2.07,-0.598 -3.243,-0.598 -2.875,0 -4.715,1.265 -4.715,3.358 0,3.979 6.601,2.323 6.601,5.037 0,1.012 -0.897,1.587 -2.415,1.587 -1.173,0 -2.737,-0.322 -3.91,-0.828 l -0.437,1.495 c 1.265,0.575 2.806,0.897 4.209,0.897 z m 8.05006,4.761 h 1.955 l 1.84,-4.991 4.324,-11.086 h -1.84 l -3.335,9.292 -3.266,-9.292 h -2.047 l 4.37,11.086 z m 13.66198,-4.761 c 2.737,0 4.416,-1.288 4.416,-3.335 0,-4.071 -6.624,-2.553 -6.624,-5.06 0,-0.966 1.035,-1.587 2.691,-1.587 0.943,0 2.047,0.207 2.99,0.529 l 0.437,-1.495 c -0.943,-0.391 -2.07,-0.598 -3.243,-0.598 -2.875,0 -4.715,1.265 -4.715,3.358 0,3.979 6.601,2.323 6.601,5.037 0,1.012 -0.897,1.587 -2.415,1.587 -1.173,0 -2.737,-0.322 -3.91,-0.828 l -0.437,1.495 c 1.265,0.575 2.806,0.897 4.209,0.897 z m 11.109,-0.115 c 0.759,0 1.518,-0.184 2.047,-0.414 l -0.414,-1.334 c -0.345,0.161 -0.851,0.253 -1.242,0.253 -1.15,0 -1.909,-0.736 -1.909,-1.84 v -6.325 h 3.036 v -1.541 h -3.036 v -3.243 h -1.84 v 3.243 h -1.495 v 1.541 h 1.495 v 6.578 c 0,1.84 1.334,3.082 3.358,3.082 z m 9.49904,0.115 c 1.265,0 2.645,-0.299 3.634,-0.828 l -0.414,-1.334 c -0.851,0.414 -1.932,0.667 -2.898,0.667 -2.346,0 -3.818,-1.403 -4.094,-3.772 h 7.728 c 0.046,-0.345 0.092,-1.15 0.092,-1.587 0,-2.783 -1.84,-4.692 -4.577,-4.692 -3.082,0 -5.175,2.415 -5.175,5.819 0,3.542 2.185,5.727 5.704,5.727 z m -3.795,-6.647 c 0.161,-2.162 1.265,-3.335 3.128,-3.335 1.886,0 2.99,1.219 2.99,3.335 z m 25.85198,6.417 h 1.84 v -7.268 c 0,-2.461 -1.61,-4.048 -4.071,-4.048 -1.472,0 -2.921,0.598 -4.048,1.656 -0.69,-1.058 -1.863,-1.656 -3.381,-1.656 -1.265,0 -2.507,0.437 -3.542,1.196 l -0.414,-0.966 h -1.288 v 11.086 h 1.84 v -8.671 c 0.828,-0.667 1.817,-1.035 2.875,-1.035 1.771,0 2.737,1.012 2.737,2.806 v 6.9 h 1.84 v -7.268 c 0,-0.46 -0.046,-0.874 -0.161,-1.265 0.851,-0.759 1.909,-1.173 3.036,-1.173 1.771,0 2.737,1.012 2.737,2.806 z" id="text12" style="font-size:23px;font-family:'-apple-system', Inter, 'Segoe UI', system-ui, sans-serif;text-anchor:middle;fill:#9aa3b1" aria-label="1000 unique icons · six color variants · one coherent system" /><!-- install chip (the one flourish) --><path style="font-style:normal;font-variant:normal;font-weight:normal;font-stretch:normal;font-size:73.8088px;line-height:125%;font-family:Androgyne;-inkscape-font-specification:Androgyne;letter-spacing:0px;word-spacing:0px;fill:#ffffff;fill-opacity:1;stroke:none;stroke-width:2.20296" d="m 418.27802,117.16247 c -42.04798,0 -75.29235,43.92946 -75.29235,88.80277 0,29.2508 11.43921,45.66799 39.19425,45.66799 23.43383,0 49.3974,-12.8223 49.3974,-25.12094 0,-2.32675 -0.99252,-5.28023 -2.32208,-8.93654 -10.80286,10.30424 -24.65596,17.45097 -35.95738,17.45097 -16.28737,0 -23.71359,-11.6121 -23.71359,-30.89102 0,-28.58595 13.44705,-73.32205 40.03863,-73.32205 12.29864,0 18.093,6.84847 21.25073,20.47668 9.47329,-4.15493 15.62141,-9.66509 15.62141,-17.3102 0,-11.80002 -12.42825,-16.81766 -28.21702,-16.81766 z m 286.74431,0.49258 c -7.9775,0 -15.77364,1.49248 -22.58775,4.15165 0.33239,0.83097 0.84439,1.56147 0.84439,2.39245 0.16638,6.6479 -2.67392,16.07918 -2.67392,20.89892 0,2.65913 1.81555,6.13997 8.79586,4.64419 9.63945,-1.99436 9.5049,-1.78676 16.81762,-13.08818 4.32112,-6.64793 5.78349,-9.50826 6.61447,-12.66602 0.16608,-0.83098 0.21096,-1.30548 0.21096,-1.97025 -0.16608,-2.49298 -2.86964,-4.36276 -8.02176,-4.36276 z m -227.49552,6.5441 c -2.01776,0.1557 -4.19796,0.7399 -6.1923,2.11102 -2.65913,1.82819 -4.79836,4.68443 -5.62934,7.17741 -7.81129,25.92679 -15.23569,52.66109 -21.25075,78.95137 -0.38563,1.68562 -0.94547,4.61345 -1.33696,7.45887 -0.85907,6.24411 -1.71428,10.27628 -1.54807,13.93263 0,10.30425 6.03888,15.12886 14.84737,15.12886 8.30988,0 24.72362,-8.2994 32.36869,-20.26565 2.40506,-3.87916 3.92749,-6.53701 4.78494,-8.37363 -0.20425,1.91194 -0.38306,3.81049 -0.42221,5.69972 0,13.62821 4.64768,23.43212 17.94354,23.43212 h 1.82953 c 10.96901,-0.4986 23.07036,-10.96673 35.53518,-31.24283 -0.49859,3.49014 -0.84444,9.52166 -0.84444,13.51042 0,11.96623 5.70655,17.59166 14.84738,17.59166 11.80005,0 29.41329,-18.12524 29.41329,-30.25767 0,-0.99722 -0.17982,-1.4777 -0.84441,-1.4777 -1.66198,0 -4.98066,2.65254 -10.13279,8.30325 -3.15772,3.15775 -6.33434,5.50804 -8.16253,5.84046 -0.66477,-1.49581 -1.82954,-3.7127 -1.82954,-7.0367 0,-12.7972 10.17575,-53.83731 16.32508,-62.97812 -4.81974,-2.49299 -9.69526,-3.94055 -14.84741,-3.94055 -4.15491,0 -7.75507,1.46698 -10.41421,4.29235 -4.32115,-3.32397 -9.84338,-4.64419 -16.3251,-4.64419 -24.32602,0 -47.249,30.21739 -51.71952,59.81163 -1.66199,0 -7.43888,4.64832 -14.91775,10.13285 -3.49014,2.49293 -7.82686,3.9854 -12.31416,4.15161 -0.831,-1.4958 -1.68878,-3.64233 -1.68878,-6.96629 0,-4.15498 2.98822,-17.97305 4.15161,-23.2914 0.49859,-1.66199 0.86382,-3.28913 1.19624,-4.78495 l 0.14074,-0.98512 c 3.15776,-4.15493 11.51878,-15.46472 17.16949,-28.42812 3.49014,-8.14364 6.62787,-16.45181 7.45887,-23.43209 0.33236,-2.16058 0.35183,-4.17847 0.35183,-5.84043 0,-3.82255 -0.49257,-5.81499 -0.49257,-5.98117 -0.16608,-0.99718 -0.67219,-1.79806 -1.33699,-2.46282 -4.65353,-3.49014 -9.32394,-4.80439 -14.14371,-5.1368 -0.62322,-0.0415 -1.29769,-0.0519 -1.97028,0 z m 266.68973,10.76614 c -5.31833,0 -10.96321,1.49986 -17.94349,5.4886 1.49577,3.32392 1.82953,5.9899 1.82953,9.14766 0,9.63944 -3.80255,26.78168 -7.45888,40.74227 -3.32396,13.79441 -3.82661,16.58187 -5.48862,26.38752 -0.49856,3.49014 -0.98512,7.01994 -0.98512,10.3439 0,13.29583 5.48609,21.60259 19.28047,21.60259 11.96623,0 29.41329,-18.29145 29.41329,-30.2577 0,-0.99716 -0.17982,-1.54804 -0.8444,-1.54804 -1.66198,0 -4.81449,2.86365 -10.13282,8.51433 -2.99155,3.15779 -6.51997,6.33304 -8.51437,6.33304 -3.98873,0 -6.14134,-2.8697 -6.47375,-8.02183 0,-5.4845 1.34437,-12.74648 2.67394,-17.73239 2.32678,-8.80848 4.31919,-17.77674 5.98117,-25.75424 1.32957,-0.33238 2.47025,-0.35183 3.79981,-0.35183 2.99155,0 6.17553,0.14075 9.49952,0.14075 7.64509,0 13.9326,-5.48799 13.9326,-13.29926 v -0.98516 c -5.65074,0.83098 -10.77621,1.19624 -15.76215,1.19624 h -8.65509 c 3.15772,-16.28737 4.0109,-24.28254 4.0109,-23.78392 0,-4.98594 -2.84421,-8.16253 -8.16254,-8.16253 z m -254.09412,0.14074 c 0.83582,-0.0244 1.68878,0.65005 1.68878,1.68879 0.16609,1.66198 -0.0449,3.7951 -0.21096,6.12191 -0.66477,6.31549 -3.61687,14.35423 -7.10702,22.16548 -3.49019,8.30989 -8.0245,15.79167 -11.68088,21.11 2.16056,-8.30988 4.51825,-16.83649 7.17741,-24.98015 2.16055,-7.47891 4.6335,-14.96809 7.45884,-22.44696 0.33235,-0.99722 0.83837,-1.98372 1.33699,-2.81469 0.31162,-0.56093 0.83543,-0.82979 1.33696,-0.84438 z m 349.44097,21.46181 c -1.32957,0 -4.19789,0.16029 -6.19226,0.49258 1.99437,2.16058 3.87015,7.63378 3.87015,10.62533 0,11.96624 -11.6931,34.43302 -28.14664,57.70067 -1.16339,-16.45351 -3.27713,-37.08945 -5.77009,-54.04158 -1.32957,-9.30706 -5.53155,-13.58075 -11.68089,-13.58075 -5.81691,0 -12.14,2.13315 -18.78787,6.12188 11.85828,27.89782 15.12154,45.6377 15.26958,71.42221 0.1032,17.971 -57.37575,52.77693 -74.44799,38.98313 -10.06363,7.56158 -9.85796,28.50526 5.48862,28.21705 46.40653,-0.87164 122.44805,-65.82442 137.84833,-134.6115 0,-7.64507 -5.31848,-11.32902 -17.45094,-11.32902 z M 658.15806,157.553 c -9.97183,0.16608 -21.59264,14.15997 -34.05749,36.09805 2.82538,-11.13522 5.34786,-20.79509 5.34786,-27.443 0,-5.31826 -3.64368,-8.44396 -8.7958,-8.44396 -4.32111,0 -10.13825,1.48642 -17.45094,4.64418 1.32959,2.82534 1.82956,6.65607 1.82956,10.97719 0,11.63384 -5.84995,41.21446 -18.64719,73.95545 5.48451,0.99715 9.62354,1.47766 12.94748,1.47766 8.30987,0 11.32435,-3.16456 13.65113,-9.14766 11.63381,-29.0846 21.95786,-54.67498 35.25369,-54.67498 2.49299,0 4.60068,1.49251 6.26263,4.15168 6.64793,-7.4789 11.46978,-15.92776 11.46978,-23.57285 0,-4.8197 -1.81416,-8.02176 -6.96627,-8.02176 z m 29.41328,2.67394 c -5.15211,0 -10.78964,1.35774 -16.6065,3.51832 1.66195,2.49295 2.4628,5.14548 2.4628,8.30324 0,2.49296 -0.1093,5.61261 -0.77401,8.93654 -1.16342,6.14934 -2.66329,15.99349 -5.48863,25.96532 -3.32396,12.46481 -3.70999,23.083 -3.37757,26.73937 0.66476,10.30428 6.03891,15.26958 14.84734,15.26958 8.6423,0 22.08582,-10.30716 26.73935,-21.11003 1.82819,-4.32112 2.67395,-7.27459 2.67395,-8.93658 0,-3.32393 -3.66453,-1.15191 -10.97723,6.82555 -3.32393,3.1578 -6.50055,5.43768 -8.1625,5.77009 -0.83101,-1.49577 -1.82956,-3.78308 -1.82956,-7.10701 0,-4.81974 1.13325,-14.30796 2.46284,-20.12488 0.99719,-4.65354 4.05114,-15.11018 6.54413,-24.41725 0.83098,-2.99155 1.33091,-5.64412 1.8295,-8.30328 0.66477,-3.6563 -0.0461,-6.49453 -2.04062,-8.6551 -1.99437,-2.16055 -5.47794,-2.67388 -8.30329,-2.67388 z m -143.61842,9.64019 c 5.15213,0 11.47115,2.8261 13.29934,9.64021 -3.65635,10.13807 -10.94514,24.92539 -19.42122,37.224 -6.48169,9.63947 -11.42758,15.26961 -14.91772,15.26961 -3.49017,0 -5.15622,-2.76785 -5.48863,-8.58477 0,-21.6057 13.23244,-53.54905 26.52823,-53.54905 z m -62.97817,84.7215 c -7.23236,0 -10.97722,4.25105 -10.97722,11.75123 v 24.41727 c 0,7.50018 3.74486,11.75123 10.97722,11.75123 7.23237,0 11.04757,-4.25105 11.04757,-11.75123 v -6.26263 h -6.96633 v 6.6848 c 0,3.34833 -1.52631,4.57385 -3.87012,4.57385 -2.34385,0 -3.79981,-1.22552 -3.79981,-4.57385 v -25.33199 c 0,-3.34829 1.45596,-4.57384 3.79981,-4.57384 2.34381,0 3.87012,1.22555 3.87012,4.57384 v 5.06637 h 6.96633 v -4.57382 c 0,-7.50018 -3.8152,-11.75123 -11.04757,-11.75123 z m 26.10604,0 c -7.23235,0 -11.18832,4.25105 -11.18832,11.75123 v 24.41727 c 0,7.50018 3.95597,11.75123 11.18832,11.75123 7.23237,0 11.18831,-4.25105 11.18831,-11.75123 v -24.41727 c 0,-7.50018 -3.95594,-11.75123 -11.18831,-11.75123 z m -49.11595,0.49261 v 46.86417 h 7.31813 v -46.8642 z m 65.01882,0 v 46.86417 h 6.68487 v -33.9167 l 9.14763,33.91674 h 7.52924 v -46.86421 h -6.54408 v 28.0763 l -7.52925,-28.0763 z m 37.08326,0 v 6.68481 h 7.66998 v 40.17936 h 7.38848 v -40.17936 h 7.66999 v -6.68481 z m 26.03568,0 v 46.86417 h 7.38851 v -20.05448 h 8.37362 v 20.05448 h 7.45891 v -46.8642 h -7.45891 v 20.12485 h -8.37362 v -20.12485 z m 28.63923,0 v 46.86417 h 20.12488 v -6.68483 h -12.73638 v -13.72151 h 10.13282 v -6.68484 h -10.13282 v -13.08818 h 12.73638 v -6.68481 z m 24.55798,0 v 46.86417 h 6.40338 v -33.1427 l 5.48857,33.1427 h 6.9663 l 5.06642,-33.56493 v 33.56493 h 6.9663 v -46.8642 h -10.20316 l -5.06642,33.28344 -5.41823,-33.28344 z m 36.30922,0 v 46.86417 h 20.05451 v -6.68483 h -12.73638 v -13.72151 h 10.13282 v -6.68484 h -10.13282 v -13.08818 h 12.73638 v -6.68481 z m -168.52824,6.19223 c 2.34382,0 3.87018,1.22555 3.87018,4.57384 v 25.33199 c 0,3.34833 -1.52636,4.64423 -3.87018,4.64423 -2.34383,0 -3.79982,-1.2959 -3.79982,-4.64423 v -25.33199 c 0,-3.34829 1.45599,-4.57384 3.79982,-4.57384 z" id="path6027" /><g id="g15" transform="translate(1.483396,34.730925)"><path d="m 462.58321,379.48097 q -2.55068,0 -4.28619,-1.05182 -1.73552,-1.07813 -2.60328,-3.15549 -0.86776,-2.10365 -0.86776,-5.15395 0,-3.15549 0.92035,-5.36433 0.92035,-2.23513 2.70846,-3.39214 1.8144,-1.18331 4.44397,-1.18331 1.34108,0 2.41921,0.28925 1.07812,0.28926 2.05106,0.81517 l -0.84146,1.97218 q -0.65739,-0.42073 -1.55145,-0.68369 -0.89405,-0.26296 -2.02477,-0.26296 -1.89329,0 -3.18178,0.92035 -1.26219,0.89406 -1.89329,2.60328 -0.63109,1.70922 -0.63109,4.18101 0,2.10366 0.49962,3.78658 0.52591,1.65663 1.70922,2.62957 1.2096,0.94665 3.23437,0.94665 0.84146,0 1.47256,-0.13148 0.63109,-0.13148 1.13071,-0.26296 v -5.57469 h -3.41844 v -2.10365 h 5.70617 v 9.20349 q -0.97294,0.39444 -2.26143,0.68369 -1.2622,0.28925 -2.73476,0.28925 z m 17.40932,-0.26295 v -16.67148 h -5.5221 v -2.10365 h 13.41081 v 2.10365 h -5.5221 v 16.67148 z m 14.77975,0 v -18.77513 h 2.36661 v 10.09755 q 0.44703,-0.70999 0.92035,-1.44627 0.47332,-0.73628 1.02553,-1.47256 l 5.36433,-7.17872 h 2.70845 l -6.28467,8.49351 6.52133,10.28162 h -2.70845 l -5.41692,-8.67758 -2.12995,2.4455 v 6.23208 z m 24.77211,-3.18178 v -5.15396 h -4.86471 v -1.86699 h 4.86471 v -5.18026 h 1.89329 v 5.18026 h 4.81211 v 1.86699 h -4.81211 v 5.15396 z m 35.21307,3.18178 v -1.63034 l 3.78658,-0.34184 v -14.83077 l -3.78658,-0.34185 v -1.63033 h 9.99236 v 1.63033 l -3.83917,0.34185 v 14.83077 l 3.83917,0.34184 v 1.63034 z m 26.34985,0.26295 q -2.76105,0 -4.49657,-1.23589 -1.73551,-1.2359 -2.55068,-3.39215 -0.81517,-2.18254 -0.81517,-5.02248 0,-2.23513 0.52592,-3.99694 0.52591,-1.78811 1.55144,-3.0503 1.02553,-1.2622 2.49809,-1.91959 1.47256,-0.68369 3.39215,-0.68369 1.36738,0 2.55068,0.28925 1.2096,0.28926 2.20884,0.81517 l -0.89405,1.91959 q -0.81517,-0.44703 -1.867,-0.68369 -1.02553,-0.23666 -1.99847,-0.23666 -1.34108,0 -2.39291,0.49962 -1.02553,0.49961 -1.73552,1.47255 -0.68368,0.94665 -1.05182,2.36662 -0.36814,1.39367 -0.36814,3.20807 0,2.31402 0.55221,3.99695 0.5785,1.68292 1.7881,2.57698 1.20961,0.89405 3.15549,0.89405 0.89405,0 1.91958,-0.18407 1.05183,-0.21036 2.07736,-0.6311 v 2.23514 q -1.05182,0.39443 -2.02476,0.5785 -0.94665,0.18407 -2.02477,0.18407 z m 17.90894,0 q -1.76182,0 -3.02401,-0.68368 -1.26219,-0.70999 -2.07736,-1.97218 -0.81517,-1.28849 -1.2096,-3.0503 -0.36814,-1.78811 -0.36814,-3.94436 0,-2.89252 0.68369,-5.07507 0.70998,-2.18254 2.18254,-3.39214 1.49885,-1.2359 3.83917,-1.2359 1.76181,0 3.02401,0.68369 1.26219,0.68369 2.07736,1.97218 0.81516,1.28848 1.2096,3.0503 0.39443,1.76181 0.39443,3.94435 0,2.18254 -0.39443,3.97065 -0.39444,1.78811 -1.2096,3.0766 -0.81517,1.26219 -2.10366,1.97218 -1.26219,0.68368 -3.024,0.68368 z m 0.0526,-2.10365 q 1.57774,0 2.49809,-0.89406 0.94664,-0.92034 1.34108,-2.60327 0.42073,-1.70922 0.42073,-4.07583 0,-3.57622 -0.94665,-5.57469 -0.94664,-1.99847 -3.28696,-1.99847 -1.57774,0 -2.55068,0.92034 -0.94665,0.89406 -1.36738,2.60328 -0.42073,1.68292 -0.42073,4.04954 0,2.36661 0.42073,4.07583 0.42073,1.68293 1.36738,2.60327 0.94664,0.89406 2.52439,0.89406 z m 13.57014,1.8407 v -18.77513 h 3.12919 l 6.83689,15.64594 h 0.0789 q -0.0789,-0.76258 -0.13148,-1.44626 -0.0263,-0.70999 -0.0526,-1.36738 -0.0263,-0.68369 -0.0526,-1.39367 0,-0.70999 0,-1.49886 v -9.93977 h 2.28773 v 18.77513 h -2.86623 l -7.17873,-16.35593 h -0.10518 q 0.0526,0.73628 0.10518,1.47256 0.0789,0.73628 0.13148,1.47256 0.0526,0.73628 0.0789,1.47256 0.0263,0.73628 0.0263,1.47256 v 10.46569 z m 44.1536,0 v -16.67148 h -5.52209 v -2.10365 h 13.4108 v 2.10365 h -5.52209 v 16.67148 z m 14.77975,0 v -18.77513 h 2.36662 v 7.915 h 7.36279 v -7.915 h 2.36662 v 18.77513 h -2.36662 v -8.75647 h -7.36279 v 8.75647 z m 20.30184,0 v -18.77513 h 11.04419 v 2.10365 h -8.67758 v 5.81135 h 8.17796 v 2.10366 h -8.17796 v 6.65281 h 8.67758 v 2.10366 z m 18.46115,0 v -18.77513 h 3.39214 l 3.12919,11.0179 h 0.0789 l 3.12918,-11.0179 h 3.41845 v 18.77513 h -2.23514 v -10.17644 q 0,-0.52591 0,-1.05183 0.0263,-0.52591 0.0263,-1.05182 0.0263,-0.55221 0.0526,-1.07813 0.0263,-0.52591 0.0526,-1.05183 0.0263,-0.52591 0.0789,-1.02553 0.0526,-0.49962 0.10518,-0.97294 h -0.10518 l -3.47104,11.72788 h -2.18254 l -3.49733,-11.75417 h -0.10518 q 0.0526,0.39443 0.10518,0.86775 0.0526,0.47333 0.0789,0.99924 0.0526,0.52591 0.0789,1.10442 0.0526,0.55221 0.0526,1.13071 0.0263,0.55221 0.0263,1.10442 0.0263,0.55221 0.0263,1.05183 v 10.17644 z m 20.82776,0 v -18.77513 h 11.04419 v 2.10365 h -8.67758 v 5.81135 h 8.17796 v 2.10366 h -8.17796 v 6.65281 h 8.67758 v 2.10366 z" id="text11" style="font-size:26.2957px;font-family:Monospace;-inkscape-font-specification:Monospace;letter-spacing:3.86702px;text-anchor:middle;fill:#38a8e6;stroke-width:0.773403" aria-label="GTK+ ICON THEME" /><path id="rect14" style="fill:#38a8e6;fill-rule:evenodd;stroke-width:5.74959;stroke-linecap:round" d="m 371.96411,368.03217 h 46.13607 v 3.54397 h -46.13607 z" /><path id="rect15" style="fill:#38a8e6;fill-rule:evenodd;stroke-width:5.74959;stroke-linecap:round" d="m 778.93304,368.03217 h 46.13607 v 3.54397 h -46.13607 z" /></g><use x="0" y="0" xlink:href="#rect9" id="use1" transform="translate(0,612.46301)" /><metadata id="metadata1"><rdf:RDF><cc:Work rdf:about=""><dc:title>Clarity — GTK+ Icon Theme</dc:title></cc:Work></rdf:RDF></metadata></svg>
