<?xml version="1.0" encoding="UTF-8" standalone="no"?>
<svg xmlns:dc="http://purl.org/dc/elements/1.1/"
     xmlns:cc="http://creativecommons.org/ns#"
     xmlns:rdf="http://www.w3.org/1999/02/22-rdf-syntax-ns#"
     xmlns:svg="http://www.w3.org/2000/svg"
     xmlns="http://www.w3.org/2000/svg"
     xmlns:xlink="http://www.w3.org/1999/xlink"
     width="128" height="128" version="1.1">
    <title>Clarity Icon</title>
    <desc>This is shape (source) for Clarity vector icon theme for gtk</desc>
    <metadata>
        <rdf:RDF>
            <cc:Work rdf:about="">
                <dc:title>Clarity Icon</dc:title>
                <dc:description>This is shape (source) for Clarity vector icon theme for gtk</dc:description>
                <dc:creator>
                    <cc:Agent>
                        <dc:title>Jakub Jankiewicz</dc:title>
                    </cc:Agent>
                </dc:creator>
                <dc:rights>
                    <cc:Agent>
                        <dc:title>Jakub Jankiewicz</dc:title>
                    </cc:Agent>
                </dc:rights>
                <dc:date>2010</dc:date>
                <dc:format>image/svg+xml</dc:format>
                <dc:type rdf:resource="http://purl.org/dc/dcmitype/StillImage" />
                <cc:license rdf:resource="http://www.gnu.org/copyleft/gpl.html" />
             </cc:Work>
        </rdf:RDF>
    </metadata>
    <path d="m 28.5,11.254349 c -2.901875,0.293591 -5.125,2.765184 -5.125,5.75 l 0,94.000001 c 0,3.1838 2.53494,5.75 5.71875,5.75 l 69.8125,0 c 3.1838,0 5.71875,-2.5662 5.71875,-5.75 l 0,-70.625001 -21.03125,0 c -4.30611,0 -8.0625,-3.141109 -8.0625,-7.3125 l 0,-21.8125 -46.4375,0 c -0.198988,0 -0.400292,-0.01957 -0.59375,0 z m 51.03125,0 0,21.8125 c 0,1.714122 1.63197,3.3125 4.0625,3.3125 l 21.03125,0 -25.09375,-25.125 z m -25.25,34.40625 c 10.87629,0 19.8125,8.90496 19.8125,19.78125 0,4.06074 -1.25131,7.819442 -3.375,10.96875 l 3.90625,3.9375 c 1.67796,-0.904047 3.82975,-0.670255 5.25,0.75 l 12.3125,12.3125 c 1.73568,1.735681 1.73568,4.54557 0,6.281249 l -3.15625,3.125002 c -1.73569,1.73568 -4.51432,1.73568 -6.25,0 L 70.46875,90.504349 C 69.0485,89.084094 68.78346,86.963562 69.6875,85.285599 l -3.84375,-3.84375 c -3.26003,2.360716 -7.25601,3.78125 -11.5625,3.78125 -10.87628,0 -19.75,-8.904959 -19.75,-19.78125 0,-10.87629 8.87372,-19.78125 19.75,-19.78125 z m 0,7.71875 c -6.6901,0 -12,5.372396 -12,12.0625 0,6.690105 5.3099,12.03125 12,12.03125 6.69011,0 12.0625,-5.341145 12.0625,-12.03125 0,-6.690104 -5.37239,-12.0625 -12.0625,-12.0625 z" style="fill:#aaaaaa"/>
</svg>