<?xml version="1.0" encoding="UTF-8" standalone="no"?>
<svg xmlns:dc="http://purl.org/dc/elements/1.1/"
     xmlns:cc="http://creativecommons.org/ns#"
     xmlns:rdf="http://www.w3.org/1999/02/22-rdf-syntax-ns#"
     xmlns:svg="http://www.w3.org/2000/svg"
     xmlns="http://www.w3.org/2000/svg"
     xmlns:xlink="http://www.w3.org/1999/xlink"
     width="128" height="128" version="1.1">
    <title>Find And Replace Icon</title>
    <desc>This is shape (source) for Clarity vector icon theme for gtk</desc>
    <metadata>
        <rdf:RDF>
            <cc:Work rdf:about="">
                <dc:title>Find And Replace Icon</dc:title>
                <dc:description>This is shape (source) for Clarity vector icon theme for gtk</dc:description>
                <dc:creator>
                    <cc:Agent>
                        <dc:title>Jakub Jankiewicz</dc:title>
                    </cc:Agent>
                </dc:creator>
                <dc:rights>
                    <cc:Agent>
                        <dc:title>Jakub Jankiewicz</dc:title>
                    </cc:Agent>
                </dc:rights>
                <dc:date>2010</dc:date>
                <dc:format>image/svg+xml</dc:format>
                <dc:type rdf:resource="http://purl.org/dc/dcmitype/StillImage" />
                <cc:license rdf:resource="http://www.gnu.org/copyleft/gpl.html" />
             </cc:Work>
        </rdf:RDF>
    </metadata>
    <path d="m 47.353294,9.6087585 c -18.63937,0 -33.875,15.2356235 -33.875,33.8749995 0,18.639377 15.23563,33.90625 33.875,33.90625 7.3803,0 14.22557,-2.423045 19.8125,-6.46875 l 1.625,1.625 8.5,-8.4375 -1.78125,-1.78125 c 3.6395,-5.397165 5.78125,-11.884607 5.78125,-18.84375 0,-18.639376 -15.29812,-33.8749995 -33.9375,-33.8749995 z m 0,13.2499995 c 11.46525,0 20.65625,9.159751 20.65625,20.625 0,11.46525 -9.191,20.625 -20.65625,20.625 -11.46524,0 -20.59375,-9.15975 -20.59375,-20.625 0,-11.465249 9.12851,-20.625 20.59375,-20.625 z m 40.28125,35.21875 c -0.69945,0.05836 -1.44764,0.385143 -2.03125,0.96875 l -6.3125,6.3125 13.96875,13.96875 6.3125,-6.34375 c 1.167216,-1.167213 1.317006,-2.870496 0.34375,-3.84375 l -10.4375,-10.4375 c -0.48663,-0.48663 -1.1443,-0.683357 -1.84375,-0.625 z m -10.0625,9 -8.4375,8.46875 13.9375,13.9375 8.4375,-8.4375 -13.9375,-13.96875 z m -10.15625,10.15625 -15.59375,15.59375 13.96875,13.968752 15.59375,-15.625002 -13.96875,-13.9375 z m 30.9375,0.28125 -16.125,16.125 13.9375,13.937502 c 2.97455,2.97455 7.775446,2.97455 10.749996,0 l 5.375,-5.375 c 2.97455,-2.974532 2.97455,-7.775452 0,-10.750002 l -13.937496,-13.9375 z m -48.28125,17.34375 c -0.32967,0.021 -0.6214,0.29828 -0.78125,0.6875 l -8.78125,21.375002 c -0.54748,1.33305 -0.14826,1.78574 1.15625,1.25 l 21.25,-8.75 c 0.83734,-0.34388 1.12932,-0.93319 0.6875,-1.375 L 50.697044,95.140008 c -0.22309,-0.22309 -0.4272,-0.29386 -0.625,-0.28125 z" style="fill:#aaaaaa"/>
</svg>