<?xml version="1.0" encoding="UTF-8" standalone="no"?>
<svg xmlns:dc="http://purl.org/dc/elements/1.1/"
     xmlns:cc="http://creativecommons.org/ns#"
     xmlns:rdf="http://www.w3.org/1999/02/22-rdf-syntax-ns#"
     xmlns:svg="http://www.w3.org/2000/svg"
     xmlns="http://www.w3.org/2000/svg"
     xmlns:xlink="http://www.w3.org/1999/xlink"
     width="128" height="128" version="1.1">
    <title>Two Folders Icon</title>
    <desc>This is shape (source) for Clarity vector icon theme for gtk</desc>
    <metadata>
        <rdf:RDF>
            <cc:Work rdf:about="">
                <dc:title>Two Folders Icon</dc:title>
                <dc:description>This is shape (source) for Clarity vector icon theme for gtk</dc:description>
                <dc:creator>
                    <cc:Agent>
                        <dc:title>Jakub Jankiewicz</dc:title>
                    </cc:Agent>
                </dc:creator>
                <dc:rights>
                    <cc:Agent>
                        <dc:title>Jakub Jankiewicz</dc:title>
                    </cc:Agent>
                </dc:rights>
                <dc:date>2010</dc:date>
                <dc:format>image/svg+xml</dc:format>
                <dc:type rdf:resource="http://purl.org/dc/dcmitype/StillImage" />
                <cc:license rdf:resource="http://creativecommons.org/licenses/by-sa/3.0/" />
             </cc:Work>
        </rdf:RDF>
    </metadata>
    <path d="m 13.625,18.9375 c -3.365447,0 -6.09375,2.728301 -6.09375,6.09375 l 0,10.78125 0,9.21875 0,33.3125 c 0,3.365448 2.728303,6.0625 6.09375,6.0625 l 10.6875,0 0,-14.71875 0,-9.21875 0,-10.78125 c 0,-5.327333 4.399937,-9.78125 9.75,-9.78125 l 25.40625,0 c 5.350063,0 9.75,4.453917 9.75,9.78125 l 0,1.03125 30.8125,0 0,-14.90625 c 0,-3.365449 -2.728368,-6.041823 -6.09375,-6.0625 l -48.875,0 0,-4.71875 C 45.0625,21.665801 42.365447,18.9375 39,18.9375 l -25.375,0 z M 34.0625,43.59375 C 30.697053,43.59375 28,46.322051 28,49.6875 L 28,60.46875 28,69.6875 28,103 c 0,3.36545 2.697053,6.0625 6.0625,6.0625 l 80.3125,0 c 3.36544,0 6.09375,-2.69705 6.09375,-6.0625 l 0,-42.53125 c 0,-3.365449 -2.72837,-6.041823 -6.09375,-6.0625 l -48.84375,0 0,-4.71875 c 0,-3.365449 -2.697053,-6.09375 -6.0625,-6.09375 l -25.40625,0 z" style="fill:#aaaaaa"/>
</svg>