<?xml version="1.0" encoding="UTF-8" standalone="no"?>
<svg xmlns:dc="http://purl.org/dc/elements/1.1/"
     xmlns:cc="http://creativecommons.org/ns#"
     xmlns:rdf="http://www.w3.org/1999/02/22-rdf-syntax-ns#"
     xmlns:svg="http://www.w3.org/2000/svg"
     xmlns="http://www.w3.org/2000/svg"
     xmlns:xlink="http://www.w3.org/1999/xlink"
     width="128" height="128" version="1.1">
    <title>Bold Icon</title>
    <desc>This is shape (source) for Clarity vector icon theme for gtk</desc>
    <metadata>
        <rdf:RDF>
            <cc:Work rdf:about="">
                <dc:title>Bold Icon</dc:title>
                <dc:description>This is shape (source) for Clarity vector icon theme for gtk</dc:description>
                <dc:creator>
                    <cc:Agent>
                        <dc:title>Jakub Jankiewicz</dc:title>
                    </cc:Agent>
                </dc:creator>
                <dc:rights>
                    <cc:Agent>
                        <dc:title>Jakub Jankiewicz</dc:title>
                    </cc:Agent>
                </dc:rights>
                <dc:date>2010</dc:date>
                <dc:format>image/svg+xml</dc:format>
                <dc:type rdf:resource="http://purl.org/dc/dcmitype/StillImage" />
                <cc:license rdf:resource="http://www.gnu.org/copyleft/gpl.html" />
             </cc:Work>
        </rdf:RDF>
    </metadata>
    <path d="m 92.155044,95.323235 0,-2.032424 c -2.988855,-2.749747 -3.825739,-4.543068 -3.825739,-7.890586 l 0,-35.866298 c 0,-13.150963 -8.966592,-19.846019 -26.421506,-19.846019 -17.454915,0 -26.541063,7.412383 -27.61705,22.356659 l 16.139834,0 c 0.836879,-6.695035 3.586638,-8.84702 11.835879,-8.84702 6.455927,0 9.6839,2.151982 9.6839,6.455934 0,6.81459 -5.02129,6.097272 -13.390085,7.531923 l -6.695042,1.195543 c -12.7923,2.27153 -19.009138,7.771043 -19.009138,19.487356 0,12.553192 8.847031,18.530921 19.60691,18.530921 7.173252,0 13.748753,-3.108419 19.60691,-9.205684 0,3.347518 0.358664,6.216827 1.912869,8.129695 l 18.172258,0 M 71.950362,67.706185 c 0,9.683891 -4.782181,15.183399 -13.27053,15.183399 -5.619048,0 -9.086129,-2.151982 -9.086129,-6.934151 0,-4.901722 2.630202,-6.695043 9.564346,-8.01014 l 5.738608,-1.075989 c 4.423506,-0.836879 5.140838,-1.07599 7.053705,-2.032423 l 0,2.869304" style="fill:#aaaaaa"/>
</svg>