<?xml version="1.0" encoding="UTF-8" standalone="no"?>
<svg xmlns:dc="http://purl.org/dc/elements/1.1/"
     xmlns:cc="http://creativecommons.org/ns#"
     xmlns:rdf="http://www.w3.org/1999/02/22-rdf-syntax-ns#"
     xmlns:svg="http://www.w3.org/2000/svg"
     xmlns="http://www.w3.org/2000/svg"
     xmlns:xlink="http://www.w3.org/1999/xlink"
     width="128" height="128" version="1.1">
    <title>Clarity Icon</title>
    <desc>This is shape (source) for Clarity vector icon theme for gtk</desc>
    <metadata>
        <rdf:RDF>
            <cc:Work rdf:about="">
                <dc:title>Clarity Icon</dc:title>
                <dc:description>This is shape (source) for Clarity vector icon theme for gtk</dc:description>
                <dc:creator>
                    <cc:Agent>
                        <dc:title>Jakub Jankiewicz</dc:title>
                    </cc:Agent>
                </dc:creator>
                <dc:rights>
                    <cc:Agent>
                        <dc:title>Jakub Jankiewicz</dc:title>
                    </cc:Agent>
                </dc:rights>
                <dc:date>2010</dc:date>
                <dc:format>image/svg+xml</dc:format>
                <dc:type rdf:resource="http://purl.org/dc/dcmitype/StillImage" />
                <cc:license rdf:resource="http://www.gnu.org/copyleft/gpl.html" />
             </cc:Work>
        </rdf:RDF>
    </metadata>
    <path d="M 56.90625 23.25 C 31.139579 23.25 10.28125 44.13959 10.28125 69.90625 C 10.28125 95.67292 31.139579 116.5625 56.90625 116.5625 C 78.204934 116.5625 96.158485 102.285 101.75 82.78125 L 85.3125 82.78125 C 80.404682 93.56896 69.531872 101.0625 56.90625 101.0625 C 39.685317 101.0625 25.75 87.1272 25.75 69.90625 C 25.75 52.68532 39.685317 38.6875 56.90625 38.6875 C 69.157674 38.6875 79.741445 45.77965 84.84375 56.0625 L 101.5 56.0625 C 95.608583 37.0408 77.861938 23.25 56.90625 23.25 z M 106.9375 51.3125 L 106.9375 61.03125 L 73.375 61.03125 C 70.297152 61.03125 67.8125 63.515902 67.8125 66.59375 L 67.8125 72.5625 C 67.8125 75.640348 70.297152 78.09375 73.375 78.09375 L 106.9375 78.09375 L 106.9375 88.5 L 126.75 69.90625 L 106.9375 51.3125 z " style="fill:#aaaaaa"/>
</svg>