<?xml version="1.0" encoding="UTF-8" standalone="no"?>
<svg xmlns:dc="http://purl.org/dc/elements/1.1/"
     xmlns:cc="http://creativecommons.org/ns#"
     xmlns:rdf="http://www.w3.org/1999/02/22-rdf-syntax-ns#"
     xmlns:svg="http://www.w3.org/2000/svg"
     xmlns="http://www.w3.org/2000/svg"
     xmlns:xlink="http://www.w3.org/1999/xlink"
     width="128" height="128" version="1.1">
    <title>Decrease Indent Icon</title>
    <desc>This is shape (source) for Clarity vector icon theme for gtk</desc>
    <metadata>
        <rdf:RDF>
            <cc:Work rdf:about="">
                <dc:title>Decrease Indent Icon</dc:title>
                <dc:description>This is shape (source) for Clarity vector icon theme for gtk</dc:description>
                <dc:creator>
                    <cc:Agent>
                        <dc:title>Jakub Jankiewicz</dc:title>
                    </cc:Agent>
                </dc:creator>
                <dc:rights>
                    <cc:Agent>
                        <dc:title>Jakub Jankiewicz</dc:title>
                    </cc:Agent>
                </dc:rights>
                <dc:date>2010</dc:date>
                <dc:format>image/svg+xml</dc:format>
                <dc:type rdf:resource="http://purl.org/dc/dcmitype/StillImage" />
                <cc:license rdf:resource="http://creativecommons.org/licenses/by-sa/3.0/" />
             </cc:Work>
        </rdf:RDF>
    </metadata>
    <path d="m 100.98438,12.046875 c 8.20535,0 14.96875,6.7634 14.96875,14.96875 l 0,73.968755 c 0,8.20534 -6.7634,14.96875 -14.96875,14.96875 l -73.968755,0 c -8.20534,0 -14.96875,-6.76341 -14.96875,-14.96875 l 0,-73.968755 c 0,-8.205352 6.76341,-14.96875 14.96875,-14.96875 l 73.968755,0 z m 0,10 -73.968755,0 c -2.83833,0 -4.96875,2.13043 -4.96875,4.96875 l 0,73.968755 c 0,2.83831 2.13042,4.96875 4.96875,4.96875 l 73.968755,0 c 2.83832,0 4.96875,-2.13044 4.96875,-4.96875 l 0,-73.968755 c 0,-2.838322 -2.13043,-4.96875 -4.96875,-4.96875 z m -29.5,6.9375 0,11.53125 -42.5,0 0,-11.53125 42.5,0 z m 23.21875,18.4375 0,48.375 -26.25,-24.1875 26.25,-24.1875 z m -22.0625,0.03125 0,11.53125 -42.46875,0 0,-11.53125 42.46875,0 z" style="fill:#aaaaaa"/>
</svg>