<?xml version="1.0" encoding="UTF-8" standalone="no"?>
<svg xmlns:dc="http://purl.org/dc/elements/1.1/"
     xmlns:cc="http://creativecommons.org/ns#"
     xmlns:rdf="http://www.w3.org/1999/02/22-rdf-syntax-ns#"
     xmlns:svg="http://www.w3.org/2000/svg"
     xmlns="http://www.w3.org/2000/svg"
     xmlns:xlink="http://www.w3.org/1999/xlink"
     width="128" height="128" version="1.1">
    <title>Zoom In Icon</title>
    <desc>This is shape (source) for Clarity vector icon theme for gtk</desc>
    <metadata>
        <rdf:RDF>
            <cc:Work rdf:about="">
                <dc:title>Zoom In Icon</dc:title>
                <dc:description>This is shape (source) for Clarity vector icon theme for gtk</dc:description>
                <dc:creator>
                    <cc:Agent>
                        <dc:title>Jakub Jankiewicz</dc:title>
                    </cc:Agent>
                </dc:creator>
                <dc:rights>
                    <cc:Agent>
                        <dc:title>Jakub Jankiewicz</dc:title>
                    </cc:Agent>
                </dc:rights>
                <dc:date>2010</dc:date>
                <dc:format>image/svg+xml</dc:format>
                <dc:type rdf:resource="http://purl.org/dc/dcmitype/StillImage" />
                <cc:license rdf:resource="http://www.gnu.org/copyleft/gpl.html" />
             </cc:Work>
        </rdf:RDF>
    </metadata>
    <path d="m 58.180076,4.9104687 c -28.229611,0 -51.2500001,23.0516383 -51.2500001,51.2812503 0,28.229611 23.0203891,51.250001 51.2500001,51.250001 11.564992,0 22.249203,-3.86965 30.84375,-10.375001 l 19.562504,23.375001 a 7.0007,7.0007 0 1 0 10.71875,-9 L 98.961326,87.160469 c 6.568564,-8.617938 10.468754,-19.341834 10.468754,-30.96875 0,-28.229612 -23.020393,-51.2812503 -51.250004,-51.2812503 z m 0,13.9687503 c 20.663449,0 37.25,16.64905 37.25,37.3125 0,20.663449 -16.586551,37.25 -37.25,37.25 -20.663449,0 -37.25,-16.586551 -37.25,-37.25 0,-20.66345 16.586551,-37.3125 37.25,-37.3125 z m -7.6875,10.375 0,19.25 -19.25,0 0,15.375 19.25,0 0,19.21875 15.375,0 0,-19.21875 19.21875,0 0,-15.375 -19.21875,0 0,-19.25 -15.375,0 z" style="fill:#aaaaaa"/>
</svg>