<?xml version="1.0" encoding="UTF-8" standalone="no"?>
<svg xmlns:dc="http://purl.org/dc/elements/1.1/"
     xmlns:cc="http://creativecommons.org/ns#"
     xmlns:rdf="http://www.w3.org/1999/02/22-rdf-syntax-ns#"
     xmlns:svg="http://www.w3.org/2000/svg"
     xmlns="http://www.w3.org/2000/svg"
     xmlns:xlink="http://www.w3.org/1999/xlink"
     width="128" height="128" version="1.1">
    <title>Wrench Icon</title>
    <desc>This is shape (source) for Clarity vector icon theme for gtk</desc>
    <metadata>
        <rdf:RDF>
            <cc:Work rdf:about="">
                <dc:title>Wrench Icon</dc:title>
                <dc:description>This is shape (source) for Clarity vector icon theme for gtk</dc:description>
                <dc:creator>
                    <cc:Agent>
                        <dc:title>Jakub Jankiewicz</dc:title>
                    </cc:Agent>
                </dc:creator>
                <dc:rights>
                    <cc:Agent>
                        <dc:title>Jakub Jankiewicz</dc:title>
                    </cc:Agent>
                </dc:rights>
                <dc:date>2010</dc:date>
                <dc:format>image/svg+xml</dc:format>
                <dc:type rdf:resource="http://purl.org/dc/dcmitype/StillImage" />
                <cc:license rdf:resource="http://www.gnu.org/copyleft/gpl.html" />
             </cc:Work>
        </rdf:RDF>
    </metadata>
    <path d="m 41.404021,20.830799 c -5.304823,-0.0037 -10.57981,2.006559 -14.624956,6.051706 -0.247858,0.247869 -0.506701,0.516534 -0.739653,0.773273 l 16.843915,6.791359 c 3.423779,1.381649 5.079914,5.250332 3.698264,8.674111 l -1.613788,3.96723 c -1.381649,3.423779 -5.250337,5.07991 -8.674112,3.698264 l -15.36461,-6.219808 c 0.62638,4.257952 2.57493,8.357669 5.849984,11.632723 5.470671,5.470671 13.246851,7.206317 20.205973,5.278432 l 42.89987,42.933491 c 3.676843,3.67684 9.603301,3.67683 13.280132,0 l 0.90776,-0.90776 c 3.67683,-3.676827 3.67685,-9.603285 0,-13.280129 L 61.307409,47.424683 C 63.393182,40.377682 61.624664,32.478197 56.062597,26.916125 52.017451,22.870979 46.708844,20.834493 41.404021,20.830799 z M 96.541784,91.83748 c 1.28387,0 2.550597,0.49974 3.530166,1.479305 1.95911,1.959115 1.95911,5.134814 0,7.093945 -1.959134,1.95912 -5.134834,1.95911 -7.093948,0 -1.95913,-1.959131 -1.959125,-5.134821 0,-7.093945 0.979561,-0.97956 2.279913,-1.479305 3.563782,-1.479305 z" style="fill:#aaaaaa"/>
</svg>