<?xml version="1.0" encoding="UTF-8" standalone="no"?>
<svg xmlns:dc="http://purl.org/dc/elements/1.1/"
     xmlns:cc="http://creativecommons.org/ns#"
     xmlns:rdf="http://www.w3.org/1999/02/22-rdf-syntax-ns#"
     xmlns:svg="http://www.w3.org/2000/svg"
     xmlns="http://www.w3.org/2000/svg"
     xmlns:xlink="http://www.w3.org/1999/xlink"
     width="128" height="128" version="1.1">
    <title>Insert Text Icon</title>
    <desc>This is shape (source) for Clarity vector icon theme for gtk</desc>
    <metadata>
        <rdf:RDF>
            <cc:Work rdf:about="">
                <dc:title>Insert Text Icon</dc:title>
                <dc:description>This is shape (source) for Clarity vector icon theme for gtk</dc:description>
                <dc:creator>
                    <cc:Agent>
                        <dc:title>Jakub Jankiewicz</dc:title>
                    </cc:Agent>
                </dc:creator>
                <dc:rights>
                    <cc:Agent>
                        <dc:title>Jakub Jankiewicz</dc:title>
                    </cc:Agent>
                </dc:rights>
                <dc:date>2010</dc:date>
                <dc:format>image/svg+xml</dc:format>
                <dc:type rdf:resource="http://purl.org/dc/dcmitype/StillImage" />
                <cc:license rdf:resource="http://creativecommons.org/licenses/by-sa/3.0/" />
             </cc:Work>
        </rdf:RDF>
    </metadata>
    <path d="m 9.1816428,12.089847 c -2.7962847,0 -5.046875,2.976678 -5.046875,6.675781 v 57.757813 c 0,3.699103 2.2505903,6.677734 5.046875,6.677734 H 118.81836 c 2.79628,0 5.04687,-2.978631 5.04687,-6.677734 V 18.765628 c 0,-3.699103 -2.25059,-6.675781 -5.04687,-6.675781 z M 56.451174,28.564456 h 8.621094 v 14.445313 c 1.187768,-1.572991 2.502682,-2.728455 3.947265,-3.466797 1.444583,-0.754393 3.106417,-1.130859 4.984375,-1.130859 3.322541,0 6.050774,1.324253 8.185547,3.972656 2.134773,2.632351 3.203125,6.026404 3.203125,10.183594 0,4.157189 -1.068352,7.560582 -3.203125,10.208984 -2.134773,2.632351 -4.863006,3.949219 -8.185547,3.949219 -1.877958,0 -3.539792,-0.36908 -4.984375,-1.107422 -1.444583,-0.754394 -2.759497,-1.919197 -3.947265,-3.492188 v 3.900391 H 56.451174 Z M 27.728518,30.082035 H 38.779299 L 52.093752,66.027347 H 42.777346 L 40.513674,59.478519 H 26.019533 l -2.287109,6.548828 h -9.31836 z m 77.574212,8.330078 c 1.41249,0 2.80169,0.12795 4.16602,0.384765 1.38038,0.240764 2.75286,0.609843 4.11719,1.107422 v 7.03125 c -1.17172,-0.802546 -2.35131,-1.396028 -3.53906,-1.78125 -1.17173,-0.385222 -2.39214,-0.578125 -3.66016,-0.578125 -2.40764,0 -4.28649,0.704706 -5.63477,2.117188 -1.332219,1.39643 -1.998042,3.355005 -1.998042,5.875 0,2.519995 0.665823,4.485956 1.998042,5.898437 1.34828,1.39643 3.22713,2.095703 5.63477,2.095703 1.34828,0 2.6243,-0.200289 3.82812,-0.601562 1.21987,-0.401273 2.34384,-0.996708 3.3711,-1.783203 v 7.054687 c -1.34828,0.497579 -2.72076,0.866658 -4.11719,1.107422 -1.38038,0.256815 -2.76959,0.386719 -4.16602,0.386719 -4.86343,0 -8.667395,-1.244529 -11.412103,-3.732422 C 91.145919,60.4902 89.77344,57.014468 89.77344,52.568363 c 0,-4.446106 1.372479,-7.912498 4.117187,-10.400391 2.744708,-2.503944 6.548673,-3.755859 11.412103,-3.755859 z m -72.037103,0.0957 -4.935547,14.302734 h 9.847656 z m 37.535156,6.164062 c -1.845856,0 -3.264608,0.682547 -4.259765,2.046875 -0.979107,1.348278 -1.46875,3.297513 -1.46875,5.84961 0,2.552096 0.489643,4.510671 1.46875,5.875 0.995157,1.348277 2.413909,2.023437 4.259765,2.023437 1.845856,0 3.251789,-0.67516 4.214844,-2.023437 0.979106,-1.348278 1.46875,-3.306853 1.46875,-5.875 0,-2.568148 -0.489644,-4.526723 -1.46875,-5.875 -0.963055,-1.348278 -2.368988,-2.021485 -4.214844,-2.021485 z m -21.832031,45.205078 7.662109,12.931637 7.369141,13.10156 7.369141,-13.10156 7.662109,-12.931637 -15.03125,0.167968 z" style="fill:#aaaaaa"/>
</svg>