<?xml version="1.0" encoding="UTF-8" standalone="no"?>
<svg xmlns:dc="http://purl.org/dc/elements/1.1/"
     xmlns:cc="http://creativecommons.org/ns#"
     xmlns:rdf="http://www.w3.org/1999/02/22-rdf-syntax-ns#"
     xmlns:svg="http://www.w3.org/2000/svg"
     xmlns="http://www.w3.org/2000/svg"
     xmlns:xlink="http://www.w3.org/1999/xlink"
     width="128" height="128" version="1.1">
    <title>Email Replay Icon</title>
    <desc>This is shape (source) for Clarity vector icon theme for gtk</desc>
    <metadata>
        <rdf:RDF>
            <cc:Work rdf:about="">
                <dc:title>Email Replay Icon</dc:title>
                <dc:description>This is shape (source) for Clarity vector icon theme for gtk</dc:description>
                <dc:creator>
                    <cc:Agent>
                        <dc:title>Jakub Jankiewicz</dc:title>
                    </cc:Agent>
                </dc:creator>
                <dc:rights>
                    <cc:Agent>
                        <dc:title>Jakub Jankiewicz</dc:title>
                    </cc:Agent>
                </dc:rights>
                <dc:date>2010</dc:date>
                <dc:format>image/svg+xml</dc:format>
                <dc:type rdf:resource="http://purl.org/dc/dcmitype/StillImage" />
                <cc:license rdf:resource="http://www.gnu.org/copyleft/gpl.html" />
             </cc:Work>
        </rdf:RDF>
    </metadata>
    <path d="M 32.8125 26.875 C 30.68088 26.86464 29.002541 26.987027 27.0625 28.375 C 25.49321 29.497729 25.030501 33.332608 27.5625 35.3125 L 59.125 60 C 60.40714 61.002563 62.08076 61.5 63.75 61.5 C 65.41924 61.5 67.09286 61.002563 68.375 60 L 99.9375 35.3125 C 102.46949 33.332608 101.97554 29.497729 100.40625 28.375 C 98.466216 26.987027 96.81823 26.8125 94.6875 26.875 C 73.06292 27.509306 55.426891 26.984888 32.8125 26.875 z M 110.65625 39.6875 L 70.125 71.4375 C 66.56745 74.219313 60.8388 74.219313 57.28125 71.4375 L 16.75 39.78125 C 12.95131 40.47833 10.125 43.806309 10.125 47.8125 L 10.125 93 C 10.125 97.51604 13.733961 101.15625 18.25 101.15625 L 48.625 101.15625 L 48.625 79.25 A 2.5242318 2.5242318 0 0 1 51.15625 76.71875 L 89.34375 76.71875 L 89.34375 67 A 2.5242318 2.5242318 0 0 1 91.84375 64.46875 A 2.5242318 2.5242318 0 0 1 93.46875 65.03125 L 117.875 85 L 117.875 47.8125 C 117.875 43.610527 114.73189 40.145615 110.65625 39.6875 z M 91.875 67 L 91.875 79.25 L 51.15625 79.25 L 51.15625 105.5625 L 91.875 105.5625 L 91.875 117.5625 L 122.78125 92.28125 L 91.875 67 z " style="fill:#aaaaaa"/>
</svg>