<?xml version="1.0" encoding="UTF-8" standalone="no"?>
<svg xmlns:dc="http://purl.org/dc/elements/1.1/"
     xmlns:cc="http://creativecommons.org/ns#"
     xmlns:rdf="http://www.w3.org/1999/02/22-rdf-syntax-ns#"
     xmlns:svg="http://www.w3.org/2000/svg"
     xmlns="http://www.w3.org/2000/svg"
     xmlns:xlink="http://www.w3.org/1999/xlink"
     width="128" height="128" version="1.1">
    <title>Forward Mail Icon</title>
    <desc>This is shape (source) for Clarity vector icon theme for gtk</desc>
    <metadata>
        <rdf:RDF>
            <cc:Work rdf:about="">
                <dc:title>Forward Mail Icon</dc:title>
                <dc:description>This is shape (source) for Clarity vector icon theme for gtk</dc:description>
                <dc:creator>
                    <cc:Agent>
                        <dc:title>Jakub Jankiewicz</dc:title>
                    </cc:Agent>
                </dc:creator>
                <dc:rights>
                    <cc:Agent>
                        <dc:title>Jakub Jankiewicz</dc:title>
                    </cc:Agent>
                </dc:rights>
                <dc:date>2010</dc:date>
                <dc:format>image/svg+xml</dc:format>
                <dc:type rdf:resource="http://purl.org/dc/dcmitype/StillImage" />
                <cc:license rdf:resource="http://www.gnu.org/copyleft/gpl.html" />
             </cc:Work>
        </rdf:RDF>
    </metadata>
    <path d="M 32.8125 26.875 C 30.68088 26.86464 29.002541 26.987027 27.0625 28.375 C 25.49321 29.497729 25.030501 33.332608 27.5625 35.3125 L 59.125 60 C 60.40714 61.002563 62.08076 61.5 63.75 61.5 C 65.41924 61.5 67.09286 61.002563 68.375 60 L 99.9375 35.3125 C 102.46949 33.332608 101.97554 29.497729 100.40625 28.375 C 98.466216 26.987027 96.81823 26.8125 94.6875 26.875 C 73.06292 27.509306 55.426891 26.984888 32.8125 26.875 z M 110.65625 39.6875 L 70.125 71.4375 C 69.817701 71.677791 69.461899 71.863721 69.125 72.0625 L 89.09375 88.40625 L 89.09375 68.84375 A 3.2811666 3.2811666 0 0 1 94.4375 66.3125 L 117.875 85.46875 L 117.875 47.8125 C 117.875 43.610527 114.73189 40.145615 110.65625 39.6875 z M 16.75 39.78125 C 12.95131 40.47833 10.125 43.806309 10.125 47.8125 L 10.125 93 C 10.125 97.51604 13.733961 101.15625 18.25 101.15625 L 56.75 101.15625 L 56.75 71.03125 L 16.75 39.78125 z M 60.03125 68.84375 L 60.03125 119.40625 L 90.9375 94.125 L 60.03125 68.84375 z M 92.375 68.84375 L 92.375 119.40625 L 123.28125 94.125 L 92.375 68.84375 z M 89.09375 99.84375 L 87.5 101.15625 L 89.09375 101.15625 L 89.09375 99.84375 z " style="fill:#aaaaaa"/>
</svg>