<?xml version="1.0" encoding="UTF-8" standalone="no"?>
<svg xmlns:dc="http://purl.org/dc/elements/1.1/"
     xmlns:cc="http://creativecommons.org/ns#"
     xmlns:rdf="http://www.w3.org/1999/02/22-rdf-syntax-ns#"
     xmlns:svg="http://www.w3.org/2000/svg"
     xmlns="http://www.w3.org/2000/svg"
     xmlns:xlink="http://www.w3.org/1999/xlink"
     width="128" height="128" version="1.1">
    <title>Multiple Mails Icon</title>
    <desc>This is shape (source) for Clarity vector icon theme for gtk</desc>
    <metadata>
        <rdf:RDF>
            <cc:Work rdf:about="">
                <dc:title>Multiple Mails Icon</dc:title>
                <dc:description>This is shape (source) for Clarity vector icon theme for gtk</dc:description>
                <dc:creator>
                    <cc:Agent>
                        <dc:title>Jakub Jankiewicz</dc:title>
                    </cc:Agent>
                </dc:creator>
                <dc:rights>
                    <cc:Agent>
                        <dc:title>Jakub Jankiewicz</dc:title>
                    </cc:Agent>
                </dc:rights>
                <dc:date>2010</dc:date>
                <dc:format>image/svg+xml</dc:format>
                <dc:type rdf:resource="http://purl.org/dc/dcmitype/StillImage" />
                <cc:license rdf:resource="http://www.gnu.org/copyleft/gpl.html" />
             </cc:Work>
        </rdf:RDF>
    </metadata>
    <path d="m 23.296875,29.1875 c -3.243041,0 -5.84375,2.600709 -5.84375,5.84375 l 0,27.90625 c 0,3.243041 2.600709,5.875 5.84375,5.875 l 1.84375,0 0,-21.09375 c 0,-4.48526 3.67099,-8.15625 8.15625,-8.15625 l 57.25,0 0,-4.53125 c 0,-3.243041 -2.600709,-5.84375 -5.84375,-5.84375 l -61.40625,0 z m 10,12.6875 c -3.243041,0 -5.84375,2.600709 -5.84375,5.84375 l 0,30.21875 c 0,3.243041 2.600709,5.875 5.84375,5.875 l 1.84375,0 0,-21.1875 c 0,-3.813775 2.750807,-7.021177 6.40625,-7.71875 1.611058,-0.30744 1.969622,-0.335054 4.625,-0.28125 -1.679123,-4.205707 -0.429711,-5.714718 1.40625,-7.0625 1.773104,-1.268544 3.694522,-1.476281 5.25,-1.46875 15.368319,0.07468 27.313852,0.428034 41.90625,0 1.6227,-0.0476 3.56154,0.216043 5.312505,1.46875 0.18362,0.131371 0.34899,0.262355 0.5,0.40625 l 0,-0.25 c 0,-3.243041 -2.600715,-5.84375 -5.843755,-5.84375 l -61.40625,0 z m 19.53125,6.53125 c -1.445777,-0.007 -2.590412,0.08985 -3.90625,1.03125 -1.064374,0.761494 -1.373585,3.375883 0.34375,4.71875 L 70.671875,70.875 c 0.869615,0.679991 2.024083,1.03125 3.15625,1.03125 1.132166,0 2.255385,-0.351259 3.125,-1.03125 l 21.40625,-16.71875 c 1.717335,-1.342867 1.40812,-3.957256 0.34375,-4.71875 -1.31583,-0.941396 -2.46108,-1.073641 -3.90625,-1.03125 -14.66693,0.43022 -26.630481,0.07453 -41.96875,0 z m 52.812505,8.6875 -27.500005,21.5625 c -2.412916,1.886772 -6.305832,1.886772 -8.71875,0 L 41.953125,57.1875 c -2.576472,0.472797 -4.5,2.72029 -4.5,5.4375 l 0,30.65625 c 0,3.063016 2.468235,5.53125 5.53125,5.53125 l 62.031255,0 c 3.06301,0 5.53125,-2.468234 5.53125,-5.53125 l 0,-30.65625 c 0,-2.85 -2.14194,-5.220532 -4.90625,-5.53125 z" style="fill:#aaaaaa"/>
</svg>