<?xml version="1.0" encoding="UTF-8" standalone="no"?>
<svg xmlns:dc="http://purl.org/dc/elements/1.1/"
     xmlns:cc="http://creativecommons.org/ns#"
     xmlns:rdf="http://www.w3.org/1999/02/22-rdf-syntax-ns#"
     xmlns:svg="http://www.w3.org/2000/svg"
     xmlns="http://www.w3.org/2000/svg"
     xmlns:xlink="http://www.w3.org/1999/xlink"
     width="128" height="128" version="1.1">
    <title>Email Receive Icon</title>
    <desc>This is shape (source) for Clarity vector icon theme for gtk</desc>
    <metadata>
        <rdf:RDF>
            <cc:Work rdf:about="">
                <dc:title>Email Receive Icon</dc:title>
                <dc:description>This is shape (source) for Clarity vector icon theme for gtk</dc:description>
                <dc:creator>
                    <cc:Agent>
                        <dc:title>Jakub Jankiewicz</dc:title>
                    </cc:Agent>
                </dc:creator>
                <dc:rights>
                    <cc:Agent>
                        <dc:title>Jakub Jankiewicz</dc:title>
                    </cc:Agent>
                </dc:rights>
                <dc:date>2010</dc:date>
                <dc:format>image/svg+xml</dc:format>
                <dc:type rdf:resource="http://purl.org/dc/dcmitype/StillImage" />
                <cc:license rdf:resource="http://www.gnu.org/copyleft/gpl.html" />
             </cc:Work>
        </rdf:RDF>
    </metadata>
    <path d="M 32.8125 26.875 C 30.68088 26.86464 29.002541 26.987027 27.0625 28.375 C 25.49321 29.497729 25.030501 33.332608 27.5625 35.3125 L 59.125 60 C 60.40714 61.002563 62.08076 61.5 63.75 61.5 C 65.41924 61.5 67.09286 61.002563 68.375 60 L 99.9375 35.3125 C 102.46949 33.332608 101.97554 29.497729 100.40625 28.375 C 98.466216 26.987027 96.81823 26.8125 94.6875 26.875 C 73.06292 27.509306 55.426891 26.984888 32.8125 26.875 z M 110.65625 39.6875 L 94.25 52.53125 L 109.84375 52.53125 C 111.17011 52.527557 112.3787 53.736135 112.375 55.0625 L 112.375 83.875 L 117.875 83.875 L 117.875 47.8125 C 117.875 43.610527 114.73189 40.145615 110.65625 39.6875 z M 16.75 39.78125 C 12.95131 40.47833 10.125 43.806309 10.125 47.8125 L 10.125 93 C 10.125 97.51604 13.733961 101.15625 18.25 101.15625 L 80.3125 101.15625 L 69.5625 88 C 68.95832 87.263397 68.83965 86.172284 69.25 85.3125 C 69.66035 84.452716 70.57858 83.8686 71.53125 83.875 L 81 83.875 L 81 62.90625 L 70.125 71.4375 C 66.56745 74.219313 60.8388 74.219313 57.28125 71.4375 L 16.75 39.78125 z M 83.53125 55.0625 L 83.53125 86.40625 L 71.53125 86.40625 L 96.8125 117.3125 L 122.09375 86.40625 L 109.84375 86.40625 L 109.84375 55.0625 L 83.53125 55.0625 z M 117.0625 96.5625 L 114.65625 99.46875 C 115.67027 98.700804 116.49907 97.716788 117.0625 96.5625 z " style="fill:#aaaaaa"/>
</svg>