<?xml version="1.0" encoding="UTF-8" standalone="no"?>
<svg xmlns:dc="http://purl.org/dc/elements/1.1/"
     xmlns:cc="http://creativecommons.org/ns#"
     xmlns:rdf="http://www.w3.org/1999/02/22-rdf-syntax-ns#"
     xmlns:svg="http://www.w3.org/2000/svg"
     xmlns="http://www.w3.org/2000/svg"
     xmlns:xlink="http://www.w3.org/1999/xlink"
     width="128" height="128" version="1.1">
    <title>Spam Icon</title>
    <desc>This is shape (source) for Clarity vector icon theme for gtk</desc>
    <metadata>
        <rdf:RDF>
            <cc:Work rdf:about="">
                <dc:title>Spam Icon</dc:title>
                <dc:description>This is shape (source) for Clarity vector icon theme for gtk</dc:description>
                <dc:creator>
                    <cc:Agent>
                        <dc:title>Jakub Jankiewicz</dc:title>
                    </cc:Agent>
                </dc:creator>
                <dc:rights>
                    <cc:Agent>
                        <dc:title>Jakub Jankiewicz</dc:title>
                    </cc:Agent>
                </dc:rights>
                <dc:date>2010</dc:date>
                <dc:format>image/svg+xml</dc:format>
                <dc:type rdf:resource="http://purl.org/dc/dcmitype/StillImage" />
                <cc:license rdf:resource="http://creativecommons.org/licenses/by-sa/3.0/" />
             </cc:Work>
        </rdf:RDF>
    </metadata>
    <path d="m 78.557923,6.808156 -35.354959,8.318814 -4.159407,16.637628 -3.466172,-5.545876 -9.012048,0 -2.772938,5.545876 -4.852642,-6.932345 -13.1714555,15.251158 0.6932341,18.024097 19.4105664,18.024097 -12.478221,6.932345 -1.386469,10.398517 9.705283,4.852642 -4.159407,10.398511 8.318814,3.46617 10.398517,-7.62558 29.115849,3.46618 6.23911,13.17145 11.091752,-13.17145 7.62558,4.1594 18.71733,-2.0797 -2.0797,-8.31881 7.62558,-10.398516 -10.39852,-15.251159 12.47822,0.693234 5.54588,-7.625579 -11.09175,0.693234 -9.70529,-13.864689 -7.625578,-1.386469 7.625578,-4.852642 0,-6.932345 -15.251157,-14.557924 z" style="fill:#aaaaaa"/>
</svg>