<?xml version="1.0" encoding="UTF-8" standalone="no"?>
<svg xmlns:dc="http://purl.org/dc/elements/1.1/"
     xmlns:cc="http://creativecommons.org/ns#"
     xmlns:rdf="http://www.w3.org/1999/02/22-rdf-syntax-ns#"
     xmlns:svg="http://www.w3.org/2000/svg"
     xmlns="http://www.w3.org/2000/svg"
     xmlns:xlink="http://www.w3.org/1999/xlink"
     width="128" height="128" version="1.1">
    <title>Rotate Right Icon</title>
    <desc>This is shape (source) for Clarity vector icon theme for gtk</desc>
    <metadata>
        <rdf:RDF>
            <cc:Work rdf:about="">
                <dc:title>Rotate Right Icon</dc:title>
                <dc:description>This is shape (source) for Clarity vector icon theme for gtk</dc:description>
                <dc:creator>
                    <cc:Agent>
                        <dc:title>Jakub Jankiewicz</dc:title>
                    </cc:Agent>
                </dc:creator>
                <dc:rights>
                    <cc:Agent>
                        <dc:title>Jakub Jankiewicz</dc:title>
                    </cc:Agent>
                </dc:rights>
                <dc:date>2010</dc:date>
                <dc:format>image/svg+xml</dc:format>
                <dc:type rdf:resource="http://purl.org/dc/dcmitype/StillImage" />
                <cc:license rdf:resource="http://www.gnu.org/copyleft/gpl.html" />
             </cc:Work>
        </rdf:RDF>
    </metadata>
    <path d="m 64,9.34375 c 30.18583,0 54.65625,24.47042 54.65625,54.65625 0,30.185828 -24.47042,54.65625 -54.65625,54.65625 C 33.81417,118.65625 9.34375,94.185828 9.34375,64 9.34375,33.81417 33.81417,9.34375 64,9.34375 z M 40.09375,32.0625 c -0.752382,-0.01745 -1.407618,-0.0057 -1.96875,0 -1.313604,0.01339 -2.0625,0.0625 -2.0625,0.0625 l 0,22.78125 c 12.162912,0 21.566985,0.621259 22.65625,14.125 l -18.3125,0 30.6875,32.40625 30.71875,-32.40625 -17.28125,0 C 82.554009,36.065583 51.379479,32.324246 40.09375,32.0625 z" style="fill:#aaaaaa"/>
</svg>