<?xml version="1.0" encoding="UTF-8" standalone="no"?>
<svg xmlns:dc="http://purl.org/dc/elements/1.1/"
     xmlns:cc="http://creativecommons.org/ns#"
     xmlns:rdf="http://www.w3.org/1999/02/22-rdf-syntax-ns#"
     xmlns:svg="http://www.w3.org/2000/svg"
     xmlns="http://www.w3.org/2000/svg"
     xmlns:xlink="http://www.w3.org/1999/xlink"
     width="128" height="128" version="1.1">
    <title>NO Icon</title>
    <desc>This is shape (source) for Clarity vector icon theme for gtk</desc>
    <metadata>
        <rdf:RDF>
            <cc:Work rdf:about="">
                <dc:title>NO Icon</dc:title>
                <dc:description>This is shape (source) for Clarity vector icon theme for gtk</dc:description>
                <dc:creator>
                    <cc:Agent>
                        <dc:title>Jakub Jankiewicz</dc:title>
                    </cc:Agent>
                </dc:creator>
                <dc:rights>
                    <cc:Agent>
                        <dc:title>Jakub Jankiewicz</dc:title>
                    </cc:Agent>
                </dc:rights>
                <dc:date>2010</dc:date>
                <dc:format>image/svg+xml</dc:format>
                <dc:type rdf:resource="http://purl.org/dc/dcmitype/StillImage" />
                <cc:license rdf:resource="http://www.gnu.org/copyleft/gpl.html" />
             </cc:Work>
        </rdf:RDF>
    </metadata>
    <path d="M 63.96875 8.40625 C 33.574249 8.40625 8.875 33.45649 8.875 64.03125 C 8.875 94.606011 33.584617 119.59375 63.96875 119.59375 C 94.352882 119.59375 119.125 94.616273 119.125 64.03125 C 119.125 33.446227 94.36325 8.40625 63.96875 8.40625 z M 63.96875 23.40625 C 86.165978 23.40625 104.125 41.487257 104.125 64.03125 C 104.125 72.454161 101.64077 80.263014 97.34375 86.71875 L 41.1875 30.5625 C 47.652837 26.048176 55.491657 23.40625 63.96875 23.40625 z M 30.6875 41.3125 L 86.8125 97.4375 C 80.330073 101.95562 72.463952 104.59375 63.96875 104.59375 C 41.761153 104.59375 23.875 86.585507 23.875 64.03125 C 23.875 55.589107 26.385757 47.785802 30.6875 41.3125 z " style="fill:#aaaaaa"/>
</svg>