<?xml version="1.0" encoding="UTF-8" standalone="no"?>
<svg xmlns:dc="http://purl.org/dc/elements/1.1/"
     xmlns:cc="http://creativecommons.org/ns#"
     xmlns:rdf="http://www.w3.org/1999/02/22-rdf-syntax-ns#"
     xmlns:svg="http://www.w3.org/2000/svg"
     xmlns="http://www.w3.org/2000/svg"
     xmlns:xlink="http://www.w3.org/1999/xlink"
     width="128" height="128" version="1.1">
    <title>New Tab Icon</title>
    <desc>This is shape (source) for Clarity vector icon theme for gtk</desc>
    <metadata>
        <rdf:RDF>
            <cc:Work rdf:about="">
                <dc:title>New Tab Icon</dc:title>
                <dc:description>This is shape (source) for Clarity vector icon theme for gtk</dc:description>
                <dc:creator>
                    <cc:Agent>
                        <dc:title>Jakub Jankiewicz</dc:title>
                    </cc:Agent>
                </dc:creator>
                <dc:rights>
                    <cc:Agent>
                        <dc:title>Jakub Jankiewicz</dc:title>
                    </cc:Agent>
                </dc:rights>
                <dc:date>2010</dc:date>
                <dc:format>image/svg+xml</dc:format>
                <dc:type rdf:resource="http://purl.org/dc/dcmitype/StillImage" />
                <cc:license rdf:resource="http://creativecommons.org/licenses/by-sa/3.0/" />
             </cc:Work>
        </rdf:RDF>
    </metadata>
    <path d="m 46.378755,12.629589 c -6.43964,0 -14.61681,0.967563 -21.727892,6.122637 -7.111082,5.155073 -12.021274,14.623789 -12.021274,27.626529 l 0,68.991655 14.335929,0 0,-68.991655 c 0,-9.79445 2.762017,-13.617023 6.122636,-16.053254 3.360619,-2.436231 8.45464,-3.359983 13.290601,-3.359983 l 68.991655,0 0,-14.335929 -68.991655,0 z m 27.029198,34.645161 0,29.119855 -29.41852,0 0,11.050611 29.567853,0 0,26.655864 11.27461,0.0747 -0.07467,-26.730534 29.41852,-0.07467 0,-10.975945 -29.493186,0 0,-29.045189 -11.274611,-0.07467 z" style="fill:#aaaaaa"/>
</svg>