<?xml version="1.0" encoding="UTF-8" standalone="no"?>
<svg xmlns:dc="http://purl.org/dc/elements/1.1/"
     xmlns:cc="http://creativecommons.org/ns#"
     xmlns:rdf="http://www.w3.org/1999/02/22-rdf-syntax-ns#"
     xmlns:svg="http://www.w3.org/2000/svg"
     xmlns="http://www.w3.org/2000/svg"
     xmlns:xlink="http://www.w3.org/1999/xlink"
     width="128" height="128" version="1.1">
    <title>Clarity Icon</title>
    <desc>This is shape (source) for Clarity vector icon theme for gtk</desc>
    <metadata>
        <rdf:RDF>
            <cc:Work rdf:about="">
                <dc:title>Clarity Icon</dc:title>
                <dc:description>This is shape (source) for Clarity vector icon theme for gtk</dc:description>
                <dc:creator>
                    <cc:Agent>
                        <dc:title>Jakub Jankiewicz</dc:title>
                    </cc:Agent>
                </dc:creator>
                <dc:rights>
                    <cc:Agent>
                        <dc:title>Jakub Jankiewicz</dc:title>
                    </cc:Agent>
                </dc:rights>
                <dc:date>2010</dc:date>
                <dc:format>image/svg+xml</dc:format>
                <dc:type rdf:resource="http://purl.org/dc/dcmitype/StillImage" />
                <cc:license rdf:resource="http://www.gnu.org/copyleft/gpl.html" />
             </cc:Work>
        </rdf:RDF>
    </metadata>
    <path d="m 102.17045,11.963501 c 7.587,0 13.86605,6.279048 13.86605,13.866053 l 0,76.340896 c 0,7.587 -6.27905,13.86605 -13.86605,13.86605 l -76.3409,0 c -7.587,0 -13.86605,-6.27905 -13.86605,-13.86605 l 0,-76.340896 c 0,-7.587005 6.27905,-13.866053 13.86605,-13.866053 l 76.3409,0 z m 0,11.175624 -76.3409,0 c -1.58902,0 -2.69043,1.101412 -2.69043,2.690429 l 0,76.340896 c 0,1.58902 1.10141,2.69043 2.69043,2.69043 l 76.3409,0 c 1.58902,0 2.69043,-1.10141 2.69043,-2.69043 l 0,-76.340896 c 0,-1.589017 -1.10141,-2.690429 -2.69043,-2.690429 z M 34.340621,24.251514 46.809719,36.694743 58.761427,24.743034 60.18425,60.184249 24.74303,58.761426 36.720613,46.809718 24.25151,34.340619 34.340621,24.251514 z M 67.841622,67.84162 103.28284,69.238574 91.305258,81.190283 103.77436,93.659381 93.659382,103.74849 81.216153,91.305257 69.238575,103.25697 67.841622,67.84162 z" style="fill:#aaaaaa"/>
</svg>