<?xml version="1.0" encoding="UTF-8" standalone="no"?>
<svg xmlns:dc="http://purl.org/dc/elements/1.1/"
     xmlns:cc="http://creativecommons.org/ns#"
     xmlns:rdf="http://www.w3.org/1999/02/22-rdf-syntax-ns#"
     xmlns:svg="http://www.w3.org/2000/svg"
     xmlns="http://www.w3.org/2000/svg"
     xmlns:xlink="http://www.w3.org/1999/xlink"
     width="128" height="128" version="1.1">
    <title>Clarity Icon</title>
    <desc>This is shape (source) for Clarity vector icon theme for gtk</desc>
    <metadata>
        <rdf:RDF>
            <cc:Work rdf:about="">
                <dc:title>Clarity Icon</dc:title>
                <dc:description>This is shape (source) for Clarity vector icon theme for gtk</dc:description>
                <dc:creator>
                    <cc:Agent>
                        <dc:title>Jakub Jankiewicz</dc:title>
                    </cc:Agent>
                </dc:creator>
                <dc:rights>
                    <cc:Agent>
                        <dc:title>Jakub Jankiewicz</dc:title>
                    </cc:Agent>
                </dc:rights>
                <dc:date>2010</dc:date>
                <dc:format>image/svg+xml</dc:format>
                <dc:type rdf:resource="http://purl.org/dc/dcmitype/StillImage" />
                <cc:license rdf:resource="http://creativecommons.org/licenses/by-sa/3.0/" />
             </cc:Work>
        </rdf:RDF>
    </metadata>
    <path d="m 25.829471,11.96339 c -7.587021,0 -13.866081,6.279061 -13.866081,13.866082 l 0,76.341058 c 0,7.58702 6.27906,13.86608 13.866081,13.86608 l 76.341059,0 c 7.58702,0 13.86608,-6.27906 13.86608,-13.86608 l 0,-76.341058 c 0,-7.587021 -6.27906,-13.866082 -13.86608,-13.866082 l -76.341059,0 z m 0,11.175648 76.341059,0 c 1.58902,0 2.69043,1.101414 2.69043,2.690434 l 0,76.341058 c 0,1.58902 -1.10141,2.69043 -2.69043,2.69043 l -76.341059,0 c -1.589016,0 -2.690432,-1.10141 -2.690432,-2.69043 l 0,-76.341058 c 0,-1.58902 1.101416,-2.690434 2.690432,-2.690434 z M 101.18748,26.812514 65.746196,28.209471 77.723794,40.18708 65.254679,52.630326 75.369674,62.745321 87.81292,50.276206 99.790529,62.253804 101.18748,26.812514 z M 52.630326,65.254679 40.18708,77.723794 28.209471,65.746196 26.812517,101.18748 62.253804,99.790529 50.276206,87.81292 62.745321,75.369674 52.630326,65.254679 z" style="fill:#aaaaaa"/>
</svg>