<?xml version="1.0" encoding="UTF-8" standalone="no"?>
<svg xmlns:dc="http://purl.org/dc/elements/1.1/"
     xmlns:cc="http://creativecommons.org/ns#"
     xmlns:rdf="http://www.w3.org/1999/02/22-rdf-syntax-ns#"
     xmlns:svg="http://www.w3.org/2000/svg"
     xmlns="http://www.w3.org/2000/svg"
     xmlns:xlink="http://www.w3.org/1999/xlink"
     width="128" height="128" version="1.1">
    <title>System Lock icon</title>
    <desc>This is shape (source) for Clarity vector icon theme for gtk</desc>
    <metadata>
        <rdf:RDF>
            <cc:Work rdf:about="">
                <dc:title>System Lock icon</dc:title>
                <dc:description>This is shape (source) for Clarity vector icon theme for gtk</dc:description>
                <dc:creator>
                    <cc:Agent>
                        <dc:title>Jakub Jankiewicz</dc:title>
                    </cc:Agent>
                </dc:creator>
                <dc:rights>
                    <cc:Agent>
                        <dc:title>Jakub Jankiewicz</dc:title>
                    </cc:Agent>
                </dc:rights>
                <dc:date>2010</dc:date>
                <dc:format>image/svg+xml</dc:format>
                <dc:type rdf:resource="http://purl.org/dc/dcmitype/StillImage" />
                <cc:license rdf:resource="http://creativecommons.org/licenses/by-sa/3.0/" />
             </cc:Work>
        </rdf:RDF>
    </metadata>
    <path d="M 64 6.5703125 A 57.429737 57.429737 0 0 0 6.5703125 64 A 57.429737 57.429737 0 0 0 64 121.42969 A 57.429737 57.429737 0 0 0 121.42969 64 A 57.429737 57.429737 0 0 0 64 6.5703125 z M 64.017578 28.072266 C 74.715935 28.072266 83.457031 36.81531 83.457031 47.513672 L 83.457031 59.056641 C 87.700083 60.001346 90.849609 63.768909 90.849609 68.304688 L 90.849609 90.445312 C 90.849609 95.697542 86.650655 99.927734 81.398438 99.927734 L 46.634766 99.927734 C 41.382547 99.927734 37.150391 95.697542 37.150391 90.445312 L 37.150391 68.304688 C 37.150391 63.757516 40.316989 59.989467 44.576172 59.056641 L 44.576172 47.513672 C 44.576172 36.81531 53.319209 28.072266 64.017578 28.072266 z M 64.017578 34.552734 C 56.821371 34.552734 51.056641 40.317465 51.056641 47.513672 L 51.056641 58.853516 L 76.976562 58.853516 L 76.976562 47.513672 C 76.976562 40.317465 71.213773 34.552734 64.017578 34.552734 z M 63.720703 71.751953 A 5.5940976 5.5940976 0 0 0 58.126953 77.345703 A 5.5940976 5.5940976 0 0 0 61.652344 82.529297 L 61.652344 90.113281 L 65.791016 90.113281 L 65.791016 82.529297 A 5.5940976 5.5940976 0 0 0 69.314453 77.345703 A 5.5940976 5.5940976 0 0 0 63.720703 71.751953 z " style="fill:#aaaaaa"/>
</svg>