<?xml version="1.0" encoding="UTF-8" standalone="no"?>
<svg xmlns:dc="http://purl.org/dc/elements/1.1/"
     xmlns:cc="http://creativecommons.org/ns#"
     xmlns:rdf="http://www.w3.org/1999/02/22-rdf-syntax-ns#"
     xmlns:svg="http://www.w3.org/2000/svg"
     xmlns="http://www.w3.org/2000/svg"
     xmlns:xlink="http://www.w3.org/1999/xlink"
     width="128" height="128" version="1.1">
    <title>Zoom Fit Width Icon</title>
    <desc>This is shape (source) for Clarity vector icon theme for gtk</desc>
    <metadata>
        <rdf:RDF>
            <cc:Work rdf:about="">
                <dc:title>Zoom Fit Width Icon</dc:title>
                <dc:description>This is shape (source) for Clarity vector icon theme for gtk</dc:description>
                <dc:creator>
                    <cc:Agent>
                        <dc:title>Jakub Jankiewicz</dc:title>
                    </cc:Agent>
                </dc:creator>
                <dc:rights>
                    <cc:Agent>
                        <dc:title>Jakub Jankiewicz</dc:title>
                    </cc:Agent>
                </dc:rights>
                <dc:date>2010</dc:date>
                <dc:format>image/svg+xml</dc:format>
                <dc:type rdf:resource="http://purl.org/dc/dcmitype/StillImage" />
                <cc:license rdf:resource="http://www.gnu.org/copyleft/gpl.html" />
             </cc:Work>
        </rdf:RDF>
    </metadata>
    <path d="M 58.1875 4.90625 C 29.957889 4.90625 6.9375 27.957888 6.9375 56.1875 C 6.9375 84.417111 29.957889 107.4375 58.1875 107.4375 C 69.752492 107.4375 80.436703 103.56785 89.03125 97.0625 L 108.59375 120.4375 A 7.0007 7.0007 0 1 0 119.3125 111.4375 L 98.96875 87.15625 C 105.53731 78.538312 109.4375 67.814416 109.4375 56.1875 C 109.4375 27.957888 86.417111 4.90625 58.1875 4.90625 z M 58.1875 18.875 C 78.850949 18.875 95.4375 35.52405 95.4375 56.1875 C 95.4375 76.850949 78.850949 93.4375 58.1875 93.4375 C 37.524051 93.4375 20.9375 76.850949 20.9375 56.1875 C 20.9375 35.52405 37.524051 18.875 58.1875 18.875 z M 52.09375 39.6875 L 26.96875 56.15625 L 52.09375 72.625 L 52.09375 63.28125 L 64.3125 63.28125 L 64.3125 72.625 L 89.40625 56.15625 L 64.3125 39.6875 L 64.3125 48.34375 L 52.09375 48.34375 L 52.09375 39.6875 z " style="fill:#aaaaaa"/>
</svg>