<?xml version="1.0" encoding="UTF-8" standalone="no"?>
<svg xmlns:dc="http://purl.org/dc/elements/1.1/"
     xmlns:cc="http://creativecommons.org/ns#"
     xmlns:rdf="http://www.w3.org/1999/02/22-rdf-syntax-ns#"
     xmlns:svg="http://www.w3.org/2000/svg"
     xmlns="http://www.w3.org/2000/svg"
     xmlns:xlink="http://www.w3.org/1999/xlink"
     width="128" height="128" version="1.1">
    <title>Volume High Icon</title>
    <desc>This is shape (source) for Clarity vector icon theme for gtk</desc>
    <metadata>
        <rdf:RDF>
            <cc:Work rdf:about="">
                <dc:title>Volume High Icon</dc:title>
                <dc:description>This is shape (source) for Clarity vector icon theme for gtk</dc:description>
                <dc:creator>
                    <cc:Agent>
                        <dc:title>Jakub Jankiewicz</dc:title>
                    </cc:Agent>
                </dc:creator>
                <dc:rights>
                    <cc:Agent>
                        <dc:title>Jakub Jankiewicz</dc:title>
                    </cc:Agent>
                </dc:rights>
                <dc:date>2010</dc:date>
                <dc:format>image/svg+xml</dc:format>
                <dc:type rdf:resource="http://purl.org/dc/dcmitype/StillImage" />
                <cc:license rdf:resource="http://creativecommons.org/licenses/by-sa/3.0/" />
             </cc:Work>
        </rdf:RDF>
    </metadata>
    <path d="M 104.84375 18.5625 L 99.03125 24.375 C 113.86208 48.69475 113.86208 79.36774 99.03125 103.6875 L 104.8125 109.46875 C 122.54838 81.832167 122.56413 46.206101 104.84375 18.5625 z M 59.1875 25.125 C 58.629358 25.1236 57.976195 25.349584 57.34375 25.875 L 32.71875 46.34375 C 31.620364 47.256261 31.147988 47.40625 29.625 47.40625 L 13.78125 47.40625 C 11.608531 47.40625 9.875 49.139767 9.875 51.3125 L 9.875 76.65625 C 9.875 78.828982 11.608531 80.5625 13.78125 80.5625 L 29.625 80.5625 C 31.147988 80.5625 31.620364 80.712489 32.71875 81.625 L 57.34375 102.09375 C 59.030268 103.49485 60.84375 102.81935 60.84375 101.15625 L 60.84375 26.8125 C 60.84375 25.77307 60.117736 25.12717 59.1875 25.125 z M 90.84375 32.5625 L 85.03125 38.375 C 95.026781 54.00221 95.036195 74.064458 85.03125 89.6875 L 90.8125 95.4375 C 103.78381 76.518526 103.8085 51.484597 90.84375 32.5625 z M 76.8125 46.5625 L 71.09375 52.3125 C 76.297202 59.282784 76.297202 68.779716 71.09375 75.75 L 76.78125 81.4375 C 85.020594 71.306112 85.04355 56.698376 76.8125 46.5625 z " style="fill:#aaaaaa"/>
</svg>