<?xml version="1.0" encoding="UTF-8" standalone="no"?>
<svg xmlns:dc="http://purl.org/dc/elements/1.1/"
     xmlns:cc="http://creativecommons.org/ns#"
     xmlns:rdf="http://www.w3.org/1999/02/22-rdf-syntax-ns#"
     xmlns:svg="http://www.w3.org/2000/svg"
     xmlns="http://www.w3.org/2000/svg"
     xmlns:xlink="http://www.w3.org/1999/xlink"
     width="128" height="128" version="1.1">
    <title>Clarity Icon</title>
    <desc>This is shape (source) for Clarity vector icon theme for gtk</desc>
    <metadata>
        <rdf:RDF>
            <cc:Work rdf:about="">
                <dc:title>Clarity Icon</dc:title>
                <dc:description>This is shape (source) for Clarity vector icon theme for gtk</dc:description>
                <dc:creator>
                    <cc:Agent>
                        <dc:title>Jakub Jankiewicz</dc:title>
                    </cc:Agent>
                </dc:creator>
                <dc:rights>
                    <cc:Agent>
                        <dc:title>Jakub Jankiewicz</dc:title>
                    </cc:Agent>
                </dc:rights>
                <dc:date>2010</dc:date>
                <dc:format>image/svg+xml</dc:format>
                <dc:type rdf:resource="http://purl.org/dc/dcmitype/StillImage" />
                <cc:license rdf:resource="http://creativecommons.org/licenses/by-sa/3.0/" />
             </cc:Work>
        </rdf:RDF>
    </metadata>
    <path d="m 63.984375,17.28125 c -9.777972,0 -17.65625,10.030076 -17.65625,22.375 0,12.344926 7.878278,22.375 17.65625,22.375 9.777938,0 17.71875,-10.030074 17.71875,-22.375 0,-12.344924 -7.940812,-22.375 -17.71875,-22.375 z m 17.8125,52.03125 c -1.324023,0.02172 -2.642719,1.178527 -4,3.4375 -3.082281,5.129959 -8.427524,7.8125 -13.8125,7.8125 -5.25774,0 -10.039178,-2.805187 -13.53125,-7.4375 -2.932064,-3.889448 -6.203876,-3.624501 -8.40625,-0.03125 -5.796914,9.457889 -9.25527,22.747137 -10.0625,37.625 l 64.03125,0 C 95.155177,95.7478 91.500229,82.425102 85.859375,72.8125 c -1.414005,-2.409613 -2.738477,-3.521722 -4.0625,-3.5 z" style="fill:#aaaaaa"/>
</svg>