<?xml version="1.0" encoding="UTF-8" standalone="no"?>
<svg xmlns:dc="http://purl.org/dc/elements/1.1/"
     xmlns:cc="http://creativecommons.org/ns#"
     xmlns:rdf="http://www.w3.org/1999/02/22-rdf-syntax-ns#"
     xmlns:svg="http://www.w3.org/2000/svg"
     xmlns="http://www.w3.org/2000/svg"
     xmlns:xlink="http://www.w3.org/1999/xlink"
     width="128" height="128" version="1.1">
    <title>Empty cup Icon</title>
    <desc>This is shape (source) for Clarity vector icon theme for gtk</desc>
    <metadata>
        <rdf:RDF>
            <cc:Work rdf:about="">
                <dc:title>Empty cup Icon</dc:title>
                <dc:description>This is shape (source) for Clarity vector icon theme for gtk</dc:description>
                <dc:creator>
                    <cc:Agent>
                        <dc:title>Jakub Jankiewicz</dc:title>
                    </cc:Agent>
                </dc:creator>
                <dc:rights>
                    <cc:Agent>
                        <dc:title>Jakub Jankiewicz</dc:title>
                    </cc:Agent>
                </dc:rights>
                <dc:date>2010</dc:date>
                <dc:format>image/svg+xml</dc:format>
                <dc:type rdf:resource="http://purl.org/dc/dcmitype/StillImage" />
                <cc:license rdf:resource="http://www.gnu.org/copyleft/gpl.html" />
             </cc:Work>
        </rdf:RDF>
    </metadata>
    <path d="m 25.9375,59.91822 0,33.0625 c 0,4.625494 3.718251,8.34374 8.34375,8.34374 l 56.75,0 c 4.625496,0 8.34375,-3.718246 8.34375,-8.34374 l 0,-2.5 c 0.396227,0.03434 0.81289,0.0625 1.21875,0.0625 7.07319,0 12.78125,-5.316232 12.78125,-11.875 0,-6.558764 -5.70806,-11.875 -12.78125,-11.875 -0.40586,0 -0.822523,0.02827 -1.21875,0.0625 l 0,-6.9375 z m 74.65625,12.46875 c 3.7295,0 6.75,2.823005 6.75,6.28125 0,3.458257 -3.0205,6.25 -6.75,6.25 -0.41126,0 -0.827669,-0.02843 -1.21875,-0.09375 l 0,-12.3125 c 0.391081,-0.06534 0.80749,-0.125 1.21875,-0.125 z m -85.96875,34.97849 0,2 c 0,4.62549 3.718251,8.34375 8.34375,8.34375 l 79.375,0 c 4.6255,0 8.34375,-3.71826 8.34375,-8.34375 l 0,-2 z" style="fill:#aaaaaa"/>
</svg>