<?xml version="1.0" encoding="UTF-8" standalone="no"?>
<svg xmlns:dc="http://purl.org/dc/elements/1.1/"
     xmlns:cc="http://creativecommons.org/ns#"
     xmlns:rdf="http://www.w3.org/1999/02/22-rdf-syntax-ns#"
     xmlns:svg="http://www.w3.org/2000/svg"
     xmlns="http://www.w3.org/2000/svg"
     xmlns:xlink="http://www.w3.org/1999/xlink"
     width="128" height="128" version="1.1">
    <title>Clarity Icon</title>
    <desc>This is shape (source) for Clarity vector icon theme for gtk</desc>
    <metadata>
        <rdf:RDF>
            <cc:Work rdf:about="">
                <dc:title>Clarity Icon</dc:title>
                <dc:description>This is shape (source) for Clarity vector icon theme for gtk</dc:description>
                <dc:creator>
                    <cc:Agent>
                        <dc:title>Jakub Jankiewicz</dc:title>
                    </cc:Agent>
                </dc:creator>
                <dc:rights>
                    <cc:Agent>
                        <dc:title>Jakub Jankiewicz</dc:title>
                    </cc:Agent>
                </dc:rights>
                <dc:date>2010</dc:date>
                <dc:format>image/svg+xml</dc:format>
                <dc:type rdf:resource="http://purl.org/dc/dcmitype/StillImage" />
                <cc:license rdf:resource="http://creativecommons.org/licenses/by-sa/3.0/" />
             </cc:Work>
        </rdf:RDF>
    </metadata>
    <path d="m 64,17.5 c -15.568019,1e-6 -28.1875,12.61948 -28.1875,28.1875 0,7.571399 2.805952,14.616482 7.84375,19.5 2.286794,2.216762 3.977607,4.770815 5.09375,7.3125 0.725092,1.651183 2.712039,8.540907 3.15625,12.875 l 24.1875,0 C 76.537961,81.040907 78.62657,74.192187 79.25,72.5 80.374793,69.446956 82.144299,67.476825 84.34375,65.1875 89.2047,60.127923 92.1875,53.258899 92.1875,45.6875 92.1875,30.11948 79.568019,17.500001 64,17.5 z M 51.3125,94.40625 c 0,0 -0.871097,9.05244 0.8125,11.4375 2.568813,3.63909 8.191835,4.65625 11.875,4.65625 3.683165,0 9.306187,-1.01716 11.875,-4.65625 1.683597,-2.38506 0.8125,-11.4375 0.8125,-11.4375 z" style="fill:#aaaaaa"/>
</svg>