<?xml version="1.0" encoding="UTF-8" standalone="no"?>
<svg xmlns:dc="http://purl.org/dc/elements/1.1/"
     xmlns:cc="http://creativecommons.org/ns#"
     xmlns:rdf="http://www.w3.org/1999/02/22-rdf-syntax-ns#"
     xmlns:svg="http://www.w3.org/2000/svg"
     xmlns="http://www.w3.org/2000/svg"
     xmlns:xlink="http://www.w3.org/1999/xlink"
     width="128" height="128" version="1.1">
    <title>Image Loading Icon</title>
    <desc>This is shape (source) for Clarity vector icon theme for gtk</desc>
    <metadata>
        <rdf:RDF>
            <cc:Work rdf:about="">
                <dc:title>Image Loading Icon</dc:title>
                <dc:description>This is shape (source) for Clarity vector icon theme for gtk</dc:description>
                <dc:creator>
                    <cc:Agent>
                        <dc:title>Jakub Jankiewicz</dc:title>
                    </cc:Agent>
                </dc:creator>
                <dc:rights>
                    <cc:Agent>
                        <dc:title>Jakub Jankiewicz</dc:title>
                    </cc:Agent>
                </dc:rights>
                <dc:date>2010</dc:date>
                <dc:format>image/svg+xml</dc:format>
                <dc:type rdf:resource="http://purl.org/dc/dcmitype/StillImage" />
                <cc:license rdf:resource="http://creativecommons.org/licenses/by-sa/3.0/" />
             </cc:Work>
        </rdf:RDF>
    </metadata>
    <path d="M 28.5 11.25 C 25.598125 11.54359 23.375 14.015184 23.375 17 L 23.375 111 C 23.375 114.1838 25.90994 116.75 29.09375 116.75 L 98.90625 116.75 C 102.09005 116.75 104.625 114.1838 104.625 111 L 104.625 40.375 L 83.59375 40.375 C 79.28764 40.375 75.53125 37.233891 75.53125 33.0625 L 75.53125 11.25 L 29.09375 11.25 C 28.894762 11.25 28.693458 11.230427 28.5 11.25 z M 79.53125 11.25 L 79.53125 33.0625 C 79.53125 34.776622 81.16322 36.375 83.59375 36.375 L 104.625 36.375 L 79.53125 11.25 z M 64 49.59375 C 78.232766 49.59375 89.78125 61.110989 89.78125 75.34375 C 89.78125 89.576524 78.232766 101.125 64 101.125 C 49.767235 101.125 38.21875 89.576524 38.21875 75.34375 C 38.21875 61.110989 49.767235 49.59375 64 49.59375 z M 64 53.40625 C 62.372316 53.40625 61.0625 54.771963 61.0625 56.4375 C 61.0625 58.103037 62.372316 59.4375 64 59.4375 C 65.627684 59.4375 66.9375 58.103037 66.9375 56.4375 C 66.9375 54.771963 65.627684 53.40625 64 53.40625 z M 64.65625 68.875 C 63.760395 68.968485 62.92057 69.475792 62.4375 70.3125 C 62.404266 70.370056 62.3287 70.53683 62.28125 70.625 C 61.313161 70.040517 60.505265 69.585649 60.21875 69.4375 C 58.480869 68.538891 56.337288 69.201912 55.4375 70.9375 C 54.537707 72.67309 55.199615 74.820141 56.9375 75.71875 C 57.231902 75.870977 58.136505 76.278518 59.21875 76.75 C 57.678765 79.887109 56.104231 83.0907 55.6875 83.8125 C 54.884467 85.203384 55.005826 86.787793 55.96875 87.34375 C 56.93167 87.899684 58.353222 87.234634 59.15625 85.84375 C 59.598751 85.077302 61.826384 81.78188 63.875 78.71875 C 69.896223 81.28665 77.704871 84.624537 79.15625 85.375 C 81.415486 86.543185 83.639109 86.749716 84.125 85.8125 C 84.610887 84.875283 83.165484 83.136934 80.90625 81.96875 C 79.501668 81.242481 72.720871 77.041717 67.21875 73.65625 C 67.30505 73.518491 67.42125 73.33228 67.46875 73.25 C 68.271778 71.859111 67.797138 70.084279 66.40625 69.28125 C 65.971599 69.030303 65.501281 68.88847 65.03125 68.875 C 64.901992 68.871291 64.784229 68.861645 64.65625 68.875 z " style="fill:#aaaaaa"/>
</svg>