<?xml version="1.0" encoding="UTF-8" standalone="no"?>
<svg xmlns:dc="http://purl.org/dc/elements/1.1/"
     xmlns:cc="http://creativecommons.org/ns#"
     xmlns:rdf="http://www.w3.org/1999/02/22-rdf-syntax-ns#"
     xmlns:svg="http://www.w3.org/2000/svg"
     xmlns="http://www.w3.org/2000/svg"
     xmlns:xlink="http://www.w3.org/1999/xlink"
     width="128" height="128" version="1.1">
    <title></title>
    <desc>This is shape (source) for Clarity vector icon theme for gtk</desc>
    <metadata>
        <rdf:RDF>
            <cc:Work rdf:about="">
                <dc:title></dc:title>
                <dc:description>This is shape (source) for Clarity vector icon theme for gtk</dc:description>
                <dc:creator>
                    <cc:Agent>
                        <dc:title>Jakub Jankiewicz</dc:title>
                    </cc:Agent>
                </dc:creator>
                <dc:rights>
                    <cc:Agent>
                        <dc:title>Jakub Jankiewicz</dc:title>
                    </cc:Agent>
                </dc:rights>
                <dc:date>2010</dc:date>
                <dc:format>image/svg+xml</dc:format>
                <dc:type rdf:resource="http://purl.org/dc/dcmitype/StillImage" />
                <cc:license rdf:resource="http://creativecommons.org/licenses/by-sa/3.0/" />
             </cc:Work>
        </rdf:RDF>
    </metadata>
    <path d="M 45.65625 7.875 C 35.590352 7.875 27.5 15.996602 27.5 26.0625 L 27.5 65.09375 C 27.5 75.159648 35.590352 83.28125 45.65625 83.28125 C 55.722148 83.28125 63.84375 75.159648 63.84375 65.09375 L 63.84375 26.0625 C 63.84375 15.996602 55.722148 7.875 45.65625 7.875 z M 101.5625 12.21875 C 93.175261 12.21875 86.375 18.987761 86.375 27.375 C 86.375 35.762239 93.175261 42.5625 101.5625 42.5625 C 109.94974 42.5625 116.75 35.762239 116.75 27.375 C 116.75 18.987761 109.94974 12.21875 101.5625 12.21875 z M 15.59375 38.21875 C 13.189953 38.21875 11.25 40.408282 11.25 43.125 L 11.25 65.09375 C 11.26541 74.162533 14.908361 83.023613 21.3125 89.46875 C 25.057556 93.200949 29.609697 95.997776 34.5625 97.6875 L 34.5625 104.9375 L 20.1875 104.9375 C 15.980856 104.9375 12.59375 108.32461 12.59375 112.53125 L 12.59375 120.125 L 78.75 120.125 L 78.75 112.53125 C 78.75 108.32461 75.362894 104.9375 71.15625 104.9375 L 56.78125 104.9375 L 56.78125 97.6875 C 61.734053 95.997776 66.286194 93.200949 70.03125 89.46875 C 76.435392 83.023612 80.078336 74.162536 80.09375 65.09375 L 80.09375 43.125 C 80.09375 40.408273 78.153797 38.21875 75.75 38.21875 C 73.346204 38.21875 71.4375 40.408273 71.4375 43.125 L 71.4375 65.09375 C 71.45291 71.801332 68.649674 78.625307 63.90625 83.34375 C 59.196568 88.091531 52.358126 90.89116 45.65625 90.875 C 38.954374 90.89116 32.147182 88.091531 27.4375 83.34375 C 22.694074 78.625307 19.89084 71.801334 19.90625 65.09375 L 19.90625 43.125 C 19.90625 40.408282 17.997546 38.21875 15.59375 38.21875 z M 101.5625 48.8125 C 93.175261 48.8125 86.375 55.612761 86.375 64 C 86.375 72.387239 93.175261 79.1875 101.5625 79.1875 C 109.94974 79.1875 116.75 72.387239 116.75 64 C 116.75 55.612761 109.94974 48.8125 101.5625 48.8125 z M 101.5625 85.4375 C 93.175261 85.4375 86.375 92.237761 86.375 100.625 C 86.375 109.01224 93.175261 115.78125 101.5625 115.78125 C 109.94974 115.78125 116.75 109.01224 116.75 100.625 C 116.75 92.237761 109.94974 85.4375 101.5625 85.4375 z " style="fill:#aaaaaa"/>
</svg>