<?xml version="1.0" encoding="UTF-8" standalone="no"?>
<svg xmlns:dc="http://purl.org/dc/elements/1.1/"
     xmlns:cc="http://creativecommons.org/ns#"
     xmlns:rdf="http://www.w3.org/1999/02/22-rdf-syntax-ns#"
     xmlns:svg="http://www.w3.org/2000/svg"
     xmlns="http://www.w3.org/2000/svg"
     xmlns:xlink="http://www.w3.org/1999/xlink"
     width="128" height="128" version="1.1">
    <title>Network Icon</title>
    <desc>This is shape (source) for Clarity vector icon theme for gtk</desc>
    <metadata>
        <rdf:RDF>
            <cc:Work rdf:about="">
                <dc:title>Network Icon</dc:title>
                <dc:description>This is shape (source) for Clarity vector icon theme for gtk</dc:description>
                <dc:creator>
                    <cc:Agent>
                        <dc:title>Jakub Jankiewicz</dc:title>
                    </cc:Agent>
                </dc:creator>
                <dc:rights>
                    <cc:Agent>
                        <dc:title>Jakub Jankiewicz</dc:title>
                    </cc:Agent>
                </dc:rights>
                <dc:date>2010</dc:date>
                <dc:format>image/svg+xml</dc:format>
                <dc:type rdf:resource="http://purl.org/dc/dcmitype/StillImage" />
                <cc:license rdf:resource="http://www.gnu.org/copyleft/gpl.html" />
             </cc:Work>
        </rdf:RDF>
    </metadata>
    <path d="M 47.09375 16.625 C 44.121 16.625 41.71875 18.995994 41.71875 21.96875 L 41.71875 43.96875 L 49.3125 43.96875 L 49.3125 22.75 L 107.46875 22.75 L 107.46875 63.84375 L 90.9375 63.84375 L 90.9375 69.96875 L 109.6875 69.96875 C 112.66025 69.96875 115.03125 67.56651 115.03125 64.59375 L 115.03125 21.96875 C 115.03125 18.995994 112.66025 16.625 109.6875 16.625 L 47.09375 16.625 z M 18.34375 48.625 C 15.371 48.625 12.96875 50.996 12.96875 53.96875 L 12.96875 96.59375 C 12.96875 99.56651 15.371 101.96875 18.34375 101.96875 L 80.9375 101.96875 C 83.910249 101.96875 86.28125 99.56651 86.28125 96.59375 L 86.28125 89.125 L 86.28125 79.375 L 86.28125 73.65625 L 86.28125 69.96875 L 86.28125 63.84375 L 86.28125 54.40625 L 86.28125 53.96875 C 86.28125 50.996 83.910249 48.625 80.9375 48.625 L 52.15625 48.625 L 49.3125 48.625 L 41.71875 48.625 L 39 48.625 L 18.34375 48.625 z M 20.5625 54.75 L 78.71875 54.75 L 78.71875 95.84375 L 20.5625 95.84375 L 20.5625 54.75 z M 90.9375 73.65625 L 90.9375 79.375 L 102.28125 79.375 C 102.28125 76.21127 99.726221 73.65625 96.5625 73.65625 L 90.9375 73.65625 z M 31.46875 105.65625 C 28.30503 105.65625 25.78125 108.21127 25.78125 111.375 L 73.53125 111.375 C 73.53125 108.21127 70.976219 105.65625 67.8125 105.65625 L 31.46875 105.65625 z " style="fill:#aaaaaa"/>
</svg>