<?xml version="1.0" encoding="UTF-8" standalone="no"?>
<svg xmlns:dc="http://purl.org/dc/elements/1.1/"
     xmlns:cc="http://creativecommons.org/ns#"
     xmlns:rdf="http://www.w3.org/1999/02/22-rdf-syntax-ns#"
     xmlns:svg="http://www.w3.org/2000/svg"
     xmlns="http://www.w3.org/2000/svg"
     xmlns:xlink="http://www.w3.org/1999/xlink"
     width="128" height="128" version="1.1">
    <title>Wireless Connection Stage 3 - 12</title>
    <desc>This is shape (source) for Clarity vector icon theme for gtk</desc>
    <metadata>
        <rdf:RDF>
            <cc:Work rdf:about="">
                <dc:title>Wireless Connection Stage 3 - 12</dc:title>
                <dc:description>This is shape (source) for Clarity vector icon theme for gtk</dc:description>
                <dc:creator>
                    <cc:Agent>
                        <dc:title>Jakub Jankiewicz</dc:title>
                    </cc:Agent>
                </dc:creator>
                <dc:rights>
                    <cc:Agent>
                        <dc:title>Jakub Jankiewicz</dc:title>
                    </cc:Agent>
                </dc:rights>
                <dc:date>2010</dc:date>
                <dc:format>image/svg+xml</dc:format>
                <dc:type rdf:resource="http://purl.org/dc/dcmitype/StillImage" />
                <cc:license rdf:resource="http://www.gnu.org/copyleft/gpl.html" />
             </cc:Work>
        </rdf:RDF>
    </metadata>
    <path d="m 34.078139,12.173743 c -5.152954,2.975098 -6.936907,9.547433 -3.961823,14.700417 2.975081,5.152991 9.574489,6.92128 14.727456,3.946204 5.152976,-2.975038 6.921277,-9.574475 3.946218,-14.727453 C 45.814899,10.939938 39.231102,9.1986691 34.078139,12.173743 z M 17.659642,33.236071 c -1.010701,0.617824 -1.8878,1.478951 -2.519651,2.573339 -2.02193,3.502087 -0.802479,7.966484 2.699621,9.988381 2.40766,1.39008 5.269319,1.257498 7.48436,-0.09922 1.006829,-0.616684 1.88777,-1.478943 2.519649,-2.573341 2.021911,-3.502074 0.829544,-7.982054 -2.672559,-10.003999 -2.407671,-1.390071 -5.287851,-1.244275 -7.511421,0.114845 z M 59.905445,8.8454467 c -1.95398,1.3219693 -3.232697,3.5608753 -3.23271,6.0882803 -1.46e-4,4.044203 3.283602,7.316493 7.327447,7.316513 1.263701,-1.2e-5 2.450913,-0.331852 3.4884,-0.895423 2.282452,-1.2399 3.828095,-3.651876 3.828097,-6.432017 C 71.316671,10.878997 68.060154,7.5906504 64.0163,7.5906694 62.499861,7.590658 61.077843,8.052259 59.905441,8.845447 z M 11.611933,59.13613 c -1.555911,1.055521 -2.5636898,2.850139 -2.5636816,4.872073 2.11e-5,3.235016 2.6322816,5.850066 5.8673686,5.850081 1.010933,-1.3e-5 1.969249,-0.263162 2.799259,-0.714041 1.825952,-0.99194 3.05084,-2.929191 3.0508,-5.15334 2.3e-5,-3.235108 -2.632289,-5.850079 -5.867369,-5.850081 -1.213308,-7.1e-5 -2.352865,0.361978 -3.286399,0.99529 z M 85.494728,16.479877 c -0.806081,0.491822 -1.512519,1.191692 -2.018011,2.067212 -1.617537,2.801649 -0.669029,6.38879 2.13263,8.006329 1.751032,1.01089 3.810486,1.038861 5.501177,0.21582 1.014389,-0.493824 1.898579,-1.29786 2.505158,-2.34846 1.617521,-2.80166 0.669043,-6.38882 -2.132631,-8.006329 -1.926147,-1.112061 -4.214928,-1.016551 -5.988324,0.0654 z m -28.213456,35.88287 c -6.42014,3.706672 -8.625137,11.935824 -4.918464,18.355967 3.706672,6.420144 11.935824,8.625138 18.355967,4.918467 6.420141,-3.706673 8.625138,-11.935823 4.918464,-18.355968 C 71.930567,50.86107 63.701417,48.656076 57.281272,52.362747 z M 18.561714,83.486005 c -2.80163,1.617533 -3.75651,5.181055 -2.138961,7.98271 1.61754,2.801661 5.18105,3.756501 7.982711,2.138962 2.801657,-1.617529 3.783557,-5.196685 2.166026,-7.998342 -1.617546,-2.801666 -5.208119,-3.740859 -8.009776,-2.12333 z M 103.59458,34.392257 c -2.80163,1.617508 -3.783575,5.196677 -2.16602,7.998333 1.61753,2.801652 5.20811,3.740878 8.00977,2.123341 2.80167,-1.617543 3.75651,-5.181057 2.13897,-7.982717 -1.61754,-2.801661 -5.18103,-3.756505 -7.98272,-2.138957 z M 36.402378,101.51193 c -0.806089,0.49182 -1.512528,1.1917 -2.018008,2.06721 -1.617545,2.80167 -0.669039,6.38881 2.132632,8.00633 1.926147,1.11212 4.24337,1.00431 6.015377,-0.0811 0.805469,-0.49338 1.485461,-1.17608 1.99095,-2.05159 1.617545,-2.80167 0.669029,-6.38878 -2.132627,-8.00633 -1.926155,-1.11205 -4.214916,-1.01657 -5.988323,0.0654 z M 109.79803,59.13694 c -1.5559,1.055514 -2.56366,2.850152 -2.56369,4.872073 5e-5,3.235026 2.63233,5.850077 5.86737,5.850081 1.011,-4e-6 1.9422,-0.247541 2.77221,-0.698421 1.8259,-0.991939 3.07783,-2.944843 3.07792,-5.168922 3e-5,-3.23511 -2.63227,-5.850085 -5.86737,-5.85008 -1.21328,-6e-5 -2.35284,0.36198 -3.2864,0.995298 z m -49.093452,49.09265 c -1.55593,1.05549 -2.563689,2.85014 -2.563683,4.87207 -1.77e-4,3.23549 2.632292,5.8501 5.867363,5.85007 1.010977,4e-5 1.969289,-0.26314 2.799266,-0.71404 1.825985,-0.99187 3.050824,-2.92917 3.050824,-5.15332 -2.08e-4,-3.23456 -2.632276,-5.85007 -5.867369,-5.85007 -1.21316,10e-6 -2.35283,0.36198 -3.286391,0.99528 z M 103.46459,83.542084 c -0.80608,0.491832 -1.51253,1.191693 -2.01803,2.067201 -1.617504,2.801682 -0.66903,6.388797 2.13265,8.006334 1.92613,1.112079 4.2163,1.01998 5.98832,-0.06542 0.80549,-0.493344 1.51253,-1.191693 2.018,-2.067209 1.61753,-2.801671 0.66908,-6.38879 -2.13263,-8.006324 -1.92611,-1.112041 -4.21493,-1.016571 -5.98831,0.06543 z M 85.609398,101.4285 c -2.801646,1.61755 -3.740868,5.20811 -2.123332,8.00978 1.617522,2.80165 5.181061,3.7565 7.98271,2.13896 2.801661,-1.61754 3.756516,-5.18104 2.138961,-7.98271 -1.617515,-2.80164 -5.19668,-3.783568 -7.998339,-2.16603 z" style="fill:#aaaaaa"/>
</svg>