<?xml version="1.0" encoding="UTF-8" standalone="no"?>
<svg xmlns:dc="http://purl.org/dc/elements/1.1/"
     xmlns:cc="http://creativecommons.org/ns#"
     xmlns:rdf="http://www.w3.org/1999/02/22-rdf-syntax-ns#"
     xmlns:svg="http://www.w3.org/2000/svg"
     xmlns="http://www.w3.org/2000/svg"
     xmlns:xlink="http://www.w3.org/1999/xlink"
     width="128" height="128" version="1.1">
    <title>Wireless Connection Stage 1 - 11</title>
    <desc>This is shape (source) for Clarity vector icon theme for gtk</desc>
    <metadata>
        <rdf:RDF>
            <cc:Work rdf:about="">
                <dc:title>Wireless Connection Stage 1 - 11</dc:title>
                <dc:description>This is shape (source) for Clarity vector icon theme for gtk</dc:description>
                <dc:creator>
                    <cc:Agent>
                        <dc:title>Jakub Jankiewicz</dc:title>
                    </cc:Agent>
                </dc:creator>
                <dc:rights>
                    <cc:Agent>
                        <dc:title>Jakub Jankiewicz</dc:title>
                    </cc:Agent>
                </dc:rights>
                <dc:date>2010</dc:date>
                <dc:format>image/svg+xml</dc:format>
                <dc:type rdf:resource="http://purl.org/dc/dcmitype/StillImage" />
                <cc:license rdf:resource="http://www.gnu.org/copyleft/gpl.html" />
             </cc:Work>
        </rdf:RDF>
    </metadata>
    <path d="m 111.57726,91.468712 c -1.61753,2.801654 -5.18107,3.756494 -7.98271,2.138955 -2.80166,-1.617542 -3.783565,-5.196686 -2.16603,-7.998337 1.61754,-2.801662 5.20813,-3.740884 8.00977,-2.123338 2.80168,1.617542 3.75651,5.181059 2.13897,7.98272 z M 93.550215,109.56745 c -0.493328,0.80547 -1.191684,1.51254 -2.067215,2.018 -2.801648,1.61756 -6.388726,0.66948 -8.006312,-2.13262 -1.617544,-2.80167 -0.669078,-6.38879 2.132622,-8.00633 2.801658,-1.617551 6.388855,-0.66848 8.006319,2.13263 1.112072,1.92616 1.019971,4.21632 -0.06541,5.98833 z M 118.23772,66.807459 c -0.99188,1.82599 -2.92921,3.050813 -5.15334,3.050804 -3.23508,1e-6 -5.85006,-2.632281 -5.85007,-5.867362 1e-5,-3.235074 2.6323,-5.850071 5.86734,-5.850069 3.23512,-1.2e-5 5.8501,2.632271 5.85011,5.86736 0,1.010959 -0.26315,1.969268 -0.71405,2.799259 z M 69.160706,115.87384 c -0.99192,1.82598 -2.944832,3.07787 -5.16898,3.07785 -3.235077,1e-5 -5.850081,-2.63229 -5.850079,-5.86736 2e-6,-3.23507 2.632291,-5.85009 5.867372,-5.85009 3.23508,1e-5 5.850077,2.63228 5.85008,5.86737 -1e-5,1.01096 -0.247542,1.94221 -0.698411,2.7722 z M 111.50446,42.532305 c -0.49336,0.805475 -1.17606,1.485462 -2.0516,1.990959 -2.80164,1.617524 -6.38879,0.668976 -8.00633,-2.132623 -1.617526,-2.801677 -0.66946,-6.388751 2.13263,-8.006331 2.80167,-1.617557 6.3888,-0.66908 8.00633,2.132621 1.11207,1.926152 1.00433,4.243381 -0.081,6.015379 z M 44.513953,109.43826 c -1.61754,2.80166 -5.18105,3.7565 -7.982713,2.13896 -2.801664,-1.61753 -3.756481,-5.18106 -2.138964,-7.9827 1.617536,-2.80165 5.196677,-3.783572 7.998343,-2.16603 2.801651,1.61753 3.740868,5.20812 2.123334,8.00977 z M 93.607706,24.40539 c -1.617546,2.80166 -5.196694,3.783578 -7.998336,2.16603 -2.801667,-1.61754 -3.740878,-5.208132 -2.123346,-8.009759 1.617546,-2.801671 5.18105,-3.756521 7.982714,-2.138971 2.801668,1.617529 3.75651,5.18104 2.138968,7.9827 z M 26.488029,91.597595 c -0.493378,0.805474 -1.191716,1.512533 -2.067211,2.018006 -2.801665,1.617536 -6.388794,0.668979 -8.006328,-2.132621 -1.617547,-2.801666 -0.669485,-6.388742 2.132623,-8.006334 2.801661,-1.617539 6.388797,-0.669072 8.00633,2.132634 1.112053,1.92614 1.019947,4.216301 -0.0654,5.988322 z M 68.86302,18.201952 c -1.052661,1.558119 -2.850192,2.563615 -4.872079,2.563691 -3.235081,-1.2e-5 -5.850082,-2.632315 -5.85008,-5.867382 7e-6,-3.235071 2.632285,-5.8500616 5.867359,-5.850059 3.235082,-3.51e-5 5.850085,2.632265 5.850099,5.867357 -9e-6,1.213135 -0.363715,2.351536 -0.995299,3.286393 z M 21.354845,67.488506 c -1.239913,2.282471 -3.651893,3.828116 -6.432028,3.828102 -4.043864,2.3e-5 -7.332133,-3.256526 -7.332115,-7.300376 -1.05e-5,-4.043837 3.299204,-7.343572 7.343046,-7.34357 4.043858,-3e-6 7.316507,3.283599 7.316509,7.327446 -6e-6,1.263709 -0.331813,2.45092 -0.895424,3.488398 z M 45.698602,25.323913 c -0.616706,1.006806 -1.478943,1.887787 -2.573338,2.519649 -3.502075,2.021909 -7.982052,0.829878 -10.004006,-2.672573 -2.021921,-3.502073 -0.813885,-8.00913 2.688178,-10.031061 3.502068,-2.021942 7.966477,-0.802405 9.988388,2.699624 1.390074,2.407681 1.257488,5.269329 -0.09924,7.484334 z m -14.87822,19.519789 c -2.97506,5.152973 -9.57446,6.921293 -14.727448,3.946217 -5.152984,-2.975079 -6.8942107,-9.558858 -3.919151,-14.711843 2.97506,-5.15297 9.54742,-6.936897 14.700401,-3.961838 5.152976,2.975081 6.921283,9.574506 3.946198,14.727464 z" style="fill:#aaaaaa"/>
</svg>