<?xml version="1.0" encoding="UTF-8" standalone="no"?>
<svg xmlns:dc="http://purl.org/dc/elements/1.1/"
     xmlns:cc="http://creativecommons.org/ns#"
     xmlns:rdf="http://www.w3.org/1999/02/22-rdf-syntax-ns#"
     xmlns:svg="http://www.w3.org/2000/svg"
     xmlns="http://www.w3.org/2000/svg"
     xmlns:xlink="http://www.w3.org/1999/xlink"
     width="128" height="128" version="1.1">
    <title>Wireless Connection Stage 2 - 10</title>
    <desc>This is shape (source) for Clarity vector icon theme for gtk</desc>
    <metadata>
        <rdf:RDF>
            <cc:Work rdf:about="">
                <dc:title>Wireless Connection Stage 2 - 10</dc:title>
                <dc:description>This is shape (source) for Clarity vector icon theme for gtk</dc:description>
                <dc:creator>
                    <cc:Agent>
                        <dc:title>Jakub Jankiewicz</dc:title>
                    </cc:Agent>
                </dc:creator>
                <dc:rights>
                    <cc:Agent>
                        <dc:title>Jakub Jankiewicz</dc:title>
                    </cc:Agent>
                </dc:rights>
                <dc:date>2010</dc:date>
                <dc:format>image/svg+xml</dc:format>
                <dc:type rdf:resource="http://purl.org/dc/dcmitype/StillImage" />
                <cc:license rdf:resource="http://www.gnu.org/copyleft/gpl.html" />
             </cc:Work>
        </rdf:RDF>
    </metadata>
    <path d="m 4.1562648,63.999899 c 1.1e-5,5.950138 4.7998409,10.781253 10.7499892,10.781248 5.950161,-10e-7 10.78126,-4.831112 10.78125,-10.781247 2.9e-5,-5.950133 -4.8311,-10.781239 -10.781249,-10.781252 -5.9501383,1.7e-5 -10.7500098,4.831117 -10.7499902,10.781251 z m 10.0312412,24.75 c 0.0297,1.184203 0.336896,2.374363 0.968738,3.468754 2.021923,3.502082 6.497942,4.678201 10.000008,2.656243 2.40768,-1.390051 3.723693,-3.934611 3.656261,-6.531251 -0.03065,-1.180282 -0.336908,-2.374335 -0.968748,-3.468748 -2.02193,-3.50207 -6.497907,-4.709431 -10.000011,-2.687491 -2.407671,1.390068 -3.721497,3.957265 -3.656247,6.562494 z m -2e-6,-48.781242 c 0.16787,2.353176 1.46745,4.580033 3.65625,5.843749 3.5023,2.022228 7.978069,0.814557 10,-2.687508 0.631844,-1.094404 0.938077,-2.288473 0.968754,-3.468748 0.06744,-2.596619 -1.248575,-5.14117 -3.656251,-6.531252 -3.502029,-2.021891 -7.978079,-0.845833 -9.999999,2.656249 -0.75822,1.313267 -1.06947,2.775584 -0.96875,4.187505 z M 33.593761,106.9374 c 0.136153,1.87522 1.186449,3.64529 2.937499,4.65625 2.801619,1.61749 6.382448,0.64541 8.000002,-2.15625 0.505456,-0.8755 0.756707,-1.837 0.781239,-2.78125 0.05393,-2.07729 -1.011359,-4.10669 -2.937522,-5.21874 -2.801674,-1.617581 -6.382451,-0.64541 -7.99999,2.15625 -0.606715,1.05072 -0.862947,2.21862 -0.781253,3.34375 z m -4e-6,-85.312496 c 0.02289,0.943998 0.275776,1.905722 0.781253,2.781251 1.617529,2.801657 5.198326,3.773775 7.999988,2.156233 1.750972,-1.010992 2.804936,-2.780532 2.93751,-4.656236 0.07953,-1.125402 -0.174696,-2.293139 -0.781251,-3.343755 -1.61756,-2.801663 -5.198357,-3.77382 -7.999993,-2.156244 -1.926144,1.112059 -2.987848,3.141944 -2.937524,5.218741 z m 24.531252,42.374994 c -2e-6,3.235071 2.639928,5.843753 5.875,5.843751 3.235058,1e-5 5.87501,-2.60868 5.874998,-5.843749 -10e-7,-3.23508 -2.639899,-5.843752 -5.875,-5.843749 -3.23506,-1.2e-5 -5.874999,2.608668 -5.874998,5.843747 z m 0.03125,49.093752 c 9e-6,3.23505 2.608671,5.84376 5.843749,5.84375 3.235081,0 5.843751,-2.60867 5.843751,-5.84375 1e-6,-3.23507 -2.608682,-5.875 -5.84375,-5.875 -3.235085,0 -5.843749,2.63993 -5.84375,5.875 z m 0,-98.187498 c -1.1e-5,3.235038 2.608666,5.875009 5.843751,5.874995 3.235066,1.9e-5 5.843748,-2.639915 5.843749,-5.874995 8e-6,-3.235095 -2.60867,-5.8437601 -5.843749,-5.8437491 -3.235082,-1.07e-5 -5.843743,2.6086431 -5.843751,5.8437491 z m 24.531247,91.749998 c 0.02288,0.944 0.275772,1.90573 0.781245,2.78124 1.617548,2.80167 5.198347,3.7738 8.000002,2.15625 1.926193,-1.11204 2.991473,-3.17268 2.937542,-5.24997 -0.02453,-0.94423 -0.275784,-1.87448 -0.781255,-2.75 -1.617549,-2.80167 -5.198326,-3.773779 -7.999993,-2.15625 -1.926145,1.11206 -2.987847,3.14194 -2.937521,5.21874 z m 0,-84.749994 c 0.136159,1.875198 1.186463,3.645268 2.937499,4.656239 2.801631,1.61749 6.382473,0.645399 7.999998,-2.156241 0.505494,-0.87554 0.756724,-1.80576 0.781261,-2.75001 0.05392,-2.07726 -1.011348,-4.13794 -2.937456,-5.250022 -2.801672,-1.61758 -6.382465,-0.64542 -8.000003,2.15625 -0.606708,1.050721 -0.86294,2.218619 -0.781252,3.343751 z m 17.968755,67.062497 c 0.13614,1.875221 1.18645,3.645282 2.9375,4.656249 2.80193,1.617903 6.38249,0.645423 8,-2.156251 0.50551,-0.875503 0.75675,-1.837029 0.78124,-2.781255 0.054,-2.077288 -1.01133,-4.106678 -2.9375,-5.218744 -2.80131,-1.617094 -6.38246,-0.645419 -8,2.15625 -0.60658,1.050634 -0.86292,2.218613 -0.78124,3.343754 z m -1e-5,-49.375004 c 0.0229,0.944006 0.27577,1.905735 0.78125,2.781254 1.61755,2.801654 5.19834,3.773791 8.00001,2.156243 1.92615,-1.112048 2.99149,-3.141447 2.93749,-5.218744 -0.0245,-0.94425 -0.27576,-1.90574 -0.78124,-2.781257 -1.61756,-2.801651 -5.19831,-3.773823 -8,-2.156243 -1.92611,1.11204 -2.98784,3.14194 -2.93751,5.218747 z m 6.5625,24.406252 c 1e-5,3.235071 2.63993,5.843748 5.875,5.843751 3.23506,8e-6 5.84377,-2.608682 5.84376,-5.843754 0,-3.235079 -2.60865,-5.843751 -5.84376,-5.843749 -3.23505,-1.2e-5 -5.87499,2.608673 -5.875,5.843752 z" style="fill:#aaaaaa"/>
</svg>