<?xml version="1.0" encoding="UTF-8" standalone="no"?>
<svg xmlns:dc="http://purl.org/dc/elements/1.1/"
     xmlns:cc="http://creativecommons.org/ns#"
     xmlns:rdf="http://www.w3.org/1999/02/22-rdf-syntax-ns#"
     xmlns:svg="http://www.w3.org/2000/svg"
     xmlns="http://www.w3.org/2000/svg"
     xmlns:xlink="http://www.w3.org/1999/xlink"
     width="128" height="128" version="1.1">
    <title>Wireless Connection Stage 3 - 04</title>
    <desc>This is shape (source) for Clarity vector icon theme for gtk</desc>
    <metadata>
        <rdf:RDF>
            <cc:Work rdf:about="">
                <dc:title>Wireless Connection Stage 3 - 04</dc:title>
                <dc:description>This is shape (source) for Clarity vector icon theme for gtk</dc:description>
                <dc:creator>
                    <cc:Agent>
                        <dc:title>Jakub Jankiewicz</dc:title>
                    </cc:Agent>
                </dc:creator>
                <dc:rights>
                    <cc:Agent>
                        <dc:title>Jakub Jankiewicz</dc:title>
                    </cc:Agent>
                </dc:rights>
                <dc:date>2010</dc:date>
                <dc:format>image/svg+xml</dc:format>
                <dc:type rdf:resource="http://purl.org/dc/dcmitype/StillImage" />
                <cc:license rdf:resource="http://www.gnu.org/copyleft/gpl.html" />
             </cc:Work>
        </rdf:RDF>
    </metadata>
    <path d="m 123.84364,63.999994 c -2e-5,-5.950138 -4.79985,-10.781256 -10.75001,-10.781251 -5.95016,3e-6 -10.78125,4.831116 -10.78124,10.781251 -3e-5,5.950132 4.8311,10.78124 10.78124,10.781249 5.95015,-1.5e-5 10.75003,-4.831111 10.75001,-10.781249 z m -10.03125,-24.75 c -0.0297,-1.184203 -0.33691,-2.374359 -0.96875,-3.468749 -2.02193,-3.502084 -6.49794,-4.678209 -10,-2.65625 -2.40768,1.390051 -3.723684,3.93461 -3.656252,6.53125 0.03065,1.180282 0.33691,2.374337 0.968752,3.46875 2.02193,3.50207 6.49789,4.709439 10,2.6875 2.40767,-1.390068 3.7215,-3.957272 3.65625,-6.562501 z m 0,48.781252 c -0.16787,-2.35318 -1.46745,-4.580031 -3.65625,-5.843749 -3.50231,-2.022232 -7.97807,-0.814565 -10.00001,2.687495 -0.63184,1.094404 -0.938063,2.288479 -0.968741,3.468754 -0.06744,2.596616 1.248571,5.141168 3.656241,6.531243 3.50204,2.021898 7.97809,0.845843 10,-2.656249 0.75823,-1.313264 1.06948,-2.775571 0.96876,-4.187494 z M 94.406137,21.062494 c -0.136154,-1.875221 -1.18645,-3.645289 -2.937501,-4.65625 -2.801618,-1.617489 -6.382446,-0.64541 -8,2.15625 -0.505456,0.8755 -0.756717,1.837001 -0.781249,2.78125 -0.05393,2.07729 1.011334,4.106701 2.937496,5.218753 2.801673,1.61758 6.38246,0.645412 8,-2.15625 0.606715,-1.050719 0.862943,-2.218619 0.781249,-3.34375 z m 10e-7,85.312506 c -0.02289,-0.944 -0.275776,-1.90573 -0.781252,-2.78126 -1.617531,-2.80165 -5.19834,-3.773787 -8.000001,-2.15625 -1.750972,1.01099 -2.804922,2.78055 -2.937496,4.65625 -0.07953,1.1254 0.174693,2.29315 0.781252,3.34376 1.617552,2.80165 5.198358,3.77382 8,2.15625 1.926145,-1.11206 2.98782,-3.14196 2.937523,-5.21874 z M 77.437387,63.999995 c 0,-7.413343 -6.024157,-13.437501 -13.4375,-13.4375 -7.413343,-10e-7 -13.4375,6.024157 -13.4375,13.437499 0,7.413343 6.024157,13.437501 13.4375,13.4375 7.413343,10e-7 13.4375,-6.024157 13.4375,-13.437499 z m -7.59375,-49.093751 c -1e-5,-3.235048 -2.608672,-5.8437594 -5.84375,-5.8437501 -3.235082,1.5e-6 -5.84375,2.6086731 -5.84375,5.8437501 -3e-6,3.235069 2.608684,5.875003 5.84375,5.875001 3.235086,0 5.843747,-2.639931 5.84375,-5.875001 z m 0,98.187496 c 1.1e-5,-3.23504 -2.608668,-5.87501 -5.843749,-5.875 -3.23507,0 -5.843751,2.63992 -5.843752,5.875 -7e-6,3.23509 2.608672,5.84376 5.843753,5.84376 3.235078,0 5.843739,-2.60866 5.843748,-5.84376 z M 45.312386,21.343744 c -0.02288,-0.943997 -0.275768,-1.905728 -0.781249,-2.781249 -1.617546,-2.801669 -5.198352,-3.773808 -8,-2.156251 -1.926199,1.112033 -2.99144,3.172706 -2.937501,5.25 0.02454,0.94424 0.275781,1.874479 0.781251,2.750001 1.617547,2.801666 5.198332,3.773781 8,2.156249 1.926145,-1.11206 2.98783,-3.141943 2.937496,-5.218752 z m 4e-6,84.749996 c -0.13616,-1.8752 -1.186477,-3.64527 -2.937502,-4.65625 -2.801635,-1.617477 -6.382472,-0.64538 -8.000002,2.15625 -0.50549,0.87555 -0.75672,1.80576 -0.781252,2.75001 -0.05391,2.07725 1.011397,4.1379 2.93746,5.25002 2.801672,1.61758 6.382466,0.64542 8.000002,-2.15625 0.606694,-1.0507 0.862937,-2.21861 0.781252,-3.34376 z M 27.343636,39.031245 c -0.13613,-1.875222 -1.186449,-3.645291 -2.937499,-4.656251 -2.80193,-1.617901 -6.38249,-0.645421 -8,2.156251 -0.50551,0.875508 -0.75676,1.837021 -0.78125,2.78125 -0.054,2.077291 1.01133,4.106679 2.937496,5.218752 2.80132,1.617099 6.38245,0.645416 8,-2.15625 0.60657,-1.050639 0.86293,-2.218609 0.781249,-3.34375 z m -2e-6,49.375004 c -0.0229,-0.944003 -0.275771,-1.905736 -0.781242,-2.781259 -1.617566,-2.801644 -5.198336,-3.773801 -8.000005,-2.156244 -1.92615,1.11204 -2.991486,3.14144 -2.937504,5.218747 0.0245,0.944247 0.27577,1.905735 0.78125,2.781252 1.617558,2.801649 5.198321,3.773828 8.000004,2.156244 1.92611,-1.11204 2.98784,-3.141952 2.937491,-5.218743 z M 20.781141,63.999992 c -1.4e-5,-3.235069 -2.639935,-5.843741 -5.875005,-5.843747 -3.235061,-9e-6 -5.8437567,2.608677 -5.8437502,5.84375 1.1e-6,3.23508 2.6086402,5.843756 5.8437502,5.84375 3.235051,1.5e-5 5.874994,-2.608672 5.875005,-5.843753 z" style="fill:#aaaaaa"/>
</svg>