<?xml version="1.0" encoding="UTF-8" standalone="no"?>
<svg xmlns:dc="http://purl.org/dc/elements/1.1/"
     xmlns:cc="http://creativecommons.org/ns#"
     xmlns:rdf="http://www.w3.org/1999/02/22-rdf-syntax-ns#"
     xmlns:svg="http://www.w3.org/2000/svg"
     xmlns="http://www.w3.org/2000/svg"
     xmlns:xlink="http://www.w3.org/1999/xlink"
     width="128" height="128" version="1.1">
    <title>Wireless Connection Stage 1 - 06</title>
    <desc>This is shape (source) for Clarity vector icon theme for gtk</desc>
    <metadata>
        <rdf:RDF>
            <cc:Work rdf:about="">
                <dc:title>Wireless Connection Stage 1 - 06</dc:title>
                <dc:description>This is shape (source) for Clarity vector icon theme for gtk</dc:description>
                <dc:creator>
                    <cc:Agent>
                        <dc:title>Jakub Jankiewicz</dc:title>
                    </cc:Agent>
                </dc:creator>
                <dc:rights>
                    <cc:Agent>
                        <dc:title>Jakub Jankiewicz</dc:title>
                    </cc:Agent>
                </dc:rights>
                <dc:date>2010</dc:date>
                <dc:format>image/svg+xml</dc:format>
                <dc:type rdf:resource="http://purl.org/dc/dcmitype/StillImage" />
                <cc:license rdf:resource="http://www.gnu.org/copyleft/gpl.html" />
             </cc:Work>
        </rdf:RDF>
    </metadata>
    <path d="m 36.531201,16.422678 c 2.801651,-1.617542 6.36518,-0.662692 7.982702,2.138956 1.617537,2.801662 0.678327,6.392252 -2.123326,8.009788 -2.801661,1.61754 -6.380813,0.635631 -7.998338,-2.16603 -1.617548,-2.801666 -0.662699,-6.365175 2.138962,-7.982714 z M 61.192448,9.7622321 c 0.829969,-0.4508934 1.788298,-0.7140543 2.799265,-0.7140351 3.235078,-2.31e-5 5.867542,2.614576 5.867358,5.85006 -3e-6,3.23509 -2.614958,5.867397 -5.850073,5.867375 -3.235079,1.1e-5 -5.867143,-2.615509 -5.86736,-5.850072 -4e-6,-2.224124 1.224842,-4.161424 3.050814,-5.1533451 z m -42.76,24.6874859 c 1.77199,-1.085412 4.062171,-1.177481 5.98832,-0.06541 2.801661,1.617539 3.750159,5.20465 2.132631,8.006325 -1.617541,2.801651 -5.20467,3.750163 -8.006301,2.132635 -2.8017,-1.617547 -3.7502,-5.204666 -2.132659,-8.006336 0.50548,-0.875512 1.212529,-1.573859 2.018009,-2.067208 z m 67.03513,-17.954226 c 1.772016,-1.085383 4.089247,-1.193113 6.015392,-0.081 2.80166,1.617535 3.750174,5.204673 2.132631,8.00633 -1.617533,2.80165 -5.204674,3.750179 -8.00633,2.132634 -2.801658,-1.617543 -3.750172,-5.204662 -2.132636,-8.006331 0.505484,-0.875508 1.185487,-1.558238 1.990941,-2.051588 z M 12.126046,58.839249 c 0.829996,-0.450885 1.761231,-0.698418 2.772215,-0.698423 3.235057,4e-6 5.867338,2.615042 5.867375,5.850072 -2.1e-5,3.235084 -2.614605,5.867551 -5.850076,5.86737 -3.235096,1.1e-5 -5.8674036,-2.61496 -5.8673734,-5.850068 -6.3e-6,-2.224131 1.2519134,-4.17704 3.0778374,-5.168971 z M 103.5945,34.39224 c 2.80166,-1.617539 6.36517,-0.662697 7.98272,2.138965 1.61754,2.801652 0.66267,6.365173 -2.13896,7.982705 -2.80165,1.617533 -6.39224,0.67833 -8.00978,-2.123339 -1.617535,-2.80165 -0.63563,-6.38079 2.16602,-7.998331 z M 18.561629,83.485993 c 2.801666,-1.617536 6.392259,-0.678328 8.009777,2.123331 1.617545,2.801664 0.635631,6.380812 -2.166008,7.998328 -2.80167,1.617545 -6.365181,0.662717 -7.982719,-2.138955 -1.61755,-2.801655 -0.662712,-6.365166 2.13895,-7.982704 z M 110.28509,58.855675 c 0.83,-0.450875 1.78831,-0.714038 2.79926,-0.71404 3.23507,2e-6 5.86734,2.615045 5.86736,5.850071 10e-6,3.235085 -2.61458,5.867553 -5.85007,5.867369 -3.23508,0 -5.8674,-2.614957 -5.86737,-5.850078 0,-2.224108 1.22485,-4.161394 3.0508,-5.153336 z M 36.889437,101.23067 c 1.690691,-0.82304 3.750147,-0.79506 5.501189,0.21582 2.801657,1.61755 3.750163,5.20469 2.132628,8.00634 -1.617543,2.80165 -5.204657,3.75016 -8.006313,2.13262 -2.801678,-1.61751 -3.750189,-5.20465 -2.132654,-8.00633 0.606575,-1.0506 1.490753,-1.85463 2.50515,-2.34845 z M 102.676,82.301348 c 2.21503,-1.356725 5.07669,-1.489299 7.48436,-0.09921 3.50209,2.021912 4.72154,6.486296 2.6996,9.988366 -2.02191,3.502067 -6.52898,4.710115 -10.03105,2.688188 -3.502083,-2.021922 -4.694481,-6.501928 -2.67255,-10.004 0.63185,-1.094403 1.51281,-1.956656 2.51965,-2.573333 z M 60.511391,106.64508 c 1.037484,-0.56357 2.224697,-0.8954 3.488404,-0.89541 4.043836,1e-5 7.327596,3.27233 7.327435,7.31652 -3e-6,4.04384 -3.29972,7.34305 -7.343562,7.34306 -4.043851,2e-5 -7.300372,-3.28833 -7.300382,-7.33213 0,-2.78015 1.545644,-5.19212 3.828106,-6.43201 z m 22.644811,-9.465525 c 5.152962,-2.975077 11.752376,-1.206778 14.727459,3.946205 2.975069,5.15298 1.191131,11.72532 -3.961844,14.7004 -5.152958,2.97508 -11.736758,1.23382 -14.711839,-3.91915 -2.975069,-5.15298 -1.206752,-11.7524 3.946224,-14.727455 z" style="fill:#aaaaaa"/>
</svg>