<?xml version="1.0" encoding="UTF-8" standalone="no"?>
<svg xmlns:dc="http://purl.org/dc/elements/1.1/"
     xmlns:cc="http://creativecommons.org/ns#"
     xmlns:rdf="http://www.w3.org/1999/02/22-rdf-syntax-ns#"
     xmlns:svg="http://www.w3.org/2000/svg"
     xmlns="http://www.w3.org/2000/svg"
     xmlns:xlink="http://www.w3.org/1999/xlink"
     width="128" height="128" version="1.1">
    <title>Wireless Connection Stage 3 - 06</title>
    <desc>This is shape (source) for Clarity vector icon theme for gtk</desc>
    <metadata>
        <rdf:RDF>
            <cc:Work rdf:about="">
                <dc:title>Wireless Connection Stage 3 - 06</dc:title>
                <dc:description>This is shape (source) for Clarity vector icon theme for gtk</dc:description>
                <dc:creator>
                    <cc:Agent>
                        <dc:title>Jakub Jankiewicz</dc:title>
                    </cc:Agent>
                </dc:creator>
                <dc:rights>
                    <cc:Agent>
                        <dc:title>Jakub Jankiewicz</dc:title>
                    </cc:Agent>
                </dc:rights>
                <dc:date>2010</dc:date>
                <dc:format>image/svg+xml</dc:format>
                <dc:type rdf:resource="http://purl.org/dc/dcmitype/StillImage" />
                <cc:license rdf:resource="http://www.gnu.org/copyleft/gpl.html" />
             </cc:Work>
        </rdf:RDF>
    </metadata>
    <path d="m 93.921747,115.82613 c 5.152959,-2.97509 6.936913,-9.54743 3.961829,-14.70041 -2.975081,-5.152991 -9.57449,-6.92128 -14.727456,-3.946205 -5.15298,2.975035 -6.921278,9.574475 -3.946217,14.727455 2.975087,5.15297 9.558885,6.89424 14.711844,3.91916 z M 110.34025,94.763807 c 1.0107,-0.617823 1.8878,-1.478951 2.51965,-2.573337 2.02193,-3.502085 0.80248,-7.966483 -2.69962,-9.98838 -2.40766,-1.390083 -5.26932,-1.2575 -7.48436,0.09922 -1.00683,0.616683 -1.88777,1.478944 -2.51965,2.573339 -2.021911,3.502079 -0.829543,7.982058 2.67256,10.004002 2.40767,1.390071 5.28785,1.244278 7.51142,-0.114843 z M 68.094446,119.15443 c 1.953979,-1.32197 3.232699,-3.56087 3.23271,-6.08828 1.48e-4,-4.0442 -3.283602,-7.31649 -7.327447,-7.31651 -1.263701,1e-5 -2.450912,0.33185 -3.4884,0.89542 -2.282452,1.2399 -3.828093,3.65188 -3.828097,6.43202 7e-6,4.0438 3.256527,7.33215 7.300379,7.33213 1.516438,1e-5 2.938458,-0.46159 4.110859,-1.25478 z M 116.38796,68.863748 c 1.55591,-1.055522 2.56369,-2.85014 2.56368,-4.872073 -2e-5,-3.235018 -2.63228,-5.850067 -5.86737,-5.850079 -1.01093,1.1e-5 -1.96925,0.263163 -2.79926,0.714042 -1.82595,0.99194 -3.05084,2.929191 -3.0508,5.153338 -2e-5,3.23511 2.63229,5.85008 5.86737,5.850079 1.21331,7.1e-5 2.35286,-0.361979 3.2864,-0.995292 z M 42.505163,111.52 c 0.806082,-0.49182 1.512518,-1.19169 2.018012,-2.06721 1.617537,-2.80165 0.669028,-6.38879 -2.132632,-8.00633 -1.75103,-1.01089 -3.810484,-1.03886 -5.501177,-0.21582 -1.01439,0.49382 -1.898578,1.29786 -2.505157,2.34846 -1.617521,2.80166 -0.669043,6.38882 2.132631,8.00633 1.926146,1.11206 4.214929,1.01655 5.988324,-0.0654 z M 70.718618,75.637131 C 77.13876,71.930459 79.343756,63.701307 75.637083,57.281164 71.930412,50.861021 63.70126,48.656026 57.281117,52.362698 c -6.420142,3.706671 -8.625138,11.935823 -4.918465,18.355966 3.706671,6.420144 11.935823,8.625138 18.355966,4.918467 z M 109.43818,44.513875 c 2.80163,-1.617533 3.75651,-5.181056 2.13896,-7.982711 -1.61754,-2.801663 -5.18105,-3.7565 -7.98271,-2.138961 -2.80166,1.617532 -3.783562,5.196688 -2.16603,7.998336 1.61755,2.801667 5.20812,3.740868 8.00978,2.123336 z M 24.405313,93.607621 c 2.801632,-1.61751 3.783573,-5.196677 2.166023,-7.998332 -1.617534,-2.801654 -5.208112,-3.740879 -8.009774,-2.123341 -2.801675,1.617542 -3.756508,5.181056 -2.138968,7.982717 1.617539,2.801661 5.181033,3.756503 7.982719,2.138956 z m 67.1922,-67.119683 c 0.806086,-0.491813 1.512525,-1.191686 2.018008,-2.067206 1.617544,-2.80167 0.669038,-6.388809 -2.132632,-8.006329 -1.926148,-1.11212 -4.243364,-1.00431 -6.015383,0.08105 -0.805467,0.493373 -1.485456,1.176073 -1.990945,2.051584 -1.617541,2.801669 -0.669024,6.388778 2.132633,8.006327 1.926145,1.112061 4.214918,1.016566 5.988319,-0.06543 z M 18.201867,68.86294 c 1.55589,-1.055518 2.563657,-2.850155 2.563678,-4.872076 -4e-5,-3.235026 -2.63232,-5.850074 -5.867368,-5.850081 -1.010993,8e-6 -1.942194,0.247541 -2.772204,0.698421 -1.825906,0.991938 -3.0778275,2.944846 -3.0779251,5.168923 -2.93e-5,3.235108 2.6322831,5.850087 5.8673681,5.85008 1.213281,6.2e-5 2.352841,-0.36198 3.286407,-0.995296 z M 67.295314,19.770295 c 1.555925,-1.055503 2.563689,-2.850141 2.563681,-4.872075 1.78e-4,-3.235492 -2.632294,-5.8501086 -5.867367,-5.8500771 -1.010968,-3.09e-5 -1.969287,0.2631372 -2.799259,0.7140422 -1.825987,0.9918799 -3.050824,2.9291779 -3.050824,5.1533219 2.11e-4,3.234564 2.632278,5.850073 5.867368,5.850079 1.213164,-1.4e-5 2.352836,-0.361986 3.286396,-0.995294 z m -42.760009,24.6875 c 0.80608,-0.491834 1.512529,-1.191692 2.01802,-2.067205 1.617512,-2.801675 0.669039,-6.388792 -2.132641,-8.00633 -1.926129,-1.112074 -4.216309,-1.019982 -5.988319,0.06542 -0.805492,0.493341 -1.51253,1.191692 -2.01801,2.067209 -1.61752,2.80167 -0.669071,6.388791 2.13264,8.006328 1.926109,1.11204 4.21493,1.01657 5.988309,-0.06543 z M 42.390497,26.571381 c 2.801644,-1.617547 3.74086,-5.208122 2.123331,-8.009777 -1.617524,-2.801649 -5.18106,-3.756504 -7.982711,-2.138961 -2.801662,1.617541 -3.756522,5.181026 -2.138961,7.982711 1.617513,2.801644 5.196673,3.783558 7.998341,2.166027 z" style="fill:#aaaaaa"/>
</svg>