<?xml version="1.0" encoding="UTF-8" standalone="no"?>
<svg xmlns:dc="http://purl.org/dc/elements/1.1/"
     xmlns:cc="http://creativecommons.org/ns#"
     xmlns:rdf="http://www.w3.org/1999/02/22-rdf-syntax-ns#"
     xmlns:svg="http://www.w3.org/2000/svg"
     xmlns="http://www.w3.org/2000/svg"
     xmlns:xlink="http://www.w3.org/1999/xlink"
     width="128" height="128" version="1.1">
    <title>Wireless Connection Stage 2 - 08</title>
    <desc>This is shape (source) for Clarity vector icon theme for gtk</desc>
    <metadata>
        <rdf:RDF>
            <cc:Work rdf:about="">
                <dc:title>Wireless Connection Stage 2 - 08</dc:title>
                <dc:description>This is shape (source) for Clarity vector icon theme for gtk</dc:description>
                <dc:creator>
                    <cc:Agent>
                        <dc:title>Jakub Jankiewicz</dc:title>
                    </cc:Agent>
                </dc:creator>
                <dc:rights>
                    <cc:Agent>
                        <dc:title>Jakub Jankiewicz</dc:title>
                    </cc:Agent>
                </dc:rights>
                <dc:date>2010</dc:date>
                <dc:format>image/svg+xml</dc:format>
                <dc:type rdf:resource="http://purl.org/dc/dcmitype/StillImage" />
                <cc:license rdf:resource="http://www.gnu.org/copyleft/gpl.html" />
             </cc:Work>
        </rdf:RDF>
    </metadata>
    <path d="m 34.078069,115.82608 c 5.152977,2.97506 11.736758,1.23384 14.711829,-3.91914 2.97508,-5.15299 1.206765,-11.7524 -3.946208,-14.727459 -5.152952,-2.975092 -11.752377,-1.206764 -14.727463,3.946209 -2.975054,5.15298 -1.191135,11.72534 3.961842,14.70039 z m 26.449749,3.68769 c 1.040399,0.56638 2.224706,0.89542 3.488401,0.89543 4.04385,0 7.300407,-3.28829 7.300377,-7.33214 2e-5,-2.78014 -1.545628,-5.19212 -3.828098,-6.43204 -1.037479,-0.5636 -2.22469,-0.8954 -3.488402,-0.89542 -4.043845,1e-5 -7.327438,3.27264 -7.327439,7.31652 -10e-7,2.78014 1.566342,5.20154 3.855162,6.44765 z M 18.282023,95.123152 c 2.121845,1.031208 4.70015,1.019167 6.88896,-0.244531 3.502451,-2.021967 4.694461,-6.501933 2.67255,-10.004008 -0.63186,-1.094396 -1.512838,-1.956635 -2.519647,-2.57334 -2.215018,-1.356715 -5.076672,-1.489288 -7.484355,-0.09922 -3.502024,2.021901 -4.721553,6.486303 -2.699621,9.988378 0.758212,1.313271 1.868991,2.31398 3.14211,2.932714 z m 67.69976,16.678058 c 1.692064,0.8197 3.750139,0.79515 5.501181,-0.21582 2.801598,-1.61753 3.750166,-5.20466 2.132633,-8.00633 -0.505476,-0.87549 -1.212535,-1.57383 -2.018012,-2.0672 -1.772021,-1.08535 -4.062178,-1.17748 -5.988322,-0.0654 -2.801704,1.61753 -3.75017,5.20466 -2.132629,8.00632 0.606594,1.05079 1.489908,1.85664 2.505147,2.34846 z M 12.098993,69.144967 c 0.828971,0.452175 1.788292,0.714032 2.799261,0.714041 3.23507,7e-6 5.867348,-2.614995 5.867346,-5.850077 -5.9e-5,-2.021883 -1.005543,-3.819412 -2.563663,-4.872076 -0.934863,-0.631576 -2.073265,-0.995279 -3.286403,-0.995295 -3.235091,1.7e-5 -5.8674022,2.615 -5.8673583,5.850076 -7e-7,2.224119 1.2270793,4.158524 3.0507993,5.153341 z m 48.963448,-0.05719 c 2.801652,1.617536 6.380802,0.635631 7.998336,-2.166024 1.617539,-2.801638 0.678322,-6.392248 -2.123336,-8.009772 -2.801662,-1.61754 -6.380786,-0.635657 -7.998335,2.166024 -1.61754,2.801639 -0.678327,6.392232 2.123335,8.009772 z M 103.5945,93.607589 c 2.80164,1.617517 6.36518,0.662703 7.98271,-2.138961 1.61754,-2.801663 0.6627,-6.365172 -2.13896,-7.982711 -2.80165,-1.617536 -6.39224,-0.678315 -8.00977,2.123337 -1.617545,2.801665 -0.63563,6.380799 2.16602,7.998335 z M 18.561634,44.513841 c 2.801619,1.617528 6.39224,0.678334 8.00977,-2.123339 1.617549,-2.801641 0.635641,-6.380792 -2.16602,-7.998333 -2.801671,-1.617555 -6.36518,-0.662705 -7.98271,2.138961 -1.61755,2.801658 -0.66272,6.365151 2.13896,7.982711 z m 91.723456,24.630315 c 0.82896,0.452186 1.78829,0.714041 2.79925,0.714043 3.23508,-2e-6 5.86738,-2.615 5.86737,-5.85008 3e-5,-2.22415 -1.25189,-4.177032 -3.07788,-5.168949 -0.82999,-0.450872 -1.76124,-0.69841 -2.7722,-0.698418 -3.23509,9e-6 -5.86735,2.614997 -5.86736,5.850076 0,2.224119 1.22708,4.158522 3.05082,5.153322 z M 36.889438,26.769159 c 1.692049,0.819683 3.750127,0.795128 5.501171,-0.215829 2.801603,-1.617538 3.750169,-5.204683 2.13264,-8.006321 -0.505493,-0.875541 -1.185472,-1.558222 -1.990948,-2.051597 -1.772,-1.085326 -4.089235,-1.193117 -6.015381,-0.0811 -2.801701,1.617529 -3.750182,5.204667 -2.132634,8.006331 0.606596,1.050785 1.489911,1.856638 2.505147,2.348459 z m 67.062202,17.969852 c 1.69206,0.819711 3.75014,0.795139 5.50118,-0.215823 2.80211,-1.617594 3.7502,-5.204687 2.13263,-8.006328 -0.50545,-0.875537 -1.21254,-1.573879 -2.01801,-2.067209 -1.772,-1.085386 -4.06216,-1.177494 -5.98832,-0.06542 -2.8011,1.617464 -3.750182,5.20467 -2.13263,8.006328 0.60658,1.050636 1.48991,1.856624 2.50515,2.348456 z M 61.191632,20.051513 c 0.828973,0.452188 1.788298,0.714046 2.79926,0.714045 3.23508,-1.3e-5 5.867368,-2.614997 5.867365,-5.850087 1.4e-5,-2.224121 -1.224826,-4.161433 -3.050819,-5.1533134 -0.829991,-0.4509165 -1.7883,-0.7140539 -2.799259,-0.7140556 -3.235085,2.72e-5 -5.867385,2.614961 -5.867365,5.850086 0,2.22408 1.22708,4.158515 3.050815,5.153327 z m 24.417685,6.519833 c 2.801654,1.617534 6.380799,0.635629 7.998336,-2.166019 1.617538,-2.801642 0.662695,-6.365191 -2.138963,-7.982722 -2.80166,-1.617539 -6.365163,-0.662719 -7.98271,2.138969 -1.617542,2.801632 -0.678324,6.392232 2.123337,8.009772 z" style="fill:#aaaaaa"/>
</svg>