<?xml version="1.0" encoding="UTF-8" standalone="no"?>
<svg xmlns:dc="http://purl.org/dc/elements/1.1/"
     xmlns:cc="http://creativecommons.org/ns#"
     xmlns:rdf="http://www.w3.org/1999/02/22-rdf-syntax-ns#"
     xmlns:svg="http://www.w3.org/2000/svg"
     xmlns="http://www.w3.org/2000/svg"
     xmlns:xlink="http://www.w3.org/1999/xlink"
     width="128" height="128" version="1.1">
    <title>Wireless Connection Stage 2 - 05</title>
    <desc>This is shape (source) for Clarity vector icon theme for gtk</desc>
    <metadata>
        <rdf:RDF>
            <cc:Work rdf:about="">
                <dc:title>Wireless Connection Stage 2 - 05</dc:title>
                <dc:description>This is shape (source) for Clarity vector icon theme for gtk</dc:description>
                <dc:creator>
                    <cc:Agent>
                        <dc:title>Jakub Jankiewicz</dc:title>
                    </cc:Agent>
                </dc:creator>
                <dc:rights>
                    <cc:Agent>
                        <dc:title>Jakub Jankiewicz</dc:title>
                    </cc:Agent>
                </dc:rights>
                <dc:date>2010</dc:date>
                <dc:format>image/svg+xml</dc:format>
                <dc:type rdf:resource="http://purl.org/dc/dcmitype/StillImage" />
                <cc:license rdf:resource="http://www.gnu.org/copyleft/gpl.html" />
             </cc:Work>
        </rdf:RDF>
    </metadata>
    <path d="m 115.82609,93.921833 c 2.97506,-5.152979 1.23384,-11.736753 -3.91914,-14.711828 -5.15299,-2.975079 -11.7524,-1.206763 -14.727459,3.946209 -2.975092,5.152951 -1.206765,11.752379 3.946209,14.727463 5.15298,2.975053 11.72534,1.191135 14.70039,-3.961844 z m 3.68769,-26.449747 c 0.56638,-1.040397 0.89542,-2.224703 0.89542,-3.488401 1e-5,-4.04385 -3.28827,-7.300408 -7.33213,-7.30038 -2.78014,-1.7e-5 -5.19212,1.545631 -6.43204,3.828102 -0.5636,1.037478 -0.8954,2.224692 -0.89541,3.488402 0,4.043846 3.27264,7.327442 7.31651,7.327443 2.78014,-10e-7 5.20153,-1.566344 6.44765,-3.855166 z M 95.12316,109.71788 c 1.031204,-2.12185 1.019171,-4.70015 -0.244531,-6.88896 -2.021964,-3.502451 -6.501932,-4.694459 -10.004007,-2.67255 -1.094395,0.63186 -1.956634,1.51284 -2.573339,2.51965 -1.356721,2.21501 -1.48929,5.07667 -0.09922,7.48435 2.02191,3.50203 6.48631,4.72156 9.988378,2.69962 1.313275,-0.75821 2.313983,-1.86899 2.932714,-3.14211 z m 16.67806,-67.699757 c 0.8197,-1.692062 0.79515,-3.75014 -0.21582,-5.501182 -1.61753,-2.8016 -5.20466,-3.750169 -8.00633,-2.132632 -0.87549,0.505474 -1.57383,1.212534 -2.0672,2.018008 -1.08535,1.77202 -1.17748,4.062179 -0.0654,5.98832 1.61753,2.801706 5.20466,3.750173 8.00632,2.132633 1.05079,-0.606597 1.85664,-1.489911 2.34846,-2.505148 z M 69.144976,115.90091 c 0.452177,-0.82897 0.714034,-1.78829 0.714041,-2.79926 8e-6,-3.23507 -2.614996,-5.86735 -5.850079,-5.86735 -2.021882,6e-5 -3.819408,1.00555 -4.872073,2.56367 -0.631575,0.93486 -0.99528,2.07326 -0.995296,3.2864 1.8e-5,3.23509 2.615,5.8674 5.850078,5.86736 2.224118,0 4.158523,-1.22708 5.153339,-3.0508 z m -0.05719,-48.963447 c 1.617535,-2.801652 0.63563,-6.380801 -2.166025,-7.998336 -2.801637,-1.617539 -6.392247,-0.678322 -8.009772,2.123336 -1.61754,2.801662 -0.635656,6.380786 2.166024,7.998336 2.801639,1.617539 6.392233,0.678325 8.009773,-2.123336 z M 93.607597,24.405402 c 1.617518,-2.80164 0.662703,-6.365181 -2.13896,-7.982711 -2.801664,-1.617541 -6.365172,-0.662701 -7.982712,2.138961 -1.617534,2.80165 -0.678316,6.392244 2.123337,8.009773 2.801666,1.617543 6.3808,0.635627 7.998335,-2.166023 z M 44.513851,109.43827 c 1.617527,-2.80162 0.678334,-6.39224 -2.12334,-8.00977 -2.801641,-1.617549 -6.380792,-0.63564 -7.998333,2.16602 -1.617555,2.80167 -0.662705,6.36518 2.138961,7.98271 2.801659,1.61755 6.365151,0.66272 7.982712,-2.13896 z M 69.144166,17.714817 c 0.452186,-0.828971 0.714041,-1.788298 0.714042,-2.799258 -3e-6,-3.235077 -2.615001,-5.8673766 -5.850079,-5.8673682 -2.224152,-2.69e-5 -4.177034,1.2518982 -5.168949,3.0778832 -0.450871,0.829991 -0.698409,1.761237 -0.698418,2.772195 7e-6,3.235098 2.614998,5.867356 5.850077,5.867367 2.224119,-2e-6 4.158521,-1.227077 5.153324,-3.050824 z M 26.769168,91.110466 c 0.819684,-1.692049 0.795129,-3.750127 -0.215829,-5.501171 -1.617537,-2.801603 -5.204682,-3.750169 -8.00632,-2.13264 -0.875541,0.505493 -1.558222,1.185472 -2.051597,1.990948 -1.085326,1.772 -1.193117,4.089235 -0.0811,6.01538 1.61753,2.801702 5.204667,3.750183 8.006331,2.132635 1.050786,-0.606596 1.856639,-1.489911 2.348459,-2.505147 z M 44.739021,24.048267 c 0.819711,-1.692063 0.795138,-3.750139 -0.215824,-5.501181 -1.617593,-2.802108 -5.204687,-3.7502 -8.006328,-2.132633 -0.875537,0.505454 -1.573879,1.21254 -2.067208,2.018008 -1.085386,1.772004 -1.177495,4.062162 -0.06542,5.98832 1.617464,2.801108 5.20467,3.750185 8.006328,2.132633 1.050636,-0.606577 1.856625,-1.489914 2.348456,-2.505147 z M 20.051523,66.808272 c 0.452188,-0.828972 0.714045,-1.788298 0.714044,-2.79926 -1.2e-5,-3.23508 -2.614997,-5.867368 -5.850086,-5.867365 -2.224122,-1.4e-5 -4.161433,1.224826 -5.1533134,3.050819 -0.450917,0.829991 -0.7140544,1.788301 -0.7140553,2.79926 2.64e-5,3.235085 2.6149607,5.867385 5.8500857,5.867365 2.22408,0 4.158515,-1.22708 5.153326,-3.050816 z m 6.519832,-24.417684 c 1.617535,-2.801655 0.63563,-6.3808 -2.166019,-7.998337 -2.801641,-1.617538 -6.365191,-0.662695 -7.982721,2.138962 -1.61754,2.801662 -0.66272,6.365165 2.138969,7.982711 2.801632,1.617542 6.392231,0.678324 8.009771,-2.123336 z" style="fill:#aaaaaa"/>
</svg>