<?xml version="1.0" encoding="UTF-8" standalone="no"?>
<svg xmlns:dc="http://purl.org/dc/elements/1.1/"
     xmlns:cc="http://creativecommons.org/ns#"
     xmlns:rdf="http://www.w3.org/1999/02/22-rdf-syntax-ns#"
     xmlns:svg="http://www.w3.org/2000/svg"
     xmlns="http://www.w3.org/2000/svg"
     xmlns:xlink="http://www.w3.org/1999/xlink"
     width="128" height="128" version="1.1">
    <title>Wireless Connection Stage 2 - 06</title>
    <desc>This is shape (source) for Clarity vector icon theme for gtk</desc>
    <metadata>
        <rdf:RDF>
            <cc:Work rdf:about="">
                <dc:title>Wireless Connection Stage 2 - 06</dc:title>
                <dc:description>This is shape (source) for Clarity vector icon theme for gtk</dc:description>
                <dc:creator>
                    <cc:Agent>
                        <dc:title>Jakub Jankiewicz</dc:title>
                    </cc:Agent>
                </dc:creator>
                <dc:rights>
                    <cc:Agent>
                        <dc:title>Jakub Jankiewicz</dc:title>
                    </cc:Agent>
                </dc:rights>
                <dc:date>2010</dc:date>
                <dc:format>image/svg+xml</dc:format>
                <dc:type rdf:resource="http://purl.org/dc/dcmitype/StillImage" />
                <cc:license rdf:resource="http://www.gnu.org/copyleft/gpl.html" />
             </cc:Work>
        </rdf:RDF>
    </metadata>
    <path d="m 93.921762,115.82613 c 5.152967,-2.97508 6.936918,-9.54741 3.961839,-14.70039 -2.975081,-5.152989 -9.574495,-6.921287 -14.727458,-3.946212 -5.152981,2.975042 -6.921279,9.574472 -3.946214,14.727462 2.975085,5.15296 9.558875,6.89422 14.711833,3.91914 z M 110.34027,94.763819 c 1.0107,-0.61782 1.88781,-1.478939 2.51966,-2.573334 2.02193,-3.502072 0.80247,-7.966473 -2.69963,-9.988379 -2.40766,-1.390085 -5.26932,-1.257505 -7.48436,0.09921 -1.00683,0.616683 -1.88778,1.47894 -2.51965,2.57334 -2.021918,3.502073 -0.829527,7.982071 2.67257,10.004007 2.40767,1.390069 5.28783,1.244271 7.51141,-0.114847 z M 68.094475,119.15444 c 1.953974,-1.32197 3.232703,-3.56086 3.23271,-6.08828 1.53e-4,-4.04419 -3.283609,-7.31649 -7.327449,-7.3165 -1.263704,10e-6 -2.450915,0.33184 -3.488402,0.89541 -2.28246,1.2399 -3.828098,3.65188 -3.828102,6.43203 1e-5,4.0438 3.256529,7.33214 7.300379,7.33213 1.516435,1e-5 2.938463,-0.4616 4.11086,-1.25479 z M 116.38798,68.863761 c 1.55591,-1.055519 2.56369,-2.850142 2.56368,-4.872074 -2e-5,-3.235022 -2.63228,-5.850071 -5.86737,-5.850078 -1.01093,8e-6 -1.96924,0.26317 -2.79925,0.714046 -1.82595,0.991939 -3.05082,2.92921 -3.0508,5.153337 -3e-5,3.235114 2.63229,5.850075 5.86736,5.850075 1.21331,6.6e-5 2.35286,-0.361981 3.2864,-0.995292 z M 42.505193,111.52001 c 0.806082,-0.49182 1.512516,-1.19169 2.018008,-2.06721 1.617541,-2.80165 0.669022,-6.38877 -2.132642,-8.00631 -1.751032,-1.01089 -3.81048,-1.03888 -5.501174,-0.21584 -1.01439,0.49383 -1.898568,1.29786 -2.505152,2.34846 -1.61753,2.80168 -0.669044,6.38882 2.132636,8.00632 1.926143,1.11206 4.214927,1.01658 5.988323,-0.0654 z M 66.937388,69.087825 c 2.801653,-1.617534 3.740873,-5.208121 2.123336,-8.009775 -1.61752,-2.801648 -5.196688,-3.783567 -7.998334,-2.166023 -2.801662,1.617541 -3.740888,5.208095 -2.123336,8.009774 1.617521,2.80165 5.196673,3.783564 7.998334,2.166024 z M 109.4382,44.513885 c 2.80163,-1.617532 3.75651,-5.181057 2.13896,-7.98271 -1.61754,-2.801664 -5.18105,-3.756502 -7.98271,-2.138962 -2.80165,1.617533 -3.783563,5.196688 -2.16602,7.998336 1.61754,2.801666 5.20812,3.740869 8.00977,2.123336 z M 24.405333,93.607636 c 2.801629,-1.61751 3.783574,-5.196675 2.166019,-7.998334 -1.617518,-2.801659 -5.208108,-3.740877 -8.00977,-2.123338 -2.801679,1.61754 -3.756509,5.181055 -2.13896,7.98271 1.617532,2.801669 5.181022,3.756508 7.982711,2.138962 z M 91.597538,26.487953 c 0.80609,-0.491817 1.512527,-1.191691 2.018007,-2.067207 1.617536,-2.801661 0.669031,-6.388798 -2.132633,-8.00633 -1.926158,-1.112099 -4.243366,-1.004341 -6.015382,0.08105 -0.805461,0.493358 -1.485459,1.176071 -1.990945,2.051582 -1.617543,2.801681 -0.669024,6.388778 2.132631,8.006327 1.926145,1.112058 4.214924,1.016581 5.988322,-0.06543 z M 18.201889,68.862951 c 1.555891,-1.055516 2.563665,-2.850141 2.563672,-4.872069 -2.7e-5,-3.235027 -2.632303,-5.850082 -5.867357,-5.85008 -1.010987,-10e-7 -1.942196,0.247538 -2.772209,0.698413 -1.82592,0.991934 -3.077887,2.944823 -3.0779245,5.168922 -2.9e-5,3.23511 2.6322825,5.850087 5.8673685,5.850082 1.213305,6.5e-5 2.352852,-0.361982 3.286399,-0.995292 z M 67.295337,19.770309 c 1.555922,-1.055514 2.56368,-2.850146 2.563682,-4.872074 1.77e-4,-3.235493 -2.632291,-5.8501122 -5.867367,-5.8500786 -1.010964,-3.25e-5 -1.969289,0.263151 -2.799259,0.7140422 -1.825974,0.9919074 -3.050821,2.9291884 -3.050815,5.1533274 2.11e-4,3.234563 2.632284,5.85009 5.867367,5.850078 1.213166,7e-6 2.352841,-0.361991 3.286396,-0.995293 z M 24.535334,44.457811 c 0.806093,-0.491817 1.512531,-1.191689 2.018011,-2.067208 1.617529,-2.801668 0.66903,-6.388789 -2.132641,-8.006331 -1.926139,-1.112073 -4.21632,-1.019986 -5.98831,0.06543 -0.805501,0.493334 -1.512539,1.191686 -2.01802,2.067202 -1.617519,2.801679 -0.66907,6.388785 2.132641,8.00633 1.926109,1.11204 4.214919,1.016575 5.988319,-0.06542 z M 42.390517,26.571392 c 2.801653,-1.617537 3.740871,-5.20812 2.123341,-8.009772 -1.617524,-2.80165 -5.18107,-3.756506 -7.982721,-2.138965 -2.801661,1.61754 -3.756514,5.181034 -2.138954,7.982715 1.617514,2.801648 5.196673,3.783561 7.998334,2.166022 z" style="fill:#aaaaaa"/>
</svg>