<?xml version="1.0" encoding="UTF-8" standalone="no"?>
<svg xmlns:dc="http://purl.org/dc/elements/1.1/"
     xmlns:cc="http://creativecommons.org/ns#"
     xmlns:rdf="http://www.w3.org/1999/02/22-rdf-syntax-ns#"
     xmlns:svg="http://www.w3.org/2000/svg"
     xmlns="http://www.w3.org/2000/svg"
     xmlns:xlink="http://www.w3.org/1999/xlink"
     width="128" height="128" version="1.1">
    <title>Wireless Connection Stage 3 - 01</title>
    <desc>This is shape (source) for Clarity vector icon theme for gtk</desc>
    <metadata>
        <rdf:RDF>
            <cc:Work rdf:about="">
                <dc:title>Wireless Connection Stage 3 - 01</dc:title>
                <dc:description>This is shape (source) for Clarity vector icon theme for gtk</dc:description>
                <dc:creator>
                    <cc:Agent>
                        <dc:title>Jakub Jankiewicz</dc:title>
                    </cc:Agent>
                </dc:creator>
                <dc:rights>
                    <cc:Agent>
                        <dc:title>Jakub Jankiewicz</dc:title>
                    </cc:Agent>
                </dc:rights>
                <dc:date>2010</dc:date>
                <dc:format>image/svg+xml</dc:format>
                <dc:type rdf:resource="http://purl.org/dc/dcmitype/StillImage" />
                <cc:license rdf:resource="http://creativecommons.org/licenses/by-sa/3.0/" />
             </cc:Work>
        </rdf:RDF>
    </metadata>
    <path d="M 64 4.15625 C 58.049863 4.1562606 53.218744 8.9561014 53.21875 14.90625 C 53.218751 20.856412 58.049865 25.68751 64 25.6875 C 69.950133 25.687529 74.781238 20.856399 74.78125 14.90625 C 74.781233 8.9561113 69.950135 4.1562306 64 4.15625 z M 39.25 14.1875 C 38.065796 14.2172 36.87564 14.524409 35.78125 15.15625 C 32.279167 17.178173 31.103042 21.654184 33.125 25.15625 C 34.515051 27.563929 37.059611 28.879931 39.65625 28.8125 C 40.836532 28.78185 42.030587 28.47559 43.125 27.84375 C 46.62707 25.82182 47.83444 21.345854 45.8125 17.84375 C 44.422432 15.436079 41.855228 14.12225 39.25 14.1875 z M 88.03125 14.1875 C 85.678073 14.35537 83.451216 15.65495 82.1875 17.84375 C 80.165272 21.34605 81.372935 25.821819 84.875 27.84375 C 85.969405 28.475593 87.163474 28.781824 88.34375 28.8125 C 90.940369 28.87994 93.484918 27.563927 94.875 25.15625 C 96.896892 21.654221 95.720832 17.17817 92.21875 15.15625 C 90.905482 14.39803 89.443172 14.08678 88.03125 14.1875 z M 21.0625 33.59375 C 19.187279 33.729904 17.41721 34.7802 16.40625 36.53125 C 14.78876 39.332869 15.760839 42.913697 18.5625 44.53125 C 19.438 45.036706 20.399501 45.287968 21.34375 45.3125 C 23.42104 45.36643 25.450451 44.301165 26.5625 42.375 C 28.18008 39.573326 27.207911 35.992539 24.40625 34.375 C 23.355531 33.768285 22.187631 33.512057 21.0625 33.59375 z M 106.375 33.59375 C 105.43101 33.61664 104.46928 33.869522 103.59375 34.375 C 100.7921 35.992528 99.819958 39.573339 101.4375 42.375 C 102.44849 44.125972 104.21804 45.179927 106.09375 45.3125 C 107.21915 45.39203 108.38689 45.137805 109.4375 44.53125 C 112.23916 42.91369 113.21132 39.332885 111.59375 36.53125 C 110.48169 34.605105 108.4518 33.543425 106.375 33.59375 z M 64 50.5625 C 56.586657 50.5625 50.5625 56.586657 50.5625 64 C 50.5625 71.413343 56.586657 77.4375 64 77.4375 C 71.413343 77.4375 77.4375 71.413343 77.4375 64 C 77.4375 56.586657 71.413343 50.5625 64 50.5625 z M 14.90625 58.15625 C 11.671201 58.15626 9.0624899 60.764922 9.0625 64 C 9.0625011 67.235081 11.671172 69.84375 14.90625 69.84375 C 18.141319 69.843753 20.781253 67.235065 20.78125 64 C 20.78125 60.764914 18.141319 58.156253 14.90625 58.15625 z M 113.09375 58.15625 C 109.85871 58.156239 107.21874 60.764916 107.21875 64 C 107.21874 67.235068 109.85867 69.84375 113.09375 69.84375 C 116.32884 69.843758 118.93751 67.235079 118.9375 64 C 118.93751 60.764919 116.32885 58.156259 113.09375 58.15625 z M 21.34375 82.6875 C 20.399752 82.71038 19.438021 82.963269 18.5625 83.46875 C 15.760832 85.086296 14.788693 88.667102 16.40625 91.46875 C 17.518282 93.394948 19.578956 94.46019 21.65625 94.40625 C 22.600489 94.38171 23.530729 94.13047 24.40625 93.625 C 27.207917 92.007453 28.180031 88.426667 26.5625 85.625 C 25.45044 83.698855 23.420556 82.63717 21.34375 82.6875 z M 106.09375 82.6875 C 104.21855 82.823659 102.44847 83.873969 101.4375 85.625 C 99.820016 88.426634 100.79212 92.007476 103.59375 93.625 C 104.4693 94.130495 105.3995 94.381716 106.34375 94.40625 C 108.42101 94.46017 110.48166 93.394859 111.59375 91.46875 C 113.21133 88.667078 112.23917 85.086284 109.4375 83.46875 C 108.38679 82.862047 107.21889 82.605813 106.09375 82.6875 z M 39.03125 100.65625 C 37.156028 100.79238 35.385959 101.8427 34.375 103.59375 C 32.757099 106.39568 33.729579 109.97624 36.53125 111.59375 C 37.406758 112.09926 38.368271 112.35051 39.3125 112.375 C 41.389791 112.429 43.41918 111.36367 44.53125 109.4375 C 46.148349 106.63618 45.176666 103.05505 42.375 101.4375 C 41.324361 100.83093 40.156391 100.57457 39.03125 100.65625 z M 88.40625 100.65625 C 87.462246 100.67915 86.500518 100.93202 85.625 101.4375 C 82.823351 103.05506 81.851195 106.63583 83.46875 109.4375 C 84.580792 111.36365 86.610196 112.42899 88.6875 112.375 C 89.631748 112.3505 90.593233 112.09923 91.46875 111.59375 C 94.270399 109.97619 95.242581 106.39543 93.625 103.59375 C 92.51296 101.66764 90.483049 100.60591 88.40625 100.65625 z M 64 107.21875 C 60.764929 107.21876 58.156256 109.85868 58.15625 113.09375 C 58.156241 116.32881 60.764928 118.93751 64 118.9375 C 67.23508 118.9375 69.843756 116.32886 69.84375 113.09375 C 69.843765 109.8587 67.23508 107.21876 64 107.21875 z " style="fill:#aaaaaa"/>
</svg>