<?xml version="1.0" encoding="UTF-8" standalone="no"?>
<svg xmlns:dc="http://purl.org/dc/elements/1.1/"
     xmlns:cc="http://creativecommons.org/ns#"
     xmlns:rdf="http://www.w3.org/1999/02/22-rdf-syntax-ns#"
     xmlns:svg="http://www.w3.org/2000/svg"
     xmlns="http://www.w3.org/2000/svg"
     xmlns:xlink="http://www.w3.org/1999/xlink"
     width="128" height="128" version="1.1">
    <title>Wireless Connection Stage 1 - 02</title>
    <desc>This is shape (source) for Clarity vector icon theme for gtk</desc>
    <metadata>
        <rdf:RDF>
            <cc:Work rdf:about="">
                <dc:title>Wireless Connection Stage 1 - 02</dc:title>
                <dc:description>This is shape (source) for Clarity vector icon theme for gtk</dc:description>
                <dc:creator>
                    <cc:Agent>
                        <dc:title>Jakub Jankiewicz</dc:title>
                    </cc:Agent>
                </dc:creator>
                <dc:rights>
                    <cc:Agent>
                        <dc:title>Jakub Jankiewicz</dc:title>
                    </cc:Agent>
                </dc:rights>
                <dc:date>2010</dc:date>
                <dc:format>image/svg+xml</dc:format>
                <dc:type rdf:resource="http://purl.org/dc/dcmitype/StillImage" />
                <cc:license rdf:resource="http://www.gnu.org/copyleft/gpl.html" />
             </cc:Work>
        </rdf:RDF>
    </metadata>
    <path d="m 36.531222,111.57725 c -2.801658,-1.61753 -3.756498,-5.18106 -2.138961,-7.9827 1.617542,-2.80166 5.19669,-3.783575 7.998344,-2.16604 2.80166,1.61754 3.740878,5.20813 2.123331,8.00978 -1.61754,2.80167 -5.181053,3.7565 -7.982714,2.13896 z M 18.432483,93.550208 c -0.80547,-0.493329 -1.512538,-1.191685 -2.018005,-2.067217 -1.617559,-2.801649 -0.669482,-6.388729 2.132621,-8.006312 2.801673,-1.617543 6.388794,-0.669079 8.006333,2.132624 1.617549,2.801655 0.668474,6.38885 -2.132631,8.006318 -1.926145,1.112066 -4.21632,1.019969 -5.988335,-0.06541 z m 42.759991,24.687502 c -1.825989,-0.99188 -3.050814,-2.9292 -3.050807,-5.15333 -10e-7,-3.23508 2.632279,-5.85006 5.867362,-5.85008 3.235074,10e-6 5.850074,2.6323 5.85007,5.86735 1e-5,3.23511 -2.632273,5.8501 -5.867363,5.8501 -1.010955,0 -1.969265,-0.26315 -2.799257,-0.71404 z M 12.126092,69.160699 c -1.825977,-0.991921 -3.0778902,-2.944837 -3.0778481,-5.168982 -3.6e-6,-3.235075 2.6322921,-5.85008 5.8673701,-5.850077 3.235066,0 5.850087,2.632291 5.850079,5.867368 -4e-6,3.23508 -2.632282,5.850076 -5.867367,5.850082 -1.010954,-6e-6 -1.942218,-0.247541 -2.772199,-0.698411 z m 73.341534,42.343751 c -0.805475,-0.49335 -1.485461,-1.17606 -1.990958,-2.0516 -1.617524,-2.80164 -0.668975,-6.38878 2.132622,-8.00633 2.801676,-1.617522 6.388755,-0.66946 8.006332,2.13263 1.617554,2.80167 0.669078,6.3888 -2.132623,8.00633 -1.926148,1.11207 -4.243377,1.00433 -6.015375,-0.081 z M 18.56167,44.513948 c -2.801659,-1.617536 -3.756498,-5.181052 -2.138962,-7.982718 1.617534,-2.801655 5.181066,-3.75648 7.982706,-2.138958 2.801649,1.617532 3.78357,5.196674 2.166025,7.998342 -1.617534,2.80165 -5.208111,3.740868 -8.009769,2.123334 z m 85.03287,49.093754 c -2.80166,-1.617547 -3.783577,-5.196698 -2.16603,-7.998343 1.61755,-2.801661 5.20813,-3.740875 8.00976,-2.123343 2.80167,1.617544 3.75652,5.181049 2.13897,7.982713 -1.61753,2.801669 -5.18104,3.756513 -7.9827,2.138973 z M 36.40233,26.488009 c -0.805467,-0.493361 -1.512529,-1.191704 -2.018006,-2.067215 -1.617532,-2.801647 -0.668977,-6.388781 2.132629,-8.006314 2.801661,-1.61755 6.388742,-0.669478 8.006328,2.132632 1.617539,2.801654 0.669077,6.388782 -2.132631,8.006325 -1.926136,1.112053 -4.216302,1.019944 -5.988319,-0.0654 z m 73.39566,42.375 c -1.55814,-1.052659 -2.56363,-2.850188 -2.56369,-4.872076 0,-3.235081 2.6323,-5.850078 5.86738,-5.850078 3.23506,7e-6 5.85005,2.632281 5.85006,5.867357 2e-5,3.235084 -2.63228,5.850089 -5.86737,5.850097 -1.21313,-9e-6 -2.35152,-0.363715 -3.28638,-0.9953 z M 60.511424,21.354835 c -2.282473,-1.239901 -3.828114,-3.651889 -3.828107,-6.432026 -1.3e-5,-4.043857 3.256529,-7.3321286 7.300385,-7.3321124 4.043829,1.4e-6 7.343561,3.2992094 7.343558,7.3430614 5e-6,4.043844 -3.283591,7.31649 -7.327444,7.316488 -1.263702,3e-6 -2.450916,-0.331807 -3.488395,-0.895409 z m 42.164606,24.343757 c -1.00682,-0.6167 -1.8878,-1.478941 -2.51965,-2.573342 -2.021924,-3.502061 -0.829892,-7.982042 2.67256,-10.004004 3.50207,-2.021908 8.00913,-0.81388 10.03106,2.688187 2.02194,3.502067 0.80242,7.966465 -2.69961,9.988373 -2.40768,1.390077 -5.26934,1.257498 -7.48435,-0.09922 z M 83.156226,30.820381 c -5.152968,-2.975066 -6.921284,-9.574476 -3.94621,-14.727465 2.975075,-5.152969 9.558857,-6.8942098 14.711832,-3.919134 5.152983,2.975044 6.936902,9.547428 3.961841,14.7004 -2.975074,5.152972 -9.574491,6.92127 -14.727463,3.946199 z" style="fill:#aaaaaa"/>
</svg>