<?xml version="1.0" encoding="UTF-8" standalone="no"?>
<svg xmlns:dc="http://purl.org/dc/elements/1.1/"
     xmlns:cc="http://creativecommons.org/ns#"
     xmlns:rdf="http://www.w3.org/1999/02/22-rdf-syntax-ns#"
     xmlns:svg="http://www.w3.org/2000/svg"
     xmlns="http://www.w3.org/2000/svg"
     xmlns:xlink="http://www.w3.org/1999/xlink"
     width="128" height="128" version="1.1">
    <title>Wireless Connection Stage 2 - 02</title>
    <desc>This is shape (source) for Clarity vector icon theme for gtk</desc>
    <metadata>
        <rdf:RDF>
            <cc:Work rdf:about="">
                <dc:title>Wireless Connection Stage 2 - 02</dc:title>
                <dc:description>This is shape (source) for Clarity vector icon theme for gtk</dc:description>
                <dc:creator>
                    <cc:Agent>
                        <dc:title>Jakub Jankiewicz</dc:title>
                    </cc:Agent>
                </dc:creator>
                <dc:rights>
                    <cc:Agent>
                        <dc:title>Jakub Jankiewicz</dc:title>
                    </cc:Agent>
                </dc:rights>
                <dc:date>2010</dc:date>
                <dc:format>image/svg+xml</dc:format>
                <dc:type rdf:resource="http://purl.org/dc/dcmitype/StillImage" />
                <cc:license rdf:resource="http://www.gnu.org/copyleft/gpl.html" />
             </cc:Work>
        </rdf:RDF>
    </metadata>
    <path d="M 93.921846,12.173807 C 88.768862,9.1987484 82.18509,10.939972 79.21001,16.092956 c -2.975075,5.152988 -1.206761,11.752401 3.946211,14.727461 5.152958,2.975085 11.75238,1.206765 14.727462,-3.946211 2.975057,-5.152982 1.191133,-11.725338 -3.961837,-14.700399 z M 67.472093,8.4861248 C 66.431718,7.9197081 65.247391,7.590709 63.983692,7.5907119 c -4.04385,-1.85e-5 -7.300404,3.2882641 -7.30038,7.3321291 -1.5e-5,2.780135 1.545632,5.192118 3.828103,6.43203 1.037477,0.563611 2.224692,0.895407 3.488401,0.895413 4.043848,-1e-6 7.327445,-3.272646 7.327443,-7.316504 10e-7,-2.780141 -1.566342,-5.2015392 -3.855166,-6.4476552 z M 109.71789,32.87675 c -2.12186,-1.031204 -4.70016,-1.01917 -6.88896,0.24453 -3.502448,2.021955 -4.694462,6.50193 -2.67255,10.004004 0.63186,1.094395 1.51284,1.956632 2.51965,2.573337 2.215,1.356728 5.07667,1.489294 7.48435,0.09922 3.50203,-2.021912 4.72156,-6.486311 2.69962,-9.988379 -0.75822,-1.313273 -1.86899,-2.31399 -3.14211,-2.932712 z M 42.018131,16.19868 c -1.692062,-0.819694 -3.75014,-0.795142 -5.501181,0.215825 -2.8016,1.617533 -3.75017,5.204664 -2.132633,8.006328 0.505474,0.875496 1.212534,1.57383 2.018008,2.067207 1.772021,1.085348 4.06218,1.177479 5.98832,0.06543 2.801707,-1.617532 3.750173,-5.204667 2.132633,-8.006328 -0.606597,-1.050791 -1.489911,-1.856641 -2.505147,-2.348458 z m 73.882789,42.65625 c -0.82897,-0.452182 -1.78829,-0.714039 -2.79926,-0.714042 -3.23507,-6e-6 -5.86735,2.614999 -5.86736,5.850078 7e-5,2.021888 1.00555,3.819409 2.56368,4.872074 0.93485,0.631583 2.07326,0.995284 3.2864,0.995293 3.23509,-1.2e-5 5.8674,-2.614997 5.86736,-5.850078 0,-2.224115 -1.22708,-4.158523 -3.05082,-5.153325 z m -48.963449,0.05719 c -2.801652,-1.617535 -6.380801,-0.635629 -7.998336,2.166024 -1.617538,2.801639 -0.678321,6.392248 2.123336,8.009774 2.801662,1.61754 6.380786,0.635655 7.998336,-2.166024 1.617539,-2.801639 0.678326,-6.392234 -2.123336,-8.009774 z M 24.405412,34.392304 c -2.80164,-1.617517 -6.365181,-0.662703 -7.982711,2.138961 -1.617541,2.801663 -0.6627,6.365172 2.138961,7.982711 2.80165,1.617535 6.392244,0.678316 8.009774,-2.123336 1.617542,-2.801666 0.635626,-6.3808 -2.166024,-7.998336 z m 85.032868,49.09375 c -2.80162,-1.617526 -6.39224,-0.678335 -8.00977,2.123336 -1.617546,2.801646 -0.63564,6.380794 2.16602,7.998336 2.80167,1.61755 6.36518,0.662705 7.98271,-2.138961 1.61755,-2.80166 0.66272,-6.365156 -2.13896,-7.982711 z M 17.714825,58.85574 c -0.828973,-0.452184 -1.788298,-0.714042 -2.799258,-0.714043 -3.235077,3e-6 -5.867377,2.615001 -5.8673672,5.850079 -2.77e-5,2.224152 1.2518972,4.177035 3.0778832,5.168949 0.829992,0.450869 1.761237,0.698408 2.772195,0.698418 3.235098,-7e-6 5.867356,-2.614999 5.867367,-5.850078 -2e-6,-2.224118 -1.227077,-4.15852 -3.05082,-5.153325 z m 73.395653,42.375 c -1.692057,-0.81969 -3.750129,-0.79513 -5.501181,0.21582 -2.801598,1.61754 -3.75016,5.20469 -2.132632,8.00633 0.505493,0.87554 1.185474,1.55822 1.990945,2.05159 1.772004,1.08533 4.089239,1.19312 6.015383,0.0811 2.801701,-1.61753 3.750182,-5.20467 2.132633,-8.00633 -0.606595,-1.05079 -1.48991,-1.85664 -2.505148,-2.34846 z M 24.048275,83.260884 c -1.692062,-0.819711 -3.750139,-0.795138 -5.501181,0.215825 -2.802108,1.617592 -3.7502,5.204686 -2.132633,8.006328 0.505454,0.875536 1.21254,1.573879 2.018008,2.067207 1.772005,1.085386 4.062162,1.177495 5.98832,0.06542 2.801108,-1.617465 3.750185,-5.204671 2.132633,-8.006328 -0.606577,-1.050637 -1.489913,-1.856627 -2.505147,-2.348457 z m 42.760004,24.687496 c -0.828971,-0.45218 -1.788296,-0.71404 -2.799258,-0.71404 -3.23508,1e-5 -5.867367,2.615 -5.867368,5.85008 -10e-6,2.22413 1.22483,4.16144 3.050821,5.15332 0.829991,0.45091 1.788299,0.71405 2.799258,0.71405 3.235088,-2e-5 5.867385,-2.61496 5.867367,-5.85008 0,-2.22408 -1.227082,-4.15852 -3.05082,-5.15333 z m -24.417683,-6.51983 c -2.801654,-1.617535 -6.3808,-0.63563 -7.998336,2.16602 -1.617538,2.80164 -0.662696,6.36519 2.138961,7.98272 2.801662,1.61754 6.365165,0.66272 7.982711,-2.13897 1.617542,-2.80163 0.678325,-6.39223 -2.123336,-8.00977 z" style="fill:#aaaaaa"/>
</svg>