<?xml version="1.0" encoding="UTF-8" standalone="no"?>
<svg xmlns:dc="http://purl.org/dc/elements/1.1/"
     xmlns:cc="http://creativecommons.org/ns#"
     xmlns:rdf="http://www.w3.org/1999/02/22-rdf-syntax-ns#"
     xmlns:svg="http://www.w3.org/2000/svg"
     xmlns="http://www.w3.org/2000/svg"
     xmlns:xlink="http://www.w3.org/1999/xlink"
     width="128" height="128" version="1.1">
    <title>Wireless Connection Stage 1 - 07</title>
    <desc>This is shape (source) for Clarity vector icon theme for gtk</desc>
    <metadata>
        <rdf:RDF>
            <cc:Work rdf:about="">
                <dc:title>Wireless Connection Stage 1 - 07</dc:title>
                <dc:description>This is shape (source) for Clarity vector icon theme for gtk</dc:description>
                <dc:creator>
                    <cc:Agent>
                        <dc:title>Jakub Jankiewicz</dc:title>
                    </cc:Agent>
                </dc:creator>
                <dc:rights>
                    <cc:Agent>
                        <dc:title>Jakub Jankiewicz</dc:title>
                    </cc:Agent>
                </dc:rights>
                <dc:date>2010</dc:date>
                <dc:format>image/svg+xml</dc:format>
                <dc:type rdf:resource="http://purl.org/dc/dcmitype/StillImage" />
                <cc:license rdf:resource="http://www.gnu.org/copyleft/gpl.html" />
             </cc:Work>
        </rdf:RDF>
    </metadata>
    <path d="m 63.999958,9.0624398 c 3.235072,-7e-6 5.843754,2.6086822 5.843745,5.8437412 -3e-6,3.235079 -2.608678,5.875016 -5.843749,5.875017 -3.235079,0 -5.843761,-2.639934 -5.843748,-5.875006 -5e-6,-3.235088 2.608673,-5.8437529 5.843752,-5.8437522 z m 24.687489,6.5625082 c 0.944221,0.0245 1.905739,0.27576 2.781253,0.78126 2.801671,1.617519 3.774152,5.19806 2.156251,7.999979 -1.617548,2.801669 -5.198319,3.773836 -8,2.15626 -2.801666,-1.61753 -3.77334,-5.198669 -2.156247,-7.999991 1.112059,-1.92615 3.141457,-2.991478 5.218755,-2.937521 z m -49.374989,-10e-6 c 2.077294,-0.054 4.106684,1.011357 5.218742,2.937513 1.61754,2.801661 0.645408,6.382439 -2.156249,7.999996 -2.801658,1.617531 -6.382458,0.645402 -7.999978,-2.156234 -1.61757,-2.801687 -0.645436,-6.382473 2.156231,-8.00002 0.875515,-0.505475 1.83701,-0.756737 2.781251,-0.78125 z M 106.3437,33.593687 c 2.0773,-0.05396 4.13794,1.011357 5.24998,2.937548 1.61754,2.801656 0.64541,6.382466 -2.15625,8.000001 -2.80165,1.617533 -6.38247,0.645413 -8.00001,-2.15625 -1.617531,-2.801662 -0.64541,-6.382456 2.15625,-8.000004 0.87552,-0.50547 1.80578,-0.75673 2.75,-0.781257 z m -84.687512,3e-6 c 0.94424,0.02452 1.87448,0.275768 2.75002,0.781256 2.80164,1.617532 3.773743,5.198362 2.15626,7.999998 -1.61756,2.801655 -5.19809,3.774146 -7.999999,2.156254 -2.801681,-1.617539 -3.773841,-5.198324 -2.156261,-7.999995 1.11206,-1.926157 3.172709,-2.991466 5.249971,-2.937541 z M 113.0937,58.156186 c 3.23508,1e-6 5.84375,2.608673 5.84375,5.843758 1e-5,3.235072 -2.60869,5.843737 -5.84374,5.843746 -3.23507,-10e-7 -5.87501,-2.608669 -5.87501,-5.843756 0,-3.235067 2.63993,-5.843741 5.875,-5.843748 z m -98.187505,2e-6 c 3.235082,6e-6 5.875022,2.60868 5.875005,5.843747 3e-6,3.235085 -2.639934,5.843761 -5.874982,5.843752 -3.23509,0 -5.8437674,-2.608661 -5.8437604,-5.843749 -1.19e-5,-3.23508 2.6086574,-5.843752 5.8437374,-5.84375 z m 91.750005,24.53125 c 0.94424,0.02453 1.90574,0.27578 2.78125,0.781253 2.80165,1.617537 3.77374,5.198365 2.15625,7.99999 -1.61754,2.801671 -5.19807,3.77416 -8,2.156256 -2.80166,-1.61754 -3.773834,-5.19832 -2.15625,-8.000002 1.11206,-1.926134 3.14145,-2.991448 5.21874,-2.937519 z m -84.749997,-5e-6 c 1.875702,0.132572 3.645253,1.186532 4.65626,2.9375 1.617531,2.801668 0.645391,6.382476 -2.15626,8.000008 -2.801658,1.617529 -6.382445,0.645406 -7.999981,-2.156253 -1.617569,-2.801644 -0.645433,-6.382454 2.156233,-8.000012 1.050609,-0.606559 2.218345,-0.860781 3.343748,-0.781243 z m 66.437496,16.500008 c 2.596635,-0.06744 5.141192,1.248579 6.531251,3.656259 2.021943,3.50207 0.845826,7.97807 -2.656261,9.99998 -3.502059,2.02193 -8.00932,0.81459 -10.031238,-2.68748 -2.021932,-3.50208 -0.814576,-7.97808 2.687504,-10 1.0944,-0.631853 2.28846,-0.938106 3.468747,-0.968744 z m -48.687488,-1.4e-5 c 1.180272,0.03068 2.374344,0.336909 3.468751,0.968753 3.50206,2.02193 4.70972,6.49772 2.687485,10.00001 -2.021923,3.50207 -6.529166,4.70941 -10.031241,2.6875 -3.502088,-2.02191 -4.678143,-6.49797 -2.656251,-10.00001 1.390075,-2.40768 3.934627,-3.723681 6.531242,-3.656227 z m 24.343744,3.125023 c 5.950134,-1e-5 10.781245,4.83108 10.781251,10.78124 -5e-6,5.95015 -4.83111,10.74999 -10.781258,10.75 -5.950132,1e-5 -10.78124,-4.79986 -10.781251,-10.75 5e-6,-5.95015 4.831122,-10.78126 10.781258,-10.78124 z" style="fill:#aaaaaa"/>
</svg>