<?xml version="1.0" encoding="UTF-8" standalone="no"?>
<svg xmlns:dc="http://purl.org/dc/elements/1.1/"
     xmlns:cc="http://creativecommons.org/ns#"
     xmlns:rdf="http://www.w3.org/1999/02/22-rdf-syntax-ns#"
     xmlns:svg="http://www.w3.org/2000/svg"
     xmlns="http://www.w3.org/2000/svg"
     xmlns:xlink="http://www.w3.org/1999/xlink"
     width="128" height="128" version="1.1">
    <title>Wireless Connection Stage 3 - 07</title>
    <desc>This is shape (source) for Clarity vector icon theme for gtk</desc>
    <metadata>
        <rdf:RDF>
            <cc:Work rdf:about="">
                <dc:title>Wireless Connection Stage 3 - 07</dc:title>
                <dc:description>This is shape (source) for Clarity vector icon theme for gtk</dc:description>
                <dc:creator>
                    <cc:Agent>
                        <dc:title>Jakub Jankiewicz</dc:title>
                    </cc:Agent>
                </dc:creator>
                <dc:rights>
                    <cc:Agent>
                        <dc:title>Jakub Jankiewicz</dc:title>
                    </cc:Agent>
                </dc:rights>
                <dc:date>2010</dc:date>
                <dc:format>image/svg+xml</dc:format>
                <dc:type rdf:resource="http://purl.org/dc/dcmitype/StillImage" />
                <cc:license rdf:resource="http://www.gnu.org/copyleft/gpl.html" />
             </cc:Work>
        </rdf:RDF>
    </metadata>
    <path d="m 63.99989,123.84364 c 5.950138,-3e-5 10.781257,-4.79986 10.781249,-10.75002 0,-5.95016 -4.831111,-10.78125 -10.781248,-10.78124 -5.950129,-3e-5 -10.78124,4.8311 -10.781252,10.78124 1.6e-5,5.95015 4.831117,10.75003 10.781251,10.75002 z m 24.750002,-10.03126 c 1.184203,-0.0297 2.374358,-0.33691 3.468749,-0.96875 3.502085,-2.02193 4.67821,-6.49794 2.656251,-10 -1.390054,-2.40768 -3.934615,-3.723687 -6.531256,-3.656253 -1.180282,0.03065 -2.374329,0.336919 -3.468751,0.968753 -3.502065,2.02193 -4.709434,6.49789 -2.687496,10 1.390068,2.40767 3.957274,3.7215 6.562502,3.65625 z m -48.781251,0 c 2.35318,-0.16787 4.580034,-1.46746 5.843749,-3.65625 2.022228,-3.50231 0.814562,-7.97807 -2.6875,-10.00001 -1.094403,-0.63184 -2.288478,-0.938064 -3.468753,-0.968742 -2.596612,-0.06744 -5.141166,1.248572 -6.53124,3.656242 -2.021894,3.50204 -0.84584,7.97809 2.656249,10 1.313269,0.75823 2.775574,1.06948 4.187498,0.96876 z M 106.93739,94.406127 c 1.87522,-0.136153 3.64529,-1.186448 4.65625,-2.937499 1.61749,-2.801617 0.64541,-6.382446 -2.15625,-8.000002 -0.8755,-0.505455 -1.837,-0.756719 -2.78125,-0.781251 -2.07729,-0.05393 -4.1067,1.011334 -5.21874,2.937522 -1.617575,2.801677 -0.64541,6.382462 2.15625,8.000002 1.05072,0.606716 2.21863,0.862947 3.34375,0.781251 z m -85.312503,0 c 0.943997,-0.02289 1.905724,-0.275775 2.781254,-0.781251 2.801653,-1.617531 3.773791,-5.19834 2.156252,-8.000001 -1.010992,-1.750971 -2.780546,-2.804921 -4.656249,-2.937494 -1.125398,-0.07953 -2.293147,0.174691 -3.34376,0.781248 -2.801644,1.617548 -3.773818,5.198359 -2.156252,8 1.112061,1.926146 3.14196,2.987823 5.218741,2.937524 z M 63.99989,77.437378 c 7.413342,-10e-7 13.437501,-6.024158 13.437499,-13.437501 0,-7.413343 -6.024157,-13.4375 -13.4375,-13.4375 -7.413341,1e-6 -13.4375,6.024157 -13.437498,13.437501 -10e-7,7.413343 6.024156,13.4375 13.437499,13.4375 z m 49.09375,-7.593749 c 3.23505,-1e-5 5.84376,-2.608671 5.84375,-5.843751 0,-3.235081 -2.60867,-5.843749 -5.84375,-5.843749 -3.23507,-6e-6 -5.875,2.608683 -5.875,5.843747 0,3.23509 2.63993,5.843747 5.875,5.843753 z m -98.187494,-2e-6 c 3.23504,1.1e-5 5.875009,-2.608668 5.874997,-5.843748 2e-6,-3.23507 -2.639918,-5.843752 -5.874997,-5.843754 -3.235093,-5e-6 -5.8437594,2.608672 -5.8437592,5.843752 -6e-7,3.235079 2.6086542,5.843743 5.8437592,5.84375 z M 106.65614,45.312376 c 0.944,-0.02288 1.90573,-0.275768 2.78125,-0.781249 2.80167,-1.617545 3.77381,-5.198352 2.15625,-8 -1.11203,-1.926198 -3.17271,-2.99144 -5.25,-2.9375 -0.94424,0.02454 -1.87448,0.275781 -2.75,0.781251 -2.80167,1.617546 -3.773781,5.198332 -2.15625,7.999999 1.11206,1.926146 3.14194,2.987831 5.21875,2.937495 z m -84.749995,5e-6 c 1.875199,-0.13616 3.64527,-1.186478 4.656248,-2.937502 1.617479,-2.801635 0.645381,-6.382473 -2.156249,-8.000003 -0.87555,-0.50549 -1.80576,-0.75672 -2.75001,-0.781252 -2.07725,-0.05391 -4.137899,1.011398 -5.250022,2.937456 -1.61758,2.801671 -0.64542,6.382466 2.156249,8.000002 1.050702,0.606694 2.21861,0.862937 3.34376,0.781252 z M 88.96864,27.343627 c 1.875222,-0.13613 3.64529,-1.18645 4.65625,-2.9375 1.6179,-2.80193 0.645421,-6.38249 -2.15625,-7.999999 -0.875509,-0.505511 -1.837021,-0.75676 -2.781251,-0.781251 -2.077291,-0.054 -4.10668,1.011331 -5.218752,2.937496 -1.617099,2.80132 -0.645417,6.382451 2.15625,8.000001 1.050638,0.60657 2.218609,0.862929 3.34375,0.781248 z m -49.375004,-2e-6 c 0.944002,-0.0229 1.905734,-0.275771 2.781259,-0.781242 2.801644,-1.617566 3.7738,-5.198337 2.156243,-8.000006 -1.112039,-1.926149 -3.141439,-2.991485 -5.218746,-2.937504 -0.944247,0.0245 -1.905735,0.27577 -2.781252,0.78125 -2.801649,1.617558 -3.773828,5.19832 -2.156244,8.000004 1.112039,1.926109 3.141951,2.98784 5.218743,2.93749 z m 24.406256,-6.562493 c 3.235069,-1.5e-5 5.843741,-2.639936 5.843748,-5.875005 7e-6,-3.235061 -2.608678,-5.843758 -5.84375,-5.8437502 -3.235081,6e-7 -5.843757,2.6086392 -5.843751,5.8437502 -1.4e-5,3.235051 2.608672,5.874994 5.843753,5.875005 z" style="fill:#aaaaaa"/>
</svg>