<?xml version="1.0" encoding="UTF-8" standalone="no"?>
<svg xmlns:dc="http://purl.org/dc/elements/1.1/"
     xmlns:cc="http://creativecommons.org/ns#"
     xmlns:rdf="http://www.w3.org/1999/02/22-rdf-syntax-ns#"
     xmlns:svg="http://www.w3.org/2000/svg"
     xmlns="http://www.w3.org/2000/svg"
     xmlns:xlink="http://www.w3.org/1999/xlink"
     width="128" height="128" version="1.1">
    <title>Wireless Connection Stage 1 - 01</title>
    <desc>This is shape (source) for Clarity vector icon theme for gtk</desc>
    <metadata>
        <rdf:RDF>
            <cc:Work rdf:about="">
                <dc:title>Wireless Connection Stage 1 - 01</dc:title>
                <dc:description>This is shape (source) for Clarity vector icon theme for gtk</dc:description>
                <dc:creator>
                    <cc:Agent>
                        <dc:title>Jakub Jankiewicz</dc:title>
                    </cc:Agent>
                </dc:creator>
                <dc:rights>
                    <cc:Agent>
                        <dc:title>Jakub Jankiewicz</dc:title>
                    </cc:Agent>
                </dc:rights>
                <dc:date>2010</dc:date>
                <dc:format>image/svg+xml</dc:format>
                <dc:type rdf:resource="http://purl.org/dc/dcmitype/StillImage" />
                <cc:license rdf:resource="http://creativecommons.org/licenses/by-sa/3.0/" />
             </cc:Work>
        </rdf:RDF>
    </metadata>
    <path d="m 63.999981,118.93748 c -3.235076,0 -5.843752,-2.60868 -5.843744,-5.84374 2e-6,-3.23508 2.608676,-5.87502 5.843748,-5.87502 3.235078,0 5.843758,2.63993 5.84375,5.87501 0,3.23508 -2.608674,5.84375 -5.843754,5.84375 z m -24.68749,-6.56251 c -0.944222,-0.0245 -1.905739,-0.27576 -2.781252,-0.78126 -2.801672,-1.61752 -3.774153,-5.19806 -2.156252,-7.99998 1.617548,-2.80167 5.198318,-3.773836 7.999999,-2.15626 2.801666,1.61753 3.773341,5.19867 2.156247,7.99999 -1.112058,1.92615 -3.141456,2.99148 -5.218756,2.93752 z m 49.37499,10e-6 c -2.077294,0.054 -4.106685,-1.01136 -5.218741,-2.93751 -1.61754,-2.80166 -0.645409,-6.38244 2.156244,-8 2.801661,-1.61753 6.382462,-0.6454 7.999985,2.15624 1.617562,2.80168 0.645434,6.38247 -2.156239,8.00001 -0.875511,0.50548 -1.837008,0.75674 -2.781243,0.78126 z M 21.656241,94.406231 c -2.077303,0.05396 -4.137949,-1.011358 -5.249985,-2.937545 -1.617541,-2.801656 -0.645408,-6.382464 2.156253,-8.000001 2.801649,-1.617533 6.382469,-0.645412 8.000001,2.15625 1.617536,2.801664 0.645415,6.382456 -2.156248,8.000004 -0.875515,0.505472 -1.80578,0.756732 -2.75,0.781257 z m 84.687509,-1e-6 c -0.94424,-0.02452 -1.87448,-0.275771 -2.75002,-0.781257 -2.80164,-1.617535 -3.77374,-5.19836 -2.15626,-7.999997 1.61756,-2.801656 5.19809,-3.774153 8,-2.156256 2.80168,1.617543 3.77384,5.198326 2.15626,7.999997 -1.11206,1.926152 -3.17271,2.991459 -5.24996,2.937553 z M 14.90624,69.84373 c -3.235076,2e-6 -5.8437486,-2.608674 -5.8437542,-5.843756 -1.7e-6,-3.235071 2.6086942,-5.84374 5.8437472,-5.843745 3.235065,-1e-6 5.875005,2.608667 5.875003,5.843755 0,3.235067 -2.639922,5.843742 -5.874996,5.843746 z m 98.1875,4e-6 c -3.23508,-8e-6 -5.87502,-2.608685 -5.87501,-5.843752 1e-5,-3.235085 2.63994,-5.84376 5.87499,-5.843752 3.23509,-10e-7 5.84376,2.608663 5.84376,5.843746 1e-5,3.235083 -2.60866,5.843758 -5.84374,5.843758 z M 21.343735,45.312479 c -0.944235,-0.02453 -1.90574,-0.275782 -2.781252,-0.781258 -2.801647,-1.617531 -3.773741,-5.198358 -2.156246,-7.999986 1.617535,-2.80167 5.198074,-3.774156 8,-2.15625 2.801657,1.617534 3.773828,5.198309 2.156249,7.999996 -1.112056,1.926134 -3.141452,2.991448 -5.218736,2.937521 z m 84.750005,-3e-6 c -1.87572,-0.132559 -3.64526,-1.186522 -4.65626,-2.937496 -1.617537,-2.801664 -0.6454,-6.382466 2.15626,-8.000005 2.80165,-1.617526 6.38244,-0.645408 7.99998,2.156249 1.61756,2.801655 0.64543,6.382462 -2.15624,8.000016 -1.05061,0.60656 -2.21833,0.860772 -3.34374,0.781236 z M 39.656236,28.812473 c -2.59663,0.06745 -5.141188,-1.248572 -6.531251,-3.656245 -2.02194,-3.502076 -0.845827,-7.978074 2.656263,-9.999988 3.502059,-2.021913 8.009315,-0.814581 10.031239,2.687499 2.021926,3.502069 0.814571,7.978062 -2.687509,9.999986 -1.094397,0.631854 -2.288459,0.938105 -3.468743,0.968751 z m 48.687497,10e-6 c -1.180278,-0.03067 -2.374353,-0.336901 -3.468747,-0.968758 -3.502071,-2.02191 -4.709732,-6.497703 -2.687501,-9.999999 2.02193,-3.50206 6.529173,-4.709408 10.031244,-2.687491 3.502085,2.021909 4.678155,6.497948 2.656255,9.999991 -1.390071,2.40768 -3.934629,3.723692 -6.531245,3.656249 z m -24.34375,-3.125008 c -5.950134,1e-6 -10.781246,-4.831098 -10.781251,-10.781254 6e-6,-5.9501392 4.831108,-10.749989 10.781253,-10.7499855 5.950137,-2.79e-5 10.781249,4.7998638 10.781256,10.7499995 -4e-6,5.950141 -4.831118,10.781241 -10.781258,10.78124 z" style="fill:#aaaaaa"/>
</svg>