<?xml version="1.0" encoding="UTF-8" standalone="no"?>
<svg xmlns:dc="http://purl.org/dc/elements/1.1/"
     xmlns:cc="http://creativecommons.org/ns#"
     xmlns:rdf="http://www.w3.org/1999/02/22-rdf-syntax-ns#"
     xmlns:svg="http://www.w3.org/2000/svg"
     xmlns="http://www.w3.org/2000/svg"
     xmlns:xlink="http://www.w3.org/1999/xlink"
     width="128" height="128" version="1.1">
    <title>Wireless Connection Stage 3 - 05</title>
    <desc>This is shape (source) for Clarity vector icon theme for gtk</desc>
    <metadata>
        <rdf:RDF>
            <cc:Work rdf:about="">
                <dc:title>Wireless Connection Stage 3 - 05</dc:title>
                <dc:description>This is shape (source) for Clarity vector icon theme for gtk</dc:description>
                <dc:creator>
                    <cc:Agent>
                        <dc:title>Jakub Jankiewicz</dc:title>
                    </cc:Agent>
                </dc:creator>
                <dc:rights>
                    <cc:Agent>
                        <dc:title>Jakub Jankiewicz</dc:title>
                    </cc:Agent>
                </dc:rights>
                <dc:date>2010</dc:date>
                <dc:format>image/svg+xml</dc:format>
                <dc:type rdf:resource="http://purl.org/dc/dcmitype/StillImage" />
                <cc:license rdf:resource="http://www.gnu.org/copyleft/gpl.html" />
             </cc:Work>
        </rdf:RDF>
    </metadata>
    <path d="m 115.82608,93.921833 c 2.97505,-5.152981 1.23383,-11.736767 -3.91916,-14.711842 -5.15299,-2.975078 -11.75239,-1.206756 -14.727452,3.946217 -2.975092,5.15295 -1.206765,11.752378 3.946202,14.727456 5.15299,2.975066 11.72536,1.19115 14.70041,-3.961831 z m 3.68768,-26.449754 c 0.56638,-1.0404 0.89541,-2.22471 0.89541,-3.488399 0,-4.043859 -3.28827,-7.300418 -7.33213,-7.30038 -2.78013,-2.1e-5 -5.19211,1.54563 -6.43203,3.828102 -0.5636,1.037479 -0.89539,2.224691 -0.89541,3.488402 1e-5,4.043846 3.27262,7.327438 7.3165,7.327443 2.78014,10e-7 5.20155,-1.566348 6.44766,-3.855168 z M 95.123134,109.71788 c 1.03121,-2.12185 1.019166,-4.70015 -0.244531,-6.88896 -2.021974,-3.502457 -6.501929,-4.694466 -10.00401,-2.67256 -1.094392,0.63186 -1.956626,1.51285 -2.573332,2.51966 -1.356712,2.21501 -1.489289,5.07666 -0.09922,7.48434 2.021907,3.50203 6.486308,4.72156 9.988379,2.69962 1.313278,-0.75821 2.313982,-1.86898 2.932718,-3.1421 z M 111.8012,42.018116 c 0.8197,-1.692066 0.79515,-3.750138 -0.21582,-5.501182 -1.61753,-2.801595 -5.20466,-3.750164 -8.00633,-2.132632 -0.87549,0.505477 -1.57384,1.212531 -2.06721,2.018008 -1.08535,1.772021 -1.17751,4.062175 -0.0654,5.988321 1.61753,2.801702 5.20467,3.750173 8.00633,2.132633 1.05079,-0.606592 1.85664,-1.489909 2.34846,-2.505148 z M 69.144949,115.90091 c 0.452177,-0.82897 0.714036,-1.78829 0.714046,-2.79926 2e-6,-3.23507 -2.615001,-5.86737 -5.850079,-5.86737 -2.021881,6e-5 -3.819408,1.00556 -4.872071,2.56368 -0.631575,0.93486 -0.995286,2.07327 -0.995296,3.28641 1.6e-5,3.23507 2.615,5.8674 5.850078,5.86737 2.224121,0 4.158508,-1.22711 5.15334,-3.0508 z M 75.637083,70.718707 C 79.343754,64.298564 77.13876,56.069412 70.718616,52.362741 64.298473,48.656069 56.069321,50.861064 52.36265,57.281207 c -3.706671,6.420143 -1.501677,14.649295 4.918467,18.355966 6.420143,3.706672 14.649295,1.501677 18.355966,-4.918466 z m 17.970495,-46.31331 c 1.617515,-2.801639 0.662703,-6.36518 -2.138961,-7.982711 -2.801664,-1.61754 -6.365173,-0.662698 -7.982711,2.138961 -1.617537,2.80165 -0.678315,6.392244 2.123335,8.009775 2.801667,1.617543 6.380799,0.635626 7.998337,-2.166025 z M 44.51383,109.43826 c 1.617529,-2.80162 0.678332,-6.39224 -2.123335,-8.00977 -2.801653,-1.617536 -6.380797,-0.63564 -7.998338,2.16602 -1.617551,2.80167 -0.662704,6.36518 2.138958,7.98272 2.80166,1.61754 6.365157,0.66271 7.982715,-2.13897 z M 69.144141,17.71481 c 0.452184,-0.828966 0.714042,-1.788293 0.714043,-2.799257 -10e-7,-3.235089 -2.615001,-5.8673895 -5.850078,-5.8673681 -2.224153,-5.06e-5 -4.177016,1.2519241 -5.16895,3.0778831 -0.450868,0.830006 -0.698406,1.761237 -0.698417,2.772196 3e-6,3.235087 2.614997,5.867356 5.850078,5.867366 2.224121,10e-7 4.158509,-1.227087 5.153322,-3.050823 z M 26.769147,91.110461 c 0.819682,-1.69205 0.795115,-3.750135 -0.215827,-5.501181 -1.617548,-2.801594 -5.204693,-3.750152 -8.00633,-2.132634 -0.875542,0.505503 -1.558219,1.185474 -2.051589,1.990952 -1.085312,1.771997 -1.193054,4.089225 -0.0811,6.015381 1.617529,2.801701 5.204668,3.750183 8.00633,2.132634 1.050763,-0.606586 1.85663,-1.489904 2.348464,-2.505155 z M 44.738997,24.04826 c 0.819719,-1.692055 0.79515,-3.750139 -0.215824,-5.501181 -1.617592,-2.802108 -5.204688,-3.750196 -8.006328,-2.132632 -0.875539,0.505457 -1.573884,1.212527 -2.067208,2.018008 -1.085411,1.771987 -1.177502,4.062154 -0.06543,5.98832 1.617465,2.801109 5.204656,3.750172 8.006329,2.132633 1.050624,-0.606595 1.856623,-1.489907 2.348456,-2.505148 z M 20.051493,66.808267 c 0.452169,-0.828981 0.714043,-1.788301 0.714054,-2.799262 -3.1e-5,-3.235078 -2.614991,-5.867376 -5.850086,-5.867365 -2.224114,-2e-5 -4.161422,1.224824 -5.1533262,3.050816 -0.4509059,0.829992 -0.7140437,1.7883 -0.7140436,2.79926 2.18e-5,3.235078 2.6149638,5.867391 5.8500848,5.867364 2.22408,0 4.158521,-1.22709 5.153313,-3.050819 z m 6.519843,-24.417685 c 1.617522,-2.801659 0.635619,-6.380796 -2.16603,-7.998336 -2.801641,-1.617538 -6.365181,-0.662698 -7.982711,2.138961 -1.61754,2.801662 -0.66273,6.365161 2.138961,7.982711 2.801629,1.617538 6.39223,0.678321 8.00978,-2.123336 z" style="fill:#aaaaaa"/>
</svg>