<?xml version="1.0" encoding="UTF-8" standalone="no"?>
<svg xmlns:dc="http://purl.org/dc/elements/1.1/"
     xmlns:cc="http://creativecommons.org/ns#"
     xmlns:rdf="http://www.w3.org/1999/02/22-rdf-syntax-ns#"
     xmlns:svg="http://www.w3.org/2000/svg"
     xmlns="http://www.w3.org/2000/svg"
     xmlns:xlink="http://www.w3.org/1999/xlink"
     width="128" height="128" version="1.1">
    <title>Wireless Connection Stage 1 - 04</title>
    <desc>This is shape (source) for Clarity vector icon theme for gtk</desc>
    <metadata>
        <rdf:RDF>
            <cc:Work rdf:about="">
                <dc:title>Wireless Connection Stage 1 - 04</dc:title>
                <dc:description>This is shape (source) for Clarity vector icon theme for gtk</dc:description>
                <dc:creator>
                    <cc:Agent>
                        <dc:title>Jakub Jankiewicz</dc:title>
                    </cc:Agent>
                </dc:creator>
                <dc:rights>
                    <cc:Agent>
                        <dc:title>Jakub Jankiewicz</dc:title>
                    </cc:Agent>
                </dc:rights>
                <dc:date>2010</dc:date>
                <dc:format>image/svg+xml</dc:format>
                <dc:type rdf:resource="http://purl.org/dc/dcmitype/StillImage" />
                <cc:license rdf:resource="http://www.gnu.org/copyleft/gpl.html" />
             </cc:Work>
        </rdf:RDF>
    </metadata>
    <path d="m 9.0624541,63.99997 c -6.9e-6,-3.235072 2.6086809,-5.843753 5.8437399,-5.843744 3.23508,2e-6 5.875017,2.608677 5.875018,5.843748 -1e-6,3.23508 -2.639934,5.843761 -5.875007,5.843749 -3.235088,5e-6 -5.8437515,-2.608674 -5.8437509,-5.843753 z M 15.624961,39.312481 c 0.0245,-0.944222 0.27576,-1.905738 0.78126,-2.781252 1.617519,-2.801671 5.19806,-3.774152 7.99998,-2.156252 2.801669,1.617548 3.773836,5.198319 2.15626,8 -1.61753,2.801666 -5.19867,3.773341 -7.999991,2.156247 -1.92615,-1.112059 -2.991479,-3.141456 -2.93752,-5.218756 z m -9e-6,49.374989 c -0.054,-2.077294 1.011356,-4.106683 2.937513,-5.218742 2.80166,-1.61754 6.382439,-0.645408 7.999996,2.15625 1.617531,2.801657 0.645401,6.382458 -2.156234,7.999977 -2.801687,1.61757 -6.382473,0.645436 -8.000021,-2.156231 -0.505475,-0.875514 -0.756736,-1.83701 -0.781249,-2.781251 z M 33.5937,21.656232 c -0.05396,-2.077303 1.011358,-4.137949 2.937548,-5.249983 2.801656,-1.617541 6.382465,-0.645409 8.000001,2.156252 1.617533,2.801649 0.645412,6.38247 -2.15625,8.000002 -2.801663,1.617536 -6.382456,0.645414 -8.000004,-2.156248 -0.505471,-0.875516 -0.756731,-1.805781 -0.781257,-2.75 z m 4e-6,84.687508 c 0.02452,-0.94424 0.275768,-1.87448 0.781255,-2.75002 1.617533,-2.80164 5.198362,-3.773743 7.999999,-2.15626 2.801655,1.61756 3.774146,5.19809 2.156253,8 -1.617538,2.80168 -5.198323,3.77384 -7.999994,2.15626 -1.926157,-1.11206 -2.991466,-3.17271 -2.937543,-5.24997 z M 58.156201,14.90623 c -2e-6,-3.235076 2.608673,-5.8437487 5.843756,-5.8437541 3.235071,-1.6e-6 5.843739,2.6086941 5.843745,5.8437471 0,3.235066 -2.608667,5.875005 -5.843755,5.875004 -3.235067,-1e-6 -5.843742,-2.639923 -5.843746,-5.874997 z m -2e-6,98.1875 c 7e-6,-3.23508 2.608683,-5.87502 5.843751,-5.875 3.235086,0 5.843759,2.63993 5.843749,5.87498 10e-7,3.23509 -2.608659,5.84377 -5.843748,5.84376 -3.235081,10e-6 -5.843753,-2.60866 -5.843752,-5.84374 z M 82.687452,21.343726 c 0.02453,-0.944236 0.275782,-1.905741 0.781257,-2.781253 1.617532,-2.801646 5.198359,-3.773741 7.999986,-2.156246 2.801671,1.617535 3.774157,5.198074 2.156251,8 -1.617534,2.801657 -5.198309,3.773829 -7.999996,2.15625 -1.926135,-1.112057 -2.991448,-3.141453 -2.937522,-5.218736 z m 0,84.750004 c 0.132567,-1.87571 1.186524,-3.64526 2.937498,-4.65626 2.801663,-1.617539 6.382469,-0.6454 8.000008,2.15626 1.617523,2.80165 0.645401,6.38244 -2.156253,7.99998 -2.801651,1.61756 -6.38246,0.64543 -8.000017,-2.15624 -0.606552,-1.0506 -0.860775,-2.21834 -0.781236,-3.34374 z M 99.187458,39.656227 c -0.06745,-2.596631 1.248572,-5.141189 3.656252,-6.531249 3.50207,-2.021939 7.97807,-0.845827 9.99998,2.656262 2.02192,3.50206 0.81459,8.009316 -2.68749,10.03124 -3.50207,2.021926 -7.97807,0.814571 -9.99999,-2.68751 -0.631854,-1.094396 -0.938105,-2.288458 -0.96875,-3.468742 z m -1.3e-5,48.687496 c 0.03067,-1.180281 0.336903,-2.374353 0.968755,-3.468752 2.02192,-3.502065 6.49771,-4.709726 10,-2.687495 3.50207,2.021929 4.70941,6.529169 2.6875,10.031246 -2.02191,3.502086 -6.49796,4.678147 -10,2.656254 -2.40768,-1.390074 -3.72369,-3.934632 -3.656237,-6.531244 z m 3.125015,-24.34375 c -1e-5,-5.950134 4.83109,-10.781245 10.78125,-10.78125 5.95014,4e-6 10.74999,4.83111 10.74999,10.781256 2e-5,5.950134 -4.79986,10.781247 -10.75,10.781252 -5.95015,-6e-6 -10.78125,-4.831119 -10.78124,-10.781258 z" style="fill:#aaaaaa"/>
</svg>