<?xml version="1.0" encoding="UTF-8" standalone="no"?>
<svg xmlns:dc="http://purl.org/dc/elements/1.1/"
     xmlns:cc="http://creativecommons.org/ns#"
     xmlns:rdf="http://www.w3.org/1999/02/22-rdf-syntax-ns#"
     xmlns:svg="http://www.w3.org/2000/svg"
     xmlns="http://www.w3.org/2000/svg"
     xmlns:xlink="http://www.w3.org/1999/xlink"
     width="128" height="128" version="1.1">
    <title>Wireless Connection Stage 3 - 10</title>
    <desc>This is shape (source) for Clarity vector icon theme for gtk</desc>
    <metadata>
        <rdf:RDF>
            <cc:Work rdf:about="">
                <dc:title>Wireless Connection Stage 3 - 10</dc:title>
                <dc:description>This is shape (source) for Clarity vector icon theme for gtk</dc:description>
                <dc:creator>
                    <cc:Agent>
                        <dc:title>Jakub Jankiewicz</dc:title>
                    </cc:Agent>
                </dc:creator>
                <dc:rights>
                    <cc:Agent>
                        <dc:title>Jakub Jankiewicz</dc:title>
                    </cc:Agent>
                </dc:rights>
                <dc:date>2010</dc:date>
                <dc:format>image/svg+xml</dc:format>
                <dc:type rdf:resource="http://purl.org/dc/dcmitype/StillImage" />
                <cc:license rdf:resource="http://www.gnu.org/copyleft/gpl.html" />
             </cc:Work>
        </rdf:RDF>
    </metadata>
    <path d="m 4.1562399,63.999882 c 3.31e-5,5.950137 4.799866,10.781254 10.7500231,10.781247 5.950161,0 10.781249,-4.83111 10.781241,-10.781248 2.9e-5,-5.950128 -4.8311,-10.78124 -10.78124,-10.781252 -5.9501509,1.7e-5 -10.7500329,4.831119 -10.7500241,10.781253 z m 10.0312631,24.75 c 0.0297,1.184204 0.336909,2.374358 0.968751,3.46875 2.021931,3.502086 6.497937,4.67821 10.000002,2.656251 2.407675,-1.390055 3.723685,-3.934616 3.656253,-6.531256 -0.03065,-1.180282 -0.336917,-2.374328 -0.968754,-3.468751 -2.02193,-3.502063 -6.49789,-4.709433 -9.999997,-2.687495 -2.407672,1.390068 -3.721499,3.957275 -3.656252,6.562503 z m 1e-6,-48.781251 c 0.167869,2.353181 1.467459,4.580035 3.65625,5.843749 3.50231,2.022228 7.97807,0.814563 10.000009,-2.687499 0.63184,-1.094403 0.938065,-2.288479 0.968742,-3.468754 0.06744,-2.596612 -1.248571,-5.141166 -3.656243,-6.531238 -3.50204,-2.021895 -7.97809,-0.845841 -10,2.656248 -0.75823,1.313269 -1.069481,2.775574 -0.968761,4.187498 z m 19.406253,66.968749 c 0.136153,1.87522 1.186448,3.64529 2.937498,4.65625 2.801617,1.61749 6.382447,0.64541 8.000003,-2.15625 0.505455,-0.8755 0.75672,-1.837 0.781252,-2.78125 0.05393,-2.07729 -1.011334,-4.1067 -2.937523,-5.21874 -2.801675,-1.617574 -6.382462,-0.64541 -8.000003,2.15625 -0.606716,1.05072 -0.862951,2.21863 -0.781253,3.34375 z m -10e-7,-85.312503 c 0.02289,0.943997 0.275776,1.905725 0.781252,2.781254 1.617531,2.801653 5.19834,3.773791 8,2.156253 1.750972,-1.010993 2.804922,-2.780547 2.937494,-4.656249 0.07953,-1.125399 -0.17469,-2.293148 -0.781247,-3.343761 -1.617548,-2.801644 -5.198359,-3.773818 -8.000001,-2.156251 -1.926146,1.112061 -2.987822,3.141959 -2.937524,5.21874 z m 16.968749,42.375004 c 2e-6,7.413341 6.024158,13.4375 13.437502,13.437498 7.413343,0 13.4375,-6.024157 13.4375,-13.4375 -2e-6,-7.413341 -6.024157,-13.4375 -13.437502,-13.437498 -7.413343,0 -13.437499,6.024156 -13.4375,13.4375 z m 7.593752,49.093749 c 1e-5,3.23505 2.60867,5.84376 5.84375,5.84375 3.23508,0 5.84375,-2.60867 5.84375,-5.84375 8e-6,-3.23507 -2.608683,-5.875 -5.843751,-5.875 -3.235089,0 -5.843741,2.63993 -5.843749,5.875 z m -10e-7,-98.187493 c -1.1e-5,3.235038 2.608669,5.875008 5.843749,5.874996 3.235069,2e-6 5.843752,-2.639918 5.843754,-5.874997 5e-6,-3.235093 -2.608673,-5.8437586 -5.843752,-5.8437592 -3.235079,-6e-7 -5.843744,2.6086542 -5.843751,5.8437602 z m 24.531248,91.749993 c 0.02288,0.944 0.275769,1.90573 0.781251,2.78125 1.617545,2.80167 5.198352,3.77381 8.000001,2.15625 1.926198,-1.11203 2.991442,-3.17271 2.937456,-5.25002 -0.02454,-0.94424 -0.275777,-1.87448 -0.781247,-2.75 -1.617545,-2.80167 -5.198332,-3.773787 -8,-2.15626 -1.926146,1.11207 -2.987835,3.14194 -2.937523,5.21874 z m -10e-7,-84.749995 c 0.13616,1.875199 1.186477,3.64527 2.937501,4.656249 2.801635,1.617478 6.382474,0.64538 8.000004,-2.15625 0.50549,-0.87555 0.75672,-1.80576 0.781252,-2.75001 0.05391,-2.07725 -1.011398,-4.137899 -2.937456,-5.250022 -2.801671,-1.617581 -6.382465,-0.645421 -8.000001,2.156249 -0.606695,1.050702 -0.862937,2.21861 -0.781252,3.34376 z m 17.968757,67.062494 c 0.13612,1.875223 1.18645,3.64529 2.9375,4.656257 2.80192,1.61789 6.38248,0.645414 7.99999,-2.156255 0.50552,-0.875511 0.75676,-1.837024 0.78126,-2.78125 0.054,-2.077293 -1.01133,-4.106683 -2.9375,-5.218751 -2.80132,-1.617104 -6.38245,-0.645421 -8,2.156251 -0.60657,1.050634 -0.86293,2.218602 -0.78125,3.343743 z m 0,-49.375003 c 0.0229,0.944002 0.27577,1.905735 0.78124,2.781258 1.61757,2.801646 5.19834,3.773801 8.00001,2.156244 1.92615,-1.112038 2.99148,-3.141438 2.9375,-5.218746 -0.0245,-0.944247 -0.27577,-1.905735 -0.78125,-2.781251 -1.61756,-2.80165 -5.19832,-3.773828 -8,-2.156244 -1.92611,1.112039 -2.98784,3.14195 -2.93749,5.218743 z m 6.56249,24.406256 c 2e-5,3.235069 2.63993,5.843739 5.87501,5.843748 3.23506,9e-6 5.84375,-2.60868 5.84375,-5.84375 0,-3.235081 -2.60865,-5.843759 -5.84375,-5.84375 -3.23505,-1.2e-5 -5.875,2.608672 -5.87501,5.843752 z" style="fill:#aaaaaa"/>
</svg>