<?xml version="1.0" encoding="UTF-8" standalone="no"?>
<svg xmlns:dc="http://purl.org/dc/elements/1.1/"
     xmlns:cc="http://creativecommons.org/ns#"
     xmlns:rdf="http://www.w3.org/1999/02/22-rdf-syntax-ns#"
     xmlns:svg="http://www.w3.org/2000/svg"
     xmlns="http://www.w3.org/2000/svg"
     xmlns:xlink="http://www.w3.org/1999/xlink"
     width="128" height="128" version="1.1">
    <title>Wireless Connection Stage 2 - 04</title>
    <desc>This is shape (source) for Clarity vector icon theme for gtk</desc>
    <metadata>
        <rdf:RDF>
            <cc:Work rdf:about="">
                <dc:title>Wireless Connection Stage 2 - 04</dc:title>
                <dc:description>This is shape (source) for Clarity vector icon theme for gtk</dc:description>
                <dc:creator>
                    <cc:Agent>
                        <dc:title>Jakub Jankiewicz</dc:title>
                    </cc:Agent>
                </dc:creator>
                <dc:rights>
                    <cc:Agent>
                        <dc:title>Jakub Jankiewicz</dc:title>
                    </cc:Agent>
                </dc:rights>
                <dc:date>2010</dc:date>
                <dc:format>image/svg+xml</dc:format>
                <dc:type rdf:resource="http://purl.org/dc/dcmitype/StillImage" />
                <cc:license rdf:resource="http://www.gnu.org/copyleft/gpl.html" />
             </cc:Work>
        </rdf:RDF>
    </metadata>
    <path d="m 123.84365,63.999992 c -1e-5,-5.950141 -4.79984,-10.781246 -10.74999,-10.781246 -5.95016,2e-6 -10.78126,4.831114 -10.78125,10.781248 -3e-5,5.950132 4.8311,10.781241 10.78125,10.781252 5.95014,-1.8e-5 10.75001,-4.831117 10.74999,-10.781254 z M 113.81241,39.249995 c -0.0297,-1.1842 -0.3369,-2.374357 -0.96875,-3.468751 -2.02191,-3.502086 -6.49793,-4.678203 -10,-2.65625 -2.40768,1.390055 -3.723693,3.934616 -3.656253,6.53125 0.03064,1.180287 0.336901,2.374343 0.968753,3.46875 2.02192,3.502075 6.49791,4.709431 10,2.6875 2.40767,-1.39007 3.72149,-3.957262 3.65625,-6.562499 z m 0,48.781246 c -0.16788,-2.353184 -1.46745,-4.580041 -3.65625,-5.843749 -3.5023,-2.022233 -7.97807,-0.814559 -10,2.687505 -0.631845,1.094404 -0.938077,2.288472 -0.968754,3.468748 -0.06745,2.596614 1.248574,5.141173 3.656254,6.531248 3.50204,2.02189 7.97809,0.845837 10,-2.656248 0.75822,-1.313274 1.06947,-2.77559 0.96875,-4.187504 z M 94.406157,21.062495 c -0.136155,-1.875216 -1.186456,-3.645288 -2.9375,-4.656251 -2.801625,-1.61749 -6.382456,-0.64541 -8,2.15625 -0.505465,0.875502 -0.75671,1.837001 -0.78125,2.78125 -0.05393,2.077289 1.011363,4.10669 2.937496,5.218752 2.801677,1.617583 6.382461,0.645412 8,-2.156249 0.606713,-1.050724 0.862943,-2.218622 0.78125,-3.343751 z m -10e-7,85.312495 c -0.02289,-0.944 -0.275773,-1.90572 -0.781252,-2.78125 -1.61753,-2.80166 -5.198327,-3.773773 -7.999995,-2.15624 -1.750968,1.011 -2.804928,2.78054 -2.937504,4.65624 -0.07953,1.1254 0.174694,2.29314 0.781252,3.34376 1.617559,2.80166 5.198357,3.77382 7.999994,2.15624 1.926142,-1.11206 2.987848,-3.14194 2.937522,-5.21874 z M 69.874903,63.999996 c 10e-7,-3.235069 -2.639929,-5.84375 -5.875,-5.843749 -3.235059,-1.1e-5 -5.87501,2.608679 -5.874999,5.843749 0,3.23508 2.639899,5.843751 5.875,5.84375 3.23506,1e-5 5.874999,-2.60867 5.874999,-5.84375 z m -0.03125,-49.093751 c -9e-6,-3.23505 -2.608673,-5.8437601 -5.84375,-5.8437504 -3.235082,10e-8 -5.843751,2.6086704 -5.84375,5.8437504 -10e-7,3.235067 2.608683,5.875004 5.84375,5.874999 3.235085,0 5.843748,-2.639931 5.84375,-5.874999 z m 1e-6,98.187495 c 9e-6,-3.23504 -2.608666,-5.87501 -5.843749,-5.87499 -3.235068,-2e-5 -5.843751,2.63991 -5.843752,5.87499 -6e-6,3.2351 2.608671,5.84376 5.84375,5.84375 3.235083,1e-5 5.843744,-2.60864 5.843751,-5.84375 z M 45.312407,21.343744 c -0.02288,-0.944003 -0.275771,-1.905732 -0.78125,-2.78125 -1.617541,-2.801657 -5.198346,-3.773796 -8.000001,-2.15625 -1.926186,1.112053 -2.991469,3.172693 -2.9375,5.25 0.02453,0.944229 0.275779,1.87448 0.78125,2.75 1.617555,2.801674 5.198333,3.77378 7.999999,2.15625 1.926142,-1.112061 2.987846,-3.14194 2.937497,-5.218753 z m 0,84.749996 c -0.136157,-1.8752 -1.186461,-3.64527 -2.937499,-4.65624 -2.801629,-1.617491 -6.382471,-0.6454 -7.999996,2.15624 -0.505495,0.87554 -0.756724,1.80576 -0.781261,2.75001 -0.05392,2.07726 1.011348,4.13794 2.937459,5.25002 2.801673,1.61758 6.382465,0.64542 8.000003,-2.15625 0.606709,-1.05072 0.862941,-2.21862 0.781252,-3.34375 z M 27.343657,39.031245 c -0.136141,-1.875225 -1.18646,-3.645284 -2.9375,-4.65625 -2.80193,-1.617901 -6.382491,-0.645425 -8,2.156249 -0.50551,0.875505 -0.756749,1.83703 -0.78125,2.78125 -0.05397,2.077294 1.01134,4.106684 2.937505,5.218747 2.801319,1.617099 6.382469,0.645421 8,-2.156249 0.606589,-1.050629 0.862928,-2.218616 0.781249,-3.343749 z m 2e-6,49.375 c -0.02288,-0.944005 -0.275768,-1.905734 -0.78125,-2.781252 -1.61755,-2.801656 -5.198338,-3.773792 -8.000005,-2.156245 -1.926154,1.112049 -2.991494,3.141447 -2.937491,5.218744 0.02449,0.944252 0.275761,1.905741 0.78124,2.781258 1.617565,2.801652 5.198315,3.773824 8.000005,2.156244 1.92611,-1.11204 2.98784,-3.14194 2.937504,-5.218747 z M 20.781157,63.999994 c -1e-6,-3.235072 -2.639928,-5.84375 -5.874996,-5.843753 -3.235061,-9e-6 -5.8437641,2.608684 -5.843758,5.843755 -3e-7,3.235081 2.60865,5.843755 5.843757,5.843746 3.235055,1.7e-5 5.874997,-2.608669 5.874997,-5.843748 z" style="fill:#aaaaaa"/>
</svg>