<?xml version="1.0" encoding="UTF-8" standalone="no"?>
<svg xmlns:dc="http://purl.org/dc/elements/1.1/"
     xmlns:cc="http://creativecommons.org/ns#"
     xmlns:rdf="http://www.w3.org/1999/02/22-rdf-syntax-ns#"
     xmlns:svg="http://www.w3.org/2000/svg"
     xmlns="http://www.w3.org/2000/svg"
     xmlns:xlink="http://www.w3.org/1999/xlink"
     width="128" height="128" version="1.1">
    <title>Wireless Connection Stage 2 - 03</title>
    <desc>This is shape (source) for Clarity vector icon theme for gtk</desc>
    <metadata>
        <rdf:RDF>
            <cc:Work rdf:about="">
                <dc:title>Wireless Connection Stage 2 - 03</dc:title>
                <dc:description>This is shape (source) for Clarity vector icon theme for gtk</dc:description>
                <dc:creator>
                    <cc:Agent>
                        <dc:title>Jakub Jankiewicz</dc:title>
                    </cc:Agent>
                </dc:creator>
                <dc:rights>
                    <cc:Agent>
                        <dc:title>Jakub Jankiewicz</dc:title>
                    </cc:Agent>
                </dc:rights>
                <dc:date>2010</dc:date>
                <dc:format>image/svg+xml</dc:format>
                <dc:type rdf:resource="http://purl.org/dc/dcmitype/StillImage" />
                <cc:license rdf:resource="http://www.gnu.org/copyleft/gpl.html" />
             </cc:Work>
        </rdf:RDF>
    </metadata>
    <path d="m 115.82614,34.078138 c -2.97508,-5.152968 -9.54741,-6.936911 -14.70039,-3.961836 -5.152988,2.975081 -6.92129,9.574498 -3.946215,14.727461 2.975045,5.152978 9.574475,6.921279 14.727465,3.946212 5.15296,-2.975084 6.89422,-9.558874 3.91914,-14.711837 z M 94.763828,17.659635 c -0.617783,-1.010719 -1.478941,-1.887804 -2.573338,-2.519651 -3.502067,-2.021941 -7.966467,-0.802482 -9.988379,2.69962 -1.39008,2.40766 -1.257502,5.269322 0.09922,7.484353 0.616676,1.00684 1.478936,1.887791 2.573337,2.519651 3.502076,2.021923 7.982077,0.829528 10.004004,-2.672557 1.390071,-2.407672 1.244277,-5.287836 -0.114844,-7.511416 z m 24.390622,42.245799 c -1.32198,-1.953978 -3.56087,-3.232707 -6.08828,-3.23271 -4.04419,-1.6e-4 -7.31649,3.283605 -7.3165,7.327446 1e-5,1.263704 0.33184,2.450913 0.89541,3.4884 1.23989,2.282461 3.65188,3.828102 6.43203,3.828102 4.0438,-1.2e-5 7.33215,-3.25653 7.33213,-7.300379 0,-1.516438 -0.4616,-2.93847 -1.25479,-4.110859 z M 68.863772,11.611923 c -1.055521,-1.555907 -2.850145,-2.5636836 -4.872075,-2.563681 -3.235023,2.47e-5 -5.850074,2.632286 -5.850078,5.867367 5e-6,1.010939 0.26317,1.969244 0.714043,2.799258 0.991941,1.825949 2.929211,3.050816 5.153322,3.050824 3.235115,2.9e-5 5.850079,-2.632288 5.850078,-5.867367 6.7e-5,-1.21331 -0.36198,-2.352854 -0.995292,-3.286398 z m 42.656248,73.88279 c -0.49182,-0.806086 -1.19169,-1.512521 -2.06721,-2.018008 -2.80165,-1.61754 -6.38877,-0.66902 -8.00632,2.132636 -1.01088,1.751041 -1.03887,3.81048 -0.21583,5.50118 0.49382,1.014392 1.29786,1.898571 2.34846,2.505149 2.80168,1.617534 6.38882,0.669046 8.00632,-2.132636 1.11206,-1.92614 1.01658,-4.214927 -0.0654,-5.988321 z M 69.087834,61.062517 C 67.4703,58.260864 63.879713,57.321645 61.07806,58.939181 c -2.801649,1.617521 -3.783568,5.196688 -2.166024,7.998335 1.61754,2.801662 5.208095,3.740887 8.009774,2.123336 2.801649,-1.617521 3.783564,-5.196674 2.166024,-7.998335 z M 44.513898,18.561704 c -1.617533,-2.801631 -5.181057,-3.756508 -7.982711,-2.138961 -2.801663,1.617541 -3.756501,5.18105 -2.138961,7.982711 1.617533,2.801651 5.196688,3.783561 7.998336,2.166024 2.801666,-1.617543 3.740868,-5.208122 2.123336,-8.009774 z m 49.093749,85.032866 c -1.617511,-2.80163 -5.196675,-3.783573 -7.998332,-2.16602 -2.801659,1.61752 -3.740878,5.20811 -2.12334,8.00977 1.617543,2.80168 5.181055,3.75651 7.98271,2.13896 2.80167,-1.61753 3.756511,-5.18102 2.138962,-7.98271 z M 26.487962,36.402367 c -0.49182,-0.806089 -1.191691,-1.512527 -2.067207,-2.018008 -2.80166,-1.617536 -6.388798,-0.669031 -8.006329,2.132633 -1.1121,1.926159 -1.004342,4.243367 0.08105,6.015383 0.49336,0.80546 1.176072,1.485458 2.051582,1.990945 2.801681,1.617543 6.388779,0.669023 8.006328,-2.132632 1.112057,-1.926144 1.01658,-4.214923 -0.06543,-5.988321 z m 42.375,73.395653 c -1.055519,-1.5559 -2.850142,-2.56367 -4.872073,-2.56368 -3.235025,3e-5 -5.850078,2.63231 -5.850078,5.86736 0,1.01099 0.247541,1.9422 0.698414,2.77221 0.991935,1.82592 2.944825,3.07789 5.168924,3.07792 3.23511,3e-5 5.850088,-2.63228 5.85008,-5.86737 6.8e-5,-1.2133 -0.36198,-2.35285 -0.995292,-3.2864 z M 19.770319,60.704567 c -1.055514,-1.555922 -2.850147,-2.563679 -4.872075,-2.563681 -3.235493,-1.78e-4 -5.8501119,2.632291 -5.8500788,5.867367 -3.2e-5,1.010964 0.263151,1.969289 0.7140427,2.799258 0.9919081,1.825974 2.9291881,3.050822 5.1533271,3.050815 3.234563,-2.11e-4 5.850091,-2.632284 5.850079,-5.867366 7e-6,-1.213167 -0.36199,-2.352843 -0.995293,-3.286397 z M 44.45782,103.46457 c -0.49182,-0.80609 -1.191689,-1.51253 -2.067208,-2.01801 -2.801667,-1.61753 -6.388789,-0.66903 -8.00633,2.13264 -1.112074,1.92614 -1.019986,4.21632 0.06543,5.98831 0.493338,0.8055 1.191687,1.51254 2.067203,2.01802 2.801678,1.61752 6.388785,0.66907 8.006329,-2.13264 1.11204,-1.92611 1.016576,-4.21492 -0.06542,-5.98832 z M 26.571402,85.609388 c -1.617537,-2.801654 -5.20812,-3.740872 -8.009773,-2.12334 -2.801649,1.617522 -3.756506,5.181068 -2.138965,7.982719 1.61754,2.801662 5.181035,3.756515 7.982715,2.138953 2.801648,-1.617512 3.783562,-5.196671 2.166023,-7.998332 z" style="fill:#aaaaaa"/>
</svg>