<?xml version="1.0" encoding="UTF-8" standalone="no"?>
<svg xmlns:dc="http://purl.org/dc/elements/1.1/"
     xmlns:cc="http://creativecommons.org/ns#"
     xmlns:rdf="http://www.w3.org/1999/02/22-rdf-syntax-ns#"
     xmlns:svg="http://www.w3.org/2000/svg"
     xmlns="http://www.w3.org/2000/svg"
     xmlns:xlink="http://www.w3.org/1999/xlink"
     width="128" height="128" version="1.1">
    <title>Wireless Connection Stage 1 - 09</title>
    <desc>This is shape (source) for Clarity vector icon theme for gtk</desc>
    <metadata>
        <rdf:RDF>
            <cc:Work rdf:about="">
                <dc:title>Wireless Connection Stage 1 - 09</dc:title>
                <dc:description>This is shape (source) for Clarity vector icon theme for gtk</dc:description>
                <dc:creator>
                    <cc:Agent>
                        <dc:title>Jakub Jankiewicz</dc:title>
                    </cc:Agent>
                </dc:creator>
                <dc:rights>
                    <cc:Agent>
                        <dc:title>Jakub Jankiewicz</dc:title>
                    </cc:Agent>
                </dc:rights>
                <dc:date>2010</dc:date>
                <dc:format>image/svg+xml</dc:format>
                <dc:type rdf:resource="http://purl.org/dc/dcmitype/StillImage" />
                <cc:license rdf:resource="http://www.gnu.org/copyleft/gpl.html" />
             </cc:Work>
        </rdf:RDF>
    </metadata>
    <path d="m 111.57725,36.531189 c 1.61754,2.801651 0.66269,6.365181 -2.13896,7.982703 -2.80166,1.617536 -6.39225,0.678326 -8.00978,-2.123327 -1.617545,-2.80166 -0.63564,-6.380813 2.16602,-7.998337 2.80167,-1.617549 6.36518,-0.6627 7.98272,2.138961 z m 6.66045,24.661248 c 0.45089,0.829971 0.71405,1.7883 0.71403,2.799264 2e-5,3.235078 -2.61458,5.86754 -5.85006,5.867358 -3.23509,-2e-6 -5.86739,-2.614956 -5.86737,-5.850072 -2e-5,-3.23508 2.6155,-5.867146 5.85007,-5.867361 2.22413,-1e-6 4.16142,1.224843 5.15334,3.050812 z M 93.550209,18.432436 c 1.085412,1.77199 1.177481,4.062171 0.06541,5.98832 -1.61754,2.801662 -5.204651,3.750159 -8.006325,2.132631 -2.801652,-1.617541 -3.750164,-5.204669 -2.132636,-8.006301 1.617548,-2.8017 5.204666,-3.7502 8.006336,-2.132659 0.875512,0.505481 1.573859,1.212529 2.067208,2.018009 z m 17.954231,67.035133 c 1.08538,1.772017 1.1931,4.089238 0.081,6.015389 -1.61753,2.801662 -5.20467,3.750175 -8.00632,2.132637 -2.80165,-1.617536 -3.75018,-5.204676 -2.13264,-8.006339 1.61755,-2.801653 5.20466,-3.750172 8.00633,-2.132634 0.87551,0.505489 1.55823,1.185483 2.05159,1.990942 z M 69.160679,12.126034 c 0.450884,0.829996 0.698417,1.761231 0.698422,2.772216 -4e-6,3.235056 -2.615043,5.867338 -5.850071,5.867374 -3.235085,-2.1e-5 -5.867552,-2.614605 -5.867371,-5.850076 -1.1e-5,-3.235096 2.61496,-5.8674036 5.850068,-5.8673734 2.224132,-6.3e-6 4.177041,1.2519134 5.168971,3.0778374 z m 24.447007,91.468456 c 1.617539,2.80166 0.662699,6.36517 -2.138965,7.98271 -2.801652,1.61755 -6.365169,0.66268 -7.982702,-2.13895 -1.617532,-2.80165 -0.678332,-6.39224 2.123336,-8.00978 2.801647,-1.61754 6.380796,-0.63563 7.998331,2.16602 z M 44.513934,18.561618 c 1.617536,2.801666 0.678328,6.392258 -2.123331,8.009777 -2.801664,1.617545 -6.380812,0.63563 -7.998327,-2.166008 -1.617546,-2.801671 -0.662718,-6.365181 2.138954,-7.982719 2.801655,-1.61755 6.365167,-0.662713 7.982704,2.13895 z m 24.63032,91.723452 c 0.450873,0.83001 0.714034,1.78832 0.71404,2.79926 -6e-6,3.23508 -2.615048,5.86734 -5.85007,5.86737 -3.235089,0 -5.867556,-2.61458 -5.867376,-5.85007 0,-3.23508 2.614963,-5.8674 5.85008,-5.86737 2.22411,0 4.161397,1.22485 5.153338,3.0508 z M 26.769257,36.889425 c 0.82304,1.690692 0.79506,3.750147 -0.215819,5.50119 -1.61755,2.801656 -5.204691,3.750163 -8.006341,2.132628 -2.80165,-1.617543 -3.75016,-5.204657 -2.13262,-8.006313 1.61751,-2.801679 5.20465,-3.750189 8.00633,-2.132655 1.0506,0.606575 1.854631,1.490754 2.34845,2.50515 z m 18.92932,65.786565 c 1.356724,2.21503 1.489299,5.07669 0.09922,7.48435 -2.021913,3.5021 -6.486302,4.72155 -9.988369,2.69961 -3.502071,-2.02191 -4.710118,-6.52898 -2.688196,-10.03105 2.021927,-3.502084 6.501934,-4.694481 10.00401,-2.67256 1.094401,0.63186 1.956652,1.51282 2.573329,2.51966 z M 21.354847,60.51138 c 0.563567,1.037486 0.8954,2.224697 0.895411,3.488402 -1.3e-5,4.043839 -3.272331,7.327598 -7.31652,7.327436 -4.043843,-10e-7 -7.3430517,-3.299719 -7.3430638,-7.34356 -1.86e-5,-4.043851 3.2883348,-7.300375 7.3321368,-7.300386 2.78015,0 5.192117,1.545647 6.432004,3.828112 z m 9.465523,22.644811 c 2.975076,5.152964 1.206786,11.752372 -3.9462,14.727454 C 21.721185,100.85872 15.148851,99.074777 12.173765,93.921807 9.1986917,88.768844 10.939946,82.18505 16.092913,79.209968 21.245897,76.234899 27.84532,78.003213 30.82037,83.156191 z" style="fill:#aaaaaa"/>
</svg>