<?xml version="1.0" encoding="UTF-8" standalone="no"?>
<svg xmlns:dc="http://purl.org/dc/elements/1.1/"
     xmlns:cc="http://creativecommons.org/ns#"
     xmlns:rdf="http://www.w3.org/1999/02/22-rdf-syntax-ns#"
     xmlns:svg="http://www.w3.org/2000/svg"
     xmlns="http://www.w3.org/2000/svg"
     xmlns:xlink="http://www.w3.org/1999/xlink"
     width="128" height="128" version="1.1">
    <title>Wireless Connection Stage 1 - 08</title>
    <desc>This is shape (source) for Clarity vector icon theme for gtk</desc>
    <metadata>
        <rdf:RDF>
            <cc:Work rdf:about="">
                <dc:title>Wireless Connection Stage 1 - 08</dc:title>
                <dc:description>This is shape (source) for Clarity vector icon theme for gtk</dc:description>
                <dc:creator>
                    <cc:Agent>
                        <dc:title>Jakub Jankiewicz</dc:title>
                    </cc:Agent>
                </dc:creator>
                <dc:rights>
                    <cc:Agent>
                        <dc:title>Jakub Jankiewicz</dc:title>
                    </cc:Agent>
                </dc:rights>
                <dc:date>2010</dc:date>
                <dc:format>image/svg+xml</dc:format>
                <dc:type rdf:resource="http://purl.org/dc/dcmitype/StillImage" />
                <cc:license rdf:resource="http://www.gnu.org/copyleft/gpl.html" />
             </cc:Work>
        </rdf:RDF>
    </metadata>
    <path d="m 91.468718,16.422665 c 2.801658,1.61753 3.756499,5.181062 2.138961,7.982701 -1.617542,2.801659 -5.196689,3.783574 -7.998343,2.166039 -2.801661,-1.617539 -3.740879,-5.20813 -2.123332,-8.009778 1.61754,-2.801671 5.181054,-3.756502 7.982714,-2.138962 z m 18.098742,18.027043 c 0.80547,0.493329 1.51254,1.191685 2.018,2.067218 1.61756,2.801648 0.66948,6.388728 -2.13262,8.00631 -2.80167,1.617543 -6.38879,0.669079 -8.00633,-2.132624 -1.617551,-2.801655 -0.66848,-6.388849 2.13263,-8.006319 1.92615,-1.112065 4.21632,-1.019967 5.98833,0.06541 z M 66.807467,9.7622053 c 1.825989,0.9918817 3.050814,2.9292027 3.050807,5.1533317 0,3.23508 -2.63228,5.850058 -5.867365,5.850075 -3.235072,-6e-6 -5.850072,-2.632294 -5.850067,-5.867342 -1.3e-5,-3.235117 2.632273,-5.8501017 5.867361,-5.850105 1.010956,3.3e-6 1.969266,0.2631515 2.799259,0.7140431 z M 115.87385,58.839219 c 1.82598,0.99192 3.07788,2.944831 3.07784,5.168982 1e-5,3.235075 -2.63229,5.850082 -5.86736,5.850079 -3.23507,-10e-7 -5.85009,-2.632291 -5.85009,-5.867373 1e-5,-3.235076 2.63228,-5.850074 5.86737,-5.850081 1.01096,1e-5 1.94221,0.247542 2.7722,0.698411 z M 42.532313,16.495466 c 0.805475,0.493355 1.485463,1.176062 1.990959,2.051598 1.617525,2.801643 0.668976,6.388785 -2.132623,8.006331 -2.801676,1.617524 -6.388751,0.669461 -8.00633,-2.132629 -1.617557,-2.80167 -0.66908,-6.388801 2.132621,-8.006329 1.926151,-1.112071 4.24338,-1.004331 6.015379,0.081 z m 66.905957,66.990502 c 2.80166,1.61754 3.7565,5.181052 2.13896,7.982717 -1.61753,2.80166 -5.18106,3.75648 -7.9827,2.138963 -2.80165,-1.617536 -3.783574,-5.196679 -2.16603,-7.998346 1.61753,-2.80165 5.20812,-3.740863 8.00977,-2.123334 z M 24.405398,34.392217 c 2.80166,1.617546 3.783578,5.196694 2.16603,7.998336 -1.61754,2.801667 -5.20813,3.740878 -8.009759,2.123346 -2.801671,-1.617545 -3.756521,-5.18105 -2.138971,-7.982715 1.61753,-2.801667 5.18104,-3.756509 7.9827,-2.138967 z m 67.19221,67.119683 c 0.805471,0.49337 1.51253,1.19171 2.018007,2.06721 1.617532,2.80166 0.668972,6.38879 -2.132628,8.00632 -2.801666,1.61755 -6.38874,0.66949 -8.006331,-2.13262 -1.617539,-2.80166 -0.669076,-6.3888 2.132634,-8.00633 1.926139,-1.11205 4.216299,-1.01995 5.988321,0.0654 z M 18.20196,59.136902 c 1.55812,1.052662 2.563616,2.850193 2.56369,4.87208 -1.1e-5,3.235081 -2.632313,5.850082 -5.86738,5.85008 -3.235072,-8e-6 -5.8500626,-2.632285 -5.8500603,-5.86736 -3.39e-5,-3.23508 2.6322653,-5.850084 5.8673583,-5.850098 1.213134,9e-6 2.351534,0.363715 3.286392,0.995298 z m 49.286556,47.508178 c 2.282472,1.23991 3.828113,3.65189 3.8281,6.43203 1.9e-5,4.04386 -3.256529,7.33213 -7.30038,7.33211 -4.043837,10e-6 -7.34357,-3.2992 -7.343567,-7.34304 -4e-6,-4.04386 3.283597,-7.31651 7.327447,-7.31651 1.263705,0 2.450917,0.33181 3.488395,0.89542 z M 25.323921,82.30132 c 1.006806,0.616706 1.887788,1.478944 2.51965,2.57334 2.021908,3.502073 0.829877,7.982051 -2.672574,10.004005 -3.502072,2.021921 -8.009129,0.813886 -10.03106,-2.688177 -2.021942,-3.502069 -0.802406,-7.966478 2.699624,-9.988388 2.40768,-1.390075 5.269328,-1.257489 7.484335,0.09924 z M 44.84371,97.179541 c 5.152973,2.975059 6.921293,9.574459 3.946218,14.727449 -2.97508,5.15298 -9.558859,6.89421 -14.711844,3.91915 -5.15297,-2.97506 -6.936897,-9.54742 -3.961837,-14.7004 2.97508,-5.152978 9.574505,-6.921284 14.727463,-3.946199 z" style="fill:#aaaaaa"/>
</svg>