<?xml version="1.0" encoding="UTF-8" standalone="no"?>
<svg xmlns:dc="http://purl.org/dc/elements/1.1/"
     xmlns:cc="http://creativecommons.org/ns#"
     xmlns:rdf="http://www.w3.org/1999/02/22-rdf-syntax-ns#"
     xmlns:svg="http://www.w3.org/2000/svg"
     xmlns="http://www.w3.org/2000/svg"
     xmlns:xlink="http://www.w3.org/1999/xlink"
     width="128" height="128" version="1.1">
    <title>Wireless Signal 100</title>
    <desc>This is shape (source) for Clarity vector icon theme for gtk</desc>
    <metadata>
        <rdf:RDF>
            <cc:Work rdf:about="">
                <dc:title>Wireless Signal 100</dc:title>
                <dc:description>This is shape (source) for Clarity vector icon theme for gtk</dc:description>
                <dc:creator>
                    <cc:Agent>
                        <dc:title>Jakub Jankiewicz</dc:title>
                    </cc:Agent>
                </dc:creator>
                <dc:rights>
                    <cc:Agent>
                        <dc:title>Jakub Jankiewicz</dc:title>
                    </cc:Agent>
                </dc:rights>
                <dc:date>2010</dc:date>
                <dc:format>image/svg+xml</dc:format>
                <dc:type rdf:resource="http://purl.org/dc/dcmitype/StillImage" />
                <cc:license rdf:resource="http://www.gnu.org/copyleft/gpl.html" />
             </cc:Work>
        </rdf:RDF>
    </metadata>
    <path d="m 64,21.600141 c -24.466421,0 -46.551362,10.330275 -62.1749385,26.834716 l 9.4784605,8.850749 C 24.516624,43.34288 43.216313,34.656565 64,34.656565 c 20.78015,0 39.47385,8.69047 52.69648,22.629041 l 9.47846,-8.850748 C 110.55137,31.930416 88.466421,21.600141 64,21.600141 z m 0,23.382297 c -17.716039,0 -33.716967,7.462343 -45.069768,19.396322 l 9.47846,8.850749 C 37.357696,63.86366 49.969991,58.038862 64,58.038862 c 14.030006,0 26.635351,5.824798 35.591307,15.190647 L 109.10115,64.37876 C 97.740925,52.440004 81.720093,44.982438 64,44.982438 z m 0,25.171278 c -10.451019,0 -19.917755,4.383005 -26.677789,11.392986 l 9.509848,8.850748 C 51.18036,85.96107 57.240917,83.210139 64,83.210139 c 6.752602,0 12.813677,2.758436 17.167941,7.187311 l 9.509847,-8.850749 C 83.917751,74.536721 74.451018,70.153715 64,70.153715 z m 0,22.723199 c -3.932712,0 -7.477633,1.585733 -10.074788,4.142903 L 64,106.40412 74.074788,97.019818 C 71.477734,94.46335 67.932102,92.876915 64,92.876915 z" style="fill:#aaaaaa"/>
</svg>