<?xml version="1.0" encoding="UTF-8" standalone="no"?>
<svg xmlns:dc="http://purl.org/dc/elements/1.1/"
     xmlns:cc="http://creativecommons.org/ns#"
     xmlns:rdf="http://www.w3.org/1999/02/22-rdf-syntax-ns#"
     xmlns:svg="http://www.w3.org/2000/svg"
     xmlns="http://www.w3.org/2000/svg"
     xmlns:xlink="http://www.w3.org/1999/xlink"
     width="128" height="128" version="1.1">
    <title>Wireless Connection Stage 2 - 07</title>
    <desc>This is shape (source) for Clarity vector icon theme for gtk</desc>
    <metadata>
        <rdf:RDF>
            <cc:Work rdf:about="">
                <dc:title>Wireless Connection Stage 2 - 07</dc:title>
                <dc:description>This is shape (source) for Clarity vector icon theme for gtk</dc:description>
                <dc:creator>
                    <cc:Agent>
                        <dc:title>Jakub Jankiewicz</dc:title>
                    </cc:Agent>
                </dc:creator>
                <dc:rights>
                    <cc:Agent>
                        <dc:title>Jakub Jankiewicz</dc:title>
                    </cc:Agent>
                </dc:rights>
                <dc:date>2010</dc:date>
                <dc:format>image/svg+xml</dc:format>
                <dc:type rdf:resource="http://purl.org/dc/dcmitype/StillImage" />
                <cc:license rdf:resource="http://www.gnu.org/copyleft/gpl.html" />
             </cc:Work>
        </rdf:RDF>
    </metadata>
    <path d="m 63.999909,123.84364 c 5.95014,-10e-6 10.781252,-4.79984 10.781248,-10.74999 -10e-7,-5.95016 -4.831112,-10.78126 -10.781247,-10.78125 -5.950133,-3e-5 -10.781239,4.8311 -10.781252,10.78125 1.9e-5,5.95014 4.831118,10.75001 10.781251,10.74999 z m 24.75,-10.03124 c 1.184202,-0.0297 2.374361,-0.3369 3.468757,-0.96874 3.502079,-2.02192 4.678196,-6.49794 2.656241,-10.00001 -1.390052,-2.40768 -3.934612,-3.723691 -6.531251,-3.656261 -1.180281,0.03065 -2.374335,0.33691 -3.46875,0.968751 -3.502069,2.02193 -4.709427,6.49791 -2.68749,10.00001 1.390068,2.40767 3.957259,3.72149 6.562495,3.65625 z m -48.781242,0 c 2.353176,-0.16787 4.580033,-1.46745 5.843749,-3.65625 2.022228,-3.5023 0.814556,-7.97807 -2.687507,-10 -1.094405,-0.631845 -2.288474,-0.938077 -3.468749,-0.968755 -2.596619,-0.06744 -5.141171,1.248575 -6.531249,3.656255 -2.021891,3.50203 -0.845833,7.97808 2.656249,10 1.313266,0.75822 2.775583,1.06947 4.187504,0.96875 z M 106.93741,94.406145 c 1.87522,-0.136151 3.64529,-1.18645 4.65625,-2.9375 1.61749,-2.801621 0.64541,-6.38245 -2.15625,-8.000001 -0.8755,-0.505458 -1.837,-0.756708 -2.78125,-0.781243 -2.07729,-0.05393 -4.10669,1.01136 -5.21874,2.937521 -1.617581,2.801676 -0.64541,6.382458 2.15625,7.999993 1.05072,0.606712 2.21862,0.862946 3.34375,0.781252 z m -85.312496,2e-6 c 0.943997,-0.02289 1.905722,-0.275776 2.781251,-0.781253 2.801657,-1.617529 3.773775,-5.198326 2.156233,-7.999988 -1.010993,-1.750973 -2.780532,-2.804937 -4.656236,-2.93751 -1.125403,-0.07953 -2.293139,0.174695 -3.343756,0.78125 -2.801662,1.617561 -3.773819,5.198358 -2.156243,7.999994 1.112059,1.926144 3.141944,2.987848 5.21874,2.937524 z M 63.999908,69.874894 c 3.23507,10e-7 5.843752,-2.639928 5.84375,-5.875 1.1e-5,-3.235059 -2.60868,-5.87501 -5.843749,-5.874998 -3.23508,0 -5.843751,2.639898 -5.843749,5.874999 -1.1e-5,3.235061 2.608668,5.874999 5.843748,5.874999 z m 49.093752,-0.03125 c 3.23505,-9e-6 5.84376,-2.608672 5.84375,-5.84375 0,-3.235082 -2.60867,-5.843751 -5.84375,-5.84375 -3.23507,-10e-7 -5.875,2.608682 -5.875,5.843752 0,3.235084 2.63993,5.843747 5.875,5.843748 z m -98.187498,2e-6 c 3.235037,10e-6 5.875009,-2.608666 5.874995,-5.843751 1.8e-5,-3.235067 -2.639915,-5.843749 -5.874995,-5.84375 -3.235096,-8e-6 -5.8437601,2.608671 -5.8437491,5.84375 -1.07e-5,3.235082 2.6086431,5.843742 5.8437491,5.843751 z M 106.65616,45.312398 c 0.944,-0.02288 1.90573,-0.275771 2.78125,-0.78125 2.80166,-1.617542 3.7738,-5.198346 2.15625,-8.000002 -1.11205,-1.926185 -3.17269,-2.991468 -5.25,-2.9375 -0.94423,0.02453 -1.87448,0.275778 -2.75,0.78125 -2.80167,1.617555 -3.77378,5.198332 -2.15625,7.999998 1.11206,1.926143 3.14194,2.987847 5.21875,2.937497 z m -84.749995,0 c 1.875199,-0.136158 3.645269,-1.186462 4.656239,-2.937499 1.617491,-2.80163 0.6454,-6.382472 -2.15624,-7.999997 -0.87554,-0.505494 -1.80576,-0.756724 -2.75001,-0.781261 -2.07726,-0.05392 -4.13794,1.011348 -5.250022,2.937456 -1.61758,2.801672 -0.64542,6.382465 2.15625,8.000003 1.05072,0.606709 2.21862,0.862941 3.343751,0.781252 z M 88.968659,27.343647 c 1.875225,-0.136141 3.645285,-1.186459 4.656251,-2.937499 1.617899,-2.801931 0.645425,-6.382491 -2.15625,-8 -0.875504,-0.50551 -1.83703,-0.756749 -2.78125,-0.781251 -2.077294,-0.05397 -4.106683,1.011341 -5.218747,2.937505 -1.617099,2.801319 -0.645421,6.382469 2.156249,8 1.05063,0.606589 2.218616,0.862927 3.343749,0.781249 z m -49.375,2e-6 c 0.944006,-0.02288 1.905735,-0.275767 2.781253,-0.781249 2.801655,-1.617551 3.773791,-5.198338 2.156244,-8.000006 -1.112049,-1.926153 -3.141447,-2.991494 -5.218744,-2.937491 -0.944251,0.02449 -1.90574,0.275761 -2.781257,0.781239 -2.801652,1.617566 -3.773824,5.198315 -2.156244,8.000006 1.11204,1.926109 3.14194,2.987839 5.218747,2.937504 z m 24.406252,-6.562501 c 3.235071,-2e-6 5.843749,-2.639929 5.843753,-5.874996 8e-6,-3.235062 -2.608685,-5.8437646 -5.843757,-5.8437585 -3.235079,2e-7 -5.843753,2.6086505 -5.843746,5.8437565 -1.6e-5,3.235056 2.608671,5.874997 5.84375,5.874998 z" style="fill:#aaaaaa"/>
</svg>