<?xml version="1.0" encoding="UTF-8" standalone="no"?>
<svg xmlns:dc="http://purl.org/dc/elements/1.1/"
     xmlns:cc="http://creativecommons.org/ns#"
     xmlns:rdf="http://www.w3.org/1999/02/22-rdf-syntax-ns#"
     xmlns:svg="http://www.w3.org/2000/svg"
     xmlns="http://www.w3.org/2000/svg"
     xmlns:xlink="http://www.w3.org/1999/xlink"
     width="128" height="128" version="1.1">
    <title>Rain Icon</title>
    <desc>This is shape (source) for Clarity vector icon theme for gtk</desc>
    <metadata>
        <rdf:RDF>
            <cc:Work rdf:about="">
                <dc:title>Rain Icon</dc:title>
                <dc:description>This is shape (source) for Clarity vector icon theme for gtk</dc:description>
                <dc:creator>
                    <cc:Agent>
                        <dc:title>Jakub Jankiewicz</dc:title>
                    </cc:Agent>
                </dc:creator>
                <dc:rights>
                    <cc:Agent>
                        <dc:title>Jakub Jankiewicz</dc:title>
                    </cc:Agent>
                </dc:rights>
                <dc:date>2010</dc:date>
                <dc:format>image/svg+xml</dc:format>
                <dc:type rdf:resource="http://purl.org/dc/dcmitype/StillImage" />
                <cc:license rdf:resource="http://www.gnu.org/copyleft/gpl.html" />
             </cc:Work>
        </rdf:RDF>
    </metadata>
    <path d="m 48.426768,14.152746 c -13.07152,0 -23.65625,10.615966 -23.65625,23.6875 0,0.343533 0.01685,0.660034 0.03125,1 -3.32737,1.210585 -5.6875,4.410375 -5.6875,8.15625 0,4.786759 3.8695,8.65625 8.65625,8.65625 1.46134,0 2.82348,-0.330062 4.03125,-0.96875 4.27417,4.219274 10.14461,6.8125 16.625,6.8125 l 50.84375,0 c 7.640392,0 13.843752,-6.172097 13.843752,-13.8125 0,-7.640405 -6.20336,-13.84375 -13.843752,-13.84375 -2.38763,0 -4.63353,0.5914 -6.59375,1.65625 -1.59054,-6.870021 -7.70889,-12 -15.0625,-12 -3.18854,0 -6.161,0.974373 -8.625,2.625 -4.0761,-7.136244 -11.75572,-11.96875 -20.5625,-11.96875 z m -14.40625,49.15625 -5.46875,9.4375 c -1.56993,2.69849 -1.38747,6.5555 1.65625,7.25 3.04371,0.69449 5.03381,-3.07706 4.75,-6.21875 l -0.9375,-10.46875 z m 59.90625,2.59375 -4.53125,7.8125 c -1.29879,2.232436 -1.14304,5.425452 1.375,6 2.51804,0.574546 4.17229,-2.557161 3.9375,-5.15625 l -0.78125,-8.65625 z m -32.78125,0.6875 -4.53125,7.78125 c -1.29878,2.232437 -1.14304,5.425452 1.375,6 2.51803,0.574547 4.17229,-2.52591 3.9375,-5.125 l -0.78125,-8.65625 z m -38.1875,14.375 -3.125,5.375 c -0.89334,1.535531 -0.79448,3.72981 0.9375,4.125 1.73196,0.395189 2.88025,-1.743524 2.71875,-3.53125 l -0.53125,-5.96875 z m 66.28125,1.21875 -4.53125,7.78125 c -1.29879,2.232436 -1.14304,5.42545 1.375,6 2.51803,0.57454 4.1723,-2.525906 3.9375,-5.125 l -0.78125,-8.65625 z m -34.59375,1.75 -4.53125,7.78125 c -1.29879,2.23243 -1.14304,5.425453 1.375,6 2.51803,0.57454 4.1723,-2.52592 3.9375,-5.125 l -0.78125,-8.65625 z m -35.3125,13.03125 -3.78125,6.500004 c -1.08339,1.86221 -0.9442,4.52073 1.15625,5 2.10044,0.47927 3.47711,-2.1132 3.28125,-4.28125 l -0.65625,-7.218754 z m 28.0625,1.78125 -3.78125,6.500004 c -1.08339,1.86221 -0.9442,4.52073 1.15625,5 2.10044,0.47926 3.4771,-2.1132 3.28125,-4.28125 l -0.65625,-7.218754 z m 33.875,1.25 -4.53125,7.781254 c -1.29879,2.23243 -1.14304,5.42545 1.375,6 2.51803,0.57454 4.1723,-2.52592 3.9375,-5.125 l -0.78125,-8.656254 z" style="fill:#aaaaaa"/>
</svg>