<?xml version="1.0" encoding="UTF-8" standalone="no"?>
<svg xmlns:dc="http://purl.org/dc/elements/1.1/"
     xmlns:cc="http://creativecommons.org/ns#"
     xmlns:rdf="http://www.w3.org/1999/02/22-rdf-syntax-ns#"
     xmlns:svg="http://www.w3.org/2000/svg"
     xmlns="http://www.w3.org/2000/svg"
     xmlns:xlink="http://www.w3.org/1999/xlink"
     width="128" height="128" version="1.1">
    <title>Double Cloud Icon</title>
    <desc>This is shape (source) for Clarity vector icon theme for gtk</desc>
    <metadata>
        <rdf:RDF>
            <cc:Work rdf:about="">
                <dc:title>Double Cloud Icon</dc:title>
                <dc:description>This is shape (source) for Clarity vector icon theme for gtk</dc:description>
                <dc:creator>
                    <cc:Agent>
                        <dc:title>Jakub Jankiewicz</dc:title>
                    </cc:Agent>
                </dc:creator>
                <dc:rights>
                    <cc:Agent>
                        <dc:title>Jakub Jankiewicz</dc:title>
                    </cc:Agent>
                </dc:rights>
                <dc:date>2010</dc:date>
                <dc:format>image/svg+xml</dc:format>
                <dc:type rdf:resource="http://purl.org/dc/dcmitype/StillImage" />
                <cc:license rdf:resource="http://www.gnu.org/copyleft/gpl.html" />
             </cc:Work>
        </rdf:RDF>
    </metadata>
    <path d="m 54.1875,26.421875 c -13.071528,0 -23.65625,10.615967 -23.65625,23.6875 0,0.343533 0.01681,0.660034 0.03125,1 -1.800616,0.65511 -3.294652,1.910532 -4.3125,3.5 3.643403,-1.925447 7.781577,-3.03125 12.1875,-3.03125 8.879239,0 16.604364,4.523102 21.375,11.28125 2.396524,-1.148632 5.001597,-1.9375 7.8125,-1.9375 7.531136,0 13.980065,4.596693 16.71875,11.15625 1.568933,-0.500731 3.203429,-0.84375 4.9375,-0.84375 3.212665,0 6.209117,0.930982 8.75,2.53125 l 7,0 c 7.6404,0 13.84375,-6.1721 13.84375,-13.8125 0,-7.640405 -6.20335,-13.875 -13.84375,-13.875 -2.38763,0 -4.63354,0.62265 -6.59375,1.6875 -1.590541,-6.870021 -7.740146,-12 -15.09375,-12 -3.188539,0 -6.129745,0.943123 -8.59375,2.59375 -4.076129,-7.136244 -11.755724,-11.9375 -20.5625,-11.9375 z m -15.75,27.8125 c -13.071528,0 -23.65625,10.615967 -23.65625,23.6875 0,0.343533 0.01681,0.660034 0.03125,1 -3.327378,1.210585 -5.6875,4.410375 -5.6875,8.15625 0,4.78676 3.869495,8.65625 8.65625,8.65625 1.461333,0 2.823482,-0.33006 4.03125,-0.96875 4.274176,4.21928 10.144609,6.812505 16.625,6.812505 l 50.84375,0 c 7.640406,0 13.84375,-6.203355 13.84375,-13.843755 0,-7.640405 -6.203344,-13.84375 -13.84375,-13.84375 -2.387626,0 -4.633537,0.62265 -6.59375,1.6875 -1.590541,-6.870021 -7.708896,-12 -15.0625,-12 -3.188539,0 -6.160995,0.943123 -8.625,2.59375 -4.076129,-7.136244 -11.755724,-11.9375 -20.5625,-11.9375 z" style="fill:#aaaaaa"/>
</svg>