<?xml version="1.0" encoding="UTF-8" standalone="no"?>
<svg xmlns:dc="http://purl.org/dc/elements/1.1/"
     xmlns:cc="http://creativecommons.org/ns#"
     xmlns:rdf="http://www.w3.org/1999/02/22-rdf-syntax-ns#"
     xmlns:svg="http://www.w3.org/2000/svg"
     xmlns="http://www.w3.org/2000/svg"
     xmlns:xlink="http://www.w3.org/1999/xlink"
     width="128" height="128" version="1.1">
    <title>Moon and Cloud Icon</title>
    <desc>This is shape (source) for Clarity vector icon theme for gtk</desc>
    <metadata>
        <rdf:RDF>
            <cc:Work rdf:about="">
                <dc:title>Moon and Cloud Icon</dc:title>
                <dc:description>This is shape (source) for Clarity vector icon theme for gtk</dc:description>
                <dc:creator>
                    <cc:Agent>
                        <dc:title>Jakub Jankiewicz</dc:title>
                    </cc:Agent>
                </dc:creator>
                <dc:rights>
                    <cc:Agent>
                        <dc:title>Jakub Jankiewicz</dc:title>
                    </cc:Agent>
                </dc:rights>
                <dc:date>2010</dc:date>
                <dc:format>image/svg+xml</dc:format>
                <dc:type rdf:resource="http://purl.org/dc/dcmitype/StillImage" />
                <cc:license rdf:resource="http://www.gnu.org/copyleft/gpl.html" />
             </cc:Work>
        </rdf:RDF>
    </metadata>
    <path d="M 38.9375,20.4375 C 23.054774,27.556508 11.96875,43.467961 11.96875,62 c 0,25.164095 20.398401,45.5625 45.5625,45.5625 11.86939,0 22.675035,-4.53167 30.78125,-11.96875 l -34.9375,0 c -6.346264,0 -12.090099,-2.411646 -16.53125,-6.28125 -1.109754,0.373227 -2.293911,0.625 -3.5,0.625 -5.91941,0 -10.75,-4.830587 -10.75,-10.75 0,-4.00739 2.257534,-7.427703 5.53125,-9.28125 0.116825,-7.041229 3.125775,-13.407036 7.875,-17.9375 -1.010211,-3.770397 -1.5625,-7.723335 -1.5625,-11.8125 0,-7.067208 1.628352,-13.749477 4.5,-19.71875 z M 53.375,47.375 c -12.663487,0 -22.90625,10.274009 -22.90625,22.9375 0,0.332808 -0.01399,0.639397 0,0.96875 -3.223511,1.172795 -5.5,4.277306 -5.5,7.90625 0,4.637333 3.737669,8.375 8.375,8.375 1.415717,0 2.767435,-0.318747 3.9375,-0.9375 4.140754,4.087571 9.815651,6.59375 16.09375,6.59375 l 49.25,0 c 7.4019,0 13.40625,-5.973103 13.40625,-13.375 0,-7.401902 -6.00435,-13.4375 -13.40625,-13.4375 -2.3131,0 -4.47598,0.59339 -6.375,1.625 -1.54089,-6.655566 -7.500947,-11.625 -14.625,-11.625 -3.089005,0 -5.925412,0.932149 -8.3125,2.53125 C 69.363615,52.024021 61.906863,47.375 53.375,47.375 z" style="fill:#aaaaaa"/>
</svg>