<?xml version="1.0" encoding="UTF-8" standalone="no"?>
<svg xmlns:dc="http://purl.org/dc/elements/1.1/"
     xmlns:cc="http://creativecommons.org/ns#"
     xmlns:rdf="http://www.w3.org/1999/02/22-rdf-syntax-ns#"
     xmlns:svg="http://www.w3.org/2000/svg"
     xmlns="http://www.w3.org/2000/svg"
     xmlns:xlink="http://www.w3.org/1999/xlink"
     width="128" height="128" version="1.1">
    <title>Snow Icon</title>
    <desc>This is shape (source) for Clarity vector icon theme for gtk</desc>
    <metadata>
        <rdf:RDF>
            <cc:Work rdf:about="">
                <dc:title>Snow Icon</dc:title>
                <dc:description>This is shape (source) for Clarity vector icon theme for gtk</dc:description>
                <dc:creator>
                    <cc:Agent>
                        <dc:title>Jakub Jankiewicz</dc:title>
                    </cc:Agent>
                </dc:creator>
                <dc:rights>
                    <cc:Agent>
                        <dc:title>Jakub Jankiewicz</dc:title>
                    </cc:Agent>
                </dc:rights>
                <dc:date>2010</dc:date>
                <dc:format>image/svg+xml</dc:format>
                <dc:type rdf:resource="http://purl.org/dc/dcmitype/StillImage" />
                <cc:license rdf:resource="http://www.gnu.org/copyleft/gpl.html" />
             </cc:Work>
        </rdf:RDF>
    </metadata>
    <path d="M 48.0625 14.71875 C 34.99098 14.71875 24.40625 25.334716 24.40625 38.40625 C 24.40625 38.749783 24.4231 39.066284 24.4375 39.40625 C 21.11013 40.616835 18.75 43.816625 18.75 47.5625 C 18.75 52.349259 22.6195 56.21875 27.40625 56.21875 C 28.86759 56.21875 30.22973 55.888688 31.4375 55.25 C 35.71167 59.469274 41.58211 62.0625 48.0625 62.0625 L 98.90625 62.0625 C 106.54665 62.0625 112.75 55.890403 112.75 48.25 C 112.75 40.609595 106.54665 34.40625 98.90625 34.40625 C 96.51862 34.40625 94.27272 34.99765 92.3125 36.0625 C 90.72196 29.192479 84.60361 24.0625 77.25 24.0625 C 74.06146 24.0625 71.089 25.036873 68.625 26.6875 C 64.5489 19.551256 56.86928 14.71875 48.0625 14.71875 z M 31.8125 62.59375 L 31.8125 68.6875 L 28.59375 66.5625 L 28.28125 66.375 L 28.28125 68.71875 L 31.8125 71.03125 L 31.8125 76.25 L 27.3125 73.625 L 27.0625 69.4375 L 25.0625 68.25 L 25.0625 68.59375 L 25.28125 72.46875 L 20 69.4375 L 19.53125 70.28125 L 19.3125 70.59375 L 18.84375 71.46875 L 24.09375 74.5 L 20.65625 76.25 L 20.34375 76.40625 L 22.375 77.59375 L 26.15625 75.6875 L 30.65625 78.28125 L 26.15625 80.875 L 22.375 78.96875 L 20.34375 80.125 L 20.65625 80.3125 L 24.09375 82.03125 L 18.84375 85.09375 L 19.3125 85.96875 L 19.53125 86.28125 L 20 87.125 L 25.28125 84.09375 L 25.0625 87.96875 L 25.0625 88.3125 L 27.0625 87.125 L 27.3125 82.90625 L 31.8125 80.3125 L 31.8125 85.53125 L 28.28125 87.84375 L 28.28125 90.1875 L 28.59375 89.96875 L 31.8125 87.875 L 31.8125 93.9375 L 32.8125 93.9375 L 33.1875 93.9375 L 34.1875 93.9375 L 34.1875 87.875 L 37.4375 89.96875 L 37.71875 90.1875 L 37.71875 87.84375 L 34.1875 85.53125 L 34.1875 80.3125 L 38.6875 82.90625 L 38.9375 87.125 L 40.96875 88.3125 L 40.9375 87.96875 L 40.71875 84.09375 L 46 87.125 L 46.46875 86.28125 L 46.6875 85.96875 L 47.15625 85.09375 L 41.90625 82.03125 L 45.34375 80.3125 L 45.65625 80.125 L 43.625 78.96875 L 39.84375 80.875 L 35.34375 78.25 L 39.84375 75.6875 L 43.625 77.59375 L 45.65625 76.40625 L 45.34375 76.25 L 41.90625 74.5 L 47.15625 71.46875 L 46.6875 70.59375 L 46.46875 70.28125 L 46 69.4375 L 40.71875 72.46875 L 40.9375 68.59375 L 40.96875 68.25 L 38.9375 69.4375 L 38.6875 73.625 L 34.1875 76.25 L 34.1875 71.03125 L 37.71875 68.71875 L 37.71875 66.375 L 37.4375 66.5625 L 34.1875 68.6875 L 34.1875 62.59375 L 33.1875 62.59375 L 32.8125 62.59375 L 31.8125 62.59375 z M 90.90625 64.53125 L 90.90625 70.625 L 87.65625 68.5 L 87.375 68.3125 L 87.375 70.625 L 90.90625 72.9375 L 90.90625 78.15625 L 86.40625 75.5625 L 86.15625 71.34375 L 84.125 70.1875 L 84.15625 70.53125 L 84.375 74.375 L 79.09375 71.34375 L 78.59375 72.1875 L 78.40625 72.5 L 77.90625 73.375 L 83.1875 76.4375 L 79.75 78.15625 L 79.4375 78.34375 L 81.4375 79.5 L 85.21875 77.59375 L 89.71875 80.21875 L 85.21875 82.78125 L 81.4375 80.90625 L 79.4375 82.0625 L 79.75 82.21875 L 83.1875 83.96875 L 77.90625 87 L 78.40625 87.875 L 78.59375 88.1875 L 79.09375 89.0625 L 84.375 86 L 84.15625 89.875 L 84.125 90.21875 L 86.15625 89.0625 L 86.40625 84.84375 L 90.90625 82.21875 L 90.90625 87.4375 L 87.375 89.75 L 87.375 92.09375 L 87.65625 91.90625 L 90.90625 89.78125 L 90.90625 95.875 L 91.90625 95.875 L 92.25 95.875 L 93.25 95.875 L 93.25 89.78125 L 96.5 91.90625 L 96.78125 92.09375 L 96.78125 89.75 L 93.25 87.4375 L 93.25 82.21875 L 97.78125 84.84375 L 98 89.0625 L 100.03125 90.21875 L 100 89.875 L 99.78125 86 L 105.0625 89.0625 L 105.5625 88.1875 L 105.75 87.875 L 106.25 87 L 100.96875 83.96875 L 104.40625 82.21875 L 104.71875 82.0625 L 102.71875 80.90625 L 98.9375 82.78125 L 94.4375 80.1875 L 98.9375 77.59375 L 102.71875 79.5 L 104.71875 78.34375 L 104.40625 78.15625 L 100.96875 76.4375 L 106.25 73.375 L 105.75 72.5 L 105.5625 72.1875 L 105.0625 71.34375 L 99.78125 74.375 L 100 70.53125 L 100.03125 70.1875 L 98 71.34375 L 97.78125 75.5625 L 93.25 78.15625 L 93.25 72.9375 L 96.78125 70.625 L 96.78125 68.3125 L 96.5 68.5 L 93.25 70.625 L 93.25 64.53125 L 92.25 64.53125 L 91.90625 64.53125 L 90.90625 64.53125 z M 60.1875 79.875 L 60.1875 85.96875 L 56.9375 83.84375 L 56.65625 83.65625 L 56.65625 86 L 60.1875 88.3125 L 60.1875 93.53125 L 55.6875 90.90625 L 55.4375 86.71875 L 53.40625 85.53125 L 53.4375 85.875 L 53.65625 89.75 L 48.375 86.71875 L 47.875 87.5625 L 47.6875 87.875 L 47.1875 88.75 L 52.46875 91.78125 L 49.03125 93.53125 L 48.71875 93.6875 L 50.71875 94.875 L 54.5 92.96875 L 59 95.5625 L 54.5 98.15625 L 50.71875 96.25 L 48.71875 97.40625 L 49.03125 97.59375 L 52.46875 99.3125 L 47.1875 102.375 L 47.6875 103.25 L 47.875 103.5625 L 48.375 104.40625 L 53.65625 101.375 L 53.4375 105.25 L 53.40625 105.59375 L 55.4375 104.40625 L 55.6875 100.1875 L 60.1875 97.59375 L 60.1875 102.8125 L 56.65625 105.125 L 56.65625 107.46875 L 56.9375 107.25 L 60.1875 105.15625 L 60.1875 111.21875 L 61.1875 111.21875 L 61.53125 111.21875 L 62.53125 111.21875 L 62.53125 105.15625 L 65.78125 107.25 L 66.0625 107.46875 L 66.0625 105.125 L 62.53125 102.8125 L 62.53125 97.59375 L 67.03125 100.1875 L 67.28125 104.40625 L 69.3125 105.59375 L 69.28125 105.25 L 69.0625 101.375 L 74.34375 104.40625 L 74.84375 103.5625 L 75.03125 103.25 L 75.53125 102.375 L 70.25 99.3125 L 73.6875 97.59375 L 74 97.40625 L 72 96.25 L 68.21875 98.15625 L 63.71875 95.53125 L 68.21875 92.96875 L 72 94.875 L 74 93.6875 L 73.6875 93.53125 L 70.25 91.78125 L 75.53125 88.75 L 75.03125 87.875 L 74.84375 87.5625 L 74.34375 86.71875 L 69.0625 89.75 L 69.28125 85.875 L 69.3125 85.53125 L 67.28125 86.71875 L 67.03125 90.90625 L 62.53125 93.53125 L 62.53125 88.3125 L 66.0625 86 L 66.0625 83.65625 L 65.78125 83.84375 L 62.53125 85.96875 L 62.53125 79.875 L 61.53125 79.875 L 61.1875 79.875 L 60.1875 79.875 z " style="fill:#aaaaaa"/>
</svg>