<?xml version="1.0" encoding="UTF-8" standalone="no"?>
<svg xmlns:dc="http://purl.org/dc/elements/1.1/"
     xmlns:cc="http://creativecommons.org/ns#"
     xmlns:rdf="http://www.w3.org/1999/02/22-rdf-syntax-ns#"
     xmlns:svg="http://www.w3.org/2000/svg"
     xmlns="http://www.w3.org/2000/svg"
     xmlns:xlink="http://www.w3.org/1999/xlink"
     width="128" height="128" version="1.1">
    <title>Clarity Icon</title>
    <desc>This is shape (source) for Clarity vector icon theme for gtk</desc>
    <metadata>
        <rdf:RDF>
            <cc:Work rdf:about="">
                <dc:title>Clarity Icon</dc:title>
                <dc:description>This is shape (source) for Clarity vector icon theme for gtk</dc:description>
                <dc:creator>
                    <cc:Agent>
                        <dc:title>Jakub Jankiewicz</dc:title>
                    </cc:Agent>
                </dc:creator>
                <dc:rights>
                    <cc:Agent>
                        <dc:title>Jakub Jankiewicz</dc:title>
                    </cc:Agent>
                </dc:rights>
                <dc:date>2010</dc:date>
                <dc:format>image/svg+xml</dc:format>
                <dc:type rdf:resource="http://purl.org/dc/dcmitype/StillImage" />
                <cc:license rdf:resource="http://www.gnu.org/copyleft/gpl.html" />
             </cc:Work>
        </rdf:RDF>
    </metadata>
    <path d="m 48.023334,14.701618 c -13.07152,0 -23.65625,10.615966 -23.65625,23.6875 0,0.343533 0.01685,0.660034 0.03125,1 -3.32737,1.210585 -5.6875,4.410375 -5.6875,8.15625 0,4.786759 3.8695,8.65625 8.65625,8.65625 1.46134,0 2.82348,-0.330062 4.03125,-0.96875 4.27417,4.219274 10.14461,6.8125 16.625,6.8125 l 50.84375,0 c 7.640396,0 13.843746,-6.172097 13.843746,-13.8125 0,-7.640405 -6.20335,-13.84375 -13.843746,-13.84375 -2.38763,0 -4.63353,0.5914 -6.59375,1.65625 -1.59054,-6.870021 -7.70889,-12 -15.0625,-12 -3.18854,0 -6.161,0.974373 -8.625,2.625 -4.0761,-7.136244 -11.75572,-11.96875 -20.5625,-11.96875 z m -21.0625,51.375 -3.78125,6.5 c -1.08339,1.862211 -0.9442,4.520732 1.15625,5 2.10044,0.479266 3.47711,-2.113195 3.28125,-4.28125 l -0.65625,-7.21875 z m 57.375,0.375 -4.53125,7.8125 c -1.29879,2.232436 -1.14304,5.425452 1.375,6 2.51804,0.574546 4.17229,-2.557161 3.9375,-5.15625 l -0.78125,-8.65625 z m 22.499996,2.40625 -3.125,5.375 c -0.89335,1.535531 -0.76323,3.729811 0.96875,4.125 1.73197,0.39519 2.849,-1.743524 2.6875,-3.53125 l -0.53125,-5.96875 z m -47.031246,1.0625 -4.53125,7.78125 c -1.29878,2.232437 -1.14304,5.425452 1.375,6 2.51803,0.574547 4.17229,-2.52591 3.9375,-5.125 l -0.78125,-8.65625 z m -13.1875,0.53125 -5.5,9.4375 c -1.56993,2.698495 -1.35623,6.555501 1.6875,7.25 3.04371,0.694496 5.0338,-3.07706 4.75,-6.21875 l -0.9375,-10.46875 z m 24.15625,4.625 -5.5,9.40625 c -1.56993,2.698495 -1.35623,6.555503 1.6875,7.25 3.04371,0.694498 5.0338,-3.045809 4.75,-6.1875 l -0.9375,-10.46875 z m -39.96875,5.5625 -3.78125,6.5 c -1.08339,1.862212 -0.9442,4.551983 1.15625,5.03125 2.10044,0.479266 3.4771,-2.144443 3.28125,-4.3125 l -0.65625,-7.21875 z m 79.874996,0.875 -3.125,5.375 c -0.89334,1.535531 -0.79448,3.72981 0.9375,4.125 1.73196,0.395189 2.88025,-1.743524 2.71875,-3.53125 l -0.53125,-5.96875 z m -10.999996,4.125 -4.53125,7.78125 c -1.29879,2.232436 -1.14304,5.425452 1.375,6 2.51803,0.574547 4.172296,-2.525911 3.937496,-5.125 l -0.781246,-8.65625 z m -24.15625,3.0625 -4.53125,7.78125 c -1.29879,2.232436 -1.14304,5.425452 1.375,6.000002 2.51803,0.57454 4.1723,-2.525913 3.9375,-5.125002 l -0.78125,-8.65625 z m -36.65625,1.53125 -3.8125,6.5 c -1.08339,1.862211 -0.91294,4.520732 1.1875,5.000002 2.10044,0.47926 3.47711,-2.113196 3.28125,-4.281252 l -0.65625,-7.21875 z m 22.3125,0.15625 -5.5,9.4375 c -1.56993,2.698492 -1.35623,6.555502 1.6875,7.250002 3.04371,0.69449 5.03381,-3.07706 4.75,-6.21875 l -0.9375,-10.468752 z m -39.5,5.375 -5.46875,9.437502 c -1.56993,2.69849 -1.38747,6.5555 1.65625,7.25 3.04371,0.69449 5.03381,-3.07706 4.75,-6.21875 l -0.9375,-10.468752 z m 63.25,0.78125 -5.46875,9.406252 c -1.56993,2.69849 -1.35622,6.55549 1.6875,7.25 3.04372,0.6945 5.03381,-3.04581 4.75,-6.1875 l -0.96875,-10.468752 z m -39.5625,4.812502 -3.78125,6.5 c -1.08339,1.86221 -0.9442,4.52073 1.15625,5 2.10044,0.47926 3.4771,-2.1132 3.28125,-4.28125 l -0.65625,-7.21875 z" style="fill:#aaaaaa"/>
</svg>