<?xml version="1.0" encoding="UTF-8" standalone="no"?>
<svg xmlns:dc="http://purl.org/dc/elements/1.1/"
     xmlns:cc="http://creativecommons.org/ns#"
     xmlns:rdf="http://www.w3.org/1999/02/22-rdf-syntax-ns#"
     xmlns:svg="http://www.w3.org/2000/svg"
     xmlns="http://www.w3.org/2000/svg"
     xmlns:xlink="http://www.w3.org/1999/xlink"
     width="128" height="128" version="1.1">
    <title>Keyboard Charging 60% Icon</title>
    <desc>This is shape (source) for Clarity vector icon theme for gtk</desc>
    <metadata>
        <rdf:RDF>
            <cc:Work rdf:about="">
                <dc:title>Keyboard Charging 60% Icon</dc:title>
                <dc:description>This is shape (source) for Clarity vector icon theme for gtk</dc:description>
                <dc:creator>
                    <cc:Agent>
                        <dc:title>Jakub Jankiewicz</dc:title>
                    </cc:Agent>
                </dc:creator>
                <dc:rights>
                    <cc:Agent>
                        <dc:title>Jakub Jankiewicz</dc:title>
                    </cc:Agent>
                </dc:rights>
                <dc:date>2010</dc:date>
                <dc:format>image/svg+xml</dc:format>
                <dc:type rdf:resource="http://purl.org/dc/dcmitype/StillImage" />
                <cc:license rdf:resource="http://www.gnu.org/copyleft/gpl.html" />
             </cc:Work>
        </rdf:RDF>
    </metadata>
    <path d="m 31.40625,13.90625 c -2.667372,0 -4.75,2.145121 -4.75,4.8125 l 0,2.3125 -1.96875,0 -2.46875,0 c -3.983097,0 -7.1875,3.204403 -7.1875,7.1875 l 0,3.15625 0,0.75 0,77.125 c 0,2.66737 2.176376,4.84375 4.84375,4.84375 l 36.5,0 c 2.667374,0 4.84375,-2.17638 4.84375,-4.84375 l 0,-77.125 0,-0.375 0,-3.53125 c 0,-3.983097 -3.204403,-7.1875 -7.1875,-7.1875 l -1.6875,0 -2.75,0 0,-2.3125 c 0,-2.667379 -2.082628,-4.8125 -4.75,-4.8125 z M 24.125,26.8125 l 28,0 c 2.041082,0 3.6875,1.646415 3.6875,3.6875 l 0,31.75 -35.375,0 0,-31.75 c 0,-2.041085 1.646418,-3.6875 3.6875,-3.6875 z m 46.5,18.59375 c -2.206523,0 -3.96875,1.762226 -3.96875,3.96875 l 0,60.75 c 0,2.20652 1.762227,3.96875 3.96875,3.96875 l 38.375,0 c 2.20652,0 3.96875,-1.76223 3.96875,-3.96875 l 0,-60.75 c 0,-2.206524 -1.76223,-3.96875 -3.96875,-3.96875 z m 28.4375,5.84375 5.59375,0 0,8.1875 -5.59375,0 z m -23.8125,0.125 5.59375,0 0,5.71875 -5.59375,0 z m 11.4375,5.09375 5.59375,0 0,5.75 -5.59375,0 z m -11.4375,5.125 5.59375,0 0,5.71875 -5.59375,0 z m 23.8125,2.03125 5.59375,0 0,32.25 -5.59375,0 z m -12.375,3.0625 5.59375,0 0,5.71875 -5.59375,0 z m -11.4375,5.09375 5.59375,0 0,5.71875 -5.59375,0 z m 11.4375,5.125 5.59375,0 0,5.71875 -5.59375,0 z M 75.25,82 l 5.59375,0 0,5.71875 -5.59375,0 z m 11.4375,5.09375 5.59375,0 0,5.71875 -5.59375,0 z M 75.25,92.1875 l 5.59375,0 0,5.75 -5.59375,0 z m 11.4375,5.125 5.59375,0 0,5.6875 -5.59375,0 z m 12.375,2.75 5.59375,0 0,8.1875 -5.59375,0 z m -23.8125,2.34375 5.59375,0 0,5.71875 -5.59375,0 z" style="fill:#aaaaaa"/>
</svg>