<?xml version="1.0" encoding="UTF-8" standalone="no"?>
<svg xmlns:dc="http://purl.org/dc/elements/1.1/"
     xmlns:cc="http://creativecommons.org/ns#"
     xmlns:rdf="http://www.w3.org/1999/02/22-rdf-syntax-ns#"
     xmlns:svg="http://www.w3.org/2000/svg"
     xmlns="http://www.w3.org/2000/svg"
     xmlns:xlink="http://www.w3.org/1999/xlink"
     width="128" height="128" version="1.1">
    <title>UPS 0% Icon</title>
    <desc>This is shape (source) for Clarity vector icon theme for gtk</desc>
    <metadata>
        <rdf:RDF>
            <cc:Work rdf:about="">
                <dc:title>UPS 0% Icon</dc:title>
                <dc:description>This is shape (source) for Clarity vector icon theme for gtk</dc:description>
                <dc:creator>
                    <cc:Agent>
                        <dc:title>Jakub Jankiewicz</dc:title>
                    </cc:Agent>
                </dc:creator>
                <dc:rights>
                    <cc:Agent>
                        <dc:title>Jakub Jankiewicz</dc:title>
                    </cc:Agent>
                </dc:rights>
                <dc:date>2010</dc:date>
                <dc:format>image/svg+xml</dc:format>
                <dc:type rdf:resource="http://purl.org/dc/dcmitype/StillImage" />
                <cc:license rdf:resource="http://www.gnu.org/copyleft/gpl.html" />
             </cc:Work>
        </rdf:RDF>
    </metadata>
    <path d="M 30.5 13.90625 C 27.832599 13.90625 25.75 16.051358 25.75 18.71875 L 25.75 21.03125 L 23.78125 21.03125 L 21.3125 21.03125 C 17.32936 21.03125 14.125 24.235634 14.125 28.21875 L 14.125 31.375 L 14.125 32.125 L 14.125 109.25 C 14.125 111.91738 16.301348 114.09375 18.96875 114.09375 L 55.46875 114.09375 C 58.136152 114.09375 60.3125 111.91738 60.3125 109.25 L 60.3125 32.125 L 60.3125 31.75 L 60.3125 28.21875 C 60.3125 24.235634 57.10814 21.03125 53.125 21.03125 L 51.4375 21.03125 L 48.6875 21.03125 L 48.6875 18.71875 C 48.6875 16.051358 46.604901 13.90625 43.9375 13.90625 L 30.5 13.90625 z M 73.875 13.90625 C 71.695055 13.90625 69.96875 15.663805 69.96875 17.84375 L 69.96875 110.15625 C 69.96875 112.3362 71.695055 114.09375 73.875 114.09375 L 104.5 114.09375 C 106.67995 114.09375 108.4375 112.3362 108.4375 110.15625 L 108.4375 17.84375 C 108.4375 15.663805 106.67995 13.90625 104.5 13.90625 L 73.875 13.90625 z M 23.21875 26.8125 L 51.21875 26.8125 C 53.259854 26.8125 54.90625 28.458905 54.90625 30.5 L 54.90625 108.34375 L 19.53125 108.34375 L 19.53125 30.5 C 19.53125 28.458905 21.177646 26.8125 23.21875 26.8125 z " style="fill:#aaaaaa"/>
</svg>