<?xml version="1.0" encoding="UTF-8" standalone="no"?>
<svg xmlns:dc="http://purl.org/dc/elements/1.1/"
     xmlns:cc="http://creativecommons.org/ns#"
     xmlns:rdf="http://www.w3.org/1999/02/22-rdf-syntax-ns#"
     xmlns:svg="http://www.w3.org/2000/svg"
     xmlns="http://www.w3.org/2000/svg"
     xmlns:xlink="http://www.w3.org/1999/xlink"
     width="128" height="128" version="1.1">
    <title>UPS 20% Icon</title>
    <desc>This is shape (source) for Clarity vector icon theme for gtk</desc>
    <metadata>
        <rdf:RDF>
            <cc:Work rdf:about="">
                <dc:title>UPS 20% Icon</dc:title>
                <dc:description>This is shape (source) for Clarity vector icon theme for gtk</dc:description>
                <dc:creator>
                    <cc:Agent>
                        <dc:title>Jakub Jankiewicz</dc:title>
                    </cc:Agent>
                </dc:creator>
                <dc:rights>
                    <cc:Agent>
                        <dc:title>Jakub Jankiewicz</dc:title>
                    </cc:Agent>
                </dc:rights>
                <dc:date>2010</dc:date>
                <dc:format>image/svg+xml</dc:format>
                <dc:type rdf:resource="http://purl.org/dc/dcmitype/StillImage" />
                <cc:license rdf:resource="http://www.gnu.org/copyleft/gpl.html" />
             </cc:Work>
        </rdf:RDF>
    </metadata>
    <path d="m 33.21875,13.90625 c -2.667401,0 -4.75,2.145108 -4.75,4.8125 l 0,2.3125 -1.96875,0 -2.46875,0 c -3.98314,0 -7.1875,3.204384 -7.1875,7.1875 l 0,3.15625 0,0.75 0,77.125 c 0,2.66738 2.176348,4.84375 4.84375,4.84375 l 36.5,0 c 2.667402,0 4.84375,-2.17637 4.84375,-4.84375 l 0,-77.125 0,-0.375 0,-3.53125 c 0,-3.983116 -3.20436,-7.1875 -7.1875,-7.1875 l -1.6875,0 -2.75,0 0,-2.3125 c 0,-2.667392 -2.082599,-4.8125 -4.75,-4.8125 z m 43.375,0 c -2.179945,0 -3.90625,1.757555 -3.90625,3.9375 l 0,92.3125 c 0,2.17995 1.726305,3.9375 3.90625,3.9375 l 30.625,0 c 2.17995,0 3.9375,-1.75755 3.9375,-3.9375 l 0,-92.3125 c 0,-2.179945 -1.75755,-3.9375 -3.9375,-3.9375 z M 25.9375,26.8125 l 28,0 c 2.041104,0 3.6875,1.646405 3.6875,3.6875 l 0,64.031 -35.375,0 0,-64.031 c 0,-2.041095 1.646396,-3.6875 3.6875,-3.6875 z" style="fill:#aaaaaa"/>
</svg>