<?xml version="1.0" encoding="UTF-8" standalone="no"?>
<svg xmlns:dc="http://purl.org/dc/elements/1.1/"
     xmlns:cc="http://creativecommons.org/ns#"
     xmlns:rdf="http://www.w3.org/1999/02/22-rdf-syntax-ns#"
     xmlns:svg="http://www.w3.org/2000/svg"
     xmlns="http://www.w3.org/2000/svg"
     xmlns:xlink="http://www.w3.org/1999/xlink"
     width="128" height="128" version="1.1">
    <title>Mouse Charging 20% Icon</title>
    <desc>This is shape (source) for Clarity vector icon theme for gtk</desc>
    <metadata>
        <rdf:RDF>
            <cc:Work rdf:about="">
                <dc:title>Mouse Charging 20% Icon</dc:title>
                <dc:description>This is shape (source) for Clarity vector icon theme for gtk</dc:description>
                <dc:creator>
                    <cc:Agent>
                        <dc:title>Jakub Jankiewicz</dc:title>
                    </cc:Agent>
                </dc:creator>
                <dc:rights>
                    <cc:Agent>
                        <dc:title>Jakub Jankiewicz</dc:title>
                    </cc:Agent>
                </dc:rights>
                <dc:date>2010</dc:date>
                <dc:format>image/svg+xml</dc:format>
                <dc:type rdf:resource="http://purl.org/dc/dcmitype/StillImage" />
                <cc:license rdf:resource="http://www.gnu.org/copyleft/gpl.html" />
             </cc:Work>
        </rdf:RDF>
    </metadata>
    <path d="m 32,13.90625 c -2.667372,0 -4.75,2.145121 -4.75,4.8125 l 0,2.3125 -1.96875,0 -2.46875,0 c -3.983097,0 -7.1875,3.204403 -7.1875,7.1875 l 0,3.15625 0,0.75 0,77.125 c 0,2.66737 2.176376,4.84375 4.84375,4.84375 l 36.5,0 c 2.667374,0 4.84375,-2.17638 4.84375,-4.84375 l 0,-77.125 0,-0.375 0,-3.53125 c 0,-3.983097 -3.204403,-7.1875 -7.1875,-7.1875 l -1.6875,0 -2.75,0 0,-2.3125 c 0,-2.667379 -2.082628,-4.8125 -4.75,-4.8125 z m -7.28125,12.90625 28,0 c 2.041082,0 3.6875,1.646415 3.6875,3.6875 l 0,64.031 -35.375,0 0,-64.031 c 0,-2.041085 1.646418,-3.6875 3.6875,-3.6875 z m 58.4375,17.0625 c -8.829342,0 -15.9375,7.108158 -15.9375,15.9375 l 0,31.71875 0,0.75 c 0,1.202264 0.156262,2.375167 0.40625,3.5 1.980731,10.4445 11.135449,18.3125 22.15625,18.3125 10.90871,0 20.02009,-7.71354 22.125,-18 0.003,-0.01586 -0.003,-0.04664 0,-0.0625 0.29107,-1.20832 0.46875,-2.449824 0.46875,-3.75 l 0,-0.75 0,-31.71875 c 0,-8.829342 -7.10816,-15.9375 -15.9375,-15.9375 l -3.3125,0 0,9.59375 c 1.0207,0.760817 1.6875,1.998443 1.6875,3.375 l 0,8.34375 c 0,1.376557 -0.6668,2.614184 -1.6875,3.375 l 0,6.65625 c 0,1.389536 -1.110464,2.53125 -2.5,2.53125 -1.389536,0 -2.5,-1.141714 -2.5,-2.53125 l 0,-6.6875 C 87.118044,67.769311 86.46875,66.553194 86.46875,65.1875 l 0,-8.34375 c 0,-1.365694 0.649294,-2.581812 1.65625,-3.34375 l 0,-9.625 z" style="fill:#aaaaaa"/>
</svg>