<?xml version="1.0" encoding="UTF-8" standalone="no"?>
<svg xmlns:dc="http://purl.org/dc/elements/1.1/"
     xmlns:cc="http://creativecommons.org/ns#"
     xmlns:rdf="http://www.w3.org/1999/02/22-rdf-syntax-ns#"
     xmlns:svg="http://www.w3.org/2000/svg"
     xmlns="http://www.w3.org/2000/svg"
     xmlns:xlink="http://www.w3.org/1999/xlink"
     width="128" height="128" version="1.1">
    <title>Binary Folder Icon</title>
    <desc>This is shape (source) for Clarity vector icon theme for gtk</desc>
    <metadata>
        <rdf:RDF>
            <cc:Work rdf:about="">
                <dc:title>Binary Folder Icon</dc:title>
                <dc:description>This is shape (source) for Clarity vector icon theme for gtk</dc:description>
                <dc:creator>
                    <cc:Agent>
                        <dc:title>Jakub Jankiewicz</dc:title>
                    </cc:Agent>
                </dc:creator>
                <dc:rights>
                    <cc:Agent>
                        <dc:title>Jakub Jankiewicz</dc:title>
                    </cc:Agent>
                </dc:rights>
                <dc:date>2010</dc:date>
                <dc:format>image/svg+xml</dc:format>
                <dc:type rdf:resource="http://purl.org/dc/dcmitype/StillImage" />
                <cc:license rdf:resource="http://creativecommons.org/licenses/by-sa/3.0/" />
             </cc:Work>
        </rdf:RDF>
    </metadata>
    <path d="M 15.15625 24.1875 C 11.06279 24.1875 7.75 27.50028 7.75 31.59375 L 7.75 44.71875 L 7.75 55.9375 L 7.75 96.4375 C 7.75 100.53096 11.06279 103.8125 15.15625 103.8125 L 112.84375 103.8125 C 116.93721 103.8125 120.25 100.53096 120.25 96.4375 L 120.25 44.71875 C 120.25 40.62528 116.93713 37.3689 112.84375 37.34375 L 53.40625 37.34375 L 53.40625 31.59375 C 53.40625 27.50028 50.12471 24.1875 46.03125 24.1875 L 15.15625 24.1875 z M 47.3125 45.09375 C 49.394481 45.093772 51.014535 45.826781 52.1875 47.3125 C 53.585254 49.071947 54.249985 52.017754 54.25 56.09375 C 54.249985 60.159993 53.595029 63.064775 52.1875 64.84375 C 51.024309 66.309941 49.394481 67.031249 47.3125 67.03125 C 45.220728 67.031249 43.530469 66.259286 42.25 64.65625 C 40.969524 63.043444 40.312498 60.15614 40.3125 56.03125 C 40.312498 51.984577 41.029954 49.060246 42.4375 47.28125 C 43.600673 45.815079 45.230503 45.093772 47.3125 45.09375 z M 64.25 45.09375 L 67.5625 45.09375 L 67.5625 66.6875 L 63.4375 66.6875 L 63.4375 51.15625 C 61.932204 52.563808 60.167889 53.606815 58.125 54.28125 L 58.125 50.53125 C 59.200204 50.179381 60.364071 49.508728 61.625 48.53125 C 62.885917 47.544034 63.780811 46.403568 64.25 45.09375 z M 80.75 45.09375 C 82.831981 45.093772 84.452035 45.826781 85.625 47.3125 C 87.022754 49.071947 87.687485 52.017754 87.6875 56.09375 C 87.687485 60.159993 86.970029 63.064775 85.5625 64.84375 C 84.39931 66.309941 82.831981 67.031249 80.75 67.03125 C 78.658228 67.031249 76.967969 66.259286 75.6875 64.65625 C 74.407025 63.043444 73.749999 60.15614 73.75 56.03125 C 73.749999 51.984577 74.467455 49.060246 75.875 47.28125 C 77.038174 45.815079 78.668003 45.093772 80.75 45.09375 z M 47.3125 48.5 C 46.813987 48.500018 46.328477 48.677456 45.9375 49 C 45.546509 49.312805 45.277535 49.86645 45.0625 50.6875 C 44.77903 51.752947 44.624995 53.571915 44.625 56.09375 C 44.624995 58.615607 44.745855 60.333119 45 61.28125 C 45.254134 62.219616 45.556284 62.843467 45.9375 63.15625 C 46.328477 63.469041 46.813987 63.625003 47.3125 63.625 C 47.810996 63.625003 48.234007 63.469041 48.625 63.15625 C 49.015974 62.833692 49.347448 62.258571 49.5625 61.4375 C 49.845952 60.381848 49.937489 58.615607 49.9375 56.09375 C 49.937489 53.571915 49.816629 51.813377 49.5625 50.875 C 49.30835 49.92688 49.015975 49.312805 48.625 49 C 48.243781 48.677456 47.810996 48.500018 47.3125 48.5 z M 80.75 48.5 C 80.251488 48.500018 79.765977 48.677456 79.375 49 C 78.984009 49.312805 78.715035 49.86645 78.5 50.6875 C 78.216531 51.752947 78.062494 53.571915 78.0625 56.09375 C 78.062494 58.615607 78.183355 60.333119 78.4375 61.28125 C 78.691634 62.219616 78.993783 62.843467 79.375 63.15625 C 79.765977 63.469041 80.251488 63.625003 80.75 63.625 C 81.248497 63.625003 81.671507 63.469041 82.0625 63.15625 C 82.453475 62.833692 82.722448 62.258571 82.9375 61.4375 C 83.220953 60.381848 83.374989 58.615607 83.375 56.09375 C 83.374989 53.571915 83.254129 51.813377 83 50.875 C 82.745849 49.92688 82.453475 49.312805 82.0625 49 C 81.681282 48.677456 81.248497 48.500018 80.75 48.5 z M 47.5 75.125 L 50.875 75.125 L 50.875 96.71875 L 46.75 96.71875 L 46.75 81.1875 C 45.244705 82.595057 43.480388 83.638065 41.4375 84.3125 L 41.4375 80.5625 C 42.512703 80.21063 43.676571 79.539978 44.9375 78.5625 C 46.198417 77.575283 47.030811 76.434817 47.5 75.125 z M 64 75.125 C 66.081981 75.125021 67.702035 75.858031 68.875 77.34375 C 70.272754 79.103197 70.999985 82.017753 71 86.09375 C 70.999985 90.159993 70.282529 93.096018 68.875 94.875 C 67.71181 96.341181 66.081981 97.0625 64 97.0625 C 61.908228 97.0625 60.217969 96.259281 58.9375 94.65625 C 57.657024 93.043439 56.999999 90.187391 57 86.0625 C 56.999999 82.015827 57.717455 79.091496 59.125 77.3125 C 60.288174 75.84633 61.918002 75.125021 64 75.125 z M 80.9375 75.125 L 84.3125 75.125 L 84.3125 96.71875 L 80.1875 96.71875 L 80.1875 81.1875 C 78.682204 82.595057 76.917889 83.638065 74.875 84.3125 L 74.875 80.5625 C 75.950203 80.21063 77.114071 79.539978 78.375 78.5625 C 79.635917 77.575283 80.468311 76.434817 80.9375 75.125 z M 64 78.53125 C 63.501487 78.531268 63.078477 78.708706 62.6875 79.03125 C 62.296509 79.344055 61.965036 79.897699 61.75 80.71875 C 61.466531 81.784197 61.312494 83.571914 61.3125 86.09375 C 61.312494 88.615607 61.433354 90.36437 61.6875 91.3125 C 61.941633 92.250867 62.306284 92.874716 62.6875 93.1875 C 63.078477 93.50029 63.501487 93.65625 64 93.65625 C 64.498496 93.65625 64.921506 93.50029 65.3125 93.1875 C 65.703474 92.864942 66.034949 92.289822 66.25 91.46875 C 66.533453 90.413099 66.687489 88.615607 66.6875 86.09375 C 66.687489 83.571914 66.566629 81.844628 66.3125 80.90625 C 66.05835 79.95813 65.703474 79.344055 65.3125 79.03125 C 64.931281 78.708706 64.498496 78.531268 64 78.53125 z " style="fill:#aaaaaa"/>
</svg>