<?xml version="1.0" encoding="UTF-8" standalone="no"?>
<svg xmlns:dc="http://purl.org/dc/elements/1.1/"
     xmlns:cc="http://creativecommons.org/ns#"
     xmlns:rdf="http://www.w3.org/1999/02/22-rdf-syntax-ns#"
     xmlns:svg="http://www.w3.org/2000/svg"
     xmlns="http://www.w3.org/2000/svg"
     xmlns:xlink="http://www.w3.org/1999/xlink"
     width="128" height="128" version="1.1">
    <title>DeviantArt Foder Icon</title>
    <desc>This is shape (source) for Clarity vector icon theme for gtk</desc>
    <metadata>
        <rdf:RDF>
            <cc:Work rdf:about="">
                <dc:title>DeviantArt Foder Icon</dc:title>
                <dc:description>This is shape (source) for Clarity vector icon theme for gtk</dc:description>
                <dc:creator>
                    <cc:Agent>
                        <dc:title>Jakub Jankiewicz</dc:title>
                    </cc:Agent>
                </dc:creator>
                <dc:rights>
                    <cc:Agent>
                        <dc:title>Jakub Jankiewicz</dc:title>
                    </cc:Agent>
                </dc:rights>
                <dc:date>2010</dc:date>
                <dc:format>image/svg+xml</dc:format>
                <dc:type rdf:resource="http://purl.org/dc/dcmitype/StillImage" />
                <cc:license rdf:resource="http://creativecommons.org/licenses/by-sa/3.0/" />
             </cc:Work>
        </rdf:RDF>
    </metadata>
    <path d="M 15.15625 24.1875 C 11.06279 24.1875 7.75 27.50028 7.75 31.59375 L 7.75 44.71875 L 7.75 55.9375 L 7.75 96.4375 C 7.75 100.53096 11.06279 103.8125 15.15625 103.8125 L 112.84375 103.8125 C 116.93721 103.8125 120.25 100.53096 120.25 96.4375 L 120.25 44.71875 C 120.25 40.62528 116.93713 37.3689 112.84375 37.34375 L 53.40625 37.34375 L 53.40625 31.59375 C 53.40625 27.50028 50.12471 24.1875 46.03125 24.1875 L 15.15625 24.1875 z M 52.78125 50.0625 L 56.125 56.28125 C 56.484084 56.221135 56.855792 56.1479 57.21875 56.09375 C 67.28435 54.573841 77.112297 54.497929 86.1875 56.625 C 95.438096 58.44948 103.92698 62.497126 107.84375 67.03125 C 108.63376 67.947316 109.21708 68.873326 109.625 69.84375 L 107.75 70.375 L 95.625 73.6875 L 71.78125 80.25 L 70.65625 78.21875 L 68.0625 73.53125 L 62.28125 63.0625 C 66.411176 62.357973 69.972509 62.194639 73.0625 62.375 L 78.46875 71 L 91.40625 67.84375 C 86.315391 62.859767 77.025407 58.187388 60.03125 61.21875 C 59.656666 61.28682 59.29852 61.36794 58.9375 61.4375 L 65.75 74.0625 L 69.4375 80.90625 L 58.8125 83.8125 L 45.59375 87.4375 L 33.71875 90.6875 L 31.59375 91.28125 C 30.77467 90.011914 30.11605 88.64723 29.625 87.21875 C 27.183416 80.138451 29.166843 72.877533 34.25 67.09375 C 37.332091 63.637073 41.607065 60.766271 46.8125 58.75 L 43.625 52.09375 C 46.458659 51.188961 49.524461 50.497256 52.78125 50.0625 z M 49.5625 64.5 C 42.167787 68.463278 41.237877 74.387161 42.40625 79.71875 L 55.34375 76.59375 L 49.5625 64.5 z " style="fill:#aaaaaa"/>
</svg>