<?xml version="1.0" encoding="UTF-8" standalone="no"?>
<svg xmlns:dc="http://purl.org/dc/elements/1.1/"
     xmlns:cc="http://creativecommons.org/ns#"
     xmlns:rdf="http://www.w3.org/1999/02/22-rdf-syntax-ns#"
     xmlns:svg="http://www.w3.org/2000/svg"
     xmlns="http://www.w3.org/2000/svg"
     xmlns:xlink="http://www.w3.org/1999/xlink"
     width="128" height="128" version="1.1">
    <title>Folder Imortant Icon</title>
    <desc>This is shape (source) for Clarity vector icon theme for gtk</desc>
    <metadata>
        <rdf:RDF>
            <cc:Work rdf:about="">
                <dc:title>Folder Imortant Icon</dc:title>
                <dc:description>This is shape (source) for Clarity vector icon theme for gtk</dc:description>
                <dc:creator>
                    <cc:Agent>
                        <dc:title>Jakub Jankiewicz</dc:title>
                    </cc:Agent>
                </dc:creator>
                <dc:rights>
                    <cc:Agent>
                        <dc:title>Jakub Jankiewicz</dc:title>
                    </cc:Agent>
                </dc:rights>
                <dc:date>2010</dc:date>
                <dc:format>image/svg+xml</dc:format>
                <dc:type rdf:resource="http://purl.org/dc/dcmitype/StillImage" />
                <cc:license rdf:resource="http://creativecommons.org/licenses/by-sa/3.0/" />
             </cc:Work>
        </rdf:RDF>
    </metadata>
    <path d="M 15.15625 24.1875 C 11.06279 24.1875 7.75 27.50028 7.75 31.59375 L 7.75 44.71875 L 7.75 55.9375 L 7.75 96.4375 C 7.75 100.53096 11.06279 103.8125 15.15625 103.8125 L 112.84375 103.8125 C 116.93721 103.8125 120.25 100.53096 120.25 96.4375 L 120.25 44.71875 C 120.25 40.62528 116.93713 37.3689 112.84375 37.34375 L 53.40625 37.34375 L 53.40625 31.59375 C 53.40625 27.50028 50.12471 24.1875 46.03125 24.1875 L 15.15625 24.1875 z M 63.9375 44.40625 C 64.751628 44.388498 65.580604 44.895364 66.21875 46 L 93.125 92.59375 C 94.258505 94.555845 93.601718 96.46875 90.875 96.46875 L 37.09375 96.46875 C 34.715965 96.46875 33.633638 94.691059 34.84375 92.59375 L 61.71875 46 C 62.315131 44.966374 63.123385 44.424 63.9375 44.40625 z M 63.625 56.84375 C 62.466648 56.843784 61.548141 57.341966 60.84375 58.34375 C 60.217605 59.236025 59.90625 60.279122 59.90625 61.46875 C 59.90625 62.126221 60.155391 63.511876 60.625 65.59375 C 61.845952 70.931584 62.437489 74.994848 62.4375 77.84375 C 62.43739 79.393453 62.45313 80.234187 62.46875 80.34375 C 62.609628 81.470808 63.06119 82.03126 63.78125 82.03125 C 64.078664 82.03126 64.327751 81.968981 64.53125 81.84375 C 65.063458 81.561994 65.34353 80.845918 65.4375 79.65625 C 65.45313 78.764018 65.49989 77.876596 65.53125 77 C 65.672117 75.606855 66.170356 73.006891 67 69.21875 C 67.735707 65.931558 68.062489 63.315994 68.0625 61.40625 C 68.062489 60.013129 67.673318 58.923412 66.875 58.09375 C 66.092319 57.264153 65.002488 56.843784 63.625 56.84375 z M 63.6875 84.5 C 62.763941 84.5 61.985475 84.873701 61.375 85.59375 C 60.764513 86.298163 60.46875 87.092044 60.46875 88.03125 C 60.46875 88.907846 60.78005 89.686311 61.4375 90.34375 C 62.094938 91.001188 62.873403 91.3125 63.75 91.3125 C 64.798768 91.3125 65.655039 91.016843 66.3125 90.34375 C 66.985586 89.670663 67.312489 88.798778 67.3125 87.75 C 67.312489 86.795146 66.938865 86.001144 66.1875 85.375 C 65.483098 84.79584 64.658 84.5 63.6875 84.5 z " style="fill:#aaaaaa"/>
</svg>