<?xml version="1.0" encoding="UTF-8" standalone="no"?>
<svg xmlns:dc="http://purl.org/dc/elements/1.1/"
     xmlns:cc="http://creativecommons.org/ns#"
     xmlns:rdf="http://www.w3.org/1999/02/22-rdf-syntax-ns#"
     xmlns:svg="http://www.w3.org/2000/svg"
     xmlns="http://www.w3.org/2000/svg"
     xmlns:xlink="http://www.w3.org/1999/xlink"
     width="128" height="128" version="1.1">
    <title>Clarity Icon</title>
    <desc>This is shape (source) for Clarity vector icon theme for gtk</desc>
    <metadata>
        <rdf:RDF>
            <cc:Work rdf:about="">
                <dc:title>Clarity Icon</dc:title>
                <dc:description>This is shape (source) for Clarity vector icon theme for gtk</dc:description>
                <dc:creator>
                    <cc:Agent>
                        <dc:title>Jakub Jankiewicz</dc:title>
                    </cc:Agent>
                </dc:creator>
                <dc:rights>
                    <cc:Agent>
                        <dc:title>Jakub Jankiewicz</dc:title>
                    </cc:Agent>
                </dc:rights>
                <dc:date>2010</dc:date>
                <dc:format>image/svg+xml</dc:format>
                <dc:type rdf:resource="http://purl.org/dc/dcmitype/StillImage" />
                <cc:license rdf:resource="http://creativecommons.org/licenses/by-sa/3.0/" />
             </cc:Work>
        </rdf:RDF>
    </metadata>
    <path d="m 15.757897,17.424608 c -4.04304,0 -7.3150204,3.271982 -7.3150204,7.315022 l 0,12.96333 0,11.08056 0,40.031997 c 0,4.043033 3.2719804,7.284157 7.3150204,7.284157 l 42.47034,0 0,4.598896 -5.86437,0 c -1.42079,0 -2.5618,1.14101 -2.5618,2.5618 l 0,4.75322 c 0,1.42079 1.14101,2.5618 2.5618,2.5618 l 23.27227,0 c 1.42079,0 2.5618,-1.14101 2.5618,-2.5618 l 0,-4.75322 c 0,-1.42079 -1.14101,-2.5618 -2.5618,-2.5618 l -5.86437,0 0,-4.598896 42.470343,0 c 4.04304,0 7.31502,-3.241124 7.31502,-7.284157 l 0,-51.112557 c 0,-4.04304 -3.27206,-7.259317 -7.31502,-7.284157 l -58.705373,0 0,-5.679173 c 0,-4.04304 -3.24111,-7.315022 -7.28415,-7.315022 l -30.49469,0 z m -7.3150204,85.002402 0,6.41994 39.1060404,0 c -9.9e-4,-0.0431 0,-0.0801 0,-0.12346 l 0,-5.37052 c 0,-0.3158 0.0373,-0.6266 0.0925,-0.92596 l -39.1986404,0 z m 71.9156104,0 c 0.0552,0.29936 0.0925,0.61016 0.0925,0.92596 l 0,5.37052 c 0,0.0434 9.9e-4,0.0804 0,0.12346 l 39.106043,0 0,-6.41994 -39.198643,0 z" style="fill:#aaaaaa"/>
</svg>