<?xml version="1.0" encoding="UTF-8" standalone="no"?>
<svg xmlns:dc="http://purl.org/dc/elements/1.1/"
     xmlns:cc="http://creativecommons.org/ns#"
     xmlns:rdf="http://www.w3.org/1999/02/22-rdf-syntax-ns#"
     xmlns:svg="http://www.w3.org/2000/svg"
     xmlns="http://www.w3.org/2000/svg"
     xmlns:xlink="http://www.w3.org/1999/xlink"
     width="128" height="128" version="1.1">
    <title>Folder Games Icons</title>
    <desc>This is shape (source) for Clarity vector icon theme for gtk</desc>
    <metadata>
        <rdf:RDF>
            <cc:Work rdf:about="">
                <dc:title>Folder Games Icons</dc:title>
                <dc:description>This is shape (source) for Clarity vector icon theme for gtk</dc:description>
                <dc:creator>
                    <cc:Agent>
                        <dc:title>Jakub Jankiewicz</dc:title>
                    </cc:Agent>
                </dc:creator>
                <dc:rights>
                    <cc:Agent>
                        <dc:title>Jakub Jankiewicz</dc:title>
                    </cc:Agent>
                </dc:rights>
                <dc:date>2010</dc:date>
                <dc:format>image/svg+xml</dc:format>
                <dc:type rdf:resource="http://purl.org/dc/dcmitype/StillImage" />
                <cc:license rdf:resource="http://creativecommons.org/licenses/by-sa/3.0/" />
             </cc:Work>
        </rdf:RDF>
    </metadata>
    <path d="M 15.15625 24.1875 C 11.06279 24.1875 7.75 27.50028 7.75 31.59375 L 7.75 44.71875 L 7.75 55.9375 L 7.75 96.4375 C 7.75 100.53096 11.06279 103.8125 15.15625 103.8125 L 112.84375 103.8125 C 116.93721 103.8125 120.25 100.53096 120.25 96.4375 L 120.25 44.71875 C 120.25 40.62528 116.93713 37.3689 112.84375 37.34375 L 53.40625 37.34375 L 53.40625 31.59375 C 53.40625 27.50028 50.12471 24.1875 46.03125 24.1875 L 15.15625 24.1875 z M 76.8125 44.0625 C 77.619805 44.084169 78.446065 44.255874 79.25 44.53125 C 83.537635 45.999919 85.812422 50.681112 84.34375 54.96875 C 83.434255 57.623927 81.293978 59.484064 78.78125 60.1875 L 71.8125 80.59375 L 88.625 80.59375 C 91.573937 80.59375 93.9375 82.957315 93.9375 85.90625 L 93.9375 90.78125 C 93.9375 93.730185 91.573937 96.09375 88.625 96.09375 L 39.40625 96.09375 C 36.45732 96.09375 34.0625 93.730185 34.0625 90.78125 L 34.0625 85.90625 C 34.0625 82.974036 36.41808 80.62046 39.34375 80.59375 L 39.34375 79.71875 C 39.34375 78.62314 40.216886 77.75 41.3125 77.75 L 49.34375 77.75 C 50.439364 77.75 51.34375 78.62314 51.34375 79.71875 L 51.34375 80.59375 L 61.96875 80.59375 L 70 57.1875 C 68.454581 55.09276 67.905098 52.305312 68.8125 49.65625 C 70.005798 46.172545 73.314184 43.96859 76.8125 44.0625 z " style="fill:#aaaaaa"/>
</svg>