<?xml version="1.0" encoding="UTF-8" standalone="no"?>
<svg xmlns:dc="http://purl.org/dc/elements/1.1/"
     xmlns:cc="http://creativecommons.org/ns#"
     xmlns:rdf="http://www.w3.org/1999/02/22-rdf-syntax-ns#"
     xmlns:svg="http://www.w3.org/2000/svg"
     xmlns="http://www.w3.org/2000/svg"
     xmlns:xlink="http://www.w3.org/1999/xlink"
     width="128" height="128" version="1.1">
    <title>Folder Wallpapers Icon</title>
    <desc>This is shape (source) for Clarity vector icon theme for gtk</desc>
    <metadata>
        <rdf:RDF>
            <cc:Work rdf:about="">
                <dc:title>Folder Wallpapers Icon</dc:title>
                <dc:description>This is shape (source) for Clarity vector icon theme for gtk</dc:description>
                <dc:creator>
                    <cc:Agent>
                        <dc:title>Jakub Jankiewicz</dc:title>
                    </cc:Agent>
                </dc:creator>
                <dc:rights>
                    <cc:Agent>
                        <dc:title>Jakub Jankiewicz</dc:title>
                    </cc:Agent>
                </dc:rights>
                <dc:date>2010</dc:date>
                <dc:format>image/svg+xml</dc:format>
                <dc:type rdf:resource="http://purl.org/dc/dcmitype/StillImage" />
                <cc:license rdf:resource="http://creativecommons.org/licenses/by-sa/3.0/" />
             </cc:Work>
        </rdf:RDF>
    </metadata>
    <path d="m 15.15625,24.1875 c -4.09346,0 -7.40625,3.31278 -7.40625,7.40625 l 0,13.125 0,11.21875 0,40.5 c 0,4.09346 3.31279,7.375 7.40625,7.375 l 97.6875,0 c 4.09346,0 7.40625,-3.28154 7.40625,-7.375 l 0,-51.71875 c 0,-4.09347 -3.31287,-7.34985 -7.40625,-7.375 l -59.4375,0 0,-5.75 c 0,-4.09347 -3.28154,-7.40625 -7.375,-7.40625 z m 22.78125,20.9375 12.40625,0 -16.9375,16.90625 0,-12.375 c 0,-2.512735 2.018518,-4.53125 4.53125,-4.53125 z m 40.1875,0 11.9375,0 c 2.512738,0 4.53125,2.018515 4.53125,4.53125 l 0,11.90625 z m -25.84375,1.40625 22.5,0 7.03125,7.03125 -36.5625,0 z M 41.09375,57.75 l 0,24.96702 -7,-6.96875 0,-11.02952 z m 46.28125,1.40625 7,6.96875 0,8.21702 -7,6.96875 z m 7.21875,19.40625 0,11.90625 C 94.59375,92.981482 92.575238,95 90.0625,95 L 78.125,95 z m -61.1875,0.46875 16,15.96875 -11.46875,0 c -2.512732,0 -4.53125,-2.018518 -4.53125,-4.53125 z m 13.163884,9.4375 33.922232,0 -6.695177,7 -20.531878,0 z" style="fill:#aaaaaa"/>
</svg>