<?xml version="1.0" encoding="UTF-8" standalone="no"?>
<svg xmlns:dc="http://purl.org/dc/elements/1.1/"
     xmlns:cc="http://creativecommons.org/ns#"
     xmlns:rdf="http://www.w3.org/1999/02/22-rdf-syntax-ns#"
     xmlns:svg="http://www.w3.org/2000/svg"
     xmlns="http://www.w3.org/2000/svg"
     xmlns:xlink="http://www.w3.org/1999/xlink"
     width="128" height="128" version="1.1">
    <title>Folder Mail Icon</title>
    <desc>This is shape (source) for Clarity vector icon theme for gtk</desc>
    <metadata>
        <rdf:RDF>
            <cc:Work rdf:about="">
                <dc:title>Folder Mail Icon</dc:title>
                <dc:description>This is shape (source) for Clarity vector icon theme for gtk</dc:description>
                <dc:creator>
                    <cc:Agent>
                        <dc:title>Jakub Jankiewicz</dc:title>
                    </cc:Agent>
                </dc:creator>
                <dc:rights>
                    <cc:Agent>
                        <dc:title>Jakub Jankiewicz</dc:title>
                    </cc:Agent>
                </dc:rights>
                <dc:date>2010</dc:date>
                <dc:format>image/svg+xml</dc:format>
                <dc:type rdf:resource="http://purl.org/dc/dcmitype/StillImage" />
                <cc:license rdf:resource="http://creativecommons.org/licenses/by-sa/3.0/" />
             </cc:Work>
        </rdf:RDF>
    </metadata>
    <path d="M 15.15625 24.1875 C 11.06279 24.1875 7.75 27.500288 7.75 31.59375 L 7.75 44.71875 L 7.75 55.9375 L 7.75 96.4375 C 7.75 100.53096 11.06279 103.8125 15.15625 103.8125 L 112.84375 103.8125 C 116.93721 103.8125 120.25 100.53096 120.25 96.4375 L 120.25 44.71875 C 120.25 40.625288 116.93713 37.3689 112.84375 37.34375 L 53.40625 37.34375 L 53.40625 31.59375 C 53.40625 27.500288 50.12471 24.1875 46.03125 24.1875 L 15.15625 24.1875 z M 46.96875 50.90625 C 59.311153 50.96623 68.947813 51.25244 80.75 50.90625 C 81.912903 50.872139 82.816172 50.992477 83.875 51.75 C 84.731482 52.362758 84.975656 54.450671 83.59375 55.53125 L 66.375 69 C 65.675238 69.547175 64.754782 69.8125 63.84375 69.8125 C 62.932717 69.8125 62.043511 69.547175 61.34375 69 L 44.09375 55.53125 C 42.711845 54.450671 42.987268 52.362758 43.84375 51.75 C 44.902577 50.992475 45.805362 50.90055 46.96875 50.90625 z M 89.46875 57.90625 C 91.693132 58.156279 93.40625 60.050413 93.40625 62.34375 L 93.40625 87 C 93.40625 89.464748 91.433497 91.46875 88.96875 91.46875 L 39.03125 91.46875 C 36.566501 91.46875 34.59375 89.464748 34.59375 87 L 34.59375 62.34375 C 34.59375 60.157265 36.145513 58.349199 38.21875 57.96875 L 60.3125 75.25 C 62.254127 76.768249 65.402123 76.768249 67.34375 75.25 L 89.46875 57.90625 z " style="fill:#aaaaaa"/>
</svg>