<?xml version="1.0" encoding="UTF-8" standalone="no"?>
<svg xmlns:dc="http://purl.org/dc/elements/1.1/"
     xmlns:cc="http://creativecommons.org/ns#"
     xmlns:rdf="http://www.w3.org/1999/02/22-rdf-syntax-ns#"
     xmlns:svg="http://www.w3.org/2000/svg"
     xmlns="http://www.w3.org/2000/svg"
     xmlns:xlink="http://www.w3.org/1999/xlink"
     width="128" height="128" version="1.1">
    <title>Bookmarks Icon</title>
    <desc>This is shape (source) for Clarity vector icon theme for gtk</desc>
    <metadata>
        <rdf:RDF>
            <cc:Work rdf:about="">
                <dc:title>Bookmarks Icon</dc:title>
                <dc:description>This is shape (source) for Clarity vector icon theme for gtk</dc:description>
                <dc:creator>
                    <cc:Agent>
                        <dc:title>Jakub Jankiewicz</dc:title>
                    </cc:Agent>
                </dc:creator>
                <dc:rights>
                    <cc:Agent>
                        <dc:title>Jakub Jankiewicz</dc:title>
                    </cc:Agent>
                </dc:rights>
                <dc:date>2010</dc:date>
                <dc:format>image/svg+xml</dc:format>
                <dc:type rdf:resource="http://purl.org/dc/dcmitype/StillImage" />
                <cc:license rdf:resource="http://creativecommons.org/licenses/by-sa/3.0/" />
             </cc:Work>
        </rdf:RDF>
    </metadata>
    <path d="m 27.789085,10.890655 c -7.108084,0 -13.0213,5.768167 -13.0213,12.655534 l 0,80.907621 c 0,6.88736 5.913216,12.65554 13.0213,12.65554 l 72.421825,0 c 7.10809,0 13.0213,-5.76817 13.0213,-12.65554 l 0,-80.907621 c 0,-6.887367 -5.91321,-12.655534 -13.0213,-12.655534 l -72.421825,0 z m 0,9.290478 5.267042,0 0,65.325957 L 51.344468,64 l 17.776268,21.50709 0,-65.325957 31.090174,0 c 2.00449,0 3.43821,1.426255 3.43821,3.365056 l 0,80.907621 c 0,1.93881 -1.43373,3.36506 -3.43821,3.36506 l -72.421825,0 c -2.004476,0 -3.438209,-1.42625 -3.438209,-3.36506 l 0,-80.907621 c 0,-1.938801 1.433733,-3.365056 3.438209,-3.365056 z" style="fill:#aaaaaa"/>
</svg>