<?xml version="1.0" encoding="UTF-8" standalone="no"?>
<svg xmlns:dc="http://purl.org/dc/elements/1.1/"
     xmlns:cc="http://creativecommons.org/ns#"
     xmlns:rdf="http://www.w3.org/1999/02/22-rdf-syntax-ns#"
     xmlns:svg="http://www.w3.org/2000/svg"
     xmlns="http://www.w3.org/2000/svg"
     xmlns:xlink="http://www.w3.org/1999/xlink"
     width="128" height="128" version="1.1">
    <title>Earth Icon</title>
    <desc>This is shape (source) for Clarity vector icon theme for gtk</desc>
    <metadata>
        <rdf:RDF>
            <cc:Work rdf:about="">
                <dc:title>Earth Icon</dc:title>
                <dc:description>This is shape (source) for Clarity vector icon theme for gtk</dc:description>
                <dc:creator>
                    <cc:Agent>
                        <dc:title>Jakub Jankiewicz</dc:title>
                    </cc:Agent>
                </dc:creator>
                <dc:rights>
                    <cc:Agent>
                        <dc:title>Jakub Jankiewicz</dc:title>
                    </cc:Agent>
                </dc:rights>
                <dc:date>2010</dc:date>
                <dc:format>image/svg+xml</dc:format>
                <dc:type rdf:resource="http://purl.org/dc/dcmitype/StillImage" />
                <cc:license rdf:resource="http://creativecommons.org/licenses/by-sa/3.0/" />
             </cc:Work>
        </rdf:RDF>
    </metadata>
    <path d="m 63.977166,6.7458313 c -31.582051,0 -57.1780254,25.5959687 -57.1780254,57.1780297 0,31.583218 25.5959744,57.208889 57.1780254,57.208889 31.579172,0 57.178024,-25.625382 57.178024,-57.208889 0,-31.582061 -25.598852,-57.1780297 -57.178024,-57.1780297 z m 0,4.3816937 c 0.932654,0 1.856425,0.01406 2.77714,0.06172 l 2.962267,1.172566 -2.53028,6.418255 c -3.092316,1.43028 -6.003695,2.573553 -9.257098,3.579414 l -2.09828,3.332557 -1.697134,0.956566 -2.530268,-4.998834 1.913127,-1.913134 0,-1.913136 -4.844542,-3.332556 1.481128,-1.419421 2.777139,-0.771425 0.401134,-0.09257 c 3.438469,-0.702722 6.998004,-1.079999 10.645667,-1.079999 z m -23.297031,5.430833 0.185141,1.018281 4.011408,0.493712 1.04914,2.129134 2.314274,0.956566 -2.09828,1.913135 c -1.404489,-0.951975 -2.824074,-1.916279 -4.227402,-2.869701 l -2.098281,-0.709712 c -0.925031,0.618233 -1.838035,1.270855 -2.746274,1.913135 l -1.04914,2.37599 -2.098268,0 1.049127,-2.622847 1.697134,-1.419421 -0.09257,-0.956568 c 0.374748,-0.227584 0.760911,-0.460414 1.14171,-0.678854 l 0.216007,0.431997 0.370281,-0.771425 c 0.774361,-0.431165 1.578227,-0.81072 2.375993,-1.203422 z m -8.855963,1.75885 0.09257,0 c -0.04691,0.03306 -0.0766,0.09023 -0.123385,0.123423 l 0.03081,-0.123423 z m 58.844306,0.03085 c 1.71539,1.005453 3.35271,2.115144 4.93713,3.301699 l -0.98743,0 2.71541,2.838844 0.77143,-0.863996 c 9.313162,7.892817 15.831112,18.957677 17.927912,31.535859 -0.39599,-0.36783 -0.79781,-0.742639 -1.20342,-1.110852 l -2.4377,0.370283 -2.19085,-2.499416 0,3.0857 1.88228,1.450279 1.26513,1.419424 1.69713,-1.913135 c 0.42443,0.794953 0.84361,1.581036 1.26515,2.375988 l 0,2.406848 -1.91313,2.129132 -3.48685,2.375991 -2.53026,2.530274 c 1.22654,-0.08832 2.44907,-0.212356 3.70283,-0.370285 l 0,1.666279 -2.53029,6.202258 -2.31426,2.622845 -1.88227,4.042268 0,6.665113 0.61714,2.622844 -1.04914,1.203424 -2.31427,1.419422 -2.43771,2.036563 2.00571,2.252562 -2.715432,2.406847 0.52458,1.54285 -1.944,2.19084 c -1.01421,0.85741 -2.06976,1.68848 -3.14741,2.46856 l -1.75885,0 -2.31427,1.41943 -1.48114,0 0,-1.91314 -0.648,-3.82627 c -0.81494,-2.39354 -1.636384,-4.751502 -2.499411,-7.127963 0,-1.754172 0.08022,-3.49181 0.185141,-5.245691 l 1.07999,-2.375989 -1.481137,-2.869701 0.09257,-3.949697 -2.005698,-2.252561 1.018275,-3.270843 -1.635416,-1.85142 -2.838844,0 -0.95657,-1.079995 -2.838845,1.789706 -1.172563,-1.295995 -2.622851,2.252562 C 71.2302,73.12873 69.439822,71.102604 67.649158,69.076977 l -2.098281,-4.998834 1.882274,-2.869703 -1.04914,-1.172566 2.314274,-5.492546 c 1.901351,-2.365161 3.884879,-4.634589 5.893696,-6.91197 l 3.579408,-0.956567 4.011408,-0.493712 2.746274,0.740568 3.887987,3.91884 1.3577,-1.54285 1.91314,-0.246856 3.57941,1.203422 2.71542,0 1.913132,-1.666277 0.83315,-1.203424 -1.882282,-1.203423 -3.17827,-0.215999 c -0.87694,-1.216477 -1.67421,-2.498518 -2.71542,-3.579412 l -1.08,0.462855 -0.40113,3.116557 -1.91314,-2.15999 -0.40114,-2.37599 -2.09828,-1.666278 -0.863996,0 2.098276,2.37599 -0.83313,2.159989 -1.666281,0.462855 1.049128,-2.129132 -1.913127,-0.956567 -1.666281,-1.913135 -3.178274,0.709711 -0.401134,0.956567 -1.91314,1.203424 -1.049128,2.622845 -2.622851,1.295994 -1.172563,-1.295994 -1.265147,0 0,-4.319981 2.746274,-1.419422 2.098281,0 -0.401135,-1.666278 -1.697146,-1.666278 2.838845,-0.586283 1.57371,-1.789707 1.265134,-2.15999 2.314275,0 -0.617141,-1.666279 1.48114,-0.956567 0,1.913135 3.147421,0.709711 3.14741,-2.622846 0.216,-1.172566 2.74628,-1.913134 c -0.99023,0.123123 -1.99466,0.199512 -2.96228,0.462856 l 0,-2.129134 1.04914,-2.406847 -1.04914,0 -2.31428,2.15999 -0.617136,1.203424 0.617136,1.666278 -1.049136,2.838845 -1.666281,-0.956568 -1.481128,-1.666277 -2.314274,1.666277 -0.863999,-3.79541 4.011408,-2.622847 0,-1.419422 2.53028,-1.666279 3.85712,-0.925709 z m -55.974609,1.635421 -0.123386,1.882277 -2.345127,2.15999 -5.245689,3.085702 0.617141,2.159988 4.011408,1.66628 0.61714,2.869701 1.481128,-3.116558 2.314287,-0.956566 -0.216006,-1.419423 2.345139,-4.042267 2.931415,1.666278 -0.432,1.913134 2.530268,-0.956567 1.049141,2.129133 -0.401135,1.45028 1.481128,0.462855 1.265146,1.203423 -0.432,1.419422 -3.57942,1.203422 -2.530268,0 -3.579409,1.66628 5.677677,0 -1.882275,2.838843 -3.795402,0.740568 -1.697146,2.375991 -2.931415,1.172566 -1.481127,3.579412 -4.011421,3.332557 -0.401134,4.782836 -2.314275,-2.869703 -3.178274,-0.709711 -0.401147,1.419423 -2.530268,0 -3.178273,2.406846 -0.401135,2.838844 0.215994,2.622846 2.09828,1.203423 1.481128,-0.709712 1.450287,-1.913133 1.481128,0 c -0.212351,1.668998 -0.406237,3.329548 -0.617141,4.998835 l 2.530281,-0.246857 0,2.622846 0.833134,2.406847 c 1.021507,0.628082 2.432183,0.656289 3.579421,0.987423 l 0,-0.524568 3.795402,-3.332557 3.579421,2.622846 4.196549,-0.462855 1.697133,4.505122 3.147421,0.709711 1.697134,3.363413 c 3.43157,1.765181 6.848893,3.531211 10.306238,5.245691 l -0.432,3.548556 -2.499415,3.579412 0.401134,4.782835 -1.666268,3.795414 -3.178274,0.740567 -1.450275,2.12913 0.617141,1.41942 -2.098281,5.24569 -2.746274,0.95657 -0.617141,1.66627 -1.04914,1.04915 c -2.684394,-1.32171 -5.218692,-2.88781 -7.621681,-4.62855 l 0.647993,-2.83885 -1.265134,-2.8697 0.216006,-4.998832 -1.697134,-2.37599 -3.764561,-3.363413 -3.795415,-6.911968 1.04914,-3.548556 -0.431999,-0.956568 1.265146,-1.913134 1.697134,-4.535979 0,-0.370285 -1.265147,-0.586283 -1.697133,0.246857 -2.931415,-2.159991 -1.913128,-2.375989 -4.412555,-1.203422 -3.579408,-2.098277 c 0.02108,-18.317721 9.349581,-34.427892 23.513038,-43.878661 z m 35.238698,1.419422 1.265146,1.419422 -2.53028,1.666278 -1.48114,-0.92571 0.216006,-1.450279 0.833134,0.246857 1.697134,-0.956568 z m -27.802157,0.462855 2.09828,0.956567 0,1.666278 -1.666281,0 -2.09828,-1.419421 1.666281,-1.203424 z m 33.294705,5.492547 1.234281,0 c 0.619686,1.264569 1.202019,2.507815 1.697134,3.82627 l 1.48114,1.419421 -1.697134,1.666278 -2.314274,0.493711 0.432,-2.869699 0,-2.159991 -0.833147,-0.956568 0,-1.419422 z m -0.863987,2.869702 0.863987,2.129134 -1.913127,0.956566 -0.432,-2.622846 1.48114,-0.462854 z m -29.067304,4.289123 1.913128,1.419421 -1.265134,1.913136 -0.647994,-3.332557 z m 55.018046,18.606774 -0.648002,0.709711 0.956562,3.455984 1.78972,2.005707 c 1.0212,2.94805 2.02235,5.760272 3.36341,8.578246 0.76364,0 1.50995,-0.01123 2.25256,-0.06172 l -1.60457,-1.851419 0.83314,-2.129133 -1.69714,-1.913135 -2.83884,-6.07883 -2.40684,-2.715416 z M 32.626453,110.02422 c 0.800922,0.54593 1.607658,1.06916 2.437698,1.5737 -1.113216,-0.64407 -2.127524,-1.2658 -2.437698,-1.5737 z" style="fill:#aaaaaa"/>
</svg>