<?xml version="1.0" encoding="UTF-8" standalone="no"?>
<svg xmlns:dc="http://purl.org/dc/elements/1.1/"
     xmlns:cc="http://creativecommons.org/ns#"
     xmlns:rdf="http://www.w3.org/1999/02/22-rdf-syntax-ns#"
     xmlns:svg="http://www.w3.org/2000/svg"
     xmlns="http://www.w3.org/2000/svg"
     xmlns:xlink="http://www.w3.org/1999/xlink"
     width="128" height="128" version="1.1">
    <title>Bar Chart Box Icon</title>
    <desc>This is shape (source) for Clarity vector icon theme for gtk</desc>
    <metadata>
        <rdf:RDF>
            <cc:Work rdf:about="">
                <dc:title>Bar Chart Box Icon</dc:title>
                <dc:description>This is shape (source) for Clarity vector icon theme for gtk</dc:description>
                <dc:creator>
                    <cc:Agent>
                        <dc:title>Jakub Jankiewicz</dc:title>
                    </cc:Agent>
                </dc:creator>
                <dc:rights>
                    <cc:Agent>
                        <dc:title>Jakub Jankiewicz</dc:title>
                    </cc:Agent>
                </dc:rights>
                <dc:date>2010</dc:date>
                <dc:format>image/svg+xml</dc:format>
                <dc:type rdf:resource="http://purl.org/dc/dcmitype/StillImage" />
                <cc:license rdf:resource="http://creativecommons.org/licenses/by-sa/3.0/" />
             </cc:Work>
        </rdf:RDF>
    </metadata>
    <path d="M 25.03125 17.6875 C 20.967882 17.6875 17.6875 20.967882 17.6875 25.03125 L 17.6875 102.96875 C 17.6875 107.03212 20.967882 110.3125 25.03125 110.3125 L 102.96875 110.3125 C 107.03212 110.3125 110.3125 107.03212 110.3125 102.96875 L 110.3125 25.03125 C 110.3125 20.967882 107.03212 17.6875 102.96875 17.6875 L 25.03125 17.6875 z M 82.9375 36.71875 L 93.9375 36.71875 C 96.112088 36.71875 97.875 38.481662 97.875 40.65625 L 97.875 86.21875 C 97.875 88.393338 96.112088 90.15625 93.9375 90.15625 L 82.9375 90.15625 C 80.762912 90.15625 79 88.393338 79 86.21875 L 79 40.65625 C 79 38.481662 80.762912 36.71875 82.9375 36.71875 z M 58.5 54.90625 L 69.5 54.90625 C 71.674588 54.90625 73.4375 56.669162 73.4375 58.84375 L 73.4375 86.21875 C 73.4375 88.393338 71.674588 90.15625 69.5 90.15625 L 58.5 90.15625 C 56.325412 90.15625 54.5625 88.393338 54.5625 86.21875 L 54.5625 58.84375 C 54.5625 56.669162 56.325412 54.90625 58.5 54.90625 z M 34.0625 70.25 L 45.0625 70.25 C 47.237088 70.25 49 72.012912 49 74.1875 L 49 86.21875 C 49 88.393338 47.237088 90.15625 45.0625 90.15625 L 34.0625 90.15625 C 31.887912 90.15625 30.125 88.393338 30.125 86.21875 L 30.125 74.1875 C 30.125 72.012912 31.887912 70.25 34.0625 70.25 z M 31.3125 95.1875 L 96.6875 95.1875 C 97.339278 95.1875 97.875 95.691972 97.875 96.34375 L 97.875 98.21875 C 97.875 98.870528 97.339278 99.40625 96.6875 99.40625 L 31.3125 99.40625 C 30.660722 99.40625 30.125 98.870528 30.125 98.21875 L 30.125 96.34375 C 30.125 95.691972 30.660722 95.1875 31.3125 95.1875 z " style="fill:#aaaaaa"/>
</svg>