<?xml version="1.0" encoding="UTF-8" standalone="no"?>
<svg xmlns:dc="http://purl.org/dc/elements/1.1/"
     xmlns:cc="http://creativecommons.org/ns#"
     xmlns:rdf="http://www.w3.org/1999/02/22-rdf-syntax-ns#"
     xmlns:svg="http://www.w3.org/2000/svg"
     xmlns="http://www.w3.org/2000/svg"
     xmlns:xlink="http://www.w3.org/1999/xlink"
     width="128" height="128" version="1.1">
    <title>Presentation Icon</title>
    <desc>This is shape (source) for Clarity vector icon theme for gtk</desc>
    <metadata>
        <rdf:RDF>
            <cc:Work rdf:about="">
                <dc:title>Presentation Icon</dc:title>
                <dc:description>This is shape (source) for Clarity vector icon theme for gtk</dc:description>
                <dc:creator>
                    <cc:Agent>
                        <dc:title>Jakub Jankiewicz</dc:title>
                    </cc:Agent>
                </dc:creator>
                <dc:rights>
                    <cc:Agent>
                        <dc:title>Jakub Jankiewicz</dc:title>
                    </cc:Agent>
                </dc:rights>
                <dc:date>2010</dc:date>
                <dc:format>image/svg+xml</dc:format>
                <dc:type rdf:resource="http://purl.org/dc/dcmitype/StillImage" />
                <cc:license rdf:resource="http://creativecommons.org/licenses/by-sa/3.0/" />
             </cc:Work>
        </rdf:RDF>
    </metadata>
    <path d="m 18.71583,11.466228 90.49963,0 c 4.75174,0 8.58955,3.837818 8.58955,8.589562 l 0,60.058221 c 0,4.751743 -3.83781,8.589562 -8.58955,8.589562 l -90.49963,0 c -4.751751,0 -8.520846,-3.837819 -8.520846,-8.589562 l 0,-60.058221 c 0,-4.751744 3.769095,-8.589562 8.520846,-8.589562 z m 2.473794,24.256924 0,36.625895 c 0,3.1423 2.561158,5.634752 5.703463,5.634752 l 74.213823,0 c 3.1423,0 5.63475,-2.492452 5.63475,-5.634752 l 0,-36.625895 z m 19.996496,57.721861 8.79571,0 -12.781268,23.088757 -8.726996,0 z m 18.072438,0 7.627532,0 0.481016,23.088757 -7.627531,0 z m 19.171903,0 8.658279,0 12.437687,23.088757 -8.65828,0 z" style="fill:#aaaaaa"/>
</svg>