<?xml version="1.0" encoding="UTF-8" standalone="no"?>
<svg xmlns:dc="http://purl.org/dc/elements/1.1/"
     xmlns:cc="http://creativecommons.org/ns#"
     xmlns:rdf="http://www.w3.org/1999/02/22-rdf-syntax-ns#"
     xmlns:svg="http://www.w3.org/2000/svg"
     xmlns="http://www.w3.org/2000/svg"
     xmlns:xlink="http://www.w3.org/1999/xlink"
     width="128" height="128" version="1.1">
    <title>Font Icon</title>
    <desc>This is shape (source) for Clarity vector icon theme for gtk</desc>
    <metadata>
        <rdf:RDF>
            <cc:Work rdf:about="">
                <dc:title>Font Icon</dc:title>
                <dc:description>This is shape (source) for Clarity vector icon theme for gtk</dc:description>
                <dc:creator>
                    <cc:Agent>
                        <dc:title>Jakub Jankiewicz</dc:title>
                    </cc:Agent>
                </dc:creator>
                <dc:rights>
                    <cc:Agent>
                        <dc:title>Jakub Jankiewicz</dc:title>
                    </cc:Agent>
                </dc:rights>
                <dc:date>2010</dc:date>
                <dc:format>image/svg+xml</dc:format>
                <dc:type rdf:resource="http://purl.org/dc/dcmitype/StillImage" />
                <cc:license rdf:resource="http://creativecommons.org/licenses/by-sa/3.0/" />
             </cc:Work>
        </rdf:RDF>
    </metadata>
    <path d="m 23.22997,25.663536 -8.67043,20.169178 6.49123,0 0,38.838329 -13.49248,0 0,4.404764 13.49248,0 0,13.260653 4.40476,0 0,-13.260653 74.81699,0 0,6.444864 20.16919,-8.624062 -20.16919,-8.670429 0,6.444863 -74.81699,0 0,-38.838329 6.44486,0 z M 52.76506,36.914143 38.94802,69.277557 c -1.1978,2.839918 -2.26035,4.729327 -3.24562,5.656642 -0.48297,0.463661 -1.55713,0.822997 -3.19925,1.112783 l 0,1.066416 12.3797,0 0,-1.066416 c -1.89328,-0.135231 -3.12971,-0.436612 -3.70926,-0.880952 -0.56028,-0.463657 -0.83462,-0.977546 -0.8346,-1.576441 -2e-5,-0.753444 0.31683,-1.904863 0.97369,-3.431079 l 2.64286,-6.213034 15.20802,0 2.411024,5.656642 c 0.772732,1.835325 1.159116,3.183798 1.159151,4.033836 -3.5e-5,0.637534 -0.274369,1.178468 -0.834582,1.622807 -0.540967,0.444342 -1.634425,0.710946 -3.199253,0.788221 l 0,1.066416 15.532589,0 0,-1.066416 c -1.60354,-0.0966 -2.847691,-0.525478 -3.755644,-1.298245 -0.888708,-0.792081 -1.912638,-2.51921 -3.013795,-5.146619 L 53.78512,36.914143 z m -1.06642,9.041354 6.67669,15.857147 -13.49248,0 z m 33.429843,8.855893 c -1.700096,2.2e-5 -3.338376,0.247307 -4.914795,0.788221 -1.576442,0.540955 -2.828316,1.344631 -3.709276,2.36466 -0.88095,1.004615 -1.29824,2.040118 -1.29824,3.152884 0,0.788235 0.324568,1.499179 0.973682,2.086466 0.664563,0.587315 1.483709,0.880966 2.457392,0.880952 0.911857,1.4e-5 1.622786,-0.262725 2.179201,-0.788221 0.571828,-0.540921 0.880938,-1.190042 0.88095,-1.947368 -1.2e-5,-0.618197 -0.293662,-1.282774 -0.88095,-1.947368 -0.43275,-0.479096 -0.649138,-0.880934 -0.649126,-1.205514 -1.2e-5,-0.370908 0.200916,-0.69547 0.602759,-0.973684 0.649103,-0.448185 1.452789,-0.649103 2.457403,-0.649124 0.618195,2.1e-5 1.174587,0.13912 1.669164,0.463659 0.494543,0.309126 0.850031,0.680053 1.02005,1.112782 0.185445,0.417312 0.278191,1.468272 0.278203,3.106518 l 0,2.179198 c -4.775717,2.194666 -7.897671,3.956569 -9.319564,5.285715 -1.421893,1.313708 -2.132834,2.797414 -2.132834,4.451129 0,1.220972 0.432739,2.241022 1.251897,3.06015 0.819122,0.803678 1.823713,1.205515 3.060138,1.205515 2.101915,0 4.49748,-1.190058 7.140363,-3.52381 0.154537,1.174605 0.556368,2.055557 1.251873,2.642857 0.695481,0.571849 1.684624,0.880953 2.92105,0.880953 1.050945,0 1.962801,-0.278196 2.78196,-0.78822 0.83457,-0.52548 1.638233,-1.360065 2.411024,-2.50376 l -0.695493,-0.556391 c -0.417304,0.57185 -0.803687,0.880954 -1.205507,0.880952 -0.200939,2e-6 -0.401854,-0.06181 -0.556392,-0.185463 -0.154571,-0.123646 -0.247306,-0.309104 -0.324556,-0.556392 -0.07736,-0.262737 -0.139125,-0.911858 -0.139101,-1.901002 l 0,-8.392233 c -2.4e-5,-2.333736 -0.108206,-3.848354 -0.32457,-4.497495 -0.355488,-1.02003 -1.112795,-1.962804 -2.31829,-2.82832 -1.19007,-0.880932 -2.81288,-1.298224 -4.868415,-1.298246 z m 1.066417,10.154136 0,7.279451 c -1.020074,0.865501 -1.916471,1.29825 -2.689239,1.298245 -0.695492,5e-6 -1.236425,-0.231824 -1.622797,-0.649122 -0.510048,-0.540932 -0.788226,-1.143688 -0.788215,-1.854637 -1.1e-5,-0.850036 0.324534,-1.715532 0.927304,-2.550127 0.911869,-1.251869 2.302832,-2.426472 4.172947,-3.52381 z" style="fill:#aaaaaa"/>
</svg>