<?xml version="1.0" encoding="UTF-8" standalone="no"?>
<svg xmlns:dc="http://purl.org/dc/elements/1.1/"
     xmlns:cc="http://creativecommons.org/ns#"
     xmlns:rdf="http://www.w3.org/1999/02/22-rdf-syntax-ns#"
     xmlns:svg="http://www.w3.org/2000/svg"
     xmlns="http://www.w3.org/2000/svg"
     xmlns:xlink="http://www.w3.org/1999/xlink"
     width="128" height="128" version="1.1">
    <title>Draft Icon</title>
    <desc>This is shape (source) for Clarity vector icon theme for gtk</desc>
    <metadata>
        <rdf:RDF>
            <cc:Work rdf:about="">
                <dc:title>Draft Icon</dc:title>
                <dc:description>This is shape (source) for Clarity vector icon theme for gtk</dc:description>
                <dc:creator>
                    <cc:Agent>
                        <dc:title>Jakub Jankiewicz</dc:title>
                    </cc:Agent>
                </dc:creator>
                <dc:rights>
                    <cc:Agent>
                        <dc:title>Jakub Jankiewicz</dc:title>
                    </cc:Agent>
                </dc:rights>
                <dc:date>2010</dc:date>
                <dc:format>image/svg+xml</dc:format>
                <dc:type rdf:resource="http://purl.org/dc/dcmitype/StillImage" />
                <cc:license rdf:resource="http://creativecommons.org/licenses/by-sa/3.0/" />
             </cc:Work>
        </rdf:RDF>
    </metadata>
    <path d="M 28.5 11.25 C 27.919626 11.308718 27.35778 11.469754 26.84375 11.6875 C 26.672407 11.760082 26.50588 11.849151 26.34375 11.9375 C 26.237577 11.996328 26.133102 12.05968 26.03125 12.125 C 25.946859 12.178374 25.862537 12.223634 25.78125 12.28125 C 25.696199 12.342219 25.612719 12.403273 25.53125 12.46875 C 25.334171 12.625776 25.143225 12.787272 24.96875 12.96875 C 24.927539 13.012064 24.88361 13.049152 24.84375 13.09375 C 24.659314 13.298217 24.497476 13.551356 24.34375 13.78125 C 24.25754 13.910175 24.200783 14.051372 24.125 14.1875 C 24.110901 14.212826 24.076227 14.224436 24.0625 14.25 C 23.954141 14.453594 23.865296 14.657717 23.78125 14.875 C 23.669523 15.163845 23.565153 15.472104 23.5 15.78125 C 23.497839 15.791676 23.502105 15.802053 23.5 15.8125 C 23.465637 15.979789 23.426062 16.140327 23.40625 16.3125 C 23.402824 16.342199 23.40923 16.376412 23.40625 16.40625 C 23.405208 16.416801 23.407236 16.426932 23.40625 16.4375 C 23.388967 16.62076 23.375 16.780783 23.375 16.96875 C 23.374947 16.97907 23.375 16.989668 23.375 17 L 23.375 104.59375 C 29.43888 105.11865 35.611259 104.36202 41.34375 102.3125 C 43.009354 101.717 44.634413 101.02758 46.21875 100.25 L 35.90625 100.25 C 34.92718 100.25 34.15625 99.41657 34.15625 98.4375 L 34.15625 95.78125 C 34.15625 94.802181 34.92718 94.03125 35.90625 94.03125 L 56.34375 94.03125 C 57.439735 93.243987 58.525541 92.442845 59.59375 91.625 C 62.085453 89.717295 64.535886 87.7553 67 85.8125 L 35.90625 85.8125 C 34.92718 85.8125 34.15625 85.01032 34.15625 84.03125 L 34.15625 81.375 C 34.15625 80.39593 34.92718 79.625 35.90625 79.625 L 75.3125 79.625 C 75.708838 79.355168 76.098932 79.075815 76.5 78.8125 C 82.414629 74.929346 88.980618 71.795073 96 70.90625 C 98.862633 70.543772 101.78317 70.577353 104.625 71.0625 L 104.625 40.375 L 83.59375 40.375 C 83.055486 40.375 82.514822 40.312787 82 40.21875 C 81.485178 40.124713 81.010104 39.992328 80.53125 39.8125 C 80.052396 39.632672 79.58661 39.413624 79.15625 39.15625 C 78.72589 38.898875 78.30684 38.607925 77.9375 38.28125 C 77.20572 37.634003 76.60644 36.839795 76.1875 35.96875 C 76.183417 35.960173 76.191548 35.946095 76.1875 35.9375 C 75.772243 35.065215 75.535886 34.093662 75.53125 33.0625 L 75.53125 33.03125 L 75.53125 11.25 L 29.09375 11.25 C 28.89476 11.25 28.69346 11.23043 28.5 11.25 z M 79.53125 11.25 L 79.53125 33.03125 C 79.53125 33.888315 79.944441 34.729891 80.65625 35.34375 C 81.012154 35.650679 81.44271 35.91712 81.9375 36.09375 C 82.184895 36.182065 82.441517 36.234197 82.71875 36.28125 C 82.995983 36.328303 83.289934 36.34375 83.59375 36.34375 L 104.59375 36.34375 L 79.53125 11.25 z M 35.90625 50.78125 L 70.40625 50.78125 C 71.38531 50.78125 72.15625 51.58343 72.15625 52.5625 L 72.15625 55.1875 C 72.15625 56.16657 71.38531 56.96875 70.40625 56.96875 L 35.90625 56.96875 C 34.92718 56.96875 34.15625 56.16657 34.15625 55.1875 L 34.15625 52.5625 C 34.15625 51.58343 34.92718 50.78125 35.90625 50.78125 z M 35.90625 65.1875 L 92.0625 65.1875 C 93.04156 65.1875 93.84375 65.98968 93.84375 66.96875 L 93.84375 69.625 C 93.84375 70.60407 93.04156 71.375 92.0625 71.375 L 35.90625 71.375 C 34.92718 71.375 34.15625 70.60407 34.15625 69.625 L 34.15625 66.96875 C 34.15625 65.98968 34.92718 65.1875 35.90625 65.1875 z " style="fill:#aaaaaa"/>
</svg>