<?xml version="1.0" encoding="UTF-8" standalone="no"?>
<!-- Created with Inkscape (http://www.inkscape.org/) -->

<svg width="33.866665mm" height="33.866665mm" viewBox="0 0 33.866665 33.866665" version="1.1" id="svg1" xmlns="http://www.w3.org/2000/svg" xmlns:svg="http://www.w3.org/2000/svg">
  <defs id="defs1" />
  <rect style="fill:#ffffff;fill-rule:evenodd;stroke:none;stroke-width:2.64583;stroke-linecap:round;stroke-dasharray:none" id="rect4" width="33.866665" height="33.866665" x="-2.0068359e-07" y="-2.1337891e-07" rx="0" ry="0" />
  <path id="path6027" d="m 20.752371,6.024233 c -6.822372,0 -12.216358,7.127656 -12.216358,14.408453 0,4.746011 1.856049,7.409745 6.359364,7.409745 3.802194,0 8.014843,-2.080454 8.014843,-4.075934 0,-0.377519 -0.161046,-0.856723 -0.376762,-1.449972 -1.752799,1.67189 -4.000482,2.831452 -5.834177,2.831452 -2.642656,0 -3.847584,-1.884082 -3.847584,-5.012132 0,-4.638138 2.181815,-11.896686 6.496362,-11.896686 1.995481,0 2.935638,1.111185 3.447979,3.322395 1.537069,-0.674157 2.534614,-1.568179 2.534614,-2.808621 0,-1.914572 -2.016517,-2.7287 -4.578281,-2.7287 z" style="font-style:normal;font-variant:normal;font-weight:normal;font-stretch:normal;font-size:73.8088px;line-height:125%;font-family:Androgyne;-inkscape-font-specification:Androgyne;letter-spacing:0px;word-spacing:0px;fill:#4d4d4d;fill-opacity:1;stroke:none;stroke-width:0.357435" />
</svg>
