<?xml version="1.0" encoding="UTF-8" standalone="no"?>
<svg xmlns:dc="http://purl.org/dc/elements/1.1/"
     xmlns:cc="http://creativecommons.org/ns#"
     xmlns:rdf="http://www.w3.org/1999/02/22-rdf-syntax-ns#"
     xmlns:svg="http://www.w3.org/2000/svg"
     xmlns="http://www.w3.org/2000/svg"
     xmlns:xlink="http://www.w3.org/1999/xlink"
     width="128" height="128" version="1.1">
    <title>Accessibility Icon</title>
    <desc>This is shape (source) for Clarity vector icon theme for gtk</desc>
    <metadata>
        <rdf:RDF>
            <cc:Work rdf:about="">
                <dc:title>Accessibility Icon</dc:title>
                <dc:description>This is shape (source) for Clarity vector icon theme for gtk</dc:description>
                <dc:creator>
                    <cc:Agent>
                        <dc:title>Jakub Jankiewicz</dc:title>
                    </cc:Agent>
                </dc:creator>
                <dc:rights>
                    <cc:Agent>
                        <dc:title>Jakub Jankiewicz</dc:title>
                    </cc:Agent>
                </dc:rights>
                <dc:date>2010</dc:date>
                <dc:format>image/svg+xml</dc:format>
                <dc:type rdf:resource="http://purl.org/dc/dcmitype/StillImage" />
                <cc:license rdf:resource="http://www.gnu.org/copyleft/gpl.html" />
             </cc:Work>
        </rdf:RDF>
    </metadata>
    <path d="M 64 9.34375 C 33.81417 9.34375 9.34375 33.814171 9.34375 64 C 9.34375 94.185831 33.81417 118.65625 64 118.65625 C 94.18583 118.65625 118.65625 94.185831 118.65625 64 C 118.65625 33.814171 94.18583 9.34375 64 9.34375 z M 64 21.84375 C 68.474502 21.84375 72.09375 25.462998 72.09375 29.9375 C 72.09375 34.412002 68.474502 38.0625 64 38.0625 C 59.525498 38.0625 55.90625 34.412002 55.90625 29.9375 C 55.90625 25.462998 59.525498 21.84375 64 21.84375 z M 30.125 38.5625 C 30.492357 38.55937 30.891182 38.5647 31.3125 38.59375 C 39.556441 39.162297 53.058881 41.46875 64 41.46875 C 74.941119 41.46875 88.443559 39.162297 96.6875 38.59375 C 97.108816 38.564701 97.507647 38.5594 97.875 38.5625 C 103.38535 38.609447 102.84664 42.090223 97.25 43.15625 C 92.215693 44.115166 75.65625 48.59375 75.65625 48.59375 C 73.320827 52.044381 70.8373 54.002439 72.25 68.75 C 72.25 68.75 84.763108 97.173392 86.46875 101.4375 C 88.174394 105.70161 84.779407 107.84163 81.9375 104.5625 C 78.241941 100.29839 64 76.4375 64 76.4375 C 64 76.4375 49.758059 100.29839 46.0625 104.5625 C 43.220592 107.84163 39.825607 105.70161 41.53125 101.4375 C 43.236893 97.173392 55.75 68.75 55.75 68.75 C 57.1627 54.002439 54.679173 52.044381 52.34375 48.59375 C 52.34375 48.59375 35.784307 44.115166 30.75 43.15625 C 25.15336 42.090223 24.614648 38.60945 30.125 38.5625 z " style="fill:#aaaaaa"/>
</svg>