<?xml version="1.0" encoding="UTF-8" standalone="no"?>
<svg xmlns:dc="http://purl.org/dc/elements/1.1/"
     xmlns:cc="http://creativecommons.org/ns#"
     xmlns:rdf="http://www.w3.org/1999/02/22-rdf-syntax-ns#"
     xmlns:svg="http://www.w3.org/2000/svg"
     xmlns="http://www.w3.org/2000/svg"
     xmlns:xlink="http://www.w3.org/1999/xlink"
     width="128" height="128" version="1.1">
    <title>Donkey Icon</title>
    <desc>This is shape (source) for Clarity vector icon theme for gtk</desc>
    <metadata>
        <rdf:RDF>
            <cc:Work rdf:about="">
                <dc:title>Donkey Icon</dc:title>
                <dc:description>This is shape (source) for Clarity vector icon theme for gtk</dc:description>
                <dc:creator>
                    <cc:Agent>
                        <dc:title>Jakub Jankiewicz</dc:title>
                    </cc:Agent>
                </dc:creator>
                <dc:rights>
                    <cc:Agent>
                        <dc:title>Jakub Jankiewicz</dc:title>
                    </cc:Agent>
                </dc:rights>
                <dc:date>2010</dc:date>
                <dc:format>image/svg+xml</dc:format>
                <dc:type rdf:resource="http://purl.org/dc/dcmitype/StillImage" />
                <cc:license rdf:resource="http://www.gnu.org/copyleft/gpl.html" />
             </cc:Work>
        </rdf:RDF>
    </metadata>
    <path d="m 22.307999,8.588353 c -0.16864,0.021095 -0.441042,0.1229766 -0.724428,0.2173284 -0.142894,0.047569 -0.48372,0.1407941 -1.050421,0.615764 -0.434039,0.3637812 -1.026051,1.4627246 -1.086642,1.9921776 -0.145071,1.267638 0.09284,2.049476 0.398435,3.296148 0.289233,1.179912 0.694881,2.476532 1.231528,3.984356 1.0733,3.015662 2.60105,6.661934 4.382791,10.576652 3.33769,7.333332 7.470601,15.503408 11.264859,21.732846 a 0.82132362,0.82132362 0 0 1 0.108664,0.579543 c -1.213219,7.29882 1.0142,15.059608 1.0142,21.515518 0,3.696525 -1.446299,9.694947 -2.173285,15.068107 -0.07566,0.559145 -0.03897,1.104369 -0.108664,1.774849 a 0.82132362,0.82132362 0 0 1 -0.108665,0.289771 c -1.179349,2.455103 -1.5288,4.979813 -0.869313,7.497832 1.259983,4.810785 5.914073,8.718465 12.568829,11.083755 6.656195,2.3658 15.279283,3.21057 24.087239,1.88352 1.071377,-0.16142 2.036388,-0.36163 3.078819,-0.57955 a 0.82132362,0.82132362 0 0 1 0.905536,0.39844 c 0.37728,0.64109 0.716925,1.21839 1.122863,1.81107 1.973411,2.88125 4.056773,5.41864 7.099397,6.66474 1.587301,0.65007 2.82133,0.46258 4.201684,0.18111 1.339983,-0.27324 2.655546,-0.70943 3.911912,-1.30398 1.269058,-0.60054 2.413597,-1.2994 3.441034,-2.13706 1.090654,-0.8892 1.988165,-1.56233 2.426835,-3.33237 0.787989,-3.17952 -0.3795,-5.61878 -1.847292,-8.36715 -0.453432,-0.84903 -0.989663,-1.64132 -1.557521,-2.46306 a 0.82132362,0.82132362 0 0 1 0.108664,-1.05042 c 3.729363,-3.751719 5.339565,-8.036533 4.237905,-12.242833 -0.02456,-0.09377 -0.129061,-0.318764 -0.25355,-0.688207 a 0.82132362,0.82132362 0 0 1 -0.07244,-0.325992 c -0.01584,0.147672 -0.01877,0.04636 0,-0.181107 0.110646,-1.260251 -0.159285,-2.303886 -0.579543,-3.33237 -0.872819,-2.136075 -2.316724,-4.121702 -3.948134,-6.193861 -1.633934,-2.075363 -3.425545,-4.25872 -4.962333,-6.266305 -1.536788,-2.007584 -2.810754,-3.785508 -3.404813,-5.252104 -1.293726,-3.193946 -1.705956,-7.301925 -2.31817,-11.55463 -0.300991,-2.090823 -0.724565,-4.208173 -1.376414,-6.302526 a 0.82132362,0.82132362 0 0 1 0.941757,-1.050421 c 4.009603,0.685628 7.986799,1.229746 11.518409,1.629964 2.871862,0.325453 5.46352,0.560339 7.570271,0.615764 2.18835,0.05758 3.38847,0.25667 5.21588,-0.470879 0.25821,-0.102799 0.79209,-0.528624 1.19531,-1.050421 0.40322,-0.521796 0.66245,-1.126182 0.68821,-1.593742 0.0682,-1.237543 -0.23131,-1.577496 -0.57954,-2.100841 -0.61937,-0.930788 -1.18735,-1.415991 -2.0284,-2.100842 -1.63058,-1.327743 -4.00691,-2.887817 -6.664741,-4.491455 -5.309046,-3.203291 -11.818198,-6.591649 -16.408299,-8.222261 -2.910765,-1.03404 -6.207491,-1.452307 -9.49001,-1.376413 -3.269716,0.07559 -6.426192,0.561422 -9.019131,1.593742 -1.561605,0.621719 -2.198301,1.536801 -3.006377,2.644163 -0.191049,0.261807 -0.388221,0.59522 -0.579543,0.905535 a 0.82132362,0.82132362 0 0 1 -0.760649,0.398436 c -1.102062,-0.0874 -2.195589,-0.102533 -3.223706,0 -1.993463,0.198796 -3.96244,0.874201 -5.940311,1.774849 A 0.82132362,0.82132362 0 0 1 49.80005,34.848876 C 49.114029,33.316555 48.310176,31.866359 47.336994,30.538528 44.391563,26.519732 39.23197,21.173078 34.405951,16.73817 31.992031,14.519882 29.675909,12.513857 27.741211,11.08763 26.779083,10.378366 25.884463,9.8351299 25.024605,9.385224 24.542989,9.1332273 24.235995,8.9414323 23.756856,8.8056814 23.279308,8.6703826 22.908199,8.513279 22.307999,8.588353 z m 5.722983,10.069552 a 0.82132362,0.82132362 0 0 1 0.579543,0.217329 c 0.721137,0.626673 1.276193,1.017035 2.100842,1.774849 4.634365,4.258785 9.713154,9.637578 12.206615,13.039708 0.878183,1.198211 1.55493,2.794491 2.173285,4.310348 a 0.82132362,0.82132362 0 0 1 -0.25355,0.977978 c -1.777473,1.358401 -3.398901,2.756687 -4.636341,4.382791 A 0.82132362,0.82132362 0 0 1 38.824963,43.252243 C 35.901241,38.070525 32.841194,32.652418 30.312931,27.097494 29.059826,24.344262 28.194055,22.042246 27.306554,19.780769 a 0.82132362,0.82132362 0 0 1 0.724428,-1.122864 z m 45.457871,14.669672 c 2.678907,-0.06194 5.530178,0.336168 7.642718,1.086642 3.784063,1.344271 10.222886,4.592475 15.249214,7.606496 a 0.82132362,0.82132362 0 0 1 -0.5071,1.5213 c -0.418798,-0.04254 -0.753184,-0.0061 -1.340192,-0.07244 C 89.319333,42.878677 82.984175,41.76172 77.147216,40.571859 A 0.82132362,0.82132362 0 0 1 76.785001,40.390752 C 74.615609,38.430246 71.781122,36.950366 68.743848,35.71819 a 0.82132362,0.82132362 0 0 1 0.108664,-1.557521 c 1.364182,-0.356909 2.811702,-0.790905 4.636341,-0.833092 z M 57.442768,38.79701 c 1.166313,-0.116298 2.576239,0.04796 4.165462,0.362214 0.536731,0.103321 1.085296,0.200407 1.666185,0.362214 0.266929,0.07038 0.506158,0.13114 0.796871,0.217328 a 0.82132362,0.82132362 0 0 1 0.03622,0 c 0.270522,0.08518 0.594858,0.217553 0.905535,0.325993 0.01101,0.0038 0.0252,-0.0039 0.03622,0 0.164773,0.05919 0.283645,0.130134 0.325993,0.144886 a 0.82132362,0.82132362 0 0 1 0.03622,0 c 1.009976,0.372757 1.984652,0.799835 2.933935,1.267749 1.083322,0.533992 2.158615,1.151974 3.042598,1.738628 0.41565,0.275846 0.784796,0.507758 1.195307,0.833092 0.241136,0.192704 0.361062,0.355491 0.325992,0.325993 0.227356,0.19257 0.458885,0.385967 0.688207,0.615764 0.154323,0.152277 0.373124,0.342995 0.579543,0.579543 0.01954,0.02238 0.01693,0.04909 0.03622,0.07244 l 0.108664,0.07244 a 0.82132362,0.82132362 0 0 1 0.07244,0.07244 c 1.741695,2.224417 2.511494,5.47667 3.07882,9.417567 0.580843,4.03479 0.95467,8.561954 2.680385,12.822379 1.009686,2.492694 2.688658,4.906282 4.491455,7.208061 a 0.82132362,0.82132362 0 0 1 -0.869314,1.303971 c -6.338221,-1.874774 -14.070429,-2.435119 -22.05884,-1.231528 -7.151844,1.077549 -13.41037,3.392193 -18.146926,6.41119 A 0.82132362,0.82132362 0 0 1 42.33844,80.886289 c 0.455869,-2.681687 0.869313,-5.38256 0.869313,-7.787603 0,-7.8345 -1.763077,-15.800241 -0.724428,-21.660404 0.0024,-0.03656 -0.0092,-0.02713 0,-0.07244 a 0.82132362,0.82132362 0 0 1 0,-0.03622 c 0.114101,-0.549453 0.234139,-0.979419 0.362214,-1.412635 0.147714,-0.499703 0.334191,-0.991854 0.5071,-1.376414 0.195834,-0.43549 0.489206,-0.903495 0.833093,-1.376413 0.01172,-0.02825 0.03807,-0.109511 0.144885,-0.25355 0.242478,-0.316825 0.450984,-0.447038 0.470879,-0.470879 0.298704,-0.357944 0.590151,-0.769557 1.05042,-1.231528 0.58647,-0.588639 1.276688,-1.232566 1.992178,-1.81107 0.72346,-0.584945 1.506872,-1.101883 2.281949,-1.593742 l 1.159085,-0.724428 a 0.82132362,0.82132362 0 0 1 0.03622,-0.03622 c 2.179373,-1.196498 4.411086,-2.07517 6.121419,-2.245727 z m 12.351501,17.639827 c -2.525604,0 -4.636337,2.41002 -4.636341,5.614319 0,3.204299 2.123774,5.686761 4.636341,5.686761 2.512566,0 4.672562,-2.488009 4.672562,-5.686761 0,-3.198753 -2.146958,-5.614317 -4.672562,-5.614319 z m -13.945243,1.557521 c -0.273537,-0.009 -0.633709,0.02835 -1.0142,0.108664 -2.733943,0.577043 -4.783798,3.77902 -4.310348,7.280503 0.473579,3.502446 3.111401,5.681372 5.831648,5.107219 2.7282,-0.575829 4.783705,-3.815917 4.310348,-7.316725 -0.415071,-3.069723 -2.52378,-5.103845 -4.817448,-5.179661 z m 33.178812,46.508292 a 0.82132362,0.82132362 0 0 1 0.688207,0.32599 c 0.403523,0.52759 0.764516,1.09925 1.086642,1.70241 0.761225,1.42535 1.100089,2.96371 1.26775,3.69459 1.32e-4,2.2e-4 0.07235,0.18081 0.07244,0.1811 0.0032,0.014 -0.003,0.0593 0,0.0725 0.01101,0.0531 0.03476,0.11069 0.03622,0.14488 0.0024,0.0567 0.0021,0.0403 0,0.0725 -0.0029,-0.0371 -0.03625,-0.10884 -0.03622,-0.10861 1.7e-5,1e-4 -0.01545,-0.0465 -0.03622,-0.10861 l -0.760649,0.18099 -0.615764,-0.47087 c -0.01851,0.021 -0.02804,0.0254 -0.03622,0.0362 l 0.651986,0.5071 0.615764,0.54332 c -0.146173,0.16796 -0.263212,0.23857 -0.325993,0.28977 -0.602119,0.4909 -1.439876,0.94365 -2.354392,1.37641 -0.93472,0.44235 -1.90734,0.78414 -2.680384,0.94176 -0.422705,0.0861 -0.783654,0.11862 -1.0142,0.10861 a 0.82132362,0.82132362 0 0 1 -0.362214,-0.10861 c -0.47844,-0.27865 -1.082759,-0.80605 -1.883513,-1.59374 -0.800754,-0.78769 -1.738817,-1.80575 -2.499278,-2.89771 a 0.82132362,0.82132362 0 0 1 0.398436,-1.23153 c 2.728648,-0.98118 5.19447,-2.18289 7.389168,-3.51348 a 0.82132362,0.82132362 0 0 1 0.398435,-0.14489 z" style="fill:#aaaaaa"/>
</svg>