<?xml version="1.0" encoding="UTF-8" standalone="no"?>
<svg xmlns:dc="http://purl.org/dc/elements/1.1/"
     xmlns:cc="http://creativecommons.org/ns#"
     xmlns:rdf="http://www.w3.org/1999/02/22-rdf-syntax-ns#"
     xmlns:svg="http://www.w3.org/2000/svg"
     xmlns="http://www.w3.org/2000/svg"
     xmlns:xlink="http://www.w3.org/1999/xlink"
     width="128" height="128" version="1.1">
    <title>Android Logo</title>
    <desc>This is shape (source) for Clarity vector icon theme for gtk</desc>
    <metadata>
        <rdf:RDF>
            <cc:Work rdf:about="">
                <dc:title>Android Logo</dc:title>
                <dc:description>This is shape (source) for Clarity vector icon theme for gtk</dc:description>
                <dc:creator>
                    <cc:Agent>
                        <dc:title>Jakub Jankiewicz</dc:title>
                    </cc:Agent>
                </dc:creator>
                <dc:rights>
                    <cc:Agent>
                        <dc:title>Jakub Jankiewicz</dc:title>
                    </cc:Agent>
                </dc:rights>
                <dc:date>2010</dc:date>
                <dc:format>image/svg+xml</dc:format>
                <dc:type rdf:resource="http://purl.org/dc/dcmitype/StillImage" />
                <cc:license rdf:resource="http://creativecommons.org/licenses/by-sa/3.0/" />
             </cc:Work>
        </rdf:RDF>
    </metadata>
    <path d="m 48.78256,13.193689 c 0.670698,-0.07217 1.347167,0.2562 1.695793,0.88515 l 3.939964,7.108029 c 3.024214,-1.212259 6.284639,-1.842031 9.581682,-1.85077 3.299936,0.0026 6.564533,0.627262 9.593603,1.835869 l 3.931023,-7.093128 c 0.348631,-0.628947 1.025095,-0.957326 1.695793,-0.88515 0.223567,0.02407 0.446019,0.09241 0.655668,0.208622 0.838597,0.464842 1.141371,1.515845 0.676529,2.354441 l -3.844595,6.93517 c 6.982147,3.973647 11.312319,10.93826 11.506961,18.507697 H 39.796939 c 0.187082,-7.57101 4.511831,-14.540406 11.492058,-18.519617 l -3.838634,-6.92325 c -0.464841,-0.838596 -0.162067,-1.889599 0.676529,-2.354441 0.20965,-0.116214 0.432101,-0.184559 0.655668,-0.208622 z m 4.035333,15.566135 c -1.10625,0 -2.023628,0.917377 -2.023628,2.023627 0,1.106251 0.917378,2.023628 2.023628,2.023628 1.10625,0 2.023627,-0.91738 2.023627,-2.023628 0,-1.106253 -0.917377,-2.023627 -2.023627,-2.023627 z m 22.367192,0 c -1.10625,0 -2.023628,0.917377 -2.023628,2.023627 0,1.106251 0.917379,2.023628 2.023628,2.023628 1.10625,0 2.023627,-0.91738 2.023627,-2.023628 0,-1.106253 -0.917377,-2.023627 -2.023627,-2.023627 z M 31.487846,43.419946 c 3.196362,0 5.769871,2.57351 5.769871,5.769873 v 20.435953 c 0,3.19636 -2.573509,5.769872 -5.769871,5.769872 -3.196358,0 -5.769871,-2.573512 -5.769871,-5.769872 V 49.189819 c 0,-3.196363 2.573513,-5.769873 5.769871,-5.769873 z m 65.024305,0 c 3.196369,0 5.769869,2.57351 5.769869,5.769873 v 20.435953 c 0,3.19636 -2.5735,5.769872 -5.769869,5.769872 -3.19636,0 -5.769872,-2.573512 -5.769872,-5.769872 V 49.189819 c 0,-3.196363 2.573513,-5.769873 5.769872,-5.769873 z m -56.742035,0.998403 h 48.459765 v 34.294374 c 0,3.245213 -2.611085,5.856301 -5.856298,5.856301 h -1.278552 c 0.07663,0.39701 0.122195,0.804841 0.122195,1.224905 v 22.632441 c 0,3.54023 -2.84954,6.38977 -6.389775,6.38977 -3.540235,0 -6.392755,-2.84954 -6.392755,-6.38977 V 85.793929 c 0,-0.420064 0.04549,-0.827895 0.122196,-1.224905 h -9.113774 c 0.07671,0.39701 0.122196,0.804841 0.122196,1.224905 v 22.632441 c 0,3.54023 -2.852521,6.38977 -6.392756,6.38977 -3.540234,0 -6.389774,-2.84954 -6.389774,-6.38977 V 85.793929 c 0,-0.420064 0.04556,-0.827895 0.122195,-1.224905 h -1.27557 c -3.245214,0 -5.85928,-2.611088 -5.85928,-5.856301 z" style="fill:#aaaaaa"/>
</svg>