<?xml version="1.0" encoding="UTF-8" standalone="no"?>
<svg xmlns:dc="http://purl.org/dc/elements/1.1/"
     xmlns:cc="http://creativecommons.org/ns#"
     xmlns:rdf="http://www.w3.org/1999/02/22-rdf-syntax-ns#"
     xmlns:svg="http://www.w3.org/2000/svg"
     xmlns="http://www.w3.org/2000/svg"
     xmlns:xlink="http://www.w3.org/1999/xlink"
     width="128" height="128" version="1.1">
    <title>Android Studio Icon</title>
    <desc>This is shape (source) for Clarity vector icon theme for gtk</desc>
    <metadata>
        <rdf:RDF>
            <cc:Work rdf:about="">
                <dc:title>Android Studio Icon</dc:title>
                <dc:description>This is shape (source) for Clarity vector icon theme for gtk</dc:description>
                <dc:creator>
                    <cc:Agent>
                        <dc:title>Jakub Jankiewicz</dc:title>
                    </cc:Agent>
                </dc:creator>
                <dc:rights>
                    <cc:Agent>
                        <dc:title>Jakub Jankiewicz</dc:title>
                    </cc:Agent>
                </dc:rights>
                <dc:date>2010</dc:date>
                <dc:format>image/svg+xml</dc:format>
                <dc:type rdf:resource="http://purl.org/dc/dcmitype/StillImage" />
                <cc:license rdf:resource="http://creativecommons.org/licenses/by-sa/3.0/" />
             </cc:Work>
        </rdf:RDF>
    </metadata>
    <path d="m 67.892002,6.8806521 c -3.27902,0 -5.97875,2.679803 -6.01367,5.9511719 l -0.0215,0.597656 v 8.035156 c -5.24625,2.321885 -8.92383,7.577129 -8.92383,13.667969 0,2.332533 0.54028,4.541595 1.5,6.511719 l -0.10742,0.222656 -12.70508,26.107422 c -4.38893,-3.356449 -7.95625,-7.19671 -11.71289,-12.220703 l -0.041,-0.05274 -0.043,-0.05078 c -1.15377,-1.323831 -3.20293,-1.595238 -4.64063,-0.669922 l -0.0547,0.03516 -0.0527,0.04102 c -3.15133,2.370457 -5.23546,3.74139 -8.42969,6.365235 l 0.12891,-0.0957 c -0.80909,0.549994 -1.47613,1.405435 -1.65625,2.431641 -0.17995,1.025222 0.15347,2.065413 0.73828,2.884766 v 0.002 c 4.08748,6.707479 10.69552,13.25728 17.82813,17.699219 l -9.16993,18.789062 -0.0137,0.0332 c -0.41892,0.95501 -1.03785,2.06891 -1.14844,4.07226 -0.15807,2.8635 -0.3454,5.1927 -0.43164,6.98047 -0.0431,0.89389 -0.0635,1.64866 -0.0312,2.3125 0.0321,0.66384 0.0251,1.2149 0.45703,1.97656 0.70829,1.24909 1.85457,2.20891 3.21485,2.41797 1.36028,0.20907 2.67357,-0.32642 3.72265,-1.1875 1.33325,-1.09429 3.20266,-2.48559 4.90821,-3.91797 1.70555,-1.43237 3.26598,-2.78396 4.10937,-4.50976 l 0.002,-0.002 9.52929,-19.669921 c 12.26101,3.877036 27.69917,4.094348 38.09766,-0.03906 l 9.33594,19.376951 c 0.76362,1.58479 2.15805,2.83626 3.66601,4.21485 1.507958,1.37862 3.133408,2.73342 4.130858,3.66992 1.42562,1.33847 3.02251,2.33204 4.91016,2.2539 0.94382,-0.0391 1.96599,-0.47044 2.65039,-1.24414 0.68439,-0.77367 1.03587,-1.77009 1.17578,-2.89257 0.39741,-3.18788 -0.22964,-5.98807 -0.37304,-9.72657 -0.0551,-1.43474 -0.65121,-2.55081 -1.40821,-4.17382 -0.75698,-1.62305 -1.74549,-3.562311 -2.78711,-5.718751 L 81.661582,42.353325 81.317832,41.638481 c 0.95787,-1.968603 1.49609,-4.175705 1.49609,-6.505859 0,-6.072568 -3.65586,-11.314024 -8.87695,-13.646484 v -8.019531 l -0.0332,-0.664063 c -0.0508,-3.2579309 -2.74257,-5.9218749 -6.01172,-5.9218749 z m -0.0176,16.8066409 c 6.34223,0 11.44531,5.103086 11.44531,11.445312 0,6.342226 -5.10308,11.447266 -11.44531,11.447266 -6.34222,0 -11.44727,-5.10504 -11.44727,-11.447266 0,-6.342226 5.10505,-11.445312 11.44727,-11.445312 z m 0,7.246093 c -2.3195,-10e-5 -4.201,1.879722 -4.20117,4.199219 -10e-5,2.319692 1.88148,4.19932 4.20117,4.199219 2.31969,1.01e-4 4.19932,-1.879527 4.19922,-4.199219 -1.8e-4,-2.319497 -1.87972,-4.199319 -4.19922,-4.199219 z m 0.084,21.71875 10.85352,22.535157 c -7.38208,1.98445 -13.84326,2.05404 -21.93359,-0.03711 z" style="fill:#aaaaaa"/>
</svg>