<?xml version="1.0" encoding="UTF-8" standalone="no"?>
<svg xmlns:dc="http://purl.org/dc/elements/1.1/"
     xmlns:cc="http://creativecommons.org/ns#"
     xmlns:rdf="http://www.w3.org/1999/02/22-rdf-syntax-ns#"
     xmlns:svg="http://www.w3.org/2000/svg"
     xmlns="http://www.w3.org/2000/svg"
     xmlns:xlink="http://www.w3.org/1999/xlink"
     width="128" height="128" version="1.1">
    <title>Clarity Icon</title>
    <desc>This is shape (source) for Clarity vector icon theme for gtk</desc>
    <metadata>
        <rdf:RDF>
            <cc:Work rdf:about="">
                <dc:title>Clarity Icon</dc:title>
                <dc:description>This is shape (source) for Clarity vector icon theme for gtk</dc:description>
                <dc:creator>
                    <cc:Agent>
                        <dc:title>Jakub Jankiewicz</dc:title>
                    </cc:Agent>
                </dc:creator>
                <dc:rights>
                    <cc:Agent>
                        <dc:title>Jakub Jankiewicz</dc:title>
                    </cc:Agent>
                </dc:rights>
                <dc:date>2010</dc:date>
                <dc:format>image/svg+xml</dc:format>
                <dc:type rdf:resource="http://purl.org/dc/dcmitype/StillImage" />
                <cc:license rdf:resource="http://www.gnu.org/copyleft/gpl.html" />
             </cc:Work>
        </rdf:RDF>
    </metadata>
    <path d="M 16.25 12.46875 C 13.038996 12.46875 10.46875 15.038995 10.46875 18.25 L 10.46875 88.25 C 10.46875 91.460998 13.038996 94.0625 16.25 94.0625 L 33.71875 94.0625 L 33.71875 88.25 L 16.46875 88.25 L 16.46875 31.21875 L 96.75 31.21875 L 96.75 57.28125 L 102.75 57.28125 L 102.75 18.25 C 102.75 15.038995 100.17975 12.46875 96.96875 12.46875 L 16.25 12.46875 z M 47.875 54.3125 C 45.530179 54.3125 43.625 56.217675 43.625 58.5625 L 43.625 60.1875 C 39.714808 60.310782 36.59375 63.496277 36.59375 67.4375 L 36.59375 102.90625 C 36.59375 106.92617 39.823834 110.1875 43.84375 110.1875 L 110.875 110.1875 C 114.89493 110.1875 118.125 106.92617 118.125 102.90625 L 118.125 67.4375 C 118.125 63.417579 114.89493 60.15625 110.875 60.15625 L 58.78125 60.15625 L 58.78125 58.5625 C 58.78125 56.217675 56.876079 54.3125 54.53125 54.3125 L 47.875 54.3125 z M 93.3125 70.4375 C 101.43712 70.4375 108.03125 77.031623 108.03125 85.15625 C 108.03125 93.280873 101.43712 99.875 93.3125 99.875 C 85.187873 99.875 78.59375 93.280873 78.59375 85.15625 C 78.59375 77.031623 85.187873 70.4375 93.3125 70.4375 z M 54.78125 71.9375 C 55.558065 71.9375 56.1875 72.566936 56.1875 73.34375 L 56.1875 97 C 56.1875 97.776808 55.558065 98.40625 54.78125 98.40625 C 54.004436 98.40625 53.40625 97.776808 53.40625 97 L 53.40625 73.34375 C 53.40625 72.566936 54.004436 71.9375 54.78125 71.9375 z M 93.3125 76.34375 C 88.437724 76.34375 84.5 80.281477 84.5 85.15625 C 84.5 90.031022 88.437724 94 93.3125 94 C 98.187269 94 102.15625 90.031022 102.15625 85.15625 C 102.15625 80.281477 98.187269 76.34375 93.3125 76.34375 z " style="fill:#aaaaaa"/>
</svg>