<?xml version="1.0" encoding="UTF-8" standalone="no"?>
<svg xmlns:dc="http://purl.org/dc/elements/1.1/"
     xmlns:cc="http://creativecommons.org/ns#"
     xmlns:rdf="http://www.w3.org/1999/02/22-rdf-syntax-ns#"
     xmlns:svg="http://www.w3.org/2000/svg"
     xmlns="http://www.w3.org/2000/svg"
     xmlns:xlink="http://www.w3.org/1999/xlink"
     width="128" height="128" version="1.1">
    <title>aTunes Icon</title>
    <desc>This is shape (source) for Clarity vector icon theme for gtk</desc>
    <metadata>
        <rdf:RDF>
            <cc:Work rdf:about="">
                <dc:title>aTunes Icon</dc:title>
                <dc:description>This is shape (source) for Clarity vector icon theme for gtk</dc:description>
                <dc:creator>
                    <cc:Agent>
                        <dc:title>Jakub Jankiewicz</dc:title>
                    </cc:Agent>
                </dc:creator>
                <dc:rights>
                    <cc:Agent>
                        <dc:title>Jakub Jankiewicz</dc:title>
                    </cc:Agent>
                </dc:rights>
                <dc:date>2010</dc:date>
                <dc:format>image/svg+xml</dc:format>
                <dc:type rdf:resource="http://purl.org/dc/dcmitype/StillImage" />
                <cc:license rdf:resource="http://www.gnu.org/copyleft/gpl.html" />
             </cc:Work>
        </rdf:RDF>
    </metadata>
    <path d="M 64 15.5625 C 37.252377 15.5625 15.5625 37.252377 15.5625 64 C 15.5625 90.747623 37.252377 112.4375 64 112.4375 C 90.747623 112.4375 112.4375 90.747623 112.4375 64 C 112.4375 37.252377 90.747623 15.5625 64 15.5625 z M 64.34375 27.8125 C 70.564654 43.366391 88.944996 49.722906 90.28125 67.78125 C 80.29491 50.929177 78.21675 56.993208 71.28125 52.46875 L 71.28125 91 C 71.28125 96.04085 63.818209 100.1875 54.53125 100.1875 C 45.244269 100.1875 37.71875 96.04085 37.71875 91 C 37.71875 85.959144 45.244269 81.875 54.53125 81.875 C 58.204471 81.875 61.577733 82.540234 64.34375 83.625 L 64.34375 47.34375 L 64.34375 27.8125 z " style="fill:#aaaaaa"/>
</svg>