<?xml version="1.0" encoding="UTF-8" standalone="no"?>
<svg xmlns:dc="http://purl.org/dc/elements/1.1/"
     xmlns:cc="http://creativecommons.org/ns#"
     xmlns:rdf="http://www.w3.org/1999/02/22-rdf-syntax-ns#"
     xmlns:svg="http://www.w3.org/2000/svg"
     xmlns="http://www.w3.org/2000/svg"
     xmlns:xlink="http://www.w3.org/1999/xlink"
     width="128" height="128" version="1.1">
    <title>NWN Icon</title>
    <desc>This is shape (source) for Clarity vector icon theme for gtk</desc>
    <metadata>
        <rdf:RDF>
            <cc:Work rdf:about="">
                <dc:title>NWN Icon</dc:title>
                <dc:description>This is shape (source) for Clarity vector icon theme for gtk</dc:description>
                <dc:creator>
                    <cc:Agent>
                        <dc:title>Jakub Jankiewicz</dc:title>
                    </cc:Agent>
                </dc:creator>
                <dc:rights>
                    <cc:Agent>
                        <dc:title>Jakub Jankiewicz</dc:title>
                    </cc:Agent>
                </dc:rights>
                <dc:date>2010</dc:date>
                <dc:format>image/svg+xml</dc:format>
                <dc:type rdf:resource="http://purl.org/dc/dcmitype/StillImage" />
                <cc:license rdf:resource="http://www.gnu.org/copyleft/gpl.html" />
             </cc:Work>
        </rdf:RDF>
    </metadata>
    <path d="m 85.46875,25.8125 c -1.296814,0 -2.34375,1.015686 -2.34375,2.3125 l 0,0.3125 c 0,1.296814 1.046936,2.34375 2.34375,2.34375 l 34.40625,0 c 1.29681,0 2.34375,-1.046936 2.34375,-2.34375 l 0,-0.3125 c 0,-1.296814 -1.04694,-2.3125 -2.34375,-2.3125 l -34.40625,0 z m 6.4375,17.3125 c -3.809242,0 -6.9375,3.128258 -6.9375,6.9375 l 0,10 -75.75,0 c -2.735836,0 -4.9375,2.201664 -4.9375,4.9375 l 0,32.25 c 0,2.735836 2.201664,4.9375 4.9375,4.9375 l 109.5625,0 c 2.73584,0 4.9375,-2.201664 4.9375,-4.9375 l 0,-32.25 c 0,-2.176328 -1.3967,-3.995369 -3.34375,-4.65625 l 0,-10.28125 c 0,-3.809242 -3.12826,-6.9375 -6.9375,-6.9375 l -21.53125,0 z m 0,4 21.53125,0 c 1.66243,0 2.9375,1.27507 2.9375,2.9375 l 0,21.53125 c 0,1.66243 -1.27507,2.9375 -2.9375,2.9375 l -21.53125,0 c -1.66243,0 -2.9375,-1.27507 -2.9375,-2.9375 l 0,-21.53125 c 0,-1.66243 1.27507,-2.9375 2.9375,-2.9375 z m -78.625,18.3125 c 0.166416,-0.0168 0.36026,0 0.53125,0 l 21.5,0 c 2.735836,0 4.9375,2.201664 4.9375,4.9375 l 0,21.5 c 0,2.735836 -2.201664,4.9375 -4.9375,4.9375 l -21.5,0 c -2.735836,0 -4.9375,-2.201664 -4.9375,-4.9375 l 0,-21.5 c 0,-2.564846 1.910017,-4.685508 4.40625,-4.9375 z m 39.0625,0 c 0.166416,-0.0168 0.32901,0 0.5,0 l 21.53125,0 c 2.735836,0 4.9375,2.201664 4.9375,4.9375 l 0,21.5 c 0,2.735836 -2.201664,4.9375 -4.9375,4.9375 l -21.53125,0 c -2.735836,0 -4.9375,-2.201664 -4.9375,-4.9375 l 0,-21.5 c 0,-2.564846 1.941267,-4.685508 4.4375,-4.9375 z m 50.3125,17.84375 9.65625,10.46875 -19.28125,0 9.625,-10.46875 z" style="fill:#aaaaaa"/>
</svg>