<?xml version="1.0" encoding="UTF-8" standalone="no"?>
<!--
    This is shape (source) for Clarity vector icon theme for gtk

    Copyright (c) 2010 Jakub Jankiewicz <http://jcubic.pl> 

    This svg file is free: you can redistribute it and/or modify
    it under the terms of the GNU General Public License as published by
    the Free Software Foundation, either version 3 of the License, or
    (at your option) any later version.

    This program is distributed in the hope that it will be useful,
    but WITHOUT ANY WARRANTY; without even the implied warranty of
    MERCHANTABILITY or FITNESS FOR A PARTICULAR PURPOSE.  See the
    GNU General Public License for more details.

    You should have received a copy of the GNU General Public License
    along with this program.  If not, see <http://www.gnu.org/licenses/>.

-->
<svg xmlns:dc="http://purl.org/dc/elements/1.1/"
     xmlns:cc="http://creativecommons.org/ns#"
     xmlns:rdf="http://www.w3.org/1999/02/22-rdf-syntax-ns#"
     xmlns:svg="http://www.w3.org/2000/svg"
     xmlns="http://www.w3.org/2000/svg"
     xmlns:xlink="http://www.w3.org/1999/xlink"
     width="128" height="128" version="1.1">
    <title>Film Icon</title>
    <desc>This is shape (source) for Clarity vector icon theme for gtk</desc>
    <metadata>
        <rdf:RDF>
            <cc:Work rdf:about="">
                <dc:title>Film Icon</dc:title>
                <dc:description>This is shape (source) for Clarity vector icon theme for gtk</dc:description>
                <dc:creator>
                    <cc:Agent>
                        <dc:title>Jakub Jankiewicz</dc:title>
                    </cc:Agent>
                </dc:creator>
                <dc:rights>
                    <cc:Agent>
                        <dc:title>Jakub Jankiewicz</dc:title>
                    </cc:Agent>
                </dc:rights>
                <dc:date>2010</dc:date>
                <dc:format>image/svg+xml</dc:format>
                <dc:type rdf:resource="http://purl.org/dc/dcmitype/StillImage" />
                <cc:license rdf:resource="http://www.gnu.org/copyleft/gpl.html" />
             </cc:Work>
        </rdf:RDF>
    </metadata>
    <path d="m 21.96875,16.9375 -3.9375,14.71875 65.53125,17.5625 -66.375,0 0,61.84375 91.96875,0 0,-61.84375 -0.59375,0 2.25,-8.46875 -88.84375,-23.8125 z m 7.1875,5.34375 7.5,2 -2.09375,8.40625 -7.4375,-2 2.03125,-8.40625 z m 12.53125,3.34375 7.46875,2 -2.0625,8.40625 -7.5,-2 2.09375,-8.40625 z m 12.5,3.375 7.5,2 -2.09375,8.375 -7.46875,-2 L 54.1875,29 z m 12.53125,3.34375 7.4375,2 -2.03125,8.40625 -7.5,-2 2.09375,-8.40625 z m 12.5,3.34375 7.46875,2 -2.0625,8.40625 -7.5,-2 2.09375,-8.40625 z m 20.96875,8.03125 c 1.61263,0 2.9375,1.29362 2.9375,2.90625 0,1.61263 -1.32487,2.90625 -2.9375,2.90625 -1.61263,0 -2.90625,-1.29362 -2.90625,-2.90625 0,-1.61263 1.29362,-2.90625 2.90625,-2.90625 z M 25.5,55.75 l 7.75,0 4.75,11.3125 -7.71875,0 L 25.5,55.75 z m 12.96875,0 7.71875,0 4.78125,11.3125 -7.75,0 -4.75,-11.3125 z m 12.9375,0 7.75,0 4.75,11.3125 -7.71875,0 L 51.40625,55.75 z m 12.96875,0 7.71875,0 4.78125,11.3125 -7.75,0 -4.75,-11.3125 z m 12.9375,0 7.75,0 4.75,11.3125 -7.75,0 -4.75,-11.3125 z M 25.5,79.03125 l 64.3125,0 0,5.96875 -64.3125,0 0,-5.96875 z m 0,16.09375 64.3125,0 0,5.9375 -64.3125,0 0,-5.9375 z" style="fill:#aaaaaa"/>
</svg>