<?xml version="1.0" encoding="UTF-8" standalone="no"?>
<svg xmlns:dc="http://purl.org/dc/elements/1.1/"
     xmlns:cc="http://creativecommons.org/ns#"
     xmlns:rdf="http://www.w3.org/1999/02/22-rdf-syntax-ns#"
     xmlns:svg="http://www.w3.org/2000/svg"
     xmlns="http://www.w3.org/2000/svg"
     xmlns:xlink="http://www.w3.org/1999/xlink"
     width="128" height="128" version="1.1">
    <title>Azureus Icon</title>
    <desc>This is shape (source) for Clarity vector icon theme for gtk</desc>
    <metadata>
        <rdf:RDF>
            <cc:Work rdf:about="">
                <dc:title>Azureus Icon</dc:title>
                <dc:description>This is shape (source) for Clarity vector icon theme for gtk</dc:description>
                <dc:creator>
                    <cc:Agent>
                        <dc:title>Jakub Jankiewicz</dc:title>
                    </cc:Agent>
                </dc:creator>
                <dc:rights>
                    <cc:Agent>
                        <dc:title>Jakub Jankiewicz</dc:title>
                    </cc:Agent>
                </dc:rights>
                <dc:date>2010</dc:date>
                <dc:format>image/svg+xml</dc:format>
                <dc:type rdf:resource="http://purl.org/dc/dcmitype/StillImage" />
                <cc:license rdf:resource="http://creativecommons.org/licenses/by-sa/3.0/" />
             </cc:Work>
        </rdf:RDF>
    </metadata>
    <path d="m 63.793876,113.78358 c -0.198615,-0.52987 0.05364,-1.31616 0.56062,-1.74728 0.506968,-0.43113 1.198919,-1.06441 1.537671,-1.40728 1.101766,-1.11516 6.59518,-9.9094 6.348033,-10.16239 -0.514596,-0.526802 -6.09371,4.38891 -6.101049,5.37557 -0.0053,0.69698 -0.513448,1.04647 -1.521849,1.04647 -1.926252,0 -2.445122,-1.99107 -0.691883,-2.655 1.31857,-0.49934 11.774732,-12.692945 11.300578,-13.178337 -0.509327,-0.521394 -9.352418,-1.628291 -28.27696,-3.539457 -12.171952,-1.22922 -16.907123,-7.734678 -7.714064,-10.598037 0.725976,-0.22612 1.731,-0.756579 2.233399,-1.178813 0.50239,-0.422232 3.587709,-1.814428 6.856258,-3.093764 6.031146,-2.360656 6.651475,-2.995289 3.675231,-3.759976 -1.523043,-0.391315 -4.286698,-1.549325 -9.009085,-3.774925 -2.235692,-1.053652 -2.26416,-1.022233 -3.96395,4.374827 -2.227682,7.073172 -3.84395,7.398645 -16.740795,3.371145 -3.571932,-1.115463 -6.967157,-0.913937 -10.017143,0.594569 -3.254822,1.609815 -4.4495206,1.687825 -4.183385,0.273154 0.137397,-0.730404 1.429284,-1.376469 4.155148,-2.077991 4.295066,-1.105358 4.21998,-1.1762 -2.319381,-2.188062 C 7.9355989,69.150751 7.3465998,68.804255 7.4924092,68.029163 7.7466402,66.677805 9.80229,66.268556 9.80229,67.569297 c 0,0.734348 0.634089,0.980798 2.523422,0.980798 l 2.523421,0 -2.794453,-2.18428 C 10.517724,65.164458 8.5600851,63.90903 7.7043639,63.575982 c -0.8557129,-0.333054 -1.55585,-0.901823 -1.55585,-1.263939 0,-1.116266 1.9588252,-1.505207 2.6761542,-0.531374 0.5801269,0.787577 4.4790809,3.685119 6.9394199,5.157092 0.996311,0.596073 0.40429,-2.3729 -0.898799,-4.507454 -0.691769,-1.133163 -0.72435,-1.638483 -0.151229,-2.345404 0.981629,-1.210819 2.602318,0.108681 2.177254,1.772648 -0.668074,2.615258 1.731156,6.482916 4.269989,6.883409 8.684347,1.369934 12.999316,1.283335 13.004804,-0.260989 0.0029,-0.818601 0.171319,-2.902577 0.374257,-4.631064 l 0.368953,-3.14269 -2.657863,-1.794495 C 17.563888,48.995193 17.050558,38.961011 31.116001,36.716675 c 1.842117,-0.293932 4.195715,-0.710808 5.230226,-0.926383 1.229447,-0.256203 2.1786,-0.0939 2.740333,0.46857 2.407203,2.410333 6.564358,2.381907 11.572851,-0.07912 l 4.725664,-2.322066 -1.934406,-3.917085 -1.934407,-3.917085 -4.753472,0.323119 c -4.200108,0.2855 -4.730682,0.202691 -4.557651,-0.711257 0.16109,-0.850938 0.815091,-0.996519 3.687791,-0.820923 1.920574,0.117412 3.491965,0.08023 3.491965,-0.08262 0,-0.512509 -7.659684,-5.429651 -8.458055,-5.429651 -0.998404,0 -0.619945,-2.623933 0.429528,-2.977961 0.440792,-0.148704 0.936569,0.258623 1.101727,0.905158 0.274889,1.076127 6.104302,4.992757 6.630046,4.454559 0.362218,-0.370799 -2.200779,-4.251929 -2.807862,-4.251929 -0.759227,0 -0.692119,-1.706151 0.08646,-2.198751 0.69868,-0.442035 2.544364,0.847111 2.149417,1.501291 -0.135504,0.224437 0.547159,1.49752 1.517026,2.82909 l 1.763385,2.421035 -0.140159,-4.302355 c -0.10955,-3.362531 0.04818,-4.302357 0.722002,-4.302357 0.655108,0 0.899391,1.147802 1.017256,4.779632 0.162825,5.017649 0.63787,6.435665 3.233835,9.653023 6.645016,8.235614 6.495236,6.878247 1.163088,10.540496 -4.032953,2.769929 -4.262458,3.041255 -2.892574,3.419667 2.331967,0.644181 8.521781,4.13814 11.535833,6.511619 4.133889,3.255329 4.844986,3.625463 5.152238,2.681789 0.144366,-0.443371 0.854409,-3.881692 1.577889,-7.640716 1.99118,-10.345632 2.793948,-11.597427 6.572612,-10.248967 4.239557,1.512937 13.124512,16.835001 17.700922,30.525161 0.866717,2.592767 1.849887,4.751308 2.184827,4.796745 0.973454,0.132086 11.930464,-9.98677 12.541604,-11.582246 0.69599,-1.816979 2.60682,-1.575614 2.87707,0.363426 0.17347,1.244669 -0.37644,1.691866 -1.82591,1.484871 -0.22735,-0.03245 -1.25245,1.336943 -2.27798,3.043138 -1.02553,1.70619 -1.73111,3.102162 -1.56795,3.102162 0.62373,0 9.1272,-6.475895 10.07221,-7.670583 0.5531,-0.699222 1.30637,-1.056963 1.70052,-0.807597 1.38939,0.879043 0.65554,2.56599 -1.59174,3.659039 -1.24734,0.606691 -3.09,1.813347 -4.09479,2.681453 l -1.82689,1.578383 2.43585,-0.41935 c 1.33972,-0.230643 2.69619,-0.665852 3.01437,-0.967124 1.21888,-1.154121 2.77079,-0.588029 2.77079,1.010694 0,1.277735 -0.30166,1.56355 -1.67464,1.586648 -0.92106,0.01551 -2.9078,0.704129 -4.41498,1.530306 l -2.74034,1.50214 2.85664,0.02816 c 1.57114,0.01551 3.02599,-0.252364 3.23299,-0.595224 0.82861,-1.372468 2.74033,-0.664542 2.74033,1.01477 0,1.559216 -0.11617,1.619143 -2.41091,1.243497 -1.81741,-0.297498 -4.54495,0.216785 -11.07973,2.089136 -8.26015,2.366691 -8.723884,2.432968 -9.836834,1.405917 -2.24119,-2.068231 -9.889853,-12.951561 -13.667027,-19.446907 l -3.806023,-6.544955 0,8.548183 c 0,9.956373 -2.472228,17.924279 -5.561432,17.924279 -0.345255,0 -2.264223,0.981845 -4.264367,2.181871 -2.000147,1.200032 -3.964494,2.184433 -4.365218,2.18757 -0.400711,0.0032 -2.098741,0.69568 -3.773389,1.538984 -1.674648,0.843309 -3.59288,1.561041 -4.26274,1.594973 -1.217926,0.06169 -1.217926,0.06169 0,0.563077 2.93195,1.207023 7.406171,2.537103 8.524985,2.534268 2.585627,-0.0066 14.311495,4.554098 14.29644,5.560448 -0.0082,0.540144 -1.088323,5.321085 -2.400547,10.62433 -1.715815,6.93427 -2.20563,9.86454 -1.74408,10.43386 0.787811,0.97175 0.229723,2.67769 -0.875972,2.67769 -1.4563,0 -2.272117,-1.32905 -1.602281,-2.6103 0.337132,-0.64487 0.529833,-2.49544 0.428217,-4.11239 l -0.184757,-2.93988 -1.213161,3.42864 c -0.667241,1.88578 -1.141352,4.02769 -1.053584,4.75984 0.17203,1.43494 -1.124764,2.28098 -2.604957,1.69952 -1.063379,-0.41774 -1.188641,-1.56454 -0.273251,-2.50161 0.352108,-0.36045 1.023135,-2.14144 1.491174,-3.95775 0.468048,-1.8163 0.639775,-3.05025 0.381615,-2.74211 -2.369126,2.82781 -4.525388,6.16792 -4.891014,7.57633 -0.500124,1.92647 -2.724847,2.68331 -3.308761,1.1256 z" style="fill:#aaaaaa"/>
</svg>