<?xml version="1.0" encoding="UTF-8" standalone="no"?>
<svg xmlns:dc="http://purl.org/dc/elements/1.1/"
     xmlns:cc="http://creativecommons.org/ns#"
     xmlns:rdf="http://www.w3.org/1999/02/22-rdf-syntax-ns#"
     xmlns:svg="http://www.w3.org/2000/svg"
     xmlns="http://www.w3.org/2000/svg"
     xmlns:xlink="http://www.w3.org/1999/xlink"
     width="128" height="128" version="1.1">
    <title>Beryl Configure Icon</title>
    <desc>This is shape (source) for Clarity vector icon theme for gtk</desc>
    <metadata>
        <rdf:RDF>
            <cc:Work rdf:about="">
                <dc:title>Beryl Configure Icon</dc:title>
                <dc:description>This is shape (source) for Clarity vector icon theme for gtk</dc:description>
                <dc:creator>
                    <cc:Agent>
                        <dc:title>Jakub Jankiewicz</dc:title>
                    </cc:Agent>
                </dc:creator>
                <dc:rights>
                    <cc:Agent>
                        <dc:title>Jakub Jankiewicz</dc:title>
                    </cc:Agent>
                </dc:rights>
                <dc:date>2010</dc:date>
                <dc:format>image/svg+xml</dc:format>
                <dc:type rdf:resource="http://purl.org/dc/dcmitype/StillImage" />
                <cc:license rdf:resource="http://creativecommons.org/licenses/by-sa/3.0/" />
             </cc:Work>
        </rdf:RDF>
    </metadata>
    <path d="m 45.322127,10.282 c -0.27687,-0.0038 -0.589847,0.03047 -0.90625,0.1875 l -25.625,13.375 a 0.55998918,0.55998918 0 0 0 -0.03125,0 c -0.364735,0.199471 -0.610706,0.536916 -0.78125,0.90625 -0.0063,0.01361 -0.02528,0.0175 -0.03125,0.03125 l -8.03125,17.25 c -0.393157,0.786142 -0.144857,1.690381 0.46875,2.28125 l -0.03125,0.03125 45,62.53125 3.71875,-5.9375 -19.5625,-38.34375 26.59375,0 c -0.171429,-0.755149 -0.737465,-1.385811 -1.5625,-1.71875 l -5.59375,-2.25 -19.8125,0 7.90625,-20.84375 31.9375,0 7.90625,20.84375 -3.28125,0 c 0.339038,1.295805 0.549555,2.635353 0.625,3.96875 l 2.28125,0 -2.59375,5.125 2.90625,2.90625 4.40625,-8.625 14.281253,-10.34375 -1.5,2.09375 0.375,-0.375 c 1.88672,-1.886716 4.37543,-2.885211 6.875,-2.90625 l 4.40625,-6.125 -0.0312,-0.03125 c 0.61361,-0.590869 0.86191,-1.495108 0.46875,-2.28125 l -8.03125,-17.25 c -0.003,-0.0074 0.003,-0.02392 0,-0.03125 l -0.0312,0 c -0.1706,-0.36933 -0.41652,-0.706779 -0.78125,-0.90625 a 0.55998918,0.55998918 0 0 0 -0.0312,0 L 81.603527,10.4695 c -0.316458,-0.157063 -0.629501,-0.1913 -0.90625,-0.1875 -0.01035,-5.49e-4 -0.02096,3.92e-4 -0.03125,0 -0.05144,-0.002 -0.104808,-0.002 -0.15625,0 -0.01041,2.69e-4 -0.02084,-2.68e-4 -0.03125,0 -11.636326,0.299674 -23.285304,0.137132 -34.9375,0 -0.01042,-1.23e-4 -0.02083,1.23e-4 -0.03125,0 -0.05144,-0.002 -0.104808,-0.002 -0.15625,0 l -0.03125,0 z m 0.78125,3.9375 c 11.286103,0.2921 22.541866,0.135879 33.8125,0 l 11.15625,11.46875 -11.4375,8.15625 -33.25,0 -11.4375,-8.15625 11.15625,-11.46875 z m -10.71875,5.40625 -4.78125,4.9375 -0.03125,0 0,0.03125 -0.03125,0 -13.375,11.1875 4.0625,-8.75 14.15625,-7.40625 z m 55.25,0 14.156253,7.40625 4.0625,8.75 -13.406253,-11.1875 -0.03125,-0.03125 -4.78125,-4.9375 z m -58.53125,8.84375 11.21875,8.0625 -7.96875,20.96875 -20.4375,-14.71875 17.1875,-14.3125 z m 61.8125,0 L 111.10338,42.782 90.665877,57.50075 82.697127,36.532 93.915877,28.4695 z m -29.46875,18.5 c -4.346896,-0.003 -8.654063,1.622812 -11.96875,4.9375 -0.2031,0.20311 -0.434113,0.445872 -0.625,0.65625 l 13.8125,5.5625 c 2.805524,1.132156 4.163406,4.288226 3.03125,7.09375 l -1.3125,3.25 c -1.132155,2.805525 -4.319479,4.163403 -7.125,3.03125 L 47.665877,66.407 c 0.51327,3.489066 2.128844,6.847594 4.8125,9.53125 4.482796,4.482796 10.860033,5.892254 16.5625,4.3125 l 35.156253,35.1875 c 3.01289,3.01289 7.86212,3.01288 10.875,0 l 0.75,-0.75 c 3.01288,-3.01288 3.0129,-7.8621 0,-10.875 L 80.759627,68.75075 c 1.709131,-5.774477 0.276438,-12.254808 -4.28125,-16.8125 -3.314687,-3.314687 -7.684354,-4.965723 -12.03125,-4.96875 z m -43.9375,4.6875 14.28125,10.34375 16.625,32.65625 -30.90625,-43 z m 90.843753,1.78125 c -1.76407,-0.0026 -3.52189,0.678147 -4.875,2.03125 l -17.375003,17.34375 2.6875,2.6875 18.187503,-18.1875 c 0.28387,-0.283869 0.71614,-0.283869 1,0 0.28387,0.283869 0.28387,0.747382 0,1.03125 L 92.790877,76.532 95.197127,78.87575 113.35338,60.7195 c 0.28386,-0.283868 0.77863,-0.283873 1.0625,0 0.28387,0.283868 0.28387,0.747382 0,1.03125 l -18.187503,18.1875 2.65625,2.625 17.375003,-17.3125 c 2.70621,-2.706206 2.67491,-7.075041 -0.0312,-9.78125 -1.35311,-1.353101 -3.11093,-2.028589 -4.875,-2.03125 z M 73.228377,88.657 l -1.8125,3.53125 2.53125,-2.53125 a 2.9716063,2.9716063 0 0 1 0.125,-0.15625 L 73.228377,88.657 z m 2.8125,3.09375 -8.15625,8.15625 -5.3125,1.03125 -8.59375,13.78125 3,3 13.8125,-8.59375 1.03125,-5.3125 8.15625,-8.15625 -3.9375,-3.90625 z M 109.63463,105.157 c 1.05204,0 2.10357,0.38482 2.90625,1.1875 1.60534,1.60534 1.60534,4.20715 0,5.8125 -1.60536,1.60535 -4.20716,1.60534 -5.8125,0 -1.60536,-1.60535 -1.60536,-4.20715 0,-5.8125 0.80268,-0.80267 1.85421,-1.1875 2.90625,-1.1875 z" style="fill:#aaaaaa"/>
</svg>