<?xml version="1.0" encoding="UTF-8" standalone="no"?>
<svg xmlns:dc="http://purl.org/dc/elements/1.1/"
     xmlns:cc="http://creativecommons.org/ns#"
     xmlns:rdf="http://www.w3.org/1999/02/22-rdf-syntax-ns#"
     xmlns:svg="http://www.w3.org/2000/svg"
     xmlns="http://www.w3.org/2000/svg"
     xmlns:xlink="http://www.w3.org/1999/xlink"
     width="128" height="128" version="1.1">
    <title>Bitcoin</title>
    <desc>This is shape (source) for Clarity vector icon theme for gtk</desc>
    <metadata>
        <rdf:RDF>
            <cc:Work rdf:about="">
                <dc:title>Bitcoin</dc:title>
                <dc:description>This is shape (source) for Clarity vector icon theme for gtk</dc:description>
                <dc:creator>
                    <cc:Agent>
                        <dc:title>Jakub Jankiewicz</dc:title>
                    </cc:Agent>
                </dc:creator>
                <dc:rights>
                    <cc:Agent>
                        <dc:title>Jakub Jankiewicz</dc:title>
                    </cc:Agent>
                </dc:rights>
                <dc:date>2010</dc:date>
                <dc:format>image/svg+xml</dc:format>
                <dc:type rdf:resource="http://purl.org/dc/dcmitype/StillImage" />
                <cc:license rdf:resource="http://www.gnu.org/copyleft/gpl.html" />
             </cc:Work>
        </rdf:RDF>
    </metadata>
    <path d="M 63.521926,9.8671097 C 39.208626,10.050009 17.194726,26.61791 11.043196,51.306115 3.7456457,80.56109 21.527416,110.19707 50.775566,117.49118 80.035656,124.787 109.66652,106.96216 116.96064,77.705479 124.25476,48.447091 106.43332,18.814521 77.174926,11.520404 c -4.57056,-1.139702 -9.15055,-1.6871533 -13.653,-1.6532943 z m -1.75996,19.0395473 5.97319,1.493297 -2.39994,9.6531 c 1.60764,0.366925 3.22467,0.727449 4.79988,1.119973 l 2.39994,-9.599768 5.97319,1.493297 -2.45327,9.866428 c 7.56547,2.606017 13.08683,6.492857 11.99971,13.75967 -0.78675,5.319551 -3.71148,7.896982 -7.62648,8.799787 5.37587,2.798866 8.09922,7.118761 5.4932,14.559648 -3.23406,9.241377 -10.90193,10.040078 -21.11949,8.106471 l -2.50661,9.919752 -5.97319,-1.493298 2.45328,-9.813087 c -1.55303,-0.385698 -3.16494,-0.782915 -4.79989,-1.226637 l -2.45327,9.813087 -5.97319,-1.493288 2.45327,-9.919761 c -1.39943,-0.358391 -2.81593,-0.756461 -4.26656,-1.119973 l -7.78648,-1.919953 2.9866,-6.879834 c 0,0 4.43296,1.153679 4.37322,1.066641 1.69639,0.41983 2.42299,-0.649371 2.71994,-1.386633 l 3.89324,-15.732953 c 0.22015,0.0529 0.44031,0.110504 0.63998,0.159996 -0.23892,-0.09557 -0.4194,-0.170663 -0.58665,-0.213328 l 2.77327,-11.199731 c 0.0734,-1.273143 -0.34645,-2.860731 -2.77327,-3.466583 0.0939,-0.06315 -4.37323,-1.119973 -4.37323,-1.119973 l 1.59996,-6.399846 8.26647,2.07995 0,0.05333 c 1.24242,0.308899 2.53605,0.609692 3.83991,0.906645 l 2.45327,-9.866428 z m 1.97329,18.239559 -2.9866,11.94638 c 3.38253,0.843073 13.77674,4.26187 15.4663,-2.506606 1.75953,-7.060312 -9.09717,-8.596701 -12.4797,-9.439774 z m -4.53323,17.972901 -3.25325,13.226347 c 4.06177,1.008615 16.54787,4.987613 18.39955,-2.453274 1.93532,-7.760026 -11.08453,-9.759338 -15.1463,-10.773073 z" style="fill:#aaaaaa"/>
</svg>