<?xml version="1.0" encoding="UTF-8" standalone="no"?>
<svg xmlns:dc="http://purl.org/dc/elements/1.1/"
     xmlns:cc="http://creativecommons.org/ns#"
     xmlns:rdf="http://www.w3.org/1999/02/22-rdf-syntax-ns#"
     xmlns:svg="http://www.w3.org/2000/svg"
     xmlns="http://www.w3.org/2000/svg"
     xmlns:xlink="http://www.w3.org/1999/xlink"
     width="128" height="128" version="1.1">
    <title>Disk Partition Configuration Icon</title>
    <desc>This is shape (source) for Clarity vector icon theme for gtk</desc>
    <metadata>
        <rdf:RDF>
            <cc:Work rdf:about="">
                <dc:title>Disk Partition Configuration Icon</dc:title>
                <dc:description>This is shape (source) for Clarity vector icon theme for gtk</dc:description>
                <dc:creator>
                    <cc:Agent>
                        <dc:title>Jakub Jankiewicz</dc:title>
                    </cc:Agent>
                </dc:creator>
                <dc:rights>
                    <cc:Agent>
                        <dc:title>Jakub Jankiewicz</dc:title>
                    </cc:Agent>
                </dc:rights>
                <dc:date>2010</dc:date>
                <dc:format>image/svg+xml</dc:format>
                <dc:type rdf:resource="http://purl.org/dc/dcmitype/StillImage" />
                <cc:license rdf:resource="http://creativecommons.org/licenses/by-sa/3.0/" />
             </cc:Work>
        </rdf:RDF>
    </metadata>
    <path d="m 11.261776,8.759419 c -3.410003,0 -6.1567722,2.746769 -6.1567722,6.156773 v 78.864606 c 0,3.41001 2.7467692,6.156773 6.1567722,6.156783 h 47.861397 l 0.28324,-0.45574 a 2.2429507,2.2429507 0 0 1 1.484355,-1.015839 l 5.213345,-0.996669 4.602139,-4.619182 H 19.21383 c -2.90822,0 -5.249548,-2.341328 -5.249548,-5.249548 V 21.096389 c 0,-2.908219 2.341328,-5.249548 5.249548,-5.249548 h 76.594419 c 2.908213,0 5.249541,2.341329 5.249541,5.249548 v 34.913222 l 7.18753,-7.187515 c 0.51538,-0.51538 1.07914,-0.955791 1.67175,-1.335281 V 14.916192 c 0,-3.410002 -2.74676,-6.156773 -6.15676,-6.156773 z m 10.07317,11.259376 c -1.825866,0 -3.296675,1.468674 -3.296675,3.294543 v 6.6977 c 0,1.825872 1.470809,3.294544 3.296675,3.294544 h 72.352187 c 1.825876,0 3.296672,-1.468675 3.296672,-3.294544 v -6.6977 c 0,-1.825869 -1.470796,-3.294543 -3.296672,-3.294543 z m 3.215747,3.980286 h 8.069184 c 0.60938,0 1.107408,0.470343 1.107408,1.079724 v 3.139081 c 0,0.609382 -0.498028,1.10741 -1.107408,1.10741 h -8.069184 c -0.609383,0 -1.105282,-0.498028 -1.105282,-1.10741 v -3.139081 c 0,-0.609381 0.495899,-1.079724 1.105282,-1.079724 z m -3.215747,14.475123 c -1.825866,0 -3.296675,1.470805 -3.296675,3.296673 v 6.6977 c 0,1.82587 1.470809,3.296672 3.296675,3.296672 H 54.838348 L 48.613429,49.250153 A 2.2429507,2.2429507 0 0 1 47.79139,45.663848 c 0.311386,-0.34318 0.582233,-0.58648 0.75602,-0.760278 a 2.2429507,2.2429507 0 0 1 0.02556,-0.02343 c 3.851991,-3.736109 9.048461,-5.732226 14.37716,-5.811771 5.328699,-0.07955 10.829032,1.772812 15.233273,5.758531 a 2.2429507,2.2429507 0 0 1 0.08092,0.07667 c 2.025808,2.025806 3.527564,4.366361 4.529732,6.861679 h 10.893078 c 1.825876,0 3.296673,-1.470802 3.296673,-3.296672 v -6.6977 c 0,-1.825868 -1.470797,-3.296673 -3.296673,-3.296673 z m 41.649252,2.838802 c -4.789332,0.07149 -9.437453,1.86918 -12.850211,5.17927 -0.224595,0.224612 -0.470387,0.448834 -0.681483,0.681483 l 15.265217,6.16742 c 3.102547,1.252016 4.591287,4.734511 3.339267,7.837054 l -1.431114,3.611859 c -1.25201,3.102544 -4.768582,4.591279 -7.871129,3.339266 L 44.81842,62.507124 c 0.567616,3.85845 2.347802,7.561139 5.315567,10.528911 4.95739,4.957385 11.991635,6.551456 18.297816,4.804455 l 38.878607,38.8786 c 3.33186,3.33186 8.6963,3.33185 12.02816,0 l 0.81778,-0.81779 c 3.33186,-3.33184 3.33188,-8.6963 0,-12.02816 L 81.414052,65.096759 C 83.304138,58.710943 81.717962,51.532487 76.677746,46.492276 72.704074,42.896211 67.77353,41.241512 62.984198,41.313006 Z M 24.550693,42.45662 h 8.069184 c 0.60938,0 1.107408,0.470341 1.107408,1.079724 v 3.139081 c 0,0.609383 -0.498028,1.107409 -1.107408,1.107409 h -8.069184 c -0.609383,0 -1.105282,-0.498026 -1.105282,-1.107409 v -3.139081 c 0,-0.609383 0.495899,-1.079724 1.105282,-1.079724 z m 90.698977,5.705289 c -1.95084,-0.003 -3.92142,0.752538 -5.41778,2.248894 l -19.183744,19.183744 2.964451,2.964451 20.103753,-20.103747 c 0.3139,-0.313921 0.81051,-0.313921 1.12443,0 0.31393,0.313922 0.31393,0.810526 0,1.124447 l -20.103736,20.103746 2.657777,2.62371 20.069679,-20.069672 c 0.31391,-0.313922 0.84459,-0.313927 1.15853,0 0.3139,0.313921 0.3139,0.810526 0,1.124446 l -20.103748,20.103747 2.930368,2.930376 19.21782,-19.183744 c 2.9927,-2.99271 2.95854,-7.808792 -0.0341,-10.801504 -1.49635,-1.496354 -3.4329,-2.245951 -5.38372,-2.248894 z m -93.914724,8.769834 c -1.825866,0 -3.296675,1.470804 -3.296675,3.296672 v 6.6977 c 0,1.82587 1.470809,3.296674 3.296675,3.296674 h 23.849771 c -1.333212,-2.311072 -2.2071,-4.820583 -2.585375,-7.39196 a 2.2429507,2.2429507 0 0 1 3.058154,-2.406487 l 13.936325,5.622234 c 1.985036,0.80105 4.151592,-0.115724 4.951399,-2.097689 l 1.426856,-3.599082 a 2.2429507,2.2429507 0 0 1 0.0042,-0.01278 c 0.481969,-1.194333 0.338036,-2.429153 -0.276851,-3.405286 z m 62.79226,0 c 0.308582,2.448308 0.197878,4.942983 -0.338612,7.366403 l 4.697973,4.704362 a 2.2429507,2.2429507 0 0 1 0.575002,-0.996668 l 7.909457,-7.909462 c -0.07031,-1.762865 -1.503202,-3.164635 -3.283893,-3.164635 z m -59.576513,3.982414 h 8.069184 c 0.60938,0 1.107408,0.472474 1.107408,1.081855 v 3.136951 c 0,0.609383 -0.498028,1.10741 -1.107408,1.10741 h -8.069184 c -0.609383,0 -1.105282,-0.498027 -1.105282,-1.10741 v -3.136951 c 0,-0.609381 0.495899,-1.081855 1.105282,-1.081855 z m 85.366377,14.196143 -6.88298,6.870199 a 2.2429507,2.2429507 0 0 1 -1.00305,0.57713 l 7.88603,7.892424 z m -88.582124,0.28111 c -1.825866,0 -3.296675,1.468676 -3.296675,3.294544 v 6.6977 c 0,1.825868 1.470809,3.294543 3.296675,3.294543 H 74.91654 a 2.2429507,2.2429507 0 0 1 0.824167,-0.357778 L 67.620412,80.200124 C 61.280974,81.498771 54.472858,79.965808 49.371577,75.39141 Z m 3.215747,3.980287 h 8.069184 c 0.60938,0 1.107408,0.472471 1.107408,1.081853 v 3.136951 c 0,0.609383 -0.498028,1.10741 -1.107408,1.10741 h -8.069184 c -0.609383,0 -1.105282,-0.498027 -1.105282,-1.10741 V 80.45355 c 0,-0.609382 0.495899,-1.081853 1.105282,-1.081853 z m 51.650015,11.144375 -8.995574,9.029649 -5.894827,1.124449 -9.506686,15.26522 3.305192,3.30519 15.265217,-9.47261 1.124446,-5.89483 9.029648,-9.029653 z m 6.52094,4.785283 a 2.2429507,2.2429507 0 0 1 -0.606947,1.126585 l -3.509636,3.509641 h 8.752797 z m 30.619872,10.036975 c 1.16341,0 2.31531,0.44123 3.20297,1.32889 1.7753,1.77529 1.7753,4.66469 0,6.44001 -1.77533,1.7753 -4.66471,1.77529 -6.44,0 -1.77532,-1.77532 -1.77533,-4.66472 0,-6.44001 0.88764,-0.88766 2.07364,-1.32889 3.23703,-1.32889 z" style="fill:#aaaaaa"/>
</svg>