<?xml version="1.0" encoding="UTF-8" standalone="no"?>
<svg xmlns:dc="http://purl.org/dc/elements/1.1/"
     xmlns:cc="http://creativecommons.org/ns#"
     xmlns:rdf="http://www.w3.org/1999/02/22-rdf-syntax-ns#"
     xmlns:svg="http://www.w3.org/2000/svg"
     xmlns="http://www.w3.org/2000/svg"
     xmlns:xlink="http://www.w3.org/1999/xlink"
     width="128" height="128" version="1.1">
    <title>Fish Icon</title>
    <desc>This is shape (source) for Clarity vector icon theme for gtk</desc>
    <metadata>
        <rdf:RDF>
            <cc:Work rdf:about="">
                <dc:title>Fish Icon</dc:title>
                <dc:description>This is shape (source) for Clarity vector icon theme for gtk</dc:description>
                <dc:creator>
                    <cc:Agent>
                        <dc:title>Jakub Jankiewicz</dc:title>
                    </cc:Agent>
                </dc:creator>
                <dc:rights>
                    <cc:Agent>
                        <dc:title>Jakub Jankiewicz</dc:title>
                    </cc:Agent>
                </dc:rights>
                <dc:date>2010</dc:date>
                <dc:format>image/svg+xml</dc:format>
                <dc:type rdf:resource="http://purl.org/dc/dcmitype/StillImage" />
                <cc:license rdf:resource="http://www.gnu.org/copyleft/gpl.html" />
             </cc:Work>
        </rdf:RDF>
    </metadata>
    <path d="m 13.630123,12.325377 -0.473961,2.90629 c -4.262423,26.547426 5.159401,48.072879 20.651183,62.519031 14.451184,13.475789 34.03573,20.723637 53.15141,21.425441 -0.447482,4.208411 -0.951344,8.401431 -2.166682,11.963101 l -1.557303,4.5284 12.458419,0.20277 0.744798,-2.50076 c 1.308038,-4.33503 1.960687,-9.38538 2.437516,-14.531449 5.041767,-0.607506 9.956807,-1.653584 14.625107,-3.31182 l 2.3698,-0.811058 -0.20312,-10.611339 -3.9271,0.608294 c -2.23618,0.349043 -8.14953,1.30558 -12.661555,1.892468 C 97.464361,64.677601 89.501159,45.684233 75.854512,32.399054 61.446338,18.372522 41.015871,10.788809 16.677019,12.325377 c -0.02357,0.0015 -0.04416,-0.0015 -0.06771,0 l -0.135406,0 -2.843769,0 z m 62.156679,37.579007 c 0.04885,0.0677 0.08667,0.134863 0.135405,0.202766 6.842902,10.984963 10.542635,24.177975 11.37508,36.70036 C 74.509998,86.098762 61.075646,82.59908 49.651205,75.85823 32.074427,64.907157 20.495033,47.687654 22.906228,22.73395 45.38748,19.081608 62.521915,33.750125 75.786802,49.904384 z" style="fill:#aaaaaa"/>
</svg>