<?xml version="1.0" encoding="UTF-8" standalone="no"?>
<svg xmlns:dc="http://purl.org/dc/elements/1.1/"
     xmlns:cc="http://creativecommons.org/ns#"
     xmlns:rdf="http://www.w3.org/1999/02/22-rdf-syntax-ns#"
     xmlns:svg="http://www.w3.org/2000/svg"
     xmlns="http://www.w3.org/2000/svg"
     xmlns:xlink="http://www.w3.org/1999/xlink"
     width="128" height="128" version="1.1">
    <title>Brave Logo</title>
    <desc>This is shape (source) for Clarity vector icon theme for gtk</desc>
    <metadata>
        <rdf:RDF>
            <cc:Work rdf:about="">
                <dc:title>Brave Logo</dc:title>
                <dc:description>This is shape (source) for Clarity vector icon theme for gtk</dc:description>
                <dc:creator>
                    <cc:Agent>
                        <dc:title>Jakub Jankiewicz</dc:title>
                    </cc:Agent>
                </dc:creator>
                <dc:rights>
                    <cc:Agent>
                        <dc:title>Jakub Jankiewicz</dc:title>
                    </cc:Agent>
                </dc:rights>
                <dc:date>2010</dc:date>
                <dc:format>image/svg+xml</dc:format>
                <dc:type rdf:resource="http://purl.org/dc/dcmitype/StillImage" />
                <cc:license rdf:resource="http://creativecommons.org/licenses/by-sa/3.0/" />
             </cc:Work>
        </rdf:RDF>
    </metadata>
    <path d="M 46.349993,6.6098758 36.298584,17.993258 c 0,0 -0.544542,-0.148228 -1.414148,-0.309884 -0.01219,-0.0026 -0.01674,-0.0044 -0.0291,-0.007 -4.82e-4,-8.7e-5 -8.77e-4,8.8e-5 -0.0018,0 -0.445769,-0.08213 -0.976899,-0.167757 -1.566521,-0.237978 -0.0018,-2.46e-4 -0.0044,2.53e-4 -0.007,0 -0.589078,-0.06996 -1.235826,-0.126068 -1.91578,-0.148947 -0.681819,-0.02297 -1.395476,-0.01349 -2.116084,0.0462 -0.360304,0.02989 -0.723596,0.07293 -1.083725,0.130118 -0.359559,0.05715 -0.717216,0.128645 -1.070025,0.217424 -5.43e-4,1.4e-4 -8.77e-4,-1.32e-4 -0.0018,0 -1.059496,0.266774 -2.074719,0.686773 -2.954993,1.318277 -0.293572,0.210604 -0.571583,0.445348 -0.832055,0.705364 -4.167531,4.160167 -7.599761,7.830886 -7.599761,7.830886 l 2.696467,6.606778 -3.432643,9.789469 c 0,0 10.094392,38.164454 11.27723,42.825071 2.328949,9.177021 3.921942,12.724521 10.541055,17.373834 6.619042,4.65017 18.631243,12.72606 20.592464,13.94974 1.961142,1.22369 4.414074,3.30767 6.620479,3.30767 2.206309,0 4.657619,-2.08398 6.618762,-3.30767 1.96122,-1.22368 13.973435,-9.29957 20.592459,-13.94974 6.619034,-4.649313 8.212027,-8.196813 10.541065,-17.373834 1.18248,-4.660617 11.27723,-42.825071 11.27723,-42.825071 l -3.43264,-9.789469 2.69647,-6.606778 c 0,0 -3.43258,-3.670719 -7.59976,-7.830886 -0.26048,-0.260016 -0.53849,-0.49476 -0.83206,-0.705364 -0.88028,-0.631504 -1.8955,-1.051503 -2.95499,-1.318277 -5.5e-4,-1.32e-4 -8.8e-4,1.4e-4 -0.002,0 -0.35281,-0.08878 -0.71046,-0.160271 -1.070023,-0.217424 -5.61e-4,-9.7e-5 -8.77e-4,8.8e-5 -0.0018,0 -0.36012,-0.05724 -0.721712,-0.100224 -1.082016,-0.130118 -0.720608,-0.05978 -1.434256,-0.06917 -2.116084,-0.0462 -0.679953,0.02288 -1.326702,0.07898 -1.915771,0.148947 -0.0018,1.93e-4 -0.0035,-1.94e-4 -0.0053,0 -0.614876,0.07311 -1.141598,0.159526 -1.599051,0.244825 -0.869616,0.161656 -1.414156,0.309883 -1.414156,0.309883 L 81.650266,6.6097091 H 64.0008 Z M 63.99945,24.103539 h 0.0035 c 8.77e-4,9e-6 0.492534,0.0044 1.335396,0.124981 0.435426,0.06259 0.964468,0.157747 1.575085,0.299611 0.587423,0.136411 1.248687,0.315923 1.968847,0.5547 0.007,0.0026 0.01333,0.0044 0.02051,0.007 0.07056,0.02349 0.13805,0.04646 0.208867,0.07021 0.527527,0.176856 1.059577,0.359068 1.588778,0.541008 0.181879,0.0625 0.335032,0.107681 0.515325,0.169493 0.84372,0.28911 1.683112,0.571109 2.434523,0.801234 0.364309,0.11159 0.711211,0.208965 1.037504,0.294474 0.209972,0.05496 0.432585,0.117749 0.623186,0.159219 0.07635,0.01665 0.147903,0.03033 0.220851,0.04453 0.366887,0.07144 0.704592,0.123263 0.970727,0.123263 h 0.0018 c 7.27e-4,0 0.0044,0 0.0053,0 0.370587,-8.78e-4 1.324019,-0.13096 2.549231,-0.325286 3.687952,-0.584924 9.821315,-1.754387 9.823717,-1.754843 h 0.0018 c 0,0 12.927633,15.600922 12.927633,18.935205 0,2.756785 -1.1115,3.834558 -2.420816,5.105317 -0.274278,0.266214 -0.557401,0.542095 -0.840619,0.84232 L 88.857,60.369946 c -0.09607,0.101858 -0.203477,0.209973 -0.31673,0.323576 -0.967554,0.971148 -2.392176,2.401547 -1.386754,4.776603 0.06715,0.158747 0.137033,0.319053 0.207149,0.482797 1.10237,2.573335 2.463135,5.750206 0.731048,8.969397 -1.842542,3.424043 -4.998594,5.709103 -7.021096,5.331302 -2.022494,-0.378063 -6.772397,-2.855529 -8.519132,-3.987352 -1.746637,-1.131822 -7.283032,-5.688135 -7.283032,-7.431977 0,-1.4544 3.980708,-3.874967 5.915116,-5.050531 0.384725,-0.233868 0.689183,-0.417886 0.864574,-0.535872 0.199682,-0.134289 0.534031,-0.342597 0.945053,-0.597503 1.76566,-1.095095 4.953294,-3.071322 5.033412,-3.947976 0.09852,-1.080895 0.06031,-1.39744 -1.36279,-4.067813 -0.302678,-0.56784 -0.656127,-1.175914 -1.022094,-1.8045 -1.355162,-2.327442 -2.873148,-4.935034 -2.537247,-6.801946 0.379202,-2.107442 3.688249,-3.314841 6.490361,-4.338321 0.350189,-0.127978 0.692715,-0.253144 1.020376,-0.376652 0.817749,-0.308288 1.843972,-0.69261 2.917328,-1.09399 2.79764,-1.046094 5.90755,-2.208834 6.420166,-2.444806 0.709659,-0.326696 0.526229,-0.637246 -1.623024,-0.840609 -0.284271,-0.02691 -0.638579,-0.06486 -1.044342,-0.107862 -2.660555,-0.282254 -7.566627,-0.802496 -9.952116,-0.138673 -0.469226,0.130521 -0.996148,0.27377 -1.547684,0.422874 -2.680189,0.724483 -5.964219,1.611111 -6.279783,2.122938 -0.05522,0.08959 -0.109743,0.167013 -0.16093,0.239681 -0.301889,0.428377 -0.498503,0.708502 -0.164356,2.528693 0.0994,0.541981 0.303617,1.607613 0.556418,2.925882 0.740339,3.859786 1.895242,9.880176 2.040752,11.232718 0.02033,0.189339 0.04348,0.372103 0.06504,0.547855 0.185219,1.50901 0.307105,2.513222 -1.448386,2.9139 -0.146124,0.03331 -0.299295,0.06785 -0.45883,0.104437 -1.980953,0.453711 -4.884693,1.119683 -5.933944,1.119683 -1.049776,0 -3.956602,-0.665884 -5.93737,-1.119683 -0.158571,-0.03637 -0.310068,-0.07126 -0.455403,-0.104437 -1.755675,-0.400678 -1.633605,-1.40489 -1.448395,-2.9139 0.02156,-0.175752 0.04462,-0.358516 0.06504,-0.547855 0.145861,-1.35447 1.303928,-7.389044 2.044189,-11.248128 0.251487,-1.310817 0.453938,-2.370682 0.552991,-2.910472 0.333875,-1.820015 0.137357,-2.100404 -0.164357,-2.528693 -0.05128,-0.07276 -0.10571,-0.150095 -0.160937,-0.239681 -0.315564,-0.511827 -3.599682,-1.398455 -6.279776,-2.122938 -0.55171,-0.149104 -1.078291,-0.292353 -1.547692,-0.422874 -2.385392,-0.663735 -7.291476,-0.143581 -9.9521,0.138673 -0.405938,0.04304 -0.759816,0.08091 -1.04435,0.107862 -2.148991,0.203363 -2.332509,0.513913 -1.623016,0.840609 0.512616,0.235884 3.619703,1.398974 6.416739,2.444806 1.074232,0.401643 2.102473,0.785439 2.920739,1.09399 0.327836,0.123596 0.670021,0.248674 1.020385,0.376652 2.801849,1.02348 6.11115,2.231055 6.490353,4.338321 0.335813,1.866648 -1.18234,4.47304 -2.537248,6.800237 -0.366142,0.628936 -0.719407,1.238019 -1.022086,1.806209 -1.423105,2.670373 -1.461577,2.986918 -1.362789,4.067813 0.07995,0.876479 3.265947,2.852881 5.031693,3.947976 0.411462,0.255257 0.746906,0.463126 0.946763,0.597503 0.175313,0.117898 0.4785,0.302267 0.862874,0.535872 1.934223,1.175388 5.916825,3.595957 5.916825,5.050531 0,1.743842 -5.536307,6.300155 -7.283041,7.431977 -1.746638,1.131823 -6.49663,3.609289 -8.519131,3.987352 -2.022495,0.377801 -5.178547,-1.907259 -7.02109,-5.331302 -1.731903,-3.218928 -0.370971,-6.394439 0.731048,-8.967689 0.07021,-0.164005 0.138208,-0.325583 0.205441,-0.484505 1.005509,-2.37532 -0.419026,-3.805455 -1.386755,-4.776603 -0.113078,-0.113516 -0.219027,-0.221806 -0.315011,-0.323576 -0.530323,-0.562229 -3.144087,-3.330726 -5.569284,-5.901414 -1.767947,-1.873924 -3.436693,-3.641775 -4.126025,-4.372568 -0.283219,-0.300137 -0.564711,-0.576194 -0.8389,-0.84232 -1.309328,-1.270845 -2.420831,-2.348444 -2.420831,-5.105317 0,-3.334283 12.927647,-18.935205 12.927647,-18.935205 2.45e-4,4.4e-5 0.754067,0.139418 0.876566,0.162638 1.000294,0.189663 5.026207,0.947113 8.337649,1.487771 0.189592,0.03095 0.430438,0.07599 0.609485,0.104437 4.91e-4,7.9e-5 8.77e-4,-7.9e-5 0.0018,0 1.228666,0.194844 2.186823,0.325286 2.554367,0.325286 0.265268,0 0.601913,-0.05058 0.967309,-0.121554 0.0767,-0.0149 0.152321,-0.02867 0.232834,-0.0462 0.183571,-0.04006 0.397725,-0.101496 0.599221,-0.154091 0.334191,-0.08721 0.690586,-0.188268 1.064888,-0.303029 0.728383,-0.223349 1.541635,-0.496216 2.357481,-0.775551 0.203382,-0.06968 0.376626,-0.121116 0.582103,-0.191749 0.598169,-0.205642 1.201624,-0.41345 1.795936,-0.611204 0.735457,-0.244711 1.408931,-0.428352 2.006513,-0.566682 0.597581,-0.13834 1.118639,-0.230678 1.547684,-0.292764 0.857019,-0.124017 1.346151,-0.126682 1.347378,-0.126691 z m 0.0018,53.936236 c 0.671976,0 4.976927,1.518108 8.431818,3.302534 0.784789,0.4055 1.520509,0.782959 2.19827,1.131656 2.306063,1.18617 3.942288,2.027595 4.560882,2.413986 0.80013,0.500169 0.312838,1.444213 -0.416028,1.958582 -0.729041,0.51437 -10.526907,8.086923 -11.477543,8.923167 -0.121668,0.107817 -0.24912,0.223157 -0.383498,0.344123 -0.916099,0.823973 -2.085457,1.876405 -2.913901,1.876405 -0.828705,0 -1.997712,-1.054141 -2.9139,-1.878114 C 60.953414,95.991147 60.825172,95.876642 60.703855,95.7697 59.752877,94.933456 49.95544,87.360903 49.226311,86.846533 48.49728,86.332164 48.010075,85.38812 48.810284,84.887951 c 0.618943,-0.386653 2.255966,-1.228298 4.564318,-2.415695 0.6767,-0.348084 1.411622,-0.725324 2.194834,-1.129947 3.454453,-1.784426 7.759841,-3.302534 8.431816,-3.302534 z" style="fill:#aaaaaa"/>
</svg>