<?xml version="1.0" encoding="UTF-8" standalone="no"?>
<svg xmlns:dc="http://purl.org/dc/elements/1.1/"
     xmlns:cc="http://creativecommons.org/ns#"
     xmlns:rdf="http://www.w3.org/1999/02/22-rdf-syntax-ns#"
     xmlns:svg="http://www.w3.org/2000/svg"
     xmlns="http://www.w3.org/2000/svg"
     xmlns:xlink="http://www.w3.org/1999/xlink"
     width="128" height="128" version="1.1">
    <title>CD Burner Icon</title>
    <desc>This is shape (source) for Clarity vector icon theme for gtk</desc>
    <metadata>
        <rdf:RDF>
            <cc:Work rdf:about="">
                <dc:title>CD Burner Icon</dc:title>
                <dc:description>This is shape (source) for Clarity vector icon theme for gtk</dc:description>
                <dc:creator>
                    <cc:Agent>
                        <dc:title>Jakub Jankiewicz</dc:title>
                    </cc:Agent>
                </dc:creator>
                <dc:rights>
                    <cc:Agent>
                        <dc:title>Jakub Jankiewicz</dc:title>
                    </cc:Agent>
                </dc:rights>
                <dc:date>2010</dc:date>
                <dc:format>image/svg+xml</dc:format>
                <dc:type rdf:resource="http://purl.org/dc/dcmitype/StillImage" />
                <cc:license rdf:resource="http://www.gnu.org/copyleft/gpl.html" />
             </cc:Work>
        </rdf:RDF>
    </metadata>
    <path d="M 64 18.21875 C 38.71092 18.21875 18.21875 38.71092 18.21875 64 C 18.21875 89.28909 38.71092 109.78125 64 109.78125 C 87.643298 109.78125 107.09893 91.87327 109.53125 68.875 L 85.03125 93.4375 C 84.664254 93.805174 84.19431 94.00503 83.75 94.1875 L 62.5 102.90625 C 62.011493 103.10687 61.518516 103.27414 60.84375 103.3125 C 60.168984 103.3509 59.076763 103.18035 58.3125 102.34375 C 57.548237 101.50715 57.476103 100.48071 57.53125 99.84375 C 57.5864 99.206787 57.738704 98.734045 57.9375 98.25 L 66.71875 76.90625 C 66.901184 76.462027 67.156521 75.933593 67.6875 75.40625 L 69.8125 73.3125 L 103.0625 40.09375 C 95.012533 26.963854 80.530329 18.21875 64 18.21875 z M 107.46875 40.40625 C 106.7693 40.464607 106.05237 40.791393 105.46875 41.375 L 99.15625 47.6875 L 113.09375 61.625 L 119.40625 55.3125 C 120.57347 54.14528 120.72326 52.44201 119.75 51.46875 L 109.34375 41.03125 C 108.85712 40.544619 108.1682 40.347893 107.46875 40.40625 z M 97.40625 49.40625 L 88.96875 57.84375 L 102.9375 71.8125 L 111.375 63.375 L 97.40625 49.40625 z M 64 55.0625 C 68.94019 55.0625 72.9375 59.05981 72.9375 64 C 72.9375 68.9402 68.94019 72.9375 64 72.9375 C 59.05981 72.9375 55.0625 68.9402 55.0625 64 C 55.0625 59.05981 59.05981 55.0625 64 55.0625 z M 87.28125 59.5625 L 71.6875 75.15625 L 85.625 89.09375 L 101.21875 73.5 L 87.28125 59.5625 z M 69.90625 77.1875 C 69.576579 77.208512 69.28485 77.485769 69.125 77.875 L 60.375 99.25 C 59.82752 100.58305 60.22674 101.03574 61.53125 100.5 L 82.75 91.75 C 83.58734 91.40612 83.87932 90.81681 83.4375 90.375 L 70.53125 77.46875 C 70.308163 77.245663 70.104053 77.174893 69.90625 77.1875 z " style="fill:#aaaaaa"/>
</svg>