<?xml version="1.0" encoding="UTF-8" standalone="no"?>
<!--
    This is shape (source) for Clarity vector icon theme for gtk

    Copyright (c) 2010 Jakub Jankiewicz <http://jcubic.pl> 

    This svg file is free: you can redistribute it and/or modify
    it under the terms of the GNU General Public License as published by
    the Free Software Foundation, either version 3 of the License, or
    (at your option) any later version.

    This program is distributed in the hope that it will be useful,
    but WITHOUT ANY WARRANTY; without even the implied warranty of
    MERCHANTABILITY or FITNESS FOR A PARTICULAR PURPOSE.  See the
    GNU General Public License for more details.

    You should have received a copy of the GNU General Public License
    along with this program.  If not, see <http://www.gnu.org/licenses/>.

-->
<svg xmlns:dc="http://purl.org/dc/elements/1.1/"
     xmlns:cc="http://creativecommons.org/ns#"
     xmlns:rdf="http://www.w3.org/1999/02/22-rdf-syntax-ns#"
     xmlns:svg="http://www.w3.org/2000/svg"
     xmlns="http://www.w3.org/2000/svg"
     xmlns:xlink="http://www.w3.org/1999/xlink"
     width="128" height="128" version="1.1">
    <title>Clarity Icon</title>
    <desc>This is shape (source) for Clarity vector icon theme for gtk</desc>
    <metadata>
        <rdf:RDF>
            <cc:Work rdf:about="">
                <dc:title>Clarity Icon</dc:title>
                <dc:description>This is shape (source) for Clarity vector icon theme for gtk</dc:description>
                <dc:creator>
                    <cc:Agent>
                        <dc:title>Jakub Jankiewicz</dc:title>
                    </cc:Agent>
                </dc:creator>
                <dc:rights>
                    <cc:Agent>
                        <dc:title>Jakub Jankiewicz</dc:title>
                    </cc:Agent>
                </dc:rights>
                <dc:date>2010</dc:date>
                <dc:format>image/svg+xml</dc:format>
                <dc:type rdf:resource="http://purl.org/dc/dcmitype/StillImage" />
                <cc:license rdf:resource="http://www.gnu.org/copyleft/gpl.html" />
             </cc:Work>
        </rdf:RDF>
    </metadata>
    <path d="m 31.179734,20.710136 c -5.61977,0 -10.125,4.536485 -10.125,10.15625 l 0,66.25 c 0,5.619774 4.50523,10.156254 10.125,10.156254 l 65.625,0 c 5.619766,0 10.156246,-4.53648 10.156246,-10.156254 l 0,-66.25 c 0,-5.619765 -4.53648,-10.15625 -10.156246,-10.15625 l -65.625,0 z m 3.46875,12.375 60.03125,0 0,15.84375 -60.03125,0 0,-15.84375 z m 6.0625,29.1875 c 3.36503,0 6.09375,2.728716 6.09375,6.09375 0,3.365034 -2.72872,6.09375 -6.09375,6.09375 -3.36503,0 -6.0625,-2.728716 -6.0625,-6.09375 0,-3.365034 2.69747,-6.09375 6.0625,-6.09375 z m 23.9375,0 c 3.36503,0 6.09375,2.728716 6.09375,6.09375 0,3.365034 -2.72872,6.09375 -6.09375,6.09375 -3.36503,0 -6.09375,-2.728716 -6.09375,-6.09375 0,-3.365034 2.72872,-6.09375 6.09375,-6.09375 z m 23.9375,0 c 3.36503,0 6.09375,2.728716 6.09375,6.09375 0,3.365034 -2.72872,6.09375 -6.09375,6.09375 -3.36503,0 -6.09375,-2.728716 -6.09375,-6.09375 0,-3.365034 2.72872,-6.09375 6.09375,-6.09375 z m -47.875,19.96875 c 3.36503,0 6.09375,2.728716 6.09375,6.09375 0,3.365034 -2.72872,6.09375 -6.09375,6.09375 -3.36503,0 -6.0625,-2.728716 -6.0625,-6.09375 0,-3.365034 2.69747,-6.09375 6.0625,-6.09375 z m 23.9375,0 c 3.36503,0 6.09375,2.728716 6.09375,6.09375 0,3.365034 -2.72872,6.09375 -6.09375,6.09375 -3.36503,0 -6.09375,-2.728716 -6.09375,-6.09375 0,-3.365034 2.72872,-6.09375 6.09375,-6.09375 z m 23.9375,0 c 3.36503,0 6.09375,2.728716 6.09375,6.09375 0,3.365034 -2.72872,6.09375 -6.09375,6.09375 -3.36503,0 -6.09375,-2.728716 -6.09375,-6.09375 0,-3.365034 2.72872,-6.09375 6.09375,-6.09375 z" style="fill:#aaaaaa"/>
</svg>