<?xml version="1.0" encoding="UTF-8" standalone="no"?>
<svg xmlns:dc="http://purl.org/dc/elements/1.1/"
     xmlns:cc="http://creativecommons.org/ns#"
     xmlns:rdf="http://www.w3.org/1999/02/22-rdf-syntax-ns#"
     xmlns:svg="http://www.w3.org/2000/svg"
     xmlns="http://www.w3.org/2000/svg"
     xmlns:xlink="http://www.w3.org/1999/xlink"
     width="128" height="128" version="1.1">
    <title>Calibre Icon</title>
    <desc>This is shape (source) for Clarity vector icon theme for gtk</desc>
    <metadata>
        <rdf:RDF>
            <cc:Work rdf:about="">
                <dc:title>Calibre Icon</dc:title>
                <dc:description>This is shape (source) for Clarity vector icon theme for gtk</dc:description>
                <dc:creator>
                    <cc:Agent>
                        <dc:title>Jakub Jankiewicz</dc:title>
                    </cc:Agent>
                </dc:creator>
                <dc:rights>
                    <cc:Agent>
                        <dc:title>Jakub Jankiewicz</dc:title>
                    </cc:Agent>
                </dc:rights>
                <dc:date>2010</dc:date>
                <dc:format>image/svg+xml</dc:format>
                <dc:type rdf:resource="http://purl.org/dc/dcmitype/StillImage" />
                <cc:license rdf:resource="http://www.gnu.org/copyleft/gpl.html" />
             </cc:Work>
        </rdf:RDF>
    </metadata>
    <path d="m 113.56795,12.002098 c -0.48048,-0.05338 -1.02348,0.125808 -1.53599,0.467477 -2.05008,1.366717 -6.14036,5.244746 -7.27929,6.611462 -1.13893,1.366716 -0.72633,4.285978 0.86817,4.741552 1.5945,0.455572 2.33738,1.410708 2.33738,3.005209 0,0 0.34626,5.272025 0,11.620145 -5.87376,-7.790407 -14.053286,-10.458665 -17.550667,-10.630756 -3.618808,-0.178066 -9.044606,1.188219 -12.968899,4.41999 -2.869701,-3.6987 -6.457131,-7.974025 -13.222922,-12.02084 -6.295136,-3.765303 -16.638873,-5.701495 -27.572603,-3.19585 -10.933726,2.505648 -19.149067,11.324863 -23.908111,26.913322 -5.080909,16.64273 -2.9391952,29.777498 1.594234,42.330358 6.419829,17.776223 22.961293,26.195743 30.873302,28.659573 7.027156,2.18827 13.618051,0.9809 19.084914,-2.89146 5.466864,-3.87236 6.955951,-10.72755 6.272595,-15.283271 -0.683358,-4.555721 -2.720958,-9.349541 -12.287969,-9.349541 0,0 -4.109441,0.888354 -5.476159,2.938427 -1.366714,2.050076 -1.610036,5.232841 0.667825,6.143984 2.277859,0.911145 3.469057,-0.675082 4.607988,1.602779 1.13893,2.277862 -0.955134,3.417812 -3.00521,3.873382 -2.050073,0.45557 -3.427105,0.4473 -9.349541,-1.60278 C 39.794562,98.305187 35.698613,94.013538 31.82625,89.002247 27.953888,83.990954 24.589938,79.888319 23.678793,64.626658 22.76765,49.364994 27.96233,39.878146 34.42917,33.407364 c 5.90759,-5.911191 15.09678,-6.685451 22.525526,-4.662287 6.000835,1.634284 11.935411,8.740205 12.841641,11.134417 0.970985,2.565291 0.767354,6.29605 -0.371575,8.118337 -1.13893,1.822289 -3.205557,3.374836 -3.205557,4.741553 0,1.366715 1.847116,3.645594 4.808336,3.873381 2.961216,0.227785 8.343327,0.193145 10.3934,0.193145 2.050073,0 2.920963,-1.176577 2.920963,-2.087721 0,-0.911143 -0.576384,-3.52816 -0.576384,-3.52816 l 10.217713,-0.200348 c 0,0 0.284595,0.422322 0.284595,2.016824 0,1.594504 0.986798,2.636368 2.125729,2.636368 1.13893,0 6.003713,-0.01196 7.142643,-0.467477 1.13894,-0.455572 1.62907,-2.879687 2.08464,-1.968543 0.45557,0.911143 1.82694,2.270602 2.73808,2.270602 0.91114,0 5.4689,0.227785 7.74676,0 2.27787,-0.227786 2.51393,-1.811402 1.60278,-3.405904 -0.91115,-1.594502 -2.49838,-2.047464 -2.2706,-5.008682 0.22778,-2.96122 0.66782,-27.102784 0.66782,-30.519574 0,-2.562592 -1.09627,-4.381043 -2.53773,-4.541197 z M 88.457756,41.773714 c 2.468909,0 4.9419,1.602779 4.9419,1.602779 l -9.082411,0 c 0,0 1.671604,-1.602779 4.140511,-1.602779 z" style="fill:#aaaaaa"/>
</svg>