<?xml version="1.0" encoding="UTF-8" standalone="no"?>
<svg xmlns:dc="http://purl.org/dc/elements/1.1/"
     xmlns:cc="http://creativecommons.org/ns#"
     xmlns:rdf="http://www.w3.org/1999/02/22-rdf-syntax-ns#"
     xmlns:svg="http://www.w3.org/2000/svg"
     xmlns="http://www.w3.org/2000/svg"
     xmlns:xlink="http://www.w3.org/1999/xlink"
     width="128" height="128" version="1.1">
    <title>ATI Logo</title>
    <desc>This is shape (source) for Clarity vector icon theme for gtk</desc>
    <metadata>
        <rdf:RDF>
            <cc:Work rdf:about="">
                <dc:title>ATI Logo</dc:title>
                <dc:description>This is shape (source) for Clarity vector icon theme for gtk</dc:description>
                <dc:creator>
                    <cc:Agent>
                        <dc:title>Jakub Jankiewicz</dc:title>
                    </cc:Agent>
                </dc:creator>
                <dc:rights>
                    <cc:Agent>
                        <dc:title>Jakub Jankiewicz</dc:title>
                    </cc:Agent>
                </dc:rights>
                <dc:date>2010</dc:date>
                <dc:format>image/svg+xml</dc:format>
                <dc:type rdf:resource="http://purl.org/dc/dcmitype/StillImage" />
                <cc:license rdf:resource="http://creativecommons.org/licenses/by-sa/3.0/" />
             </cc:Work>
        </rdf:RDF>
    </metadata>
    <path d="m 109.94001,38.602422 c -3.52143,0 -6.35628,2.884578 -6.35628,6.46471 l 0,37.500744 c 0,3.58013 2.83485,6.46471 6.35628,6.46471 3.52144,0 6.35629,-2.88458 6.35629,-6.46471 l 0,-37.500744 c 0,-3.580132 -2.83485,-6.46471 -6.35629,-6.46471 z m -39.520106,0.840276 c -3.58013,0 -6.451157,2.88458 -6.451157,6.464711 0,3.580127 2.871027,6.464707 6.451157,6.464707 l 5.610881,0 c -0.127965,0.50884 -0.203293,1.03604 -0.203293,1.58569 l 0,28.61007 c 0,3.58013 2.884581,6.46471 6.464711,6.46471 l 0.216846,0 c 3.58013,0 6.451157,-2.88458 6.451157,-6.46471 l 0,-28.61007 c 0,-0.5491 -0.06202,-1.0773 -0.18974,-1.58569 l 6.234312,0 c 3.58013,0 6.464712,-2.88458 6.464712,-6.464707 0,-3.580131 -2.884582,-6.464711 -6.464712,-6.464711 z M 54.57662,40.025471 c -1.195955,0.02549 -2.36699,0.434312 -3.320448,1.32818 -3.390076,3.178195 -34.754893,34.321195 -37.297449,36.863755 -2.542557,2.54256 -3.179541,4.87717 -0.636984,8.26724 2.542556,3.39008 7.130419,3.32806 10.801623,-0.20329 l 22.253783,-21.39995 c 2.270077,-2.1836 2.547936,-3.39277 2.547936,-1.27397 l 0,20.54612 c 0,6.99203 12.075591,6.99203 12.075591,0 0,-6.99203 0.21188,-34.10839 0,-38.557863 -0.15229,-3.198059 -3.367721,-5.635361 -6.424052,-5.570222 z m 55.36339,0.962779 c 2.29321,0 4.1551,1.861893 4.1551,4.155099 0,2.293207 -1.86189,4.143299 -4.1551,4.143299 -2.2932,0 -4.15509,-1.850092 -4.15509,-4.143299 0,-2.293206 1.86189,-4.155099 4.15509,-4.155099 z M 42.663663,72.498106 c -2.632903,0 -4.757051,2.1377 -4.757051,4.7706 0,2.63291 2.124148,4.77061 4.757051,4.77061 2.632904,0 4.770604,-2.1377 4.770604,-4.77061 0,-2.6329 -2.1377,-4.7706 -4.770604,-4.7706 z" style="fill:#aaaaaa"/>
</svg>