<?xml version="1.0" encoding="UTF-8" standalone="no"?>
<svg xmlns:dc="http://purl.org/dc/elements/1.1/"
     xmlns:cc="http://creativecommons.org/ns#"
     xmlns:rdf="http://www.w3.org/1999/02/22-rdf-syntax-ns#"
     xmlns:svg="http://www.w3.org/2000/svg"
     xmlns="http://www.w3.org/2000/svg"
     xmlns:xlink="http://www.w3.org/1999/xlink"
     width="128" height="128" version="1.1">
    <title>Saturn Icon</title>
    <desc>This is shape (source) for Clarity vector icon theme for gtk</desc>
    <metadata>
        <rdf:RDF>
            <cc:Work rdf:about="">
                <dc:title>Saturn Icon</dc:title>
                <dc:description>This is shape (source) for Clarity vector icon theme for gtk</dc:description>
                <dc:creator>
                    <cc:Agent>
                        <dc:title>Jakub Jankiewicz</dc:title>
                    </cc:Agent>
                </dc:creator>
                <dc:rights>
                    <cc:Agent>
                        <dc:title>Jakub Jankiewicz</dc:title>
                    </cc:Agent>
                </dc:rights>
                <dc:date>2010</dc:date>
                <dc:format>image/svg+xml</dc:format>
                <dc:type rdf:resource="http://purl.org/dc/dcmitype/StillImage" />
                <cc:license rdf:resource="http://www.gnu.org/copyleft/gpl.html" />
             </cc:Work>
        </rdf:RDF>
    </metadata>
    <path d="M 108.97055,9.2701732 C 101.369,9.065359 87.836231,15.974218 69.979178,31.77113 60.007972,31.379772 49.924915,35.183775 42.546504,43.021609 35.162726,50.865149 32.001291,61.202816 32.991304,71.147805 -10.117544,125.97908 17.614828,140.24744 77.299695,77.389509 116.46789,36.138984 123.48264,9.6611671 108.97055,9.2701732 z M 89.397811,26.60824 C 100.54257,25.511579 95.825741,44.895725 70.749759,71.533095 38.459034,105.83443 17.325356,104.48317 34.224233,77.312451 35.557,82.00547 37.811835,86.495356 41.082401,90.412323 48.86449,86.690948 58.145904,79.83169 68.206842,69.144295 79.259021,57.403939 85.874811,46.830808 89.012521,38.16695 85.126151,35.453712 80.815821,33.688237 76.374998,32.695827 81.883391,28.88673 86.277281,26.915306 89.397811,26.60824 z M 49.558789,44.948061 c 1.036489,0.02145 2.030015,0.353747 2.851149,1.078813 3.284535,2.900263 3.007449,10.638045 -0.539407,17.261008 -3.546856,6.622962 -9.044756,9.604315 -12.329291,6.704052 -3.284536,-2.900264 -3.084508,-10.560988 0.462348,-17.18395 2.660141,-4.967223 6.445734,-7.924253 9.555201,-7.859923 z m 52.245361,9.478142 C 96.657661,62.800502 89.771201,71.759833 80.767311,81.242412 72.817408,89.614965 65.227397,96.405088 58.035177,101.6628 70.660736,105.55337 84.893871,102.22224 94.560701,91.953484 104.35387,81.550526 106.697,66.898759 101.80415,54.426203 z" style="fill:#aaaaaa"/>
</svg>