<?xml version="1.0" encoding="UTF-8" standalone="no"?>
<svg xmlns:dc="http://purl.org/dc/elements/1.1/"
     xmlns:cc="http://creativecommons.org/ns#"
     xmlns:rdf="http://www.w3.org/1999/02/22-rdf-syntax-ns#"
     xmlns:svg="http://www.w3.org/2000/svg"
     xmlns="http://www.w3.org/2000/svg"
     xmlns:xlink="http://www.w3.org/1999/xlink"
     width="128" height="128" version="1.1">
    <title>Clarity Icon</title>
    <desc>This is shape (source) for Clarity vector icon theme for gtk</desc>
    <metadata>
        <rdf:RDF>
            <cc:Work rdf:about="">
                <dc:title>Clarity Icon</dc:title>
                <dc:description>This is shape (source) for Clarity vector icon theme for gtk</dc:description>
                <dc:creator>
                    <cc:Agent>
                        <dc:title>Jakub Jankiewicz</dc:title>
                    </cc:Agent>
                </dc:creator>
                <dc:rights>
                    <cc:Agent>
                        <dc:title>Jakub Jankiewicz</dc:title>
                    </cc:Agent>
                </dc:rights>
                <dc:date>2010</dc:date>
                <dc:format>image/svg+xml</dc:format>
                <dc:type rdf:resource="http://purl.org/dc/dcmitype/StillImage" />
                <cc:license rdf:resource="http://www.gnu.org/copyleft/gpl.html" />
             </cc:Work>
        </rdf:RDF>
    </metadata>
    <path d="m 15.078125,12.53125 c -3.211003,0 -5.78125,2.57024 -5.78125,5.78125 l 0,70 c 0,3.211 2.570247,5.8125 5.78125,5.8125 l 50.5625,0 c -0.776682,-1.84811 -1.37126,-3.79337 -1.75,-5.8125 l -48.5625,0 0,-57.0625 80.25,0 0,18.625 c 1.564377,0.18793 3.017872,0.54738 4.3125,1.09375 0.589035,0.24858 1.155705,0.54334 1.687505,0.90625 l 0,-33.5625 c 0,-3.21101 -2.570265,-5.78125 -5.781255,-5.78125 l -80.71875,0 z M 92.921875,52.875 c -4.480721,0 -8.15625,1.52943 -8.15625,3.4375 0,1.90808 3.675529,3.46875 8.15625,3.46875 4.4807,0 8.125005,-1.56067 8.125005,-3.46875 0,-1.90807 -3.644305,-3.4375 -8.125005,-3.4375 z m -10.03125,5.9375 C 73.296905,62.66491 66.546875,72.02427 66.546875,83 c 0,14.41244 11.650069,26.125 26.0625,26.125 14.412435,0 26.093755,-11.71256 26.093755,-26.125 0,-10.97573 -6.75003,-20.33509 -16.34375,-24.1875 -2.18386,1.69389 -5.738685,2.8125 -9.750005,2.8125 -4.006901,0 -7.53429,-1.12179 -9.71875,-2.8125 z m -3.34375,8.78125 c 1.08781,0 2,0.88093 2,1.96875 0,1.08782 -0.91219,2 -2,2 -1.08782,0 -1.96875,-0.91218 -1.96875,-2 0,-1.08782 0.88093,-1.96875 1.96875,-1.96875 z m 13.0625,3.03125 c 6.82802,0 12.375005,5.54697 12.375005,12.375 0,6.82802 -5.546985,12.375 -12.375005,12.375 -6.828021,0 -12.34375,-5.54698 -12.34375,-12.375 0,-6.82803 5.515729,-12.375 12.34375,-12.375 z m 0,8.09375 c -2.3769,0 -4.3125,1.90434 -4.3125,4.28125 0,2.3769 1.9356,4.3125 4.3125,4.3125 2.37691,0 4.3125,-1.9356 4.3125,-4.3125 0,-2.37691 -1.93559,-4.28125 -4.3125,-4.28125 z m 15.250005,28.34375 c -4.40991,2.80064 -9.639145,4.4375 -15.250005,4.4375 -5.425181,0 -10.46513,-1.5242 -14.78125,-4.15625 -1.38025,1.81795 -2.21875,4.06249 -2.21875,6.53125 0,0.53956 0.0811,1.07557 0.15625,1.59375 l 34.375005,0 c 0.0754,-0.51754 0.15625,-1.05488 0.15625,-1.59375 0,-2.59818 -0.92355,-4.94995 -2.4375,-6.8125 z" style="fill:#aaaaaa"/>
</svg>