<?xml version="1.0" encoding="UTF-8" standalone="no"?>
<svg xmlns:dc="http://purl.org/dc/elements/1.1/"
     xmlns:cc="http://creativecommons.org/ns#"
     xmlns:rdf="http://www.w3.org/1999/02/22-rdf-syntax-ns#"
     xmlns:svg="http://www.w3.org/2000/svg"
     xmlns="http://www.w3.org/2000/svg"
     xmlns:xlink="http://www.w3.org/1999/xlink"
     width="128" height="128" version="1.1">
    <title>Clarity Icon</title>
    <desc>This is shape (source) for Clarity vector icon theme for gtk</desc>
    <metadata>
        <rdf:RDF>
            <cc:Work rdf:about="">
                <dc:title>Clarity Icon</dc:title>
                <dc:description>This is shape (source) for Clarity vector icon theme for gtk</dc:description>
                <dc:creator>
                    <cc:Agent>
                        <dc:title>Jakub Jankiewicz</dc:title>
                    </cc:Agent>
                </dc:creator>
                <dc:rights>
                    <cc:Agent>
                        <dc:title>Jakub Jankiewicz</dc:title>
                    </cc:Agent>
                </dc:rights>
                <dc:date>2010</dc:date>
                <dc:format>image/svg+xml</dc:format>
                <dc:type rdf:resource="http://purl.org/dc/dcmitype/StillImage" />
                <cc:license rdf:resource="http://www.gnu.org/copyleft/gpl.html" />
             </cc:Work>
        </rdf:RDF>
    </metadata>
    <path d="m 64.898981,37.884307 c -10.801722,0 -19.611185,8.182895 -19.611185,18.211725 0,10.028831 8.809463,18.211726 19.611185,18.211726 10.801721,0 19.611184,-8.182895 19.611184,-18.211726 0,-10.02883 -8.809463,-18.211725 -19.611184,-18.211725 z m 49.742699,18.125432 c -1.38445,-6.824708 -4.00703,-11.450801 -6.47953,-14.988843 0.18759,0.483995 0.33767,0.971742 0.51776,1.455737 C 99.900461,18.633305 64.767664,5.7080077 37.630167,22.103813 c -0.210106,1.013013 -0.273888,2.018523 -0.273888,3.016528 0,-0.191347 -0.02251,-0.367686 -0.01501,-0.562785 -6.539563,-0.502755 -14.459825,7.732667 -21.502142,22.822811 -3.575561,8.543078 -4.869967,17.896566 -1.553287,28.863371 1.935981,6.400743 4.982524,12.966569 9.375999,18.06165 13.022847,15.108902 32.971703,21.273272 44.587587,18.140442 0.01501,0.004 0.03377,0.0113 0.05253,0.015 22.395095,-0.46898 39.372446,-15.863031 45.491796,-35.901932 2.20236,-7.233664 2.34494,-13.154163 0.84793,-20.549159 z M 26.50203,91.855397 c -3.601824,-4.172114 -6.584585,-9.946289 -8.625619,-16.703462 -2.750143,-9.079599 -2.296163,-17.446337 1.42197,-26.319582 3.774412,-8.077842 7.458778,-13.386781 10.629134,-16.579649 0.562786,2.78391 1.954741,6.108094 4.175866,9.938785 0.817914,1.42197 1.722122,2.630082 2.596315,3.796923 0.67159,0.889201 1.335677,1.778401 1.924725,2.735136 0.465236,0.757884 0.896704,1.669595 1.328173,2.76515 -0.896704,10.332735 3.346695,19.277266 11.810983,25.058944 l -9.552339,8.441777 -0.757884,0.641575 c -0.780395,0.641575 -1.6771,1.399459 -2.442487,2.209869 -5.102585,5.417744 -0.937975,10.621631 1.073043,13.124147 l 0.25513,0.32642 c 0.8892,1.11431 1.924724,2.32617 3.057798,3.51928 C 37.45758,101.92925 31.499562,97.652083 26.50203,91.855397 z M 110.21068,75.459591 C 104.20764,95.089535 87.93565,108.10113 68.677145,108.69768 59.353672,106.51032 52.311354,102.0193 47.719028,95.352168 c 0.01501,-0.01501 0.03752,-0.03002 0.05628,-0.04878 l 18.549397,-14.39229 c 8.351731,-0.465236 14.459825,-3.331688 18.185462,-8.54683 4.584822,-5.297683 6.723406,-11.349499 6.351968,-18.237988 6.817203,1.414466 12.715187,3.387966 18.215477,7.064828 l 0.43522,0.292649 0.50275,0.161331 c 0.5853,0.183843 1.16685,0.285145 1.72213,0.303904 0.40895,4.652357 -0.0788,8.753184 -1.52703,13.510594 z m 0.95674,-17.382555 c -7.31996,-4.899982 -15.240222,-7.004799 -24.740034,-8.573093 1.992259,8.846982 -0.31516,15.277739 -4.97502,20.680476 -3.309176,4.633597 -8.937027,6.835963 -16.485851,7.034814 L 45.381594,92.421934 c -1.864695,1.534527 -2.217373,3.072806 -1.058036,4.611085 3.185363,4.791181 7.237416,8.261681 11.713433,10.797971 -0.04877,0 -0.09755,0.007 -0.146324,0.0113 -0.0038,-0.004 -0.01501,-0.008 -0.02251,-0.015 -0.07504,0.0112 -0.153828,0.015 -0.232618,0.0188 -0.300152,0.004 -0.600304,-0.004 -0.896704,-0.0375 -0.585297,-0.0788 -1.178097,-0.24012 -1.722122,-0.44273 -3.369207,-1.24938 -7.091093,-5.07257 -9.743686,-8.400502 -2.179854,-2.738887 -4.524792,-5.376473 -1.542031,-8.535574 0.96799,-1.024268 2.183606,-1.928476 2.960249,-2.618826 l 9.458541,-8.362987 c 0.645327,-0.51401 1.313166,-1.039276 2.007267,-1.587053 0.198851,-0.15758 0.401454,-0.31516 0.607808,-0.476492 2.116072,-1.65834 1.812168,-1.200608 -0.405205,-2.40872 C 47.283807,70.023087 42.563917,61.416227 43.77578,51.004703 c -0.559033,-1.538279 -1.189352,-2.971505 -1.943484,-4.217136 -1.36194,-2.25114 -3.129085,-4.134594 -4.479769,-6.464525 -3.376711,-5.837957 -6.929761,-14.639916 0.04877,-13.814498 -0.01876,-0.19885 -0.0075,-0.412709 -0.01876,-0.615311 0.352679,7.507553 5.7254,14.343516 6.535811,18.33929 0.292648,1.433226 1.103058,2.64509 2.296163,1.050532 9.522323,-12.737703 22.770284,-11.454553 31.245828,-4.922494 1.662092,1.275647 2.5663,2.832685 4.06706,4.16461 0.577793,0.517762 1.230623,0.971742 2.007267,1.316917 2.787662,1.245631 6.779684,1.170593 9.781205,1.628325 5.143855,0.780395 10.156394,1.740882 14.898794,3.046543 0.93798,0.112557 1.59081,-0.01501 1.95474,-0.378942 0.79165,-0.780395 -0.007,-3.327936 -0.45398,-4.73865 1.03928,3.02028 2.01102,6.036808 2.90022,9.06084 0.6791,2.356193 0.51776,4.258407 -1.44823,3.616832 z" style="fill:#aaaaaa"/>
</svg>