<?xml version="1.0" encoding="UTF-8" standalone="no"?>
<svg xmlns:dc="http://purl.org/dc/elements/1.1/"
     xmlns:cc="http://creativecommons.org/ns#"
     xmlns:rdf="http://www.w3.org/1999/02/22-rdf-syntax-ns#"
     xmlns:svg="http://www.w3.org/2000/svg"
     xmlns="http://www.w3.org/2000/svg"
     xmlns:xlink="http://www.w3.org/1999/xlink"
     width="128" height="128" version="1.1">
    <title>Darktable application icon</title>
    <desc>This is shape (source) for Clarity vector icon theme for gtk</desc>
    <metadata>
        <rdf:RDF>
            <cc:Work rdf:about="">
                <dc:title>Darktable application icon</dc:title>
                <dc:description>This is shape (source) for Clarity vector icon theme for gtk</dc:description>
                <dc:creator>
                    <cc:Agent>
                        <dc:title>Jakub Jankiewicz</dc:title>
                    </cc:Agent>
                </dc:creator>
                <dc:rights>
                    <cc:Agent>
                        <dc:title>Jakub Jankiewicz</dc:title>
                    </cc:Agent>
                </dc:rights>
                <dc:date>2010</dc:date>
                <dc:format>image/svg+xml</dc:format>
                <dc:type rdf:resource="http://purl.org/dc/dcmitype/StillImage" />
                <cc:license rdf:resource="http://creativecommons.org/licenses/by-sa/3.0/" />
             </cc:Work>
        </rdf:RDF>
    </metadata>
    <path d="M 64.929842,1.8455102 C 47.490793,2.0726054 30.518942,9.6692055 18.760739,23.359945 L 47.803946,57.191824 68.422355,1.8985893 c -1.16535,-0.050718 -2.32991,-0.068224 -3.492513,-0.05305 z M 76.575535,4.5013159 61.797927,46.569634 119.99257,36.778948 C 111.37294,20.225416 95.493543,8.0613539 76.575535,4.5013159 Z M 12.429781,29.119569 C 2.403816,44.861147 -0.19072157,64.695063 6.1852007,82.858548 L 50.006019,74.622119 Z M 121.8148,45.141307 77.993977,53.377745 115.57021,98.880289 C 125.59617,83.138711 128.19072,63.304794 121.8148,45.141307 Z M 63.999999,55.474704 a 8.525224,8.525224 0 0 0 -8.525225,8.525225 8.525224,8.525224 0 0 0 8.525225,8.525224 8.525224,8.525224 0 0 0 8.525224,-8.525224 8.525224,8.525224 0 0 0 -8.525224,-8.525225 z M 80.196051,70.80804 59.577643,126.10127 c 18.645594,0.81195 37.119528,-6.8579 49.661607,-21.46135 z M 66.202069,81.430224 8.0074246,91.220907 C 16.627056,107.77444 32.506457,119.9385 51.424462,123.49854 Z" style="fill:#aaaaaa"/>
</svg>