<?xml version="1.0" encoding="UTF-8" standalone="no"?>
<svg xmlns:dc="http://purl.org/dc/elements/1.1/"
     xmlns:cc="http://creativecommons.org/ns#"
     xmlns:rdf="http://www.w3.org/1999/02/22-rdf-syntax-ns#"
     xmlns:svg="http://www.w3.org/2000/svg"
     xmlns="http://www.w3.org/2000/svg"
     xmlns:xlink="http://www.w3.org/1999/xlink"
     width="128" height="128" version="1.1">
    <title>Clarity Icon</title>
    <desc>This is shape (source) for Clarity vector icon theme for gtk</desc>
    <metadata>
        <rdf:RDF>
            <cc:Work rdf:about="">
                <dc:title>Clarity Icon</dc:title>
                <dc:description>This is shape (source) for Clarity vector icon theme for gtk</dc:description>
                <dc:creator>
                    <cc:Agent>
                        <dc:title>Jakub Jankiewicz</dc:title>
                    </cc:Agent>
                </dc:creator>
                <dc:rights>
                    <cc:Agent>
                        <dc:title>Jakub Jankiewicz</dc:title>
                    </cc:Agent>
                </dc:rights>
                <dc:date>2010</dc:date>
                <dc:format>image/svg+xml</dc:format>
                <dc:type rdf:resource="http://purl.org/dc/dcmitype/StillImage" />
                <cc:license rdf:resource="http://www.gnu.org/copyleft/gpl.html" />
             </cc:Work>
        </rdf:RDF>
    </metadata>
    <path d="m 33.334203,10.25871 c -2.013804,0 -3.616109,1.525339 -3.616109,3.394715 l 0,22.250138 c 0,1.869375 1.602305,3.357815 3.616109,3.357815 l 1.955651,0 c 2.013803,0 3.653007,-1.48844 3.653007,-3.357815 l 0,-22.250138 c 0,-1.869376 -1.639204,-3.394715 -3.653007,-3.394715 l -1.955651,0 z m 59.186106,0 c -2.0138,0 -3.653008,1.525339 -3.653008,3.394715 l 0,22.250138 c 0,1.869375 1.639208,3.357815 3.653008,3.357815 l 1.91875,0 c 2.0138,0 3.65301,-1.48844 3.65301,-3.357815 l 0,-22.250138 c 0,-1.869376 -1.63921,-3.394715 -3.65301,-3.394715 l -1.91875,0 z M 18.353181,26.494301 c -6.513329,0 -11.7708032,5.146618 -11.7708032,11.549408 l 0,67.894281 c 0,6.4028 5.2574742,11.58631 11.7708032,11.58631 l 91.103799,0 c 6.51333,0 11.77081,-5.18351 11.77081,-11.58631 l 0,-67.894281 c 0,-6.40279 -5.25748,-11.549408 -11.77081,-11.549408 l -8.92957,0 0,11.291114 c 0,2.85982 -2.490991,5.16587 -5.571761,5.16587 l -2.95193,0 c -3.080768,0 -5.571757,-2.30605 -5.571757,-5.16587 l 0,-11.291114 -45.053762,0 0,11.291114 c 0,2.85982 -2.490988,5.16587 -5.57176,5.16587 l -2.988824,0 c -3.080771,0 -5.53486,-2.30605 -5.53486,-5.16587 l 0,-11.291114 -8.929575,0 z m -4.390989,32.212886 99.848878,0 0,42.802923 c 0,4.3099 -3.4389,7.7488 -7.7488,7.7488 l -84.314375,0 c -4.309905,0 -7.785703,-3.4389 -7.785703,-7.7488 l 0,-42.802923 z" style="fill:#aaaaaa"/>
</svg>