<?xml version="1.0" encoding="UTF-8" standalone="no"?>
<svg xmlns:dc="http://purl.org/dc/elements/1.1/"
     xmlns:cc="http://creativecommons.org/ns#"
     xmlns:rdf="http://www.w3.org/1999/02/22-rdf-syntax-ns#"
     xmlns:svg="http://www.w3.org/2000/svg"
     xmlns="http://www.w3.org/2000/svg"
     xmlns:xlink="http://www.w3.org/1999/xlink"
     width="128" height="128" version="1.1">
    <title>Diablo Icon</title>
    <desc>This is shape (source) for Clarity vector icon theme for gtk</desc>
    <metadata>
        <rdf:RDF>
            <cc:Work rdf:about="">
                <dc:title>Diablo Icon</dc:title>
                <dc:description>This is shape (source) for Clarity vector icon theme for gtk</dc:description>
                <dc:creator>
                    <cc:Agent>
                        <dc:title>Jakub Jankiewicz</dc:title>
                    </cc:Agent>
                </dc:creator>
                <dc:rights>
                    <cc:Agent>
                        <dc:title>Jakub Jankiewicz</dc:title>
                    </cc:Agent>
                </dc:rights>
                <dc:date>2010</dc:date>
                <dc:format>image/svg+xml</dc:format>
                <dc:type rdf:resource="http://purl.org/dc/dcmitype/StillImage" />
                <cc:license rdf:resource="http://creativecommons.org/licenses/by-sa/3.0/" />
             </cc:Work>
        </rdf:RDF>
    </metadata>
    <path d="m 110.15344,12.069643 a 0.30972507,0.30972507 0 0 0 -0.1123,0.02536 24.705675,24.705675 0 0 1 -5.98049,16.503407 27.428288,27.428288 0 0 1 -6.581802,5.444387 7.9601198,7.9601198 0 0 0 -3.245622,9.707887 8.5313493,8.5313493 0 0 0 6.168854,5.194444 8.3125016,8.3125016 0 0 0 7.65764,-2.064737 23.158904,23.158904 0 0 0 2.33279,-2.568242 26.055854,26.055854 0 0 0 -0.0833,-32.16281 0.18546412,0.18546412 0 0 0 -0.15575,-0.07969 z m -92.369821,0.02899 a 0.12982488,0.12982488 0 0 0 -0.09779,0.05795 26.05029,26.05029 0 0 0 -0.07608,32.155567 23.277601,23.277601 0 0 0 2.332791,2.568241 8.3087924,8.3087924 0 0 0 7.668505,2.071983 8.5313493,8.5313493 0 0 0 6.165234,-5.194443 7.9582652,7.9582652 0 0 0 -3.252866,-9.707889 27.461672,27.461672 0 0 1 -6.581803,-5.451631 C 18.624352,21.819703 17.821263,15.942549 18.069786,12.207302 a 0.53599129,0.53599129 0 0 0 -0.268054,-0.108667 0.12982488,0.12982488 0 0 0 -0.01818,0 z m 48.072154,7.389585 c -14.156475,0 -26.098076,4.188562 -33.169822,11.558907 a 11.758425,11.758425 0 0 1 4.549666,14.047458 12.227649,12.227649 0 0 1 -8.820412,7.476522 12.600432,12.600432 0 0 1 -2.720382,0.300654 c -0.207719,0 -0.4117,-0.0178 -0.619421,-0.02899 a 89.623679,89.623679 0 0 0 2.31468,20.676359 7.1793159,7.1793159 0 0 1 -0.865741,5.346585 11.068498,11.068498 0 0 0 -1.470673,5.534944 11.294765,11.294765 0 0 0 11.066267,11.127847 7.4908956,7.4908956 0 0 1 7.480145,7.418566 v 7.71559 a 3.7092823,3.7092823 0 0 0 2.738492,3.58612 c 0.291181,0.0779 0.618409,0.1557 0.97079,0.23546 v -5.97325 a 1.8546415,1.8546415 0 0 1 3.709283,0 v 6.36084 a 1.6914327,1.6914327 0 0 1 -0.05071,0.25719 c 1.954791,0.26336 4.405411,0.49287 7.469278,0.63753 v -5.40092 a 1.8546415,1.8546415 0 0 1 3.709283,0 v 5.46975 c 0,0.0154 -0.0078,0.0341 -0.01089,0.0471 -3.04e-4,0.002 0,0.004 0,0.008 1.168493,0.026 2.410841,0.0399 3.720217,0.0399 1.309377,0 2.551725,-0.0139 3.720149,-0.0399 0,-0.002 3.04e-4,-0.009 0,-0.0111 -0.0031,-0.0128 -0.01089,-0.0281 -0.01089,-0.0434 v -5.46974 a 1.8546412,1.8546412 0 0 1 3.709282,0 v 5.40091 c 3.063868,-0.14466 5.516341,-0.37046 7.469279,-0.63753 a 1.6914327,1.6914327 0 0 1 -0.0507,-0.25719 v -6.36084 a 1.8546412,1.8546412 0 0 1 3.709282,0 v 5.97325 c 0.350528,-0.0798 0.677842,-0.15754 0.967166,-0.23546 a 3.7092823,3.7092823 0 0 0 2.742116,-3.58612 v -7.71559 a 7.4908956,7.4908956 0 0 1 7.480144,-7.418563 11.428299,11.428299 0 0 0 11.066269,-11.127847 11.075917,11.075917 0 0 0 -1.48516,-5.545811 7.1626241,7.1626241 0 0 1 -0.86212,-5.321227 91.085136,91.085136 0 0 0 2.32917,-21.4624 12.181283,12.181283 0 0 1 -4.33233,0.800539 12.489153,12.489153 0 0 1 -2.720381,-0.297032 12.227649,12.227649 0 0 1 -8.820411,-7.476523 11.775116,11.775116 0 0 1 4.734405,-14.195973 C 96.216876,30.451551 96.875679,30.00522 97.493275,29.561962 90.276866,23.052172 79.147918,19.488217 65.855705,19.488217 Z M 45.454721,62.144963 c 9.011702,0 14.837129,4.36768 14.837129,11.127847 0,7.15706 -6.656307,12.982489 -14.837129,12.982489 -8.180822,0 -14.83713,-5.825429 -14.83713,-12.982489 0,-6.760167 5.825429,-11.127847 14.83713,-11.127847 z m 40.802106,0 c 9.0117,0 14.837133,4.36768 14.837133,11.127847 0,7.15706 -6.656311,12.982489 -14.837133,12.982489 -8.180823,0 -14.83713,-5.825429 -14.83713,-12.982489 0,-6.760167 5.825428,-11.127847 14.83713,-11.127847 z m -40.802106,3.709282 c -5.37846,0 -11.127847,1.949228 -11.127847,7.418565 0,5.113245 4.990839,9.273205 11.127847,9.273205 6.137007,0 11.127847,-4.15996 11.127847,-9.273205 0,-5.469337 -5.749388,-7.418565 -11.127847,-7.418565 z m 40.802106,0 c -5.37846,0 -11.127847,1.949228 -11.127847,7.418565 0,5.113245 4.990839,9.273205 11.127847,9.273205 6.137007,0 11.127847,-4.15996 11.127847,-9.273205 0,-5.469337 -5.749388,-7.418565 -11.127847,-7.418565 z M 65.848529,80.687753 a 6.3614192,6.3614192 0 0 1 6.005849,4.256256 l 2.024892,5.563924 a 5.1763035,5.1763035 0 0 1 -0.604932,4.738027 4.992694,4.992694 0 0 1 -4.078762,2.137185 H 62.515972 A 4.9889846,4.9889846 0 0 1 58.43721,95.242329 5.1670302,5.1670302 0 0 1 57.82141,90.507924 L 59.846303,84.944 a 6.3614192,6.3614192 0 0 1 6.002226,-4.256257 z m 0.0072,3.712904 a 2.6521368,2.6521368 0 0 0 -2.51753,1.818418 l -2.028514,5.563923 a 1.4410562,1.4410562 0 0 0 0.173873,1.336646 1.2481735,1.2481735 0 0 0 1.035991,0.557841 h 6.679605 a 1.2537375,1.2537375 0 0 0 1.035991,-0.557841 1.4410562,1.4410562 0 0 0 0.173874,-1.340268 l -2.035736,-5.56031 a 2.6521368,2.6521368 0 0 0 -2.517532,-1.818418 z" style="fill:#aaaaaa"/>
</svg>