<?xml version="1.0" encoding="UTF-8" standalone="no"?>
<svg xmlns:dc="http://purl.org/dc/elements/1.1/"
     xmlns:cc="http://creativecommons.org/ns#"
     xmlns:rdf="http://www.w3.org/1999/02/22-rdf-syntax-ns#"
     xmlns:svg="http://www.w3.org/2000/svg"
     xmlns="http://www.w3.org/2000/svg"
     xmlns:xlink="http://www.w3.org/1999/xlink"
     width="128" height="128" version="1.1">
    <title>Download Icon</title>
    <desc>This is shape (source) for Clarity vector icon theme for gtk</desc>
    <metadata>
        <rdf:RDF>
            <cc:Work rdf:about="">
                <dc:title>Download Icon</dc:title>
                <dc:description>This is shape (source) for Clarity vector icon theme for gtk</dc:description>
                <dc:creator>
                    <cc:Agent>
                        <dc:title>Jakub Jankiewicz</dc:title>
                    </cc:Agent>
                </dc:creator>
                <dc:rights>
                    <cc:Agent>
                        <dc:title>Jakub Jankiewicz</dc:title>
                    </cc:Agent>
                </dc:rights>
                <dc:date>2010</dc:date>
                <dc:format>image/svg+xml</dc:format>
                <dc:type rdf:resource="http://purl.org/dc/dcmitype/StillImage" />
                <cc:license rdf:resource="http://www.gnu.org/copyleft/gpl.html" />
             </cc:Work>
        </rdf:RDF>
    </metadata>
    <path d="m 50.783423,13.061497 0,30.881931 -12.382431,0 25.580471,31.289735 25.580471,-31.289735 -12.122919,0 0,-30.881931 -26.655592,0 z M 19.604907,78.013649 c -2.944301,0 -5.375606,2.468379 -5.375606,5.41268 l 0,26.099491 c 0,2.9443 2.431305,5.41268 5.375606,5.41268 l 88.753113,0 c 2.9443,0 5.41268,-2.46838 5.41268,-5.41268 l 0,-26.099491 c 0,-2.944301 -2.46838,-5.41268 -5.41268,-5.41268 l -88.753113,0 z m 0.556097,5.931704 87.677996,0 0,25.061447 -87.677996,0 0,-25.061447 z m 62.727764,10.936578 c -1.35252,0 -2.446828,1.094308 -2.446828,2.446827 l 0,5.264392 c 0,1.35251 1.094308,2.40975 2.446828,2.40975 l 17.906332,0 c 1.35252,0 2.40975,-1.05724 2.40975,-2.40975 l 0,-5.264392 c 0,-1.352519 -1.05723,-2.446827 -2.40975,-2.446827 l -17.906332,0 z" style="fill:#aaaaaa"/>
</svg>