<?xml version="1.0" encoding="UTF-8" standalone="no"?>
<svg xmlns:dc="http://purl.org/dc/elements/1.1/"
     xmlns:cc="http://creativecommons.org/ns#"
     xmlns:rdf="http://www.w3.org/1999/02/22-rdf-syntax-ns#"
     xmlns:svg="http://www.w3.org/2000/svg"
     xmlns="http://www.w3.org/2000/svg"
     xmlns:xlink="http://www.w3.org/1999/xlink"
     width="128" height="128" version="1.1">
    <title>Clarity Icon</title>
    <desc>This is shape (source) for Clarity vector icon theme for gtk</desc>
    <metadata>
        <rdf:RDF>
            <cc:Work rdf:about="">
                <dc:title>Clarity Icon</dc:title>
                <dc:description>This is shape (source) for Clarity vector icon theme for gtk</dc:description>
                <dc:creator>
                    <cc:Agent>
                        <dc:title>Jakub Jankiewicz</dc:title>
                    </cc:Agent>
                </dc:creator>
                <dc:rights>
                    <cc:Agent>
                        <dc:title>Jakub Jankiewicz</dc:title>
                    </cc:Agent>
                </dc:rights>
                <dc:date>2010</dc:date>
                <dc:format>image/svg+xml</dc:format>
                <dc:type rdf:resource="http://purl.org/dc/dcmitype/StillImage" />
                <cc:license rdf:resource="http://www.gnu.org/copyleft/gpl.html" />
             </cc:Work>
        </rdf:RDF>
    </metadata>
    <path d="m 100.99964,26.998084 c -5.142592,-5.142599 -13.480396,-5.1426 -18.622992,0 l -1.125139,-1.12514 C 77.76294,22.384378 72.150142,22.40378 68.661582,25.892346 L 25.770478,68.78345 c -3.488568,3.488566 -3.507961,9.101358 -0.0194,12.589925 l 20.853885,20.853875 c 3.488568,3.48857 9.120759,3.48857 12.609327,0 l 42.8911,-42.891095 c 3.48856,-3.488563 3.48857,-9.120758 0,-12.609324 l -1.10575,-1.105741 c 5.14261,-5.1426 5.14261,-13.480403 0,-18.623003 z m -4.655746,4.655751 c 2.571307,2.571302 2.571307,6.740201 0,9.311501 -2.571295,2.5713 -6.740189,2.571303 -9.311496,0 -2.571299,-2.571302 -2.571299,-6.7402 0,-9.311501 2.571298,-2.5713 6.740201,-2.571303 9.311496,0 z" style="fill:#aaaaaa"/>
</svg>