<?xml version="1.0" encoding="UTF-8" standalone="no"?>
<svg xmlns:dc="http://purl.org/dc/elements/1.1/"
     xmlns:cc="http://creativecommons.org/ns#"
     xmlns:rdf="http://www.w3.org/1999/02/22-rdf-syntax-ns#"
     xmlns:svg="http://www.w3.org/2000/svg"
     xmlns="http://www.w3.org/2000/svg"
     xmlns:xlink="http://www.w3.org/1999/xlink"
     width="128" height="128" version="1.1">
    <title>Eclipse Icon</title>
    <desc>This is shape (source) for Clarity vector icon theme for gtk</desc>
    <metadata>
        <rdf:RDF>
            <cc:Work rdf:about="">
                <dc:title>Eclipse Icon</dc:title>
                <dc:description>This is shape (source) for Clarity vector icon theme for gtk</dc:description>
                <dc:creator>
                    <cc:Agent>
                        <dc:title>Jakub Jankiewicz</dc:title>
                    </cc:Agent>
                </dc:creator>
                <dc:rights>
                    <cc:Agent>
                        <dc:title>Jakub Jankiewicz</dc:title>
                    </cc:Agent>
                </dc:rights>
                <dc:date>2010</dc:date>
                <dc:format>image/svg+xml</dc:format>
                <dc:type rdf:resource="http://purl.org/dc/dcmitype/StillImage" />
                <cc:license rdf:resource="http://creativecommons.org/licenses/by-sa/3.0/" />
             </cc:Work>
        </rdf:RDF>
    </metadata>
    <path d="m 73.171875,8.65625 c -25.913143,0 -47.66547,17.797443 -53.6875,41.84375 l 10.5,0 c 5.614633,-22.395917 24.879584,-39.376756 48.4375,-41.59375 -1.729779,-0.1629286 -3.4776,-0.25 -5.25,-0.25 z M 29.984375,50.5 c -0.238095,0.949723 -0.436705,1.906511 -0.625,2.875 l 89.312505,0 1.46875,0 0,-2.875 -1.46875,0 -88.687505,0 z m -0.625,2.875 -10.5,0 c -0.326898,1.6811 -0.579013,3.393259 -0.75,5.125 l 10.5,0 c 0.170934,-1.734141 0.422721,-3.441654 0.75,-5.125 z m -0.75,5.125 c -0.09573,0.971202 -0.17389,1.952197 -0.21875,2.9375 l 90.281255,0 1.46875,0 0,-2.9375 -1.46875,0 -90.062505,0 z m -0.21875,2.9375 -10.5,0 c -0.03888,0.851154 -0.0625,1.701742 -0.0625,2.5625 0,0.860758 0.02362,1.711346 0.0625,2.5625 l 10.5,0 c -0.03863,-0.848462 -0.0625,-1.704489 -0.0625,-2.5625 0,-0.858011 0.02387,-1.714038 0.0625,-2.5625 z m 0,5.125 c 0.04486,0.985303 0.123019,1.966298 0.21875,2.9375 l 90.062505,0 1.46875,0 0,-2.9375 -1.46875,0 -90.281255,0 z m 0.21875,2.9375 -10.5,0 c 0.170987,1.731741 0.423102,3.4439 0.75,5.125 l 10.5,0 c -0.327279,-1.683345 -0.579066,-3.390859 -0.75,-5.125 z m 0.75,5.125 c 0.188295,0.968489 0.386905,1.925277 0.625,2.875 l 88.687505,0 1.46875,0 0,-2.875 -1.46875,0 -89.312505,0 z m 0.625,2.875 -10.5,0 c 6.02203,24.04631 27.774357,41.84375 53.6875,41.84375 1.7724,0 3.520221,-0.0871 5.25,-0.25 C 54.863959,116.87675 35.599008,99.895916 29.984375,77.5 z m -10.5,0 c -0.236651,-0.94496 -0.437639,-1.911478 -0.625,-2.875 l -9.5625,0 -1.4375,0 0,2.875 1.4375,0 10.1875,0 z m -1.375,-8 c -0.09594,-0.971626 -0.173728,-1.951765 -0.21875,-2.9375 l -8.59375,0 -1.4375,0 0,2.9375 1.4375,0 8.8125,0 z m -0.21875,-8.0625 c 0.04502,-0.985735 0.122815,-1.965874 0.21875,-2.9375 l -8.8125,0 -1.4375,0 0,2.9375 1.4375,0 8.59375,0 z m 0.96875,-8.0625 c 0.187361,-0.963522 0.388349,-1.93004 0.625,-2.875 l -10.1875,0 -1.4375,0 0,2.875 1.4375,0 9.5625,0 z" style="fill:#aaaaaa"/>
</svg>