<?xml version="1.0" encoding="UTF-8" standalone="no"?>
<svg xmlns:dc="http://purl.org/dc/elements/1.1/"
     xmlns:cc="http://creativecommons.org/ns#"
     xmlns:rdf="http://www.w3.org/1999/02/22-rdf-syntax-ns#"
     xmlns:svg="http://www.w3.org/2000/svg"
     xmlns="http://www.w3.org/2000/svg"
     xmlns:xlink="http://www.w3.org/1999/xlink"
     width="128" height="128" version="1.1">
    <title>Clarity Icon</title>
    <desc>This is shape (source) for Clarity vector icon theme for gtk</desc>
    <metadata>
        <rdf:RDF>
            <cc:Work rdf:about="">
                <dc:title>Clarity Icon</dc:title>
                <dc:description>This is shape (source) for Clarity vector icon theme for gtk</dc:description>
                <dc:creator>
                    <cc:Agent>
                        <dc:title>Jakub Jankiewicz</dc:title>
                    </cc:Agent>
                </dc:creator>
                <dc:rights>
                    <cc:Agent>
                        <dc:title>Jakub Jankiewicz</dc:title>
                    </cc:Agent>
                </dc:rights>
                <dc:date>2010</dc:date>
                <dc:format>image/svg+xml</dc:format>
                <dc:type rdf:resource="http://purl.org/dc/dcmitype/StillImage" />
                <cc:license rdf:resource="http://www.gnu.org/copyleft/gpl.html" />
             </cc:Work>
        </rdf:RDF>
    </metadata>
    <path d="m 32.796871,26.740649 c -2.13162,-0.01036 -3.80996,0.112027 -5.75,1.5 -1.56929,1.122729 -2.032,4.957608 0.5,6.9375 l 31.5625,24.6875 c 1.28214,1.002563 2.95576,1.5 4.625,1.5 1.66924,0 3.34286,-0.497437 4.625,-1.5 l 31.5625,-24.6875 c 2.531999,-1.979892 2.069289,-5.814771 0.499999,-6.9375 -1.940039,-1.387973 -3.619269,-1.5625 -5.749999,-1.5 -21.62458,0.634306 -39.26061,0.109888 -61.875,0 z m 77.874999,12.8125 -40.562499,31.75 c -3.55755,2.781813 -9.2862,2.781813 -12.84375,0 l -40.5,-31.65625 c -3.79869,0.69708 -6.65625,4.025059 -6.65625,8.03125 l 0,45.187497 c 0,4.51604 3.64021,8.156254 8.15625,8.156254 l 91.468749,0 c 4.51604,0 8.15625,-3.640214 8.15625,-8.156254 l 0,-45.187497 c 0,-4.201973 -3.14311,-7.666885 -7.21875,-8.125 z" style="fill:#aaaaaa"/>
</svg>