<?xml version="1.0" encoding="UTF-8" standalone="no"?>
<svg xmlns:dc="http://purl.org/dc/elements/1.1/"
     xmlns:cc="http://creativecommons.org/ns#"
     xmlns:rdf="http://www.w3.org/1999/02/22-rdf-syntax-ns#"
     xmlns:svg="http://www.w3.org/2000/svg"
     xmlns="http://www.w3.org/2000/svg"
     xmlns:xlink="http://www.w3.org/1999/xlink"
     width="128" height="128" version="1.1">
    <title>Empathy Icon</title>
    <desc>This is shape (source) for Clarity vector icon theme for gtk</desc>
    <metadata>
        <rdf:RDF>
            <cc:Work rdf:about="">
                <dc:title>Empathy Icon</dc:title>
                <dc:description>This is shape (source) for Clarity vector icon theme for gtk</dc:description>
                <dc:creator>
                    <cc:Agent>
                        <dc:title>Jakub Jankiewicz</dc:title>
                    </cc:Agent>
                </dc:creator>
                <dc:rights>
                    <cc:Agent>
                        <dc:title>Jakub Jankiewicz</dc:title>
                    </cc:Agent>
                </dc:rights>
                <dc:date>2010</dc:date>
                <dc:format>image/svg+xml</dc:format>
                <dc:type rdf:resource="http://purl.org/dc/dcmitype/StillImage" />
                <cc:license rdf:resource="http://www.gnu.org/copyleft/gpl.html" />
             </cc:Work>
        </rdf:RDF>
    </metadata>
    <path d="m 59.909359,12.108828 c -2.564464,0.260436 -4.5625,2.429324 -4.5625,5.0625 0,2.808721 2.285029,5.09375 5.09375,5.09375 2.808721,0 5.09375,-2.285029 5.09375,-5.09375 0,-2.808721 -2.285029,-5.0625 -5.09375,-5.0625 -0.175545,0 -0.360286,-0.01736 -0.53125,0 z m -16.90625,3.375 c -3.34371,0 -6.0625,2.718785 -6.0625,6.0625 0,3.343715 2.71879,6.0625 6.0625,6.0625 3.34371,0 6.0625,-2.718785 6.0625,-6.0625 0,-3.343715 -2.71879,-6.0625 -6.0625,-6.0625 z m 32.4375,3.8125 c -2.006233,0 -3.625,1.618767 -3.625,3.625 0,2.006234 1.618767,3.65625 3.625,3.65625 2.006233,0 3.65625,-1.650016 3.65625,-3.65625 0,-2.006233 -1.650017,-3.625 -3.65625,-3.625 z m -42.59375,12 c -1.78559,0 -3.25,1.433165 -3.25,3.21875 0,1.785585 1.46441,3.25 3.25,3.25 1.78559,0 3.21875,-1.464415 3.21875,-3.25 0,-1.785585 -1.43316,-3.21875 -3.21875,-3.21875 z m 49.375,0.5625 c -1.471239,0 -2.65625,1.185011 -2.65625,2.65625 0,1.471239 1.185011,2.6875 2.65625,2.6875 1.471239,0 2.6875,-1.216261 2.6875,-2.6875 0,-1.471239 -1.216261,-2.65625 -2.6875,-2.65625 z m 13.0625,8.53125 c -8.805148,-0.06093 -16.759232,6.083973 -18.65625,15.03125 3.81452,4.63815 -5.30381,12.96145 -3.5625,15.6875 2.61107,4.0877 6.81605,1.41339 6.25,4.6875 -0.43011,2.48785 -0.29075,4.80418 1.84375,6.21875 -1.52106,4.6102 3.81864,8.86424 6.375,9.40625 10.22547,2.16802 23.988241,-17.93079 26.156251,-28.15625 2.16802,-10.22546 -4.36829,-20.26949 -14.593751,-22.4375 -1.278181,-0.271003 -2.554622,-0.428796 -3.8125,-0.4375 z m -56.21875,6.21875 c -0.36351,0.007 -0.729,0.03804 -1.09375,0.0625 -0.021,0.0014 -0.0415,-0.0015 -0.0625,0 -15.97411,0.281479 -28.3113699,17.997116 -22.59375,33.1875 5.18251,13.670825 13.67825,27.710942 27.125,34.781252 0.008,0.004 0.02335,-0.004 0.03125,0 0.0121,0.007 0.01915,0.024 0.03125,0.0312 7.34031,4.38973 17.443991,-3.8085 14.90625,-11.71875 0.905444,-0.47994 1.660066,-1.08504 2.09375,-1.84375 0.564993,-0.98843 0.718947,-2.087205 0.78125,-3.156252 0.120769,-2.07227 -0.111757,-4.121139 0.28125,-5.53125 0.313081,-0.473929 0.80639,-0.813184 1.5625,-1.0625 0.79091,-0.26079 1.776615,-0.413568 2.78125,-0.625 1.004635,-0.211432 2.038412,-0.450698 2.90625,-1.125 0.867838,-0.674302 1.41847,-1.861171 1.34375,-3.28125 l 0,-0.15625 -0.0625,-0.15625 c -1.416408,-3.353847 -3.65402,-6.755951 -5.0625,-10.125 -1.40848,-3.369049 -2.015526,-6.573126 -0.46875,-9.875 l 0.15625,-0.34375 -0.09375,-0.34375 c -2.735697,-10.85994 -13.29357,-18.936981 -24.5625,-18.71875 z" style="fill:#aaaaaa"/>
</svg>