<?xml version="1.0" encoding="UTF-8" standalone="no"?>
<svg xmlns:dc="http://purl.org/dc/elements/1.1/"
     xmlns:cc="http://creativecommons.org/ns#"
     xmlns:rdf="http://www.w3.org/1999/02/22-rdf-syntax-ns#"
     xmlns:svg="http://www.w3.org/2000/svg"
     xmlns="http://www.w3.org/2000/svg"
     xmlns:xlink="http://www.w3.org/1999/xlink"
     width="128" height="128" version="1.1">
    <title>Evince App Icon</title>
    <desc>This is shape (source) for Clarity vector icon theme for gtk</desc>
    <metadata>
        <rdf:RDF>
            <cc:Work rdf:about="">
                <dc:title>Evince App Icon</dc:title>
                <dc:description>This is shape (source) for Clarity vector icon theme for gtk</dc:description>
                <dc:creator>
                    <cc:Agent>
                        <dc:title>Jakub Jankiewicz</dc:title>
                    </cc:Agent>
                </dc:creator>
                <dc:rights>
                    <cc:Agent>
                        <dc:title>Jakub Jankiewicz</dc:title>
                    </cc:Agent>
                </dc:rights>
                <dc:date>2010</dc:date>
                <dc:format>image/svg+xml</dc:format>
                <dc:type rdf:resource="http://purl.org/dc/dcmitype/StillImage" />
                <cc:license rdf:resource="http://creativecommons.org/licenses/by-sa/3.0/" />
             </cc:Work>
        </rdf:RDF>
    </metadata>
    <path d="M 17.949219 7.4570312 C 12.245577 7.4570312 7.5683594 12.134249 7.5683594 17.837891 L 7.5683594 109.94141 C 7.5683594 115.64506 12.245577 120.54297 17.949219 120.54297 L 110.05078 120.54297 C 115.75441 120.54297 120.43164 115.64506 120.43164 109.94141 L 120.43164 17.837891 C 120.43164 12.134249 115.75441 7.4570313 110.05078 7.4570312 L 17.949219 7.4570312 z M 17.949219 14.525391 L 110.05078 14.525391 C 111.96112 14.525391 113.36328 15.927536 113.36328 17.837891 L 113.36328 63.416016 C 106.27239 71.686773 97.03741 78.122702 86.78125 81.808594 C 77.08706 85.292523 66.284411 86.320855 56.449219 83.257812 C 53.934579 82.474631 51.499727 81.423896 49.210938 80.121094 C 53.27443 77.577816 57.220764 74.847084 61.029297 71.935547 C 66.240172 67.951996 71.301896 63.508087 74.478516 57.769531 C 76.066792 54.900288 77.153851 51.728522 77.433594 48.460938 C 77.713479 45.193354 77.162893 41.828938 75.65625 38.916016 C 74.381785 36.45204 72.445457 34.351882 70.160156 32.779297 C 67.874784 31.206783 65.248323 30.155261 62.53125 29.595703 C 57.097175 28.476588 51.408386 29.319092 46.146484 31.078125 C 39.033101 33.456085 32.416909 37.575451 27.634766 43.353516 C 22.852625 49.131511 20.007249 56.620594 20.386719 64.111328 C 20.800185 72.263395 24.995048 79.962894 30.96875 85.525391 C 31.027138 85.579759 31.087781 85.631561 31.146484 85.685547 C 25.886881 89.312932 20.363763 92.556927 14.636719 95.388672 L 14.636719 17.837891 C 14.636719 15.927536 16.038863 14.525391 17.949219 14.525391 z M 50.005859 35.962891 C 52.000038 35.887271 54.016385 36.218538 55.853516 36.998047 C 57.69072 37.777342 59.342703 39.010255 60.554688 40.595703 C 61.95086 42.422093 62.736261 44.682194 62.933594 46.972656 C 63.130785 49.263045 62.756839 51.58183 62.003906 53.753906 C 60.497618 58.097986 57.545946 61.777443 54.472656 65.197266 C 51.034977 69.022607 47.364895 72.63602 43.503906 76.033203 C 43.376454 75.919945 43.242846 75.814537 43.117188 75.699219 C 39.322347 72.216703 36.370115 67.7885 34.800781 62.882812 C 32.983297 57.201365 33.105538 50.780219 35.828125 45.472656 C 37.189382 42.818912 39.182092 40.477631 41.640625 38.789062 C 44.099157 37.100495 47.025514 36.076116 50.005859 35.962891 z M 113.36328 83.308594 L 113.36328 109.94141 C 113.36328 111.85177 111.96112 113.47461 110.05078 113.47461 L 17.949219 113.47461 C 16.038863 113.47461 14.636719 111.85177 14.636719 109.94141 L 14.636719 96.220703 C 21.374603 94.043617 27.961065 91.402791 34.337891 88.324219 C 39.692087 92.312114 45.992686 95.012865 52.474609 96.703125 C 64.018016 99.713226 76.350811 99.644203 87.859375 96.503906 C 97.162666 93.965071 105.90768 89.422648 113.36328 83.308594 z " style="fill:#aaaaaa"/>
</svg>