<?xml version="1.0" encoding="UTF-8" standalone="no"?>
<svg xmlns:dc="http://purl.org/dc/elements/1.1/"
     xmlns:cc="http://creativecommons.org/ns#"
     xmlns:rdf="http://www.w3.org/1999/02/22-rdf-syntax-ns#"
     xmlns:svg="http://www.w3.org/2000/svg"
     xmlns="http://www.w3.org/2000/svg"
     xmlns:xlink="http://www.w3.org/1999/xlink"
     width="128" height="128" version="1.1">
    <title>Clarity Icon</title>
    <desc>This is shape (source) for Clarity vector icon theme for gtk</desc>
    <metadata>
        <rdf:RDF>
            <cc:Work rdf:about="">
                <dc:title>Clarity Icon</dc:title>
                <dc:description>This is shape (source) for Clarity vector icon theme for gtk</dc:description>
                <dc:creator>
                    <cc:Agent>
                        <dc:title>Jakub Jankiewicz</dc:title>
                    </cc:Agent>
                </dc:creator>
                <dc:rights>
                    <cc:Agent>
                        <dc:title>Jakub Jankiewicz</dc:title>
                    </cc:Agent>
                </dc:rights>
                <dc:date>2010</dc:date>
                <dc:format>image/svg+xml</dc:format>
                <dc:type rdf:resource="http://purl.org/dc/dcmitype/StillImage" />
                <cc:license rdf:resource="http://www.gnu.org/copyleft/gpl.html" />
             </cc:Work>
        </rdf:RDF>
    </metadata>
    <path d="m 62.413051,6.7734983 c -0.696987,-0.00535 -1.427605,0.1404242 -2.074692,0.430594 -1.294174,0.5803333 -2.180067,1.6137957 -2.779283,2.7401465 -1.198433,2.2527062 -1.584522,5.0901992 -1.448366,8.9641952 0.144533,4.112163 2.054652,10.390866 4.775684,17.77181 0.436412,1.183797 1.011008,2.394428 1.487511,3.601331 -1.742721,6.511883 -4.328145,13.802678 -7.437543,24.426455 -2.885941,9.860299 -5.436301,18.936633 -8.494456,26.696861 -6.163011,2.780591 -12.060901,5.539797 -15.149101,7.202672 -3.512327,1.891247 -7.094038,4.384257 -9.981964,7.006947 -2.887926,2.6227 -5.366999,4.99707 -5.715162,8.69017 -0.175413,1.86076 0.602001,3.24129 1.722377,4.38425 1.120375,1.14293 2.705331,1.9961 4.619105,2.34869 3.827547,0.70518 8.766052,-0.49014 14.875086,-4.81483 6.824648,-4.8313 11.300375,-11.93415 14.796796,-20.277087 6.783076,-3.017901 14.100296,-6.157446 19.572468,-8.298729 6.369529,-2.49242 12.729934,-4.492617 18.124115,-5.793451 2.89828,2.919435 5.73321,5.374005 8.5336,6.537213 2.781864,1.155504 5.642364,1.122458 8.063874,0.391441 2.4215,-0.731004 4.52784,-2.054216 5.75429,-4.266794 0.61323,-1.106301 0.95918,-2.553833 0.66547,-3.992789 -0.2937,-1.438956 -1.17092,-2.708075 -2.30955,-3.601336 -2.27725,-1.786522 -5.46723,-2.555364 -10.138534,-2.818441 -2.44847,-0.137886 -5.35447,0.209207 -8.45531,0.782907 -0.84671,-0.893697 -1.61631,-1.557089 -2.466136,-2.544423 C 84.37234,67.019025 79.64719,60.533753 76.231213,54.92179 73.68547,50.739485 71.17545,45.185723 68.911106,39.65526 70.331354,33.789722 71.203493,28.134277 70.946639,21.257132 70.817192,17.790745 70.127288,14.831946 69.067687,12.449517 68.008086,10.067088 66.712008,8.1232129 64.370294,7.1649481 63.784868,6.925381 63.110025,6.7788467 62.413051,6.7734983 z m 0.352295,7.3201067 c 0.268404,0.332103 0.294431,0.242113 0.587181,0.900334 0.668334,1.5027 1.22782,3.737317 1.330929,6.498063 0.07667,2.054812 -0.125937,3.822918 -0.234872,5.676018 -1.155503,-3.9197 -2.03221,-7.285783 -2.074679,-8.494454 -0.07767,-2.208605 0.154852,-3.595771 0.391441,-4.579961 z m 3.444755,35.15217 c 1.498128,3.170923 3.047811,6.279326 4.65826,8.925055 3.632403,5.96752 8.518628,12.630197 13.348431,18.241538 0.0524,0.06086 0.104304,0.09596 0.156569,0.156582 -4.917516,1.386716 -10.149502,3.151207 -15.501401,5.245428 -4.118652,1.611644 -9.382066,3.954279 -14.444488,6.145759 2.276393,-6.786772 4.334269,-13.963865 6.537213,-21.490578 2.115816,-7.229071 3.646169,-12.043739 5.245416,-17.223784 z m 33.312365,31.081092 c 3.640194,0.205012 5.548504,0.940795 6.263194,1.370075 -0.28085,0.290223 -0.72586,0.807042 -1.68323,1.096058 -1.17487,0.354673 -2.58818,0.33894 -3.87536,-0.195727 -0.578604,-0.240337 -1.805694,-1.289146 -2.857574,-2.113825 0.70199,-0.04643 1.5994,-0.187748 2.15297,-0.156581 z M 42.25339,100.32993 c -2.516568,4.44723 -5.412341,8.16732 -9.081627,10.76488 -5.256253,3.721 -8.564896,4.07978 -10.099399,3.79706 -0.578067,-0.10642 -0.778774,-0.28282 -0.978623,-0.43061 0.311457,-0.53491 1.32806,-2.34091 3.40561,-4.22765 2.430023,-2.20684 5.735872,-4.47367 8.76847,-6.10661 1.494023,-0.80447 5.245929,-2.50059 7.985569,-3.79707 z" style="fill:#aaaaaa"/>
</svg>