<?xml version="1.0" encoding="UTF-8" standalone="no"?>
<svg xmlns:dc="http://purl.org/dc/elements/1.1/"
     xmlns:cc="http://creativecommons.org/ns#"
     xmlns:rdf="http://www.w3.org/1999/02/22-rdf-syntax-ns#"
     xmlns:svg="http://www.w3.org/2000/svg"
     xmlns="http://www.w3.org/2000/svg"
     xmlns:xlink="http://www.w3.org/1999/xlink"
     width="128" height="128" version="1.1">
    <title>Clarity Icon</title>
    <desc>This is shape (source) for Clarity vector icon theme for gtk</desc>
    <metadata>
        <rdf:RDF>
            <cc:Work rdf:about="">
                <dc:title>Clarity Icon</dc:title>
                <dc:description>This is shape (source) for Clarity vector icon theme for gtk</dc:description>
                <dc:creator>
                    <cc:Agent>
                        <dc:title>Jakub Jankiewicz</dc:title>
                    </cc:Agent>
                </dc:creator>
                <dc:rights>
                    <cc:Agent>
                        <dc:title>Jakub Jankiewicz</dc:title>
                    </cc:Agent>
                </dc:rights>
                <dc:date>2010</dc:date>
                <dc:format>image/svg+xml</dc:format>
                <dc:type rdf:resource="http://purl.org/dc/dcmitype/StillImage" />
                <cc:license rdf:resource="http://creativecommons.org/licenses/by-sa/3.0/" />
             </cc:Work>
        </rdf:RDF>
    </metadata>
    <path d="m 34.583397,18.484667 c -4.223,0 -7.625328,3.311152 -7.793981,7.491302 l 11.426127,0 c 2.498917,0 4.502349,2.003432 4.502349,4.502349 l 0,7.264292 c 0,2.498916 -2.003432,4.502349 -4.502349,4.502349 l -11.463962,0 0,3.669981 11.463962,0 c 2.498917,0 4.502349,2.003431 4.502349,4.502348 l 0,7.226458 c 0,2.498916 -2.003432,4.502348 -4.502349,4.502348 l -11.463962,0 0,3.669981 11.463962,0 c 2.498917,0 4.502349,2.041268 4.502349,4.540183 l 0,7.188624 c 0,2.498916 -2.003432,4.502348 -4.502349,4.502348 l -11.463962,0 0,3.669981 11.463962,0 c 2.498917,0 4.502349,2.041267 4.502349,4.540183 l 0,7.226458 c 0,2.498917 -2.003432,4.502338 -4.502349,4.502338 l -11.426127,0 c 0.152441,4.19522 3.560218,7.52914 7.793981,7.52914 l 68.329753,0 c 4.33146,0 7.83182,-3.50036 7.83182,-7.83181 l 0,-75.367037 c 0,-4.331451 -3.50036,-7.831816 -7.83182,-7.831816 l -68.329753,0 z M 20.054811,29.078428 c -1.546943,0 -2.799779,1.252831 -2.799779,2.799779 l 0,4.464514 c 0,1.546948 1.252836,2.799779 2.799779,2.799779 l 16.19332,0 c 1.546955,0 2.799779,-1.252831 2.799779,-2.799779 l 0,-4.464514 c 0,-1.546948 -1.252824,-2.799779 -2.799779,-2.799779 l -16.19332,0 z m 31.138089,9.458714 23.722456,0 c 1.008114,0 1.816073,0.807959 1.816073,1.816074 l 0,2.761944 c 0,1.008115 -0.807959,1.816074 -1.816073,1.816074 l -23.722456,0 c -1.008114,0 -1.816073,-0.807959 -1.816073,-1.816074 l 0,-2.761944 c 0,-1.008115 0.807959,-1.816074 1.816073,-1.816074 z M 20.054811,48.979563 c -1.546943,0 -2.799779,1.252832 -2.799779,2.79978 l 0,4.464513 c 0,1.546948 1.252836,2.79978 2.799779,2.79978 l 16.19332,0 c 1.546955,0 2.799779,-1.252832 2.799779,-2.79978 l 0,-4.464513 c 0,-1.546948 -1.252824,-2.79978 -2.799779,-2.79978 l -16.19332,0 z m 31.138089,4.426679 46.007188,0 c 1.008114,0 1.816073,0.807959 1.816073,1.816073 l 0,2.72411 c 0,1.008114 -0.807959,1.816073 -1.816073,1.816073 l -46.007188,0 c -1.008114,0 -1.816073,-0.807959 -1.816073,-1.816073 l 0,-2.72411 c 0,-1.008114 0.807959,-1.816073 1.816073,-1.816073 z m 0,14.831264 46.007188,0 c 1.008114,0 1.816073,0.807959 1.816073,1.816074 l 0,2.724109 c 0,1.008115 -0.807959,1.816074 -1.816073,1.816074 l -46.007188,0 c -1.008114,0 -1.816073,-0.807959 -1.816073,-1.816074 l 0,-2.724109 c 0,-1.008115 0.807959,-1.816074 1.816073,-1.816074 z m -31.138089,0.681028 c -1.546943,0 -2.799779,1.252831 -2.799779,2.799779 l 0,4.464514 c 0,1.546948 1.252836,2.799779 2.799779,2.799779 l 16.19332,0 c 1.546955,0 2.799779,-1.252831 2.799779,-2.799779 l 0,-4.464514 c 0,-1.546948 -1.252824,-2.799779 -2.799779,-2.799779 l -16.19332,0 z m 31.138089,14.150237 46.007188,0 c 1.008114,0 1.816073,0.807959 1.816073,1.816073 l 0,2.72411 c 0,1.008114 -0.807959,1.853908 -1.816073,1.853908 l -46.007188,0 c -1.008114,0 -1.816073,-0.845794 -1.816073,-1.853908 l 0,-2.72411 c 0,-1.008114 0.807959,-1.816073 1.816073,-1.816073 z m -31.138089,5.788733 c -1.546943,0 -2.799779,1.214997 -2.799779,2.761945 l 0,4.464513 c 0,1.546948 1.252836,2.79978 2.799779,2.79978 l 16.19332,0 c 1.546955,0 2.799779,-1.252832 2.799779,-2.79978 l 0,-4.464513 c 0,-1.546948 -1.252824,-2.761945 -2.799779,-2.761945 l -16.19332,0 z" style="fill:#aaaaaa"/>
</svg>