<?xml version="1.0" encoding="UTF-8" standalone="no"?>
<svg xmlns:dc="http://purl.org/dc/elements/1.1/"
     xmlns:cc="http://creativecommons.org/ns#"
     xmlns:rdf="http://www.w3.org/1999/02/22-rdf-syntax-ns#"
     xmlns:svg="http://www.w3.org/2000/svg"
     xmlns="http://www.w3.org/2000/svg"
     xmlns:xlink="http://www.w3.org/1999/xlink"
     width="128" height="128" version="1.1">
    <title>Task Icon</title>
    <desc>This is shape (source) for Clarity vector icon theme for gtk</desc>
    <metadata>
        <rdf:RDF>
            <cc:Work rdf:about="">
                <dc:title>Task Icon</dc:title>
                <dc:description>This is shape (source) for Clarity vector icon theme for gtk</dc:description>
                <dc:creator>
                    <cc:Agent>
                        <dc:title>Jakub Jankiewicz</dc:title>
                    </cc:Agent>
                </dc:creator>
                <dc:rights>
                    <cc:Agent>
                        <dc:title>Jakub Jankiewicz</dc:title>
                    </cc:Agent>
                </dc:rights>
                <dc:date>2010</dc:date>
                <dc:format>image/svg+xml</dc:format>
                <dc:type rdf:resource="http://purl.org/dc/dcmitype/StillImage" />
                <cc:license rdf:resource="http://www.gnu.org/copyleft/gpl.html" />
             </cc:Work>
        </rdf:RDF>
    </metadata>
    <path d="M 48.90625 19.125 C 45.008187 19.125 41.84375 22.289437 41.84375 26.1875 L 41.84375 26.8125 L 32.21875 26.8125 C 28.320689 26.8125 25.1875 29.976937 25.1875 33.875 L 25.1875 101.8125 C 25.1875 105.71056 28.320689 108.875 32.21875 108.875 L 95.78125 108.875 C 99.679311 108.875 102.8125 105.71056 102.8125 101.8125 L 102.8125 88.90625 L 91.0625 104 A 2.0446452 2.0446452 0 0 1 88.4375 104.53125 L 88.21875 104.40625 A 2.0446452 2.0446452 0 0 1 87.96875 104.25 L 80.3125 98.28125 L 79.4375 97.59375 L 43.03125 97.59375 C 42.120849 97.59375 41.375 96.847905 41.375 95.9375 L 41.375 93.46875 C 41.375 92.558349 42.120849 91.84375 43.03125 91.84375 L 72.03125 91.84375 L 63.375 85.125 A 2.0446452 2.0446452 0 0 1 62.71875 84.1875 L 43.03125 84.1875 C 42.120849 84.1875 41.375 83.441652 41.375 82.53125 L 41.375 80.09375 C 41.375 79.183348 42.120849 78.4375 43.03125 78.4375 L 65.96875 78.4375 L 69.125 74.375 A 2.0446452 2.0446452 0 0 1 72 74 L 87.3125 85.90625 L 102.8125 66 L 102.8125 33.875 C 102.8125 29.976937 99.679311 26.8125 95.78125 26.8125 L 86.15625 26.8125 L 86.15625 26.1875 C 86.15625 22.289437 82.991813 19.125 79.09375 19.125 L 48.90625 19.125 z M 48.03125 25.0625 L 79.96875 25.0625 L 79.96875 32.4375 C 79.96875 35.520677 81.94058 38.103107 84.6875 39.0625 L 43.3125 39.0625 C 46.05942 38.103107 48.03125 35.520677 48.03125 32.4375 L 48.03125 25.0625 z M 38.9375 39.5 L 39.4375 39.5 C 39.266168 39.55954 39.102442 39.61538 38.9375 39.6875 L 38.9375 39.5 z M 88.5625 39.5 L 89.0625 39.5 L 89.0625 39.6875 C 88.897558 39.61538 88.733832 39.55954 88.5625 39.5 z M 43.03125 51.625 L 64.84375 51.625 C 65.754152 51.625 66.5 52.339598 66.5 53.25 L 66.5 55.75 C 66.5 56.660402 65.754152 57.40625 64.84375 57.40625 L 43.03125 57.40625 C 42.120849 57.40625 41.375 56.660402 41.375 55.75 L 41.375 53.25 C 41.375 52.339598 42.120849 51.625 43.03125 51.625 z M 109.84375 60.3125 L 87.6875 88.78125 L 70.75 75.625 L 64.625 83.46875 L 81.59375 96.625 L 89.25 102.59375 L 89.4375 102.75 L 117.71875 66.4375 L 109.84375 60.3125 z M 43.03125 65.03125 L 84.96875 65.03125 C 85.879151 65.03125 86.625 65.777099 86.625 66.6875 L 86.625 69.15625 C 86.625 70.066651 85.879151 70.78125 84.96875 70.78125 L 43.03125 70.78125 C 42.120849 70.78125 41.375 70.066651 41.375 69.15625 L 41.375 66.6875 C 41.375 65.777099 42.120849 65.03125 43.03125 65.03125 z " style="fill:#aaaaaa"/>
</svg>