<?xml version="1.0" encoding="UTF-8" standalone="no"?>
<svg xmlns:dc="http://purl.org/dc/elements/1.1/"
     xmlns:cc="http://creativecommons.org/ns#"
     xmlns:rdf="http://www.w3.org/1999/02/22-rdf-syntax-ns#"
     xmlns:svg="http://www.w3.org/2000/svg"
     xmlns="http://www.w3.org/2000/svg"
     xmlns:xlink="http://www.w3.org/1999/xlink"
     width="128" height="128" version="1.1">
    <title>Facebook Icon</title>
    <desc>This is shape (source) for Clarity vector icon theme for gtk</desc>
    <metadata>
        <rdf:RDF>
            <cc:Work rdf:about="">
                <dc:title>Facebook Icon</dc:title>
                <dc:description>This is shape (source) for Clarity vector icon theme for gtk</dc:description>
                <dc:creator>
                    <cc:Agent>
                        <dc:title>Jakub Jankiewicz</dc:title>
                    </cc:Agent>
                </dc:creator>
                <dc:rights>
                    <cc:Agent>
                        <dc:title>Jakub Jankiewicz</dc:title>
                    </cc:Agent>
                </dc:rights>
                <dc:date>2010</dc:date>
                <dc:format>image/svg+xml</dc:format>
                <dc:type rdf:resource="http://purl.org/dc/dcmitype/StillImage" />
                <cc:license rdf:resource="http://creativecommons.org/licenses/by-sa/3.0/" />
             </cc:Work>
        </rdf:RDF>
    </metadata>
    <path d="m 18.109375,10.15625 c -4.406644,0 -7.96875,3.530856 -7.96875,7.9375 l 0,91.8125 c 0,4.40664 3.562106,7.9375 7.96875,7.9375 l 91.781255,0 c 4.40663,0 7.96875,-3.53086 7.96875,-7.9375 l 0,-91.8125 c 0,-4.406644 -3.56212,-7.9375 -7.96875,-7.9375 l -91.781255,0 z m 87.781255,13.96875 0,12.34375 c -4.88335,0 -10.237379,0.15625 -12.656255,0.15625 -2.636226,0 -4.086101,0.856485 -4.8125,1.84375 -0.876865,1.191768 -1.34375,2.898646 -1.34375,4.96875 l 0,4.34375 17.687505,0 0,12.84375 -17.687505,0 0,48.84375 -18.03125,0 0,-48.84375 -8.40625,0 0,-12.84375 8.40625,0 0,-4.65625 c -3.42e-4,-5.188535 0.697053,-8.444342 1.78125,-11 1.122895,-2.555502 4.947986,-4.941227 7.96875,-6.375 3.594788,-1.706228 5.69838,-1.625 27.093755,-1.625 z" style="fill:#aaaaaa"/>
</svg>