<?xml version="1.0" encoding="UTF-8" standalone="no"?>
<svg xmlns:dc="http://purl.org/dc/elements/1.1/"
     xmlns:cc="http://creativecommons.org/ns#"
     xmlns:rdf="http://www.w3.org/1999/02/22-rdf-syntax-ns#"
     xmlns:svg="http://www.w3.org/2000/svg"
     xmlns="http://www.w3.org/2000/svg"
     xmlns:xlink="http://www.w3.org/1999/xlink"
     width="128" height="128" version="1.1">
    <title>Fedora Notepad Icon</title>
    <desc>This is shape (source) for Clarity vector icon theme for gtk</desc>
    <metadata>
        <rdf:RDF>
            <cc:Work rdf:about="">
                <dc:title>Fedora Notepad Icon</dc:title>
                <dc:description>This is shape (source) for Clarity vector icon theme for gtk</dc:description>
                <dc:creator>
                    <cc:Agent>
                        <dc:title>Jakub Jankiewicz</dc:title>
                    </cc:Agent>
                </dc:creator>
                <dc:rights>
                    <cc:Agent>
                        <dc:title>Jakub Jankiewicz</dc:title>
                    </cc:Agent>
                </dc:rights>
                <dc:date>2010</dc:date>
                <dc:format>image/svg+xml</dc:format>
                <dc:type rdf:resource="http://purl.org/dc/dcmitype/StillImage" />
                <cc:license rdf:resource="http://creativecommons.org/licenses/by-sa/3.0/" />
             </cc:Work>
        </rdf:RDF>
    </metadata>
    <path d="m 16.85449,3.3046885 c -1.27771,0 -2.3125,1.0347859 -2.3125,2.3124999 V 18.992188 c 0,1.277714 1.03479,2.3125 2.3125,2.3125 h 3.6875 c 1.27772,0 2.28125,-1.034786 2.28125,-2.3125 V 5.6171884 c 0,-1.277714 -1.00353,-2.3124999 -2.28125,-2.3124999 z m 16.4375,0 c -1.27771,0 -2.3125,1.0347859 -2.3125,2.3124999 V 18.992188 c 0,1.277714 1.03479,2.3125 2.3125,2.3125 h 3.71875 c 1.27772,0 2.3125,-1.034786 2.3125,-2.3125 V 5.6171884 c 0,-1.277714 -1.03478,-2.3124999 -2.3125,-2.3124999 z m 16.46875,0 c -1.27771,0 -2.3125,1.0347859 -2.3125,2.3124999 V 18.992188 c 0,1.277714 1.03479,2.3125 2.3125,2.3125 h 3.6875 c 1.27772,0 2.312504,-1.034786 2.312504,-2.3125 V 5.6171884 c 0,-1.277714 -1.034784,-2.3124999 -2.312504,-2.3124999 z m 16.437504,0 c -1.27771,0 -2.3125,1.0347859 -2.3125,2.3124999 V 18.992188 c 0,1.277714 1.03479,2.3125 2.3125,2.3125 h 3.6875 c 1.27772,0 2.3125,-1.034786 2.3125,-2.3125 V 5.6171884 c 0,-1.277714 -1.03478,-2.3124999 -2.3125,-2.3124999 z M 25.41699,11.148438 v 9.46875 c 0,2.063999 -1.686,3.718751 -3.75,3.718751 h -5.96875 c -2.064,0 -3.71875,-1.654752 -3.71875,-3.718751 v -9.4375 c -3.46506,0.125911 -6.21875,2.940597 -6.21875,6.4375 v 83.031252 c 0,3.5776 2.89115,6.4375 6.46875,6.4375 H 54.89551 V 93.523439 H 19.47949 c -0.83266,0 -1.5,-0.66734 -1.5,-1.5 v -2.28125 c 0,-0.83266 0.66734,-1.5 1.5,-1.5 h 35.724614 c 0.314867,-2.417279 0.872515,-4.758976 1.65039,-7 H 19.47949 c -0.83266,0 -1.5,-0.66734 -1.5,-1.5 v -2.25 c 0,-0.83266 0.66734,-1.5 1.5,-1.5 h 39.681645 c 1.372711,-2.533444 3.04345,-4.883548 4.966797,-7 H 19.47949 c -0.83266,0 -1.5,-0.66734 -1.5,-1.5 v -2.25 c 0,-0.83266 0.66734,-1.5 1.5,-1.5 h 47.750004 c 0.680907,0 1.244409,0.448412 1.429688,1.066406 3.608719,-2.804599 7.768492,-4.927413 12.289062,-6.175781 V 17.617188 c 0,-3.488017 -2.73487,-6.298209 -6.1875,-6.4375 v 9.4375 c 0,2.063999 -1.65475,3.718751 -3.71875,3.718751 h -5.96875 c -2.064,0 -3.71875,-1.654752 -3.71875,-3.718751 v -9.46875 h -3.03125 v 9.46875 c 0,2.063999 -1.685997,3.718751 -3.750004,3.718751 h -5.96875 c -2.064,0 -3.71875,-1.654752 -3.71875,-3.718751 v -9.46875 h -3.03125 v 9.46875 c 0,2.063999 -1.686,3.718751 -3.75,3.718751 h -5.9375 c -2.064,0 -3.71875,-1.654752 -3.71875,-3.718751 v -9.46875 z m -5.9375,40.312501 h 29.34375 c 0.83266,0 1.5,0.69859 1.5,1.53125 v 2.25 c 0,0.83266 -0.66734,1.5 -1.5,1.5 H 19.47949 c -0.83266,0 -1.5,-0.66734 -1.5,-1.5 v -2.25 c 0,-0.83266 0.66734,-1.53125 1.5,-1.53125 z m 70.88477,9.503906 c -17.594099,0 -31.842979,14.263812 -31.855469,31.855469 V 117.4707 c 0.009,3.99429 3.24928,7.22461 7.246094,7.22461 h 24.628906 c 17.596129,-0.006 31.855469,-14.25605 31.855469,-31.853512 0,-17.602147 -14.27299,-31.876953 -31.875,-31.876953 z m 9.351562,7.556641 c 0.269624,0 0.521388,0.0075 0.763668,0.02148 0.0459,0.0023 0.0994,-0.0028 0.14454,0 0.15578,0.0108 0.30515,0.02408 0.45507,0.04102 0.0751,0.0076 0.15242,0.01041 0.22657,0.01953 0.0347,0.0047 0.0689,0.01754 0.10351,0.02148 0.007,8.92e-4 0.0129,-8.92e-4 0.0195,0 0.0281,0.0033 0.0539,0.01612 0.082,0.01953 7.38145,0.894068 13.17188,7.216124 13.17188,14.824218 0,8.214566 -6.75223,14.945313 -14.966798,14.945313 h -1.630859 -6.255859 v 7.908203 c 0,0.25813 -0.0067,0.50872 -0.01953,0.76367 -3.38e-4,0.007 3.58e-4,0.0127 0,0.0195 -0.02554,0.50287 -0.07047,0.99784 -0.144531,1.48633 -5.57e-4,0.007 5.57e-4,0.0147 0,0.0215 -0.05643,0.3688 -0.145601,0.73437 -0.228515,1.09375 -0.138205,0.59907 -0.307727,1.18679 -0.515625,1.75586 -0.0022,0.006 0.0022,0.0136 0,0.0195 -0.08065,0.22157 -0.176795,0.44513 -0.267579,0.66016 -0.0028,0.006 0.0028,0.0156 0,0.0215 -0.140885,0.33249 -0.291297,0.65104 -0.455078,0.9707 -0.166579,0.32512 -0.34792,0.63842 -0.537109,0.94921 -0.124766,0.20572 -0.258335,0.40053 -0.392578,0.59961 -0.0033,0.005 0.0033,0.0148 0,0.0195 -0.131516,0.19365 -0.271653,0.37114 -0.412109,0.5586 -0.0033,0.005 0.0033,0.015 0,0.0195 -0.14371,0.1918 -0.281034,0.37212 -0.433594,0.55664 -0.04008,0.0488 -0.08234,0.0963 -0.123047,0.14453 -0.190364,0.2245 -0.396513,0.44927 -0.599609,0.66211 -0.0843,0.0883 -0.161632,0.18133 -0.248047,0.26758 -0.251098,0.25079 -0.513502,0.48912 -0.783203,0.72265 -0.273495,0.23672 -0.557353,0.46496 -0.847657,0.68165 -0.142046,0.10592 -0.28754,0.20765 -0.433593,0.30859 -0.250012,0.1733 -0.502903,0.33793 -0.763672,0.49609 -0.102998,0.0622 -0.204012,0.12571 -0.308594,0.18555 -0.311981,0.17893 -0.645126,0.33949 -0.970703,0.49609 -0.05558,0.0267 -0.110054,0.0558 -0.166016,0.082 -0.03339,0.0155 -0.06998,0.0257 -0.103515,0.041 -0.351584,0.16063 -0.706736,0.32148 -1.072266,0.45508 -0.223019,0.0814 -0.453794,0.15558 -0.681641,0.22656 -0.467128,0.14625 -0.960191,0.27104 -1.445312,0.3711 -0.240206,0.0489 -0.478271,0.0868 -0.722657,0.125 -0.736372,0.11235 -1.504071,0.18451 -2.271484,0.18554 -0.269623,0 -0.521387,-0.007 -0.763672,-0.0215 -0.04086,-0.002 -0.08225,0.002 -0.123047,0 -0.16356,-0.0109 -0.317918,-0.0233 -0.474609,-0.041 -0.110374,-0.01 -0.22039,-0.0286 -0.330078,-0.041 -7.431318,-0.84664 -13.275391,-7.19975 -13.275391,-14.84375 0,-8.214567 6.752235,-14.945313 14.966797,-14.945313 h 1.63086 6.255859 v -7.908203 c 0,-0.0067 -1.7e-5,-0.0126 0,-0.01953 0,-0.251162 0.0093,-0.496025 0.02148,-0.74414 3.41e-4,-0.0067 -3.57e-4,-0.01269 0,-0.01953 0.01259,-0.248068 0.03602,-0.499425 0.06055,-0.744141 5.57e-4,-0.0067 -5.58e-4,-0.01288 0,-0.01953 0.02492,-0.24447 0.04744,-0.481832 0.08398,-0.722657 0.0011,-0.0067 -0.0017,-0.01474 0,-0.02148 0.05629,-0.367906 0.143911,-0.735214 0.226563,-1.09375 0.08265,-0.358546 0.181097,-0.704582 0.289063,-1.052734 0.0022,-0.0057 -0.0022,-0.01532 0,-0.02148 0.143957,-0.462009 0.309675,-0.919793 0.496093,-1.361328 0.0022,-0.0057 -0.0022,-0.01588 0,-0.02148 0.140888,-0.33249 0.310839,-0.651046 0.47461,-0.970703 0.0565,-0.110654 0.104929,-0.221073 0.164062,-0.330079 0.112412,-0.206539 0.229835,-0.418638 0.351563,-0.61914 0.0028,-0.0047 -0.0028,-0.01644 0,-0.02148 0.122046,-0.200485 0.261509,-0.383983 0.392578,-0.578126 0.0033,-0.0047 -0.0033,-0.01478 0,-0.01953 0.131367,-0.194075 0.272003,-0.369209 0.412109,-0.55664 0.0033,-0.0047 -0.0033,-0.01702 0,-0.02148 0.170721,-0.227848 0.353935,-0.464117 0.537109,-0.68164 0.01248,-0.0148 0.02842,-0.02622 0.04102,-0.04102 0.188809,-0.222439 0.376794,-0.429653 0.578125,-0.640625 0.0825,-0.08667 0.163451,-0.182937 0.248047,-0.267578 0.08466,-0.08448 0.180919,-0.16558 0.267578,-0.248047 0.08824,-0.08411 0.179097,-0.16596 0.269531,-0.248047 0.170035,-0.154248 0.338605,-0.306729 0.515625,-0.453125 0.0074,-0.0057 0.01412,-0.0154 0.02148,-0.02148 0.267788,-0.220587 0.541297,-0.417273 0.824219,-0.619141 0.108711,-0.07736 0.221106,-0.15203 0.332031,-0.226562 0.263836,-0.177911 0.529245,-0.35443 0.804687,-0.515625 0.06125,-0.03569 0.12376,-0.06865 0.185547,-0.103516 0.342105,-0.193896 0.694523,-0.370038 1.052735,-0.537109 0.385407,-0.179757 0.775331,-0.349017 1.177734,-0.496094 0.223099,-0.08153 0.451778,-0.155472 0.679687,-0.226563 0.233567,-0.07313 0.480405,-0.144921 0.722657,-0.207031 0.47168,-0.121148 0.956903,-0.233419 1.445312,-0.308594 0.244386,-0.03824 0.496134,-0.05874 0.744141,-0.08398 0.250272,-0.02564 0.510024,-0.04752 0.763672,-0.06055 0.254919,-0.01288 0.505531,-0.02148 0.763671,-0.02148 z m 0,7.060547 c -0.272195,0 -0.539648,0.01405 -0.804687,0.04102 -0.523194,0.05449 -1.041245,0.158892 -1.529297,0.310547 -0.247197,0.07679 -0.484499,0.167797 -0.720703,0.267578 -0.235722,0.09977 -0.479798,0.208675 -0.703125,0.330078 -0.218415,0.119085 -0.435248,0.254128 -0.640625,0.392579 -0.415052,0.280625 -0.80063,0.618136 -1.154297,0.970703 -0.178921,0.178394 -0.356301,0.36189 -0.517578,0.55664 -0.160638,0.19474 -0.311435,0.389835 -0.453125,0.59961 -0.284589,0.419552 -0.543452,0.870056 -0.744141,1.341797 -0.199719,0.471738 -0.347541,0.972975 -0.453125,1.486328 -0.10614,0.513352 -0.165067,1.045452 -0.166015,1.589843 v 6.853516 c 0,0.06721 0.01005,0.121503 0.02148,0.185547 0.0022,0.01329 -0.0028,0.02791 0,0.04102 0.03786,0.177189 0.13715,0.339308 0.248047,0.474609 0.06962,0.08496 0.135126,0.167311 0.226563,0.228515 0.01265,0.0085 0.02802,0.01165 0.04102,0.01953 0.04777,0.02952 0.09232,0.05992 0.144531,0.08203 0.0056,0.0019 0.01557,-0.0019 0.02148,0 0.0611,0.02458 0.119635,0.04902 0.185547,0.0625 h 6.998046 c 4.430912,0 7.968752,-3.516364 7.968752,-7.947266 0,-3.824138 -2.64459,-6.970208 -6.21484,-7.763671 -0.0379,-0.0047 -0.0843,-0.0145 -0.12305,-0.01953 -0.17623,-0.02041 -0.38244,-0.04607 -0.59961,-0.0625 -0.27437,-0.02336 -0.60828,-0.04035 -1.01172,-0.04102 -0.0083,-9e-6 -0.01123,0 -0.01953,0 z m -22.833984,22.8125 c -4.430907,0 -7.96875,3.516357 -7.96875,7.947267 0,3.82414 2.644594,6.97022 6.214844,7.76367 0.108506,0.0127 0.233453,0.0284 0.351562,0.041 0.123228,0.0147 0.227175,0.0287 0.371094,0.041 0.03072,0.002 0.05012,-0.002 0.08203,0 0.264989,0.0207 0.567285,0.041 0.949219,0.041 1.353211,-0.004 2.644141,-0.34527 3.757813,-0.94922 0.671635,-0.36424 1.279637,-0.82809 1.816406,-1.36328 0.35408,-0.35305 0.688283,-0.7417 0.970703,-1.15625 0.0033,-0.005 -0.0033,-0.0147 0,-0.0195 0.142292,-0.20977 0.270589,-0.41714 0.392578,-0.64063 0.124483,-0.2291 0.22829,-0.45907 0.330078,-0.70117 0.09783,-0.22995 0.19157,-0.46264 0.267578,-0.70313 0.0022,-0.007 -0.0023,-0.0133 0,-0.0195 0.07738,-0.24692 0.134426,-0.48746 0.1875,-0.74414 0.105582,-0.51335 0.163116,-1.04546 0.164063,-1.58984 v -6.853516 c 0,-0.07433 -0.0058,-0.156178 -0.01953,-0.226563 -0.01165,-0.05723 -0.02278,-0.112353 -0.04297,-0.166016 -0.0056,-0.01519 -0.01334,-0.02612 -0.01953,-0.04102 -0.04141,-0.09793 -0.09974,-0.186259 -0.166016,-0.267578 -0.02419,-0.02952 -0.05497,-0.05712 -0.08203,-0.08398 -0.05045,-0.0504 -0.10476,-0.104427 -0.164063,-0.144531 -0.05915,-0.03948 -0.121084,-0.0739 -0.1875,-0.101562 -0.0063,-0.0028 -0.01334,0.0028 -0.01953,0 -0.05902,-0.02336 -0.122044,-0.04939 -0.185547,-0.0625 z" style="fill:#aaaaaa"/>
</svg>