<?xml version="1.0" encoding="UTF-8" standalone="no"?>
<svg xmlns:dc="http://purl.org/dc/elements/1.1/"
     xmlns:cc="http://creativecommons.org/ns#"
     xmlns:rdf="http://www.w3.org/1999/02/22-rdf-syntax-ns#"
     xmlns:svg="http://www.w3.org/2000/svg"
     xmlns="http://www.w3.org/2000/svg"
     xmlns:xlink="http://www.w3.org/1999/xlink"
     width="128" height="128" version="1.1">
    <title>Fedora Drive</title>
    <desc>This is shape (source) for Clarity vector icon theme for gtk</desc>
    <metadata>
        <rdf:RDF>
            <cc:Work rdf:about="">
                <dc:title>Fedora Drive</dc:title>
                <dc:description>This is shape (source) for Clarity vector icon theme for gtk</dc:description>
                <dc:creator>
                    <cc:Agent>
                        <dc:title>Jakub Jankiewicz</dc:title>
                    </cc:Agent>
                </dc:creator>
                <dc:rights>
                    <cc:Agent>
                        <dc:title>Jakub Jankiewicz</dc:title>
                    </cc:Agent>
                </dc:rights>
                <dc:date>2010</dc:date>
                <dc:format>image/svg+xml</dc:format>
                <dc:type rdf:resource="http://purl.org/dc/dcmitype/StillImage" />
                <cc:license rdf:resource="http://creativecommons.org/licenses/by-sa/3.0/" />
             </cc:Work>
        </rdf:RDF>
    </metadata>
    <path d="m 38.129569,12.970704 c -16.888408,0 -30.5641876,13.69207 -30.5761722,30.578125 v 23.660157 c 0.00904,3.834088 3.1185792,6.935546 6.9550782,6.935547 H 38.1491 c 16.890357,-0.0067 30.576172,-13.68454 30.576172,-30.576172 0,-16.896127 -13.699703,-30.597657 -30.595703,-30.597657 z m 8.976562,7.253907 c 0.258807,0 0.499854,0.0061 0.732422,0.01953 0.04404,0.0022 0.09529,-0.0027 0.138672,0 0.149528,0.01031 0.29359,0.0228 0.4375,0.03906 0.07207,0.0073 0.145626,0.01079 0.216797,0.01953 0.03328,0.0045 0.06642,0.01575 0.09961,0.01953 0.0067,8.56e-4 0.01316,-8.56e-4 0.01953,0 0.02697,0.0031 0.05309,0.01821 0.08008,0.02148 7.085377,0.858209 12.642578,6.923627 12.642578,14.226563 0,7.885075 -6.482106,14.347656 -14.367188,14.347656 H 45.541679 39.53582 v 7.589844 c 0,0.247783 -0.0071,0.489655 -0.01953,0.734375 -3.28e-4,0.0066 3.41e-4,0.01295 0,0.01953 -0.02451,0.482697 -0.06757,0.956885 -0.138672,1.425781 -6.95e-4,0.0065 6.96e-4,0.01303 0,0.01953 -0.05417,0.354008 -0.139161,0.705815 -0.21875,1.050781 -0.132665,0.575035 -0.29458,1.13931 -0.49414,1.685547 -0.002,0.0058 0.002,0.01378 0,0.01953 -0.07741,0.212684 -0.170671,0.426409 -0.257813,0.632812 -0.0027,0.0056 0.0027,0.01586 0,0.02148 -0.135235,0.319153 -0.278337,0.622853 -0.435547,0.929688 -0.159902,0.312086 -0.334023,0.613793 -0.515624,0.912109 -0.119763,0.197477 -0.248099,0.383126 -0.376954,0.574219 -0.0034,0.0043 0.0034,0.01503 0,0.01953 -0.126243,0.185886 -0.261663,0.355225 -0.396484,0.535156 -0.0034,0.0043 0.0034,0.0172 0,0.02148 -0.137947,0.18411 -0.269572,0.35804 -0.416016,0.535156 -0.0385,0.04687 -0.08006,0.09236 -0.11914,0.138672 -0.182727,0.215497 -0.379266,0.428514 -0.574219,0.632813 -0.08092,0.0848 -0.15533,0.175009 -0.238281,0.257812 -0.241024,0.240733 -0.493072,0.469193 -0.751953,0.693359 -0.26253,0.227222 -0.53384,0.446286 -0.8125,0.654297 -0.136347,0.10172 -0.275819,0.199983 -0.416016,0.296875 -0.239987,0.166352 -0.484064,0.324754 -0.734375,0.476563 -0.09886,0.0598 -0.19649,0.120288 -0.296875,0.177734 -0.29947,0.17174 -0.619122,0.326248 -0.931641,0.476563 -0.05336,0.02563 -0.104478,0.05309 -0.158203,0.07813 -0.03207,0.01493 -0.06742,0.02429 -0.09961,0.03906 -0.33748,0.154184 -0.678427,0.309253 -1.029297,0.4375 -0.214076,0.0782 -0.435589,0.14866 -0.654297,0.216797 -0.448391,0.140389 -0.921055,0.261375 -1.386719,0.357422 -0.230573,0.04693 -0.458775,0.08243 -0.693359,0.119141 -0.706836,0.107819 -1.443056,0.17675 -2.179688,0.177734 -0.258807,0 -0.501806,-0.0064 -0.734374,-0.01953 -0.03924,-0.0021 -0.07998,0.0021 -0.119141,0 -0.156995,-0.01065 -0.304671,-0.02204 -0.455078,-0.03906 -0.10595,-0.0097 -0.211121,-0.02903 -0.316407,-0.04102 -7.13325,-0.812685 -12.742187,-6.910632 -12.742187,-14.248047 0,-7.885074 6.482111,-14.345703 14.367187,-14.345703 h 1.564454 6.003906 v -7.589844 c 0,-0.0067 -1.4e-5,-0.0148 0,-0.02148 0,-0.241092 0.0077,-0.474732 0.01953,-0.712891 3.28e-4,-0.0066 -3.41e-4,-0.01295 0,-0.01953 0.01212,-0.238113 0.03698,-0.477995 0.06055,-0.712891 6.42e-4,-0.0064 -6.42e-4,-0.01308 0,-0.01953 0.0239,-0.234662 0.04306,-0.462193 0.07813,-0.693359 0.0013,-0.0065 -0.0013,-0.01498 0,-0.02148 0.05403,-0.353149 0.139416,-0.704678 0.21875,-1.048828 0.07934,-0.34417 0.173711,-0.67753 0.277344,-1.011719 0.002,-0.0059 -0.002,-0.01363 0,-0.01953 0.138181,-0.443477 0.297618,-0.884766 0.476562,-1.308594 0.002,-0.0055 -0.002,-0.01407 0,-0.01953 0.135235,-0.319153 0.297875,-0.624809 0.455078,-0.93164 0.05423,-0.106228 0.101446,-0.211771 0.158203,-0.316407 0.107898,-0.198255 0.221048,-0.401289 0.337891,-0.59375 0.0027,-0.0048 -0.0027,-0.01477 0,-0.01953 0.117152,-0.192443 0.249185,-0.370284 0.375,-0.556641 0.0034,-0.0045 -0.0034,-0.01502 0,-0.01953 0.126096,-0.186292 0.261999,-0.355241 0.396485,-0.535156 0.0034,-0.0043 -0.0034,-0.01522 0,-0.01953 0.163871,-0.218711 0.339801,-0.445497 0.515624,-0.654297 0.01198,-0.01423 0.027,-0.02488 0.03906,-0.03906 0.181241,-0.213517 0.363389,-0.410771 0.556641,-0.613281 0.0792,-0.08316 0.155125,-0.17657 0.236328,-0.257812 0.08127,-0.08111 0.174627,-0.159123 0.257812,-0.238282 0.0847,-0.08074 0.171006,-0.159488 0.257813,-0.238281 0.163216,-0.148059 0.326169,-0.295021 0.496093,-0.435547 0.0071,-0.0059 0.01243,-0.01367 0.01953,-0.01953 0.257047,-0.211737 0.521393,-0.401932 0.792968,-0.595703 0.104355,-0.0743 0.209935,-0.145255 0.316407,-0.216797 0.253257,-0.170777 0.509045,-0.341371 0.773437,-0.496094 0.05879,-0.03427 0.118426,-0.06615 0.177735,-0.09961 0.328388,-0.186113 0.667877,-0.353304 1.011718,-0.513672 0.369946,-0.172545 0.742644,-0.335385 1.128907,-0.476563 0.214149,-0.07827 0.435526,-0.148557 0.654296,-0.216797 0.224199,-0.07019 0.460825,-0.139598 0.69336,-0.199218 0.452763,-0.116289 0.917903,-0.224715 1.386719,-0.296875 0.234584,-0.03671 0.474833,-0.05585 0.71289,-0.08008 0.240235,-0.02461 0.490903,-0.04609 0.734375,-0.05859 0.244692,-0.01237 0.484637,-0.01953 0.732422,-0.01953 z m 0,6.777343 c -0.26128,0 -0.519033,0.01321 -0.773437,0.03906 -0.50221,0.0523 -0.996365,0.151306 -1.464844,0.296875 -0.237281,0.07373 -0.468578,0.162041 -0.695313,0.257812 -0.226264,0.09577 -0.459453,0.199866 -0.673828,0.316407 -0.209655,0.114302 -0.416147,0.244054 -0.613281,0.376953 -0.398409,0.269374 -0.769894,0.593219 -1.109375,0.93164 -0.171746,0.171241 -0.341288,0.348221 -0.496094,0.535158 -0.154198,0.186934 -0.299541,0.372855 -0.435547,0.574217 -0.273176,0.402725 -0.520248,0.836244 -0.71289,1.289063 -0.191705,0.45282 -0.33615,0.933018 -0.4375,1.425781 -0.101885,0.492763 -0.157292,1.002833 -0.158203,1.525391 v 6.580078 c 0,0.06454 0.0086,0.116259 0.01953,0.177734 0.002,0.01271 -0.0027,0.02848 0,0.04102 0.03636,0.170088 0.13183,0.325204 0.238281,0.455078 0.06682,0.08151 0.130979,0.16 0.21875,0.21875 0.01212,0.0081 0.0266,0.01191 0.03906,0.01953 0.04586,0.02831 0.08854,0.05689 0.138671,0.07813 0.0054,0.0024 0.01384,-0.0023 0.01953,0 0.05865,0.02361 0.116415,0.04758 0.179687,0.06055 h 6.716797 c 4.253184,0 7.648438,-3.377672 7.648438,-7.630859 0,-3.670752 -2.537797,-6.687581 -5.964844,-7.449219 -0.03638,-0.0048 -0.07996,-0.01666 -0.117188,-0.02148 -0.169166,-0.01955 -0.367714,-0.0428 -0.576172,-0.05859 -0.263365,-0.02241 -0.58345,-0.03844 -0.970703,-0.03906 -0.0079,-1.2e-5 -0.01156,0 -0.01953,0 z M 25.190115,48.898439 c -4.253185,0 -7.65039,3.375719 -7.65039,7.628906 0,3.670753 2.537795,6.689534 5.964844,7.451172 0.104149,0.0122 0.224516,0.02893 0.33789,0.04102 0.118283,0.01413 0.217321,0.02729 0.355469,0.03906 0.02946,0.0021 0.04942,-0.0021 0.08008,0 0.254362,0.01996 0.54549,0.03906 0.912109,0.03906 1.298934,-0.0032 2.536467,-0.332382 3.605469,-0.912109 0.644696,-0.349621 1.228903,-0.792919 1.744141,-1.306641 0.339877,-0.338886 0.660547,-0.71145 0.93164,-1.109374 0.0034,-0.0046 -0.0034,-0.01682 0,-0.02148 0.136581,-0.201363 0.259857,-0.39876 0.376954,-0.613281 0.119488,-0.219906 0.218699,-0.441444 0.316406,-0.673828 0.0939,-0.220725 0.184851,-0.442995 0.257812,-0.673828 0.002,-0.006 -0.002,-0.01347 0,-0.01953 0.07427,-0.237029 0.126789,-0.466507 0.177735,-0.71289 0.101349,-0.492762 0.157292,-1.004787 0.158203,-1.527344 v -6.578125 c 0,-0.07137 -0.0064,-0.151187 -0.01953,-0.21875 -0.01125,-0.05491 -0.01971,-0.106687 -0.03906,-0.158203 -0.0054,-0.01463 -0.01357,-0.02472 -0.01953,-0.03906 -0.03977,-0.094 -0.09459,-0.179759 -0.158203,-0.257812 -0.02323,-0.02838 -0.0541,-0.05425 -0.08008,-0.08008 -0.04841,-0.04844 -0.101279,-0.100174 -0.158204,-0.138672 -0.05678,-0.03789 -0.115932,-0.07112 -0.179687,-0.09766 -0.006,-0.0025 -0.01357,0.0024 -0.01953,0 -0.05664,-0.02244 -0.116779,-0.04805 -0.177735,-0.06055 z m 48.535157,0.21289 c -2.664621,17.252768 -17.57357,30.44988 -35.574219,30.457032 h -8.875 l -2.412109,11.857422 c -0.243787,2.150181 1.742326,3.90625 3.90625,3.90625 h 85.749996 c 2.16393,0 4.14885,-1.755937 3.90625,-3.90625 l -7.8125,-38.408204 c -0.33352,-2.138067 -1.74233,-3.90625 -3.90625,-3.90625 z M 30.770194,99.279298 c -2.163957,0 -3.90625,1.742302 -3.90625,3.906252 v 7.9375 c 0,2.16396 1.742293,3.90625 3.90625,3.90625 h 85.749996 c 2.16396,0 3.90625,-1.74229 3.90625,-3.90625 v -7.9375 c 0,-2.16395 -1.74229,-3.906252 -3.90625,-3.906252 z m 3.8125,4.718752 h 9.5625 c 0.722218,0 1.3125,0.55904 1.3125,1.28125 v 3.71875 c 0,0.72222 -0.590282,1.3125 -1.3125,1.3125 h -9.5625 c -0.722218,0 -1.3125,-0.59028 -1.3125,-1.3125 v -3.71875 c 0,-0.72221 0.590282,-1.28125 1.3125,-1.28125 z" style="fill:#aaaaaa"/>
</svg>