<?xml version="1.0" encoding="UTF-8" standalone="no"?>
<svg xmlns:dc="http://purl.org/dc/elements/1.1/"
     xmlns:cc="http://creativecommons.org/ns#"
     xmlns:rdf="http://www.w3.org/1999/02/22-rdf-syntax-ns#"
     xmlns:svg="http://www.w3.org/2000/svg"
     xmlns="http://www.w3.org/2000/svg"
     xmlns:xlink="http://www.w3.org/1999/xlink"
     width="128" height="128" version="1.1">
    <title>FileRoller Icon</title>
    <desc>This is shape (source) for Clarity vector icon theme for gtk</desc>
    <metadata>
        <rdf:RDF>
            <cc:Work rdf:about="">
                <dc:title>FileRoller Icon</dc:title>
                <dc:description>This is shape (source) for Clarity vector icon theme for gtk</dc:description>
                <dc:creator>
                    <cc:Agent>
                        <dc:title>Jakub Jankiewicz</dc:title>
                    </cc:Agent>
                </dc:creator>
                <dc:rights>
                    <cc:Agent>
                        <dc:title>Jakub Jankiewicz</dc:title>
                    </cc:Agent>
                </dc:rights>
                <dc:date>2010</dc:date>
                <dc:format>image/svg+xml</dc:format>
                <dc:type rdf:resource="http://purl.org/dc/dcmitype/StillImage" />
                <cc:license rdf:resource="http://www.gnu.org/copyleft/gpl.html" />
             </cc:Work>
        </rdf:RDF>
    </metadata>
    <path d="m 64.384393,17.506463 c -2.041991,0 -3.822492,0.990025 -4.968499,2.502382 l -0.834127,0 c -3.017412,10e-7 -5.637274,1.412892 -7.07195,3.771707 l -0.03627,0.03627 -13.273506,25.096356 0,0.03627 -0.725328,1.41439 c -3.434157,-0.02591 -6.710748,-0.04875 -9.538066,-0.108799 l -0.03627,0 c -5.094995,0 -9.520878,3.537164 -12.62071,8.849004 -2.161768,3.70438 -3.712752,8.339193 -4.460769,13.491104 l -0.689061,0 c -0.6205447,0 -1.1790822,0.343973 -1.4869231,0.689062 C 8.33508,73.62929 8.1727225,73.993868 8.0626583,74.29966 7.8425299,74.911244 7.8087935,75.460185 7.8087935,75.460185 a 1.2580689,1.2580689 0 0 0 0,0.07253 c -0.1810071,6.886054 1.0202988,15.418243 4.2431695,22.376375 3.082053,6.654127 8.241493,11.977587 15.630823,12.403117 0.166094,0.10444 0.347125,0.16722 0.543996,0.18133 l 0.07253,0 59.223047,-0.0725 0.362664,0 c 0.08458,-0.002 0.168543,-0.0321 0.253865,-0.0362 a 1.2580689,1.2580689 0 0 0 0.07253,0 c 2.788034,-0.14868 5.952263,-1.17107 8.776471,-3.01012 3.058705,-1.99174 5.706875,-4.97258 6.745555,-8.849 0.0373,-0.14148 0.0496,-0.289493 0.0363,-0.435197 0,0 -0.0338,-0.54894 -0.25386,-1.160525 -0.11002,-0.305787 -0.23617,-0.670366 -0.544,-1.015459 -0.30783,-0.345094 -0.86639,-0.689062 -1.48692,-0.689062 l -1.05173,0 c 1.86702,-4.623313 2.93758,-10.153959 2.93758,-16.102286 0,-5.68647 -0.973,-10.99076 -2.68371,-15.485757 l 18.82227,-34.271757 -0.0362,0 c 0.007,-0.01126 -0.007,-0.02502 0,-0.03627 1.17866,-2.027598 0.7904,-4.269925 -0.10874,-5.911424 -1.05095,-1.918408 -3.22263,-3.452705 -5.91143,-3.409043 l -0.0362,0 -4.09811,0 c -1.15653,-1.512415 -2.96295,-2.50244 -5.00494,-2.50244 l -39.929317,0 z m -5.802626,10.045795 0.834127,0 c 1.146007,1.512357 2.926508,2.502383 4.968499,2.502383 l 39.929317,0 c 2.02332,0 3.81059,-0.977322 4.9685,-2.466116 l 2.61118,0 -15.55829,28.324066 c -2.886203,-3.530819 -6.51144,-5.730093 -10.553526,-5.730093 -0.03663,0 -0.07224,-3.58e-4 -0.108799,0 l -1.233058,0 c 0,0 -20.193415,0.242668 -38.514927,0.217598 L 57.74764,27.987455 c -0.05362,0.08656 0.131325,-0.135122 0.326397,-0.253865 0.195073,-0.118742 0.418892,-0.181332 0.50773,-0.181332 z m 27.199807,25.168889 c 3.391589,0 6.591853,2.025284 9.211668,5.621293 l -7.289548,13.309772 c -2.764638,0.03405 -5.004765,3.894399 -5.004765,8.631406 0,4.75814 2.259346,8.595139 5.041031,8.595139 2.781686,0 5.041031,-3.836999 5.041031,-8.595139 0,-0.68673 -0.05632,-1.354343 -0.145065,-1.994653 l 6.382888,-11.641517 c 1.167416,3.711374 1.849586,7.941201 1.849586,12.475645 0,7.439586 -1.825888,14.128917 -4.6421,18.894799 -2.8162,4.765878 -6.499242,7.507148 -10.444726,7.507148 -3.945472,0 -7.628514,-2.74127 -10.444726,-7.507148 -2.8162,-4.765882 -4.6421,-11.455213 -4.6421,-18.894799 0,-7.439586 1.8259,-14.128915 4.6421,-18.8948 2.816212,-4.765884 6.499254,-7.507146 10.444726,-7.507146 z m -57.88119,0.03627 c 16.555495,0.351585 42.387124,0.08664 50.555376,0 -2.037337,1.50766 -3.841223,3.607587 -5.331163,6.129023 -3.102513,5.250405 -4.968498,12.391898 -4.968498,20.236657 0,7.844758 1.865985,14.986255 4.968498,20.236656 1.461949,2.474081 3.231877,4.555181 5.222363,6.056491 -3.361646,-1.68318 -5.908047,-4.03317 -7.833544,-6.67302 -3.459479,-4.74295 -4.958622,-10.41942 -5.65756,-14.288965 a 1.2580689,1.2580689 0 0 0 -0.108799,-0.326398 c -1.45849,-2.947775 -4.319579,-3.989305 -6.745553,-3.989305 l -22.666506,0 c -0.336389,0 -0.9791,-0.270385 -1.486922,-0.616529 -0.02878,-0.109193 -0.03679,-0.202034 -0.07253,-0.362664 -0.107349,-0.481889 -0.240589,-1.155798 -0.362664,-1.81332 -0.122076,-0.657522 -0.258101,-1.327528 -0.362664,-1.849587 -0.05234,-0.261029 -0.09574,-0.458179 -0.145066,-0.652796 -0.0246,-0.09731 -0.0347,-0.182091 -0.07253,-0.290131 -0.01892,-0.05402 -0.02832,-0.128866 -0.07253,-0.217598 -0.04422,-0.08873 -0.06476,-0.197459 -0.362664,-0.435197 -0.786058,-0.627223 -1.697651,-1.190317 -2.82878,-1.196792 L 13.357554,72.595139 c 0.724237,-4.728262 2.14255,-8.932921 4.061838,-12.22178 2.820053,-4.832404 6.548994,-7.615946 10.480992,-7.615946 z" style="fill:#aaaaaa"/>
</svg>