<?xml version="1.0" encoding="UTF-8" standalone="no"?>
<svg xmlns:dc="http://purl.org/dc/elements/1.1/"
     xmlns:cc="http://creativecommons.org/ns#"
     xmlns:rdf="http://www.w3.org/1999/02/22-rdf-syntax-ns#"
     xmlns:svg="http://www.w3.org/2000/svg"
     xmlns="http://www.w3.org/2000/svg"
     xmlns:xlink="http://www.w3.org/1999/xlink"
     width="128" height="128" version="1.1">
    <title>FileZilla Icon</title>
    <desc>This is shape (source) for Clarity vector icon theme for gtk</desc>
    <metadata>
        <rdf:RDF>
            <cc:Work rdf:about="">
                <dc:title>FileZilla Icon</dc:title>
                <dc:description>This is shape (source) for Clarity vector icon theme for gtk</dc:description>
                <dc:creator>
                    <cc:Agent>
                        <dc:title>Jakub Jankiewicz</dc:title>
                    </cc:Agent>
                </dc:creator>
                <dc:rights>
                    <cc:Agent>
                        <dc:title>Jakub Jankiewicz</dc:title>
                    </cc:Agent>
                </dc:rights>
                <dc:date>2010</dc:date>
                <dc:format>image/svg+xml</dc:format>
                <dc:type rdf:resource="http://purl.org/dc/dcmitype/StillImage" />
                <cc:license rdf:resource="http://www.gnu.org/copyleft/gpl.html" />
             </cc:Work>
        </rdf:RDF>
    </metadata>
    <path d="m 13.0625,7.5 c 0,3.073894 -2.488606,5.5625 -5.5625,5.5625 l 0,1.4375 c 3.073894,0 5.5625,2.488606 5.5625,5.5625 0,3.073894 -2.488606,5.5625 -5.5625,5.5625 l 0,1.4375 c 3.073894,0 5.5625,2.488606 5.5625,5.5625 0,3.073894 -2.488606,5.5625 -5.5625,5.5625 l 0,1.40625 c 3.073894,0 5.5625,2.488606 5.5625,5.5625 0,3.073894 -2.488606,5.59375 -5.5625,5.59375 l 0,1.40625 c 3.073894,0 5.5625,2.488606 5.5625,5.5625 0,3.073894 -2.488606,5.5625 -5.5625,5.5625 l 0,1.4375 c 3.073894,0 5.5625,2.488606 5.5625,5.5625 0,3.073894 -2.488606,5.5625 -5.5625,5.5625 l 0,1.4375 c 3.073894,0 5.5625,2.488606 5.5625,5.5625 0,3.073894 -2.488606,5.5625 -5.5625,5.5625 l 0,1.40625 c 3.073894,0 5.5625,2.488606 5.5625,5.5625 0,3.073894 -2.488606,5.59375 -5.5625,5.59375 l 0,1.40625 c 3.073894,0 5.5625,2.48861 5.5625,5.5625 0,3.07389 -2.488606,5.5625 -5.5625,5.5625 l 0,1.4375 c 3.073894,0 5.5625,2.48861 5.5625,5.5625 l 1.4375,0 c 0,-3.07389 2.488606,-5.5625 5.5625,-5.5625 3.073894,0 5.5625,2.48861 5.5625,5.5625 l 1.4375,0 c 0,-3.07389 2.488606,-5.5625 5.5625,-5.5625 3.073894,0 5.5625,2.48861 5.5625,5.5625 l 1.4375,0 c 0,-3.07389 2.488606,-5.5625 5.5625,-5.5625 3.073894,0 5.5625,2.48861 5.5625,5.5625 l 1.40625,0 c 0,-3.07389 2.488606,-5.5625 5.5625,-5.5625 3.073894,0 5.59375,2.48861 5.59375,5.5625 l 1.40625,0 c 0,-3.07389 2.488606,-5.5625 5.5625,-5.5625 3.073894,0 5.5625,2.48861 5.5625,5.5625 l 1.4375,0 c 0,-3.07389 2.488606,-5.5625 5.5625,-5.5625 3.073894,0 5.5625,2.48861 5.5625,5.5625 l 1.4375,0 c 0,-3.07389 2.488606,-5.5625 5.5625,-5.5625 3.07389,0 5.5625,2.48861 5.5625,5.5625 l 1.40625,0 c 0,-3.07389 2.48861,-5.5625 5.5625,-5.5625 3.07389,0 5.59375,2.48861 5.59375,5.5625 l 1.40625,0 c 0,-2.88178 2.19342,-5.24623 5,-5.53125 0.18711,-0.019 0.37038,-0.0312 0.5625,-0.0312 l 0,-1.4375 c -3.07389,0 -5.5625,-2.48861 -5.5625,-5.5625 0,-3.07389 2.48861,-5.5625 5.5625,-5.5625 l 0,-1.40625 c -3.07389,0 -5.5625,-2.519856 -5.5625,-5.59375 0,-3.073894 2.48861,-5.5625 5.5625,-5.5625 l 0,-1.40625 c -3.07389,0 -5.5625,-2.488606 -5.5625,-5.5625 0,-3.073894 2.48861,-5.5625 5.5625,-5.5625 l 0,-1.4375 c -3.07389,0 -5.5625,-2.488606 -5.5625,-5.5625 0,-3.073894 2.48861,-5.5625 5.5625,-5.5625 l 0,-1.4375 c -3.07389,0 -5.5625,-2.488606 -5.5625,-5.5625 0,-3.073894 2.48861,-5.5625 5.5625,-5.5625 l 0,-1.40625 c -3.07389,0 -5.5625,-2.519856 -5.5625,-5.59375 0,-3.073894 2.48861,-5.5625 5.5625,-5.5625 l 0,-1.40625 c -3.07389,0 -5.5625,-2.488606 -5.5625,-5.5625 0,-2.881776 2.19342,-5.277477 5,-5.5625 0.18711,-0.019 0.37038,0 0.5625,0 l 0,-1.4375 c -3.07389,0 -5.5625,-2.488606 -5.5625,-5.5625 0,-3.073894 2.48861,-5.5625 5.5625,-5.5625 l 0,-1.4375 c -3.07389,0 -5.5625,-2.488606 -5.5625,-5.5625 l -1.40625,0 c 0,3.073894 -2.51986,5.5625 -5.59375,5.5625 -3.07389,0 -5.5625,-2.488606 -5.5625,-5.5625 l -1.40625,0 c 0,3.073894 -2.48861,5.5625 -5.5625,5.5625 -3.073894,0 -5.5625,-2.488606 -5.5625,-5.5625 l -1.4375,0 c 0,3.073894 -2.488606,5.5625 -5.5625,5.5625 -3.073894,0 -5.5625,-2.488606 -5.5625,-5.5625 l -1.4375,0 c 0,3.073894 -2.488606,5.5625 -5.5625,5.5625 -3.073894,0 -5.5625,-2.488606 -5.5625,-5.5625 l -1.40625,0 c 0,3.073894 -2.519856,5.5625 -5.59375,5.5625 -3.073894,0 -5.5625,-2.488606 -5.5625,-5.5625 l -1.40625,0 c 0,3.073894 -2.488606,5.5625 -5.5625,5.5625 -3.073894,0 -5.5625,-2.488606 -5.5625,-5.5625 l -1.4375,0 c 0,3.073894 -2.488606,5.5625 -5.5625,5.5625 -3.073894,0 -5.5625,-2.488606 -5.5625,-5.5625 l -1.4375,0 c 0,3.073894 -2.488606,5.5625 -5.5625,5.5625 -3.073894,0 -5.5625,-2.488606 -5.5625,-5.5625 l -1.4375,0 z m 25.946652,16.770534 48.601649,0 -2.250077,13.650463 -33.63114,0 -3.180108,13.170447 54.511844,0.450015 -2.25007,9.990339 -27.720942,27.72094 c 0,0 7.264638,2.258632 13.170447,1.350046 5.905809,-0.908586 13.620462,-4.980169 13.620462,-4.980169 l -3.180108,14.070477 c 0,0 -4.538823,1.367208 -9.990339,2.730098 -5.451517,1.36288 -8.160332,1.81289 -11.340384,0.45001 -3.180053,-1.36288 -8.186057,-1.80433 -11.820401,-1.35005 -3.634345,0.4543 -8.190278,1.80007 -8.190278,1.80007 l -4.980169,-9.990343 29.521001,-29.220991 -32.911116,0 -7.08024,31.501068 -14.970508,0 z" style="fill:#aaaaaa"/>
</svg>