<?xml version="1.0" encoding="UTF-8" standalone="no"?>
<svg xmlns:dc="http://purl.org/dc/elements/1.1/"
     xmlns:cc="http://creativecommons.org/ns#"
     xmlns:rdf="http://www.w3.org/1999/02/22-rdf-syntax-ns#"
     xmlns:svg="http://www.w3.org/2000/svg"
     xmlns="http://www.w3.org/2000/svg"
     xmlns:xlink="http://www.w3.org/1999/xlink"
     width="128" height="128" version="1.1">
    <title>Clarity Icon</title>
    <desc>This is shape (source) for Clarity vector icon theme for gtk</desc>
    <metadata>
        <rdf:RDF>
            <cc:Work rdf:about="">
                <dc:title>Clarity Icon</dc:title>
                <dc:description>This is shape (source) for Clarity vector icon theme for gtk</dc:description>
                <dc:creator>
                    <cc:Agent>
                        <dc:title>Jakub Jankiewicz</dc:title>
                    </cc:Agent>
                </dc:creator>
                <dc:rights>
                    <cc:Agent>
                        <dc:title>Jakub Jankiewicz</dc:title>
                    </cc:Agent>
                </dc:rights>
                <dc:date>2010</dc:date>
                <dc:format>image/svg+xml</dc:format>
                <dc:type rdf:resource="http://purl.org/dc/dcmitype/StillImage" />
                <cc:license rdf:resource="http://www.gnu.org/copyleft/gpl.html" />
             </cc:Work>
        </rdf:RDF>
    </metadata>
    <path d="m 25.25,9.59375 c -2.956953,0 -5.34375,2.386797 -5.34375,5.34375 l 0,98.125 c 0,2.95695 2.386797,5.34375 5.34375,5.34375 l 77.53125,0 c 2.95695,0 5.3125,-2.3868 5.3125,-5.34375 l 0,-98.125 c 0,-2.956953 -2.35555,-5.34375 -5.3125,-5.34375 l -77.53125,0 z m 8.59375,7.9375 60.3125,0 c 3.32694,0 6,2.704316 6,6.03125 l 0,13.65625 c 0,3.326937 -2.67306,6 -6,6 l -60.3125,0 c -3.32694,0 -5.96875,-2.673063 -5.96875,-6 l 0,-13.65625 c 0,-3.326934 2.64181,-6.03125 5.96875,-6.03125 z m 22.75,9.71875 c -2.50966,0 -4.53125,1.718847 -4.53125,3.84375 0,2.124903 2.02159,3.8125 4.53125,3.8125 l 16.3125,0 c 2.509667,0 4.53125,-1.687597 4.53125,-3.8125 0,-2.124903 -2.021583,-3.84375 -4.53125,-3.84375 l -16.3125,0 z m -22.75,23.90625 60.3125,0 c 3.32694,0 6,2.704316 6,6.03125 l 0,13.65625 c 0,3.32694 -2.67306,6 -6,6 l -60.3125,0 c -3.32694,0 -5.96875,-2.67306 -5.96875,-6 l 0,-13.65625 c 0,-3.326934 2.64181,-6.03125 5.96875,-6.03125 z m 22.75,9.71875 c -2.50966,0 -4.53125,1.718851 -4.53125,3.84375 0,2.124901 2.02159,3.8125 4.53125,3.8125 l 16.3125,0 c 2.509667,0 4.53125,-1.6876 4.53125,-3.8125 0,-2.1249 -2.021583,-3.84375 -4.53125,-3.84375 l -16.3125,0 z m -22.75,23.90625 60.3125,0 c 3.32694,0 6,2.704316 6,6.03125 l 0,13.65625 c 0,3.32694 -2.67306,6 -6,6 l -60.3125,0 c -3.32694,0 -5.96875,-2.67306 -5.96875,-6 l 0,-13.65625 c 0,-3.326934 2.64181,-6.03125 5.96875,-6.03125 z m 22.75,9.71875 c -2.50966,0 -4.53125,1.718853 -4.53125,3.84375 0,2.1249 2.02159,3.8125 4.53125,3.8125 l 16.3125,0 c 2.509667,0 4.53125,-1.6876 4.53125,-3.8125 0,-2.124897 -2.021583,-3.84375 -4.53125,-3.84375 l -16.3125,0 z" style="fill:#aaaaaa"/>
</svg>