<?xml version="1.0" encoding="UTF-8" standalone="no"?>
<svg xmlns:dc="http://purl.org/dc/elements/1.1/"
     xmlns:cc="http://creativecommons.org/ns#"
     xmlns:rdf="http://www.w3.org/1999/02/22-rdf-syntax-ns#"
     xmlns:svg="http://www.w3.org/2000/svg"
     xmlns="http://www.w3.org/2000/svg"
     xmlns:xlink="http://www.w3.org/1999/xlink"
     width="128" height="128" version="1.1">
    <title>Firewall Icon</title>
    <desc>This is shape (source) for Clarity vector icon theme for gtk</desc>
    <metadata>
        <rdf:RDF>
            <cc:Work rdf:about="">
                <dc:title>Firewall Icon</dc:title>
                <dc:description>This is shape (source) for Clarity vector icon theme for gtk. Fire from https://commons.wikimedia.org/wiki/File:Hex_icon_with_fire_white.svg</dc:description>
                <dc:creator>
                    <cc:Agent>
                        <dc:title>Jakub Jankiewicz</dc:title>
                    </cc:Agent>
                    <cc:Agent>
                        <dc:title>Heatherawalls</dc:title>
                    </cc:Agent>
                </dc:creator>
                <dc:rights>
                    <cc:Agent>
                        <dc:title>Jakub Jankiewicz</dc:title>
                    </cc:Agent>
                </dc:rights>
                <dc:date>2010</dc:date>
                <dc:format>image/svg+xml</dc:format>
                <dc:type rdf:resource="http://purl.org/dc/dcmitype/StillImage" />
                <cc:license rdf:resource="http://creativecommons.org/licenses/by-sa/3.0/" />
             </cc:Work>
        </rdf:RDF>
    </metadata>
    <path d="m 56.241211,23.664034 c -1.507249,0 -2.720703,1.213454 -2.720703,2.720703 v 11.306641 c 0,1.507249 1.213454,2.720703 2.720703,2.720703 h 27.603516 c 1.507249,0 2.720703,-1.213454 2.720703,-2.720703 V 26.384737 c 0,-1.507249 -1.213454,-2.720703 -2.720703,-2.720703 z m 36.382813,0 c -1.507249,0 -2.720703,1.213454 -2.720703,2.720703 v 11.306641 c 0,1.507249 1.213454,2.720703 2.720703,2.720703 h 27.603516 c 1.50725,0 2.7207,-1.213454 2.7207,-2.720703 V 26.384737 c 0,-1.507249 -1.21345,-2.720703 -2.7207,-2.720703 z M 41.00879,35.628878 c -3.744643,4.015443 -6.480874,10.715634 -2.261719,15.867187 6.548026,7.982728 3.784814,14.165804 0,13.597656 -6.352627,-0.951513 -5.588788,-9.241209 -4.533203,-11.330078 -3.324986,-0.352569 -7.162488,1.716003 -9.064454,4.53125 -5.721824,8.491407 6.675933,16.622932 2.265626,22.660156 -3.350474,4.606764 -9.080895,-4.457254 -9.058594,-4.527343 -6.805019,35.515024 42.60825,36.413784 45.318359,6.796875 0.807092,-8.87796 8.806946,-13.713751 9.070313,-13.59375 -8.514766,-3.932427 -13.603516,2.54526 -13.603516,2.261718 0,-1.116117 4.778582,-15.91609 -4.527344,-20.396484 C 43.889558,46.34345 40.923833,42.225755 41.00879,35.628878 Z m -26.515626,1.332031 c -5.4297846,4.523936 -9.4414058,9.242917 -9.4414059,14.152344 0,2.617722 1.831288,6.330726 4.71875,9.43164 3.2994989,3.812425 4.2033599,8.12386 4.7226559,9.4375 3.414192,-2.728167 4.718751,-5.928795 4.71875,-9.4375 0,-2.619848 -2.89537,-6.233027 -4.71875,-9.43164 -2.352233,-4.322164 0.544784,-10.219918 0,-14.152344 z m 39.027344,6.789062 v 4.154297 c 0.711907,0.375332 1.455147,0.756157 2.267578,1.146485 a 2.7121354,2.7121354 0 0 0 0.002,0.002 c 2.933998,1.412592 4.889026,3.785991 5.955078,6.30664 0.714605,1.689667 1.059837,3.435574 1.216796,5.140625 h 2.691407 c 1.507242,0 2.720703,-1.213454 2.720703,-2.720703 v -11.30864 c 0,-1.50725 -1.213461,-2.720704 -2.720703,-2.720704 z m 57.294922,0 c -1.50724,0 -2.72073,1.213455 -2.7207,2.720704 v 11.308593 c 0,1.507249 1.21346,2.720703 2.7207,2.720703 h 12.13281 v -16.75 z m -36.382812,0.002 c -1.507249,0 -2.720704,1.213454 -2.720704,2.720703 v 11.30664 c 0,1.507249 1.213455,2.720703 2.720704,2.720703 h 27.603512 c 1.50725,0 2.7207,-1.213454 2.7207,-2.720703 v -11.30664 c 0,-1.507249 -1.21345,-2.720705 -2.7207,-2.720703 z M 63.041993,63.837862 c -0.06829,0.963324 -0.221276,1.793769 -0.337891,2.712891 2.858471,-1.041541 6.779338,-1.414151 11.177734,0.617187 a 2.7121354,2.7121354 0 0 1 -0.763672,5.119141 c 0.08442,-0.01107 0.215688,-0.01648 0.257813,-0.02734 0.190934,-0.04924 0.249623,-0.07902 0.289063,-0.0957 0.07888,-0.03337 0.04066,-0.02042 -0.02344,0.01563 -0.128193,0.0721 -0.398515,0.241136 -0.728516,0.478516 -0.660001,0.474755 -1.58264,1.237324 -2.509765,2.238281 -1.337104,1.443583 -2.657219,3.358506 -3.419922,5.689453 h 16.861328 c 1.507249,0 2.720703,-1.213454 2.720703,-2.720703 V 66.558565 c 0,-1.507249 -1.213454,-2.720703 -2.720703,-2.720703 z m 10.076171,8.449219 c -0.09979,0.01309 -0.160197,0.03115 -0.304687,0.0332 a 2.7121354,2.7121354 0 0 0 0.304687,-0.0332 z m 19.50586,-8.449219 c -1.507249,0 -2.720703,1.213454 -2.720703,2.720703 v 11.306641 c 0,1.507249 1.213454,2.720703 2.720703,2.720703 h 27.603516 c 1.50725,0 2.7207,-1.213454 2.7207,-2.720703 V 66.558565 c 0,-1.507249 -1.21345,-2.720703 -2.7207,-2.720703 z" style="fill:#aaaaaa"/>
</svg>