<?xml version="1.0" encoding="UTF-8" standalone="no"?>
<svg xmlns:dc="http://purl.org/dc/elements/1.1/"
     xmlns:cc="http://creativecommons.org/ns#"
     xmlns:rdf="http://www.w3.org/1999/02/22-rdf-syntax-ns#"
     xmlns:svg="http://www.w3.org/2000/svg"
     xmlns="http://www.w3.org/2000/svg"
     xmlns:xlink="http://www.w3.org/1999/xlink"
     width="128" height="128" version="1.1">
    <title>Clarity Icon</title>
    <desc>This is shape (source) for Clarity vector icon theme for gtk</desc>
    <metadata>
        <rdf:RDF>
            <cc:Work rdf:about="">
                <dc:title>Clarity Icon</dc:title>
                <dc:description>This is shape (source) for Clarity vector icon theme for gtk</dc:description>
                <dc:creator>
                    <cc:Agent>
                        <dc:title>Jakub Jankiewicz</dc:title>
                    </cc:Agent>
                </dc:creator>
                <dc:rights>
                    <cc:Agent>
                        <dc:title>Jakub Jankiewicz</dc:title>
                    </cc:Agent>
                </dc:rights>
                <dc:date>2010</dc:date>
                <dc:format>image/svg+xml</dc:format>
                <dc:type rdf:resource="http://purl.org/dc/dcmitype/StillImage" />
                <cc:license rdf:resource="http://www.gnu.org/copyleft/gpl.html" />
             </cc:Work>
        </rdf:RDF>
    </metadata>
    <path d="M 18.6875 12.625 L 18.6875 36.90625 L 20.21875 36.90625 L 20.21875 20.4375 L 31.46875 24 L 31.46875 21.34375 L 69.15625 21.34375 L 69.15625 24 L 80.40625 20.46875 L 80.40625 37 L 81.96875 37 L 81.96875 12.6875 L 80.40625 12.6875 L 80.40625 19.46875 L 69.15625 15.96875 L 69.15625 18.625 L 31.46875 18.625 L 31.46875 15.96875 L 20.21875 19.5 L 20.21875 12.625 L 18.6875 12.625 z M 19.59375 39.96875 L 18.6875 57.65625 L 20.8125 57.65625 C 21.07196 54.246192 21.878533 51.532906 23.25 49.53125 C 24.621452 47.529728 26.260031 46.204333 28.1875 45.5 C 29.670147 44.981139 32.197415 44.71882 35.71875 44.71875 L 44.78125 44.71875 L 44.78125 102.3125 C 44.781219 106.53809 44.346684 109.25138 43.53125 110.4375 C 42.196829 112.36497 39.937694 113.31251 36.75 113.3125 L 34.09375 113.3125 L 34.09375 115.375 L 66.0625 115.375 L 66.0625 113.3125 L 63.4375 113.3125 C 60.509201 113.31251 58.345983 112.52555 56.9375 110.96875 C 55.936663 109.8197 55.437459 106.94581 55.4375 102.3125 L 55.4375 44.71875 L 66.0625 44.71875 C 69.176033 44.71882 71.672051 45.243458 73.5625 46.28125 C 75.489897 47.282114 77.038377 48.850209 78.1875 51 C 78.8917 52.334457 79.435954 54.542725 79.84375 57.65625 L 81.96875 57.65625 L 81.125 39.96875 L 19.59375 39.96875 z M 85.03125 39.96875 L 85.03125 41.53125 L 102 41.53125 L 109.3125 41.53125 L 109.3125 39.96875 L 85.03125 39.96875 z M 102 41.53125 L 97.90625 54.34375 L 100.625 54.34375 L 100.625 95.1875 L 100.625 101.0625 L 97.90625 101.0625 L 102 113.8125 L 106 101.0625 L 103.34375 101.0625 L 103.34375 95.1875 L 103.34375 54.34375 L 106 54.34375 L 102 41.53125 z M 85.03125 113.84375 L 85.03125 115.375 L 109.3125 115.375 L 109.3125 113.84375 L 85.03125 113.84375 z " style="fill:#aaaaaa"/>
</svg>