<?xml version="1.0" encoding="UTF-8" standalone="no"?>
<svg xmlns:dc="http://purl.org/dc/elements/1.1/"
     xmlns:cc="http://creativecommons.org/ns#"
     xmlns:rdf="http://www.w3.org/1999/02/22-rdf-syntax-ns#"
     xmlns:svg="http://www.w3.org/2000/svg"
     xmlns="http://www.w3.org/2000/svg"
     xmlns:xlink="http://www.w3.org/1999/xlink"
     width="128" height="128" version="1.1">
    <title>Clarity Icon</title>
    <desc>This is shape (source) for Clarity vector icon theme for gtk</desc>
    <metadata>
        <rdf:RDF>
            <cc:Work rdf:about="">
                <dc:title>Clarity Icon</dc:title>
                <dc:description>This is shape (source) for Clarity vector icon theme for gtk</dc:description>
                <dc:creator>
                    <cc:Agent>
                        <dc:title>Jakub Jankiewicz</dc:title>
                    </cc:Agent>
                </dc:creator>
                <dc:rights>
                    <cc:Agent>
                        <dc:title>Jakub Jankiewicz</dc:title>
                    </cc:Agent>
                </dc:rights>
                <dc:date>2010</dc:date>
                <dc:format>image/svg+xml</dc:format>
                <dc:type rdf:resource="http://purl.org/dc/dcmitype/StillImage" />
                <cc:license rdf:resource="http://www.gnu.org/copyleft/gpl.html" />
             </cc:Work>
        </rdf:RDF>
    </metadata>
    <path d="m 59.960309,5.514796 c -1.470147,0 -2.664316,1.1941699 -2.664316,2.6643155 l 0,13.4764795 c -6.866062,1.043555 -13.198161,3.738633 -18.588248,7.652162 l -9.480006,-9.480006 c -1.039554,-1.03955 -2.709076,-1.03955 -3.74863,0 l -5.638435,5.607455 c -1.039554,1.03955 -1.039554,2.70908 0,3.74863 l 9.449026,9.449026 c -3.965682,5.395569 -6.66758,11.755731 -7.745104,18.650209 l -13.3215771,0 c -1.470147,0 -2.6643155,1.163189 -2.6643155,2.633335 l 0,7.961966 c 0,1.470146 1.1941685,2.664316 2.6643155,2.664316 l 13.3215771,0 c 1.076156,6.885735 3.787572,13.228068 7.745104,18.619228 l -9.449026,9.449026 c -1.039554,1.039555 -1.039554,2.740052 0,3.779612 l 5.638435,5.60745 c 1.039554,1.03956 2.709076,1.03956 3.74863,0 l 9.480006,-9.480003 c 5.390087,3.913523 11.722186,6.608603 18.588248,7.652163 l 0,13.47648 c 0,1.47014 1.194169,2.63333 2.664316,2.63333 l 7.961966,0 c 1.470147,0 2.664316,-1.16319 2.664316,-2.63333 l 0,-13.53844 c 6.803447,-1.10079 13.067181,-3.82391 18.402365,-7.745105 l 9.665889,9.634905 c 1.03955,1.03956 2.709075,1.03956 3.748625,0 l 5.63844,-5.60745 c 1.03955,-1.03956 1.03955,-2.740057 0,-3.779612 l -9.696869,-9.665889 c 3.878049,-5.345325 6.557609,-11.606631 7.621179,-18.402365 l 13.69334,0 c 1.47015,0 2.66432,-1.19417 2.66432,-2.664316 l 0,-7.961966 c 0,-1.470146 -1.19417,-2.633335 -2.66432,-2.633335 l -13.69334,0 c -1.06357,-6.795735 -3.74313,-13.057041 -7.621179,-18.402366 l 9.696869,-9.696869 c 1.03955,-1.03955 1.03955,-2.70908 0,-3.74863 l -5.63844,-5.607455 c -1.03955,-1.03955 -2.709075,-1.03955 -3.748625,0 l -9.665889,9.634908 C 83.653772,25.541458 77.390038,22.818344 70.586591,21.717552 l 0,-13.5384405 c 0,-1.4701456 -1.194169,-2.6643155 -2.664316,-2.6643155 l -7.961966,0 z m 3.77961,24.567468 c 18.733961,0 33.861592,15.096647 33.861592,33.830611 0,18.733964 -15.127631,33.830612 -33.861592,33.830612 -18.73397,0 -33.830611,-15.096648 -33.830611,-33.830612 0,-18.733964 15.096641,-33.830611 33.830611,-33.830611 z m -9.665888,18.74315 c -2.463513,0 -4.46118,1.997664 -4.46118,4.461179 0,2.463515 1.997667,4.46118 4.46118,4.46118 2.463512,0 4.461179,-1.997665 4.461179,-4.46118 0,-2.463515 -1.997667,-4.461179 -4.461179,-4.461179 z m 19.331777,0 c -2.461103,0 -4.430199,2.000075 -4.430199,4.461179 0,2.461104 1.969096,4.46118 4.430199,4.46118 2.461104,0 4.46118,-2.000076 4.46118,-4.46118 0,-2.461104 -2.000076,-4.461179 -4.46118,-4.461179 z M 48.156772,70.449742 c -0.405234,0.02354 -0.832219,0.138791 -1.239217,0.371765 -0.542678,0.310633 -0.923454,0.780567 -1.084314,1.301178 -0.160851,0.520611 -0.11149,1.082809 0.216862,1.54902 1.923621,2.731276 4.469983,5.030053 7.46628,6.598828 3.340492,1.729249 7.095466,2.545309 10.812164,2.416473 6.654405,-0.202738 13.218802,-3.487479 17.070208,-9.015301 0.330157,-0.473873 0.384326,-1.06064 0.216863,-1.580001 -0.167453,-0.51936 -0.563427,-0.976203 -1.115295,-1.270197 -0.551868,-0.293994 -1.141794,-0.366847 -1.641962,-0.309804 -0.500167,0.05704 -0.930433,0.257622 -1.177255,0.619608 -2.879206,4.222636 -8.239958,6.834488 -13.507461,7.032554 -2.971106,0.09601 -5.954514,-0.531285 -8.550594,-1.889805 -2.318534,-1.195608 -4.357789,-3.03611 -5.886278,-5.204709 -0.26091,-0.370166 -0.669048,-0.570318 -1.177256,-0.619609 -0.127045,-0.01232 -0.267671,-0.0078 -0.402745,0 z" style="fill:#aaaaaa"/>
</svg>