<?xml version="1.0" encoding="UTF-8" standalone="no"?>
<svg xmlns:dc="http://purl.org/dc/elements/1.1/"
     xmlns:cc="http://creativecommons.org/ns#"
     xmlns:rdf="http://www.w3.org/1999/02/22-rdf-syntax-ns#"
     xmlns:svg="http://www.w3.org/2000/svg"
     xmlns="http://www.w3.org/2000/svg"
     xmlns:xlink="http://www.w3.org/1999/xlink"
     width="128" height="128" version="1.1">
    <title>Galeon Icon</title>
    <desc>This is shape (source) for Clarity vector icon theme for gtk</desc>
    <metadata>
        <rdf:RDF>
            <cc:Work rdf:about="">
                <dc:title>Galeon Icon</dc:title>
                <dc:description>This is shape (source) for Clarity vector icon theme for gtk</dc:description>
                <dc:creator>
                    <cc:Agent>
                        <dc:title>Jakub Jankiewicz</dc:title>
                    </cc:Agent>
                </dc:creator>
                <dc:rights>
                    <cc:Agent>
                        <dc:title>Jakub Jankiewicz</dc:title>
                    </cc:Agent>
                </dc:rights>
                <dc:date>2010</dc:date>
                <dc:format>image/svg+xml</dc:format>
                <dc:type rdf:resource="http://purl.org/dc/dcmitype/StillImage" />
                <cc:license rdf:resource="http://creativecommons.org/licenses/by-sa/3.0/" />
             </cc:Work>
        </rdf:RDF>
    </metadata>
    <path d="m 90.21875,11.5625 c -7.454804,0 -13.5,6.045194 -13.5,13.5 0,7.45508 6.045196,13.5 13.5,13.5 7.454126,0 13.5,-6.044852 13.5,-13.5 0,-7.454806 -6.045874,-13.5 -13.5,-13.5 z m 0,1.03125 c 0.220148,0 0.438918,-0.01127 0.65625,0 l 0.6875,0.28125 -0.59375,1.53125 c -0.729928,0.337611 -1.419549,0.606322 -2.1875,0.84375 l -0.5,0.78125 -0.375,0.21875 -0.625,-1.1875 0.46875,-0.4375 0,-0.46875 -1.15625,-0.78125 0.375,-0.3125 0.65625,-0.1875 0.09375,-0.03125 c 0.811637,-0.165874 1.638984,-0.25 2.5,-0.25 z m -5.5,1.28125 0.03125,0.25 0.96875,0.09375 0.25,0.5 0.53125,0.25 -0.5,0.4375 c -0.331527,-0.22471 -0.66875,-0.462449 -1,-0.6875 L 84.5,14.5625 C 84.28165,14.708431 84.089387,14.848393 83.875,15 l -0.25,0.5625 -0.5,0 0.25,-0.59375 L 83.78125,14.625 83.75,14.40625 c 0.08845,-0.05373 0.191363,-0.104688 0.28125,-0.15625 l 0.03125,0.09375 0.09375,-0.1875 c 0.182783,-0.101774 0.374189,-0.188555 0.5625,-0.28125 z m 11.8125,0.40625 c 0.404911,0.237332 0.782252,0.501169 1.15625,0.78125 l -0.25,0 0.65625,0.6875 0.1875,-0.21875 c 2.19832,1.863064 3.72381,4.468476 4.21875,7.4375 -0.0935,-0.08683 -0.18551,-0.163085 -0.28125,-0.25 l -0.5625,0.09375 -0.53125,-0.59375 0,0.71875 0.4375,0.34375 0.3125,0.34375 0.40625,-0.4375 c 0.10019,0.187644 0.18176,0.343606 0.28125,0.53125 l 0,0.59375 -0.4375,0.5 -0.84375,0.5625 -0.59375,0.59375 c 0.28953,-0.02084 0.57906,-0.05646 0.875,-0.09375 l 0,0.40625 -0.59375,1.4375 -0.53125,0.625 -0.4375,0.96875 0,1.5625 0.125,0.625 -0.25,0.28125 -0.53125,0.34375 -0.59375,0.46875 0.5,0.53125 -0.65625,0.5625 0.125,0.375 -0.46875,0.53125 c -0.239394,0.202387 -0.464375,0.378365 -0.71875,0.5625 l -0.4375,0 -0.53125,0.34375 -0.34375,0 0,-0.46875 -0.15625,-0.875 c -0.192364,-0.564985 -0.390036,-1.126547 -0.59375,-1.6875 0,-0.414065 0.0065,-0.836005 0.03125,-1.25 l 0.25,-0.5625 -0.34375,-0.6875 0.03125,-0.90625 -0.46875,-0.53125 0.21875,-0.78125 -0.375,-0.4375 -0.65625,0 -0.25,-0.25 -0.65625,0.40625 -0.28125,-0.3125 -0.625,0.53125 c -0.422066,-0.47849 -0.827322,-0.92811 -1.25,-1.40625 l -0.5,-1.1875 0.4375,-0.6875 -0.25,-0.28125 0.5625,-1.28125 c 0.448805,-0.558286 0.900829,-1.087434 1.375,-1.625 l 0.84375,-0.25 0.9375,-0.09375 0.65625,0.15625 0.9375,0.9375 0.3125,-0.375 0.4375,-0.0625 0.84375,0.28125 0.65625,0 0.4375,-0.375 L 99,21.15625 98.53125,20.875 l -0.75,-0.0625 c -0.207004,-0.287144 -0.37923,-0.588609 -0.625,-0.84375 l -0.25,0.09375 -0.09375,0.75 -0.46875,-0.5 L 96.25,19.75 l -0.5,-0.40625 -0.1875,0 0.5,0.5625 -0.21875,0.5 -0.375,0.125 0.25,-0.5 -0.46875,-0.21875 -0.375,-0.46875 -0.75,0.1875 -0.09375,0.21875 -0.46875,0.28125 -0.25,0.625 -0.625,0.28125 -0.25,-0.28125 -0.3125,0 0,-1.03125 0.65625,-0.34375 0.5,0 -0.09375,-0.375 L 92.78125,18.5 93.4375,18.375 93.8125,17.9375 93.96875,17.65625 93.5625,18.0625 93,18.15625 93.125,17.5 l 0,-0.53125 -0.21875,-0.21875 0,-0.34375 0.3125,0 c 0.146271,0.298495 0.289381,0.595033 0.40625,0.90625 l 0.34375,0.34375 0.15625,-0.21875 0.53125,0 -0.15625,-0.40625 0.375,-0.21875 0,0.4375 0.71875,0.1875 0.75,-0.625 0.0625,-0.28125 0.65625,-0.4375 c -0.23374,0.02907 -0.490348,0.03158 -0.71875,0.09375 l 0,-0.5 0.25,-0.5625 -0.25,0 -0.53125,0.5 -0.15625,0.28125 0.15625,0.40625 -0.25,0.65625 L 95.15625,16.75 94.8125,16.375 94.28125,16.75 94.0625,15.84375 95,15.25 95,14.90625 95.59375,14.5 l 0.9375,-0.21875 z m -13.21875,0.40625 -0.03125,0.4375 -0.5625,0.5 -1.21875,0.75 0.125,0.5 0.9375,0.375 0.15625,0.6875 0.34375,-0.71875 0.5625,-0.25 -0.0625,-0.3125 0.5625,-0.96875 0.6875,0.40625 -0.09375,0.4375 0.59375,-0.21875 0.25,0.5 -0.09375,0.34375 L 85.8125,17.25 86.125,17.5625 86,17.875 l -0.84375,0.28125 -0.59375,0 -0.84375,0.40625 1.34375,0 -0.4375,0.65625 -0.90625,0.1875 -0.40625,0.5625 L 82.625,20.25 82.28125,21.09375 81.34375,21.875 81.25,23 80.6875,22.3125 79.9375,22.15625 79.84375,22.5 l -0.59375,0 -0.75,0.5625 -0.09375,0.65625 0.0625,0.625 0.46875,0.28125 0.375,-0.15625 0.34375,-0.4375 0.34375,0 c -0.05012,0.39396 -0.106476,0.762221 -0.15625,1.15625 l 0.59375,-0.0625 0,0.625 0.1875,0.5625 c 0.241123,0.148257 0.604199,0.171837 0.875,0.25 l 0,-0.125 0.875,-0.78125 0.84375,0.625 1,-0.125 0.40625,1.0625 0.71875,0.15625 0.40625,0.8125 c 0.810008,0.416663 1.621407,0.814053 2.4375,1.21875 L 88.09375,30.25 87.5,31.09375 l 0.09375,1.125 -0.40625,0.90625 -0.75,0.1875 -0.3125,0.5 0.125,0.34375 -0.5,1.21875 -0.625,0.21875 L 84.96875,36 l -0.25,0.25 c -0.633642,-0.311979 -1.245285,-0.682855 -1.8125,-1.09375 L 83.0625,34.46875 82.78125,33.8125 82.8125,32.625 82.4375,32.0625 81.53125,31.28125 80.625,29.625 l 0.25,-0.8125 -0.09375,-0.25 0.3125,-0.4375 0.40625,-1.0625 0,-0.09375 -0.3125,-0.125 -0.40625,0.03125 -0.6875,-0.5 -0.4375,-0.5625 -1.0625,-0.28125 -0.84375,-0.5 c 0.005,-4.323818 2.219279,-8.112937 5.5625,-10.34375 z m -17,0.21875 c -4.763287,0 -9.304958,5.737788 -8,11.8125 1.26611,5.906331 3.013511,10.625 6.5625,10.625 3.306114,0 5.85889,-5.070848 7.125,-11.09375 1.27905,-6.077952 -0.927464,-11.34375 -5.6875,-11.34375 z M 91.625,15 91.90625,15.34375 91.3125,15.75 90.96875,15.53125 91.03125,15.1875 91.21875,15.25 91.625,15 z m -6.5625,0.125 0.5,0.21875 0,0.40625 -0.40625,0 -0.5,-0.34375 0.40625,-0.28125 z m 7.65625,1.96875 0.1875,0.5 -0.4375,0.21875 -0.09375,-0.59375 0.34375,-0.125 z M 85.84375,18.125 86.3125,18.4375 86,18.90625 85.84375,18.125 z m 13,4.375 -0.15625,0.15625 0.21875,0.84375 0.4375,0.46875 c 0.241057,0.695874 0.464693,1.33483 0.78125,2 0.18025,0 0.35596,0.01187 0.53125,0 l -0.375,-0.4375 0.1875,-0.5 -0.375,-0.46875 -0.6875,-1.40625 L 98.84375,22.5 z M 43.75,23.46875 c -0.270541,0.0087 -0.541908,0.03405 -0.8125,0.09375 -4.329359,0.961721 -6.036262,6.724283 -3.65625,11.84375 2.312026,4.973751 4.77159,8.812613 8,8.09375 3.004968,-0.667053 4.344888,-5.657769 4.3125,-11.25 C 51.5678,27.314295 48.259416,23.688993 44.53125,23.5 44.264949,23.4865 44.020541,23.460061 43.75,23.46875 z m -14.84375,13.0625 c -0.659088,0.05273 -1.309697,0.243131 -1.9375,0.5625 -3.348209,1.709728 -3.603102,6.742805 -0.5625,10.4375 2.953156,3.587836 5.850398,6.21008 8.34375,4.9375 2.331448,-1.185152 2.336052,-5.608798 1.125,-10.1875 -0.915581,-3.470453 -3.609629,-5.604131 -6.3125,-5.75 -0.225239,-0.01216 -0.436554,-0.01758 -0.65625,0 z m 46.875,9.15625 C 72.256421,45.6941 68.056923,46.035352 63,46.8125 33.154249,51.397678 30.875,70.357304 30.875,79.09375 c 0,8.739686 12.321871,33.62814 33.34375,36.9375 21.021869,3.30288 29.487951,-13.75079 30.90625,-15.875 1.418299,-2.124212 3.583363,-7.77479 0.75,-10.375 -2.833357,-2.596971 -14.427018,-0.748429 -17.5,0.90625 -3.072963,1.65468 -1.661059,8.060049 -3.3125,10.1875 -1.654682,2.12097 -5.926244,3.03045 -9.46875,0.90625 C 62.051244,99.650563 59.26441,94.053773 61.625,89.5625 63.988832,85.074466 88.056846,72.502429 92.78125,67.78125 c 4.72441,-4.727654 1.678674,-13.447895 0.5,-16.28125 0,0 -2.225705,-5.840824 -17.5,-5.8125 z" style="fill:#aaaaaa"/>
</svg>