<?xml version="1.0" encoding="UTF-8" standalone="no"?>
<svg xmlns:dc="http://purl.org/dc/elements/1.1/"
     xmlns:cc="http://creativecommons.org/ns#"
     xmlns:rdf="http://www.w3.org/1999/02/22-rdf-syntax-ns#"
     xmlns:svg="http://www.w3.org/2000/svg"
     xmlns="http://www.w3.org/2000/svg"
     xmlns:xlink="http://www.w3.org/1999/xlink"
     width="128" height="128" version="1.1">
    <title>Gbrainy Icon</title>
    <desc>This is shape (source) for Clarity vector icon theme for gtk</desc>
    <metadata>
        <rdf:RDF>
            <cc:Work rdf:about="">
                <dc:title>Gbrainy Icon</dc:title>
                <dc:description>This is shape (source) for Clarity vector icon theme for gtk</dc:description>
                <dc:creator>
                    <cc:Agent>
                        <dc:title>Jakub Jankiewicz</dc:title>
                    </cc:Agent>
                </dc:creator>
                <dc:rights>
                    <cc:Agent>
                        <dc:title>Jakub Jankiewicz</dc:title>
                    </cc:Agent>
                </dc:rights>
                <dc:date>2010</dc:date>
                <dc:format>image/svg+xml</dc:format>
                <dc:type rdf:resource="http://purl.org/dc/dcmitype/StillImage" />
                <cc:license rdf:resource="http://creativecommons.org/licenses/by-sa/3.0/" />
             </cc:Work>
        </rdf:RDF>
    </metadata>
    <path d="M 16.661375,7.0229417 15.594389,7.200762 14.527402,7.5564258 13.638247,7.912087 12.749091,8.2677482 11.859936,8.8012427 10.97078,9.5481317 10.259458,10.259457 9.5481324,10.970782 8.8012434,11.859937 8.2677489,12.74909 7.9120877,13.638246 7.5564239,14.527401 7.200763,15.594388 l -0.177821,1.066986 0,1.066986 0,92.54328 0,1.06699 0.177821,1.06698 0.3556609,1.06699 0.3556638,0.88915 0.3556612,1.06699 0.5334945,0.88916 0.746889,0.71132 0.7113256,0.88915 0.711322,0.5335 0.889156,0.74689 0.889155,0.53349 0.889156,0.35566 0.889155,0.35567 1.066987,0.35566 1.066986,0.17782 1.066986,0 92.543279,0 1.06699,0 1.06698,-0.17782 1.06699,-0.35566 0.88915,-0.35567 1.06699,-0.35566 0.88916,-0.53349 0.71132,-0.74689 0.88916,-0.5335 0.53349,-0.88915 0.74689,-0.71132 0.53349,-0.88916 0.35567,-1.06699 0.35566,-0.88915 0.35566,-1.06699 0.17782,-1.06698 0,-1.06699 0,-92.54328 0,-1.066986 -0.17782,-1.066986 -0.35566,-1.066987 -0.35566,-0.889155 -0.35567,-0.889156 -0.53349,-0.889153 -0.74689,-0.889155 -0.53349,-0.711325 -0.88916,-0.7113253 -0.71132,-0.746889 -0.88916,-0.5334945 -1.06699,-0.3556612 -0.88915,-0.3556612 -1.06699,-0.3556638 -1.06698,-0.1778203 -1.06699,0 -92.543279,0 -1.066986,0 z m 39.51406,14.0842183 1.422648,0 2.845297,0 2.845298,0.17782 3.73445,0.17782 3.734453,0.533495 3.734451,0.889155 1.778311,0.355662 1.956142,0.533494 1.778311,0.711322 1.778309,0.533495 3.592189,1.422647 1.600478,0.889156 1.778311,0.711325 1.600478,0.889156 1.600481,0.889155 1.600478,0.889153 1.42265,0.889156 1.422648,1.066986 1.42265,0.889156 2.489632,2.133972 2.31181,2.133973 1.06698,1.066986 0.88916,1.066986 0.88915,1.066987 0.88916,1.244816 0.35566,0.533495 0.17782,0.533492 0.71132,1.066986 0.35567,1.066986 0.53349,1.102553 -0.17782,0.533494 0,0.355662 -0.35566,0.533494 -0.35566,0.533492 -0.35567,0.355664 -0.53349,0.533491 -0.71133,0.355662 -0.71132,0.355663 -0.71132,0.177821 -0.71133,0 -0.88915,0 -0.71133,0 -0.88915,-0.355661 -0.88916,-0.533495 -0.889154,-0.533492 -0.889155,-0.889155 -1.066986,-1.066987 -0.889153,-0.711325 -0.533495,-0.17782 -0.355661,-0.17782 -0.355664,-0.213405 -0.355661,0 -0.711325,0.213405 -0.533492,0.355661 -0.533494,0.533495 -0.533492,0.533491 -1.244817,1.066987 -0.533495,0.355661 -0.711325,0.355664 -0.355661,0 -0.355661,0 -0.711325,0 -0.533492,-0.177821 -0.533494,-0.355663 -0.533495,-0.355662 -0.533491,-0.355661 -0.711325,-0.533494 -0.711323,-0.355662 -0.533494,-0.17782 -0.711325,-0.17782 -0.711323,0 -0.533494,0.17782 -0.533492,0.17782 -0.569061,0.355662 -0.533492,0.355661 -0.355661,0.355664 -0.355664,0.533492 -0.355661,0.533494 -0.355661,0.533492 0,0.711325 -0.177821,0.533492 0,0.711325 -1.422647,-1.066987 -0.889156,-0.711325 -0.889155,-0.533491 -0.533492,-0.177821 -0.17782,0 -0.355664,0 -0.17782,0.177821 -0.355662,0.533491 -0.711325,1.42265 -0.355661,0.889156 -0.355664,0.355661 -0.355661,0.355662 -0.533492,0.17782 -0.533494,0.355664 -0.711325,0.17782 -0.889156,0.17782 -2.133972,0.17782 -1.778309,0.177846 -1.42265,0.355662 -1.422648,0.533492 -0.533494,0.17782 -0.533492,0.355661 -0.533494,0.355661 -0.533492,0.355664 -0.355661,0.533492 -0.533495,0.533494 -0.711325,1.066986 -0.711322,0.177821 -0.711325,0.17782 -0.711325,0 -0.711323,0 -0.889155,-0.889156 -0.889156,-1.066986 -0.533494,-1.066986 -0.355662,-1.066986 -0.355661,-1.066987 -0.17782,-1.066986 -0.17782,-1.244817 0.17782,-1.244817 0.17782,-1.066986 0.177821,-0.711325 0.533491,-0.711325 0.355664,-0.711322 0.711325,-0.533495 0.533492,-0.569058 0.533494,-0.355664 1.066987,-0.889156 2.311803,-1.600478 0.889155,-0.533494 0.7113,-0.711281 L 63.288678,39.7794 64,38.712413 l 0.533494,-1.066986 0.533492,-1.066986 0.533495,-1.066986 0.533491,-1.066987 0.355664,-0.889155 0.177821,-0.889156 0,-0.889155 0,-0.711323 -0.177821,-0.889156 -0.17782,-0.533494 -0.355664,-0.711322 -0.355661,-0.355664 -0.17782,-0.355661 L 64.711325,27.509059 64.355664,27.153395 64,26.797734 63.110844,26.26424 61.154705,25.197253 59.020733,24.130267 55.46411,22.70762 l -1.066986,-0.533495 -0.355661,-0.17782 0,-0.17782 0.17782,-0.17782 0.17782,-0.177821 0.711325,-0.17782 1.066986,-0.17782 z m -4.97927,1.066986 0.711325,0 0.711323,0.17782 1.244819,0.177821 1.066986,0.533494 1.066986,0.355661 2.489634,1.24482 2.311803,1.066986 1.066987,0.711322 1.066986,0.711325 0.711325,0.889156 L 64,28.398212 l 0.355664,0.533495 0.355661,0.711322 0.17782,0.711325 0,0.533494 0.177821,0.711323 -0.177821,1.244817 -0.355661,1.244819 -0.355651,1.422648 -0.889155,1.600478 -0.889156,1.42265 -0.355664,0.533492 -0.355661,0.533494 -0.533492,0.711325 -0.355664,0.355661 -1.066986,1.066987 -1.066986,1.066986 -1.244817,0.889155 -1.600478,1.066987 -0.355664,0.355661 -0.533492,0.17782 -0.711325,0.746892 -0.533494,0.711325 -0.533492,0.533492 -0.355661,0.711325 -0.355664,0.889155 -0.355661,1.244817 0,0.533492 0,0.533494 0,1.244817 0.355661,1.244817 0.17782,0.711325 0.17782,0.533492 0.711323,1.244819 0.889156,1.244817 0.889155,1.244817 -0.711325,0 -0.711322,-0.17782 -0.889156,-0.17782 -0.711325,0 -0.711325,0.17782 -0.533492,0.17782 -0.355661,0.17782 -0.355664,0.177821 -0.17782,0.355663 -0.17782,0.177821 -0.355662,0.711322 -0.177846,0.889156 -0.533492,0.889155 -0.711325,0.889156 -0.533491,0.533494 -0.889156,0.355662 -0.889156,0.355661 -0.746891,0.533494 -1.422648,1.066986 -1.244817,1.066987 -1.066986,1.244817 -1.956142,2.667466 -1.956142,2.667465 0.177821,-0.533492 -1.422648,0.355661 -1.60048,0.355661 -1.422648,0.177821 -1.600478,0 -1.600481,-0.177821 -1.60048,-0.17782 -1.600452,-0.35563 -1.42265,-0.711325 -1.422648,-0.533492 -1.42265,-0.889155 -1.244817,-0.889156 -1.244817,-1.066986 -1.066986,-1.066987 -0.889156,-1.244816 -0.889155,-1.24482 -0.889153,-1.422647 -0.711325,-1.422648 -0.177821,-0.711325 -0.355663,-0.889155 -0.177821,-0.711326 -0.17782,-0.711322 -0.355661,-1.600481 0.17782,-2.667464 0.533492,-2.489636 0.533494,-2.489634 0.711325,-2.489634 0.533492,-1.244819 0.533495,-1.280384 0.533491,-1.244816 0.533495,-1.066987 1.422647,-2.311803 1.600478,-2.311803 1.600481,-2.133972 0.889156,-0.889156 1.066986,-1.066986 1.956142,-1.778311 2.133972,-1.778312 2.311803,-1.600478 2.489637,-1.422647 2.489633,-1.244817 2.667467,-1.24482 2.845295,-1.066986 3.023128,-0.711322 3.058695,-0.711325 3.200959,-0.533495 z m 43.959836,24.754083 0.355661,0 0.355664,0 0.355661,0 0.711325,0.355662 0.533492,0.355661 0.533494,0.355664 1.066987,1.066986 0.889155,0.889156 0.71132,0.711322 0.88916,0.533494 0.71132,0.355662 0.71133,0.17782 0.71132,0 0.71133,0 0.53349,-0.17782 0.71132,-0.177821 0.5335,-0.355661 0.53349,-0.355664 0.53349,-0.533491 0.88916,-0.889156 0.88915,-0.889156 0.35567,-0.17782 0.53349,0.17782 0.17782,0.177821 0.17782,0.17782 0.17784,0.355664 0.17783,0.355661 0.35566,0.711325 0.35566,1.066986 0.53349,2.311803 0.5335,2.667467 0.53349,2.845295 0.35566,2.667467 0.17784,2.311803 0,3.023128 0.17782,1.778311 0,1.600478 -0.17782,1.422651 -0.17784,1.066986 -0.17782,0.533492 -0.17782,0.355661 -0.35566,0.17782 -0.35567,0 -0.71132,0 -1.42265,-0.17782 -4.80144,-0.17782 -2.84529,-0.177821 -3.200962,0 -3.023128,0.177821 -1.422648,0 -1.244819,0.17782 0.355664,-1.422648 0.355661,-1.244817 0.355661,-1.42265 0,-1.422647 0,-1.422647 -0.17782,-1.422651 -0.355674,-1.422637 -0.533495,-1.244816 -0.533492,-1.244817 -0.533494,-1.24482 -0.711322,-1.066986 -1.066987,-0.889153 -0.711325,-0.711325 -0.711325,-0.711325 -0.711322,-0.533492 -0.711325,-0.355664 -1.778311,-0.711322 -1.600479,-0.533495 -1.066986,-0.711322 -1.066986,-0.711325 -0.924722,-0.711325 -0.889156,-0.711325 0,-0.533492 0,-0.711325 0.17782,-0.533492 0.177821,-0.533494 0.17782,-0.533492 0.355661,-0.355664 0.533494,-0.355661 0.391228,-0.355661 0.533492,-0.177821 0.533495,-0.17782 1.066986,0 0.711322,0.17782 0.533495,0.355662 0.711325,0.355661 0.711322,0.355664 1.066986,0.889153 0.533495,0.177846 0.533492,0.17782 0.711325,0.17782 0.889155,-0.17782 0.533492,-0.17782 0.711325,-0.533495 0.533494,-0.533491 0.533492,-0.533495 1.066987,-0.889155 0.533494,-0.355662 0.355661,-0.17782 z m -18.885658,3.37879 0.711325,0.533492 0.711323,0.355663 1.60048,1.244817 0.889156,0.711325 0.711325,0.711323 0.711322,0.533494 1.102553,0.355661 1.244817,0.533495 1.42265,0.711322 1.422648,0.711325 1.066986,0.711325 1.066986,0.889156 0.889156,1.244817 0.711325,1.066986 0.711322,1.066986 0.533495,1.066987 0.355661,1.422647 0.17782,1.244817 0.17782,1.42265 0,1.422647 -0.17782,1.422648 -0.17782,1.42265 -0.355661,1.422647 -0.355664,1.42265 -0.355662,0.711323 -0.17782,0.711325 -0.889155,1.244817 -0.355662,0.711325 -0.533494,0.533492 -1.066986,1.066986 -1.066987,0.889155 -0.889155,0.533495 -0.889156,0.355661 -1.956139,1.066986 -2.525203,0.924723 -2.489634,0.889155 -4.445775,1.600478 -2.489637,0.711325 -2.845294,0.711325 -2.667467,0.711323 -2.845298,0.355664 -2.667464,0.355661 -2.489636,0 -2.489634,0 -1.244817,0 -1.244817,-0.177821 -2.311806,-0.355663 -2.133972,-0.533492 -1.066986,-0.355661 -1.066987,-0.355664 -0.924719,-0.355661 -0.889156,-0.355664 -1.778311,-0.889153 -1.422648,-1.066986 -1.244816,-1.24482 -1.066987,-1.458214 -0.355663,-0.711322 -0.355662,-0.711325 -0.355664,-1.066987 -0.17782,-1.244817 -0.17782,-1.066986 0,-1.244819 1.956142,-2.667465 1.066986,-1.422647 0.889156,-1.244819 1.066986,-1.244817 1.244817,-1.244817 0.711325,-0.533495 0.711322,-0.355661 0.924723,-0.533492 0.711325,-0.533494 0.889155,-0.355661 0.533492,-0.533495 0.533494,-0.355661 0.355662,-0.533494 0.355661,-0.889153 0.711325,-1.42265 0.533494,-0.533492 0.177821,-0.355664 0.355661,-0.17782 0.711325,-0.177821 0.889155,0 1.066987,0 1.600478,0.177821 0.711325,0.17782 0.889155,-0.17782 0.533492,-0.177821 0.711325,-0.17782 1.244817,-0.533494 1.066986,-0.533492 2.133973,-1.600481 L 64,56.353275 l 0.711325,-0.355664 0.711325,-0.355661 1.600478,-0.355661 0.889156,-0.17782 1.066986,-0.177821 1.422647,-0.17782 1.24482,-0.355661 1.066986,-0.533495 0.889156,-0.533491 0.711322,-0.711325 0.711325,-0.711325 1.244817,-1.600479 z m 27.243717,23.829361 2.13397,0.17782 1.60048,0 1.24482,0.17782 0.35566,0 0.17782,0.177821 0.35567,0.17782 0.17782,0.17782 0.17782,0.355661 0,0.177821 -0.17782,0.533494 -0.17782,0.533492 -1.06699,1.066986 -0.35566,0.711325 -0.35567,0.533492 0.5335,1.956142 0.17782,1.066986 0,1.102553 0,1.422647 -0.17782,0.889156 0,0.711325 -0.35566,1.422648 -0.35567,0.711325 -0.17782,0.711325 -0.71132,1.244816 -0.35566,0.711326 -0.5335,0.533491 -0.35566,0.533495 -0.53349,0.711322 -1.06699,1.066986 -1.06698,0.889156 -1.24482,0.889156 -1.42265,0.711325 -1.42265,0.711322 -1.600478,0.533495 -1.600481,0.355661 -1.600478,0.355664 -1.778311,0 -3.912284,0.17782 -1.422647,-0.17782 -1.42265,-0.177847 -1.422648,-0.355661 -1.422647,-0.355661 -1.280384,-0.533494 -1.066986,-0.533492 -1.244819,-0.711325 -1.066986,-0.711325 -0.889154,-0.711323 -0.889155,-0.889155 -0.711325,-0.889156 -0.533492,-0.889156 -0.533494,-0.889155 -0.355662,-1.066986 -0.355663,-1.066987 0,-1.066986 0,-0.711322 0,-0.533495 1.244819,-0.711325 1.066986,-0.355661 2.489634,-0.889156 2.667467,-0.711325 1.244817,-0.533492 1.102553,-0.355661 1.956139,-0.924722 1.066986,-0.355661 0.711325,-0.533495 0.533495,-0.355661 0.711322,-0.355664 1.066986,-0.711322 0.889156,-0.889156 0.889155,-0.889155 1.422648,-1.778234 0.533494,-0.889156 5.512762,-0.533491 4.97927,-0.177821 z m -32.045154,13.906388 3.37879,7.646734 0.711322,0.17782 1.956142,0.711325 1.066986,0.533495 1.066986,0.711322 0.711325,0.711325 0.355662,0.355661 0.355663,0.355664 1.458215,3.378786 1.600478,2.8453 1.60048,3.20096 -9.460612,3.37879 -3.378789,-8.89155 -5.334931,-3.912286 -4.80144,-9.425045 8.713723,-1.778312 z" style="fill:#aaaaaa"/>
</svg>