<?xml version="1.0" encoding="UTF-8" standalone="no"?>
<svg xmlns:dc="http://purl.org/dc/elements/1.1/"
     xmlns:cc="http://creativecommons.org/ns#"
     xmlns:rdf="http://www.w3.org/1999/02/22-rdf-syntax-ns#"
     xmlns:svg="http://www.w3.org/2000/svg"
     xmlns="http://www.w3.org/2000/svg"
     xmlns:xlink="http://www.w3.org/1999/xlink"
     width="128" height="128" version="1.1">
    <title>3D Molecule Icon</title>
    <desc>This is shape (source) for Clarity vector icon theme for gtk</desc>
    <metadata>
        <rdf:RDF>
            <cc:Work rdf:about="">
                <dc:title>3D Molecule Icon</dc:title>
                <dc:description>This is shape (source) for Clarity vector icon theme for gtk</dc:description>
                <dc:creator>
                    <cc:Agent>
                        <dc:title>Jakub Jankiewicz</dc:title>
                    </cc:Agent>
                </dc:creator>
                <dc:rights>
                    <cc:Agent>
                        <dc:title>Jakub Jankiewicz</dc:title>
                    </cc:Agent>
                </dc:rights>
                <dc:date>2010</dc:date>
                <dc:format>image/svg+xml</dc:format>
                <dc:type rdf:resource="http://purl.org/dc/dcmitype/StillImage" />
                <cc:license rdf:resource="http://www.gnu.org/copyleft/gpl.html" />
             </cc:Work>
        </rdf:RDF>
    </metadata>
    <path d="M 63.960597,6.2409805 C 57.822904,7.8564439 53.628145,12.215657 52.534868,19.321466 c 0,4.217512 1.974393,7.88832 5.043082,10.243756 l 0.472788,30.494874 c -6.720482,2.741472 -11.490857,9.236556 -11.74092,16.862795 L 27.319472,81.17799 c -2.255919,-2.415109 -5.516676,-3.315834 -8.588996,-3.545917 -7.148204,0 -13.0016898,5.631295 -13.0016898,12.686498 0,7.054771 5.8443638,12.765289 13.0016898,12.765289 4.852797,0 9.18126,-2.52067 11.425729,-6.46144 0.11686,-0.19603 0.04442,-0.412069 0.0788,-0.630387 l 21.433085,-5.437069 c 2.035901,1.94955 4.009735,4.054259 6.619043,4.570291 -4.28237,2.646456 -6.910195,6.884855 -7.564621,12.213705 l 0,0.0788 c 0,8.04811 6.642998,14.34125 14.498855,14.34125 7.855852,0 14.420056,-6.2966 14.420056,-14.34125 0,-5.48017 -3.20778,-9.944884 -7.643416,-12.371313 2.406993,-0.925773 4.374401,-2.516529 6.303848,-4.1763 l 19.935927,5.200677 c 0.81841,2.55424 2.392136,4.439616 4.333896,5.752266 2.04976,1.38565 4.51408,2.19151 7.17063,2.52153 l 0.0788,0 c 6.85027,0 12.4501,-5.532793 12.4501,-12.2925 0,-6.733034 -5.55784,-12.170567 -12.3713,-12.213709 -0.027,-1.72e-4 -0.0518,0 -0.0788,0 -2.41144,-0.13405 -4.46739,0.764166 -6.14625,1.969954 L 83.896527,77.238082 c -0.13421,-7.729745 -4.877063,-14.307856 -11.662122,-17.099193 -0.162843,-8.620185 -0.08568,-27.547312 -0.0788,-29.706891 3.842483,-2.236005 6.540244,-6.280942 6.540244,-11.110535 0,-7.293047 -5.955452,-13.0804852 -13.080488,-13.0804852 l -1.654759,0 z m 1.65476,4.0187035 c 5.340076,0 9.455775,4.186659 9.455775,9.061782 0,4.875126 -4.115699,8.982987 -9.455775,8.982987 -5.340075,0 -9.455774,-4.107861 -9.455774,-8.982987 0,-4.875123 4.115699,-9.061782 9.455774,-9.061782 z m -4.806684,20.881501 c 1.519724,0.603515 3.08642,1.18197 4.806684,1.18197 1.154294,0 2.226609,-0.272406 3.309521,-0.551589 -0.0159,3.787384 -0.02437,21.682675 0.157597,29.470497 -2.691415,1.134119 -4.652368,1.077467 -7.801013,-0.0788 L 60.808673,31.141185 z M 46.546211,80.074818 c 0.380724,2.820171 1.349464,5.442931 2.836733,7.722215 l -19.857125,5.200676 c -1.340866,-1.383253 -2.090822,-2.562257 -2.285145,-3.861108 -0.182892,-1.222475 0.10502,-2.91773 0.551586,-4.806687 l 18.753951,-4.255096 z m 37.035118,0.472789 19.541931,4.412691 c 0.4467,1.889265 0.81331,3.584044 0.63039,4.806685 -0.18706,1.250172 -1.01687,2.448655 -2.28515,3.782313 L 80.508201,88.112224 c 1.549421,-2.235111 2.615485,-4.774557 3.073128,-7.564617 z m -64.850853,0.551584 c 1.982015,0 4.170047,0.648002 5.673465,1.575964 -0.656304,2.282912 -0.770777,4.568685 -0.787981,6.776635 l 0,0.0788 c 0.318304,2.127532 1.568479,4.032206 3.230723,5.831062 -1.746406,2.351861 -4.926118,4.255097 -8.116207,4.255097 -5.300312,0 -9.5345713,-4.169753 -9.5345713,-9.298176 0,-5.128934 4.2237043,-9.219383 9.5345713,-9.219383 z m 47.278873,1.654763 c 2.477647,0.121892 4.656241,1.170679 5.673463,2.994327 l 0,0.0788 0.157597,9.061787 C 67.708631,92.14578 63.249434,93.001718 58.83872,94.652475 l 0,-9.06178 0.0788,-0.0788 c 1.927397,-2.039027 4.616525,-2.879737 7.091831,-2.757935 z m 43.811751,0.709179 c 4.89496,0 8.74659,3.862724 8.74659,8.588998 0,4.726267 -3.85163,8.588999 -8.74659,8.588999 -2.73127,0 -5.59639,-1.497905 -7.24942,-3.388322 1.07714,-0.674625 2.13394,-1.388564 2.75793,-2.442742 2.26102,-3.486245 2.0556,-6.789407 1.33957,-10.716545 0.96523,-0.290707 2.22894,-0.630388 3.15192,-0.630388 z M 65.221367,97.331601 c 5.96815,0 10.558949,4.630769 10.558949,10.086169 0,5.45539 -4.594926,10.08615 -10.558949,10.08615 -5.964027,0 -10.558947,-4.63076 -10.558947,-10.08615 0,-5.4554 4.590795,-10.086169 10.558947,-10.086169 z" style="fill:#aaaaaa"/>
</svg>