<?xml version="1.0" encoding="UTF-8" standalone="no"?>
<svg xmlns:dc="http://purl.org/dc/elements/1.1/"
     xmlns:cc="http://creativecommons.org/ns#"
     xmlns:rdf="http://www.w3.org/1999/02/22-rdf-syntax-ns#"
     xmlns:svg="http://www.w3.org/2000/svg"
     xmlns="http://www.w3.org/2000/svg"
     xmlns:xlink="http://www.w3.org/1999/xlink"
     width="128" height="128" version="1.1">
    <title>GNUPG Icon</title>
    <desc>This is shape (source) for Clarity vector icon theme for gtk</desc>
    <metadata>
        <rdf:RDF>
            <cc:Work rdf:about="">
                <dc:title>GNUPG Icon</dc:title>
                <dc:description>This is shape (source) for Clarity vector icon theme for gtk</dc:description>
                <dc:creator>
                    <cc:Agent>
                        <dc:title>Jakub Jankiewicz</dc:title>
                    </cc:Agent>
                </dc:creator>
                <dc:rights>
                    <cc:Agent>
                        <dc:title>Jakub Jankiewicz</dc:title>
                    </cc:Agent>
                </dc:rights>
                <dc:date>2010</dc:date>
                <dc:format>image/svg+xml</dc:format>
                <dc:type rdf:resource="http://purl.org/dc/dcmitype/StillImage" />
                <cc:license rdf:resource="http://creativecommons.org/licenses/by-sa/3.0/" />
             </cc:Work>
        </rdf:RDF>
    </metadata>
    <path d="m 23.22168,62.117559 h 5.735413 V 44.853148 c 0,-19.353943 15.695944,-35.0498903 35.04968,-35.0498903 19.354349,0 35.0493,15.6959473 35.0493,35.0498903 v 17.093886 c -0.0829,0.05799 -0.16528,0.114761 -0.2465,0.170525 h 5.3e-4 l -0.0533,0.03596 -0.006,0.0041 -0.006,0.0034 -0.006,0.0039 -0.0265,0.01818 -0.0313,0.02121 -0.006,0.0042 -0.0343,0.02323 -0.002,0.0013 -0.01414,0.0091 -0.0081,0.005 -0.01613,0.01151 -0.0045,0.0026 -0.02081,0.01394 h -1.99e-4 l -0.02081,0.01414 -0.02811,0.01879 -0.01414,0.0091 -0.01216,0.0075 -0.01009,0.0063 -0.03153,0.02141 -0.03054,0.02001 -0.0018,9.91e-4 -0.03964,0.02627 -0.0081,0.0057 -0.04829,0.03172 -0.0045,0.0028 -0.02018,0.01313 -5.32e-4,4.03e-4 -0.0081,0.0049 -0.06324,0.04142 -0.01009,0.0065 -0.01414,0.0091 -0.0063,0.0039 -0.0045,0.0031 -0.03252,0.02122 -0.0045,0.0018 -9.01e-4,5.88e-4 -0.0018,0.0013 -0.03721,0.02404 -0.0081,0.005 -0.01216,0.0077 -0.01216,0.0071 -0.0081,0.0055 -0.02018,0.01273 -0.0182,0.01172 -0.0018,5.88e-4 -0.02018,0.01273 -0.0018,0.0014 -0.0182,0.01091 -0.0063,0.0036 -0.01414,0.0091 -0.01009,0.0057 -0.01009,0.0065 -0.01216,0.0078 -0.0081,0.0044 -0.106479,0.06688 -0.02261,0.01374 -0.0063,0.0034 -0.05693,0.03536 -0.0045,0.0028 -0.06486,0.03939 -0.0018,9.9e-4 -0.0045,0.0028 -0.0182,0.0105 -9.01e-4,5.88e-4 -0.0182,0.01132 -0.0018,0.0013 -0.01613,0.0099 -0.01612,0.0097 -0.0018,0.0014 -0.0081,0.0052 -0.02811,0.01676 -0.01414,0.0091 -0.02144,0.01293 -0.06261,0.03677 -0.06261,0.03677 -0.06306,0.03697 -0.06306,0.03718 -0.127288,0.07435 -0.06405,0.03718 -0.06423,0.03758 -0.02666,0.01535 -0.167889,0.09698 -0.06531,0.03758 -0.06585,0.03758 -0.06585,0.03799 -0.08666,0.0495 -0.113144,0.06405 -0.06711,0.03799 -0.260639,0.146481 -0.01216,0.006 -0.06873,0.03819 -0.06873,0.03859 -0.01613,0.0085 -0.09153,0.05051 -0.20548,0.112942 -0.09658,0.05293 c -0.0986,0.05354 -0.198201,0.107487 -0.298815,0.161433 l -0.02567,0.01394 -0.04684,0.02505 -0.146277,0.07779 -0.0736,0.0392 -0.01216,0.0065 -0.135162,0.07132 -5.4e-4,4.04e-4 -0.07477,0.03899 -0.02144,0.01112 -0.1289,0.06748 -0.07558,0.0392 -0.06928,0.03576 c -0.09435,0.04889 -0.189724,0.09779 -0.285897,0.146683 l -0.07855,0.04001 c -0.112938,0.05718 -0.227091,0.114761 -0.342461,0.172141 l -9.01e-4,4.05e-4 c -0.110109,0.05475 -0.221227,0.109709 -0.33357,0.164664 l -0.111532,0.05455 c -0.122027,0.0592 -0.245072,0.119005 -0.369729,0.178608 h -5.41e-4 c -6.961597,3.324703 -18.124085,6.862484 -39.314811,8.38367 -15.180532,1.09063 -24.383408,7.772206 -30.385918,15.835764 V 62.117559 Z m 21.879891,0 H 82.911777 V 44.853148 c 0,-10.439786 -8.465616,-18.905407 -18.905004,-18.905407 -10.439172,0 -18.905202,8.465621 -18.905202,18.905407 z m 48.978567,2.722939 c -0.113145,0.05718 -0.226893,0.114559 -0.342461,0.172141 M 79.884362,18.282415 c -4.494658,-2.685763 -9.749205,-4.23099 -15.364194,-4.23099 -15.391265,0 -28.077973,11.596281 -29.803836,26.525069 4.512035,-14.11637 17.738406,-24.341992 33.349906,-24.341992 4.146936,0 8.125776,0.723316 11.818124,2.047913 z M 104.79188,68.725794 V 118.19674 H 35.005059 c 7.693006,-4.27726 13.426391,-3.84165 22.922228,-3.54142 12.931393,0.40894 27.220108,-5.00825 34.24738,-12.1812 7.028086,-7.173759 -0.636034,-1.69737 -8.591697,0.32085 -7.956878,2.01699 -23.353196,2.23176 -33.644685,-0.4734 32.413831,0.44188 45.028823,-10.043372 52.192685,-19.433744 7.16344,-9.390171 -3.098337,-1.630288 -9.746184,1.606852 -6.647426,3.240172 -18.241287,5.554982 -30.990026,3.866909 19.297569,-0.04 33.980682,-9.683538 43.39712,-19.635793 z" style="fill:#aaaaaa"/>
</svg>