<?xml version="1.0" encoding="UTF-8" standalone="no"?>
<svg xmlns:dc="http://purl.org/dc/elements/1.1/"
     xmlns:cc="http://creativecommons.org/ns#"
     xmlns:rdf="http://www.w3.org/1999/02/22-rdf-syntax-ns#"
     xmlns:svg="http://www.w3.org/2000/svg"
     xmlns="http://www.w3.org/2000/svg"
     xmlns:xlink="http://www.w3.org/1999/xlink"
     width="128" height="128" version="1.1">
    <title>Image Login Icon</title>
    <desc>This is shape (source) for Clarity vector icon theme for gtk</desc>
    <metadata>
        <rdf:RDF>
            <cc:Work rdf:about="">
                <dc:title>Image Login Icon</dc:title>
                <dc:description>This is shape (source) for Clarity vector icon theme for gtk</dc:description>
                <dc:creator>
                    <cc:Agent>
                        <dc:title>Jakub Jankiewicz</dc:title>
                    </cc:Agent>
                </dc:creator>
                <dc:rights>
                    <cc:Agent>
                        <dc:title>Jakub Jankiewicz</dc:title>
                    </cc:Agent>
                </dc:rights>
                <dc:date>2010</dc:date>
                <dc:format>image/svg+xml</dc:format>
                <dc:type rdf:resource="http://purl.org/dc/dcmitype/StillImage" />
                <cc:license rdf:resource="http://creativecommons.org/licenses/by-sa/3.0/" />
             </cc:Work>
        </rdf:RDF>
    </metadata>
    <path d="m 11.328125,19.90625 c -1.5003402,0 -2.71875,1.187159 -2.71875,2.6875 l 0,8.25 87.0625,0 0,-8.25 c 0,-1.500341 -1.21841,-2.6875 -2.71875,-2.6875 l -81.625,0 z m -2.71875,14.875 0,43.9375 c 0,1.500341 1.2184098,2.6875 2.71875,2.6875 l 53.28125,0 0,-15.21875 31.0625,0 0,-31.40625 -87.0625,0 z m 12.28125,14.6875 55.78125,0 c 1.212312,0 2.1875,0.975188 2.1875,2.1875 l 0,7.5625 c 0,1.212312 -0.975188,2.1875 -2.1875,2.1875 l -55.78125,0 c -1.212312,0 -2.1875,-0.975188 -2.1875,-2.1875 l 0,-7.5625 c 0,-1.212312 0.975188,-2.1875 2.1875,-2.1875 z m 1.15625,2.0625 0,7.75 4.28125,0 0,-7.75 -4.28125,0 z m 46.09375,18.4375 0,38.125 51.250005,0 0,-38.125 -51.250005,0 z m 3.46875,4.34375 44.312505,0 0,21.03125 c -2.30386,2.16637 -6.51419,5.39139 -10.875,4.625 -8.545504,-1.50182 -15.390165,-9.36199 -28.718755,-2.90625 -2.42761,1.17582 -3.87368,2.77712 -4.71875,4.0625 l 0,-26.8125 z m 32.093755,5.0625 c -2.4582,0 -4.437505,2.010559 -4.437505,4.46875 0,2.45819 1.979305,4.4375 4.437505,4.4375 2.45819,0 4.46875,-1.97931 4.46875,-4.4375 0,-2.458191 -2.01056,-4.46875 -4.46875,-4.46875 z" style="fill:#aaaaaa"/>
</svg>