<?xml version="1.0" encoding="UTF-8" standalone="no"?>
<svg xmlns:dc="http://purl.org/dc/elements/1.1/"
     xmlns:cc="http://creativecommons.org/ns#"
     xmlns:rdf="http://www.w3.org/1999/02/22-rdf-syntax-ns#"
     xmlns:svg="http://www.w3.org/2000/svg"
     xmlns="http://www.w3.org/2000/svg"
     xmlns:xlink="http://www.w3.org/1999/xlink"
     width="128" height="128" version="1.1">
    <title>GhostScript Logo</title>
    <desc>This is shape (source) for Clarity vector icon theme for gtk</desc>
    <metadata>
        <rdf:RDF>
            <cc:Work rdf:about="">
                <dc:title>GhostScript Logo</dc:title>
                <dc:description>This is shape (source) for Clarity vector icon theme for gtk</dc:description>
                <dc:creator>
                    <cc:Agent>
                        <dc:title>Jakub Jankiewicz</dc:title>
                    </cc:Agent>
                </dc:creator>
                <dc:rights>
                    <cc:Agent>
                        <dc:title>Jakub Jankiewicz</dc:title>
                    </cc:Agent>
                </dc:rights>
                <dc:date>2010</dc:date>
                <dc:format>image/svg+xml</dc:format>
                <dc:type rdf:resource="http://purl.org/dc/dcmitype/StillImage" />
                <cc:license rdf:resource="http://www.gnu.org/copyleft/gpl.html" />
             </cc:Work>
        </rdf:RDF>
    </metadata>
    <path d="m 74.031807,19.731046 c 0,0 6.132768,1.469198 6.769103,7.30867 0.961154,8.835405 -10.999792,9.573514 -10.999792,14.825807 0,5.252059 9.663124,7.627936 9.295254,13.219372 -0.343526,5.240631 -9.761243,7.82371 -9.761243,7.82371 C 85.538851,60.221916 90.62428,52.210928 91.175297,45.434018 91.725532,38.656638 84.197725,33.759767 84.197725,33.759767 85.899234,20.907089 74.031807,19.731046 74.031807,19.731046 z m -0.502778,1.814905 c 0,0 2.084048,1.238669 1.263076,3.666597 -0.821051,2.428555 -3.635126,2.600285 -11.956297,2.783671 -7.049838,0.155679 -17.277929,1.002983 -24.010695,8.118019 -7.054532,7.455823 -5.929919,19.651695 9.736717,24.537999 0,0 -16.909357,2.905536 -16.591661,12.31192 0.314958,9.346585 11.205495,11.592287 28.13102,11.944033 17.168478,0.356596 23.667335,2.060048 23.667335,6.106908 0,3.281069 -5.201799,5.126232 -13.109006,5.407925 -8.307475,0.297503 -14.157561,-0.896869 -14.212664,-3.212871 -0.07412,-3.109581 7.90955,-1.58191 7.90955,-1.58191 0,0 -2.959899,-1.297875 -6.830417,-1.128184 -2.762222,0.120612 -4.664693,1.512673 -4.721205,3.298711 -0.08258,2.625953 2.257989,4.837178 8.669848,5.89844 9.897999,1.637401 22.735766,1.526611 31.049582,-3.556232 6.202174,-3.79131 6.908582,-9.86987 4.65989,-13.758938 C 92.439467,74.176627 78.010027,71.903507 67.667378,71.578452 58.670738,71.29582 47.23744,70.675746 47.23744,67.445866 c 0,-4.394691 12.78325,-1.851385 12.618491,-7.271881 -0.147695,-4.855387 -12.084795,-5.013729 -10.423437,-17.020861 0.770641,-5.570068 7.635626,-8.600302 13.660835,-9.932923 6.025361,-1.332387 13.686934,-3.94304 13.832515,-7.247355 0.146366,-3.304472 -3.396815,-4.426895 -3.396815,-4.426895 z m -9.798031,18.492405 c -0.926324,0.0245 -2.297685,1.759991 -2.072425,3.531706 0.225182,1.771558 1.927248,3.381135 2.894037,2.881774 0.754831,-0.389862 -0.644242,-1.403482 -0.564092,-3.188346 0.09157,-2.017482 0.925684,-3.256442 -0.25752,-3.225134 z m -6.315377,1.814904 c -0.05916,0.005 -0.124305,0.0067 -0.196206,0.02453 -0.899632,0.224086 -1.885558,2.22835 -1.299864,3.911855 0.585455,1.683191 2.578922,2.89095 3.42134,2.195053 0.657074,-0.543427 -0.912475,-1.242472 -1.201761,-3.004402 -0.30687,-1.867322 0.163816,-3.201643 -0.723509,-3.127032 z m 6.732314,9.83482 c -0.334389,0.02029 -0.630751,0.0957 -0.8584,0.245258 -0.947377,0.623262 1.487907,1.269507 2.072424,3.139294 0.660441,2.113441 -0.0701,3.63934 1.643225,3.261923 1.341546,-0.294842 2.656529,-2.500382 1.630961,-4.267478 -0.832957,-1.435894 -3.039194,-2.466912 -4.48821,-2.378997 z M 39.376942,87.041929 c -4.86613,0.03771 -10.476104,1.401401 -10.705484,7.48035 -0.03961,1.051161 0.41155,13.746671 33.587996,13.746671 29.656853,0 36.043088,-12.307187 37.07065,-14.923907 -1.029434,2.24263 -6.944056,11.153067 -35.586843,10.362127 -16.085222,-0.44387 -24.047485,-4.39644 -24.047485,-9.4792 0,-6.099719 6.805892,-6.438006 6.805892,-6.438006 0,0 -3.339958,-0.777368 -7.124726,-0.748035 z" style="fill:#aaaaaa"/>
</svg>