<?xml version="1.0" encoding="UTF-8" standalone="no"?>
<svg xmlns:dc="http://purl.org/dc/elements/1.1/"
     xmlns:cc="http://creativecommons.org/ns#"
     xmlns:rdf="http://www.w3.org/1999/02/22-rdf-syntax-ns#"
     xmlns:svg="http://www.w3.org/2000/svg"
     xmlns="http://www.w3.org/2000/svg"
     xmlns:xlink="http://www.w3.org/1999/xlink"
     width="128" height="128" version="1.1">
    <title>Glade Icon</title>
    <desc>This is shape (source) for Clarity vector icon theme for gtk</desc>
    <metadata>
        <rdf:RDF>
            <cc:Work rdf:about="">
                <dc:title>Glade Icon</dc:title>
                <dc:description>This is shape (source) for Clarity vector icon theme for gtk</dc:description>
                <dc:creator>
                    <cc:Agent>
                        <dc:title>Jakub Jankiewicz</dc:title>
                    </cc:Agent>
                </dc:creator>
                <dc:rights>
                    <cc:Agent>
                        <dc:title>Jakub Jankiewicz</dc:title>
                    </cc:Agent>
                </dc:rights>
                <dc:date>2010</dc:date>
                <dc:format>image/svg+xml</dc:format>
                <dc:type rdf:resource="http://purl.org/dc/dcmitype/StillImage" />
                <cc:license rdf:resource="http://www.gnu.org/copyleft/gpl.html" />
             </cc:Work>
        </rdf:RDF>
    </metadata>
    <path d="M 70.393629,8.7319455 C 65.79644,9.0410968 61.07585,11.875018 58.570622,16.559431 c -2.47473,4.696017 -2.534158,10.84614 0.443947,16.07555 2.96078,4.79621 7.373915,8.052593 10.84165,10.514532 0.42687,0.335235 0.823726,0.659216 1.215013,0.981357 -2.378247,0.162798 -4.756845,0.540569 -7.103151,1.168281 -1.221173,-1.757702 -2.367951,-3.581642 -3.434747,-5.467557 -4.972661,-8.785766 -8.213971,-18.93664 -9.182691,-29.650979 -2.213596,10.52784 -2.217297,21.836368 0.233656,32.992264 0.501677,2.280199 1.117864,4.549447 1.822519,6.799397 -0.347613,0.222044 -0.690127,0.445943 -1.028087,0.677603 -0.669872,-1.772418 -1.148819,-3.904949 -1.65896,-6.191891 -0.588417,-2.820128 -1.250453,-5.892813 -2.45339,-8.925669 -2.919306,-7.197563 -8.902521,-12.369557 -15.397948,-14.299763 5.567165,3.863001 8.835788,10.080074 9.159325,15.86526 0.171216,2.468562 -0.166243,5.032424 -0.443947,7.874216 -0.318109,2.846219 -0.577059,5.996518 -0.257021,9.556541 0.20552,2.012891 0.599902,4.016274 1.215012,5.9816 -0.124843,0.184098 -0.229088,0.374711 -0.350484,0.560776 C 39.570562,57.906704 37.480112,53.286311 34.784414,48.663801 30.536162,41.289465 25.118858,34.84216 18.965885,29.620816 c 4.145346,6.923696 6.964699,14.38335 8.434991,21.870226 1.049218,5.504163 1.604378,11.657863 4.603029,18.412113 1.15951,2.453378 2.627365,4.794445 4.369372,6.939591 -0.169758,1.312953 -0.273157,2.643562 -0.303753,3.972157 -0.813573,-0.209906 -1.650085,-0.416818 -2.430025,-0.630872 -2.870092,-0.819465 -5.58028,-1.684741 -7.850851,-3.201091 -2.895027,-1.8853 -5.286606,-4.874624 -6.51901,-8.38826 -1.235863,-3.512831 -1.33353,-7.583227 -0.09346,-11.37906 -1.981712,3.466828 -2.854896,7.690907 -2.289832,11.91647 0.568512,4.224758 2.568895,8.357443 5.77131,11.565985 2.528408,2.492728 5.557251,4.321848 8.505088,5.794675 1.97973,1.013172 3.910404,1.923951 5.701213,2.850606 0.79654,3.808238 2.177893,7.545736 4.229178,11.098664 10.38595,17.989 33.392015,24.17167 51.381015,13.78572 17.989,-10.38595 24.14831,-33.392009 13.76236,-51.381004 -1.01066,-1.750514 -2.1313,-3.384579 -3.36465,-4.906781 0.11317,-1.413752 0.15001,-2.828246 0.0701,-4.229179 -0.3376,-5.717085 -2.29277,-11.064942 -5.374101,-15.444679 -3.083971,-4.378334 -7.281494,-7.726496 -11.869741,-9.673369 3.906322,3.095646 6.791085,7.197032 8.341531,11.542619 1.263269,3.533531 1.649942,7.252161 1.261744,10.748188 -1.240614,-0.871094 -2.52843,-1.673085 -3.855328,-2.383293 -0.451626,-1.8431 -1.147072,-3.612722 -2.102909,-5.257266 -1.943624,-3.14144 -4.351861,-5.388382 -6.846128,-6.939591 -2.457504,-1.557818 -4.80493,-2.597656 -6.962957,-3.411382 -4.186462,-1.787205 -7.92263,-2.667912 -10.140682,-4.930147 -2.417,-2.123839 -3.875419,-6.148844 -3.107591,-9.977122 0.73733,-3.839884 3.786809,-7.65336 8.107873,-9.2527885 z M 73.80501,51.280751 c 17.02495,0 30.81926,13.816121 30.81926,30.842627 0,17.02729 -13.79431,30.842622 -30.81926,30.842622 -17.026506,0 -30.842627,-13.815489 -30.842627,-30.842622 0,-17.026506 13.816121,-30.842627 30.842627,-30.842627 z m 0,2.359928 c -1.966526,0 -3.894201,0.205294 -5.747944,0.584141 l -0.210291,0.04673 -1.4954,0.420582 -0.794431,0.771065 2.593584,1.799153 0,1.028088 -1.028087,1.028088 1.378572,2.687047 0.911259,-0.514044 1.12155,-1.775788 c 1.75397,-0.542279 3.33312,-1.168255 5.000244,-1.939347 L 76.889273,54.318282 75.30041,53.68741 c -0.496376,-0.02569 -0.992587,-0.04673 -1.4954,-0.04673 z m -12.570707,2.944069 c -0.430092,0.211714 -0.867639,0.398423 -1.285109,0.630872 l -0.186925,0.420581 -0.116828,-0.233656 c -0.205296,0.117765 -0.405471,0.251155 -0.607507,0.37385 l 0.04673,0.514044 -0.934625,0.771066 -0.560775,1.401937 1.144916,0 0.560775,-1.285109 c 0.489646,-0.346266 0.973326,-0.694786 1.472035,-1.028088 l 1.144915,0.397216 c 0.756561,0.514009 1.509278,1.028903 2.266466,1.542131 l 1.144916,-1.028087 -1.261744,-0.514044 -0.560775,-1.144916 -2.173003,-0.280387 -0.09346,-0.53741 z m -4.766588,0.934625 -0.02336,0.0701 c 0.02527,-0.01789 0.04482,-0.05227 0.0701,-0.0701 l -0.04673,0 z m 31.730521,0.02337 -2.079541,0.490678 -1.378572,0.91126 0,0.771065 -2.149638,1.401938 0.467313,2.056175 1.238378,-0.91126 0.794431,0.91126 0.91126,0.514044 0.560775,-1.542132 -0.327119,-0.887893 0.327119,-0.654238 1.238378,-1.168281 0.560775,0 -0.560775,1.308475 0,1.144915 c 0.521663,-0.141974 1.078378,-0.190641 1.612228,-0.257021 l -1.4954,1.028087 -0.116828,0.630872 -1.682325,1.425303 -1.705691,-0.397215 0,-1.028088 -0.794431,0.514044 0.327119,0.911259 -1.238378,0 -0.700969,1.168282 -0.841163,0.95799 -1.518765,0.303753 0.911259,0.91126 0.210291,0.887894 -1.12155,0 -1.495401,0.771065 0,2.336563 0.677604,0 0.654237,0.700969 1.401938,-0.700969 0.560775,-1.425303 1.028087,-0.630872 0.233657,-0.53741 1.70569,-0.37385 0.887894,1.028088 1.051453,0.514044 -0.58414,1.144915 0.911259,-0.233656 0.443947,-1.168281 -1.12155,-1.28511 0.467312,0 1.12155,0.91126 0.210291,1.261744 1.028088,1.168281 0.233656,-1.682325 0.584141,-0.233656 c 0.561335,0.582734 0.975883,1.260158 1.448671,1.915981 l 1.729056,0.116828 1.004722,0.654238 -0.443947,0.654237 -1.028088,0.887894 -1.472036,0 -1.939347,-0.654238 -1.028088,0.140194 -0.724334,0.841163 -2.102907,-2.126272 -1.472034,-0.397216 -2.173003,0.280387 -1.915982,0.514044 c -1.082991,1.227776 -2.152673,2.44003 -3.177725,3.715135 l -1.261744,2.967434 0.560775,0.630872 -1.004721,1.542132 1.12155,2.687047 c 0.965378,1.092053 1.93335,2.201715 2.897337,3.294553 l 1.425303,-1.215013 0.630872,0.700969 1.518766,-0.981356 0.514044,0.58414 1.542131,0 0.887894,1.004722 -0.560775,1.752422 1.098184,1.215012 -0.0701,2.149638 0.817797,1.542131 -0.58414,1.28511 c -0.0566,0.945556 -0.116828,1.881534 -0.116828,2.82724 0.465278,1.281196 0.915857,2.541556 1.355206,3.831956 l 0.350484,2.05618 0,1.02808 0.794432,0 1.261743,-0.7477 0.934625,0 c 0.580988,-0.42056 1.158915,-0.86959 1.705693,-1.33184 l 1.051454,-1.19164 -0.280388,-0.8178 1.448669,-1.30848 -1.074819,-1.215002 1.308475,-1.098185 1.261744,-0.771066 0.560775,-0.630872 -0.350484,-1.425303 0,-3.598306 1.028087,-2.173003 1.238378,-1.401937 1.378572,-3.36465 0,-0.887894 c -0.675928,0.08514 -1.348185,0.162662 -2.009444,0.21029 l 1.378572,-1.378571 1.869248,-1.28511 1.02809,-1.144916 0,-1.285109 c -0.22726,-0.428574 -0.44879,-0.856535 -0.67761,-1.285109 l -0.91125,1.028087 -0.677606,-0.771066 -1.028087,-0.771065 0,-1.65896 1.191647,1.331841 1.308476,-0.186925 c 0.21866,0.198507 0.44074,0.385843 0.65423,0.584141 -1.13042,-6.781139 -4.65246,-12.731637 -9.673363,-16.986811 l -0.420581,0.467313 -1.448671,-1.542131 0.537409,0 c -0.854192,-0.639699 -1.738878,-1.233733 -2.663678,-1.775792 z m -30.188389,0.88789 C 50.37405,63.525728 45.357042,72.201204 45.345677,82.076646 l 1.915982,1.144916 2.383293,0.630872 1.028088,1.28511 1.588863,1.168281 0.911259,-0.140194 0.677603,0.327119 0,0.186925 -0.911259,2.453391 -0.677603,1.028087 0.233656,0.514044 -0.584141,1.915981 2.056175,3.7385 2.03281,1.799153 0.911259,1.285109 -0.116828,2.68704 0.677603,1.5655 -0.350484,1.51877 c 1.295495,0.93847 2.665139,1.78756 4.11235,2.50012 l 0.560775,-0.56078 0.350485,-0.91126 1.472034,-0.51404 1.12155,-2.82724 -0.327119,-0.77107 0.794432,-1.14491 1.70569,-0.39722 0.887894,-2.032803 -0.210291,-2.593585 1.355207,-1.915981 0.233656,-1.915982 c -1.863919,-0.924314 -3.710992,-1.875597 -5.561019,-2.82724 l -0.911259,-1.822518 -1.705691,-0.373851 -0.91126,-2.430025 -2.266465,0.233657 -1.915982,-1.401938 -2.056175,1.799153 0,0.280388 c -0.618497,-0.178521 -1.388628,-0.198799 -1.939347,-0.53741 l -0.443947,-1.285109 0,-1.425303 -1.355206,0.140193 c 0.113703,-0.899946 0.212631,-1.810622 0.327119,-2.710412 l -0.794432,0 -0.794431,1.051453 -0.794431,0.37385 -1.12155,-0.654237 -0.116828,-1.401938 0.21029,-1.542131 1.729057,-1.28511 1.355206,0 0.210291,-0.771065 1.70569,0.37385 1.261744,1.542131 0.210291,-2.570219 2.173003,-1.799153 0.794431,-1.915982 1.588863,-0.630871 0.911259,-1.28511 2.03281,-0.397216 1.028087,-1.542131 -3.060897,0 1.915982,-0.887894 1.378572,0 1.915981,-0.654237 0.233656,-0.771066 -0.677603,-0.654237 -0.794431,-0.233657 0.21029,-0.794431 -0.560775,-1.144916 -1.378572,0.514044 0.233657,-1.028087 -1.565497,-0.887894 -1.261744,2.173003 0.116828,0.771066 -1.261744,0.514043 -0.794431,1.682326 -0.327119,-1.565497 -2.173003,-0.887894 -0.327119,-1.168282 2.827241,-1.658959 1.261744,-1.168281 0.0701,-1.004722 z m 18.996254,0.7477 -0.91126,0.537409 -0.443947,-0.140194 -0.116828,0.771066 0.794432,0.514044 1.355206,-0.91126 -0.677603,-0.771065 z m -14.977367,0.257022 -0.911259,0.654237 1.144916,0.771066 0.887893,0 0,-0.91126 -1.12155,-0.514043 z m 17.944801,2.967434 0,0.771066 0.443947,0.514044 0,1.168281 -0.233656,1.542131 1.261744,-0.280387 0.911259,-0.887894 -0.794431,-0.771066 C 81.295469,63.748159 80.96186,63.084543 80.627773,62.402789 l -0.654238,0 z m -0.467312,1.542132 -0.794432,0.257021 0.233657,1.401938 1.028087,-0.514044 -0.467312,-1.144915 z m -15.678335,2.313197 0.350484,1.799153 0.677603,-1.028088 -1.028087,-0.771065 z m 29.674347,10.023853 1.28511,1.472035 1.542131,3.271187 0.911259,1.028088 -0.443947,1.168281 0.864529,0.981356 c -0.400356,0.02729 -0.803314,0.04673 -1.215013,0.04673 -0.722989,-1.51922 -1.271965,-3.037044 -1.822519,-4.626392 l -0.95799,-1.098185 -0.514044,-1.845884 0.350484,-0.397216 z" style="fill:#aaaaaa"/>
</svg>