<?xml version="1.0" encoding="UTF-8" standalone="no"?>
<svg xmlns:dc="http://purl.org/dc/elements/1.1/"
     xmlns:cc="http://creativecommons.org/ns#"
     xmlns:rdf="http://www.w3.org/1999/02/22-rdf-syntax-ns#"
     xmlns:svg="http://www.w3.org/2000/svg"
     xmlns="http://www.w3.org/2000/svg"
     xmlns:xlink="http://www.w3.org/1999/xlink"
     width="128" height="128" version="1.1">
    <title>Chess Horse Icon</title>
    <desc>This is shape (source) for Clarity vector icon theme for gtk</desc>
    <metadata>
        <rdf:RDF>
            <cc:Work rdf:about="">
                <dc:title>Chess Horse Icon</dc:title>
                <dc:description>This is shape (source) for Clarity vector icon theme for gtk</dc:description>
                <dc:creator>
                    <cc:Agent>
                        <dc:title>Jakub Jankiewicz</dc:title>
                    </cc:Agent>
                </dc:creator>
                <dc:rights>
                    <cc:Agent>
                        <dc:title>Jakub Jankiewicz</dc:title>
                    </cc:Agent>
                </dc:rights>
                <dc:date>2010</dc:date>
                <dc:format>image/svg+xml</dc:format>
                <dc:type rdf:resource="http://purl.org/dc/dcmitype/StillImage" />
                <cc:license rdf:resource="http://www.gnu.org/copyleft/gpl.html" />
             </cc:Work>
        </rdf:RDF>
    </metadata>
    <path d="m 94.945562,113.59448 c 0,4.3677 -3.202973,3.34857 -4.65887,3.34857 -1.455895,0 -44.404843,0 -47.025456,0 -2.620613,0 -2.038255,-3.93092 -2.038255,-6.40594 0,-1.3095 -0.382979,-4.18741 1.890336,-5.0267 1.556578,-0.57469 0.265746,-3.48484 2.186174,-3.56309 2.345618,-0.0956 3.057382,-0.1456 3.057382,-0.1456 0,0 -2.620613,-4.950048 -2.620613,-8.735378 0,-3.785331 2.329433,-13.685427 8.00743,-20.528141 5.677996,-6.842714 12.957479,-14.413375 12.957479,-14.413375 0,0 -3.202972,0.14559 -5.677997,0 -2.475023,-0.145589 -5.677996,-1.455897 -7.279482,-2.183845 -1.601485,-0.727948 -2.620613,0.14559 -3.63974,0.873538 -1.019127,0.727948 -3.348563,3.202972 -4.950049,4.513279 -1.601485,1.310306 -5.677997,1.019128 -8.153021,-0.14559 -2.475023,-1.164717 -4.658868,-2.911792 -5.532406,-4.513279 -0.873537,-1.601486 0.14559,-4.367688 0.436769,-5.386817 0.29118,-1.019127 -0.873538,-2.183845 -0.873538,-3.057382 0,-0.873538 1.601487,-1.601486 3.202973,-2.766204 1.601486,-1.164717 10.336865,-9.608916 12.22953,-11.064813 1.892665,-1.455897 1.747076,-4.513279 3.639742,-5.386817 1.892665,-0.873538 6.697123,-2.038256 7.861841,-2.766203 1.164716,-0.727949 0.582358,-3.057383 0.582358,-4.07651 0,-1.019128 2.183846,-1.164718 3.057382,-1.310307 0.873538,-0.145589 1.892666,0.145589 1.892666,0.145589 L 64.080555,10.95378 c 0,0 3.494152,3.057382 4.65887,4.804458 1.164717,1.747076 2.766203,4.658869 2.766203,4.658869 0,0 5.095637,0.582358 8.589789,3.202973 3.494152,2.620613 9.026558,5.532406 13.103068,14.704553 4.076514,9.172148 4.076514,15.723682 3.494152,21.25609 -0.582358,5.532406 -3.202972,15.869271 -5.241227,21.401678 -2.038255,5.532407 -3.202973,11.355992 -3.057383,15.432502 0.14559,4.076507 1.019128,5.677997 2.038256,5.677997 1.019127,0 2.183844,0.29119 2.183844,1.4559 0,1.16472 0.436769,2.32943 1.892666,2.47503 1.455896,0.14558 0.436769,7.57065 0.436769,7.57065 z" style="fill:#aaaaaa"/>
</svg>