<?xml version="1.0" encoding="UTF-8" standalone="no"?>
<svg xmlns:dc="http://purl.org/dc/elements/1.1/"
     xmlns:cc="http://creativecommons.org/ns#"
     xmlns:rdf="http://www.w3.org/1999/02/22-rdf-syntax-ns#"
     xmlns:svg="http://www.w3.org/2000/svg"
     xmlns="http://www.w3.org/2000/svg"
     xmlns:xlink="http://www.w3.org/1999/xlink"
     width="128" height="128" version="1.1">
    <title>Clarity Icon</title>
    <desc>This is shape (source) for Clarity vector icon theme for gtk</desc>
    <metadata>
        <rdf:RDF>
            <cc:Work rdf:about="">
                <dc:title>Clarity Icon</dc:title>
                <dc:description>This is shape (source) for Clarity vector icon theme for gtk</dc:description>
                <dc:creator>
                    <cc:Agent>
                        <dc:title>Jakub Jankiewicz</dc:title>
                    </cc:Agent>
                </dc:creator>
                <dc:rights>
                    <cc:Agent>
                        <dc:title>Jakub Jankiewicz</dc:title>
                    </cc:Agent>
                </dc:rights>
                <dc:date>2010</dc:date>
                <dc:format>image/svg+xml</dc:format>
                <dc:type rdf:resource="http://purl.org/dc/dcmitype/StillImage" />
                <cc:license rdf:resource="http://www.gnu.org/copyleft/gpl.html" />
             </cc:Work>
        </rdf:RDF>
    </metadata>
    <path d="m 20.591652,11.713374 c -4.181951,0 -7.520785,3.338828 -7.520785,7.520785 l 0,20.627548 28.210746,-28.148333 -20.689961,0 z m 66.938109,0 27.399369,27.368168 0,-19.847383 c 0,-4.181957 -3.33882,-7.520785 -7.52078,-7.520785 l -19.878589,0 z m -43.03387,2.340493 -11.702467,11.702467 60.852827,0 -11.702467,-11.702467 -37.447893,0 z m -18.630327,18.661534 -11.608847,11.608847 0,20.128242 11.608847,11.608847 0,-43.345936 z m 77.049036,2.371699 0,38.633744 11.64005,-11.608847 0,-15.41605 L 102.9146,35.0871 z m 12.01453,32.267602 -27.399369,27.368169 19.878589,0 c 4.18196,0 7.52078,-3.33883 7.52078,-7.520785 l 0,-19.847384 z m -101.858263,0.780164 0,19.06722 c 0,4.181955 3.338834,7.520785 7.520785,7.520785 l 19.098426,0 -26.619211,-26.588005 z m 20.502721,15.696909 11.702467,11.702467 12.95073,0 0,10.891108 -5.83563,0 c -1.418816,0 -2.55894,1.14012 -2.55894,2.55894 l 0,4.7434 c 0,1.4188 1.140124,2.55894 2.55894,2.55894 l 23.217694,0 c 1.418816,0 2.558939,-1.14014 2.558939,-2.55894 l 0,-4.7434 c 0,-1.41882 -1.140123,-2.55894 -2.558939,-2.55894 l -5.83563,0 0,-10.891108 11.390401,0 11.67126,-11.702467 -59.261292,0 z m -25.0588819,24.309935 0,6.42855 39.0706359,0 c -9.89e-4,-0.043 0,-0.0815 0,-0.12482 l 0,-5.36753 c 0,-0.31537 0.0385,-0.63727 0.09362,-0.9362 l -39.1642559,0 z m 71.8063359,0 c 0.05512,0.29893 0.09362,0.62083 0.09362,0.9362 l 0,5.36753 c 0,0.0433 9.88e-4,0.0818 0,0.12482 l 39.070628,0 0,-6.42855 -39.164248,0 z" style="fill:#aaaaaa"/>
</svg>