<?xml version="1.0" encoding="UTF-8" standalone="no"?>
<svg xmlns:dc="http://purl.org/dc/elements/1.1/"
     xmlns:cc="http://creativecommons.org/ns#"
     xmlns:rdf="http://www.w3.org/1999/02/22-rdf-syntax-ns#"
     xmlns:svg="http://www.w3.org/2000/svg"
     xmlns="http://www.w3.org/2000/svg"
     xmlns:xlink="http://www.w3.org/1999/xlink"
     width="128" height="128" version="1.1">
    <title>Gnome panel notification</title>
    <desc>This is shape (source) for Clarity vector icon theme for gtk</desc>
    <metadata>
        <rdf:RDF>
            <cc:Work rdf:about="">
                <dc:title>Gnome panel notification</dc:title>
                <dc:description>This is shape (source) for Clarity vector icon theme for gtk</dc:description>
                <dc:creator>
                    <cc:Agent>
                        <dc:title>Jakub Jankiewicz</dc:title>
                    </cc:Agent>
                </dc:creator>
                <dc:rights>
                    <cc:Agent>
                        <dc:title>Jakub Jankiewicz</dc:title>
                    </cc:Agent>
                </dc:rights>
                <dc:date>2010</dc:date>
                <dc:format>image/svg+xml</dc:format>
                <dc:type rdf:resource="http://purl.org/dc/dcmitype/StillImage" />
                <cc:license rdf:resource="http://www.gnu.org/copyleft/gpl.html" />
             </cc:Work>
        </rdf:RDF>
    </metadata>
    <path d="m 14.34375,23.71875 c -4.6965502,0 -8.46875,3.7722 -8.46875,8.46875 l 0,30.15625 c 0,4.696555 3.7721998,8.5 8.46875,8.5 l 30.96875,0 c 0.240843,-2.632692 0.811815,-5.170179 1.625,-7.59375 l -32.96875,0 0,-31.9375 100.0625,0 0,31.9375 -4.375,0 c 0.81467,2.423742 1.38367,4.960627 1.625,7.59375 l 2.34375,0 c 4.69656,0 8.5,-3.803445 8.5,-8.5 l 0,-30.15625 c 0,-4.69655 -3.80344,-8.46875 -8.5,-8.46875 l -99.28125,0 z m 63.9375,19.8125 c -16.608974,0 -30.0625,13.627596 -30.0625,30.40625 0,16.77866 13.453526,30.34375 30.0625,30.34375 16.608974,0 30.09375,-13.56509 30.09375,-30.34375 0,-16.778654 -13.484776,-30.40625 -30.09375,-30.40625 z M 77.75,52.71875 c 1.150153,4.3e-5 2.105229,0.386534 2.90625,1.1875 0.821532,0.780509 1.218734,1.766836 1.21875,2.9375 -1.6e-5,1.191279 -0.397218,2.178489 -1.21875,3 -0.821559,0.801042 -1.84002,1.218784 -3.03125,1.21875 -1.191252,3.4e-5 -2.157039,-0.406996 -2.9375,-1.1875 -0.780476,-0.800971 -1.156256,-1.777471 -1.15625,-2.96875 -6e-6,-1.23228 0.386485,-2.25074 1.1875,-3.03125 0.800998,-0.780427 1.819459,-1.156207 3.03125,-1.15625 z m 2.84375,12.1875 c 0.883148,3e-5 1.312484,0.460618 1.3125,1.34375 -1.6e-5,0.390263 -0.06429,0.98027 -0.1875,1.78125 -0.123247,0.780495 -0.156265,1.370502 -0.15625,1.78125 -1.5e-5,1.355575 -0.02144,3.39338 -0.0625,6.125 -0.02055,2.71112 -0.03127,4.738213 -0.03125,6.09375 -1.5e-5,3.20405 0.03212,5.40252 0.09375,6.59375 0.08214,1.3761 0.554322,2.29815 1.4375,2.75 0.800991,0.18485 1.615936,0.35712 2.4375,0.5625 0.821527,0.18486 1.24998,0.699 1.25,1.5 -2e-5,1.10909 -1.747734,1.65625 -5.21875,1.65625 -3.779124,0 -6.99606,-0.06428 -9.625,-0.1875 -1.29394,-0.0616 -1.937503,-0.54451 -1.9375,-1.46875 -3e-6,-0.82154 0.440045,-1.32586 1.34375,-1.53125 1.499316,-0.34915 2.314262,-0.56338 2.4375,-0.625 0.903694,-0.51346 1.374991,-1.54352 1.375,-3.125 -9e-6,-1.1707 0.0107,-2.92912 0.03125,-5.25 0.02053,-2.320854 0.03125,-4.079281 0.03125,-5.25 -8e-6,-2.854854 -0.06339,-4.7427 -0.125,-5.6875 -0.08216,-1.376066 -0.876569,-2.212434 -2.4375,-2.5 -1.540404,-0.287516 -2.312503,-0.877522 -2.3125,-1.78125 -3e-6,-0.771061 0.452912,-1.214053 1.375,-1.34375 0.0065,0.02957 0.766961,0.03128 2.3125,0.03125 0.801,2.9e-5 1.947996,-0.225793 3.40625,-0.71875 1.478772,-0.492898 2.551672,-0.74997 3.25,-0.75 z" style="fill:#aaaaaa"/>
</svg>