<?xml version="1.0" encoding="UTF-8" standalone="no"?>
<svg xmlns:dc="http://purl.org/dc/elements/1.1/"
     xmlns:cc="http://creativecommons.org/ns#"
     xmlns:rdf="http://www.w3.org/1999/02/22-rdf-syntax-ns#"
     xmlns:svg="http://www.w3.org/2000/svg"
     xmlns="http://www.w3.org/2000/svg"
     xmlns:xlink="http://www.w3.org/1999/xlink"
     width="128" height="128" version="1.1">
    <title>Tetrix Icon</title>
    <desc>This is shape (source) for Clarity vector icon theme for gtk</desc>
    <metadata>
        <rdf:RDF>
            <cc:Work rdf:about="">
                <dc:title>Tetrix Icon</dc:title>
                <dc:description>This is shape (source) for Clarity vector icon theme for gtk</dc:description>
                <dc:creator>
                    <cc:Agent>
                        <dc:title>Jakub Jankiewicz</dc:title>
                    </cc:Agent>
                </dc:creator>
                <dc:rights>
                    <cc:Agent>
                        <dc:title>Jakub Jankiewicz</dc:title>
                    </cc:Agent>
                </dc:rights>
                <dc:date>2010</dc:date>
                <dc:format>image/svg+xml</dc:format>
                <dc:type rdf:resource="http://purl.org/dc/dcmitype/StillImage" />
                <cc:license rdf:resource="http://www.gnu.org/copyleft/gpl.html" />
             </cc:Work>
        </rdf:RDF>
    </metadata>
    <path d="m 26.46875,8.625 c -3.063635,0 -5.59375,2.498865 -5.59375,5.5625 l 0,21.25 c 0,3.063635 2.530115,5.59375 5.59375,5.59375 l 21.21875,0 c 2.489203,0 4.629887,-1.667885 5.34375,-3.9375 0.706127,2.269615 2.823297,3.9375 5.3125,3.9375 l 21.25,0 c 2.489203,0 4.629887,-1.667885 5.34375,-3.9375 0.543174,1.745858 1.916343,3.138375 3.65625,3.6875 -2.261879,0.706127 -3.90625,2.823297 -3.90625,5.3125 l 0,21.25 c 0,3.063635 2.498865,5.5625 5.5625,5.5625 l 21.25,0 c 3.06363,0 5.59375,-2.498865 5.59375,-5.5625 l 0,-21.25 c 0,-2.489203 -1.66789,-4.606373 -3.9375,-5.3125 2.26961,-0.713863 3.9375,-2.854547 3.9375,-5.34375 l 0,-21.25 c 0,-3.063635 -2.53012,-5.5625 -5.59375,-5.5625 l -21.25,0 c -2.489203,0 -4.606373,1.644371 -5.3125,3.90625 C 84.223637,10.269371 82.082953,8.625 79.59375,8.625 l -21.25,0 c -2.489203,0 -4.606373,1.644371 -5.3125,3.90625 C 52.317387,10.269371 50.176703,8.625 47.6875,8.625 l -21.21875,0 z m 0,3 21.21875,0 c 1.453526,0 2.59375,1.108974 2.59375,2.5625 l 0,21.25 c 0,1.453526 -1.140224,2.59375 -2.59375,2.59375 l -21.21875,0 c -1.453526,0 -2.59375,-1.140224 -2.59375,-2.59375 l 0,-21.25 c 0,-1.453526 1.140224,-2.5625 2.59375,-2.5625 z m 31.875,0 21.25,0 c 1.453526,0 2.59375,1.108974 2.59375,2.5625 l 0,21.25 c 0,1.453526 -1.140224,2.59375 -2.59375,2.59375 l -21.25,0 c -1.453526,0 -2.5625,-1.140224 -2.5625,-2.59375 l 0,-21.25 c 0,-1.453526 1.108974,-2.5625 2.5625,-2.5625 z m 31.90625,0 21.25,0 c 1.45353,0 2.59375,1.108974 2.59375,2.5625 l 0,21.25 c 0,1.453526 -1.14022,2.59375 -2.59375,2.59375 l -21.25,0 c -1.453526,0 -2.5625,-1.140224 -2.5625,-2.59375 l 0,-21.25 c 0,-1.453526 1.108974,-2.5625 2.5625,-2.5625 z m 0,31.90625 21.25,0 c 1.45353,0 2.59375,1.108974 2.59375,2.5625 l 0,21.25 c 0,1.453526 -1.14022,2.5625 -2.59375,2.5625 l -21.25,0 c -1.453526,0 -2.5625,-1.108974 -2.5625,-2.5625 l 0,-21.25 c 0,-1.453526 1.108974,-2.5625 2.5625,-2.5625 z m -43.375,14.5625 c -2.25858,0 -4.0625,1.80392 -4.0625,4.0625 l 0,21.25 c 0,2.25858 1.80392,4.0625 4.0625,4.0625 l 21.25,0 c 2.25858,0 4.09375,-1.80392 4.09375,-4.0625 l 0,-21.25 c 0,-2.25858 -1.83517,-4.0625 -4.09375,-4.0625 l -21.25,0 z M 14.96875,90 c -2.25858,0 -4.0625,1.80392 -4.0625,4.0625 l 0,21.25 c 0,2.25858 1.80392,4.0625 4.0625,4.0625 l 21.25,0 c 2.25858,0 4.09375,-1.80392 4.09375,-4.0625 l 0,-21.25 C 40.3125,91.80392 38.47733,90 36.21875,90 l -21.25,0 z M 46.875,90 c -2.25858,0 -4.0625,1.80392 -4.0625,4.0625 l 0,21.25 c 0,2.25858 1.80392,4.0625 4.0625,4.0625 l 21.25,0 c 2.25858,0 4.09375,-1.80392 4.09375,-4.0625 l 0,-21.25 C 72.21875,91.80392 70.38358,90 68.125,90 l -21.25,0 z m 31.90625,0 c -2.25858,0 -4.0625,1.80392 -4.0625,4.0625 l 0,21.25 c 0,2.25858 1.80392,4.0625 4.0625,4.0625 l 21.25,0 c 2.25858,0 4.0625,-1.80392 4.0625,-4.0625 l 0,-21.25 c 0,-2.25858 -1.80392,-4.0625 -4.0625,-4.0625 l -21.25,0 z" style="fill:#aaaaaa"/>
</svg>