<?xml version="1.0" encoding="UTF-8" standalone="no"?>
<svg xmlns:dc="http://purl.org/dc/elements/1.1/"
     xmlns:cc="http://creativecommons.org/ns#"
     xmlns:rdf="http://www.w3.org/1999/02/22-rdf-syntax-ns#"
     xmlns:svg="http://www.w3.org/2000/svg"
     xmlns="http://www.w3.org/2000/svg"
     xmlns:xlink="http://www.w3.org/1999/xlink"
     width="128" height="128" version="1.1">
    <title>UI Icon</title>
    <desc>This is shape (source) for Clarity vector icon theme for gtk</desc>
    <metadata>
        <rdf:RDF>
            <cc:Work rdf:about="">
                <dc:title>UI Icon</dc:title>
                <dc:description>This is shape (source) for Clarity vector icon theme for gtk</dc:description>
                <dc:creator>
                    <cc:Agent>
                        <dc:title>Jakub Jankiewicz</dc:title>
                    </cc:Agent>
                </dc:creator>
                <dc:rights>
                    <cc:Agent>
                        <dc:title>Jakub Jankiewicz</dc:title>
                    </cc:Agent>
                </dc:rights>
                <dc:date>2010</dc:date>
                <dc:format>image/svg+xml</dc:format>
                <dc:type rdf:resource="http://purl.org/dc/dcmitype/StillImage" />
                <cc:license rdf:resource="http://creativecommons.org/licenses/by-sa/3.0/" />
             </cc:Work>
        </rdf:RDF>
    </metadata>
    <path d="m 11.33395,22.400873 c -1.3622032,0 -2.4643456,1.064804 -2.4643456,2.427007 l 0,18.669282 c 0,1.362203 1.1021424,2.464345 2.4643456,2.464345 l 107.79645,0 0,-23.560634 z m 5.302076,6.310218 18.893314,0 -9.446657,10.940199 z M 11.33395,51.084599 c -1.3622032,0 -2.4643456,1.064804 -2.4643456,2.427006 l 0,49.623185 c 0,1.36219 1.1021424,2.46434 2.4643456,2.46434 l 50.556417,0 c 1.362202,0 2.427006,-1.10215 2.427006,-2.46434 l 0,-49.623185 c 0,-1.362202 -1.064804,-2.427006 -2.427006,-2.427006 z m 5.750139,7.056988 39.056139,0 c 1.362203,0 2.464345,1.102143 2.464345,2.464346 l 0,4.032565 c 0,1.362202 -1.102142,2.427006 -2.464345,2.427006 l -39.056139,0 c -1.362203,0 -2.464345,-1.064804 -2.464345,-2.427006 l 0,-4.032565 c 0,-1.362203 1.102142,-2.464346 2.464345,-2.464346 z m 33.119307,12.844467 8.401177,7.243681 -8.401177,7.206343 z m -33.119307,2.613699 25.016838,0 c 1.362203,0 2.464346,1.102143 2.464346,2.464345 l 0,3.995227 c 0,1.362204 -1.102143,2.464345 -2.464346,2.464345 l -25.016838,0 c -1.362203,0 -2.464345,-1.102141 -2.464345,-2.464345 l 0,-3.995227 c 0,-1.362202 1.102142,-2.464345 2.464345,-2.464345 z m 0,15.458166 39.056139,0 c 1.362203,0 2.464345,1.102142 2.464345,2.464345 l 0,3.995227 c 0,1.362204 -1.102142,2.464345 -2.464345,2.464345 l -39.056139,0 c -1.362203,0 -2.464345,-1.102141 -2.464345,-2.464345 l 0,-3.995227 c 0,-1.362203 1.102142,-2.464345 2.464345,-2.464345 z" style="fill:#aaaaaa"/>
</svg>