<?xml version="1.0" encoding="UTF-8" standalone="no"?>
<svg xmlns:dc="http://purl.org/dc/elements/1.1/"
     xmlns:cc="http://creativecommons.org/ns#"
     xmlns:rdf="http://www.w3.org/1999/02/22-rdf-syntax-ns#"
     xmlns:svg="http://www.w3.org/2000/svg"
     xmlns="http://www.w3.org/2000/svg"
     xmlns:xlink="http://www.w3.org/1999/xlink"
     width="128" height="128" version="1.1">
    <title>Net Tools Icon</title>
    <desc>This is shape (source) for Clarity vector icon theme for gtk</desc>
    <metadata>
        <rdf:RDF>
            <cc:Work rdf:about="">
                <dc:title>Net Tools Icon</dc:title>
                <dc:description>This is shape (source) for Clarity vector icon theme for gtk</dc:description>
                <dc:creator>
                    <cc:Agent>
                        <dc:title>Jakub Jankiewicz</dc:title>
                    </cc:Agent>
                </dc:creator>
                <dc:rights>
                    <cc:Agent>
                        <dc:title>Jakub Jankiewicz</dc:title>
                    </cc:Agent>
                </dc:rights>
                <dc:date>2010</dc:date>
                <dc:format>image/svg+xml</dc:format>
                <dc:type rdf:resource="http://purl.org/dc/dcmitype/StillImage" />
                <cc:license rdf:resource="http://www.gnu.org/copyleft/gpl.html" />
             </cc:Work>
        </rdf:RDF>
    </metadata>
    <path d="m 22.622904,12.66299 c -5.510386,0 -9.959914,4.449528 -9.959914,9.959914 l 0,46.858391 c 0,5.510386 4.449528,9.893071 9.959914,9.893071 l 20.85566,0 0,26.002734 c 0,5.51038 4.449529,9.95991 9.959915,9.95991 l 51.938621,0 c 5.51038,0 9.95991,-4.44953 9.95991,-9.95991 l 0,-46.858395 c 0,-5.510386 -4.44953,-9.893071 -9.95991,-9.893071 l -20.855664,0 0,-26.00273 c 0,-5.510386 -4.449529,-9.959914 -9.959915,-9.959914 l -51.938617,0 z m 3.542788,7.687183 44.919884,0 c 3.199579,0 5.748677,2.61594 5.748677,5.815519 l 0,22.459942 -7.687183,0 0,-20.588278 -41.109717,0 0,35.962644 15.441211,0 0,7.687183 -17.312872,0 c -3.199579,0 -5.815522,-2.549097 -5.815522,-5.748676 l 0,-39.772815 c 0,-3.199579 2.615943,-5.815519 5.815522,-5.815519 z m 30.748732,35.962644 44.919886,0 c 3.19957,0 5.81552,2.549097 5.81552,5.748676 l 0,39.772817 c -10e-6,3.19957 -2.61594,5.81552 -5.81552,5.81552 l -44.919886,0 c -3.199582,-10e-6 -5.748677,-2.61594 -5.748677,-5.81552 l 0,-39.772817 c 0,-3.199581 2.549098,-5.748676 5.748677,-5.748676 z M 58.85293,64 l 0,35.962644 41.109714,0 0,-35.962644 -41.109714,0 z" style="fill:#aaaaaa"/>
</svg>