<?xml version="1.0" encoding="UTF-8" standalone="no"?>
<svg xmlns:dc="http://purl.org/dc/elements/1.1/"
     xmlns:cc="http://creativecommons.org/ns#"
     xmlns:rdf="http://www.w3.org/1999/02/22-rdf-syntax-ns#"
     xmlns:svg="http://www.w3.org/2000/svg"
     xmlns="http://www.w3.org/2000/svg"
     xmlns:xlink="http://www.w3.org/1999/xlink"
     width="128" height="128" version="1.1">
    <title>Sun Icon</title>
    <desc>This is shape (source) for Clarity vector icon theme for gtk</desc>
    <metadata>
        <rdf:RDF>
            <cc:Work rdf:about="">
                <dc:title>Sun Icon</dc:title>
                <dc:description>This is shape (source) for Clarity vector icon theme for gtk</dc:description>
                <dc:creator>
                    <cc:Agent>
                        <dc:title>Jakub Jankiewicz</dc:title>
                    </cc:Agent>
                </dc:creator>
                <dc:rights>
                    <cc:Agent>
                        <dc:title>Jakub Jankiewicz</dc:title>
                    </cc:Agent>
                </dc:rights>
                <dc:date>2010</dc:date>
                <dc:format>image/svg+xml</dc:format>
                <dc:type rdf:resource="http://purl.org/dc/dcmitype/StillImage" />
                <cc:license rdf:resource="http://www.gnu.org/copyleft/gpl.html" />
             </cc:Work>
        </rdf:RDF>
    </metadata>
    <path d="m 64,6.59375 c -3.60333,0 -6.5,2.8966695 -6.5,6.5 l 0,17.09375 c 0,3.60333 2.89667,6.5 6.5,6.5 3.60333,0 6.5,-2.89667 6.5,-6.5 l 0,-17.09375 c 0,-3.6033305 -2.89667,-6.5 -6.5,-6.5 z M 28,21.5 c -1.662599,0 -3.31978,0.63228 -4.59375,1.90625 -2.547939,2.547939 -2.547939,6.639561 0,9.1875 L 35.5,44.6875 c 2.547939,2.547939 6.639561,2.547939 9.1875,0 2.547939,-2.547939 2.547939,-6.639561 0,-9.1875 L 32.59375,23.40625 C 31.31978,22.13228 29.662599,21.5 28,21.5 z m 72,0 c -1.662599,0 -3.31978,0.63228 -4.59375,1.90625 L 83.3125,35.5 c -2.547939,2.547939 -2.547939,6.639561 0,9.1875 2.547939,2.547939 6.639561,2.547939 9.1875,0 l 12.09375,-12.09375 c 2.54794,-2.547939 2.54794,-6.639561 0,-9.1875 C 103.31978,22.13228 101.6626,21.5 100,21.5 z M 64,41.28125 c -12.239998,0 -22.15625,9.916252 -22.15625,22.15625 0,12.239998 9.916252,22.15625 22.15625,22.15625 12.239998,0 22.15625,-9.916252 22.15625,-22.15625 C 86.15625,51.197502 76.239998,41.28125 64,41.28125 z M 13.09375,57.5 c -3.6033305,0 -6.5,2.89667 -6.5,6.5 0,3.60333 2.8966695,6.5 6.5,6.5 l 17.09375,0 c 3.60333,0 6.5,-2.89667 6.5,-6.5 0,-3.60333 -2.89667,-6.5 -6.5,-6.5 l -17.09375,0 z m 84.71875,0 c -3.60333,0 -6.53125,2.89667 -6.53125,6.5 0,3.60333 2.92792,6.5 6.53125,6.5 l 17.09375,0 c 3.60333,0 6.5,-2.89667 6.5,-6.5 0,-3.60333 -2.89667,-6.5 -6.5,-6.5 l -17.09375,0 z M 40.09375,81.40625 c -1.662599,0 -3.31978,0.63228 -4.59375,1.90625 L 23.40625,95.40625 c -2.547939,2.547939 -2.547939,6.63956 0,9.1875 2.547939,2.54794 6.639561,2.54794 9.1875,0 L 44.6875,92.5 c 2.547939,-2.547939 2.547939,-6.639561 0,-9.1875 -1.27397,-1.27397 -2.931151,-1.90625 -4.59375,-1.90625 z m 47.8125,0 c -1.662599,0 -3.31978,0.63228 -4.59375,1.90625 -2.547939,2.547939 -2.547939,6.639561 0,9.1875 l 12.09375,12.09375 c 2.547939,2.54794 6.63956,2.54794 9.1875,0 2.54794,-2.54794 2.54794,-6.639561 0,-9.1875 L 92.5,83.3125 C 91.22603,82.03853 89.568849,81.40625 87.90625,81.40625 z M 64,91.3125 c -3.60333,0 -6.5,2.89667 -6.5,6.5 l 0,17.09375 c 0,3.60333 2.89667,6.5 6.5,6.5 3.60333,0 6.5,-2.89667 6.5,-6.5 l 0,-17.09375 c 0,-3.60333 -2.89667,-6.5 -6.5,-6.5 z" style="fill:#aaaaaa"/>
</svg>