<?xml version="1.0" encoding="UTF-8" standalone="no"?>
<svg xmlns:dc="http://purl.org/dc/elements/1.1/"
     xmlns:cc="http://creativecommons.org/ns#"
     xmlns:rdf="http://www.w3.org/1999/02/22-rdf-syntax-ns#"
     xmlns:svg="http://www.w3.org/2000/svg"
     xmlns="http://www.w3.org/2000/svg"
     xmlns:xlink="http://www.w3.org/1999/xlink"
     width="128" height="128" version="1.1">
    <title>Journal Icon</title>
    <desc>This is shape (source) for Clarity vector icon theme for gtk</desc>
    <metadata>
        <rdf:RDF>
            <cc:Work rdf:about="">
                <dc:title>Journal Icon</dc:title>
                <dc:description>This is shape (source) for Clarity vector icon theme for gtk</dc:description>
                <dc:creator>
                    <cc:Agent>
                        <dc:title>Jakub Jankiewicz</dc:title>
                    </cc:Agent>
                </dc:creator>
                <dc:rights>
                    <cc:Agent>
                        <dc:title>Jakub Jankiewicz</dc:title>
                    </cc:Agent>
                </dc:rights>
                <dc:date>2010</dc:date>
                <dc:format>image/svg+xml</dc:format>
                <dc:type rdf:resource="http://purl.org/dc/dcmitype/StillImage" />
                <cc:license rdf:resource="http://www.gnu.org/copyleft/gpl.html" />
             </cc:Work>
        </rdf:RDF>
    </metadata>
    <path d="m 17.57219,11.049278 c -8.19e-4,0.02583 -8.19e-4,0.05291 0,0.08694 -0.176105,-0.0051 -0.346241,0.02227 -0.508518,0.08694 -0.05863,0.02227 -0.114772,0.05068 -0.167174,0.08694 -0.05913,0.0477 -0.117732,0.108548 -0.1694,0.17188 -0.507995,0.374433 -0.695683,1.124765 -0.42354,1.694291 L 8.3400295,106.20014 c -0.029072,0.32749 0.058626,0.66543 0.251962,0.93166 0.5450808,5.3107 4.8982355,9.44224 10.1664345,9.74265 0.202445,0.01 0.390108,0.0869 0.593272,0.0869 0.08917,-0.0175 0.172132,-0.0435 0.251784,-0.0869 l 0.08694,0 2.37204,0 0.508617,0 94.209511,0 c 0.0569,0.001 0.11202,0 0.1694,0 0.0258,8.2e-4 0.0551,8.2e-4 0.0869,0 0.77209,0.20518 1.60966,-0.5111 1.60966,-1.35476 0,-0.8445 -0.83757,-1.55886 -1.60966,-1.3558 -0.0258,-8.7e-4 -0.0524,-8.7e-4 -0.0869,0 -0.0502,0 -0.11575,0.001 -0.1694,0 -2.99159,-0.0857 -5.3374,-2.536 -5.3374,-5.4222 0,-2.93779 2.43769,-5.33763 5.50679,-5.33763 l 0.25181,0 0.50826,0 0.33887,0 c 0.0869,0.007 0.17041,0.007 0.25183,0 0.0574,-0.0223 0.11478,-0.0502 0.17042,-0.0869 0.3022,-0.0787 0.57628,-0.25654 0.76257,-0.50854 8e-4,-0.0258 8e-4,-0.0544 0,-0.0869 0.0698,-0.081 0.12196,-0.15996 0.16842,-0.25176 7.9e-4,-0.0258 7.9e-4,-0.0547 0,-0.0869 7.7e-4,-0.0258 7.7e-4,-0.0547 0,-0.0869 7.9e-4,-0.0258 7.9e-4,-0.0544 0,-0.0869 0.002,-0.0546 0.002,-0.11302 0,-0.17089 7.9e-4,-0.0258 7.9e-4,-0.0546 0,-0.0869 l 0,-0.16867 -2.5409,-28.29739 c -0.48731,0.110774 -0.94712,0.19326 -1.44028,0.169147 -3.33997,-0.138354 -6.31263,-3.453984 -6.52353,-7.201347 l -0.17041,0 0,-0.338864 -0.0869,-0.171652 c -0.005,0.07502 -0.01,0.05539 -0.0869,0 -0.28694,-0.220586 -0.77375,-0.423667 -1.10144,-0.423667 l -21.349631,0 c -7.023245,0 -12.877585,-5.772567 -12.877585,-12.792908 0,-3.755238 1.053673,-7.198415 3.13452,-9.912572 2.081067,-2.713712 5.409684,-4.659454 9.065265,-4.659454 l 22.281691,0 2.62633,0 0.0869,0 c 1.17104,-0.01746 2.28935,0.213882 3.30405,0.593049 l -2.37202,-26.432389 c -0.0293,-0.404713 -0.25468,-0.789827 -0.59287,-1.016787 -0.0258,-9.19e-4 -0.0546,-9.19e-4 -0.0869,0 -0.26496,-0.196727 -0.60408,-0.286252 -0.93174,-0.251937 -0.0594,0.02227 -0.11477,0.05068 -0.17041,0.08694 l -0.0869,0 -91.329179,0 -0.170893,0 c -0.133622,-0.04719 -0.27896,-0.08223 -0.423477,-0.08694 z m 67.861393,29.991159 c -2.734551,0 -5.144398,1.343454 -6.777435,3.473631 -1.633532,2.130126 -2.542042,5.006811 -2.542042,8.217959 0,5.475337 4.484829,9.912327 9.997128,9.912327 l 21.349856,0 c 1.04197,0 2.11515,0.429006 2.88054,1.016613 0.76543,0.587682 1.08941,1.306047 1.10143,1.694364 l 0,0.08694 0.0869,0.677851 0,0.168413 0.0869,0 c 0.10159,2.621307 1.9224,4.406981 3.89703,4.490145 2.0287,0.08767 4.15145,-1.617733 4.15145,-4.151234 l 0,-0.08694 -2.20283,-19.48559 c -0.15078,-1.791885 -1.24924,-3.268828 -2.5415,-4.320664 -1.29226,-1.052309 -2.84613,-1.736865 -4.49004,-1.694587 l -2.71135,0 -22.281423,0 z m 2.711177,4.066801 2.710977,0 c 2.264039,0 4.066878,1.826041 4.066878,4.066481 0,2.240366 -1.802839,4.06663 -4.066878,4.06663 l -2.710977,0 c -2.263715,0 -4.066506,-1.826264 -4.066506,-4.06663 0,-2.24044 1.802791,-4.066481 4.066506,-4.066481 z m -65.658935,58.203152 0.08694,0 88.279235,0.0869 c -1.29772,1.43213 -2.11797,3.25239 -2.11797,5.33765 l -15.757926,0 c -0.751352,0 -1.355701,0.6046 -1.355701,1.3555 0,0.75103 0.604349,1.35548 1.355701,1.35548 l 16.266416,0 c 0.38834,1.00862 0.97833,1.92696 1.69431,2.71108 l -88.363939,0 -0.16816,0 c -0.112267,-0.0149 -0.226533,-0.0149 -0.339238,0 -3.068867,0 -5.506509,-2.48442 -5.506509,-5.42206 0,-2.93769 2.437642,-5.33752 5.506509,-5.33752 0.141593,-0.002 0.287993,-0.0293 0.423569,-0.0869 z m 20.333418,2.71098 c -0.751425,0 -1.3558,0.60457 -1.3558,1.35558 0,0.75087 0.604375,1.35557 1.3558,1.35557 l 34.735514,0 c 0.75058,0 1.355352,-0.6047 1.355352,-1.35557 0,-0.75101 -0.604772,-1.35558 -1.355352,-1.35558 l -34.735514,0 z m -24.399921,2.71115 c -0.750431,0 -1.35565,0.6045 -1.35565,1.35541 0,0.75102 0.605219,1.35555 1.35565,1.35555 l 13.894254,0 c 0.751225,0 1.355671,-0.60453 1.355671,-1.35555 0,-0.75091 -0.604446,-1.35541 -1.355671,-1.35541 l -13.894254,0 z" style="fill:#aaaaaa"/>
</svg>