<?xml version="1.0" encoding="UTF-8" standalone="no"?>
<svg xmlns:dc="http://purl.org/dc/elements/1.1/"
     xmlns:cc="http://creativecommons.org/ns#"
     xmlns:rdf="http://www.w3.org/1999/02/22-rdf-syntax-ns#"
     xmlns:svg="http://www.w3.org/2000/svg"
     xmlns="http://www.w3.org/2000/svg"
     xmlns:xlink="http://www.w3.org/1999/xlink"
     width="128" height="128" version="1.1">
    <title>Workspace Icon</title>
    <desc>This is shape (source) for Clarity vector icon theme for gtk</desc>
    <metadata>
        <rdf:RDF>
            <cc:Work rdf:about="">
                <dc:title>Workspace Icon</dc:title>
                <dc:description>This is shape (source) for Clarity vector icon theme for gtk</dc:description>
                <dc:creator>
                    <cc:Agent>
                        <dc:title>Jakub Jankiewicz</dc:title>
                    </cc:Agent>
                </dc:creator>
                <dc:rights>
                    <cc:Agent>
                        <dc:title>Jakub Jankiewicz</dc:title>
                    </cc:Agent>
                </dc:rights>
                <dc:date>2010</dc:date>
                <dc:format>image/svg+xml</dc:format>
                <dc:type rdf:resource="http://purl.org/dc/dcmitype/StillImage" />
                <cc:license rdf:resource="http://www.gnu.org/copyleft/gpl.html" />
             </cc:Work>
        </rdf:RDF>
    </metadata>
    <path d="m 21.4375,12.078125 c -7.708456,0 -14.0625,6.354044 -14.0625,14.0625 l 0,75.718755 c 0,7.70845 6.354044,14.0625 14.0625,14.0625 l 85.125,0 c 7.70846,0 14.0625,-6.35405 14.0625,-14.0625 l 0,-75.718755 c 0,-7.708456 -6.35404,-14.0625 -14.0625,-14.0625 z m 0,10 85.125,0 c 2.34143,0 4.0625,1.721072 4.0625,4.0625 l 0,75.718755 c 0,2.34142 -1.72107,4.0625 -4.0625,4.0625 l -85.125,0 c -2.341428,0 -4.0625,-1.72108 -4.0625,-4.0625 l 0,-75.718755 c 0,-2.341428 1.721072,-4.0625 4.0625,-4.0625 z m 4.65625,8.25 0,29.375 33.53125,0 0,-29.375 z m 42.28125,0 0,29.375 33.53125,0 0,-29.375 z m -38.356485,4.1875 25.322888,0 0,20.125 -25.322888,0 z m 1.625,3.96875 0,14.78125 22.041638,0 0,-14.78125 z m -5.549765,29.84375 0,29.375 33.53125,0 0,-29.375 z m 42.28125,0 0,29.375 33.53125,0 0,-29.375 z" style="fill:#aaaaaa"/>
</svg>