<?xml version="1.0" encoding="UTF-8" standalone="no"?>
<svg xmlns:dc="http://purl.org/dc/elements/1.1/"
     xmlns:cc="http://creativecommons.org/ns#"
     xmlns:rdf="http://www.w3.org/1999/02/22-rdf-syntax-ns#"
     xmlns:svg="http://www.w3.org/2000/svg"
     xmlns="http://www.w3.org/2000/svg"
     xmlns:xlink="http://www.w3.org/1999/xlink"
     width="128" height="128" version="1.1">
    <title>Clarity Icon</title>
    <desc>This is shape (source) for Clarity vector icon theme for gtk</desc>
    <metadata>
        <rdf:RDF>
            <cc:Work rdf:about="">
                <dc:title>Clarity Icon</dc:title>
                <dc:description>This is shape (source) for Clarity vector icon theme for gtk</dc:description>
                <dc:creator>
                    <cc:Agent>
                        <dc:title>Jakub Jankiewicz</dc:title>
                    </cc:Agent>
                </dc:creator>
                <dc:rights>
                    <cc:Agent>
                        <dc:title>Jakub Jankiewicz</dc:title>
                    </cc:Agent>
                </dc:rights>
                <dc:date>2010</dc:date>
                <dc:format>image/svg+xml</dc:format>
                <dc:type rdf:resource="http://purl.org/dc/dcmitype/StillImage" />
                <cc:license rdf:resource="http://www.gnu.org/copyleft/gpl.html" />
             </cc:Work>
        </rdf:RDF>
    </metadata>
    <path d="m 16.244139,24.129938 c -4.568759,0 -8.2569763,3.688217 -8.2569763,8.256976 l 0,45.227816 c 0.3051066,2.245831 0.2817255,3.043606 1.8091131,6.540638 l 5.9376012,13.591539 c 1.728097,3.956563 2.628957,6.123153 7.885875,6.123153 l 88.739288,0 c 7.56793,0 11.65769,-7.429395 1.99467,-13.174054 L 95.93787,79.748555 c -2.648277,-1.243924 -3.942937,-2.699782 -3.942937,-5.380951 l 0,-41.98069 c 0,-4.568759 -3.688219,-8.256976 -8.256976,-8.256976 l -67.493818,0 z m 2.133825,10.437189 62.947843,0 0,40.357128 -62.947843,0 0,-40.357128 z" style="fill:#aaaaaa"/>
</svg>