<?xml version="1.0" encoding="UTF-8" standalone="no"?>
<svg xmlns:dc="http://purl.org/dc/elements/1.1/"
     xmlns:cc="http://creativecommons.org/ns#"
     xmlns:rdf="http://www.w3.org/1999/02/22-rdf-syntax-ns#"
     xmlns:svg="http://www.w3.org/2000/svg"
     xmlns="http://www.w3.org/2000/svg"
     xmlns:xlink="http://www.w3.org/1999/xlink"
     width="128" height="128" version="1.1">
    <title>Gnome panel window menu</title>
    <desc>This is shape (source) for Clarity vector icon theme for gtk</desc>
    <metadata>
        <rdf:RDF>
            <cc:Work rdf:about="">
                <dc:title>Gnome panel window menu</dc:title>
                <dc:description>This is shape (source) for Clarity vector icon theme for gtk</dc:description>
                <dc:creator>
                    <cc:Agent>
                        <dc:title>Jakub Jankiewicz</dc:title>
                    </cc:Agent>
                </dc:creator>
                <dc:rights>
                    <cc:Agent>
                        <dc:title>Jakub Jankiewicz</dc:title>
                    </cc:Agent>
                </dc:rights>
                <dc:date>2010</dc:date>
                <dc:format>image/svg+xml</dc:format>
                <dc:type rdf:resource="http://purl.org/dc/dcmitype/StillImage" />
                <cc:license rdf:resource="http://www.gnu.org/copyleft/gpl.html" />
             </cc:Work>
        </rdf:RDF>
    </metadata>
    <path d="m 41.296099,16.427347 c -2.780536,0 -5.006223,2.225685 -5.006223,5.006224 l 0,16.425826 5.195647,0 0,-5.195649 69.491797,0 0,49.385721 -16.209339,0 0,5.033283 16.425829,0 c 2.78053,0 5.00622,-2.252738 5.00622,-5.033283 l 0,-60.615898 c 0,-2.780539 -2.22569,-5.006224 -5.00622,-5.006224 l -69.89771,0 z M 16.806194,40.917252 c -2.780538,0 -5.006224,2.225686 -5.006224,5.006224 l 0,60.615894 c 0,2.78054 2.225686,5.03328 5.006224,5.03328 l 69.897707,0 c 2.780538,0 5.006223,-2.25274 5.006223,-5.03328 l 0,-60.615894 c 0,-2.780538 -2.225685,-5.006224 -5.006223,-5.006224 l -69.897707,0 z m 0.189425,16.236402 69.491796,0 0,49.385716 -69.491796,0 0,-49.385715 z m 35.584779,7.387562 c -2.544025,3.4e-5 -4.813558,0.58554 -6.792228,1.731882 -2.386979,1.366261 -3.57201,3.21896 -3.572008,5.574498 -2e-6,0.942254 0.341684,1.81967 1.001245,2.651946 0.706666,0.879436 1.535991,1.325996 2.46252,1.325973 0.973629,2.3e-5 1.775894,-0.284879 2.435461,-0.865942 0.675254,-0.581015 1.001235,-1.369261 1.001244,-2.327217 -9e-6,-0.879385 -0.603881,-1.873034 -1.813064,-3.003734 0.910811,-1.53894 2.291572,-2.300126 4.113221,-2.300157 1.193475,3.1e-5 2.175766,0.453601 2.976673,1.380094 0.753767,0.879441 1.136534,1.929874 1.136549,3.139037 -1.5e-5,1.837368 -0.708764,3.690067 -2.137793,5.574498 -1.319131,1.507583 -2.631751,3.00023 -3.950858,4.492071 -1.429052,1.711728 -2.164861,3.272515 -2.164853,4.654435 -8e-6,0.879424 0.330321,1.697393 0.974184,2.43546 0.643847,0.738088 1.409378,1.109496 2.273096,1.109488 1.790219,8e-6 2.678993,-0.945549 2.679006,-2.81431 -1.3e-5,-0.376879 -0.09788,-0.928313 -0.270607,-1.6507 -0.172755,-0.722362 -0.243558,-1.273796 -0.243545,-1.650701 -1.3e-5,-1.319103 0.754161,-2.556572 2.246035,-3.734373 1.381917,-1.067838 2.758332,-2.152342 4.140282,-3.220219 1.476135,-1.476133 2.218953,-3.235313 2.218977,-5.276831 -2.4e-5,-2.245612 -0.949928,-4.034516 -2.787249,-5.385073 -1.648915,-1.224862 -3.617846,-1.840091 -5.926287,-1.840125 z m -2.110733,27.737185 c -0.926533,5e-6 -1.699074,0.387115 -2.327217,1.109487 -0.612455,0.706674 -0.92007,1.520299 -0.920062,2.462521 -7e-6,0.879415 0.325974,1.640596 1.001245,2.300157 0.675253,0.659553 1.474855,1.001245 2.354277,1.001245 1.036439,0 1.857072,-0.353045 2.516642,-1.028305 0.67525,-0.67527 1.028291,-1.545671 1.028306,-2.597825 -1.5e-5,-0.973633 -0.38278,-1.741826 -1.136548,-2.354278 -0.690979,-0.581038 -1.527314,-0.892997 -2.516643,-0.893002 z" style="fill:#aaaaaa"/>
</svg>