<?xml version="1.0" encoding="UTF-8" standalone="no"?>
<svg xmlns:dc="http://purl.org/dc/elements/1.1/"
     xmlns:cc="http://creativecommons.org/ns#"
     xmlns:rdf="http://www.w3.org/1999/02/22-rdf-syntax-ns#"
     xmlns:svg="http://www.w3.org/2000/svg"
     xmlns="http://www.w3.org/2000/svg"
     xmlns:xlink="http://www.w3.org/1999/xlink"
     width="128" height="128" version="1.1">
    <title>GnomeDo Icon</title>
    <desc>This is shape (source) for Clarity vector icon theme for gtk</desc>
    <metadata>
        <rdf:RDF>
            <cc:Work rdf:about="">
                <dc:title>GnomeDo Icon</dc:title>
                <dc:description>This is shape (source) for Clarity vector icon theme for gtk</dc:description>
                <dc:creator>
                    <cc:Agent>
                        <dc:title>Jakub Jankiewicz</dc:title>
                    </cc:Agent>
                </dc:creator>
                <dc:rights>
                    <cc:Agent>
                        <dc:title>Jakub Jankiewicz</dc:title>
                    </cc:Agent>
                </dc:rights>
                <dc:date>2010</dc:date>
                <dc:format>image/svg+xml</dc:format>
                <dc:type rdf:resource="http://purl.org/dc/dcmitype/StillImage" />
                <cc:license rdf:resource="http://creativecommons.org/licenses/by-sa/3.0/" />
             </cc:Work>
        </rdf:RDF>
    </metadata>
    <path d="m 16.593752,17.359375 c -5.91906,0 -10.6875005,4.76844 -10.6875005,10.6875 l 0,71.90625 c 0,5.919065 4.7684405,10.687505 10.6875005,10.687505 l 94.812498,0 c 5.91906,0 10.6875,-4.76844 10.6875,-10.687505 l 0,-71.90625 c 0,-5.91906 -4.76844,-10.6875 -10.6875,-10.6875 l -94.812499,0 z m 43.6875,11.9375 7.437497,0 c 1.74921,0 3.15625,1.464927 3.15625,3.1875 l 0,10.125 c 1.164429,0.379361 2.27737,0.855188 3.34375,1.40625 l 7.1875,-7.1875 c 1.22552,-1.225518 3.27449,-1.225518 4.5,0 l 5.25,5.25 c 1.22552,1.225518 1.22552,3.274482 0,4.5 l -7.1875,7.1875 c 0.55574,1.077753 1.02777,2.200683 1.40625,3.375 l 10.15625,0 c 1.72258,0 3.15625,1.433677 3.15625,3.15625 l 0,7.4375 c 0,1.722573 -1.43367,3.15625 -3.15625,3.15625 l -10.15625,0 c -0.37895,1.164812 -0.85422,2.276819 -1.40625,3.34375 l 7.1875,7.1875 c 1.22552,1.225518 1.22552,3.274482 0,4.5 l -5.25,5.25 c -1.22551,1.225518 -3.27448,1.225518 -4.5,0 l -7.1875,-7.1875 c -1.06638,0.551062 -2.17932,1.026889 -3.34375,1.40625 l 0,10.15625 c 0,1.722573 -1.43367,3.15625 -3.15625,3.15625 l -7.437497,0 c -1.722573,0 -3.15625,-1.433677 -3.15625,-3.15625 l 0,-10.15625 c -1.164425,-0.379361 -2.277362,-0.855188 -3.34375,-1.40625 l -7.21875,7.1875 c -1.212203,1.212203 -3.256547,1.212203 -4.46875,0 l -5.25,-5.25 c -1.225518,-1.225518 -1.225518,-3.274482 0,-4.5 l 7.1875,-7.1875 c -0.55203,-1.066931 -1.027295,-2.178938 -1.40625,-3.34375 l -10.15625,0 c -1.722573,0 -3.15625,-1.433677 -3.15625,-3.15625 l 0,-7.4375 c 0,-1.722573 1.433677,-3.15625 3.15625,-3.15625 l 10.15625,0 c 0.378486,-1.174317 0.850515,-2.297247 1.40625,-3.375 l -7.1875,-7.1875 c -1.225518,-1.225518 -1.225518,-3.274482 0,-4.5 l 5.25,-5.25 c 1.212203,-1.212203 3.256547,-1.212203 4.46875,0 l 7.21875,7.21875 c 1.063216,-0.556563 2.172343,-1.050284 3.34375,-1.4375 l 0,-10.125 c 0,-1.722573 1.407047,-3.1875 3.15625,-3.1875 z m 3.71875,24.5625 c -5.602789,0 -10.15625,4.522211 -10.15625,10.125 0,5.602789 4.553461,10.15625 10.15625,10.15625 5.602787,0 10.156247,-4.553461 10.156247,-10.15625 0,-5.602789 -4.55346,-10.125 -10.156247,-10.125 z" style="fill:#aaaaaa"/>
</svg>