<?xml version="1.0" encoding="UTF-8" standalone="no"?>
<svg xmlns:dc="http://purl.org/dc/elements/1.1/"
     xmlns:cc="http://creativecommons.org/ns#"
     xmlns:rdf="http://www.w3.org/1999/02/22-rdf-syntax-ns#"
     xmlns:svg="http://www.w3.org/2000/svg"
     xmlns="http://www.w3.org/2000/svg"
     xmlns:xlink="http://www.w3.org/1999/xlink"
     width="128" height="128" version="1.1">
    <title>Sudoku Icon</title>
    <desc>This is shape (source) for Clarity vector icon theme for gtk</desc>
    <metadata>
        <rdf:RDF>
            <cc:Work rdf:about="">
                <dc:title>Sudoku Icon</dc:title>
                <dc:description>This is shape (source) for Clarity vector icon theme for gtk</dc:description>
                <dc:creator>
                    <cc:Agent>
                        <dc:title>Jakub Jankiewicz</dc:title>
                    </cc:Agent>
                </dc:creator>
                <dc:rights>
                    <cc:Agent>
                        <dc:title>Jakub Jankiewicz</dc:title>
                    </cc:Agent>
                </dc:rights>
                <dc:date>2010</dc:date>
                <dc:format>image/svg+xml</dc:format>
                <dc:type rdf:resource="http://purl.org/dc/dcmitype/StillImage" />
                <cc:license rdf:resource="http://creativecommons.org/licenses/by-sa/3.0/" />
             </cc:Work>
        </rdf:RDF>
    </metadata>
    <path d="m 8.7717918,8.7717918 0,110.4564182 110.4564182,0 0,-110.4564182 -110.4564182,0 z m 3.5986472,3.5986452 32.02061,0 0,32.020612 -32.02061,0 0,-32.020612 z m 35.619255,0 32.020612,0 0,32.020612 -32.020612,0 0,-32.020612 z m 35.619257,0 32.020609,0 0,32.020612 -32.020609,0 0,-32.020612 z m -55.521975,4.55339 c -4.73552,0 -7.784827,2.521702 -7.784827,6.462875 0,2.413588 1.185059,4.22496 3.598647,5.508133 -0.947106,0.305517 -1.390109,0.38601 -1.909485,0.660976 -1.527589,0.794347 -2.350136,2.193856 -2.350136,3.965857 0,3.299587 2.994079,5.434689 7.637944,5.434689 4.918829,0 8.225475,-2.791379 8.225475,-6.976967 0,-2.871864 -1.369547,-4.830706 -4.333065,-6.022224 0.855447,-0.336071 1.261438,-0.502343 1.689163,-0.80786 1.191516,-0.824897 1.909485,-2.119825 1.909485,-3.525205 0,-2.810762 -2.742028,-4.700274 -6.683201,-4.700274 z m 73.148004,0.36721 -11.163153,13.880492 0,2.203255 8.298919,0 0,1.175068 c 0,1.924757 -0.0065,2.001728 -0.220335,2.276694 -0.24441,0.305518 -0.975308,0.440651 -2.350137,0.440651 l -0.293766,0 0,1.68916 10.428732,0 0,-1.68916 -0.36721,0 c -1.25262,0 -1.95884,-0.165685 -2.20325,-0.440651 -0.21386,-0.274966 -0.22034,-0.351937 -0.22034,-2.276694 l 0,-1.175068 3.08456,0 0,-2.05637 -3.08456,0 0,-9.400546 c 0,-0.672138 0.0981,-2.366002 0.22034,-4.626831 l -2.12981,0 z m -73.662096,1.175068 c 2.046967,0 3.37832,1.386582 3.37832,3.525204 0,1.252623 -0.527606,2.455305 -1.32195,3.157997 l -0.07343,0.07343 c -0.03055,0.0611 -0.08578,0.04291 -0.146883,0.07345 -1.252635,-0.305516 -2.210317,-0.520555 -2.790801,-0.734418 -1.374829,-0.519378 -2.350136,-1.813717 -2.350136,-3.157994 0,-1.680346 1.410672,-2.937671 3.304878,-2.937671 z m 70.797862,5.214365 0,7.637944 -6.022225,0 6.022225,-7.637944 z m -72.854231,6.022225 c 1.283174,0.36662 2.76141,0.783771 3.525203,1.028184 1.924762,0.672137 2.643906,1.526415 2.643906,3.084556 0,2.077517 -1.729706,3.525204 -4.11274,3.525204 -2.47469,0 -3.965855,-1.448275 -3.965855,-3.892414 0,-1.649795 0.473552,-2.554012 1.909486,-3.74553 z m -13.146076,18.286999 32.02061,0 0,32.020612 -32.02061,0 0,-32.020612 z m 35.619255,0 32.020612,0 0,32.020612 -32.020612,0 0,-32.020612 z m 35.619257,0 32.020609,0 0,32.020612 -32.020609,0 0,-32.020612 z m 14.908679,4.626833 c -4.430002,0 -7.637943,3.097485 -7.637943,7.344175 0,3.605109 2.612767,6.242552 6.095665,6.242552 1.89421,0 3.196778,-0.546995 4.479948,-1.982928 0,1.344276 -0.0123,1.616896 -0.0734,2.350135 -0.33607,4.368901 -1.668598,6.53632 -4.112736,6.53632 -0.67214,0 -1.101628,-0.294358 -1.101628,-0.660977 0,-0.183308 0.09814,-0.330782 0.220336,-0.514094 0.549932,-0.885999 0.587532,-1.090464 0.587532,-1.762601 0,-1.466482 -1.042874,-2.42358 -2.570461,-2.42358 -1.680345,0 -2.864228,1.239113 -2.864228,3.011113 0,2.383037 2.202667,3.892414 5.655015,3.892414 3.14683,0 5.68204,-1.2585 7.27073,-3.672088 1.52759,-2.260828 2.35014,-5.189103 2.35014,-8.519245 0,-2.780206 -0.62631,-4.868307 -1.90949,-6.609758 -1.55814,-2.07752 -3.82308,-3.231438 -6.389427,-3.231438 z m -40.392972,0.807859 c -0.122206,2.44414 -0.263802,4.702629 -0.660974,9.988078 -0.672138,0.67214 -0.80786,0.906567 -0.80786,1.395396 0,0.641587 0.46004,1.175069 1.101627,1.175069 0.67214,0 1.248508,-0.576372 1.248508,-1.248512 0,-0.122204 -0.04291,-0.330782 -0.07343,-0.514091 0.916552,-0.763792 2.199141,-1.175069 3.451762,-1.175069 2.291382,0 3.451764,1.694452 3.451764,4.994041 0,3.696761 -1.374834,5.728456 -3.818973,5.728456 -1.374826,0 -2.643902,-0.680363 -2.643902,-1.32195 0,-0.183308 0.09223,-0.287892 0.367207,-0.440651 1.191521,-0.580484 1.615721,-1.164494 1.615721,-2.203254 0,-1.497034 -1.012323,-2.497021 -2.570464,-2.497021 -1.771999,0 -2.937669,1.26379 -2.937669,3.157997 0,3.055175 2.760826,4.994041 6.976967,4.994041 5.010487,0 8.445804,-3.073397 8.445804,-7.564502 0,-3.971727 -3.238492,-6.903526 -7.637945,-6.903526 -1.435932,0 -2.390089,0.258518 -4.406506,1.175068 l 0.440651,-3.965855 c 1.435933,0.305518 2.700898,0.514092 3.892413,0.514092 2.535796,0 4.567494,-0.926541 5.728458,-2.42358 0.580485,-0.763791 1.101628,-1.824881 1.101628,-2.497017 0,-0.183308 -0.141008,-0.36721 -0.293769,-0.36721 -0.122205,0 -0.257338,0.0123 -0.440648,0.07343 -1.008209,0.24441 -3.19854,0.440651 -5.581576,0.440651 -2.535792,0 -4.054572,-0.116908 -5.948784,-0.514092 z m 40.686739,0.80786 c 0.794345,0 1.469423,0.435951 1.836043,1.32195 0.39718,0.886002 0.66098,2.560478 0.66098,3.965858 0,2.688552 -1.01233,4.406505 -2.570464,4.406505 -0.85545,0 -1.616307,-0.558158 -1.982928,-1.321953 -0.336069,-0.733239 -0.587534,-1.850732 -0.587534,-3.378321 0,-3.330138 0.933006,-4.994039 2.643903,-4.994039 z m -86.440958,29.376705 32.02061,0 0,32.020609 -32.02061,0 0,-32.020609 z m 35.619255,0 32.020612,0 0,32.020609 -32.020612,0 0,-32.020609 z m 35.619257,0 32.020609,0 0,32.020609 -32.020609,0 0,-32.020609 z m -20.563694,5.140925 c -4.155036,0 -7.344176,2.68621 -7.344176,6.169107 0,2.138622 1.178007,3.525206 3.011112,3.525206 1.588692,0 2.570461,-1.055212 2.570461,-2.643904 0,-1.313724 -0.577547,-2.045207 -1.982926,-2.717347 -0.336071,-0.152755 -0.440651,-0.343117 -0.440651,-0.587532 0,-0.977655 1.63041,-1.982929 3.157994,-1.982929 2.138622,0 3.378323,1.264377 3.378323,3.525207 0,2.535793 -1.021138,4.332479 -4.259622,7.784826 -3.421793,3.60511 -4.568078,4.99757 -6.095668,7.19729 l 0,1.46883 c 0.794348,-0.0916 1.114554,-0.14688 1.542278,-0.14688 l 11.530358,0 c 0.519378,0 0.919492,0.0552 1.836044,0.14688 l 0.734417,-8.22547 -1.68916,0 -0.293769,1.54227 c -0.274964,1.22208 -0.490003,1.60985 -0.734417,1.76261 -0.305518,0.21386 -0.351935,0.18976 -2.276695,0.22034 l -5.875341,0 c 1.069312,-0.91656 1.819597,-1.48235 3.011113,-2.2767 4.246693,-2.74965 5.209667,-3.49641 6.095666,-4.626826 1.038762,-1.374832 1.615718,-2.970579 1.615718,-4.406512 0,-3.269033 -3.183263,-5.728455 -7.491059,-5.728455 z m -42.522783,0.367208 -1.028183,9.180221 1.68916,0.146882 0.293768,-1.395394 c 0.580484,-2.688554 0.840172,-3.084555 1.909486,-3.084555 0.152755,0 0.30023,0.0429 0.514091,0.07345 1.008209,0.03056 2.608652,0.07343 3.525204,0.07343 0.122205,0 1.472952,-0.0123 4.039298,-0.07343 l -2.129813,3.084553 c -2.444137,3.788418 -3.739652,5.863598 -3.892412,6.169118 -1.130415,2.19972 -1.615718,3.66796 -1.615718,4.92059 0,1.80256 1.153331,3.01112 2.864228,3.01112 1.924761,0 3.011112,-1.25205 3.011112,-3.45177 0,-5.62152 0.588713,-7.64735 5.140923,-17.332259 l 0,-1.321951 c -1.924758,0.305517 -3.830136,0.44065 -6.976967,0.44065 -2.81076,0 -4.319551,-0.104584 -7.344177,-0.44065 z m 80.051526,0 c -2.902415,0 -5.204967,1.172721 -6.976967,3.525204 -1.802553,2.352485 -2.643905,5.177354 -2.643905,8.813022 0,3.05516 0.69388,5.20495 2.12981,6.97696 1.49704,1.8331 3.516983,2.79078 6.022227,2.79078 4.491105,0 7.784825,-3.08514 7.784825,-7.27072 0,-3.66622 -2.564,-6.24256 -6.16911,-6.24256 -1.955308,0 -3.19677,0.589885 -4.479945,2.056368 0,-0.366619 0.08578,-1.769649 0.146882,-2.350134 0.427725,-4.338347 1.814895,-6.6832 3.892413,-6.6832 0.76379,0 1.32195,0.306691 1.32195,0.734417 0,0.183307 -0.007,0.239137 -0.22033,0.514094 -0.39718,0.519379 -0.58754,1.225007 -0.58754,1.836044 0,1.374827 1.05522,2.350136 2.64391,2.350136 1.74145,0 2.86422,-1.036999 2.86422,-2.717346 0,-2.627449 -2.215,-4.333064 -5.72845,-4.333064 z m -1.468835,10.869377 c 1.588695,0.06107 2.423575,1.583409 2.423575,4.333069 0,3.544 -0.87777,5.43469 -2.497018,5.43469 -1.649792,0 -2.570461,-1.77378 -2.570461,-4.9206 0,-1.06931 0.06758,-2.01465 0.220335,-2.71734 0.336069,-1.31373 1.262613,-2.190917 2.42358,-2.129818 z" style="fill:#aaaaaa"/>
</svg>