<?xml version="1.0" encoding="UTF-8" standalone="no"?>
<svg xmlns:dc="http://purl.org/dc/elements/1.1/"
     xmlns:cc="http://creativecommons.org/ns#"
     xmlns:rdf="http://www.w3.org/1999/02/22-rdf-syntax-ns#"
     xmlns:svg="http://www.w3.org/2000/svg"
     xmlns="http://www.w3.org/2000/svg"
     xmlns:xlink="http://www.w3.org/1999/xlink"
     width="128" height="128" version="1.1">
    <title>Google Picasa Icon</title>
    <desc>This is shape (source) for Clarity vector icon theme for gtk</desc>
    <metadata>
        <rdf:RDF>
            <cc:Work rdf:about="">
                <dc:title>Google Picasa Icon</dc:title>
                <dc:description>This is shape (source) for Clarity vector icon theme for gtk</dc:description>
                <dc:creator>
                    <cc:Agent>
                        <dc:title>Jakub Jankiewicz</dc:title>
                    </cc:Agent>
                </dc:creator>
                <dc:rights>
                    <cc:Agent>
                        <dc:title>Jakub Jankiewicz</dc:title>
                    </cc:Agent>
                </dc:rights>
                <dc:date>2010</dc:date>
                <dc:format>image/svg+xml</dc:format>
                <dc:type rdf:resource="http://purl.org/dc/dcmitype/StillImage" />
                <cc:license rdf:resource="http://www.gnu.org/copyleft/gpl.html" />
             </cc:Work>
        </rdf:RDF>
    </metadata>
    <path d="m 63.984375,12.531252 c -5.930954,0 -11.604367,1.028987 -16.90625,2.875 l 37.28125,35.5 0.15625,-34.125 c -6.285221,-2.734614 -13.239548,-4.25 -20.53125,-4.25 z m -22.8125,5.34375 c -16.971989,8.412662 -28.625,25.898631 -28.625,46.125 0,4.79388 0.648869,9.409509 1.875,13.8125 l 45.40625,-42.1875 z m 49.1875,1.90625 -0.28125,60.65625 22.625005,0.09375 c 1.76452,-5.196187 2.75,-10.738544 2.75,-16.53125 0,-18.784069 -10.06459,-35.232281 -25.093755,-44.21875 z m -53.21875,44.9375 -20.625,19.15625 c 4.162901,9.932559 11.345154,18.259188 20.40625,23.874998 z m 5.75,21.34375 -0.125,24.812498 c 6.471383,2.93334 13.651119,4.59375 21.21875,4.59375 20.395031,0 38.045465,-11.86023 46.375005,-29.062499 z" style="fill:#aaaaaa"/>
</svg>