<?xml version="1.0" encoding="UTF-8" standalone="no"?>
<svg xmlns:dc="http://purl.org/dc/elements/1.1/"
     xmlns:cc="http://creativecommons.org/ns#"
     xmlns:rdf="http://www.w3.org/1999/02/22-rdf-syntax-ns#"
     xmlns:svg="http://www.w3.org/2000/svg"
     xmlns="http://www.w3.org/2000/svg"
     xmlns:xlink="http://www.w3.org/1999/xlink"
     width="128" height="128" version="1.1">
    <title>GRSync Busy Icon</title>
    <desc>This is shape (source) for Clarity vector icon theme for gtk</desc>
    <metadata>
        <rdf:RDF>
            <cc:Work rdf:about="">
                <dc:title>GRSync Busy Icon</dc:title>
                <dc:description>This is shape (source) for Clarity vector icon theme for gtk</dc:description>
                <dc:creator>
                    <cc:Agent>
                        <dc:title>Jakub Jankiewicz</dc:title>
                    </cc:Agent>
                </dc:creator>
                <dc:rights>
                    <cc:Agent>
                        <dc:title>Jakub Jankiewicz</dc:title>
                    </cc:Agent>
                </dc:rights>
                <dc:date>2010</dc:date>
                <dc:format>image/svg+xml</dc:format>
                <dc:type rdf:resource="http://purl.org/dc/dcmitype/StillImage" />
                <cc:license rdf:resource="http://creativecommons.org/licenses/by-sa/3.0/" />
             </cc:Work>
        </rdf:RDF>
    </metadata>
    <path d="m 20.823168,9.015625 5.3125,14.5 c -28.4761825,17.212353 -12.917866,40.01191 -3.15625,49.40625 l 3.28125,-2.09375 c -4.771559,-9.994608 -6.000453,-19.866454 7.125,-29.21875 l 6.65625,16.8125 17.625,-36.3125 -36.84375,-13.09375 z m 50.09375,27.34375 -3.28125,2.09375 c 2.534891,5.309635 4.054554,10.600399 2.96875,15.78125 3.380572,-1.591046 7.051659,-2.663225 10.90625,-3.125 -2.683613,-6.086693 -7.026429,-11.316898 -10.59375,-14.75 z m -17.0625,14.5 -17.625,36.3125 14.21875,5.0625 c -0.288138,-1.825163 -0.4375,-3.688896 -0.4375,-5.59375 0,-8.935502 3.314239,-17.09769 8.75,-23.375 l -4.90625,-12.40625 z m 31.9375,3.4375 c -17.863976,0 -32.34375,14.479774 -32.34375,32.34375 0,17.863965 14.479774,32.343755 32.34375,32.343755 17.863982,0 32.343752,-14.47979 32.343752,-32.343755 0,-17.863976 -14.47977,-32.34375 -32.343752,-32.34375 z m 0,4.8125 c 2.042956,0 3.6875,1.690785 3.6875,3.78125 0,2.090466 -1.644544,3.78125 -3.6875,3.78125 -2.042956,0 -3.71875,-1.690784 -3.71875,-3.78125 0,-2.090465 1.675794,-3.78125 3.71875,-3.78125 z m 0.8125,19.40625 c 0.160631,-0.01676 0.306514,-0.0047 0.46875,0 0.58995,0.01692 1.204457,0.185028 1.75,0.5 1.745751,1.007905 2.3204,3.223003 1.3125,4.96875 -0.0596,0.103274 -0.20418,0.358343 -0.3125,0.53125 6.90588,4.249205 15.424572,9.52594 17.187502,10.4375 2.83563,1.46623 4.67235,3.63617 4.0625,4.8125 -0.60986,1.176325 -3.41437,0.903725 -6.25,-0.5625 -1.82167,-0.94193 -11.66133,-5.08946 -19.218752,-8.3125 -2.571282,3.84462 -5.319603,7.94427 -5.875,8.90625 -1.007904,1.745755 -2.791411,2.604025 -4,1.906255 -1.208597,-0.69779 -1.382911,-2.691765 -0.375,-4.437505 0.523051,-0.905955 2.504617,-4.937529 4.4375,-8.875 -1.358359,-0.591779 -2.474237,-1.090184 -2.84375,-1.28125 -2.181272,-1.127869 -3.035607,-3.821609 -1.90625,-6 1.129351,-2.17839 3.818734,-3.034121 6,-1.90625 0.359615,0.185946 1.347421,0.766398 2.5625,1.5 0.05956,-0.110661 0.177039,-0.302759 0.21875,-0.375 0.606316,-1.050179 1.656835,-1.695163 2.78125,-1.8125 z" style="fill:#aaaaaa"/>
</svg>