<?xml version="1.0" encoding="UTF-8" standalone="no"?>
<svg xmlns:dc="http://purl.org/dc/elements/1.1/"
     xmlns:cc="http://creativecommons.org/ns#"
     xmlns:rdf="http://www.w3.org/1999/02/22-rdf-syntax-ns#"
     xmlns:svg="http://www.w3.org/2000/svg"
     xmlns="http://www.w3.org/2000/svg"
     xmlns:xlink="http://www.w3.org/1999/xlink"
     width="128" height="128" version="1.1">
    <title>gTweakUI</title>
    <desc>This is shape (source) for Clarity vector icon theme for gtk</desc>
    <metadata>
        <rdf:RDF>
            <cc:Work rdf:about="">
                <dc:title>gTweakUI</dc:title>
                <dc:description>This is shape (source) for Clarity vector icon theme for gtk</dc:description>
                <dc:creator>
                    <cc:Agent>
                        <dc:title>Jakub Jankiewicz</dc:title>
                    </cc:Agent>
                </dc:creator>
                <dc:rights>
                    <cc:Agent>
                        <dc:title>Jakub Jankiewicz</dc:title>
                    </cc:Agent>
                </dc:rights>
                <dc:date>2010</dc:date>
                <dc:format>image/svg+xml</dc:format>
                <dc:type rdf:resource="http://purl.org/dc/dcmitype/StillImage" />
                <cc:license rdf:resource="http://www.gnu.org/copyleft/gpl.html" />
             </cc:Work>
        </rdf:RDF>
    </metadata>
    <path d="M 19.59375 11.5625 C 14.049838 11.5625 9.4375 16.174838 9.4375 21.71875 L 9.4375 106.28125 C 9.4375 111.82516 14.049838 116.4375 19.59375 116.4375 L 108.40625 116.4375 C 113.95016 116.4375 118.5625 111.82516 118.5625 106.28125 L 118.5625 21.71875 C 118.5625 16.174838 113.95016 11.5625 108.40625 11.5625 L 19.59375 11.5625 z M 19.59375 20.84375 L 108.40625 20.84375 C 108.97869 20.84375 109.28125 21.146311 109.28125 21.71875 L 109.28125 106.28125 C 109.28125 106.85369 108.97869 107.15625 108.40625 107.15625 L 19.59375 107.15625 C 19.021311 107.15625 18.71875 106.85369 18.71875 106.28125 L 18.71875 21.71875 C 18.71875 21.146311 19.021311 20.84375 19.59375 20.84375 z M 50.9375 30.125 C 49.536049 30.125 48.40625 31.254799 48.40625 32.65625 L 48.40625 40.78125 L 53.46875 40.78125 L 53.46875 32.65625 C 53.46875 31.254799 52.338951 30.125 50.9375 30.125 z M 59.65625 30.125 C 58.254799 30.125 57.125 31.254799 57.125 32.65625 L 57.125 40.78125 L 62.1875 40.78125 L 62.1875 32.65625 C 62.1875 31.254799 61.0577 30.125 59.65625 30.125 z M 68.34375 30.125 C 66.942299 30.125 65.8125 31.254799 65.8125 32.65625 L 65.8125 40.78125 L 70.875 40.78125 L 70.875 32.65625 C 70.875 31.254799 69.745201 30.125 68.34375 30.125 z M 77.0625 30.125 C 75.661049 30.125 74.53125 31.254799 74.53125 32.65625 L 74.53125 40.78125 L 79.59375 40.78125 L 79.59375 32.65625 C 79.59375 31.254799 78.463951 30.125 77.0625 30.125 z M 49.375 42.5625 C 45.585665 42.5625 42.53125 45.585665 42.53125 49.375 L 42.53125 78.625 C 42.53125 82.414334 45.585665 85.46875 49.375 85.46875 L 78.625 85.46875 C 82.414333 85.46875 85.4375 82.414334 85.4375 78.625 L 85.4375 49.375 C 85.4375 45.585665 82.414333 42.5625 78.625 42.5625 L 49.375 42.5625 z M 32.65625 48.40625 C 31.254798 48.40625 30.125 49.536049 30.125 50.9375 C 30.125 52.338949 31.254798 53.46875 32.65625 53.46875 L 40.78125 53.46875 L 40.78125 48.40625 L 32.65625 48.40625 z M 87.21875 48.40625 L 87.21875 53.46875 L 95.34375 53.46875 C 96.745208 53.46875 97.875 52.338951 97.875 50.9375 C 97.875 49.536049 96.745208 48.40625 95.34375 48.40625 L 87.21875 48.40625 z M 32.65625 57.125 C 31.254798 57.125 30.125 58.254801 30.125 59.65625 C 30.125 61.057701 31.254798 62.1875 32.65625 62.1875 L 40.78125 62.1875 L 40.78125 57.125 L 32.65625 57.125 z M 87.21875 57.125 L 87.21875 62.1875 L 95.34375 62.1875 C 96.745208 62.1875 97.875 61.057701 97.875 59.65625 C 97.875 58.254801 96.745208 57.125 95.34375 57.125 L 87.21875 57.125 z M 32.65625 65.8125 C 31.254798 65.8125 30.125 66.942299 30.125 68.34375 C 30.125 69.745201 31.254798 70.875 32.65625 70.875 L 40.78125 70.875 L 40.78125 65.8125 L 32.65625 65.8125 z M 87.21875 65.8125 L 87.21875 70.875 L 95.34375 70.875 C 96.745208 70.875 97.875 69.745201 97.875 68.34375 C 97.875 66.942299 96.745208 65.8125 95.34375 65.8125 L 87.21875 65.8125 z M 32.65625 74.53125 C 31.254798 74.53125 30.125 75.661049 30.125 77.0625 C 30.125 78.463953 31.254798 79.59375 32.65625 79.59375 L 40.78125 79.59375 L 40.78125 74.53125 L 32.65625 74.53125 z M 87.21875 74.53125 L 87.21875 79.59375 L 95.34375 79.59375 C 96.745208 79.59375 97.875 78.463951 97.875 77.0625 C 97.875 75.661049 96.745208 74.53125 95.34375 74.53125 L 87.21875 74.53125 z M 48.40625 87.21875 L 48.40625 95.34375 C 48.40625 96.745208 49.536049 97.875 50.9375 97.875 C 52.338951 97.875 53.46875 96.745208 53.46875 95.34375 L 53.46875 87.21875 L 48.40625 87.21875 z M 57.125 87.21875 L 57.125 95.34375 C 57.125 96.745208 58.254799 97.875 59.65625 97.875 C 61.0577 97.875 62.1875 96.745208 62.1875 95.34375 L 62.1875 87.21875 L 57.125 87.21875 z M 65.8125 87.21875 L 65.8125 95.34375 C 65.8125 96.745208 66.942299 97.875 68.34375 97.875 C 69.745201 97.875 70.875 96.745208 70.875 95.34375 L 70.875 87.21875 L 65.8125 87.21875 z M 74.53125 87.21875 L 74.53125 95.34375 C 74.53125 96.745208 75.661049 97.875 77.0625 97.875 C 78.463952 97.875 79.59375 96.745208 79.59375 95.34375 L 79.59375 87.21875 L 74.53125 87.21875 z " style="fill:#aaaaaa"/>
</svg>