<?xml version="1.0" encoding="UTF-8" standalone="no"?>
<svg xmlns:dc="http://purl.org/dc/elements/1.1/"
     xmlns:cc="http://creativecommons.org/ns#"
     xmlns:rdf="http://www.w3.org/1999/02/22-rdf-syntax-ns#"
     xmlns:svg="http://www.w3.org/2000/svg"
     xmlns="http://www.w3.org/2000/svg"
     xmlns:xlink="http://www.w3.org/1999/xlink"
     width="128" height="128" version="1.1">
    <title>iBus Engine Icon</title>
    <desc>This is shape (source) for Clarity vector icon theme for gtk</desc>
    <metadata>
        <rdf:RDF>
            <cc:Work rdf:about="">
                <dc:title>iBus Engine Icon</dc:title>
                <dc:description>This is shape (source) for Clarity vector icon theme for gtk</dc:description>
                <dc:creator>
                    <cc:Agent>
                        <dc:title>Jakub Jankiewicz</dc:title>
                    </cc:Agent>
                </dc:creator>
                <dc:rights>
                    <cc:Agent>
                        <dc:title>Jakub Jankiewicz</dc:title>
                    </cc:Agent>
                </dc:rights>
                <dc:date>2010</dc:date>
                <dc:format>image/svg+xml</dc:format>
                <dc:type rdf:resource="http://purl.org/dc/dcmitype/StillImage" />
                <cc:license rdf:resource="http://creativecommons.org/licenses/by-sa/3.0/" />
             </cc:Work>
        </rdf:RDF>
    </metadata>
    <path d="m 47.959117,8.103271 -5.529451,1.970893 -1.204435,12.099097 0.821205,2.792099 1.204435,2.080387 c -3.871465,2.179223 -7.352531,4.972999 -10.34719,8.212056 l -1.697159,-1.47817 -2.518364,-1.313929 -12.099096,-1.204435 -3.011087,5.091475 6.788633,10.073456 2.463617,1.587664 1.751905,0.602217 c -1.609188,4.110491 -2.656566,8.519572 -2.901593,13.13929 l -1.423423,-0.05475 -2.901593,0.656965 -9.9639615,6.84338 0.9306997,5.803186 11.7158668,3.33957 2.901593,-0.38323 0.9307,-0.328482 c 1.493935,4.39496 3.750421,8.431961 6.514898,12.044349 l -0.656965,0.492724 -1.751905,2.299375 -3.284823,11.715872 4.489258,3.83229 11.113649,-4.98198 1.970894,-2.08039 0.273735,-0.43797 c 3.928094,2.31227 8.258461,4.03351 12.865555,4.98198 l -0.109495,0.32848 0.109495,2.90159 5.036727,11.0589 5.912681,0.1095 5.310463,-10.94941 0.164241,-2.90159 -0.05475,-0.38323 c 4.631559,-0.85947 9.004835,-2.47344 12.975049,-4.70825 l 0.273735,0.43798 1.916146,2.13513 11.004156,5.25572 4.544007,-3.7228 -3.01109,-11.770616 -1.697159,-2.299376 -0.711711,-0.602217 c 2.828949,-3.537265 5.1477,-7.493258 6.73389,-11.825361 l 1.09494,0.383229 2.90159,0.437977 11.71587,-3.065835 1.09494,-5.748439 -9.85447,-7.171862 -2.7921,-0.711712 h -1.64241 c -0.1391,-4.607369 -0.96639,-9.015452 -2.46361,-13.13929 l 1.80665,-0.602217 2.46362,-1.532917 7.06236,-9.909215 -2.90159,-5.091475 -12.0991,0.875953 -2.627857,1.259182 -1.751905,1.532917 c -2.91741,-3.322118 -6.310444,-6.207788 -10.1282,-8.485788 l 1.313929,-2.135135 0.9307,-2.737352 L 86.93901,10.621635 81.464306,8.5412473 72.759527,16.972292 71.555092,19.60015 71.117115,22.282755 C 68.802458,21.890962 66.426173,21.680539 64,21.680537 c -2.036369,0 -4.007785,0.105377 -5.967427,0.383229 l -0.437977,-2.57311 -1.094941,-2.682605 z M 64,44.626392 C 74.696244,44.626392 83.373608,53.303758 83.373608,64 83.373608,74.696244 74.696244,83.37361 64,83.37361 53.303758,83.37361 44.62639,74.696244 44.62639,64 44.62639,53.303758 53.303758,44.626392 64,44.626392 Z" style="fill:#aaaaaa"/>
</svg>