<?xml version="1.0" encoding="UTF-8" standalone="no"?>
<svg xmlns:dc="http://purl.org/dc/elements/1.1/"
     xmlns:cc="http://creativecommons.org/ns#"
     xmlns:rdf="http://www.w3.org/1999/02/22-rdf-syntax-ns#"
     xmlns:svg="http://www.w3.org/2000/svg"
     xmlns="http://www.w3.org/2000/svg"
     xmlns:xlink="http://www.w3.org/1999/xlink"
     width="128" height="128" version="1.1">
    <title>Iceweasel Icon</title>
    <desc>This is shape (source) for Clarity vector icon theme for gtk</desc>
    <metadata>
        <rdf:RDF>
            <cc:Work rdf:about="">
                <dc:title>Iceweasel Icon</dc:title>
                <dc:description>This is shape (source) for Clarity vector icon theme for gtk</dc:description>
                <dc:creator>
                    <cc:Agent>
                        <dc:title>Jakub Jankiewicz</dc:title>
                    </cc:Agent>
                </dc:creator>
                <dc:rights>
                    <cc:Agent>
                        <dc:title>Jakub Jankiewicz</dc:title>
                    </cc:Agent>
                </dc:rights>
                <dc:date>2010</dc:date>
                <dc:format>image/svg+xml</dc:format>
                <dc:type rdf:resource="http://purl.org/dc/dcmitype/StillImage" />
                <cc:license rdf:resource="http://www.gnu.org/copyleft/gpl.html" />
             </cc:Work>
        </rdf:RDF>
    </metadata>
    <path d="m 86.408548,9.2495386 c -0.947425,0.03168 -2.160525,0.5500471 -2.75,2.7500004 -0.345735,-1.689526 -4.0625,-1.28125 -4.0625,-1.28125 0,0 1.217815,0.818389 1.1875,1.46875 -1.45e-4,0.0031 2e-4,0.02815 0,0.03125 -0.634781,0.07185 -1.25651,0.149091 -1.875,0.28125 -0.268055,-0.596619 0.07534,-1.767443 -0.09375,-2.5937504 -0.52408,0.7937474 -0.736905,1.9014314 -0.84375,2.8125004 -0.603055,0.162722 -1.20363,0.368989 -1.78125,0.59375 -2.163451,-3.642253 -5.663478,-5.2851249 -9.90625,-2.65625 -2.317646,1.43604 -3.402055,3.735218 -3.71875,6.28125 -6.753373,1.403384 -14.41354,2.59375 -21.09375,2.59375 -16.36443,0 -25.65981,10.851295 -25.8125,28.5625 -0.15268,17.71121 2.44549,21.983019 4.125,22.59375 1.67951,0.61073 0.625,-0.625 0.625,-0.625 l 1.21875,0.75 0,-0.75 1.0625,0.15625 0.625,-1.21875 1.34375,0 c 0,0 1.24644,-0.616008 1.09375,-2.90625 -0.15268,-2.290246 1.22146,-2.737444 0,-4.875 -1.22146,-2.137561 -2.59917,-20.765123 -0.15625,-22.75 2.44293,-1.984876 9.91681,-6.587469 15.71875,-7.65625 5.80195,-1.068779 9.93891,-2.567924 23.375,-0.125 0.01045,0.884002 0.07687,1.928967 0.21875,3.21875 0.769265,6.99337 3.155329,8.117382 6.3125,13.65625 3.839232,6.859123 9.354097,8.037433 16.03125,4.3125 5.503627,-3.218214 8.116178,-3.016284 12.28125,-8.6875 0.847672,-1.154197 1.469802,-2.09257 1.937502,-2.90625 1.00376,-0.742178 2.01859,-1.47596 2.96875,-2.09375 4.63638,-3.111166 10.10081,-9.627419 7,-15.40625 -2.50833,-4.67465 -6.69484,-4.769232 -10.59375,-2.25 -0.35805,-0.505536 -0.73955,-1.002421 -1.156252,-1.46875 0.29333,-0.613648 0.695852,-1.63973 0.656252,-2.5 -0.596307,0.698336 -0.752171,2.380341 -1.718752,1.40625 -0.966575,-0.974094 1,-1.15625 1,-1.15625 0,-10e-7 -2.048659,-1.556113 -2.84375,-0.625 0.750856,-2.802219 -1.53125,-3 -1.53125,-3 5e-6,-1e-6 0.966785,0.983468 0.625,1.75 -0.1142,0.256112 -0.40476,0.431341 -0.71875,0.46875 -0.346061,-0.207664 -0.67212,-0.435433 -1.03125,-0.625 -0.08073,-0.228578 -0.1008,-0.530055 0,-0.90625 -0.59809,-0.213104 -1.069894,-0.03335 -1.40625,0.25 -0.26133,-0.116249 -0.51513,-0.236839 -0.78125,-0.34375 l 0.46875,-2.4375 -1.34375,2.09375 c -0.202605,-0.0723 -0.38905,-0.120607 -0.59375,-0.1875 -0.06301,-0.858479 -0.463385,-1.872488 -1.8125,-2.125 -0.228701,0.853544 -0.670085,1.239544 -1.15625,1.34375 -0.348095,-0.06659 -0.712389,-0.105348 -1.0625,-0.15625 -0.47366,-0.260084 -0.793895,-0.734772 -0.75,-1.1875 0.11318,-1.1673381 2.03125,-1.6562511 2.03125,-1.6562504 5e-6,-10e-8 -0.200845,-0.085448 -0.5,-0.15625 -0.22437,-0.053102 -0.496689,-0.07306 -0.8125,-0.0625 z M 74.252298,26.218289 c 0.213404,0.01281 0.41045,0.06751 0.625,0.125 1.716399,0.459908 2.741158,2.221101 2.28125,3.9375 -0.459908,1.716399 -2.221101,2.741158 -3.9375,2.28125 -1.716399,-0.459908 -2.741158,-2.221101 -2.28125,-3.9375 0.402419,-1.501849 1.818672,-2.495922 3.3125,-2.40625 z m 18.71875,5.1875 c 0.182476,-0.02068 0.375771,-0.01121 0.5625,0 0.213404,0.01281 0.41045,0.03626 0.625,0.09375 1.716399,0.459908 2.741158,2.221101 2.28125,3.9375 -0.459908,1.716399 -2.221101,2.741158 -3.9375,2.28125 -1.716399,-0.459908 -2.741158,-2.221101 -2.28125,-3.9375 0.352117,-1.314118 1.47267,-2.23025 2.75,-2.375 z m -15.65625,14.21875 c 1.816906,-0.103984 3.306209,0.05833 5.34375,1.4375 2.037546,1.379177 1.77138,1.422558 0.75,2.5625 -1.021385,1.13994 -2.840564,2.536752 -4.84375,2 -2.003186,-0.536751 -2.842425,-2.658542 -3.15625,-4.15625 -0.313825,-1.497709 0.08935,-1.739766 1.90625,-1.84375 z m -49.4375,34.96875 0,1.6875 -1.21875,-0.75 0,0.90625 -1.375,-0.75 0.3125,0.75 -1.21875,-0.625 0.15625,1.53125 -1.21875,-1.21875 0.4375,2.15625 -1.21875,-0.625 1.0625,2.75 -1.5,-1.96875 1.0625,2.71875 -0.9375,-0.59375 1.25,2.4375 -1.09375,-0.90625 1.21875,1.6875 -1.0625,-0.625 c 0,0 5.49528,10.389117 14.65625,16.343751 9.16097,5.95463 22.446756,15.40811 42.90625,12.8125 20.459492,-2.59561 19.5625,-25.500001 19.5625,-25.500001 -7.023414,15.879001 -13.193504,18.434941 -26.125,12.062501 C 57.22873,96.839775 33.689798,82.905789 33.689798,82.905789 l -0.15625,1.0625 -2.28125,-2 0,0.625 -1.0625,-1.0625 -0.15625,0.90625 -1.09375,-1.53125 0,1.21875 -1.0625,-1.53125 z" style="fill:#aaaaaa"/>
</svg>