<?xml version="1.0" encoding="UTF-8" standalone="no"?>
<svg xmlns:dc="http://purl.org/dc/elements/1.1/"
     xmlns:cc="http://creativecommons.org/ns#"
     xmlns:rdf="http://www.w3.org/1999/02/22-rdf-syntax-ns#"
     xmlns:svg="http://www.w3.org/2000/svg"
     xmlns="http://www.w3.org/2000/svg"
     xmlns:xlink="http://www.w3.org/1999/xlink"
     width="128" height="128" version="1.1">
    <title>ICQ Icon</title>
    <desc>This is shape (source) for Clarity vector icon theme for gtk</desc>
    <metadata>
        <rdf:RDF>
            <cc:Work rdf:about="">
                <dc:title>ICQ Icon</dc:title>
                <dc:description>This is shape (source) for Clarity vector icon theme for gtk</dc:description>
                <dc:creator>
                    <cc:Agent>
                        <dc:title>Jakub Jankiewicz</dc:title>
                    </cc:Agent>
                </dc:creator>
                <dc:rights>
                    <cc:Agent>
                        <dc:title>Jakub Jankiewicz</dc:title>
                    </cc:Agent>
                </dc:rights>
                <dc:date>2010</dc:date>
                <dc:format>image/svg+xml</dc:format>
                <dc:type rdf:resource="http://purl.org/dc/dcmitype/StillImage" />
                <cc:license rdf:resource="http://www.gnu.org/copyleft/gpl.html" />
             </cc:Work>
        </rdf:RDF>
    </metadata>
    <path d="m 82.64461,13.785093 c -4.035228,0.332095 -7.804255,2.259843 -10.509409,5.39483 -2.065681,-1.228438 -4.440596,-1.966388 -7.006273,-1.891695 -2.819126,0.08207 -5.448965,1.072924 -7.566775,2.662384 -2.722765,-3.268129 -6.618677,-5.32488 -10.719597,-5.67508 -3.028244,-0.258598 -6.109884,0.408794 -8.897965,1.961757 -6.50412,3.622794 -9.440545,11.268333 -7.426649,18.146248 -3.668375,0.658097 -7.016001,2.854534 -9.03809,6.235581 -1.993737,3.333647 -2.338423,7.239869 -1.261129,10.719597 -6.029126,2.414394 -10.184879,8.461573 -9.878845,15.273673 0.3083,6.862522 5.064486,12.531695 11.350162,14.36286 -0.710333,3.211922 -0.258186,6.65918 1.541379,9.668656 1.989124,3.326475 5.260911,5.468537 8.827904,6.165519 -0.709811,6.426837 2.62629,12.957597 8.75784,15.904237 6.537413,3.14168 14.318694,1.32604 18.846873,-3.99357 2.08037,1.17351 4.53964,1.79428 7.076335,1.6815 2.781874,-0.12367 5.353856,-1.13748 7.426648,-2.73244 4.795307,5.62847 13.145875,7.1797 19.757689,3.36301 6.403872,-3.69666 9.157222,-11.333167 7.076332,-18.14625 2.97494,-0.982463 5.61308,-2.987261 7.28653,-5.885268 1.5078,-2.61116 1.98171,-5.54483 1.61144,-8.337464 4.62577,-2.741261 7.77696,-7.795808 7.77696,-13.522107 0,-6.462621 -3.9729,-12.038537 -9.59859,-14.43292 1.33317,-3.565309 1.12879,-7.677342 -0.91082,-11.210036 -1.80634,-3.128675 -4.71348,-5.256266 -7.987148,-6.165519 1.766868,-6.97631 -1.433805,-14.592174 -8.127276,-17.93606 -2.03096,-1.014618 -4.158158,-1.4866 -6.095458,-1.611443 -0.762675,-0.04914 -1.558306,-0.06202 -2.312068,0 z m 0.840751,8.96803 c 0.309325,-0.02457 0.595847,-0.02025 0.910815,0 0.96912,0.06246 1.845844,0.257642 2.592323,0.630563 3.337062,1.667112 4.614511,5.517282 3.012695,8.897968 l -3.08276,4.063637 -10.509408,8.96803 2.242008,-14.292796 c 0.04972,-0.277427 0.07317,-0.558923 0.07007,-0.840754 -0.03657,-1.25589 -0.263398,-2.494 -0.630573,-3.643263 l 0.07007,-0.28025 c 1.151931,-2.071768 3.159478,-3.331143 5.324757,-3.503135 z M 45.161052,23.24356 c 0.320765,-0.01806 0.663315,-0.02713 0.980877,0 2.064992,0.17635 3.938677,1.31796 5.114581,3.292948 l 0.980877,2.942636 c -0.04128,0.48992 -0.01464,0.969161 0,1.471319 -0.0032,0.281828 0.02049,0.563325 0.07007,0.840751 l 3.923514,17.865996 c -0.186158,0.119795 -0.379309,0.223609 -0.560502,0.350314 L 48.664187,43.912066 39.69616,33.122408 c -1.741839,-3.287824 -0.676366,-7.217435 2.59232,-9.038094 0.960358,-0.534921 1.910271,-0.786707 2.872572,-0.840754 z m 20.248128,3.012698 c 1.192877,-0.03472 2.183736,0.442327 2.942634,1.191065 L 64.988802,39.147801 61.555728,28.988704 c 0.590072,-1.563962 2.045721,-2.679817 3.853452,-2.732446 z m 30.617408,15.553928 c 1.30871,0.09149 2.675152,0.859186 3.433074,2.171942 1.192778,2.065951 0.47968,4.4155 -1.541379,5.675082 l -2.80251,0.980877 -8.968028,1.681505 7.286523,-9.668655 0.420375,-0.350314 c 0.739731,-0.366795 1.498133,-0.53754 2.171945,-0.490437 z m -63.476825,1.331191 c 0.750744,-0.04087 1.589482,0.172983 2.38213,0.630563 0.02171,0.01244 0.04828,-0.01293 0.07007,0 l 7.146397,6.305646 2.31207,2.80251 -14.012544,-1.961757 c -1.924291,-1.292883 -2.47322,-3.648402 -1.261136,-5.675082 0.798969,-1.335922 2.023233,-2.028932 3.363012,-2.10188 z M 65.40918,55.962856 c 0.448787,0 0.903901,0.07263 1.331191,0.140118 0.4232,0.06683 0.793896,0.152172 1.191065,0.280253 0.642115,0.209726 1.267001,0.487509 1.821633,0.840753 0.22034,0.140338 0.425945,0.259792 0.630563,0.420376 0.05212,0.04045 0.08908,0.09842 0.140119,0.140118 0.252169,0.208385 0.475786,0.39313 0.700627,0.630564 0.02294,0.02367 0.04753,0.04606 0.07007,0.07007 0.04462,0.04733 0.09667,0.09171 0.140119,0.140119 0.152049,0.172617 0.283067,0.37511 0.420375,0.560501 0.141705,0.189111 0.295525,0.359051 0.420376,0.560502 0.05343,0.08625 0.08976,0.191843 0.140118,0.280252 0.04077,0.07241 0.09574,0.140631 0.140119,0.21019 0.04536,0.117282 0.08452,0.236223 0.140119,0.350314 0.177496,0.372853 0.295818,0.744596 0.420375,1.121003 0.03565,0.119283 0.109768,0.228879 0.140119,0.350314 0.02367,0.09864 0.05002,0.180132 0.07007,0.280252 0.0046,0.02196 -0.0044,0.04806 0,0.07007 0.0046,0.0222 -0.0051,0.04797 0,0.07007 0.112622,0.504278 0.210191,1.016869 0.210191,1.541379 0,0.465944 -0.06749,0.887661 -0.140119,1.331191 -0.01537,0.0951 -0.05131,0.186328 -0.07007,0.280252 -0.06763,0.319311 -0.104399,0.607551 -0.21019,0.910815 -0.07244,0.214972 -0.1196,0.422913 -0.21019,0.630563 -0.06182,0.139192 -0.140607,0.2848 -0.21019,0.420378 -0.01366,0.02808 -0.05614,0.04216 -0.07007,0.07007 -0.0098,0.01854 0.0098,0.05148 0,0.07007 -0.02442,0.04733 -0.04475,0.09335 -0.07007,0.140119 -0.08676,0.163078 -0.182962,0.334426 -0.280252,0.49044 -0.01757,0.02762 -0.05214,0.04267 -0.07007,0.07007 -0.266591,0.399311 -0.573166,0.764756 -0.910815,1.121006 -0.05738,0.06161 -0.08083,0.150415 -0.140119,0.21019 -0.04409,0.05092 -0.09854,0.08749 -0.140119,0.140119 -0.262251,0.250401 -0.546792,0.48657 -0.840751,0.700628 -0.04155,0.03008 -0.09798,0.04077 -0.140118,0.07007 -0.02669,0.01854 -0.04314,0.05172 -0.07007,0.07007 -0.151781,0.10274 -0.331334,0.187866 -0.49044,0.280252 -0.04609,0.02684 -0.09347,0.04411 -0.140118,0.07007 -0.08927,0.04958 -0.188867,0.09388 -0.28025,0.140119 -0.207092,0.105205 -0.413707,0.262807 -0.630566,0.350314 -0.161076,0.06414 -0.324198,0.08617 -0.49044,0.140118 -0.1601,0.05321 -0.326069,0.09684 -0.490437,0.140119 -0.279025,0.07349 -0.550818,0.09662 -0.840753,0.140119 -0.02828,0.0041 -0.04162,0.06624 -0.07007,0.07007 -0.3614,0.04841 -0.739335,0.07007 -1.121003,0.07007 -0.07324,0 -0.137435,0.0019 -0.21019,0 -0.416533,-0.01073 -0.793197,-0.07036 -1.191065,-0.140119 -0.02318,-0.0041 -0.04697,0.0041 -0.07007,0 -0.04301,-0.0081 -0.09732,0.0088 -0.140118,0 -0.02196,-0.0044 -0.04819,0.0046 -0.07007,0 -0.225366,-0.04601 -0.414354,-0.146243 -0.630563,-0.21019 -0.282995,-0.08317 -0.571437,-0.168299 -0.840754,-0.280252 -0.04824,-0.02074 -0.0913,-0.05099 -0.140119,-0.07007 -0.293651,-0.128602 -0.566481,-0.259521 -0.840751,-0.420375 -0.09776,-0.05743 -0.185182,-0.148829 -0.280252,-0.21019 -0.04289,-0.02769 -0.09779,-0.0416 -0.140118,-0.07007 -0.01342,-0.0095 0.01366,-0.06075 0,-0.07007 -0.378053,-0.259791 -0.718966,-0.523279 -1.050939,-0.840753 -0.331974,-0.317472 -0.635314,-0.687187 -0.910816,-1.050941 -0.05936,-0.07839 -0.153733,-0.12997 -0.21019,-0.210191 -0.05697,-0.08466 -0.08632,-0.193331 -0.140119,-0.280249 -0.01049,-0.0161 0.01025,-0.05385 0,-0.07007 -0.214655,-0.351887 -0.466566,-0.683937 -0.630565,-1.050941 -0.128896,-0.307249 -0.189135,-0.655179 -0.28025,-0.980877 -0.09274,-0.301408 -0.15549,-0.601103 -0.21019,-0.910816 -0.07268,-0.411455 -0.140119,-0.836181 -0.140119,-1.261129 0,-0.472204 0.06468,-0.952997 0.140119,-1.401255 0.01366,-0.07234 0.05436,-0.138655 0.07007,-0.21019 0.0098,-0.04553 -0.01025,-0.09484 0,-0.140119 0.02589,-0.120746 0.03892,-0.231758 0.07007,-0.350314 0.0607,-0.209116 0.131921,-0.428619 0.21019,-0.630563 0.324869,-0.838182 0.809034,-1.587779 1.401255,-2.31207 0.08752,-0.109475 0.133824,-0.234003 0.21019,-0.350314 0.03423,-0.03801 0.03511,-0.102765 0.07007,-0.140119 0.06336,-0.06702 0.144486,-0.145413 0.21019,-0.21019 0.03633,-0.03604 0.103131,-0.03472 0.140119,-0.07007 0.219852,-0.209238 0.457246,-0.447096 0.700627,-0.630565 0.161077,-0.120991 0.320129,-0.241372 0.490438,-0.350312 0.319233,-0.203993 0.631378,-0.401564 0.980879,-0.560504 0.205213,-0.0933 0.416009,-0.133458 0.630564,-0.21019 0.05036,-0.01805 0.08927,-0.05299 0.140118,-0.07007 0.139241,-0.04784 0.27771,-0.09962 0.420376,-0.140118 0.18445,-0.05116 0.370586,-0.101375 0.560502,-0.140119 0.02196,-0.0054 0.04806,0.0051 0.07007,0 0.04589,-0.0093 0.09393,0.0085 0.140119,0 0.489034,-0.08905 0.954288,-0.140119 1.471319,-0.140119 z m 36.71287,2.522256 c 3.7178,0.08686 6.58589,2.911458 6.58589,6.655959 0,2.340316 -1.12464,4.287061 -2.87257,5.464892 -0.70314,-0.650731 -1.52039,-1.183894 -2.38213,-1.681504 -0.24528,-0.140827 -0.50332,-0.258106 -0.77069,-0.350314 l -15.764116,-5.605018 10.22916,-3.573198 4.974456,-0.910817 z m -76.508496,0.770691 2.522255,0.350314 17.025243,6.375708 -16.604865,6.095455 -2.31207,0.560504 c -3.75327,0.131165 -6.76661,-2.670616 -6.936209,-6.445772 -0.170104,-3.786112 2.560778,-6.716305 6.305646,-6.936209 z m 18.076181,18.426495 -7.216461,9.878846 c -2.039068,1.0526 -4.331995,0.470365 -5.534954,-1.541381 -1.167623,-1.952654 -0.651007,-4.296494 1.121003,-5.605019 l 11.630412,-2.732446 z m 46.871961,1.121006 10.579474,1.961754 c -0.051,0.585756 -0.2381,1.193224 -0.5605,1.751569 -1.156359,2.002526 -3.380518,2.607166 -5.394833,1.681505 l -4.624141,-5.394828 z m -15.133547,0.560501 13.452042,11.490286 3.08276,3.5732 c 1.693016,3.234343 0.701838,7.036849 -2.522258,8.897969 -3.266208,1.88543 -7.103415,0.80048 -9.038092,-2.38214 L 79.35166,97.930426 c 0.02584,-0.443349 0.02025,-0.878883 0,-1.331191 -0.02415,-0.260492 -0.07102,-0.518373 -0.140119,-0.770691 L 75.428153,79.363805 z m -20.528378,3.993576 -1.891695,13.592168 c -0.04972,0.277424 -0.07317,0.558923 -0.07007,0.840751 0.0578,1.300208 0.288803,2.53833 0.700627,3.71333 l 0,0.0701 c -1.662696,3.32912 -5.485879,4.65244 -8.897966,3.0127 -3.382474,-1.62552 -4.642408,-5.336696 -3.08276,-8.757847 L 43.269347,93.586547 54.899761,83.35739 z m 11.630412,5.114578 3.573197,10.229157 c -0.549061,1.568454 -1.940145,2.650504 -3.783385,2.732444 -1.206763,0.0537 -2.247913,-0.33862 -3.012698,-1.05094 l 3.222886,-11.910661 z" style="fill:#aaaaaa"/>
</svg>