<?xml version="1.0" encoding="UTF-8" standalone="no"?>
<svg xmlns:dc="http://purl.org/dc/elements/1.1/"
     xmlns:cc="http://creativecommons.org/ns#"
     xmlns:rdf="http://www.w3.org/1999/02/22-rdf-syntax-ns#"
     xmlns:svg="http://www.w3.org/2000/svg"
     xmlns="http://www.w3.org/2000/svg"
     xmlns:xlink="http://www.w3.org/1999/xlink"
     width="128" height="128" version="1.1">
    <title>Jabber Logo</title>
    <desc>This is shape (source) for Clarity vector icon theme for gtk</desc>
    <metadata>
        <rdf:RDF>
            <cc:Work rdf:about="">
                <dc:title>Jabber Logo</dc:title>
                <dc:description>This is shape (source) for Clarity vector icon theme for gtk</dc:description>
                <dc:creator>
                    <cc:Agent>
                        <dc:title>Jakub Jankiewicz</dc:title>
                    </cc:Agent>
                </dc:creator>
                <dc:rights>
                    <cc:Agent>
                        <dc:title>Jakub Jankiewicz</dc:title>
                    </cc:Agent>
                </dc:rights>
                <dc:date>2010</dc:date>
                <dc:format>image/svg+xml</dc:format>
                <dc:type rdf:resource="http://purl.org/dc/dcmitype/StillImage" />
                <cc:license rdf:resource="http://www.gnu.org/copyleft/gpl.html" />
             </cc:Work>
        </rdf:RDF>
    </metadata>
    <path d="m 51.879749,10.431564 c -0.315063,0.009 -0.602773,0.02476 -0.907389,0.06481 -1.942808,0.255361 -3.945797,0.249329 -5.89803,0.550915 -3.739715,0.577592 -7.321103,1.741888 -10.823858,3.143456 -1.275458,0.510274 -2.523219,1.054508 -3.759184,1.652744 -0.459964,0.2226 -1.153314,0.420526 -1.523117,0.777763 -0.192486,0.186247 -0.171059,0.625903 -0.194441,0.874982 -0.06503,0.70056 -0.159035,1.373921 -0.226847,2.074033 -0.261599,2.70171 -0.451673,5.498545 -0.06481,8.19891 0.125212,0.872447 0.386147,2.457549 1.458304,2.624947 1.648808,0.258053 2.950018,-1.763575 3.759184,-2.884201 1.889852,-2.617339 4.030149,-5.052104 7.129487,-6.222098 3.648656,-1.377334 7.838805,-1.712027 11.698841,-1.976812 10.829733,-0.742299 22.64671,1.225842 30.624387,9.203519 1.134539,1.13454 2.23017,2.338484 3.143456,3.661964 3.571913,5.172745 5.442029,11.062363 6.351724,17.240396 0.427697,2.900525 0.72633,5.829011 0.06481,8.717418 -1.148002,5.011181 -4.15677,9.379049 -7.615589,13.092331 -2.367363,2.541493 -5.037409,4.84683 -7.810029,6.935046 -1.547874,1.165506 -3.275963,2.161004 -4.731386,3.435117 -1.676228,1.46754 -3.088474,3.291827 -4.148066,5.249895 -2.851607,5.272375 -3.593316,11.614229 -2.754574,17.499648 0.171886,1.20635 0.31001,2.40741 0.583322,3.59715 0.08167,0.3559 0.09383,0.97304 0.324067,1.26387 0.430838,0.54392 1.610099,0.84311 2.268473,0.87498 0.686647,0.0332 1.160382,-0.48609 1.328677,-1.10183 0.288124,-1.0551 0.102131,-2.2117 -0.06481,-3.27308 -0.341978,-2.17394 -0.647853,-4.37188 -0.550915,-6.578577 0.178619,-4.074557 1.745571,-7.870825 4.569353,-10.823857 2.871802,-3.003298 6.750094,-4.743202 10.013689,-7.259114 6.577448,-5.070421 12.48228,-11.919196 14.745075,-20.059784 0.808718,-2.911296 1.082302,-5.979658 0.712949,-8.976672 C 99.115757,48.218514 97.712613,44.431629 96.406636,40.86151 92.426325,29.979269 85.602117,19.622861 74.758921,14.644442 c -4.30344,-1.975571 -8.789026,-2.883387 -13.448805,-3.532336 -2.185154,-0.30428 -4.378562,-0.486832 -6.578572,-0.583322 -0.916506,-0.04006 -1.906604,-0.124189 -2.851795,-0.09722 z m -5.444335,45.175022 c -0.981561,0.05212 -1.937368,0.325486 -2.786981,0.842576 -1.374193,0.836992 -2.161703,2.291288 -2.592541,3.79159 -0.855392,2.979063 -0.468564,6.373925 0.129627,9.365554 0.191184,0.956818 0.412166,1.912479 0.680542,2.851795 0.09694,0.338835 0.136119,0.852396 0.356474,1.134236 0.384568,0.492771 1.303841,0.615447 1.879592,0.518508 1.72739,-0.290366 1.322655,-3.133019 1.263864,-4.342505 -0.137779,-2.833207 -0.970752,-5.575403 -0.162034,-8.393351 0.342426,-1.192433 0.999558,-2.528332 2.20366,-3.046235 1.086967,-0.468087 2.194558,0.104808 2.624947,1.166643 0.696925,1.719312 0.502676,3.687868 0.939796,5.476742 0.14855,0.60811 0.309111,1.215551 0.583322,1.782372 0.07944,0.163808 0.19106,0.506745 0.421288,0.486101 0.55964,-0.05117 1.362799,-0.982212 1.782371,-1.328677 1.355344,-1.120178 2.749659,-2.314541 4.310099,-3.143455 0.73422,-0.389998 1.939789,-1.019786 2.689761,-0.356475 0.191139,0.169194 0.349222,0.36925 0.486102,0.583322 0.881422,1.380925 -0.01022,2.446027 -0.583322,3.759184 -0.741848,1.699565 -1.48524,3.374717 -2.560134,4.893421 -0.924057,1.305976 -2.178306,2.46211 -2.916608,3.888811 -0.475268,0.918672 -0.747485,1.912312 -0.550915,2.949015 0.15932,0.838338 0.797801,1.363213 1.652745,1.166643 0.639972,-0.147202 1.061031,-0.692816 1.425897,-1.19905 0.650295,-0.902964 1.265743,-1.84802 1.911999,-2.754575 1.250327,-1.753419 2.740078,-3.397387 3.791591,-5.282301 1.267381,-2.27222 1.880982,-4.83298 1.879592,-7.421148 -8.54e-4,-2.115143 -0.777228,-5.357407 -3.240676,-5.80081 -0.463555,-0.08302 -0.997846,-0.04792 -1.458304,0.03241 -0.572162,0.09963 -1.162312,0.297798 -1.685152,0.550915 -1.400671,0.677672 -2.588815,1.701098 -3.629557,2.851794 -0.649353,0.717166 -1.238649,1.614848 -2.009219,2.20366 0,-1.562235 -0.291598,-3.259337 -1.19905,-4.569353 -1.250832,-1.805283 -3.479342,-2.772023 -5.638776,-2.657354 z M 34.704167,80.916265 c -0.224334,-0.01727 -0.459271,-0.0039 -0.712949,0.03241 -2.113348,0.302485 -2.723733,2.009824 -2.333286,3.921218 0.49995,2.445901 2.436542,4.299067 4.342505,5.768403 4.883276,3.764444 11.187858,5.81083 17.337616,5.541556 2.399677,-0.105016 4.992092,-0.504814 7.194301,-1.523117 1.180764,-0.545728 2.418181,-2.528824 0.810169,-3.370303 -0.220356,-0.115339 -0.499823,-0.186457 -0.745355,-0.226848 -0.702311,-0.11489 -1.473336,0.197697 -2.138847,0.388881 -1.173583,0.337041 -2.356603,0.681105 -3.564743,0.874983 -3.609611,0.579835 -7.511302,-0.259171 -10.49979,-2.3981 C 41.978,88.19571 40.016259,85.911905 38.17169,83.606026 37.183721,82.371014 36.274499,81.037183 34.704167,80.916265 z m -2.560134,11.925687 c -0.319549,0.0033 -0.652926,0.03138 -0.907389,0.06481 -0.537651,0.07091 -1.127473,0.05094 -1.587931,0.388881 -0.960409,0.705047 0.07798,2.111907 0.583321,2.754574 1.465252,1.862026 3.389358,3.401269 5.314709,4.763789 5.367474,3.79721 11.446847,6.00061 17.985751,6.44895 1.879933,0.1288 3.811849,-0.0147 5.671183,-0.32407 0.679871,-0.11355 1.510541,-0.16019 2.138846,-0.45369 1.778058,-0.83161 1.262806,-4.17905 -0.324068,-4.92583 -0.692931,-0.32583 -1.801136,0.0935 -2.527727,0.19444 -1.718414,0.23966 -3.424386,0.26903 -5.152675,0.22685 -4.529629,-0.11085 -9.372525,-1.49261 -13.319178,-3.694372 -1.551464,-0.866164 -2.978047,-1.938363 -4.310098,-3.111049 -0.810065,-0.713126 -1.63919,-1.875688 -2.689761,-2.236067 -0.244591,-0.08392 -0.555434,-0.10053 -0.874983,-0.09722 z m 0.194441,10.143318 c -0.76559,0.0858 -1.343644,0.46885 -1.847186,1.03701 -0.346914,0.39135 -0.675721,0.73779 -0.874982,1.23146 -1.098637,2.71786 1.801303,5.29504 3.823997,6.57857 2.251082,1.42805 4.721118,2.47855 7.226708,3.37031 5.651154,2.01147 12.278968,3.32141 18.147785,1.52311 1.744444,-0.53406 3.463107,-1.5319 4.731387,-2.85179 0.714427,-0.74365 1.213199,-1.85712 -0.09722,-2.33329 -0.776405,-0.28183 -1.726356,0.42932 -2.430507,0.71295 -1.662315,0.67049 -3.368288,1.17762 -5.152674,1.39349 -2.35031,0.28497 -4.475568,-0.24334 -6.740606,-0.81017 -1.934731,-0.48379 -3.897804,-0.95533 -5.768403,-1.65274 -1.595895,-0.5951 -3.172766,-1.31265 -4.569353,-2.30088 -0.417375,-0.2953 -0.921886,-0.55518 -1.263864,-0.9398 -1.117934,-1.25795 -1.944739,-2.72474 -3.143456,-3.92122 -0.517902,-0.517 -1.249018,-1.12542 -2.041625,-1.03701 z" style="fill:#aaaaaa"/>
</svg>