<?xml version="1.0" encoding="UTF-8" standalone="no"?>
<svg xmlns:dc="http://purl.org/dc/elements/1.1/"
     xmlns:cc="http://creativecommons.org/ns#"
     xmlns:rdf="http://www.w3.org/1999/02/22-rdf-syntax-ns#"
     xmlns:svg="http://www.w3.org/2000/svg"
     xmlns="http://www.w3.org/2000/svg"
     xmlns:xlink="http://www.w3.org/1999/xlink"
     width="128" height="128" version="1.1">
    <title>MSN Communicator Icon</title>
    <desc>This is shape (source) for Clarity vector icon theme for gtk</desc>
    <metadata>
        <rdf:RDF>
            <cc:Work rdf:about="">
                <dc:title>MSN Communicator Icon</dc:title>
                <dc:description>This is shape (source) for Clarity vector icon theme for gtk</dc:description>
                <dc:creator>
                    <cc:Agent>
                        <dc:title>Jakub Jankiewicz</dc:title>
                    </cc:Agent>
                </dc:creator>
                <dc:rights>
                    <cc:Agent>
                        <dc:title>Jakub Jankiewicz</dc:title>
                    </cc:Agent>
                </dc:rights>
                <dc:date>2010</dc:date>
                <dc:format>image/svg+xml</dc:format>
                <dc:type rdf:resource="http://purl.org/dc/dcmitype/StillImage" />
                <cc:license rdf:resource="http://www.gnu.org/copyleft/gpl.html" />
             </cc:Work>
        </rdf:RDF>
    </metadata>
    <path d="m 76.920738,16.323045 c -8.605817,0 -16.653703,4.357532 -22.305669,11.246873 -1.489569,-0.290313 -2.997802,-0.45138 -4.513795,-0.45138 -15.492544,0 -29.537919,15.783288 -28.060755,34.568141 0.912985,11.610266 5.49678,22.063149 12.52578,28.361676 l 0,3.498191 c -0.403147,2.127486 -1.950038,3.554798 -4.25049,4.70187 -2.300451,1.147068 -5.275103,1.942434 -8.237673,2.821114 -2.962573,0.87869 -5.93531,1.81431 -8.200062,3.31012 -2.264753,1.49582 -3.836725,3.65619 -3.836725,6.69547 l 0,0.60183 0.60184,0 78.239102,0 0.60184,0 0,-0.60183 c 0,-2.81738 -1.653293,-4.76287 -3.94957,-6.09362 -0.155278,-0.09 -0.327708,-0.17778 -0.488994,-0.26331 l 30.693803,0 2.21928,0 0,-2.21928 c 0,-3.430049 -2.20413,-5.995281 -4.77709,-7.485381 -2.57298,-1.490097 -5.61589,-2.346845 -8.53861,-3.197271 -2.92271,-0.850425 -5.709718,-1.722737 -7.522982,-2.82112 -1.813267,-1.098384 -2.595434,-2.00722 -2.595434,-3.911956 l 0,-2.896352 C 101.41453,75.345795 105.78748,64.905534 107.23839,53.373776 109.7663,33.281926 93.925858,16.323045 76.920738,16.323045 z m 0,4.438566 c 13.979968,0 28.077642,14.611438 25.879082,32.085555 -1.40541,11.170213 -5.736902,21.127667 -11.999166,26.932308 l -0.714685,0.639455 0,0.977988 0,3.686265 c 0,3.51073 2.158853,6.185465 4.739485,7.748682 2.580634,1.563213 5.640386,2.418259 8.576206,3.272498 2.93582,0.854242 5.73968,1.691327 7.56061,2.745891 0.82325,0.476773 1.3573,0.93692 1.7679,1.429367 l -40.586532,0 c -0.982174,-0.384547 -1.913825,-0.797329 -2.708277,-1.278902 -2.090842,-1.267408 -3.34773,-2.850386 -3.34773,-5.341328 l 0,-4.25049 C 72.550217,83.055054 76.750383,72.906447 78.162029,61.686679 80.043119,46.735777 70.949678,33.702485 59.354552,28.999287 c 4.778037,-5.097979 11.09539,-8.237676 17.566186,-8.237676 z" style="fill:#aaaaaa"/>
</svg>