<?xml version="1.0" encoding="UTF-8" standalone="no"?>
<svg xmlns:dc="http://purl.org/dc/elements/1.1/"
     xmlns:cc="http://creativecommons.org/ns#"
     xmlns:rdf="http://www.w3.org/1999/02/22-rdf-syntax-ns#"
     xmlns:svg="http://www.w3.org/2000/svg"
     xmlns="http://www.w3.org/2000/svg"
     xmlns:xlink="http://www.w3.org/1999/xlink"
     width="128" height="128" version="1.1">
    <title>Jamendo Icon</title>
    <desc>This is shape (source) for Clarity vector icon theme for gtk</desc>
    <metadata>
        <rdf:RDF>
            <cc:Work rdf:about="">
                <dc:title>Jamendo Icon</dc:title>
                <dc:description>This is shape (source) for Clarity vector icon theme for gtk</dc:description>
                <dc:creator>
                    <cc:Agent>
                        <dc:title>Jakub Jankiewicz</dc:title>
                    </cc:Agent>
                </dc:creator>
                <dc:rights>
                    <cc:Agent>
                        <dc:title>Jakub Jankiewicz</dc:title>
                    </cc:Agent>
                </dc:rights>
                <dc:date>2010</dc:date>
                <dc:format>image/svg+xml</dc:format>
                <dc:type rdf:resource="http://purl.org/dc/dcmitype/StillImage" />
                <cc:license rdf:resource="http://www.gnu.org/copyleft/gpl.html" />
             </cc:Work>
        </rdf:RDF>
    </metadata>
    <path d="M 64,6.1285867 C 32.135152,6.1285867 6.1285867,32.135155 6.1285867,64 6.1285867,95.864845 32.135158,121.87141 64,121.87141 95.864839,121.87141 121.87142,95.864851 121.87141,64 121.87141,32.135155 95.864845,6.1285867 64,6.1285867 z m 0,15.5529423 c 23.451982,0 42.31847,18.866483 42.31847,42.318471 0,23.451988 -18.866482,42.31847 -42.31847,42.31847 C 40.548009,106.31847 21.681529,87.451991 21.681529,64 21.681529,40.548012 40.548012,21.681529 64,21.681529 z M 52.335293,41.755675 c -0.386876,0.07382 -0.639907,0.420023 -0.632968,0.813817 l 0,44.94077 c -0.0026,0.290381 0.110852,0.577085 0.361696,0.723392 0.250844,0.146299 0.56231,0.145489 0.813817,0 L 91.941042,65.718058 c 0.257556,-0.142538 0.361696,-0.338606 0.361696,-0.632969 0,-0.294363 -0.104168,-0.580838 -0.361696,-0.723393 L 52.877838,41.8461 c -0.167249,-0.09951 -0.35097,-0.124684 -0.542545,-0.09043 z" style="fill:#aaaaaa"/>
</svg>