<?xml version="1.0" encoding="UTF-8" standalone="no"?>
<svg xmlns:dc="http://purl.org/dc/elements/1.1/"
     xmlns:cc="http://creativecommons.org/ns#"
     xmlns:rdf="http://www.w3.org/1999/02/22-rdf-syntax-ns#"
     xmlns:svg="http://www.w3.org/2000/svg"
     xmlns="http://www.w3.org/2000/svg"
     xmlns:xlink="http://www.w3.org/1999/xlink"
     width="128" height="128" version="1.1">
    <title>jDownloader Icon</title>
    <desc>This is shape (source) for Clarity vector icon theme for gtk</desc>
    <metadata>
        <rdf:RDF>
            <cc:Work rdf:about="">
                <dc:title>jDownloader Icon</dc:title>
                <dc:description>This is shape (source) for Clarity vector icon theme for gtk</dc:description>
                <dc:creator>
                    <cc:Agent>
                        <dc:title>Jakub Jankiewicz</dc:title>
                    </cc:Agent>
                </dc:creator>
                <dc:rights>
                    <cc:Agent>
                        <dc:title>Jakub Jankiewicz</dc:title>
                    </cc:Agent>
                </dc:rights>
                <dc:date>2010</dc:date>
                <dc:format>image/svg+xml</dc:format>
                <dc:type rdf:resource="http://purl.org/dc/dcmitype/StillImage" />
                <cc:license rdf:resource="http://creativecommons.org/licenses/by-sa/3.0/" />
             </cc:Work>
        </rdf:RDF>
    </metadata>
    <path d="M 64 4.125 C 60.061661 4.125 56.228533 4.539125 52.53125 5.34375 C 54.581428 7.732804 56.490715 10.192121 58.3125 12.6875 C 58.926333 13.528038 59.504803 14.367293 60.09375 15.21875 C 60.682697 16.070208 61.27918 16.919431 61.84375 17.78125 C 62.408321 18.643068 62.959296 19.53463 63.5 20.40625 C 63.813727 20.912438 64.162936 21.428149 64.46875 21.9375 C 64.686636 22.300176 64.879832 22.66702 65.09375 23.03125 C 65.445211 23.630041 65.815386 24.209646 66.15625 24.8125 C 66.316092 25.095036 66.467461 25.372853 66.625 25.65625 C 67.007722 26.345126 67.380712 27.056203 67.75 27.75 C 67.858527 27.953747 67.955118 28.170844 68.0625 28.375 C 68.46966 29.149771 68.890376 29.907055 69.28125 30.6875 C 69.34403 30.812717 69.375138 30.937143 69.4375 31.0625 C 70.231949 32.659474 71.021298 34.256882 71.75 35.875 C 71.84742 36.091331 71.934974 36.314572 72.03125 36.53125 C 72.1006 36.687461 72.181241 36.843611 72.25 37 C 72.972632 38.642313 73.622431 40.308664 74.28125 41.96875 C 74.29727 42.00912 74.32776 42.053367 74.34375 42.09375 C 74.43257 42.318302 74.53731 42.525157 74.625 42.75 C 74.900357 43.455553 75.173179 44.166747 75.4375 44.875 C 75.554351 45.188326 75.666526 45.498681 75.78125 45.8125 C 76.008816 46.434563 76.218185 47.06362 76.4375 47.6875 C 76.767554 48.626399 77.09446 49.557448 77.40625 50.5 C 77.71804 51.442552 78.018463 52.398103 78.3125 53.34375 C 78.490065 53.91559 78.672523 54.489696 78.84375 55.0625 C 78.95559 55.436144 79.047068 55.813488 79.15625 56.1875 C 79.350194 56.852641 79.564323 57.490098 79.75 58.15625 C 79.82896 58.439191 79.922517 58.74815 80 59.03125 C 80.206712 59.787327 80.366084 60.555494 80.5625 61.3125 C 80.61286 61.506413 80.669054 61.712288 80.71875 61.90625 C 81.201664 63.790871 81.671503 65.644335 82.09375 67.53125 C 82.09785 67.54981 82.08965 67.57519 82.09375 67.59375 C 82.894959 71.179041 83.584457 74.773064 84.1875 78.34375 C 84.22545 78.568481 84.275276 78.80664 84.3125 79.03125 C 84.538967 80.399436 84.737106 81.762311 84.9375 83.125 C 84.95318 83.231614 84.95322 83.362175 84.96875 83.46875 C 85.253681 85.425025 85.545996 87.340821 85.78125 89.28125 C 86.029431 91.328312 86.239412 93.382528 86.4375 95.40625 C 86.45374 95.572169 86.48407 95.740509 86.5 95.90625 C 86.67802 97.759692 86.828174 99.608813 86.96875 101.4375 L 79.84375 105.71875 L 81.8125 108.5625 L 92.5 123.875 L 109.40625 88.0625 L 107.78125 89 L 101.9375 92.375 C 101.50998 88.278401 100.95817 84.176776 100.3125 80.09375 C 100.05518 78.466608 99.792059 76.83888 99.5 75.21875 C 99.2912 74.058717 99.039091 72.936513 98.8125 71.78125 C 98.7474 71.449275 98.691579 71.112776 98.625 70.78125 C 98.5516 70.416506 98.48139 70.051666 98.40625 69.6875 C 98.148941 68.438656 97.872021 67.178767 97.59375 65.9375 C 97.55625 65.770141 97.53796 65.635958 97.5 65.46875 C 97.4732 65.350539 97.43325 65.211884 97.40625 65.09375 C 97.028531 63.440234 96.63387 61.793044 96.21875 60.15625 C 95.866911 58.770829 95.503719 57.40262 95.125 56.03125 C 95.1035 55.95331 95.11535 55.859148 95.09375 55.78125 C 94.63662 54.133544 94.15231 52.499276 93.65625 50.875 C 93.58485 50.64135 93.50966 50.420627 93.4375 50.1875 C 93.3981 50.059977 93.35216 49.939865 93.3125 49.8125 C 93.2912 49.74425 93.2713 49.661959 93.25 49.59375 C 92.740449 47.96332 92.20539 46.352479 91.65625 44.75 C 91.62295 44.65311 91.5959 44.565534 91.5625 44.46875 C 91.01845 42.889726 90.4264 41.329661 89.84375 39.78125 C 89.22889 38.147259 88.595429 36.533742 87.9375 34.9375 C 87.275641 33.331718 86.611785 31.751268 85.90625 30.1875 C 85.587586 29.481706 85.26507 28.790433 84.9375 28.09375 C 84.54223 27.251976 84.158289 26.421647 83.75 25.59375 C 83.73639 25.5662 83.73236 25.55879 83.71875 25.53125 C 82.236436 22.530426 80.653972 19.611714 79 16.8125 C 76.412996 12.434209 73.634148 8.323558 70.625 4.53125 C 68.45539 4.264545 66.241692 4.125 64 4.125 z M 73.34375 4.90625 C 76.144073 8.6292277 79.321248 13.318732 82.59375 19.09375 L 83.0625 18.78125 L 83.0625 17.4375 L 85.4375 15.875 L 89.09375 15 C 90.70558 15.944751 92.22999 17.010081 93.71875 18.125 L 92.78125 18.125 L 95.34375 20.75 L 96.09375 19.96875 C 96.35946 20.193943 96.61417 20.425605 96.875 20.65625 C 97.3262 19.000302 97.70097 17.492855 97.96875 16.1875 C 91.003969 10.498533 82.573964 6.5245525 73.34375 4.90625 z M 50.03125 5.9375 C 27.131386 12.085617 10.28125 32.969782 10.28125 57.8125 C 10.28125 72.936413 16.539639 86.605061 26.59375 96.375 C 29.403279 95.485577 32.105688 94.527735 34.6875 93.46875 L 34.34375 92.6875 L 34.5625 87.96875 L 32.96875 85.75 L 29.46875 82.59375 L 25.875 76.09375 L 26.875 72.75 L 26.46875 71.84375 L 27.625 70.0625 L 29.25 65.8125 L 29.25 65.46875 L 28.03125 64.90625 L 26.46875 65.125 L 23.6875 63.09375 L 21.90625 60.875 L 17.78125 59.75 L 14.40625 57.75 C 14.42608 40.538175 23.19164 25.411447 36.5 16.53125 L 36.375 18.3125 L 34.1875 20.34375 L 29.25 23.21875 L 29.8125 25.28125 L 33.59375 26.84375 L 34.1875 29.53125 L 35.5625 26.59375 L 37.75 25.6875 L 37.53125 24.375 L 39.71875 20.59375 L 42.5 22.15625 L 42.09375 23.9375 L 44.46875 23.03125 L 45.46875 25.0625 L 45.0625 26.40625 L 46.46875 26.84375 L 47.65625 27.96875 L 47.25 29.3125 L 43.875 30.4375 L 41.5 30.4375 L 38.15625 32 L 43.46875 32 L 41.6875 34.65625 L 38.15625 35.34375 L 36.5625 37.59375 L 33.8125 38.71875 L 32.375 42.0625 L 28.625 45.1875 L 28.25 49.6875 L 26.0625 46.96875 L 23.09375 46.3125 L 22.71875 47.65625 L 20.34375 47.65625 L 17.34375 49.90625 L 16.96875 52.59375 L 17.1875 55.0625 L 19.15625 56.1875 L 20.53125 55.5 L 21.90625 53.71875 L 23.28125 53.71875 C 23.08172 55.286985 22.916917 56.837743 22.71875 58.40625 L 25.09375 58.15625 L 25.09375 60.625 L 25.875 62.90625 C 26.834838 63.496413 28.172023 63.532607 29.25 63.84375 L 29.25 63.34375 L 32.8125 60.1875 L 36.1875 62.65625 L 40.125 62.21875 L 41.6875 66.46875 L 44.65625 67.125 L 46.25 70.3125 C 49.474395 71.971112 52.68889 73.607778 55.9375 75.21875 L 55.53125 78.5625 L 53.1875 81.9375 L 53.3125 83.53125 C 62.867488 77.162292 69.161806 70.75139 71.59375 67.375 C 70.213076 65.807944 68.819173 64.219221 67.4375 62.65625 L 65.46875 57.96875 L 67.25 55.28125 L 66.28125 54.1875 L 68.4375 49 C 69.748045 47.369764 71.129824 45.820195 72.5 44.25 C 69.869685 37.992394 65.823097 28.62553 59.28125 18.46875 C 58.960579 18.571725 58.641788 18.679443 58.3125 18.78125 L 56.34375 21.90625 L 54.75 22.8125 L 52.375 18.125 L 54.1875 16.3125 L 54.1875 14.5 L 49.625 11.40625 L 51 10.03125 L 52.9375 9.5 C 52.010694 8.3085238 51.032808 7.1251562 50.03125 5.9375 z M 42.125 13.34375 L 42.28125 14.28125 L 46.03125 14.75 L 47.03125 16.75 L 49.21875 17.65625 L 47.25 19.4375 C 45.930304 18.542998 44.599857 17.645861 43.28125 16.75 L 41.28125 16.09375 C 40.412067 16.674658 39.572157 17.271496 38.71875 17.875 L 37.75 20.125 L 35.78125 20.125 L 36.75 17.65625 L 38.34375 16.3125 L 38.25 15.40625 C 38.602126 15.192406 38.954691 14.986502 39.3125 14.78125 L 39.53125 15.1875 L 39.875 14.4375 C 40.60261 14.032365 41.375394 13.712743 42.125 13.34375 z M 33.8125 14.96875 L 33.875 14.96875 C 33.83093 14.99981 33.825213 15.062567 33.78125 15.09375 L 33.8125 14.96875 z M 99.15625 17.25 C 98.159172 22.333711 96.090741 29.649606 91.90625 39 C 94.154921 45.291058 96.760451 53.736164 98.5 60.4375 C 105.07886 48.200753 108.391 36.734126 109.9375 29.96875 C 107.0245 25.17329 103.37368 20.907087 99.15625 17.25 z M 43.46875 18.3125 L 45.46875 19.21875 L 45.46875 20.75 L 43.875 20.75 L 41.90625 19.4375 L 43.46875 18.3125 z M 88.40625 18.3125 L 86.25 20.34375 L 85.65625 21.46875 L 86.25 23.03125 L 85.625 24.6875 C 85.93973 25.30619 86.248436 25.922555 86.5625 26.5625 L 88.40625 25.0625 L 88.625 23.9375 L 91.21875 22.15625 C 90.2883 22.27194 89.31546 22.346305 88.40625 22.59375 L 88.40625 20.59375 L 89.40625 18.3125 L 88.40625 18.3125 z M 46.625 30.1875 L 48.4375 31.53125 L 47.25 33.34375 L 46.625 30.1875 z M 110.9375 31.71875 C 110.52893 33.443361 110.00045 35.444106 109.34375 37.6875 C 111.00589 41.434768 112.21115 45.424061 112.90625 49.59375 C 112.53417 49.248127 112.16237 48.877233 111.78125 48.53125 L 109.5 48.90625 L 107.4375 46.53125 L 107.4375 49.4375 L 109.21875 50.8125 L 110.375 52.15625 L 112 50.375 C 112.3988 51.121959 112.76016 51.846791 113.15625 52.59375 L 113.15625 54.84375 L 111.375 56.84375 L 108.09375 59.09375 L 105.71875 61.46875 C 106.87124 61.38576 108.04068 61.242144 109.21875 61.09375 L 109.21875 62.65625 L 106.8125 68.5 L 104.65625 70.96875 L 102.90625 74.75 L 102.90625 81.03125 L 103.4375 83.46875 L 102.90625 84.125 L 103.46875 88.9375 L 110.1875 85.3125 C 114.97647 77.270414 117.71875 67.848208 117.71875 57.8125 C 117.71875 48.330681 115.24748 39.451038 110.9375 31.71875 z M 102.875 55.0625 C 102.51343 55.849634 102.13823 56.637828 101.75 57.4375 C 102.27476 58.813388 102.78994 60.20181 103.4375 61.5625 C 104.15503 61.5625 104.89597 61.54744 105.59375 61.5 L 104.0625 59.75 L 104.84375 57.71875 L 103.28125 55.9375 L 102.875 55.0625 z M 78.75 62.8125 C 64.136652 84.011803 40.465845 94.602537 29.125 98.6875 C 33.299809 102.25711 37.98976 105.20979 43.125 107.375 C 44.279445 106.97702 45.417531 106.59731 46.65625 106.15625 C 62.073146 100.66674 73.891957 92.025494 82.90625 82.375 C 81.929753 76.333849 80.526382 69.509431 78.75 62.8125 z M 83.21875 85.78125 C 77.316419 91.982806 66.325723 101.38684 47.71875 109.0625 C 52.854565 110.69555 58.327392 111.59375 64 111.59375 C 69.412761 111.59375 74.636373 110.77133 79.5625 109.28125 L 76.5 105 L 84.46875 100.46875 C 84.322353 95.565467 83.841961 90.684533 83.21875 85.78125 z" style="fill:#aaaaaa"/>
</svg>