<?xml version="1.0" encoding="UTF-8" standalone="no"?>
<svg xmlns:dc="http://purl.org/dc/elements/1.1/"
     xmlns:cc="http://creativecommons.org/ns#"
     xmlns:rdf="http://www.w3.org/1999/02/22-rdf-syntax-ns#"
     xmlns:svg="http://www.w3.org/2000/svg"
     xmlns="http://www.w3.org/2000/svg"
     xmlns:xlink="http://www.w3.org/1999/xlink"
     width="128" height="128" version="1.1">
    <title>KeePassX Icon</title>
    <desc>This is shape (source) for Clarity vector icon theme for gtk</desc>
    <metadata>
        <rdf:RDF>
            <cc:Work rdf:about="">
                <dc:title>KeePassX Icon</dc:title>
                <dc:description>This is shape (source) for Clarity vector icon theme for gtk</dc:description>
                <dc:creator>
                    <cc:Agent>
                        <dc:title>Jakub Jankiewicz</dc:title>
                    </cc:Agent>
                </dc:creator>
                <dc:rights>
                    <cc:Agent>
                        <dc:title>Jakub Jankiewicz</dc:title>
                    </cc:Agent>
                </dc:rights>
                <dc:date>2010</dc:date>
                <dc:format>image/svg+xml</dc:format>
                <dc:type rdf:resource="http://purl.org/dc/dcmitype/StillImage" />
                <cc:license rdf:resource="http://creativecommons.org/licenses/by-sa/3.0/" />
             </cc:Work>
        </rdf:RDF>
    </metadata>
    <path d="m 91.656212,13.295503 c -7.286945,0 -14.602406,2.787635 -20.165926,8.351156 -8.901022,8.901023 -10.650512,22.199789 -5.310873,32.86584 l -3.001798,3.001799 -35.059463,-35.059463 -13.16173,-0.808176 0.769692,13.16173 35.059463,35.097947 -34.944009,34.944004 -0.769692,13.20022 13.123246,-0.80818 8.659033,-8.62055 13.662029,0.11546 1.693322,-15.470808 10.968109,-10.968108 35.174916,35.136436 13.161729,0.76969 -0.76969,-13.12325 -35.174917,-35.174914 2.84786,-2.84786 c 10.749079,5.637214 24.372797,3.913381 33.404627,-5.11845 11.12704,-11.127041 11.08856,-29.166327 -0.0385,-40.293367 -5.56352,-5.563521 -12.840493,-8.351156 -20.127438,-8.351156 z m 1.077569,4.656635 c 2.033847,-0.0068 4.06702,0.757347 5.61875,2.309076 3.103459,3.10346 3.103459,8.172524 0,11.275985 -3.10346,3.10346 -8.13404,3.064979 -11.237501,-0.03849 -3.10346,-3.10346 -3.10346,-8.095556 0,-11.199016 1.55173,-1.551729 3.584903,-2.340756 5.618751,-2.34756 z" style="fill:#aaaaaa"/>
</svg>