<?xml version="1.0" encoding="UTF-8" standalone="no"?>
<svg xmlns:dc="http://purl.org/dc/elements/1.1/"
     xmlns:cc="http://creativecommons.org/ns#"
     xmlns:rdf="http://www.w3.org/1999/02/22-rdf-syntax-ns#"
     xmlns:svg="http://www.w3.org/2000/svg"
     xmlns="http://www.w3.org/2000/svg"
     xmlns:xlink="http://www.w3.org/1999/xlink"
     width="128" height="128" version="1.1">
    <title>Clarity Icon</title>
    <desc>This is KeePass2 for Clarity vector icon theme for gtk</desc>
    <metadata>
        <rdf:RDF>
            <cc:Work rdf:about="">
                <dc:title>Clarity Icon</dc:title>
                <dc:description>This is KeePass2 for Clarity vector icon theme for gtk</dc:description>
                <dc:creator>
                    <cc:Agent>
                        <dc:title>Chris Lenk</dc:title>
                    </cc:Agent>
                </dc:creator>
                <dc:rights>
                    <cc:Agent>
                        <dc:title>Chris Lenk</dc:title>
                    </cc:Agent>
                </dc:rights>
                <dc:date>2015</dc:date>
                <dc:format>image/svg+xml</dc:format>
                <dc:type rdf:resource="http://purl.org/dc/dcmitype/StillImage" />
                <cc:license rdf:resource="http://creativecommons.org/licenses/by-sa/3.0/" />
             </cc:Work>
        </rdf:RDF>
    </metadata>
    <path d="m 69.511552,6.6633416 c 7.176252,0.7423694 13.992568,2.7445169 20.403953,5.9614504 11.090575,5.62401 19.864045,14.397466 25.465575,25.51051 2.81201,5.534025 4.56671,11.023059 5.57903,17.434431 0.71987,4.521704 0.71987,12.350326 0,16.87203 -1.01232,6.433867 -2.76702,11.900405 -5.57903,17.479423 -2.92449,5.758986 -6.29891,10.393174 -10.9331,14.959864 -8.908452,8.81845 -19.729072,14.195 -32.574339,16.19715 -3.62187,0.5624 -12.125392,0.5624 -15.747263,0 -6.568858,-1.03482 -11.945424,-2.69952 -17.54695,-5.46654 C 32.572972,112.61969 28.231227,109.53773 23.55204,104.88105 14.598596,96.040109 9.0420617,85.129529 7.0399097,72.441763 c -0.7198749,-4.521704 -0.7198749,-12.350326 0,-16.87203 C 8.6821243,45.13157 12.888893,35.593249 19.345271,27.674643 21.414911,25.110094 25.5092,21.060807 28.051258,19.036164 35.924889,12.737272 45.575712,8.575505 55.901417,6.9782862 58.735925,6.5508614 66.632052,6.3483971 69.511552,6.6633416 z M 59.253335,14.064539 c -17.929384,1.777187 -33.676647,13.025207 -40.96538,29.31234 -8.5710106,19.121634 -4.521714,41.235241 10.280713,56.060132 19.549102,19.616549 51.313581,19.616549 70.862683,0 19.639089,-19.684035 19.639089,-51.178491 0,-70.862526 -9.358373,-9.380849 -21.68623,-14.554938 -35.003916,-14.712411 -1.574726,0 -3.891823,0.08999 -5.1741,0.202465 z m 8.346049,7.761134 c 8.616002,1.732195 15.274845,9.178384 19.729071,22.046119 1.012324,2.946981 2.384585,8.593487 3.081964,12.66527 l 0.134977,0.719874 -4.769171,-0.04499 -4.746675,-0.06749 -0.539906,-2.564548 c -1.394758,-6.838796 -3.91432,-13.272664 -6.861308,-17.636896 -1.372261,-2.002147 -3.756847,-4.229255 -5.489046,-5.129097 -1.484742,-0.742369 -1.619718,-0.764865 -4.13928,-0.764865 -2.519562,0 -2.654539,0.0225 -4.139281,0.764865 -5.106612,2.587045 -9.650823,10.730611 -12.057904,21.618695 -0.40493,1.799683 -0.764867,3.396902 -0.809859,3.531878 -0.06749,0.22496 -1.214789,0.292449 -4.791668,0.292449 l -4.746675,0 0.134977,-0.74237 C 39.681736,44.299217 43.506072,34.895872 48.882637,28.731957 53.741793,23.152939 60.940541,20.47591 67.599384,21.825673 z m 27.220269,41.392713 0,3.936807 -30.819643,0 -30.819644,0 0,-3.936807 0,-3.936807 30.819644,0 30.819643,0 0,3.936807 z m 0,9.898258 0,3.936807 -13.047732,0 -13.047733,0 0,-3.936807 0,-3.936807 13.047733,0 13.047732,0 0,3.936807 z m -35.543822,0 0,3.936807 -13.047732,0 -13.047733,0 0,-3.936807 0,-3.936807 13.047733,0 13.047732,0 0,3.936807 z m 35.543822,9.898257 0,3.936807 -13.047732,0 -13.047733,0 0,-3.936807 0,-3.936807 13.047733,0 13.047732,0 0,3.936807 z m -35.543822,0 0,3.936807 -13.047732,0 -13.047733,0 0,-3.936807 0,-3.936807 13.047733,0 13.047732,0 0,3.936807 z m 35.543822,9.785778 0,4.049287 -30.819643,0 -30.819644,0 0,-4.049287 0,-4.049287 30.819644,0 30.819643,0 0,4.049287 z" style="fill:#aaaaaa"/>
</svg>