<?xml version="1.0" encoding="UTF-8" standalone="no"?>
<svg xmlns:dc="http://purl.org/dc/elements/1.1/"
     xmlns:cc="http://creativecommons.org/ns#"
     xmlns:rdf="http://www.w3.org/1999/02/22-rdf-syntax-ns#"
     xmlns:svg="http://www.w3.org/2000/svg"
     xmlns="http://www.w3.org/2000/svg"
     xmlns:xlink="http://www.w3.org/1999/xlink"
     width="128" height="128" version="1.1">
    <title>kvirc Icon</title>
    <desc>This is shape (source) for Clarity vector icon theme for gtk</desc>
    <metadata>
        <rdf:RDF>
            <cc:Work rdf:about="">
                <dc:title>kvirc Icon</dc:title>
                <dc:description>This is shape (source) for Clarity vector icon theme for gtk</dc:description>
                <dc:creator>
                    <cc:Agent>
                        <dc:title>Jakub Jankiewicz</dc:title>
                    </cc:Agent>
                </dc:creator>
                <dc:rights>
                    <cc:Agent>
                        <dc:title>Jakub Jankiewicz</dc:title>
                    </cc:Agent>
                </dc:rights>
                <dc:date>2010</dc:date>
                <dc:format>image/svg+xml</dc:format>
                <dc:type rdf:resource="http://purl.org/dc/dcmitype/StillImage" />
                <cc:license rdf:resource="http://creativecommons.org/licenses/by-sa/3.0/" />
             </cc:Work>
        </rdf:RDF>
    </metadata>
    <path d="M 59.96875 14.09375 A 2.3063319 2.3063319 0 0 0 58.03125 15.625 L 54.40625 25.75 A 2.3063319 2.3063319 0 0 0 54.25 26.65625 L 54.28125 27.09375 C 50.910879 27.979663 47.71938 29.314543 44.78125 31.03125 L 44.53125 30.75 A 2.3063319 2.3063319 0 0 0 43.75 30.15625 L 34 25.5625 A 2.3063319 2.3063319 0 0 0 31.40625 26.03125 L 26.03125 31.40625 A 2.3063319 2.3063319 0 0 0 25.5625 34 L 30.15625 43.75 A 2.3063319 2.3063319 0 0 0 30.75 44.53125 L 31.03125 44.78125 C 29.314543 47.71938 27.979663 50.910879 27.09375 54.28125 L 26.65625 54.25 A 2.3063319 2.3063319 0 0 0 25.75 54.40625 L 15.625 58.03125 A 2.3063319 2.3063319 0 0 0 14.09375 60.1875 L 14.09375 67.8125 A 2.3063319 2.3063319 0 0 0 15.625 69.96875 L 25.75 73.59375 A 2.3063319 2.3063319 0 0 0 26.65625 73.75 L 27.09375 73.71875 C 27.979663 77.089121 29.314543 80.28062 31.03125 83.21875 L 30.75 83.46875 A 2.3063319 2.3063319 0 0 0 30.15625 84.25 L 25.5625 94 A 2.3063319 2.3063319 0 0 0 26.03125 96.59375 L 31.40625 101.96875 A 2.3063319 2.3063319 0 0 0 34 102.4375 L 43.75 97.84375 A 2.3063319 2.3063319 0 0 0 44.53125 97.25 L 44.78125 96.96875 C 47.71938 98.685457 50.910879 100.02034 54.28125 100.90625 L 54.25 101.34375 A 2.3063319 2.3063319 0 0 0 54.40625 102.25 L 58.03125 112.375 A 2.3063319 2.3063319 0 0 0 60.1875 113.90625 L 67.8125 113.90625 A 2.3063319 2.3063319 0 0 0 69.96875 112.375 L 73.59375 102.25 A 2.3063319 2.3063319 0 0 0 73.75 101.34375 L 73.71875 100.90625 C 77.089121 100.02034 80.28062 98.685457 83.21875 96.96875 L 83.46875 97.25 A 2.3063319 2.3063319 0 0 0 84.25 97.84375 L 94 102.4375 A 2.3063319 2.3063319 0 0 0 96.59375 101.96875 L 101.96875 96.59375 A 2.3063319 2.3063319 0 0 0 102.4375 94 L 97.84375 84.25 A 2.3063319 2.3063319 0 0 0 97.25 83.46875 L 96.96875 83.21875 C 98.685457 80.28062 100.02034 77.089121 100.90625 73.71875 L 101.34375 73.75 A 2.3063319 2.3063319 0 0 0 102.25 73.59375 L 112.375 69.96875 A 2.3063319 2.3063319 0 0 0 113.90625 67.8125 L 113.90625 60.1875 A 2.3063319 2.3063319 0 0 0 112.375 58.03125 L 102.25 54.40625 A 2.3063319 2.3063319 0 0 0 101.34375 54.25 L 100.90625 54.28125 C 100.02034 50.910879 98.685457 47.71938 96.96875 44.78125 L 97.25 44.53125 A 2.3063319 2.3063319 0 0 0 97.84375 43.75 L 102.4375 34 A 2.3063319 2.3063319 0 0 0 101.96875 31.40625 L 96.59375 26.03125 A 2.3063319 2.3063319 0 0 0 94 25.5625 L 84.25 30.15625 A 2.3063319 2.3063319 0 0 0 83.46875 30.75 L 83.21875 31.03125 C 80.28062 29.314543 77.089121 27.979663 73.71875 27.09375 L 73.75 26.65625 A 2.3063319 2.3063319 0 0 0 73.59375 25.75 L 69.96875 15.625 A 2.3063319 2.3063319 0 0 0 67.8125 14.09375 L 60.1875 14.09375 A 2.3063319 2.3063319 0 0 0 59.96875 14.09375 z M 39 43.875 L 52.375 43.875 L 61.4375 68.46875 L 64.0625 76.65625 C 64.757805 74.570275 65.193583 73.196368 65.375 72.53125 C 65.798218 71.170841 66.266264 69.829202 66.75 68.46875 L 75.90625 43.875 L 89 43.875 L 69.875 92.03125 L 58.40625 92.03125 L 39 43.875 z " style="fill:#aaaaaa"/>
</svg>