<?xml version="1.0" encoding="UTF-8" standalone="no"?>
<svg xmlns:dc="http://purl.org/dc/elements/1.1/"
     xmlns:cc="http://creativecommons.org/ns#"
     xmlns:rdf="http://www.w3.org/1999/02/22-rdf-syntax-ns#"
     xmlns:svg="http://www.w3.org/2000/svg"
     xmlns="http://www.w3.org/2000/svg"
     xmlns:xlink="http://www.w3.org/1999/xlink"
     width="128" height="128" version="1.1">
    <title>LaTeXila</title>
    <desc>This is shape (source) for Clarity vector icon theme for gtk</desc>
    <metadata>
        <rdf:RDF>
            <cc:Work rdf:about="">
                <dc:title>LaTeXila</dc:title>
                <dc:description>This is shape (source) for Clarity vector icon theme for gtk</dc:description>
                <dc:creator>
                    <cc:Agent>
                        <dc:title>Jakub Jankiewicz</dc:title>
                    </cc:Agent>
                </dc:creator>
                <dc:rights>
                    <cc:Agent>
                        <dc:title>Jakub Jankiewicz</dc:title>
                    </cc:Agent>
                </dc:rights>
                <dc:date>2010</dc:date>
                <dc:format>image/svg+xml</dc:format>
                <dc:type rdf:resource="http://purl.org/dc/dcmitype/StillImage" />
                <cc:license rdf:resource="http://www.gnu.org/copyleft/gpl.html" />
             </cc:Work>
        </rdf:RDF>
    </metadata>
    <path d="m 60.171875,12.03125 c -6.32032,15.315855 -11.03622,31.649838 -10.75,51.03125 3.79555,3.372427 6.64054,4.812246 13.8125,14.9375 -2.91585,-21.230968 -5.19169,-42.719767 -3.0625,-65.96875 z m 7.6875,0 c 2.12919,23.248983 -0.1779,44.737782 -3.09375,65.96875 7.17196,-10.125254 10.01695,-11.565073 13.8125,-14.9375 0.28622,-19.381412 -4.39843,-35.715395 -10.71875,-51.03125 z m -34.15625,22.0625 c 0,0 6.05474,5.125614 7.65625,8.625001 2.22708,4.866278 2.125,15.937499 2.125,15.937499 l 4.59375,3.0625 c 0.02024,-4.748674 -0.04009,-9.279842 0.96875,-16.5 -10.5085,-10.762259 -10.74243,-8.087504 -15.34375,-11.125 z m 60.59375,0 c -4.60132,3.037496 -4.804,0.362741 -15.3125,11.125 1.00884,7.220158 0.91726,11.751326 0.9375,16.5 l 4.625,-3.0625 c 0,0 -0.13333,-11.071221 2.09375,-15.937499 1.60151,-3.499387 7.65625,-8.625001 7.65625,-8.625001 z m -74.78125,13.4375 c 6.86933,6.961206 15.01461,13.668256 19.5625,21.09375 8.65151,0.506206 14.71124,3.066095 20.875,5.5625 -10.32544,-11.073523 -23.46768,-20.182684 -40.4375,-26.65625 z m 89.000005,0 C 91.545805,54.004816 78.372315,63.113977 68.046875,74.1875 74.210635,71.691095 80.301615,69.131206 88.953125,68.625 93.501015,61.199506 101.6463,54.492456 108.51563,47.53125 z M 39.359375,69.875 c -8.26746,0.391208 -10.84375,1.4375 -10.84375,1.4375 0,0 -5.56395,6.887932 -6.90625,14.75 -1.34231,7.862069 -1.91195,11.687579 -3.0625,15.90625 -1.15054,4.21867 -4.59375,10.5625 -4.59375,10.5625 0,0 16.68051,-17.829689 22.625,-25.5 7.51624,-8.885672 10.62797,-15.426979 23.0625,-11.90625 -3.45372,-1.779328 -14.16042,-5.539632 -20.28125,-5.25 z m 48.09375,0 c -6.23155,0.180246 -15.85589,3.58188 -19.09375,5.25 12.43453,-3.520729 15.54626,3.020578 23.0625,11.90625 5.94449,7.670311 22.625005,25.5 22.625005,25.5 0,0 -3.44321,-6.34383 -4.59375,-10.5625 -1.15055,-4.218671 -1.72019,-8.044181 -3.0625,-15.90625 -1.3423,-7.862068 -6.906255,-14.75 -6.906255,-14.75 0,0 -2.57629,-1.046292 -10.84375,-1.4375 -0.38255,-0.0181 -0.77206,-0.01202 -1.1875,0 z m -78.125,2.75 14.40625,4.21875 1.90625,-3.8125 -16.3125,-0.40625 z m 109.343755,0 -16.3125,0.40625 1.9375,3.8125 14.375,-4.21875 z m -65.750005,1.9375 c -4.77908,0.279064 -8.9453,4.14837 -9.84375,6.71875 2.84771,4.206537 4.96453,6.22327 6.46875,14.6875 1.51567,8.52867 7.64178,16.19582 14.25,20 L 63.421875,91.25 59.578125,76.84375 c -2.17627,-1.802309 -4.48394,-2.408097 -6.65625,-2.28125 z m 22.15625,0 c -2.17231,-0.126847 -4.47998,0.478941 -6.65625,2.28125 l -3.84375,14.40625 -0.375,24.71875 c 6.60822,-3.80418 12.76558,-11.47133 14.28125,-20 1.50422,-8.46423 3.58979,-10.480963 6.4375,-14.6875 -0.89845,-2.57038 -5.06467,-6.439686 -9.84375,-6.71875 z m -14.65625,1.0625 -0.53125,0.6875 3.90625,14.3125 c 8.2e-4,0.08159 0,0.71875 0,0.71875 l 4.3125,-15.03125 -0.53125,-0.6875 c 0,0 -1.80308,3.295456 -3.5,3.3125 -1.73028,0.01738 -3.65625,-3.3125 -3.65625,-3.3125 z m -18.28125,6.59375 c -0.59418,0.403496 -1.6161,1.547117 -2.21875,2.59375 2.93564,0.954286 4.65636,2.820468 6.625,4.5 -1.27624,-2.408101 -2.07068,-4.921054 -4.40625,-7.09375 z m 43.71875,0 c -2.33557,2.172696 -3.13001,4.685649 -4.40625,7.09375 1.96864,-1.679532 3.68936,-3.545714 6.625,-4.5 -0.60265,-1.046633 -1.62457,-2.190254 -2.21875,-2.59375 z" style="fill:#aaaaaa"/>
</svg>