<?xml version="1.0" encoding="UTF-8" standalone="no"?>
<svg xmlns:dc="http://purl.org/dc/elements/1.1/"
     xmlns:cc="http://creativecommons.org/ns#"
     xmlns:rdf="http://www.w3.org/1999/02/22-rdf-syntax-ns#"
     xmlns:svg="http://www.w3.org/2000/svg"
     xmlns="http://www.w3.org/2000/svg"
     xmlns:xlink="http://www.w3.org/1999/xlink"
     width="128" height="128" version="1.1">
    <title>Launchpad Logo</title>
    <desc>This is shape (source) for Clarity vector icon theme for gtk</desc>
    <metadata>
        <rdf:RDF>
            <cc:Work rdf:about="">
                <dc:title>Launchpad Logo</dc:title>
                <dc:description>This is shape (source) for Clarity vector icon theme for gtk</dc:description>
                <dc:creator>
                    <cc:Agent>
                        <dc:title>Jakub Jankiewicz</dc:title>
                    </cc:Agent>
                </dc:creator>
                <dc:rights>
                    <cc:Agent>
                        <dc:title>Jakub Jankiewicz</dc:title>
                    </cc:Agent>
                </dc:rights>
                <dc:date>2010</dc:date>
                <dc:format>image/svg+xml</dc:format>
                <dc:type rdf:resource="http://purl.org/dc/dcmitype/StillImage" />
                <cc:license rdf:resource="http://www.gnu.org/copyleft/gpl.html" />
             </cc:Work>
        </rdf:RDF>
    </metadata>
    <path d="m 59.84375,7.78125 -48.4375,25.03125 23.90625,12.125 24.53125,-12.28125 0,-24.875 z m 8.3125,0 0,24.875 L 92.6875,44.9375 116.59375,32.84375 68.15625,7.78125 z M 64,38.03125 l -25.90625,13.1875 0,26.375 L 64,90.78125 l 25.90625,-13.1875 0,-26.375 L 64,38.03125 z m -56.4375,2.15625 0,47.90625 22.96875,-11.65625 0,-24.59375 L 7.5625,40.1875 z m 112.875,0 -22.96875,11.65625 0,24.59375 22.96875,11.65625 0,-47.90625 z m -85.09375,43.15625 -23.625,12 48.125,24.875 0,-24.59375 -24.5,-12.28125 z m 57.3125,0 -24.5,12.28125 0,24.59375 L 116.3125,95.3125 92.65625,83.34375 z" style="fill:#aaaaaa"/>
</svg>