<?xml version="1.0" encoding="UTF-8" standalone="no"?>
<svg xmlns:dc="http://purl.org/dc/elements/1.1/"
     xmlns:cc="http://creativecommons.org/ns#"
     xmlns:rdf="http://www.w3.org/1999/02/22-rdf-syntax-ns#"
     xmlns:svg="http://www.w3.org/2000/svg"
     xmlns="http://www.w3.org/2000/svg"
     xmlns:xlink="http://www.w3.org/1999/xlink"
     width="128" height="128" version="1.1">
    <title>Libreoffice Basic Icon</title>
    <desc>This is shape (source) for Clarity vector icon theme for gtk</desc>
    <metadata>
        <rdf:RDF>
            <cc:Work rdf:about="">
                <dc:title>Libreoffice Basic Icon</dc:title>
                <dc:description>This is shape (source) for Clarity vector icon theme for gtk</dc:description>
                <dc:creator>
                    <cc:Agent>
                        <dc:title>Jakub Jankiewicz</dc:title>
                    </cc:Agent>
                </dc:creator>
                <dc:rights>
                    <cc:Agent>
                        <dc:title>Jakub Jankiewicz</dc:title>
                    </cc:Agent>
                </dc:rights>
                <dc:date>2010</dc:date>
                <dc:format>image/svg+xml</dc:format>
                <dc:type rdf:resource="http://purl.org/dc/dcmitype/StillImage" />
                <cc:license rdf:resource="http://creativecommons.org/licenses/by-sa/3.0/" />
             </cc:Work>
        </rdf:RDF>
    </metadata>
    <path d="M 25.15625 7.84375 C 21.934691 7.84375 19.28125 10.528441 19.28125 13.75 L 19.28125 114.28125 C 19.28125 117.50281 21.919281 120.15625 25.15625 120.15625 L 102.8125 120.15625 C 106.04947 120.15625 108.71875 117.51822 108.71875 114.28125 L 108.71875 49.78125 L 108.71875 48.96875 L 108.125 48.375 L 68.25 8.4375 L 67.65625 7.84375 L 66.8125 7.84375 L 25.15625 7.84375 z M 104.375 8.28125 C 102.51902 8.28125 86.191384 8.4375 82.96875 8.4375 C 79.746122 8.4375 78.749033 10.806914 80.6875 13.1875 C 82.625964 15.568085 102.51936 35.042857 103.625 36.3125 C 105.10448 38.011404 108.3125 37.807027 108.3125 33.875 L 108.3125 12.21875 C 108.3125 10.333734 106.84395 8.28125 104.375 8.28125 z M 25.15625 11.84375 L 65.96875 11.84375 L 104.71875 50.59375 L 104.71875 114.28125 C 104.71875 115.34686 103.87809 116.15625 102.8125 116.15625 L 25.15625 116.15625 C 24.090645 116.15625 23.28125 115.36227 23.28125 114.28125 L 23.28125 13.75 C 23.28125 12.668987 24.075235 11.84375 25.15625 11.84375 z M 33.832031 56.638672 C 33.586114 56.638674 33.405839 56.698832 33.289062 56.818359 C 33.17366 56.937883 33.115234 57.124166 33.115234 57.376953 L 33.115234 57.537109 L 32.5 57.537109 L 32.5 57.832031 L 33.115234 57.832031 L 33.115234 59.845703 L 33.494141 59.845703 L 33.494141 57.832031 L 34.287109 57.832031 L 34.287109 57.537109 L 33.494141 57.537109 L 33.494141 57.333984 C 33.494141 57.192478 33.520056 57.094017 33.572266 57.039062 C 33.625846 56.982743 33.828853 56.820148 33.857422 56.953125 L 34.287109 56.953125 L 34.287109 56.638672 L 33.832031 56.638672 z M 56.066406 56.638672 L 56.066406 57.119141 L 56.445312 57.119141 L 56.445312 56.638672 L 56.066406 56.638672 z M 93.431641 56.638672 L 93.431641 59.845703 L 93.810547 59.845703 L 93.810547 58.541016 C 93.810547 58.30609 93.858337 58.12502 93.953125 58 C 94.049295 57.873607 94.186056 57.810547 94.363281 57.810547 C 94.518525 57.810547 94.632265 57.859487 94.705078 57.957031 C 94.777888 58.054571 94.814453 58.206613 94.814453 58.414062 L 94.814453 59.845703 L 95.195312 59.845703 L 95.195312 58.414062 C 95.195312 58.100828 95.138262 57.868714 95.021484 57.714844 C 94.906082 57.559601 94.73102 57.480469 94.496094 57.480469 C 94.338102 57.480469 94.20134 57.515299 94.085938 57.583984 C 93.970533 57.651304 93.877863 57.750925 93.810547 57.882812 L 93.810547 56.638672 L 93.431641 56.638672 z M 61.519531 56.642578 C 61.312087 56.966804 61.156357 57.285215 61.054688 57.595703 C 60.953027 57.90619 60.902344 58.213165 60.902344 58.519531 C 60.902344 58.827271 60.953024 59.136779 61.054688 59.447266 C 61.156351 59.75638 61.312082 60.07537 61.519531 60.402344 L 61.847656 60.402344 C 61.664938 60.086361 61.530129 59.770846 61.439453 59.458984 C 61.350163 59.147123 61.304688 58.83414 61.304688 58.519531 C 61.304688 58.203549 61.350158 57.890565 61.439453 57.580078 C 61.530123 57.268217 61.664935 56.955813 61.847656 56.642578 L 61.519531 56.642578 z M 86.130859 56.642578 C 86.313575 56.957187 86.449759 57.27017 86.539062 57.582031 C 86.629743 57.893893 86.673828 58.206296 86.673828 58.519531 C 86.673828 58.831393 86.629738 59.143217 86.539062 59.455078 C 86.449763 59.766939 86.31358 60.083614 86.130859 60.402344 L 86.460938 60.402344 C 86.668391 60.078118 86.822169 59.759705 86.923828 59.449219 C 87.025488 59.138731 87.076172 58.828645 87.076172 58.519531 C 87.076172 58.213165 87.025492 57.90619 86.923828 57.595703 C 86.822165 57.285215 86.668388 56.966804 86.460938 56.642578 L 86.130859 56.642578 z M 29.972656 56.767578 L 29.972656 57.119141 L 30.617188 57.119141 L 30.617188 59.494141 L 29.972656 59.494141 L 29.972656 59.845703 L 31.681641 59.845703 L 31.681641 59.494141 L 31.037109 59.494141 L 31.037109 57.119141 L 31.681641 57.119141 L 31.681641 56.767578 L 29.972656 56.767578 z M 37.589844 56.767578 L 37.589844 57.119141 L 38.234375 57.119141 L 38.234375 59.494141 L 37.589844 59.494141 L 37.589844 59.845703 L 39.296875 59.845703 L 39.296875 59.494141 L 38.652344 59.494141 L 38.652344 57.119141 L 39.296875 57.119141 L 39.296875 56.767578 L 37.589844 56.767578 z M 42.539062 56.767578 L 42.539062 59.845703 L 42.941406 59.845703 L 42.941406 57.3125 L 43.980469 59.845703 L 44.507812 59.845703 L 44.507812 56.767578 L 44.105469 56.767578 L 44.105469 59.300781 L 43.066406 56.767578 L 42.539062 56.767578 z M 62.867188 56.767578 L 62.867188 58.664062 C 62.867188 58.97455 62.885941 59.197975 62.925781 59.333984 C 62.965631 59.46862 63.034115 59.578885 63.128906 59.664062 C 63.220956 59.745123 63.32463 59.805863 63.441406 59.845703 C 63.558182 59.885543 63.689731 59.904297 63.833984 59.904297 C 63.979611 59.904297 64.109787 59.885543 64.226562 59.845703 C 64.343338 59.805863 64.446433 59.745117 64.537109 59.664062 C 64.633279 59.577512 64.701768 59.467826 64.740234 59.335938 C 64.780074 59.202675 64.798828 58.349452 64.798828 58.664062 L 64.798828 56.767578 L 64.382812 56.767578 L 64.382812 58.857422 C 64.382812 59.005799 64.379314 59.112588 64.371094 59.175781 C 64.362894 59.238981 64.348735 59.287919 64.328125 59.322266 C 64.282795 59.403326 64.219154 59.464646 64.136719 59.505859 C 64.054289 59.547069 63.953508 59.566406 63.833984 59.566406 C 63.715838 59.566406 63.613104 59.547079 63.529297 59.505859 C 63.446867 59.464639 63.38381 59.403319 63.339844 59.322266 C 63.319234 59.287916 63.305105 59.238976 63.296875 59.175781 C 63.288675 59.111211 63.285156 59.003265 63.285156 58.853516 L 63.285156 56.767578 L 62.867188 56.767578 z M 73.132812 56.767578 L 73.132812 57.119141 L 73.779297 57.119141 L 73.779297 59.494141 L 73.132812 59.494141 L 73.132812 59.845703 L 74.841797 59.845703 L 74.841797 59.494141 L 74.197266 59.494141 L 74.197266 57.119141 L 74.841797 57.119141 L 74.841797 56.767578 L 73.132812 56.767578 z M 90.587891 56.767578 L 90.587891 57.119141 L 91.554688 57.119141 L 91.554688 59.845703 L 91.972656 59.845703 L 91.972656 57.119141 L 92.935547 57.119141 L 92.935547 56.767578 L 90.587891 56.767578 z M 83.759766 56.880859 L 83.759766 57.537109 L 83.144531 57.537109 L 83.144531 57.832031 L 83.759766 57.832031 L 83.759766 59.083984 C 83.759766 59.362873 83.818766 59.559799 83.935547 59.673828 C 84.052323 59.787857 84.472728 59.568702 84.537109 59.845703 L 85.001953 59.845703 L 85.001953 59.542969 L 84.574219 59.542969 C 84.413482 59.542969 84.300901 59.508719 84.236328 59.441406 C 84.171758 59.374086 84.140625 58.913628 84.140625 59.083984 L 84.140625 57.832031 L 85.001953 57.832031 L 85.001953 57.537109 L 84.140625 57.537109 L 84.140625 56.880859 L 83.759766 56.880859 z M 54.238281 57.412109 C 54.137906 57.403547 53.925088 57.54734 53.826172 57.613281 C 53.69566 57.699831 53.598356 57.824795 53.535156 57.988281 L 53.535156 57.537109 L 53.154297 57.537109 L 53.154297 59.845703 L 53.535156 59.845703 L 53.535156 58.697266 C 53.535156 58.417002 53.597636 58.203062 53.722656 58.054688 C 53.847675 57.906312 54.029324 57.832031 54.265625 57.832031 C 54.365912 57.832031 54.457208 57.84615 54.541016 57.875 C 54.624826 57.90385 54.708009 57.95048 54.789062 58.013672 L 54.789062 57.625 C 54.789062 57.53584 54.635741 57.53898 54.554688 57.515625 C 54.473627 57.492265 54.386387 57.480469 54.292969 57.480469 C 54.292969 57.435475 54.27174 57.414963 54.238281 57.412109 z M 41.074219 57.431641 C 41.048921 57.435898 41.032044 57.449917 41.027344 57.480469 C 40.985144 57.754758 40.536467 57.541209 40.386719 57.662109 C 40.236971 57.781634 40.162109 57.952641 40.162109 58.173828 C 40.162109 58.34831 40.212209 58.486231 40.3125 58.587891 C 40.41279 58.688183 40.570622 58.760148 40.789062 58.802734 L 40.931641 58.832031 L 40.949219 58.835938 C 41.285809 58.903258 41.453125 59.023368 41.453125 59.199219 C 41.453125 59.321495 41.406505 59.417641 41.314453 59.486328 C 41.222403 59.553648 41.093389 59.587891 40.925781 59.587891 C 40.810379 59.587891 40.687734 59.568923 40.558594 59.533203 C 40.429452 59.496113 40.293849 59.441953 40.152344 59.369141 L 40.152344 59.759766 C 40.29797 59.807856 40.433574 59.843835 40.558594 59.867188 C 40.683613 59.891917 40.803941 59.904297 40.917969 59.904297 C 41.206475 59.904297 41.431637 59.840657 41.59375 59.712891 C 41.755863 59.583749 41.835938 59.40579 41.835938 59.177734 C 41.835938 59.006004 41.786998 58.866924 41.689453 58.759766 C 41.593283 58.6526 41.451888 58.580635 41.263672 58.544922 L 41.111328 58.515625 C 40.859919 58.467545 40.701872 58.418025 40.638672 58.367188 C 40.575472 58.316358 40.544922 58.239761 40.544922 58.136719 C 40.544922 58.022693 40.586112 57.937773 40.669922 57.882812 C 40.755102 57.826493 40.882957 57.798828 41.054688 57.798828 C 41.168715 57.798828 41.280718 57.814113 41.390625 57.845703 C 41.500531 57.877303 41.610216 57.925093 41.71875 57.988281 L 41.71875 57.617188 C 41.608842 57.571847 41.496842 57.537608 41.382812 57.515625 C 41.297292 57.498105 41.150113 57.418869 41.074219 57.431641 z M 48.300781 57.480469 C 48.214221 57.480469 48.137047 57.502905 48.068359 57.546875 C 48.001049 57.589455 47.943778 57.65194 47.898438 57.734375 L 47.898438 57.537109 L 47.554688 57.537109 L 47.554688 59.845703 L 47.898438 59.845703 L 47.898438 58.523438 C 47.898437 58.208832 47.918571 58.009589 47.957031 57.925781 C 47.996871 57.840601 48.067681 57.798828 48.167969 57.798828 C 48.269633 57.798828 48.338486 57.837129 48.376953 57.914062 C 48.416793 57.990992 48.4375 58.193715 48.4375 58.523438 L 48.4375 59.845703 L 48.783203 59.845703 L 48.783203 58.523438 C 48.783203 58.208832 48.80391 58.009589 48.84375 57.925781 C 48.88497 57.840601 48.960406 57.798828 49.070312 57.798828 C 49.166483 57.798828 49.231865 57.838288 49.267578 57.917969 C 49.304678 57.996279 49.324219 58.197836 49.324219 58.523438 L 49.324219 59.845703 L 49.669922 59.845703 L 49.669922 58.507812 C 49.669922 58.110774 49.631621 57.840144 49.554688 57.697266 C 49.479127 57.553012 49.347577 57.480469 49.162109 57.480469 C 49.060445 57.480469 48.973204 57.504654 48.900391 57.552734 C 48.828951 57.599444 48.771323 57.672568 48.724609 57.771484 C 48.686149 57.673934 48.630619 57.600814 48.560547 57.552734 C 48.491857 57.504654 48.347476 57.573859 48.300781 57.480469 z M 51.210938 57.480469 C 50.881216 57.480469 50.617755 57.590734 50.419922 57.810547 C 50.222089 58.030362 50.123047 58.325171 50.123047 58.693359 C 50.123047 59.071165 50.223827 59.368292 50.425781 59.583984 C 50.627735 59.798303 50.909006 59.904297 51.267578 59.904297 C 51.392598 59.904297 51.521035 59.889595 51.654297 59.859375 C 51.788933 59.830525 51.928012 59.787585 52.072266 59.728516 L 52.072266 59.349609 C 52.072266 59.180621 51.782279 59.486924 51.650391 59.525391 C 51.518502 59.563861 51.392383 59.583984 51.271484 59.583984 C 51.032438 59.583984 50.846732 59.514334 50.714844 59.376953 C 50.584329 59.239568 50.519531 59.046334 50.519531 58.794922 L 50.519531 58.78125 L 52.160156 58.78125 L 52.160156 58.595703 C 52.160156 58.25087 52.076606 57.978504 51.90625 57.779297 C 51.737269 57.580091 51.504939 57.48047 51.210938 57.480469 z M 59.027344 57.480469 C 58.670146 57.480469 58.391407 57.588416 58.189453 57.802734 C 57.988873 58.017053 57.888672 58.31418 57.888672 58.693359 C 57.888672 59.072539 57.988873 59.369666 58.189453 59.583984 C 58.391407 59.798304 58.670146 59.904297 59.027344 59.904297 C 59.139999 59.904297 59.250263 59.889595 59.357422 59.859375 C 59.46596 59.830525 59.671875 59.846085 59.671875 59.728516 L 59.671875 59.333984 C 59.582575 59.419164 59.487227 59.482224 59.382812 59.523438 C 59.278402 59.563277 59.159232 59.583984 59.027344 59.583984 C 58.791044 59.583984 58.607657 59.507384 58.478516 59.353516 C 58.350748 59.198271 58.287109 58.977743 58.287109 58.693359 C 58.287109 58.407601 58.350749 58.187074 58.478516 58.033203 C 58.606283 57.879334 58.78967 57.802734 59.027344 57.802734 C 59.155113 57.802734 59.268853 57.823441 59.369141 57.863281 C 59.470807 57.903131 59.671875 58.190921 59.671875 58.056641 L 59.671875 57.658203 C 59.671875 57.535165 59.459302 57.554237 59.353516 57.525391 C 59.24773 57.496541 59.027344 57.591749 59.027344 57.480469 z M 66.416016 57.480469 C 66.1385 57.480469 65.923186 57.541209 65.773438 57.662109 C 65.623689 57.781634 65.548828 57.952641 65.548828 58.173828 C 65.548828 58.34831 65.598928 58.486231 65.699219 58.587891 C 65.799509 58.688182 65.959294 58.760148 66.177734 58.802734 L 66.320312 58.832031 L 66.337891 58.835938 C 66.674481 58.903258 66.841797 59.023368 66.841797 59.199219 C 66.841797 59.321495 66.795177 59.417641 66.703125 59.486328 C 66.611075 59.553648 66.482061 59.587891 66.314453 59.587891 C 66.199051 59.587891 66.076407 59.568923 65.947266 59.533203 C 65.818125 59.496113 65.682522 59.441953 65.541016 59.369141 L 65.541016 59.759766 C 65.541016 59.913128 65.822246 59.843835 65.947266 59.867188 C 66.072284 59.891917 66.192612 59.904297 66.306641 59.904297 C 66.595147 59.904297 66.820309 59.840657 66.982422 59.712891 C 67.144535 59.58375 67.224609 59.40579 67.224609 59.177734 C 67.224609 59.006004 67.175669 58.866924 67.078125 58.759766 C 66.981955 58.652599 66.84056 58.580635 66.652344 58.544922 L 66.5 58.515625 C 66.248637 58.467305 66.090544 58.418024 66.027344 58.367188 C 65.964144 58.316358 65.933594 58.239761 65.933594 58.136719 C 65.933594 58.02269 65.974784 57.937767 66.058594 57.882812 C 66.143774 57.826493 66.27163 57.798828 66.443359 57.798828 C 66.557388 57.798828 66.66939 57.814113 66.779297 57.845703 C 66.889204 57.877303 67.107422 58.113868 67.107422 57.988281 L 67.107422 57.617188 C 66.997515 57.571847 66.885513 57.537608 66.771484 57.515625 C 66.657456 57.492265 66.53966 57.480469 66.416016 57.480469 z M 68.982422 57.480469 C 68.652701 57.480469 68.389239 57.590734 68.191406 57.810547 C 67.993574 58.030362 67.894531 58.325171 67.894531 58.693359 C 67.894531 59.071165 67.995312 59.368292 68.197266 59.583984 C 68.39922 59.798303 68.680491 59.904297 69.039062 59.904297 C 69.164083 59.904297 69.292519 59.889595 69.425781 59.859375 C 69.560417 59.830525 69.699497 59.787585 69.84375 59.728516 L 69.84375 59.349609 C 69.84375 59.180621 69.553764 59.486924 69.421875 59.525391 C 69.289986 59.563861 69.163867 59.583984 69.042969 59.583984 C 68.803922 59.583984 68.618217 59.514334 68.486328 59.376953 C 68.355813 59.239568 68.291016 59.046334 68.291016 58.794922 L 68.291016 58.78125 L 69.933594 58.78125 L 69.933594 58.595703 C 69.933594 58.25087 69.848094 57.978504 69.677734 57.779297 C 69.508753 57.580091 69.276424 57.48047 68.982422 57.480469 z M 72.066406 57.480469 C 71.886434 57.480469 71.729545 57.525359 71.597656 57.613281 C 71.467145 57.699831 71.369841 57.824795 71.306641 57.988281 L 71.306641 57.537109 L 70.925781 57.537109 L 70.925781 59.845703 L 71.306641 59.845703 L 71.306641 58.697266 C 71.306641 58.417002 71.369121 58.203062 71.494141 58.054688 C 71.619159 57.906312 71.800808 57.832031 72.037109 57.832031 C 72.137396 57.832031 72.228693 57.84615 72.3125 57.875 C 72.39631 57.90385 72.560547 58.116448 72.560547 58.013672 L 72.560547 57.625 C 72.486357 57.57555 72.409178 57.53898 72.328125 57.515625 C 72.247065 57.492265 72.159826 57.480469 72.066406 57.480469 z M 76.722656 57.480469 C 76.564665 57.480469 76.427903 57.515299 76.3125 57.583984 C 76.197095 57.651304 76.106379 57.750925 76.039062 57.882812 L 76.039062 57.537109 L 75.660156 57.537109 L 75.660156 59.845703 L 76.039062 59.845703 L 76.039062 58.541016 C 76.039063 58.30609 76.08685 58.12502 76.181641 58 C 76.277811 57.873607 76.414572 57.810547 76.591797 57.810547 C 76.74704 57.810547 76.86078 57.859487 76.933594 57.957031 C 77.006404 58.054571 77.042969 58.206613 77.042969 58.414062 L 77.042969 59.845703 L 77.423828 59.845703 L 77.423828 58.414062 C 77.423828 58.100828 77.364828 57.868714 77.248047 57.714844 C 77.132645 57.559601 76.957583 57.480469 76.722656 57.480469 z M 79.185547 57.480469 C 79.048163 57.480469 78.9261 57.511816 78.820312 57.572266 C 78.715904 57.631336 78.633514 57.718003 78.570312 57.832031 L 78.570312 57.537109 L 78.1875 57.537109 L 78.1875 60.722656 L 78.570312 60.722656 L 78.570312 59.554688 C 78.570312 59.425626 78.711993 59.75596 78.816406 59.816406 C 78.922192 59.875476 79.045415 59.904297 79.185547 59.904297 C 79.463062 59.904297 79.682432 59.798882 79.841797 59.585938 C 80.001162 59.371617 80.080078 59.07623 80.080078 58.701172 C 80.080078 58.319245 80.001158 58.020379 79.841797 57.804688 C 79.683806 57.588994 79.464436 57.480469 79.185547 57.480469 z M 96.910156 57.480469 C 96.580435 57.480469 96.316973 57.590734 96.119141 57.810547 C 95.921308 58.030362 95.822266 58.325171 95.822266 58.693359 C 95.822266 59.071165 95.923046 59.368292 96.125 59.583984 C 96.326954 59.798303 96.608225 59.904297 96.966797 59.904297 C 97.091817 59.904297 97.220254 59.889595 97.353516 59.859375 C 97.488152 59.830525 97.627231 59.787585 97.771484 59.728516 L 97.771484 59.349609 C 97.771484 59.180621 97.481497 59.486924 97.349609 59.525391 C 97.217721 59.563861 97.091602 59.583984 96.970703 59.583984 C 96.731656 59.583984 96.545951 59.514334 96.414062 59.376953 C 96.283548 59.239568 96.21875 59.046334 96.21875 58.794922 L 96.21875 58.78125 L 97.859375 58.78125 L 97.859375 58.595703 C 97.859375 58.25087 97.775825 57.978504 97.605469 57.779297 C 97.436487 57.580091 97.204158 57.48047 96.910156 57.480469 z M 99.572266 57.480469 C 99.414274 57.480469 99.277512 57.515299 99.162109 57.583984 C 99.046705 57.651304 98.888672 58.030886 98.888672 57.882812 L 98.888672 57.537109 L 98.509766 57.537109 L 98.509766 59.845703 L 98.888672 59.845703 L 98.888672 58.541016 C 98.888672 58.30609 98.936462 58.12502 99.03125 58 C 99.12742 57.873607 99.264181 57.810547 99.441406 57.810547 C 99.59665 57.810547 99.71039 57.859487 99.783203 57.957031 C 99.856013 58.054571 99.892578 58.206613 99.892578 58.414062 L 99.892578 59.845703 L 100.27344 59.845703 L 100.27344 58.414062 C 100.27344 58.100828 100.21444 57.868714 100.09766 57.714844 C 99.98225 57.559601 99.807192 57.480469 99.572266 57.480469 z M 55.474609 57.537109 L 55.474609 57.832031 L 56.066406 57.832031 L 56.066406 59.550781 L 55.314453 59.550781 L 55.314453 59.845703 L 57.197266 59.845703 L 57.197266 59.550781 L 56.445312 59.550781 L 56.445312 57.537109 L 55.474609 57.537109 z M 45.193359 57.541016 L 45.193359 58.970703 C 45.193359 59.283938 45.251789 59.518586 45.367188 59.673828 C 45.482588 59.827698 45.658231 59.904297 45.894531 59.904297 C 46.049775 59.904297 46.185379 59.871417 46.300781 59.802734 C 46.417559 59.734044 46.576172 59.348748 46.576172 59.498047 L 46.576172 59.845703 L 46.957031 59.845703 L 46.957031 57.541016 L 46.576172 57.541016 L 46.576172 58.845703 C 46.576172 59.080629 46.528382 59.260325 46.433594 59.386719 C 46.338794 59.511738 46.202035 59.574219 46.023438 59.574219 C 45.869565 59.574219 45.755825 59.527228 45.681641 59.429688 C 45.608831 59.332147 45.572266 59.178153 45.572266 58.970703 L 45.572266 57.541016 L 45.193359 57.541016 z M 80.738281 57.541016 L 80.738281 58.970703 C 80.738281 59.283938 80.794751 59.518584 80.910156 59.673828 C 81.025558 59.827698 81.2012 59.904297 81.4375 59.904297 C 81.592744 59.904297 81.728347 59.871417 81.84375 59.802734 C 81.960528 59.734044 82.121094 59.348748 82.121094 59.498047 L 82.121094 59.845703 L 82.501953 59.845703 L 82.501953 57.541016 L 82.121094 57.541016 L 82.121094 58.845703 C 82.121094 59.080629 82.073304 59.260325 81.978516 59.386719 C 81.883716 59.511738 81.746958 59.574219 81.568359 59.574219 C 81.414487 59.574219 81.300748 59.527228 81.226562 59.429688 C 81.153752 59.332147 81.117188 59.178153 81.117188 58.970703 L 81.117188 57.541016 L 80.738281 57.541016 z M 69.019531 57.734375 C 69.116648 57.73017 69.320344 57.890937 69.394531 57.978516 C 69.49485 58.093918 69.777316 58.484019 69.554688 58.484375 L 68.304688 58.486328 C 68.326667 58.272009 68.397478 58.105273 68.515625 57.984375 C 68.633775 57.863478 68.784076 57.802734 68.966797 57.802734 C 68.966797 57.756024 68.987159 57.735777 69.019531 57.734375 z M 51.195312 57.802734 C 51.382156 57.802734 51.524131 57.861744 51.623047 57.978516 C 51.723366 58.093918 51.775783 58.261813 51.78125 58.484375 L 50.533203 58.486328 C 50.555183 58.272009 50.625993 58.105273 50.744141 57.984375 C 50.862291 57.863478 51.195312 57.985475 51.195312 57.802734 z M 79.130859 57.802734 C 79.313579 57.802734 79.450921 57.877594 79.542969 58.027344 C 79.636389 58.177092 79.681641 58.399357 79.681641 58.693359 C 79.681641 58.987361 79.636391 59.209627 79.542969 59.359375 C 79.450919 59.509124 79.313579 59.583984 79.130859 59.583984 C 78.946761 59.583984 78.805728 59.508544 78.710938 59.357422 C 78.616147 59.2063 78.570312 58.984613 78.570312 58.693359 C 78.570312 58.400731 78.616141 58.179045 78.710938 58.029297 C 78.805728 57.878174 78.946764 57.802734 79.130859 57.802734 z M 96.894531 57.802734 C 97.081375 57.802734 97.22335 57.861744 97.322266 57.978516 C 97.422584 58.093918 97.703098 58.484018 97.480469 58.484375 L 96.232422 58.486328 C 96.254402 58.272009 96.325212 58.105273 96.443359 57.984375 C 96.561509 57.863478 96.894531 57.985475 96.894531 57.802734 z M 40.042969 61.890625 L 40.042969 62.1875 L 40.652344 62.1875 L 40.652344 64.283203 C 40.652344 64.549728 40.714244 64.756717 40.837891 64.902344 C 40.962911 65.047971 41.312283 64.900644 41.365234 65.121094 L 41.845703 65.121094 L 41.845703 64.798828 L 41.402344 64.798828 C 41.280076 64.798828 41.186247 64.756468 41.123047 64.669922 C 41.061227 64.583372 41.03125 64.453559 41.03125 64.283203 L 41.03125 61.890625 L 40.042969 61.890625 z M 43.371094 61.914062 L 43.371094 62.394531 L 43.751953 62.394531 L 43.751953 61.914062 L 43.371094 61.914062 z M 46.560547 61.914062 L 46.560547 63.107422 C 46.500097 62.993393 46.416333 62.90673 46.310547 62.847656 C 46.204762 62.787206 46.082117 62.757812 45.943359 62.757812 C 45.665845 62.757812 45.447849 62.863806 45.287109 63.078125 C 45.12637 63.29107 45.044922 63.585879 45.044922 63.960938 C 45.044922 64.341489 45.125792 64.640355 45.285156 64.857422 C 45.445894 65.073114 45.66447 65.179687 45.943359 65.179688 C 46.080742 65.179688 46.202227 65.150867 46.306641 65.091797 C 46.412423 65.031347 46.497347 64.944107 46.560547 64.830078 L 46.560547 65.121094 L 46.939453 65.121094 L 46.939453 61.914062 L 46.560547 61.914062 z M 34.753906 62.042969 L 35.654297 65.121094 L 36.160156 65.121094 L 37.060547 62.042969 L 36.628906 62.042969 L 35.90625 64.769531 L 35.183594 62.042969 L 34.753906 62.042969 z M 47.744141 62.042969 L 47.744141 62.394531 L 48.390625 62.394531 L 48.390625 64.769531 L 47.744141 64.769531 L 47.744141 65.121094 L 49.453125 65.121094 L 49.453125 64.769531 L 48.808594 64.769531 L 48.808594 62.394531 L 49.453125 62.394531 L 49.453125 62.042969 L 47.744141 62.042969 z M 67.943359 62.042969 L 67.943359 63.939453 C 67.943359 64.24994 67.964066 64.473365 68.003906 64.609375 C 68.043756 64.74401 68.110287 64.854274 68.205078 64.939453 C 68.297128 65.020513 68.402755 65.081254 68.519531 65.121094 C 68.636307 65.160934 68.765903 65.179687 68.910156 65.179688 C 69.055783 65.179687 69.18791 65.160934 69.304688 65.121094 C 69.42146 65.081254 69.524558 65.020507 69.615234 64.939453 C 69.711404 64.852903 69.779893 64.743217 69.818359 64.611328 C 69.858199 64.478066 69.876953 64.254062 69.876953 63.939453 L 69.876953 62.042969 L 69.460938 62.042969 L 69.460938 64.132812 C 69.460938 64.281184 69.457439 64.387972 69.449219 64.451172 C 69.441019 64.514372 69.42686 64.56331 69.40625 64.597656 C 69.36092 64.678716 69.295327 64.740037 69.212891 64.78125 C 69.130461 64.82246 69.02968 64.841797 68.910156 64.841797 C 68.79201 64.841797 68.691229 64.82247 68.607422 64.78125 C 68.524992 64.74003 68.461935 64.67871 68.417969 64.597656 C 68.397359 64.563306 68.38323 64.514366 68.375 64.451172 C 68.3668 64.386602 68.363281 64.278654 68.363281 64.128906 L 68.363281 62.042969 L 67.943359 62.042969 z M 78.210938 62.042969 L 78.210938 62.394531 L 78.855469 62.394531 L 78.855469 64.769531 L 78.210938 64.769531 L 78.210938 65.121094 L 79.919922 65.121094 L 79.919922 64.769531 L 79.273438 64.769531 L 79.273438 62.394531 L 79.919922 62.394531 L 79.919922 62.042969 L 78.210938 62.042969 z M 58.373047 62.158203 L 58.373047 62.8125 L 57.755859 62.8125 L 57.755859 63.107422 L 58.373047 63.107422 L 58.373047 64.359375 C 58.373047 64.638264 58.430097 64.83519 58.546875 64.949219 C 58.663651 65.063247 58.864054 65.121094 59.148438 65.121094 L 59.613281 65.121094 L 59.613281 64.818359 L 59.185547 64.818359 C 59.02481 64.818359 58.91223 64.784109 58.847656 64.716797 C 58.783086 64.649477 58.751953 64.529731 58.751953 64.359375 L 58.751953 63.107422 L 59.613281 63.107422 L 59.613281 62.8125 L 58.751953 62.8125 L 58.751953 62.158203 L 58.373047 62.158203 z M 88.837891 62.158203 L 88.837891 62.8125 L 88.222656 62.8125 L 88.222656 63.107422 L 88.837891 63.107422 L 88.837891 64.359375 C 88.837891 64.638264 88.896891 64.83519 89.013672 64.949219 C 89.130448 65.063247 89.55111 64.844034 89.615234 65.121094 L 90.078125 65.121094 L 90.078125 64.818359 L 89.652344 64.818359 C 89.491608 64.818359 89.379026 64.784109 89.314453 64.716797 C 89.249883 64.649477 89.216797 64.529731 89.216797 64.359375 L 89.216797 63.107422 L 90.078125 63.107422 L 90.078125 62.8125 L 89.216797 62.8125 L 89.216797 62.158203 L 88.837891 62.158203 z M 38.394531 62.757812 C 38.273633 62.757813 38.148672 62.771348 38.019531 62.798828 C 37.891764 62.824928 37.759271 62.864388 37.619141 62.917969 L 37.619141 63.296875 C 37.744159 63.225445 37.872018 63.171866 38.003906 63.134766 C 38.135795 63.097666 38.26539 63.078125 38.394531 63.078125 C 38.596485 63.078125 38.74389 63.121275 38.835938 63.205078 C 38.927957 63.287508 38.975162 63.419421 38.976562 63.603516 L 38.976562 63.664062 L 38.466797 63.664062 C 38.132954 63.664062 37.880135 63.730022 37.707031 63.863281 C 37.535302 63.996543 37.449219 64.192311 37.449219 64.449219 C 37.449219 64.671781 37.520029 64.84916 37.660156 64.982422 C 37.800288 65.114311 37.98773 65.179687 38.222656 65.179688 C 38.398508 65.179687 38.547651 65.148554 38.669922 65.083984 C 38.793571 65.018044 38.895509 64.91668 38.976562 64.779297 L 38.976562 65.121094 L 39.357422 65.121094 L 39.357422 63.804688 C 39.357422 63.602731 39.346199 63.449897 39.324219 63.349609 C 39.302239 63.247941 39.265099 63.16439 39.212891 63.095703 C 39.129091 62.983053 39.018822 62.89813 38.882812 62.841797 C 38.748177 62.785477 38.585495 62.757812 38.394531 62.757812 z M 51.333984 62.757812 C 51.175992 62.757813 51.03923 62.790692 50.923828 62.859375 C 50.808423 62.926695 50.717707 63.026314 50.650391 63.158203 L 50.650391 62.8125 L 50.271484 62.8125 L 50.271484 65.121094 L 50.650391 65.121094 L 50.650391 63.816406 C 50.650391 63.58148 50.698181 63.40041 50.792969 63.275391 C 50.889139 63.148997 51.0259 63.085938 51.203125 63.085938 C 51.358369 63.085937 51.472109 63.134878 51.544922 63.232422 C 51.617732 63.329962 51.654297 63.483956 51.654297 63.691406 L 51.654297 65.121094 L 52.035156 65.121094 L 52.035156 63.691406 C 52.035156 63.378171 51.976156 63.144105 51.859375 62.990234 C 51.743972 62.834991 51.56891 62.757813 51.333984 62.757812 z M 53.796875 62.757812 C 53.659492 62.757812 53.537427 62.787216 53.431641 62.847656 C 53.327233 62.906726 53.181641 62.97705 53.181641 63.107422 L 53.181641 62.8125 L 52.800781 62.8125 L 52.800781 65.998047 L 53.181641 65.998047 L 53.181641 64.830078 C 53.242091 64.944108 53.32332 65.03135 53.427734 65.091797 C 53.533519 65.150867 53.656743 65.179688 53.796875 65.179688 C 54.07439 65.179687 54.29376 65.074273 54.453125 64.861328 C 54.612491 64.647009 54.691406 64.35162 54.691406 63.976562 C 54.691406 63.594637 54.612486 63.295771 54.453125 63.080078 C 54.295134 62.864385 54.075764 62.757811 53.796875 62.757812 z M 71.492188 62.757812 C 71.531437 63.032539 71.001311 62.816602 70.851562 62.9375 C 70.701814 63.057025 70.626953 63.228031 70.626953 63.449219 C 70.626953 63.623701 70.677053 63.761621 70.777344 63.863281 C 70.877634 63.963573 71.037419 64.035538 71.255859 64.078125 L 71.398438 64.107422 L 71.414062 64.111328 C 71.750653 64.178648 71.919922 64.300711 71.919922 64.476562 C 71.919922 64.598838 71.873302 64.693031 71.78125 64.761719 C 71.6892 64.829039 71.560186 64.863281 71.392578 64.863281 C 71.277176 64.863281 71.154532 64.844314 71.025391 64.808594 C 70.89625 64.771504 70.760647 64.717344 70.619141 64.644531 L 70.619141 65.035156 C 70.619141 65.188515 70.900371 65.119216 71.025391 65.142578 C 71.150409 65.167308 71.268784 65.179687 71.382812 65.179688 C 71.671319 65.179687 71.898434 65.116048 72.060547 64.988281 C 72.22266 64.85914 72.302734 64.681181 72.302734 64.453125 C 72.302734 64.281394 72.253794 64.142315 72.15625 64.035156 C 72.06008 63.92799 71.918596 63.856495 71.730469 63.820312 L 71.578125 63.791016 C 71.326716 63.742936 71.168669 63.693406 71.105469 63.642578 C 71.042269 63.591748 71.009766 63.515151 71.009766 63.412109 C 71.009766 63.298079 71.052906 63.213156 71.136719 63.158203 C 71.221899 63.101883 71.349755 63.074219 71.521484 63.074219 C 71.635513 63.074219 71.747515 63.089504 71.857422 63.121094 C 71.967329 63.152684 72.077014 63.200474 72.185547 63.263672 L 72.185547 62.892578 C 72.07564 62.847238 71.963638 62.812998 71.849609 62.791016 C 71.735581 62.767666 71.615831 62.757812 71.492188 62.757812 z M 74.060547 62.757812 C 73.730826 62.757812 73.467364 62.866124 73.269531 63.085938 C 73.071699 63.305751 72.972656 63.600561 72.972656 63.96875 C 72.972656 64.346555 73.073437 64.643682 73.275391 64.859375 C 73.477345 65.073694 73.758614 65.179688 74.117188 65.179688 C 74.242206 65.179688 74.370644 65.164986 74.503906 65.134766 C 74.638542 65.105916 74.777622 65.062976 74.921875 65.003906 L 74.921875 64.626953 C 74.772126 64.705263 74.631888 64.762315 74.5 64.800781 C 74.368111 64.839251 74.241992 64.859375 74.121094 64.859375 C 73.882046 64.859375 73.696341 64.789725 73.564453 64.652344 C 73.433938 64.514959 73.369141 64.321726 73.369141 64.070312 L 73.369141 64.056641 L 75.009766 64.056641 L 75.009766 63.871094 C 75.009766 63.52626 74.926216 63.255847 74.755859 63.056641 C 74.586877 62.857434 74.354548 62.757813 74.060547 62.757812 z M 77.142578 62.757812 C 76.962605 62.757812 76.80767 62.800752 76.675781 62.888672 C 76.54527 62.975222 76.447966 63.100185 76.384766 63.263672 L 76.384766 62.8125 L 76.003906 62.8125 L 76.003906 65.121094 L 76.384766 65.121094 L 76.384766 63.972656 C 76.384766 63.692393 76.447246 63.478452 76.572266 63.330078 C 76.697284 63.181703 76.878933 63.107422 77.115234 63.107422 C 77.215521 63.107422 77.306818 63.121541 77.390625 63.150391 C 77.474435 63.179241 77.557619 63.225862 77.638672 63.289062 L 77.638672 62.900391 C 77.564482 62.850941 77.48535 62.814371 77.404297 62.791016 C 77.323237 62.767666 77.235997 62.757812 77.142578 62.757812 z M 81.800781 62.757812 C 81.642789 62.757813 81.506028 62.790692 81.390625 62.859375 C 81.27522 62.926695 81.184503 63.026314 81.117188 63.158203 L 81.117188 62.8125 L 80.738281 62.8125 L 80.738281 65.121094 L 81.117188 65.121094 L 81.117188 63.816406 C 81.117187 63.58148 81.164978 63.40041 81.259766 63.275391 C 81.355936 63.148997 81.492697 63.085938 81.669922 63.085938 C 81.825165 63.085937 81.938905 63.134878 82.011719 63.232422 C 82.084529 63.329962 82.121094 63.483956 82.121094 63.691406 L 82.121094 65.121094 L 82.501953 65.121094 L 82.501953 63.691406 C 82.501953 63.378171 82.442953 63.144105 82.326172 62.990234 C 82.21077 62.834991 82.035707 62.757813 81.800781 62.757812 z M 84.263672 62.757812 C 84.126289 62.757812 84.004223 62.787216 83.898438 62.847656 C 83.794029 62.906726 83.709684 62.993393 83.646484 63.107422 L 83.646484 62.8125 L 83.265625 62.8125 L 83.265625 65.998047 L 83.646484 65.998047 L 83.646484 64.830078 C 83.706934 64.944108 83.790118 65.03135 83.894531 65.091797 C 84.000316 65.150867 84.12354 65.179688 84.263672 65.179688 C 84.541188 65.179687 84.758604 65.074273 84.917969 64.861328 C 85.077334 64.647009 85.158203 64.35162 85.158203 63.976562 C 85.158203 63.594637 85.077333 63.295771 84.917969 63.080078 C 84.759977 62.864385 84.542561 62.757811 84.263672 62.757812 z M 42.78125 62.8125 L 42.78125 63.107422 L 43.371094 63.107422 L 43.371094 64.826172 L 42.619141 64.826172 L 42.619141 65.121094 L 44.503906 65.121094 L 44.503906 64.826172 L 43.751953 64.826172 L 43.751953 62.8125 L 42.78125 62.8125 z M 55.349609 62.816406 L 55.349609 64.246094 C 55.349609 64.559329 55.406079 64.793975 55.521484 64.949219 C 55.636886 65.103088 55.812528 65.179688 56.048828 65.179688 C 56.204072 65.179688 56.339675 65.146808 56.455078 65.078125 C 56.571856 65.009435 56.665106 64.908653 56.732422 64.775391 L 56.732422 65.121094 L 57.113281 65.121094 L 57.113281 62.816406 L 56.732422 62.816406 L 56.732422 64.121094 C 56.732422 64.35602 56.684632 64.53767 56.589844 64.664062 C 56.495044 64.789083 56.358284 64.851562 56.179688 64.851562 C 56.025815 64.851562 55.912075 64.802622 55.837891 64.705078 C 55.765081 64.607538 55.728516 64.453544 55.728516 64.246094 L 55.728516 62.816406 L 55.349609 62.816406 z M 85.814453 62.816406 L 85.814453 64.246094 C 85.814453 64.559329 85.872883 64.793975 85.988281 64.949219 C 86.103684 65.103088 86.279325 65.179688 86.515625 65.179688 C 86.670869 65.179687 86.806472 65.146808 86.921875 65.078125 C 87.038653 65.009435 87.197266 64.626092 87.197266 64.775391 L 87.197266 65.121094 L 87.580078 65.121094 L 87.580078 62.816406 L 87.197266 62.816406 L 87.197266 64.121094 C 87.197266 64.35602 87.151436 64.53767 87.056641 64.664062 C 86.961841 64.789083 86.825082 64.851562 86.646484 64.851562 C 86.492612 64.851562 86.376919 64.802622 86.302734 64.705078 C 86.229924 64.607538 86.195313 64.038644 86.195312 64.246094 L 86.195312 62.816406 L 85.814453 62.816406 z M 74.097656 63.009766 C 74.194773 63.005559 74.398469 63.16632 74.472656 63.253906 C 74.572975 63.369309 74.625393 63.537203 74.630859 63.759766 L 73.382812 63.761719 C 73.404792 63.5474 73.475602 63.380664 73.59375 63.259766 C 73.7119 63.138868 73.862202 63.078125 74.044922 63.078125 C 74.044922 63.031414 74.065284 63.011168 74.097656 63.009766 z M 46 63.078125 C 46.182724 63.078125 46.321225 63.153565 46.416016 63.304688 C 46.512186 63.454436 46.560547 63.676123 46.560547 63.96875 C 46.560547 64.260004 46.512187 64.48169 46.416016 64.632812 C 46.321226 64.783935 46.182721 64.859375 46 64.859375 C 45.817278 64.859375 45.679357 64.784515 45.585938 64.634766 C 45.492517 64.485018 45.445313 64.262752 45.445312 63.96875 C 45.445312 63.674749 45.492522 63.452483 45.585938 63.302734 C 45.679358 63.152986 45.81728 63.078125 46 63.078125 z M 53.742188 63.078125 C 53.924906 63.078125 54.062249 63.152985 54.154297 63.302734 C 54.247717 63.452483 54.292969 63.674749 54.292969 63.96875 C 54.292969 64.262752 54.247719 64.485018 54.154297 64.634766 C 54.062247 64.784514 53.924908 64.859375 53.742188 64.859375 C 53.55809 64.859375 53.419009 64.783935 53.324219 64.632812 C 53.229429 64.481691 53.181641 64.260004 53.181641 63.96875 C 53.181641 63.676123 53.229431 63.454436 53.324219 63.304688 C 53.419009 63.153565 53.558092 63.078125 53.742188 63.078125 z M 84.207031 63.078125 C 84.389751 63.078125 84.527093 63.152985 84.619141 63.302734 C 84.712561 63.452483 84.759766 63.674749 84.759766 63.96875 C 84.759766 64.262752 84.712556 64.485018 84.619141 64.634766 C 84.527091 64.784514 84.389751 64.859375 84.207031 64.859375 C 84.022933 64.859375 83.883854 64.783935 83.789062 64.632812 C 83.694272 64.481691 83.646484 64.260004 83.646484 63.96875 C 83.646484 63.676123 83.694275 63.454436 83.789062 63.304688 C 83.883863 63.153565 84.022937 63.078125 84.207031 63.078125 z M 62.744141 63.205078 L 62.744141 63.554688 L 64.923828 63.554688 L 64.923828 63.205078 L 62.744141 63.205078 z M 38.496094 63.960938 L 38.621094 63.960938 L 38.976562 63.960938 L 38.976562 64.044922 C 38.976562 64.30046 38.914452 64.500858 38.794922 64.646484 C 38.675399 64.790738 38.511558 64.863281 38.302734 64.863281 C 38.154363 64.863281 38.038885 64.824981 37.955078 64.748047 C 37.871268 64.671107 37.828125 64.562586 37.828125 64.423828 C 37.828125 64.269962 37.884815 64.155064 37.996094 64.078125 C 38.108748 63.999815 38.274906 63.960938 38.496094 63.960938 z M 62.744141 64.041016 L 62.744141 64.394531 L 64.923828 64.394531 L 64.923828 64.041016 L 62.744141 64.041016 z M 32.427734 67.166016 L 32.427734 67.462891 L 33.035156 67.462891 L 33.035156 69.558594 C 33.035156 69.825118 33.097056 70.032108 33.220703 70.177734 C 33.345722 70.323362 33.521364 70.396484 33.748047 70.396484 L 34.228516 70.396484 L 34.228516 70.074219 L 33.785156 70.074219 C 33.662882 70.074219 33.571007 70.031859 33.507812 69.945312 C 33.445993 69.858762 33.414062 69.728949 33.414062 69.558594 L 33.414062 67.166016 L 32.427734 67.166016 z M 29.964844 67.320312 L 29.964844 70.396484 L 31.830078 70.396484 L 31.830078 70.044922 L 30.380859 70.044922 L 30.380859 68.931641 L 31.728516 68.931641 L 31.728516 68.580078 L 30.380859 68.580078 L 30.380859 67.669922 L 31.791016 67.669922 L 31.791016 67.320312 L 29.964844 67.320312 z M 35.949219 68.033203 C 35.802136 68.268535 35.458343 68.091993 35.308594 68.212891 C 35.158846 68.332415 35.083984 68.503422 35.083984 68.724609 C 35.083984 68.899091 35.134084 69.037013 35.234375 69.138672 C 35.334666 69.238959 35.494451 69.310922 35.712891 69.353516 L 35.853516 69.382812 L 35.871094 69.386719 C 36.207685 69.454039 36.375 69.576102 36.375 69.751953 C 36.375 69.874228 36.33033 69.968422 36.238281 70.037109 C 36.146231 70.104429 36.015264 70.138672 35.847656 70.138672 C 35.732254 70.138672 35.609609 70.121647 35.480469 70.085938 C 35.351329 70.048847 35.217678 69.992738 35.076172 69.919922 L 35.076172 70.3125 C 35.076172 70.465859 35.35545 70.39461 35.480469 70.417969 C 35.605488 70.442699 35.725815 70.455078 35.839844 70.455078 C 36.12835 70.455078 36.353512 70.391438 36.515625 70.263672 C 36.677738 70.134532 36.759766 69.956573 36.759766 69.728516 C 36.759766 69.556785 36.710826 69.417706 36.613281 69.310547 C 36.517111 69.203381 36.373762 69.131416 36.185547 69.095703 L 36.033203 69.066406 C 35.781794 69.018326 35.6257 68.968806 35.5625 68.917969 C 35.4993 68.867139 35.466797 68.790542 35.466797 68.6875 C 35.466797 68.573471 35.507987 68.488547 35.591797 68.433594 C 35.676977 68.377264 35.806786 68.349609 35.978516 68.349609 C 36.092544 68.349609 36.204546 68.364894 36.314453 68.396484 C 36.42436 68.428074 36.532092 68.475865 36.640625 68.539062 L 36.640625 68.167969 C 36.530719 68.122629 36.418716 68.090339 36.304688 68.068359 C 36.190658 68.045009 36.072865 68.033203 35.949219 68.033203 z M 38.517578 68.033203 C 38.187857 68.033203 37.922442 68.141514 37.724609 68.361328 C 37.526777 68.581143 37.427734 68.875953 37.427734 69.244141 C 37.427734 69.621947 37.530468 69.919074 37.732422 70.134766 C 37.934377 70.349084 38.213695 70.455078 38.572266 70.455078 C 38.697286 70.455078 38.825722 70.440376 38.958984 70.410156 C 39.09362 70.381306 39.234653 70.338366 39.378906 70.279297 L 39.378906 69.902344 C 39.229158 69.980654 39.086967 70.037705 38.955078 70.076172 C 38.823189 70.114642 38.69707 70.134766 38.576172 70.134766 C 38.337125 70.134766 38.15142 70.065116 38.019531 69.927734 C 37.925528 69.828783 37.866008 69.447864 37.839844 69.332031 L 39.466797 69.332031 L 39.466797 69.146484 C 39.466797 68.801651 39.381296 68.531237 39.210938 68.332031 C 39.041956 68.132825 38.81158 68.033203 38.517578 68.033203 z M 38.5 68.353516 C 38.686843 68.353516 38.83077 68.412516 38.929688 68.529297 C 39.030006 68.6447 39.082424 68.812594 39.087891 69.035156 L 37.837891 69.039062 C 37.859871 68.824744 37.930681 68.656055 38.048828 68.535156 C 38.166978 68.414259 38.317279 68.353516 38.5 68.353516 z M 37.824219 69.332031 L 37.828125 69.332031 C 37.826934 69.340047 37.824219 69.321609 37.824219 69.345703 L 37.824219 69.332031 z M 40.042969 72.443359 L 40.042969 72.738281 L 40.652344 72.738281 L 40.652344 74.835938 C 40.652344 75.102462 40.714244 75.307498 40.837891 75.453125 C 40.962911 75.598752 41.312283 75.451425 41.365234 75.671875 L 41.845703 75.671875 L 41.845703 75.349609 L 41.402344 75.349609 C 41.280076 75.349609 41.186247 75.307249 41.123047 75.220703 C 41.061227 75.134153 41.03125 75.006292 41.03125 74.835938 L 41.03125 72.443359 L 40.042969 72.443359 z M 43.371094 72.464844 L 43.371094 72.945312 L 43.751953 72.945312 L 43.751953 72.464844 L 43.371094 72.464844 z M 46.560547 72.464844 L 46.560547 73.658203 C 46.500097 73.544172 46.416333 73.457511 46.310547 73.398438 C 46.204762 73.337987 46.082117 73.308594 45.943359 73.308594 C 45.665845 73.308594 45.447849 73.414588 45.287109 73.628906 C 45.12637 73.841851 45.044922 74.136661 45.044922 74.511719 C 45.044922 74.892272 45.125792 75.191137 45.285156 75.408203 C 45.445894 75.623896 45.66447 75.732422 45.943359 75.732422 C 46.080742 75.732422 46.202227 75.701648 46.306641 75.642578 C 46.412423 75.582128 46.497347 75.494888 46.560547 75.380859 L 46.560547 75.671875 L 46.939453 75.671875 L 46.939453 72.464844 L 46.560547 72.464844 z M 68.910156 72.539062 C 68.581808 72.539062 68.333624 72.674087 68.166016 72.943359 C 67.998408 73.212632 67.916016 73.610539 67.916016 74.136719 C 67.916016 74.661524 67.998406 75.058852 68.166016 75.328125 C 68.333624 75.597397 68.581808 75.732422 68.910156 75.732422 C 69.238504 75.732422 69.486689 75.597397 69.654297 75.328125 C 69.823279 75.058852 69.908203 74.661524 69.908203 74.136719 C 69.908203 73.610539 69.823283 73.212632 69.654297 72.943359 C 69.486689 72.674087 69.238504 72.539063 68.910156 72.539062 z M 34.753906 72.595703 L 35.654297 75.671875 L 36.160156 75.671875 L 37.060547 72.595703 L 36.628906 72.595703 L 35.90625 75.322266 L 35.183594 72.595703 L 34.753906 72.595703 z M 47.744141 72.595703 L 47.744141 72.945312 L 48.390625 72.945312 L 48.390625 75.322266 L 47.744141 75.322266 L 47.744141 75.671875 L 49.453125 75.671875 L 49.453125 75.322266 L 48.808594 75.322266 L 48.808594 72.945312 L 49.453125 72.945312 L 49.453125 72.595703 L 47.744141 72.595703 z M 58.373047 72.708984 L 58.373047 73.363281 L 57.755859 73.363281 L 57.755859 73.658203 L 58.373047 73.658203 L 58.373047 74.912109 C 58.373047 75.190999 58.430097 75.385971 58.546875 75.5 C 58.663651 75.614029 58.864054 75.671875 59.148438 75.671875 L 59.613281 75.671875 L 59.613281 75.369141 L 59.185547 75.369141 C 59.02481 75.369141 58.91223 75.334891 58.847656 75.267578 C 58.783086 75.200258 58.751953 75.082465 58.751953 74.912109 L 58.751953 73.658203 L 59.613281 73.658203 L 59.613281 73.363281 L 58.751953 73.363281 L 58.751953 72.708984 L 58.373047 72.708984 z M 68.910156 72.869141 C 69.105246 72.869141 69.250912 72.972817 69.345703 73.181641 C 69.441873 73.390465 69.490234 73.709455 69.490234 74.136719 C 69.490234 74.562608 69.441874 74.879067 69.345703 75.087891 C 69.250903 75.296715 69.105241 75.402344 68.910156 75.402344 C 68.716449 75.402344 68.572737 75.296715 68.476562 75.087891 C 68.381772 74.879067 68.333984 74.562608 68.333984 74.136719 C 68.333984 73.709455 68.381775 73.390465 68.476562 73.181641 C 68.572733 72.972817 68.716444 72.869141 68.910156 72.869141 z M 38.394531 73.308594 C 38.273633 73.308594 38.148672 73.322129 38.019531 73.349609 C 37.891764 73.375709 37.759271 73.415169 37.619141 73.46875 L 37.619141 73.847656 C 37.744159 73.776226 37.872018 73.722647 38.003906 73.685547 C 38.135795 73.648447 38.26539 73.628906 38.394531 73.628906 C 38.596485 73.628906 38.74389 73.672056 38.835938 73.755859 C 38.927957 73.838289 38.975162 73.970202 38.976562 74.154297 L 38.976562 74.214844 L 38.466797 74.214844 C 38.132954 74.214844 37.880135 74.280804 37.707031 74.414062 C 37.535302 74.547325 37.449219 74.743092 37.449219 75 C 37.449219 75.222561 37.520029 75.399941 37.660156 75.533203 C 37.800288 75.665092 37.98773 75.732422 38.222656 75.732422 C 38.398508 75.732422 38.547651 75.699346 38.669922 75.634766 C 38.793571 75.568826 38.895509 75.467462 38.976562 75.330078 L 38.976562 75.671875 L 39.357422 75.671875 L 39.357422 74.355469 C 39.357422 74.153513 39.346199 74.002632 39.324219 73.902344 C 39.302239 73.800675 39.265099 73.715172 39.212891 73.646484 C 39.129091 73.533836 39.018822 73.448911 38.882812 73.392578 C 38.748177 73.336248 38.454919 73.489754 38.394531 73.308594 z M 51.333984 73.308594 C 51.175992 73.308594 51.03923 73.341474 50.923828 73.410156 C 50.808423 73.477476 50.717707 73.577096 50.650391 73.708984 L 50.650391 73.363281 L 50.271484 73.363281 L 50.271484 75.671875 L 50.650391 75.671875 L 50.650391 74.367188 C 50.650391 74.132261 50.698181 73.953144 50.792969 73.828125 C 50.889139 73.701732 51.0259 73.638672 51.203125 73.638672 C 51.358369 73.638672 51.472109 73.685662 51.544922 73.783203 C 51.617732 73.880743 51.654297 74.034738 51.654297 74.242188 L 51.654297 75.671875 L 52.035156 75.671875 L 52.035156 74.242188 C 52.035156 73.928951 51.976156 73.694885 51.859375 73.541016 C 51.743972 73.385771 51.56891 73.308594 51.333984 73.308594 z M 53.796875 73.308594 C 53.659492 73.308594 53.537427 73.337998 53.431641 73.398438 C 53.327233 73.457508 53.244841 73.544174 53.181641 73.658203 L 53.181641 73.363281 L 52.800781 73.363281 L 52.800781 76.548828 L 53.181641 76.548828 L 53.181641 75.380859 C 53.181641 75.251794 53.32332 75.582131 53.427734 75.642578 C 53.533519 75.701648 53.656743 75.732422 53.796875 75.732422 C 54.07439 75.732422 54.29376 75.625055 54.453125 75.412109 C 54.612491 75.197791 54.691406 74.902402 54.691406 74.527344 C 54.691406 74.145417 54.612486 73.846552 54.453125 73.630859 C 54.295134 73.415167 54.075764 73.308594 53.796875 73.308594 z M 42.78125 73.363281 L 42.78125 73.658203 L 43.371094 73.658203 L 43.371094 75.376953 L 42.619141 75.376953 L 42.619141 75.671875 L 44.503906 75.671875 L 44.503906 75.376953 L 43.751953 75.376953 L 43.751953 73.363281 L 42.78125 73.363281 z M 55.349609 73.367188 L 55.349609 74.798828 C 55.349609 75.112063 55.406079 75.344755 55.521484 75.5 C 55.636886 75.653869 55.812528 75.732422 56.048828 75.732422 C 56.204072 75.732422 56.339675 75.697592 56.455078 75.628906 C 56.571856 75.560216 56.732422 75.176873 56.732422 75.326172 L 56.732422 75.671875 L 57.113281 75.671875 L 57.113281 73.367188 L 56.732422 73.367188 L 56.732422 74.671875 C 56.732422 74.906802 56.684632 75.088451 56.589844 75.214844 C 56.495044 75.339863 56.358284 75.402344 56.179688 75.402344 C 56.025815 75.402344 55.912075 75.353404 55.837891 75.255859 C 55.765081 75.158319 55.728516 74.591378 55.728516 74.798828 L 55.728516 73.367188 L 55.349609 73.367188 z M 46 73.628906 C 46.182724 73.628906 46.321225 73.704346 46.416016 73.855469 C 46.512186 74.005217 46.560547 74.226904 46.560547 74.519531 C 46.560547 74.810785 46.512187 75.032472 46.416016 75.183594 C 46.321226 75.334716 46.182721 75.410156 46 75.410156 C 45.817278 75.410156 45.679357 75.335296 45.585938 75.185547 C 45.492517 75.035799 45.445313 74.813533 45.445312 74.519531 C 45.445312 74.22553 45.492522 74.003264 45.585938 73.853516 C 45.679358 73.703767 45.81728 73.628906 46 73.628906 z M 53.742188 73.628906 C 53.924906 73.628906 54.062249 73.703766 54.154297 73.853516 C 54.247717 74.003264 54.292969 74.22553 54.292969 74.519531 C 54.292969 74.813533 54.247719 75.035799 54.154297 75.185547 C 54.062247 75.335295 53.924908 75.410156 53.742188 75.410156 C 53.55809 75.410156 53.419009 75.334716 53.324219 75.183594 C 53.229429 75.032472 53.181641 74.810785 53.181641 74.519531 C 53.181641 74.226904 53.229431 74.005217 53.324219 73.855469 C 53.419009 73.704347 53.558092 73.628906 53.742188 73.628906 z M 62.744141 73.755859 L 62.744141 74.105469 L 64.923828 74.105469 L 64.923828 73.755859 L 62.744141 73.755859 z M 68.90625 73.847656 C 68.83206 73.847656 68.768424 73.874737 68.714844 73.929688 C 68.662634 73.984647 68.636719 74.051396 68.636719 74.126953 C 68.636719 74.206633 68.662061 74.272012 68.712891 74.324219 C 68.765091 74.376429 68.829311 74.402344 68.90625 74.402344 C 68.98456 74.402344 69.051889 74.375846 69.105469 74.322266 C 69.160419 74.268686 69.1875 74.203891 69.1875 74.126953 C 69.1875 74.051393 69.160419 73.98464 69.105469 73.929688 C 69.050519 73.874737 68.983189 73.847656 68.90625 73.847656 z M 38.496094 74.511719 L 38.621094 74.511719 L 38.976562 74.511719 L 38.976562 74.595703 C 38.975163 74.851238 38.914452 75.051639 38.794922 75.197266 C 38.675399 75.341518 38.511558 75.414062 38.302734 75.414062 C 38.154363 75.414062 38.038885 75.375762 37.955078 75.298828 C 37.871268 75.221888 37.828125 75.113367 37.828125 74.974609 C 37.828125 74.820743 37.884815 74.705845 37.996094 74.628906 C 38.108748 74.550596 38.274906 74.511719 38.496094 74.511719 z M 62.744141 74.591797 L 62.744141 74.947266 L 64.923828 74.947266 L 64.923828 74.591797 L 62.744141 74.591797 z M 34.814453 77.871094 L 34.814453 80.947266 L 35.197266 80.947266 L 35.197266 78.228516 L 35.746094 79.851562 L 36.0625 79.851562 L 36.611328 78.228516 L 36.611328 80.947266 L 36.996094 80.947266 L 36.996094 77.871094 L 36.4375 77.871094 L 35.902344 79.4375 L 35.369141 77.871094 L 34.814453 77.871094 z M 42.595703 77.871094 L 42.595703 80.947266 L 43.505859 80.947266 C 43.867179 80.947266 44.139546 80.875886 44.322266 80.734375 C 44.504987 80.591496 44.595703 80.380451 44.595703 80.101562 C 44.595703 79.881748 44.537273 79.702052 44.421875 79.560547 C 44.307846 79.41767 44.151174 79.331008 43.949219 79.300781 C 44.129187 79.273301 44.264211 79.204231 44.353516 79.095703 C 44.444196 78.987169 44.488281 78.840559 44.488281 78.652344 C 44.488281 78.403679 44.402781 78.210229 44.232422 78.074219 C 44.062067 77.938208 43.820469 77.871094 43.505859 77.871094 L 42.595703 77.871094 z M 53.105469 77.871094 L 53.105469 79.013672 L 53.462891 79.013672 L 53.462891 77.871094 L 53.105469 77.871094 z M 53.894531 77.871094 L 53.894531 79.013672 L 54.251953 79.013672 L 54.251953 77.871094 L 53.894531 77.871094 z M 55.353516 77.871094 L 55.353516 80.947266 L 57.21875 80.947266 L 57.21875 80.597656 L 55.769531 80.597656 L 55.769531 79.482422 L 57.117188 79.482422 L 57.117188 79.130859 L 55.769531 79.130859 L 55.769531 78.220703 L 57.179688 78.220703 L 57.179688 77.871094 L 55.353516 77.871094 z M 91.1875 77.871094 L 91.1875 79.013672 L 91.546875 79.013672 L 91.546875 77.871094 L 91.1875 77.871094 z M 91.976562 77.871094 L 91.976562 79.013672 L 92.335938 79.013672 L 92.335938 77.871094 L 91.976562 77.871094 z M 43.013672 78.212891 L 43.498047 78.212891 C 43.701379 78.212891 43.845672 78.247721 43.933594 78.316406 C 44.022884 78.385096 44.068359 78.4971 44.068359 78.652344 C 44.068359 78.82407 44.022319 78.948452 43.931641 79.025391 C 43.842341 79.102331 43.698627 79.140625 43.498047 79.140625 L 43.013672 79.140625 L 43.013672 78.212891 z M 40.775391 78.490234 C 40.631789 78.492452 40.329539 78.744481 40.208984 78.90625 C 40.048245 79.121943 39.966797 79.412697 39.966797 79.775391 C 39.966797 80.13671 40.048247 80.424932 40.208984 80.640625 C 40.369723 80.856318 40.584243 80.962891 40.853516 80.962891 C 41.003262 80.962891 41.129961 80.932331 41.234375 80.869141 C 41.338789 80.805941 41.482422 80.43749 41.482422 80.580078 L 41.482422 80.837891 L 41.482422 80.855469 C 41.482422 81.097265 41.435212 81.273486 41.341797 81.384766 C 41.248377 81.496047 41.099233 81.550781 40.894531 81.550781 C 40.802481 81.550781 40.701704 81.536079 40.591797 81.505859 C 40.48189 81.475639 40.359246 81.428429 40.224609 81.365234 L 40.224609 81.740234 C 40.338638 81.777324 40.452378 81.804989 40.566406 81.824219 C 40.680434 81.843449 40.790118 81.853516 40.894531 81.853516 C 41.211888 81.853516 41.451748 81.764535 41.615234 81.585938 C 41.778721 81.407337 41.861328 81.145035 41.861328 80.798828 L 41.861328 78.646484 L 41.482422 78.646484 L 41.482422 78.945312 C 41.417852 78.821667 41.333511 78.730948 41.230469 78.671875 C 41.127431 78.612805 41.00189 78.583984 40.853516 78.583984 C 40.853516 78.516666 40.823258 78.489495 40.775391 78.490234 z M 83.935547 78.490234 C 83.791946 78.492452 83.489695 78.744481 83.369141 78.90625 C 83.208401 79.121943 83.128906 79.412697 83.128906 79.775391 C 83.128906 80.13671 83.208396 80.424932 83.369141 80.640625 C 83.52988 80.856318 83.7444 80.962891 84.013672 80.962891 C 84.163419 80.962891 84.290118 80.932331 84.394531 80.869141 C 84.498945 80.805941 84.582131 80.709219 84.642578 80.580078 L 84.642578 80.837891 L 84.642578 80.855469 C 84.642578 81.097265 84.595368 81.273486 84.501953 81.384766 C 84.408533 81.496047 84.259388 81.550781 84.054688 81.550781 C 83.962637 81.550781 83.86186 81.536079 83.751953 81.505859 C 83.642047 81.475639 83.519403 81.428429 83.384766 81.365234 L 83.384766 81.740234 C 83.498794 81.777324 83.614487 81.804989 83.728516 81.824219 C 83.842543 81.843449 83.950272 81.853516 84.054688 81.853516 C 84.372043 81.853516 84.613857 81.764535 84.777344 81.585938 C 84.940831 81.407337 85.021484 81.145035 85.021484 80.798828 L 85.021484 78.646484 L 84.642578 78.646484 L 84.642578 78.945312 C 84.578008 78.821667 84.493666 78.730948 84.390625 78.671875 C 84.287587 78.612805 84.162047 78.583984 84.013672 78.583984 C 84.013672 78.516666 83.983414 78.489495 83.935547 78.490234 z M 81.5 78.537109 C 81.419913 78.525921 81.276543 78.60439 81.179688 78.625 C 81.05192 78.6511 80.779297 78.59412 80.779297 78.744141 L 80.779297 79.123047 C 80.904316 79.051617 81.032175 78.998036 81.164062 78.960938 C 81.295951 78.923838 81.425545 78.904297 81.554688 78.904297 C 81.756642 78.904297 81.904046 78.947447 81.996094 79.03125 C 82.088114 79.11368 82.136719 79.245588 82.136719 79.429688 L 82.136719 79.490234 L 81.626953 79.490234 C 81.29311 79.490234 81.04029 79.556194 80.867188 79.689453 C 80.695458 79.822715 80.609375 80.018483 80.609375 80.275391 C 80.609375 80.497952 80.680185 80.675332 80.820312 80.808594 C 80.960444 80.940482 81.147886 81.007813 81.382812 81.007812 C 81.558665 81.007812 81.707807 80.974736 81.830078 80.910156 C 81.953726 80.844216 82.136719 80.445958 82.136719 80.605469 L 82.136719 80.947266 L 82.517578 80.947266 L 82.517578 79.630859 C 82.517578 79.428902 82.506355 79.278022 82.484375 79.177734 C 82.462395 79.076066 82.425255 78.990562 82.373047 78.921875 C 82.289247 78.809213 82.180931 78.724289 82.044922 78.667969 C 81.910286 78.611639 81.745652 78.583984 81.554688 78.583984 C 81.546003 78.555035 81.526696 78.540839 81.5 78.537109 z M 76.642578 78.544922 C 76.61442 78.548026 76.58929 78.559585 76.570312 78.583984 C 76.399935 78.803041 76.079436 78.644724 75.929688 78.765625 C 75.779939 78.885148 75.705078 79.054203 75.705078 79.275391 C 75.705078 79.449873 75.755178 79.587794 75.855469 79.689453 C 75.955759 79.78974 76.115544 79.861704 76.333984 79.904297 L 76.476562 79.933594 L 76.492188 79.9375 C 76.828778 80.00482 76.998047 80.126882 76.998047 80.302734 C 76.998047 80.42501 76.951427 80.519203 76.859375 80.587891 C 76.767325 80.655211 76.636358 80.689453 76.46875 80.689453 C 76.353348 80.689453 76.232657 80.672429 76.103516 80.636719 C 75.974375 80.599629 75.838772 80.543519 75.697266 80.470703 L 75.697266 80.863281 C 75.842893 80.911361 75.978496 80.947341 76.103516 80.970703 C 76.228534 80.995433 76.346908 81.007813 76.460938 81.007812 C 76.749443 81.007812 76.974605 80.942222 77.136719 80.814453 C 77.298831 80.685313 77.380859 80.507354 77.380859 80.279297 C 77.380859 80.107567 77.331919 79.968487 77.234375 79.861328 C 77.138205 79.754162 76.99681 79.682198 76.808594 79.646484 L 76.654297 79.617188 C 76.402888 79.569108 76.246794 79.519578 76.183594 79.46875 C 76.120394 79.41792 76.087891 79.341323 76.087891 79.238281 C 76.087891 79.124252 76.131031 79.041281 76.214844 78.986328 C 76.300024 78.929998 76.42788 78.900391 76.599609 78.900391 C 76.713638 78.900391 76.82564 78.917619 76.935547 78.949219 C 77.045454 78.980809 77.155139 79.026649 77.263672 79.089844 L 77.263672 78.71875 C 77.153765 78.67341 77.041763 78.641121 76.927734 78.619141 C 76.842213 78.601621 76.727053 78.535611 76.642578 78.544922 z M 59.400391 78.546875 C 59.382187 78.549783 59.371094 78.56063 59.371094 78.583984 C 59.371094 78.763957 59.036186 78.626924 58.904297 78.714844 C 58.773786 78.801394 58.676481 78.926357 58.613281 79.089844 L 58.613281 78.638672 L 58.232422 78.638672 L 58.232422 80.947266 L 58.613281 80.947266 L 58.613281 79.798828 C 58.613281 79.518565 58.675761 79.304625 58.800781 79.15625 C 58.9258 79.007875 59.105496 78.933594 59.341797 78.933594 C 59.442084 78.933594 59.535333 78.947713 59.619141 78.976562 C 59.702951 79.005413 59.784181 79.052032 59.865234 79.115234 L 59.865234 78.728516 C 59.865234 78.639356 59.713867 78.642496 59.632812 78.619141 C 59.572018 78.601621 59.455 78.538152 59.400391 78.546875 z M 61.939453 78.546875 C 61.92125 78.549783 61.910156 78.560629 61.910156 78.583984 C 61.730184 78.583984 61.575248 78.626924 61.443359 78.714844 C 61.312848 78.801394 61.215544 78.926357 61.152344 79.089844 L 61.152344 78.638672 L 60.771484 78.638672 L 60.771484 80.947266 L 61.152344 80.947266 L 61.152344 79.798828 C 61.152344 79.518565 61.214824 79.304625 61.339844 79.15625 C 61.464864 79.007875 61.644559 78.933594 61.880859 78.933594 C 61.981146 78.933594 62.074396 78.947713 62.158203 78.976562 C 62.242013 79.005413 62.323244 79.052032 62.404297 79.115234 L 62.404297 78.728516 C 62.330107 78.679056 62.252928 78.642496 62.171875 78.619141 C 62.11108 78.601621 61.994063 78.538152 61.939453 78.546875 z M 38.488281 78.583984 C 38.428081 78.854892 37.997404 78.644724 37.847656 78.765625 C 37.697908 78.885148 37.623047 79.054203 37.623047 79.275391 C 37.623047 79.449873 37.673147 79.587794 37.773438 79.689453 C 37.873728 79.78974 38.03156 79.861704 38.25 79.904297 L 38.392578 79.933594 L 38.410156 79.9375 C 38.745265 80.01184 38.914062 80.126882 38.914062 80.302734 C 38.914062 80.42501 38.867442 80.519203 38.775391 80.587891 C 38.683341 80.655211 38.554327 80.689453 38.386719 80.689453 C 38.271317 80.689453 38.148673 80.672429 38.019531 80.636719 C 37.890391 80.599629 37.613281 80.311562 37.613281 80.470703 L 37.613281 80.863281 C 37.758907 80.911361 37.894512 80.947341 38.019531 80.970703 C 38.144551 80.995433 38.264879 81.007813 38.378906 81.007812 C 38.667413 81.007812 38.892573 80.942222 39.054688 80.814453 C 39.2168 80.685313 39.296875 80.507354 39.296875 80.279297 C 39.296875 80.107567 39.249885 79.968487 39.152344 79.861328 C 39.056174 79.754162 38.912826 79.682198 38.724609 79.646484 L 38.572266 79.617188 C 38.320857 79.569108 38.162809 79.519578 38.099609 79.46875 C 38.036409 79.41792 38.005859 79.341323 38.005859 79.238281 C 38.005859 79.124252 38.047049 79.041281 38.130859 78.986328 C 38.216039 78.929998 38.345849 78.900391 38.517578 78.900391 C 38.631607 78.900391 38.743608 78.917619 38.853516 78.949219 C 38.963422 78.980809 39.071154 79.026649 39.179688 79.089844 L 39.179688 78.71875 C 39.06978 78.67341 38.957779 78.641121 38.84375 78.619141 C 38.729721 78.595781 38.611926 78.583984 38.488281 78.583984 z M 46.060547 78.583984 C 45.740443 78.583984 45.497108 78.687081 45.328125 78.894531 C 45.159144 79.10198 45.074219 79.402004 45.074219 79.794922 C 45.074219 80.189213 45.159139 80.489816 45.328125 80.697266 C 45.497108 80.903341 45.740443 81.007813 46.060547 81.007812 C 46.382026 81.007813 46.627894 80.903341 46.796875 80.697266 C 46.965857 80.489816 47.050781 80.189213 47.050781 79.794922 C 47.050781 79.402004 46.965281 79.10198 46.794922 78.894531 C 46.62594 78.687081 46.380652 78.583984 46.060547 78.583984 z M 63.833984 78.583984 C 63.51388 78.583984 63.268593 78.687081 63.099609 78.894531 C 62.930628 79.10198 62.845703 79.402004 62.845703 79.794922 C 62.845703 80.189213 62.930623 80.489816 63.099609 80.697266 C 63.268593 80.903341 63.51388 81.007813 63.833984 81.007812 C 64.155463 81.007813 64.399378 80.903341 64.568359 80.697266 C 64.737341 80.489816 64.822266 80.189213 64.822266 79.794922 C 64.822266 79.402004 64.736766 79.10198 64.566406 78.894531 C 64.397423 78.687081 64.154088 78.583984 63.833984 78.583984 z M 66.988281 78.583984 C 66.808309 78.583984 66.65142 78.626924 66.519531 78.714844 C 66.38902 78.801394 66.293669 78.926357 66.230469 79.089844 L 66.230469 78.638672 L 65.847656 78.638672 L 65.847656 80.947266 L 66.230469 80.947266 L 66.230469 79.798828 C 66.230469 79.518565 66.292949 79.304625 66.417969 79.15625 C 66.542987 79.007875 66.722683 78.933594 66.958984 78.933594 C 67.059271 78.933594 67.152521 78.947713 67.236328 78.976562 C 67.320138 79.005413 67.401369 79.052032 67.482422 79.115234 L 67.482422 78.728516 C 67.482422 78.639356 67.331053 78.642496 67.25 78.619141 C 67.16894 78.595781 67.081701 78.583984 66.988281 78.583984 z M 71.150391 78.583984 C 71.063831 78.583984 70.986657 78.606421 70.917969 78.650391 C 70.850659 78.692971 70.793387 78.755455 70.748047 78.837891 L 70.748047 78.638672 L 70.404297 78.638672 L 70.404297 80.947266 L 70.748047 80.947266 L 70.748047 79.626953 C 70.748047 79.312348 70.768181 79.113104 70.806641 79.029297 C 70.846481 78.944117 70.91729 78.900391 71.017578 78.900391 C 71.119242 78.900391 71.188097 78.938691 71.226562 79.015625 C 71.266402 79.092565 71.287109 79.297232 71.287109 79.626953 L 71.287109 80.947266 L 71.632812 80.947266 L 71.632812 79.626953 C 71.632813 79.312348 71.653519 79.113104 71.693359 79.029297 C 71.734569 78.944117 71.810015 78.900391 71.919922 78.900391 C 72.016102 78.900391 72.081474 78.939851 72.117188 79.019531 C 72.154287 79.097841 72.173828 79.301354 72.173828 79.626953 L 72.173828 80.947266 L 72.519531 80.947266 L 72.519531 79.609375 C 72.519531 79.212336 72.481231 78.943661 72.404297 78.800781 C 72.328737 78.656528 72.197186 78.583984 72.011719 78.583984 C 71.910053 78.583984 71.822813 78.60817 71.75 78.65625 C 71.67856 78.70296 71.620925 78.776083 71.574219 78.875 C 71.535759 78.77745 71.480229 78.70433 71.410156 78.65625 C 71.341466 78.60817 71.208309 78.670864 71.150391 78.583984 z M 74.060547 78.583984 C 74.060547 78.913705 73.467364 78.694249 73.269531 78.914062 C 73.071699 79.133876 72.972656 79.426734 72.972656 79.794922 C 72.972656 80.172728 73.073437 80.469855 73.275391 80.685547 C 73.477345 80.899866 73.758614 81.007812 74.117188 81.007812 C 74.242206 81.007812 74.370644 80.991158 74.503906 80.960938 C 74.638542 80.932087 74.777622 80.889148 74.921875 80.830078 L 74.921875 80.453125 C 74.772126 80.531435 74.631888 80.588486 74.5 80.626953 C 74.368111 80.665423 74.241992 80.685547 74.121094 80.685547 C 73.882046 80.685547 73.696341 80.615897 73.564453 80.478516 C 73.433938 80.341132 73.369141 80.147898 73.369141 79.896484 L 73.369141 79.884766 L 75.009766 79.884766 L 75.009766 79.699219 C 75.009766 79.354385 74.926216 79.082019 74.755859 78.882812 C 74.586877 78.683606 74.354548 78.583984 74.060547 78.583984 z M 79.109375 78.583984 C 78.83186 78.583984 78.618499 78.644724 78.46875 78.765625 C 78.319002 78.885148 78.244141 79.054203 78.244141 79.275391 C 78.244141 79.449873 78.294241 79.587794 78.394531 79.689453 C 78.494821 79.78974 78.655049 79.859498 78.873047 79.904297 L 79.015625 79.933594 L 79.03125 79.9375 C 79.36784 80.00482 79.535156 80.126882 79.535156 80.302734 C 79.535156 80.42501 79.490485 80.519203 79.398438 80.587891 C 79.306387 80.655211 79.175421 80.689453 79.007812 80.689453 C 78.89241 80.689453 78.771719 80.672429 78.642578 80.636719 C 78.513437 80.599629 78.377834 80.543519 78.236328 80.470703 L 78.236328 80.863281 C 78.236328 81.01664 78.517559 80.947341 78.642578 80.970703 C 78.767597 80.995433 78.885971 81.007813 79 81.007812 C 79.288507 81.007812 79.513668 80.942222 79.675781 80.814453 C 79.837894 80.685313 79.919922 80.507354 79.919922 80.279297 C 79.919922 80.107567 79.870981 79.968487 79.773438 79.861328 C 79.677267 79.754162 79.53392 79.682198 79.345703 79.646484 L 79.193359 79.617188 C 78.94195 79.569108 78.785856 79.519578 78.722656 79.46875 C 78.659456 79.41792 78.626953 79.341323 78.626953 79.238281 C 78.626953 79.124252 78.670103 79.041281 78.753906 78.986328 C 78.839086 78.929998 78.966943 78.900391 79.138672 78.900391 C 79.252701 78.900391 79.364702 78.917619 79.474609 78.949219 C 79.584516 78.980809 79.694201 79.026649 79.802734 79.089844 L 79.802734 78.71875 C 79.802734 78.599858 79.580826 78.641121 79.466797 78.619141 C 79.352768 78.595781 79.23302 78.583984 79.109375 78.583984 z M 86.755859 78.583984 C 86.755859 78.913705 86.160723 78.694249 85.962891 78.914062 C 85.765058 79.133876 85.666016 79.426734 85.666016 79.794922 C 85.666016 80.172728 85.768749 80.469855 85.970703 80.685547 C 86.172657 80.899866 86.451975 81.007812 86.810547 81.007812 C 86.935567 81.007812 87.064004 80.991158 87.197266 80.960938 C 87.331902 80.932087 87.617187 80.985958 87.617188 80.830078 L 87.617188 80.453125 C 87.467439 80.531435 87.325247 80.588486 87.193359 80.626953 C 87.061471 80.665423 86.935352 80.685547 86.814453 80.685547 C 86.575406 80.685547 86.389701 80.615897 86.257812 80.478516 C 86.164149 80.379919 86.104437 80.00214 86.078125 79.884766 L 87.705078 79.884766 L 87.705078 79.699219 C 87.705078 79.354385 87.619578 79.08202 87.449219 78.882812 C 87.280237 78.683606 87.049861 78.583984 86.755859 78.583984 z M 47.568359 78.638672 L 48.394531 79.744141 L 47.486328 80.947266 L 47.925781 80.947266 L 48.599609 80.021484 L 49.275391 80.947266 L 49.714844 80.947266 L 48.808594 79.744141 L 49.634766 78.638672 L 49.207031 78.638672 L 48.599609 79.474609 L 47.988281 78.638672 L 47.568359 78.638672 z M 40.9375 78.904297 C 41.114725 78.904297 41.24975 78.978577 41.341797 79.126953 C 41.435217 79.273954 41.482422 79.491007 41.482422 79.775391 C 41.482422 80.058402 41.435212 80.274079 41.341797 80.423828 C 41.249747 80.573576 41.115884 80.648437 40.941406 80.648438 C 40.754565 80.648437 40.612589 80.574158 40.513672 80.425781 C 40.416132 80.276033 40.367188 80.059776 40.367188 79.775391 C 40.367188 79.491007 40.416128 79.273954 40.513672 79.126953 C 40.611212 78.978578 40.752032 78.904297 40.9375 78.904297 z M 46.060547 78.904297 C 46.254258 78.904297 46.401084 78.979157 46.5 79.128906 C 46.59892 79.278655 46.648437 79.500921 46.648438 79.794922 C 46.648438 80.08755 46.598918 80.309815 46.5 80.460938 C 46.40108 80.610686 46.254258 80.685547 46.060547 80.685547 C 45.868209 80.685547 45.723917 80.610687 45.625 80.460938 C 45.52608 80.309815 45.476563 80.08755 45.476562 79.794922 C 45.476563 79.500921 45.526082 79.278655 45.625 79.128906 C 45.72392 78.979158 45.868209 78.904297 46.060547 78.904297 z M 63.833984 78.904297 C 64.027696 78.904297 64.172568 78.979157 64.271484 79.128906 C 64.370404 79.278655 64.419922 79.500921 64.419922 79.794922 C 64.419922 80.08755 64.370402 80.309815 64.271484 80.460938 C 64.172564 80.610686 64.027696 80.685547 63.833984 80.685547 C 63.641646 80.685547 63.495401 80.610687 63.396484 80.460938 C 63.297564 80.309815 63.248047 80.08755 63.248047 79.794922 C 63.248047 79.500921 63.297567 79.278655 63.396484 79.128906 C 63.495404 78.979158 63.641646 78.904297 63.833984 78.904297 z M 74.044922 78.904297 C 74.231765 78.904297 74.37374 78.963297 74.472656 79.080078 C 74.572975 79.195481 74.853488 79.587534 74.630859 79.587891 L 73.382812 79.589844 C 73.404792 79.375525 73.475602 79.206834 73.59375 79.085938 C 73.7119 78.965039 73.862202 78.904297 74.044922 78.904297 z M 84.097656 78.904297 C 84.274882 78.904297 84.409906 78.978577 84.501953 79.126953 C 84.595373 79.273954 84.642578 79.491007 84.642578 79.775391 C 84.642578 80.058402 84.595368 80.274079 84.501953 80.423828 C 84.409903 80.573576 84.277994 80.648437 84.103516 80.648438 C 83.916674 80.648437 83.772745 80.574158 83.673828 80.425781 C 83.576288 80.276033 83.527344 80.059776 83.527344 79.775391 C 83.527344 79.491007 83.576284 79.273954 83.673828 79.126953 C 83.771368 78.978578 83.912188 78.904297 84.097656 78.904297 z M 86.738281 78.904297 C 86.925124 78.904297 87.069052 78.963297 87.167969 79.080078 C 87.268287 79.195481 87.320705 79.365329 87.326172 79.587891 L 86.076172 79.589844 C 86.098152 79.375525 86.168962 79.206834 86.287109 79.085938 C 86.405259 78.965039 86.555561 78.904297 86.738281 78.904297 z M 43.013672 79.478516 L 43.505859 79.478516 C 43.736664 79.478516 43.907092 79.524346 44.015625 79.619141 C 44.124159 79.712561 44.177734 79.859967 44.177734 80.060547 C 44.177734 80.254258 44.126484 80.393337 44.023438 80.478516 C 43.9204 80.562326 43.747655 80.605469 43.505859 80.605469 L 43.013672 80.605469 L 43.013672 79.478516 z M 81.65625 79.787109 L 81.783203 79.787109 L 82.136719 79.787109 L 82.136719 79.871094 C 82.135319 80.126628 82.074599 80.327029 81.955078 80.472656 C 81.835555 80.616908 81.671715 80.689453 81.462891 80.689453 C 81.314519 80.689453 81.199042 80.651153 81.115234 80.574219 C 81.031424 80.497279 80.988281 80.388757 80.988281 80.25 C 80.988281 80.096133 81.044971 79.981235 81.15625 79.904297 C 81.268905 79.825987 81.435062 79.787109 81.65625 79.787109 z M 86.0625 79.884766 L 86.066406 79.884766 C 86.065506 79.893429 86.0625 79.875533 86.0625 79.896484 L 86.0625 79.884766 z M 88.958984 80.318359 L 88.958984 80.947266 L 89.478516 80.947266 L 89.478516 80.318359 L 88.958984 80.318359 z M 36.404297 83.015625 L 36.404297 84.208984 C 36.343847 84.094944 36.260082 84.008289 36.154297 83.949219 C 36.048511 83.888749 35.92782 83.859375 35.789062 83.859375 C 35.511547 83.859365 35.291599 83.965368 35.130859 84.179688 C 34.97012 84.392628 34.890625 84.68745 34.890625 85.0625 C 34.890625 85.44305 34.969545 85.741924 35.128906 85.958984 C 35.289646 86.174684 35.510174 86.283203 35.789062 86.283203 C 35.926445 86.283203 36.045977 86.252429 36.150391 86.193359 C 36.256173 86.132909 36.341097 86.045671 36.404297 85.931641 L 36.404297 86.222656 L 36.783203 86.222656 L 36.783203 83.015625 L 36.404297 83.015625 z M 43.988281 83.015625 C 43.742364 83.015635 43.560135 83.075793 43.443359 83.195312 C 43.327957 83.314832 43.271484 83.501116 43.271484 83.753906 L 43.271484 83.914062 L 42.654297 83.914062 L 42.654297 84.208984 L 43.271484 84.208984 L 43.271484 86.222656 L 43.650391 86.222656 L 43.650391 84.208984 L 44.443359 84.208984 L 44.443359 83.914062 L 43.650391 83.914062 L 43.650391 83.710938 C 43.650391 83.569407 43.676306 83.470946 43.728516 83.416016 C 43.782096 83.359676 43.985103 83.199056 44.013672 83.332031 L 44.443359 83.332031 L 44.443359 83.015625 L 43.988281 83.015625 z M 82.306641 83.087891 L 80.613281 83.46875 L 79.667969 87.507812 L 79.832031 88.236328 L 80.103516 88.78125 C 78.799558 89.514189 77.644606 90.51402 76.738281 91.693359 L 76.136719 91.183594 L 75.464844 90.855469 L 71.333984 90.875 L 70.570312 92.439453 L 73.134766 95.697266 L 73.826172 96.023438 L 74.681641 96.205078 C 74.539235 96.911998 74.462891 97.639802 74.462891 98.388672 C 74.462891 99.13175 74.541378 99.852865 74.681641 100.55469 L 73.826172 100.73633 L 73.134766 101.06445 L 70.570312 104.32031 L 71.333984 105.9043 L 75.464844 105.9043 L 76.136719 105.57617 L 76.738281 105.08594 C 77.644606 106.26528 78.799558 107.24558 80.103516 107.97852 L 79.832031 108.52344 L 79.667969 109.25195 L 80.613281 113.29102 L 82.306641 113.69141 L 84.908203 110.45312 L 85.072266 109.72461 L 85.072266 109.39648 C 85.209347 109.40148 85.33434 109.39648 85.472656 109.39648 C 86.942017 109.39648 88.339372 109.10023 89.621094 108.57812 L 89.675781 108.66992 L 90.128906 109.25195 L 93.878906 111.05273 L 95.242188 109.94336 L 94.332031 105.9043 L 93.951172 105.43164 C 94.987969 104.18637 95.743951 102.70229 96.152344 101.08203 L 96.662109 101.06445 L 100.39258 99.261719 L 100.39258 97.515625 L 96.662109 95.697266 L 96.152344 95.697266 C 95.74485 94.07152 94.990955 92.596515 93.951172 91.347656 L 94.332031 90.855469 L 95.242188 86.835938 L 93.878906 85.724609 L 90.128906 87.507812 L 89.675781 88.089844 L 89.638672 88.181641 C 88.352947 87.655699 86.947675 87.363281 85.472656 87.363281 C 85.33434 87.363281 85.209347 87.375809 85.072266 87.380859 L 85.072266 87.052734 L 84.908203 86.326172 L 82.306641 83.087891 z M 29.964844 83.146484 L 29.964844 86.222656 L 31.830078 86.222656 L 31.830078 85.873047 L 30.380859 85.873047 L 30.380859 84.757812 L 31.728516 84.757812 L 31.728516 84.408203 L 30.380859 84.408203 L 30.380859 83.496094 L 31.791016 83.496094 L 31.791016 83.146484 L 29.964844 83.146484 z M 40.128906 83.146484 L 40.128906 83.496094 L 40.773438 83.496094 L 40.773438 85.873047 L 40.128906 85.873047 L 40.128906 86.222656 L 41.835938 86.222656 L 41.835938 85.873047 L 41.191406 85.873047 L 41.191406 83.496094 L 41.835938 83.496094 L 41.835938 83.146484 L 40.128906 83.146484 z M 33.5625 83.859375 C 33.404508 83.859375 33.267746 83.894201 33.152344 83.962891 C 33.036939 84.030211 32.946222 84.129829 32.878906 84.261719 L 32.878906 83.914062 L 32.5 83.914062 L 32.5 86.222656 L 32.878906 86.222656 L 32.878906 84.917969 C 32.878906 84.683039 32.926696 84.503926 33.021484 84.378906 C 33.117654 84.252506 33.254417 84.189453 33.431641 84.189453 C 33.586885 84.189453 33.700625 84.238387 33.773438 84.335938 C 33.846247 84.433477 33.882812 84.585519 33.882812 84.792969 L 33.882812 86.222656 L 34.263672 86.222656 L 34.263672 84.792969 C 34.263672 84.479729 34.204672 84.245657 34.087891 84.091797 C 33.972488 83.936547 33.797426 83.859375 33.5625 83.859375 z M 35.84375 84.179688 C 36.026474 84.179688 36.164974 84.257083 36.259766 84.408203 C 36.355936 84.557953 36.404297 84.777682 36.404297 85.070312 C 36.404297 85.361572 36.355937 85.583245 36.259766 85.734375 C 36.164966 85.885495 36.02647 85.960938 35.84375 85.960938 C 35.661027 85.960938 35.523107 85.886068 35.429688 85.736328 C 35.336267 85.586578 35.289062 85.364312 35.289062 85.070312 C 35.289062 84.776313 35.336272 84.554037 35.429688 84.404297 C 35.523108 84.254547 35.661029 84.179687 35.84375 84.179688 z M 85.472656 91.765625 C 89.122947 91.765625 92.095703 94.73838 92.095703 98.388672 C 92.095703 102.03896 89.122947 104.99414 85.472656 104.99414 C 81.822364 104.99414 78.867187 102.03896 78.867188 98.388672 C 78.867188 94.73838 81.822364 91.765625 85.472656 91.765625 z " style="fill:#aaaaaa"/>
</svg>