<?xml version="1.0" encoding="UTF-8" standalone="no"?>
<svg xmlns:dc="http://purl.org/dc/elements/1.1/"
     xmlns:cc="http://creativecommons.org/ns#"
     xmlns:rdf="http://www.w3.org/1999/02/22-rdf-syntax-ns#"
     xmlns:svg="http://www.w3.org/2000/svg"
     xmlns="http://www.w3.org/2000/svg"
     xmlns:xlink="http://www.w3.org/1999/xlink"
     width="128" height="128" version="1.1">
    <title>Libre Office Calc</title>
    <desc>This is shape (source) for Clarity vector icon theme for gtk</desc>
    <metadata>
        <rdf:RDF>
            <cc:Work rdf:about="">
                <dc:title>Libre Office Calc</dc:title>
                <dc:description>This is shape (source) for Clarity vector icon theme for gtk</dc:description>
                <dc:creator>
                    <cc:Agent>
                        <dc:title>Jakub Jankiewicz</dc:title>
                    </cc:Agent>
                </dc:creator>
                <dc:rights>
                    <cc:Agent>
                        <dc:title>Jakub Jankiewicz</dc:title>
                    </cc:Agent>
                </dc:rights>
                <dc:date>2010</dc:date>
                <dc:format>image/svg+xml</dc:format>
                <dc:type rdf:resource="http://purl.org/dc/dcmitype/StillImage" />
                <cc:license rdf:resource="http://www.gnu.org/copyleft/gpl.html" />
             </cc:Work>
        </rdf:RDF>
    </metadata>
    <path d="M 25.15625 7.84375 C 21.934691 7.84375 19.28125 10.528441 19.28125 13.75 L 19.28125 114.28125 C 19.28125 117.50281 21.919281 120.15625 25.15625 120.15625 L 102.8125 120.15625 C 106.04947 120.15625 108.71875 117.51822 108.71875 114.28125 L 108.71875 49.78125 L 108.71875 48.96875 L 108.125 48.375 L 68.25 8.4375 L 67.65625 7.84375 L 66.8125 7.84375 L 25.15625 7.84375 z M 104.375 8.28125 C 102.51902 8.28125 86.191384 8.4375 82.96875 8.4375 C 79.746122 8.4375 78.749033 10.806914 80.6875 13.1875 C 82.625964 15.568085 102.51936 35.042857 103.625 36.3125 C 105.10448 38.011404 108.3125 37.807027 108.3125 33.875 L 108.3125 12.21875 C 108.3125 10.333734 106.84395 8.28125 104.375 8.28125 z M 25.15625 11.84375 L 65.96875 11.84375 L 104.71875 50.59375 L 104.71875 114.28125 C 104.71875 115.34686 103.87809 116.15625 102.8125 116.15625 L 25.15625 116.15625 C 24.090645 116.15625 23.28125 115.36227 23.28125 114.28125 L 23.28125 13.75 C 23.28125 12.668987 24.075235 11.84375 25.15625 11.84375 z M 36.3125 55.96875 C 36.033614 56.05559 35.832182 56.364385 35.84375 56.65625 L 35.84375 100.4375 C 35.84575 100.78562 36.151872 101.09181 36.5 101.09375 L 49.8125 101.09375 C 50.045498 101.33457 50.485752 101.33457 50.71875 101.09375 L 63.53125 101.09375 C 63.765644 101.35947 64.234356 101.35947 64.46875 101.09375 L 77.3125 101.09375 C 77.545498 101.33457 77.985753 101.33457 78.21875 101.09375 L 91.5 101.09375 C 91.848128 101.09175 92.154302 100.78562 92.15625 100.4375 L 92.15625 56.65625 C 92.15425 56.308122 91.848128 55.970698 91.5 55.96875 L 36.5 55.96875 C 36.46093 55.96535 36.414071 55.96535 36.375 55.96875 C 36.34892 55.96725 36.33858 55.96725 36.3125 55.96875 z M 37.15625 66 L 49.625 66 L 49.625 73.53125 L 37.15625 73.53125 L 37.15625 66 z M 50.875 66 L 63.375 66 L 63.375 73.53125 L 50.875 73.53125 L 50.875 66 z M 64.625 66 L 77.125 66 L 77.125 73.53125 L 64.625 73.53125 L 64.625 66 z M 78.375 66 L 90.78125 66 L 90.78125 73.53125 L 78.375 73.53125 L 78.375 66 z M 37.15625 74.78125 L 49.625 74.78125 L 49.625 82.3125 L 37.15625 82.3125 L 37.15625 74.78125 z M 50.875 74.78125 L 63.375 74.78125 L 63.375 82.3125 L 50.875 82.3125 L 50.875 74.78125 z M 64.625 74.78125 L 77.125 74.78125 L 77.125 82.3125 L 64.625 82.3125 L 64.625 74.78125 z M 78.375 74.78125 L 90.78125 74.78125 L 90.78125 82.3125 L 78.375 82.3125 L 78.375 74.78125 z M 37.15625 83.5625 L 49.625 83.5625 L 49.625 91.09375 L 37.15625 91.09375 L 37.15625 83.5625 z M 50.875 83.5625 L 63.375 83.5625 L 63.375 91.09375 L 50.875 91.09375 L 50.875 83.5625 z M 64.625 83.5625 L 77.125 83.5625 L 77.125 91.09375 L 64.625 91.09375 L 64.625 83.5625 z M 78.375 83.5625 L 90.78125 83.5625 L 90.78125 91.09375 L 78.375 91.09375 L 78.375 83.5625 z M 37.15625 92.34375 L 49.625 92.34375 L 49.625 99.78125 L 37.15625 99.78125 L 37.15625 92.34375 z M 50.875 92.34375 L 63.375 92.34375 L 63.375 99.78125 L 50.875 99.78125 L 50.875 92.34375 z M 64.625 92.34375 L 77.125 92.34375 L 77.125 99.78125 L 64.625 99.78125 L 64.625 92.34375 z M 78.375 92.34375 L 90.78125 92.34375 L 90.78125 99.78125 L 78.375 99.78125 L 78.375 92.34375 z " style="fill:#aaaaaa"/>
</svg>