<?xml version="1.0" encoding="UTF-8" standalone="no"?>
<svg xmlns:dc="http://purl.org/dc/elements/1.1/"
     xmlns:cc="http://creativecommons.org/ns#"
     xmlns:rdf="http://www.w3.org/1999/02/22-rdf-syntax-ns#"
     xmlns:svg="http://www.w3.org/2000/svg"
     xmlns="http://www.w3.org/2000/svg"
     xmlns:xlink="http://www.w3.org/1999/xlink"
     width="128" height="128" version="1.1">
    <title>Libreoffice Extension Icon</title>
    <desc>This is shape (source) for Clarity vector icon theme for gtk</desc>
    <metadata>
        <rdf:RDF>
            <cc:Work rdf:about="">
                <dc:title>Libreoffice Extension File Icon</dc:title>
                <dc:description>This is shape (source) for Clarity vector icon theme for gtk</dc:description>
                <dc:creator>
                    <cc:Agent>
                        <dc:title>Jakub Jankiewicz</dc:title>
                    </cc:Agent>
                </dc:creator>
                <dc:rights>
                    <cc:Agent>
                        <dc:title>Jakub Jankiewicz</dc:title>
                    </cc:Agent>
                </dc:rights>
                <dc:date>2010</dc:date>
                <dc:format>image/svg+xml</dc:format>
                <dc:type rdf:resource="http://purl.org/dc/dcmitype/StillImage" />
                <cc:license rdf:resource="http://creativecommons.org/licenses/by-sa/3.0/" />
             </cc:Work>
        </rdf:RDF>
    </metadata>
    <path d="m 25.15625,7.84375 c -3.221559,0 -5.875,2.684691 -5.875,5.90625 v 100.53125 c 0,3.22156 2.638031,5.875 5.875,5.875 h 77.65625 c 3.23697,0 5.90625,-2.63803 5.90625,-5.875 v -64.5 -0.8125 L 108.125,48.375 68.25,8.4375 67.65625,7.84375 H 66.8125 Z m 79.21875,0.4375 c -1.85598,0 -18.183616,0.15625 -21.40625,0.15625 -3.222628,0 -4.219717,2.369414 -2.28125,4.75 1.938464,2.380585 21.83186,21.855357 22.9375,23.125 1.47948,1.698904 4.6875,1.494527 4.6875,-2.4375 V 12.21875 c 0,-1.885016 -1.46855,-3.9375 -3.9375,-3.9375 z m -79.21875,3.5625 h 40.8125 l 38.75,38.75 v 63.6875 c 0,1.06561 -0.84066,1.875 -1.90625,1.875 H 25.15625 c -1.065605,0 -1.875,-0.79398 -1.875,-1.875 V 13.75 c 0,-1.081013 0.793985,-1.90625 1.875,-1.90625 z m 53.605469,38.196935 c -1.22416,-0.07979 -2.299366,0.133017 -3.144531,0.478516 -1.756278,0.717955 -3.281196,2.426692 -2.671876,5.113281 0.55739,2.45762 0.747301,3.180537 -0.615234,4.02539 -1.296158,0.803693 -2.389811,0.398152 -3.207031,-0.384765 l -7.230469,-6.927735 -20.9375,20.9375 6.929688,7.230469 c 0.782916,0.817222 1.186506,1.910874 0.382812,3.207031 -0.844851,1.362535 -1.577536,1.182389 -4.035156,0.625 -2.68659,-0.60932 -4.383607,0.905833 -5.101563,2.66211 -0.921329,2.253774 -0.902908,6.138101 3.105469,10.146481 4.008377,4.008367 7.892711,4.026787 10.146484,3.105467 1.756277,-0.717957 3.27143,-2.416917 2.66211,-5.103511 -0.557389,-2.457622 -0.737534,-3.188352 0.625,-4.033203 1.296158,-0.803694 2.38981,-0.400103 3.207031,0.382813 l 7.230469,6.929684 20.9375,-20.937497 -6.929688,-7.230469 c -0.782914,-0.817222 -1.186505,-1.910874 -0.382812,-3.207031 0.844852,-1.362535 1.565821,-1.172624 4.023437,-0.615234 2.686591,0.609321 4.39533,-0.917551 5.113282,-2.673828 0.921336,-2.253774 0.902912,-6.136155 -3.105469,-10.144532 -2.505236,-2.505235 -4.961688,-3.452959 -7.001953,-3.585937 z" style="fill:#aaaaaa"/>
</svg>