<?xml version="1.0" encoding="UTF-8" standalone="no"?>
<svg xmlns:dc="http://purl.org/dc/elements/1.1/"
     xmlns:cc="http://creativecommons.org/ns#"
     xmlns:rdf="http://www.w3.org/1999/02/22-rdf-syntax-ns#"
     xmlns:svg="http://www.w3.org/2000/svg"
     xmlns="http://www.w3.org/2000/svg"
     xmlns:xlink="http://www.w3.org/1999/xlink"
     width="128" height="128" version="1.1">
    <title>Clarity Icon</title>
    <desc>This is shape (source) for Clarity vector icon theme for gtk</desc>
    <metadata>
        <rdf:RDF>
            <cc:Work rdf:about="">
                <dc:title>Clarity Icon</dc:title>
                <dc:description>This is shape (source) for Clarity vector icon theme for gtk</dc:description>
                <dc:creator>
                    <cc:Agent>
                        <dc:title>Jakub Jankiewicz</dc:title>
                    </cc:Agent>
                </dc:creator>
                <dc:rights>
                    <cc:Agent>
                        <dc:title>Jakub Jankiewicz</dc:title>
                    </cc:Agent>
                </dc:rights>
                <dc:date>2010</dc:date>
                <dc:format>image/svg+xml</dc:format>
                <dc:type rdf:resource="http://purl.org/dc/dcmitype/StillImage" />
                <cc:license rdf:resource="http://www.gnu.org/copyleft/gpl.html" />
             </cc:Work>
        </rdf:RDF>
    </metadata>
    <path d="m 15.252116,15.252117 0,19.482571 a 77.987992,77.987992 0 0 1 78.013191,78.013192 l 19.482573,0 A 97.48499,97.48499 0 0 0 15.252116,15.252117 z m 0,32.830205 0,18.985144 a 45.678682,45.678682 0 0 1 45.680412,45.680414 l 18.902239,0 A 64.618623,64.618623 0 0 0 15.252116,48.082322 z M 28.59975,85.969705 c -7.383699,0 -13.347634,5.963937 -13.347634,13.347638 0,7.383697 5.963935,13.430537 13.347634,13.430537 7.383701,0 13.430539,-6.04684 13.430539,-13.430537 0,-7.383701 -6.046838,-13.347638 -13.430539,-13.347638 z" style="fill:#aaaaaa"/>
</svg>