<?xml version="1.0" encoding="UTF-8" standalone="no"?>
<svg xmlns:dc="http://purl.org/dc/elements/1.1/"
     xmlns:cc="http://creativecommons.org/ns#"
     xmlns:rdf="http://www.w3.org/1999/02/22-rdf-syntax-ns#"
     xmlns:svg="http://www.w3.org/2000/svg"
     xmlns="http://www.w3.org/2000/svg"
     xmlns:xlink="http://www.w3.org/1999/xlink"
     width="128" height="128" version="1.1">
    <title>Login Settings Icon</title>
    <desc>This is shape (source) for Clarity vector icon theme for gtk</desc>
    <metadata>
        <rdf:RDF>
            <cc:Work rdf:about="">
                <dc:title>Login Settings Icon</dc:title>
                <dc:description>This is shape (source) for Clarity vector icon theme for gtk</dc:description>
                <dc:creator>
                    <cc:Agent>
                        <dc:title>Jakub Jankiewicz</dc:title>
                    </cc:Agent>
                </dc:creator>
                <dc:rights>
                    <cc:Agent>
                        <dc:title>Jakub Jankiewicz</dc:title>
                    </cc:Agent>
                </dc:rights>
                <dc:date>2010</dc:date>
                <dc:format>image/svg+xml</dc:format>
                <dc:type rdf:resource="http://purl.org/dc/dcmitype/StillImage" />
                <cc:license rdf:resource="http://creativecommons.org/licenses/by-sa/3.0/" />
             </cc:Work>
        </rdf:RDF>
    </metadata>
    <path d="M 23.1875 33.25 C 21.68716 33.25 20.46875 34.437159 20.46875 35.9375 L 20.46875 44.1875 L 107.53125 44.1875 L 107.53125 35.9375 C 107.53125 34.437159 106.31284 33.25 104.8125 33.25 L 23.1875 33.25 z M 20.46875 48.125 L 20.46875 92.0625 C 20.46875 93.562841 21.68716 94.75 23.1875 94.75 L 76.441406 94.75 L 77.294922 94.154297 C 77.566394 93.964768 77.873289 93.831913 78.197266 93.763672 L 78.505859 93.699219 C 78.634262 92.861036 78.801444 92.041952 79.023438 91.238281 L 78.742188 91.052734 C 78.470748 90.874955 78.237106 90.645297 78.054688 90.376953 L 74.966797 85.832031 C 74.430629 85.042622 74.398668 84.014548 74.884766 83.193359 L 76.238281 80.904297 C 76.724224 80.083584 77.640298 79.617177 78.589844 79.707031 L 84.070312 80.228516 C 84.400903 80.259656 84.721785 80.357314 85.013672 80.515625 L 85.533203 80.798828 C 86.101728 80.290297 86.697282 79.816486 87.322266 79.367188 L 87.132812 78.728516 C 87.041332 78.420981 87.010805 78.098535 87.042969 77.779297 L 87.351562 74.75 L 32.75 74.75 C 31.537688 74.75 30.5625 73.774812 30.5625 72.5625 L 30.5625 65 C 30.5625 63.787688 31.537688 62.8125 32.75 62.8125 L 88.53125 62.8125 C 89.743562 62.8125 90.71875 63.787688 90.71875 65 L 90.71875 69.722656 L 91.710938 69.365234 C 92.619698 69.037422 93.636193 69.271114 94.310547 69.962891 L 98.162109 73.917969 C 98.387673 74.149274 98.565529 74.422695 98.685547 74.722656 L 98.960938 75.412109 C 99.227379 75.403809 99.496123 75.359375 99.763672 75.359375 C 100.23101 75.359375 100.66829 75.446105 101.12695 75.476562 L 101.46289 74.712891 C 101.59161 74.42036 101.77603 74.155674 102.00586 73.933594 L 105.96094 70.117188 C 106.38518 69.707398 106.94238 69.463448 107.53125 69.429688 L 107.53125 48.125 L 20.46875 48.125 z M 33.90625 64.875 L 33.90625 72.625 L 38.1875 72.625 L 38.1875 64.875 L 33.90625 64.875 z M 92.544922 71.681641 L 90.046875 72.583984 L 89.492188 78.029297 L 89.873047 79.314453 L 90.394531 80.25 C 88.646442 81.23398 87.096322 82.500361 85.744141 83.962891 L 84.982422 83.302734 L 83.835938 82.679688 L 78.355469 82.158203 L 77.001953 84.447266 L 80.089844 88.992188 L 81.201172 89.720703 L 81.962891 89.998047 C 81.236299 91.854047 80.790326 93.845691 80.679688 95.931641 L 80.021484 95.896484 L 78.703125 96.173828 L 74.226562 99.296875 L 74.642578 101.89844 L 79.916016 103.42578 L 81.234375 103.25195 L 81.650391 103.07812 C 82.32495 105.06258 83.35136 106.89429 84.599609 108.52539 L 84.287109 108.73242 L 83.525391 109.77344 L 82.033203 115.08203 L 84.044922 116.81641 L 89.076172 114.56055 L 89.976562 113.625 L 90.082031 113.41602 C 91.855687 114.46008 93.82992 115.24362 95.910156 115.67188 L 95.839844 115.81055 L 95.910156 117.12891 L 98.164062 122.125 L 100.83594 122.1582 L 103.23047 117.23242 L 103.30078 115.91406 L 103.30078 115.74023 C 105.39207 115.35215 107.33625 114.63408 109.12891 113.625 L 109.26758 113.83203 L 110.13672 114.76953 L 115.09766 117.16406 L 117.14453 115.46289 L 115.79102 110.15625 L 115.02734 109.11523 L 114.71484 108.83789 C 115.99219 107.24072 117.01816 105.45022 117.73438 103.49414 L 118.25391 103.66797 L 119.53711 103.87695 L 124.8457 102.48828 L 125.33203 99.886719 L 120.89062 96.660156 L 119.64258 96.347656 L 118.87891 96.347656 C 118.81611 94.267296 118.44362 92.278056 117.76758 90.416016 L 118.60156 90.138672 L 119.71094 89.443359 L 122.90234 84.96875 L 121.58398 82.679688 L 116.10352 83.060547 L 114.92383 83.650391 L 114.125 84.308594 C 112.80769 82.808614 111.30391 81.522721 109.58008 80.494141 L 110.16992 79.521484 L 110.58594 78.306641 L 110.13672 72.826172 L 107.67188 71.888672 L 103.7168 75.705078 L 103.19727 76.884766 L 102.98828 78.099609 C 101.94315 77.922699 100.85916 77.822266 99.763672 77.822266 C 98.844192 77.822266 97.976637 77.870564 97.091797 77.996094 L 96.882812 76.849609 L 96.398438 75.636719 L 92.544922 71.681641 z M 99.761719 84.066406 C 106.87281 84.066406 112.66602 89.8264 112.66602 96.9375 C 112.66602 104.0486 106.87281 109.80859 99.761719 109.80859 C 92.650624 109.80859 86.890625 104.0486 86.890625 96.9375 C 86.890625 89.8264 92.650624 84.066406 99.761719 84.066406 z" style="fill:#aaaaaa"/>
</svg>