<?xml version="1.0" encoding="UTF-8" standalone="no"?>
<svg xmlns:dc="http://purl.org/dc/elements/1.1/"
     xmlns:cc="http://creativecommons.org/ns#"
     xmlns:rdf="http://www.w3.org/1999/02/22-rdf-syntax-ns#"
     xmlns:svg="http://www.w3.org/2000/svg"
     xmlns="http://www.w3.org/2000/svg"
     xmlns:xlink="http://www.w3.org/1999/xlink"
     width="128" height="128" version="1.1">
    <title>Limewire Icon</title>
    <desc>This is shape (source) for Clarity vector icon theme for gtk</desc>
    <metadata>
        <rdf:RDF>
            <cc:Work rdf:about="">
                <dc:title>Limewire Icon</dc:title>
                <dc:description>This is shape (source) for Clarity vector icon theme for gtk</dc:description>
                <dc:creator>
                    <cc:Agent>
                        <dc:title>Jakub Jankiewicz</dc:title>
                    </cc:Agent>
                </dc:creator>
                <dc:rights>
                    <cc:Agent>
                        <dc:title>Jakub Jankiewicz</dc:title>
                    </cc:Agent>
                </dc:rights>
                <dc:date>2010</dc:date>
                <dc:format>image/svg+xml</dc:format>
                <dc:type rdf:resource="http://purl.org/dc/dcmitype/StillImage" />
                <cc:license rdf:resource="http://www.gnu.org/copyleft/gpl.html" />
             </cc:Work>
        </rdf:RDF>
    </metadata>
    <path d="m 63.999999,7.3357307 c -31.282406,0 -56.6642694,25.3818633 -56.6642694,56.6642703 0,31.282408 25.3818634,56.664279 56.6642694,56.664269 31.282407,0 56.664281,-25.381861 56.664271,-56.664269 0,-31.282407 -25.381867,-56.6642703 -56.664271,-56.6642703 z m -0.148718,2.7514133 c 6.64786,0 10.829984,0.871151 13.385262,2.528329 1.277635,0.828588 2.128017,1.921626 2.528327,3.123226 0.400307,1.2016 0.325106,2.43046 0,3.643765 -0.71259,2.659416 -3.271669,12.63834 -6.915718,23.870383 1.159413,-2.169746 2.294857,-4.295543 3.420678,-6.320816 2.283259,-4.107426 4.434808,-7.792201 6.172092,-10.633847 1.737283,-2.841649 2.881121,-4.665823 3.792491,-5.577194 0.605594,-0.605591 1.291672,-1.289107 2.156513,-1.7847 0.864843,-0.495594 1.96447,-0.738794 3.19759,-0.520538 2.46624,0.436513 5.354145,2.379649 10.038944,7.064442 4.70073,4.700739 7.0243,8.250097 7.65935,11.228746 0.31752,1.489329 0.19479,2.882859 -0.37182,4.015581 -0.5666,1.132721 -1.51486,1.974634 -2.60269,2.602688 -2.3957,1.383164 -11.346388,6.591813 -21.936953,11.972373 2.386412,-0.725917 4.730635,-1.437213 6.990081,-2.082153 4.518895,-1.289877 8.660222,-2.342325 11.898012,-3.123227 3.23779,-0.780902 5.40377,-1.264164 6.69263,-1.264164 0.85644,0 1.71507,-0.03799 2.67706,0.223078 0.96197,0.261098 1.95943,0.832784 2.67704,1.859064 1.43524,2.052558 2.08216,5.495795 2.08216,12.121098 0,6.64785 -0.87115,10.829988 -2.52834,13.38526 -0.82859,1.277637 -1.92161,2.128019 -3.12321,2.528329 -1.2016,0.400307 -2.43048,0.325106 -3.64377,0 -2.59943,-0.696512 -12.208242,-3.125153 -23.126763,-6.618269 1.877595,1.008501 3.740124,1.99464 5.50283,2.974501 4.107427,2.283261 7.7922,4.434808 10.633843,6.172095 2.84165,1.737285 4.74019,2.955474 5.65156,3.866851 0.60559,0.605592 1.28911,1.217312 1.78471,2.082152 0.49559,0.864844 0.73878,2.038832 0.52053,3.271952 -0.43652,2.466242 -2.45402,5.354148 -7.13881,10.038941 -4.700746,4.70074 -8.250095,7.02429 -11.228745,7.65934 -1.489325,0.31754 -2.808496,0.12045 -3.941214,-0.44616 -1.132719,-0.5666 -2.048998,-1.51487 -2.677053,-2.6027 -1.201438,-2.08094 -5.307051,-9.119083 -9.89022,-17.847009 2.939979,9.448097 5.02878,17.381849 5.651553,19.706079 0.325106,1.21331 0.325946,2.51653 -0.07436,3.71813 -0.40031,1.2016 -1.250689,2.22027 -2.528326,3.04886 -2.555278,1.65717 -6.663039,2.52833 -13.310898,2.52833 -6.625292,0 -10.068543,-0.57256 -12.121098,-2.0078 -1.026277,-0.71761 -1.672327,-1.71507 -1.933426,-2.67705 -0.261102,-0.96197 -0.223077,-1.89497 -0.223077,-2.75141 0,-1.28887 0.483261,-3.45483 1.264162,-6.69263 0.780902,-3.237792 1.907713,-7.379112 3.19759,-11.898008 0.64494,-2.259447 1.363206,-4.603671 2.082152,-6.990081 -5.369663,10.563964 -10.591844,19.471459 -11.972371,21.862589 -0.628046,1.08783 -1.469972,2.0361 -2.60269,2.6027 -1.132719,0.5666 -2.52625,0.68933 -4.015579,0.3718 -2.97867,-0.63503 -6.528035,-2.95859 -11.228767,-7.65933 -4.684799,-4.684792 -6.627926,-7.572702 -7.064443,-10.038942 -0.218258,-1.233123 0.02494,-2.332744 0.520538,-3.197591 0.495593,-0.864843 1.179106,-1.550919 1.784702,-2.156513 0.911368,-0.911368 2.735543,-2.055208 5.577192,-3.792491 2.841648,-1.737282 6.526425,-3.888832 10.633846,-6.172094 1.837973,-1.0217 3.764738,-2.071383 5.725917,-3.123226 -11.014601,3.55403 -20.732124,6.065575 -23.349843,6.766995 -1.213313,0.325102 -2.442166,0.400307 -3.643767,0 -1.2016,-0.400311 -2.294641,-1.325054 -3.123227,-2.602692 -1.657172,-2.555274 -2.528327,-6.663047 -2.528327,-13.310897 0,-6.625303 0.64692,-10.06854 2.082151,-12.121098 0.717617,-1.026281 1.71508,-1.672328 2.677053,-1.933427 0.961973,-0.261098 1.894977,-0.223077 2.751414,-0.223077 1.28887,0 3.380473,0.483261 6.618268,1.264162 3.237797,0.780904 7.379115,1.907712 11.898012,3.19759 3.35728,0.958307 6.916499,2.091768 10.48512,3.197592 -3.290121,-1.72893 -6.552746,-3.515483 -9.592771,-5.205389 C 33.716958,48.926383 29.957819,46.77483 27.11617,45.037548 24.274522,43.300265 22.450344,42.156416 21.538978,41.245057 20.933384,40.639463 20.24987,39.953387 19.754277,39.088544 19.258683,38.2237 19.01548,37.124076 19.233739,35.890953 c 0.436516,-2.466242 2.37964,-5.35415 7.064443,-10.038946 4.700727,-4.700739 8.250097,-7.024291 11.228748,-7.659343 1.489325,-0.317526 2.882859,-0.120412 4.015577,0.446174 1.13272,0.5666 1.974642,1.440504 2.602692,2.528329 1.369812,2.372572 6.550987,11.183351 11.898006,21.639505 -0.692832,-2.283561 -1.389933,-4.528072 -2.007787,-6.692632 -1.28988,-4.518893 -2.342327,-8.585853 -3.12323,-11.823647 -0.7809,-3.23779 -1.264161,-5.403762 -1.264161,-6.69263 0,-0.856441 -0.03799,-1.789439 0.223077,-2.751415 0.261098,-0.961974 0.832784,-1.959433 1.859062,-2.677052 2.052556,-1.435237 5.495805,-2.082152 12.121097,-2.082152 z m 0,2.379604 c -6.452361,0 -9.496388,0.788619 -10.708208,1.635976 -0.605911,0.423677 -0.821023,0.801758 -0.966712,1.338526 -0.145679,0.536766 -0.148719,1.298907 -0.148719,2.156513 0,0.470845 0.420154,2.906597 1.189801,6.097731 0.769649,3.191133 1.84045,7.329629 3.123229,11.823646 2.259516,7.915886 5.178782,16.656133 7.882429,24.09347 C 70.93475,43.263402 76.367009,22.865251 77.459622,18.787564 77.698797,17.89493 77.752863,17.139332 77.533981,16.482325 77.315104,15.825321 76.8179,15.219843 75.898007,14.623261 74.058214,13.430099 70.281099,12.466748 63.851271,12.466748 z M 38.7911,20.423542 c -0.231937,0.01391 -0.475548,0.01725 -0.743624,0.07436 -2.144619,0.457235 -5.492392,2.517875 -10.038947,7.064444 -4.562523,4.562516 -6.211825,7.318723 -6.469543,8.774784 -0.128858,0.728028 0.02092,1.153409 0.29745,1.635974 0.276532,0.482566 0.732107,0.955197 1.338526,1.561614 0.332947,0.332946 2.404682,1.782794 5.205381,3.495042 2.800697,1.712248 6.474674,3.82704 10.559482,6.097729 7.197933,4.001232 15.433648,8.178519 22.606217,11.526196 C 54.730587,44.355411 44.172415,26.010487 42.063046,22.356968 41.600991,21.556655 41.120773,21.030792 40.50143,20.72099 40.036925,20.48864 39.486906,20.381525 38.791091,20.423542 z m 51.45889,0.297448 c -0.25767,0.05592 -0.502343,0.159176 -0.743626,0.297452 -0.482566,0.276532 -0.955192,0.732107 -1.561613,1.338526 -0.332939,0.332938 -1.782794,2.404682 -3.495039,5.205378 -1.712248,2.800696 -3.827043,6.474673 -6.097732,10.559485 -4.001229,7.197933 -8.178507,15.433642 -11.526196,22.606218 16.298278,-6.815452 34.643196,-17.373626 38.296716,-19.482992 0.80032,-0.46206 1.32618,-1.016632 1.63598,-1.635975 0.3098,-0.619346 0.4517,-1.307291 0.22308,-2.379602 -0.45724,-2.144623 -2.51789,-5.492378 -7.064447,-10.038948 -4.562522,-4.562511 -7.318729,-6.211827 -8.774782,-6.469542 -0.364013,-0.06442 -0.634681,-0.05589 -0.892352,0 z M 17.22595,51.135277 c -0.364832,0.01906 -0.698332,0.07587 -0.966714,0.148719 -0.536762,0.145678 -0.914849,0.360802 -1.338526,0.966712 -0.847354,1.21182 -1.635976,4.330202 -1.635976,10.782572 0,6.429822 0.963356,10.206946 2.156514,12.046735 0.59658,0.919895 1.202058,1.342737 1.859064,1.561613 0.657006,0.218878 1.412595,0.239175 2.305239,0 4.084976,-1.094564 24.535959,-6.582311 40.899409,-13.31089 -7.448652,-2.710374 -16.229869,-5.61661 -24.167831,-7.882431 -4.49402,-1.282779 -8.632513,-2.353579 -11.823649,-3.123227 -3.191135,-0.769649 -5.626877,-1.189803 -6.09773,-1.189803 -0.428801,0 -0.824968,-0.01906 -1.1898,0 z m 92.73011,0.07436 c -0.47084,0 -2.98096,0.42015 -6.17209,1.189799 -3.19113,0.769651 -7.255269,1.840451 -11.749288,3.123227 -7.896474,2.253981 -16.666164,5.184694 -24.093466,7.882433 16.339901,6.700723 36.677674,12.219541 40.750684,13.310898 0.89263,0.239175 1.64824,0.218879 2.30524,0 0.65701,-0.218879 1.26249,-0.64172 1.85906,-1.561613 1.19317,-1.839793 2.15651,-5.691277 2.15651,-12.121098 0,-6.452371 -0.78861,-9.496391 -1.63597,-10.708208 -0.42368,-0.605909 -0.80175,-0.821027 -1.33853,-0.966712 -0.53676,-0.14568 -1.22453,-0.148719 -2.08215,-0.148719 z m -48.2613,14.649425 c -7.184498,3.350718 -15.463855,7.514519 -22.680578,11.526195 -4.084811,2.270692 -7.75879,4.385485 -10.559486,6.09773 -2.800697,1.712248 -4.872435,3.1621 -5.205379,3.495042 -0.60642,0.606418 -1.061994,1.153409 -1.338526,1.635975 -0.276532,0.482568 -0.426309,0.907946 -0.29745,1.635977 0.257718,1.45606 1.907023,4.137901 6.469542,8.70042 4.546559,4.54657 7.894326,6.60721 10.038947,7.06444 1.072309,0.22862 1.760263,0.0867 2.3796,-0.22307 0.619341,-0.30981 1.173924,-0.83567 1.635978,-1.63598 2.112979,-3.65977 12.743675,-21.97737 19.557352,-38.296718 z m 5.056653,0.07436 c 6.815606,16.296365 17.299579,34.569391 19.40863,38.222361 0.462063,0.80031 1.016632,1.40053 1.635974,1.71033 0.619343,0.30981 1.381656,0.37735 2.453966,0.14872 2.144619,-0.45723 5.492369,-2.44351 10.038947,-6.990078 4.5625,-4.562517 6.13747,-7.318721 6.39518,-8.774782 0.12886,-0.72803 0.0534,-1.15341 -0.22308,-1.635978 -0.27654,-0.48255 -0.80648,-0.955179 -1.4129,-1.561597 -0.33292,-0.332929 -2.33032,-1.782792 -5.131015,-3.49504 C 97.11642,81.845108 93.442445,79.655953 89.357631,77.385261 82.177384,73.393866 73.912685,69.278196 66.751413,65.933428 z m -2.528327,1.11544 c -2.703648,7.437337 -5.622914,16.177584 -7.882429,24.093469 -1.28278,4.494019 -2.353579,8.632515 -3.12323,11.823652 -0.769647,3.19113 -1.1898,5.62688 -1.1898,6.09773 0,0.85759 0.0031,1.54537 0.148718,2.08215 0.145679,0.53676 0.360802,0.91485 0.966713,1.33853 1.211819,0.84734 4.330214,1.63597 10.782572,1.63597 6.429829,0 10.206942,-0.889 12.046733,-2.08215 0.919896,-0.59659 1.342735,-1.20206 1.561613,-1.85906 0.218879,-0.65702 0.239175,-1.48697 0,-2.37961 C 76.442563,103.72633 70.92435,83.389239 64.223079,67.048859 z" style="fill:#aaaaaa"/>
</svg>