<?xml version="1.0" encoding="UTF-8" standalone="no"?>
<svg xmlns:dc="http://purl.org/dc/elements/1.1/"
     xmlns:cc="http://creativecommons.org/ns#"
     xmlns:rdf="http://www.w3.org/1999/02/22-rdf-syntax-ns#"
     xmlns:svg="http://www.w3.org/2000/svg"
     xmlns="http://www.w3.org/2000/svg"
     xmlns:xlink="http://www.w3.org/1999/xlink"
     width="128" height="128" version="1.1">
    <title>LottaNZB Icon</title>
    <desc>This is shape (source) for Clarity vector icon theme for gtk</desc>
    <metadata>
        <rdf:RDF>
            <cc:Work rdf:about="">
                <dc:title>LottaNZB Icon</dc:title>
                <dc:description>This is shape (source) for Clarity vector icon theme for gtk</dc:description>
                <dc:creator>
                    <cc:Agent>
                        <dc:title>Jakub Jankiewicz</dc:title>
                    </cc:Agent>
                </dc:creator>
                <dc:rights>
                    <cc:Agent>
                        <dc:title>Jakub Jankiewicz</dc:title>
                    </cc:Agent>
                </dc:rights>
                <dc:date>2010</dc:date>
                <dc:format>image/svg+xml</dc:format>
                <dc:type rdf:resource="http://purl.org/dc/dcmitype/StillImage" />
                <cc:license rdf:resource="http://www.gnu.org/copyleft/gpl.html" />
             </cc:Work>
        </rdf:RDF>
    </metadata>
    <path d="m 24,9.5974833 c -2.496233,0.251992 -4.4375,2.3726537 -4.4375,4.9374997 l 0,43.4375 c 0,2.735836 2.201664,4.9375 4.9375,4.9375 l 79,0 c 2.73584,0 4.9375,-2.201664 4.9375,-4.9375 l 0,-43.4375 c 0,-2.735836 -2.20166,-4.9374997 -4.9375,-4.9374997 l -79,0 c -0.17099,0 -0.333584,-0.0168 -0.5,0 z m 52.6875,6.3437497 c 0.411809,1.3e-5 0.800639,0.05643 1.1875,0.15625 0.293255,0.07489 0.64444,0.200356 1.0625,0.40625 0.424286,0.19968 0.737773,0.312512 0.90625,0.3125 0.162222,1.2e-5 0.281398,-0.0564 0.375,-0.15625 0.09359,-0.09982 0.168876,-0.338121 0.25,-0.71875 l 0.28125,0 0.125,4.21875 -0.40625,0 c -0.180957,-1.060723 -0.632443,-1.88856 -1.34375,-2.53125 -0.705082,-0.648907 -1.457628,-0.999988 -2.28125,-1 -0.636444,1.2e-5 -1.125628,0.188084 -1.5,0.53125 -0.36814,0.33695 -0.562503,0.713249 -0.5625,1.15625 -3e-6,0.280793 0.05647,0.531624 0.1875,0.75 0.180945,0.293271 0.475662,0.587987 0.875,0.875 0.293257,0.205916 0.970512,0.569632 2.03125,1.09375 1.485018,0.730041 2.482104,1.413587 3,2.0625 0.511638,0.648924 0.78124,1.413897 0.78125,2.25 -1e-5,1.060735 -0.420142,1.95128 -1.25,2.71875 -0.823636,0.761232 -1.883377,1.15625 -3.15625,1.15625 -0.39934,0 -0.769347,-0.04388 -1.125,-0.125 -0.355662,-0.08112 -0.807148,-0.244124 -1.34375,-0.46875 -0.299504,-0.124792 -0.525325,-0.1875 -0.71875,-0.1875 -0.162232,0 -0.350303,0.06271 -0.53125,0.1875 -0.18095,0.124792 -0.325189,0.337926 -0.4375,0.59375 l -0.34375,0 0,-4.8125 0.34375,0 c 0.274541,1.347758 0.813797,2.382437 1.59375,3.09375 0.786187,0.705076 1.626503,1.0625 2.53125,1.0625 0.69883,0 1.244429,-0.181884 1.65625,-0.5625 0.418046,-0.380615 0.624992,-0.83834 0.625,-1.34375 -8e-6,-0.299499 -0.08778,-0.594215 -0.25,-0.875 -0.155997,-0.280779 -0.394298,-0.531662 -0.71875,-0.78125 -0.324466,-0.25582 -0.895128,-0.594421 -1.71875,-1 -1.154331,-0.567799 -1.994595,-1.038159 -2.5,-1.4375 -0.50541,-0.399328 -0.881709,-0.850814 -1.15625,-1.34375 -0.268304,-0.492921 -0.406251,-1.032229 -0.40625,-1.625 -10e-7,-1.010806 0.382486,-1.882424 1.125,-2.59375 0.74251,-0.711302 1.683128,-1.062487 2.8125,-1.0625 z m -50.5,0.28125 4.53125,0 6.25,7.875 0,-5.46875 c -1.1e-5,-0.761221 -0.125375,-1.262935 -0.34375,-1.53125 -0.299511,-0.361885 -0.794934,-0.543717 -1.5,-0.53125 l 0,-0.34375 4.1875,0 0,0.34375 c -0.536619,0.06865 -0.875324,0.168949 -1.0625,0.28125 -0.180961,0.106085 -0.331439,0.281678 -0.4375,0.53125 -0.09985,0.243356 -0.156262,0.651009 -0.15625,1.25 l 0,10.59375 -0.3125,0 -8.59375,-10.59375 0,8.09375 c -3e-6,0.730035 0.169298,1.212927 0.5,1.46875 0.336935,0.255824 0.725713,0.375 1.15625,0.375 l 0.3125,0 0,0.34375 -4.53125,0 0,-0.34375 c 0.698835,-0.0062 1.194206,-0.156717 1.46875,-0.4375 0.274541,-0.280781 0.406248,-0.732371 0.40625,-1.40625 l 0,-8.96875 -0.25,-0.34375 c -0.268305,-0.336927 -0.512844,-0.550165 -0.71875,-0.65625 -0.205908,-0.106061 -0.519395,-0.175008 -0.90625,-0.1875 l 0,-0.34375 z m 13.96875,0 10.625,0 0,3.75 -0.34375,0 c -0.180959,-0.917212 -0.450561,-1.569405 -0.78125,-1.96875 -0.324469,-0.399323 -0.776007,-0.6878 -1.375,-0.875 -0.349426,-0.112301 -1.007858,-0.156238 -1.96875,-0.15625 l -1.3125,0 0,5.15625 0.25,0 c 0.804903,7e-6 1.388096,-0.244585 1.75,-0.75 0.36189,-0.5054 0.587658,-1.264134 0.6875,-2.25 l 0.375,0 0,6.65625 -0.375,0 c -0.07488,-0.72379 -0.225413,-1.319515 -0.46875,-1.78125 -0.237112,-0.461725 -0.525537,-0.781504 -0.84375,-0.9375 -0.318226,-0.162224 -0.769764,-0.249994 -1.375,-0.25 l 0,3.59375 c -5e-6,0.698838 0.03759,1.125261 0.09375,1.28125 0.06239,0.155991 0.181515,0.275167 0.34375,0.375 0.162224,0.09983 0.419347,0.156251 0.78125,0.15625 l 0.75,0 c 1.185517,1e-6 2.132426,-0.263414 2.84375,-0.8125 0.717544,-0.549083 1.250508,-1.408118 1.5625,-2.53125 l 0.34375,0 -0.59375,4.03125 -10.96875,0 0,-0.34375 0.4375,0 c 0.368136,0 0.650373,-0.05647 0.875,-0.1875 0.162228,-0.08735 0.287644,-0.225353 0.375,-0.4375 0.06863,-0.149749 0.124998,-0.551059 0.125,-1.1875 l 0,-8.34375 c -2e-6,-0.574033 -0.0313,-0.931457 -0.0625,-1.0625 -0.0624,-0.218374 -0.175283,-0.381436 -0.34375,-0.5 -0.237107,-0.174697 -0.556937,-0.281238 -0.96875,-0.28125 l -0.4375,0 0,-0.34375 z m 12.59375,0 5.5,0 0,0.34375 c -0.443017,0.01249 -0.725254,0.09397 -0.875,0.21875 -0.143516,0.118565 -0.218755,0.256563 -0.21875,0.4375 -5e-6,0.237116 0.163005,0.732539 0.46875,1.5 l 2.46875,6.1875 2,-4.8125 -0.53125,-1.375 c -0.287031,-0.736263 -0.500268,-1.225394 -0.65625,-1.46875 -0.155998,-0.249572 -0.325351,-0.425165 -0.53125,-0.53125 -0.199675,-0.106061 -0.513162,-0.156238 -0.90625,-0.15625 l 0,-0.34375 6.15625,0 0,0.34375 c -0.430545,0.0063 -0.750324,0.06262 -0.9375,0.125 -0.131044,0.04369 -0.237637,0.112689 -0.3125,0.21875 -0.07489,0.09985 -0.09376,0.21273 -0.09375,0.34375 -1.2e-5,0.143522 0.125456,0.576238 0.40625,1.3125 l 2.3125,6 2.0625,-5.4375 c 0.218369,-0.561554 0.356316,-0.919082 0.40625,-1.125 0.0499,-0.205896 0.09373,-0.41903 0.09375,-0.59375 -1.7e-5,-0.255812 -0.106558,-0.450227 -0.28125,-0.59375 -0.174725,-0.149738 -0.507087,-0.237508 -1,-0.25 l 0,-0.34375 3.3125,0 0,0.34375 c -0.237124,0.01873 -0.431539,0.106449 -0.59375,0.21875 -0.162248,0.112325 -0.312726,0.269146 -0.4375,0.5 -0.03746,0.07489 -0.23811,0.545247 -0.59375,1.4375 l -3.96875,10.5 -0.375,0 -3.15625,-8.1875 -3.4375,8.1875 -0.375,0 -4.15625,-10.375 c -0.424295,-1.042003 -0.737782,-1.656602 -0.90625,-1.875 -0.16847,-0.218374 -0.444416,-0.3688 -0.84375,-0.40625 l 0,-0.34375 z m -26.5625,16.4375 27.65625,0 0,24.21875 -27.65625,0 0,-24.21875 z m 33.125,1 42.46875,0 0,3.9375 -42.46875,0 0,-3.9375 z m 0,9.625 42.46875,0 0,3.9375 -42.46875,0 0,-3.9375 z m 0,9.625 42.46875,0 0,3.96875 -42.46875,0 0,-3.96875 z m -4.6875,13.09375 c -1.458711,0 -2.59375,1.197539 -2.59375,2.65625 l 0,11.09375 -11.90625,0 22.3125,38.656247 22.28125,-38.656247 -11.90625,0 0,-11.09375 c 0,-1.458711 -1.166288,-2.65625 -2.625,-2.65625 l -15.5625,0 z" style="fill:#aaaaaa"/>
</svg>