<?xml version="1.0" encoding="UTF-8" standalone="no"?>
<svg xmlns:dc="http://purl.org/dc/elements/1.1/"
     xmlns:cc="http://creativecommons.org/ns#"
     xmlns:rdf="http://www.w3.org/1999/02/22-rdf-syntax-ns#"
     xmlns:svg="http://www.w3.org/2000/svg"
     xmlns="http://www.w3.org/2000/svg"
     xmlns:xlink="http://www.w3.org/1999/xlink"
     width="128" height="128" version="1.1">
    <title>LYX icon</title>
    <desc>This is shape (source) for Clarity vector icon theme for gtk</desc>
    <metadata>
        <rdf:RDF>
            <cc:Work rdf:about="">
                <dc:title>LYX icon</dc:title>
                <dc:description>This is shape (source) for Clarity vector icon theme for gtk</dc:description>
                <dc:creator>
                    <cc:Agent>
                        <dc:title>Jakub Jankiewicz</dc:title>
                    </cc:Agent>
                </dc:creator>
                <dc:rights>
                    <cc:Agent>
                        <dc:title>Jakub Jankiewicz</dc:title>
                    </cc:Agent>
                </dc:rights>
                <dc:date>2010</dc:date>
                <dc:format>image/svg+xml</dc:format>
                <dc:type rdf:resource="http://purl.org/dc/dcmitype/StillImage" />
                <cc:license rdf:resource="http://www.gnu.org/copyleft/gpl.html" />
             </cc:Work>
        </rdf:RDF>
    </metadata>
    <path d="m 79.296875,30.546875 12.9375,23.09375 -17.59375,22.90625 15.90625,1.125 10.156255,-14.1875 8.0625,15.4375 16,1.125 -14.03125,-24.875 15.875,-21.34375 -15.53125,-1.0625 -8.90625,13.625 -7.187505,-14.75 -15.6875,-1.09375 z m -64.4375,6.3125 -13.46875,5.5625 17.90625,43.625 34.53125,-14.1875 -4.40625,-10.75 -21.0625,8.65625 -13.5,-32.90625 z m 31.9375,8.59375 11.125,30.09375 -2.75,19.4375 11.875,2.46875 2.78125,-19.4375 18.78125,-23.875 -13.09375,-2.71875 -10,14.0625 -5.53125,-17.28125 -13.1875,-2.75 z" style="fill:#aaaaaa"/>
</svg>