<?xml version="1.0" encoding="UTF-8" standalone="no"?>
<svg xmlns:dc="http://purl.org/dc/elements/1.1/"
     xmlns:cc="http://creativecommons.org/ns#"
     xmlns:rdf="http://www.w3.org/1999/02/22-rdf-syntax-ns#"
     xmlns:svg="http://www.w3.org/2000/svg"
     xmlns="http://www.w3.org/2000/svg"
     xmlns:xlink="http://www.w3.org/1999/xlink"
     width="128" height="128" version="1.1">
    <title>Magnatune Icon</title>
    <desc>This is shape (source) for Clarity vector icon theme for gtk</desc>
    <metadata>
        <rdf:RDF>
            <cc:Work rdf:about="">
                <dc:title>Magnatune Icon</dc:title>
                <dc:description>This is shape (source) for Clarity vector icon theme for gtk</dc:description>
                <dc:creator>
                    <cc:Agent>
                        <dc:title>Jakub Jankiewicz</dc:title>
                    </cc:Agent>
                </dc:creator>
                <dc:rights>
                    <cc:Agent>
                        <dc:title>Jakub Jankiewicz</dc:title>
                    </cc:Agent>
                </dc:rights>
                <dc:date>2010</dc:date>
                <dc:format>image/svg+xml</dc:format>
                <dc:type rdf:resource="http://purl.org/dc/dcmitype/StillImage" />
                <cc:license rdf:resource="http://www.gnu.org/copyleft/gpl.html" />
             </cc:Work>
        </rdf:RDF>
    </metadata>
    <path d="M 61.232859,9.0807579 C 32.27372,10.556338 9.0288795,34.698073 9.0288795,64.01058 c 0,30.258077 24.7543475,54.92982 55.0124215,54.92982 30.258068,0 54.929829,-24.671738 54.929819,-54.92982 0,-30.258074 -24.671745,-54.9298221 -54.929819,-54.9298221 -0.945566,0 -1.874277,-0.047605 -2.808442,0 z m 2.808442,14.7030191 c 22.269427,0 40.144199,17.957371 40.144199,40.226803 0,22.269433 -17.874767,40.1442 -40.144199,40.1442 -22.269438,0 -40.226801,-17.874764 -40.226801,-40.1442 -2e-6,-22.269432 17.957368,-40.226803 40.226801,-40.226803 z m -7.764516,10.242556 0,53.112593 14.703019,0 0,-53.112593 -14.703019,0 z m 20.980713,21.228517 0,31.305867 14.868222,0 0,-31.305867 -14.868222,0 z m -42.457034,0.165202 0,31.140665 15.446431,0 0,-31.140665 -15.446431,0 z" style="fill:#aaaaaa"/>
</svg>