<?xml version="1.0" encoding="UTF-8" standalone="no"?>
<svg xmlns:dc="http://purl.org/dc/elements/1.1/"
     xmlns:cc="http://creativecommons.org/ns#"
     xmlns:rdf="http://www.w3.org/1999/02/22-rdf-syntax-ns#"
     xmlns:svg="http://www.w3.org/2000/svg"
     xmlns="http://www.w3.org/2000/svg"
     xmlns:xlink="http://www.w3.org/1999/xlink"
     width="128" height="128" version="1.1">
    <title>Libre Office</title>
    <desc>This is shape (source) for Clarity vector icon theme for gtk</desc>
    <metadata>
        <rdf:RDF>
            <cc:Work rdf:about="">
                <dc:title>Libre Office</dc:title>
                <dc:description>This is shape (source) for Clarity vector icon theme for gtk</dc:description>
                <dc:creator>
                    <cc:Agent>
                        <dc:title>Jakub Jankiewicz</dc:title>
                    </cc:Agent>
                </dc:creator>
                <dc:rights>
                    <cc:Agent>
                        <dc:title>Jakub Jankiewicz</dc:title>
                    </cc:Agent>
                </dc:rights>
                <dc:date>2010</dc:date>
                <dc:format>image/svg+xml</dc:format>
                <dc:type rdf:resource="http://purl.org/dc/dcmitype/StillImage" />
                <cc:license rdf:resource="http://creativecommons.org/licenses/by-sa/3.0/" />
             </cc:Work>
        </rdf:RDF>
    </metadata>
    <path d="m 25.15625,7.84375 c -3.221559,0 -5.875,2.684691 -5.875,5.90625 l 0,100.53125 c 0,3.22156 2.638031,5.875 5.875,5.875 l 77.65625,0 c 3.23697,0 5.90625,-2.63803 5.90625,-5.875 l 0,-64.5 0,-0.8125 L 108.125,48.375 68.25,8.4375 67.65625,7.84375 l -0.84375,0 -41.65625,0 z m 79.21875,0.4375 c -1.85598,0 -18.183616,0.15625 -21.40625,0.15625 -3.222628,0 -4.219717,2.369414 -2.28125,4.75 1.938464,2.380585 21.83186,21.855357 22.9375,23.125 1.47948,1.698904 4.6875,1.494527 4.6875,-2.4375 l 0,-21.65625 c 0,-1.885016 -1.46855,-3.9375 -3.9375,-3.9375 z m -79.21875,3.5625 40.8125,0 38.75,38.75 0,63.6875 c 0,1.06561 -0.84066,1.875 -1.90625,1.875 l -77.65625,0 c -1.065605,0 -1.875,-0.79398 -1.875,-1.875 l 0,-100.53125 c 0,-1.081013 0.793985,-1.90625 1.875,-1.90625 z" style="fill:#aaaaaa"/>
</svg>