<?xml version="1.0" encoding="UTF-8" standalone="no"?>
<svg xmlns:dc="http://purl.org/dc/elements/1.1/"
     xmlns:cc="http://creativecommons.org/ns#"
     xmlns:rdf="http://www.w3.org/1999/02/22-rdf-syntax-ns#"
     xmlns:svg="http://www.w3.org/2000/svg"
     xmlns="http://www.w3.org/2000/svg"
     xmlns:xlink="http://www.w3.org/1999/xlink"
     width="128" height="128" version="1.1">
    <title>Libre Office Math</title>
    <desc>This is shape (source) for Clarity vector icon theme for gtk</desc>
    <metadata>
        <rdf:RDF>
            <cc:Work rdf:about="">
                <dc:title>Libre Office Math</dc:title>
                <dc:description>This is shape (source) for Clarity vector icon theme for gtk</dc:description>
                <dc:creator>
                    <cc:Agent>
                        <dc:title>Jakub Jankiewicz</dc:title>
                    </cc:Agent>
                </dc:creator>
                <dc:rights>
                    <cc:Agent>
                        <dc:title>Jakub Jankiewicz</dc:title>
                    </cc:Agent>
                </dc:rights>
                <dc:date>2010</dc:date>
                <dc:format>image/svg+xml</dc:format>
                <dc:type rdf:resource="http://purl.org/dc/dcmitype/StillImage" />
                <cc:license rdf:resource="http://www.gnu.org/copyleft/gpl.html" />
             </cc:Work>
        </rdf:RDF>
    </metadata>
    <path d="M 25.15625 7.84375 C 21.934691 7.84375 19.28125 10.528441 19.28125 13.75 L 19.28125 114.28125 C 19.28125 117.50281 21.919281 120.15625 25.15625 120.15625 L 102.8125 120.15625 C 106.04947 120.15625 108.71875 117.51822 108.71875 114.28125 L 108.71875 49.78125 L 108.71875 48.96875 L 108.125 48.375 L 68.25 8.4375 L 67.65625 7.84375 L 66.8125 7.84375 L 25.15625 7.84375 z M 104.375 8.28125 C 102.51902 8.28125 86.191384 8.4375 82.96875 8.4375 C 79.746122 8.4375 78.749033 10.806914 80.6875 13.1875 C 82.625964 15.568085 102.51936 35.042857 103.625 36.3125 C 105.10448 38.011404 108.3125 37.807027 108.3125 33.875 L 108.3125 12.21875 C 108.3125 10.333734 106.84395 8.28125 104.375 8.28125 z M 25.15625 11.84375 L 65.96875 11.84375 L 104.71875 50.59375 L 104.71875 114.28125 C 104.71875 115.34686 103.87809 116.15625 102.8125 116.15625 L 25.15625 116.15625 C 24.090645 116.15625 23.28125 115.36227 23.28125 114.28125 L 23.28125 13.75 C 23.28125 12.668987 24.075235 11.84375 25.15625 11.84375 z M 56.3125 51.875 C 55.63115 51.875 55.05589 52.36067 54.9375 53.03125 L 48.09375 91.90625 L 44.71875 79.125 C 44.60269 78.68465 44.30131 78.34754 43.875 78.1875 C 43.44822 78.02746 42.9392 78.05653 42.5625 78.3125 L 36.5 82.46875 C 35.87949 82.89038 35.7016 83.70452 36.09375 84.34375 L 36.4375 84.90625 C 36.81935 85.5286 37.59813 85.76741 38.25 85.4375 L 41.21875 83.9375 L 47 104.4375 C 47.17735 105.06737 47.78376 105.4693 48.4375 105.4375 C 49.09077 105.4057 49.63535 104.92517 49.75 104.28125 L 57.96875 58.28125 L 90.71875 58.28125 C 91.49416 58.28125 92.125 57.6504 92.125 56.875 L 92.125 53.28125 C 92.12453 52.50584 91.49416 51.875 90.71875 51.875 L 56.3125 51.875 z M 72.625 68.03125 L 64.1875 69.46875 L 63.96875 70.40625 C 64.6047 70.27805 65.15387 70.21875 65.59375 70.21875 C 66.44169 70.21875 67.13156 70.59091 67.6875 71.3125 C 68.56164 72.43419 69.78826 75.82732 71.34375 81.53125 C 70.13174 83.17986 69.29579 84.27585 68.84375 84.78125 C 68.0997 85.5983 67.48433 86.13026 67 86.375 C 66.6275 86.57155 66.21842 86.65625 65.75 86.65625 C 65.39482 86.65625 64.80956 86.46026 64 86.0625 C 63.44828 85.79717 62.93707 85.65625 62.5 85.65625 C 61.67312 85.65625 61.00503 85.90824 60.46875 86.4375 C 59.93434 86.96722 59.65625 87.65076 59.65625 88.46875 C 59.65625 89.23854 59.91255 89.86222 60.40625 90.34375 C 60.89994 90.82528 61.56533 91.0625 62.40625 91.0625 C 63.21628 91.0625 63.9748 90.90176 64.6875 90.5625 C 65.39926 90.22229 66.2987 89.51483 67.375 88.40625 C 68.4513 87.29859 69.91821 85.53498 71.8125 83.125 C 72.53362 85.42173 73.18949 87.08192 73.71875 88.125 C 74.24707 89.1676 74.8499 89.91359 75.53125 90.375 C 76.21306 90.83593 77.06705 91.0625 78.09375 91.0625 C 79.08769 91.0625 80.09924 90.69044 81.125 89.9375 C 82.47084 88.96509 83.83911 87.28534 85.25 84.90625 L 84.34375 84.375 C 83.38209 85.84298 82.68296 86.75859 82.21875 87.125 C 81.91411 87.35289 81.54148 87.46875 81.125 87.46875 C 80.62709 87.46875 80.16809 87.15831 79.6875 86.53125 C 78.86951 85.47273 77.76894 82.56668 76.40625 77.75 C 77.62902 75.59506 78.66189 74.15935 79.5 73.5 C 80.11115 73.01753 80.73052 72.78125 81.40625 72.78125 C 81.66409 72.78125 82.14379 72.89112 82.8125 73.09375 C 83.48027 73.29637 84.07899 73.40625 84.59375 73.40625 C 85.30176 73.40625 85.90002 73.15181 86.375 72.65625 C 86.84951 72.16021 87.0625 71.4993 87.0625 70.71875 C 87.0625 69.89093 86.84997 69.23667 86.375 68.75 C 85.90049 68.26239 85.19693 68.03125 84.3125 68.03125 C 83.52351 68.03125 82.79334 68.21611 82.09375 68.59375 C 81.39462 68.97186 80.48395 69.80791 79.40625 71.0625 C 78.60136 71.99607 77.42029 73.6052 75.84375 75.9375 C 75.21575 73.05863 74.15381 70.42765 72.625 68.03125 z " style="fill:#aaaaaa"/>
</svg>