<?xml version="1.0" encoding="UTF-8" standalone="no"?>
<svg xmlns:dc="http://purl.org/dc/elements/1.1/"
     xmlns:cc="http://creativecommons.org/ns#"
     xmlns:rdf="http://www.w3.org/1999/02/22-rdf-syntax-ns#"
     xmlns:svg="http://www.w3.org/2000/svg"
     xmlns="http://www.w3.org/2000/svg"
     xmlns:xlink="http://www.w3.org/1999/xlink"
     width="128" height="128" version="1.1">
    <title>Matroska Logo</title>
    <desc>This is shape (source) for Clarity vector icon theme for gtk</desc>
    <metadata>
        <rdf:RDF>
            <cc:Work rdf:about="">
                <dc:title>Matroska Logo</dc:title>
                <dc:description>This is shape (source) for Clarity vector icon theme for gtk</dc:description>
                <dc:creator>
                    <cc:Agent>
                        <dc:title>Jakub Jankiewicz</dc:title>
                    </cc:Agent>
                </dc:creator>
                <dc:rights>
                    <cc:Agent>
                        <dc:title>Jakub Jankiewicz</dc:title>
                    </cc:Agent>
                </dc:rights>
                <dc:date>2010</dc:date>
                <dc:format>image/svg+xml</dc:format>
                <dc:type rdf:resource="http://purl.org/dc/dcmitype/StillImage" />
                <cc:license rdf:resource="http://creativecommons.org/licenses/by-sa/3.0/" />
             </cc:Work>
        </rdf:RDF>
    </metadata>
    <path d="m 77.506555,22.552974 -1.255154,0.02729 0,1.637157 c 2.437912,0.497099 4.201074,1.357803 5.266192,2.564881 1.0651,1.20717 1.582577,2.661622 1.582586,4.365757 -9e-6,1.727884 -0.281433,3.772468 -0.873151,6.139343 -0.568067,2.366945 -0.873159,4.255366 -0.87315,5.675483 -9e-6,1.467513 0.461245,3.032757 1.337012,4.665901 0.875747,1.633191 2.18127,3.049508 3.956466,4.256611 1.325456,0.899445 3.44993,1.805521 6.384918,2.728598 -2.745635,0.757428 -4.72118,1.541859 -5.975628,2.346594 -1.822535,1.183469 -3.228,2.603402 -4.174754,4.283897 -0.946774,1.656848 -1.418879,3.3056 -1.41887,4.938761 -9e-6,1.751519 0.305083,3.796103 0.87315,6.139344 0.568049,2.366909 0.845855,4.331604 0.845866,5.89377 -1.1e-5,1.562154 -0.582908,2.967619 -1.719016,4.174753 -1.136126,1.230783 -2.868384,2.060584 -5.211621,2.51031 l 0,1.637159 c 2.177553,-0.09469 3.906194,-0.327128 5.184335,-0.68215 1.656827,-0.449726 3.187553,-1.161501 4.584043,-2.155592 1.396464,-0.994114 2.53859,-2.288786 3.438032,-3.874608 0.923078,-1.562168 1.391567,-3.13103 1.391585,-4.693187 -1.8e-5,-1.467487 -0.354097,-3.595579 -1.064153,-6.412203 -0.113136,-0.437101 -0.211591,-0.864333 -0.300146,-1.282442 11.176213,3.027525 18.499893,7.978545 18.499893,13.588415 0,9.221791 -19.695927,16.699015 -43.984991,16.699015 -24.289067,0 -43.984988,-7.477224 -43.984988,-16.699015 0,-5.595538 7.262045,-10.532075 18.390746,-13.561128 -0.07975,0.361282 -0.148517,0.715861 -0.245574,1.091439 -0.733755,2.840294 -1.091449,5.079179 -1.091439,6.712349 -1e-5,1.680502 0.521082,3.409144 1.609872,5.184334 1.112435,1.798843 2.757571,3.284199 4.911476,4.420328 2.177538,1.136103 4.461793,1.688099 6.876065,1.664445 l 1.255154,0 0,-1.664445 c -2.437942,-0.473394 -4.20472,-1.334098 -5.293479,-2.564881 -1.065128,-1.207134 -1.60989,-2.65797 -1.609872,-4.338469 -1.8e-5,-1.75152 0.305074,-3.799721 0.873151,-6.16663 0.591707,-2.36691 0.873132,-4.255331 0.873151,-5.675482 -1.9e-5,-1.467479 -0.433989,-3.032724 -1.309726,-4.665902 -0.875776,-1.633157 -2.177683,-3.049473 -3.92918,-4.256611 -1.325485,-0.899412 -3.477245,-1.805486 -6.412204,-2.728598 2.745606,-0.733725 4.748438,-1.518156 6.002915,-2.346593 1.798836,-1.183435 3.173399,-2.599752 4.120181,-4.256613 0.970415,-1.680481 1.473422,-3.329233 1.473443,-4.938761 -2.1e-5,-1.751484 -0.305113,-3.796067 -0.873151,-6.139344 -0.568077,-2.366873 -0.845884,-4.335185 -0.845865,-5.921056 -1.9e-5,-1.562118 0.551976,-2.967585 1.664444,-4.174753 1.136095,-1.230748 2.899258,-2.060549 5.266192,-2.510309 l 0,-1.609872 c -2.177581,0.07105 -3.906224,0.299875 -5.184335,0.654862 -1.656856,0.449762 -3.187582,1.161537 -4.584043,2.155592 -1.396492,0.994148 -2.542236,2.288822 -3.465318,3.874608 -0.923108,1.585872 -1.391597,3.154735 -1.391585,4.693188 -1.2e-5,1.467521 0.357684,3.595612 1.091439,6.412203 0.520708,2.011905 0.79128,3.820436 0.791294,5.429909 -1.4e-5,1.96456 -0.590145,3.647832 -1.773589,5.020619 -1.183465,1.372828 -2.912108,2.240766 -5.184335,2.619453 l 0,2.182877 c 2.272227,0.378722 4.00087,1.212141 5.184335,2.537597 1.183444,1.301813 1.773575,2.905194 1.773589,4.775044 -8e-6,0.87529 -0.09364,1.80966 -0.245574,2.810455 -17.859844,3.487502 -30.0964283,10.513401 -30.0964283,18.663606 0,11.609775 24.7845093,21.037478 55.3632383,21.037478 30.57873,0 55.363241,-9.427703 55.363241,-21.037478 0,-8.165708 -12.28993,-15.23738 -30.205574,-18.718177 -0.114631,-0.843736 -0.163724,-1.646005 -0.163717,-2.401166 -1.6e-5,-1.964526 0.5865,-3.647798 1.746303,-5.020619 1.183436,-1.372794 2.915696,-2.240732 5.211621,-2.619453 l 0,-2.182878 c -2.295925,-0.355018 -4.028185,-1.18482 -5.211621,-2.510309 -1.159803,-1.32545 -1.746319,-2.932448 -1.746303,-4.802332 -1.6e-5,-1.656811 0.274174,-3.514329 0.81858,-5.62091 0.733726,-2.840261 1.091422,-5.075527 1.091439,-6.685063 -1.7e-5,-1.704137 -0.552013,-3.436396 -1.664445,-5.211621 -1.088794,-1.798808 -2.706643,-3.284163 -4.884188,-4.420328 -2.177569,-1.136068 -4.458205,-1.688064 -6.84878,-1.664444 z" style="fill:#aaaaaa"/>
</svg>