<?xml version="1.0" encoding="UTF-8" standalone="no"?>
<svg xmlns:dc="http://purl.org/dc/elements/1.1/"
     xmlns:cc="http://creativecommons.org/ns#"
     xmlns:rdf="http://www.w3.org/1999/02/22-rdf-syntax-ns#"
     xmlns:svg="http://www.w3.org/2000/svg"
     xmlns="http://www.w3.org/2000/svg"
     xmlns:xlink="http://www.w3.org/1999/xlink"
     width="128" height="128" version="1.1">
    <title>MiniTube Icon</title>
    <desc>This is shape (source) for Clarity vector icon theme for gtk</desc>
    <metadata>
        <rdf:RDF>
            <cc:Work rdf:about="">
                <dc:title>MiniTube Icon</dc:title>
                <dc:description>This is shape (source) for Clarity vector icon theme for gtk</dc:description>
                <dc:creator>
                    <cc:Agent>
                        <dc:title>Jakub Jankiewicz</dc:title>
                    </cc:Agent>
                </dc:creator>
                <dc:rights>
                    <cc:Agent>
                        <dc:title>Jakub Jankiewicz</dc:title>
                    </cc:Agent>
                </dc:rights>
                <dc:date>2010</dc:date>
                <dc:format>image/svg+xml</dc:format>
                <dc:type rdf:resource="http://purl.org/dc/dcmitype/StillImage" />
                <cc:license rdf:resource="http://www.gnu.org/copyleft/gpl.html" />
             </cc:Work>
        </rdf:RDF>
    </metadata>
    <path d="m 20.65625,29.59375 c -4.063368,0 -7.3125,3.280382 -7.3125,7.34375 l 0,54.125 c 0,4.063368 3.249132,7.34375 7.3125,7.34375 l 86.6875,0 c 4.06337,0 7.3125,-3.280382 7.3125,-7.34375 l 0,-54.125 c 0,-4.063368 -3.24913,-7.34375 -7.3125,-7.34375 l -86.6875,0 z M 95.5625,36.1875 c 4.42507,0 8.03125,3.574932 8.03125,8 0,4.425068 -3.60618,8.03125 -8.03125,8.03125 -4.425068,0 -8,-3.606182 -8,-8.03125 0,-4.425068 3.574932,-8 8,-8 z m -71.125,0.25 48,0 c 2.235622,0 4.0625,1.795628 4.0625,4.03125 l 0,47.0625 c 0,2.235622 -1.826878,4.03125 -4.0625,4.03125 l -48,0 c -2.235622,0 -4.03125,-1.795628 -4.03125,-4.03125 l 0,-47.0625 c 0,-2.235622 1.795628,-4.03125 4.03125,-4.03125 z m 71.125,4.9375 c -1.561789,0 -2.8125,1.250711 -2.8125,2.8125 0,1.561789 1.250711,2.84375 2.8125,2.84375 1.561789,0 2.84375,-1.281961 2.84375,-2.84375 0,-1.561789 -1.281961,-2.8125 -2.84375,-2.8125 z m 0,15.5625 c 4.42507,0 8.03125,3.574932 8.03125,8 0,4.425068 -3.60618,8 -8.03125,8 -4.425068,0 -8,-3.574932 -8,-8 0,-4.425068 3.574932,-8 8,-8 z m 0,5.1875 c -1.561789,0 -2.8125,1.250711 -2.8125,2.8125 0,1.561789 1.250711,2.84375 2.8125,2.84375 1.561789,0 2.84375,-1.281961 2.84375,-2.84375 0,-1.561789 -1.281961,-2.8125 -2.84375,-2.8125 z m -12.46875,25.1875 24.96875,0 0,4.25 -24.96875,0 0,-4.25 z" style="fill:#aaaaaa"/>
</svg>