<?xml version="1.0" encoding="UTF-8" standalone="no"?>
<svg xmlns:dc="http://purl.org/dc/elements/1.1/"
     xmlns:cc="http://creativecommons.org/ns#"
     xmlns:rdf="http://www.w3.org/1999/02/22-rdf-syntax-ns#"
     xmlns:svg="http://www.w3.org/2000/svg"
     xmlns="http://www.w3.org/2000/svg"
     xmlns:xlink="http://www.w3.org/1999/xlink"
     width="128" height="128" version="1.1">
    <title>Mirage Icon</title>
    <desc>This is shape (source) for Clarity vector icon theme for gtk</desc>
    <metadata>
        <rdf:RDF>
            <cc:Work rdf:about="">
                <dc:title>Mirage Icon</dc:title>
                <dc:description>This is shape (source) for Clarity vector icon theme for gtk</dc:description>
                <dc:creator>
                    <cc:Agent>
                        <dc:title>Jakub Jankiewicz</dc:title>
                    </cc:Agent>
                </dc:creator>
                <dc:rights>
                    <cc:Agent>
                        <dc:title>Jakub Jankiewicz</dc:title>
                    </cc:Agent>
                </dc:rights>
                <dc:date>2010</dc:date>
                <dc:format>image/svg+xml</dc:format>
                <dc:type rdf:resource="http://purl.org/dc/dcmitype/StillImage" />
                <cc:license rdf:resource="http://www.gnu.org/copyleft/gpl.html" />
             </cc:Work>
        </rdf:RDF>
    </metadata>
    <path d="m 64.233747,12.330616 c -52.097026,0.443564 -51.64318,43.70124 -51.64318,43.70124 4.983194,3.992062 18.101872,-17.971029 23.991099,-17.083905 7.219749,1.087547 1.779173,26.64542 6.309346,27.532541 3.032649,0.593872 9.329213,-9.503 15.189171,-15.939891 l 0,45.455386 C 14.116959,97.246769 12.590567,115.67299 12.590567,115.67299 l 102.819003,-0.68641 c 0,0 -0.44628,-16.347437 -42.140215,-18.761785 l 0,-43.167373 c 4.755844,6.412703 10.020528,14.274367 11.528191,12.736668 5.436194,-5.544532 0.688676,-25.065834 5.218844,-29.057895 4.530165,-3.992062 22.31728,24.160026 24.45846,19.982066 2.14118,-4.177959 1.85593,-44.831205 -50.241103,-44.387645 z" style="fill:#aaaaaa"/>
</svg>