<?xml version="1.0" encoding="UTF-8" standalone="no"?>
<svg xmlns:dc="http://purl.org/dc/elements/1.1/"
     xmlns:cc="http://creativecommons.org/ns#"
     xmlns:rdf="http://www.w3.org/1999/02/22-rdf-syntax-ns#"
     xmlns:svg="http://www.w3.org/2000/svg"
     xmlns="http://www.w3.org/2000/svg"
     xmlns:xlink="http://www.w3.org/1999/xlink"
     width="128" height="128" version="1.1">
    <title>Wireless Modem Icon</title>
    <desc>This is shape (source) for Clarity vector icon theme for gtk</desc>
    <metadata>
        <rdf:RDF>
            <cc:Work rdf:about="">
                <dc:title>Wireless Modem Icon</dc:title>
                <dc:description>This is shape (source) for Clarity vector icon theme for gtk</dc:description>
                <dc:creator>
                    <cc:Agent>
                        <dc:title>Jakub Jankiewicz</dc:title>
                    </cc:Agent>
                </dc:creator>
                <dc:rights>
                    <cc:Agent>
                        <dc:title>Jakub Jankiewicz</dc:title>
                    </cc:Agent>
                </dc:rights>
                <dc:date>2010</dc:date>
                <dc:format>image/svg+xml</dc:format>
                <dc:type rdf:resource="http://purl.org/dc/dcmitype/StillImage" />
                <cc:license rdf:resource="http://creativecommons.org/licenses/by-sa/3.0/" />
             </cc:Work>
        </rdf:RDF>
    </metadata>
    <path d="m 95.45117,24.006834 c -10.746271,0 -20.446324,4.535988 -27.308594,11.785156 l 4.164063,3.888672 c 5.803529,-6.123999 14.01581,-9.939453 23.144531,-9.939453 9.12718,0 17.33877,3.817279 23.14649,9.939453 l 4.16211,-3.888672 C 115.8975,28.542822 106.19745,24.006834 95.45117,24.006834 Z m 0,10.269531 c -7.781332,0 -14.808484,3.277826 -19.794922,8.519531 l 4.16211,3.886719 c 3.930628,-4.113718 9.470477,-6.671875 15.632812,-6.671875 6.16235,0 11.69914,2.558157 15.63282,6.671875 l 4.17773,-3.886719 c -4.9897,-5.243803 -12.02742,-8.519531 -19.81055,-8.519531 z m 0,11.056641 c -4.590352,0 -8.74762,1.924945 -11.716797,5.003906 l 4.175782,3.886719 c 1.909884,-1.94857 4.572255,-3.15625 7.541015,-3.15625 2.96592,0 5.62852,1.210976 7.54102,3.15625 l 4.17773,-3.886719 c -2.96918,-3.078961 -7.12839,-5.003907 -11.71875,-5.003906 z m -0.382812,11.871093 c -1.274805,0 -2.300782,1.025977 -2.300782,2.300782 V 74.094724 H 13.203123 c -4.3977658,0 -7.9628902,3.529972 -7.9628902,7.927735 v 10.044922 c 0,4.397763 3.5651244,7.927734 7.9628902,7.927734 h 0.34375 v 2.558595 c 0,0.79675 0.64075,1.43946 1.4375,1.43946 h 7.669922 c 0.79675,0 1.4375,-0.64271 1.4375,-1.43946 v -2.558595 h 75.626952 v 2.558595 c 0,0.79675 0.640753,1.43946 1.437503,1.43946 h 7.66992 c 0.79675,0 1.43946,-0.64271 1.43946,-1.43946 v -2.558595 h 0.3457 c 4.39776,0 7.96094,-3.529971 7.96094,-7.927734 V 82.022459 c 0,-4.397763 -3.56318,-7.927735 -7.96094,-7.927735 H 98.136717 V 59.504881 c 0,-1.274805 -1.02793,-2.300782 -2.302734,-2.300782 z M 15.351561,78.932615 h 8.365234 c 0.835236,0 1.511719,0.676482 1.511719,1.511719 v 2.316406 c 0,0.835238 -0.676483,1.511719 -1.511719,1.511719 h -8.365234 c -0.835238,0 -1.511719,-0.676481 -1.511719,-1.511719 v -2.316406 c 0,-0.835237 0.676481,-1.511719 1.511719,-1.511719 z m 14.345703,0 h 8.365234 c 0.835237,0 1.511719,0.676482 1.511719,1.511719 v 2.316406 c 0,0.835238 -0.676482,1.511719 -1.511719,1.511719 h -8.365234 c -0.835238,0 -1.511719,-0.676481 -1.511719,-1.511719 v -2.316406 c 0,-0.835237 0.676481,-1.511719 1.511719,-1.511719 z m 14.3125,0 h 8.398437 c 0.835239,0 1.478516,0.676482 1.478516,1.511719 v 2.316406 c 0,0.835238 -0.643277,1.511719 -1.478516,1.511719 h -8.398437 c -0.835238,0 -1.511719,-0.676481 -1.511719,-1.511719 v -2.316406 c 0,-0.835237 0.676481,-1.511719 1.511719,-1.511719 z m 14.34375,0 h 8.365234 c 0.835238,0 1.511719,0.676482 1.511719,1.511719 v 2.316406 c 0,0.835238 -0.676481,1.511719 -1.511719,1.511719 h -8.365234 c -0.835238,0 -1.511719,-0.676481 -1.511719,-1.511719 v -2.316406 c 0,-0.835237 0.676481,-1.511719 1.511719,-1.511719 z m 14.345703,0 h 8.365234 c 0.835239,0 1.511719,0.676482 1.511719,1.511719 v 2.316406 c 0,0.835238 -0.67648,1.511719 -1.511719,1.511719 h -8.365234 c -0.835239,0 -1.511719,-0.676481 -1.511719,-1.511719 v -2.316406 c 0,-0.835237 0.67648,-1.511719 1.511719,-1.511719 z" style="fill:#aaaaaa"/>
</svg>