<?xml version="1.0" encoding="UTF-8" standalone="no"?>
<svg xmlns:dc="http://purl.org/dc/elements/1.1/"
     xmlns:cc="http://creativecommons.org/ns#"
     xmlns:rdf="http://www.w3.org/1999/02/22-rdf-syntax-ns#"
     xmlns:svg="http://www.w3.org/2000/svg"
     xmlns="http://www.w3.org/2000/svg"
     xmlns:xlink="http://www.w3.org/1999/xlink"
     width="128" height="128" version="1.1">
    <title>Moiosms Icon</title>
    <desc>This is shape (source) for Clarity vector icon theme for gtk</desc>
    <metadata>
        <rdf:RDF>
            <cc:Work rdf:about="">
                <dc:title>Moiosms Icon</dc:title>
                <dc:description>This is shape (source) for Clarity vector icon theme for gtk</dc:description>
                <dc:creator>
                    <cc:Agent>
                        <dc:title>Jakub Jankiewicz</dc:title>
                    </cc:Agent>
                </dc:creator>
                <dc:rights>
                    <cc:Agent>
                        <dc:title>Jakub Jankiewicz</dc:title>
                    </cc:Agent>
                </dc:rights>
                <dc:date>2010</dc:date>
                <dc:format>image/svg+xml</dc:format>
                <dc:type rdf:resource="http://purl.org/dc/dcmitype/StillImage" />
                <cc:license rdf:resource="http://creativecommons.org/licenses/by-sa/3.0/" />
             </cc:Work>
        </rdf:RDF>
    </metadata>
    <path d="m 64.014399,8.3737366 c -14.711477,0 -26.553145,4.7854264 -26.553145,10.7422404 l 0,6.191885 c 0,1.735819 1.033258,3.358588 2.82235,4.809523 -0.92729,0.56223 -1.803706,1.156091 -2.649555,1.785553 -6.421521,4.778801 -10.425423,11.44834 -10.425423,18.834875 l 0,42.335302 c 0,7.386535 4.003902,14.056105 10.425423,18.834875 6.421496,4.7788 15.289966,7.71827 25.08436,7.71827 l 2.591982,0 c 9.794393,0 18.662864,-2.93947 25.084385,-7.71827 6.421495,-4.77877 10.396594,-11.44834 10.396594,-18.834875 l 0,-42.335302 c 0,-7.386535 -3.975099,-14.056074 -10.396594,-18.834875 -0.840109,-0.625164 -1.729144,-1.226685 -2.649581,-1.785553 1.785325,-1.449721 2.82235,-3.075651 2.82235,-4.809523 l 0,-6.191885 c 0,-5.956814 -11.841642,-10.7422404 -26.553146,-10.7422404 z M 41.089982,30.722169 c 4.595843,3.195552 13.109088,5.356708 22.924417,5.356708 9.792321,0 18.292166,-2.144772 22.895619,-5.327909 1.005318,0.597072 2.001154,1.225346 2.908747,1.900776 6.240635,4.644185 10.051033,11.031875 10.051033,18.086069 l 0,42.335302 c 0,7.054195 -3.810398,13.441905 -10.051033,18.086095 -6.240634,4.64416 -14.898028,7.54548 -24.508374,7.54548 l -2.591982,0 c -9.610347,0 -18.29654,-2.90132 -24.537174,-7.54548 C 31.9406,106.51502 28.130202,100.12731 28.130202,93.073115 l 0,-42.335302 c 0,-7.054194 3.810398,-13.441884 10.051033,-18.086069 0.917833,-0.683041 1.889953,-1.326687 2.908747,-1.929575 z m 20.39006,18.978872 C 34.370457,49.615073 31.931726,62.459227 31.931726,62.459227 l 0.633608,36.488983 c 0,0 6.207183,15.96396 31.621861,15.63813 25.414704,-0.32584 32.25547,-16.934096 32.25547,-16.934096 L 96.097074,61.163261 c 0,0 -2.259388,-10.427142 -31.909879,-11.404622 -0.926556,-0.03059 -1.832633,-0.05487 -2.707153,-0.0574 z m 31.679459,12.095804 0,33.580234 c 0,0 -6.490067,8.458001 -28.972306,8.783851 -22.482214,0.32583 -29.001106,-8.46706 -29.001106,-8.46706 l 0.633584,-33.234643 c 0.651661,0.651662 6.862813,6.18286 28.367522,6.508702 21.504734,0.325794 28.972306,-7.171084 28.972306,-7.171084 z m -55.237459,12.470194 0,15.177322 3.830348,0 0,-11.577392 2.966346,11.577392 3.455934,0 2.966346,-11.577392 0,11.577392 3.830349,0 0,-15.177322 -6.134313,0 -2.390361,9.244655 -2.361563,-9.244655 -6.163086,0 z m 34.069821,0 0,2.879949 4.204739,0 0,-2.879949 -4.204739,0 z m -8.553448,3.945521 c -1.925073,2.5e-5 -3.447539,0.551382 -4.579128,1.641581 -1.13159,1.083296 -1.69918,2.441664 -1.69918,4.118341 0,1.800849 0.6774,3.266627 2.015971,4.377508 1.090199,0.896974 2.524749,1.35359 4.291137,1.35359 1.980244,0 3.518942,-0.536389 4.636701,-1.612783 1.124687,-1.083295 1.69918,-2.485456 1.699205,-4.175939 -2.5e-5,-1.504159 -0.478512,-2.773449 -1.382414,-3.801524 -1.124662,-1.276471 -2.781236,-1.900749 -4.982292,-1.900774 z m 21.254036,0 c -1.925073,2.5e-5 -3.476338,0.551382 -4.607927,1.641581 -1.131591,1.083296 -1.670356,2.441664 -1.670356,4.118341 0,1.800849 0.648577,3.266627 1.987147,4.377508 1.090173,0.896974 2.524775,1.35359 4.291136,1.35359 1.980245,0 3.518942,-0.536389 4.636727,-1.612783 1.124662,-1.083295 1.699155,-2.485456 1.69918,-4.175939 -2.5e-5,-1.504159 -0.449713,-2.773449 -1.353588,-3.801524 -1.124688,-1.276471 -2.781263,-1.900749 -4.982319,-1.900774 z m -12.700588,0.230343 0,11.001408 4.204739,0 0,-11.001408 -4.204739,0 z m -8.49585,2.649554 c 0.579575,2.6e-5 1.075458,0.250824 1.468762,0.719981 0.393277,0.46233 0.604783,1.1502 0.604783,2.102369 0,1.021172 -0.211632,1.784061 -0.604783,2.246366 -0.386375,0.46228 -0.890375,0.691182 -1.49756,0.691182 -0.600284,0 -1.09738,-0.250824 -1.497587,-0.719981 -0.393277,-0.469183 -0.575959,-1.180188 -0.575959,-2.159942 0,-0.966002 0.204806,-1.690786 0.604784,-2.159994 0.400155,-0.476084 0.883446,-0.719955 1.49756,-0.719981 z m 21.254036,0 c 0.5796,2.6e-5 1.046685,0.250824 1.439988,0.719981 0.393277,0.46233 0.604758,1.1502 0.604783,2.102369 -2.5e-5,1.021172 -0.211633,1.784061 -0.604783,2.246366 -0.386401,0.46228 -0.861601,0.691182 -1.468787,0.691182 -0.600308,0 -1.097379,-0.250824 -1.49756,-0.719981 -0.393303,-0.469183 -0.604809,-1.180188 -0.604809,-2.159942 0,-0.966002 0.204806,-1.690786 0.604809,-2.159994 0.400181,-0.476084 0.91227,-0.719955 1.526359,-0.719981 z" style="fill:#aaaaaa"/>
</svg>