<?xml version="1.0" encoding="UTF-8" standalone="no"?>
<svg xmlns:dc="http://purl.org/dc/elements/1.1/"
     xmlns:cc="http://creativecommons.org/ns#"
     xmlns:rdf="http://www.w3.org/1999/02/22-rdf-syntax-ns#"
     xmlns:svg="http://www.w3.org/2000/svg"
     xmlns="http://www.w3.org/2000/svg"
     xmlns:xlink="http://www.w3.org/1999/xlink"
     width="128" height="128" version="1.1">
    <title>Clarity Icon</title>
    <desc>This is shape (source) for Clarity vector icon theme for gtk</desc>
    <metadata>
        <rdf:RDF>
            <cc:Work rdf:about="">
                <dc:title>Clarity Icon</dc:title>
                <dc:description>This is shape (source) for Clarity vector icon theme for gtk</dc:description>
                <dc:creator>
                    <cc:Agent>
                        <dc:title>Jakub Jankiewicz</dc:title>
                    </cc:Agent>
                </dc:creator>
                <dc:rights>
                    <cc:Agent>
                        <dc:title>Jakub Jankiewicz</dc:title>
                    </cc:Agent>
                </dc:rights>
                <dc:date>2010</dc:date>
                <dc:format>image/svg+xml</dc:format>
                <dc:type rdf:resource="http://purl.org/dc/dcmitype/StillImage" />
                <cc:license rdf:resource="http://www.gnu.org/copyleft/gpl.html" />
             </cc:Work>
        </rdf:RDF>
    </metadata>
    <path d="M 27.46875 13.375 C 22.890634 13.375 19.1875 17.046884 19.1875 21.625 L 19.1875 27.25 L 16.25 27.25 C 14.330145 27.25 12.78125 28.767645 12.78125 30.6875 L 12.78125 53.625 C 12.78125 55.544855 14.330145 57.09375 16.25 57.09375 L 19.1875 57.09375 L 19.1875 112.8125 C 19.1875 117.39062 22.890634 121.0625 27.46875 121.0625 C 32.046866 121.0625 35.71875 117.39062 35.71875 112.8125 L 35.71875 57.09375 L 38.65625 57.09375 C 40.576105 57.09375 42.125 55.544855 42.125 53.625 L 42.125 30.6875 C 42.125 28.767645 40.576105 27.25 38.65625 27.25 L 35.71875 27.25 L 35.71875 21.625 C 35.71875 17.046884 32.046866 13.375 27.46875 13.375 z M 65.03125 13.375 C 60.453134 13.375 56.78125 17.046884 56.78125 21.625 L 56.78125 69.875 L 53.84375 69.875 C 51.923895 69.875 50.375 71.423895 50.375 73.34375 L 50.375 96.28125 C 50.375 98.201105 51.923895 99.75 53.84375 99.75 L 56.78125 99.75 L 56.78125 112.8125 C 56.78125 117.39062 60.453134 121.0625 65.03125 121.0625 C 69.609366 121.0625 73.3125 117.39062 73.3125 112.8125 L 73.3125 99.75 L 76.25 99.75 C 78.169855 99.75 79.71875 98.201105 79.71875 96.28125 L 79.71875 73.34375 C 79.71875 71.423895 78.169855 69.875 76.25 69.875 L 73.3125 69.875 L 73.3125 21.625 C 73.3125 17.046884 69.609366 13.375 65.03125 13.375 z M 102.625 13.375 C 98.046884 13.375 94.375 17.046884 94.375 21.625 L 94.375 41.09375 L 91.4375 41.09375 C 89.517645 41.09375 87.96875 42.642645 87.96875 44.5625 L 87.96875 67.5 C 87.96875 69.419855 89.517645 70.96875 91.4375 70.96875 L 94.375 70.96875 L 94.375 112.8125 C 94.375 117.39062 98.046884 121.0625 102.625 121.0625 C 107.20312 121.0625 110.90625 117.39062 110.90625 112.8125 L 110.90625 70.96875 L 113.8125 70.96875 C 115.73235 70.96875 117.28125 69.419855 117.28125 67.5 L 117.28125 44.5625 C 117.28125 42.642645 115.73235 41.09375 113.8125 41.09375 L 110.90625 41.09375 L 110.90625 21.625 C 110.90625 17.046884 107.20312 13.375 102.625 13.375 z " style="fill:#aaaaaa"/>
</svg>