<?xml version="1.0" encoding="UTF-8" standalone="no"?>
<svg xmlns:dc="http://purl.org/dc/elements/1.1/"
     xmlns:cc="http://creativecommons.org/ns#"
     xmlns:rdf="http://www.w3.org/1999/02/22-rdf-syntax-ns#"
     xmlns:svg="http://www.w3.org/2000/svg"
     xmlns="http://www.w3.org/2000/svg"
     xmlns:xlink="http://www.w3.org/1999/xlink"
     width="128" height="128" version="1.1">
    <title>MyPaint Icon</title>
    <desc>This is shape (source) for Clarity vector icon theme for gtk</desc>
    <metadata>
        <rdf:RDF>
            <cc:Work rdf:about="">
                <dc:title>MyPaint Icon</dc:title>
                <dc:description>This is shape (source) for Clarity vector icon theme for gtk</dc:description>
                <dc:creator>
                    <cc:Agent>
                        <dc:title>Jakub Jankiewicz</dc:title>
                    </cc:Agent>
                </dc:creator>
                <dc:rights>
                    <cc:Agent>
                        <dc:title>Jakub Jankiewicz</dc:title>
                    </cc:Agent>
                </dc:rights>
                <dc:date>2010</dc:date>
                <dc:format>image/svg+xml</dc:format>
                <dc:type rdf:resource="http://purl.org/dc/dcmitype/StillImage" />
                <cc:license rdf:resource="http://creativecommons.org/licenses/by-sa/3.0/" />
             </cc:Work>
        </rdf:RDF>
    </metadata>
    <path d="m 22.203126,11.206821 c -2.471757,0.249522 -4.375,2.335303 -4.375,4.875 l 0,71.875 c 0,2.709011 2.165989,4.90625 4.875,4.90625 l 14.90625,0 -11.1875,21.749999 c -0.628882,1.22283 -0.129075,2.1875 1.09375,2.1875 l 10.53125,0 c 1.222825,0 2.714869,-0.96467 3.34375,-2.1875 l 11.187499,-21.749999 5.875,0 0,16.874999 c 0,1.37506 0.96468,2.46875 2.1875,2.46875 l 6.71875,0 c 1.22283,0 2.1875,-1.09369 2.1875,-2.46875 l 0,-16.874999 5.90625,0 11.1875,21.749999 c 0.62888,1.22283 2.120929,2.1875 3.34375,2.1875 l 10.531245,0 c 1.22283,0 1.69138,-0.96467 1.0625,-2.1875 l -11.187495,-21.749999 14.906245,0 c 2.70901,0 4.875,-2.197239 4.875,-4.90625 l 0,-71.875 c 0,-2.709011 -2.16599,-4.875 -4.875,-4.875 l -82.593745,0 c -0.169313,0 -0.335216,-0.01663 -0.5,0 z m 7.375,9.3125 a 2.0002,2.0002 0 0 1 2.25,2 c 0,0 0.104451,13.108072 0.34375,26.84375 0.119649,6.867839 0.271904,13.89885 0.46875,19.5 0.08505,2.419988 0.181107,4.401581 0.28125,6.15625 0.186483,-0.492015 0.280546,-0.60732 0.46875,-1.15625 1.677598,-4.892993 3.503108,-11.956157 4.4375,-17.5625 1.898402,-11.390415 2.633174,-21.64279 3.8125,-28.71875 0.150378,-0.902268 0.280302,-1.53453 0.4375,-2.0625 0.0786,-0.263985 0.133528,-0.488349 0.375,-0.875 0.120735,-0.193326 0.279889,-0.491417 0.8125,-0.78125 0.53261,-0.289833 1.606875,-0.227325 2.124999,0.125 1.03625,0.704651 0.86791,1.073185 0.9375,1.34375 0.0696,0.270565 0.0976,0.503572 0.125,0.75 0.0548,0.492856 0.0811,1.048436 0.0937,1.71875 0.0506,2.681256 -0.164911,6.932977 -0.5625,10.3125 -0.39307,3.341108 -1.432395,10.478914 -2.437499,17.5625 -1.005104,7.083586 -1.979742,14.164873 -2.15625,16.8125 -0.08541,1.281136 -0.0057,2.609691 0.1875,3.625 0.107678,0.565998 0.182823,0.622546 0.3125,0.90625 0.488583,-0.515313 1.24787,-1.490177 2.21875,-3.59375 1.309518,-2.837283 3.092729,-8.008189 4.968749,-13.75 0.009,-0.03339 0.0222,-0.06034 0.0312,-0.09375 0.10207,-0.377344 0.2378,-0.653323 0.34375,-1.03125 4.23312,-13.075252 8.85455,-29.267049 9.875,-33.09375 0.19607,-0.735271 0.22602,-0.915618 0.4375,-1.4375 0.0264,-0.06524 0.0101,-0.14534 0.15625,-0.375 0.0366,-0.05741 0.10252,-0.11918 0.1875,-0.21875 0.085,-0.09957 0.46808,-0.40583 0.46875,-0.40625 6.7e-4,-4.2e-4 1.40571,-0.250095 1.40625,-0.25 5.5e-4,9.5e-5 1.280829,0.811893 1.28125,0.8125 4.2e-4,6.07e-4 0.27557,0.515218 0.3125,0.65625 0.037,0.141032 0.0238,0.20796 0.0312,0.28125 0.0151,0.146579 0.0332,0.221 0.0312,0.28125 -0.004,0.120508 -0.0246,0.19705 -0.0312,0.25 -0.0265,0.211788 -0.0508,0.321619 -0.0937,0.53125 -0.17166,0.838522 -0.56213,2.49145 -1.09375,4.59375 -1.063231,4.2046 -2.697591,10.144932 -4.28125,14.5 -0.79244,2.179207 -1.743791,5.416167 -2.6875,8.28125 -0.85313,2.757163 -1.705601,5.455539 -2.5625,8.0625 -1.48427,5.596858 -2.37769,11.046352 -1.9375,13.6875 0.25929,1.555715 0.6913,2.554926 0.9375,2.90625 0.0549,-0.03458 0.368449,-0.143395 0.90625,-0.78125 0.60791,-0.721003 1.347899,-1.88772 2.0625,-3.40625 3.001549,-6.378291 15.25356,-34.364775 17.999999,-40.25 0.661921,-1.41839 1.240521,-2.743838 1.750001,-3.8125 0.25474,-0.534331 0.49042,-1.000741 0.71875,-1.40625 0.22833,-0.405509 0.30302,-0.686163 0.96875,-1.21875 0.16644,-0.133147 0.37961,-0.325707 0.78125,-0.4375 0.40164,-0.111793 1.04408,-0.09505 1.53125,0.15625 0.97435,0.502607 1.04942,1.192468 1.125,1.53125 0.15115,0.677565 0.11023,1.073864 0.0625,1.6875 -0.0954,1.227272 -0.36072,3.042158 -0.84375,5.84375 -0.57982,3.362949 -1.63362,7.040538 -2.78125,10.71875 0.59148,-1.101942 1.27155,-2.496979 1.78125,-3.3125 0.51478,-0.823639 1.06719,-1.590768 1.625,-2.25 0.55781,-0.659232 0.8511,-1.333427 2.25,-1.65625 0.69945,-0.161412 1.97654,0.225024 2.46875,0.90625 0.49222,0.681226 0.50726,1.258233 0.53125,1.78125 0.048,1.046035 -0.15974,2.194521 -0.5625,3.90625 -1.0422,4.429363 -2.25965,7.50968 -3.03125,10.46875 0.36771,-0.583462 0.67314,-1.224574 1.1875,-1.6875 0.83221,-0.74899 2.31827,-1.181792 3.5,-0.8125 1.18174,0.369292 1.99399,1.133857 2.875,2.125 1.68872,1.899812 2.36306,3.311868 2.8125,3.96875 0.44945,0.656882 0.62925,0.902114 2.53125,1.59375 1.02776,0.373731 2.59478,0.295474 3.90625,0 1.31148,-0.295474 2.249995,-0.71875 2.249995,-0.71875 a 2.0005492,2.0005492 0 0 1 1.625,3.65625 c 0,0 -1.26322,0.584497 -2.968745,0.96875 -1.70552,0.384253 -3.95386,0.687234 -6.1875,-0.125 -2.31359,-0.841304 -3.67268,-1.961515 -4.46875,-3.125 -0.79607,-1.163485 -1.09159,-2.013197 -2.46875,-3.5625 -0.5037,-0.566669 -0.70494,-0.65983 -0.84375,-0.75 -0.31419,0.375131 -1.25978,2.040081 -2.34375,4.75 -0.5823,1.455761 -1.00728,2.489159 -1.40625,3.25 -0.19948,0.380421 -0.34517,0.697548 -0.71875,1.09375 -0.18679,0.198101 -0.4261,0.445353 -1,0.625 -0.5739,0.179647 -1.53356,0.01072 -2,-0.375 -0.93287,-0.771442 -0.80654,-1.240813 -0.875,-1.625 -0.0685,-0.384187 -0.0736,-0.758333 -0.0937,-1.1875 -0.0404,-0.858334 -0.0625,-1.939654 -0.0625,-3.28125 0,-4.129833 1.16858,-7.527367 2.375,-11.1875 -1.48314,2.950508 -3.10748,6.532145 -5,11.5 -1.57054,4.12266 -3.05275,7.197846 -4.3125,8.9375 -0.31494,0.434914 -0.596031,0.810303 -1.125,1.1875 -0.264481,0.188599 -0.62555,0.43125 -1.28125,0.46875 -0.6557,0.03749 -1.515631,-0.391717 -1.875,-0.875 -0.71873,-0.966566 -0.52944,-1.505338 -0.5,-2.0625 0.0294,-0.557162 0.12408,-1.141537 0.28125,-1.875 0.66275,-3.092846 2.65254,-8.228816 4.75,-14.1875 1.1993,-3.407104 2.375849,-6.987522 3.375,-10.46875 -4.515271,10.09028 -12.164731,27.385214 -14.71875,32.8125 -0.818341,1.738968 -1.65674,3.169911 -2.59375,4.28125 -0.93701,1.111339 -1.96059,2.000749 -3.40625,2.25 -1.44566,0.249251 -3.02408,-0.58036 -3.84375,-1.75 -0.69302,-0.988922 -1.0993,-2.258928 -1.40625,-3.75 -0.9814,1.962524 -1.92463,3.418783 -2.999999,4.34375 -0.638395,0.549109 -1.389427,0.99391 -2.3125,1.0625 -0.923073,0.06859 -1.853459,-0.341745 -2.4375,-0.875 -1.168081,-1.066509 -1.538589,-2.372709 -1.8125,-3.8125 -0.16839,-0.885137 -0.103521,-1.876431 -0.125,-2.84375 -0.116184,0.354054 -0.227819,0.818117 -0.34375,1.15625 -0.885759,2.583463 -1.671256,4.592401 -2.59375,6 -0.230625,0.3519 -0.465745,0.682563 -0.8125,1 -0.346755,0.317437 -0.886318,0.72766 -1.75,0.75 -0.863683,0.02234 -1.686137,-0.568359 -2.03125,-1.0625 -0.345114,-0.494141 -0.457588,-0.951632 -0.5625,-1.40625 -0.227509,-0.985873 -0.314994,-2.27464 -0.4375,-4.21875 -0.122506,-1.94411 -0.24457,-4.396548 -0.34375,-7.21875 -0.198366,-5.644403 -0.348877,-12.681782 -0.46875,-19.5625 -0.239746,-13.761437 -0.34375,-26.90625 -0.34375,-26.90625 a 2.0002,2.0002 0 0 1 1.75,-2.03125 z" style="fill:#aaaaaa"/>
</svg>