<?xml version="1.0" encoding="UTF-8" standalone="no"?>
<svg xmlns:dc="http://purl.org/dc/elements/1.1/"
     xmlns:cc="http://creativecommons.org/ns#"
     xmlns:rdf="http://www.w3.org/1999/02/22-rdf-syntax-ns#"
     xmlns:svg="http://www.w3.org/2000/svg"
     xmlns="http://www.w3.org/2000/svg"
     xmlns:xlink="http://www.w3.org/1999/xlink"
     width="128" height="128" version="1.1">
    <title>Nautilus Icon</title>
    <desc>This is shape (source) for Clarity vector icon theme for gtk</desc>
    <metadata>
        <rdf:RDF>
            <cc:Work rdf:about="">
                <dc:title>Nautilus Icon</dc:title>
                <dc:description>This is shape (source) for Clarity vector icon theme for gtk</dc:description>
                <dc:creator>
                    <cc:Agent>
                        <dc:title>Jakub Jankiewicz</dc:title>
                    </cc:Agent>
                </dc:creator>
                <dc:rights>
                    <cc:Agent>
                        <dc:title>Jakub Jankiewicz</dc:title>
                    </cc:Agent>
                </dc:rights>
                <dc:date>2010</dc:date>
                <dc:format>image/svg+xml</dc:format>
                <dc:type rdf:resource="http://purl.org/dc/dcmitype/StillImage" />
                <cc:license rdf:resource="http://www.gnu.org/copyleft/gpl.html" />
             </cc:Work>
        </rdf:RDF>
    </metadata>
    <path d="m 43.794501,88.946218 c 0,0 -5.675129,6.305699 -7.146459,7.987218 -1.471329,1.68152 -0.84076,3.573224 0.21019,5.254754 1.05095,1.68152 3.573229,2.73247 5.044559,3.99361 1.47133,1.26113 8.617788,-6.09551 9.668738,-6.936274 1.05095,-0.84076 1.05095,-0.63057 2.732469,0.21019 1.68152,0.840764 3.152849,1.471334 5.254749,2.942664 2.1019,1.47133 5.044559,1.68152 6.095509,1.68152 1.050949,0 0.630569,1.47133 0.630569,2.73247 0,1.26113 0,8.1974 0.42038,9.66873 0.42038,1.47133 3.993609,1.89171 5.885319,1.89171 1.89171,0 4.413989,0.21019 5.254749,-0.63057 0.84076,-0.84076 1.681519,-4.41399 2.101899,-7.14646 0.42038,-2.73247 0.63057,-5.04455 0.84076,-6.30569 0.21019,-1.26114 0.84076,-1.26114 2.31209,-1.47133 1.471329,-0.21019 7.987218,-2.942664 9.038168,-3.573234 1.050949,-0.63057 2.312089,-0.42038 3.573229,0.63057 1.261139,1.050954 5.885321,4.624184 7.146461,5.464944 1.26114,0.84076 3.57323,-0.63057 5.25474,-2.94266 1.68152,-2.31209 3.99361,-3.993614 3.78342,-5.464944 -0.21019,-1.471329 -5.04455,-6.515888 -6.0955,-7.987218 -1.05095,-1.47133 -1.89171,-3.152849 -1.26114,-4.624179 0.63057,-1.47133 1.47133,-2.101899 2.31209,-4.203799 0.84076,-2.101899 1.68151,-3.993609 1.68151,-5.254749 0,-1.261139 8.19741,-2.312089 10.08912,-3.152849 1.89171,-0.84076 2.31209,-3.993609 2.31209,-6.305699 0,-2.312089 0.84076,-3.783419 -0.42038,-5.464938 -1.26114,-1.68152 -10.08912,-1.89171 -11.14007,-2.1019 -1.05095,-0.21019 -1.47133,-1.891709 -1.8917,-3.573229 -0.42038,-1.68152 -1.05095,-5.675129 -1.47133,-6.936268 -0.42038,-1.26114 7.14645,-12.191018 7.77702,-13.872537 0.63057,-1.68152 -4.2038,-8.197408 -6.30569,-8.827978 -2.1019,-0.63057 -6.72608,3.363039 -7.987219,4.203799 -1.26114,0.84076 -3.993612,-0.63057 -5.675132,-2.52228 C 92.13819,24.417903 80.367552,10.965746 57.667037,9.7046059 34.966523,8.4434662 16.259617,19.373344 11.845628,22.736383 c -4.4139888,3.363039 -4.8343687,3.363039 -5.0445587,4.834369 -0.2101899,1.47133 2.942659,19.127286 10.7196877,27.114504 7.777028,7.987218 21.018995,15.974436 22.910704,16.815196 1.89171,0.84076 2.122702,1.022709 1.661502,2.962677 -0.63057,2.652398 -0.770696,10.869824 1.701538,14.483089 z" style="fill:#aaaaaa"/>
</svg>