<?xml version="1.0" encoding="UTF-8" standalone="no"?>
<svg xmlns:dc="http://purl.org/dc/elements/1.1/"
     xmlns:cc="http://creativecommons.org/ns#"
     xmlns:rdf="http://www.w3.org/1999/02/22-rdf-syntax-ns#"
     xmlns:svg="http://www.w3.org/2000/svg"
     xmlns="http://www.w3.org/2000/svg"
     xmlns:xlink="http://www.w3.org/1999/xlink"
     width="128" height="128" version="1.1">
    <title>Neverball Icon</title>
    <desc>This is shape (source) for Clarity vector icon theme for gtk</desc>
    <metadata>
        <rdf:RDF>
            <cc:Work rdf:about="">
                <dc:title>Neverball Icon</dc:title>
                <dc:description>This is shape (source) for Clarity vector icon theme for gtk</dc:description>
                <dc:creator>
                    <cc:Agent>
                        <dc:title>Jakub Jankiewicz</dc:title>
                    </cc:Agent>
                </dc:creator>
                <dc:rights>
                    <cc:Agent>
                        <dc:title>Jakub Jankiewicz</dc:title>
                    </cc:Agent>
                </dc:rights>
                <dc:date>2010</dc:date>
                <dc:format>image/svg+xml</dc:format>
                <dc:type rdf:resource="http://purl.org/dc/dcmitype/StillImage" />
                <cc:license rdf:resource="http://www.gnu.org/copyleft/gpl.html" />
             </cc:Work>
        </rdf:RDF>
    </metadata>
    <path d="M 65.653947,6.2862556 A 57.73781,57.734296 0 0 0 6.2621924,64.020549 a 57.73781,57.734296 0 0 0 115.4756176,0 A 57.73781,57.734296 0 0 0 65.653947,6.2862556 z m -6.014351,5.1118884 c -5.620897,5.292038 -4.77013,24.902767 -5.863997,38.339183 -12.522969,0.4453 -43.45854,8.371597 -42.100487,26.386375 C 5.2740832,50.034992 31.147213,14.960541 59.639596,11.398144 z m 8.720811,38.489532 C 89.913135,49.620683 118.09136,54.741846 114.4454,72.440134 115.41565,88.232701 95.759589,112.11698 70.164714,115.51533 60.630437,114.07789 51.85236,82.873226 54.978469,50.789774 58.765616,50.236733 63.386704,49.94929 68.360407,49.887676 z" style="fill:#aaaaaa"/>
</svg>