<?xml version="1.0" encoding="UTF-8" standalone="no"?>
<svg xmlns:dc="http://purl.org/dc/elements/1.1/"
     xmlns:cc="http://creativecommons.org/ns#"
     xmlns:rdf="http://www.w3.org/1999/02/22-rdf-syntax-ns#"
     xmlns:svg="http://www.w3.org/2000/svg"
     xmlns="http://www.w3.org/2000/svg"
     xmlns:xlink="http://www.w3.org/1999/xlink"
     width="128" height="128" version="1.1">
    <title>Wine Notepad Icon</title>
    <desc>This is shape (source) for Clarity vector icon theme for gtk</desc>
    <metadata>
        <rdf:RDF>
            <cc:Work rdf:about="">
                <dc:title>Wine Notepad Icon</dc:title>
                <dc:description>This is shape (source) for Clarity vector icon theme for gtk</dc:description>
                <dc:creator>
                    <cc:Agent>
                        <dc:title>Jakub Jankiewicz</dc:title>
                    </cc:Agent>
                </dc:creator>
                <dc:rights>
                    <cc:Agent>
                        <dc:title>Jakub Jankiewicz</dc:title>
                    </cc:Agent>
                </dc:rights>
                <dc:date>2010</dc:date>
                <dc:format>image/svg+xml</dc:format>
                <dc:type rdf:resource="http://purl.org/dc/dcmitype/StillImage" />
                <cc:license rdf:resource="http://www.gnu.org/copyleft/gpl.html" />
             </cc:Work>
        </rdf:RDF>
    </metadata>
    <path d="M 28.875 5.3125 C 27.597286 5.3125 26.5625 6.347286 26.5625 7.625 L 26.5625 20.96875 C 26.5625 22.246464 27.597286 23.28125 28.875 23.28125 L 32.5625 23.28125 C 33.840214 23.28125 34.84375 22.246464 34.84375 20.96875 L 34.84375 7.625 C 34.84375 6.347286 33.840214 5.3125 32.5625 5.3125 L 28.875 5.3125 z M 45.34375 5.3125 C 44.066036 5.3125 43.03125 6.347286 43.03125 7.625 L 43.03125 20.96875 C 43.03125 22.246464 44.066036 23.28125 45.34375 23.28125 L 49.03125 23.28125 C 50.308964 23.28125 51.34375 22.246464 51.34375 20.96875 L 51.34375 7.625 C 51.34375 6.347286 50.308964 5.3125 49.03125 5.3125 L 45.34375 5.3125 z M 61.78125 5.3125 C 60.50353 5.3125 59.46875 6.347286 59.46875 7.625 L 59.46875 20.96875 C 59.46875 22.246464 60.50353 23.28125 61.78125 23.28125 L 65.46875 23.28125 C 66.74647 23.28125 67.78125 22.246464 67.78125 20.96875 L 67.78125 7.625 C 67.78125 6.347286 66.74647 5.3125 65.46875 5.3125 L 61.78125 5.3125 z M 78.21875 5.3125 C 76.94104 5.3125 75.90625 6.347286 75.90625 7.625 L 75.90625 20.96875 C 75.90625 22.246464 76.94104 23.28125 78.21875 23.28125 L 81.9375 23.28125 C 83.21522 23.28125 84.25 22.246464 84.25 20.96875 L 84.25 7.625 C 84.25 6.347286 83.21522 5.3125 81.9375 5.3125 L 78.21875 5.3125 z M 24 13.15625 C 20.534935 13.282161 17.78125 16.096847 17.78125 19.59375 L 17.78125 102.625 C 17.78125 106.2026 20.672401 109.09375 24.25 109.09375 L 58.8125 109.09375 C 58.8201 109.07185 58.8358 109.05305 58.84375 109.03125 C 59.649164 106.82113 61.538219 105.74816 62.875 105.3125 C 64.084737 104.91825 65.281108 104.81001 66.4375 104.8125 C 68.335266 104.8165 70.415403 105.22571 72.5625 105.6875 C 72.65772 105.6855 72.718573 105.7586 72.96875 105.53125 C 73.319095 105.2129 74.143422 104.18254 75.09375 101.78125 C 76.480727 98.276619 76.618227 96.597528 76.5 95.5625 C 76.498871 95.552616 76.501204 95.541129 76.5 95.53125 L 31.5 95.53125 C 30.66734 95.53125 30 94.863914 30 94.03125 L 30 91.75 C 30 90.91734 30.66734 90.25 31.5 90.25 L 74.28125 90.25 C 73.522316 88.406979 72.861338 86.096088 72.5625 83.25 L 31.5 83.25 C 30.66734 83.25 30 82.58266 30 81.75 L 30 79.5 C 30 78.66734 30.66734 78 31.5 78 L 72.4375 78 C 72.535888 75.879851 72.82904 73.541554 73.34375 71 L 31.5 71 C 30.66734 71 30 70.33266 30 69.5 L 30 67.25 C 30 66.41734 30.66734 65.75 31.5 65.75 L 74.5625 65.75 C 75.771154 60.621151 76.861124 56.253063 77.8125 52.875 C 78.406281 50.766652 78.933661 49.002275 79.4375 47.59375 C 79.852942 46.432345 80.253665 45.033246 81.46875 43.6875 C 83.80195 41.10339 87.055002 40.963107 89.53125 40.96875 C 90.62995 40.97125 91.78141 41.05107 92.96875 41.1875 L 92.96875 19.59375 C 92.96875 16.105733 90.23388 13.295541 86.78125 13.15625 L 86.78125 22.59375 C 86.78125 24.657749 85.1265 26.3125 83.0625 26.3125 L 77.09375 26.3125 C 75.02975 26.3125 73.375 24.657749 73.375 22.59375 L 73.375 13.15625 L 70.34375 13.15625 L 70.34375 22.59375 C 70.34375 24.657749 68.65775 26.3125 66.59375 26.3125 L 60.625 26.3125 C 58.560998 26.3125 56.90625 24.657749 56.90625 22.59375 L 56.90625 13.15625 L 53.875 13.15625 L 53.875 22.59375 C 53.875 24.657749 52.188999 26.3125 50.125 26.3125 L 44.1875 26.3125 C 42.1235 26.3125 40.46875 24.657749 40.46875 22.59375 L 40.46875 13.15625 L 37.4375 13.15625 L 37.4375 22.59375 C 37.4375 24.657749 35.751499 26.3125 33.6875 26.3125 L 27.75 26.3125 C 25.686 26.3125 24 24.657749 24 22.59375 L 24 13.15625 z M 89.53125 45.21875 C 87.313188 45.21365 85.553666 45.533966 84.625 46.5625 C 84.188085 47.046397 83.882429 47.818663 83.4375 49.0625 C 82.992571 50.306337 82.485882 51.973141 81.90625 54.03125 C 80.746985 58.147469 79.339979 63.80882 77.78125 70.65625 C 75.510138 80.607251 77.095029 86.46919 78.6875 89.65625 C 79.67468 91.631937 80.496995 93.152381 80.71875 95.09375 C 80.940505 97.035119 80.594538 99.472575 79.0625 103.34375 C 77.959227 106.1315 76.844799 107.74947 75.8125 108.6875 C 74.813763 109.59503 73.894995 109.8985 72.9375 110.03125 C 70.385356 109.42297 68.160385 109.09747 66.4375 109.09375 C 65.564478 109.09175 64.794921 109.17705 64.1875 109.375 C 63.580079 109.57296 63.083618 109.92754 62.875 110.5 C 62.589601 111.28318 62.95731 112.06841 63.59375 112.8125 C 64.230188 113.55659 65.192427 114.3251 66.40625 115.125 C 68.833896 116.72481 72.323213 118.40657 76.3125 119.84375 C 80.300731 121.28055 84.024137 122.20498 86.90625 122.53125 C 88.347307 122.69439 89.59926 122.72519 90.5625 122.5625 C 91.52574 122.39991 92.308917 122.03164 92.59375 121.25 C 92.802466 120.67723 92.64784 120.07888 92.3125 119.53125 C 91.977157 118.98362 91.451197 118.44097 90.78125 117.875 C 89.458816 116.75781 87.524343 115.53879 85.15625 114.375 C 84.132827 113.32469 83.247713 112.48857 82.78125 111.1875 C 82.302112 109.85108 82.218468 107.93176 83.03125 104.65625 C 84.630238 98.212376 86.549108 96.310747 88.84375 94.84375 C 91.138392 93.376753 93.981734 92.379983 96.96875 88.21875 C 101.96281 81.261499 103.30451 75.854837 106.15625 67.8125 C 107.67184 63.538321 108.73759 60.416788 109.40625 58.25 C 109.74058 57.166606 109.96931 56.337881 110.09375 55.6875 C 110.21819 55.037119 110.33843 54.612325 110.09375 54.125 C 108.65023 51.249947 105.12709 49.100911 101.1875 47.59375 C 97.247912 46.086589 92.854385 45.226405 89.53125 45.21875 z M 89.96875 48.1875 C 92.285826 48.20782 95.309 48.762784 97.71875 49.625 C 100.34771 50.565652 102.84379 51.685806 104.625 52.75 C 105.5156 53.282097 106.21943 53.776816 106.65625 54.21875 C 107.09307 54.660684 107.20372 55.001947 107.1875 55.09375 C 106.5706 58.585834 105.39047 61.292537 104.8125 62.78125 C 103.52133 61.93487 102.06542 61.92114 100.6875 62.375 C 99.060402 62.910936 97.40565 63.9277 95.625 64.6875 C 93.844347 65.4473 91.996821 65.953734 89.9375 65.5625 C 87.93629 65.182306 85.68293 63.918243 83.15625 61.0625 C 83.256695 60.678786 85.166051 53.38398 86.53125 49.03125 C 86.57499 48.891787 86.82303 48.619246 87.4375 48.4375 C 88.05197 48.255754 88.947229 48.178544 89.96875 48.1875 z M 31.5 53.46875 L 60.84375 53.46875 C 61.67641 53.46875 62.34375 54.16734 62.34375 55 L 62.34375 57.25 C 62.34375 58.08266 61.67641 58.75 60.84375 58.75 L 31.5 58.75 C 30.66734 58.75 30 58.08266 30 57.25 L 30 55 C 30 54.16734 30.66734 53.46875 31.5 53.46875 z " style="fill:#aaaaaa"/>
</svg>