<?xml version="1.0" encoding="UTF-8" standalone="no"?>
<svg xmlns:dc="http://purl.org/dc/elements/1.1/"
     xmlns:cc="http://creativecommons.org/ns#"
     xmlns:rdf="http://www.w3.org/1999/02/22-rdf-syntax-ns#"
     xmlns:svg="http://www.w3.org/2000/svg"
     xmlns="http://www.w3.org/2000/svg"
     xmlns:xlink="http://www.w3.org/1999/xlink"
     width="128" height="128" version="1.1">
    <title>Nvidia Logo</title>
    <desc>This is shape (source) for Clarity vector icon theme for gtk</desc>
    <metadata>
        <rdf:RDF>
            <cc:Work rdf:about="">
                <dc:title>Nvidia Logo</dc:title>
                <dc:description>This is shape (source) for Clarity vector icon theme for gtk</dc:description>
                <dc:creator>
                    <cc:Agent>
                        <dc:title>Jakub Jankiewicz</dc:title>
                    </cc:Agent>
                </dc:creator>
                <dc:rights>
                    <cc:Agent>
                        <dc:title>Jakub Jankiewicz</dc:title>
                    </cc:Agent>
                </dc:rights>
                <dc:date>2010</dc:date>
                <dc:format>image/svg+xml</dc:format>
                <dc:type rdf:resource="http://purl.org/dc/dcmitype/StillImage" />
                <cc:license rdf:resource="http://creativecommons.org/licenses/by-sa/3.0/" />
             </cc:Work>
        </rdf:RDF>
    </metadata>
    <path d="m 19.777894,58.887563 c 0,0 10.05027,-14.828437 30.117316,-16.362058 l 0,-5.380182 c -22.2268,1.785057 -41.4742019,20.61011 -41.4742019,20.61011 0,0 10.9013539,31.514726 41.4742019,34.400204 l 0,-5.718258 C 27.458955,83.614426 19.777894,58.887563 19.777894,58.887563 z m 30.117316,16.177165 0,5.236824 C 32.938729,77.278522 28.232018,59.651693 28.232018,59.651693 c 0,0 8.141505,-9.019072 21.663192,-10.481238 l 0,5.746393 c -0.01032,0 -0.01741,-0.0031 -0.0259,-0.0031 -7.09691,-0.851665 -12.640994,5.777655 -12.640994,5.777655 0,0 3.106991,11.16141 12.666896,14.373351 m 0,-47.841948 0,9.922543 c 0.652482,-0.05047 1.304964,-0.09245 1.961018,-0.114779 25.269481,-0.851665 41.734256,20.724887 41.734256,20.724887 0,0 -18.910353,22.994504 -38.611635,22.994504 -1.805601,0 -3.495979,-0.167475 -5.083639,-0.448385 l 0,6.135827 c 1.357662,0.172387 2.765343,0.273767 4.234208,0.273767 18.333347,0 31.59154,-9.362955 44.429483,-20.444422 2.128489,1.704667 10.842539,5.851342 12.633849,7.667216 -12.206453,10.219531 -40.654381,18.457501 -56.782421,18.457501 -1.554612,0 -3.047594,-0.09424 -4.515119,-0.235803 l 0,8.6216 69.68378,0 0,-73.554458 z m 0,21.947675 0,-6.64495 c 0.645782,-0.04511 1.296477,-0.07995 1.961018,-0.100929 18.171232,-0.570753 30.0932,15.615345 30.0932,15.615345 0,0 -12.876351,17.883175 -26.682522,17.883175 -1.98692,0 -3.768404,-0.319318 -5.371696,-0.858364 l 0,-20.147881 c 7.074133,0.854792 8.497892,3.979647 12.750856,11.06941 l 9.458973,-7.976263 c 0,0 -6.904871,-9.055693 -18.544589,-9.055693 -1.266109,0 -2.476839,0.08888 -3.66524,0.216154" style="fill:#aaaaaa"/>
</svg>