<?xml version="1.0" encoding="UTF-8" standalone="no"?>
<svg xmlns:dc="http://purl.org/dc/elements/1.1/"
     xmlns:cc="http://creativecommons.org/ns#"
     xmlns:rdf="http://www.w3.org/1999/02/22-rdf-syntax-ns#"
     xmlns:svg="http://www.w3.org/2000/svg"
     xmlns="http://www.w3.org/2000/svg"
     xmlns:xlink="http://www.w3.org/1999/xlink"
     width="128" height="128" version="1.1">
    <title>NxClient Logo</title>
    <desc>This is shape (source) for Clarity vector icon theme for gtk</desc>
    <metadata>
        <rdf:RDF>
            <cc:Work rdf:about="">
                <dc:title>NxClient Logo</dc:title>
                <dc:description>This is shape (source) for Clarity vector icon theme for gtk</dc:description>
                <dc:creator>
                    <cc:Agent>
                        <dc:title>Jakub Jankiewicz</dc:title>
                    </cc:Agent>
                </dc:creator>
                <dc:rights>
                    <cc:Agent>
                        <dc:title>Jakub Jankiewicz</dc:title>
                    </cc:Agent>
                </dc:rights>
                <dc:date>2010</dc:date>
                <dc:format>image/svg+xml</dc:format>
                <dc:type rdf:resource="http://purl.org/dc/dcmitype/StillImage" />
                <cc:license rdf:resource="http://www.gnu.org/copyleft/gpl.html" />
             </cc:Work>
        </rdf:RDF>
    </metadata>
    <path d="M 113.17374,10.873385 14.747201,21.916779 c -3.55216,0 -6.4036549,2.845145 -6.4036549,6.389394 l 0,82.352167 c 0,3.54425 2.8514949,6.46828 6.4036549,6.46828 L 113.17374,106.1621 c 3.55216,0 6.48271,-2.92402 6.48271,-6.468273 l 0,-82.35217 c 0,-3.544246 -2.93055,-6.468272 -6.48271,-6.468272 z m -9.24972,11.595562 c 2.82521,0 5.05968,2.229496 5.05968,5.048412 l 0,65.629314 c 0,2.818913 -2.23447,5.048409 -5.05968,5.048409 l -78.425004,8.755838 c -2.825208,0 -5.059678,-2.30838 -5.059678,-5.12729 l 0,-65.471558 c 0,-2.818913 2.23447,-5.12729 5.059678,-5.12729 l 78.425004,-8.755835 z m -6.245541,7.572614 -41.663283,5.837224 c -3.303357,0.486452 -6.006864,3.609857 -6.008367,6.941561 l 0,48.433175 c 0,3.675896 3.352014,7.020439 7.036114,7.020439 3.684101,0 7.036114,-3.344543 7.036114,-7.020439 l 0,-42.359307 7.510459,-1.025458 0,39.913983 c 0,3.675896 3.352014,7.020439 7.036115,7.020439 3.6841,0 7.036114,-3.344543 7.036114,-7.020439 l 0,-41.886018 5.138735,-0.709933 0,39.519576 c 0,3.675896 3.352014,7.020439 7.036114,7.020439 3.684096,0 7.036116,-3.344543 7.036116,-7.020439 l 0,-47.565478 c 0.0435,-3.755356 -3.4312,-7.184241 -7.194231,-7.099325 z m -62.139166,9.150243 c -4.157684,0 -6.957056,3.239959 -6.957056,7.178205 l 0,31.473674 c 0,3.675896 3.352013,7.020439 7.036114,7.020439 3.6841,0 7.036114,-3.344543 7.036114,-7.020439 l 0,-31.473674 c 0,-3.796287 -2.957488,-7.178205 -7.115172,-7.178205 z m 0.158115,49.221986 c -3.885276,0 -7.036114,3.14382 -7.036114,7.020444 0,3.876621 3.150838,7.020446 7.036114,7.020446 3.885276,0 7.036114,-3.143825 7.036114,-7.020446 0,-3.876624 -3.150838,-7.020444 -7.036114,-7.020444 z" style="fill:#aaaaaa"/>
</svg>