<?xml version="1.0" encoding="UTF-8" standalone="no"?>
<svg xmlns:dc="http://purl.org/dc/elements/1.1/"
     xmlns:cc="http://creativecommons.org/ns#"
     xmlns:rdf="http://www.w3.org/1999/02/22-rdf-syntax-ns#"
     xmlns:svg="http://www.w3.org/2000/svg"
     xmlns="http://www.w3.org/2000/svg"
     xmlns:xlink="http://www.w3.org/1999/xlink"
     width="128" height="128" version="1.1">
    <title>Remote Terminal Icon</title>
    <desc>This is shape (source) for Clarity vector icon theme for gtk</desc>
    <metadata>
        <rdf:RDF>
            <cc:Work rdf:about="">
                <dc:title>Remote Terminal Icon</dc:title>
                <dc:description>This is shape (source) for Clarity vector icon theme for gtk</dc:description>
                <dc:creator>
                    <cc:Agent>
                        <dc:title>Jakub Jankiewicz</dc:title>
                    </cc:Agent>
                </dc:creator>
                <dc:rights>
                    <cc:Agent>
                        <dc:title>Jakub Jankiewicz</dc:title>
                    </cc:Agent>
                </dc:rights>
                <dc:date>2010</dc:date>
                <dc:format>image/svg+xml</dc:format>
                <dc:type rdf:resource="http://purl.org/dc/dcmitype/StillImage" />
                <cc:license rdf:resource="http://creativecommons.org/licenses/by-sa/3.0/" />
             </cc:Work>
        </rdf:RDF>
    </metadata>
    <path d="M 20.25 10.84375 C 16.28536 10.84375 13.09375 14.035364 13.09375 18 L 13.09375 89.03125 C 13.09375 92.995888 16.28536 96.15625 20.25 96.15625 L 58.15625 96.15625 L 58.15625 105.25 L 52.21875 105.25 C 50.78024 105.25 49.625 106.40524 49.625 107.84375 L 49.625 112.65625 C 49.625 114.09476 50.78024 115.25 52.21875 115.25 L 75.78125 115.25 C 77.21976 115.25 78.375 114.09476 78.375 112.65625 L 78.375 107.84375 C 78.375 106.40524 77.21976 105.25 75.78125 105.25 L 69.84375 105.25 L 69.84375 96.15625 L 107.78125 96.15625 C 111.74589 96.15625 114.90625 92.995888 114.90625 89.03125 L 114.90625 18 C 114.90625 14.035364 111.74589 10.84375 107.78125 10.84375 L 20.25 10.84375 z M 21.34375 21.3125 L 106.6875 21.3125 L 106.6875 85.71875 L 21.34375 85.71875 L 21.34375 21.3125 z M 32.90625 30.65625 L 32.90625 38.40625 L 52.3125 46 L 32.90625 53.625 L 32.90625 61.46875 L 60.75 49.34375 L 60.75 42.6875 L 32.90625 30.65625 z M 62.84375 72.25 L 62.84375 77.28125 L 95.1875 77.28125 L 95.1875 72.25 L 62.84375 72.25 z M 7.75 107 L 7.75 113.5 L 47.34375 113.5 C 47.34265 113.4564 47.34375 113.4189 47.34375 113.375 L 47.34375 107.9375 C 47.34375 107.61776 47.3816 107.30309 47.4375 107 L 7.75 107 z M 80.5625 107 C 80.6184 107.30309 80.65625 107.61776 80.65625 107.9375 L 80.65625 113.375 C 80.65625 113.4189 80.65735 113.4564 80.65625 113.5 L 120.25 113.5 L 120.25 107 L 80.5625 107 z " style="fill:#aaaaaa"/>
</svg>