<?xml version="1.0" encoding="UTF-8" standalone="no"?>
<svg xmlns:dc="http://purl.org/dc/elements/1.1/"
     xmlns:cc="http://creativecommons.org/ns#"
     xmlns:rdf="http://www.w3.org/1999/02/22-rdf-syntax-ns#"
     xmlns:svg="http://www.w3.org/2000/svg"
     xmlns="http://www.w3.org/2000/svg"
     xmlns:xlink="http://www.w3.org/1999/xlink"
     width="128" height="128" version="1.1">
    <title>OBS Logo</title>
    <desc>This is shape (source) for Clarity vector icon theme for gtk</desc>
    <metadata>
        <rdf:RDF>
            <cc:Work rdf:about="">
                <dc:title>OBS Logo</dc:title>
                <dc:description>This is shape (source) for Clarity vector icon theme for gtk</dc:description>
                <dc:creator>
                    <cc:Agent>
                        <dc:title>Jakub Jankiewicz</dc:title>
                    </cc:Agent>
                </dc:creator>
                <dc:rights>
                    <cc:Agent>
                        <dc:title>Jakub Jankiewicz</dc:title>
                    </cc:Agent>
                </dc:rights>
                <dc:date>2010</dc:date>
                <dc:format>image/svg+xml</dc:format>
                <dc:type rdf:resource="http://purl.org/dc/dcmitype/StillImage" />
                <cc:license rdf:resource="http://creativecommons.org/licenses/by-sa/3.0/" />
             </cc:Work>
        </rdf:RDF>
    </metadata>
    <path d="M 63.999995,9.144915 A 54.855194,54.855194 0 0 0 9.144734,64.000174 54.855194,54.855194 0 0 0 63.999995,118.85509 54.855194,54.855194 0 0 0 118.85527,64.000174 54.855194,54.855194 0 0 0 63.999995,9.144915 Z m -12.612402,5.010574 c -0.339645,0.218234 -0.673223,0.445502 -1.000564,0.681722 -0.634954,0.458201 -1.251334,0.942532 -1.839066,1.460333 -0.577183,0.508093 -1.130691,1.041021 -1.660445,1.598791 -0.524846,0.552594 -1.022089,1.132694 -1.490278,1.734075 -0.431568,0.551778 -0.838239,1.121357 -1.220054,1.708359 -0.413989,0.636463 -0.801721,1.292025 -1.151707,1.965899 -0.332342,0.639897 -0.640423,1.291866 -0.916715,1.958146 -0.266549,0.640842 -0.504092,1.291724 -0.712374,1.952512 -0.214644,0.678928 -0.398838,1.36563 -0.552424,2.060318 -0.149611,0.676711 -0.270701,1.361741 -0.361472,2.049751 -0.0921,0.698112 -0.151186,1.399318 -0.185668,2.102593 a 24.163173,24.163173 0 0 0 6.061168,17.143478 24.627978,24.627978 0 0 0 5.455896,4.588508 24.202132,24.202132 0 0 0 33.676407,-8.558353 c 0.346372,0.0156 0.692362,0.03717 1.03791,0.06483 a 29.500182,29.500182 0 0 1 11.655177,3.43821 29.840921,29.840921 0 0 1 9.111486,7.589844 29.607412,29.607412 0 0 1 6.27748,14.690692 25.141293,25.141293 0 0 0 -0.9685,-2.960476 24.320255,24.320255 0 0 0 -1.22287,-2.595129 c -0.32906,-0.602421 -0.68547,-1.190428 -1.06257,-1.763316 -0.3671,-0.557676 -0.76055,-1.09855 -1.17356,-1.623102 -0.37026,-0.47155 -0.7579,-0.927956 -1.16262,-1.369082 -0.40547,-0.443723 -0.82674,-0.871446 -1.2641,-1.283116 -0.41079,-0.386672 -0.83312,-0.761881 -1.27078,-1.117889 -0.42404,-0.345694 -0.85828,-0.678039 -1.30285,-0.99704 -0.43104,-0.309292 -0.87466,-0.601699 -1.32575,-0.880779 -0.48057,-0.296722 -0.97055,-0.576253 -1.46984,-0.838856 -0.49984,-0.263652 -1.00847,-0.508617 -1.525874,-0.734565 -0.50757,-0.222807 -1.02226,-0.42786 -1.543828,-0.615138 -0.514543,-0.184421 -1.034534,-0.351208 -1.560034,-0.500284 -0.536468,-0.15138 -1.077011,-0.284461 -1.622045,-0.399522 -0.556771,-0.116862 -1.116843,-0.213661 -1.679824,-0.290653 -0.568651,-0.07676 -1.138969,-0.13422 -1.711174,-0.172285 -0.593319,-0.03851 -1.187149,-0.05591 -1.78129,-0.05179 a 24.18255,24.18255 0 0 0 -21.025249,12.518691 24.03684,24.03684 0 0 0 -2.594422,7.198075 24.40038,24.40038 0 0 0 -0.005,8.986418 24.053579,24.053579 0 0 0 1.134796,4.052984 c 0.244877,0.649132 0.51684,1.286065 0.816306,1.910941 0.14907,0.311034 0.304979,0.618782 0.467165,0.923057 a 1.0318315,1.0318315 0 0 1 0.127537,0.236037 c 0.0093,0.05342 -0.06212,0.133171 -0.09407,0.183568 -0.08231,0.129823 -0.165828,0.259008 -0.250141,0.387537 a 29.886989,29.886989 0 0 1 -7.255856,7.661732 29.581793,29.581793 0 0 1 -13.200057,5.452355 30.007747,30.007747 0 0 1 -8.066878,0.0969 29.469315,29.469315 0 0 1 -8.326532,-2.30446 c 0.589245,0.18708 1.185102,0.35297 1.786925,0.49429 a 24.666708,24.666708 0 0 0 2.818492,0.48971 24.277455,24.277455 0 0 0 15.080697,-3.218355 24.560546,24.560546 0 0 0 6.046412,-5.07542 24.142158,24.142158 0 0 0 5.60739,-12.372474 24.45568,24.45568 0 0 0 -0.07786,-7.308706 24.242811,24.242811 0 0 0 -21.641442,-20.208593 c -0.576701,-0.05348 -1.154466,-0.0865 -1.733022,-0.099 -0.313126,-0.0067 -0.626463,-0.0082 -0.939615,-0.0026 -0.06014,0.0013 -0.0699,0.0083 -0.109216,-0.03524 a 0.55881015,0.55881015 0 0 1 -0.05708,-0.111206 c -0.03159,-0.06198 -0.06327,-0.124171 -0.09442,-0.186371 -0.06858,-0.136957 -0.13613,-0.274567 -0.202579,-0.41256 A 29.686775,29.686775 0 0 1 51.387593,14.155489 Z" style="fill:#aaaaaa"/>
</svg>