<?xml version="1.0" encoding="UTF-8" standalone="no"?>
<svg xmlns:dc="http://purl.org/dc/elements/1.1/"
     xmlns:cc="http://creativecommons.org/ns#"
     xmlns:rdf="http://www.w3.org/1999/02/22-rdf-syntax-ns#"
     xmlns:svg="http://www.w3.org/2000/svg"
     xmlns="http://www.w3.org/2000/svg"
     xmlns:xlink="http://www.w3.org/1999/xlink"
     width="128" height="128" version="1.1">
    <title>Onboard Icon</title>
    <desc>This is shape (source) for Clarity vector icon theme for gtk</desc>
    <metadata>
        <rdf:RDF>
            <cc:Work rdf:about="">
                <dc:title>Onboard Icon</dc:title>
                <dc:description>This is shape (source) for Clarity vector icon theme for gtk</dc:description>
                <dc:creator>
                    <cc:Agent>
                        <dc:title>Jakub Jankiewicz</dc:title>
                    </cc:Agent>
                </dc:creator>
                <dc:rights>
                    <cc:Agent>
                        <dc:title>Jakub Jankiewicz</dc:title>
                    </cc:Agent>
                </dc:rights>
                <dc:date>2010</dc:date>
                <dc:format>image/svg+xml</dc:format>
                <dc:type rdf:resource="http://purl.org/dc/dcmitype/StillImage" />
                <cc:license rdf:resource="http://www.gnu.org/copyleft/gpl.html" />
             </cc:Work>
        </rdf:RDF>
    </metadata>
    <path d="m 20.744462,10.932504 c -5.346205,0 -9.811958,4.465758 -9.811958,9.811958 l 0,34.687349 c 0,3.702872 2.158118,6.921688 5.25147,8.568189 -3.093352,1.646501 -5.25147,4.865317 -5.25147,8.568189 l 0,34.687351 c 0,5.3462 4.465748,9.81196 9.811958,9.81196 l 34.687349,0 c 3.702877,0 6.92169,-2.15812 8.568189,-5.25147 1.646499,3.09335 4.86531,5.25147 8.568189,5.25147 l 34.687351,0 c 5.34621,0 9.81196,-4.46576 9.81196,-9.81196 l 0,-34.687351 c 0,-3.702872 -2.15812,-6.921688 -5.25147,-8.568189 3.09335,-1.646501 5.25147,-4.865317 5.25147,-8.568189 l 0,-34.687349 c 0,-5.3462 -4.46575,-9.811958 -9.81196,-9.811958 l -34.687351,0 c -3.702877,0 -6.92169,2.158115 -8.568189,5.25147 -1.646499,-3.093355 -4.865312,-5.25147 -8.568189,-5.25147 l -34.687349,0 z m 16.72179,6.633437 c 6.028624,3.9e-5 10.901096,1.775359 14.510643,5.389668 3.609471,3.597245 5.389627,8.446789 5.389668,14.510643 -4.3e-5,6.046764 -1.780195,10.896306 -5.389668,14.510643 -3.609547,3.597219 -8.482019,5.389668 -14.510643,5.389668 -6.047869,0 -10.881944,-1.792449 -14.510643,-5.389668 -3.609519,-3.597206 -5.38967,-8.44675 -5.389668,-14.510643 -2e-6,-6.063854 1.780152,-10.913398 5.389668,-14.510643 3.628699,-3.614309 8.462772,-5.389629 14.510643,-5.389668 z m 35.101937,2.211144 34.687351,0 c 0.59928,0 0.96737,0.368074 0.96737,0.967377 l 0,34.687349 c 0,0.599299 -0.36809,0.898279 -0.96737,0.898279 l -34.687351,0 c -0.599284,0 -0.898279,-0.298975 -0.898279,-0.898279 l 0,-34.687349 c 0,-0.599303 0.298999,-0.967377 0.898279,-0.967377 z m -35.101937,2.003853 c -4.223917,3.4e-5 -7.523331,1.405775 -10.019254,4.214997 -2.476749,2.809282 -3.731318,6.622664 -3.731308,11.470317 -10e-6,4.830563 1.254559,8.661074 3.731308,11.470317 2.495926,2.809259 5.795337,4.215002 10.019254,4.214997 4.223869,5e-6 7.561682,-1.405736 10.019254,-4.214997 2.476706,-2.809243 3.73127,-6.639754 3.731309,-11.470317 -4.1e-5,-4.847653 -1.254605,-8.661035 -3.731309,-11.470317 -2.45757,-2.809222 -5.795385,-4.214963 -10.019254,-4.214997 z M 64,59.992299 C 64.915786,61.701492 66.298508,63.084214 68.007701,64 66.298508,64.915786 64.915786,66.298508 64,68.007701 63.084214,66.298508 61.701492,64.915786 59.992299,64 61.701492,63.084214 63.084214,61.701492 64,59.992299 z m 6.633437,10.641138 19.416622,0 c 5.787788,4.1e-5 10.204001,0.850554 13.335971,2.556638 3.1319,1.706156 4.69864,4.109689 4.69869,7.25532 -5e-5,2.434809 -0.81494,4.364744 -2.41845,5.804257 -1.60359,1.439562 -3.94118,2.339416 -7.048022,2.694835 3.733232,0.56873 6.651792,1.780376 8.706382,3.593111 2.07956,1.795001 3.10938,4.070287 3.10943,6.771635 -4e-5,3.554427 -1.70577,6.285537 -5.11328,8.222697 -3.40758,1.93716 -8.221746,2.90213 -14.51064,2.90213 l -20.176703,0 0,-39.800623 z m -49.888975,1.036476 34.687349,0 c 0.599284,0 0.898276,0.298972 0.898276,0.898276 l 0,34.687351 c 0,0.5993 -0.298996,0.96737 -0.898276,0.96737 l -34.687349,0 c -0.599277,0 -0.967374,-0.36807 -0.967374,-0.96737 l 0,-34.687351 c 0,-0.599308 0.368095,-0.898276 0.967374,-0.898276 z m 57.489789,3.385815 0,12.023104 11.193925,0 c 3.708176,2.2e-5 6.487769,-0.542671 8.291796,-1.520162 1.829015,-0.995211 2.763888,-2.465342 2.763928,-4.491389 -4e-5,-2.008219 -0.934916,-3.496118 -2.763928,-4.491389 -1.804025,-0.995202 -4.583616,-1.520128 -8.291796,-1.520164 l -11.193925,0 z m 0,16.376298 0,14.579744 12.1613,0 c 4.084016,0 7.097514,-0.60582 9.051877,-1.79656 1.979342,-1.20849 2.971192,-3.05753 2.971232,-5.527863 -5e-5,-2.488082 -0.99189,-4.285789 -2.971232,-5.458764 -1.954365,-1.190712 -4.967863,-1.796537 -9.051877,-1.796557 l -12.1613,0 z" style="fill:#aaaaaa"/>
</svg>