<?xml version="1.0" encoding="UTF-8" standalone="no"?>
<svg xmlns:dc="http://purl.org/dc/elements/1.1/"
     xmlns:cc="http://creativecommons.org/ns#"
     xmlns:rdf="http://www.w3.org/1999/02/22-rdf-syntax-ns#"
     xmlns:svg="http://www.w3.org/2000/svg"
     xmlns="http://www.w3.org/2000/svg"
     xmlns:xlink="http://www.w3.org/1999/xlink"
     width="128" height="128" version="1.1">
    <title>OpenOffice Web Icon</title>
    <desc>This is shape (source) for Clarity vector icon theme for gtk</desc>
    <metadata>
        <rdf:RDF>
            <cc:Work rdf:about="">
                <dc:title>OpenOffice Web Icon</dc:title>
                <dc:description>This is shape (source) for Clarity vector icon theme for gtk</dc:description>
                <dc:creator>
                    <cc:Agent>
                        <dc:title>Jakub Jankiewicz</dc:title>
                    </cc:Agent>
                </dc:creator>
                <dc:rights>
                    <cc:Agent>
                        <dc:title>Jakub Jankiewicz</dc:title>
                    </cc:Agent>
                </dc:rights>
                <dc:date>2010</dc:date>
                <dc:format>image/svg+xml</dc:format>
                <dc:type rdf:resource="http://purl.org/dc/dcmitype/StillImage" />
                <cc:license rdf:resource="http://www.gnu.org/copyleft/gpl.html" />
             </cc:Work>
        </rdf:RDF>
    </metadata>
    <path d="M 70.875 11.5625 C 65.387689 11.724181 59.394762 13.880422 52.875 20.09375 C 33.632446 13.571858 26.598835 23.033477 18.53125 31.125 C 30.043574 26.114552 41.588735 21.592874 54.84375 28.78125 C 61.448252 21.760895 69.472591 15.604118 89.21875 16.46875 C 84.301592 14.549208 78.517149 11.678706 71.96875 11.5625 C 71.607625 11.5561 71.240821 11.55172 70.875 11.5625 z M 104.34375 34.0625 C 89.870299 34.0706 73.547162 37.013005 60.15625 58.5 C 48.271619 58.44072 39.516327 60.64939 32.78125 64.3125 C 19.923378 71.305714 14.406669 83.57087 8.53125 95.34375 C 24.557666 80.669917 40.98122 66.780253 66.71875 71.09375 C 73.581949 55.889456 85.255664 44.124341 118.0625 34.4375 C 113.8267 34.37106 109.16823 34.059801 104.34375 34.0625 z M 94.46875 66.4375 C 80.660101 66.4375 69.46875 77.62884 69.46875 91.4375 C 69.46875 105.24665 80.660101 116.46875 94.46875 116.46875 C 108.27614 116.46875 119.46875 105.24678 119.46875 91.4375 C 119.46875 77.62884 108.27614 66.4375 94.46875 66.4375 z M 94.46875 68.34375 C 94.876536 68.34375 95.253685 68.35411 95.65625 68.375 L 96.96875 68.90625 L 95.84375 71.71875 C 94.491694 72.344111 93.234989 72.84145 91.8125 73.28125 L 90.90625 74.71875 L 90.15625 75.15625 L 89.03125 72.96875 L 89.875 72.125 L 89.875 71.28125 L 87.75 69.84375 L 88.40625 69.21875 L 89.625 68.875 L 89.8125 68.84375 C 91.315904 68.536498 92.873879 68.34375 94.46875 68.34375 z M 84.28125 70.71875 L 84.34375 71.1875 L 86.09375 71.40625 L 86.5625 72.3125 L 87.5625 72.75 L 86.65625 73.59375 C 86.042164 73.17752 85.426079 72.72936 84.8125 72.3125 L 83.875 72 C 83.470548 72.270309 83.08461 72.56293 82.6875 72.84375 L 82.21875 73.875 L 81.3125 73.875 L 81.78125 72.75 L 82.5 72.125 L 82.46875 71.71875 C 82.632601 71.61924 82.802252 71.501759 82.96875 71.40625 L 83.0625 71.59375 L 83.21875 71.25 C 83.557324 71.061481 83.932442 70.890452 84.28125 70.71875 z M 106.125 71.53125 C 106.87502 71.970865 107.5885 72.44995 108.28125 72.96875 L 107.84375 72.96875 L 109.03125 74.1875 L 109.375 73.8125 C 113.447 77.26348 116.30196 82.12543 117.21875 87.625 C 117.04561 87.46417 116.86484 87.28599 116.6875 87.125 L 115.625 87.28125 L 114.65625 86.1875 L 114.65625 87.53125 L 115.5 88.1875 L 116.03125 88.8125 L 116.78125 87.96875 C 116.96683 88.31633 117.15944 88.65242 117.34375 89 L 117.34375 90.0625 L 116.5 90.96875 L 114.96875 92.03125 L 113.875 93.125 C 114.41128 93.0864 114.95182 93.03785 115.5 92.96875 L 115.5 93.6875 L 114.375 96.40625 L 113.375 97.5625 L 112.53125 99.3125 L 112.53125 102.25 L 112.8125 103.375 L 112.34375 103.90625 L 111.34375 104.53125 L 110.28125 105.40625 L 111.15625 106.40625 L 109.96875 107.46875 L 110.1875 108.125 L 109.34375 109.09375 C 108.9003 109.46864 108.43993 109.81518 107.96875 110.15625 L 107.1875 110.15625 L 106.1875 110.78125 L 105.53125 110.78125 L 105.53125 109.96875 L 105.25 108.28125 C 104.89369 107.23472 104.53359 106.19531 104.15625 105.15625 C 104.15625 104.38927 104.2041 103.64185 104.25 102.875 L 104.71875 101.84375 L 104.0625 100.5625 L 104.125 98.84375 L 103.25 97.875 L 103.6875 96.4375 L 102.96875 95.625 L 101.71875 95.625 L 101.3125 95.15625 L 100.0625 95.9375 L 99.5625 95.375 L 98.40625 96.34375 C 97.624451 95.45745 96.845434 94.57317 96.0625 93.6875 L 95.15625 91.5 L 95.96875 90.25 L 95.5 89.75 L 96.53125 87.34375 C 97.362579 86.30963 98.215433 85.30824 99.09375 84.3125 L 100.65625 83.90625 L 102.40625 83.6875 L 103.625 84 L 105.3125 85.71875 L 105.90625 85.0625 L 106.75 84.9375 L 108.3125 85.46875 L 109.5 85.46875 L 110.34375 84.75 L 110.6875 84.21875 L 109.875 83.6875 L 108.5 83.59375 C 108.11658 83.06187 107.76774 82.50385 107.3125 82.03125 L 106.8125 82.21875 L 106.65625 83.59375 L 105.8125 82.65625 L 105.625 81.59375 L 104.71875 80.875 L 104.34375 80.875 L 105.25 81.90625 L 104.90625 82.875 L 104.15625 83.0625 L 104.625 82.125 L 103.78125 81.71875 L 103.0625 80.875 L 101.65625 81.1875 L 101.5 81.59375 L 100.65625 82.125 L 100.1875 83.28125 L 99.0625 83.84375 L 98.53125 83.28125 L 98 83.28125 L 98 81.40625 L 99.1875 80.78125 L 100.09375 80.78125 L 99.9375 80.03125 L 99.1875 79.3125 L 100.4375 79.0625 L 101.125 78.28125 L 101.65625 77.34375 L 102.6875 77.34375 L 102.40625 76.59375 L 103.0625 76.1875 L 103.0625 77.03125 L 104.4375 77.34375 L 105.8125 76.1875 L 105.90625 75.65625 L 107.09375 74.84375 C 106.6608 74.89755 106.23558 74.91607 105.8125 75.03125 L 105.8125 74.09375 L 106.28125 73.0625 L 105.8125 73.0625 L 104.8125 74 L 104.53125 74.53125 L 104.8125 75.25 L 104.34375 76.5 L 103.625 76.0625 L 102.96875 75.34375 L 101.96875 76.0625 L 101.5625 74.40625 L 103.34375 73.28125 L 103.34375 72.65625 L 104.4375 71.90625 L 106.125 71.53125 z M 81.65625 72.21875 L 81.59375 73.0625 L 80.5625 74 L 78.28125 75.34375 L 78.53125 76.28125 L 80.3125 77.03125 L 80.5625 78.28125 L 81.21875 76.90625 L 82.21875 76.5 L 82.125 75.875 L 83.15625 74.09375 L 84.4375 74.84375 L 84.25 75.65625 L 85.375 75.25 L 85.8125 76.1875 L 85.65625 76.8125 L 86.28125 77.03125 L 86.84375 77.53125 L 86.65625 78.15625 L 85.09375 78.6875 L 83.96875 78.6875 L 82.40625 79.40625 L 84.90625 79.40625 L 84.0625 80.65625 L 82.40625 81 L 81.6875 82.03125 L 80.40625 82.53125 L 79.75 84.09375 L 78 85.5625 L 77.8125 87.65625 L 76.8125 86.40625 L 75.40625 86.09375 L 75.25 86.71875 L 74.125 86.71875 L 72.75 87.75 L 72.5625 89 L 72.65625 90.15625 L 73.59375 90.6875 L 74.21875 90.375 L 74.875 89.53125 L 75.5 89.53125 C 75.40715 90.26099 75.342213 90.98888 75.25 91.71875 L 76.34375 91.59375 L 76.34375 92.75 L 76.71875 93.8125 C 77.165384 94.08712 77.779642 94.10522 78.28125 94.25 L 78.28125 94 L 79.9375 92.5625 L 81.5 93.6875 L 83.34375 93.5 L 84.0625 95.46875 L 85.46875 95.78125 L 86.1875 97.25 C 87.687888 98.02179 89.175841 98.78162 90.6875 99.53125 L 90.5 101.09375 L 89.40625 102.65625 L 89.59375 104.75 L 88.875 106.40625 L 87.46875 106.71875 L 86.84375 107.65625 L 87.125 108.28125 L 86.1875 110.5625 L 85 111 L 84.71875 111.71875 L 84.28125 112.1875 C 83.107549 111.6096 81.988161 110.91736 80.9375 110.15625 L 81.21875 108.90625 L 80.65625 107.65625 L 80.75 105.46875 L 80.03125 104.4375 L 78.375 102.96875 L 76.71875 99.9375 L 77.15625 98.40625 L 76.96875 97.96875 L 77.53125 97.125 L 78.28125 95.15625 L 78.28125 95 L 77.71875 94.75 L 76.96875 94.84375 L 75.6875 93.90625 L 74.875 92.875 L 72.9375 92.34375 L 71.375 91.40625 C 71.3842 83.39718 75.463548 76.35092 81.65625 72.21875 z M 97.0625 72.84375 L 97.625 73.46875 L 96.5 74.1875 L 95.84375 73.78125 L 95.9375 73.15625 L 96.3125 73.28125 L 97.0625 72.84375 z M 84.90625 73.0625 L 85.8125 73.46875 L 85.8125 74.1875 L 85.09375 74.1875 L 84.1875 73.59375 L 84.90625 73.0625 z M 99.46875 75.46875 L 100 75.46875 C 100.27095 76.02165 100.53352 76.54853 100.75 77.125 L 101.375 77.75 L 100.65625 78.46875 L 99.625 78.6875 L 99.8125 77.4375 L 99.8125 76.5 L 99.46875 76.0625 L 99.46875 75.46875 z M 99.09375 76.71875 L 99.46875 77.65625 L 98.625 78.0625 L 98.4375 76.90625 L 99.09375 76.71875 z M 86.375 78.59375 L 87.21875 79.21875 L 86.65625 80.03125 L 86.375 78.59375 z M 110.4375 86.71875 L 110.15625 87.03125 L 110.5625 88.53125 L 111.34375 89.40625 C 111.79025 90.69523 112.22615 91.92415 112.8125 93.15625 C 113.14639 93.15625 113.48781 93.17825 113.8125 93.15625 L 113.09375 92.34375 L 113.46875 91.40625 L 112.71875 90.5625 L 111.46875 87.90625 L 110.4375 86.71875 z " style="fill:#aaaaaa"/>
</svg>