<?xml version="1.0" encoding="UTF-8" standalone="no"?>
<svg xmlns:dc="http://purl.org/dc/elements/1.1/"
     xmlns:cc="http://creativecommons.org/ns#"
     xmlns:rdf="http://www.w3.org/1999/02/22-rdf-syntax-ns#"
     xmlns:svg="http://www.w3.org/2000/svg"
     xmlns="http://www.w3.org/2000/svg"
     xmlns:xlink="http://www.w3.org/1999/xlink"
     width="128" height="128" version="1.1">
    <title>Clarity Icon</title>
    <desc>This is shape (source) for Clarity vector icon theme for gtk</desc>
    <metadata>
        <rdf:RDF>
            <cc:Work rdf:about="">
                <dc:title>Clarity Icon</dc:title>
                <dc:description>This is shape (source) for Clarity vector icon theme for gtk</dc:description>
                <dc:creator>
                    <cc:Agent>
                        <dc:title>Jakub Jankiewicz</dc:title>
                    </cc:Agent>
                </dc:creator>
                <dc:rights>
                    <cc:Agent>
                        <dc:title>Jakub Jankiewicz</dc:title>
                    </cc:Agent>
                </dc:rights>
                <dc:date>2010</dc:date>
                <dc:format>image/svg+xml</dc:format>
                <dc:type rdf:resource="http://purl.org/dc/dcmitype/StillImage" />
                <cc:license rdf:resource="http://creativecommons.org/licenses/by-sa/3.0/" />
             </cc:Work>
        </rdf:RDF>
    </metadata>
    <path d="m 70.78125,34.282899 c -5.177197,-0.09187 -10.893715,1.71784 -17.125,7.65625 -17.241692,-5.843738 -23.552541,2.624842 -30.78125,9.875 10.31526,-4.489456 20.685755,-8.534671 32.5625,-2.09375 5.917758,-6.290372 13.119569,-11.805976 30.8125,-11.03125 -4.405866,-1.719946 -9.601261,-4.302127 -15.46875,-4.40625 z m -31.71875,38.8125 c -13.723576,0.08102 -23.70944,7.750361 -33.78125,14.875 19.745267,-5.023617 39.45646,-9.219217 58.8125,5.75 12.40857,-9.522379 27.223584,-14.095521 58.625,-7.5625 C 108.836,78.43037 91.69875,64.614881 64.25,80.376649 54.455754,75.061314 46.25104,73.052962 39.0625,73.095399 z" style="fill:#aaaaaa"/>
</svg>