<?xml version="1.0" encoding="UTF-8" standalone="no"?>
<svg xmlns:dc="http://purl.org/dc/elements/1.1/"
     xmlns:cc="http://creativecommons.org/ns#"
     xmlns:rdf="http://www.w3.org/1999/02/22-rdf-syntax-ns#"
     xmlns:svg="http://www.w3.org/2000/svg"
     xmlns="http://www.w3.org/2000/svg"
     xmlns:xlink="http://www.w3.org/1999/xlink"
     width="128" height="128" version="1.1">
    <title>Open Arena Icon</title>
    <desc>This is shape (source) for Clarity vector icon theme for gtk</desc>
    <metadata>
        <rdf:RDF>
            <cc:Work rdf:about="">
                <dc:title>Open Arena Icon</dc:title>
                <dc:description>This is shape (source) for Clarity vector icon theme for gtk</dc:description>
                <dc:creator>
                    <cc:Agent>
                        <dc:title>Jakub Jankiewicz</dc:title>
                    </cc:Agent>
                </dc:creator>
                <dc:rights>
                    <cc:Agent>
                        <dc:title>Jakub Jankiewicz</dc:title>
                    </cc:Agent>
                </dc:rights>
                <dc:date>2010</dc:date>
                <dc:format>image/svg+xml</dc:format>
                <dc:type rdf:resource="http://purl.org/dc/dcmitype/StillImage" />
                <cc:license rdf:resource="http://www.gnu.org/copyleft/gpl.html" />
             </cc:Work>
        </rdf:RDF>
    </metadata>
    <path d="m 76.258551,20.064947 c -12.88081,0.411599 -25.733805,3.476914 -37.078122,9.689249 -11.023041,5.993588 -22.233839,13.729756 -27.583211,25.505106 -3.2310033,7.112696 -2.1909799,15.90382 2.455122,22.108907 3.544618,3.163889 6.900125,6.532226 10.188949,9.959123 -2.467842,4.510698 -4.769764,9.114787 -7.35443,13.559728 5.683772,2.37538 11.410437,4.64786 17.083726,7.04799 8.189767,-17.788216 16.450779,-35.543916 24.66798,-53.319606 10.247883,17.666425 20.432011,35.370427 30.720064,53.013176 6.912724,-4.17479 13.882461,-8.2568 20.760941,-12.487208 -2.5282,-4.548527 -5.16514,-9.035987 -7.73747,-13.559729 9.52886,-7.076502 15.52078,-18.729063 15.83226,-30.444478 0.74497,-10.532624 -5.59956,-21.13954 -15.24626,-25.44445 -8.18415,-4.456233 -17.528607,-5.612542 -26.709549,-5.627808 z m -4.443301,11.87434 c 10.085237,0.428589 21.097382,0.60637 29.64694,6.697786 5.37249,3.72604 6.64138,11.082638 4.63261,17.030619 -1.88198,6.191785 -5.32244,12.069163 -10.224438,16.337912 C 87.851993,58.650164 79.833622,45.294728 71.81525,31.939287 z m -25.12763,5.898866 c -5.413677,11.976483 -10.827356,23.952966 -16.241032,35.92945 -5.100695,-3.369061 -10.64227,-9.154719 -9.117227,-15.786211 2.754401,-7.053954 9.696216,-11.213411 15.754076,-15.186569 3.080223,-1.877917 6.282767,-3.546708 9.604183,-4.95667 z m 14.325813,29.11128 c -4.798578,7.06598 -9.423508,14.250867 -14.249206,21.297203 3.30091,6.559382 6.531967,13.154224 9.882515,19.688414 5.706596,-7.5372 11.56874,-14.957801 17.236943,-22.522936 C 69.689261,79.19409 65.22261,73.158692 61.013433,66.949431 z" style="fill:#aaaaaa"/>
</svg>