<?xml version="1.0" encoding="UTF-8" standalone="no"?>
<svg xmlns:dc="http://purl.org/dc/elements/1.1/"
     xmlns:cc="http://creativecommons.org/ns#"
     xmlns:rdf="http://www.w3.org/1999/02/22-rdf-syntax-ns#"
     xmlns:svg="http://www.w3.org/2000/svg"
     xmlns="http://www.w3.org/2000/svg"
     xmlns:xlink="http://www.w3.org/1999/xlink"
     width="128" height="128" version="1.1">
    <title>Opera Widgets Icon</title>
    <desc>This is shape (source) for Clarity vector icon theme for gtk</desc>
    <metadata>
        <rdf:RDF>
            <cc:Work rdf:about="">
                <dc:title>Opera Widgets Icon</dc:title>
                <dc:description>This is shape (source) for Clarity vector icon theme for gtk</dc:description>
                <dc:creator>
                    <cc:Agent>
                        <dc:title>Jakub Jankiewicz</dc:title>
                    </cc:Agent>
                </dc:creator>
                <dc:rights>
                    <cc:Agent>
                        <dc:title>Jakub Jankiewicz</dc:title>
                    </cc:Agent>
                </dc:rights>
                <dc:date>2010</dc:date>
                <dc:format>image/svg+xml</dc:format>
                <dc:type rdf:resource="http://purl.org/dc/dcmitype/StillImage" />
                <cc:license rdf:resource="http://creativecommons.org/licenses/by-sa/3.0/" />
             </cc:Work>
        </rdf:RDF>
    </metadata>
    <path d="m 53.5,8.8594 c -24.69052,0 -42.4375,17.914774 -42.4375,44.78125 0,23.902557 17.25245,45.59375 42.4375,45.59375 5.293441,0 10.240434,-0.95076 14.75,-2.65625 0.216883,-0.290626 0.482017,-0.545155 0.78125,-0.75 L 73.0625,93.0469 c 0.222993,-0.153848 0.464997,-0.280111 0.71875,-0.375 0.05852,-0.313802 0.114877,-0.628879 0.1875,-0.9375 -0.191153,-0.187062 -0.359461,-0.397447 -0.5,-0.625 L 70.6875,87.01565 c -0.05577,-0.08095 -0.107922,-0.164397 -0.15625,-0.25 L 69.75,87.7344 c -0.775409,0.973489 -2.132624,1.442806 -3.34375,1.15625 l -2.0625,-0.5 c -0.99596,-0.248673 -1.856254,-0.989482 -2.25,-1.9375 -2.188671,2.001054 -4.987918,3.1875 -8.59375,3.1875 -7.54662,0 -11.5134,-5.327513 -13.59375,-12.53125 -0.93632,-3.418892 -1.49758,-7.18878 -1.84375,-11 -0.37585,-4.529947 -0.4375,-9.143635 -0.4375,-13.28125 0,-3.273826 0.06533,-6.534081 0.25,-9.65625 0.40881,-5.697051 1.27586,-11.31524 2.9375,-15.9375 2.28805,-5.664082 6.16622,-9.28125 12.6875,-9.28125 8.24226,0 12.41808,5.875862 14.46875,14.25 0.96213,4.247699 1.461325,9.002566 1.6875,13.84375 0.03223,0.04092 0.06349,0.0826 0.09375,0.125 l 3.1875,3.9375 c 0.0664,0.08031 0.128991,0.163771 0.1875,0.25 0.712741,0.08797 1.40918,0.20058 2.09375,0.375 0.05154,-0.02216 0.103647,-0.043 0.15625,-0.0625 l 4.59375,-2.1875 c 1.117066,-0.535613 2.535319,-0.370994 3.5,0.40625 L 85.125,50.2344 c 0.940705,0.772633 1.393729,2.093954 1.125,3.28125 l -1.03125,4.5625 c 0.553009,0.875235 1.019325,1.800417 1.40625,2.78125 l 4.1875,2.0625 c 1.101249,0.542235 1.845898,1.741247 1.84375,2.96875 l 0,2.125 c -0.0035,1.234021 -0.762226,2.435313 -1.875,2.96875 L 89.8125,71.45315 92,73.6719 C 94.770713,67.512825 96.28125,60.679591 96.28125,53.64065 96.28125,26.559876 77.96633,8.8594 53.5,8.8594 z m 13.6875,39.34375 -2.0625,0.46875 -1.15625,4.9375 0.1875,0.90625 L 64.5,55.1719 c -1.595747,0.89695 -3.015866,2.11926 -4.125,3.5625 l -0.71875,-0.625 -0.84375,-0.40625 -5.03125,0.03125 -0.9375,1.90625 3.125,4 0.84375,0.40625 1.0625,0.21875 c -0.174272,0.865109 -0.28125,1.739794 -0.28125,2.65625 0,0.909357 0.109599,1.797381 0.28125,2.65625 l -1.0625,0.21875 -0.84375,0.40625 -3.125,4 0.9375,1.9375 5.03125,0 0.84375,-0.40625 0.71875,-0.59375 c 1.109134,1.44324 2.529253,2.6343 4.125,3.53125 l -0.34375,0.65625 -0.1875,0.90625 1.15625,4.9375 2.0625,0.5 3.1875,-3.96875 0.21875,-0.90625 0,-0.375 c 0.167761,0.0062 0.299486,0 0.46875,0 1.798165,0 3.525216,-0.392294 5.09375,-1.03125 l 0.0625,0.125 0.5625,0.71875 4.59375,2.1875 1.65625,-1.34375 -1.125,-4.9375 -0.46875,-0.59375 c 1.268804,-1.523928 2.218968,-3.329678 2.71875,-5.3125 l 0.625,-0.03125 4.5625,-2.1875 0,-2.15625 -4.5625,-2.21875 -0.625,0 c -0.498678,-1.98954 -1.44629,-3.784182 -2.71875,-5.3125 l 0.46875,-0.625 1.125,-4.90625 -1.65625,-1.34375 -4.59375,2.15625 -0.5625,0.71875 -0.03125,0.125 c -1.573429,-0.643632 -3.319909,-1 -5.125,-1 -0.169264,0 -0.30099,-0.0062 -0.46875,0 l 0,-0.375 L 70.375,52.1719 67.1875,48.20315 z m 3.875,10.625 c 4.467126,0 8.125,3.626628 8.125,8.09375 0,4.467122 -3.657874,8.09375 -8.125,8.09375 -4.467119,0 -8.0625,-3.626628 -8.0625,-8.09375 0,-4.467122 3.595381,-8.09375 8.0625,-8.09375 z m 16.34375,14.84375 -2.25,0.8125 -0.5,4.90625 L 85,80.5469 l 0.46875,0.84375 c -1.574613,0.88634 -2.969498,2.026351 -4.1875,3.34375 l -0.6875,-0.59375 -1.03125,-0.5625 -4.9375,-0.46875 -1.21875,2.0625 2.78125,4.09375 1,0.65625 0.6875,0.25 c -0.654489,1.671829 -1.056588,3.464805 -1.15625,5.34375 L 76.125,95.4844 l -1.1875,0.25 -4.03125,2.8125 0.375,2.34375 4.75,1.375 1.1875,-0.15625 0.375,-0.15625 c 0.607618,1.78753 1.531876,3.43701 2.65625,4.90625 l -0.28125,0.1875 -0.6875,0.9375 -1.34375,4.78125 1.8125,1.5625 4.53125,-2.03125 0.8125,-0.84375 0.09375,-0.1875 c 1.597649,0.94046 3.376192,1.64549 5.25,2.03125 l -0.0625,0.125 0.0625,1.1875 2.03125,4.5 2.40625,0.0312 2.15625,-4.4375 0.0625,-1.1875 0,-0.15625 c 1.883763,-0.34957 3.63523,-0.9973 5.25,-1.90625 l 0.125,0.1875 0.78125,0.84375 4.46875,2.15625 1.84375,-1.53125 -1.21875,-4.78125 -0.6875,-0.9375 -0.28125,-0.25 c 1.15059,-1.43868 2.07361,-3.05053 2.71875,-4.8125 l 0.46875,0.15625 1.15625,0.1875 4.78125,-1.25 0.4375,-2.34375 -4,-2.90625 -1.125,-0.28125 -0.6875,0 c -0.0566,-1.873923 -0.39104,-3.666492 -1,-5.34375 l 0.75,-0.25 1,-0.625 2.875,-4.03125 -1.1875,-2.0625 -4.9375,0.34375 -1.0625,0.53125 -0.71875,0.59375 C 105.65717,83.695717 104.30277,82.535915 102.75,81.6094 l 0.53125,-0.875 0.375,-1.09375 -0.40625,-4.9375 -2.21875,-0.84375 -3.5625,3.4375 L 97,78.3594 96.8125,79.45315 c -0.941422,-0.159352 -1.919469,-0.25 -2.90625,-0.25 -0.828236,0 -1.609217,0.04324 -2.40625,0.15625 L 91.3125,78.32815 90.875,77.2344 87.40625,73.6719 z m 6.5,11.15625 c 6.40544,0 11.625,5.188311 11.625,11.59375 0,6.40544 -5.21956,11.59375 -11.625,11.59375 -6.405441,0 -11.59375,-5.18831 -11.59375,-11.59375 0,-6.405439 5.188309,-11.59375 11.59375,-11.59375 z" style="fill:#aaaaaa"/>
</svg>