<?xml version="1.0" encoding="UTF-8" standalone="no"?>
<!--
    This is shape (source) for Clarity vector icon theme for gtk

    Copyright (c) 2010 Jakub Jankiewicz <http://jcubic.pl> 

    This svg file is free: you can redistribute it and/or modify
    it under the terms of the GNU General Public License as published by
    the Free Software Foundation, either version 3 of the License, or
    (at your option) any later version.

    This program is distributed in the hope that it will be useful,
    but WITHOUT ANY WARRANTY; without even the implied warranty of
    MERCHANTABILITY or FITNESS FOR A PARTICULAR PURPOSE.  See the
    GNU General Public License for more details.

    You should have received a copy of the GNU General Public License
    along with this program.  If not, see <http://www.gnu.org/licenses/>.

-->
<svg xmlns:dc="http://purl.org/dc/elements/1.1/"
     xmlns:cc="http://creativecommons.org/ns#"
     xmlns:rdf="http://www.w3.org/1999/02/22-rdf-syntax-ns#"
     xmlns:svg="http://www.w3.org/2000/svg"
     xmlns="http://www.w3.org/2000/svg"
     xmlns:xlink="http://www.w3.org/1999/xlink"
     width="128" height="128" version="1.1">
    <title>Clarity Icon</title>
    <desc>This is shape (source) for Clarity vector icon theme for gtk</desc>
    <metadata>
        <rdf:RDF>
            <cc:Work rdf:about="">
                <dc:title>Clarity Icon</dc:title>
                <dc:description>This is shape (source) for Clarity vector icon theme for gtk</dc:description>
                <dc:creator>
                    <cc:Agent>
                        <dc:title>Jakub Jankiewicz</dc:title>
                    </cc:Agent>
                </dc:creator>
                <dc:rights>
                    <cc:Agent>
                        <dc:title>Jakub Jankiewicz</dc:title>
                    </cc:Agent>
                </dc:rights>
                <dc:date>2010</dc:date>
                <dc:format>image/svg+xml</dc:format>
                <dc:type rdf:resource="http://purl.org/dc/dcmitype/StillImage" />
                <cc:license rdf:resource="http://www.gnu.org/copyleft/gpl.html" />
             </cc:Work>
        </rdf:RDF>
    </metadata>
    <path d="m 63.848342,17.994995 c -24.690517,0 -42.437754,17.908785 -42.437754,44.77526 0,23.902557 17.255998,45.612675 42.441051,45.612675 25.425728,0 42.774041,-21.703524 42.774041,-45.612675 0,-27.080774 -18.311009,-44.77526 -42.777338,-44.77526 z m -0.0066,80.780754 0,0 c -7.546615,0 -11.506197,-5.311313 -13.586544,-12.51505 -0.936321,-3.41889 -1.509982,-7.203736 -1.856157,-11.014958 -0.375847,-4.529947 -0.425301,-9.142316 -0.425301,-13.279931 0,-3.273826 0.05935,-6.524574 0.243971,-9.646743 0.408816,-5.697051 1.272605,-11.311679 2.934245,-15.933939 2.288052,-5.664082 6.168508,-9.303865 12.689786,-9.303865 8.242261,0 12.406251,5.875084 14.456926,14.249222 1.414372,6.244337 1.846266,13.596434 1.846266,20.684778 0,7.579584 -0.339581,16.988949 -2.515538,24.535564 -2.179254,7.052079 -6.237743,12.224922 -13.787654,12.224922 z" style="fill:#aaaaaa"/>
</svg>