<?xml version="1.0" encoding="UTF-8" standalone="no"?>
<svg xmlns:dc="http://purl.org/dc/elements/1.1/"
     xmlns:cc="http://creativecommons.org/ns#"
     xmlns:rdf="http://www.w3.org/1999/02/22-rdf-syntax-ns#"
     xmlns:svg="http://www.w3.org/2000/svg"
     xmlns="http://www.w3.org/2000/svg"
     xmlns:xlink="http://www.w3.org/1999/xlink"
     width="128" height="128" version="1.1">
    <title>Xfce Desktop icon</title>
    <desc>This is shape (source) for Clarity vector icon theme for gtk</desc>
    <metadata>
        <rdf:RDF>
            <cc:Work rdf:about="">
                <dc:title>Xfce Desktop icon</dc:title>
                <dc:description>This is shape (source) for Clarity vector icon theme for gtk</dc:description>
                <dc:creator>
                    <cc:Agent>
                        <dc:title>Jakub Jankiewicz</dc:title>
                    </cc:Agent>
                </dc:creator>
                <dc:rights>
                    <cc:Agent>
                        <dc:title>Jakub Jankiewicz</dc:title>
                    </cc:Agent>
                </dc:rights>
                <dc:date>2010</dc:date>
                <dc:format>image/svg+xml</dc:format>
                <dc:type rdf:resource="http://purl.org/dc/dcmitype/StillImage" />
                <cc:license rdf:resource="http://creativecommons.org/licenses/by-sa/3.0/" />
             </cc:Work>
        </rdf:RDF>
    </metadata>
    <path d="m 17.11719,16.990231 c -4.454651,0 -8.0507818,3.553158 -8.0507819,8.007813 v 63.886719 c 0,4.45466 3.5961309,8.050781 8.0507819,8.050781 h 93.80859 c 4.45465,0 8.00781,-3.596121 8.00781,-8.050781 V 24.998044 c 0,-4.454655 -3.55316,-8.007813 -8.00781,-8.007813 z m 3.330078,9.1875 h 87.150392 v 61.56836 H 20.447268 Z m 3.433593,12.179688 c -0.0214,10e-4 -0.03738,0.0047 -0.05078,0.01172 -0.0356,0.01872 -0.05604,0.04832 -0.02344,0.103515 -0.58735,0.0213 0.549599,0.829175 0.943359,1.109375 0.24546,0.2826 9.313746,4.351255 13.066406,6.490235 3.97112,2.21224 9.33503,6.732383 9.75586,7.496093 -4.127242,6.55203 -2.173217,12.283635 -2.660157,12.896485 -0.35287,0.51988 -3.636293,3.8381 -2.595703,4.3125 1.04059,0.47442 2.66606,-0.17173 2.91211,-0.3125 0.52255,-0.29894 1.113676,-0.83732 0.896484,0 -0.44246,1.70584 -2.565706,5.853852 0.191406,4.982422 0.32915,-0.17034 4.802001,-4.671937 5.337891,-4.816407 8.80336,2.08745 18.705856,1.206222 20.539062,0.419922 0.943526,0.05052 3.617904,1.635176 5.150391,2.365235 1.532487,0.73006 5.739344,2.514358 4.501953,-0.794922 -0.373333,-1.04527 -3.161805,-3.710187 -2.701172,-3.873047 0.984359,-0.34788 3.422849,0.934115 4.355469,1.171875 2.789705,0.71122 3.161652,-0.336489 1.402344,-2.511719 -1.759308,-2.17523 -1.999594,-1.847547 -2.533203,-2.847656 -0.427538,-0.801351 -0.132379,-1.74822 0.189453,-1.96875 0.56478,-0.39672 8.98157,-4.540367 10.927734,-6.154297 2.901342,-2.39943 -0.03167,-5.420237 -0.732422,-5.841797 -6.011153,-3.93152 -12.145492,-3.146021 -12.226562,-3.769531 -0.04251,-0.72068 -0.06452,-2.70037 -0.167969,-3.41211 -0.593454,-4.81762 -2.907851,-3.683546 -3.246094,-3.685546 -2.442587,0.34319 -1.704995,3.762056 -0.669922,6.972656 0.08837,0.82185 -0.783445,0.524772 -1.339843,-0.335938 -1.876536,-4.59247 -2.679912,-4.471918 -3.203125,-4.605468 -0.501165,-0.10332 -2.235976,0.821867 -2.197266,2.679687 0.0065,0.53371 0.643938,3.051371 0.648437,3.832031 -1.157247,0.92161 -1.136169,2.964013 -2.345703,3.726563 -3.537504,0.67173 -12.027604,-1.575981 -13.083984,-1.675781 -3.67457,-0.6261 -5.330104,1.914712 -5.927734,1.320312 -4.7553,-4.969151 -12.065201,-8.677577 -15.220701,-9.316407 -1.22116,-0.24722 -5.254728,-1.807752 -6.742188,-2.638672 -1.11559,-0.62319 -2.496662,-1.242859 -3.013672,-1.318359 -0.05382,-0.0077 -0.100919,-0.01372 -0.136719,-0.01172 z m 67.830079,5.3125 c -0.0026,2.87e-4 -0.0052,9.91e-4 -0.0078,0.002 -0.0052,0.0026 -0.01413,0.0084 -0.01953,0.01367 -1.108163,1.08489 -0.948988,5.006914 -0.710938,5.208984 h 0.002 l 0.002,0.002 h 0.002 0.002 l 0.002,0.002 h 0.002 0.002 l 0.002,0.002 h 0.002 l 0.0039,-0.002 c 1.12982,-0.207954 1.041997,-5.183855 0.72418,-5.228654 h -0.002 -0.002 c -0.0013,-2.5e-5 -0.0026,-1.44e-4 -0.0039,0 z m 3.25,0.599609 -0.002,0.002 h -0.002 -0.002 -0.002 -0.002 c -0.440782,0.14731 -3.142354,3.611527 -2.636719,4.941407 0.235301,0.61891 3.0862,-3.823038 2.679688,-4.898438 -0.0037,-0.0107 -0.0097,-0.02616 -0.01563,-0.03516 -8e-4,-10e-4 -0.003,-0.0031 -0.0039,-0.0039 l -0.002,-0.002 h -0.002 v -0.002 h -0.002 -0.002 -0.002 l -0.002,-0.002 z m -55.576172,4.105469 6.324218,6.324219 c 0.15768,-0.31607 0.320132,-0.642491 0.501954,-0.962891 -0.155272,-0.15358 -0.316742,-0.316647 -0.544922,-0.523437 -0.5995,-0.54331 -1.41507,-1.23085 -2.34375,-1.96875 -1.20439,-0.95697 -2.59234,-1.973411 -3.9375,-2.869141 z m 39.925781,2.429688 h 0.002 c 0.01941,-9.56e-4 0.03977,-2.2e-5 0.06055,0.02148 0.354202,1.06273 0.781756,2.170704 3.099609,2.427734 0.0083,0.001 0.01668,0.0058 0.02148,0.0078 h 0.002 l 0.002,0.002 v 0.002 h 0.0018 v 0.002 0.002 h 0.002 v 0.002 0.002 0.002 0.002 c -0.0305,0.13875 -1.434641,0.793831 -2.416015,0.332031 -0.969174,-0.54238 -1.044908,-2.532953 -0.816407,-2.783203 0.0082,-0.0087 0.01381,-0.01452 0.01953,-0.01758 0.0047,-0.0021 0.01387,-0.0034 0.02148,-0.0039 z m 6.324219,5.296874 c 0.09108,-0.003 0.178143,0.0068 0.251953,0.02148 0.01753,0.0038 0.03146,0.01153 0.03906,0.01953 0.0015,0.0021 9.75e-4,0.0055 0.002,0.0078 0.08899,0.303927 -4.193329,2.42455 -4.542968,2.128906 l -0.0039,-0.002 c -8e-4,-0.001 -0.0032,-0.005 -0.0039,-0.0059 -6e-4,-10e-4 -0.0014,-0.0049 -0.002,-0.0059 -4.34e-4,-0.001 -0.0016,-0.0028 -0.002,-0.0039 -0.0619,-0.288439 2.932638,-2.115706 4.261719,-2.160157 z m 0.824218,1.464844 c 0.03351,-0.0027 0.06682,-0.0023 0.09766,0 0.01158,10e-4 0.02375,0.0058 0.03125,0.0098 0.0017,0.0015 0.0053,0.0038 0.0078,0.0059 l 0.002,0.002 c 7.77e-4,9.8e-4 0.0013,0.0029 0.002,0.0039 0.147107,0.287508 -2.874907,3.018248 -3.224609,2.722656 -0.0011,-10e-4 -0.0049,-0.0049 -0.0059,-0.0059 -0.208851,-0.246209 2.051191,-2.654761 3.089843,-2.738282 z M 36.796877,102.45508 c -4.74082,0 -8.552734,3.81387 -8.552734,8.55469 h 71.55664 c 0,-4.74082 -3.815818,-8.55469 -8.55664,-8.55469 z" style="fill:#aaaaaa"/>
</svg>