<?xml version="1.0" encoding="UTF-8" standalone="no"?>
<svg xmlns:dc="http://purl.org/dc/elements/1.1/"
     xmlns:cc="http://creativecommons.org/ns#"
     xmlns:rdf="http://www.w3.org/1999/02/22-rdf-syntax-ns#"
     xmlns:svg="http://www.w3.org/2000/svg"
     xmlns="http://www.w3.org/2000/svg"
     xmlns:xlink="http://www.w3.org/1999/xlink"
     width="128" height="128" version="1.1">
    <title>Xfce Window Manager Tweaks Icon</title>
    <desc>This is shape (source) for Clarity vector icon theme for gtk</desc>
    <metadata>
        <rdf:RDF>
            <cc:Work rdf:about="">
                <dc:title>Xfce Window Manager Tweaks Icon</dc:title>
                <dc:description>This is shape (source) for Clarity vector icon theme for gtk</dc:description>
                <dc:creator>
                    <cc:Agent>
                        <dc:title>Jakub Jankiewicz</dc:title>
                    </cc:Agent>
                </dc:creator>
                <dc:rights>
                    <cc:Agent>
                        <dc:title>Jakub Jankiewicz</dc:title>
                    </cc:Agent>
                </dc:rights>
                <dc:date>2010</dc:date>
                <dc:format>image/svg+xml</dc:format>
                <dc:type rdf:resource="http://purl.org/dc/dcmitype/StillImage" />
                <cc:license rdf:resource="http://creativecommons.org/licenses/by-sa/3.0/" />
             </cc:Work>
        </rdf:RDF>
    </metadata>
    <path d="m 30.873047,10.478518 c -3.211004,0 -5.779297,2.568292 -5.779297,5.779297 v 16.623046 h 6.009766 V 29.20508 h 80.251954 v 57.054688 h -5.39453 v 5.80664 h 5.625 c 3.211,0 5.78125,-2.595639 5.78125,-5.80664 V 16.257815 c 0,-3.211005 -2.57025,-5.779297 -5.78125,-5.779297 z M 16.414062,35.935549 c -3.211002,0 -5.781248,2.568292 -5.781249,5.779297 V 111.7168 c 0,3.211 2.570246,5.80468 5.781249,5.80468 h 80.712891 c 3.211007,0 5.779297,-2.59368 5.779297,-5.80468 V 41.714846 c 0,-3.211005 -2.56829,-5.779297 -5.779297,-5.779297 z m 0.230469,18.726562 H 96.896484 V 111.7168 H 16.644531 Z m 33.417969,5.123047 -2.316406,0.835938 -0.513672,5.050781 0.353515,1.191406 0.482422,0.867188 c -1.621133,0.912522 -3.058521,2.087044 -4.312499,3.443359 l -0.705079,-0.611328 -1.064453,-0.578125 -5.082031,-0.484375 -1.255859,2.123047 2.865234,4.214844 1.029297,0.675781 0.707031,0.257812 c -0.673823,1.721215 -1.086849,3.567499 -1.189453,5.501954 l -0.611328,-0.03125 -1.222656,0.255859 -4.150391,2.896484 0.384766,2.41211 4.890625,1.417968 1.222656,-0.162109 0.384766,-0.160156 c 0.625569,1.840338 1.578733,3.53814 2.736328,5.050781 l -0.291016,0.191406 -0.705078,0.966797 -1.384766,4.92188 1.865235,1.60937 4.666015,-2.091797 0.835937,-0.86914 0.09766,-0.19336 c 1.644844,0.968235 3.475138,1.694637 5.404297,2.091797 l -0.06445,0.12891 0.06445,1.22265 2.089843,4.63282 2.478516,0.0312 2.220703,-4.56836 0.06445,-1.22266 v -0.16016 c 1.939409,-0.35989 3.74183,-1.027092 5.404297,-1.962887 l 0.128906,0.193359 0.804688,0.869141 4.601562,2.220707 1.898438,-1.57813 -1.25586,-4.921874 -0.708984,-0.964844 -0.289062,-0.257812 c 1.184582,-1.481175 2.136586,-3.14106 2.800781,-4.955079 l 0.482422,0.16211 1.189453,0.193359 4.921875,-1.289062 0.451172,-2.41211 -4.119141,-2.992187 -1.15625,-0.289063 H 74.482422 C 74.424182,80.73088 74.080068,78.88501 73.453125,77.158205 l 0.773437,-0.255859 1.027344,-0.644532 2.960938,-4.15039 -1.222657,-2.123047 -5.083984,0.353516 -1.09375,0.546875 -0.740235,0.609375 c -1.22164,-1.391041 -2.616206,-2.583233 -4.214843,-3.53711 l 0.546875,-0.902343 0.386718,-1.125 -0.417968,-5.083985 -2.285156,-0.869141 -3.667969,3.539063 -0.482422,1.09375 -0.193359,1.126953 c -0.969228,-0.164058 -1.974305,-0.255859 -2.990235,-0.255859 -0.852702,0 -1.657938,0.04376 -2.478515,0.160156 l -0.19336,-1.0625 -0.449219,-1.125 z m 6.693359,11.484375 c 6.594656,0 11.966797,5.342844 11.966797,11.9375 0,6.59465 -5.372141,11.935547 -11.966797,11.935547 -6.594651,0 -11.935546,-5.340897 -11.935546,-11.935547 0,-6.594656 5.340895,-11.9375 11.935546,-11.9375 z" style="fill:#aaaaaa"/>
</svg>