<?xml version="1.0" encoding="UTF-8" standalone="no"?>
<svg xmlns:dc="http://purl.org/dc/elements/1.1/"
     xmlns:cc="http://creativecommons.org/ns#"
     xmlns:rdf="http://www.w3.org/1999/02/22-rdf-syntax-ns#"
     xmlns:svg="http://www.w3.org/2000/svg"
     xmlns="http://www.w3.org/2000/svg"
     xmlns:xlink="http://www.w3.org/1999/xlink"
     width="128" height="128" version="1.1">
    <title>3D Battery Icon</title>
    <desc>This is shape (source) for Clarity vector icon theme for gtk</desc>
    <metadata>
        <rdf:RDF>
            <cc:Work rdf:about="">
                <dc:title>3D Battery Icon</dc:title>
                <dc:description>This is shape (source) for Clarity vector icon theme for gtk</dc:description>
                <dc:creator>
                    <cc:Agent>
                        <dc:title>Jakub Jankiewicz</dc:title>
                    </cc:Agent>
                </dc:creator>
                <dc:rights>
                    <cc:Agent>
                        <dc:title>Jakub Jankiewicz</dc:title>
                    </cc:Agent>
                </dc:rights>
                <dc:date>2010</dc:date>
                <dc:format>image/svg+xml</dc:format>
                <dc:type rdf:resource="http://purl.org/dc/dcmitype/StillImage" />
                <cc:license rdf:resource="http://creativecommons.org/licenses/by-sa/3.0/" />
             </cc:Work>
        </rdf:RDF>
    </metadata>
    <path d="M 64.000134,12 C 53.064304,12 43.149533,14.715606 35.898573,19.177735 28.991853,23.428015 24.457103,29.341158 24.041153,36 h -0.0039 v 0.107422 c -0.01654,0.296606 -0.03711,0.593116 -0.03711,0.892578 0,0.352011 0.0143,0.702737 0.03711,1.050782 5.9e-4,0.009 -6.1e-4,0.0183 0,0.02734 l -0.02344,48.427735 c -0.0044,0.02195 -0.01591,0.226626 -0.01367,0.246093 0.0018,-0.0064 0.007,-0.04055 0.01367,-0.123047 10e-6,0.06912 0.0011,0.138043 0.0019,0.207032 1.4e-4,0.01041 -1.5e-4,0.02084 0,0.03125 l -0.0019,3.636718 c -0.0044,0.02195 -0.01591,0.228579 -0.01367,0.248047 0.0018,-0.0064 0.007,-0.04055 0.01367,-0.123047 0.001,14.011117 17.9047,25.370397 39.992191,25.371097 22.08761,-7e-4 39.992726,-11.35998 39.994136,-25.371097 l -0.002,-3.761718 c 1.2e-4,-0.0084 -1.1e-4,-0.01695 0,-0.02539 9.2e-4,-0.0708 0.002,-0.141952 0.002,-0.212891 l -0.0234,-48.777343 c 5.5e-4,-0.01037 -5.3e-4,-0.02088 0,-0.03125 0.0139,-0.272382 0.0234,-0.545531 0.0234,-0.820313 0,-0.289585 -0.008,-0.578318 -0.0234,-0.865234 v -0.002 -0.132813 h -0.008 C 103.55338,29.34069 99.008814,23.428259 92.101694,19.177735 84.850734,14.715606 74.935964,12 64.000134,12 Z m 0,1.564453 A 38.083494,23.435986 0 0 1 102.08411,37 38.083494,23.435986 0 0 1 64.000134,60.435547 38.083494,23.435986 0 0 1 25.916153,37 38.083494,23.435986 0 0 1 64.000134,13.564453 Z m 0,14.435547 a 10,5.9999995 0 0 0 -10,6 v 3 a 10,5.9999995 0 0 0 10,6 10,5.9999995 0 0 0 10,-6 10,5.9999995 0 0 0 0,-0.02539 v -2.949219 a 10,5.9999995 0 0 0 0,-0.02539 10,5.9999995 0 0 0 -10,-6.000001 z m 6,38 -4,15 h 7 l -15,21 6,-15 h -9 z" style="fill:#aaaaaa"/>
</svg>