<?xml version="1.0" encoding="UTF-8" standalone="no"?>
<svg xmlns:dc="http://purl.org/dc/elements/1.1/"
     xmlns:cc="http://creativecommons.org/ns#"
     xmlns:rdf="http://www.w3.org/1999/02/22-rdf-syntax-ns#"
     xmlns:svg="http://www.w3.org/2000/svg"
     xmlns="http://www.w3.org/2000/svg"
     xmlns:xlink="http://www.w3.org/1999/xlink"
     width="128" height="128" version="1.1">
    <title>Settings Icon</title>
    <desc>This is shape (source) for Clarity vector icon theme for gtk</desc>
    <metadata>
        <rdf:RDF>
            <cc:Work rdf:about="">
                <dc:title>Settings Icon</dc:title>
                <dc:description>This is shape (source) for Clarity vector icon theme for gtk</dc:description>
                <dc:creator>
                    <cc:Agent>
                        <dc:title>Jakub Jankiewicz</dc:title>
                    </cc:Agent>
                </dc:creator>
                <dc:rights>
                    <cc:Agent>
                        <dc:title>Jakub Jankiewicz</dc:title>
                    </cc:Agent>
                </dc:rights>
                <dc:date>2010</dc:date>
                <dc:format>image/svg+xml</dc:format>
                <dc:type rdf:resource="http://purl.org/dc/dcmitype/StillImage" />
                <cc:license rdf:resource="http://creativecommons.org/licenses/by-sa/3.0/" />
             </cc:Work>
        </rdf:RDF>
    </metadata>
    <path d="m 19.999999,13.999999 c -4.432,0 -8,3.568 -8,8 V 106 c 0,4.432 3.568,8 8,8 H 108 c 4.432,0 8,-3.568 8,-8 V 21.999999 c 0,-4.432 -3.568,-8 -8,-8 z M 48,29.189452 h 32 c 7.756,0 14,6.244 14,14 0,7.756001 -6.244,14 -14,14 H 48 c -7.756001,0 -14,-6.243999 -14,-14 0,-7.756 6.243999,-14 14,-14 z m 31.710939,0.863281 A 13.135946,13.135946 0 0 0 66.576169,43.189452 13.135946,13.135946 0 0 0 79.710939,56.324217 13.135946,13.135946 0 0 0 92.847659,43.189452 13.135946,13.135946 0 0 0 79.710939,30.052733 Z M 48,70.808592 h 32 c 7.756,0 14,6.243999 14,13.999999 0,7.756 -6.244,14 -14,14 H 48 c -7.756001,0 -14,-6.244 -14,-14 0,-7.756 6.243999,-13.999999 14,-13.999999 z m 0.289059,0.863282 a 13.135946,13.135946 0 0 0 -13.13672,13.136717 13.135946,13.135946 0 0 0 13.13672,13.13477 13.135946,13.135946 0 0 0 13.13477,-13.13477 13.135946,13.135946 0 0 0 -13.13477,-13.136717 z" style="fill:#aaaaaa"/>
</svg>