<?xml version="1.0" encoding="UTF-8" standalone="no"?>
<svg xmlns:dc="http://purl.org/dc/elements/1.1/"
     xmlns:cc="http://creativecommons.org/ns#"
     xmlns:rdf="http://www.w3.org/1999/02/22-rdf-syntax-ns#"
     xmlns:svg="http://www.w3.org/2000/svg"
     xmlns="http://www.w3.org/2000/svg"
     xmlns:xlink="http://www.w3.org/1999/xlink"
     width="128" height="128" version="1.1">
    <title>Keyboard Settings Icon</title>
    <desc>This is shape (source) for Clarity vector icon theme for gtk</desc>
    <metadata>
        <rdf:RDF>
            <cc:Work rdf:about="">
                <dc:title>Keyboard Settings Icon</dc:title>
                <dc:description>This is shape (source) for Clarity vector icon theme for gtk</dc:description>
                <dc:creator>
                    <cc:Agent>
                        <dc:title>Jakub Jankiewicz</dc:title>
                    </cc:Agent>
                </dc:creator>
                <dc:rights>
                    <cc:Agent>
                        <dc:title>Jakub Jankiewicz</dc:title>
                    </cc:Agent>
                </dc:rights>
                <dc:date>2010</dc:date>
                <dc:format>image/svg+xml</dc:format>
                <dc:type rdf:resource="http://purl.org/dc/dcmitype/StillImage" />
                <cc:license rdf:resource="http://creativecommons.org/licenses/by-sa/3.0/" />
             </cc:Work>
        </rdf:RDF>
    </metadata>
    <path d="m 26.732719,15.529956 c -2.707657,0 -4.883085,2.173208 -4.883085,4.880871 v 47.055588 c 0,2.707654 2.175427,4.880871 4.883085,4.880871 h 74.534561 c 2.70767,0 4.88309,-2.173217 4.88309,-4.880871 V 20.410827 c 0,-2.707664 -2.17542,-4.880871 -4.88309,-4.880871 z m 2.441542,10.525417 h 7.010304 v 6.875278 h -7.010304 z m 12.519823,0 h 7.032441 v 6.875278 h -7.032441 z m 12.519824,0 h 7.032439 v 6.875278 h -7.032439 z m 12.539746,0 h 7.010303 v 6.875278 h -7.010303 z m 12.519822,0 h 7.010304 v 6.875278 h -7.010304 z m 12.519824,0 h 7.03244 v 6.875278 H 91.7933 Z M 35.445241,40.098116 h 7.010303 v 6.875278 h -7.010303 z m 12.519822,0 h 7.010305 v 6.875278 h -7.010305 z m 12.519825,0 h 7.00809 v 6.875278 h -7.00809 z m 12.517609,0 h 7.03244 v 6.875278 h -7.03244 z m 12.519823,0 h 7.032439 v 6.875278 H 85.52232 Z M 29.039235,55.283051 h 10.011874 v 6.875278 H 29.039235 Z m 15.184934,0 h 39.551663 v 6.875278 H 44.224169 Z m 44.702587,0 h 10.034009 v 6.875278 H 88.926756 Z M 50.807259,82.153301 20.703016,97.311672 50.807259,112.47005 v -8.21669 h 26.4209 v 8.21669 L 107.29698,97.311672 77.228159,82.153301 v 8.429188 h -26.4209 z" style="fill:#aaaaaa"/>
</svg>