<?xml version="1.0" encoding="UTF-8" standalone="no"?>
<svg width="128" height="128" version="1.1" id="svg1" xmlns="http://www.w3.org/2000/svg" xmlns:svg="http://www.w3.org/2000/svg" xmlns:rdf="http://www.w3.org/1999/02/22-rdf-syntax-ns#" xmlns:cc="http://creativecommons.org/ns#" xmlns:dc="http://purl.org/dc/elements/1.1/">
  <defs id="defs1" />
  <title id="title1">Network Monitor Icon</title>
  <desc id="desc1">This is shape (source) for Clarity vector icon theme for gtk</desc>
  <metadata id="metadata1">
    <rdf:RDF>
      <cc:Work rdf:about="">
        <dc:title>Network Monitor Icon</dc:title>
        <dc:description>This is shape (source) for Clarity vector icon theme for gtk</dc:description>
        <dc:creator>
          <cc:Agent>
            <dc:title>Jakub Jankiewicz</dc:title>
          </cc:Agent>
        </dc:creator>
        <dc:rights>
          <cc:Agent>
            <dc:title>Jakub Jankiewicz</dc:title>
          </cc:Agent>
        </dc:rights>
        <dc:date>2010</dc:date>
        <dc:format>image/svg+xml</dc:format>
        <dc:type rdf:resource="http://purl.org/dc/dcmitype/StillImage" />
        <cc:license rdf:resource="http://creativecommons.org/licenses/by-sa/3.0/" />
      </cc:Work>
    </rdf:RDF>
  </metadata>
  <path d="m 15.6875,10.6875 c -2.762079,0 -5,2.237921 -5,5 v 96.625 c 0,2.76208 2.237921,5 5,5 h 96.625 c 2.76208,0 5,-2.23792 5,-5 v -96.625 c 0,-2.762079 -2.23792,-5 -5,-5 z m 3.166016,6.005859 h 90.292964 c 1.59562,0 2.88086,1.283287 2.88086,2.878907 v 88.855464 c 0,1.59562 -1.28524,2.87891 -2.88086,2.87891 H 18.853516 c -1.59562,0 -2.88086,-1.28329 -2.88086,-2.87891 V 19.572266 c 0,-1.59562 1.28524,-2.878907 2.88086,-2.878907 z m 25.744365,16.138672 -13.375,26.53125 h 7.4375 v 35.804688 h 12.0625 V 59.363281 h 7.25 z m 33.681376,0 v 35.804688 h -7.4375 l 13.375,26.53125 13.375004,-26.53125 H 90.341757 V 32.832031 Z" style="fill:#aaaaaa" id="path1" />
</svg>
