<?xml version="1.0" encoding="UTF-8" standalone="no"?>
<svg xmlns:dc="http://purl.org/dc/elements/1.1/"
     xmlns:cc="http://creativecommons.org/ns#"
     xmlns:rdf="http://www.w3.org/1999/02/22-rdf-syntax-ns#"
     xmlns:svg="http://www.w3.org/2000/svg"
     xmlns="http://www.w3.org/2000/svg"
     xmlns:xlink="http://www.w3.org/1999/xlink"
     width="128" height="128" version="1.1">
    <title>Screenshot App Icon</title>
    <desc>This is shape (source) for Clarity vector icon theme for gtk</desc>
    <metadata>
        <rdf:RDF>
            <cc:Work rdf:about="">
                <dc:title>Screenshot App Icon</dc:title>
                <dc:description>This is shape (source) for Clarity vector icon theme for gtk</dc:description>
                <dc:creator>
                    <cc:Agent>
                        <dc:title>Jakub Jankiewicz</dc:title>
                    </cc:Agent>
                </dc:creator>
                <dc:rights>
                    <cc:Agent>
                        <dc:title>Jakub Jankiewicz</dc:title>
                    </cc:Agent>
                </dc:rights>
                <dc:date>2010</dc:date>
                <dc:format>image/svg+xml</dc:format>
                <dc:type rdf:resource="http://purl.org/dc/dcmitype/StillImage" />
                <cc:license rdf:resource="http://creativecommons.org/licenses/by-sa/3.0/" />
             </cc:Work>
        </rdf:RDF>
    </metadata>
    <path d="M 17.117188 16.990234 C 12.662534 16.990234 9.0664063 20.543392 9.0664062 24.998047 L 9.0664062 88.884766 C 9.0664062 93.339426 12.662534 96.935547 17.117188 96.935547 L 110.92578 96.935547 C 115.38043 96.935547 118.93359 93.339426 118.93359 88.884766 L 118.93359 24.998047 C 118.93359 20.543392 115.38043 16.990234 110.92578 16.990234 L 17.117188 16.990234 z M 20.447266 26.177734 L 107.59766 26.177734 L 107.59766 87.746094 L 20.447266 87.746094 L 20.447266 26.177734 z M 45.722656 39.542969 C 43.179737 39.685022 40.726897 40.841709 39.896484 42.900391 C 38.79904 45.621071 40.671054 48.590882 43.958984 49.65625 C 47.63107 50.846095 52.072488 51.578732 56.001953 55.621094 C 56.441025 56.072782 56.882799 56.520848 57.324219 56.962891 C 56.882799 57.404929 56.441025 57.851046 56.001953 58.302734 C 52.072488 62.345096 47.63107 63.079686 43.958984 64.269531 C 40.671054 65.3349 38.79904 68.30471 39.896484 71.025391 C 40.981106 73.714283 44.832555 74.86104 48.039062 74.222656 C 51.29 73.575425 53.799792 71.384475 53.210938 68.341797 C 52.996834 67.23551 52.36413 66.411809 51.921875 66.048828 C 51.546827 65.741007 51.16171 65.492195 50.738281 65.248047 C 51.636606 64.585891 52.731798 64.09866 53.603516 63.724609 C 55.459317 62.928291 58.19277 61.803581 61.333984 59.994141 C 67.015373 63.223633 74.398725 67.408673 78.478516 69.720703 C 82.558607 72.032908 86.73372 70.866563 88.462891 69.806641 L 66.582031 56.962891 L 88.462891 44.119141 C 86.73372 43.059218 82.558607 41.892872 78.478516 44.205078 C 74.398725 46.51711 67.015373 50.700197 61.333984 53.929688 C 58.19277 52.120247 55.459317 50.997489 53.603516 50.201172 C 52.731798 49.82712 51.636606 49.339889 50.738281 48.677734 C 51.16171 48.433586 51.546827 48.184774 51.921875 47.876953 C 52.36413 47.513971 52.996831 46.688322 53.210938 45.582031 C 53.799794 42.539355 51.290001 40.348403 48.039062 39.701172 C 47.63825 39.621372 47.226796 39.569379 46.8125 39.544922 C 46.449993 39.523522 46.08593 39.522759 45.722656 39.542969 z M 46.255859 41.736328 C 47.321743 41.776258 48.391302 42.123739 49.09375 42.685547 C 50.297885 43.648598 50.521707 44.98053 50.060547 46.070312 C 49.599371 47.160133 48.486663 47.975539 46.769531 47.964844 C 45.236036 47.955244 43.896975 47.23468 43.117188 46.271484 C 42.337429 45.308324 42.145052 44.190043 42.919922 43.130859 C 43.545988 42.275078 44.594033 41.79695 45.802734 41.740234 C 45.953808 41.733134 46.103587 41.730728 46.255859 41.736328 z M 46.769531 65.962891 C 48.486663 65.952201 49.599371 66.765652 50.060547 67.855469 C 50.521707 68.945252 50.297885 70.27523 49.09375 71.238281 C 48.290952 71.880345 47.011333 72.244216 45.802734 72.1875 C 44.594033 72.13078 43.545988 71.652656 42.919922 70.796875 C 42.145052 69.737692 42.337431 68.617453 43.117188 67.654297 C 43.896974 66.6911 45.236036 65.972506 46.769531 65.962891 z M 36.796875 102.45508 C 32.056056 102.45508 28.244141 106.26895 28.244141 111.00977 L 99.800781 111.00977 C 99.800781 106.26895 95.984963 102.45508 91.244141 102.45508 L 36.796875 102.45508 z" style="fill:#aaaaaa"/>
</svg>