<?xml version="1.0" encoding="UTF-8" standalone="no"?>
<svg xmlns:dc="http://purl.org/dc/elements/1.1/"
     xmlns:cc="http://creativecommons.org/ns#"
     xmlns:rdf="http://www.w3.org/1999/02/22-rdf-syntax-ns#"
     xmlns:svg="http://www.w3.org/2000/svg"
     xmlns="http://www.w3.org/2000/svg"
     xmlns:xlink="http://www.w3.org/1999/xlink"
     width="128" height="128" version="1.1">
    <title>Display Settings Icon</title>
    <desc>This is shape (source) for Clarity vector icon theme for gtk</desc>
    <metadata>
        <rdf:RDF>
            <cc:Work rdf:about="">
                <dc:title>Display Settings Icon</dc:title>
                <dc:description>This is shape (source) for Clarity vector icon theme for gtk</dc:description>
                <dc:creator>
                    <cc:Agent>
                        <dc:title>Jakub Jankiewicz</dc:title>
                    </cc:Agent>
                </dc:creator>
                <dc:rights>
                    <cc:Agent>
                        <dc:title>Jakub Jankiewicz</dc:title>
                    </cc:Agent>
                </dc:rights>
                <dc:date>2010</dc:date>
                <dc:format>image/svg+xml</dc:format>
                <dc:type rdf:resource="http://purl.org/dc/dcmitype/StillImage" />
                <cc:license rdf:resource="http://creativecommons.org/licenses/by-sa/3.0/" />
             </cc:Work>
        </rdf:RDF>
    </metadata>
    <path d="M 17.117188 16.990234 C 12.662537 16.990234 9.0664063 20.543392 9.0664062 24.998047 L 9.0664062 88.884766 C 9.0664062 93.339426 12.662537 96.935547 17.117188 96.935547 L 110.92578 96.935547 C 115.38043 96.935547 118.93359 93.339426 118.93359 88.884766 L 118.93359 24.998047 C 118.93359 20.543392 115.38043 16.990234 110.92578 16.990234 L 17.117188 16.990234 z M 20.447266 26.177734 L 107.59766 26.177734 L 107.59766 87.746094 L 20.447266 87.746094 L 20.447266 26.177734 z M 102.67969 39.314453 L 29.378906 83.09375 L 37.478516 83.09375 L 37.478516 81.09375 L 38.703125 81.09375 L 38.703125 83.09375 L 40.494141 83.09375 L 40.494141 81.09375 L 41.71875 81.09375 L 41.71875 83.09375 L 43.507812 83.09375 L 43.507812 81.197266 L 44.732422 81.197266 L 44.732422 83.09375 L 46.523438 83.09375 L 46.523438 81.197266 L 47.748047 81.197266 L 47.748047 83.09375 L 49.324219 83.09375 L 49.324219 79.464844 L 50.548828 79.464844 L 50.548828 83.09375 L 52.337891 83.09375 L 52.337891 81.09375 L 53.5625 81.09375 L 53.5625 83.09375 L 55.353516 83.09375 L 55.353516 81.09375 L 56.578125 81.09375 L 56.578125 83.09375 L 58.369141 83.09375 L 58.369141 81.197266 L 59.591797 81.197266 L 59.591797 83.09375 L 61.382812 83.09375 L 61.382812 81.197266 L 62.607422 81.197266 L 62.607422 83.09375 L 64.398438 83.09375 L 64.398438 79.464844 L 65.623047 79.464844 L 65.623047 83.09375 L 67.414062 83.09375 L 67.414062 81.09375 L 68.636719 81.09375 L 68.636719 83.09375 L 70.427734 83.09375 L 70.427734 81.09375 L 71.652344 81.09375 L 71.652344 83.09375 L 73.443359 83.09375 L 73.443359 81.197266 L 74.667969 81.197266 L 74.667969 83.09375 L 76.457031 83.09375 L 76.457031 81.197266 L 77.681641 81.197266 L 77.681641 83.09375 L 79.472656 83.09375 L 79.472656 79.464844 L 80.697266 79.464844 L 80.697266 83.09375 L 82.488281 83.09375 L 82.488281 81.09375 L 83.710938 81.09375 L 83.710938 83.09375 L 85.501953 83.09375 L 85.501953 81.09375 L 86.726562 81.09375 L 86.726562 83.09375 L 88.517578 83.09375 L 88.517578 81.197266 L 89.742188 81.197266 L 89.742188 83.09375 L 91.533203 83.09375 L 91.533203 81.197266 L 92.755859 81.197266 L 92.755859 83.09375 L 94.546875 83.09375 L 94.546875 79.464844 L 95.771484 79.464844 L 95.771484 83.09375 L 97.253906 83.09375 L 97.253906 81.09375 L 98.476562 81.09375 L 98.476562 83.09375 L 100.26758 83.09375 L 100.26758 81.09375 L 101.49219 81.09375 L 101.49219 83.09375 L 102.67969 83.09375 L 102.67969 39.314453 z M 94.759766 53.271484 L 94.759766 75.173828 L 58.085938 75.173828 L 94.759766 53.271484 z M 36.796875 102.45508 C 32.056055 102.45508 28.244141 106.26895 28.244141 111.00977 L 99.800781 111.00977 C 99.800781 106.26895 95.984963 102.45508 91.244141 102.45508 L 36.796875 102.45508 z" style="fill:#aaaaaa"/>
</svg>