<?xml version="1.0" encoding="UTF-8" standalone="no"?>
<svg xmlns:dc="http://purl.org/dc/elements/1.1/"
     xmlns:cc="http://creativecommons.org/ns#"
     xmlns:rdf="http://www.w3.org/1999/02/22-rdf-syntax-ns#"
     xmlns:svg="http://www.w3.org/2000/svg"
     xmlns="http://www.w3.org/2000/svg"
     xmlns:xlink="http://www.w3.org/1999/xlink"
     width="128" height="128" version="1.1">
    <title>Computer Actions Icon</title>
    <desc>This is shape (source) for Clarity vector icon theme for gtk</desc>
    <metadata>
        <rdf:RDF>
            <cc:Work rdf:about="">
                <dc:title>Computer Actions Icon</dc:title>
                <dc:description>This is shape (source) for Clarity vector icon theme for gtk</dc:description>
                <dc:creator>
                    <cc:Agent>
                        <dc:title>Jakub Jankiewicz</dc:title>
                    </cc:Agent>
                </dc:creator>
                <dc:rights>
                    <cc:Agent>
                        <dc:title>Jakub Jankiewicz</dc:title>
                    </cc:Agent>
                </dc:rights>
                <dc:date>2010</dc:date>
                <dc:format>image/svg+xml</dc:format>
                <dc:type rdf:resource="http://purl.org/dc/dcmitype/StillImage" />
                <cc:license rdf:resource="http://creativecommons.org/licenses/by-sa/3.0/" />
             </cc:Work>
        </rdf:RDF>
    </metadata>
    <path d="M 64 6.5683594 A 57.431984 57.431984 0 0 0 6.5683594 64 A 57.431984 57.431984 0 0 0 64 121.43164 A 57.431984 57.431984 0 0 0 121.43164 64 A 57.431984 57.431984 0 0 0 64 6.5683594 z M 61.333984 13.384766 L 66.138672 13.384766 C 68.61603 13.384766 70.589844 15.38397 70.589844 17.861328 L 70.589844 49.982422 C 70.589844 52.459781 68.61603 54.458984 66.138672 54.458984 L 61.333984 54.458984 C 58.856626 54.458984 56.857422 52.459781 56.857422 49.982422 L 56.857422 17.861328 C 56.857422 15.38397 58.856626 13.384766 61.333984 13.384766 z M 74.363281 27.1875 C 90.061841 31.688108 101.55273 46.139902 101.55273 63.283203 C 101.55273 84.022786 84.739582 100.8125 64 100.8125 C 43.260426 100.8125 26.447266 84.022786 26.447266 63.283203 C 26.447266 46.415979 37.546864 32.130671 52.857422 27.388672 L 52.857422 40.796875 C 44.580761 44.903718 38.871094 53.422037 38.871094 63.283203 C 38.871094 77.144325 50.138881 88.361328 64 88.361328 C 77.861136 88.361328 89.078125 77.144325 89.078125 63.283203 C 89.078125 53.120846 83.046304 44.370222 74.363281 40.419922 L 74.363281 27.1875 z" style="fill:#aaaaaa"/>
</svg>