<?xml version="1.0" encoding="UTF-8" standalone="no"?>
<svg xmlns:dc="http://purl.org/dc/elements/1.1/"
     xmlns:cc="http://creativecommons.org/ns#"
     xmlns:rdf="http://www.w3.org/1999/02/22-rdf-syntax-ns#"
     xmlns:svg="http://www.w3.org/2000/svg"
     xmlns="http://www.w3.org/2000/svg"
     xmlns:xlink="http://www.w3.org/1999/xlink"
     width="128" height="128" version="1.1">
    <title>Terminal Settings Icon</title>
    <desc>This is shape (source) for Clarity vector icon theme for gtk</desc>
    <metadata>
        <rdf:RDF>
            <cc:Work rdf:about="">
                <dc:title>Terminal Settings Icon</dc:title>
                <dc:description>This is shape (source) for Clarity vector icon theme for gtk</dc:description>
                <dc:creator>
                    <cc:Agent>
                        <dc:title>Jakub Jankiewicz</dc:title>
                    </cc:Agent>
                </dc:creator>
                <dc:rights>
                    <cc:Agent>
                        <dc:title>Jakub Jankiewicz</dc:title>
                    </cc:Agent>
                </dc:rights>
                <dc:date>2010</dc:date>
                <dc:format>image/svg+xml</dc:format>
                <dc:type rdf:resource="http://purl.org/dc/dcmitype/StillImage" />
                <cc:license rdf:resource="http://creativecommons.org/licenses/by-sa/3.0/" />
             </cc:Work>
        </rdf:RDF>
    </metadata>
    <path d="M 20.246094 21.347656 C 16.281453 21.347656 13.080078 24.521692 13.080078 28.486328 L 13.080078 99.513672 C 13.080078 103.47831 16.281453 106.65234 20.246094 106.65234 L 74.496094 106.65234 C 73.928128 106.16299 73.551728 105.48838 73.433594 104.74805 L 73.017578 102.14648 C 72.825684 100.94478 73.337824 99.739162 74.335938 99.042969 L 78.402344 96.205078 L 21.347656 96.205078 L 21.347656 31.794922 L 106.67969 31.794922 L 106.67969 72.640625 L 107.39062 71.955078 C 108.27474 71.101802 109.57193 70.835514 110.7207 71.271484 L 113.18555 72.208984 C 113.94706 72.49856 114.56804 73.069893 114.91992 73.804688 L 114.91992 28.486328 C 114.91992 24.521692 111.74589 21.347656 107.78125 21.347656 L 20.246094 21.347656 z M 32.896484 41.136719 L 32.896484 48.910156 L 52.328125 56.490234 L 32.896484 64.125 L 32.896484 71.951172 L 60.761719 59.824219 L 60.761719 53.181641 L 32.896484 41.136719 z M 94.46875 74.029297 L 91.970703 74.931641 L 91.416016 80.376953 L 91.796875 81.662109 L 92.318359 82.597656 C 90.57027 83.58164 89.02015 84.848015 87.667969 86.310547 L 86.90625 85.650391 L 85.759766 85.027344 L 80.279297 84.505859 L 78.925781 86.794922 L 82.013672 91.339844 L 83.125 92.068359 L 83.886719 92.345703 C 83.160127 94.201711 82.714155 96.193351 82.603516 98.279297 L 81.945312 98.244141 L 80.626953 98.521484 L 76.150391 101.64453 L 76.566406 104.24609 L 81.839844 105.77344 L 83.158203 105.59961 L 83.574219 105.42578 C 84.248778 107.41024 85.275189 109.24195 86.523438 110.87305 L 86.210938 111.08008 L 85.449219 112.12109 L 83.957031 117.42969 L 85.96875 119.16406 L 91 116.9082 L 91.900391 115.97266 L 92.005859 115.76367 C 93.779515 116.80773 95.753748 117.59127 97.833984 118.01953 L 97.763672 118.1582 L 97.833984 119.47656 L 100.08789 124.47266 L 102.75977 124.50586 L 105.1543 119.58008 L 105.22266 118.26172 L 105.22266 118.08789 C 107.31395 117.69981 109.25812 116.98174 111.05078 115.97266 L 111.18945 116.17969 L 112.05859 117.11719 L 117.01953 119.51172 L 119.06641 117.81055 L 117.71289 112.50391 L 116.94922 111.46289 L 116.63672 111.18555 C 117.91407 109.58838 118.94004 107.79788 119.65625 105.8418 L 120.17578 106.01562 L 121.45898 106.22461 L 126.76758 104.83594 L 127.25391 102.23438 L 122.8125 99.007812 L 121.56445 98.695312 L 120.80078 98.695312 C 120.73798 96.614947 120.36549 94.625708 119.68945 92.763672 L 120.52344 92.486328 L 121.63281 91.791016 L 124.82422 87.316406 L 123.50586 85.027344 L 118.02539 85.408203 L 116.8457 85.998047 L 116.04688 86.65625 C 114.72957 85.156272 113.22578 83.870376 111.50195 82.841797 L 112.0918 81.869141 L 112.50781 80.654297 L 112.05859 75.173828 L 109.59375 74.236328 L 105.63867 78.052734 L 105.11914 79.232422 L 104.91016 80.447266 C 103.86503 80.270361 102.78104 80.169922 101.68555 80.169922 C 100.76607 80.169922 99.898512 80.218246 99.013672 80.34375 L 98.804688 79.197266 L 98.320312 77.984375 L 94.46875 74.029297 z M 62.855469 82.728516 L 62.855469 87.771484 L 75.90625 87.771484 C 75.626814 86.906906 75.731341 85.964022 76.193359 85.181641 L 77.546875 82.892578 C 77.579705 82.836848 77.614225 82.782136 77.650391 82.728516 L 62.855469 82.728516 z M 101.68555 86.414062 C 108.79665 86.414062 114.58984 92.174054 114.58984 99.285156 C 114.58984 106.39625 108.79665 112.15625 101.68555 112.15625 C 94.574454 112.15625 88.814453 106.39625 88.814453 99.285156 C 88.814453 92.174054 94.574454 86.414062 101.68555 86.414062 z" style="fill:#aaaaaa"/>
</svg>