<?xml version="1.0" encoding="UTF-8" standalone="no"?>
<svg xmlns:dc="http://purl.org/dc/elements/1.1/"
     xmlns:cc="http://creativecommons.org/ns#"
     xmlns:rdf="http://www.w3.org/1999/02/22-rdf-syntax-ns#"
     xmlns:svg="http://www.w3.org/2000/svg"
     xmlns="http://www.w3.org/2000/svg"
     xmlns:xlink="http://www.w3.org/1999/xlink"
     width="128" height="128" version="1.1">
    <title>Megaphone Icon</title>
    <desc>This is shape (source) for Clarity vector icon theme for gtk</desc>
    <metadata>
        <rdf:RDF>
            <cc:Work rdf:about="">
                <dc:title>Megaphone Icon</dc:title>
                <dc:description>This is shape (source) for Clarity vector icon theme for gtk</dc:description>
                <dc:creator>
                    <cc:Agent>
                        <dc:title>Jakub Jankiewicz</dc:title>
                    </cc:Agent>
                </dc:creator>
                <dc:rights>
                    <cc:Agent>
                        <dc:title>Jakub Jankiewicz</dc:title>
                    </cc:Agent>
                </dc:rights>
                <dc:date>2010</dc:date>
                <dc:format>image/svg+xml</dc:format>
                <dc:type rdf:resource="http://purl.org/dc/dcmitype/StillImage" />
                <cc:license rdf:resource="http://creativecommons.org/licenses/by-sa/3.0/" />
             </cc:Work>
        </rdf:RDF>
    </metadata>
    <path d="m 119.24805,8.5019515 c -1.38667,0 -2.50353,1.33644 -2.50391,2.9980465 C 98.04535,25.73988 69.59498,33.105649 56.24805,34.318357 v -0.320312 h -27.99219 -0.0078 a 22,23 0 0 0 -22,23 22,23 0 0 0 22,23 h 3.7207 l 13.7793,39.500005 h 12 L 48.5625,79.998045 h 6.27539 c 13.88695,2.945466 40.68666,2.330728 61.90625,22.496095 1e-4,1.6619 1.11707,3 2.50391,3 1.3869,0 2.5039,-1.338 2.5039,-3 V 11.501952 c 0,-1.6620005 -1.117,-3.0000005 -2.5039,-3.0000005 z" style="fill:#aaaaaa"/>
</svg>