<?xml version="1.0" encoding="UTF-8" standalone="no"?>
<svg xmlns:dc="http://purl.org/dc/elements/1.1/"
     xmlns:cc="http://creativecommons.org/ns#"
     xmlns:rdf="http://www.w3.org/1999/02/22-rdf-syntax-ns#"
     xmlns:svg="http://www.w3.org/2000/svg"
     xmlns="http://www.w3.org/2000/svg"
     xmlns:xlink="http://www.w3.org/1999/xlink"
     width="128" height="128" version="1.1">
    <title>As Heart Card Icon</title>
    <desc>This is shape (source) for Clarity vector icon theme for gtk</desc>
    <metadata>
        <rdf:RDF>
            <cc:Work rdf:about="">
                <dc:title>As Heart Card Icon</dc:title>
                <dc:description>This is shape (source) for Clarity vector icon theme for gtk</dc:description>
                <dc:creator>
                    <cc:Agent>
                        <dc:title>Jakub Jankiewicz</dc:title>
                    </cc:Agent>
                </dc:creator>
                <dc:rights>
                    <cc:Agent>
                        <dc:title>Jakub Jankiewicz</dc:title>
                    </cc:Agent>
                </dc:rights>
                <dc:date>2010</dc:date>
                <dc:format>image/svg+xml</dc:format>
                <dc:type rdf:resource="http://purl.org/dc/dcmitype/StillImage" />
                <cc:license rdf:resource="http://www.gnu.org/copyleft/gpl.html" />
             </cc:Work>
        </rdf:RDF>
    </metadata>
    <path d="M 35.4375 12.4375 C 30.659773 12.4375 26.8125 16.284773 26.8125 21.0625 L 26.8125 106.9375 C 26.8125 111.71523 30.659773 115.5625 35.4375 115.5625 L 92.5625 115.5625 C 97.34022 115.5625 101.1875 111.71523 101.1875 106.9375 L 101.1875 21.0625 C 101.1875 16.284773 97.34022 12.4375 92.5625 12.4375 L 35.4375 12.4375 z M 40.5 19.21875 A 0.53782625 0.53782625 0 0 1 40.5625 19.21875 A 0.53782625 0.53782625 0 0 1 40.65625 19.21875 L 41.0625 19.21875 A 0.53782625 0.53782625 0 0 1 41.5625 19.53125 L 47.3125 33.25 C 47.766457 34.333165 48.152833 35.02074 48.375 35.21875 C 48.637033 35.441764 49.100056 35.620865 49.6875 35.65625 A 0.53782625 0.53782625 0 0 1 50.1875 36.1875 L 50.1875 36.625 A 0.53782625 0.53782625 0 0 1 49.65625 37.15625 L 43.15625 37.15625 A 0.53782625 0.53782625 0 0 1 42.625 36.625 L 42.625 36.1875 A 0.53782625 0.53782625 0 0 1 43.125 35.65625 C 43.725361 35.6266 44.012863 35.503938 44.09375 35.4375 C 44.244306 35.318089 44.249995 35.3103 44.25 35.1875 C 44.249993 34.975012 44.121123 34.42051 43.8125 33.6875 A 0.53782625 0.53782625 0 0 1 43.8125 33.65625 L 42.96875 31.625 L 37.3125 31.625 L 36.3125 33.9375 C 36.050746 34.545688 35.937498 34.987281 35.9375 35.15625 C 35.937499 35.239256 35.96865 35.290971 36.0625 35.375 C 36.12498 35.422903 36.560177 35.602518 37.3125 35.65625 A 0.53782625 0.53782625 0 0 1 37.8125 36.1875 L 37.8125 36.625 A 0.53782625 0.53782625 0 0 1 37.28125 37.15625 L 32.09375 37.15625 A 0.53782625 0.53782625 0 0 1 31.5625 36.625 L 31.5625 36.1875 A 0.53782625 0.53782625 0 0 1 32 35.65625 C 32.641081 35.543117 33.076189 35.329359 33.09375 35.3125 A 0.53782625 0.53782625 0 0 1 33.09375 35.28125 C 33.376991 35.01467 33.81844 34.265148 34.3125 33.09375 L 40.15625 19.53125 A 0.53782625 0.53782625 0 0 1 40.5 19.21875 z M 40.1875 24.90625 L 38.09375 29.65625 L 42.15625 29.65625 L 40.1875 24.90625 z M 57.53125 52.25 C 61.0109 52.25 63.825554 55.382363 64 59.3125 C 64.173945 55.38181 67.02001 52.25 70.5 52.25 C 74.09206 52.25 77 55.579189 77 59.6875 C 77 68.811047 64 75.78125 64 75.78125 C 64 75.78125 51 68.760448 51 59.6875 C 51 55.579189 53.939181 52.25 57.53125 52.25 z M 78.1875 90.875 A 0.53782625 0.53782625 0 0 1 78.25 90.875 A 0.53782625 0.53782625 0 0 1 78.34375 90.875 L 84.875 90.875 A 0.53782625 0.53782625 0 0 1 85.40625 91.40625 L 85.40625 91.84375 A 0.53782625 0.53782625 0 0 1 84.90625 92.375 C 84.305051 92.404691 83.968449 92.542661 83.90625 92.59375 C 83.755698 92.713158 83.750005 92.720956 83.75 92.84375 C 83.750006 93.056229 83.878881 93.610737 84.1875 94.34375 L 85.0625 96.40625 L 90.6875 96.40625 L 91.6875 94.09375 C 91.952574 93.477848 92.09375 92.977334 92.09375 92.84375 C 92.09375 92.798459 92.047595 92.725335 91.9375 92.625 C 91.898022 92.594733 91.453804 92.42973 90.6875 92.375 A 0.53782625 0.53782625 0 0 1 90.1875 91.84375 L 90.1875 91.40625 A 0.53782625 0.53782625 0 0 1 90.71875 90.875 L 95.90625 90.875 A 0.53782625 0.53782625 0 0 1 96.4375 91.40625 L 96.4375 91.84375 A 0.53782625 0.53782625 0 0 1 96 92.375 C 95.348884 92.489903 95.005369 92.652346 94.96875 92.6875 A 0.53782625 0.53782625 0 0 1 94.96875 92.71875 C 94.665836 93.003847 94.17536 93.749545 93.6875 94.90625 L 87.84375 108.46875 A 0.53782625 0.53782625 0 0 1 87.34375 108.78125 L 86.9375 108.78125 A 0.53782625 0.53782625 0 0 1 86.4375 108.46875 L 80.6875 94.78125 C 80.232144 93.694747 79.834685 92.968134 79.625 92.78125 C 79.375947 92.569281 78.91648 92.411382 78.3125 92.375 A 0.53782625 0.53782625 0 0 1 77.8125 91.84375 L 77.8125 91.40625 A 0.53782625 0.53782625 0 0 1 78.1875 90.875 z M 85.84375 98.375 L 87.8125 103.125 L 89.90625 98.375 L 85.84375 98.375 z " style="fill:#aaaaaa"/>
</svg>