<?xml version="1.0" encoding="UTF-8" standalone="no"?>
<svg xmlns:dc="http://purl.org/dc/elements/1.1/"
     xmlns:cc="http://creativecommons.org/ns#"
     xmlns:rdf="http://www.w3.org/1999/02/22-rdf-syntax-ns#"
     xmlns:svg="http://www.w3.org/2000/svg"
     xmlns="http://www.w3.org/2000/svg"
     xmlns:xlink="http://www.w3.org/1999/xlink"
     width="128" height="128" version="1.1">
    <title>GNOME Disk Utility</title>
    <desc>This is shape (source) for Clarity vector icon theme for gtk</desc>
    <metadata>
        <rdf:RDF>
            <cc:Work rdf:about="">
                <dc:title>GNOME Disk Utility</dc:title>
                <dc:description>This is shape (source) for Clarity vector icon theme for gtk</dc:description>
                <dc:creator>
                    <cc:Agent>
                        <dc:title>Jakub Jankiewicz</dc:title>
                    </cc:Agent>
                </dc:creator>
                <dc:rights>
                    <cc:Agent>
                        <dc:title>Jakub Jankiewicz</dc:title>
                    </cc:Agent>
                </dc:rights>
                <dc:date>2010</dc:date>
                <dc:format>image/svg+xml</dc:format>
                <dc:type rdf:resource="http://purl.org/dc/dcmitype/StillImage" />
                <cc:license rdf:resource="http://creativecommons.org/licenses/by-sa/3.0/" />
             </cc:Work>
        </rdf:RDF>
    </metadata>
    <path d="m 23.846682,17.828123 c -2.163924,0 -3.544535,1.772772 -3.90625,3.90625 l -7.8125,38.40625 c -0.24378,2.150181 1.74233,3.90625 3.90625,3.90625 l 32.5,0 c -0.06093,-0.30277 -0.1114,-0.601374 -0.15625,-0.90625 a 2.3571099,2.3571099 0 0 1 3.21875,-2.53125 l 8.46875,3.4375 6.53125,0 c 0.03807,-0.07496 0.09274,-0.138801 0.125,-0.21875 l 1.21875,-3 c 0.573181,-1.420366 -0.05353,-2.928893 -1.46875,-3.5 l -12.75,-5.125 a 2.3571099,2.3571099 0 0 1 -0.875,-3.78125 c 0.195296,-0.215238 0.429533,-0.429522 0.65625,-0.65625 3.511056,-3.511057 8.115305,-5.253212 12.71875,-5.25 4.611304,0.0032 9.237929,1.769179 12.75,5.28125 4.411539,4.411543 5.983046,10.533058 4.84375,16.25 l 6.53125,0 12.999998,-13 c 0.13206,-0.132062 0.26789,-0.252926 0.40625,-0.375 l -5.874998,-28.9375 c -0.33352,-2.138067 -1.742332,-3.90625 -3.90625,-3.90625 l -70.125,0 z m 42.375,27.03125 c -4.013002,-0.0028 -8.002421,1.50242 -11.0625,4.5625 -0.1875,0.187509 -0.386276,0.399532 -0.5625,0.59375 l 12.75,5.125 c 2.590026,1.045192 3.826442,3.972474 2.78125,6.5625 l -1.21875,3 c -1.045192,2.590025 -3.972477,3.85769 -6.5625,2.8125 l -11.625,-4.71875 c 0.473845,3.221063 1.959981,6.334982 4.4375,8.8125 4.138463,4.138463 10.016801,5.458409 15.28125,4 l 32.468748,32.468757 c 2.78146,2.78145 7.2498,2.78145 10.03125,0 l 0.6875,-0.6875 c 2.78145,-2.78146 2.78147,-7.2498 0,-10.031257 l -32.343748,-32.375 c 1.577849,-5.330927 0.238852,-11.323644 -3.96875,-15.53125 -3.060079,-3.060079 -7.080748,-4.590955 -11.09375,-4.59375 z m 43.281248,5.96875 c -1.62857,-0.0024 -3.25084,0.625831 -4.5,1.875 l -16.031248,16.03125 2.46875,2.46875 16.812498,-16.78125 c 0.26207,-0.262064 0.67544,-0.262064 0.9375,0 0.26206,0.262063 0.26206,0.675437 0,0.9375 l -16.781248,16.78125 2.1875,2.1875 16.781248,-16.75 c 0.26206,-0.262064 0.70668,-0.262068 0.96875,0 0.26205,0.262064 0.26205,0.675437 0,0.9375 l -16.812498,16.78125 2.46875,2.4375 16.031248,-16 c 2.49833,-2.498337 2.46715,-6.532911 -0.0312,-9.03125 -1.24918,-1.249167 -2.87143,-1.872543 -4.5,-1.875 z m -93.468748,17.15625 c -2.16395,0 -3.90625,1.742293 -3.90625,3.90625 l 0,7.9375 c 0,2.16396 1.7423,3.90625 3.90625,3.90625 l 59.21875,0 -5.625,-5.625 c -5.669489,1.085723 -11.744291,-0.463041 -16.125,-4.84375 -1.567101,-1.5671 -2.775559,-3.369336 -3.65625,-5.28125 l -33.8125,0 z m 3.8125,4.71875 9.5625,0 c 0.722218,0 1.3125,0.559032 1.3125,1.28125 l 0,3.71875 c 0,0.722219 -0.590282,1.3125 -1.3125,1.3125 l -9.5625,0 c -0.722218,0 -1.3125,-0.590279 -1.3125,-1.3125 l 0,-3.71875 c 0,-0.722218 0.590282,-1.28125 1.3125,-1.28125 z m 85.843748,0.65625 -6.031248,6.03125 a 2.3571099,2.3571099 0 0 1 -0.375,0.3125 l 3.781248,3.78125 c 1.53217,-0.527423 2.625,-1.940619 2.625,-3.65625 l 0,-6.46875 z m -28.749998,12.84375 -7.53125,7.53125 -4.90625,0.9375 -7.9375,12.750007 2.75,2.75 12.75,-7.90625 0.9375,-4.906257 7.53125,-7.53125 -3.59375,-3.625 z m 30.999998,12.375 c 0.97122,0 1.91522,0.35274 2.65625,1.09375 1.48203,1.482027 1.48203,3.892967 0,5.375007 -1.48205,1.48203 -3.86172,1.48202 -5.34375,0 -1.48205,-1.48204 -1.48205,-3.89298 0,-5.375007 0.74101,-0.74101 1.71627,-1.09375 2.6875,-1.09375 z" style="fill:#aaaaaa"/>
</svg>