<?xml version="1.0" encoding="UTF-8" standalone="no"?>
<svg xmlns:dc="http://purl.org/dc/elements/1.1/"
     xmlns:cc="http://creativecommons.org/ns#"
     xmlns:rdf="http://www.w3.org/1999/02/22-rdf-syntax-ns#"
     xmlns:svg="http://www.w3.org/2000/svg"
     xmlns="http://www.w3.org/2000/svg"
     xmlns:xlink="http://www.w3.org/1999/xlink"
     width="128" height="128" version="1.1">
    <title>Palm Pilot Icon</title>
    <desc>This is shape (source) for Clarity vector icon theme for gtk</desc>
    <metadata>
        <rdf:RDF>
            <cc:Work rdf:about="">
                <dc:title>Palm Pilot Icon</dc:title>
                <dc:description>This is shape (source) for Clarity vector icon theme for gtk</dc:description>
                <dc:creator>
                    <cc:Agent>
                        <dc:title>Jakub Jankiewicz</dc:title>
                    </cc:Agent>
                </dc:creator>
                <dc:rights>
                    <cc:Agent>
                        <dc:title>Jakub Jankiewicz</dc:title>
                    </cc:Agent>
                </dc:rights>
                <dc:date>2010</dc:date>
                <dc:format>image/svg+xml</dc:format>
                <dc:type rdf:resource="http://purl.org/dc/dcmitype/StillImage" />
                <cc:license rdf:resource="http://www.gnu.org/copyleft/gpl.html" />
             </cc:Work>
        </rdf:RDF>
    </metadata>
    <path d="m 36.997993,9.9959884 c -5.089988,0 -9.000667,4.2314176 -9.000667,9.4928916 l 0,66.590886 c 0,28.335894 18.001334,31.924244 36.002673,31.924244 18.001339,0 36.002671,-3.58836 36.002671,-31.924244 l 0,-66.590886 c 0,-5.261474 -3.910676,-9.4928916 -9.000665,-9.4928916 l -54.004012,0 z m 8.438127,13.5010026 37.127758,0 c 3.549041,0 6.187962,3.468477 6.187962,6.187959 l 0,37.127758 c 0,3.251731 -3.318689,6.187961 -6.187962,6.187961 l -37.127758,0 c -4.208336,0 -6.187961,-3.468478 -6.187961,-6.187961 l 0,-37.127758 c 0,-2.719482 2.763574,-6.187959 6.187961,-6.187959 z m 11.813378,60.754513 13.501003,0 0,27.002006 -13.501003,0 0,-27.002006 z m -19.337374,4.500334 9.000667,0 0,18.001342 c 0,7.7233 -13.501003,-18.001342 -9.000667,-18.001342 z m 44.089214,0 9.000667,0 c 4.500336,0 -9.000667,25.724642 -9.000667,18.001342 l 0,-18.001342 z" style="fill:#aaaaaa"/>
</svg>