<?xml version="1.0" encoding="UTF-8" standalone="no"?>
<svg xmlns:dc="http://purl.org/dc/elements/1.1/"
     xmlns:cc="http://creativecommons.org/ns#"
     xmlns:rdf="http://www.w3.org/1999/02/22-rdf-syntax-ns#"
     xmlns:svg="http://www.w3.org/2000/svg"
     xmlns="http://www.w3.org/2000/svg"
     xmlns:xlink="http://www.w3.org/1999/xlink"
     width="128" height="128" version="1.1">
    <title>pithos</title>
    <desc>This is shape (source) for Clarity vector icon theme for gtk</desc>
    <metadata>
        <rdf:RDF>
            <cc:Work rdf:about="">
                <dc:title>pithos</dc:title>
                <dc:description>This is shape (source) for Clarity vector icon theme for gtk</dc:description>
                <dc:creator>
                    <cc:Agent>
                        <dc:title>Jakub Jankiewicz</dc:title>
                    </cc:Agent>
                </dc:creator>
                <dc:rights>
                    <cc:Agent>
                        <dc:title>Jakub Jankiewicz</dc:title>
                    </cc:Agent>
                </dc:rights>
                <dc:date>2010</dc:date>
                <dc:format>image/svg+xml</dc:format>
                <dc:type rdf:resource="http://purl.org/dc/dcmitype/StillImage" />
                <cc:license rdf:resource="http://www.gnu.org/copyleft/gpl.html" />
             </cc:Work>
        </rdf:RDF>
    </metadata>
    <path d="m 90.136753,6.9704359 c -1.239294,0.08377 -1.908049,1.407369 -2.03125,3.6250001 -0.259251,4.666522 -5.031936,58.498142 -5.46875,63.4375 -3.657901,-2.384222 -8.026813,-3.75 -12.71875,-3.75 -12.880404,0 -23.3125,10.432096 -23.3125,23.3125 0,12.880404 10.432096,23.312504 23.3125,23.312504 11.241969,0 20.671528,-7.93281 22.8125,-18.531248 1.945482,-9.630705 4.174583,-44.905173 6.46875,-67.156256 0,0 7.885067,14.086335 8.156247,19.78125 0.27119,5.694915 -2.18432,7.869703 -4.625,11.9375 -2.44068,4.067797 -1.06568,8.965572 1.375,11.40625 2.44068,2.440678 8.11971,-0.835275 12.1875,-7.34375 4.37134,-6.994131 4.33581,-15.717161 2.4375,-24.9375 -1.8983,-9.220339 -20.890887,-29.01589 -24.687497,-32.8125001 -1.661017,-1.661017 -2.942355,-2.346406 -3.90625,-2.28125 z m -44.65625,0.375 c -6.212393,0.05999 -11.143009,0.864407 -17.3125,3.0000001 -7.050848,2.440678 -8.40625,6.244703 -8.40625,10.3125 0,4.067796 3.787606,5.689089 -1.09375,12.46875 -4.881356,6.779661 -12.2108056,14.379237 -10.3125006,27.125 1.8983046,12.745762 7.3140906,20.06091 14.0937506,29.28125 6.283789,8.545956 8.949682,13.835274 7.59375,20.343754 -1.355932,6.50847 3.006356,10.55138 14.125,11.09375 8.985067,0.43829 16.452044,-1.51305 19.09375,-2.3125 -11.078513,-2.95171 -19.28125,-13.07174 -19.28125,-25.062504 0,-14.293809 11.643691,-25.9375 25.9375,-25.9375 3.721599,0 7.254818,0.802786 10.46875,2.21875 0.411576,-4.649949 1.315788,-15.062136 2.4375,-27.90625 0.02147,-0.245848 0.04104,-0.441592 0.0625,-0.6875 -1.884958,-1.960035 -3.66674,-4.108951 -4.5625,-6 -2.440678,-5.152543 -3.532309,-7.868644 -2.71875,-12.75 0.813559,-4.881356 6.261653,-5.942266 -2.6875,-10.28125 -8.949152,-4.3389831 -16.304032,-4.7276961 -24.6875,-4.9062501 -0.9468,-0.02017 -1.862515,-0.0086 -2.75,0 z" style="fill:#aaaaaa"/>
</svg>