<?xml version="1.0" encoding="UTF-8" standalone="no"?>
<svg xmlns:dc="http://purl.org/dc/elements/1.1/"
     xmlns:cc="http://creativecommons.org/ns#"
     xmlns:rdf="http://www.w3.org/1999/02/22-rdf-syntax-ns#"
     xmlns:svg="http://www.w3.org/2000/svg"
     xmlns="http://www.w3.org/2000/svg"
     xmlns:xlink="http://www.w3.org/1999/xlink"
     width="128" height="128" version="1.1">
    <title>Clarity Icon</title>
    <desc>This is PlayOnLinux for Clarity vector icon theme for gtk</desc>
    <metadata>
        <rdf:RDF>
            <cc:Work rdf:about="">
                <dc:title>Clarity Icon</dc:title>
                <dc:description>This is PlayOnLinux for Clarity vector icon theme for gtk</dc:description>
                <dc:creator>
                    <cc:Agent>
                        <dc:title>Chris Lenk</dc:title>
                    </cc:Agent>
                </dc:creator>
                <dc:rights>
                    <cc:Agent>
                        <dc:title>Chris Lenk</dc:title>
                    </cc:Agent>
                </dc:rights>
                <dc:date>2015</dc:date>
                <dc:format>image/svg+xml</dc:format>
                <dc:type rdf:resource="http://purl.org/dc/dcmitype/StillImage" />
                <cc:license rdf:resource="http://creativecommons.org/licenses/by-sa/3.0/" />
             </cc:Work>
        </rdf:RDF>
    </metadata>
    <path d="m 67.459209,5.9775539 c 1.940825,-0.157525 3.884638,-0.18725 5.834388,-0.08913 4.517712,1.206713 7.2105,5.3796501 11.24375,7.4601761 2.36585,1.174011 4.957587,1.798161 7.599862,1.836798 4.303713,0.297225 8.607421,1.964613 11.725241,4.999213 3.00785,3.620112 5.59365,8.1408 5.10621,13.021112 -0.0773,2.746288 -1.34937,5.234013 -2.37477,7.724688 -1.32559,3.177262 -3.43584,5.980025 -6.03056,8.229962 -4.446371,3.13565 -9.778471,4.452325 -14.840083,6.211863 -4.279938,1.462312 -8.601488,2.981087 -12.4029,5.489612 -2.487725,1.503925 -4.5623,3.5577 -6.80035,5.382613 -0.01787,0.13375 -0.0505,0.404225 -0.06537,0.537962 3.914362,-0.213987 7.810887,-0.8649 11.633112,-1.7298 4.380988,-0.805462 8.197263,-3.2159 12.16215,-5.100262 5.433138,-2.6809 11.005971,-5.638225 17.161371,-6.05135 2.2648,-0.08913 4.59201,0.219937 6.62201,1.283975 3.40315,1.486087 5.63228,4.758462 7.11243,8.03975 0.68657,3.141587 1.41178,6.60715 0.214,9.721987 -1.93787,5.409375 -6.61013,9.362363 -8.26267,14.917375 -0.96298,4.1551 0,8.562838 -1.61388,12.610952 -1.45043,4.33937 -5.86412,6.89249 -10.14406,7.73955 -5.510426,1.17401 -10.765238,-1.83086 -14.608263,-5.51041 -3.105925,-4.012449 -4.927875,-8.785762 -7.278863,-13.238087 -2.770075,-6.2713 -6.10485,-12.30185 -9.941937,-17.98465 -1.486088,-1.376125 -2.154825,-3.676587 -4.018388,-4.606887 -5.45395,-0.532013 -10.759287,1.182937 -15.969512,2.544187 -5.430175,1.364238 -10.551238,3.661725 -15.5445,6.158363 -4.559325,2.0181 -9.58825,3.064312 -14.572588,2.371787 C 9.9505221,76.216128 3.7743346,65.100178 6.7554346,56.103391 c 1.87545,-4.404763 4.6425504,-8.325075 7.4126124,-12.19485 2.547162,-3.525 2.351,-8.11405 4.068912,-11.98085 1.961638,-3.47745 4.9784,-6.42585 8.675788,-7.995163 2.683887,-1.263175 5.745225,-1.227512 8.637162,-1.512837 4.592013,-0.451775 9.44855,1.396925 12.03435,5.3202 1.670363,2.437187 2.386663,5.323175 3.117813,8.143775 2.984062,9.522862 6.289125,19.203237 12.084875,27.4451 0.864912,1.102675 1.6347,2.3064 2.734412,3.198062 0.787625,-3.412062 -0.29425,-6.8479 -1.1116,-10.14405 -1.631725,-5.52825 -3.8668,-10.84845 -5.786825,-16.27565 -2.107275,-5.448 -3.90545,-11.130812 -4.054062,-17.01275 -0.57065,-4.918962 0.992712,-10.328323 4.693075,-13.7492991 2.34505,-1.890312 5.296425,-2.7671 8.197275,-3.367475 z m -1.871687,61.1033991 0.172387,-0.148612 c -0.0565,2.481762 0.83815,4.835737 1.542563,7.174837 2.618487,8.010025 6.194012,15.731738 7.778187,24.050875 0.5558,3.388277 1.001625,7.148087 -0.805462,10.251037 -1.955688,5.00515 -5.557975,9.55852 -10.557175,11.77577 -3.45665,1.78925 -8.016763,2.88167 -11.517988,1.00623 -4.169962,-1.83978 -6.678487,-6.13161 -11.02975,-7.68903 -3.560675,-1.54553 -7.656337,0.214 -11.252675,-1.26021 -3.533912,-1.15022 -6.467462,-3.89949 -7.775212,-7.38586 -2.0627,-5.391524 -1.318863,-12.434249 1.8049,-17.320512 4.297762,-4.172937 10.03705,-6.324787 15.50585,-8.536087 5.09135,-1.994338 10.295637,-3.6974 15.354275,-5.7809 3.834112,-1.557413 7.828725,-3.126725 10.7801,-6.137538 z" style="fill:#aaaaaa"/>
</svg>