<?xml version="1.0" encoding="UTF-8" standalone="no"?>
<svg xmlns:dc="http://purl.org/dc/elements/1.1/"
     xmlns:cc="http://creativecommons.org/ns#"
     xmlns:rdf="http://www.w3.org/1999/02/22-rdf-syntax-ns#"
     xmlns:svg="http://www.w3.org/2000/svg"
     xmlns="http://www.w3.org/2000/svg"
     xmlns:xlink="http://www.w3.org/1999/xlink"
     width="128" height="128" version="1.1">
    <title>Pragha Icon</title>
    <desc>This is shape (source) for Clarity vector icon theme for gtk</desc>
    <metadata>
        <rdf:RDF>
            <cc:Work rdf:about="">
                <dc:title>Pragha Icon</dc:title>
                <dc:description>This is shape (source) for Clarity vector icon theme for gtk</dc:description>
                <dc:creator>
                    <cc:Agent>
                        <dc:title>Jakub Jankiewicz</dc:title>
                    </cc:Agent>
                </dc:creator>
                <dc:rights>
                    <cc:Agent>
                        <dc:title>Jakub Jankiewicz</dc:title>
                    </cc:Agent>
                </dc:rights>
                <dc:date>2010</dc:date>
                <dc:format>image/svg+xml</dc:format>
                <dc:type rdf:resource="http://purl.org/dc/dcmitype/StillImage" />
                <cc:license rdf:resource="http://creativecommons.org/licenses/by-sa/3.0/" />
             </cc:Work>
        </rdf:RDF>
    </metadata>
    <path d="m 27.390625,3.796875 c -10.216135,0 -18.4414062,8.223318 -18.4414062,18.439453 v 83.255862 c 0,10.21613 8.2252712,18.43945 18.4414062,18.43945 h 77.015625 c 10.21614,0 18.44141,-8.22332 18.44141,-18.43945 V 22.236328 c 0,-10.216135 -8.22527,-18.439453 -18.44141,-18.439453 z m 66.509766,4.5878906 c -3.887049,5.4404934 -0.526857,7.3130754 2.046875,9.4609374 1.041042,0.868783 13.055444,11.588715 15.308594,19.554688 2.40178,8.491429 0.77686,18.322862 -2.98242,26.30664 -2.99577,6.362261 -8.848182,11.203678 -14.644534,15.185547 -4.846012,3.329022 -6.839591,4.121307 -12.243829,6.013496 -2.935598,1.027843 -5.887973,2.905342 -7.281561,5.105645 -4.579343,7.230219 -6.70153,15.721981 -12.746094,21.423831 -3.999793,3.77301 -9.218057,6.69456 -14.642578,7.59375 -4.780005,0.79235 -10.084522,0.0851 -14.373047,-2.16992 -5.151128,-2.70853 -9.92072,-7.28546 -11.933594,-12.7461 -1.112386,-3.01774 -1.443459,-6.99053 -1.046439,-10.526662 0.329063,-2.930862 1.243191,-5.561759 1.860892,-7.10029 1.526608,-3.80238 5.793975,-8.576652 9.712891,-11.853516 1.802644,-1.507308 3.475785,-3.954812 2.458984,-6.332031 -1.945633,-4.54877 -4.163965,-8.82298 -4.308593,-14.085937 -0.303386,-11.04011 4.086342,-17.753409 8.408203,-23.59375 6.372531,-8.61151 13.666747,-12.505737 22.923828,-15.203125 9.600723,-2.797521 21.284111,-1.025257 23.449219,-2.152344 3.484887,-1.814124 7.916911,-4.8915284 10.033203,-4.8808594 z M 67.535156,20.416016 c -1.704337,-0.02822 -3.455613,0.204115 -5.091797,0.443359 -5.731596,0.83808 -11.586379,2.69519 -16.271484,6.101563 -4.578787,3.329072 -8.260289,7.964593 -10.576172,13.287109 -2.142812,4.924753 -3.431365,10.930111 -2.576172,16 1.191806,7.065452 5.574784,12.557378 11.796875,18.441406 2.542258,2.404131 4.190881,5.503717 4.275391,8.748047 0.05469,2.099475 -1.038872,4.260572 -2.46875,5.798828 -1.326641,1.427194 -3.27629,2.347162 -5.197266,2.673828 -4.029708,0.68526 -7.760174,-0.701405 -10.46875,1.484375 -2.670628,2.155156 -3.570609,5.506807 -2.277343,8.685549 0.6131,1.50696 1.97906,2.83578 3.589921,3.68562 1.529769,0.80706 3.951656,1.27076 5.494825,1.19554 3.420677,-0.16676 6.101716,-1.36396 8.95041,-3.52569 3.888671,-2.95092 6.587856,-7.385293 8.677734,-11.796878 3.355576,-7.083383 4.530802,-14.821749 5.830078,-22.779297 1.542457,-9.446934 2.618504,-18.35555 6.373047,-28 1.769393,-4.545115 5.253488,-11.130185 6.757813,-14.287109 0.777328,-1.631274 -0.45548,-4.16876 -2.011719,-5.035157 -1.444774,-0.804341 -3.102304,-1.092873 -4.806641,-1.121093 z m 16.867188,5.625 c -0.645041,0.04486 -1.297197,0.476435 -1.576172,1.236328 -1.445375,3.937011 -3.249246,11.958018 -4.21875,20.517578 -0.930406,8.214363 -2.353059,15.077076 -1.820313,24.738281 0.168866,3.062339 4.235787,3.025709 8.14879,1.148809 3.161221,-1.516303 5.234983,-3.570211 7.191054,-6.615606 4.52104,-7.03878 5.630036,-15.593659 4.410156,-22.722656 -1.260303,-7.365224 -4.467242,-15.627385 -11.505859,-18.216797 -0.199185,-0.07328 -0.413893,-0.100891 -0.628906,-0.08594 z" style="fill:#aaaaaa"/>
</svg>