<?xml version="1.0" encoding="UTF-8" standalone="no"?>
<svg xmlns:dc="http://purl.org/dc/elements/1.1/"
     xmlns:cc="http://creativecommons.org/ns#"
     xmlns:rdf="http://www.w3.org/1999/02/22-rdf-syntax-ns#"
     xmlns:svg="http://www.w3.org/2000/svg"
     xmlns="http://www.w3.org/2000/svg"
     xmlns:xlink="http://www.w3.org/1999/xlink"
     width="128" height="128" version="1.1">
    <title>Sharing Icon</title>
    <desc>This is shape (source) for Clarity vector icon theme for gtk</desc>
    <metadata>
        <rdf:RDF>
            <cc:Work rdf:about="">
                <dc:title>Sharing Icon</dc:title>
                <dc:description>This is shape (source) for Clarity vector icon theme for gtk</dc:description>
                <dc:creator>
                    <cc:Agent>
                        <dc:title>Jakub Jankiewicz</dc:title>
                    </cc:Agent>
                </dc:creator>
                <dc:rights>
                    <cc:Agent>
                        <dc:title>Jakub Jankiewicz</dc:title>
                    </cc:Agent>
                </dc:rights>
                <dc:date>2010</dc:date>
                <dc:format>image/svg+xml</dc:format>
                <dc:type rdf:resource="http://purl.org/dc/dcmitype/StillImage" />
                <cc:license rdf:resource="http://creativecommons.org/licenses/by-sa/3.0/" />
             </cc:Work>
        </rdf:RDF>
    </metadata>
    <path d="M 96.093182,16.541978 A 13.656842,13.656842 0 0 0 82.43609,30.199071 13.656842,13.656842 0 0 0 82.878703,33.59982 L 42.185291,55.029699 A 13.656842,13.656842 0 0 0 31.906817,50.342912 13.656842,13.656842 0 0 0 18.249726,64.000004 13.656842,13.656842 0 0 0 31.906817,77.657095 13.656842,13.656842 0 0 0 42.19021,72.972767 L 82.883621,94.400188 A 13.656842,13.656842 0 0 0 82.43609,97.800937 13.656842,13.656842 0 0 0 96.093182,111.45802 13.656842,13.656842 0 0 0 109.75028,97.800937 13.656842,13.656842 0 0 0 96.093182,84.143845 13.656842,13.656842 0 0 0 85.812248,88.828173 L 45.116377,67.395835 a 13.656842,13.656842 0 0 0 0.447532,-3.395831 13.656842,13.656842 0 0 0 -0.440154,-3.405667 L 85.817166,39.166915 A 13.656842,13.656842 0 0 0 96.093182,43.856162 13.656842,13.656842 0 0 0 109.75028,30.199071 13.656842,13.656842 0 0 0 96.093182,16.541978 Z" style="fill:#aaaaaa"/>
</svg>