<?xml version="1.0" encoding="UTF-8" standalone="no"?>
<svg xmlns:dc="http://purl.org/dc/elements/1.1/"
     xmlns:cc="http://creativecommons.org/ns#"
     xmlns:rdf="http://www.w3.org/1999/02/22-rdf-syntax-ns#"
     xmlns:svg="http://www.w3.org/2000/svg"
     xmlns="http://www.w3.org/2000/svg"
     xmlns:xlink="http://www.w3.org/1999/xlink"
     width="128" height="128" version="1.1">
    <title>Libre Office Printer</title>
    <desc>This is shape (source) for Clarity vector icon theme for gtk</desc>
    <metadata>
        <rdf:RDF>
            <cc:Work rdf:about="">
                <dc:title>Libre Office Printer</dc:title>
                <dc:description>This is shape (source) for Clarity vector icon theme for gtk</dc:description>
                <dc:creator>
                    <cc:Agent>
                        <dc:title>Jakub Jankiewicz</dc:title>
                    </cc:Agent>
                </dc:creator>
                <dc:rights>
                    <cc:Agent>
                        <dc:title>Jakub Jankiewicz</dc:title>
                    </cc:Agent>
                </dc:rights>
                <dc:date>2010</dc:date>
                <dc:format>image/svg+xml</dc:format>
                <dc:type rdf:resource="http://purl.org/dc/dcmitype/StillImage" />
                <cc:license rdf:resource="http://www.gnu.org/copyleft/gpl.html" />
             </cc:Work>
        </rdf:RDF>
    </metadata>
    <path d="M 25.15625 7.84375 C 21.934691 7.84375 19.28125 10.528441 19.28125 13.75 L 19.28125 114.28125 C 19.28125 117.50281 21.919281 120.15625 25.15625 120.15625 L 102.8125 120.15625 C 106.04947 120.15625 108.71875 117.51822 108.71875 114.28125 L 108.71875 49.78125 L 108.71875 48.96875 L 108.125 48.375 L 68.25 8.4375 L 67.65625 7.84375 L 66.8125 7.84375 L 25.15625 7.84375 z M 104.375 8.28125 C 102.51902 8.28125 86.191384 8.4375 82.96875 8.4375 C 79.746122 8.4375 78.749033 10.806914 80.6875 13.1875 C 82.625964 15.568085 102.51936 35.042857 103.625 36.3125 C 105.10448 38.011404 108.3125 37.807027 108.3125 33.875 L 108.3125 12.21875 C 108.3125 10.333734 106.84395 8.28125 104.375 8.28125 z M 25.15625 11.84375 L 65.96875 11.84375 L 104.71875 50.59375 L 104.71875 114.28125 C 104.71875 115.34686 103.87809 116.15625 102.8125 116.15625 L 25.15625 116.15625 C 24.090645 116.15625 23.28125 115.36227 23.28125 114.28125 L 23.28125 13.75 C 23.28125 12.668987 24.075235 11.84375 25.15625 11.84375 z M 51.4375 53.21875 L 51.4375 68.65625 C 51.4375 69.502759 52.090988 70.15625 52.9375 70.15625 L 75.0625 70.15625 C 75.909013 70.15625 76.5625 69.502759 76.5625 68.65625 L 76.5625 53.21875 L 51.4375 53.21875 z M 45.96875 67.84375 C 44.859054 67.84375 43.96875 68.660371 43.96875 69.65625 L 43.96875 75.5625 L 41.40625 75.5625 C 39.272226 75.5625 37.5625 77.272222 37.5625 79.40625 L 37.5625 93.28125 C 37.5625 95.415277 39.272225 97.125 41.40625 97.125 L 49.5 97.125 L 49.5 93.15625 C 49.5 90.879241 51.379253 89.03125 53.65625 89.03125 L 74.34375 89.03125 C 76.620749 89.03125 78.5 90.879241 78.5 93.15625 L 78.5 97.125 L 86.59375 97.125 C 88.727777 97.125 90.4375 95.415277 90.4375 93.28125 L 90.4375 79.40625 C 90.4375 77.272222 88.727777 75.5625 86.59375 75.5625 L 84.03125 75.5625 L 84.03125 69.65625 C 84.03125 68.660371 83.140948 67.84375 82.03125 67.84375 L 78.3125 67.84375 L 78.3125 68.65625 C 78.3125 70.454025 76.860273 71.9375 75.0625 71.9375 L 52.9375 71.9375 C 51.139727 71.9375 49.6875 70.454025 49.6875 68.65625 L 49.6875 67.84375 L 45.96875 67.84375 z M 41.28125 78.90625 L 43.0625 78.90625 C 43.56044 78.90625 43.96875 79.28331 43.96875 79.78125 L 43.96875 81.59375 C 43.96875 82.09169 43.56044 82.5 43.0625 82.5 L 41.28125 82.5 C 40.78331 82.5 40.375 82.09169 40.375 81.59375 L 40.375 79.78125 C 40.375 79.28331 40.78331 78.90625 41.28125 78.90625 z M 53.65625 90.9375 C 52.402856 90.9375 51.40625 91.902848 51.40625 93.15625 L 51.40625 104.0625 L 76.59375 104.0625 L 76.59375 93.15625 C 76.59375 91.902848 75.597144 90.9375 74.34375 90.9375 L 53.65625 90.9375 z " style="fill:#aaaaaa"/>
</svg>