<?xml version="1.0" encoding="UTF-8" standalone="no"?>
<svg xmlns:dc="http://purl.org/dc/elements/1.1/"
     xmlns:cc="http://creativecommons.org/ns#"
     xmlns:rdf="http://www.w3.org/1999/02/22-rdf-syntax-ns#"
     xmlns:svg="http://www.w3.org/2000/svg"
     xmlns="http://www.w3.org/2000/svg"
     xmlns:xlink="http://www.w3.org/1999/xlink"
     width="128" height="128" version="1.1">
    <title>Clarity Icon</title>
    <desc>This is shape (source) for Clarity vector icon theme for gtk</desc>
    <metadata>
        <rdf:RDF>
            <cc:Work rdf:about="">
                <dc:title>Clarity Icon</dc:title>
                <dc:description>This is shape (source) for Clarity vector icon theme for gtk</dc:description>
                <dc:creator>
                    <cc:Agent>
                        <dc:title>Jakub Jankiewicz</dc:title>
                    </cc:Agent>
                </dc:creator>
                <dc:rights>
                    <cc:Agent>
                        <dc:title>Jakub Jankiewicz</dc:title>
                    </cc:Agent>
                </dc:rights>
                <dc:date>2010</dc:date>
                <dc:format>image/svg+xml</dc:format>
                <dc:type rdf:resource="http://purl.org/dc/dcmitype/StillImage" />
                <cc:license rdf:resource="http://www.gnu.org/copyleft/gpl.html" />
             </cc:Work>
        </rdf:RDF>
    </metadata>
    <path d="m 63.377028,13.260376 c -4.134277,0.01912 -8.082427,0.371805 -11.556381,0.986519 -10.233845,1.807986 -12.091903,5.592252 -12.091903,12.571082 l 0,9.216914 24.183824,0 0,3.072303 -24.183824,0 -9.075977,0 c -7.0285,0 -13.182844,4.22453 -15.107853,12.261033 -2.220467,9.211696 -2.318962,14.959944 0,24.578433 1.719067,7.159635 5.824448,12.261039 12.852948,12.261039 l 8.314952,0 0,-11.049018 c 0,-7.982266 6.906444,-15.023295 15.107833,-15.023297 l 24.155644,0 c 6.724077,0 12.091922,-5.536382 12.091909,-12.289218 l 0,-23.028189 c 0,-6.553953 -5.529002,-11.477252 -12.091909,-12.571082 -4.154414,-0.691554 -8.464987,-1.005728 -12.599263,-0.986519 z m -13.078433,7.412991 c 2.498009,0 4.537982,2.07329 4.537982,4.622552 0,2.540224 -2.039973,4.594361 -4.537982,4.594361 -2.506987,0 -4.537989,-2.054139 -4.537989,-4.594361 -1.3e-5,-2.549261 2.031002,-4.622552 4.537989,-4.622552 z m 40.785536,18.433827 0,10.738972 c 0,8.325781 -7.058649,15.333337 -15.10784,15.333337 l -24.155644,0 c -6.616637,0 -12.091903,5.662941 -12.091903,12.289226 l 0,23.028181 c 0,6.55395 5.699111,10.40893 12.091903,12.28922 7.655237,2.25094 14.99622,2.65773 24.155644,0 6.088375,-1.76279 12.091922,-5.3104 12.091909,-12.28922 l 0,-9.216918 -24.155632,0 0,-3.072293 24.155632,0 12.09192,0 c 7.02849,0 9.64761,-4.902521 12.09192,-12.261039 2.52489,-7.575466 2.41745,-14.860505 0,-24.578433 -1.73697,-6.99691 -5.05449,-12.261033 -12.09192,-12.261033 l -9.075989,0 z M 77.498356,97.424599 c 2.506974,0 4.537983,2.054144 4.537983,4.594361 0,2.54928 -2.031009,4.62256 -4.537983,4.62256 -2.498035,0 -4.537995,-2.07328 -4.537995,-4.62256 0,-2.540217 2.03996,-4.594361 4.537995,-4.594361 z" style="fill:#aaaaaa"/>
</svg>