<?xml version="1.0" encoding="UTF-8" standalone="no"?>
<svg xmlns:dc="http://purl.org/dc/elements/1.1/"
     xmlns:cc="http://creativecommons.org/ns#"
     xmlns:rdf="http://www.w3.org/1999/02/22-rdf-syntax-ns#"
     xmlns:svg="http://www.w3.org/2000/svg"
     xmlns="http://www.w3.org/2000/svg"
     xmlns:xlink="http://www.w3.org/1999/xlink"
     width="128" height="128" version="1.1">
    <title>QT Icon</title>
    <desc>This is shape (source) for Clarity vector icon theme for gtk</desc>
    <metadata>
        <rdf:RDF>
            <cc:Work rdf:about="">
                <dc:title>QT Icon</dc:title>
                <dc:description>This is shape (source) for Clarity vector icon theme for gtk</dc:description>
                <dc:creator>
                    <cc:Agent>
                        <dc:title>Jakub Jankiewicz</dc:title>
                    </cc:Agent>
                </dc:creator>
                <dc:rights>
                    <cc:Agent>
                        <dc:title>Jakub Jankiewicz</dc:title>
                    </cc:Agent>
                </dc:rights>
                <dc:date>2010</dc:date>
                <dc:format>image/svg+xml</dc:format>
                <dc:type rdf:resource="http://purl.org/dc/dcmitype/StillImage" />
                <cc:license rdf:resource="http://creativecommons.org/licenses/by-sa/3.0/" />
             </cc:Work>
        </rdf:RDF>
    </metadata>
    <path d="m 63.633195,12.249048 c -13.27143,0 -26.534415,5.04701 -36.605024,15.11762 -20.1412198,20.141219 -20.1129123,53.040518 0.02831,73.181732 18.123557,18.12356 46.561303,19.95634 66.755333,5.46386 l 9.738696,9.73869 12.51309,-12.51308 -9.88024,-9.851932 C 120.10573,73.238685 118.1392,45.267649 100.23822,27.366668 90.167611,17.296058 76.904624,12.249048 63.633195,12.249048 z m 0,18.005255 c 8.596565,0 17.200208,3.299924 23.808836,9.908553 10.937794,10.937791 12.803559,27.304137 5.63372,40.115482 L 75.042185,62.244773 87.583581,49.703376 75.070495,37.19029 36.880103,75.380682 49.393189,87.893769 62.557409,74.757859 80.760835,92.961285 C 67.841497,100.6651 51.0202,98.919752 39.852669,87.752218 26.635414,74.534962 26.607101,53.380112 39.824358,40.162856 46.432987,33.554227 55.03663,30.254303 63.633195,30.254303 z" style="fill:#aaaaaa"/>
</svg>