<?xml version="1.0" encoding="UTF-8" standalone="no"?>
<svg xmlns:dc="http://purl.org/dc/elements/1.1/"
     xmlns:cc="http://creativecommons.org/ns#"
     xmlns:rdf="http://www.w3.org/1999/02/22-rdf-syntax-ns#"
     xmlns:svg="http://www.w3.org/2000/svg"
     xmlns="http://www.w3.org/2000/svg"
     xmlns:xlink="http://www.w3.org/1999/xlink"
     width="128" height="128" version="1.1">
    <title>Clarity Icon</title>
    <desc>This is Quod Libet (from http://svgicons.o7a.net/quodlibet.php) for Clarity vector icon theme for gtk</desc>
    <metadata>
        <rdf:RDF>
            <cc:Work rdf:about="">
                <dc:title>Clarity Icon</dc:title>
                <dc:description>This is Quod Libet (from http://svgicons.o7a.net/quodlibet.php) for Clarity vector icon theme for gtk</dc:description>
                <dc:creator>
                    <cc:Agent>
                        <dc:title>Chris Lenk</dc:title>
                    </cc:Agent>
                </dc:creator>
                <dc:rights>
                    <cc:Agent>
                        <dc:title>Chris Lenk</dc:title>
                    </cc:Agent>
                </dc:rights>
                <dc:date>2015</dc:date>
                <dc:format>image/svg+xml</dc:format>
                <dc:type rdf:resource="http://purl.org/dc/dcmitype/StillImage" />
                <cc:license rdf:resource="http://creativecommons.org/licenses/by-sa/3.0/" />
             </cc:Work>
        </rdf:RDF>
    </metadata>
    <path d="m43.573566,7.829389c-8.97015,-0.440124 -14.662275,9.796571 -8.988583,16.47387c5.627857,8.360983 19.096149,13.477362 28.224083,7.219328c0,28.324764 0.123051,60.19257 0.123051,88.51733c5.434521,1.409332 2.926495,-7.880234 4.205219,-11.136719c2.547165,-12.296799 15.01149,-18.69101 23.036499,-27.488861c6.568413,-7.176537 7.437492,-18.143478 1.68087,-26.090107c-1.630554,-2.250866 -6.905754,-11.490501 -6.110062,-9.7355c3.550087,7.205105 8.110008,15.294853 5.959,23.464096c-2.726807,9.796623 -12.654549,16.049118 -22.833351,17.571228c-2.601448,0.371712 -2.434517,-0.377998 -2.693275,-4.456512c0,-20.246101 0,-40.492229 0,-60.738331c-3.408695,-8.266816 -13.338684,-13.868919 -22.603451,-13.599822zm1.076347,2.621658c8.618645,-0.396183 19.009834,6.163899 17.926971,15.057925c-2.234478,7.8685 -13.621933,7.282619 -19.406231,3.424904c-6.429031,-2.941454 -11.175207,-13.133496 -3.39249,-17.223036c1.489868,-0.776051 3.181164,-1.162338 4.87175,-1.259793z" style="fill:#aaaaaa"/>
</svg>