<?xml version="1.0" encoding="UTF-8" standalone="no"?>
<svg xmlns:dc="http://purl.org/dc/elements/1.1/"
     xmlns:cc="http://creativecommons.org/ns#"
     xmlns:rdf="http://www.w3.org/1999/02/22-rdf-syntax-ns#"
     xmlns:svg="http://www.w3.org/2000/svg"
     xmlns="http://www.w3.org/2000/svg"
     xmlns:xlink="http://www.w3.org/1999/xlink"
     width="128" height="128" version="1.1">
    <title>Remastersys Logo</title>
    <desc>This is shape (source) for Clarity vector icon theme for gtk</desc>
    <metadata>
        <rdf:RDF>
            <cc:Work rdf:about="">
                <dc:title>Remastersys Logo</dc:title>
                <dc:description>This is shape (source) for Clarity vector icon theme for gtk</dc:description>
                <dc:creator>
                    <cc:Agent>
                        <dc:title>Jakub Jankiewicz</dc:title>
                    </cc:Agent>
                </dc:creator>
                <dc:rights>
                    <cc:Agent>
                        <dc:title>Jakub Jankiewicz</dc:title>
                    </cc:Agent>
                </dc:rights>
                <dc:date>2010</dc:date>
                <dc:format>image/svg+xml</dc:format>
                <dc:type rdf:resource="http://purl.org/dc/dcmitype/StillImage" />
                <cc:license rdf:resource="http://www.gnu.org/copyleft/gpl.html" />
             </cc:Work>
        </rdf:RDF>
    </metadata>
    <path d="m 11.771182,6.4375 c -3.1104076,0 -5.6249996,2.514592 -5.6249996,5.625 l 0,30.8125 c 0.2077163,1.52896 0.1789054,2.056723 1.21875,4.4375 l 4.0624996,9.25 c 1.176487,2.693627 1.796093,4.1875 5.375,4.1875 l 60.40625,0 c 5.152236,0 7.922326,-5.057791 1.34375,-8.96875 L 66.021182,44.3125 c -1.802945,-0.846861 -2.6875,-1.830911 -2.6875,-3.65625 l 0,-28.59375 c 0,-3.110408 -2.514592,-5.625 -5.625,-5.625 l -45.9375,0 z m 69.25,3.5625 -14.6875,16.28125 16.09375,14.90625 -0.4375,-9.65625 c 6.190828,-1.719271 13.116207,-0.365 18.281248,4.21875 7.46276,6.622868 8.67153,17.660409 3.1875,25.6875 3.85278,1.406656 7.36997,3.512639 10.375,6.1875 8.38913,-12.907375 6.30008,-30.378738 -5.5625,-40.90625 C 100.6705,19.973482 90.72784,17.577327 81.458682,19.3125 L 81.021182,10 z m -67.8125,3.5625 42.875,0 0,27.46875 -42.875,0 0,-27.46875 z M 8.7399324,58.125 C 2.901983,70.506132 5.6104476,85.737118 16.364932,95.28125 c 7.600681,6.74527 17.543343,9.17267 26.8125,7.4375 l 0.4375,9.3125 L 58.302432,95.75 42.208682,80.84375 42.614932,90.5 c -6.190826,1.719265 -13.084954,0.364998 -18.25,-4.21875 -6.779418,-6.016434 -8.371464,-15.669692 -4.5,-23.40625 l -5.21875,0 c -3.858557,0 -4.512834,-1.595898 -5.7812496,-4.5 l -0.125,-0.25 z m 83.6562496,3.71875 c -16.484767,0 -29.84375,13.358984 -29.84375,29.84375 0,16.48476 13.358983,29.875 29.84375,29.875 16.484758,0 29.874998,-13.39024 29.874998,-29.875 0,-16.484766 -13.39024,-29.84375 -29.874998,-29.84375 z m 0,24.03125 c 3.220281,0 5.84375,2.592221 5.84375,5.8125 0,3.220279 -2.623469,5.84375 -5.84375,5.84375 -3.220281,0 -5.8125,-2.623471 -5.8125,-5.84375 0,-3.220279 2.592219,-5.8125 5.8125,-5.8125 z" style="fill:#aaaaaa"/>
</svg>