<?xml version="1.0" encoding="UTF-8" standalone="no"?>
<svg xmlns:dc="http://purl.org/dc/elements/1.1/"
     xmlns:cc="http://creativecommons.org/ns#"
     xmlns:rdf="http://www.w3.org/1999/02/22-rdf-syntax-ns#"
     xmlns:svg="http://www.w3.org/2000/svg"
     xmlns="http://www.w3.org/2000/svg"
     xmlns:xlink="http://www.w3.org/1999/xlink"
     width="128" height="128" version="1.1">
    <title>Rhythmbox disabled Icon</title>
    <desc>This is shape (source) for Clarity vector icon theme for gtk</desc>
    <metadata>
        <rdf:RDF>
            <cc:Work rdf:about="">
                <dc:title>Rhythmbox disabled Icon</dc:title>
                <dc:description>This is shape (source) for Clarity vector icon theme for gtk</dc:description>
                <dc:creator>
                    <cc:Agent>
                        <dc:title>Jakub Jankiewicz</dc:title>
                    </cc:Agent>
                </dc:creator>
                <dc:rights>
                    <cc:Agent>
                        <dc:title>Jakub Jankiewicz</dc:title>
                    </cc:Agent>
                </dc:rights>
                <dc:date>2010</dc:date>
                <dc:format>image/svg+xml</dc:format>
                <dc:type rdf:resource="http://purl.org/dc/dcmitype/StillImage" />
                <cc:license rdf:resource="http://creativecommons.org/licenses/by-sa/3.0/" />
             </cc:Work>
        </rdf:RDF>
    </metadata>
    <path d="M 36 13.90625 C 31.347749 13.90625 27.5625 17.722748 27.5625 22.375 L 27.5625 105.65625 C 27.5625 110.3085 31.355439 114.09375 36 114.09375 L 92 114.09375 C 96.644562 114.09375 100.4375 110.3085 100.4375 105.65625 L 100.4375 22.375 C 100.4375 17.722747 96.652252 13.90625 92 13.90625 L 36 13.90625 z M 36 16.90625 L 92 16.90625 C 95.03764 16.90625 97.4375 19.337361 97.4375 22.375 L 97.4375 105.65625 C 97.4375 108.69388 95.04533 111.09375 92 111.09375 L 36 111.09375 C 32.954671 111.09375 30.5625 108.69388 30.5625 105.65625 L 30.5625 22.375 C 30.5625 19.33736 32.962361 16.90625 36 16.90625 z M 64 25.03125 C 50.413364 25.03125 39.375 36.069613 39.375 49.65625 C 39.375 63.242886 50.411049 74.3125 64 74.3125 C 77.588952 74.3125 88.625 63.245202 88.625 49.65625 C 88.625 36.067298 77.586637 25.03125 64 25.03125 z M 64 28.03125 C 75.966971 28.03125 85.625 37.691594 85.625 49.65625 C 85.625 61.620906 75.964656 71.3125 64 71.3125 C 52.035345 71.3125 42.375 61.62322 42.375 49.65625 C 42.375 37.689279 52.03303 28.03125 64 28.03125 z M 64 45.5 C 61.700176 45.5 59.8125 47.356425 59.8125 49.65625 C 59.8125 51.956074 61.700176 53.8125 64 53.8125 C 66.299825 53.8125 68.15625 51.956074 68.15625 49.65625 C 68.15625 47.356425 66.299825 45.5 64 45.5 z M 47.34375 78.71875 C 40.016931 78.71875 34.03125 84.673179 34.03125 92 C 34.03125 99.326821 40.016931 105.3125 47.34375 105.3125 C 54.670569 105.3125 60.625 99.326821 60.625 92 C 60.625 84.67318 54.670569 78.71875 47.34375 78.71875 z M 80.65625 78.71875 C 73.32943 78.71875 67.375 84.673179 67.375 92 C 67.375 99.326821 73.32943 105.3125 80.65625 105.3125 C 87.983069 105.3125 93.96875 99.326821 93.96875 92 C 93.96875 84.67318 87.983069 78.71875 80.65625 78.71875 z M 47.34375 81.71875 C 53.049269 81.71875 57.625 86.29448 57.625 92 C 57.625 97.705521 53.049269 102.3125 47.34375 102.3125 C 41.638231 102.3125 37.03125 97.705521 37.03125 92 C 37.03125 86.294479 41.638231 81.71875 47.34375 81.71875 z M 80.65625 81.71875 C 86.361769 81.71875 90.96875 86.29448 90.96875 92 C 90.96875 97.705521 86.361769 102.3125 80.65625 102.3125 C 74.95073 102.3125 70.375 97.705521 70.375 92 C 70.375 86.294479 74.95073 81.71875 80.65625 81.71875 z " style="fill:#aaaaaa"/>
</svg>