<?xml version="1.0" encoding="UTF-8" standalone="no"?>
<svg xmlns:dc="http://purl.org/dc/elements/1.1/"
     xmlns:cc="http://creativecommons.org/ns#"
     xmlns:rdf="http://www.w3.org/1999/02/22-rdf-syntax-ns#"
     xmlns:svg="http://www.w3.org/2000/svg"
     xmlns="http://www.w3.org/2000/svg"
     xmlns:xlink="http://www.w3.org/1999/xlink"
     width="128" height="128" version="1.1">
    <title>Scribus Icon</title>
    <desc>This is shape (source) for Clarity vector icon theme for gtk</desc>
    <metadata>
        <rdf:RDF>
            <cc:Work rdf:about="">
                <dc:title>Scribus Icon</dc:title>
                <dc:description>This is shape (source) for Clarity vector icon theme for gtk</dc:description>
                <dc:creator>
                    <cc:Agent>
                        <dc:title>Jakub Jankiewicz</dc:title>
                    </cc:Agent>
                </dc:creator>
                <dc:rights>
                    <cc:Agent>
                        <dc:title>Jakub Jankiewicz</dc:title>
                    </cc:Agent>
                </dc:rights>
                <dc:date>2010</dc:date>
                <dc:format>image/svg+xml</dc:format>
                <dc:type rdf:resource="http://purl.org/dc/dcmitype/StillImage" />
                <cc:license rdf:resource="http://creativecommons.org/licenses/by-sa/3.0/" />
             </cc:Work>
        </rdf:RDF>
    </metadata>
    <path d="m 96.964973,13.860277 c -0.65672,-0.0081 -1.28511,0.01074 -1.90625,0.0625 -4.969102,0.414092 -8.073969,2.062146 -11.59375,7.03125 -3.519782,4.969103 -16.570106,21.944988 -19.46875,26.5 -2.79469,4.391656 -1.037371,7.700505 -0.90625,7.9375 -0.120949,0.09536 -21.453291,16.916425 -24.34375,19.1875 -2.898643,2.277505 -3.772887,2.615757 -6.328739,6.503684 -2.780813,4.230135 -10.106987,11.728033 -24.3275114,33.058819 0,0 9.1088454,-6.4334 16.5625004,-9.125 7.453656,-2.6916 18.640213,-6.211029 24.4375,-4.96875 5.797288,1.24227 5.992158,1.25023 6.40625,-2.062503 0.414092,-3.312736 3.124765,-10.550442 6.4375,-15.3125 3.312736,-4.762058 14.0625,-13.46875 14.0625,-13.46875 0,0 -5.589652,-2.472494 -8.28125,-4.75 -2.674101,-2.2627 -4.538474,-9.005973 -4.5625,-9.09375 0.133583,-0.321396 1.370859,-3.133594 3.53125,-4.15625 1.852574,-0.876946 6.361485,-0.574284 9.3125,2.0625 3.05682,2.731323 4.993007,5.261024 4.875,8.875 -0.08765,2.684272 -2.92507,5.69104 -4.6875,7 1.308034,0.49864 5.745301,0.04399 6.65625,-0.5625 2.724994,-1.814227 31.659867,-22.366922 35.593747,-26.09375 3.93387,-3.726828 -0.60896,-13.647937 -6.40625,-20.6875 -5.07263,-6.159618 -10.46543,-7.880886 -15.062497,-7.9375 z" style="fill:#aaaaaa"/>
</svg>