<?xml version="1.0" encoding="UTF-8" standalone="no"?>
<svg xmlns:dc="http://purl.org/dc/elements/1.1/"
     xmlns:cc="http://creativecommons.org/ns#"
     xmlns:rdf="http://www.w3.org/1999/02/22-rdf-syntax-ns#"
     xmlns:svg="http://www.w3.org/2000/svg"
     xmlns="http://www.w3.org/2000/svg"
     xmlns:xlink="http://www.w3.org/1999/xlink"
     width="128" height="128" version="1.1">
    <title>Scribes Icon</title>
    <desc>This is shape (source) for Clarity vector icon theme for gtk</desc>
    <metadata>
        <rdf:RDF>
            <cc:Work rdf:about="">
                <dc:title>Scribes Icon</dc:title>
                <dc:description>This is shape (source) for Clarity vector icon theme for gtk</dc:description>
                <dc:creator>
                    <cc:Agent>
                        <dc:title>Jakub Jankiewicz</dc:title>
                    </cc:Agent>
                </dc:creator>
                <dc:rights>
                    <cc:Agent>
                        <dc:title>Jakub Jankiewicz</dc:title>
                    </cc:Agent>
                </dc:rights>
                <dc:date>2010</dc:date>
                <dc:format>image/svg+xml</dc:format>
                <dc:type rdf:resource="http://purl.org/dc/dcmitype/StillImage" />
                <cc:license rdf:resource="http://www.gnu.org/copyleft/gpl.html" />
             </cc:Work>
        </rdf:RDF>
    </metadata>
    <path d="m 58.208944,78.312044 c 13.19891,0 19.825497,0.915969 25.206845,-6.869783 7.150399,-10.345234 -2.747918,-21.754318 -11.449651,-21.525327 -8.701718,0.229001 -16.258479,6.411804 -16.258479,19.693392 0,13.281573 -15.932294,41.905674 -46.8463213,41.905674 0,-13.281575 0,-33.203956 0,-33.203956 5.4388753,0 14.6728343,-0.801468 15.0163103,-19.464389 0.343491,-18.66291 18.090444,-42.592656 47.287025,-42.592656 29.196577,0 47.973987,25.876183 47.973987,47.973992 0,22.097806 -11.69626,47.516009 -60.929716,47.516009 l 0,-33.432956 z" style="fill:#aaaaaa"/>
</svg>