<?xml version="1.0" encoding="UTF-8" standalone="no"?>
<svg xmlns:dc="http://purl.org/dc/elements/1.1/"
     xmlns:cc="http://creativecommons.org/ns#"
     xmlns:rdf="http://www.w3.org/1999/02/22-rdf-syntax-ns#"
     xmlns:svg="http://www.w3.org/2000/svg"
     xmlns="http://www.w3.org/2000/svg"
     xmlns:xlink="http://www.w3.org/1999/xlink"
     width="128" height="128" version="1.1">
    <title>Scummvm Icon</title>
    <desc>This is shape (source) for Clarity vector icon theme for gtk</desc>
    <metadata>
        <rdf:RDF>
            <cc:Work rdf:about="">
                <dc:title>Scummvm Icon</dc:title>
                <dc:description>This is shape (source) for Clarity vector icon theme for gtk</dc:description>
                <dc:creator>
                    <cc:Agent>
                        <dc:title>Jakub Jankiewicz</dc:title>
                    </cc:Agent>
                </dc:creator>
                <dc:rights>
                    <cc:Agent>
                        <dc:title>Jakub Jankiewicz</dc:title>
                    </cc:Agent>
                </dc:rights>
                <dc:date>2010</dc:date>
                <dc:format>image/svg+xml</dc:format>
                <dc:type rdf:resource="http://purl.org/dc/dcmitype/StillImage" />
                <cc:license rdf:resource="http://www.gnu.org/copyleft/gpl.html" />
             </cc:Work>
        </rdf:RDF>
    </metadata>
    <path d="M 60.31621,117.8043 C 45.98648,116.90317 33.396687,110.65457 25.202963,100.37681 19.167308,92.806009 20.433608,87.66424 31.026569,76.730218 37.677162,69.865498 37.632151,70.364235 32.242224,63.260649 25.264737,54.064759 23.434975,43.087798 27.064476,32.198742 34.956711,8.5208427 70.468284,2.563386 95.687452,20.686483 107.56685,29.2233 108.12384,34.944366 98.30272,47.548992 c -4.514184,5.793596 -4.545293,6.221066 -0.806027,11.075668 3.307387,4.293904 4.204497,5.608574 5.188577,7.603648 6.32911,12.83126 4.45692,28.528586 -4.636191,38.871992 -7.364827,8.37748 -22.972237,13.63223 -37.732869,12.704 z M 71.520764,107.75817 C 89.512632,104.46638 98.847738,92.984799 96.693574,76.79723 95.930085,71.059947 93.048832,65.360933 88.679803,60.946278 84.661773,56.88629 81.853613,55.003399 70.641977,48.851793 62.307685,44.27893 60.166735,41.791076 61.604522,38.349975 c 2.012567,-4.816757 14.143919,-1.583649 24.059788,6.412138 1.867915,1.506221 2.588628,1.479794 3.564125,-0.130678 0.275394,-0.454654 1.866654,-2.918162 3.536133,-5.474462 3.980963,-6.09563 3.951315,-5.742205 0.724773,-8.640103 C 68.699932,8.2524226 30.610695,18.33947 34.039629,46.260744 c 1.192882,9.713455 7.217573,17.018186 20.896033,25.335739 13.772325,8.374627 16.024927,10.786774 14.077674,15.07476 -2.400081,5.28514 -16.344892,2.033828 -25.251773,-5.887594 -3.42703,-3.047863 -3.502327,-3.062733 -5.130447,-1.013323 -0.412288,0.518974 -2.092355,2.630669 -3.733486,4.69266 -5.095426,6.40212 -5.043358,6.278021 -3.494596,8.32934 9.029761,11.959834 24.665979,17.792894 40.11773,14.965844 z" style="fill:#aaaaaa"/>
</svg>