<?xml version="1.0" encoding="UTF-8" standalone="no"?>
<svg xmlns:dc="http://purl.org/dc/elements/1.1/"
     xmlns:cc="http://creativecommons.org/ns#"
     xmlns:rdf="http://www.w3.org/1999/02/22-rdf-syntax-ns#"
     xmlns:svg="http://www.w3.org/2000/svg"
     xmlns="http://www.w3.org/2000/svg"
     xmlns:xlink="http://www.w3.org/1999/xlink"
     width="128" height="128" version="1.1">
    <title>SELinux Issue Icon</title>
    <desc>This is shape (source) for Clarity vector icon theme for gtk</desc>
    <metadata>
        <rdf:RDF>
            <cc:Work rdf:about="">
                <dc:title>SELinux Issue Icon</dc:title>
                <dc:description>This is shape (source) for Clarity vector icon theme for gtk</dc:description>
                <dc:creator>
                    <cc:Agent>
                        <dc:title>Jakub Jankiewicz</dc:title>
                    </cc:Agent>
                </dc:creator>
                <dc:rights>
                    <cc:Agent>
                        <dc:title>Jakub Jankiewicz</dc:title>
                    </cc:Agent>
                </dc:rights>
                <dc:date>2010</dc:date>
                <dc:format>image/svg+xml</dc:format>
                <dc:type rdf:resource="http://purl.org/dc/dcmitype/StillImage" />
                <cc:license rdf:resource="http://creativecommons.org/licenses/by-sa/3.0/" />
             </cc:Work>
        </rdf:RDF>
    </metadata>
    <path d="M 64,10.847656 C 34.644816,10.847765 10.847765,34.644816 10.847656,64 10.847768,93.355182 34.644818,117.15223 64,117.15234 93.355181,117.15223 117.15223,93.355181 117.15234,64 117.15223,34.644818 93.355182,10.847768 64,10.847656 Z m -15.45915,19.706005 15.0625,12.603515 5.757812,-8.771484 2.746094,9.03711 25.736328,-12.335938 -12.869141,27.683594 11.783204,5.185547 -12.048828,7.396484 9.302734,8.503906 L 81.962725,79.571239 94.011553,102.87006 71.286943,88.893505 68.54085,99.038036 62.515459,89.161083 50.466631,100.67671 49.361162,85.881786 26.902178,94.098583 42.249834,71.639598 27.454912,66.147411 45.81624,61.78413 28.007647,43.975536 48.275225,47.520458 Z m 14.179687,15.246094 c -1.364762,4.1e-5 -2.468915,0.581428 -3.298828,1.761718 -0.73771,1.051268 -1.105473,2.28785 -1.105469,3.689453 -4e-6,0.774626 0.265077,2.383099 0.81836,4.835938 1.43852,6.288965 2.171869,11.110256 2.171875,14.466797 -10e-6,1.825836 0.003,2.802554 0.02148,2.931641 0.165978,1.327882 0.667257,2.007823 1.515625,2.007812 0.350402,1.1e-5 0.641098,-0.07901 0.880859,-0.226562 0.62704,-0.331956 0.996756,-1.19991 1.107422,-2.601563 0.01844,-1.051216 0.06467,-2.101963 0.101563,-3.134766 0.165974,-1.641376 0.723702,-4.677485 1.701172,-9.140625 0.866792,-3.872925 1.312487,-6.949183 1.3125,-9.199218 -1.3e-5,-1.641358 -0.473501,-2.936565 -1.414063,-3.914063 -0.922143,-0.97742 -2.189557,-1.476521 -3.8125,-1.476562 z m 0.02148,32.582031 c -1.088123,8e-6 -1.985822,0.442662 -2.705079,1.291016 -0.719267,0.829925 -1.085941,1.782117 -1.085937,2.888671 -4e-6,1.03279 0.393373,1.951974 1.167969,2.726563 0.774585,0.774591 1.672283,1.146484 2.705078,1.146484 1.235648,0 2.237119,-0.394466 3.011719,-1.1875 0.793023,-0.793031 1.189441,-1.797543 1.189453,-3.033203 -1.2e-5,-1.124996 -0.446797,-2.068929 -1.332032,-2.806641 -0.829929,-0.68237 -1.807736,-1.025382 -2.951171,-1.02539 z" style="fill:#aaaaaa"/>
</svg>