<?xml version="1.0" encoding="UTF-8" standalone="no"?>
<svg xmlns:dc="http://purl.org/dc/elements/1.1/"
     xmlns:cc="http://creativecommons.org/ns#"
     xmlns:rdf="http://www.w3.org/1999/02/22-rdf-syntax-ns#"
     xmlns:svg="http://www.w3.org/2000/svg"
     xmlns="http://www.w3.org/2000/svg"
     xmlns:xlink="http://www.w3.org/1999/xlink"
     width="128" height="128" version="1.1">
    <title>Image Collection</title>
    <desc>This is shape (source) for Clarity vector icon theme for gtk</desc>
    <metadata>
        <rdf:RDF>
            <cc:Work rdf:about="">
                <dc:title>Image Collection</dc:title>
                <dc:description>This is shape (source) for Clarity vector icon theme for gtk</dc:description>
                <dc:creator>
                    <cc:Agent>
                        <dc:title>Jakub Jankiewicz</dc:title>
                    </cc:Agent>
                </dc:creator>
                <dc:rights>
                    <cc:Agent>
                        <dc:title>Jakub Jankiewicz</dc:title>
                    </cc:Agent>
                </dc:rights>
                <dc:date>2010</dc:date>
                <dc:format>image/svg+xml</dc:format>
                <dc:type rdf:resource="http://purl.org/dc/dcmitype/StillImage" />
                <cc:license rdf:resource="http://www.gnu.org/copyleft/gpl.html" />
             </cc:Work>
        </rdf:RDF>
    </metadata>
    <path d="m 9.40625,18.84375 0,57.78125 5.34375,0 0,-14.03125 c -0.0077,0.01158 -0.02366,0.01971 -0.03125,0.03125 l 0,-37.1875 67.125,0 0,22.0625 5.28125,0 0,-28.65625 -77.71875,0 z m 57,12.4375 c -3.72534,0 -6.75,3.024659 -6.75,6.75 0,3.725341 3.02466,6.75 6.75,6.75 3.72534,0 6.75,-3.024659 6.75,-6.75 0,-3.725341 -3.02466,-6.75 -6.75,-6.75 z m 24.96875,5.9375 0,6.59375 21.875,0 0,7.4375 c 0.008,-0.01158 0.0238,-0.01971 0.0312,-0.03125 l 0,29.78125 c -0.007,-0.01154 -0.0233,-0.01967 -0.0312,-0.03125 l 0,7.4375 -11.75,0 0,6.59375 11.75,0 5.34375,0 0,-57.78125 -5.34375,0 -21.875,0 z M 20,51.375 l 0,57.78125 77.6875,0 0,-57.78125 -77.6875,0 z m 5.28125,6.59375 67.15625,0 0,28.46875 c -3.491454,3.283092 -9.860025,8.1302 -16.46875,6.96875 -12.950541,-2.275979 -23.332026,-14.158552 -43.53125,-4.375 -3.678997,1.781932 -5.875563,4.208281 -7.15625,6.15625 l 0,-37.21875 z m 48.65625,7.6875 c -3.72534,0 -6.75,3.024659 -6.75,6.75 0,3.725341 3.02466,6.75 6.75,6.75 3.72534,0 6.71875,-3.024659 6.71875,-6.75 0,-3.725341 -2.99341,-6.75 -6.71875,-6.75 z" style="fill:#aaaaaa"/>
</svg>