<?xml version="1.0" encoding="UTF-8" standalone="no"?>
<svg xmlns:dc="http://purl.org/dc/elements/1.1/"
     xmlns:cc="http://creativecommons.org/ns#"
     xmlns:rdf="http://www.w3.org/1999/02/22-rdf-syntax-ns#"
     xmlns:svg="http://www.w3.org/2000/svg"
     xmlns="http://www.w3.org/2000/svg"
     xmlns:xlink="http://www.w3.org/1999/xlink"
     width="128" height="128" version="1.1">
    <title>Shutter Icon</title>
    <desc>This is shape (source) for Clarity vector icon theme for gtk</desc>
    <metadata>
        <rdf:RDF>
            <cc:Work rdf:about="">
                <dc:title>Shutter Icon</dc:title>
                <dc:description>This is shape (source) for Clarity vector icon theme for gtk</dc:description>
                <dc:creator>
                    <cc:Agent>
                        <dc:title>Jakub Jankiewicz</dc:title>
                    </cc:Agent>
                </dc:creator>
                <dc:rights>
                    <cc:Agent>
                        <dc:title>Jakub Jankiewicz</dc:title>
                    </cc:Agent>
                </dc:rights>
                <dc:date>2010</dc:date>
                <dc:format>image/svg+xml</dc:format>
                <dc:type rdf:resource="http://purl.org/dc/dcmitype/StillImage" />
                <cc:license rdf:resource="http://creativecommons.org/licenses/by-sa/3.0/" />
             </cc:Work>
        </rdf:RDF>
    </metadata>
    <path d="M 100.03125 8.09375 C 97.043749 8.0905282 93.606923 8.2750974 89.84375 8.6875 C 79.808624 9.7872396 68.810873 12.5319 61.9375 15.28125 C 55.064125 18.030599 51.924707 21.038703 50.6875 26.125 C 49.450293 31.211297 47.087435 42.639257 46.8125 50.0625 C 46.537566 57.485745 47.25 62.5625 47.25 62.5625 C 47.25 62.5625 60.55781 47.711297 67.15625 42.625 C 73.754689 37.538702 93.420345 23.530438 100.15625 20.09375 C 106.89215 16.657064 111.86286 14.462109 113.375 12.8125 C 114.88714 11.16289 114.6054 9.9185554 111.03125 9.09375 C 108.79741 8.5782473 105.01042 8.0991197 100.03125 8.09375 z M 84.15625 36.53125 C 80.343104 36.692446 77.511281 38.690297 71.625 42.59375 C 63.776613 47.798357 58.0625 55.40625 58.0625 55.40625 C 58.0625 55.40625 74.319702 55.36981 82.96875 55.71875 C 91.6178 56.067685 106.89265 59.466638 108.59375 60.03125 C 110.29487 60.595838 111.66626 60.867973 111.4375 59.28125 C 111.20873 57.694521 106.49182 47.965428 103 44.5625 C 99.508168 41.159571 95.000787 38.380605 88.4375 36.96875 C 86.796679 36.615784 85.427299 36.477518 84.15625 36.53125 z M 73.03125 55.78125 C 73.03125 55.78125 81.909739 69.422247 86.3125 76.875 C 90.715264 84.32775 96.11308 98.983654 96.5625 100.71875 C 97.011951 102.45384 97.541697 103.77233 98.75 102.71875 C 99.958303 101.66516 105.56934 92.436155 106.53125 87.65625 C 107.49316 82.876342 107.37773 77.590754 105 71.3125 C 102.62229 65.034245 99.788064 63.983951 91.15625 60.21875 C 82.52443 56.453544 73.03125 55.78125 73.03125 55.78125 z M 80.1875 69.8125 C 80.1875 69.8125 75.33704 85.355168 72.40625 93.5 C 69.475466 101.64483 61.612001 115.17205 60.5625 116.625 C 59.513006 118.07797 58.824084 119.30408 60.40625 119.5625 C 61.988416 119.82091 72.705354 118.24592 77 115.9375 C 81.29465 113.62908 85.275634 110.17985 88.59375 104.34375 C 91.91186 98.50763 90.919301 95.643033 88.3125 86.59375 C 85.7057 77.544458 80.1875 69.8125 80.1875 69.8125 z M 74.03125 83.71875 C 74.03125 83.71875 59.048082 90.069466 50.9375 93.09375 C 42.826919 96.118037 27.443327 98.862533 25.65625 99 C 23.869173 99.137476 22.487696 99.406577 23.3125 100.78125 C 24.137306 102.15592 32.244822 109.30667 36.78125 111.09375 C 41.317677 112.88082 46.557812 113.70596 53.15625 112.46875 C 59.75469 111.23154 61.244985 108.61689 66.46875 100.78125 C 71.692513 92.945603 74.03125 83.71875 74.03125 83.71875 z " style="fill:#aaaaaa"/>
</svg>