<?xml version="1.0" encoding="UTF-8" standalone="no"?>
<svg xmlns:dc="http://purl.org/dc/elements/1.1/"
     xmlns:cc="http://creativecommons.org/ns#"
     xmlns:rdf="http://www.w3.org/1999/02/22-rdf-syntax-ns#"
     xmlns:svg="http://www.w3.org/2000/svg"
     xmlns="http://www.w3.org/2000/svg"
     xmlns:xlink="http://www.w3.org/1999/xlink"
     width="128" height="128" version="1.1">
    <title>Skrooge Icon</title>
    <desc>This is shape (source) for Clarity vector icon theme for gtk</desc>
    <metadata>
        <rdf:RDF>
            <cc:Work rdf:about="">
                <dc:title>Skrooge Icon</dc:title>
                <dc:description>This is shape (source) for Clarity vector icon theme for gtk</dc:description>
                <dc:creator>
                    <cc:Agent>
                        <dc:title>Jakub Jankiewicz</dc:title>
                    </cc:Agent>
                </dc:creator>
                <dc:rights>
                    <cc:Agent>
                        <dc:title>Jakub Jankiewicz</dc:title>
                    </cc:Agent>
                </dc:rights>
                <dc:date>2010</dc:date>
                <dc:format>image/svg+xml</dc:format>
                <dc:type rdf:resource="http://purl.org/dc/dcmitype/StillImage" />
                <cc:license rdf:resource="http://www.gnu.org/copyleft/gpl.html" />
             </cc:Work>
        </rdf:RDF>
    </metadata>
    <path d="M 67.824408,14.082614 C 49.226623,13.91463 31.408101,29.159648 24.843932,51.238221 l -14.591592,0 -4.4127806,9.884627 16.8862386,0 c -0.220806,1.713445 -0.336842,3.43335 -0.41186,5.118824 l -13.5325252,0 -4.3833615,9.855209 18.2983277,0 c 2.356252,18.792543 13.883617,33.922519 30.359926,37.185029 20.891456,4.13676 42.225702,-12.29629 49.334885,-37.185029 l -17.533451,0 4.383361,-9.855209 15.12113,0 c 0.20521,-1.723837 0.3541,-3.424595 0.41186,-5.118824 l -14.091482,0 4.41278,-9.884627 9.178582,0 C 101.73414,32.745679 90.289156,17.925404 74.0023,14.700403 71.935219,14.291096 69.886369,14.101238 67.824408,14.082614 z m 36.449562,37.155607 c 0.43932,3.198661 0.61526,6.506804 0.50012,9.884627 l 14.4445,0 4.38336,-9.884627 -19.32798,0 z m 0.0882,15.003451 c -0.22247,1.868824 -0.50967,3.757392 -0.91197,5.648359 -0.30397,1.428735 -0.66522,2.827996 -1.05907,4.20685 l 10.97311,0 4.38336,-9.855209 -13.38543,0 z M 87.358314,27.262117 c 0.187738,-0.02676 0.387655,0.01979 0.558952,0.117674 1.370375,0.783071 1.753883,2.335802 0.970812,8.796141 -0.783072,6.460338 -5.690074,28.775036 -7.060448,36.214214 -1.370375,7.439177 -6.072514,23.513948 -7.442889,28.212374 -1.370375,4.69843 -4.092378,7.21877 -5.854288,8.00184 -1.761911,0.78307 -5.280347,-0.95689 -7.82533,-4.08918 -2.544981,-3.13227 -8.823935,-11.957793 -13.326595,-19.592739 0,0 -5.08458,-6.851826 -7.82533,-10.767183 -2.74075,-3.915357 -10.367619,-14.684117 -11.737994,-17.033331 -1.370375,-2.349214 -1.172473,-5.097434 1.176741,-4.118594 2.349214,0.978838 8.212039,2.747152 10.561253,3.530224 2.349215,0.783071 5.091541,0.0059 6.266148,-2.147553 1.174607,-2.153446 0.963852,-3.32963 2.529994,-6.266148 1.566142,-2.936517 2.740191,-3.133352 5.089406,-0.58837 2.349214,2.544981 6.675314,5.092607 10.590672,6.854518 3.915356,1.76191 8.221134,-2.143794 10.178812,-5.471847 1.957678,-3.328054 7.229998,-13.32177 8.796141,-16.062519 1.370376,-2.398157 3.039774,-5.402165 4.353943,-5.589521 z m -6.707425,19.504487 c 0,0 -1.738896,3.704042 -3.500806,7.6194 -1.761911,3.915357 -4.124998,9.603804 -7.648818,11.561483 -3.523822,1.957679 -7.054555,1.172473 -9.208001,-1.176741 -2.153447,-2.349214 -2.541223,-2.757314 -3.324294,-3.736154 -0.783072,-0.978839 -1.373577,-0.193633 -1.765112,1.176741 -0.391536,1.370375 -0.571248,2.543357 -1.941623,4.501036 -1.370375,1.957678 -3.739356,2.360443 -5.501266,0.7943 -1.76191,-1.566143 -9.590442,-4.295106 -9.590442,-4.295106 0,0 10.968286,14.480322 13.709037,18.004143 2.74075,3.523821 7.829597,11.154958 10.178812,14.091477 2.349214,2.936515 3.533425,4.305272 5.295336,4.501035 1.76191,0.195772 2.747152,-1.182079 3.530224,-4.118594 0.783071,-2.936519 4.688775,-18.591956 5.471847,-23.681919 0.783071,-5.089965 3.707802,-17.215178 4.295106,-20.151695 0.587304,-2.936518 0,-5.089406 0,-5.089406 z M 59.087104,67.947947 c 0.391536,0 0.833881,0.354089 1.029649,0.941393 1.76191,4.111125 6.854518,16.229378 6.854518,21.710877 0,5.481501 -3.347819,6.656107 -5.501266,0 -2.153446,-6.656106 -2.529994,-8.598749 -2.529994,-13.297176 0,-4.698429 -0.58837,-6.671047 -0.58837,-8.23719 0,-0.783071 0.343927,-1.117904 0.735463,-1.117904 z" style="fill:#aaaaaa"/>
</svg>