<?xml version="1.0" encoding="UTF-8" standalone="no"?>
<svg xmlns:dc="http://purl.org/dc/elements/1.1/"
     xmlns:cc="http://creativecommons.org/ns#"
     xmlns:rdf="http://www.w3.org/1999/02/22-rdf-syntax-ns#"
     xmlns:svg="http://www.w3.org/2000/svg"
     xmlns="http://www.w3.org/2000/svg"
     xmlns:xlink="http://www.w3.org/1999/xlink"
     width="128" height="128" version="1.1">
    <title>Skype Icon</title>
    <desc>This is shape (source) for Clarity vector icon theme for gtk</desc>
    <metadata>
        <rdf:RDF>
            <cc:Work rdf:about="">
                <dc:title>Skype Icon</dc:title>
                <dc:description>This is shape (source) for Clarity vector icon theme for gtk</dc:description>
                <dc:creator>
                    <cc:Agent>
                        <dc:title>Jakub Jankiewicz</dc:title>
                    </cc:Agent>
                </dc:creator>
                <dc:rights>
                    <cc:Agent>
                        <dc:title>Jakub Jankiewicz</dc:title>
                    </cc:Agent>
                </dc:rights>
                <dc:date>2010</dc:date>
                <dc:format>image/svg+xml</dc:format>
                <dc:type rdf:resource="http://purl.org/dc/dcmitype/StillImage" />
                <cc:license rdf:resource="http://creativecommons.org/licenses/by-sa/3.0/" />
             </cc:Work>
        </rdf:RDF>
    </metadata>
    <path d="M 35 9.34375 C 28.426619 9.34375 21.88604 11.863961 16.875 16.875 C 6.8529186 26.89708 6.8529154 43.13417 16.875 53.15625 C 17.675 53.956251 18.502274 54.702718 19.375 55.375 C 18.838462 58.167031 18.5625 61.05144 18.5625 64 C 18.5625 89.08848 38.880271 109.40625 63.96875 109.40625 C 66.917311 109.40625 69.83297 109.13029 72.625 108.59375 C 73.299789 109.4708 74.040063 110.32131 74.84375 111.125 C 84.86583 121.14709 101.10291 121.17835 111.125 111.15625 C 121.14707 101.13417 121.14707 84.83458 111.125 74.8125 C 110.31645 74.003952 109.4768 73.271551 108.59375 72.59375 C 109.12931 69.804158 109.4375 66.945805 109.4375 64 C 109.4375 38.91152 89.05723 18.5625 63.96875 18.5625 C 61.02019 18.5625 58.16703 18.869712 55.375 19.40625 C 54.698997 18.526323 53.962141 17.680891 53.15625 16.875 C 48.14521 11.86396 41.573381 9.34375 35 9.34375 z M 64.78125 28.3125 C 67.320876 28.366901 69.670289 28.644195 71.84375 29.1875 C 74.690771 29.899335 77.299574 30.973353 79.5625 32.4375 A 2.2861908 2.2861908 0 0 1 79.59375 32.46875 C 79.915852 32.683566 80.193835 32.866382 80.46875 33.03125 L 80.4375 33.0625 C 80.987127 33.35924 81.499009 33.717902 81.90625 34.125 C 82.025338 34.244193 82.130821 34.318427 82.25 34.4375 C 82.352712 34.52822 82.546535 34.671604 82.625 34.75 C 82.74391 34.869015 82.883414 35.008519 83.0625 35.1875 L 83.03125 35.21875 C 83.259796 35.41387 83.479684 35.606224 83.65625 35.84375 L 83.6875 35.8125 C 83.725778 35.860366 83.742444 35.92023 83.78125 35.96875 C 83.984558 36.222952 84.205625 36.468067 84.40625 36.71875 C 84.604613 36.966802 84.845581 37.244612 85.125 37.59375 C 85.449578 37.999633 85.605288 38.425909 85.78125 38.84375 L 85.8125 38.84375 C 85.953151 39.078276 86.148343 39.364541 86.34375 39.6875 C 86.355283 39.706561 86.363333 39.730564 86.375 39.75 C 87.025595 40.773757 87.498715 41.901943 87.84375 43.125 C 87.849179 43.144243 87.869641 43.168213 87.875 43.1875 C 88.179395 44.225987 88.454802 45.315992 88.75 46.4375 A 2.2861908 2.2861908 0 0 1 88.75 46.46875 C 88.916975 47.137006 88.925676 47.86958 88.875 48.625 L 88.9375 48.625 C 88.937492 48.700267 88.908198 48.767469 88.90625 48.84375 C 88.88833 49.545609 88.795938 50.277505 88.34375 51.03125 A 2.2861908 2.2861908 0 0 1 88.25 51.1875 C 87.498378 52.239705 86.25308 52.772518 85.125 52.875 C 84.367324 52.943927 83.631279 52.968798 82.875 52.96875 C 82.575918 52.968795 82.301837 52.968795 82.0625 52.96875 C 81.736163 52.968812 81.324119 52.936507 80.90625 52.84375 C 80.778015 52.818127 80.684664 52.812523 80.5625 52.8125 C 79.849065 52.812679 79.33065 52.58732 78.90625 52.375 L 78.90625 52.40625 C 78.786019 52.346203 78.682641 52.24764 78.5625 52.1875 A 2.2861908 2.2861908 0 0 1 77.9375 51.78125 C 77.817502 51.661342 77.71367 51.526261 77.59375 51.40625 A 2.2861908 2.2861908 0 0 1 77.3125 51.0625 C 76.764867 50.241224 76.384155 49.331638 76.15625 48.34375 A 2.2861908 2.2861908 0 0 1 76.125 48.15625 C 76.035052 47.571838 75.894659 47.133149 75.71875 46.78125 A 2.2861908 2.2861908 0 0 1 75.65625 46.65625 C 74.782255 44.599921 73.652811 43.237762 72.21875 42.3125 A 2.2861908 2.2861908 0 0 1 72.15625 42.25 C 71.033279 41.46887 69.680693 40.857731 68 40.4375 A 2.2861908 2.2861908 0 0 1 67.8125 40.375 C 67.681505 40.33136 67.529395 40.343765 67.4375 40.34375 A 2.2861908 2.2861908 0 0 1 67.09375 40.3125 C 66.806227 40.26463 66.491692 40.142918 66.1875 40.0625 L 65.6875 40.0625 A 2.2861908 2.2861908 0 0 1 65.125 40 C 64.829424 39.926146 64.496856 39.906284 64.21875 39.90625 C 63.740413 39.906308 63.25953 39.906308 62.78125 39.90625 C 59.90699 39.906304 57.641811 40.345925 55.9375 41.125 A 2.2861908 2.2861908 0 0 1 55.875 41.15625 C 54.917832 41.539156 54.048128 42.047764 53.28125 42.71875 A 2.2861908 2.2861908 0 0 1 53.21875 42.78125 C 52.545522 43.328277 52.058424 43.963326 51.71875 44.8125 A 2.2861908 2.2861908 0 0 1 51.625 44.96875 C 51.497691 45.223379 51.404703 45.585071 51.3125 46 C 51.237658 46.527591 51.137086 47.033301 51.03125 47.5625 A 2.2861908 2.2861908 0 0 1 51 47.65625 C 50.954119 47.839771 50.941096 48.221108 50.9375 48.6875 C 50.937317 48.711284 50.937499 48.694303 50.9375 48.71875 C 50.980614 49.059563 51.045801 49.3858 51.09375 49.5625 C 51.448139 50.726998 51.840073 51.481611 52.125 51.84375 C 52.130826 51.850107 52.119063 51.868606 52.125 51.875 C 52.558557 52.341896 53.292233 52.896205 54.28125 53.46875 A 2.2861908 2.2861908 0 0 1 54.34375 53.53125 C 55.449202 54.234763 56.658779 54.729862 58.0625 55.09375 C 59.661737 55.508411 61.331238 55.968801 63.03125 56.4375 C 63.066875 56.447322 63.089336 56.458913 63.125 56.46875 C 63.53051 56.554488 63.964214 56.607168 64.40625 56.65625 C 65.090522 56.732332 65.737311 56.918946 66.375 57.125 C 66.408752 57.135906 66.466385 57.113798 66.5 57.125 C 67.18967 57.319092 67.905597 57.502651 68.65625 57.65625 C 68.709612 57.667169 68.758876 57.676778 68.8125 57.6875 C 69.778389 57.817764 70.704304 58.043443 71.59375 58.34375 C 71.668377 58.368946 71.738434 58.348552 71.8125 58.375 C 71.814932 58.375672 71.810074 58.405578 71.8125 58.40625 C 71.939223 58.441347 72.077103 58.496549 72.1875 58.53125 C 72.387722 58.551839 72.561157 58.541602 72.78125 58.59375 L 72.78125 58.5625 C 72.801174 58.566929 72.823932 58.58924 72.84375 58.59375 C 73.405107 58.721502 73.922834 58.872635 74.40625 59.03125 C 74.479752 59.055367 74.553127 59.101049 74.625 59.125 C 75.152311 59.248476 75.705927 59.381191 76.25 59.5625 A 2.2861908 2.2861908 0 0 1 76.28125 59.5625 C 77.504459 59.990672 78.711596 60.434541 79.90625 60.9375 C 81.170609 61.469919 82.356863 62.125773 83.46875 62.84375 C 83.475081 62.847838 83.493674 62.839657 83.5 62.84375 C 83.504784 62.846801 83.495219 62.871945 83.5 62.875 C 84.933142 63.790717 86.209237 64.84133 87.34375 66.09375 C 87.368588 66.121169 87.412814 66.159912 87.4375 66.1875 C 88.67954 67.449194 89.690973 68.935071 90.4375 70.625 C 90.440644 70.632117 90.434365 70.649126 90.4375 70.65625 C 90.721342 71.298134 90.96707 71.977162 91.125 72.6875 C 91.246831 73.236007 91.376168 73.849895 91.5 74.46875 L 91.4375 74.46875 C 91.582402 74.962415 91.718683 75.46164 91.71875 75.96875 C 91.718719 76.170943 91.727488 76.245 91.75 76.3125 A 2.2861908 2.2861908 0 0 1 91.875 77.03125 L 91.875 78.03125 L 91.875 78.84375 A 2.2861908 2.2861908 0 0 1 91.8125 79.375 C 91.817442 79.355247 91.812472 79.440978 91.8125 79.5625 C 91.812445 79.801248 91.812445 80.042535 91.8125 80.28125 A 2.2861908 2.2861908 0 0 1 91.71875 80.8125 C 91.634882 81.147832 91.583746 81.589616 91.53125 82.0625 L 91.5 82.0625 C 91.465238 82.743642 91.332168 83.399872 91.125 83.96875 C 91.118991 83.98525 91.099843 84.014852 91.09375 84.03125 C 90.781555 84.960493 90.466584 85.879937 90.09375 86.75 C 89.691755 87.68786 89.17341 88.570793 88.5625 89.40625 C 88.532273 89.447587 88.499541 89.490192 88.46875 89.53125 L 88.4375 89.53125 C 87.279063 91.26506 85.840445 92.790716 84.09375 94 C 82.425049 95.155223 80.618286 96.176029 78.71875 97.0625 A 2.2861908 2.2861908 0 0 1 78.625 97.09375 C 77.983786 97.350218 77.319053 97.58962 76.6875 97.78125 C 76.669512 97.787215 76.642995 97.806599 76.625 97.8125 C 76.019943 98.010927 75.408068 98.172789 74.78125 98.34375 L 74.78125 98.3125 C 74.076119 98.556977 73.282656 98.72688 72.46875 98.8125 L 72.46875 98.875 C 71.806723 98.985332 71.187452 99.08594 70.53125 99.25 A 2.2861908 2.2861908 0 0 1 70.40625 99.28125 C 69.876172 99.387251 69.436657 99.406248 69 99.40625 C 68.927682 99.40625 68.741636 99.426668 68.53125 99.46875 A 2.2861908 2.2861908 0 0 1 68.0625 99.53125 L 67 99.53125 C 66.625428 99.573584 66.263019 99.593748 65.9375 99.59375 C 65.521848 99.650795 65.12904 99.687498 64.59375 99.6875 C 64.103983 99.687498 63.728943 99.647393 63.34375 99.59375 L 62.34375 99.59375 A 2.2861908 2.2861908 0 0 1 61.90625 99.53125 C 61.447014 99.439406 60.999978 99.406249 60.5625 99.40625 C 59.813614 99.406247 59.066457 99.339271 58.375 99.1875 L 57.65625 99.03125 C 57.393045 99.002819 57.115826 98.948187 56.90625 98.90625 C 56.89719 98.904603 56.884043 98.907899 56.875 98.90625 C 56.199645 98.783118 55.586106 98.679725 55 98.5625 A 2.2861908 2.2861908 0 0 1 54.9375 98.5625 C 54.34701 98.431285 53.723767 98.22291 53.0625 97.96875 C 53.007864 97.94775 52.96131 97.928275 52.90625 97.90625 C 49.862673 96.897565 47.168279 95.609042 44.9375 93.96875 A 2.2861908 2.2861908 0 0 1 44.90625 93.9375 C 42.679867 92.250861 40.809713 90.063683 39.25 87.46875 C 38.714375 86.596055 38.239903 85.705632 37.84375 84.78125 A 2.2861908 2.2861908 0 0 1 37.78125 84.65625 C 37.486238 83.830243 37.183622 82.889291 36.875 81.90625 C 36.868447 81.886593 36.850099 81.863314 36.84375 81.84375 C 36.682206 81.345956 36.569524 80.854691 36.5 80.4375 A 2.2861908 2.2861908 0 0 1 36.46875 80.09375 C 36.468749 80.002064 36.490774 80.023815 36.46875 79.96875 A 2.2861908 2.2861908 0 0 1 36.34375 79.625 C 36.182642 78.900057 36.124996 78.115519 36.125 77.3125 C 36.124996 76.39169 36.32769 75.408923 37.0625 74.5 L 37 74.46875 C 37.033753 74.421498 37.08912 74.388848 37.125 74.34375 C 37.176218 74.285873 37.193237 74.244267 37.25 74.1875 L 37.28125 74.21875 C 38.037097 73.379879 39.09729 72.900277 40.0625 72.8125 A 2.2861908 2.2861908 0 0 1 40.09375 72.8125 C 40.841748 72.750188 41.614647 72.687524 42.375 72.6875 C 42.613929 72.687521 42.823555 72.687521 43.0625 72.6875 C 43.484268 72.687529 43.875816 72.777971 44.25 72.875 L 44.25 72.84375 C 44.420569 72.877877 44.477104 72.875003 44.5 72.875 L 44.5 72.9375 C 44.508083 72.940141 44.523167 72.934807 44.53125 72.9375 C 45.191405 72.912207 45.787193 73.065511 46.15625 73.25 A 2.2861908 2.2861908 0 0 1 46.28125 73.28125 C 46.83249 73.596279 47.407582 73.982706 47.875 74.8125 C 47.88806 74.834269 47.893471 74.852805 47.90625 74.875 C 47.92339 74.907039 47.952027 74.935311 47.96875 74.96875 L 47.9375 74.96875 C 48.182055 75.417439 48.307719 75.962595 48.375 76.53125 L 48.46875 76.53125 C 48.514353 76.759326 48.572555 76.967703 48.65625 77.21875 A 2.2861908 2.2861908 0 0 1 48.65625 77.3125 C 48.77901 77.74222 48.870506 78.158565 48.9375 78.5625 C 48.941493 78.576479 48.964396 78.61053 48.96875 78.625 C 49.042378 78.869685 49.151482 79.155579 49.3125 79.53125 A 2.2861908 2.2861908 0 0 1 49.34375 79.625 C 50.226388 81.857594 51.453997 83.458838 53.125 84.6875 A 2.2861908 2.2861908 0 0 1 53.15625 84.71875 C 54.008092 85.370177 54.927569 85.908541 55.9375 86.3125 C 57.068361 86.764859 58.29341 87.197207 59.59375 87.59375 C 59.601733 87.595634 59.617002 87.591889 59.625 87.59375 C 59.954898 87.67052 60.291306 87.735638 60.65625 87.78125 C 61.040805 87.829327 61.421763 87.888663 61.8125 87.9375 C 61.907515 87.949376 62.031477 87.925812 62.125 87.9375 L 62.125 87.96875 C 62.19416 87.97702 62.223489 88.02003 62.28125 88.03125 C 62.308325 88.036509 62.318897 88.025539 62.34375 88.03125 L 62.78125 88.03125 A 2.2861908 2.2861908 0 0 1 63.1875 88.09375 A 2.2861908 2.2861908 0 0 1 63.21875 88.0625 C 63.77768 87.969346 64.441433 88.062517 65.09375 88.25 L 65.125 88.1875 C 65.138816 88.190955 65.30594 88.218753 65.5625 88.21875 C 65.701447 88.218751 65.820349 88.191998 65.875 88.1875 A 2.2861908 2.2861908 0 0 1 66.75 88.03125 L 67.375 88.03125 C 67.653478 87.987228 67.899759 87.937507 68.25 87.9375 C 68.455034 87.937504 68.633473 87.923305 68.71875 87.90625 L 68.71875 87.9375 C 68.917422 87.891544 69.131836 87.816253 69.375 87.8125 A 2.2861908 2.2861908 0 0 1 69.6875 87.75 C 70.227776 87.614928 70.753924 87.533362 71.28125 87.46875 C 71.635786 87.389963 72.003448 87.274001 72.40625 87.125 C 72.433724 87.113376 72.441426 87.105424 72.46875 87.09375 C 73.846951 86.504891 75.040807 85.837155 76.0625 85.125 C 76.072838 85.117615 76.083473 85.132421 76.09375 85.125 C 76.988508 84.478898 77.667329 83.689112 78.15625 82.625 C 78.162137 82.609297 78.150449 82.578217 78.15625 82.5625 C 78.293609 82.190363 78.433868 81.826889 78.53125 81.4375 C 78.636555 81.01613 78.741175 80.535112 78.875 80 C 78.934079 79.763599 78.968713 79.355706 78.96875 78.84375 C 78.968713 78.331842 78.910157 77.966853 78.875 77.84375 L 78.90625 77.84375 C 78.787237 77.494399 78.714553 77.152114 78.6875 76.8125 A 2.2861908 2.2861908 0 0 1 78.6875 76.75 C 78.68247 76.674003 78.624981 76.605159 78.625 76.53125 C 78.625023 76.647188 78.637228 76.667676 78.65625 76.71875 A 2.2861908 2.2861908 0 0 1 78.5625 76.53125 C 78.285726 75.747174 77.987414 75.211198 77.625 74.8125 A 2.2861908 2.2861908 0 0 1 77.5625 74.75 C 77.104123 74.200005 76.50685 73.652259 75.8125 73.15625 C 74.740597 72.390652 73.512139 71.781881 72.15625 71.3125 C 70.713446 70.813105 69.18725 70.405154 67.53125 70.0625 A 2.2861908 2.2861908 0 0 1 67.4375 70.03125 C 65.797756 69.62135 64.099391 69.226162 62.34375 68.875 C 60.494516 68.505189 58.704542 68.089729 56.96875 67.59375 A 2.2861908 2.2861908 0 0 1 56.9375 67.59375 C 56.04565 67.315082 55.158967 67.064994 54.3125 66.90625 A 2.2861908 2.2861908 0 0 1 54.1875 66.875 C 53.16396 66.619153 52.124905 66.317211 51.15625 65.90625 C 51.140153 65.903033 51.140024 65.878399 51.125 65.875 C 50.754455 65.791161 50.581771 65.702332 50.53125 65.65625 C 50.521264 65.652293 50.510007 65.628958 50.5 65.625 C 49.979293 65.419078 49.416596 65.229176 48.84375 65 C 48.111071 64.706976 47.420209 64.356775 46.78125 63.9375 C 46.761867 63.924781 46.76929 63.887811 46.75 63.875 C 46.743757 63.871182 46.724989 63.87882 46.71875 63.875 C 45.283541 62.996085 43.955349 62.046329 42.75 61.03125 A 2.2861908 2.2861908 0 0 1 42.71875 61 C 41.376356 59.798963 40.355853 58.277658 39.59375 56.5625 L 39.5625 56.5625 C 39.539245 56.520644 39.522415 56.479631 39.5 56.4375 C 39.484379 56.401358 39.452868 56.380075 39.4375 56.34375 L 39.46875 56.34375 C 39.111593 55.64953 38.83453 54.891486 38.6875 54.15625 C 38.589595 53.617837 38.426934 53.02382 38.25 52.375 A 2.2861908 2.2861908 0 0 1 38.1875 51.78125 A 2.2861908 2.2861908 0 0 1 38.09375 51.15625 L 38.09375 50.59375 L 38.15625 50.59375 C 37.993634 49.681456 37.915027 48.751735 38.03125 47.6875 C 38.032285 47.678017 38.030195 47.665747 38.03125 47.65625 C 38.159221 46.452626 38.329705 45.50702 38.5625 44.71875 L 38.53125 44.71875 C 38.536544 44.699339 38.557274 44.675584 38.5625 44.65625 C 38.720126 44.07308 38.862317 43.532184 38.96875 43 A 2.2861908 2.2861908 0 0 1 39 42.78125 C 39.200598 42.112627 39.46042 41.432849 39.75 40.78125 A 2.2861908 2.2861908 0 0 1 39.75 40.75 C 40.688489 38.738997 41.938516 36.998939 43.46875 35.59375 C 43.477419 35.585475 43.491318 35.570766 43.5 35.5625 C 43.50899 35.554286 43.49099 35.539442 43.5 35.53125 C 44.798815 34.297851 46.294178 33.22893 47.84375 32.21875 C 47.985738 32.126187 48.074819 31.996878 48.21875 31.90625 L 48.25 31.9375 C 48.495188 31.77941 48.710826 31.613099 48.96875 31.53125 A 2.2861908 2.2861908 0 0 1 49.3125 31.34375 C 50.791152 30.604485 52.468333 29.977547 54.3125 29.46875 A 2.2861908 2.2861908 0 0 1 54.34375 29.46875 C 54.74393 29.368754 55.185073 29.296512 55.625 29.21875 C 55.72935 29.18895 55.805555 29.151433 55.90625 29.125 C 55.915101 29.123709 55.928627 29.126269 55.9375 29.125 C 56.328353 29.02304 56.722693 28.928744 57.0625 28.84375 C 57.717637 28.680047 58.409336 28.593837 59.125 28.59375 C 59.562337 28.593798 59.919029 28.567151 60.1875 28.5 L 60.1875 28.53125 C 60.730297 28.385787 61.11506 28.414217 61.5 28.46875 A 2.2861908 2.2861908 0 0 1 61.53125 28.46875 A 2.2861908 2.2861908 0 0 1 62.1875 28.34375 C 63.078089 28.312518 63.934708 28.294366 64.78125 28.3125 z " style="fill:#aaaaaa"/>
</svg>