<?xml version="1.0" encoding="UTF-8" standalone="no"?>
<svg xmlns:dc="http://purl.org/dc/elements/1.1/"
     xmlns:cc="http://creativecommons.org/ns#"
     xmlns:rdf="http://www.w3.org/1999/02/22-rdf-syntax-ns#"
     xmlns:svg="http://www.w3.org/2000/svg"
     xmlns="http://www.w3.org/2000/svg"
     xmlns:xlink="http://www.w3.org/1999/xlink"
     width="128" height="128" version="1.1">
    <title>Ubuntu Sotware Center Icons</title>
    <desc>This is shape (source) for Clarity vector icon theme for gtk</desc>
    <metadata>
        <rdf:RDF>
            <cc:Work rdf:about="">
                <dc:title>Ubuntu Sotware Center Icons</dc:title>
                <dc:description>This is shape (source) for Clarity vector icon theme for gtk</dc:description>
                <dc:creator>
                    <cc:Agent>
                        <dc:title>Jakub Jankiewicz</dc:title>
                    </cc:Agent>
                </dc:creator>
                <dc:rights>
                    <cc:Agent>
                        <dc:title>Jakub Jankiewicz</dc:title>
                    </cc:Agent>
                </dc:rights>
                <dc:date>2010</dc:date>
                <dc:format>image/svg+xml</dc:format>
                <dc:type rdf:resource="http://purl.org/dc/dcmitype/StillImage" />
                <cc:license rdf:resource="http://creativecommons.org/licenses/by-sa/3.0/" />
             </cc:Work>
        </rdf:RDF>
    </metadata>
    <path d="m 63.96875,8.875 c -30.14096,0 -54.5625,24.707364 -54.5625,55.15625 0,30.448887 24.42154,55.09375 54.5625,55.09375 30.14096,0 54.625,-24.644863 54.625,-55.09375 0,-30.448886 -24.48404,-55.15625 -54.625,-55.15625 z m 22.3125,10.4375 c 4.876069,0 8.875843,3.940043 8.875,8.8125 8.32e-4,4.872463 -3.993451,8.875 -8.875,8.875 -4.88155,0 -8.875842,-4.008035 -8.875,-8.875 -8.42e-4,-4.866957 3.99893,-8.8125 8.875,-8.8125 z M 62.875,27.125 c 0.282815,-0.02079 0.40697,-4.6e-5 0.40625,0 0.257136,-0.01598 0.431837,0.0018 0.46875,0 0.241043,-0.01261 0.368196,0.0027 0.4375,0 0.516067,-0.01953 0.99193,0 1.4375,0 2.415804,0 4.760724,0.286366 7.03125,0.71875 a 0.99641504,0.99641504 0 0 1 0.8125,0.9375 c 0.314586,6.740985 5.954657,12.0625 12.8125,12.0625 2.197018,0 4.214311,-0.51267 6,-1.46875 A 0.99641504,0.99641504 0 0 1 93.5,39.59375 c 4.840198,5.403446 8.16494,12.217115 9.1875,19.75 a 0.99641504,0.99641504 0 0 1 -1,1.15625 l -14.03125,0 A 0.99641504,0.99641504 0 0 1 86.6875,59.71875 C 84.54086,50.086296 75.948368,42.875 65.625,42.875 c -0.422998,0 -0.805423,-0.0161 -1.125,0 -1.898775,0.09604 -3.705584,0.399851 -5.40625,0.9375 A 0.99641504,0.99641504 0 0 1 57.9375,43.34375 l -7,-11.96875 a 0.99641504,0.99641504 0 0 1 0.46875,-1.4375 C 54.961754,28.474643 58.838141,27.422468 62.875,27.125 z m -19.59375,7.59375 a 0.99641504,0.99641504 0 0 1 0.90625,0.5 l 7,12.09375 A 0.99641504,0.99641504 0 0 1 51,48.53125 c -4.288187,3.94828 -6.96875,9.575575 -6.96875,15.84375 0,6.271205 2.679309,11.940161 6.96875,15.875 a 0.99641504,0.99641504 0 0 1 0.1875,1.21875 l -7,12.09375 a 0.99641504,0.99641504 0 0 1 -1.46875,0.28125 C 36.912637,89.344111 32.510383,83.131998 30.15625,76.03125 a 0.99641504,0.99641504 0 0 1 0.375,-1.15625 c 3.359258,-2.291961 5.5625,-6.132072 5.5625,-10.5 0,-4.367929 -2.199533,-8.174249 -5.5625,-10.46875 A 0.99641504,0.99641504 0 0 1 30.15625,52.75 c 2.354957,-7.099154 6.759008,-13.308867 12.5625,-17.8125 a 0.99641504,0.99641504 0 0 1 0.5625,-0.21875 z m -19.875,20.84375 c 4.876061,0 8.813341,3.951042 8.8125,8.8125 8.41e-4,4.861464 -3.93095,8.84375 -8.8125,8.84375 -4.881558,0 -8.938333,-3.96579 -8.9375,-8.84375 -8.33e-4,-4.877963 4.061432,-8.8125 8.9375,-8.8125 z m 64.0625,12.71875 a 0.99641504,0.99641504 0 0 1 0.09375,0 0.99641504,0.99641504 0 0 1 0.09375,0 l 14.03125,0 a 0.99641504,0.99641504 0 0 1 1,1.15625 c -1.02256,7.532885 -4.347302,14.346554 -9.1875,19.75 a 0.99641504,0.99641504 0 0 1 -1.21875,0.21875 c -1.785691,-0.956081 -3.802986,-1.468758 -6,-1.46875 -0.337936,0 -0.600801,-0.01335 -0.8125,0 -6.458517,0.408432 -11.682975,5.606648 -12,12.0625 a 0.99641504,0.99641504 0 0 1 -0.8125,0.9375 c -2.270526,0.43238 -4.615446,0.71875 -7.03125,0.71875 -5.036864,0 -9.840005,-1.04205 -14.21875,-2.84375 A 0.99641504,0.99641504 0 0 1 50.9375,97.375 l 7,-12 a 0.99641504,0.99641504 0 0 1 1.15625,-0.46875 c 2.06031,0.651047 4.242445,1 6.53125,1 10.323368,0 18.915869,-7.211297 21.0625,-16.84375 a 0.99641504,0.99641504 0 0 1 0.78125,-0.78125 z m -1.1875,23.5 c 4.881548,0 8.875843,4.002532 8.875,8.875 8.32e-4,4.87245 -3.998931,8.8125 -8.875,8.8125 -4.876073,1e-5 -8.875842,-3.94554 -8.875,-8.8125 -8.42e-4,-4.866969 3.993451,-8.875 8.875,-8.875 z" style="fill:#aaaaaa"/>
</svg>