<?xml version="1.0" encoding="UTF-8" standalone="no"?>
<svg xmlns:dc="http://purl.org/dc/elements/1.1/"
     xmlns:cc="http://creativecommons.org/ns#"
     xmlns:rdf="http://www.w3.org/1999/02/22-rdf-syntax-ns#"
     xmlns:svg="http://www.w3.org/2000/svg"
     xmlns="http://www.w3.org/2000/svg"
     xmlns:xlink="http://www.w3.org/1999/xlink"
     width="128" height="128" version="1.1">
    <title>Songbird Icon</title>
    <desc>This is shape (source) for Clarity vector icon theme for gtk</desc>
    <metadata>
        <rdf:RDF>
            <cc:Work rdf:about="">
                <dc:title>Songbird Icon</dc:title>
                <dc:description>This is shape (source) for Clarity vector icon theme for gtk</dc:description>
                <dc:creator>
                    <cc:Agent>
                        <dc:title>Jakub Jankiewicz</dc:title>
                    </cc:Agent>
                </dc:creator>
                <dc:rights>
                    <cc:Agent>
                        <dc:title>Jakub Jankiewicz</dc:title>
                    </cc:Agent>
                </dc:rights>
                <dc:date>2010</dc:date>
                <dc:format>image/svg+xml</dc:format>
                <dc:type rdf:resource="http://purl.org/dc/dcmitype/StillImage" />
                <cc:license rdf:resource="http://www.gnu.org/copyleft/gpl.html" />
             </cc:Work>
        </rdf:RDF>
    </metadata>
    <path d="m 24.194867,73.69821 c -8.62675,2.951256 -7.037612,4.767414 -7.037612,5.902513 0,1.135099 6.810592,1.362118 6.810592,1.362118 0,0 -6.129533,3.632316 -8.85377,5.902514 -2.724237,2.270197 -7.491651,6.356552 -2.951256,6.810592 4.540395,0.454039 9.534829,0 9.534829,0 0,0 -5.902513,4.313375 -9.08079,6.583573 -3.1782761,2.2702 -5.6754932,6.12954 -4.994434,7.49165 0.6810592,1.36212 5.675493,3.17828 11.350987,2.2702 5.675493,-0.90808 20.431777,-8.62675 27.015349,-10.21589 6.583572,-1.589138 37.004218,-10.215889 45.630968,-16.345422 8.62675,-6.129532 14.75629,-14.756283 14.75629,-28.604487 0,-13.848204 2.04318,-23.156013 5.22145,-26.10727 3.17828,-2.951256 7.03761,-5.675493 8.39973,-8.172711 1.36212,-2.497217 -0.22702,-3.405296 -3.17827,-2.497217 -2.95126,0.908079 -11.12397,3.178277 -16.79946,2.951257 C 94.343967,20.80261 86.398276,19.894531 80.495762,24.207906 74.593249,28.521281 71.187953,31.018499 64.8314,41.234387 58.474848,51.450275 53.707433,57.806828 49.848098,61.212124 45.988762,64.61742 27.091764,72.707166 24.194867,73.69821 z" style="fill:#aaaaaa"/>
</svg>