<?xml version="1.0" encoding="UTF-8" standalone="no"?>
<svg xmlns:dc="http://purl.org/dc/elements/1.1/"
     xmlns:cc="http://creativecommons.org/ns#"
     xmlns:rdf="http://www.w3.org/1999/02/22-rdf-syntax-ns#"
     xmlns:svg="http://www.w3.org/2000/svg"
     xmlns="http://www.w3.org/2000/svg"
     xmlns:xlink="http://www.w3.org/1999/xlink"
     width="128" height="128" version="1.1">
    <title>Sound Juicer Icon</title>
    <desc>This is shape (source) for Clarity vector icon theme for gtk</desc>
    <metadata>
        <rdf:RDF>
            <cc:Work rdf:about="">
                <dc:title>Sound Juicer Icon</dc:title>
                <dc:description>This is shape (source) for Clarity vector icon theme for gtk</dc:description>
                <dc:creator>
                    <cc:Agent>
                        <dc:title>Jakub Jankiewicz</dc:title>
                    </cc:Agent>
                </dc:creator>
                <dc:rights>
                    <cc:Agent>
                        <dc:title>Jakub Jankiewicz</dc:title>
                    </cc:Agent>
                </dc:rights>
                <dc:date>2010</dc:date>
                <dc:format>image/svg+xml</dc:format>
                <dc:type rdf:resource="http://purl.org/dc/dcmitype/StillImage" />
                <cc:license rdf:resource="http://www.gnu.org/copyleft/gpl.html" />
             </cc:Work>
        </rdf:RDF>
    </metadata>
    <path d="m 58.412178,6.734375 c -29.29781,0 -52.8750001,23.577193 -52.8750001,52.875 0,29.024097 23.1458361,52.378195 52.0625001,52.812495 0.0098,-2.02123 0.954139,-3.78068 2.1875,-5.125 1.228124,-1.33861 2.796296,-2.37453 4.5625,-3.1875 3.541796,-1.63025 8.025332,-2.5 12.9375,-2.5 2.927556,1e-5 5.544466,0.45697 8,1.0625 l 0,-53.281245 -14.1875,4.21875 c -1.11146,-2.333843 -2.831985,-4.294639 -4.96875,-5.71875 l 12.65625,-23.46875 c 0.801023,-1.4888 1.416471,-2.010516 2.5,-2.09375 1.085435,-0.08338 2.958278,0.460879 5.78125,2.1875 6.37125,3.89686 8.37811,5.934064 10.125,11.75 0.90855,3.024847 1.23154,5.508462 1.03125,7.15625 -0.0413,0.339814 -0.12025,0.613959 -0.1875,0.875 3.272162,0.887591 5.927762,2.699678 7.906252,4.9375 2.41651,2.733262 3.9572,5.96235 5.28125,9.0625 -0.69574,-28.681799 -23.956693,-51.5625 -52.812502,-51.5625 z m 2.46875,6.8125 c 0.627023,-0.02702 1.236847,-0.007 1.8125,0.03125 2.298374,0.152608 4.310867,0.803159 7,2.25 2.794955,1.503778 4.818468,3.061982 5.875,4.40625 1.056532,1.344268 1.226155,2.222013 0.65625,3.28125 l -12.5,23.09375 c -1.648065,-0.687723 -3.429917,-1.09375 -5.3125,-1.09375 -0.96368,0 -1.900112,0.09162 -2.8125,0.28125 l -7.5625,-25.09375 c -0.498705,-1.660344 -0.437835,-2.557872 0.3125,-3.4375 0.750335,-0.879628 2.549639,-1.815004 5.78125,-2.59375 2.723009,-0.656185 4.868932,-1.043941 6.75,-1.125 z m -18.40625,4.78125 c 0.779535,0.03183 1.29626,0.185197 1.59375,0.375 0.29749,0.189803 0.442169,0.401591 0.59375,0.90625 l 8.09375,27.125 c -2.39262,1.065349 -4.423128,2.77239 -5.90625,4.90625 -2.437425,-1.266243 -4.905411,-2.549567 -7.34375,-3.78125 -6.753726,-3.411524 -12.91576,-6.603312 -15.25,-8.34375 -2.013668,-1.501416 -2.719009,-2.574299 -2.8125,-3.84375 -0.09349,-1.269451 0.556367,-3.179871 2.28125,-6 3.887338,-6.35568 5.838689,-8.230759 11.625,-9.96875 3.065661,-0.920809 5.572288,-1.438407 7.125,-1.375 z m -22.625,22.34375 c 0.321394,-0.02136 0.653705,0.0613 1.0625,0.28125 l 24.5,13.25 c -0.702257,1.665789 -1.09375,3.502744 -1.09375,5.40625 0,1.176962 0.157908,2.310292 0.4375,3.40625 -2.519722,0.797137 -5.069529,1.58821 -7.5625,2.40625 -7.189363,2.359107 -13.767134,4.471558 -16.75,4.90625 -2.542873,0.370572 -3.980819,0.09184 -5.0625,-0.84375 -1.081681,-0.93559 -1.967452,-2.846363 -2.75,-6.09375 -1.753953,-7.278477 -1.770341,-10.2124 1.125,-15.59375 1.142502,-2.123477 2.224172,-3.847371 3.21875,-5.0625 0.994578,-1.215129 1.892239,-1.848014 2.5625,-2 0.110976,-0.02517 0.205369,-0.05538 0.3125,-0.0625 z m 68.5,5.09375 a 1.2588575,1.2588575 0 0 0 -1,1.25 l 0,58.281245 c -2.899797,-0.99714 -6.269512,-1.62499 -10.0625,-1.625 -4.663887,0 -8.908496,0.84637 -12.09375,2.3125 -1.592627,0.73307 -2.921728,1.6144 -3.90625,2.6875 -0.984522,1.0731 -1.624999,2.36576 -1.625,3.78125 0,1.41549 0.640478,2.7394 1.625,3.8125 0.984522,1.0731 2.313623,1.95443 3.90625,2.6875 3.185254,1.46614 7.429862,2.31251 12.09375,2.3125 4.663887,0 8.908496,-0.84636 12.09375,-2.3125 1.592627,-0.73307 2.92173,-1.6144 3.90625,-2.6875 0.98452,-1.0731 1.625,-2.39701 1.625,-3.8125 l 0,-48.906245 c 2.00118,0.202154 3.55253,0.727752 4.8125,1.625 1.538732,1.095756 2.848762,2.664098 4.437502,4.3125 3.16962,3.288643 7.64236,6.718673 17.15625,6.46875 0.0118,-3.1e-4 0.0194,3.22e-4 0.0312,0 0.0118,-3.22e-4 0.0194,3.33e-4 0.0312,0 a 1.2588575,1.2588575 0 0 0 -0.0625,-2.5 c -0.0113,2.9e-5 -0.02,6e-6 -0.0312,0 -3.19983,-0.0016 -5.11914,-1.407637 -6.84375,-3.78125 -1.73071,-2.38201 -3.08429,-5.743281 -4.53125,-9.21875 -1.44696,-3.475469 -3.01525,-7.06456 -5.5,-9.875 -2.48475,-2.81044 -5.954352,-4.776865 -10.750002,-4.8125 a 1.2588575,1.2588575 0 0 0 -0.03125,0 l -5.03125,0 a 1.2588575,1.2588575 0 0 0 -0.25,0 z m -29.9375,2.53125 c 6.184366,0 11.28125,5.128134 11.28125,11.3125 0,0.796427 -0.08951,1.560707 -0.25,2.3125 a 2.0462225,2.0462225 0 0 1 1.875,3.0625 l -2.375,4.03125 c -0.529245,0.899308 -0.559222,1.528411 -0.375,2.59375 0.172183,0.995717 0.711722,2.33695 1.46875,3.71875 0.762532,1.391846 1.682826,2.813907 2.5,4.28125 0.80449,1.444567 1.6875,3.105135 1.6875,5.1875 0,2.413879 -0.338666,5.149587 -2.125,7.40625 -1.829478,2.311167 -4.906125,3.470684 -8.5625,3.375 -3.550538,-0.09292 -6.449122,-1.319716 -8.3125,-3.46875 -1.845759,-2.128714 -2.454976,-4.781271 -2.53125,-7.21875 -0.02187,-0.716832 -0.418578,-4.404649 0.96875,-8.40625 0.64024,-1.846705 1.682125,-3.800096 3.21875,-5.71875 -5.476021,-0.758435 -9.78125,-5.491368 -9.78125,-11.15625 0,-6.184366 5.128133,-11.3125 11.3125,-11.3125 z m 11.15625,15.65625 -4.0625,2.28125 c -5.869674,3.294072 -8.676987,7.360572 -9.90625,10.90625 -1.229263,3.545678 -0.906149,6.66661 -0.875,7.6875 0.06718,2.146858 0.591943,4.277547 2.03125,5.9375 1.439307,1.659953 3.720739,2.699521 6.84375,2.78125 3.208764,0.08397 5.547802,-0.908882 6.90625,-2.625 1.358448,-1.716118 1.6875,-3.914132 1.6875,-6.125 0,-1.468518 -0.660878,-2.792974 -1.4375,-4.1875 -0.776622,-1.394526 -1.694689,-2.84257 -2.5,-4.3125 -0.805311,-1.46993 -1.478825,-2.956287 -1.71875,-4.34375 -0.239925,-1.387463 -0.116701,-2.655331 0.65625,-3.96875 l 2.375,-4.03125 z m 27.40625,2.09375 0,29.75 c 5.357412,-5.708138 9.442322,-12.607032 11.843752,-20.28125 -2.63166,-1.326862 -4.58982,-3.000922 -6.125,-4.59375 -1.64892,-1.710844 -2.922902,-3.215458 -4.156252,-4.09375 -0.45276,-0.322422 -0.9526,-0.573028 -1.5625,-0.78125 z" style="fill:#aaaaaa"/>
</svg>