<?xml version="1.0" encoding="UTF-8" standalone="no"?>
<svg xmlns:dc="http://purl.org/dc/elements/1.1/"
     xmlns:cc="http://creativecommons.org/ns#"
     xmlns:rdf="http://www.w3.org/1999/02/22-rdf-syntax-ns#"
     xmlns:svg="http://www.w3.org/2000/svg"
     xmlns="http://www.w3.org/2000/svg"
     xmlns:xlink="http://www.w3.org/1999/xlink"
     width="128" height="128" version="1.1">
    <title>Clarity Icon</title>
    <desc>This is Spotify (from uxrepo.com) for Clarity vector icon theme for gtk</desc>
    <metadata>
        <rdf:RDF>
            <cc:Work rdf:about="">
                <dc:title>Clarity Icon</dc:title>
                <dc:description>This is Spotify (from uxrepo.com) for Clarity vector icon theme for gtk</dc:description>
                <dc:creator>
                    <cc:Agent>
                        <dc:title>Chris Lenk</dc:title>
                    </cc:Agent>
                </dc:creator>
                <dc:rights>
                    <cc:Agent>
                        <dc:title>Chris Lenk</dc:title>
                    </cc:Agent>
                </dc:rights>
                <dc:date>2015</dc:date>
                <dc:format>image/svg+xml</dc:format>
                <dc:type rdf:resource="http://purl.org/dc/dcmitype/StillImage" />
                <cc:license rdf:resource="http://creativecommons.org/licenses/by-sa/3.0/" />
             </cc:Work>
        </rdf:RDF>
    </metadata>
    <path d="m 63.990683,5.9945059 c -32.02668,0 -57.9906799,25.9640001 -57.9906799,57.9922601 0.67638,28.977009 26.0480399,58.978164 57.9937399,57.995214 31.9457,0.98295 58.743177,-29.018205 57.990787,-57.995214 0,-32.02826 -25.963987,-57.9922601 -57.993847,-57.9922601 z m 27.46138,80.5163701 c -0.7505,1.08056 -1.95452,1.66116 -3.18006,1.66116 -0.76092,0 -1.52774,-0.22359 -2.1985,-0.68979 -9.08032,-6.29782 -19.73028,-9.62762 -30.79593,-9.62762 -6.4018,0 -12.66633,1.10502 -18.61733,3.28766 -2.00594,0.73782 -4.22619,-0.29336 -4.96038,-2.29998 -0.73623,-2.00549 0.29427,-4.22709 2.30021,-4.96196 6.80616,-2.4948 13.96572,-3.75364 21.2775,-3.75364 12.6473,0 24.82182,3.80619 35.20176,10.99995 1.75404,1.21784 2.18966,3.62565 0.97273,5.38422 z m 8.436965,-17.83511 c -0.82617,1.32272 -2.24358,2.04445 -3.692925,2.04445 -0.7872,0 -1.58414,-0.21226 -2.30157,-0.66079 -11.56629,-7.22797 -24.91855,-11.05138 -38.61719,-11.05138 -7.61216,0 -15.11808,1.17049 -22.31275,3.48293 -2.28797,0.7283 -4.73543,-0.52782 -5.47007,-2.81647 -0.73329,-2.28866 0.52623,-4.73747 2.81353,-5.47234 8.05503,-2.58134 16.45621,-3.89455 24.97065,-3.89455 15.32944,0 30.27604,4.28146 43.226205,12.37501 2.037442,1.27424 2.656102,3.95571 1.38412,5.99314 z m 4.257672,-15.46672 c -0.83364,0 -1.67453,-0.21566 -2.44247,-0.66782 -14.027557,-8.23581 -30.082347,-12.59293 -46.428247,-12.59293 -8.83249,0 -17.57799,1.26111 -25.9939,3.74141 -2.56366,0.75209 -5.24784,-0.71516 -6.0031,-3.27294 -0.75277,-2.56253 0.71086,-5.24739 3.2709,-6.00016 9.30436,-2.73878 18.96823,-4.13195 28.7261,-4.13195 18.06528,0 35.81317,4.81517 51.322027,13.92585 2.30157,1.3499 3.06974,4.31226 1.71938,6.61225 -0.89911,1.53249 -2.51406,2.38629 -4.17069,2.38629 z" style="fill:#aaaaaa"/>
</svg>