<?xml version="1.0" encoding="UTF-8" standalone="no"?>
<svg xmlns:dc="http://purl.org/dc/elements/1.1/"
     xmlns:cc="http://creativecommons.org/ns#"
     xmlns:rdf="http://www.w3.org/1999/02/22-rdf-syntax-ns#"
     xmlns:svg="http://www.w3.org/2000/svg"
     xmlns="http://www.w3.org/2000/svg"
     xmlns:xlink="http://www.w3.org/1999/xlink"
     width="128" height="128" version="1.1">
    <title>Squeeze Icon</title>
    <desc>This is shape (source) for Clarity vector icon theme for gtk</desc>
    <metadata>
        <rdf:RDF>
            <cc:Work rdf:about="">
                <dc:title>Sqeeze Icon</dc:title>
                <dc:description>This is shape (source) for Clarity vector icon theme for gtk</dc:description>
                <dc:creator>
                    <cc:Agent>
                        <dc:title>Jakub Jankiewicz</dc:title>
                    </cc:Agent>
                </dc:creator>
                <dc:rights>
                    <cc:Agent>
                        <dc:title>Jakub Jankiewicz</dc:title>
                    </cc:Agent>
                </dc:rights>
                <dc:date>2010</dc:date>
                <dc:format>image/svg+xml</dc:format>
                <dc:type rdf:resource="http://purl.org/dc/dcmitype/StillImage" />
                <cc:license rdf:resource="http://www.gnu.org/copyleft/gpl.html" />
             </cc:Work>
        </rdf:RDF>
    </metadata>
    <path d="m 50.582225,13.224226 c -3.468559,0 -6.286998,2.818436 -6.286998,6.286997 0,3.468561 2.818439,6.286997 6.286998,6.286997 2.315806,0 4.337758,-1.278069 5.426671,-3.143499 l 12.044563,0 0,21.541238 -33.02328,0 c -4.356023,0 -7.875291,3.519263 -7.875291,7.875291 l 0,54.82924 c 0,4.35602 3.519268,7.87529 7.875291,7.87529 l 35.769705,0 c 4.356023,0 7.875291,-3.51927 7.875291,-7.87529 l 0,-7.908388 -12.044563,0 0,0.496342 c 0,2.255066 -1.814933,4.070006 -4.070003,4.070006 l -19.291155,0 c -2.25507,0 -4.070003,-1.81494 -4.070003,-4.070006 l 0,-40.733123 c 0,-2.255069 1.814933,-4.070004 4.070003,-4.070004 l 16.875624,0 c -0.016,0.122833 -0.03309,0.235952 -0.03309,0.363984 l 0,3.573662 c 0,1.404521 1.011669,2.514799 2.250083,2.514799 l 5.691387,0 0,2.018457 -1.786831,0 c -2.092419,0 -3.772198,1.679782 -3.772198,3.772198 l 0,3.110409 20.15148,0 0,-3.110409 c 0,-2.092416 -1.67978,-3.772198 -3.772198,-3.772198 l -1.819921,0 0,-2.018457 5.724477,0 c 1.238414,0 2.216994,-1.110278 2.216994,-2.514799 l 0,-3.573662 c 0,-0.35113 -0.05263,-0.689168 -0.165448,-0.992683 l 0,-1.985368 c 0,-4.322055 -3.467087,-7.820988 -7.776023,-7.875291 l 0,-21.541238 12.077653,0 c 1.088913,1.86543 3.110864,3.143499 5.426671,3.143499 3.468559,0 6.286996,-2.818436 6.286996,-6.286997 0,-3.468561 -2.818437,-6.286997 -6.286996,-6.286997 -2.312376,0 -4.336604,1.249554 -5.426671,3.110409 l -33.122548,0 c -1.090067,-1.860855 -3.114294,-3.110409 -5.42667,-3.110409 z" style="fill:#aaaaaa"/>
</svg>