<?xml version="1.0" encoding="UTF-8" standalone="no"?>
<svg xmlns:dc="http://purl.org/dc/elements/1.1/"
     xmlns:cc="http://creativecommons.org/ns#"
     xmlns:rdf="http://www.w3.org/1999/02/22-rdf-syntax-ns#"
     xmlns:svg="http://www.w3.org/2000/svg"
     xmlns="http://www.w3.org/2000/svg"
     xmlns:xlink="http://www.w3.org/1999/xlink"
     width="128" height="128" version="1.1">
    <title>Clarity Icon</title>
    <desc>This is Steam (from uxrepo.com) for Clarity vector icon theme for gtk</desc>
    <metadata>
        <rdf:RDF>
            <cc:Work rdf:about="">
                <dc:title>Clarity Icon</dc:title>
                <dc:description>This is Steam (from uxrepo.com) for Clarity vector icon theme for gtk</dc:description>
                <dc:creator>
                    <cc:Agent>
                        <dc:title>Chris Lenk</dc:title>
                    </cc:Agent>
                </dc:creator>
                <dc:rights>
                    <cc:Agent>
                        <dc:title>Chris Lenk</dc:title>
                    </cc:Agent>
                </dc:rights>
                <dc:date>2015</dc:date>
                <dc:format>image/svg+xml</dc:format>
                <dc:type rdf:resource="http://purl.org/dc/dcmitype/StillImage" />
                <cc:license rdf:resource="http://creativecommons.org/licenses/by-sa/3.0/" />
             </cc:Work>
        </rdf:RDF>
    </metadata>
    <path d="m 6,53.390223 q 0,-4.862802 3.403966,-8.310974 3.403966,-3.448173 8.266767,-3.448173 4.155483,0 7.382621,2.608233 3.227138,2.608233 4.111285,6.586888 l 44.384146,17.859759 q 2.829267,-1.679879 6.012189,-1.679879 0.176828,0 0.574699,0.04422 0.397862,0.04423 0.663112,0.04423 l 9.725603,-14.057923 q 0.08845,-6.454267 4.685972,-11.00762 4.59757,-4.553354 11.05184,-4.553354 6.54268,0 11.14024,4.59756 Q 122,46.670715 122,53.213396 q 0,6.542681 -4.59756,11.140241 -4.59756,4.59756 -11.14024,4.59756 L 91.231707,79.91462 q -0.442069,4.509147 -3.801827,7.559448 -3.359759,3.050302 -7.868906,3.050302 -4.243905,0 -7.426827,-2.65244 -3.182932,-2.65244 -4.067078,-6.631095 L 23.682932,63.46949 q -2.829276,1.67988 -6.012199,1.67988 -4.862801,0 -8.266767,-3.448173 -3.403965,-3.448163 -3.403965,-8.310974 z m 3.094509,0 q 0,3.536586 2.519819,6.056405 2.519819,2.519819 6.056405,2.519819 0.795733,0 1.856707,-0.176827 l -3.625,-1.414638 0,-0.08845 q -2.475612,-1.149388 -3.536586,-3.713414 -0.530492,-1.237811 -0.530492,-2.475612 0,-1.326215 0.530492,-2.65244 1.060974,-2.65244 3.536586,-3.713414 1.326216,-0.618905 2.740854,-0.530491 1.149388,0 2.387198,0.442078 l 0,-0.08845 4.33231,1.768293 q -2.564017,-4.597561 -7.692069,-4.597561 -3.536586,0 -6.056405,2.519819 -2.519819,2.519811 -2.519819,6.144811 z m 62.774396,29.442078 q 2.564026,4.59756 7.692069,4.59756 3.536587,0 6.100612,-2.519819 2.564026,-2.519819 2.564026,-6.144819 0,-3.536586 -2.519819,-6.056396 -2.519819,-2.519819 -6.144819,-2.519819 -1.237801,0 -1.856707,0.176827 l 3.536587,1.414639 q 2.652439,1.060974 3.801827,3.713413 0.618905,1.326216 0.618905,2.65244 0,1.237802 -0.530491,2.564017 -1.060974,2.740853 -3.713414,3.801836 -1.326215,0.530483 -2.65244,0.530483 -1.237801,0 -2.564026,-0.530483 -0.70731,-0.26525 -2.166155,-0.839939 -1.458845,-0.574699 -2.166155,-0.83994 z M 95.74085,53.213396 q 0,4.332319 3.09451,7.426827 3.09452,3.094518 7.42684,3.094518 4.42073,0 7.51524,-3.094518 3.09451,-3.094508 3.09451,-7.426827 0,-4.33232 -3.09451,-7.426828 -3.09451,-3.094518 -7.51524,-3.094518 -4.33232,0 -7.42684,3.094518 -3.09451,3.094508 -3.09451,7.426828 z m 2.21037,-0.08841 q 0,3.536586 2.4314,6.012198 2.43141,2.475603 5.96799,2.475603 3.44818,0 5.92378,-2.475603 2.47561,-2.475612 2.47561,-6.012198 0,-3.448173 -2.47561,-5.923785 -2.4756,-2.475603 -5.92378,-2.475603 -3.53658,0 -5.96799,2.475603 -2.4314,2.475612 -2.4314,5.923785 z" style="fill:#aaaaaa"/>
</svg>