<?xml version="1.0" encoding="UTF-8" standalone="no"?>
<svg xmlns:dc="http://purl.org/dc/elements/1.1/"
     xmlns:cc="http://creativecommons.org/ns#"
     xmlns:rdf="http://www.w3.org/1999/02/22-rdf-syntax-ns#"
     xmlns:svg="http://www.w3.org/2000/svg"
     xmlns="http://www.w3.org/2000/svg"
     xmlns:xlink="http://www.w3.org/1999/xlink"
     width="128" height="128" version="1.1">
    <title>Clarity Icon</title>
    <desc>This is Sublime Text 2 for Clarity vector icon theme for gtk</desc>
    <metadata>
        <rdf:RDF>
            <cc:Work rdf:about="">
                <dc:title>Clarity Icon</dc:title>
                <dc:description>This is Sublime Text 2 for Clarity vector icon theme for gtk</dc:description>
                <dc:creator>
                    <cc:Agent>
                        <dc:title>Chris Lenk</dc:title>
                    </cc:Agent>
                </dc:creator>
                <dc:rights>
                    <cc:Agent>
                        <dc:title>Chris Lenk</dc:title>
                    </cc:Agent>
                </dc:rights>
                <dc:date>2015</dc:date>
                <dc:format>image/svg+xml</dc:format>
                <dc:type rdf:resource="http://purl.org/dc/dcmitype/StillImage" />
                <cc:license rdf:resource="http://creativecommons.org/licenses/by-sa/3.0/" />
             </cc:Work>
        </rdf:RDF>
    </metadata>
    <path d="m 113.9132,48.291985 c -0.50786,-5.855865 -1.01754,-11.70991 -1.51266,-17.565776 -0.26212,-3.114512 -0.51332,-6.232665 -0.7627,-9.348997 -0.2148,-2.674003 0.0328,-8.389706 -1.13768,-10.836173 C 108.68351,6.7420987 99.238039,6.4999997 99.238039,6.4999997 l -72.148922,0 c 0,0 -9.814992,0.136522 -11.737215,5.1295713 -1.023002,4.446963 -1.32699,11.749957 -1.731094,16.728444 -0.522423,6.432896 -1.103094,13.22439 -1.665563,19.651826 -1.084892,12.430744 -2.124276,25.050799 -3.210988,37.481543 -1.186827,13.559323 6.760549,13.650338 18.767166,13.633955 17.503887,-0.02184 35.007773,0.05825 52.511659,0.06007 9.052291,0.0018 18.104582,0.02366 27.156868,0.0182 3.03624,-0.0018 6.19444,0.107397 8.58812,-2.308125 2.98345,-3.012576 1.57745,-7.514515 1.22848,-11.498667 -1.55094,-17.706933 -2.25118,-26.860506 -3.08335,-37.104832 z M 84.293477,62.004213 c 0.02548,4.56164 -4.041038,10.098956 -6.884328,12.221411 -2.845109,2.122455 -6.434717,3.136356 -6.434717,3.136356 -5.042197,1.368856 -10.100776,0.973854 -15.192121,0.18931 -3.139996,-0.484197 -5.249709,-0.911965 -8.16581,-2.180705 -1.374317,-0.598875 -3.027139,-1.689227 -3.884494,-2.486513 -0.855535,-0.795466 -1.523581,-2.193447 -1.660103,-3.316564 -0.140162,-1.141321 0.06917,-2.107893 0.888301,-3.138176 1.368856,-1.286943 2.417342,-2.033261 4.332285,-2.135198 1.518119,-0.08009 2.957967,0.289426 4.392354,0.724475 3.027138,0.919245 5.955981,2.244415 9.105079,2.661261 2.581168,0.342214 5.122289,0.220254 7.450437,-1.185008 0.897402,-0.540625 1.853053,-1.64918 2.231673,-2.491974 0.37862,-0.842793 0.637101,-1.978652 0.771802,-3.090848 0.09648,-2.72315 -1.871256,-4.294059 -5.453582,-5.499089 -3.582326,-1.205031 -7.266588,-2.177064 -8.8557,-2.604832 -1.589111,-0.427767 -8.35694,-2.743173 -10.876219,-7.779909 -0.882839,-1.765679 -0.799106,-3.555022 -0.669865,-4.894754 0.12924,-1.339732 0.742677,-4.04832 2.333608,-6.456561 2.932484,-4.437861 12.20867,-6.986264 19.972197,-6.114346 2.708588,0.303988 5.389872,0.815489 7.954657,1.914943 1.438027,0.617077 3.436703,1.64554 3.879033,2.559324 0.44233,0.915605 0.429588,1.439848 0.429588,1.439848 0.267582,1.716531 -0.75906,2.615753 -1.863975,3.429422 -0.449611,0.331292 -1.283302,0.729935 -2.208009,0.808208 -1.119477,0.09465 -3.382094,-0.223896 -5.400793,-0.931988 -2.420983,-0.850074 -4.902035,-1.467152 -7.505046,-1.301505 -3.485851,0.222075 -5.677478,1.978652 -5.448121,5.358927 0.31673,1.483534 1.731093,1.985934 2.27718,2.351811 0.546086,0.365878 1.439847,0.804568 3.29472,1.363396 1.681946,0.50604 3.374814,0.972033 5.05858,1.476253 5.246069,1.569088 11.850073,4.215786 14.234649,7.929173 1.838491,2.992553 1.922224,4.459705 1.89674,8.043852 z m 33.394373,48.108107 c -0.0382,2.34453 -1.58849,5.91438 -1.76506,6.87549 -3.16505,3.23486 -9.45403,3.98141 -13.42041,4.47287 -31.097592,-0.0692 -49.453777,0.11488 -76.893159,0.001 C 14.978797,120.42155 12.535307,119.15574 9.698088,110.11037 L 8.594994,99.492637 c 0,0 2.055105,2.559323 3.447625,3.200063 1.39252,0.64256 5.144133,0.99934 5.937778,0.99934 0.779083,0 89.407073,0.21115 92.108373,-0.1438 5.59375,-0.24574 8.43236,-4.009288 8.43236,-4.009288 z" style="fill:#aaaaaa"/>
</svg>