<?xml version="1.0" encoding="UTF-8" standalone="no"?>
<svg xmlns:dc="http://purl.org/dc/elements/1.1/"
     xmlns:cc="http://creativecommons.org/ns#"
     xmlns:rdf="http://www.w3.org/1999/02/22-rdf-syntax-ns#"
     xmlns:svg="http://www.w3.org/2000/svg"
     xmlns="http://www.w3.org/2000/svg"
     xmlns:xlink="http://www.w3.org/1999/xlink"
     width="128" height="128" version="1.1">
    <title>Sonic Visualiser</title>
    <desc>This is shape (source) for Clarity vector icon theme for gtk</desc>
    <metadata>
        <rdf:RDF>
            <cc:Work rdf:about="">
                <dc:title>Sonic Visualiser</dc:title>
                <dc:description>This is shape (source) for Clarity vector icon theme for gtk</dc:description>
                <dc:creator>
                    <cc:Agent>
                        <dc:title>Jakub Jankiewicz</dc:title>
                    </cc:Agent>
                </dc:creator>
                <dc:rights>
                    <cc:Agent>
                        <dc:title>Jakub Jankiewicz</dc:title>
                    </cc:Agent>
                </dc:rights>
                <dc:date>2010</dc:date>
                <dc:format>image/svg+xml</dc:format>
                <dc:type rdf:resource="http://purl.org/dc/dcmitype/StillImage" />
                <cc:license rdf:resource="http://www.gnu.org/copyleft/gpl.html" />
             </cc:Work>
        </rdf:RDF>
    </metadata>
    <path d="m 7.53125,3.875 -3.21875,3.21875 0,113.4375 3.21875,3.21875 113.875,0 3.21875,-3.21875 0,-113.4375 -3.21875,-3.21875 z m 3.21875,6.4375 107.4375,0 0,50.75 c -1.82321,0 -0.0285,-0.0033 -0.0937,0 -1.76387,0.088 -6.18445,0.141396 -13.25,0.15625 -0.38473,-1.158217 -0.78032,-3.222443 -1.125,-5.53125 -0.68937,-4.617614 -1.15889,-10.132745 -1.84375,-13.59375 -0.17122,-0.865251 -0.31906,-1.567641 -0.6875,-2.40625 -0.18422,-0.419305 -0.36397,-0.929178 -1.09375,-1.5625 C 99.363972,37.491678 97.435606,37.058104 96.3125,37.59375 95.189394,38.129396 94.863979,38.784072 94.59375,39.25 94.323521,39.715928 94.161243,40.133207 94,40.59375 93.677515,41.514835 93.399435,42.607285 93.09375,44.0625 91.94723,49.520513 90.42742,60.670403 88.28125,79.25 86.76098,68.603153 84.849426,53.302006 81.71875,25.78125 l -0.03125,0 C 81.600897,24.500211 81.506048,23.495978 81.3125,22.625 81.210888,22.167741 81.152567,21.74688 80.75,21.0625 80.548717,20.72031 80.264836,20.276362 79.5625,19.84375 78.860164,19.411138 77.627685,19.232647 76.78125,19.5 c -1.692871,0.534707 -1.874665,1.353443 -2.125,1.8125 -0.250335,0.459057 -0.393679,0.835162 -0.53125,1.25 -0.275142,0.829676 -0.502499,1.798543 -0.75,2.96875 C 72.384996,30.212078 71.251954,38.217965 70.0625,47.5 68.223834,61.848235 66.667952,75.600343 65.3125,86.75 64.244762,74.67642 63.252044,61.813838 60.78125,33.71875 L 60.75,33.6875 l 0,-0.03125 C 60.343889,30.065766 59.976358,25.672916 59.53125,22.125 59.308696,20.351042 59.088436,18.8089 58.75,17.5 58.580782,16.84555 58.426386,16.271509 58,15.53125 57.786807,15.16112 57.518185,14.715603 56.875,14.25 56.231815,13.784397 55.007961,13.415864 54,13.65625 c -2.015922,0.480772 -2.330184,1.599979 -2.6875,2.3125 -0.357316,0.712521 -0.6149,1.460298 -0.875,2.375 -0.5202,1.829405 -1.044956,4.378208 -1.65625,8 -1.214147,7.19357 -2.713951,18.666322 -4.65625,35.9375 -0.0135,0.120077 -0.0177,0.129351 -0.03125,0.25 -0.922846,4.897692 -1.760474,9.922044 -2.5625,14.375 C 41.090834,72.438737 40.642208,66.915577 40.1875,59.4375 l 0,-0.03125 C 39.654211,51.742571 39.232478,46.218151 38.75,42.5625 c -0.241239,-1.827825 -0.458471,-3.109434 -0.90625,-4.34375 -0.22389,-0.617158 -0.389813,-1.322382 -1.4375,-2.15625 -0.523843,-0.416934 -1.407956,-0.807517 -2.3125,-0.78125 -0.904544,0.02627 -1.642288,0.411244 -2.09375,0.75 -1.805847,1.355025 -1.747019,2.285732 -2.25,3.65625 -0.502981,1.370518 -0.99556,3.10077 -1.59375,5.28125 -1.037054,3.780194 -2.435764,9.474822 -4.03125,15.875 C 23.552522,60.83595 19.285314,60.8221 10.75,60.8125 z m 43.5625,23.40625 c 0.02047,0.187196 0.04175,0.378138 0.0625,0.5625 0.0043,0.04913 -0.0043,0.04468 0,0.09375 3.179686,36.16905 4.697524,58.275456 5.875,68.59375 0.294768,2.58307 0.561125,4.39913 0.90625,5.78125 0.172563,0.69106 0.146682,1.20824 0.96875,2.25 0.411034,0.52088 1.488277,1.43476 2.9375,1.34375 1.449223,-0.091 2.207925,-0.93827 2.5625,-1.40625 0.70915,-0.93597 0.745267,-1.44973 0.9375,-2.125 0.192233,-0.67527 0.386579,-1.43067 0.5625,-2.34375 0.351842,-1.82617 0.695522,-4.24699 1.125,-7.28125 1.293288,-9.136926 3.822256,-32.417559 6.1875,-50.875 0.297823,-2.324095 0.521406,-3.27314 0.8125,-5.40625 3.233541,27.928051 5.401383,45.401586 6.875,51.34375 0.223467,0.901102 0.455543,1.617816 0.75,2.3125 0.294457,0.694684 0.340764,1.659799 2.25,2.4375 0.954618,0.38885 2.400526,0.199607 3.15625,-0.28125 0.755724,-0.480857 1.057752,-0.965229 1.28125,-1.34375 0.446996,-0.757042 0.600677,-1.326716 0.78125,-2 0.72229,-2.693135 1.216056,-6.877435 1.9375,-12.21875 l 0,-0.03125 0,-0.03125 c 1.287329,-11.317276 2.30633,-19.495869 3.1875,-25.8125 0.339427,2.180849 0.712364,4.25613 1.28125,5.96875 0.315564,0.949997 0.652334,1.83343 1.375,2.75 0.61119,0.775183 2.05836,1.5 3.53125,1.5 4.75982,0 9.90926,-0.03125 14.53125,-0.03125 l 0,49.875 -107.4375,0 0,-50.125 c 10.087176,0.01113 15.78125,0.0625 15.78125,0.0625 l 2.5625,0.0625 0.625,-2.5 c 1.429249,-5.714872 2.393397,-9.413678 3.375,-13.21875 0.226975,2.733057 0.422866,4.385779 0.6875,8.1875 7.69e-4,0.01264 -7.69e-4,0.01861 0,0.03125 0.815333,13.400376 1.593012,21.678787 2.4375,26.5 0.422642,2.41288 0.534046,3.788782 1.71875,5.46875 0.296176,0.419992 0.708854,0.922531 1.5,1.3125 0.791146,0.389969 2.008891,0.464361 2.84375,0.15625 1.669719,-0.616222 1.986238,-1.539996 2.34375,-2.21875 1.430046,-2.715016 1.990303,-6.354879 2.90625,-11.3125 0.915947,-4.957621 1.877928,-10.847759 2.90625,-16.28125 l 0,-0.09375 0.03125,-0.125 C 52.079971,48.899304 53.23843,40.811187 54.3125,33.71875 z m 36.375,60.0625 c 0.163281,0.217674 0.127176,0.360108 0.09375,0.28125 -0.01283,-0.03028 -0.0728,-0.222535 -0.09375,-0.28125 z" style="fill:#aaaaaa"/>
</svg>