<?xml version="1.0" encoding="UTF-8" standalone="no"?>
<svg xmlns:dc="http://purl.org/dc/elements/1.1/"
     xmlns:cc="http://creativecommons.org/ns#"
     xmlns:rdf="http://www.w3.org/1999/02/22-rdf-syntax-ns#"
     xmlns:svg="http://www.w3.org/2000/svg"
     xmlns="http://www.w3.org/2000/svg"
     xmlns:xlink="http://www.w3.org/1999/xlink"
     width="128" height="128" version="1.1">
    <title>System upgrade</title>
    <desc>This is shape (source) for Clarity vector icon theme for gtk</desc>
    <metadata>
        <rdf:RDF>
            <cc:Work rdf:about="">
                <dc:title>System upgrade</dc:title>
                <dc:description>This is shape (source) for Clarity vector icon theme for gtk</dc:description>
                <dc:creator>
                    <cc:Agent>
                        <dc:title>Jakub Jankiewicz</dc:title>
                    </cc:Agent>
                </dc:creator>
                <dc:rights>
                    <cc:Agent>
                        <dc:title>Jakub Jankiewicz</dc:title>
                    </cc:Agent>
                </dc:rights>
                <dc:date>2010</dc:date>
                <dc:format>image/svg+xml</dc:format>
                <dc:type rdf:resource="http://purl.org/dc/dcmitype/StillImage" />
                <cc:license rdf:resource="http://www.gnu.org/copyleft/gpl.html" />
             </cc:Work>
        </rdf:RDF>
    </metadata>
    <path d="m 60.90625,7.984349 c -28.67767,0 -51.9375,23.259829 -51.9375,51.9375 0,16.676862 7.86714,31.512852 20.09375,41.000001 l -10.96875,10.65625 36,0.3125 0.75,-35.999999 -11.375,11.03125 C 34.61486,81.195821 28.75,71.254621 28.75,59.921849 c 0,-17.763035 14.39321,-32.15625 32.15625,-32.15625 0.77958,0 1.54683,0.03923 2.3125,0.09375 l 0,-19.8125 c -0.76301,-0.03329 -1.5413,-0.0625 -2.3125,-0.0625 z m 13,8.125 -0.75,36 11.375,-11.03125 C 93.38514,46.804126 99.25,56.745325 99.25,68.078101 c 0,17.76303 -14.39321,32.156249 -32.15625,32.156249 -0.779582,0 -1.546832,-0.0392 -2.3125,-0.0937 l 0,19.8125 c 0.763014,0.0333 1.541303,0.0625 2.3125,0.0625 28.67767,0 51.9375,-23.259829 51.9375,-51.937499 0,-16.676868 -7.86714,-31.512859 -20.09375,-41.000002 l 10.96875,-10.65625 -36,-0.3125 z" style="fill:#aaaaaa"/>
</svg>