<?xml version="1.0" encoding="UTF-8" standalone="no"?>
<svg xmlns:dc="http://purl.org/dc/elements/1.1/"
     xmlns:cc="http://creativecommons.org/ns#"
     xmlns:rdf="http://www.w3.org/1999/02/22-rdf-syntax-ns#"
     xmlns:svg="http://www.w3.org/2000/svg"
     xmlns="http://www.w3.org/2000/svg"
     xmlns:xlink="http://www.w3.org/1999/xlink"
     width="128" height="128" version="1.1">
    <title>Taskbar Icon</title>
    <desc>This is shape (source) for Clarity vector icon theme for gtk</desc>
    <metadata>
        <rdf:RDF>
            <cc:Work rdf:about="">
                <dc:title>Taskbar Icon</dc:title>
                <dc:description>This is shape (source) for Clarity vector icon theme for gtk</dc:description>
                <dc:creator>
                    <cc:Agent>
                        <dc:title>Jakub Jankiewicz</dc:title>
                    </cc:Agent>
                </dc:creator>
                <dc:rights>
                    <cc:Agent>
                        <dc:title>Jakub Jankiewicz</dc:title>
                    </cc:Agent>
                </dc:rights>
                <dc:date>2010</dc:date>
                <dc:format>image/svg+xml</dc:format>
                <dc:type rdf:resource="http://purl.org/dc/dcmitype/StillImage" />
                <cc:license rdf:resource="http://www.gnu.org/copyleft/gpl.html" />
             </cc:Work>
        </rdf:RDF>
    </metadata>
    <path d="m 8.484375,34.8125 0,7.25 15.625,0 c 0.449685,0 0.908975,0.12386 1.3125,0.25 0.678602,0.230844 1.242219,0.613101 1.6875,1.0625 0.02404,-7.53e-4 0.03846,-7.53e-4 0.0625,0 0.233191,0.246898 0.400513,0.542884 0.5625,0.8125 7.51e-4,0.02403 7.51e-4,0.03847 0,0.0625 0.353128,0.621207 0.5625,1.260156 0.5625,2.0625 l 0,35.375 c 0,0.802342 -0.209373,1.503793 -0.5625,2.125 -0.161978,0.2696 -0.329276,0.565579 -0.5625,0.8125 -0.02404,7.53e-4 -0.03846,7.53e-4 -0.0625,0 -0.445275,0.449392 -1.008874,0.831663 -1.6875,1.0625 -0.403525,0.126142 -0.862815,0.25 -1.3125,0.25 l -15.625,0 0,7.25 111.031255,0 0,-7.25 -84.718755,0 c -0.449685,0 -0.908978,-0.12386 -1.3125,-0.25 -0.678601,-0.230844 -1.179718,-0.613101 -1.625,-1.0625 -0.02403,7.53e-4 -0.03847,7.53e-4 -0.0625,0 -0.233201,-0.246907 -0.463029,-0.542914 -0.625,-0.8125 -0.353146,-0.621225 -0.5625,-1.32267 -0.5625,-2.125 l 0,-35.375 c 0,-0.802344 0.209372,-1.441293 0.5625,-2.0625 -7.53e-4,-0.02403 -7.53e-4,-0.03847 0,-0.0625 0.161994,-0.269628 0.391825,-0.565614 0.625,-0.8125 0.02403,-7.53e-4 0.03847,-7.53e-4 0.0625,0 0.445275,-0.449392 0.946374,-0.831663 1.625,-1.0625 0.17953,-0.05612 0.466116,-0.143337 0.8125,-0.1875 0.300187,-0.03828 0.463547,-0.0625 0.5,-0.0625 l 84.718755,0 0,-7.25 -111.031255,0 z m 0,9.5625 0,39.25 15.625,0 c 0.18014,0 0.395752,-0.01037 0.5625,-0.0625 0.200636,-0.06825 0.540518,-0.3037 0.75,-0.5 0.06756,-0.07153 0.247088,-0.266127 0.3125,-0.375 0.156779,-0.275799 0.25,-0.689958 0.25,-1 l 0,-35.375 c 0,-0.289567 -0.107843,-0.661911 -0.25,-0.9375 -0.01004,-0.01949 0.01034,-0.04426 0,-0.0625 -0.0572,-0.0877 -0.185627,-0.234677 -0.25,-0.3125 -0.02175,-0.02195 -0.03767,-0.04011 -0.0625,-0.0625 -0.209644,-0.188363 -0.558176,-0.372236 -0.75,-0.4375 -0.166747,-0.05213 -0.38236,-0.125 -0.5625,-0.125 l -15.625,0 z m 26.125,0 c -0.0085,0.0011 -0.221871,0.07714 -0.375,0.125 -0.191803,0.06524 -0.540356,0.249142 -0.75,0.4375 -0.013,0.01376 -0.04472,0.0408 -0.0625,0.0625 -0.06436,0.07782 -0.130316,0.224796 -0.1875,0.3125 -0.01039,0.01821 0.01016,0.04311 0,0.0625 -0.142163,0.275589 -0.3125,0.647933 -0.3125,0.9375 l 0,35.375 c 0,0.310054 0.155728,0.724224 0.3125,1 0.06543,0.108885 0.182427,0.303457 0.25,0.375 0.209478,0.196286 0.549337,0.431735 0.75,0.5 0.166752,0.05206 0.38236,0.0625 0.5625,0.0625 l 84.718755,0 0,-39.25 -84.718755,0 c -0.225896,0 -0.234226,0.006 -0.1875,0 z m 6.28125,6.84375 a 1.1542588,1.1542588 0 0 1 0.09375,0.03125 l 25.4375,0 a 1.1542588,1.1542588 0 0 1 1.125,1.125 l 0,23.125 a 1.1542588,1.1542588 0 0 1 -1.125,1.125 l -25.4375,0 a 1.1542588,1.1542588 0 0 1 -1.125,-1.125 l 0,-23.125 a 1.1542588,1.1542588 0 0 1 0.9375,-1.125 1.1542588,1.1542588 0 0 1 0.09375,-0.03125 z m 15.6875,2.34375 0,2.3125 6.9375,0 0,-2.3125 -6.9375,0 z m -14.40625,4.5625 0,16.1875 23.0625,0 0,-16.1875 -23.0625,0 z" style="fill:#aaaaaa"/>
</svg>