<?xml version="1.0" encoding="UTF-8" standalone="no"?>
<svg xmlns:dc="http://purl.org/dc/elements/1.1/"
     xmlns:cc="http://creativecommons.org/ns#"
     xmlns:rdf="http://www.w3.org/1999/02/22-rdf-syntax-ns#"
     xmlns:svg="http://www.w3.org/2000/svg"
     xmlns="http://www.w3.org/2000/svg"
     xmlns:xlink="http://www.w3.org/1999/xlink"
     width="128" height="128" version="1.1">
    <title>Telegram App Icon</title>
    <desc>This is shape (source) for Clarity vector icon theme for gtk</desc>
    <metadata>
        <rdf:RDF>
            <cc:Work rdf:about="">
                <dc:title>Telegram App Icon</dc:title>
                <dc:description>This is shape (source) for Clarity vector icon theme for gtk. Teleport icon based on https://www.iconfinder.com/icons/386727/telegram_icon</dc:description>
                <dc:creator>
                    <cc:Agent>
                        <dc:title>Jakub Jankiewicz</dc:title>
                    </cc:Agent>
                    <cc:Agent>
                        <dc:title>Aha-Soft</dc:title>
                    </cc:Agent>
                </dc:creator>
                <dc:rights>
                    <cc:Agent>
                        <dc:title>Jakub Jankiewicz</dc:title>
                    </cc:Agent>
                </dc:rights>
                <dc:date>2010</dc:date>
                <dc:format>image/svg+xml</dc:format>
                <dc:type rdf:resource="http://purl.org/dc/dcmitype/StillImage" />
                <cc:license rdf:resource="http://creativecommons.org/licenses/by-sa/3.0/" />
             </cc:Work>
        </rdf:RDF>
    </metadata>
    <path d="M 64.000002,10.847658 C 34.644818,10.847767 10.847767,34.644818 10.847658,64.000002 10.84777,93.355184 34.64482,117.15223 64.000002,117.15234 93.355183,117.15223 117.15223,93.355183 117.15234,64.000002 117.15223,34.64482 93.355184,10.84777 64.000002,10.847658 Z m 27.533203,23.873047 c 2.159355,-0.07872 3.794128,1.876009 2.917969,5.388672 L 83.919924,89.74219 c -0.735207,3.5272 -2.86777,4.371077 -5.820313,2.742187 L 62.05469,80.628908 c -3.768605,3.664093 -7.144432,6.945669 -7.712891,7.501953 -0.893917,0.873247 -1.605929,1.605469 -3.210938,1.605469 -2.07976,0 -1.725837,-0.787042 -2.443359,-2.767578 L 42.785158,68.875002 27.359377,64.058596 c -3.426838,-1.049871 -3.45177,-3.403991 0.769531,-5.097656 l 61.84961,-23.855469 c 0.529657,-0.240389 1.056374,-0.3666 1.554687,-0.384766 z m -9.810547,10.556641 c -0.465094,-0.0065 -1.097161,0.159953 -1.748047,0.554687 L 45.207033,67.76758 51.064455,85.730471 52.224611,73.36719 81.996096,46.505861 c 0.816659,-0.724929 0.50172,-1.21776 -0.273438,-1.228515 z" style="fill:#aaaaaa"/>
</svg>