<?xml version="1.0" encoding="UTF-8" standalone="no"?>
<svg xmlns:dc="http://purl.org/dc/elements/1.1/"
     xmlns:cc="http://creativecommons.org/ns#"
     xmlns:rdf="http://www.w3.org/1999/02/22-rdf-syntax-ns#"
     xmlns:svg="http://www.w3.org/2000/svg"
     xmlns="http://www.w3.org/2000/svg"
     xmlns:xlink="http://www.w3.org/1999/xlink"
     width="128" height="128" version="1.1">
    <title>Clarity Icon</title>
    <desc>This is shape (source) for Clarity vector icon theme for gtk</desc>
    <metadata>
        <rdf:RDF>
            <cc:Work rdf:about="">
                <dc:title>Clarity Icon</dc:title>
                <dc:description>This is shape (source) for Clarity vector icon theme for gtk</dc:description>
                <dc:creator>
                    <cc:Agent>
                        <dc:title>Jakub Jankiewicz</dc:title>
                    </cc:Agent>
                </dc:creator>
                <dc:rights>
                    <cc:Agent>
                        <dc:title>Jakub Jankiewicz</dc:title>
                    </cc:Agent>
                </dc:rights>
                <dc:date>2010</dc:date>
                <dc:format>image/svg+xml</dc:format>
                <dc:type rdf:resource="http://purl.org/dc/dcmitype/StillImage" />
                <cc:license rdf:resource="http://www.gnu.org/copyleft/gpl.html" />
             </cc:Work>
        </rdf:RDF>
    </metadata>
    <path d="m 20.246206,21.347423 c -3.964641,0 -7.166023,3.173825 -7.166023,7.138461 l 0,71.026304 c 0,3.964642 3.201382,7.138462 7.166023,7.138462 l 87.535724,0 c 3.96464,0 7.13846,-3.17382 7.13846,-7.138462 l 0,-71.026304 c 0,-3.964636 -3.17382,-7.138461 -7.13846,-7.138461 l -87.535724,0 z m 1.102465,10.445856 85.330789,0 0,64.411514 -85.330789,0 0,-64.411514 z m 11.54832,9.343391 0,7.772378 19.430945,7.579447 -19.430945,7.63457 0,7.827501 27.864802,-12.127115 0,-6.642351 -27.864802,-12.04443 z m 29.959486,41.590492 0,5.043777 32.329786,0 0,-5.043777 -32.329786,0 z" style="fill:#aaaaaa"/>
</svg>