<?xml version="1.0" encoding="UTF-8" standalone="no"?>
<svg xmlns:dc="http://purl.org/dc/elements/1.1/"
     xmlns:cc="http://creativecommons.org/ns#"
     xmlns:rdf="http://www.w3.org/1999/02/22-rdf-syntax-ns#"
     xmlns:svg="http://www.w3.org/2000/svg"
     xmlns="http://www.w3.org/2000/svg"
     xmlns:xlink="http://www.w3.org/1999/xlink"
     width="128" height="128" version="1.1">
    <title>Clarity Icon</title>
    <desc>This is shape (source) for Clarity vector icon theme for gtk</desc>
    <metadata>
        <rdf:RDF>
            <cc:Work rdf:about="">
                <dc:title>Clarity Icon</dc:title>
                <dc:description>This is shape (source) for Clarity vector icon theme for gtk</dc:description>
                <dc:creator>
                    <cc:Agent>
                        <dc:title>Jakub Jankiewicz</dc:title>
                    </cc:Agent>
                </dc:creator>
                <dc:rights>
                    <cc:Agent>
                        <dc:title>Jakub Jankiewicz</dc:title>
                    </cc:Agent>
                </dc:rights>
                <dc:date>2010</dc:date>
                <dc:format>image/svg+xml</dc:format>
                <dc:type rdf:resource="http://purl.org/dc/dcmitype/StillImage" />
                <cc:license rdf:resource="http://www.gnu.org/copyleft/gpl.html" />
             </cc:Work>
        </rdf:RDF>
    </metadata>
    <path d="m 11.989071,20.613414 0,86.773176 4.89982,0 0,-3.74109 c 0,-0.95498 0.766576,-1.72155 1.721558,-1.72155 l 7.482159,0 c 0.954984,0 1.721558,0.76657 1.721558,1.72155 l 0,3.74109 4.866715,0 0,-5.7606 c 0,-4.138278 3.34388,-7.449054 7.482158,-7.449054 l 47.673931,0 c 4.138278,0 7.482158,3.310776 7.482158,7.449054 l 0,5.7606 4.899812,0 0,-3.74109 c 0,-0.95498 0.76658,-1.72155 1.72156,-1.72155 l 7.44905,0 c 0.95499,0 1.72156,0.76657 1.72156,1.72155 l 0,3.74109 4.89982,0 0,-86.773176 -4.89982,0 0,3.741078 c 0,0.954986 -0.76657,1.721559 -1.72156,1.721559 l -7.44905,0 c -0.95498,0 -1.72156,-0.766573 -1.72156,-1.721559 l 0,-3.741078 -4.899812,0 0,5.760599 c 0,4.138276 -3.34388,7.449052 -7.482158,7.449052 l -47.673931,0 c -4.138278,0 -7.482158,-3.310776 -7.482158,-7.449052 l 0,-5.760599 -4.866715,0 0,3.741078 c 0,0.954986 -0.766574,1.721559 -1.721558,1.721559 l -7.482159,0 c -0.954982,0 -1.721558,-0.766573 -1.721558,-1.721559 l 0,-3.741078 -4.89982,0 z m 6.621378,9.965175 7.482159,0 c 0.954984,0 1.721558,0.766571 1.721558,1.721558 l 0,6.323418 c 0,0.954987 -0.766574,1.721559 -1.721558,1.721559 l -7.482159,0 c -0.954982,0 -1.721558,-0.766572 -1.721558,-1.721559 l 0,-6.323418 c 0,-0.954987 0.766576,-1.721558 1.721558,-1.721558 z m 83.330051,0 7.44905,0 c 0.95499,0 1.72156,0.766571 1.72156,1.721558 l 0,6.323418 c 0,0.954987 -0.76657,1.721559 -1.72156,1.721559 l -7.44905,0 c -0.95498,0 -1.72156,-0.766572 -1.72156,-1.721559 l 0,-6.323418 c 0,-0.954987 0.76658,-1.721558 1.72156,-1.721558 z m -61.777461,11.587413 47.673931,0 c 4.138278,0 7.482158,3.310775 7.482158,7.449053 l 0,28.736785 c 0,4.138278 -3.34388,7.482158 -7.482158,7.482158 l -47.673931,0 c -4.138278,0 -7.482158,-3.34388 -7.482158,-7.482158 l 0,-28.736785 c 0,-4.138278 3.34388,-7.449053 7.482158,-7.449053 z m -21.55259,2.68166 7.482159,0 c 0.954984,0 1.721558,0.76657 1.721558,1.721557 l 0,6.323418 c 0,0.954987 -0.766574,1.721559 -1.721558,1.721559 l -7.482159,0 c -0.954982,0 -1.721558,-0.766572 -1.721558,-1.721559 l 0,-6.323418 c 0,-0.954987 0.766576,-1.721557 1.721558,-1.721557 z m 83.330051,0 7.44905,0 c 0.95499,0 1.72156,0.76657 1.72156,1.721557 l 0,6.323418 c 0,0.954987 -0.76657,1.721559 -1.72156,1.721559 l -7.44905,0 c -0.95498,0 -1.72156,-0.766572 -1.72156,-1.721559 l 0,-6.323418 c 0,-0.954987 0.76658,-1.721557 1.72156,-1.721557 z m -83.330051,14.269072 7.482159,0 c 0.954984,0 1.721558,0.766571 1.721558,1.721558 l 0,6.323417 c 0,0.954988 -0.766574,1.72156 -1.721558,1.72156 l -7.482159,0 c -0.954982,0 -1.721558,-0.766572 -1.721558,-1.72156 l 0,-6.323417 c 0,-0.954987 0.766576,-1.721558 1.721558,-1.721558 z m 83.330051,0 7.44905,0 c 0.95499,0 1.72156,0.766571 1.72156,1.721558 l 0,6.323417 c 0,0.954988 -0.76657,1.72156 -1.72156,1.72156 l -7.44905,0 c -0.95498,0 -1.72156,-0.766572 -1.72156,-1.72156 l 0,-6.323417 c 0,-0.954987 0.76658,-1.721558 1.72156,-1.721558 z m -83.330051,14.269073 7.482159,0 c 0.954984,0 1.721558,0.766569 1.721558,1.721557 l 0,6.323417 c 0,0.954988 -0.766574,1.72156 -1.721558,1.72156 l -7.482159,0 c -0.954982,0 -1.721558,-0.766572 -1.721558,-1.72156 l 0,-6.323417 c 0,-0.954988 0.766576,-1.721557 1.721558,-1.721557 z m 83.330051,0 7.44905,0 c 0.95499,0 1.72156,0.766569 1.72156,1.721557 l 0,6.323417 c 0,0.954988 -0.76657,1.72156 -1.72156,1.72156 l -7.44905,0 c -0.95498,0 -1.72156,-0.766572 -1.72156,-1.72156 l 0,-6.323417 c 0,-0.954988 0.76658,-1.721557 1.72156,-1.721557 z m -83.330051,14.269072 7.482159,0 c 0.954984,0 1.721558,0.76657 1.721558,1.721558 l 0,6.323417 c 0,0.954991 -0.766574,1.721558 -1.721558,1.721558 l -7.482159,0 c -0.954982,0 -1.721558,-0.766567 -1.721558,-1.721558 l 0,-6.323417 c 0,-0.954988 0.766576,-1.721558 1.721558,-1.721558 z m 83.330051,0 7.44905,0 c 0.95499,0 1.72156,0.76657 1.72156,1.721558 l 0,6.323417 c 0,0.954991 -0.76657,1.721558 -1.72156,1.721558 l -7.44905,0 c -0.95498,0 -1.72156,-0.766567 -1.72156,-1.721558 l 0,-6.323417 c 0,-0.954988 0.76658,-1.721558 1.72156,-1.721558 z" style="fill:#aaaaaa"/>
</svg>