<?xml version="1.0" encoding="UTF-8" standalone="no"?>
<svg xmlns:dc="http://purl.org/dc/elements/1.1/"
     xmlns:cc="http://creativecommons.org/ns#"
     xmlns:rdf="http://www.w3.org/1999/02/22-rdf-syntax-ns#"
     xmlns:svg="http://www.w3.org/2000/svg"
     xmlns="http://www.w3.org/2000/svg"
     xmlns:xlink="http://www.w3.org/1999/xlink"
     width="128" height="128" version="1.1">
    <title>Ufraw icon</title>
    <desc>This is shape (source) for Clarity vector icon theme for gtk</desc>
    <metadata>
        <rdf:RDF>
            <cc:Work rdf:about="">
                <dc:title>Ufraw icon</dc:title>
                <dc:description>This is shape (source) for Clarity vector icon theme for gtk</dc:description>
                <dc:creator>
                    <cc:Agent>
                        <dc:title>Jakub Jankiewicz</dc:title>
                    </cc:Agent>
                </dc:creator>
                <dc:rights>
                    <cc:Agent>
                        <dc:title>Jakub Jankiewicz</dc:title>
                    </cc:Agent>
                </dc:rights>
                <dc:date>2010</dc:date>
                <dc:format>image/svg+xml</dc:format>
                <dc:type rdf:resource="http://purl.org/dc/dcmitype/StillImage" />
                <cc:license rdf:resource="http://www.gnu.org/copyleft/gpl.html" />
             </cc:Work>
        </rdf:RDF>
    </metadata>
    <path d="m 70.364401,43.024587 c -5.053072,-1.353965 -9.636736,-1.121631 -11.193566,0.456086 l -5.526729,-1.480882 c -3.07824,-0.824813 -6.182799,0.967605 -7.007611,4.045845 l -1.110663,4.145047 C 23.703489,46.192047 7.4253119,46.320238 6.1010746,51.262355 4.7023027,56.482642 20.385221,65.380086 43.256253,73.135631 c 0.605736,3.715689 7.321589,8.167417 16.213085,10.549886 8.891493,2.382469 16.933457,1.885086 19.315885,-1.029927 23.684667,4.719017 41.715197,4.855064 43.113967,-0.365223 1.32423,-4.942117 -12.70898,-13.192223 -33.607006,-20.640475 l 1.110661,-4.145047 c 0.824812,-3.07824 -0.967607,-6.182799 -4.045846,-7.007612 l -5.52673,-1.48088 c -0.559395,-2.144759 -4.412798,-4.637798 -9.465868,-5.991766 z m -17.065968,1.844345 4.737193,1.269327 c 0.583201,0.156269 0.926906,0.751582 0.770638,1.334784 l -0.987255,3.684487 c -0.156268,0.583201 -0.751581,0.926905 -1.334783,0.770635 L 51.747031,50.658838 C 51.163829,50.50257 50.820125,49.907256 50.976392,49.324056 l 0.987256,-3.684486 c 0.15627,-0.583204 0.751582,-0.926908 1.334785,-0.770638 z m 8.816446,2.362361 4.737194,1.269327 c 0.583203,0.156268 0.926907,0.751581 0.770637,1.334783 l -0.987254,3.684486 c -0.156268,0.583201 -0.751579,0.926904 -1.334783,0.770636 l -4.737195,-1.269327 c -0.5832,-0.156268 -0.926906,-0.751583 -0.770639,-1.334783 l 0.987256,-3.684485 c 0.156269,-0.583203 0.751583,-0.926907 1.334784,-0.770637 z m 8.816447,2.362358 4.737196,1.269328 c 0.583201,0.156269 0.926905,0.751582 0.770636,1.334784 l -0.987254,3.684485 c -0.15627,0.583202 -0.751581,0.926906 -1.334783,0.770638 l -4.737195,-1.269329 c -0.583201,-0.156268 -0.926905,-0.751581 -0.770638,-1.334781 l 0.987256,-3.684485 c 0.156268,-0.583204 0.751581,-0.926908 1.334782,-0.77064 z m 8.816447,2.362361 4.737196,1.269328 c 0.583201,0.156267 0.926904,0.75158 0.770636,1.334782 l -0.987254,3.684487 c -0.156268,0.583201 -0.751581,0.926905 -1.334783,0.770636 l -4.737195,-1.269328 c -0.583201,-0.156268 -0.926905,-0.751581 -0.770638,-1.334782 l 0.987256,-3.684485 c 0.156269,-0.583202 0.751581,-0.926906 1.334782,-0.770638 z" style="fill:#aaaaaa"/>
</svg>