<?xml version="1.0" encoding="UTF-8" standalone="no"?>
<svg xmlns:dc="http://purl.org/dc/elements/1.1/"
     xmlns:cc="http://creativecommons.org/ns#"
     xmlns:rdf="http://www.w3.org/1999/02/22-rdf-syntax-ns#"
     xmlns:svg="http://www.w3.org/2000/svg"
     xmlns="http://www.w3.org/2000/svg"
     xmlns:xlink="http://www.w3.org/1999/xlink"
     width="128" height="128" version="1.1">
    <title>Vim Logo</title>
    <desc>This is shape (source) for Clarity vector icon theme for gtk</desc>
    <metadata>
        <rdf:RDF>
            <cc:Work rdf:about="">
                <dc:title>Vim Logo</dc:title>
                <dc:description>This is shape (source) for Clarity vector icon theme for gtk</dc:description>
                <dc:creator>
                    <cc:Agent>
                        <dc:title>Jakub Jankiewicz</dc:title>
                    </cc:Agent>
                </dc:creator>
                <dc:rights>
                    <cc:Agent>
                        <dc:title>Jakub Jankiewicz</dc:title>
                    </cc:Agent>
                </dc:rights>
                <dc:date>2010</dc:date>
                <dc:format>image/svg+xml</dc:format>
                <dc:type rdf:resource="http://purl.org/dc/dcmitype/StillImage" />
                <cc:license rdf:resource="http://www.gnu.org/copyleft/gpl.html" />
             </cc:Work>
        </rdf:RDF>
    </metadata>
    <path d="m 64.115014,13.125011 -6.489067,5.902879 -0.427916,-0.39275 -0.844108,-0.762026 -1.189957,0 -34.555599,0 -1.25443,0 -0.855833,0.838234 -1.740981,1.717534 -0.762041,0.750317 0,1.025821 0,6.201829 0,1.084437 0.844108,0.767909 1.594426,1.447885 0.838252,0.767881 1.195812,0 1.48891,0 0,19.004121 -13.8808655,12.626442 13.8808655,12.626415 0,23.734621 0,1.51235 1.436159,0.75032 2.608521,1.37169 0.662379,0.35171 0.773764,0 8.997942,0 1.213405,0 0.844108,-0.79135 6.448026,-6.014261 18.939641,17.227971 16.852826,-15.328731 1.975444,0 c 0.661725,-0.001 1.181154,-0.34273 1.406843,-0.90859 l 0,-0.0112 0.01119,-0.006 0.644802,-1.72339 c 0.133823,-0.3628 0.112462,-0.71105 -0.02345,-1.00237 l 5.357733,-4.877073 -2.315442,6.752863 c -0.316147,0.93991 0.369713,1.77799 1.447886,1.77614 0.0032,-2e-5 0.0032,3e-5 0.0064,0 l 8.118664,0 0.01119,0 c 0.62539,-0.004 1.120849,-0.31479 1.365817,-0.83825 l 0.0061,0 0,-0.006 0.732711,-1.5827 0,-0.0112 0.0061,-0.006 c 0.403707,-0.92544 -0.22874,-1.79965 -1.301244,-1.85814 l 3.558155,-10.164433 4.8243,0 -4.39638,12.685043 -0.006,0.006 c -0.31614,0.93993 0.36387,1.77799 1.44203,1.77615 0.003,-1e-5 0.008,2e-5 0.0107,0 l 8.91002,0 c 0.003,2e-5 0.008,-1e-5 0.0107,0 0.64664,10e-4 1.1636,-0.31915 1.40097,-0.86756 l 0,-0.0112 0.72689,-1.7234 0.006,-0.006 0,-0.006 c 0.38233,-0.95166 -0.29301,-1.83912 -1.40684,-1.84063 l -0.21688,0 4.91221,-14.519793 0.0107,-0.02356 -0.0107,0 c 0.14603,-0.431099 0.0774,-0.862978 -0.22274,-1.225116 l -1.67064,-2.045786 -0.0107,-0.0056 -0.006,-0.01115 c -0.29494,-0.339975 -0.71137,-0.517092 -1.18411,-0.515851 l 0,-0.0056 -0.0411,0 -6.3308,0 -0.0175,0 c -0.41901,-0.0014 -0.792,0.141473 -1.08444,0.416169 l -0.0234,0.01115 -0.006,0.01115 -1.67062,1.670628 -2.20408,0 16.43664,-14.953573 -19.65478,-17.87866 17.33936,-16.178689 0.82064,-0.76204 0,-1.06099 0,-5.809107 0,-1.090305 -0.83823,-0.767895 -1.74096,-1.58271 -0.84412,-0.762026 -1.19581,0 -34.983549,0 -1.113744,0 -0.826529,0.685831 -1.746821,1.453741 -0.932045,0.779632 0,1.148921 0,0.234466 -10.094092,-9.17965 z m -42.246347,9.976859 31.278829,0 0.832384,0 0.410322,0.375173 0,3.862948 -0.152487,0.164139 -2.41507,0 -2.872318,0 0,2.614385 0,29.191999 0,6.254605 4.894642,-4.390522 31.753641,-28.506181 0.76204,-0.685832 4.988436,-4.478454 -7.010761,0 -4.10917,0 -0.269635,-0.257926 0,-4.015364 32.66808,0 0.0529,0.05283 0,3.657783 -16.477674,15.375639 -25.938677,24.203576 -0.814806,0.638953 -0.01119,0.01115 -0.0064,0.0056 c -0.156478,0.129082 -0.274197,0.2837 -0.357572,0.457207 l -28.195496,26.313848 -5.656683,5.275663 -7.010776,0 -0.504113,-0.25793 0,-16.999354 0,-35.722108 0,-16.383867 0,-2.614399 -2.878172,0 -3.089187,0 0,-4.021219 0.128889,-0.123088 z m 50.089506,43.905266 4.355358,0 1.019951,0.920298 -1.313051,4.091586 -1.230981,1.131329 -4.718799,0 -1.166509,-1.061004 1.52995,-3.892262 1.524081,-1.189947 z m -8.640371,10.961656 10.527878,0 -6.969734,18.482397 2.755064,0 -0.650655,1.9227 -10.017911,0 7.040093,-18.29484 -3.265062,0 0.580326,-2.110257 z m 31.87088,0.0644 5.146708,0 2.18061,2.174756 3.84537,0 2.11027,-2.104416 6.38942,0 1.67062,2.039931 -5.52185,16.307656 2.25096,0 -0.72689,1.72925 -8.92759,0 5.01189,-14.46704 -7.98385,0 -4.501915,12.87849 1.957852,0 -0.726868,1.58855 -8.130372,0 4.94154,-14.402555 -8.353145,0 -4.431554,12.673305 1.957849,0 -0.6448,1.72925 -8.423471,0 6.752848,-18.101391 -2.614392,0 0.72687,-1.975446 7.913502,0 2.321295,2.18061 3.628489,0 2.180605,-2.25095 z" style="fill:#aaaaaa"/>
</svg>