<?xml version="1.0" encoding="UTF-8" standalone="no"?>
<svg xmlns:dc="http://purl.org/dc/elements/1.1/"
     xmlns:cc="http://creativecommons.org/ns#"
     xmlns:rdf="http://www.w3.org/1999/02/22-rdf-syntax-ns#"
     xmlns:svg="http://www.w3.org/2000/svg"
     xmlns="http://www.w3.org/2000/svg"
     xmlns:xlink="http://www.w3.org/1999/xlink"
     width="128" height="128" version="1.1">
    <title>Visualization Icon</title>
    <desc>This is shape (source) for Clarity vector icon theme for gtk</desc>
    <metadata>
        <rdf:RDF>
            <cc:Work rdf:about="">
                <dc:title>Visualization Icon</dc:title>
                <dc:description>This is shape (source) for Clarity vector icon theme for gtk</dc:description>
                <dc:creator>
                    <cc:Agent>
                        <dc:title>Jakub Jankiewicz</dc:title>
                    </cc:Agent>
                </dc:creator>
                <dc:rights>
                    <cc:Agent>
                        <dc:title>Jakub Jankiewicz</dc:title>
                    </cc:Agent>
                </dc:rights>
                <dc:date>2010</dc:date>
                <dc:format>image/svg+xml</dc:format>
                <dc:type rdf:resource="http://purl.org/dc/dcmitype/StillImage" />
                <cc:license rdf:resource="http://www.gnu.org/copyleft/gpl.html" />
             </cc:Work>
        </rdf:RDF>
    </metadata>
    <path d="m 22.874065,25.962417 c -6.825767,0 -12.35342,4.898568 -12.35342,11.024254 l 0,54.026658 c 0,6.125688 5.527653,11.024251 12.35342,11.024251 l 82.251875,0 c 6.82576,0 12.35342,-4.898563 12.35342,-11.024251 l 0,-54.026658 c 0,-6.125686 -5.52766,-11.024254 -12.35342,-11.024254 l -82.251875,0 z m 54.573961,2.423772 a 0.75066253,0.75066253 0 0 1 0.547303,0.07818 c 11.210736,4.574831 19.342102,10.085395 24.237721,18.921059 4.8956,8.835414 6.5268,20.895855 4.84754,38.623979 a 0.75066253,0.75066253 0 0 1 -0.0782,0.234556 0.75066253,0.75066253 0 0 1 -0.15637,0.234556 0.75066253,0.75066253 0 0 1 -0.0782,0.07818 0.75066253,0.75066253 0 0 1 -0.15638,0.07818 0.75066253,0.75066253 0 0 1 -1.01642,-0.781864 c 1.66487,-17.57623 0.0671,-29.317295 -4.61299,-37.763904 C 96.301939,39.64249 88.508699,34.38525 77.448026,29.871717 a 0.75066253,0.75066253 0 0 1 -0.234556,-0.156379 0.75066253,0.75066253 0 0 1 -0.156378,-0.156378 0.75066253,0.75066253 0 0 1 -0.07818,-0.547303 0.75066253,0.75066253 0 0 1 0.234556,-0.390932 0.75066253,0.75066253 0 0 1 0.07818,-0.07818 0.75066253,0.75066253 0 0 1 0.07818,-0.07818 0.75066253,0.75066253 0 0 1 0.07818,-0.07818 z m -26.50512,2.736517 c 3.606791,-0.03731 7.759806,0.172689 12.509791,0.703676 18.520868,2.070432 29.886269,15.25311 33.385504,33.385504 C 102.84068,96.315637 89.659599,99.782884 63.452697,98.519205 45.007264,97.629778 33.064471,83.43398 30.067193,65.211886 26.750034,45.045071 25.695378,31.383797 50.942906,31.122706 z m 7.662247,2.580145 c -23.072498,0.245517 -26.505119,15.218708 -26.505119,31.509035 0,17.376349 13.976939,31.43358 31.352663,31.274477 C 94.060651,96.206102 96.699981,84.798627 94.805361,65.211886 93.132359,47.916264 80.829156,33.859222 63.452697,33.859222 61.734826,33.740766 60.143319,33.686484 58.605153,33.702844 z m -35.340157,5.863965 a 0.75066253,0.75066253 0 0 1 0.07818,0 0.75066253,0.75066253 0 0 1 0.234556,0.07818 0.75066253,0.75066253 0 0 1 0.390929,0.234556 0.75066253,0.75066253 0 0 1 0.07818,0.156379 0.75066253,0.75066253 0 0 1 0.07818,0.469118 0.75066253,0.75066253 0 0 1 0,0.07818 c -4.093674,15.261696 -4.166999,28.012924 -0.312745,37.685745 3.854258,9.672821 11.554164,16.314769 23.299487,19.390175 a 0.75066253,0.75066253 0 0 1 0.39093,0.234556 0.75066253,0.75066253 0 0 1 0.156378,0.703674 0.75066253,0.75066253 0 0 1 0,0.07818 0.75066253,0.75066253 0 0 1 -0.07818,0.156378 0.75066253,0.75066253 0 0 1 -0.07818,0.07818 0.75066253,0.75066253 0 0 1 -0.07818,0.07818 0.75066253,0.75066253 0 0 1 -0.07818,0.07818 0.75066253,0.75066253 0 0 1 -0.07818,0.07818 0.75066253,0.75066253 0 0 1 -0.547303,0 C 34.615109,95.974713 26.428334,88.913435 22.404914,78.816283 18.381497,68.718882 18.492272,55.653657 22.63947,40.192306 a 0.75066253,0.75066253 0 0 1 0.312745,-0.469118 0.75066253,0.75066253 0 0 1 0.07818,0 0.75066253,0.75066253 0 0 1 0.156378,-0.07818 0.75066253,0.75066253 0 0 1 0.07818,-0.07818 z m 32.212709,0.781861 c 2.266115,-0.123853 4.828114,0.01556 7.740434,0.390932 C 76.686988,42.475551 86.51757,51.866412 87.84679,65.446444 89.584349,83.198333 91.869239,91.654695 63.218139,90.075095 49.593926,89.323962 38.589488,79.091373 38.589488,65.446444 c 0,-11.939312 1.025414,-24.23081 16.888217,-25.097767 z m 4.769357,1.798283 c -14.418433,0.285212 -20.172036,11.262642 -20.172036,23.299484 0,12.839299 10.30561,22.933146 23.143113,23.143113 C 82.533715,88.905477 87.151053,82.392703 86.36125,65.446444 85.763511,52.621066 76.057356,42.225146 63.218139,42.225146 c -1.039393,-0.07898 -2.009846,-0.09721 -2.971077,-0.07818 z m 0.62549,5.863965 c 0.739833,0.0088 1.540463,0.06753 2.345587,0.156378 9.564783,0 15.878162,7.817321 17.279148,17.279148 2.211437,14.935377 0.341592,18.22691 -17.279148,17.279151 -9.55098,-0.513716 -17.27915,-7.714414 -17.27915,-17.279151 0,-8.967175 3.836079,-17.568199 14.933563,-17.435519 z m 0.469118,1.172792 c -9.10751,0.379657 -14.308073,7.825187 -14.308073,16.262727 0,8.999795 7.196967,15.711396 16.184542,16.184542 15.002493,0.789801 16.894566,-4.97331 16.262727,-16.184542 -0.506418,-8.985784 -7.26271,-16.262727 -16.262727,-16.262727 -0.641482,-0.03948 -1.269301,-0.02533 -1.876469,0 z m -1.720098,4.612986 c 0.911741,-0.07434 1.913749,-0.0016 2.971077,0.156378 7.036989,0.63184 11.537112,5.423074 12.11886,12.11886 0.7898,9.090411 -0.02715,13.066621 -12.11886,12.118859 -6.700518,-0.525191 -12.197046,-5.397848 -12.197046,-12.118859 0,-5.880884 2.843792,-11.754852 9.225969,-12.275231 z m 2.971077,0.860048 c -6.324208,0 -11.415185,5.090984 -11.415185,11.415183 0,6.324201 5.090977,11.415185 11.415185,11.415185 6.324209,0 11.336997,-5.090984 11.336997,-11.415185 0,-6.324199 -5.012788,-11.415183 -11.336997,-11.415183 z" style="fill:#aaaaaa"/>
</svg>