<?xml version="1.0" encoding="UTF-8" standalone="no"?>
<svg xmlns:dc="http://purl.org/dc/elements/1.1/"
     xmlns:cc="http://creativecommons.org/ns#"
     xmlns:rdf="http://www.w3.org/1999/02/22-rdf-syntax-ns#"
     xmlns:svg="http://www.w3.org/2000/svg"
     xmlns="http://www.w3.org/2000/svg"
     xmlns:xlink="http://www.w3.org/1999/xlink"
     width="128" height="128" version="1.1">
    <title>VMware Logo</title>
    <desc>This is shape (source) for Clarity vector icon theme for gtk</desc>
    <metadata>
        <rdf:RDF>
            <cc:Work rdf:about="">
                <dc:title>VMware Logo</dc:title>
                <dc:description>This is shape (source) for Clarity vector icon theme for gtk</dc:description>
                <dc:creator>
                    <cc:Agent>
                        <dc:title>Jakub Jankiewicz</dc:title>
                    </cc:Agent>
                </dc:creator>
                <dc:rights>
                    <cc:Agent>
                        <dc:title>Jakub Jankiewicz</dc:title>
                    </cc:Agent>
                </dc:rights>
                <dc:date>2010</dc:date>
                <dc:format>image/svg+xml</dc:format>
                <dc:type rdf:resource="http://purl.org/dc/dcmitype/StillImage" />
                <cc:license rdf:resource="http://creativecommons.org/licenses/by-sa/3.0/" />
             </cc:Work>
        </rdf:RDF>
    </metadata>
    <path d="m 36.6875,11.90625 c -6.568496,0 -11.9375,5.405236 -11.9375,11.96875 l 0,23.625 -2.09375,0 c -6.568496,0 -11.96875,5.400254 -11.96875,11.96875 l 0,44.65625 c 0,6.56849 5.400252,11.96875 11.96875,11.96875 l 44.65625,0 c 6.568498,0 11.96875,-5.40026 11.96875,-11.96875 l 0,-5.8125 26.09375,0 c 6.56849,0 11.9375,-5.405235 11.9375,-11.96875 l 0,-44.6875 c 0,-6.563515 -5.36901,-11.96875 -11.9375,-11.96875 l -12.0625,0 0,-5.8125 c 0,-6.563514 -5.369004,-11.96875 -11.9375,-11.96875 l -44.6875,0 z m 0,9 44.6875,0 c 1.728519,0 2.9375,1.228408 2.9375,2.96875 l 0,5.8125 -23.625,0 c -6.568496,0 -11.96875,5.400254 -11.96875,11.96875 l 0,5.84375 -14.96875,0 0,-23.625 c 0,-1.740342 1.208981,-2.96875 2.9375,-2.96875 z m 24,17.8125 23.625,0 0,29.8125 c 0,1.740342 -1.208981,2.96875 -2.9375,2.96875 l -2.09375,0 0,-12.03125 C 79.28125,52.900254 73.880996,47.5 67.3125,47.5 l -9.5625,0 0,-5.84375 c 0,-1.740342 1.197159,-2.9375 2.9375,-2.9375 z m 32.625,0 12.0625,0 c 1.74034,0 2.9375,1.197158 2.9375,2.9375 l 0,44.6875 c 0,1.74034 -1.19716,2.9375 -2.9375,2.9375 l -26.09375,0 0,-8.78125 2.09375,0 c 6.568496,0 11.9375,-5.405236 11.9375,-11.96875 l 0,-29.8125 z M 22.65625,56.5 l 2.09375,0 0,12.03125 C 24.75,75.094764 30.119004,80.5 36.6875,80.5 l 12.03125,0 0,5.84375 c 0,6.568496 5.400254,11.96875 11.96875,11.96875 l 9.5625,0 0,5.8125 c 0,1.74034 -1.208982,2.96875 -2.9375,2.96875 l -44.65625,0 c -1.728518,0 -2.96875,-1.24023 -2.96875,-2.96875 l 0,-44.65625 c 0,-1.728519 1.240231,-2.96875 2.96875,-2.96875 z m 11.09375,0 14.96875,0 0,15 -12.03125,0 C 34.958981,71.5 33.75,70.271592 33.75,68.53125 L 33.75,56.5 z m 24,0 9.5625,0 c 1.728519,0 2.9375,1.228408 2.9375,2.96875 l 0,12.03125 -12.5,0 0,-15 z m 0,24 12.5,0 0,8.78125 -9.5625,0 c -1.740341,0 -2.9375,-1.197159 -2.9375,-2.9375 l 0,-5.84375 z" style="fill:#aaaaaa"/>
</svg>