<?xml version="1.0" encoding="UTF-8" standalone="no"?>
<svg xmlns:dc="http://purl.org/dc/elements/1.1/"
     xmlns:cc="http://creativecommons.org/ns#"
     xmlns:rdf="http://www.w3.org/1999/02/22-rdf-syntax-ns#"
     xmlns:svg="http://www.w3.org/2000/svg"
     xmlns="http://www.w3.org/2000/svg"
     xmlns:xlink="http://www.w3.org/1999/xlink"
     width="128" height="128" version="1.1">
    <title>Wesnoth Iconh Icon</title>
    <desc>This is shape (source) for Clarity vector icon theme for gtk</desc>
    <metadata>
        <rdf:RDF>
            <cc:Work rdf:about="">
                <dc:title>Wesnoth Iconh Icon</dc:title>
                <dc:description>This is shape (source) for Clarity vector icon theme for gtk</dc:description>
                <dc:creator>
                    <cc:Agent>
                        <dc:title>Jakub Jankiewicz</dc:title>
                    </cc:Agent>
                </dc:creator>
                <dc:rights>
                    <cc:Agent>
                        <dc:title>Jakub Jankiewicz</dc:title>
                    </cc:Agent>
                </dc:rights>
                <dc:date>2010</dc:date>
                <dc:format>image/svg+xml</dc:format>
                <dc:type rdf:resource="http://purl.org/dc/dcmitype/StillImage" />
                <cc:license rdf:resource="http://www.gnu.org/copyleft/gpl.html" />
             </cc:Work>
        </rdf:RDF>
    </metadata>
    <path d="m 13.029872,8.981301 c -0.342513,0.071707 -0.607793,0.2259522 -0.85099,0.464176 L 8.0012967,13.5457 c -0.9727878,0.952895 -0.6012213,2.85905 0.8509898,4.33231 L 22.390757,31.571205 c 0.01447,0.423409 0.05822,1.008887 0.07736,1.469892 l -6.653191,6.498467 -0.85099,0.928351 0.618902,1.005715 7.968357,12.223306 1.237803,1.934067 c 1.478814,8.759646 3.83037,18.152367 7.581545,26.380678 0.781018,1.713191 1.60742,3.343672 2.475605,4.951213 l -10.676052,10.830775 -0.232088,0.154714 -0.07736,0.232096 -5.260663,12.378031 -1.392529,3.24923 3.171871,-1.39252 12.532757,-5.41539 0.232096,-0.15474 0.154713,-0.15472 8.58726,-8.741982 c 10.008642,13.509232 20.965291,21.120022 20.965291,21.120022 0,0 12.245663,-7.91432 22.435182,-21.816279 l 9.360884,9.438249 0.232096,0.15471 0.232096,0.15474 12.455388,5.41539 3.24924,1.39253 -1.39253,-3.24923 -5.26066,-12.378036 -0.15472,-0.232096 -0.15471,-0.154713 -11.681767,-11.836492 c 0.693847,-1.386262 1.323693,-2.794325 1.934066,-4.254947 3.770748,-9.02339 6.058161,-19.285046 7.504181,-28.546833 l 0.15471,0.30945 1.08308,2.630331 1.54726,-2.398243 7.96836,-12.223306 0.69626,-1.005715 -0.92835,-0.928351 -7.2721,-7.117367 14.23474,-14.544187 c 1.45218,-1.473264 1.90111,-3.379419 0.92832,-4.332315 l -4.17758,-4.100223 c -0.97279,-0.9528959 -2.95747,-0.5449075 -4.40968,0.928352 l -14.312093,14.544186 -7.194732,-7.040005 -0.850989,-0.850989 -1.005715,0.696264 -8.89671,5.879564 C 73.338638,22.307677 67.375889,20.404412 62.464632,17.56856 57.978663,20.158842 52.936635,21.9258 47.997807,23.138673 L 39.952089,17.723285 38.869012,17.027021 38.01802,17.87801 30.823291,24.918015 16.588555,10.373829 C 15.499397,9.2688845 14.057411,8.7661787 13.029872,8.981301 z m 26.303314,11.913854 4.5644,3.094508 c -3.237258,0.61459 -6.237746,0.988742 -9.051436,1.237803 l 4.487036,-4.332311 z m 49.357396,0 5.105939,4.87385 C 90.711627,25.497538 87.169202,25.110746 83.429919,24.453839 l 5.260663,-3.558684 z m -25.993864,9.051434 c 6.474864,3.738708 15.492584,5.667169 21.738916,6.653193 0.07199,0.01131 0.160856,-0.01105 0.232096,0 0.259893,0.04127 0.447673,0.113928 0.696265,0.154714 0.98355,0.147312 1.759605,0.28786 2.55297,0.386815 1.14689,0.143045 1.462365,0.17242 2.08879,0.232096 0.537141,0.05047 1.305418,0.138959 1.469892,0.154713 l 0.154739,0.154714 c -3e-5,0.0067 1.08e-4,0.215751 0,0.232096 -0.02107,0.323583 -0.07319,0.759762 -0.07736,1.005713 -0.01439,0.896187 -0.07057,2.196115 -0.232096,4.951212 -0.07754,1.307597 -0.172421,2.726712 -0.309453,4.332312 -0.715607,8.447619 -2.290869,20.372672 -6.111652,30.326173 -0.04952,0.129014 -0.10447,0.258513 -0.154714,0.386815 -0.323143,0.825004 -0.725665,1.604945 -1.083077,2.398243 -1.064589,2.361042 -2.198606,4.664501 -3.48132,6.730555 l -0.07736,-0.07736 c -0.51725,0.833919 -1.009758,1.691873 -1.547254,2.475608 -7.112834,10.342306 -15.627265,16.246166 -15.627265,16.246166 0,0 -7.480345,-5.60627 -14.38946,-15.472539 C 48.009685,90.462402 47.511335,89.70272 46.99213,88.89695 45.670665,86.84381 44.372135,84.689126 43.201357,82.321121 42.778082,81.465411 42.356335,80.586019 41.963553,79.69079 41.883986,79.509425 41.809636,79.332217 41.731457,79.149251 37.140226,68.404603 35.479933,54.94638 34.923543,46.192744 c -0.0075,-0.11786 0.0064,-0.19406 0,-0.30945 -0.09178,-1.486641 -0.113851,-2.78339 -0.154714,-3.945497 -0.02364,-0.66888 0.01182,-0.851136 0,-1.392528 -0.01336,-0.643981 0.01234,-0.702394 0,-1.237804 l 2.320881,-2.320881 c 0.402492,-0.02467 0.407565,-0.03598 0.928351,-0.07736 0.118888,-0.0095 0.262479,0.01054 0.386815,0 0.449566,-0.03847 0.876717,-0.02262 1.392528,-0.07736 0.285647,-0.03038 0.546891,-0.118631 0.850988,-0.154714 0.833549,-0.121972 1.676384,-0.237365 2.630332,-0.386815 5.563192,-0.860536 12.929021,-2.59686 19.418035,-6.34374 z m 40.924862,5.492751 5.57012,5.41539 -5.8022,8.819345 -1.00572,-2.320879 c 0.56737,-4.542182 1.0131,-8.555993 1.2378,-11.913856 z m -80.921372,1.701981 c 0.211497,3.303988 0.567026,7.22982 1.083078,11.372314 l -4.951213,-7.658905 3.868135,-3.713409 z m 68.079166,51.368827 10.908136,11.062864 3.79078,8.896708 -8.974076,-3.86813 -9.592972,-9.747702 c 1.359667,-1.994405 2.649483,-4.134644 3.868132,-6.34374 z M 36.23868,89.438499 c 1.285452,2.203016 2.641544,4.287637 4.022859,6.266378 l -8.664621,8.819343 -9.128798,3.9455 3.868134,-8.974073 0.07736,-0.154713 9.825064,-9.902425 z" style="fill:#aaaaaa"/>
</svg>