<?xml version="1.0" encoding="UTF-8" standalone="no"?>
<svg xmlns:dc="http://purl.org/dc/elements/1.1/"
     xmlns:cc="http://creativecommons.org/ns#"
     xmlns:rdf="http://www.w3.org/1999/02/22-rdf-syntax-ns#"
     xmlns:svg="http://www.w3.org/2000/svg"
     xmlns="http://www.w3.org/2000/svg"
     xmlns:xlink="http://www.w3.org/1999/xlink"
     width="128" height="128" version="1.1">
    <title>Wine Configuratio Icon</title>
    <desc>This is shape (source) for Clarity vector icon theme for gtk</desc>
    <metadata>
        <rdf:RDF>
            <cc:Work rdf:about="">
                <dc:title>Wine Configuratio Icon</dc:title>
                <dc:description>This is shape (source) for Clarity vector icon theme for gtk</dc:description>
                <dc:creator>
                    <cc:Agent>
                        <dc:title>Jakub Jankiewicz</dc:title>
                    </cc:Agent>
                </dc:creator>
                <dc:rights>
                    <cc:Agent>
                        <dc:title>Jakub Jankiewicz</dc:title>
                    </cc:Agent>
                </dc:rights>
                <dc:date>2010</dc:date>
                <dc:format>image/svg+xml</dc:format>
                <dc:type rdf:resource="http://purl.org/dc/dcmitype/StillImage" />
                <cc:license rdf:resource="http://www.gnu.org/copyleft/gpl.html" />
             </cc:Work>
        </rdf:RDF>
    </metadata>
    <path d="m 47.328137,10.079607 c -2.808406,-0.0065 -5.011667,0.385218 -6.1875,1.6875 -0.553201,0.612687 -0.936651,1.612612 -1.5,3.1875 -0.563348,1.574888 -1.234848,3.675369 -1.96875,6.28125 -1.467807,5.211764 -3.24516,12.392605 -5.21875,21.0625 -2.875575,12.59949 -0.860062,20.027194 1.15625,24.0625 1.249921,2.501522 2.281724,4.41693 2.5625,6.875 0.280776,2.458071 -0.153956,5.535997 -2.09375,10.4375 -1.396913,3.529718 -2.786701,5.593561 -4.09375,6.78125 -1.264554,1.149072 -2.443915,1.519418 -3.65625,1.6875 -3.231405,-0.770176 -6.037313,-1.18279 -8.21875,-1.1875 -1.105379,-0.0025 -2.074662,0.09311 -2.84375,0.34375 -0.769088,0.250647 -1.423358,0.712678 -1.6875,1.4375 -0.361359,0.991626 0.100419,1.995371 0.90625,2.9375 0.805828,0.94214 2.025614,1.89346 3.5625,2.90625 3.073772,2.025613 7.511452,4.180323 12.5625,6.000003 5.049711,1.81921 9.757054,2.99314 13.40625,3.40625 1.824599,0.20656 3.405391,0.23731 4.625,0.0312 1.219609,-0.20587 2.201858,-0.66657 2.5625,-1.65625 0.264267,-0.72521 0.08085,-1.49412 -0.34375,-2.1875 -0.424596,-0.69338 -1.089245,-1.37714 -1.9375,-2.09375 -1.674404,-1.41453 -4.126632,-2.963963 -7.125,-4.437503 -1.29581,-1.32985 -2.409386,-2.383891 -3,-4.03125 -0.606662,-1.692113 -0.716607,-4.133953 0.3125,-8.28125 1.425003,-5.742723 3.055265,-8.610918 4.90625,-10.46875 -1.735233,-2.533491 -2.852004,-5.39461 -3.28125,-8.3125 a 2.6499205,2.6499205 0 0 1 3.625,-2.84375 l 9.75,3.9375 c 0.867031,-0.858549 1.762107,-1.879363 2.65625,-3.125 1.121678,-1.562616 2.070372,-3.062605 2.9375,-4.53125 l -13.125,-5.3125 a 2.6499205,2.6499205 0 0 1 -0.96875,-4.25 c 0.311982,-0.343839 0.573958,-0.573952 0.71875,-0.71875 3.848134,-3.848136 8.915284,-5.784709 13.96875,-5.78125 2.018628,0.0014 4.026824,0.348458 5.96875,0.96875 0.67611,-1.965884 1.334122,-3.988356 2.125,-6.21875 1.91897,-5.411765 3.27837,-9.350264 4.125,-12.09375 0.42331,-1.371742 0.71744,-2.426518 0.875,-3.25 0.15756,-0.823482 0.3098,-1.351722 0,-1.96875 -1.82772,-3.640247 -6.293126,-6.372954 -11.28125,-8.28125 -4.988123,-1.908297 -10.573653,-2.990307 -14.78125,-3 z m 0.5625,3.75 c 2.933772,0.02573 6.761387,0.752053 9.8125,1.84375 3.328665,1.19101 6.494716,2.590067 8.75,3.9375 1.127639,0.673716 2.00941,1.315444 2.5625,1.875 0.55308,0.559556 0.70804,0.977513 0.6875,1.09375 -0.78109,4.421513 -2.268205,7.865061 -3,9.75 -1.634819,-1.071647 -3.505343,-1.105906 -5.25,-0.53125 -2.060157,0.678577 -4.151675,1.975477 -6.40625,2.9375 -2.254579,0.962023 -4.580084,1.589112 -7.1875,1.09375 -2.533838,-0.481384 -5.394587,-2.071692 -8.59375,-5.6875 0.127179,-0.485841 2.5527,-9.707528 4.28125,-15.21875 0.05538,-0.176581 0.378237,-0.551132 1.15625,-0.78125 0.778013,-0.230119 1.894098,-0.323839 3.1875,-0.3125 z m 12.40625,32.75 c -4.382877,-0.003 -8.751626,1.657874 -12.09375,5 -0.204782,0.204791 -0.432534,0.412881 -0.625,0.625 l 13.9375,5.625 c 2.828747,1.141526 4.204028,4.327503 3.0625,7.15625 l -1.34375,3.28125 c -1.141526,2.828747 -4.327507,4.204025 -7.15625,3.0625 l -12.71875,-5.15625 c 0.517519,3.517946 2.137879,6.919129 4.84375,9.625 4.519902,4.519902 10.93783,5.967831 16.6875,4.375 l 35.437503,35.468753 c 3.03783,3.03782 7.96218,3.03782 11,0 l 0.75,-0.75 c 3.03781,-3.03781 3.03783,-7.96218 0,-11 L 76.734387,68.548357 c 1.72328,-5.822276 0.25166,-12.342081 -4.34375,-16.9375 -3.34213,-3.342125 -7.710872,-5.028199 -12.09375,-5.03125 z m 47.281253,6.53125 c -1.77867,-0.0026 -3.57319,0.698196 -4.9375,2.0625 l -17.500003,17.5 2.6875,2.6875 18.343753,-18.34375 c 0.28623,-0.286219 0.74502,-0.286219 1.03125,0 0.28621,0.286218 0.28621,0.745032 0,1.03125 l -18.343753,18.34375 2.4375,2.375 18.281253,-18.3125 c 0.28621,-0.286219 0.77627,-0.286224 1.0625,0 0.28621,0.286218 0.28621,0.745032 0,1.03125 l -18.312503,18.34375 2.6875,2.65625 17.500003,-17.46875 c 2.7286,-2.728607 2.69718,-7.11514 -0.0312,-9.84375 -1.3643,-1.364302 -3.12758,-2.059817 -4.90625,-2.0625 z m -35.593753,38.625 -8.21875,8.21875 -5.375,1.031253 -8.65625,13.90625 3,3 13.9375,-8.625 1.03125,-5.375 8.21875,-8.218753 -3.9375,-3.9375 z m 33.843753,13.500003 c 1.06074,0 2.12817,0.40943 2.9375,1.21875 1.61863,1.61864 1.61863,4.25636 0,5.875 -1.61865,1.61864 -4.25637,1.61863 -5.875,0 -1.61864,-1.61864 -1.61864,-4.25636 0,-5.875 0.80931,-0.80931 1.87676,-1.21875 2.9375,-1.21875 z" style="fill:#aaaaaa"/>
</svg>