<?xml version="1.0" encoding="UTF-8" standalone="no"?>
<svg xmlns:dc="http://purl.org/dc/elements/1.1/"
     xmlns:cc="http://creativecommons.org/ns#"
     xmlns:rdf="http://www.w3.org/1999/02/22-rdf-syntax-ns#"
     xmlns:svg="http://www.w3.org/2000/svg"
     xmlns="http://www.w3.org/2000/svg"
     xmlns:xlink="http://www.w3.org/1999/xlink"
     width="128" height="128" version="1.1">
    <title>WMtweaks Icon</title>
    <desc>This is shape (source) for Clarity vector icon theme for gtk</desc>
    <metadata>
        <rdf:RDF>
            <cc:Work rdf:about="">
                <dc:title>WMtweaks Icon</dc:title>
                <dc:description>This is shape (source) for Clarity vector icon theme for gtk</dc:description>
                <dc:creator>
                    <cc:Agent>
                        <dc:title>Jakub Jankiewicz</dc:title>
                    </cc:Agent>
                </dc:creator>
                <dc:rights>
                    <cc:Agent>
                        <dc:title>Jakub Jankiewicz</dc:title>
                    </cc:Agent>
                </dc:rights>
                <dc:date>2010</dc:date>
                <dc:format>image/svg+xml</dc:format>
                <dc:type rdf:resource="http://purl.org/dc/dcmitype/StillImage" />
                <cc:license rdf:resource="http://www.gnu.org/copyleft/gpl.html" />
             </cc:Work>
        </rdf:RDF>
    </metadata>
    <path d="M 19.59375 11.5625 C 14.049838 11.5625 9.4375 16.174838 9.4375 21.71875 L 9.4375 106.28125 C 9.4375 111.82516 14.049838 116.4375 19.59375 116.4375 L 108.40625 116.4375 C 113.95016 116.4375 118.5625 111.82516 118.5625 106.28125 L 118.5625 21.71875 C 118.5625 16.174838 113.95016 11.5625 108.40625 11.5625 L 19.59375 11.5625 z M 19.59375 20.84375 L 108.40625 20.84375 C 108.97869 20.84375 109.28125 21.146311 109.28125 21.71875 L 109.28125 106.28125 C 109.28125 106.85369 108.97869 107.15625 108.40625 107.15625 L 19.59375 107.15625 C 19.021311 107.15625 18.71875 106.85369 18.71875 106.28125 L 18.71875 21.71875 C 18.71875 21.146311 19.021311 20.84375 19.59375 20.84375 z M 45.375 28.4375 C 41.00506 28.4344 36.676009 30.105241 33.34375 33.4375 C 33.139572 33.641687 32.910647 33.851006 32.71875 34.0625 L 46.59375 39.65625 C 49.414147 40.794407 50.794408 43.992102 49.65625 46.8125 L 48.3125 50.0625 C 47.174343 52.882897 44.007893 54.263155 41.1875 53.125 L 28.53125 48 C 29.047241 51.507562 30.645866 54.864617 33.34375 57.5625 C 37.85031 62.06906 44.236052 63.525629 49.96875 61.9375 L 85.3125 97.28125 C 88.341363 100.31011 93.221148 100.3101 96.25 97.28125 L 97 96.53125 C 100.02886 93.502403 100.02887 88.622614 97 85.59375 L 61.78125 50.34375 C 63.499441 44.53866 62.050599 38.019353 57.46875 33.4375 C 54.136491 30.105241 49.744939 28.440543 45.375 28.4375 z M 92.53125 34.9375 C 90.757827 34.9349 88.985275 35.639723 87.625 37 L 70.1875 54.4375 L 72.875 57.125 L 91.125 38.84375 C 91.410374 38.558376 91.870878 38.558376 92.15625 38.84375 C 92.441624 39.129123 92.441623 39.589627 92.15625 39.875 L 73.875 58.15625 L 76.28125 60.53125 L 94.53125 42.28125 C 94.816619 41.995877 95.308372 41.995873 95.59375 42.28125 C 95.87912 42.566624 95.87912 43.027127 95.59375 43.3125 L 77.3125 61.59375 L 80 64.25 L 97.46875 46.84375 C 100.18931 44.123198 100.15806 39.720555 97.4375 37 C 96.077221 35.639725 94.304674 34.940176 92.53125 34.9375 z M 57.03125 73.46875 L 48.84375 81.65625 L 43.5 82.6875 L 34.875 96.5625 L 37.84375 99.5625 L 51.75 90.9375 L 52.78125 85.59375 L 60.96875 77.40625 L 57.03125 73.46875 z M 90.8125 86.9375 C 91.870111 86.9375 92.911812 87.349312 93.71875 88.15625 C 95.332601 89.7701 95.332601 92.386131 93.71875 94 C 92.104876 95.613859 89.488854 95.613851 87.875 94 C 86.261134 92.386131 86.261137 89.770108 87.875 88.15625 C 88.681931 87.34932 89.754891 86.9375 90.8125 86.9375 z " style="fill:#aaaaaa"/>
</svg>