<?xml version="1.0" encoding="UTF-8" standalone="no"?>
<svg xmlns:dc="http://purl.org/dc/elements/1.1/"
     xmlns:cc="http://creativecommons.org/ns#"
     xmlns:rdf="http://www.w3.org/1999/02/22-rdf-syntax-ns#"
     xmlns:svg="http://www.w3.org/2000/svg"
     xmlns="http://www.w3.org/2000/svg"
     xmlns:xlink="http://www.w3.org/1999/xlink"
     width="128" height="128" version="1.1">
    <title>Wordpress Logo</title>
    <desc>This is shape (source) for Clarity vector icon theme for gtk</desc>
    <metadata>
        <rdf:RDF>
            <cc:Work rdf:about="">
                <dc:title>Wordpress Logo</dc:title>
                <dc:description>This is shape (source) for Clarity vector icon theme for gtk</dc:description>
                <dc:creator>
                    <cc:Agent>
                        <dc:title>Jakub Jankiewicz</dc:title>
                    </cc:Agent>
                </dc:creator>
                <dc:rights>
                    <cc:Agent>
                        <dc:title>Jakub Jankiewicz</dc:title>
                    </cc:Agent>
                </dc:rights>
                <dc:date>2010</dc:date>
                <dc:format>image/svg+xml</dc:format>
                <dc:type rdf:resource="http://purl.org/dc/dcmitype/StillImage" />
                <cc:license rdf:resource="http://www.gnu.org/copyleft/gpl.html" />
             </cc:Work>
        </rdf:RDF>
    </metadata>
    <path d="m 63.984375,2.73435 c -33.779,0 -61.25,27.471 -61.25,61.25 0,33.78297 27.471,61.28127 61.25,61.28127 33.778,0 61.281255,-27.4983 61.281255,-61.28127 -0.001,-33.779 -27.503255,-61.25 -61.281255,-61.25 z m 0,2.8125 c 32.229,0 58.468755,26.2075 58.468755,58.4375 0,32.23197 -26.239755,58.46877 -58.468755,58.46877 -32.23,0 -58.4375,-26.2368 -58.4375,-58.46877 0,-32.23 26.2065,-58.4375 58.4375,-58.4375 z m 0,5.875 c -18.36,0 -34.50925,9.4195 -43.90625,23.6875 1.233,0.037 2.388,0.062 3.375,0.062 5.497,0 14.03125,-0.6562 14.03125,-0.6562 2.833,-0.167 3.1425,4.0087 0.3125,4.3437 0,0 -2.832,0.334 -6,0.5 l 19.125,56.90627 11.5,-34.46877 -8.1875,-22.4375 c -2.83,-0.166 -5.5,-0.5 -5.5,-0.5 -2.832,-0.166 -2.48825,-4.5107 0.34375,-4.3437 0,0 8.67975,0.6562 13.84375,0.6562 5.496,0 14,-0.6562 14,-0.6562 2.835,-0.167 3.17475,4.0087 0.34375,4.3437 0,0 -2.86925,0.334 -6.03125,0.5 l 19,56.46877 5.25,-17.5 c 2.272,-7.26897 4,-12.50097 4,-16.99997 0,-6.495 -2.34275,-10.999 -4.34375,-14.5 -2.664,-4.329 -5.15625,-7.9835 -5.15625,-12.3125 0,-4.831 3.6515,-9.3125 8.8125,-9.3125 0.233,0 0.4605,0.018 0.6875,0.031 -9.35,-8.566 -21.818,-13.8125 -35.5,-13.8125 z m 46.125005,27.3438 c 0.226,1.674 0.34375,3.4732 0.34375,5.4062 0,5.333 -1,11.3478 -4,18.8438 l -16.031255,46.40617 c 15.623995,-9.111 26.125005,-26.0495 26.125005,-45.43747 0.001,-9.137 -2.3325,-17.7327 -6.4375,-25.2187 z m -94.125005,3.8437 c -2.916,6.536 -4.53125,13.756 -4.53125,21.375 0,20.80197 12.06375,38.79347 29.59375,47.31247 l -25.0625,-68.68747 z m 48.9375,25.9688 -15.78125,45.81247 c 4.708,1.384 9.68475,2.1562 14.84375,2.1562 6.12,0 12.00575,-1.0477 17.46875,-2.9687 -0.141,-0.225 -0.27,-0.49 -0.375,-0.75 L 64.921875,68.57815 z" style="fill:#aaaaaa"/>
</svg>