<?xml version="1.0" encoding="UTF-8" standalone="no"?>
<svg xmlns:dc="http://purl.org/dc/elements/1.1/"
     xmlns:cc="http://creativecommons.org/ns#"
     xmlns:rdf="http://www.w3.org/1999/02/22-rdf-syntax-ns#"
     xmlns:svg="http://www.w3.org/2000/svg"
     xmlns="http://www.w3.org/2000/svg"
     xmlns:xlink="http://www.w3.org/1999/xlink"
     width="128" height="128" version="1.1">
    <title>XChat Logo</title>
    <desc>This is shape (source) for Clarity vector icon theme for gtk</desc>
    <metadata>
        <rdf:RDF>
            <cc:Work rdf:about="">
                <dc:title>XChat Logo</dc:title>
                <dc:description>This is shape (source) for Clarity vector icon theme for gtk</dc:description>
                <dc:creator>
                    <cc:Agent>
                        <dc:title>Jakub Jankiewicz</dc:title>
                    </cc:Agent>
                </dc:creator>
                <dc:rights>
                    <cc:Agent>
                        <dc:title>Jakub Jankiewicz</dc:title>
                    </cc:Agent>
                </dc:rights>
                <dc:date>2010</dc:date>
                <dc:format>image/svg+xml</dc:format>
                <dc:type rdf:resource="http://purl.org/dc/dcmitype/StillImage" />
                <cc:license rdf:resource="http://www.gnu.org/copyleft/gpl.html" />
             </cc:Work>
        </rdf:RDF>
    </metadata>
    <path d="M 28.220488,10.520645 10.520645,28.144523 39.691202,57.315081 c 0.844485,-0.640226 1.902905,-0.993034 2.962635,-0.987545 l 2.43088,0 c 1.711568,-0.01532 3.398199,0.948568 4.254039,2.430879 l 15.420894,0 c 2.311142,-0.02817 4.500592,1.819188 4.86176,4.10211 0.357349,-2.257791 2.499909,-4.094272 4.785794,-4.10211 l 12.458259,0 L 117.47936,28.144523 99.855477,10.520645 64.075965,46.300157 28.220488,10.520645 z m -15.724754,48.84549 c -0.84933,0.143544 -1.531259,0.961868 -1.519299,1.82316 l 0,19.447039 c 9.4e-5,0.954577 0.86858,1.823065 1.823159,1.823159 l 20.738444,0 c 0.954575,-9.4e-5 1.823062,-0.868582 1.823159,-1.823159 l 0,-2.43088 c -9.7e-5,-0.954578 -0.868584,-1.823065 -1.823159,-1.82316 l -16.484404,0 0,-10.938959 16.560369,0 c 0.954575,-9.5e-5 1.823062,-0.868583 1.823159,-1.82316 l 0,-2.43088 c -9.7e-5,-0.954577 -0.868584,-1.823065 -1.823159,-1.82316 l -21.118269,0 z m 29.854243,0 c -0.849333,0.143544 -1.53126,0.961868 -1.5193,1.82316 l 0,19.447039 c 9.5e-5,0.954577 0.86858,1.823065 1.82316,1.823159 l 2.43088,0 c 0.954575,-9.4e-5 1.823062,-0.868582 1.823159,-1.823159 l 0,-12.762119 13.597734,0 0,12.762119 c 9.5e-5,0.954577 0.86858,1.823065 1.82316,1.823159 l 2.43088,0 c 0.954575,-9.4e-5 1.823063,-0.868582 1.82316,-1.823159 l 0,-17.016159 c -9.7e-5,-0.954577 -0.868585,-1.823065 -1.82316,-1.82316 l -17.851774,0 0,-0.60772 c -9.7e-5,-0.954577 -0.868584,-1.823065 -1.823159,-1.82316 -0.911391,-5.76e-4 -1.823977,0 -2.73474,0 z m 63.810593,0 c -0.82208,0.174975 -1.46166,0.982861 -1.44333,1.82316 l 0,0.60772 -1.5193,0 c -0.95458,9.5e-5 -1.82307,0.868583 -1.82316,1.82316 l 0,2.43088 c 9e-5,0.954577 0.86858,1.823065 1.82316,1.82316 l 1.5193,0 0,12.762119 c 9e-5,0.954577 0.86858,1.823065 1.82316,1.823159 l 6.30509,0 c 0.95458,-9.4e-5 1.82307,-0.868582 1.82316,-1.823159 l 0,-2.962635 c -9e-5,-0.954578 -0.86858,-1.823065 -1.82316,-1.82316 l -2.05105,0 0,-7.976324 2.05105,0 c 0.95458,-9.5e-5 1.82307,-0.868583 1.82316,-1.82316 l 0,-2.43088 c -9e-5,-0.954577 -0.86858,-1.823065 -1.82316,-1.82316 l -2.05105,0 0,-0.60772 c -10e-5,-0.954577 -0.86858,-1.823065 -1.82316,-1.82316 l -2.43088,0 c -0.12614,-0.01313 -0.25368,-0.01313 -0.37983,0 z m -32.057226,2.43088 c -0.84933,0.143544 -1.53126,0.961868 -1.5193,1.82316 l 0,17.016159 c 9.5e-5,0.954577 0.868583,1.823065 1.82316,1.823159 l 11.166854,0 c 0.954577,-9.4e-5 1.823063,-0.868582 1.82316,-1.823159 l 0,-2.43088 c -9.7e-5,-0.954578 -0.868583,-1.823065 -1.82316,-1.82316 l -6.912814,0 0,-8.508079 14.357384,0 0,12.762119 c 9.4e-5,0.954577 0.868582,1.823065 1.823159,1.823159 l 4.86176,0 c 0.954573,-9.4e-5 1.823063,-0.868582 1.823163,-1.823159 l 0,-7.29264 c -10e-5,-0.954577 -0.86859,-1.823065 -1.823163,-1.82316 l -0.60772,0 0,-7.900359 c -9.7e-5,-0.954577 -0.868583,-1.823065 -1.82316,-1.82316 l -22.865463,0 c -0.101052,-0.0085 -0.202808,-0.0085 -0.30386,0 z m -24.156868,9.115799 0,9.72352 c -2.55e-4,2.545542 -2.31622,4.861504 -4.861759,4.861759 l -2.43088,0 c -2.400533,0.01045 -4.636512,-2.016006 -4.86176,-4.405969 -0.225245,2.389963 -2.461229,4.41632 -4.861759,4.405969 l -8.128255,0 -14.281418,14.281419 17.699843,17.699848 32.361087,-32.285127 c -1.826077,-0.703351 -3.122851,-2.601068 -3.114564,-4.557899 l 0,-9.72352 -7.520535,0 z m 19.674934,10.17931 c -0.159345,1.530824 -1.093289,2.96093 -2.43088,3.722284 l 32.664947,32.664952 17.623883,-17.699848 -15.193,-15.268964 c -0.82429,0.624999 -1.85229,0.976684 -2.886673,0.987545 l -4.5579,0 c -2.054202,-0.0039 -4.023881,-1.456877 -4.633864,-3.418425 -0.609983,1.961548 -2.579664,3.414594 -4.633865,3.418425 l -11.166854,0 c -2.375159,-0.02688 -4.563046,-2.041125 -4.785794,-4.405969 z" style="fill:#aaaaaa"/>
</svg>