<?xml version="1.0" encoding="UTF-8" standalone="no"?>
<svg xmlns:dc="http://purl.org/dc/elements/1.1/"
     xmlns:cc="http://creativecommons.org/ns#"
     xmlns:rdf="http://www.w3.org/1999/02/22-rdf-syntax-ns#"
     xmlns:svg="http://www.w3.org/2000/svg"
     xmlns="http://www.w3.org/2000/svg"
     xmlns:xlink="http://www.w3.org/1999/xlink"
     width="128" height="128" version="1.1">
    <title>Gnome Foot with Xfce Mouse</title>
    <desc>This is shape (source) for Clarity vector icon theme for gtk</desc>
    <metadata>
        <rdf:RDF>
            <cc:Work rdf:about="">
                <dc:title>Gnome Foot with Xfce Mouse</dc:title>
                <dc:description>This is shape (source) for Clarity vector icon theme for gtk</dc:description>
                <dc:creator>
                    <cc:Agent>
                        <dc:title>Jakub Jankiewicz</dc:title>
                    </cc:Agent>
                </dc:creator>
                <dc:rights>
                    <cc:Agent>
                        <dc:title>Jakub Jankiewicz</dc:title>
                    </cc:Agent>
                </dc:rights>
                <dc:date>2010</dc:date>
                <dc:format>image/svg+xml</dc:format>
                <dc:type rdf:resource="http://purl.org/dc/dcmitype/StillImage" />
                <cc:license rdf:resource="http://www.gnu.org/copyleft/gpl.html" />
             </cc:Work>
        </rdf:RDF>
    </metadata>
    <path d="m 83.416135,13.878842 c -0.446721,-0.0045 -0.897631,5.39e-4 -1.375,0.03125 -3.818961,0.245695 -8.542623,1.748672 -12.5625,6.4375 -5.244504,6.117062 -5.429022,18.341577 -3.8125,20.5 2.011472,2.678893 4.475392,2.518986 8.71875,1.625 4.243372,-0.893985 24.161966,-19.239824 14.78125,-27.5 -0.309424,-0.274586 -2.622955,-1.06199 -5.75,-1.09375 z m -32.6875,4.25 c -4.50361,0 -8.796317,5.412703 -7.5625,11.15625 1.197089,5.584345 2.831992,10.03125 6.1875,10.03125 3.125883,0 5.552911,-4.774189 6.75,-10.46875 1.209323,-5.74661 -0.874459,-10.71875 -5.375,-10.71875 z m -21.34375,8.09375 c -0.255793,0.0082 -0.52541,0.03731 -0.78125,0.09375 -4.093343,0.909292 -5.687765,6.315873 -3.4375,11.15625 2.185984,4.702605 4.541338,8.335924 7.59375,7.65625 2.841151,-0.630687 4.061872,-5.337631 4.03125,-10.625 -0.02454,-4.666633 -3.131328,-8.102559 -6.65625,-8.28125 -0.251784,-0.01276 -0.494207,-0.0082 -0.75,0 z m -14.03125,12.34375 c -0.623157,0.04986 -1.218922,0.229292 -1.8125,0.53125 -3.16568,1.616522 -3.406093,6.381723 -0.53125,9.875 2.792164,3.392244 5.517575,5.859455 7.875,4.65625 2.204349,-1.120543 2.207531,-5.327159 1.0625,-9.65625 -0.865668,-3.281261 -3.413227,-5.268334 -5.96875,-5.40625 -0.21296,-0.01149 -0.417281,-0.01662 -0.625,0 z m 44.34375,8.625 c -3.332674,0.0062 -7.3125,0.358968 -12.09375,1.09375 -10.420474,1.600889 -17.294232,5.048028 -21.8125,9.1875 0.338527,0.126243 0.673515,0.297191 1.0625,0.46875 0.77797,0.343118 1.62281,0.749855 2.40625,1.1875 1.552519,0.867266 7.403665,3.072335 8.28125,3.25 2.474591,0.500978 5.89486,1.987856 9.6875,4.1875 3.49989,2.029855 7.159212,4.702538 10.28125,7.78125 0.277281,-0.160029 0.496808,-0.25709 0.96875,-0.5 1.390867,-0.715883 3.636415,-1.485684 6.40625,-1.0625 0.0071,6.75e-4 0.02411,-6.98e-4 0.03125,0 0.0506,0.0079 0.07402,-0.0087 0.125,0 l 0,0.03125 c 0.725536,0.08259 1.462248,0.235145 2.6875,0.5 0.160726,0.03474 0.361273,0.08814 0.53125,0.125 3.379791,-2.147921 6.21768,-4.062307 7.5,-5.34375 4.466859,-4.469924 1.583169,-12.696106 0.46875,-15.375 0,0 -2.089639,-5.558029 -16.53125,-5.53125 z m -35.25,11.84375 c -0.224623,-0.03281 -0.366025,0.01243 -0.28125,0.15625 -0.765554,0.02777 0.736766,1.072281 1.25,1.4375 0.319921,0.368338 12.108805,5.680825 17,8.46875 5.175944,2.883427 12.170251,8.785837 12.71875,9.78125 -5.379412,8.539884 -2.834083,16.013715 -3.46875,16.8125 -0.459927,0.677607 -4.731302,5.006668 -3.375,5.624998 1.356303,0.61835 3.460556,-0.22278 3.78125,-0.40625 0.68109,-0.38964 1.470581,-1.091359 1.1875,0 -0.576707,2.22339 -3.343596,7.60454 0.25,6.46875 0.429018,-0.22203 6.270275,-6.09295 6.96875,-6.28125 11.474248,2.72077 24.36061,1.58736 26.75,0.5625 1.229785,0.0658 4.721316,2.11093 6.71875,3.0625 1.997434,0.95155 7.487805,3.3133 5.875,-1 -0.486598,-1.36239 -4.131636,-4.850228 -3.53125,-5.062498 1.283012,-0.453417 4.440665,1.221354 5.656245,1.531248 3.63608,0.927 4.13682,-0.446065 1.84375,-3.281248 -2.29307,-2.835185 -2.617,-2.415209 -3.3125,-3.71875 -0.557235,-1.044473 -0.16948,-2.275062 0.25,-2.5625 0.73613,-0.517079 11.71338,-5.927658 14.25,-8.03125 3.7816,-3.127405 -0.0553,-7.075541 -0.96875,-7.625 -7.83491,-5.124331 -15.831833,-4.093581 -15.937495,-4.90625 -0.05536,-0.939334 -0.05267,-3.509821 -0.1875,-4.4375 -0.773506,-6.279257 -3.809136,-4.809883 -4.25,-4.8125 -3.183653,0.447316 -2.224108,4.940315 -0.875,9.125 0.115182,1.071186 -1.024794,0.653106 -1.75,-0.46875 -2.445867,-5.985799 -3.505546,-5.794681 -4.1875,-5.96875 -0.653216,-0.13466 -2.894204,1.047268 -2.84375,3.46875 0.0085,0.695626 0.869113,3.982501 0.875,5 -1.508349,1.201221 -1.517251,3.849842 -3.09375,4.84375 -4.610766,0.875528 -15.685617,-2.057451 -17.0625,-2.1875 -4.789407,-0.816055 -6.939806,2.524739 -7.71875,1.75 -6.198034,-6.476764 -15.699636,-11.354856 -19.8125,-12.1875 -1.591658,-0.322228 -6.873764,-2.323236 -8.8125,-3.40625 -1.454052,-0.812262 -3.232381,-1.651601 -3.90625,-1.75 z m -1.75,1.84375 c -4.852334,6.37942 -5.5,13.533397 -5.5,17.9375 0,8.263239 11.686638,31.777308 31.5625,34.906248 12.905026,2.0276 20.767403,-4.05907 25.09375,-9.125 -4.049021,-0.12883 -8.555171,-0.56979 -12.9375,-1.53125 -0.159761,0.13263 -0.31041,0.27221 -0.53125,0.46875 -0.620544,0.55226 -1.42477,1.27745 -2.21875,2.03125 -0.79398,0.7538 -1.591329,1.53191 -2.21875,2.125 -0.31371,0.29655 -0.589093,0.54856 -0.8125,0.75 -0.111703,0.10072 -0.212891,0.19849 -0.3125,0.28125 -0.09961,0.0828 -0.07982,0.11122 -0.46875,0.3125 a 1.8689194,1.8689194 0 0 1 -0.28125,0.125 c -0.6184,0.19545 -1.238535,0.33066 -1.9375,0.21875 -0.698965,-0.11191 -1.460426,-0.63517 -1.84375,-1.25 -0.766648,-1.22965 -0.506576,-2.21465 -0.3125,-3.125 0.144072,-0.6758 0.343983,-1.03647 0.5625,-1.6875 -0.870347,0.15304 -1.907496,0.19983 -3.03125,-0.3125 -0.712457,-0.32481 -1.298567,-1.28813 -1.34375,-1.96875 -0.04518,-0.68062 0.108606,-1.101096 0.28125,-1.499998 0.266587,-0.615963 0.642171,-1.158912 1.03125,-1.6875 -1.876857,-2.528029 -2.789577,-6.108127 -1.1875,-9.15625 0.509017,-0.966431 2.132296,-2.325251 4.3125,-3.90625 0.48215,-1.771504 1.204583,-3.672209 2.28125,-5.625 -0.158229,-0.151017 -0.297845,-0.254929 -0.5,-0.4375 -0.772492,-0.697662 -1.82651,-1.608586 -3.03125,-2.5625 -2.409481,-1.907827 -5.413683,-4.052502 -7.84375,-5.40625 a 1.8689194,1.8689194 0 0 1 -0.03125,-0.03125 c -2.328261,-1.327082 -6.495384,-3.338825 -10.09375,-5.0625 -1.799183,-0.861838 -3.477934,-1.649311 -4.71875,-2.25 -0.620408,-0.300345 -1.110496,-0.550095 -1.5,-0.75 -0.194752,-0.09995 -0.352329,-0.197183 -0.5,-0.28125 -0.07383,-0.04203 -0.132236,-0.0681 -0.21875,-0.125 -0.02212,-0.01455 -0.101343,-0.112312 -0.125,-0.125 l -0.03125,0.03125 c -0.256563,-0.182571 -0.788867,-0.545558 -1.28125,-1 -0.101728,-0.09389 -0.202242,-0.174087 -0.3125,-0.28125 z m 89.937495,5.125 c -1.49097,1.459646 -1.23201,6.841143 -0.90625,6.78125 1.52664,-0.280692 1.35651,-7.222074 0.90625,-6.78125 z m 4.25,0.75 c -0.57452,0.191997 -4.09655,4.704148 -3.4375,6.4375 0.30669,0.806681 4.02985,-4.973333 3.5,-6.375 -0.01,-0.02787 -0.0245,-0.07531 -0.0625,-0.0625 z m -20.374995,8.5 c 0.02602,-0.0014 0.06579,0.0023 0.09375,0.03125 0.461667,1.385154 1.010173,2.85249 4.031245,3.1875 0.34748,0.03888 -1.725621,1.096004 -3.124995,0.4375 -1.263216,-0.70694 -1.360327,-3.298821 -1.0625,-3.625 0.02128,-0.0233 0.03648,-0.02984 0.0625,-0.03125 z m 8.249995,6.90625 c 0.11872,-0.004 0.2163,0.01209 0.3125,0.03125 0.73138,0.160124 -5.397065,3.216606 -5.874995,2.8125 -0.316855,-0.26797 3.781755,-2.784215 5.562495,-2.84375 z m 0.9375,1.9375 c 0.0944,-0.01959 0.16898,-0.006 0.25,0 0.64374,0.04944 -3.64693,3.966592 -4.125,3.5625 -0.31687,-0.267973 2.45861,-3.268715 3.875,-3.5625 z" style="fill:#aaaaaa"/>
</svg>