<?xml version="1.0" encoding="UTF-8" standalone="no"?>
<svg xmlns:dc="http://purl.org/dc/elements/1.1/"
     xmlns:cc="http://creativecommons.org/ns#"
     xmlns:rdf="http://www.w3.org/1999/02/22-rdf-syntax-ns#"
     xmlns:svg="http://www.w3.org/2000/svg"
     xmlns="http://www.w3.org/2000/svg"
     xmlns:xlink="http://www.w3.org/1999/xlink"
     width="128" height="128" version="1.1">
    <title>XFCE Panel Icon</title>
    <desc>This is shape (source) for Clarity vector icon theme for gtk</desc>
    <metadata>
        <rdf:RDF>
            <cc:Work rdf:about="">
                <dc:title>XFCE Panel Icon</dc:title>
                <dc:description>This is shape (source) for Clarity vector icon theme for gtk</dc:description>
                <dc:creator>
                    <cc:Agent>
                        <dc:title>Jakub Jankiewicz</dc:title>
                    </cc:Agent>
                </dc:creator>
                <dc:rights>
                    <cc:Agent>
                        <dc:title>Jakub Jankiewicz</dc:title>
                    </cc:Agent>
                </dc:rights>
                <dc:date>2010</dc:date>
                <dc:format>image/svg+xml</dc:format>
                <dc:type rdf:resource="http://purl.org/dc/dcmitype/StillImage" />
                <cc:license rdf:resource="http://www.gnu.org/copyleft/gpl.html" />
             </cc:Work>
        </rdf:RDF>
    </metadata>
    <path d="m 21.9375,34.890625 c -4.69655,0 -8.46875,3.7722 -8.46875,8.46875 l 0,41.25 c 0,4.69655 3.7722,8.5 8.46875,8.5 l 84.09375,0 c 4.69655,0 8.5,-3.80345 8.5,-8.5 l 0,-41.25 c 0,-4.69655 -3.80345,-8.46875 -8.5,-8.46875 l -84.09375,0 z m -0.375,7.5625 84.875,0 0,43.0625 -84.875,0 0,-43.0625 z m 24.59375,6.71875 c -0.137349,-0.02006 -0.208087,0.0058 -0.15625,0.09375 -0.468109,0.01698 0.436176,0.651682 0.75,0.875 0.19562,0.225226 7.415459,3.482784 10.40625,5.1875 3.164904,1.763113 7.445863,5.360091 7.78125,5.96875 -3.289317,5.221833 -1.736924,9.792822 -2.125,10.28125 -0.281229,0.414333 -2.89183,3.059409 -2.0625,3.4375 0.829331,0.378097 2.116407,-0.137815 2.3125,-0.25 0.416461,-0.238253 0.891844,-0.667328 0.71875,0 -0.352636,1.359518 -2.041105,4.663251 0.15625,3.96875 0.262329,-0.135765 3.822907,-3.728611 4.25,-3.84375 7.016091,1.663654 14.913974,0.970412 16.375,0.34375 0.751969,0.04026 2.872391,1.293152 4.09375,1.875 1.221359,0.581841 4.579926,2.012425 3.59375,-0.625 -0.297538,-0.833058 -2.523364,-2.963954 -2.15625,-3.09375 0.784514,-0.277248 2.725471,0.74801 3.46875,0.9375 2.223337,0.566828 2.52713,-0.266387 1.125,-2 -1.402132,-1.733614 -1.605977,-1.484181 -2.03125,-2.28125 -0.340739,-0.638658 -0.100245,-1.386742 0.15625,-1.5625 0.450116,-0.316175 7.167706,-3.619979 8.71875,-4.90625 2.31231,-1.912296 -0.0352,-4.320276 -0.59375,-4.65625 -4.790764,-3.133345 -9.68539,-2.503082 -9.75,-3 -0.03388,-0.574369 -0.04255,-2.151507 -0.125,-2.71875 -0.47297,-3.83954 -2.324177,-2.9359 -2.59375,-2.9375 -1.946689,0.273518 -1.356181,3.003715 -0.53125,5.5625 0.07043,0.654992 -0.619062,0.404724 -1.0625,-0.28125 -1.49556,-3.660102 -2.145509,-3.549813 -2.5625,-3.65625 -0.399418,-0.08234 -1.78085,0.644351 -1.75,2.125 0.0052,0.425351 0.52765,2.440336 0.53125,3.0625 -0.922302,0.734504 -0.911027,2.361011 -1.875,2.96875 -2.819318,0.535354 -9.595586,-1.26423 -10.4375,-1.34375 -2.928551,-0.498989 -4.242454,1.536225 -4.71875,1.0625 -3.789876,-3.960309 -9.610131,-6.928368 -12.125,-7.4375 -0.973242,-0.197031 -4.189532,-1.431526 -5.375,-2.09375 -0.889101,-0.496669 -1.994204,-1.002333 -2.40625,-1.0625 z m -4.59375,1.75 -12.78125,13.0625 12.78125,13.0625 0,-26.125 z m 58.53125,2.5 c -0.911672,0.892521 -0.761689,4.192872 -0.5625,4.15625 0.93349,-0.171633 0.83782,-4.425798 0.5625,-4.15625 z m 2.59375,0.46875 c -0.35129,0.117399 -2.49673,2.877617 -2.09375,3.9375 0.18753,0.493256 2.44898,-3.049181 2.125,-3.90625 -0.006,-0.01704 -0.008,-0.03908 -0.0312,-0.03125 z m -12.5,5.21875 c 0.02602,-0.02849 0.05956,-0.03538 0.09375,0 0.282291,0.846973 0.621469,1.732653 2.46875,1.9375 0.212474,0.02377 -1.050581,0.683902 -1.90625,0.28125 -0.77241,-0.432268 -0.838361,-2.019303 -0.65625,-2.21875 z m 5.28125,4.21875 c 0.44721,0.09791 -3.301517,1.965846 -3.59375,1.71875 -0.206664,-0.174778 2.652595,-1.906204 3.59375,-1.71875 z M 96,64.484375 c 0.393619,0.03023 -2.238932,2.434588 -2.53125,2.1875 -0.206676,-0.174779 1.738611,-2.24649 2.53125,-2.1875 z" style="fill:#aaaaaa"/>
</svg>