<?xml version="1.0" encoding="UTF-8" standalone="no"?>
<svg xmlns:dc="http://purl.org/dc/elements/1.1/"
     xmlns:cc="http://creativecommons.org/ns#"
     xmlns:rdf="http://www.w3.org/1999/02/22-rdf-syntax-ns#"
     xmlns:svg="http://www.w3.org/2000/svg"
     xmlns="http://www.w3.org/2000/svg"
     xmlns:xlink="http://www.w3.org/1999/xlink"
     width="128" height="128" version="1.1">
    <title>Xfce Menu icon</title>
    <desc>This is shape (source) for Clarity vector icon theme for gtk</desc>
    <metadata>
        <rdf:RDF>
            <cc:Work rdf:about="">
                <dc:title>Xfce Menu icon</dc:title>
                <dc:description>This is shape (source) for Clarity vector icon theme for gtk</dc:description>
                <dc:creator>
                    <cc:Agent>
                        <dc:title>Jakub Jankiewicz</dc:title>
                    </cc:Agent>
                </dc:creator>
                <dc:rights>
                    <cc:Agent>
                        <dc:title>Jakub Jankiewicz</dc:title>
                    </cc:Agent>
                </dc:rights>
                <dc:date>2010</dc:date>
                <dc:format>image/svg+xml</dc:format>
                <dc:type rdf:resource="http://purl.org/dc/dcmitype/StillImage" />
                <cc:license rdf:resource="http://creativecommons.org/licenses/by-sa/3.0/" />
             </cc:Work>
        </rdf:RDF>
    </metadata>
    <path d="M 64,5.3747935 A 58.625209,58.625209 0 0 0 64,122.62521 58.625209,58.625209 0 0 0 64,5.3747935 Z M 86.311262,26.976624 c 2.143414,1.22491 -1.057598,15.041185 -0.463621,17.566173 1.899852,-4.972275 6.537608,-15.600343 8.976779,-14.877803 1.219169,3.39703 -1.773305,14.588613 -1.817136,18.292712 3.851943,-8.659376 8.473906,-17.150852 9.161916,-16.872303 4.78665,1.93794 -11.681957,29.090485 -12.895757,27.467077 -0.575951,-0.168463 0.823067,-14.55401 1.938484,-17.587951 -1.430085,3.2698 -6.012784,12.860507 -9.085679,14.866914 -1.795499,-3.362583 0.167131,-28.24477 4.185014,-28.854819 z m -36.333394,2.62147 c 2.67994,-0.0633 6.616348,1.4865 7.918855,12.060309 0.330501,2.272219 0.248555,8.667406 0.384276,10.968158 0.258786,1.990514 19.874916,-0.623203 39.065321,11.928068 2.2374,1.345821 11.74074,10.99666 2.47834,18.656765 -6.213047,5.152435 -33.176849,18.437316 -34.979878,19.703796 -4.726046,2.7718 -31.145153,2.37821 -40.022117,-9.384389 -8.803007,-12.34423 -5.943615,-24.281233 1.079703,-36.344285 -0.01586,-2.492208 -2.138507,-10.521383 -2.159406,-12.225217 -0.123455,-5.931053 5.438334,-8.853865 7.038292,-8.524045 1.670338,0.42637 4.317748,-0.0467 10.308515,14.614873 1.776278,2.747812 4.499805,3.846539 4.217686,1.222833 -3.304411,-10.249749 -5.638442,-21.184516 2.159404,-22.280146 0.337463,0.002 1.292852,-0.36796 2.511009,-0.39672 z m 26.024878,39.241124 c -4.297019,2.245054 -27.986526,9.143098 -26.994122,13.084 1.958961,1.502362 15.470124,-4.846135 18.028235,-5.275607 C 64.825449,80.432415 54.469397,87.012247 56.079588,88.981738 59.68375,88.791263 69.553377,83.386219 72.951886,81.912331 65.551163,87.603344 61.029671,94.105685 61.552777,94.632286 65.192146,98.295933 83.24346,74.870267 81.2768,74.379304 80.886369,73.898394 67.344931,81.217336 65.616442,83.167833 67.915207,80.77727 75.327106,72.529897 76.002746,68.839218 Z" style="fill:#aaaaaa"/>
</svg>