<?xml version="1.0" encoding="UTF-8" standalone="no"?>
<svg xmlns:dc="http://purl.org/dc/elements/1.1/"
     xmlns:cc="http://creativecommons.org/ns#"
     xmlns:rdf="http://www.w3.org/1999/02/22-rdf-syntax-ns#"
     xmlns:svg="http://www.w3.org/2000/svg"
     xmlns="http://www.w3.org/2000/svg"
     xmlns:xlink="http://www.w3.org/1999/xlink"
     width="128" height="128" version="1.1">
    <title>XFce4 Notify Icon</title>
    <desc>This is shape (source) for Clarity vector icon theme for gtk</desc>
    <metadata>
        <rdf:RDF>
            <cc:Work rdf:about="">
                <dc:title>XFce4 Notify Icon</dc:title>
                <dc:description>This is shape (source) for Clarity vector icon theme for gtk</dc:description>
                <dc:creator>
                    <cc:Agent>
                        <dc:title>Jakub Jankiewicz</dc:title>
                    </cc:Agent>
                </dc:creator>
                <dc:rights>
                    <cc:Agent>
                        <dc:title>Jakub Jankiewicz</dc:title>
                    </cc:Agent>
                </dc:rights>
                <dc:date>2010</dc:date>
                <dc:format>image/svg+xml</dc:format>
                <dc:type rdf:resource="http://purl.org/dc/dcmitype/StillImage" />
                <cc:license rdf:resource="http://www.gnu.org/copyleft/gpl.html" />
             </cc:Work>
        </rdf:RDF>
    </metadata>
    <path d="m 84.795015,10.070894 c -0.962012,0.04757 -1.830626,0.394889 -2.5,0.9375 -0.892515,0.72348 -1.419843,1.811947 -1.4375,3 -0.01765,1.188056 0.440135,2.252436 1.09375,3.0625 0.653622,0.81007 1.516517,1.344176 2.53125,1.5 13.259909,2.036153 25.636545,14.119744 25.500005,27.1875 0.0569,3.403231 -0.63178,6.839306 -1.9375,10 -0.3876,0.938213 -0.35158,1.958494 0,2.9375 0.35161,0.979011 1.04292,1.921106 2.0625,2.53125 1.01956,0.610138 2.19217,0.728467 3.28125,0.34375 1.0891,-0.38471 2.07383,-1.273764 2.59375,-2.53125 1.7515,-4.236273 2.63104,-8.804872 2.5625,-13.40625 -0.58407,-16.85765 -13.60583,-30.976976 -29.531255,-34.875 -1.061694,-0.259871 -2.134248,-0.45807 -3.21875,-0.625 -0.33197,-0.0511 -0.679329,-0.07836 -1,-0.0625 z m -40.1875,0.6875 -19.03125,14.59375 9.46875,12.34375 -3.34375,2.5625 c -1.664918,1.276542 -1.995297,3.647578 -0.71875,5.3125 l 23.15625,30.1875 c 0.32297,-0.231067 0.62992,-0.448917 0.96875,-0.59375 0.518617,-0.221683 0.966723,-0.487817 1.96875,-0.28125 a 2.1585713,2.1585713 0 0 1 0.09375,0.03125 c -0.116707,-0.02979 0.887125,0.329832 1.78125,0.96875 0.112146,-0.514875 0.31682,-1.031762 0.625,-1.53125 0.627174,-1.016502 1.819949,-1.762917 3.0625,-1.9375 a 2.1585713,2.1585713 0 0 1 0.09375,-0.03125 c 0.0063,-0.0014 0.0245,0.0015 0.03125,0 0.14011,-0.03166 0.34462,-0.09361 0.625,-0.125 0.846613,-0.09477 2.420436,0.100076 3.5625,1.21875 1.12997,1.106827 1.755962,2.773165 2.0625,5.1875 0.0033,0.02584 0.02804,0.03648 0.03125,0.0625 l -0.03125,0 c 0.09547,0.691494 0.131658,1.434088 0.15625,2.25 0.0054,0.180423 -0.0049,0.261055 0,0.4375 0.772445,0.07766 1.71374,0.143636 2.96875,0.34375 1.517852,0.242025 3.32719,0.642824 5.25,1.3125 0.0029,-0.06929 -0.0038,-0.117099 0,-0.1875 0.04327,-0.809778 0.156601,-1.671912 0.375,-2.53125 0.218399,-0.859338 0.500354,-1.736822 1.34375,-2.5625 0.272504,-0.266794 0.824318,-0.669475 1.5625,-0.65625 0.738182,0.01323 1.300835,0.413484 1.5625,0.6875 0.455117,0.476599 0.453104,0.709124 0.5,0.90625 7.07e-4,0.003 0.03054,-0.0029 0.03125,0 0.205531,-0.208877 0.154282,-0.436039 1.09375,-0.75 l 0,0.03125 c 0.423123,-0.14272 1.232503,-0.180295 1.84375,0.1875 0.593198,0.356934 0.798414,0.827901 0.90625,1.125 l 0.03125,0 c 0.0018,0.0049 -0.0017,0.02645 0,0.03125 0.566105,1.532768 0.03732,2.222425 -0.28125,3.0625 -0.321311,0.847302 -0.756062,1.711607 -1.21875,2.5 -0.391991,0.667928 -0.779702,1.229274 -1.1875,1.75 0.174073,0.17403 0.369354,0.276443 0.5625,0.5 0.516839,0.598216 1.071884,1.357548 1.46875,2.3125 0.396866,0.954952 0.650738,2.162423 0.40625,3.4375 -0.244488,1.275077 -1.029811,2.516741 -2.21875,3.5 -1.660505,1.37705 -4.667685,2.96301 -7.625,4.531246 -0.827138,0.43862 -1.480941,0.7755 -2.21875,1.15625 l 5.625,7.3125 c 1.276535,1.6649 3.647583,1.99529 5.3125,0.71875 l 7.9375,-6.09375 c 1.681688,2.01504 4.678428,2.33105 6.78125,0.71875 l 1.093755,-0.8125 c 2.10282,-1.61231 2.54077,-4.602946 1.03125,-6.749996 l 8.875,-6.8125 c 1.66492,-1.276544 1.99528,-3.616333 0.71875,-5.28125 l -48.968755,-63.875 c -1.276546,-1.664921 -3.647579,-1.964044 -5.3125,-0.6875 l -3.34375,2.5625 -9.46875,-12.34375 z m 0.25,6.28125 c 0.232337,0.007 0.474873,0.116698 0.625,0.3125 l 1.625,2.15625 c 0.266896,0.348095 0.223092,0.826856 -0.125,1.09375 l -3.09375,2.375 c -0.348098,0.266897 -0.826856,0.191843 -1.09375,-0.15625 l -1.65625,-2.15625 c -0.266894,-0.348095 -0.191853,-0.826853 0.15625,-1.09375 l 3.0625,-2.34375 c 0.08702,-0.06672 0.18182,-0.130271 0.28125,-0.15625 0.07457,-0.01948 0.141304,-0.03357 0.21875,-0.03125 z m 39.5625,7.09375 c -0.819165,0.0044 -1.585426,0.256711 -2.15625,0.6875 -0.761098,0.574387 -1.173126,1.439092 -1.1875,2.40625 -0.01437,0.967161 0.348056,1.83402 0.84375,2.5 0.495685,0.665983 1.10537,1.149068 1.875,1.3125 6.840865,1.452692 13.162679,7.827364 13,14.5 0.02672,1.547692 -0.21022,3.117034 -0.71875,4.59375 -0.250519,0.72747 -0.187887,1.513553 0.125,2.28125 0.312878,0.767692 0.857513,1.503304 1.6875,2 0.829997,0.496697 1.794231,0.602996 2.687505,0.25 0.89327,-0.352992 1.71402,-1.148793 2.09375,-2.25 0.7708,-2.235373 1.12858,-4.621204 1.09375,-7 -0.41856,-10.19146 -8.072436,-18.564678 -17.593755,-20.96875 -0.307115,-0.07763 -0.595457,-0.18511 -0.90625,-0.25 -0.279736,-0.05843 -0.570695,-0.06398 -0.84375,-0.0625 z m -48.96875,0.125 c 0.223548,0.007 0.443622,0.116698 0.59375,0.3125 l 1.65625,2.15625 c 0.266893,0.348094 0.191842,0.826854 -0.15625,1.09375 l -3.03125,2.34375 c -0.348097,0.266895 -0.858105,0.191843 -1.125,-0.15625 l -1.625,-2.125 c -0.266894,-0.348095 -0.223093,-0.858104 0.125,-1.125 l 3.0625,-2.3125 c 0.08702,-0.06672 0.18182,-0.130271 0.28125,-0.15625 0.07457,-0.01948 0.144234,-0.03357 0.21875,-0.03125 z m 28.1875,50.15625 c -0.33246,0.03722 -0.585121,0.125608 -0.6875,0.125 -2.957272,0.415508 -2.065677,4.550376 -0.8125,8.4375 0.106992,0.995017 -0.920111,0.604584 -1.59375,-0.4375 -2.271948,-5.560166 -3.272787,-5.369558 -3.90625,-5.53125 -0.606768,-0.125085 -2.703116,0.969453 -2.65625,3.21875 0.0079,0.646162 0.807031,3.711102 0.8125,4.65625 -1.401095,1.115806 -1.379351,3.576766 -2.84375,4.5 -4.282907,0.813272 -14.596023,-1.910449 -15.875,-2.03125 -4.448845,-0.758028 -6.432695,2.313399 -7.15625,1.59375 -5.75731,-6.01622 -14.58584,-10.507813 -18.40625,-11.28125 -0.236605,-0.0479 -0.6779705,-0.193896 -1.0624999,-0.3125 l 0,1.8125 c 2.2651139,1.109253 4.4498329,2.214547 5.9374999,3.0625 4.807897,2.678395 11.303004,8.137868 11.8125,9.0625 -4.996897,7.93264 -2.629213,14.883016 -3.21875,15.624996 -0.427223,0.62943 -4.384859,4.64438 -3.125,5.21875 1.259861,0.57437 3.202109,-0.20458 3.5,-0.375 0.632659,-0.36193 1.356702,-1.01375 1.09375,0 -0.535699,2.06528 -3.088066,7.08628 0.25,6.03125 0.398511,-0.20625 5.788691,-5.66883 6.4375,-5.84375 10.658346,2.52731 22.655513,1.45198 24.875,0.5 1.142339,0.0612 4.363348,1.9911 6.21875,2.875 1.855401,0.8839 6.966878,3.03783 5.46875,-0.96875 -0.451998,-1.26553 -3.838944,-4.49032 -3.28125,-4.6875 1.191778,-0.42117 4.152115,1.11839 5.28125,1.40625 3.377535,0.86109 3.817518,-0.39767 1.6875,-3.03125 -2.130017,-2.63359 -2.416456,-2.25789 -3.0625,-3.46875 -0.517627,-0.9702 -0.1709,-2.108 0.21875,-2.375 0.683784,-0.48031 10.893754,-5.483478 13.25,-7.437496 3.512696,-2.905018 -0.05781,-6.583361 -0.90625,-7.09375 -7.277788,-4.759954 -14.714348,-3.776368 -14.8125,-4.53125 -0.05147,-0.872541 -0.06224,-3.294535 -0.1875,-4.15625 -0.538877,-4.374567 -2.252619,-4.674149 -3.25,-4.5625 z m 16.96875,4.90625 c -1.384949,1.355855 -1.14634,6.368134 -0.84375,6.3125 1.418092,-0.260733 1.261992,-6.721979 0.84375,-6.3125 z m 3.9375,0.71875 c -0.53366,0.178344 -3.768429,4.358651 -3.15625,5.96875 0.284882,0.749319 3.710921,-4.635502 3.21875,-5.9375 -0.0091,-0.02589 -0.02722,-0.04315 -0.0625,-0.03125 z m -18.90625,7.875 c 0.02417,-0.0013 0.03653,0.03562 0.0625,0.0625 0.428836,1.28666 0.943742,2.626311 3.75,2.9375 0.322775,0.03611 -1.57513,1.017925 -2.875,0.40625 -1.173392,-0.656672 -1.27665,-3.040765 -1,-3.34375 0.01976,-0.02164 0.03833,-0.06119 0.0625,-0.0625 z m 7.65625,6.4375 c 0.110274,-0.0037 0.191892,0.01345 0.28125,0.03125 0.679374,0.14874 -4.99356,2.96912 -5.4375,2.59375 -0.294327,-0.248918 3.502136,-2.5697 5.15625,-2.625 z m 0.84375,1.78125 c 0.08771,-0.01819 0.174743,-0.0056 0.25,0 0.597968,0.04591 -3.399684,3.68786 -3.84375,3.3125 -0.294345,-0.24892 2.27808,-3.039609 3.59375,-3.3125 z m 25.906255,2.65625 c 0.7759,1.15478 0.52614,2.703846 -0.593755,3.562496 l -0.5625,0.46875 c -1.119904,0.85865 -2.711157,0.67402 -3.625,-0.375 l 4.781255,-3.656246 z" style="fill:#aaaaaa"/>
</svg>