<?xml version="1.0" encoding="UTF-8" standalone="no"?>
<svg xmlns:dc="http://purl.org/dc/elements/1.1/"
     xmlns:cc="http://creativecommons.org/ns#"
     xmlns:rdf="http://www.w3.org/1999/02/22-rdf-syntax-ns#"
     xmlns:svg="http://www.w3.org/2000/svg"
     xmlns="http://www.w3.org/2000/svg"
     xmlns:xlink="http://www.w3.org/1999/xlink"
     width="128" height="128" version="1.1">
    <title>Network Monitor Icon</title>
    <desc>This is shape (source) for Clarity vector icon theme for gtk</desc>
    <metadata>
        <rdf:RDF>
            <cc:Work rdf:about="">
                <dc:title>Network Monitor Icon</dc:title>
                <dc:description>This is shape (source) for Clarity vector icon theme for gtk</dc:description>
                <dc:creator>
                    <cc:Agent>
                        <dc:title>Jakub Jankiewicz</dc:title>
                    </cc:Agent>
                </dc:creator>
                <dc:rights>
                    <cc:Agent>
                        <dc:title>Jakub Jankiewicz</dc:title>
                    </cc:Agent>
                </dc:rights>
                <dc:date>2010</dc:date>
                <dc:format>image/svg+xml</dc:format>
                <dc:type rdf:resource="http://purl.org/dc/dcmitype/StillImage" />
                <cc:license rdf:resource="http://creativecommons.org/licenses/by-sa/3.0/" />
             </cc:Work>
        </rdf:RDF>
    </metadata>
    <path d="M 23.142578 14.210938 C 19.260468 14.210938 16.128906 17.307343 16.128906 21.189453 L 16.128906 76.865234 C 16.128906 80.747341 19.260468 83.880859 23.142578 83.880859 L 104.89453 83.880859 C 108.77665 83.880859 111.87109 80.747341 111.87109 76.865234 L 111.87109 21.189453 C 111.87109 17.307345 108.77665 14.210937 104.89453 14.210938 L 23.142578 14.210938 z M 26.044922 22.21875 L 101.99219 22.21875 L 101.99219 48.332031 C 99.449777 48.358989 89.419853 48.388147 87.978516 48.390625 C 87.744519 47.861565 87.504543 46.919872 87.294922 45.865234 C 86.875673 43.755959 86.590326 41.235246 86.173828 39.654297 C 86.069685 39.259061 85.978 38.93775 85.753906 38.554688 C 85.641882 38.363149 85.533676 38.13109 85.089844 37.841797 C 84.645975 37.552482 83.474057 37.352977 82.791016 37.597656 C 82.107989 37.842333 81.910428 38.142636 81.746094 38.355469 C 81.581764 38.568298 81.480823 38.760333 81.382812 38.970703 C 81.186684 39.391446 81.017944 39.888008 80.832031 40.552734 C 80.134764 43.045889 79.211478 48.140005 77.90625 56.626953 C 76.981665 51.763596 75.820004 44.774291 73.916016 32.203125 L 73.894531 32.203125 C 73.841852 31.617959 73.7856 31.159571 73.667969 30.761719 C 73.606161 30.552849 73.571 30.359492 73.326172 30.046875 C 73.203769 29.890567 73.030664 29.68981 72.603516 29.492188 C 72.176378 29.294587 71.426886 29.211876 70.912109 29.333984 C 69.88256 29.578232 69.771344 29.952416 69.619141 30.162109 C 69.466884 30.371801 69.380545 30.542934 69.296875 30.732422 C 69.129534 31.111407 68.990295 31.555307 68.839844 32.089844 C 68.237751 34.227993 67.549568 37.885074 66.826172 42.125 C 65.707968 48.679112 64.761836 54.959701 63.9375 60.052734 C 63.288119 54.537663 62.684291 48.661639 61.181641 35.828125 L 61.162109 35.814453 L 61.162109 35.800781 C 60.915115 34.160688 60.692574 32.15385 60.421875 30.533203 C 60.286517 29.72288 60.151137 29.017814 59.945312 28.419922 C 59.842396 28.120978 59.747581 27.859628 59.488281 27.521484 C 59.358621 27.352416 59.195867 27.14823 58.804688 26.935547 C 58.413528 26.722865 57.669644 26.554247 57.056641 26.664062 C 55.830614 26.883674 55.639187 27.395233 55.421875 27.720703 C 55.204565 28.046176 55.048785 28.388817 54.890625 28.806641 C 54.574246 29.64229 54.254576 30.804591 53.882812 32.458984 C 53.144405 35.744924 52.232036 40.985724 51.050781 48.875 C 51.042031 48.929871 51.041503 48.935114 51.033203 48.990234 C 50.471969 51.227443 49.96237 53.522583 49.474609 55.556641 C 49.20676 53.515936 48.9328 50.992069 48.65625 47.576172 L 48.65625 47.5625 C 48.331917 44.061814 48.074666 41.539001 47.78125 39.869141 C 47.634529 39.034213 47.502815 38.448584 47.230469 37.884766 C 47.094305 37.602855 46.992653 37.28129 46.355469 36.900391 C 46.036881 36.70993 45.499328 36.530879 44.949219 36.542969 C 44.399096 36.554969 43.952305 36.730018 43.677734 36.884766 C 42.579465 37.503727 42.614497 37.928649 42.308594 38.554688 C 42.002706 39.180723 41.701691 39.970777 41.337891 40.966797 C 40.707194 42.693545 39.859003 45.29522 38.888672 48.21875 C 38.696111 48.216566 31.791786 48.213706 26.044922 48.210938 L 26.044922 22.21875 z M 57.246094 35.828125 C 57.258574 35.913636 57.272516 36.001736 57.285156 36.085938 C 57.288356 36.108327 57.281956 36.106486 57.285156 36.128906 C 59.218962 52.650515 60.141311 62.747659 60.857422 67.460938 C 61.036684 68.640856 61.198309 69.47023 61.408203 70.101562 C 61.513162 70.417231 61.498088 70.654989 61.998047 71.130859 C 62.248036 71.368789 62.901819 71.783748 63.783203 71.742188 C 64.664583 71.700601 65.126132 71.315359 65.341797 71.101562 C 65.773157 70.674027 65.79708 70.439317 65.914062 70.130859 C 66.030984 69.822403 66.146924 69.477631 66.253906 69.060547 C 66.46788 68.226373 66.678257 67.120389 66.939453 65.734375 C 67.725993 61.560731 69.262709 50.925291 70.701172 42.494141 C 70.882308 41.432524 71.020241 40.999771 71.197266 40.025391 C 73.163817 52.782606 74.480743 60.764204 75.376953 63.478516 C 75.512862 63.890128 75.6549 64.217829 75.833984 64.535156 C 76.013061 64.852478 76.041989 65.293183 77.203125 65.648438 C 77.783705 65.826058 78.661494 65.739176 79.121094 65.519531 C 79.580702 65.299879 79.764417 65.079141 79.900391 64.90625 C 80.172244 64.560442 80.267104 64.299734 80.376953 63.992188 C 80.816235 62.761995 81.115933 60.850009 81.554688 58.410156 L 81.554688 58.396484 L 81.554688 58.382812 C 82.337607 53.213211 82.956277 49.477164 83.492188 46.591797 C 83.6986 47.587987 83.925515 48.536055 84.271484 49.318359 C 84.463401 49.752307 84.667931 50.155541 85.107422 50.574219 C 85.479124 50.928313 86.360097 51.259766 87.255859 51.259766 C 89.696794 51.259766 98.927911 51.24919 101.99219 51.246094 L 101.99219 75.875 L 26.044922 75.875 L 26.044922 51.142578 C 32.433487 51.150165 40.351562 51.160156 40.351562 51.160156 L 41.910156 51.189453 L 42.289062 50.046875 C 43.15829 47.43639 43.744822 45.745928 44.341797 44.007812 C 44.479844 45.256246 44.600779 46.011463 44.761719 47.748047 C 44.762184 47.753797 44.761255 47.756019 44.761719 47.761719 C 45.257591 53.882856 45.72858 57.664909 46.242188 59.867188 C 46.499222 60.969363 46.566609 61.597843 47.287109 62.365234 C 47.467234 62.55708 47.718067 62.786721 48.199219 62.964844 C 48.680387 63.142989 49.421957 63.175895 49.929688 63.035156 C 50.945169 62.753672 51.13805 62.331529 51.355469 62.021484 C 52.225167 60.781293 52.565994 59.120056 53.123047 56.855469 C 53.680097 54.590886 54.265237 51.899926 54.890625 49.417969 L 54.890625 49.375 L 54.908203 49.318359 C 55.888105 42.763126 56.592885 39.067869 57.246094 35.828125 z M 79.369141 63.263672 C 79.468431 63.363098 79.446451 63.428608 79.425781 63.392578 C 79.418021 63.378749 79.381781 63.290482 79.369141 63.263672 z M 40.292969 88.691406 C 36.161476 88.691406 32.837891 92.014994 32.837891 96.146484 L 58.15625 96.146484 L 58.15625 108.13672 L 52.21875 108.13672 C 50.78025 108.13672 49.625 109.29196 49.625 110.73047 L 49.625 115.54297 C 49.625 116.98148 50.78025 118.13672 52.21875 118.13672 L 75.78125 118.13672 C 77.219769 118.13672 78.375 116.98148 78.375 115.54297 L 78.375 110.73047 C 78.375 109.29196 77.219769 108.13672 75.78125 108.13672 L 69.84375 108.13672 L 69.84375 96.146484 L 95.199219 96.146484 C 95.199219 92.014994 91.875636 88.691406 87.744141 88.691406 L 40.292969 88.691406 z M 7.75 109.88672 L 7.75 116.38672 L 47.34375 116.38672 C 47.34275 116.34312 47.34375 116.30562 47.34375 116.26172 L 47.34375 110.82422 C 47.34375 110.50448 47.3817 110.18981 47.4375 109.88672 L 7.75 109.88672 z M 80.5625 109.88672 C 80.6184 110.18981 80.65625 110.50448 80.65625 110.82422 L 80.65625 116.26172 C 80.65625 116.30562 80.65725 116.34312 80.65625 116.38672 L 120.25 116.38672 L 120.25 109.88672 L 80.5625 109.88672 z " style="fill:#aaaaaa"/>
</svg>