<?xml version="1.0" encoding="UTF-8" standalone="no"?>
<svg xmlns:dc="http://purl.org/dc/elements/1.1/"
     xmlns:cc="http://creativecommons.org/ns#"
     xmlns:rdf="http://www.w3.org/1999/02/22-rdf-syntax-ns#"
     xmlns:svg="http://www.w3.org/2000/svg"
     xmlns="http://www.w3.org/2000/svg"
     xmlns:xlink="http://www.w3.org/1999/xlink"
     width="128" height="128" version="1.1">
    <title>CPU Graph Icon</title>
    <desc>This is shape (source) for Clarity vector icon theme for gtk</desc>
    <metadata>
        <rdf:RDF>
            <cc:Work rdf:about="">
                <dc:title>CPU Graph Icon</dc:title>
                <dc:description>This is shape (source) for Clarity vector icon theme for gtk</dc:description>
                <dc:creator>
                    <cc:Agent>
                        <dc:title>Jakub Jankiewicz</dc:title>
                    </cc:Agent>
                </dc:creator>
                <dc:rights>
                    <cc:Agent>
                        <dc:title>Jakub Jankiewicz</dc:title>
                    </cc:Agent>
                </dc:rights>
                <dc:date>2010</dc:date>
                <dc:format>image/svg+xml</dc:format>
                <dc:type rdf:resource="http://purl.org/dc/dcmitype/StillImage" />
                <cc:license rdf:resource="http://creativecommons.org/licenses/by-sa/3.0/" />
             </cc:Work>
        </rdf:RDF>
    </metadata>
    <path d="m 42.298536,7.6943856 c -2.32931,0 -4.202402,1.8730902 -4.202402,4.2024014 v 13.52648 h 8.404803 v -13.52648 c 0,-2.3293112 -1.873088,-4.2024014 -4.202401,-4.2024014 z m 14.445755,0 c -2.32931,0 -4.16957,1.8730902 -4.16957,4.2024014 v 13.52648 h 8.404803 v -13.52648 c 0,-2.3293112 -1.905923,-4.2024014 -4.235233,-4.2024014 z m 14.511418,0 c -2.32931,0 -4.235233,1.8730902 -4.235233,4.2024014 v 13.52648 h 8.404803 v -13.52648 c 0,-2.3293112 -1.84026,-4.2024014 -4.16957,-4.2024014 z m 14.478586,0 c -2.32931,0 -4.235232,1.8730902 -4.235232,4.2024014 v 13.52648 h 8.404803 v -13.52648 c 0,-2.3293112 -1.840257,-4.2024014 -4.169571,-4.2024014 z M 39.704866,28.345249 c -6.298139,0 -11.392448,5.061474 -11.392448,11.359617 v 22.821831 c 4.497318,0.0063 7.689552,0.01377 8.033399,0.01847 1.093672,-4.387179 2.051057,-8.290274 2.761931,-10.881511 0.410045,-1.49467 0.748909,-2.680188 1.093691,-3.619646 0.344781,-0.93946 0.305206,-1.578648 1.543069,-2.507488 0.309466,-0.232209 0.814274,-0.494981 1.434316,-0.512988 0.620049,-0.01801 1.225027,0.249761 1.584108,0.53556 0.718168,0.571597 0.833518,1.054359 0.98699,1.477407 0.306943,0.846095 0.454326,1.724451 0.61969,2.977384 0.330729,2.505866 0.621428,6.293062 0.98699,11.546344 v 0.02052 c 0.311694,5.126053 0.61943,8.912828 0.921327,11.975202 0.549773,-3.052401 1.123886,-6.496225 1.756473,-9.853482 0.0092,-0.08271 0.01127,-0.09006 0.02052,-0.172365 1.331405,-11.839004 2.358524,-19.702674 3.190789,-24.633705 0.419033,-2.482657 0.780197,-4.228805 1.136782,-5.482821 0.178292,-0.627007 0.354244,-1.140835 0.599171,-1.629251 0.244935,-0.488418 0.460787,-1.254551 1.842654,-1.584109 0.690934,-0.16478 1.528991,0.08713 1.969876,0.406287 0.440893,0.319161 0.625397,0.62452 0.771535,0.878236 0.29228,0.50743 0.399043,0.901575 0.51504,1.350186 0.231992,0.897221 0.383008,1.954261 0.53556,3.170269 0.305112,2.432016 0.556764,5.442924 0.835146,7.904125 v 0.02052 l 0.02052,0.02257 c 1.693678,19.258549 2.374746,28.076248 3.106658,36.352414 0.92913,-7.642838 1.996095,-17.069827 3.256451,-26.905219 0.815349,-6.362626 1.590839,-11.850687 2.269461,-15.059289 0.169656,-0.80215 0.326437,-1.466815 0.51504,-2.035538 0.0943,-0.284363 0.191601,-0.543043 0.363196,-0.857717 0.171603,-0.314674 0.296463,-0.874903 1.456887,-1.241432 0.580216,-0.183265 1.424834,-0.06057 1.906265,0.235974 0.481439,0.296547 0.676653,0.600582 0.814626,0.835145 0.275952,0.469128 0.316123,0.75768 0.385767,1.071121 0.132674,0.597035 0.197136,1.284635 0.256495,2.162759 h 0.02257 c 2.146011,18.864859 3.455771,29.353826 4.497883,36.652 1.47115,-12.735895 2.511577,-20.379373 3.29749,-24.120717 0.209544,-0.997518 0.40069,-1.74478 0.621742,-2.376163 0.110534,-0.315692 0.223103,-0.601944 0.408339,-0.921327 0.18524,-0.319383 0.407965,-0.76961 1.177822,-1.136784 0.769865,-0.367173 2.091334,-0.06888 2.591617,0.365249 0.500247,0.434128 0.622685,0.783695 0.748963,1.07112 0.252557,0.574847 0.354582,1.056661 0.47195,1.64977 0.469454,2.372441 0.791459,6.152652 1.264003,9.317923 0.236281,1.582635 0.507809,2.998079 0.771535,3.792011 1.704716,-0.004 5.937016,-0.05243 7.977997,-0.09439 V 39.704866 c 0,-6.298142 -5.061476,-11.359617 -11.359617,-11.359617 z m -27.808079,9.750885 c -2.3293122,0 -4.2024014,1.840258 -4.2024014,4.169571 0,2.329309 1.8730892,4.235232 4.2024014,4.235232 h 13.52648 v -8.404803 z m 90.679943,0 v 8.404803 h 13.52648 c 2.32931,0 4.2024,-1.873091 4.2024,-4.202401 0,-2.329309 -1.87309,-4.202402 -4.2024,-4.202402 z m -45.539009,5.856277 c -0.736252,4.861706 -1.530254,10.405444 -2.63471,20.242525 l -0.02052,0.08618 v 0.06361 c -0.70489,3.724535 -1.364583,7.762241 -1.992447,11.160578 -0.627856,3.398338 -1.01218,5.89325 -1.992448,7.754333 -0.245065,0.465271 -0.462123,1.098092 -1.606679,1.520498 -0.572276,0.211202 -1.407041,0.160613 -1.949356,-0.106702 -0.542308,-0.267315 -0.825004,-0.61086 -1.028029,-0.898755 -0.812085,-1.151581 -0.888113,-2.094946 -1.177822,-3.74892 -0.57888,-3.304834 -1.111392,-8.980291 -1.67029,-18.165948 -5.28e-4,-0.0087 5.29e-4,-0.0119 0,-0.02052 -0.181398,-2.605994 -0.31636,-3.738644 -0.471949,-5.612094 -0.672865,2.608291 -1.334886,5.144013 -2.314604,9.061429 l -0.426807,1.713382 -1.756472,-0.04309 c 0,0 -4.068192,-0.02763 -9.683171,-0.03899 v 21.375204 c 0,6.298142 5.094309,11.392448 11.392448,11.392448 h 48.590268 c 6.298141,0 11.359617,-5.094306 11.359617,-11.392448 V 67.08819 c -2.864079,0.0039 -5.912329,0.02052 -8.792623,0.02052 -1.009628,0 -2.002348,-0.496658 -2.421305,-1.028029 -0.495365,-0.628288 -0.725529,-1.234544 -0.941847,-1.885745 -0.389951,-1.173963 -0.645572,-2.596672 -0.878236,-4.091596 -0.604027,4.32991 -1.302898,9.93626 -2.185331,17.693997 v 0.02257 0.02052 c -0.494531,3.661351 -0.832501,6.529992 -1.327614,8.376075 -0.123777,0.461521 -0.229152,0.851772 -0.535561,1.370706 -0.153205,0.259467 -0.3602,0.591708 -0.878236,0.921327 -0.51803,0.329611 -1.508388,0.459432 -2.162759,0.192884 -1.308734,-0.533096 -1.341224,-1.194103 -1.54307,-1.670291 -0.201838,-0.476194 -0.361856,-0.968476 -0.51504,-1.58616 -1.010127,-4.07322 -2.494767,-16.051062 -4.711286,-35.195113 -0.199536,1.462198 -0.353975,2.112714 -0.558131,3.705829 -1.621319,12.652161 -3.354868,28.609796 -4.241389,34.872955 -0.294399,2.079917 -0.530356,3.740607 -0.771535,4.992405 -0.120589,0.625895 -0.251938,1.143795 -0.383715,1.606679 -0.131768,0.462885 -0.158206,0.815307 -0.644313,1.456888 -0.243049,0.3208 -0.763059,0.899961 -1.756473,0.962366 -0.993408,0.06238 -1.731209,-0.562228 -2.012967,-0.919275 C 61.829806,96.2136 61.84678,95.85834 61.728487,95.384635 61.491915,94.437224 61.310855,93.192948 61.108797,91.422311 60.301668,84.349353 59.260418,69.19486 57.080811,44.401788 c -0.0027,-0.03364 0.0027,-0.02994 0,-0.06361 -0.01419,-0.126376 -0.02903,-0.257449 -0.04309,-0.385767 z m -45.140934,8.62231 c -2.3293122,0 -4.2024014,1.840259 -4.2024014,4.16957 0,2.32931 1.8730892,4.235233 4.2024014,4.235233 h 13.52648 v -8.404803 z m 90.679943,0 v 8.404803 h 13.52648 c 2.32931,0 4.2024,-1.905923 4.2024,-4.235233 0,-2.329311 -1.87309,-4.16957 -4.2024,-4.16957 z M 11.896787,67.020476 c -2.3293122,0 -4.2024014,1.905923 -4.2024014,4.235233 0,2.32931 1.8730892,4.16957 4.2024014,4.16957 h 13.52648 v -8.404803 z m 90.679943,0 v 8.404803 h 13.52648 c 2.32931,0 4.2024,-1.84026 4.2024,-4.16957 0,-2.32931 -1.87309,-4.235233 -4.2024,-4.235233 z M 11.896787,81.499063 c -2.3293122,0 -4.2024014,1.873091 -4.2024014,4.202401 0,2.32931 1.8730892,4.202402 4.2024014,4.202402 h 13.52648 v -8.404803 z m 90.679943,0 v 8.404803 h 13.52648 c 2.32931,0 4.2024,-1.84026 4.2024,-4.169571 0,-2.32931 -1.87309,-4.235232 -4.2024,-4.235232 z m -20.603666,3.62375 c 0.01433,0.04025 0.05489,0.172123 0.06361,0.192883 0.02295,0.05406 0.04831,-0.04367 -0.06361,-0.192883 z m -43.87693,17.453917 v 13.52648 c 0,2.32931 1.84026,4.2024 4.169571,4.2024 2.329312,0 4.235232,-1.87309 4.235232,-4.2024 v -13.52648 z m 14.478587,0 v 13.52648 c 0,2.32931 1.840259,4.2024 4.16957,4.2024 2.32931,0 4.235233,-1.87309 4.235233,-4.2024 v -13.52648 z m 14.445755,0 v 13.52648 c 0,2.32931 1.905923,4.2024 4.235233,4.2024 2.32931,0 4.16957,-1.87309 4.16957,-4.2024 v -13.52648 z m 14.478587,0 v 13.52648 c 0,2.32931 1.873091,4.2024 4.202401,4.2024 2.329312,0 4.202402,-1.87309 4.202402,-4.2024 v -13.52648 z" style="fill:#aaaaaa"/>
</svg>