<?xml version="1.0" encoding="UTF-8" standalone="no"?>
<svg xmlns:dc="http://purl.org/dc/elements/1.1/"
     xmlns:cc="http://creativecommons.org/ns#"
     xmlns:rdf="http://www.w3.org/1999/02/22-rdf-syntax-ns#"
     xmlns:svg="http://www.w3.org/2000/svg"
     xmlns="http://www.w3.org/2000/svg"
     xmlns:xlink="http://www.w3.org/1999/xlink"
     width="128" height="128" version="1.1">
    <title>Xfce panel menu icon</title>
    <desc>This is shape (source) for Clarity vector icon theme for gtk</desc>
    <metadata>
        <rdf:RDF>
            <cc:Work rdf:about="">
                <dc:title>Xfce panel menu icon</dc:title>
                <dc:description>This is shape (source) for Clarity vector icon theme for gtk</dc:description>
                <dc:creator>
                    <cc:Agent>
                        <dc:title>Jakub Jankiewicz</dc:title>
                    </cc:Agent>
                </dc:creator>
                <dc:rights>
                    <cc:Agent>
                        <dc:title>Jakub Jankiewicz</dc:title>
                    </cc:Agent>
                </dc:rights>
                <dc:date>2010</dc:date>
                <dc:format>image/svg+xml</dc:format>
                <dc:type rdf:resource="http://purl.org/dc/dcmitype/StillImage" />
                <cc:license rdf:resource="http://www.gnu.org/copyleft/gpl.html" />
             </cc:Work>
        </rdf:RDF>
    </metadata>
    <path d="M 38.3125 13.75 L 13.75 38.3125 L 14.5625 39.125 C 16.376605 39.813007 18.056685 40.391272 18.59375 40.5 C 21.322009 41.052333 25.248667 42.724843 29.5625 45.21875 C 33.640844 47.576517 37.940587 50.713595 41.53125 54.3125 C 41.857776 54.131659 42.264727 53.889149 42.90625 53.5625 C 44.46408 52.769289 46.881297 51.948643 49.96875 52.4375 L 49.96875 52.40625 C 49.99967 52.40917 50.06238 52.4341 50.09375 52.4375 C 50.84676 52.519712 51.695288 52.725005 53.125 53.03125 C 54.614278 53.350254 56.517435 53.764649 58.5 54.125 C 62.261442 54.808679 66.377177 55.224129 68.5625 54.9375 C 68.858305 54.668883 69.185447 54.217668 69.5625 53.28125 C 69.885066 52.480152 70.362989 51.503292 71.09375 50.59375 C 71.039636 50.176312 70.918001 49.357815 70.71875 48.375 C 70.599562 47.787101 70.47029 47.194074 70.375 46.6875 C 70.27971 46.180926 70.1938 45.862233 70.1875 45.34375 C 70.147569 43.427291 71.047636 41.898753 72.0625 40.96875 C 72.569932 40.503748 73.124284 40.169061 73.65625 39.9375 C 74.188216 39.70594 74.637847 39.478517 75.5 39.65625 A 1.6841443 1.6841443 0 0 1 75.5625 39.6875 C 75.635733 39.706193 77.039862 40.015038 78.03125 41.125 C 78.299109 41.424896 78.594782 41.954444 78.875 42.375 C 78.86745 42.213468 78.8135 42.034377 78.8125 41.875 C 78.804982 40.71888 78.96325 39.585467 79.59375 38.5625 C 80.22425 37.539533 81.414333 36.808276 82.71875 36.625 A 1.6841443 1.6841443 0 0 1 82.875 36.59375 C 83.033702 36.55862 83.294649 36.50243 83.59375 36.46875 C 84.191952 36.401379 85.031425 36.411168 85.90625 36.8125 C 87.650314 37.612601 88.956428 39.68012 89.4375 43.53125 C 89.439 43.54359 89.436 43.55013 89.4375 43.5625 C 89.54142 44.294152 89.5897 45.242743 89.625 46.25 C 89.64441 46.803656 89.67208 47.157711 89.6875 47.625 C 89.7601 47.63385 89.76444 47.64745 89.84375 47.65625 C 90.821182 47.764531 92.311889 47.898105 94.09375 48.1875 C 96.272351 48.54133 98.946297 49.191466 101.75 50.3125 C 101.7297 49.77801 101.68585 49.287102 101.71875 48.65625 C 101.76841 47.704097 101.87963 46.688042 102.125 45.71875 C 102.37037 44.749458 102.68479 43.766832 103.5 42.96875 C 103.71872 42.754613 104.16907 42.45842 104.75 42.46875 C 105.33093 42.479079 105.79037 42.812261 106 43.03125 C 106.41925 43.469229 106.40925 43.678222 106.46875 43.875 C 106.58775 44.268556 106.61875 44.601603 106.65625 45 C 106.67685 45.218873 106.64465 45.533542 106.65625 45.78125 C 106.86318 45.507683 107.08724 45.16858 107.28125 44.9375 C 107.53767 44.632078 107.76558 44.383152 108 44.15625 C 108.23442 43.929348 108.25351 43.728664 109.03125 43.46875 C 109.04686 43.463484 109.07699 43.473642 109.09375 43.46875 L 114.25 38.3125 L 89.6875 13.75 L 64 39.4375 L 38.3125 13.75 z M 3.40625 36.25 C 3.3531112 36.278 3.32646 36.323886 3.375 36.40625 C 2.49831 36.43805 4.19352 37.644265 4.78125 38.0625 C 5.14761 38.484307 18.680037 44.557373 24.28125 47.75 C 30.208547 51.051993 38.21563 57.797591 38.84375 58.9375 C 32.68345 68.717055 35.601796 77.272762 34.875 78.1875 C 34.348308 78.963471 29.446814 83.916904 31 84.625 C 32.553188 85.333108 34.976503 84.366353 35.34375 84.15625 C 36.123708 83.710046 37.011674 82.906465 36.6875 84.15625 C 36.027077 86.702384 32.853499 92.89443 36.96875 91.59375 C 37.460045 91.33949 44.137632 84.621884 44.9375 84.40625 C 58.077377 87.52197 72.857511 86.204875 75.59375 85.03125 C 77.002054 85.10665 80.993864 87.4728 83.28125 88.5625 C 85.568636 89.65218 91.846927 92.31442 90 87.375 C 89.442765 85.814829 85.281211 81.836834 85.96875 81.59375 C 87.438004 81.074514 91.076721 82.988869 92.46875 83.34375 C 96.63266 84.405317 97.18844 82.840496 94.5625 79.59375 C 91.936561 76.347003 91.577714 76.836517 90.78125 75.34375 C 90.143107 74.147659 90.582134 72.735413 91.0625 72.40625 C 91.90549 71.814111 104.47016 65.627705 107.375 63.21875 C 111.70554 59.637364 107.32724 55.12922 106.28125 54.5 C 97.30901 48.631809 88.152254 49.805638 88.03125 48.875 C 87.9678 47.79931 87.935672 44.843593 87.78125 43.78125 C 86.895462 36.590481 83.442361 38.284247 82.9375 38.28125 C 79.291701 38.793499 80.392552 43.895356 81.9375 48.6875 C 82.069402 49.914182 80.767979 49.472207 79.9375 48.1875 C 77.136585 41.332787 75.937198 41.511837 75.15625 41.3125 C 74.408211 41.158292 71.817222 42.53951 71.875 45.3125 C 71.8847 46.109105 72.837008 49.866048 72.84375 51.03125 C 71.116445 52.406843 71.149098 55.455564 69.34375 56.59375 C 64.063674 57.596372 51.389254 54.242677 49.8125 54.09375 C 44.327851 53.159234 41.860767 56.949702 40.96875 56.0625 C 33.870994 48.645553 22.959898 43.109763 18.25 42.15625 C 16.427292 41.787247 10.40767 39.458977 8.1875 38.21875 C 6.52237 37.288578 4.45918 36.362683 3.6875 36.25 C 3.558885 36.231215 3.4593888 36.222 3.40625 36.25 z M 104.6875 44.1875 C 102.9801 45.859032 103.28321 52.037337 103.65625 51.96875 C 105.40451 51.647312 105.20312 43.682685 104.6875 44.1875 z M 109.5625 45.0625 C 108.90459 45.282367 104.87029 50.45253 105.625 52.4375 C 105.97621 53.36128 110.23176 46.730136 109.625 45.125 C 109.6138 45.09308 109.606 45.04783 109.5625 45.0625 z M 26.625 51.1875 L 36.0625 60.625 C 36.297864 60.153233 36.541114 59.665736 36.8125 59.1875 C 36.580752 58.95827 36.340585 58.714914 36 58.40625 C 35.105191 57.595307 33.886147 56.57014 32.5 55.46875 C 30.702337 54.040383 28.632778 52.524462 26.625 51.1875 z M 86.21875 54.8125 C 86.248549 54.810887 86.280484 54.81062 86.3125 54.84375 C 86.84118 56.429977 87.477877 58.085109 90.9375 58.46875 C 91.33543 58.51327 88.977513 59.754094 87.375 59 C 85.928414 58.190439 85.815189 55.217278 86.15625 54.84375 C 86.180615 54.81707 86.188951 54.814113 86.21875 54.8125 z M 95.65625 62.71875 C 95.792199 62.714205 95.921087 62.728058 96.03125 62.75 C 96.8688 62.933368 89.8598 66.431517 89.3125 65.96875 C 88.949645 65.66188 93.617017 62.786926 95.65625 62.71875 z M 97.03125 64.90625 C 97.76844 64.96287 92.828709 69.462751 92.28125 69 C 91.89419 68.672669 95.54679 64.795773 97.03125 64.90625 z M 33.25 70.1875 L 13.75 89.6875 L 38.3125 114.25 L 64 88.5625 L 89.6875 114.25 L 114.25 89.6875 L 96.15625 71.59375 C 95.564788 71.905829 94.839598 72.303509 94.34375 72.5625 C 93.674255 72.91219 93.105419 73.213399 92.6875 73.4375 C 92.403434 73.58983 92.34587 73.6334 92.25 73.6875 C 92.21912 73.72932 92.16802 73.74144 92.15625 73.8125 C 92.118009 74.043438 92.16724 74.348808 92.28125 74.5625 C 92.594051 75.148764 92.597342 75.083223 93.125 75.5625 C 93.652658 76.041777 94.512422 76.84654 95.875 78.53125 C 96.591342 79.416945 97.11843 80.216006 97.46875 81.03125 C 97.81907 81.846494 98.06541 82.834938 97.5625 83.84375 C 97.05959 84.852562 95.970418 85.27048 95.0625 85.34375 C 94.154582 85.417022 93.208135 85.260824 92.0625 84.96875 C 91.356079 84.788656 90.579332 84.436169 89.8125 84.125 C 90.002792 84.358647 90.196772 84.580398 90.375 84.8125 C 90.86047 85.444715 91.27619 86.003406 91.5625 86.78125 C 91.5658 86.79028 91.5592 86.8034 91.5625 86.8125 C 91.832371 87.540811 92.03015 88.195929 92.03125 88.875 C 92.032319 89.563862 91.822315 90.313234 91.34375 90.875 C 90.38662 91.99853 89.04788 92.02515 88 91.90625 C 85.90424 91.66845 83.765537 90.666861 82.5625 90.09375 C 81.33494 89.508946 79.764664 88.623732 78.34375 87.90625 C 77.633293 87.547509 76.974347 87.251507 76.4375 87.03125 C 75.938233 86.82641 75.5606 86.7587 75.5625 86.75 C 74.549169 87.092701 73.424606 87.320381 71.6875 87.53125 C 69.640638 87.77972 67.082204 87.95591 64.1875 88 C 58.628755 88.084672 51.888494 87.608091 45.375 86.15625 C 45.164533 86.324743 44.863488 86.548072 44.53125 86.84375 C 43.813049 87.48292 42.910549 88.354283 42 89.21875 C 41.089451 90.083217 40.184928 90.948 39.46875 91.625 C 39.110661 91.9635 38.81308 92.24281 38.5625 92.46875 C 38.43721 92.58172 38.324726 92.6932 38.21875 92.78125 C 38.112774 92.869301 38.107022 92.908981 37.75 93.09375 A 1.6841443 1.6841443 0 0 1 37.46875 93.1875 C 36.800948 93.39855 36.165485 93.519741 35.46875 93.40625 C 34.772015 93.292759 34.028371 92.819633 33.65625 92.21875 C 32.912007 91.016984 33.161838 89.973234 33.375 88.96875 C 33.593501 87.939105 33.910444 87.235429 34.25 86.28125 C 34.133227 86.30863 34.098817 86.34741 33.96875 86.375 C 32.9412 86.592975 31.65308 86.767429 30.3125 86.15625 C 29.629109 85.844693 29.07486 84.938205 29.03125 84.28125 C 28.987638 83.624295 29.16161 83.170845 29.34375 82.75 C 29.708031 81.90831 30.225703 81.167848 30.8125 80.40625 C 31.399297 79.644652 32.047019 78.904149 32.5625 78.3125 C 32.987894 77.824249 33.22933 77.5277 33.3125 77.4375 C 33.31107 77.197465 33.28555 76.793918 33.25 76.28125 C 33.17507 75.200644 33.05547 73.653065 33.125 71.8125 C 33.144571 71.294424 33.192541 70.752123 33.25 70.1875 z " style="fill:#aaaaaa"/>
</svg>