<?xml version="1.0" encoding="UTF-8" standalone="no"?>
<svg xmlns:dc="http://purl.org/dc/elements/1.1/"
     xmlns:cc="http://creativecommons.org/ns#"
     xmlns:rdf="http://www.w3.org/1999/02/22-rdf-syntax-ns#"
     xmlns:svg="http://www.w3.org/2000/svg"
     xmlns="http://www.w3.org/2000/svg"
     xmlns:xlink="http://www.w3.org/1999/xlink"
     width="128" height="128" version="1.1">
    <title>XFDashboard Icon</title>
    <desc>This is shape (source) for Clarity vector icon theme for gtk</desc>
    <metadata>
        <rdf:RDF>
            <cc:Work rdf:about="">
                <dc:title>XFDashboard Icon</dc:title>
                <dc:description>This is shape (source) for Clarity vector icon theme for gtk</dc:description>
                <dc:creator>
                    <cc:Agent>
                        <dc:title>Jakub Jankiewicz</dc:title>
                    </cc:Agent>
                </dc:creator>
                <dc:rights>
                    <cc:Agent>
                        <dc:title>Jakub Jankiewicz</dc:title>
                    </cc:Agent>
                </dc:rights>
                <dc:date>2010</dc:date>
                <dc:format>image/svg+xml</dc:format>
                <dc:type rdf:resource="http://purl.org/dc/dcmitype/StillImage" />
                <cc:license rdf:resource="http://creativecommons.org/licenses/by-sa/3.0/" />
             </cc:Work>
        </rdf:RDF>
    </metadata>
    <path d="m 13.753909,10.754884 c -3.433861,0 -6.1992196,2.763406 -6.1992196,6.197266 v 94.09375 c 0,3.43386 2.7653586,6.19922 6.1992196,6.19922 H 114.24805 c 3.43386,0 6.19726,-2.76536 6.19726,-6.19922 V 16.95215 c 0,-3.43386 -2.7634,-6.197266 -6.19726,-6.197266 z m 36.410156,8.757813 h 27.673828 c 0.681,0 1.228516,0.547517 1.228516,1.228515 v 38.337891 c -10e-7,0.681 -0.547516,1.228515 -1.228516,1.228515 H 50.164065 c -0.681,1e-6 -1.228516,-0.547515 -1.228516,-1.228515 V 20.741212 c 0,-0.680998 0.547516,-1.228515 1.228516,-1.228515 z m 5.390625,6.884765 2.535156,11.953125 -2.535156,15.074219 h 6.841797 l 0.669922,-4.408203 c 0.311617,-1.914217 0.554354,-3.723016 0.732421,-5.425781 0.645491,3.861821 1.359631,7.140727 2.138672,9.833984 h 6.509766 L 68.74219,38.350587 71.195315,26.397462 H 65.302737 L 63.79883,33.75879 C 63.609634,32.657001 63.373345,31.444489 63.083987,30.120118 62.716724,28.383968 62.47008,27.143117 62.347659,26.397462 Z M 29.082033,67.692384 h 27.673829 c 0.681,0 1.230468,0.549468 1.230468,1.230469 v 38.333987 c 0,0.681 -0.549468,1.22852 -1.230468,1.22852 H 29.082033 c -0.681001,0 -1.230468,-0.54752 -1.230468,-1.22852 V 68.922853 c 0,-0.681001 0.549468,-1.230469 1.230468,-1.230469 z m 42.164063,0 h 27.673828 c 0.680999,0 1.228516,0.547516 1.228516,1.228516 v 38.33594 c 0,0.681 -0.547517,1.22852 -1.228516,1.22852 H 71.246096 c -0.681,0 -1.228516,-0.54752 -1.228516,-1.22852 V 68.9209 c 0,-0.681 0.547516,-1.228516 1.228516,-1.228516 z m -34.277344,6.882813 v 27.027343 h 7.029297 V 90.252931 h 4.337891 v -5.142578 h -4.337891 v -5.125 h 4.873047 v -5.410156 z m 39.976563,0 v 27.027343 h 8.865234 c 1.680504,0 2.936797,-0.0915 3.771484,-0.26953 0.834687,-0.1892 1.533974,-0.51049 2.101563,-0.96679 0.567587,-0.467434 0.962964,-1.107504 1.185547,-1.91993 0.23371,-0.823558 0.351562,-2.448838 0.351562,-4.875 V 84.1084 c 0,-2.559708 -0.07661,-4.276456 -0.232422,-5.144532 -0.155808,-0.879205 -0.546688,-1.674452 -1.169921,-2.386718 -0.623233,-0.712266 -1.534379,-1.223539 -2.736329,-1.535156 -1.190821,-0.311617 -3.484509,-0.466797 -6.878906,-0.466797 z m 7.027344,4.623047 c 0.767915,0 1.29013,0.08502 1.568359,0.251953 0.278228,0.15581 0.457256,0.404996 0.535156,0.75 0.07792,0.345005 0.115235,1.129306 0.115235,2.353515 v 10.501953 c 0,1.802929 -0.113944,2.908535 -0.347657,3.320313 -0.233712,0.40065 -0.858338,0.601562 -1.871093,0.601562 z" style="fill:#aaaaaa"/>
</svg>