<?xml version="1.0" encoding="UTF-8" standalone="no"?>
<svg xmlns:dc="http://purl.org/dc/elements/1.1/"
     xmlns:cc="http://creativecommons.org/ns#"
     xmlns:rdf="http://www.w3.org/1999/02/22-rdf-syntax-ns#"
     xmlns:svg="http://www.w3.org/2000/svg"
     xmlns="http://www.w3.org/2000/svg"
     xmlns:xlink="http://www.w3.org/1999/xlink"
     width="128" height="128" version="1.1">
    <title>X Icon</title>
    <desc>This is shape (source) for Clarity vector icon theme for gtk</desc>
    <metadata>
        <rdf:RDF>
            <cc:Work rdf:about="">
                <dc:title>X Icon</dc:title>
                <dc:description>This is shape (source) for Clarity vector icon theme for gtk</dc:description>
                <dc:creator>
                    <cc:Agent>
                        <dc:title>Jakub Jankiewicz</dc:title>
                    </cc:Agent>
                </dc:creator>
                <dc:rights>
                    <cc:Agent>
                        <dc:title>Jakub Jankiewicz</dc:title>
                    </cc:Agent>
                </dc:rights>
                <dc:date>2010</dc:date>
                <dc:format>image/svg+xml</dc:format>
                <dc:type rdf:resource="http://purl.org/dc/dcmitype/StillImage" />
                <cc:license rdf:resource="http://www.gnu.org/copyleft/gpl.html" />
             </cc:Work>
        </rdf:RDF>
    </metadata>
    <path d="m 34.26264,12.649502 a 15.0015,15.0015 0 0 0 -11.5,24.65625 l 21.875,26.78125 -21.875,26.78125 a 15.003133,15.003133 0 1 0 23.25,18.968748 l 17.96875,-22.031248 18,22.031248 a 15.003133,15.003133 0 1 0 23.25,-18.968748 l -21.875,-26.78125 21.875,-26.78125 a 15.0015,15.0015 0 0 0 -11.9375,-24.65625 15.0015,15.0015 0 0 0 -11.3125,5.65625 l -18,22.03125 -17.96875,-22.03125 a 15.0015,15.0015 0 0 0 -11.75,-5.65625 z" style="fill:#aaaaaa"/>
</svg>