<?xml version="1.0" encoding="UTF-8" standalone="no"?>
<svg xmlns:dc="http://purl.org/dc/elements/1.1/"
     xmlns:cc="http://creativecommons.org/ns#"
     xmlns:rdf="http://www.w3.org/1999/02/22-rdf-syntax-ns#"
     xmlns:svg="http://www.w3.org/2000/svg"
     xmlns="http://www.w3.org/2000/svg"
     xmlns:xlink="http://www.w3.org/1999/xlink"
     width="128" height="128" version="1.1">
    <title>Xournal Icon</title>
    <desc>This is shape (source) for Clarity vector icon theme for gtk</desc>
    <metadata>
        <rdf:RDF>
            <cc:Work rdf:about="">
                <dc:title>Xournal Icon</dc:title>
                <dc:description>This is shape (source) for Clarity vector icon theme for gtk</dc:description>
                <dc:creator>
                    <cc:Agent>
                        <dc:title>Jakub Jankiewicz</dc:title>
                    </cc:Agent>
                </dc:creator>
                <dc:rights>
                    <cc:Agent>
                        <dc:title>Jakub Jankiewicz</dc:title>
                    </cc:Agent>
                </dc:rights>
                <dc:date>2010</dc:date>
                <dc:format>image/svg+xml</dc:format>
                <dc:type rdf:resource="http://purl.org/dc/dcmitype/StillImage" />
                <cc:license rdf:resource="http://creativecommons.org/licenses/by-sa/3.0/" />
             </cc:Work>
        </rdf:RDF>
    </metadata>
    <path d="m 38.492087,9.4771468 c -4.588752,0.00631 -5.666539,6.9674642 -4.71265,13.4027082 -1.325964,0.455585 -2.554538,1.853659 -2.956959,3.568769 -5.855218,24.954945 -14.935882,50.544339 -20.791102,75.499286 -1.0482328,4.46756 -0.042128,7.79314 0.0924,12.76826 0.05794,2.14172 1.113476,3.80669 3.603793,3.80669 l 100.536542,0 c 2.49031,0 3.98258,-1.6875 3.97341,-3.80669 -0.0219,-5.09144 0.57645,-9.12018 -0.1848,-13.95785 -3.86866,-24.58485 -9.80728,-49.724846 -13.67594,-74.309696 -0.33047,-2.100137 -1.96686,-3.727381 -3.60379,-3.727381 l -3.23417,0 C 97.16328,20.463728 95.041787,9.467759 88.205927,9.4771468 83.654519,9.4834524 82.644882,16.329902 83.585683,22.721243 l -12.197449,0 C 71.012688,20.463728 68.891196,9.467759 62.055336,9.4771468 57.503931,9.4834524 56.494293,16.329902 57.435092,22.721243 l -9.702516,0 C 47.370062,20.455107 45.3243,9.4677633 38.492087,9.4771468 z m 0.924048,5.9479492 c 1.930934,0 3.206419,4.611644 3.788602,7.296147 l -4.620244,0 c -0.775957,-3.603081 -0.624681,-7.296147 0.831642,-7.296147 z m 23.655658,0 c 1.930935,0 3.206416,4.611644 3.788599,7.296147 l -4.712649,0 c -0.748954,-3.603081 -0.532273,-7.296147 0.92405,-7.296147 z m 26.150588,0 c 1.930317,0 3.140714,4.61123 3.696197,7.296147 l -4.620247,0 c -0.748953,-3.603081 -0.53227,-7.296147 0.92405,-7.296147 z M 34.61108,17.645662 c 1.253,3.600327 1.450932,6.669065 3.511386,6.661702 0.624214,2.224874 1.509062,3.410813 2.217718,4.203214 2.95704,3.306494 -1.672773,5.228683 -3.511387,2.458489 C 35.286416,28.645193 34.63365,22.004354 34.61108,17.645662 z m 23.655656,0 c 1.253,3.600327 1.450931,6.669065 3.511388,6.661702 0.624214,2.224874 1.509062,3.410813 2.217717,4.203214 2.957039,3.306494 -1.765178,5.228683 -3.603792,2.458489 -1.54238,-2.323874 -2.102741,-8.964713 -2.125313,-13.323405 z m 26.150591,0 c 1.253,3.600327 1.450929,6.669065 3.511387,6.661702 0.624212,2.224874 1.50906,3.410813 2.217717,4.203214 2.95704,3.306494 -1.76518,5.228683 -3.603791,2.458489 -1.542383,-2.323874 -2.102746,-8.964713 -2.125313,-13.323405 z M 38.7693,42.151209 l 25.688567,0 -0.184806,3.965298 c -1.855374,0.132168 -3.681846,0.264351 -5.544295,0.396527 -0.280261,0.370094 -0.54869,0.74019 -0.831643,1.110287 3.146467,5.12845 6.492612,10.256902 10.164538,15.385357 4.496054,-5.049148 8.750846,-10.098295 12.659474,-15.147439 -0.31035,-0.396532 -0.61711,-0.793061 -0.92405,-1.18959 -1.697826,-0.185056 -3.393494,-0.370097 -5.082271,-0.555142 l 0,-3.965298 20.329082,0 0.369618,3.965298 c -1.896071,0.211474 -3.728881,0.422963 -5.636699,0.634445 -5.245295,6.978927 -11.0613,13.957854 -17.464526,20.936776 6.433345,8.327127 13.578934,16.654256 21.437938,24.981383 2.569167,0.343658 5.079771,0.687318 7.669603,1.030979 l 0.46203,3.965298 -33.542984,0 0.0924,-3.965298 c 2.390845,-0.211475 4.828621,-0.422966 7.207583,-0.634449 0.250839,-0.370097 0.490595,-0.74019 0.739239,-1.110281 -4.631941,-5.498552 -8.996878,-10.997101 -13.029093,-16.495644 -5.267076,5.445674 -10.85946,10.891352 -16.81769,16.337028 0.169551,0.475837 0.289957,0.951673 0.462022,1.427509 2.447779,0.158612 4.935389,0.317224 7.392394,0.475837 l -0.277216,3.965298 -26.705016,0 0.73924,-3.965298 C 30.60483,93.435736 32.995667,93.171381 35.442725,92.907029 43.971905,85.531575 51.856313,78.156118 59.098383,70.780663 53.352583,62.850066 48.307751,54.919469 43.851574,46.98887 41.923878,46.698079 40.033632,46.407295 38.122468,46.116507 l 0.646835,-3.965298 z m -20.513888,63.206861 92.127688,0 c 1.19518,0 2.24234,0.90273 2.40253,2.06196 0.21921,1.58611 -0.10828,3.17224 -0.1848,4.75836 -0.0562,1.16634 -0.79788,2.06194 -2.03292,2.06194 l -92.95933,0 c -1.235028,0 -1.793307,-0.88345 -1.755691,-2.06194 0.04656,-1.45924 -0.43468,-3.17225 -0.0924,-4.75836 0.250161,-1.15923 1.29975,-2.06196 2.494931,-2.06196 z" style="fill:#aaaaaa"/>
</svg>