<?xml version="1.0" encoding="UTF-8" standalone="no"?>
<svg xmlns:dc="http://purl.org/dc/elements/1.1/"
     xmlns:cc="http://creativecommons.org/ns#"
     xmlns:rdf="http://www.w3.org/1999/02/22-rdf-syntax-ns#"
     xmlns:svg="http://www.w3.org/2000/svg"
     xmlns="http://www.w3.org/2000/svg"
     xmlns:xlink="http://www.w3.org/1999/xlink"
     width="128" height="128" version="1.1">
    <title>Headset Icon</title>
    <desc>This is shape (source) for Clarity vector icon theme for gtk</desc>
    <metadata>
        <rdf:RDF>
            <cc:Work rdf:about="">
                <dc:title>Headset Icon</dc:title>
                <dc:description>This is shape (source) for Clarity vector icon theme for gtk</dc:description>
                <dc:creator>
                    <cc:Agent>
                        <dc:title>Jakub Jankiewicz</dc:title>
                    </cc:Agent>
                </dc:creator>
                <dc:rights>
                    <cc:Agent>
                        <dc:title>Jakub Jankiewicz</dc:title>
                    </cc:Agent>
                </dc:rights>
                <dc:date>2010</dc:date>
                <dc:format>image/svg+xml</dc:format>
                <dc:type rdf:resource="http://purl.org/dc/dcmitype/StillImage" />
                <cc:license rdf:resource="http://creativecommons.org/licenses/by-sa/3.0/" />
             </cc:Work>
        </rdf:RDF>
    </metadata>
    <path d="M 64.136719 5.4335938 C 50.10786 5.4029517 36.109344 10.552528 25.230469 20.75 C 5.4801053 39.263291 1.6851365 69.105959 15.783203 91.900391 L 15.783203 92.738281 C 15.783203 100.29401 21.840638 106.3781 29.382812 106.43359 C 29.381213 106.36139 29.373047 106.29135 29.373047 106.21875 L 29.373047 65.007812 C 23.723391 65.053263 18.905458 68.482036 16.847656 73.376953 C 12.894491 56.869598 17.808966 38.96407 30.849609 26.740234 C 48.400312 10.288825 75.271651 9.1821613 94.117188 24.132812 C 109.2112 36.107271 115.43794 55.438407 111.14258 73.365234 C 109.08166 68.477394 104.26761 65.053226 98.623047 65.007812 L 98.623047 106.21875 C 98.623047 106.29135 98.614981 106.36138 98.613281 106.43359 C 100.12989 106.42243 101.58203 106.157 102.94141 105.69531 C 101.95538 108.0003 100.55492 110.27521 98.632812 111.77539 C 92.036858 116.92344 83.076373 117.25475 74.398438 117.26562 C 73.933359 116.03451 72.75526 115.16016 71.357422 115.16016 L 59.085938 115.16016 C 57.279962 115.16016 55.826172 116.61394 55.826172 118.41992 C 55.826172 120.22589 57.279963 121.67969 59.085938 121.67969 L 71.357422 121.67969 C 72.679871 121.67969 73.806107 120.89609 74.318359 119.76953 C 83.103473 119.78433 92.738125 119.5465 100.16992 113.74609 C 103.40228 111.22328 105.16835 107.36296 106.19922 104.08789 C 109.83243 101.63019 112.21289 97.473853 112.21289 92.738281 L 112.21289 91.521484 A 4.1079571 4.1079571 0 0 0 113.08594 90.447266 C 127.11984 66.139847 121.21134 35.141444 99.222656 17.697266 C 88.915472 9.5203075 76.515126 5.4606358 64.136719 5.4335938 z M 33.201172 65.007812 L 33.201172 106.44727 L 35.796875 106.44727 C 37.401352 106.44727 38.695312 105.15331 38.695312 103.54883 L 38.695312 67.90625 C 38.695312 66.301772 37.401352 65.007813 35.796875 65.007812 L 33.201172 65.007812 z M 92.195312 65.007812 C 90.590836 65.007812 89.298828 66.301772 89.298828 67.90625 L 89.298828 103.54883 C 89.298828 105.15331 90.590837 106.44727 92.195312 106.44727 L 94.791016 106.44727 L 94.791016 65.007812 L 92.195312 65.007812 z " style="fill:#aaaaaa"/>
</svg>