<?xml version="1.0" encoding="UTF-8" standalone="no"?>
<svg xmlns:dc="http://purl.org/dc/elements/1.1/"
     xmlns:cc="http://creativecommons.org/ns#"
     xmlns:rdf="http://www.w3.org/1999/02/22-rdf-syntax-ns#"
     xmlns:svg="http://www.w3.org/2000/svg"
     xmlns="http://www.w3.org/2000/svg"
     xmlns:xlink="http://www.w3.org/1999/xlink"
     width="128" height="128" version="1.1">
    <title>Clarity Icon</title>
    <desc>This is shape (source) for Clarity vector icon theme for gtk</desc>
    <metadata>
        <rdf:RDF>
            <cc:Work rdf:about="">
                <dc:title>Clarity Icon</dc:title>
                <dc:description>This is shape (source) for Clarity vector icon theme for gtk</dc:description>
                <dc:creator>
                    <cc:Agent>
                        <dc:title>Jakub Jankiewicz</dc:title>
                    </cc:Agent>
                </dc:creator>
                <dc:rights>
                    <cc:Agent>
                        <dc:title>Jakub Jankiewicz</dc:title>
                    </cc:Agent>
                </dc:rights>
                <dc:date>2010</dc:date>
                <dc:format>image/svg+xml</dc:format>
                <dc:type rdf:resource="http://purl.org/dc/dcmitype/StillImage" />
                <cc:license rdf:resource="http://www.gnu.org/copyleft/gpl.html" />
             </cc:Work>
        </rdf:RDF>
    </metadata>
    <path d="m 57.295801,13.904739 c -2.6674,0 -4.76743,2.137268 -4.76743,4.804675 l 0,2.309224 -6.778689,0 c -2.667401,0 -4.841921,2.137269 -4.841921,4.804676 l 0,77.650656 46.184478,0 0,-77.650656 c 0,-2.667407 -2.17452,-4.804676 -4.841921,-4.804676 l -6.778689,0 0,-2.309224 c 0,-2.667407 -2.10003,-4.804675 -4.76743,-4.804675 z m -7.300127,15.196183 28.008652,0 c 2.041103,0 3.687309,1.646203 3.687309,3.687309 l 0,32.850573 -35.38327,0 0,-32.850573 c 0,-2.041106 1.646206,-3.687309 3.687309,-3.687309 z m -9.087913,78.997808 0,1.15461 c 0,2.6674 2.17452,4.84192 4.841921,4.84192 l 36.500636,0 c 2.667401,0 4.841921,-2.17452 4.841921,-4.84192 l 0,-1.15461 z" style="fill:#aaaaaa"/>
</svg>