<?xml version="1.0" encoding="UTF-8" standalone="no"?>
<svg xmlns:dc="http://purl.org/dc/elements/1.1/"
     xmlns:cc="http://creativecommons.org/ns#"
     xmlns:rdf="http://www.w3.org/1999/02/22-rdf-syntax-ns#"
     xmlns:svg="http://www.w3.org/2000/svg"
     xmlns="http://www.w3.org/2000/svg"
     xmlns:xlink="http://www.w3.org/1999/xlink"
     width="128" height="128" version="1.1">
    <title>Clarity Icon</title>
    <desc>This is shape (source) for Clarity vector icon theme for gtk</desc>
    <metadata>
        <rdf:RDF>
            <cc:Work rdf:about="">
                <dc:title>Clarity Icon</dc:title>
                <dc:description>This is shape (source) for Clarity vector icon theme for gtk</dc:description>
                <dc:creator>
                    <cc:Agent>
                        <dc:title>Jakub Jankiewicz</dc:title>
                    </cc:Agent>
                </dc:creator>
                <dc:rights>
                    <cc:Agent>
                        <dc:title>Jakub Jankiewicz</dc:title>
                    </cc:Agent>
                </dc:rights>
                <dc:date>2010</dc:date>
                <dc:format>image/svg+xml</dc:format>
                <dc:type rdf:resource="http://purl.org/dc/dcmitype/StillImage" />
                <cc:license rdf:resource="http://creativecommons.org/licenses/by-sa/3.0/" />
             </cc:Work>
        </rdf:RDF>
    </metadata>
    <path d="m 51.203123,6.2343765 0,16.5937495 -4.5,0 c -2.238021,0 -4.03125,1.793225 -4.03125,4.031251 l 0,85.843753 c 0,2.23801 1.793229,4.03124 4.03125,4.03124 l 10.6875,0 c 0.11572,2.79739 2.42334,5.03125 5.25,5.03125 l 1.46875,0 c 2.82666,0 5.13428,-2.23386 5.25,-5.03125 l 11.9375,0 c 2.238024,0 4.031255,-1.79322 4.031255,-4.03124 l 0,-85.843753 c 0,-2.238026 -1.79323,-4.031251 -4.031255,-4.031251 l -4.5,0 0,-16.5937495 -25.59375,0 z m 4.4375,5.3124995 4.09375,0 c 0.46792,0 0.84375,0.375833 0.84375,0.84375 l 0,2.875 c 0,0.467917 -0.37583,0.84375 -0.84375,0.84375 l -4.09375,0 c -0.467921,0 -0.84375,-0.375833 -0.84375,-0.84375 l 0,-2.875 c 0,-0.467917 0.375829,-0.84375 0.84375,-0.84375 z m 12.625,0 4.125,0 c 0.46792,0 0.84375,0.375833 0.84375,0.84375 l 0,2.875 c 0,0.467917 -0.37583,0.84375 -0.84375,0.84375 l -4.125,0 c -0.467921,0 -0.84375,-0.375833 -0.84375,-0.84375 l 0,-2.875 c 0,-0.467917 0.375829,-0.84375 0.84375,-0.84375 z m -4.21875,23.656251 a 0.74753237,0.74753237 0 0 1 0.0625,0 0.74753237,0.74753237 0 0 1 0.78125,0.5625 l 3.46875,12.6875 a 0.74753237,0.74753237 0 0 1 -0.71875,0.9375 l -1.71875,0 0,17.3125 c 2.879549,-0.03894 4.468909,-0.82245 5.5,-2.25 0.94635,-1.310232 1.4255,-3.550487 1.5,-6.40625 l -1.28125,0 a 0.74753237,0.74753237 0 0 1 -0.75,-0.75 l 0,-6.125 a 0.74753237,0.74753237 0 0 1 0.75,-0.75 l 6.125,0 a 0.74753237,0.74753237 0 0 1 0.75,0.75 l 0,6.125 a 0.74753237,0.74753237 0 0 1 -0.75,0.75 l -1.28125,0 c -0.0558,3.343224 -0.61376,6.277892 -2.21875,8.5 -1.72899,2.393785 -4.63437,3.576868 -8.34375,3.65625 l 0,20.125 c 1.70227,0.708109 2.9375,2.326646 2.9375,4.28125 0,2.587199 -2.0932,4.71875 -4.6875,4.71875 -2.594311,0 -4.75,-2.117328 -4.75,-4.71875 0,-1.964984 1.25538,-3.579564 2.96875,-4.28125 l 0,-11.8125 c -3.71432,-0.08332 -6.61671,-1.296421 -8.34375,-3.6875 -1.39862,-1.936378 -2.015341,-4.413308 -2.1875,-7.21875 -1.40094,-0.655842 -2.40625,-2.031296 -2.40625,-3.6875 0,-2.284095 1.872179,-4.15625 4.15625,-4.15625 2.2841,0 4.15625,1.872165 4.15625,4.15625 0,1.608824 -0.97407,2.919235 -2.3125,3.59375 0.16853,2.30661 0.626769,4.127547 1.4375,5.25 1.02903,1.424699 2.61781,2.185482 5.5,2.21875 l 0,-25.59375 -1.71875,0 a 0.74753237,0.74753237 0 0 1 -0.71875,-0.9375 l 3.5,-12.6875 a 0.74753237,0.74753237 0 0 1 0.59375,-0.5625 z m -3.875,81.531243 6.40625,0 c -0.0927,1.48121 -1.30711,2.65625 -2.8125,2.65625 l -0.78125,0 c -1.505391,0 -2.71978,-1.17504 -2.8125,-2.65625 z" style="fill:#aaaaaa"/>
</svg>