<?xml version="1.0" encoding="UTF-8" standalone="no"?>
<svg xmlns:dc="http://purl.org/dc/elements/1.1/"
     xmlns:cc="http://creativecommons.org/ns#"
     xmlns:rdf="http://www.w3.org/1999/02/22-rdf-syntax-ns#"
     xmlns:svg="http://www.w3.org/2000/svg"
     xmlns="http://www.w3.org/2000/svg"
     xmlns:xlink="http://www.w3.org/1999/xlink"
     width="128" height="128" version="1.1">
    <title>Firewire Drive Icon</title>
    <desc>This is shape (source) for Clarity vector icon theme for gtk</desc>
    <metadata>
        <rdf:RDF>
            <cc:Work rdf:about="">
                <dc:title>Firewire Drive Icon</dc:title>
                <dc:description>This is shape (source) for Clarity vector icon theme for gtk</dc:description>
                <dc:creator>
                    <cc:Agent>
                        <dc:title>Jakub Jankiewicz</dc:title>
                    </cc:Agent>
                </dc:creator>
                <dc:rights>
                    <cc:Agent>
                        <dc:title>Jakub Jankiewicz</dc:title>
                    </cc:Agent>
                </dc:rights>
                <dc:date>2010</dc:date>
                <dc:format>image/svg+xml</dc:format>
                <dc:type rdf:resource="http://purl.org/dc/dcmitype/StillImage" />
                <cc:license rdf:resource="http://www.gnu.org/copyleft/gpl.html" />
             </cc:Work>
        </rdf:RDF>
    </metadata>
    <path d="M 28.9375 31.03125 C 26.773576 31.03125 25.392965 32.804022 25.03125 34.9375 L 17.21875 73.34375 C 16.974963 75.493931 18.961076 77.25 21.125 77.25 L 106.875 77.25 C 109.03893 77.25 111.02385 75.494065 110.78125 73.34375 L 102.96875 34.9375 C 102.63523 32.799433 101.22642 31.03125 99.0625 31.03125 L 28.9375 31.03125 z M 81.1875 37.96875 C 83.673709 39.51917 86.358417 40.898514 88.625 42.71875 C 87.053774 44.167821 84.974881 45.135688 83.125 46.28125 C 81.626547 46.954009 80.199292 48.33916 78.53125 48.40625 C 75.983362 47.284744 73.565144 45.841009 71.4375 44.125 C 74.469695 41.813646 77.922977 39.993949 81.1875 37.96875 z M 48.21875 38.25 C 49.067456 38.754583 49.905729 39.270185 50.75 39.78125 C 48.386453 41.205022 46.039489 42.667631 43.65625 44.0625 C 42.428698 45.315348 40.448261 45.425621 39.375 43.90625 C 42.062238 41.723488 45.259553 40.09934 48.21875 38.25 z M 54.71875 42.1875 C 55.560798 42.704722 56.399045 43.214483 57.25 43.71875 C 54.249404 45.501464 51.318517 47.402126 48.21875 49.03125 C 47.284289 48.778644 46.512521 48.109012 45.6875 47.625 C 48.691336 45.81272 51.714931 43.999806 54.71875 42.1875 z M 63.25 47.0625 C 65.573205 47.038065 67.948398 47.442085 70.03125 48.4375 C 72.467735 49.463472 74.613119 52.104562 73.40625 54.65625 C 71.844452 57.72447 67.942496 58.911482 64.5625 59.125 C 60.693872 59.31811 56.080557 58.218585 54.21875 54.71875 C 53.060067 52.675757 54.663975 50.456244 56.25 49.09375 C 58.319225 47.838747 60.826857 47.330163 63.25 47.0625 z M 63.59375 49.3125 C 62.47298 49.355403 61.367161 49.597293 60.34375 50.03125 C 58.556664 50.666499 56.724361 52.61558 57.875 54.4375 C 59.43516 56.690428 62.721096 57.059347 65.34375 56.78125 C 67.596715 56.593388 70.372292 55.020977 69.9375 52.59375 C 69.307296 50.040814 66.045444 49.22996 63.59375 49.3125 z M 70.03125 62.46875 L 70.03125 64.71875 L 57.4375 64.71875 C 57.53422 64.01834 57.62201 63.325406 57.71875 62.625 C 61.820596 62.572484 65.929408 62.52127 70.03125 62.46875 z M 57.5 68.375 L 69.90625 68.375 C 70.182992 68.806475 69.95168 69.696334 70.03125 70.3125 L 57.625 70.3125 C 57.348258 69.881012 57.57957 68.991156 57.5 68.375 z M 21.125 81.21875 C 18.961043 81.21875 17.21875 82.961043 17.21875 85.125 L 17.21875 93.0625 C 17.21875 95.22646 18.961043 96.96875 21.125 96.96875 L 106.875 96.96875 C 109.03896 96.96875 110.78125 95.22646 110.78125 93.0625 L 110.78125 85.125 C 110.78125 82.961043 109.03896 81.21875 106.875 81.21875 L 21.125 81.21875 z M 24.6875 85.9375 C 24.772759 85.920803 24.847223 85.9375 24.9375 85.9375 L 34.5 85.9375 C 35.222218 85.9375 35.8125 86.496532 35.8125 87.21875 L 35.8125 90.9375 C 35.8125 91.65972 35.222218 92.25 34.5 92.25 L 24.9375 92.25 C 24.215282 92.25 23.625 91.65972 23.625 90.9375 L 23.625 87.21875 C 23.625 86.586809 24.090687 86.054376 24.6875 85.9375 z " style="fill:#aaaaaa"/>
</svg>