<?xml version="1.0" encoding="UTF-8" standalone="no"?>
<svg xmlns:dc="http://purl.org/dc/elements/1.1/"
     xmlns:cc="http://creativecommons.org/ns#"
     xmlns:rdf="http://www.w3.org/1999/02/22-rdf-syntax-ns#"
     xmlns:svg="http://www.w3.org/2000/svg"
     xmlns="http://www.w3.org/2000/svg"
     xmlns:xlink="http://www.w3.org/1999/xlink"
     width="128" height="128" version="1.1">
    <title>Disk Array Icon</title>
    <desc>This is shape (source) for Clarity vector icon theme for gtk</desc>
    <metadata>
        <rdf:RDF>
            <cc:Work rdf:about="">
                <dc:title>Disk Array Icon</dc:title>
                <dc:description>This is shape (source) for Clarity vector icon theme for gtk</dc:description>
                <dc:creator>
                    <cc:Agent>
                        <dc:title>Jakub Jankiewicz</dc:title>
                    </cc:Agent>
                </dc:creator>
                <dc:rights>
                    <cc:Agent>
                        <dc:title>Jakub Jankiewicz</dc:title>
                    </cc:Agent>
                </dc:rights>
                <dc:date>2010</dc:date>
                <dc:format>image/svg+xml</dc:format>
                <dc:type rdf:resource="http://purl.org/dc/dcmitype/StillImage" />
                <cc:license rdf:resource="http://creativecommons.org/licenses/by-sa/3.0/" />
             </cc:Work>
        </rdf:RDF>
    </metadata>
    <path d="M 12.783203 13.515625 C 9.0069945 13.515625 5.9667969 16.555822 5.9667969 20.332031 L 5.9667969 107.66797 C 5.9667969 111.44418 9.0069945 114.48437 12.783203 114.48438 L 115.2168 114.48438 C 118.99301 114.48438 122.0332 111.44418 122.0332 107.66797 L 122.0332 20.332031 C 122.0332 16.555822 118.99301 13.515625 115.2168 13.515625 L 12.783203 13.515625 z M 21.589844 21.363281 L 106.41016 21.363281 C 109.6307 21.363281 112.22266 23.95524 112.22266 27.175781 L 112.22266 100.82422 C 112.22266 104.04476 109.6307 106.63672 106.41016 106.63672 L 21.589844 106.63672 C 18.369303 106.63672 15.777344 104.04476 15.777344 100.82422 L 15.777344 27.175781 C 15.777344 23.95524 18.369303 21.363281 21.589844 21.363281 z M 23.939453 25.982422 C 21.9175 25.982422 20.289062 27.608906 20.289062 29.630859 L 20.289062 37.048828 C 20.289062 39.070784 21.9175 40.697266 23.939453 40.697266 L 104.06055 40.697266 C 106.08251 40.697266 107.71094 39.070784 107.71094 37.048828 L 107.71094 29.630859 C 107.71094 27.608906 106.08251 25.982422 104.06055 25.982422 L 23.939453 25.982422 z M 27.5 30.390625 L 36.435547 30.390625 C 37.110371 30.390625 37.662109 30.913067 37.662109 31.587891 L 37.662109 35.0625 C 37.662109 35.737327 37.110371 36.289062 36.435547 36.289062 L 27.5 36.289062 C 26.825175 36.289062 26.275391 35.737327 26.275391 35.0625 L 26.275391 31.587891 C 26.275391 30.913067 26.825175 30.390625 27.5 30.390625 z M 23.939453 46.421875 C 21.9175 46.421875 20.289062 48.050313 20.289062 50.072266 L 20.289062 57.488281 C 20.289062 59.510236 21.9175 61.138672 23.939453 61.138672 L 104.06055 61.138672 C 106.08251 61.138672 107.71094 59.510236 107.71094 57.488281 L 107.71094 50.072266 C 107.71094 48.050313 106.08251 46.421875 104.06055 46.421875 L 23.939453 46.421875 z M 27.5 50.830078 L 36.435547 50.830078 C 37.110371 50.830078 37.662109 51.35252 37.662109 52.027344 L 37.662109 55.501953 C 37.662109 56.176779 37.110371 56.728516 36.435547 56.728516 L 27.5 56.728516 C 26.825175 56.728516 26.275391 56.176779 26.275391 55.501953 L 26.275391 52.027344 C 26.275391 51.35252 26.825175 50.830078 27.5 50.830078 z M 23.939453 66.861328 C 21.9175 66.861328 20.289062 68.489766 20.289062 70.511719 L 20.289062 77.927734 C 20.289062 79.949689 21.9175 81.578125 23.939453 81.578125 L 104.06055 81.578125 C 106.08251 81.578125 107.71094 79.949689 107.71094 77.927734 L 107.71094 70.511719 C 107.71094 68.489766 106.08251 66.861328 104.06055 66.861328 L 23.939453 66.861328 z M 27.5 71.271484 L 36.435547 71.271484 C 37.110371 71.271484 37.662109 71.793925 37.662109 72.46875 L 37.662109 75.943359 C 37.662109 76.618185 37.110371 77.169922 36.435547 77.169922 L 27.5 77.169922 C 26.825175 77.169922 26.275391 76.618185 26.275391 75.943359 L 26.275391 72.46875 C 26.275391 71.793925 26.825175 71.271484 27.5 71.271484 z M 23.939453 87.302734 C 21.9175 87.302734 20.289062 88.929219 20.289062 90.951172 L 20.289062 98.369141 C 20.289062 100.39109 21.9175 102.01758 23.939453 102.01758 L 104.06055 102.01758 C 106.08251 102.01758 107.71094 100.39109 107.71094 98.369141 L 107.71094 90.951172 C 107.71094 88.929219 106.08251 87.302734 104.06055 87.302734 L 23.939453 87.302734 z M 27.5 91.710938 L 36.435547 91.710938 C 37.110371 91.710938 37.662109 92.233378 37.662109 92.908203 L 37.662109 96.382812 C 37.662109 97.057636 37.110371 97.609375 36.435547 97.609375 L 27.5 97.609375 C 26.825175 97.609375 26.275391 97.057636 26.275391 96.382812 L 26.275391 92.908203 C 26.275391 92.233378 26.825175 91.710938 27.5 91.710938 z " style="fill:#aaaaaa"/>
</svg>