<?xml version="1.0" encoding="UTF-8" standalone="no"?>
<svg xmlns:dc="http://purl.org/dc/elements/1.1/"
     xmlns:cc="http://creativecommons.org/ns#"
     xmlns:rdf="http://www.w3.org/1999/02/22-rdf-syntax-ns#"
     xmlns:svg="http://www.w3.org/2000/svg"
     xmlns="http://www.w3.org/2000/svg"
     xmlns:xlink="http://www.w3.org/1999/xlink"
     width="128" height="128" version="1.1">
    <title>Clarity Icon</title>
    <desc>This is shape (source) for Clarity vector icon theme for gtk</desc>
    <metadata>
        <rdf:RDF>
            <cc:Work rdf:about="">
                <dc:title>Clarity Icon</dc:title>
                <dc:description>This is shape (source) for Clarity vector icon theme for gtk</dc:description>
                <dc:creator>
                    <cc:Agent>
                        <dc:title>Jakub Jankiewicz</dc:title>
                    </cc:Agent>
                </dc:creator>
                <dc:rights>
                    <cc:Agent>
                        <dc:title>Jakub Jankiewicz</dc:title>
                    </cc:Agent>
                </dc:rights>
                <dc:date>2010</dc:date>
                <dc:format>image/svg+xml</dc:format>
                <dc:type rdf:resource="http://purl.org/dc/dcmitype/StillImage" />
                <cc:license rdf:resource="http://www.gnu.org/copyleft/gpl.html" />
             </cc:Work>
        </rdf:RDF>
    </metadata>
    <path d="m 28.937588,31.041238 c -2.163924,0 -3.544535,1.772772 -3.90625,3.90625 l -7.8125,38.406743 c -0.243787,2.150181 1.742326,3.90625 3.90625,3.90625 l 85.750002,0 c 2.16393,0 4.14885,-1.755935 3.90625,-3.90625 l -7.8125,-38.406743 c -0.33352,-2.138067 -1.74233,-3.90625 -3.906252,-3.90625 z m -7.8125,50.167524 c -2.163957,0 -3.90625,1.742293 -3.90625,3.90625 l 0,7.9375 c 0,2.16396 1.742293,3.90625 3.90625,3.90625 l 85.750002,0 c 2.16396,0 3.90625,-1.74229 3.90625,-3.90625 l 0,-7.9375 c 0,-2.163957 -1.74229,-3.90625 -3.90625,-3.90625 z m 3.8125,4.71875 9.5625,0 c 0.722218,0 1.3125,0.559032 1.3125,1.28125 l 0,3.71875 c 0,0.72222 -0.590282,1.3125 -1.3125,1.3125 l -9.5625,0 c -0.722218,0 -1.3125,-0.59028 -1.3125,-1.3125 l 0,-3.71875 c 0,-0.722218 0.590282,-1.28125 1.3125,-1.28125 z" style="fill:#aaaaaa"/>
</svg>