<?xml version="1.0" encoding="UTF-8" standalone="no"?>
<svg xmlns:dc="http://purl.org/dc/elements/1.1/"
     xmlns:cc="http://creativecommons.org/ns#"
     xmlns:rdf="http://www.w3.org/1999/02/22-rdf-syntax-ns#"
     xmlns:svg="http://www.w3.org/2000/svg"
     xmlns="http://www.w3.org/2000/svg"
     xmlns:xlink="http://www.w3.org/1999/xlink"
     width="128" height="128" version="1.1">
    <title>Clarity Icon</title>
    <desc>This is shape (source) for Clarity vector icon theme for gtk</desc>
    <metadata>
        <rdf:RDF>
            <cc:Work rdf:about="">
                <dc:title>Clarity Icon</dc:title>
                <dc:description>This is shape (source) for Clarity vector icon theme for gtk</dc:description>
                <dc:creator>
                    <cc:Agent>
                        <dc:title>Jakub Jankiewicz</dc:title>
                    </cc:Agent>
                </dc:creator>
                <dc:rights>
                    <cc:Agent>
                        <dc:title>Jakub Jankiewicz</dc:title>
                    </cc:Agent>
                </dc:rights>
                <dc:date>2010</dc:date>
                <dc:format>image/svg+xml</dc:format>
                <dc:type rdf:resource="http://purl.org/dc/dcmitype/StillImage" />
                <cc:license rdf:resource="http://creativecommons.org/licenses/by-sa/3.0/" />
             </cc:Work>
        </rdf:RDF>
    </metadata>
    <path d="m 82.889835,25.657466 c -5.155731,-0.138399 -10.031017,3.077139 -11.789671,8.211336 -1.337306,3.904122 -0.544932,8.024497 1.732667,11.111672 l -11.827338,34.50268 -15.66934,0 0,-1.280667 c 0,-1.614684 -1.323312,-2.900335 -2.938001,-2.900335 l -11.827338,0 c -1.614689,0 -2.900335,1.285651 -2.900335,2.900335 l 0,1.280667 c -4.31178,0.03937 -7.797003,3.513247 -7.797003,7.83467 l 0,7.194336 c 0,4.346066 3.526277,7.83467 7.872337,7.83467 l 72.546027,0 c 4.34607,0 7.83468,-3.488604 7.83468,-7.83467 l 0,-7.194336 c 0,-4.346066 -3.48861,-7.83467 -7.83468,-7.83467 l -24.784675,0 10.283004,-30.058012 c 3.703196,-1.036706 6.833279,-3.808535 8.17367,-7.72167 C 96.12833,35.38446 92.78718,28.499953 86.46817,26.335466 c -1.184819,-0.405842 -2.38855,-0.646063 -3.578335,-0.678 z" style="fill:#aaaaaa"/>
</svg>