<?xml version="1.0" encoding="UTF-8" standalone="no"?>
<svg xmlns:dc="http://purl.org/dc/elements/1.1/"
     xmlns:cc="http://creativecommons.org/ns#"
     xmlns:rdf="http://www.w3.org/1999/02/22-rdf-syntax-ns#"
     xmlns:svg="http://www.w3.org/2000/svg"
     xmlns="http://www.w3.org/2000/svg"
     xmlns:xlink="http://www.w3.org/1999/xlink"
     width="128" height="128" version="1.1">
    <title>Touchpad Icon</title>
    <desc>This is shape (source) for Clarity vector icon theme for gtk</desc>
    <metadata>
        <rdf:RDF>
            <cc:Work rdf:about="">
                <dc:title>Touchpad Icon</dc:title>
                <dc:description>This is shape (source) for Clarity vector icon theme for gtk</dc:description>
                <dc:creator>
                    <cc:Agent>
                        <dc:title>Jakub Jankiewicz</dc:title>
                    </cc:Agent>
                </dc:creator>
                <dc:rights>
                    <cc:Agent>
                        <dc:title>Jakub Jankiewicz</dc:title>
                    </cc:Agent>
                </dc:rights>
                <dc:date>2010</dc:date>
                <dc:format>image/svg+xml</dc:format>
                <dc:type rdf:resource="http://purl.org/dc/dcmitype/StillImage" />
                <cc:license rdf:resource="http://www.gnu.org/copyleft/gpl.html" />
             </cc:Work>
        </rdf:RDF>
    </metadata>
    <path d="m 24.636044,19.953748 c -4.083502,0 -7.404561,3.293838 -7.404561,7.377339 l 0,41.37843 0,7.377338 93.537037,0 0,-7.377338 0,-41.37843 c 0,-4.0835 -3.29384,-7.377339 -7.37734,-7.377339 l -78.755136,0 z m -7.404561,62.829879 0,9.800156 0,8.085127 c 0,4.0835 3.321059,7.37734 7.404561,7.37734 l 27.41321,0 8.602358,0 0,-25.262623 -43.420129,0 z m 50.116901,0 0,25.262623 0.353895,0 8.248463,0 27.440438,0 c 4.0835,0 7.37734,-3.29384 7.37734,-7.37734 l 0,-8.085127 0,-9.800156 -43.420136,0 z" style="fill:#aaaaaa"/>
</svg>