<?xml version="1.0" encoding="UTF-8" standalone="no"?>
<svg xmlns:dc="http://purl.org/dc/elements/1.1/"
     xmlns:cc="http://creativecommons.org/ns#"
     xmlns:rdf="http://www.w3.org/1999/02/22-rdf-syntax-ns#"
     xmlns:svg="http://www.w3.org/2000/svg"
     xmlns="http://www.w3.org/2000/svg"
     xmlns:xlink="http://www.w3.org/1999/xlink"
     width="128" height="128" version="1.1">
    <title>Clarity Icon</title>
    <desc>This is shape (source) for Clarity vector icon theme for gtk</desc>
    <metadata>
        <rdf:RDF>
            <cc:Work rdf:about="">
                <dc:title>Clarity Icon</dc:title>
                <dc:description>This is shape (source) for Clarity vector icon theme for gtk</dc:description>
                <dc:creator>
                    <cc:Agent>
                        <dc:title>Jakub Jankiewicz</dc:title>
                    </cc:Agent>
                </dc:creator>
                <dc:rights>
                    <cc:Agent>
                        <dc:title>Jakub Jankiewicz</dc:title>
                    </cc:Agent>
                </dc:rights>
                <dc:date>2010</dc:date>
                <dc:format>image/svg+xml</dc:format>
                <dc:type rdf:resource="http://purl.org/dc/dcmitype/StillImage" />
                <cc:license rdf:resource="http://www.gnu.org/copyleft/gpl.html" />
             </cc:Work>
        </rdf:RDF>
    </metadata>
    <path d="m 34.677245,9.833495 0,30.9375 c 0,1.695274 1.304718,3 3,3 l 44.3125,0 c 1.69528,0 3,-1.304726 3,-3 l 0,-30.9375 -50.3125,0 z m -10.9375,29.3125 c -2.222349,0 -4.03125,1.599339 -4.03125,3.59375 l 0,11.8125 -5.125,0 c -4.273733,0 -7.71875,3.445009 -7.71875,7.71875 l 0,27.78125 c 0,4.273742 3.445017,7.71875 7.71875,7.71875 l 16.21875,0 0,-7.96875 c 0,-4.560078 3.721186,-8.28125 8.28125,-8.28125 l 20.4375,0 c -0.06108,-0.672103 -0.09375,-1.344119 -0.09375,-2.03125 0,-12.373696 10.121041,-22.53125 22.5,-22.53125 12.378967,0 22.562505,10.147009 22.562505,22.53125 0,3.785592 -1.1424,7.243033 -2.8125,10.375 l 1.34375,1.375 c 2.26269,-0.435611 4.69024,0.221486 6.4375,1.96875 l 1.65625,1.65625 c 1.05442,-1.317946 1.6875,-2.9835 1.6875,-4.8125 l 0,-27.78125 c 0,-4.273741 -3.44501,-7.71875 -7.71875,-7.71875 l -5.125005,0 0,-11.8125 c 0,-1.99441 -1.8089,-3.59375 -4.03125,-3.59375 l -7.40625,0 0,1.625 c 0,3.60034 -2.93091,6.5625 -6.53125,6.5625 l -44.3125,0 c -3.600338,0 -6.53125,-2.96216 -6.53125,-6.5625 l 0,-1.625 -7.40625,0 z m 58.1875,20.5625 c -10.87628,0 -19.75,8.90496 -19.75,19.78125 0,10.876289 8.87372,19.78125 19.75,19.78125 4.30649,0 8.30247,-1.42054 11.5625,-3.78125 l 3.84375,3.84375 c -0.90404,1.677955 -0.639,3.798505 0.78125,5.218755 l 12.281255,12.3125 c 1.73568,1.73568 4.54555,1.73568 6.28125,0 l 3.15625,-3.125 c 1.73568,-1.73567 1.73568,-4.54557 0,-6.28125 L 107.521,95.145995 c -1.42025,-1.42025 -3.57205,-1.65404 -5.25,-0.75 l -3.906255,-3.9375 c 2.123685,-3.149312 3.375005,-6.90801 3.375005,-10.96875 0,-10.87629 -8.936215,-19.78125 -19.812505,-19.78125 z m -67.625,1.53125 3.625,0 c 0.997206,0 1.78125,0.815293 1.78125,1.8125 l 0,3.59375 c 0,0.997206 -0.784044,1.8125 -1.78125,1.8125 l -3.625,0 c -0.997206,0 -1.78125,-0.815294 -1.78125,-1.8125 l 0,-3.59375 c 0,-0.997207 0.784044,-1.8125 1.78125,-1.8125 z m 67.625,6.1875 c 6.69011,0 12.0625,5.372396 12.0625,12.0625 0,6.690105 -5.37239,12.03125 -12.0625,12.03125 -6.6901,0 -12.03125,-5.341145 -12.03125,-12.03125 0,-6.690104 5.34115,-12.0625 12.03125,-12.0625 z m -42.84375,17.90625 c -2.510129,0 -4.46875,1.958608 -4.46875,4.46875 l 0,21.843755 50.4375,0 0,-9.875 c -1.020136,0.15072 -2.064419,0.25 -3.125,0.25 -10.356478,0 -19.127513,-7.118616 -21.71875,-16.687505 l -21.125,0 z" style="fill:#aaaaaa"/>
</svg>