<?xml version="1.0" encoding="UTF-8" standalone="no"?>
<svg xmlns:dc="http://purl.org/dc/elements/1.1/"
     xmlns:cc="http://creativecommons.org/ns#"
     xmlns:rdf="http://www.w3.org/1999/02/22-rdf-syntax-ns#"
     xmlns:svg="http://www.w3.org/2000/svg"
     xmlns="http://www.w3.org/2000/svg"
     xmlns:xlink="http://www.w3.org/1999/xlink"
     width="128" height="128" version="1.1">
    <title>Clarity Icon</title>
    <desc>This is shape (source) for Clarity vector icon theme for gtk</desc>
    <metadata>
        <rdf:RDF>
            <cc:Work rdf:about="">
                <dc:title>Clarity Icon</dc:title>
                <dc:description>This is shape (source) for Clarity vector icon theme for gtk</dc:description>
                <dc:creator>
                    <cc:Agent>
                        <dc:title>Jakub Jankiewicz</dc:title>
                    </cc:Agent>
                </dc:creator>
                <dc:rights>
                    <cc:Agent>
                        <dc:title>Jakub Jankiewicz</dc:title>
                    </cc:Agent>
                </dc:rights>
                <dc:date>2010</dc:date>
                <dc:format>image/svg+xml</dc:format>
                <dc:type rdf:resource="http://purl.org/dc/dcmitype/StillImage" />
                <cc:license rdf:resource="http://www.gnu.org/copyleft/gpl.html" />
             </cc:Work>
        </rdf:RDF>
    </metadata>
    <path d="m 28.827117,12.754717 c -2.036368,0 -3.648913,1.640189 -3.648913,3.676557 l 0,95.120536 c 0,2.03637 1.612545,3.67656 3.648913,3.67656 l 70.324496,0 c 2.036367,0 3.676557,-1.64019 3.676557,-3.67656 l 0,-82.349339 -19.820229,-16.447754 -54.180824,0 z m 4.063562,6.164453 1.713884,0 c 0.907478,0 1.60331,0.695833 1.60331,1.60331 l 0,16.503039 c 0,0.907477 -0.695832,1.658597 -1.60331,1.658597 l -1.713884,0 c -0.907478,0 -1.658597,-0.75112 -1.658597,-1.658597 l 0,-16.503039 c 0,-0.907477 0.751119,-1.60331 1.658597,-1.60331 z m 8.707625,0 1.741527,0 c 0.907478,0 1.630954,0.695833 1.630954,1.60331 l 0,16.503039 c 0,0.907477 -0.723476,1.658597 -1.630954,1.658597 l -1.741527,0 c -0.907478,0 -1.603301,-0.75112 -1.603301,-1.658597 l 0,-16.503039 c 0,-0.907477 0.695823,-1.60331 1.603301,-1.60331 z m 8.762921,0 1.68624,0 c 0.907478,0 1.658597,0.695833 1.658597,1.60331 l 0,16.503039 c 0,0.907477 -0.751119,1.658597 -1.658597,1.658597 l -1.68624,0 c -0.907479,0 -1.630954,-0.75112 -1.630954,-1.658597 l 0,-16.503039 c 0,-0.907477 0.723475,-1.60331 1.630954,-1.60331 z m 8.735277,0 1.713883,0 c 0.907478,0 1.630954,0.695833 1.630954,1.60331 l 0,16.503039 c 0,0.907477 -0.723476,1.658597 -1.630954,1.658597 l -1.713883,0 c -0.907478,0 -1.630954,-0.75112 -1.630954,-1.658597 l 0,-16.503039 c 0,-0.907477 0.723476,-1.60331 1.630954,-1.60331 z m 8.735277,0 1.713883,0 c 0.907478,0 1.630954,0.695833 1.630954,1.60331 l 0,16.503039 c 0,0.907477 -0.723476,1.658597 -1.630954,1.658597 l -1.713883,0 c -0.907478,0 -1.630954,-0.75112 -1.630954,-1.658597 l 0,-16.503039 c 0,-0.907477 0.723476,-1.60331 1.630954,-1.60331 z m 8.735277,0 1.713883,0 c 0.907478,0 1.658597,0.695833 1.658597,1.60331 l 0,16.503039 c 0,0.907477 -0.751119,1.658597 -1.658597,1.658597 l -1.713883,0 c -0.907478,0 -1.630954,-0.75112 -1.630954,-1.658597 l 0,-16.503039 c 0,-0.907477 0.723476,-1.60331 1.630954,-1.60331 z" style="fill:#aaaaaa"/>
</svg>