<?xml version="1.0" encoding="UTF-8" standalone="no"?>
<svg xmlns:dc="http://purl.org/dc/elements/1.1/"
     xmlns:cc="http://creativecommons.org/ns#"
     xmlns:rdf="http://www.w3.org/1999/02/22-rdf-syntax-ns#"
     xmlns:svg="http://www.w3.org/2000/svg"
     xmlns="http://www.w3.org/2000/svg"
     xmlns:xlink="http://www.w3.org/1999/xlink"
     width="128" height="128" version="1.1">
    <title>Clarity Icon</title>
    <desc>This is shape (source) for Clarity vector icon theme for gtk</desc>
    <metadata>
        <rdf:RDF>
            <cc:Work rdf:about="">
                <dc:title>Clarity Icon</dc:title>
                <dc:description>This is shape (source) for Clarity vector icon theme for gtk</dc:description>
                <dc:creator>
                    <cc:Agent>
                        <dc:title>Jakub Jankiewicz</dc:title>
                    </cc:Agent>
                </dc:creator>
                <dc:rights>
                    <cc:Agent>
                        <dc:title>Jakub Jankiewicz</dc:title>
                    </cc:Agent>
                </dc:rights>
                <dc:date>2010</dc:date>
                <dc:format>image/svg+xml</dc:format>
                <dc:type rdf:resource="http://purl.org/dc/dcmitype/StillImage" />
                <cc:license rdf:resource="http://www.gnu.org/copyleft/gpl.html" />
             </cc:Work>
        </rdf:RDF>
    </metadata>
    <path d="m 23.775922,19.635903 c -3.974969,0 -7.182406,3.169832 -7.182406,7.144801 l 0,57.007998 c 0,3.974969 3.207437,7.182406 7.182406,7.182406 l 83.706988,0 c 3.97497,0 7.14481,-3.207437 7.14481,-7.182406 l 0,-57.007998 c 0,-3.974969 -3.16984,-7.144801 -7.14481,-7.144801 l -83.706988,0 z m 2.970733,8.19772 77.765525,0 0,54.939765 -77.765525,0 0,-54.939765 z m 14.590438,68.063638 c -4.230319,0 -7.633657,3.403336 -7.633657,7.633659 l 63.851966,0 c 0,-4.230323 -3.403336,-7.633659 -7.633657,-7.633659 l -48.584652,0 z" style="fill:#aaaaaa"/>
</svg>