<?xml version="1.0" encoding="UTF-8" standalone="no"?>
<svg xmlns:dc="http://purl.org/dc/elements/1.1/"
     xmlns:cc="http://creativecommons.org/ns#"
     xmlns:rdf="http://www.w3.org/1999/02/22-rdf-syntax-ns#"
     xmlns:svg="http://www.w3.org/2000/svg"
     xmlns="http://www.w3.org/2000/svg"
     xmlns:xlink="http://www.w3.org/1999/xlink"
     width="128" height="128" version="1.1">
    <title>Clarity Icon</title>
    <desc>This is shape (source) for Clarity vector icon theme for gtk</desc>
    <metadata>
        <rdf:RDF>
            <cc:Work rdf:about="">
                <dc:title>Clarity Icon</dc:title>
                <dc:description>This is shape (source) for Clarity vector icon theme for gtk</dc:description>
                <dc:creator>
                    <cc:Agent>
                        <dc:title>Jakub Jankiewicz</dc:title>
                    </cc:Agent>
                </dc:creator>
                <dc:rights>
                    <cc:Agent>
                        <dc:title>Jakub Jankiewicz</dc:title>
                    </cc:Agent>
                </dc:rights>
                <dc:date>2010</dc:date>
                <dc:format>image/svg+xml</dc:format>
                <dc:type rdf:resource="http://purl.org/dc/dcmitype/StillImage" />
                <cc:license rdf:resource="http://www.gnu.org/copyleft/gpl.html" />
             </cc:Work>
        </rdf:RDF>
    </metadata>
    <path d="m 63.95668,26.895864 c -21.435845,0 -40.785196,9.050697 -54.4735308,23.510787 l 8.3043948,7.754435 C 29.363982,45.9454 45.747401,38.335031 63.95668,38.335031 c 18.20618,0 34.584353,7.61401 46.16914,19.826055 l 8.30439,-7.754435 C 104.74188,35.946561 85.392525,26.895864 63.95668,26.895864 z m 0,20.486007 c -15.521611,0 -29.540556,6.538007 -39.487122,16.993763 l 8.304394,7.754436 c 7.84052,-8.205732 18.890571,-13.309031 31.182728,-13.309031 12.292155,0 23.336117,5.103299 31.182728,13.309031 L 103.4713,64.375634 C 93.518226,53.915693 79.481843,47.381871 63.95668,47.381871 z m 0,22.053394 c -9.156485,0 -17.450607,3.840096 -23.373298,9.981774 l 8.331894,7.754434 c 3.809691,-3.88686 9.119547,-6.297042 15.041404,-6.297042 5.916179,0 11.226489,2.416758 15.041404,6.297042 l 8.331893,-7.754435 C 81.407284,73.275361 73.113164,69.435264 63.95668,69.435264 z m 0,19.90855 c -3.44558,0 -6.551403,1.389314 -8.826857,3.629735 l 8.826857,8.2219 8.826857,-8.2219 C 70.508171,90.733744 67.401725,89.343815 63.95668,89.343815 z" style="fill:#aaaaaa"/>
</svg>