<?xml version="1.0" encoding="UTF-8" standalone="no"?>
<svg xmlns:dc="http://purl.org/dc/elements/1.1/"
     xmlns:cc="http://creativecommons.org/ns#"
     xmlns:rdf="http://www.w3.org/1999/02/22-rdf-syntax-ns#"
     xmlns:svg="http://www.w3.org/2000/svg"
     xmlns="http://www.w3.org/2000/svg"
     xmlns:xlink="http://www.w3.org/1999/xlink"
     width="128" height="128" version="1.1">
    <title>VPN Netowrk Icon</title>
    <desc>This is shape (source) for Clarity vector icon theme for gtk</desc>
    <metadata>
        <rdf:RDF>
            <cc:Work rdf:about="">
                <dc:title>VPN Netowrk Icon</dc:title>
                <dc:description>This is shape (source) for Clarity vector icon theme for gtk</dc:description>
                <dc:creator>
                    <cc:Agent>
                        <dc:title>Jakub Jankiewicz</dc:title>
                    </cc:Agent>
                </dc:creator>
                <dc:rights>
                    <cc:Agent>
                        <dc:title>Jakub Jankiewicz</dc:title>
                    </cc:Agent>
                </dc:rights>
                <dc:date>2010</dc:date>
                <dc:format>image/svg+xml</dc:format>
                <dc:type rdf:resource="http://purl.org/dc/dcmitype/StillImage" />
                <cc:license rdf:resource="http://creativecommons.org/licenses/by-sa/3.0/" />
             </cc:Work>
        </rdf:RDF>
    </metadata>
    <path d="m 64.017578,15.827149 c -10.698391,0 -19.441406,8.743022 -19.441406,19.441406 v 11.542968 c -4.259191,0.932828 -7.425781,4.700867 -7.425781,9.248047 v 22.140625 c 0,5.25224 4.232146,9.482422 9.484375,9.482422 H 58.15625 v 14.490233 h -5.9375 c -1.438509,0 -2.59375,1.15524 -2.59375,2.59375 v 4.8125 c 0,1.43851 1.155241,2.59375 2.59375,2.59375 h 23.5625 c 1.438511,0 2.59375,-1.15524 2.59375,-2.59375 v -4.8125 c 0,-1.43851 -1.155239,-2.59375 -2.59375,-2.59375 h -5.9375 V 87.682617 h 11.554688 c 5.252229,0 9.451171,-4.230182 9.451171,-9.482422 V 56.05957 c 0,-4.535787 -3.149518,-8.30334 -7.392578,-9.248047 V 35.268555 c 0,-10.698384 -8.741074,-19.441406 -19.439453,-19.441406 z m 0,6.480468 c 7.196209,0 12.958984,5.764717 12.958984,12.960938 V 46.608399 H 51.056641 V 35.268555 c 0,-7.196221 5.764716,-12.960938 12.960937,-12.960938 z M 7.75,103.92285 v 6.5 h 39.59375 c -10e-4,-0.0436 0,-0.0811 0,-0.125 v -5.4375 c 0,-0.31974 0.03795,-0.63441 0.09375,-0.9375 z m 72.8125,0 c 0.0559,0.30309 0.09375,0.61776 0.09375,0.9375 v 5.4375 c 0,0.0439 0.001,0.0814 0,0.125 H 120.25 v -6.5 z" style="fill:#aaaaaa"/>
</svg>