<?xml version="1.0" encoding="UTF-8" standalone="no"?>
<svg xmlns:dc="http://purl.org/dc/elements/1.1/"
     xmlns:cc="http://creativecommons.org/ns#"
     xmlns:rdf="http://www.w3.org/1999/02/22-rdf-syntax-ns#"
     xmlns:svg="http://www.w3.org/2000/svg"
     xmlns="http://www.w3.org/2000/svg"
     xmlns:xlink="http://www.w3.org/1999/xlink"
     width="128" height="128" version="1.1">
    <title>Clarity Icon</title>
    <desc>This is shape (source) for Clarity vector icon theme for gtk</desc>
    <metadata>
        <rdf:RDF>
            <cc:Work rdf:about="">
                <dc:title>Clarity Icon</dc:title>
                <dc:description>This is shape (source) for Clarity vector icon theme for gtk</dc:description>
                <dc:creator>
                    <cc:Agent>
                        <dc:title>Jakub Jankiewicz</dc:title>
                    </cc:Agent>
                </dc:creator>
                <dc:rights>
                    <cc:Agent>
                        <dc:title>Jakub Jankiewicz</dc:title>
                    </cc:Agent>
                </dc:rights>
                <dc:date>2010</dc:date>
                <dc:format>image/svg+xml</dc:format>
                <dc:type rdf:resource="http://purl.org/dc/dcmitype/StillImage" />
                <cc:license rdf:resource="http://www.gnu.org/copyleft/gpl.html" />
             </cc:Work>
        </rdf:RDF>
    </metadata>
    <path d="m 79.069292,10.541257 c -2.638591,0 -4.755708,2.117127 -4.755708,4.755708 l 0,15.928758 -30.711561,0 c -4.369347,0 -7.907081,3.537724 -7.907081,7.90708 l 0,70.418857 c 0,4.36936 3.537734,7.90708 7.907081,7.90708 l 40.853252,0 c 4.369347,0 7.849783,-3.53772 7.849783,-7.90708 l 0,-70.418857 c 0,-4.369356 -3.480436,-7.90708 -7.849783,-7.90708 l -0.630275,0 0,-15.928758 c 0,-2.638581 -2.117117,-4.755708 -4.755708,-4.755708 z m -31.169942,27.732081 32.2013,0 c 2.606082,0 4.698411,2.092328 4.698411,4.698411 l 0,19.423916 c 0,2.606082 -2.092329,4.755708 -4.698411,4.755708 l -32.2013,0 c -2.606082,0 -4.698411,-2.149626 -4.698411,-4.755708 l 0,-19.423916 c 0,-2.606083 2.092329,-4.698411 4.698411,-4.698411 z m -2.692992,37.014306 6.245448,0 c 1.094725,0 2.005419,0.910715 2.005419,2.00542 l 0,2.177312 c 0,1.094705 -0.910694,1.948121 -2.005419,1.948121 l -6.245448,0 c -1.094725,0 -2.005419,-0.853416 -2.005419,-1.948121 l 0,-2.177312 c 0,-1.094705 0.910694,-2.00542 2.005419,-2.00542 z m 15.642269,0 6.302746,0 c 1.094725,0 1.948121,0.910715 1.948121,2.00542 l 0,2.177312 c 0,1.094705 -0.853396,1.948121 -1.948121,1.948121 l -6.302746,0 c -1.094725,0 -1.948121,-0.853416 -1.948121,-1.948121 l 0,-2.177312 c 0,-1.094705 0.853396,-2.00542 1.948121,-2.00542 z m 15.699567,0 6.302745,0 c 1.094725,0 1.948122,0.910715 1.948122,2.00542 l 0,2.177312 c 0,1.094705 -0.853397,1.948121 -1.948122,1.948121 l -6.302745,0 c -1.094725,0 -1.948122,-0.853416 -1.948122,-1.948121 l 0,-2.177312 c 0,-1.094705 0.853397,-2.00542 1.948122,-2.00542 z m -31.341836,11.230347 6.245448,0 c 1.094725,0 2.005419,0.910715 2.005419,2.005419 l 0,2.177313 c 0,1.094704 -0.910694,2.005419 -2.005419,2.005419 l -6.245448,0 c -1.094725,0 -2.005419,-0.910715 -2.005419,-2.005419 l 0,-2.177313 c 0,-1.094704 0.910694,-2.005419 2.005419,-2.005419 z m 15.642269,0 6.302746,0 c 1.094725,0 1.948121,0.910715 1.948121,2.005419 l 0,2.177313 c 0,1.094704 -0.853396,2.005419 -1.948121,2.005419 l -6.302746,0 c -1.094725,0 -1.948121,-0.910715 -1.948121,-2.005419 l 0,-2.177313 c 0,-1.094704 0.853396,-2.005419 1.948121,-2.005419 z m 15.699567,0 6.302745,0 c 1.094725,0 1.948122,0.910715 1.948122,2.005419 l 0,2.177313 c 0,1.094704 -0.853397,2.005419 -1.948122,2.005419 l -6.302745,0 c -1.094725,0 -1.948122,-0.910715 -1.948122,-2.005419 l 0,-2.177313 c 0,-1.094704 0.853397,-2.005419 1.948122,-2.005419 z m -31.341836,11.287645 6.245448,0 c 1.094725,0 2.005419,0.853416 2.005419,1.948121 l 0,2.234613 c 0,1.0947 -0.910694,1.94812 -2.005419,1.94812 l -6.245448,0 c -1.094725,0 -2.005419,-0.85342 -2.005419,-1.94812 l 0,-2.234613 c 0,-1.094705 0.910694,-1.948121 2.005419,-1.948121 z m 15.642269,0 6.302746,0 c 1.094725,0 1.948121,0.853416 1.948121,1.948121 l 0,2.234613 c 0,1.0947 -0.853396,1.94812 -1.948121,1.94812 l -6.302746,0 c -1.094725,0 -1.948121,-0.85342 -1.948121,-1.94812 l 0,-2.234613 c 0,-1.094705 0.853396,-1.948121 1.948121,-1.948121 z m 15.699567,0 6.302745,0 c 1.094725,0 1.948122,0.853416 1.948122,1.948121 l 0,2.234613 c 0,1.0947 -0.853397,1.94812 -1.948122,1.94812 l -6.302745,0 c -1.094725,0 -1.948122,-0.85342 -1.948122,-1.94812 l 0,-2.234613 c 0,-1.094705 0.853397,-1.948121 1.948122,-1.948121 z" style="fill:#aaaaaa"/>
</svg>