<?xml version="1.0" encoding="UTF-8" standalone="no"?>
<svg xmlns:dc="http://purl.org/dc/elements/1.1/"
     xmlns:cc="http://creativecommons.org/ns#"
     xmlns:rdf="http://www.w3.org/1999/02/22-rdf-syntax-ns#"
     xmlns:svg="http://www.w3.org/2000/svg"
     xmlns="http://www.w3.org/2000/svg"
     xmlns:xlink="http://www.w3.org/1999/xlink"
     width="128" height="128" version="1.1">
    <title>Perl Icon</title>
    <desc>This is shape (source) for Clarity vector icon theme for gtk</desc>
    <metadata>
        <rdf:RDF>
            <cc:Work rdf:about="">
                <dc:title>Perl Icon</dc:title>
                <dc:description>This is shape (source) for Clarity vector icon theme for gtk</dc:description>
                <dc:creator>
                    <cc:Agent>
                        <dc:title>Jakub Jankiewicz</dc:title>
                    </cc:Agent>
                </dc:creator>
                <dc:rights>
                    <cc:Agent>
                        <dc:title>Jakub Jankiewicz</dc:title>
                    </cc:Agent>
                </dc:rights>
                <dc:date>2010</dc:date>
                <dc:format>image/svg+xml</dc:format>
                <dc:type rdf:resource="http://purl.org/dc/dcmitype/StillImage" />
                <cc:license rdf:resource="http://www.gnu.org/copyleft/gpl.html" />
             </cc:Work>
        </rdf:RDF>
    </metadata>
    <path d="m 79.193768,10.017858 c 0.437139,-0.025725 0.880583,-0.0084 1.344919,0 3.095575,0.05617 6.619773,0.785974 8.133562,1.921313 2.422059,1.816544 4.838207,5.82793 5.443721,9.158262 0.605514,3.33033 2.701445,7.219432 5.123503,10.247006 2.422057,3.027572 5.443717,8.209208 5.443717,10.631268 0,2.422058 4.82655,5.420402 6.34034,7.236949 1.51378,1.816544 2.11345,7.574572 2.11345,11.207662 0,3.633088 -2.03775,10.549711 -2.94602,13.577282 -0.90827,3.027575 -6.10747,1.839862 -4.29094,-1.793226 1.81648,-3.633088 2.39875,-11.772342 1.79323,-16.010946 -0.60551,-4.238602 -3.30115,-2.427916 -3.90667,2.113445 -0.60551,4.54136 0,13.006635 0,17.547997 0,4.541361 0.88496,8.133505 1.79323,11.463836 0.90827,3.330334 0.31442,5.170032 -0.89662,8.197604 -1.21102,3.027582 -1.48466,8.77394 -0.57638,12.10427 0.90826,3.33035 1.79321,8.19761 1.79321,8.19761 l -9.030167,0 c 0,0 0.884953,-6.39852 1.793226,-8.51783 0.908272,-2.1193 2.113441,-7.16703 2.113441,-9.286338 0,-2.119308 -0.57639,-12.162459 -0.57639,-14.281766 0,-2.1193 -2.777148,-5.443666 -4.290934,-8.773999 -1.513786,-3.33033 -2.451125,-7.266014 -2.753883,-9.99083 -0.302757,-2.724816 -2.037742,-1.187765 -2.946014,1.53705 -0.908272,2.724817 -3.074102,7.190312 -3.074102,10.8234 0,3.633088 -0.256174,7.871531 -0.256174,9.990829 0,2.119298 -1.851416,2.509315 -3.970716,4.931375 -2.119302,2.422059 -3.716455,6.620893 -4.034758,8.773999 -0.263959,1.78552 3.138145,3.33027 3.138145,3.33027 1.211867,2.92708 1.165494,5.24239 1.152788,7.55717 l -5.571808,0.12808 c 0,0 1.41482,-3.20798 -0.704483,-4.41902 -2.1193,-1.21103 -2.497707,0.34348 -2.497707,1.85727 l 0,1.85728 -10.567225,0 c 0,0 6.914124,-6.50134 8.45378,-7.36504 1.586651,-0.89006 -8.07654,-10.573312 -12.104276,-13.321104 -2.151441,-1.467749 2.404544,-10.217832 3.010059,-14.153677 0.605624,-3.935847 0.640437,-5.827985 0.640437,-5.827985 l -6.660554,0 c 0,0 -2.69564,10.928115 -3.906671,16.074987 -1.21103,5.146881 1.513789,6.707086 0,9.734657 -1.513788,3.027583 -5.187547,21.518712 -5.187547,21.518712 l -10.887443,0 c 0,0 8.506165,-3.42914 9.414436,-10.69532 0.908273,-7.26617 0.55313,-18.421225 -0.960656,-23.568104 -1.513786,-5.146875 0.320219,-16.395209 0.320219,-16.395209 0,0 -7.745022,4.121278 -14.217721,0.384262 -6.4727,-3.737015 -12.424495,-15.440301 -12.424495,-19.981661 0,-4.541362 1.816489,-11.556948 3.330277,-14.281764 1.513787,-2.724815 1.222689,-4.791625 -0.896613,-5.699897 -2.119303,-0.908274 -3.341882,0 -5.763941,0 -2.422059,0 -0.59391,-8.808923 2.433664,-9.414436 3.027575,-0.605628 6.02592,-0.576395 7.236948,-0.576395 1.211033,0 5.472789,-4.290934 8.197605,-4.290934 4.238602,0 6.05504,2.392885 6.660554,3.906671 0.605516,1.513787 3.027521,3.714487 3.330277,7.044817 0.302758,3.330332 -0.320219,6.608115 -0.320219,9.030174 0,2.42206 -3.330277,3.929882 -3.330277,8.773998 0,4.844121 0.64624,5.507766 1.85727,5.507766 1.211029,0 2.066862,-3.056587 2.36962,-6.08416 0.302756,-3.027576 4.873129,-7.248553 6.084159,-9.670611 1.211029,-2.422059 4.529591,-1.857215 7.557167,-5.187547 3.027573,-3.33033 5.129307,-7.522188 6.340336,-10.247006 1.211029,-2.724816 8.803063,-4.314199 11.527881,-5.827985 0.766353,-0.425756 1.954814,-0.627315 3.266233,-0.704481 z m -2.689839,57.767495 c 0,0 -0.960765,4.931909 -1.665139,8.45378 -0.704375,3.521872 -4.227211,8.005797 -6.340335,10.118915 -2.113122,2.11313 -2.540152,2.839523 -0.896613,4.48307 1.643541,1.643536 6.020332,7.044813 7.42908,7.044813 1.40875,0 2.391325,-3.522944 4.73924,-7.044813 2.347914,-3.521869 -0.725759,-8.667939 -0.256175,-13.128977 0.469583,-4.461037 -0.192132,-9.926788 -0.192132,-9.926788 z" style="fill:#aaaaaa"/>
</svg>