<?xml version="1.0" encoding="UTF-8" standalone="no"?>
<svg xmlns:dc="http://purl.org/dc/elements/1.1/"
     xmlns:cc="http://creativecommons.org/ns#"
     xmlns:rdf="http://www.w3.org/1999/02/22-rdf-syntax-ns#"
     xmlns:svg="http://www.w3.org/2000/svg"
     xmlns="http://www.w3.org/2000/svg"
     xmlns:xlink="http://www.w3.org/1999/xlink"
     width="128" height="128" version="1.1">
    <title>Sciense Icon</title>
    <desc>This is shape (source) for Clarity vector icon theme for gtk</desc>
    <metadata>
        <rdf:RDF>
            <cc:Work rdf:about="">
                <dc:title>Sciense Icon</dc:title>
                <dc:description>This is shape (source) for Clarity vector icon theme for gtk</dc:description>
                <dc:creator>
                    <cc:Agent>
                        <dc:title>Jakub Jankiewicz</dc:title>
                    </cc:Agent>
                </dc:creator>
                <dc:rights>
                    <cc:Agent>
                        <dc:title>Jakub Jankiewicz</dc:title>
                    </cc:Agent>
                </dc:rights>
                <dc:date>2010</dc:date>
                <dc:format>image/svg+xml</dc:format>
                <dc:type rdf:resource="http://purl.org/dc/dcmitype/StillImage" />
                <cc:license rdf:resource="http://creativecommons.org/licenses/by-sa/3.0/" />
             </cc:Work>
        </rdf:RDF>
    </metadata>
    <path d="m 36.741249,8.2121036 c -3.649999,0 -6.990629,0.4905277 -9.800082,1.3075287 L 9.9543367,14.604466 c -1.027537,0.263691 -1.7422306,1.190369 -1.7422306,2.251855 0,1.061486 0.7146936,1.988164 1.7422306,2.251856 l 1.5970553,0.435843 8.348227,10.242309 0,68.572618 c -1.241762,1.006061 -2.322982,2.225563 -2.322982,3.995223 l 0,2.3245 c 0,1.68234 0.96338,3.10364 2.105207,4.06787 1.141826,0.96422 2.562692,1.663 4.210413,2.25185 3.295417,1.1777 7.555786,1.81601 12.26824,1.81601 1.328918,0 2.601998,-0.0501 3.847437,-0.14527 0.623532,0.55724 1.266487,1.10238 1.960032,1.59809 4.869269,3.48031 11.402969,5.52068 18.58386,5.52068 7.180891,0 13.714592,-2.04037 18.583861,-5.52068 4.554498,-3.25533 7.669922,-7.90336 8.057851,-13.14793 7.800948,-0.10085 14.897442,-1.1941 20.253512,-3.12354 2.80489,-1.010422 5.10837,-2.255339 6.89635,-3.777304 1.78798,-1.521967 3.12151,-3.494328 3.12151,-5.81124 l 0,-29.92788 0,-16.489392 c 1.27661,-1.320107 2.32298,-2.852217 2.32298,-4.721631 l 0,-2.324494 c 0,-2.386786 -1.59122,-4.386392 -3.55706,-5.665958 -1.96584,-1.279569 -4.41231,-2.141269 -7.40452,-2.832981 -5.98437,-1.38342 -13.960669,-1.961291 -22.721676,-1.961291 -8.761007,0 -16.737281,0.577871 -22.721673,1.961291 -2.992184,0.691712 -5.438686,1.553412 -7.404499,2.832981 -1.965839,1.279566 -3.557087,3.279172 -3.557087,5.665958 l 0,-13.874335 c 1.255532,-1.070938 2.322982,-2.385379 2.322982,-4.213148 0,-1.652346 -0.860984,-3.094912 -1.960006,-4.140506 C 51.68533,11.670218 50.327554,10.895463 48.719138,10.246036 45.502307,8.9471877 41.323565,8.2121036 36.741249,8.2121036 z m 0,4.6489904 c 4.073125,0 7.776249,0.677711 10.235633,1.670731 1.229692,0.496512 2.124758,1.060604 2.613359,1.525451 0.4886,0.464848 0.508151,0.715411 0.508151,0.799045 0,0.03494 -0.164574,0.479119 -1.306679,1.234888 -0.647393,0.440628 -1.029439,1.177931 -1.016303,1.961294 l 0,32.833499 c -1.734421,0.661254 -3.457201,1.325124 -5.299292,1.888653 -0.781716,0.228502 -1.389068,0.882851 -1.597056,1.670731 -0.207936,0.78788 0.01268,1.594238 0.580752,2.179215 l 6.315596,6.682925 0,5.375397 c -0.176493,0.41454 -0.364523,0.80101 -0.653327,1.162247 -0.470698,0.58875 -1.115099,1.37239 -1.669656,2.033933 l 0,-4.067866 -18.58386,0 0,32.542933 c 0,1.7765 3.551051,3.19865 8.130451,3.41411 0.341676,0.83948 0.756256,1.61341 1.234079,2.39713 -0.02536,1.2e-4 -0.04793,0 -0.07252,0 -4.263564,0 -8.152767,-0.67212 -10.743785,-1.59809 -1.295521,-0.46298 -2.253957,-0.95405 -2.758559,-1.38017 -0.504576,-0.42611 -0.435551,-0.58691 -0.435551,-0.50848 l 0,-2.3245 c 0,0.16483 0.0497,-0.35019 1.161504,-1.01696 0.702927,-0.40589 1.143246,-1.1494 1.161478,-1.961295 l 0,-70.388633 c 4.06e-4,-0.527959 -0.178775,-1.040328 -0.508151,-1.452808 l -8.057852,-9.879108 12.268265,-3.632023 c 2.356329,-0.685227 5.279716,-1.162249 8.493403,-1.162249 z m 49.363385,16.27147 c 8.549875,0 16.264756,0.575077 21.632796,1.816012 2.68401,0.620468 4.81584,1.464656 6.02522,2.251856 1.2094,0.7872 1.37928,1.243132 1.37928,1.743372 l 0,2.324493 c 0,0.45593 -0.27197,1.139255 -1.45186,2.106577 -0.551,0.44148 -0.87153,1.109682 -0.87112,1.81601 l 0,17.288437 0,29.92788 c 0,0.570109 -0.29981,1.343852 -1.45186,2.324496 -1.15204,0.980643 -3.06625,2.022738 -5.51709,2.905619 -4.72914,1.703598 -11.484396,2.828804 -18.946838,2.905619 -0.123748,-0.835721 -0.25703,-1.669849 -0.435551,-2.469776 13.293494,-0.06515 24.028349,-3.632449 24.028349,-7.990454 l 0,-29.056194 -34.844734,0 c 0,-1.529217 -0.840115,-2.736429 -1.814831,-3.559385 -0.974716,-0.822955 -2.144081,-1.404893 -3.484487,-1.888653 -2.680786,-0.967514 -6.116306,-1.525449 -9.800082,-1.525449 -0.406617,0 -0.770785,0.05617 -1.161504,0.07265 l 0,-8.934781 c 4.06e-4,-0.706328 -0.320121,-1.37453 -0.871102,-1.81601 -1.179914,-0.967322 -1.45188,-1.650647 -1.45188,-2.106576 l 0,-2.324494 c 0,-0.500238 0.169899,-0.956172 1.379279,-1.743372 1.209406,-0.7872 3.341239,-1.631388 6.025245,-2.251855 5.368013,-1.240946 13.082921,-1.816023 21.63277,-1.816023 z m -33.683259,8.135733 c 0,1.869415 1.046403,3.401525 2.322982,4.721632 l 0,8.716858 c -0.795535,0.17099 -1.57408,0.360907 -2.322982,0.581125 l 0,-14.019615 z m 8.130451,17.433717 c 3.216654,0 6.220731,0.519464 8.203027,1.234888 0.991148,0.357712 1.689942,0.800295 2.032606,1.089609 -0.250791,0.291674 -0.425484,0.641114 -0.508151,1.016967 -0.15646,0.746067 -1.330288,3.605803 -1.887406,6.682923 -0.557118,3.077121 -0.536933,6.901179 1.960006,10.024388 4.690621,5.867078 11.661572,13.950708 12.268265,25.278891 0.0025,0.0501 -0.0023,0.0951 0,0.14527 -0.05198,3.87847 -2.257077,7.51788 -6.17042,10.31495 -3.960408,2.8307 -9.614815,4.649 -15.897927,4.649 -6.283111,0 -11.937519,-1.8183 -15.897926,-4.649 -3.960383,-2.83069 -6.17042,-6.52891 -6.17042,-10.46023 -0.11183,-11.832576 7.440431,-19.240187 12.268265,-25.278886 2.66235,-3.330124 2.428751,-7.474239 1.74223,-10.678151 -0.0918,-0.40895 -0.292531,-0.785435 -0.580752,-1.089608 l -4.645965,-4.939552 c 4.501982,-1.66204 8.289472,-3.341464 13.284568,-3.341464 z m 17.349782,22.08271 c 0.702065,0.930141 1.400834,1.936233 2.105207,2.97826 -0.707442,-1.04576 -1.400124,-2.045081 -2.105207,-2.97826 z m -36.949945,2.760337 c -0.721186,1.002696 -1.426395,2.074594 -2.105207,3.196182 0.68647,-1.126317 1.376287,-2.191232 2.105207,-3.196182 z m 6.460796,2.760339 c -3.565202,4.672733 -6.675098,10.047768 -6.605997,17.361076 2.03e-4,0.02434 2.03e-4,0.04841 0,0.07265 0,3.052843 1.719763,6.064993 5.226717,8.571573 3.506954,2.50659 8.683437,4.21315 14.518647,4.21315 5.835211,0 11.011694,-1.70656 14.518648,-4.21315 3.48086,-2.48794 5.201663,-5.46979 5.226717,-8.498932 -0.0014,-0.0251 0.0014,-0.0476 0,-0.07265 C 79.899524,92.736793 76.867934,87.084204 73.473418,82.3054 l -26.060959,0 z" style="fill:#aaaaaa"/>
</svg>