<?xml version="1.0" encoding="UTF-8" standalone="no"?>
<svg xmlns:dc="http://purl.org/dc/elements/1.1/"
     xmlns:cc="http://creativecommons.org/ns#"
     xmlns:rdf="http://www.w3.org/1999/02/22-rdf-syntax-ns#"
     xmlns:svg="http://www.w3.org/2000/svg"
     xmlns="http://www.w3.org/2000/svg"
     xmlns:xlink="http://www.w3.org/1999/xlink"
     width="128" height="128" version="1.1">
    <title>Clarity Icon</title>
    <desc>This is shape (source) for Clarity vector icon theme for gtk</desc>
    <metadata>
        <rdf:RDF>
            <cc:Work rdf:about="">
                <dc:title>Clarity Icon</dc:title>
                <dc:description>This is shape (source) for Clarity vector icon theme for gtk</dc:description>
                <dc:creator>
                    <cc:Agent>
                        <dc:title>Jakub Jankiewicz</dc:title>
                    </cc:Agent>
                </dc:creator>
                <dc:rights>
                    <cc:Agent>
                        <dc:title>Jakub Jankiewicz</dc:title>
                    </cc:Agent>
                </dc:rights>
                <dc:date>2010</dc:date>
                <dc:format>image/svg+xml</dc:format>
                <dc:type rdf:resource="http://purl.org/dc/dcmitype/StillImage" />
                <cc:license rdf:resource="http://www.gnu.org/copyleft/gpl.html" />
             </cc:Work>
        </rdf:RDF>
    </metadata>
    <path d="m 13.850281,26.702976 0,74.594034 100.299429,0 0,-74.594034 z m 6.835142,8.505956 86.679757,0 0,36.731271 c -4.50752,4.238522 -12.732918,10.511718 -21.264882,9.012269 -16.719345,-2.938324 -30.122585,-18.30136 -56.20009,-5.670647 -4.749641,2.300502 -7.561398,5.434164 -9.214785,7.949021 z m 62.782079,9.930408 c -4.80947,0 -8.708483,3.899011 -8.708483,8.708483 0,4.809471 3.899013,8.708482 8.708483,8.708482 4.809471,0 8.70848,-3.899011 8.70848,-8.708482 0,-4.809472 -3.899009,-8.708483 -8.70848,-8.708483 z" style="fill:#aaaaaa"/>
</svg>