<?xml version="1.0" encoding="UTF-8" standalone="no"?>
<svg xmlns:dc="http://purl.org/dc/elements/1.1/"
     xmlns:cc="http://creativecommons.org/ns#"
     xmlns:rdf="http://www.w3.org/1999/02/22-rdf-syntax-ns#"
     xmlns:svg="http://www.w3.org/2000/svg"
     xmlns="http://www.w3.org/2000/svg"
     xmlns:xlink="http://www.w3.org/1999/xlink"
     width="128" height="128" version="1.1">
    <title>Applications Engineering</title>
    <desc>This is shape (source) for Clarity vector icon theme for gtk</desc>
    <metadata>
        <rdf:RDF>
            <cc:Work rdf:about="">
                <dc:title>Applications Engineering</dc:title>
                <dc:description>This is shape (source) for Clarity vector icon theme for gtk</dc:description>
                <dc:creator>
                    <cc:Agent>
                        <dc:title>Jakub Jankiewicz</dc:title>
                    </cc:Agent>
                </dc:creator>
                <dc:rights>
                    <cc:Agent>
                        <dc:title>Jakub Jankiewicz</dc:title>
                    </cc:Agent>
                </dc:rights>
                <dc:date>2010</dc:date>
                <dc:format>image/svg+xml</dc:format>
                <dc:type rdf:resource="http://purl.org/dc/dcmitype/StillImage" />
                <cc:license rdf:resource="http://www.gnu.org/copyleft/gpl.html" />
             </cc:Work>
        </rdf:RDF>
    </metadata>
    <path d="M 82.1875 15.875 C 80.108972 16.67666 78.044055 17.69298 76.3125 19.09375 C 68.024501 25.797924 67.93874 36.835211 76.09375 43.75 C 77.797624 45.194758 79.843908 46.270084 81.90625 47.125 C 82.073538 47.193 82.0625 59.5 82.0625 59.5 C 91.02567 64.013177 96.22622 70.01368 100.125 76.03125 L 100.125 47.46875 C 102.20347 46.66709 104.11214 45.525709 105.84375 44.125 C 114.13175 37.420826 114.24876 26.384141 106.09375 19.46875 L 106.03125 19.46875 C 104.32737 18.023992 102.28115 16.948605 100.21875 16.09375 L 100.09375 29.53125 C 100.06365 32.291329 97.36378 33.90625 94.03125 33.90625 L 88.03125 33.90625 C 84.698961 33.86413 82.004171 32.041329 82.03125 29.28125 L 82.1875 15.875 z M 63.96875 64 C 39.908101 64 27.875 82.041039 27.875 100.09375 L 17.375 100.09375 C 15.871209 100.09375 15.84375 101.03484 15.84375 101.59375 L 15.84375 110.625 C 15.84375 112.1294 16.702476 112.125 17.375 112.125 L 110.59375 112.125 C 111.76928 112.1611 112.09375 111.35024 112.09375 110.625 L 112.09375 101.59375 C 112.22132 100.71488 112.09754 100.09375 110.59375 100.09375 L 100.0625 100.09375 C 100.0625 82.041039 88.030001 64 63.96875 64 z M 63.96875 82.03125 C 78.11064 82.03125 82.03125 92.642792 82.03125 100.09375 L 45.9375 100.09375 C 45.9375 92.886504 50.150786 82.03125 63.96875 82.03125 z " style="fill:#aaaaaa"/>
</svg>