<?xml version="1.0" encoding="UTF-8" standalone="no"?>
<!--
    This is shape (source) for Clarity vector icon theme for gtk

    Copyright (c) 2010 Jakub Jankiewicz <http://jcubic.pl> 

    This svg file is free: you can redistribute it and/or modify
    it under the terms of the GNU General Public License as published by
    the Free Software Foundation, either version 3 of the License, or
    (at your option) any later version.

    This program is distributed in the hope that it will be useful,
    but WITHOUT ANY WARRANTY; without even the implied warranty of
    MERCHANTABILITY or FITNESS FOR A PARTICULAR PURPOSE.  See the
    GNU General Public License for more details.

    You should have received a copy of the GNU General Public License
    along with this program.  If not, see <http://www.gnu.org/licenses/>.

-->
<svg xmlns:dc="http://purl.org/dc/elements/1.1/"
     xmlns:cc="http://creativecommons.org/ns#"
     xmlns:rdf="http://www.w3.org/1999/02/22-rdf-syntax-ns#"
     xmlns:svg="http://www.w3.org/2000/svg"
     xmlns="http://www.w3.org/2000/svg"
     xmlns:xlink="http://www.w3.org/1999/xlink"
     width="128" height="128" version="1.1">
    <title>Devel Icon</title>
    <desc>This is shape (source) for Clarity vector icon theme for gtk</desc>
    <metadata>
        <rdf:RDF>
            <cc:Work rdf:about="">
                <dc:title>Devel Icon</dc:title>
                <dc:description>This is shape (source) for Clarity vector icon theme for gtk</dc:description>
                <dc:creator>
                    <cc:Agent>
                        <dc:title>Jakub Jankiewicz</dc:title>
                    </cc:Agent>
                </dc:creator>
                <dc:rights>
                    <cc:Agent>
                        <dc:title>Jakub Jankiewicz</dc:title>
                    </cc:Agent>
                </dc:rights>
                <dc:date>2010</dc:date>
                <dc:format>image/svg+xml</dc:format>
                <dc:type rdf:resource="http://purl.org/dc/dcmitype/StillImage" />
                <cc:license rdf:resource="http://www.gnu.org/copyleft/gpl.html" />
             </cc:Work>
        </rdf:RDF>
    </metadata>
    <path d="m 46.596843,16.541279 c -1.93702,0 -3.51036,1.546746 -3.51036,3.483766 l 0,11.249108 6.994126,0 0,-11.249108 c 0,-1.93702 -1.546746,-3.483766 -3.483766,-3.483766 z m 12.020323,0 c -1.93702,0 -3.483766,1.546746 -3.483766,3.483766 l 0,11.249108 6.994126,0 0,-11.249108 c 0,-1.93702 -1.57334,-3.483766 -3.51036,-3.483766 z m 12.046918,0 c -1.93702,0 -3.51036,1.546746 -3.51036,3.483766 l 0,11.249108 6.994126,0 0,-11.249108 c 0,-1.93702 -1.546746,-3.483766 -3.483766,-3.483766 z m 12.046917,0 c -1.93702,0 -3.51036,1.546746 -3.51036,3.483766 l 0,11.249108 6.994126,0 0,-11.249108 c 0,-1.93702 -1.546746,-3.483766 -3.483766,-3.483766 z M 44.442759,33.720768 c -5.23744,0 -9.467335,4.203301 -9.467335,9.440741 l 0,40.395732 c 0,5.23744 4.229895,9.467335 9.467335,9.467335 l 40.395732,0 c 5.237439,0 9.440741,-4.229895 9.440741,-9.467335 l 0,-40.395732 c 0,-5.23744 -4.203302,-9.440741 -9.440741,-9.440741 l -40.395732,0 z m -23.136464,8.084465 c -1.937021,0 -3.483766,1.546746 -3.483766,3.483766 0,1.93702 1.546745,3.51036 3.483766,3.51036 l 11.249108,0 0,-6.994126 -11.249108,0 z m 75.419552,0 0,6.994126 11.249103,0 c 1.93703,0 3.48377,-1.546746 3.48377,-3.483766 0,-1.93702 -1.54674,-3.51036 -3.48377,-3.51036 l -11.249103,0 z M 21.306295,53.85215 c -1.937021,0 -3.483766,1.546746 -3.483766,3.483766 0,1.93702 1.546745,3.51036 3.483766,3.51036 l 11.249108,0 0,-6.994126 -11.249108,0 z m 75.419552,0 0,6.994126 11.249103,0 c 1.93703,0 3.48377,-1.57334 3.48377,-3.51036 0,-1.93702 -1.54674,-3.483766 -3.48377,-3.483766 l -11.249103,0 z M 21.306295,65.872474 c -1.937021,0 -3.483766,1.57334 -3.483766,3.51036 0,1.93702 1.546745,3.483766 3.483766,3.483766 l 11.249108,0 0,-6.994126 -11.249108,0 z m 75.419552,0 0,6.994126 11.249103,0 c 1.93703,0 3.48377,-1.546746 3.48377,-3.483766 0,-1.93702 -1.54674,-3.51036 -3.48377,-3.51036 l -11.249103,0 z M 21.306295,77.919391 c -1.937021,0 -3.483766,1.546746 -3.483766,3.483766 0,1.93702 1.546745,3.51036 3.483766,3.51036 l 11.249108,0 0,-6.994126 -11.249108,0 z m 75.419552,0 0,6.994126 11.249103,0 c 1.93703,0 3.48377,-1.546746 3.48377,-3.483766 0,-1.93702 -1.54674,-3.51036 -3.48377,-3.51036 l -11.249103,0 z m -53.639364,17.525206 0,11.249103 c 0,1.93703 1.546746,3.48377 3.483766,3.48377 1.93702,0 3.51036,-1.54674 3.51036,-3.48377 l 0,-11.249103 -6.994126,0 z m 12.046917,0 0,11.249103 c 0,1.93703 1.546746,3.48377 3.483766,3.48377 1.93702,0 3.51036,-1.54674 3.51036,-3.48377 l 0,-11.249103 -6.994126,0 z m 12.020324,0 0,11.249103 c 0,1.93703 1.57334,3.48377 3.51036,3.48377 1.93702,0 3.483766,-1.54674 3.483766,-3.48377 l 0,-11.249103 -6.994126,0 z m 12.046917,0 0,11.249103 c 0,1.93703 1.546746,3.48377 3.483766,3.48377 1.93702,0 3.51036,-1.54674 3.51036,-3.48377 l 0,-11.249103 -6.994126,0 z" style="fill:#aaaaaa"/>
</svg>