<?xml version="1.0" encoding="UTF-8" standalone="no"?>
<svg xmlns:dc="http://purl.org/dc/elements/1.1/"
     xmlns:cc="http://creativecommons.org/ns#"
     xmlns:rdf="http://www.w3.org/1999/02/22-rdf-syntax-ns#"
     xmlns:svg="http://www.w3.org/2000/svg"
     xmlns="http://www.w3.org/2000/svg"
     xmlns:xlink="http://www.w3.org/1999/xlink"
     width="128" height="128" version="1.1">
    <title>Office Icon</title>
    <desc>This is shape (source) for Clarity vector icon theme for gtk</desc>
    <metadata>
        <rdf:RDF>
            <cc:Work rdf:about="">
                <dc:title>Office Icon</dc:title>
                <dc:description>This is shape (source) for Clarity vector icon theme for gtk</dc:description>
                <dc:creator>
                    <cc:Agent>
                        <dc:title>Jakub Jankiewicz</dc:title>
                    </cc:Agent>
                </dc:creator>
                <dc:rights>
                    <cc:Agent>
                        <dc:title>Jakub Jankiewicz</dc:title>
                    </cc:Agent>
                </dc:rights>
                <dc:date>2010</dc:date>
                <dc:format>image/svg+xml</dc:format>
                <dc:type rdf:resource="http://purl.org/dc/dcmitype/StillImage" />
                <cc:license rdf:resource="http://www.gnu.org/copyleft/gpl.html" />
             </cc:Work>
        </rdf:RDF>
    </metadata>
    <path d="m 93.578123,10.421875 -16.53125,40.25 27.531257,-33.65625 C 101.2496,14.29243 97.556332,12.055504 93.578123,10.421875 z m -38.562501,20.15625 c -24.023961,0 -43.5,19.476039 -43.5,43.5 0,24.023961 19.476039,43.500005 43.5,43.500005 24.023961,0 43.500001,-19.476044 43.500001,-43.500005 0,-1.619161 -0.10889,-3.207983 -0.28125,-4.78125 l -38.062501,1.6875 15.937501,-34.9375 c -6.25276,-3.478238 -13.431131,-5.46875 -21.093751,-5.46875 z m 47.062508,0.84375 -28.937507,32.4375 43.343757,-3.71875 C 115.53036,49.080762 110.3628,38.810702 102.07813,31.421875 z" style="fill:#aaaaaa"/>
</svg>