<?xml version="1.0" encoding="UTF-8" standalone="no"?>
<svg xmlns:dc="http://purl.org/dc/elements/1.1/"
     xmlns:cc="http://creativecommons.org/ns#"
     xmlns:rdf="http://www.w3.org/1999/02/22-rdf-syntax-ns#"
     xmlns:svg="http://www.w3.org/2000/svg"
     xmlns="http://www.w3.org/2000/svg"
     xmlns:xlink="http://www.w3.org/1999/xlink"
     width="128" height="128" version="1.1">
    <title>Development Icon</title>
    <desc>This is shape (source) for Clarity vector icon theme for gtk</desc>
    <metadata>
        <rdf:RDF>
            <cc:Work rdf:about="">
                <dc:title>Development Icon</dc:title>
                <dc:description>This is shape (source) for Clarity vector icon theme for gtk</dc:description>
                <dc:creator>
                    <cc:Agent>
                        <dc:title>Jakub Jankiewicz</dc:title>
                    </cc:Agent>
                </dc:creator>
                <dc:rights>
                    <cc:Agent>
                        <dc:title>Jakub Jankiewicz</dc:title>
                    </cc:Agent>
                </dc:rights>
                <dc:date>2010</dc:date>
                <dc:format>image/svg+xml</dc:format>
                <dc:type rdf:resource="http://purl.org/dc/dcmitype/StillImage" />
                <cc:license rdf:resource="http://www.gnu.org/copyleft/gpl.html" />
             </cc:Work>
        </rdf:RDF>
    </metadata>
    <path d="m 107.26265,12.050703 c 0.21867,-0.01642 0.42022,-0.0039 0.63833,0 1.52684,0.0275 3.03246,0.565276 4.27196,1.718599 l 1.915,1.816804 c 1.42688,1.327582 1.99715,3.110438 1.81681,4.812078 -0.18034,1.70164 -1.04992,3.353372 -2.40605,4.615666 L 90.32217,46.177172 c -1.433105,1.333957 -3.69389,2.287076 -5.990545,2.749758 -0.92971,0.187302 -1.879615,0.332234 -2.798862,0.294617 -0.04384,0.04661 -0.103089,0.102197 -0.147309,0.147309 -1.334306,1.360781 -2.209628,4.763917 -2.209628,11.981091 -4e-6,2.709829 0.590834,4.514108 1.7186,6.432471 0.145958,0.248246 0.04576,0.577779 0.0982,0.883852 l 0.04911,-0.04911 c 0.04846,0.09368 0.09937,0.199161 0.147308,0.294617 0.0044,0.0089 -0.0044,0.04014 0,0.04911 1.123638,2.24361 2.125111,4.918011 2.406039,7.610939 0.294017,2.818382 -0.179099,5.729113 -2.307834,7.709145 -0.347713,0.323348 -0.776715,0.560539 -1.374879,0.932954 -0.598165,0.372415 -1.331073,0.799953 -2.258729,1.325776 -1.855318,1.051647 -4.347744,2.441096 -7.26722,3.97733 -5.838951,3.072468 -13.423867,6.899996 -21.163321,10.65531 -7.739457,3.75533 -15.630057,7.42273 -22.096275,10.16429 -3.233108,1.37079 -6.106507,2.48583 -8.445687,3.2899 -2.339182,0.80405 -4.049931,1.32576 -5.401312,1.32576 -0.641561,-0.004 -1.223244,-0.586 -1.227571,-1.22756 0,-1.01748 0.371618,-2.06059 0.932954,-3.48631 0.561334,-1.42571 1.348065,-3.1521 2.307833,-5.10669 1.919534,-3.90918 4.508368,-8.677271 7.267219,-13.552381 5.517706,-9.75022 11.655175,-19.728654 14.338028,-23.471154 2.950102,-4.115318 8.747246,-6.103444 14.387129,-7.218116 5.639885,-1.114676 11.147338,-1.325777 13.797897,-1.325777 0.07104,0 0.146555,0.04791 0.245514,0.04911 l 0,-0.04911 c 0.05595,0 0.750851,-0.06994 1.522188,-0.34372 0.771338,-0.273783 1.704279,-0.71193 2.553347,-1.178469 0.849069,-0.466537 1.648014,-0.976649 2.160525,-1.473084 0.51251,-0.496434 0.68744,-0.92249 0.68744,-1.03116 0,-4.30715 -0.150201,-7.1717 0,-9.427744 0.133763,-2.009152 0.565289,-3.649276 1.669496,-5.008489 -0.04332,-0.302406 -0.04911,-0.575424 -0.04911,-0.88385 0,-1.828212 0.752483,-3.547062 2.111422,-4.812078 l 0.04911,-0.04911 26.368221,-22.096274 c 0.0116,-0.01088 -0.0118,-0.03826 0,-0.04911 1.35103,-1.242745 3.12687,-2.030264 4.86118,-2.160524 z" style="fill:#aaaaaa"/>
</svg>