<?xml version="1.0" encoding="UTF-8" standalone="no"?>
<svg xmlns:dc="http://purl.org/dc/elements/1.1/"
     xmlns:cc="http://creativecommons.org/ns#"
     xmlns:rdf="http://www.w3.org/1999/02/22-rdf-syntax-ns#"
     xmlns:svg="http://www.w3.org/2000/svg"
     xmlns="http://www.w3.org/2000/svg"
     xmlns:xlink="http://www.w3.org/1999/xlink"
     width="128" height="128" version="1.1">
    <title>Preferences Other category</title>
    <desc>This is shape (source) for Clarity vector icon theme for gtk</desc>
    <metadata>
        <rdf:RDF>
            <cc:Work rdf:about="">
                <dc:title>Preferences Other category</dc:title>
                <dc:description>This is shape (source) for Clarity vector icon theme for gtk</dc:description>
                <dc:creator>
                    <cc:Agent>
                        <dc:title>Jakub Jankiewicz</dc:title>
                    </cc:Agent>
                </dc:creator>
                <dc:rights>
                    <cc:Agent>
                        <dc:title>Jakub Jankiewicz</dc:title>
                    </cc:Agent>
                </dc:rights>
                <dc:date>2010</dc:date>
                <dc:format>image/svg+xml</dc:format>
                <dc:type rdf:resource="http://purl.org/dc/dcmitype/StillImage" />
                <cc:license rdf:resource="http://www.gnu.org/copyleft/gpl.html" />
             </cc:Work>
        </rdf:RDF>
    </metadata>
    <path d="M 91.75 14.84375 C 89.956975 14.811565 88.111194 14.969108 86.3125 15.4375 L 86.3125 15.375 C 74.833465 18.364361 67.944508 30.035214 70.9375 41.4375 C 71.562823 43.819941 72.725028 45.971813 74.03125 47.90625 C 73.364691 48.012727 64.03125 63.875 64.03125 63.875 L 85 64.0625 L 89.9375 57.21875 C 92.275504 57.402592 94.757929 57.343272 97.15625 56.71875 C 108.63523 53.729389 115.52418 42.058535 112.53125 30.65625 C 111.90593 28.273808 110.74373 26.121938 109.4375 24.1875 L 101.0625 38.375 C 99.342867 41.291489 95.651611 42.236115 92.71875 40.53125 L 87.3125 37.40625 C 84.379578 35.701385 83.43649 32.041489 85.15625 29.125 L 93.53125 14.9375 C 92.946749 14.89154 92.347675 14.854478 91.75 14.84375 z M 36.9375 19.125 C 35.523139 19.414888 34.211242 19.928425 32.90625 20.46875 C 32.803466 24.311343 33.463246 29.336672 31.96875 30.65625 C 30.500104 31.953486 25.578729 30.872502 21.78125 30.46875 C 20.973747 31.924287 20.349716 33.464158 19.875 35.09375 C 22.813277 37.530169 26.871505 40.235276 26.96875 42.1875 C 27.06661 44.164344 23.117277 47.16671 20.4375 49.90625 C 21.072854 51.493129 21.978098 52.926389 22.9375 54.3125 C 26.676079 53.534478 31.317094 52.01122 32.90625 53.15625 C 34.524456 54.322082 34.548533 59.342768 35.03125 63.15625 C 36.56489 63.617856 38.192123 63.811328 39.84375 63.9375 C 41.572865 60.523954 43.328381 55.81302 45.21875 55.28125 C 47.15928 54.735324 51.140586 58.105028 54.4375 60.09375 C 55.781635 59.16069 56.98251 58.00769 58.09375 56.8125 C 56.533706 53.290015 53.654924 48.858118 54.4375 47 C 55.220815 45.140589 60.423214 44.122185 64.03125 42.78125 C 64.05587 42.328876 64.21875 41.896706 64.21875 41.4375 C 64.21875 40.259666 64.016083 39.098208 63.84375 37.96875 C 60.118835 36.978944 54.813122 36.472069 53.84375 34.6875 C 52.88047 32.914871 55.328427 28.160843 56.53125 24.5 C 55.294945 23.400885 53.955536 22.434903 52.5 21.625 C 49.421641 23.93383 45.853752 27.724959 43.875 27.375 C 41.927515 27.030335 39.7905 22.351626 37.71875 19.125 C 37.471945 19.16808 37.181967 19.07576 36.9375 19.125 z M 40.78125 30.65625 C 46.508981 30.65625 51.15625 35.295149 51.15625 41.03125 C 51.15625 46.767352 46.508797 51.4375 40.78125 51.4375 C 35.05358 51.4375 30.4375 46.767352 30.4375 41.03125 C 30.4375 35.295149 35.053703 30.65625 40.78125 30.65625 z M 93.8125 69.625 C 92.935349 69.615364 92.14283 69.780297 91.625 70.09375 L 35.875 70.09375 C 34.352606 69.451544 31.3071 69.786443 29.96875 71.1875 L 16.65625 84.21875 C 15.478539 85.287337 14.80587 87.151725 14.78125 88.53125 C 14.45751 93.990388 20.953318 96.677051 24.875 93.4375 L 33.21875 85.25 L 33.25 107 C 33.25 110.51042 36.093334 113.15625 39.40625 113.15625 L 88.59375 113.15625 C 91.81059 113.15625 94.71875 110.43562 94.71875 107.40625 L 94.6875 85.21875 L 102.9375 93.3125 C 106.85919 96.552051 113.35499 93.866004 113.03125 88.40625 C 113.00665 87.026725 112.33396 85.162337 111.15625 84.09375 L 97.84375 71.0625 C 96.948849 70.12567 95.274418 69.641061 93.8125 69.625 z " style="fill:#aaaaaa"/>
</svg>