<?xml version="1.0" encoding="UTF-8" standalone="no"?>
<svg xmlns:dc="http://purl.org/dc/elements/1.1/" xmlns:cc="http://creativecommons.org/ns#" xmlns:rdf="http://www.w3.org/1999/02/22-rdf-syntax-ns#" xmlns:svg="http://www.w3.org/2000/svg" xmlns="http://www.w3.org/2000/svg" id="svg10" version="1.1" height="128" width="128">
  <title>Eyes Icon</title>
  <desc id="desc4">This is shape (source) for Clarity vector icon theme for gtk</desc>
  <metadata id="metadata6">
    <rdf:RDF>
      <cc:Work>
        <dc:title>Eyes Icon</dc:title>
        <dc:description>This is shape (source) for Clarity vector icon theme for gtk</dc:description>
        <dc:creator>
          <cc:Agent>
            <dc:title>Jakub Jankiewicz</dc:title>
          </cc:Agent>
        </dc:creator>
        <dc:rights>
          <cc:Agent>
            <dc:title>Jakub Jankiewicz</dc:title>
          </cc:Agent>
        </dc:rights>
        <dc:date>2010</dc:date>
        <dc:format>image/svg+xml</dc:format>
        <dc:type rdf:resource="http://purl.org/dc/dcmitype/StillImage" />
        <cc:license rdf:resource="http://creativecommons.org/licenses/by-sa/3.0/" />
      </cc:Work>
    </rdf:RDF>
  </metadata>
  <g transform="matrix(1.4201967,0,0,1.4201967,62.092997,87.160024)" id="g950">
    <circle style="fill:#ffffff;fill-opacity:1;stroke:none;stroke-width:6.56155539;stroke-linecap:round;stroke-miterlimit:4;stroke-dasharray:none;stroke-opacity:1" id="circle940" cx="15.033228" cy="-10.210139" r="22.396481" />
    <path style="fill:#ffffff;fill-opacity:1;stroke:none;stroke-width:5;stroke-linecap:round;stroke-miterlimit:4;stroke-dasharray:none;stroke-opacity:1" d="m -18.458984,-45.582031 a 17.066442,17.066442 0 0 0 -17.066407,17.066406 17.066442,17.066442 0 0 0 17.066407,17.066406 17.066442,17.066442 0 0 0 6.265625,-1.197265 27.348194,27.348194 0 0 1 10.4648434,-19.158204 17.066442,17.066442 0 0 0 -16.7304684,-13.777343 z" id="circle926" />
    <path style="color:#000000;font-style:normal;font-variant:normal;font-weight:normal;font-stretch:normal;font-size:medium;line-height:normal;font-family:sans-serif;font-variant-ligatures:normal;font-variant-position:normal;font-variant-caps:normal;font-variant-numeric:normal;font-variant-alternates:normal;font-feature-settings:normal;text-indent:0;text-align:start;text-decoration:none;text-decoration-line:none;text-decoration-style:solid;text-decoration-color:#000000;letter-spacing:normal;word-spacing:normal;text-transform:none;writing-mode:lr-tb;direction:ltr;text-orientation:mixed;dominant-baseline:auto;baseline-shift:baseline;text-anchor:start;white-space:normal;shape-padding:0;clip-rule:nonzero;display:inline;overflow:visible;visibility:visible;opacity:1;isolation:auto;mix-blend-mode:normal;color-interpolation:sRGB;color-interpolation-filters:linearRGB;solid-color:#000000;solid-opacity:1;vector-effect:none;fill:#000000;fill-opacity:1;fill-rule:nonzero;stroke:none;stroke-width:5;stroke-linecap:round;stroke-linejoin:miter;stroke-miterlimit:4;stroke-dasharray:none;stroke-dashoffset:0;stroke-opacity:1;color-rendering:auto;image-rendering:auto;shape-rendering:auto;text-rendering:auto;enable-background:accumulate" d="m -18.458984,-48.082031 c -10.776637,0 -19.566407,8.78977 -19.566407,19.566406 0,10.776636 8.78977,19.5664063 19.566407,19.5664062 2.150886,0 4.215792,-0.363566 6.154296,-1.0097656 a 27.348194,27.348194 0 0 1 -0.0098,-0.2519536 27.348194,27.348194 0 0 1 0.533203,-5.357421 c -1.999262,1.028468 -4.264823,1.61914 -6.677734,1.61914 -8.074436,0 -14.566407,-6.49197 -14.566407,-14.566406 0,-8.074436 6.491971,-14.566406 14.566407,-14.566406 7.613312,0 13.8139908,5.77338 14.4980465,13.201172 a 27.348194,27.348194 0 0 1 4.4375,-3.466797 c -2.1638271,-8.448479 -9.8287293,-14.734375 -18.9355465,-14.734375 z" id="path883" />
    <path style="fill:#000000;fill-opacity:1;stroke:none;stroke-width:5;stroke-linecap:round;stroke-miterlimit:4;stroke-dasharray:none;stroke-opacity:1" d="m -18.458984,-37.576172 a 9.0605545,9.0605545 0 0 0 -9.060547,9.060547 9.0605545,9.0605545 0 0 0 9.060547,9.060547 9.0605545,9.0605545 0 0 0 9.0605465,-9.060547 9.0605545,9.0605545 0 0 0 -0.2558594,-2.09375 4.7460051,4.7460051 0 0 1 -3.2910151,1.326172 4.7460051,4.7460051 0 0 1 -4.746094,-4.744141 4.7460051,4.7460051 0 0 1 1.332031,-3.291015 9.0605545,9.0605545 0 0 0 -2.099609,-0.257813 z" id="path885" />
    <path style="color:#000000;font-style:normal;font-variant:normal;font-weight:normal;font-stretch:normal;font-size:medium;line-height:normal;font-family:sans-serif;font-variant-ligatures:normal;font-variant-position:normal;font-variant-caps:normal;font-variant-numeric:normal;font-variant-alternates:normal;font-feature-settings:normal;text-indent:0;text-align:start;text-decoration:none;text-decoration-line:none;text-decoration-style:solid;text-decoration-color:#000000;letter-spacing:normal;word-spacing:normal;text-transform:none;writing-mode:lr-tb;direction:ltr;text-orientation:mixed;dominant-baseline:auto;baseline-shift:baseline;text-anchor:start;white-space:normal;shape-padding:0;clip-rule:nonzero;display:inline;overflow:visible;visibility:visible;opacity:1;isolation:auto;mix-blend-mode:normal;color-interpolation:sRGB;color-interpolation-filters:linearRGB;solid-color:#000000;solid-opacity:1;vector-effect:none;fill:#000000;fill-opacity:1;fill-rule:nonzero;stroke:none;stroke-width:6.56155539;stroke-linecap:round;stroke-linejoin:miter;stroke-miterlimit:4;stroke-dasharray:none;stroke-dashoffset:0;stroke-opacity:1;color-rendering:auto;image-rendering:auto;shape-rendering:auto;text-rendering:auto;enable-background:accumulate" d="m 15.033203,-35.886719 c -14.14229841,0 -25.677734,11.533483 -25.677734,25.675781 0,14.142299 11.53543559,25.677735 25.677734,25.677735 14.142299,0 25.677735,-11.535436 25.677735,-25.677735 0,-14.142298 -11.535436,-25.675781 -25.677735,-25.675781 z m 0,6.560547 c 10.596171,0 19.115235,8.519064 19.115235,19.115234 0,10.59617129 -8.519064,19.117188 -19.115235,19.117188 -10.5961707,0 -19.1152343,-8.52101671 -19.1152342,-19.117188 -10e-8,-10.59617 8.5190635,-19.115234 19.1152342,-19.115234 z" id="circle889" />
    <path style="fill:#000000;fill-opacity:1;stroke:none;stroke-width:6.56155539;stroke-linecap:round;stroke-miterlimit:4;stroke-dasharray:none;stroke-opacity:1" d="M 15.032342,-22.10031 A 11.890265,11.890265 0 0 0 3.1436702,-10.209685 11.890265,11.890265 0 0 0 15.032342,1.6809399 11.890265,11.890265 0 0 0 26.922967,-10.209685 a 11.890265,11.890265 0 0 0 -0.335938,-2.75 6.2282348,6.2282348 0 0 1 -4.318359,1.742187 6.2282348,6.2282348 0 0 1 -6.228516,-6.226562 6.2282348,6.2282348 0 0 1 1.75,-4.31836 11.890265,11.890265 0 0 0 -2.757812,-0.33789 z" id="circle891" />
  </g>
</svg>
