<?xml version="1.0" encoding="UTF-8" standalone="no"?>
<svg xmlns:dc="http://purl.org/dc/elements/1.1/"
     xmlns:cc="http://creativecommons.org/ns#"
     xmlns:rdf="http://www.w3.org/1999/02/22-rdf-syntax-ns#"
     xmlns:svg="http://www.w3.org/2000/svg"
     xmlns="http://www.w3.org/2000/svg"
     xmlns:xlink="http://www.w3.org/1999/xlink"
     width="128" height="128" version="1.1">
    <title>Select All Icon</title>
    <desc>This is shape (source) for Clarity vector icon theme for gtk</desc>
    <metadata>
        <rdf:RDF>
            <cc:Work rdf:about="">
                <dc:title>Select All Icon</dc:title>
                <dc:description>This is shape (source) for Clarity vector icon theme for gtk</dc:description>
                <dc:creator>
                    <cc:Agent>
                        <dc:title>Jakub Jankiewicz</dc:title>
                    </cc:Agent>
                </dc:creator>
                <dc:rights>
                    <cc:Agent>
                        <dc:title>Jakub Jankiewicz</dc:title>
                    </cc:Agent>
                </dc:rights>
                <dc:date>2010</dc:date>
                <dc:format>image/svg+xml</dc:format>
                <dc:type rdf:resource="http://purl.org/dc/dcmitype/StillImage" />
                <cc:license rdf:resource="http://creativecommons.org/licenses/by-sa/3.0/" />
             </cc:Work>
        </rdf:RDF>
    </metadata>
    <path d="M 29.09375 11.21875 C 25.90995 11.21875 23.375 13.784951 23.375 16.96875 L 23.375 111.03125 C 23.375 114.21504 25.90995 116.78125 29.09375 116.78125 L 98.90625 116.78125 C 102.09005 116.78125 104.625 114.21504 104.625 111.03125 L 104.625 40.34375 L 83.59375 40.34375 C 79.28764 40.34375 75.53125 37.20265 75.53125 33.03125 L 75.53125 11.21875 L 29.09375 11.21875 z M 79.53125 11.21875 L 79.53125 33.03125 C 79.53125 34.74538 81.16322 36.34375 83.59375 36.34375 L 104.625 36.34375 L 79.53125 11.21875 z M 29.375 44.4375 L 77.53125 44.4375 L 77.53125 58.75 L 97.875 58.75 L 97.875 91.875 L 64.375 91.875 L 64.375 106.90625 L 29.375 106.90625 L 29.375 44.4375 z M 35.90625 50.78125 C 34.92718 50.78125 34.15625 51.58343 34.15625 52.5625 L 34.15625 55.1875 C 34.15625 56.16657 34.92718 56.96875 35.90625 56.96875 L 70.40625 56.96875 C 71.38531 56.96875 72.15625 56.16657 72.15625 55.1875 L 72.15625 52.5625 C 72.15625 51.58343 71.38531 50.78125 70.40625 50.78125 L 35.90625 50.78125 z M 35.90625 65.1875 C 34.92718 65.1875 34.15625 65.98968 34.15625 66.96875 L 34.15625 69.625 C 34.15625 70.60407 34.92718 71.375 35.90625 71.375 L 92.0625 71.375 C 93.04156 71.375 93.84375 70.60407 93.84375 69.625 L 93.84375 66.96875 C 93.84375 65.98968 93.04156 65.1875 92.0625 65.1875 L 35.90625 65.1875 z M 35.90625 79.625 C 34.92718 79.625 34.15625 80.39593 34.15625 81.375 L 34.15625 84.03125 C 34.15625 85.01032 34.92718 85.8125 35.90625 85.8125 L 92.0625 85.8125 C 93.04156 85.8125 93.84375 85.01032 93.84375 84.03125 L 93.84375 81.375 C 93.84375 80.39593 93.04156 79.625 92.0625 79.625 L 35.90625 79.625 z M 35.90625 94.03125 C 34.92718 94.03125 34.15625 94.80218 34.15625 95.78125 L 34.15625 98.4375 C 34.15625 99.41657 34.92718 100.25 35.90625 100.25 L 58.9375 100.25 C 59.91656 100.25 60.71875 99.41657 60.71875 98.4375 L 60.71875 95.78125 C 60.71875 94.80218 59.91656 94.03125 58.9375 94.03125 L 35.90625 94.03125 z " style="fill:#aaaaaa"/>
</svg>