<?xml version="1.0" encoding="UTF-8" standalone="no"?>
<svg xmlns:dc="http://purl.org/dc/elements/1.1/"
     xmlns:cc="http://creativecommons.org/ns#"
     xmlns:rdf="http://www.w3.org/1999/02/22-rdf-syntax-ns#"
     xmlns:svg="http://www.w3.org/2000/svg"
     xmlns="http://www.w3.org/2000/svg"
     xmlns:xlink="http://www.w3.org/1999/xlink"
     width="128" height="128" version="1.1">
    <title>Clarity Icon</title>
    <desc>This is shape (source) for Clarity vector icon theme for gtk</desc>
    <metadata>
        <rdf:RDF>
            <cc:Work rdf:about="">
                <dc:title>Clarity Icon</dc:title>
                <dc:description>This is shape (source) for Clarity vector icon theme for gtk</dc:description>
                <dc:creator>
                    <cc:Agent>
                        <dc:title>Jakub Jankiewicz</dc:title>
                    </cc:Agent>
                </dc:creator>
                <dc:rights>
                    <cc:Agent>
                        <dc:title>Jakub Jankiewicz</dc:title>
                    </cc:Agent>
                </dc:rights>
                <dc:date>2010</dc:date>
                <dc:format>image/svg+xml</dc:format>
                <dc:type rdf:resource="http://purl.org/dc/dcmitype/StillImage" />
                <cc:license rdf:resource="http://creativecommons.org/licenses/by-sa/3.0/" />
             </cc:Work>
        </rdf:RDF>
    </metadata>
    <path d="m 51.625,10.34375 c -2.422523,0 -4.34375,1.952481 -4.34375,4.375 l 0,19.6875 L 61.75,34.4375 c 0.734776,8.6e-4 1.452087,0.319343 1.96875,0.84375 L 82.8125,54.375 c 0.512651,0.514582 0.842976,1.212456 0.84375,1.9375 l 0.03125,34.34375 21.0625,0 c 2.42252,0 4.34375,-1.95248 4.34375,-4.375 l 0,-53.78125 -16,0 c -3.276472,0 -6.125,-2.388538 -6.125,-5.5625 l 0,-16.59375 -35.34375,0 z m 38.375,0 0,16.59375 c 0,1.304255 1.24439,2.53125 3.09375,2.53125 l 16,0 L 90,10.34375 z M 23.25,37.375 c -2.422523,0 -4.34375,1.952481 -4.34375,4.375 l 0,71.53125 c 0,2.42252 1.921227,4.375 4.34375,4.375 l 53.125,0 c 2.42252,0 4.34375,-1.95248 4.34375,-4.375 l 0,-53.75 -16,0 c -3.276468,0 -6.125,-2.388538 -6.125,-5.5625 l 0,-16.59375 -35.34375,0 z m 38.375,0 0,16.59375 c 0,1.304255 1.244389,2.5 3.09375,2.5 l 16,0 L 61.625,37.375 z" style="fill:#aaaaaa"/>
</svg>