<?xml version="1.0" encoding="UTF-8" standalone="no"?>
<svg xmlns:dc="http://purl.org/dc/elements/1.1/"
     xmlns:cc="http://creativecommons.org/ns#"
     xmlns:rdf="http://www.w3.org/1999/02/22-rdf-syntax-ns#"
     xmlns:svg="http://www.w3.org/2000/svg"
     xmlns="http://www.w3.org/2000/svg"
     xmlns:xlink="http://www.w3.org/1999/xlink"
     width="128" height="128" version="1.1">
    <title>Strikethroug Icon</title>
    <desc>This is shape (source) for Clarity vector icon theme for gtk</desc>
    <metadata>
        <rdf:RDF>
            <cc:Work rdf:about="">
                <dc:title>Strikethroug Icon</dc:title>
                <dc:description>This is shape (source) for Clarity vector icon theme for gtk</dc:description>
                <dc:creator>
                    <cc:Agent>
                        <dc:title>Jakub Jankiewicz</dc:title>
                    </cc:Agent>
                </dc:creator>
                <dc:rights>
                    <cc:Agent>
                        <dc:title>Jakub Jankiewicz</dc:title>
                    </cc:Agent>
                </dc:rights>
                <dc:date>2010</dc:date>
                <dc:format>image/svg+xml</dc:format>
                <dc:type rdf:resource="http://purl.org/dc/dcmitype/StillImage" />
                <cc:license rdf:resource="http://creativecommons.org/licenses/by-sa/3.0/" />
             </cc:Work>
        </rdf:RDF>
    </metadata>
    <path d="M 62.375 30.875 C 47.191615 30.875 37.879021 36.752691 37.28125 51.21875 L 47.3125 51.21875 C 48.14938 43.567281 52.706022 40.09375 62.03125 40.09375 C 70.997816 40.09375 76 43.42854 76 49.40625 L 76 52.03125 C 76 56.215648 73.515578 58.012316 65.625 58.96875 C 51.517603 60.762063 49.356984 61.258295 45.53125 62.8125 C 42.584743 64.020085 40.236415 65.660634 38.46875 67.6875 L 20.75 67.6875 L 20.75 75.03125 L 34.90625 75.03125 C 34.654455 76.301332 34.53125 77.650166 34.53125 79.0625 C 34.53125 90.42015 42.421004 97.125 55.09375 97.125 C 63.103882 97.125 70.875507 93.764406 76.375 87.90625 C 77.450988 92.688419 81.754527 96.15625 86.65625 96.15625 C 88.688671 96.15625 90.240787 95.930629 93.46875 95.09375 L 93.46875 87.5625 C 92.392763 87.801609 91.910272 87.78125 91.3125 87.78125 C 87.845428 87.78125 85.9375 85.98341 85.9375 82.875 L 85.9375 75.03125 L 107.25 75.03125 L 107.25 67.6875 L 85.9375 67.6875 L 85.9375 47.96875 C 85.9375 36.850209 77.797493 30.875 62.375 30.875 z M 76 64.34375 L 76 67.6875 L 60.90625 67.6875 C 70.50444 66.365308 72.769692 65.843536 76 64.34375 z M 45.59375 75.03125 L 75.9375 75.03125 C 75.068268 83.211547 66.43335 88.375 57.25 88.375 C 49.478976 88.375 44.9375 85.62709 44.9375 78.8125 C 44.9375 77.374114 45.151634 76.139973 45.59375 75.03125 z " style="fill:#aaaaaa"/>
</svg>