<?xml version="1.0" encoding="UTF-8" standalone="no"?>
<svg xmlns:dc="http://purl.org/dc/elements/1.1/"
     xmlns:cc="http://creativecommons.org/ns#"
     xmlns:rdf="http://www.w3.org/1999/02/22-rdf-syntax-ns#"
     xmlns:svg="http://www.w3.org/2000/svg"
     xmlns="http://www.w3.org/2000/svg"
     xmlns:xlink="http://www.w3.org/1999/xlink"
     width="128" height="128" version="1.1">
    <title>Document Print Setup Icon</title>
    <desc>This is shape (source) for Clarity vector icon theme for gtk</desc>
    <metadata>
        <rdf:RDF>
            <cc:Work rdf:about="">
                <dc:title>Document Print Setup Icon</dc:title>
                <dc:description>This is shape (source) for Clarity vector icon theme for gtk</dc:description>
                <dc:creator>
                    <cc:Agent>
                        <dc:title>Jakub Jankiewicz</dc:title>
                    </cc:Agent>
                </dc:creator>
                <dc:rights>
                    <cc:Agent>
                        <dc:title>Jakub Jankiewicz</dc:title>
                    </cc:Agent>
                </dc:rights>
                <dc:date>2010</dc:date>
                <dc:format>image/svg+xml</dc:format>
                <dc:type rdf:resource="http://purl.org/dc/dcmitype/StillImage" />
                <cc:license rdf:resource="http://creativecommons.org/licenses/by-sa/3.0/" />
             </cc:Work>
        </rdf:RDF>
    </metadata>
    <path d="M 14.46875 11.25 C 11.566875 11.54359 9.34375 14.015184 9.34375 17 L 9.34375 111 C 9.34375 114.1838 11.87869 116.75 15.0625 116.75 L 84.875 116.75 C 88.05879 116.75 90.59375 114.1838 90.59375 111 L 90.59375 40.375 L 69.5625 40.375 C 65.25639 40.375 61.5 37.233891 61.5 33.0625 L 61.5 11.25 L 15.0625 11.25 C 14.863512 11.25 14.662208 11.23043 14.46875 11.25 z M 65.5 11.25 L 65.5 33.0625 C 65.5 34.776623 67.13197 36.375 69.5625 36.375 L 90.59375 36.375 L 65.5 11.25 z M 103.6875 11.25 L 103.6875 16.125 L 113.9375 16.125 L 113.9375 19.875 L 103.6875 19.875 L 103.6875 25.125 L 108.9375 25.125 L 108.9375 28.90625 L 103.6875 28.90625 L 103.6875 34.15625 L 108.9375 34.15625 L 108.9375 37.90625 L 103.6875 37.90625 L 103.6875 43.1875 L 108.9375 43.1875 L 108.9375 46.9375 L 103.6875 46.9375 L 103.6875 52.1875 L 113.9375 52.1875 L 113.9375 55.96875 L 103.6875 55.96875 L 103.6875 61.21875 L 108.9375 61.21875 L 108.9375 64.96875 L 103.6875 64.96875 L 103.6875 70.25 L 108.9375 70.25 L 108.9375 74 L 103.6875 74 L 103.6875 79.25 L 108.9375 79.25 L 108.9375 83.03125 L 103.6875 83.03125 L 103.6875 88.28125 L 113.9375 88.28125 L 113.9375 92.03125 L 103.6875 92.03125 L 103.6875 97.3125 L 108.9375 97.3125 L 108.9375 101.0625 L 103.6875 101.0625 L 103.6875 106.3125 L 108.9375 106.3125 L 108.9375 110.09375 L 103.6875 110.09375 L 103.6875 116.75 L 118.65625 116.75 L 118.65625 11.25 L 103.6875 11.25 z M 33.34375 44.3125 C 37.26991 44.3152 41.19365 45.818643 44.1875 48.8125 C 48.30405 52.929051 49.6062 58.784436 48.0625 64 L 79.71875 95.6875 C 82.44003 98.40877 82.44002 102.77875 79.71875 105.5 L 79.03125 106.1875 C 76.31 108.90876 71.94003 108.90877 69.21875 106.1875 L 37.46875 74.40625 C 32.31823 75.833099 26.5489 74.548904 22.5 70.5 C 20.0761 68.076096 18.65109 65.026358 18.1875 61.875 L 29.5625 66.5 C 32.09647 67.522571 34.94617 66.283976 35.96875 63.75 L 37.15625 60.8125 C 38.17882 58.278523 36.97148 55.428824 34.4375 54.40625 L 21.96875 49.375 C 22.14115 49.184985 22.31655 48.964701 22.5 48.78125 C 25.49386 45.787392 29.41759 44.3098 33.34375 44.3125 z M 74.15625 96.875 C 73.20604 96.875 72.22498 97.243767 71.5 97.96875 C 70.05002 99.41872 70.05002 101.76877 71.5 103.21875 C 72.94996 104.66871 75.30003 104.66871 76.75 103.21875 C 78.19996 101.76877 78.19996 99.41871 76.75 97.96875 C 76.02502 97.243764 75.10646 96.875 74.15625 96.875 z " style="fill:#aaaaaa"/>
</svg>