<?xml version="1.0" encoding="UTF-8" standalone="no"?>
<svg xmlns:dc="http://purl.org/dc/elements/1.1/"
     xmlns:cc="http://creativecommons.org/ns#"
     xmlns:rdf="http://www.w3.org/1999/02/22-rdf-syntax-ns#"
     xmlns:svg="http://www.w3.org/2000/svg"
     xmlns="http://www.w3.org/2000/svg"
     xmlns:xlink="http://www.w3.org/1999/xlink"
     width="128" height="128" version="1.1">
    <title>Eye icon</title>
    <desc>This is shape (source) for Clarity vector icon theme for gtk</desc>
    <metadata>
        <rdf:RDF>
            <cc:Work rdf:about="">
                <dc:title>Eye icon</dc:title>
                <dc:description>This is shape (source) for Clarity vector icon theme for gtk</dc:description>
                <dc:creator>
                    <cc:Agent>
                        <dc:title>Jakub Jankiewicz</dc:title>
                    </cc:Agent>
                </dc:creator>
                <dc:rights>
                    <cc:Agent>
                        <dc:title>Jakub Jankiewicz</dc:title>
                    </cc:Agent>
                </dc:rights>
                <dc:date>2010</dc:date>
                <dc:format>image/svg+xml</dc:format>
                <dc:type rdf:resource="http://purl.org/dc/dcmitype/StillImage" />
                <cc:license rdf:resource="http://creativecommons.org/licenses/by-sa/3.0/" />
             </cc:Work>
        </rdf:RDF>
    </metadata>
    <path d="M 63.811516 29.072931 C 28.83147 29.07733 5.5440193 62.448515 5.5440193 62.448515 l -0.9373236 1.328299 1.0506658 1.239787 C 27.005242 90.210009 47.283756 98.927069 64.790228 98.927069 c 35.008721 0 57.715422 -34.094493 57.715422 -34.094493 l 0.88766 -1.318111 -1.02711 -1.212408 C 101.4476 37.612411 81.303998 29.071447 63.811516 29.072931 Z m 0.0051 9.954603 h 0.0013 c 15.832934 0 31.690483 8.273115 47.311264 24.975969 -7.41441 8.603405 -24.488688 24.968966 -46.338907 24.968966 -15.819281 0 -31.848252 -8.456057 -47.793293 -25.536964 7.637722 -8.478093 24.99031 -24.405385 46.819673 -24.407971 z m 0.238791 5.112614 c -10.954214 0 -19.83661 8.882397 -19.83661 19.836612 0 10.954213 8.882396 19.826422 19.83661 19.826422 10.954214 0 19.826422 -8.872209 19.826422 -19.826422 0 -10.954215 -8.872208 -19.836612 -19.826422 -19.836612 z m -5.033018 8.058942 c 3.819627 0 6.917853 3.098227 6.917853 6.917853 0 3.819625 -3.098226 6.917852 -6.917853 6.917852 -3.819626 0 -6.917853 -3.098227 -6.917853 -6.917852 0 -3.819626 3.098227 -6.917853 6.917853 -6.917853 z" style="fill:#aaaaaa"/>
</svg>