<?xml version="1.0" encoding="UTF-8" standalone="no"?>
<svg xmlns:dc="http://purl.org/dc/elements/1.1/"
     xmlns:cc="http://creativecommons.org/ns#"
     xmlns:rdf="http://www.w3.org/1999/02/22-rdf-syntax-ns#"
     xmlns:svg="http://www.w3.org/2000/svg"
     xmlns="http://www.w3.org/2000/svg"
     xmlns:xlink="http://www.w3.org/1999/xlink"
     width="128" height="128" version="1.1">
    <title>Clarity Icon</title>
    <desc>This is shape (source) for Clarity vector icon theme for gtk</desc>
    <metadata>
        <rdf:RDF>
            <cc:Work rdf:about="">
                <dc:title>Clarity Icon</dc:title>
                <dc:description>This is shape (source) for Clarity vector icon theme for gtk</dc:description>
                <dc:creator>
                    <cc:Agent>
                        <dc:title>Jakub Jankiewicz</dc:title>
                    </cc:Agent>
                </dc:creator>
                <dc:rights>
                    <cc:Agent>
                        <dc:title>Jakub Jankiewicz</dc:title>
                    </cc:Agent>
                </dc:rights>
                <dc:date>2010</dc:date>
                <dc:format>image/svg+xml</dc:format>
                <dc:type rdf:resource="http://purl.org/dc/dcmitype/StillImage" />
                <cc:license rdf:resource="http://creativecommons.org/licenses/by-sa/3.0/" />
             </cc:Work>
        </rdf:RDF>
    </metadata>
    <path d="m 26.9375,13.363346 c -1.59502,-0.0078 -2.860832,0.08643 -4.3125,1.125 -1.174247,0.840101 -1.519612,3.706013 0.375,5.1875 l 23.625,18.46875 c 0.959382,0.750185 2.219713,1.125 3.46875,1.125 1.249036,0 2.478117,-0.374815 3.4375,-1.125 l 23.625,-18.46875 c 1.89462,-1.481487 1.54925,-4.347399 0.375,-5.1875 -1.45167,-1.038574 -2.71814,-1.171767 -4.3125,-1.125 -16.18095,0.47463 -29.35965,0.08223 -46.28125,0 z m 58.28125,9.59375 -30.375,23.75 c -2.661997,2.081538 -6.931754,2.081538 -9.59375,0 l -30.3125,-23.6875 c -2.842434,0.521601 -4.96875,3.002301 -4.96875,6 l 0,33.8125 c 0,3.379203 2.714547,6.125 6.09375,6.125 l 17.71875,0 c 1.630689,-2.733239 4.356918,-4.744041 7.625,-5.34375 a 5.2206858,5.2206858 0 0 1 2.71875,0.21875 c -0.06049,-0.417584 -0.27978,-0.850484 -0.28125,-1.25 -0.0086,-2.331771 0.481532,-4.711405 3.15625,-6.625 2.498039,-1.787178 5.560885,-2.102621 7.375,-2.09375 13.360298,0.06492 24.354472,0.279446 36.21875,0.15625 l 0,-25 c 0,-3.144197 -2.32533,-5.719707 -5.375,-6.0625 z m -30.875,36.125 c -1.59502,-0.0078 -2.829582,0.08643 -4.28125,1.125 -1.174247,0.840101 -1.519612,3.706013 0.375,5.1875 l 23.59375,18.46875 c 0.959382,0.750185 2.219713,1.125 3.46875,1.125 1.249036,0 2.509367,-0.374815 3.46875,-1.125 l 23.625,-18.46875 c 1.89461,-1.481487 1.518,-4.347399 0.34375,-5.1875 -1.45167,-1.038574 -2.6869,-1.171767 -4.28125,-1.125 -16.180955,0.47463 -29.3909,0.08223 -46.3125,0 z m 58.28125,9.59375 -30.34375,23.75 c -2.661997,2.081538 -6.963004,2.081538 -9.625,0 l -30.3125,-23.6875 c -2.842434,0.521601 -4.96875,3.002301 -4.96875,6 l 0,33.812504 c 0,3.3792 2.714547,6.09375 6.09375,6.09375 l 68.4375,0 c 3.3792,0 6.125,-2.71455 6.125,-6.09375 l 0,-33.812504 c 0,-3.144197 -2.35659,-5.719707 -5.40625,-6.0625 z" style="fill:#aaaaaa"/>
</svg>