<?xml version="1.0" encoding="UTF-8" standalone="no"?>
<svg xmlns:dc="http://purl.org/dc/elements/1.1/"
     xmlns:cc="http://creativecommons.org/ns#"
     xmlns:rdf="http://www.w3.org/1999/02/22-rdf-syntax-ns#"
     xmlns:svg="http://www.w3.org/2000/svg"
     xmlns="http://www.w3.org/2000/svg"
     xmlns:xlink="http://www.w3.org/1999/xlink"
     width="128" height="128" version="1.1">
    <title>Rotate Left Icon</title>
    <desc>This is shape (source) for Clarity vector icon theme for gtk</desc>
    <metadata>
        <rdf:RDF>
            <cc:Work rdf:about="">
                <dc:title>Rotate Left Icon</dc:title>
                <dc:description>This is shape (source) for Clarity vector icon theme for gtk</dc:description>
                <dc:creator>
                    <cc:Agent>
                        <dc:title>Jakub Jankiewicz</dc:title>
                    </cc:Agent>
                </dc:creator>
                <dc:rights>
                    <cc:Agent>
                        <dc:title>Jakub Jankiewicz</dc:title>
                    </cc:Agent>
                </dc:rights>
                <dc:date>2010</dc:date>
                <dc:format>image/svg+xml</dc:format>
                <dc:type rdf:resource="http://purl.org/dc/dcmitype/StillImage" />
                <cc:license rdf:resource="http://creativecommons.org/licenses/by-sa/3.0/" />
             </cc:Work>
        </rdf:RDF>
    </metadata>
    <path d="M 64 9.34375 C 33.81417 9.34375 9.34375 33.81417 9.34375 64 C 9.34375 94.185828 33.81417 118.65625 64 118.65625 C 94.18583 118.65625 118.65625 94.185828 118.65625 64 C 118.65625 33.81417 94.18583 9.34375 64 9.34375 z M 87.90625 32.0625 C 88.658632 32.04505 89.313868 32.056779 89.875 32.0625 C 91.188604 32.07589 91.9375 32.125 91.9375 32.125 L 91.9375 54.90625 C 79.774588 54.90625 70.370515 55.527509 69.28125 69.03125 L 87.59375 69.03125 L 56.90625 101.4375 L 26.1875 69.03125 L 43.46875 69.03125 C 45.445991 36.065583 76.620521 32.324246 87.90625 32.0625 z " style="fill:#aaaaaa"/>
</svg>