<?xml version="1.0" encoding="UTF-8" standalone="no"?>
<svg xmlns:dc="http://purl.org/dc/elements/1.1/"
     xmlns:cc="http://creativecommons.org/ns#"
     xmlns:rdf="http://www.w3.org/1999/02/22-rdf-syntax-ns#"
     xmlns:svg="http://www.w3.org/2000/svg"
     xmlns="http://www.w3.org/2000/svg"
     xmlns:xlink="http://www.w3.org/1999/xlink"
     width="128" height="128" version="1.1">
    <title>Redo Icon</title>
    <desc>This is shape (source) for Clarity vector icon theme for gtk</desc>
    <metadata>
        <rdf:RDF>
            <cc:Work rdf:about="">
                <dc:title>Redo Icon</dc:title>
                <dc:description>This is shape (source) for Clarity vector icon theme for gtk</dc:description>
                <dc:creator>
                    <cc:Agent>
                        <dc:title>Jakub Jankiewicz</dc:title>
                    </cc:Agent>
                </dc:creator>
                <dc:rights>
                    <cc:Agent>
                        <dc:title>Jakub Jankiewicz</dc:title>
                    </cc:Agent>
                </dc:rights>
                <dc:date>2010</dc:date>
                <dc:format>image/svg+xml</dc:format>
                <dc:type rdf:resource="http://purl.org/dc/dcmitype/StillImage" />
                <cc:license rdf:resource="http://creativecommons.org/licenses/by-sa/3.0/" />
             </cc:Work>
        </rdf:RDF>
    </metadata>
    <path d="M 64 9.34375 C 33.814172 9.34375 9.34375 33.81417 9.34375 64 C 9.34375 94.18583 33.814172 118.65625 64 118.65625 C 94.18583 118.65625 118.65625 94.18583 118.65625 64 C 118.65625 33.81417 94.18583 9.34375 64 9.34375 z M 65.4375 23.84375 L 94.84375 50 L 65.4375 76.15625 L 65.4375 54.84375 C 64.514075 54.667429 63.563301 54.53805 62.59375 54.53125 C 59.482937 54.49905 56.00361 55.448303 52.96875 57.5 C 51.596339 58.434728 50.288051 59.610051 49.15625 61 C 48.024448 62.38995 47.067139 63.981073 46.4375 65.75 C 45.884686 67.28295 45.5519 68.992698 45.5 70.75 C 45.448101 72.507302 45.700054 74.327323 46.3125 76.03125 C 46.405151 76.304563 46.510891 76.572115 46.625 76.84375 C 47.425668 78.749734 48.376408 80.364093 49.28125 81.78125 C 50.186093 83.198407 51.044856 84.433439 51.75 85.53125 C 52.455143 86.629061 53.010449 87.601499 53.34375 88.5 C 53.677052 89.398502 53.796892 90.223916 53.5625 90.9375 C 53.328108 91.651084 52.760071 92.23292 51.78125 92.59375 C 50.80243 92.95458 49.410286 93.089295 47.6875 92.71875 C 45.964714 92.348206 43.906196 91.48302 41.8125 89.875 C 39.718803 88.26698 37.59046 85.880844 36.03125 82.65625 C 35.614233 81.79382 35.232105 80.922787 34.90625 80.03125 C 33.799061 76.922416 33.26994 73.774802 33.1875 70.71875 C 33.105061 67.662698 33.46217 64.689329 34.21875 61.875 C 35.076008 58.709236 36.348815 55.823093 37.9375 53.1875 C 39.526185 50.551906 41.438769 48.18605 43.5625 46.125 C 48.156362 41.646681 53.660534 38.542668 59.59375 36.90625 C 61.522499 36.377902 63.470534 36.058309 65.4375 35.84375 L 65.4375 23.84375 z " style="fill:#aaaaaa"/>
</svg>