<?xml version="1.0" encoding="UTF-8" standalone="no"?>
<svg xmlns:dc="http://purl.org/dc/elements/1.1/"
     xmlns:cc="http://creativecommons.org/ns#"
     xmlns:rdf="http://www.w3.org/1999/02/22-rdf-syntax-ns#"
     xmlns:svg="http://www.w3.org/2000/svg"
     xmlns="http://www.w3.org/2000/svg"
     xmlns:xlink="http://www.w3.org/1999/xlink"
     width="128" height="128" version="1.1">
    <title>Undo Icon</title>
    <desc>This is shape (source) for Clarity vector icon theme for gtk</desc>
    <metadata>
        <rdf:RDF>
            <cc:Work rdf:about="">
                <dc:title>Undo Icon</dc:title>
                <dc:description>This is shape (source) for Clarity vector icon theme for gtk</dc:description>
                <dc:creator>
                    <cc:Agent>
                        <dc:title>Jakub Jankiewicz</dc:title>
                    </cc:Agent>
                </dc:creator>
                <dc:rights>
                    <cc:Agent>
                        <dc:title>Jakub Jankiewicz</dc:title>
                    </cc:Agent>
                </dc:rights>
                <dc:date>2010</dc:date>
                <dc:format>image/svg+xml</dc:format>
                <dc:type rdf:resource="http://purl.org/dc/dcmitype/StillImage" />
                <cc:license rdf:resource="http://creativecommons.org/licenses/by-sa/3.0/" />
             </cc:Work>
        </rdf:RDF>
    </metadata>
    <path d="m 64,9.34375 c 30.185828,0 54.65625,24.47042 54.65625,54.65625 0,30.18583 -24.470422,54.65625 -54.65625,54.65625 C 33.81417,118.65625 9.34375,94.18583 9.34375,64 9.34375,33.81417 33.81417,9.34375 64,9.34375 z m -1.4375,14.5 L 33.15625,50 62.5625,76.15625 l 0,-21.3125 c 0.923425,-0.176321 1.874199,-0.3057 2.84375,-0.3125 3.110813,-0.0322 6.59014,0.917053 9.625,2.96875 1.372411,0.934728 2.680699,2.110051 3.8125,3.5 1.131802,1.38995 2.089111,2.981073 2.71875,4.75 0.552814,1.53295 0.8856,3.242698 0.9375,5 0.0519,1.757302 -0.200054,3.577323 -0.8125,5.28125 -0.09265,0.273313 -0.198391,0.540865 -0.3125,0.8125 -0.800668,1.905984 -1.751408,3.520343 -2.65625,4.9375 -0.904843,1.417157 -1.763606,2.652189 -2.46875,3.75 -0.705143,1.097811 -1.260449,2.070249 -1.59375,2.96875 -0.333302,0.898502 -0.453142,1.723916 -0.21875,2.4375 0.234392,0.713584 0.802429,1.29542 1.78125,1.65625 0.97882,0.36083 2.370964,0.495545 4.09375,0.125 1.722786,-0.370544 3.781304,-1.23573 5.875,-2.84375 2.093697,-1.60802 4.22204,-3.994156 5.78125,-7.21875 0.417017,-0.86243 0.799145,-1.733463 1.125,-2.625 1.107189,-3.108834 1.63631,-6.256448 1.71875,-9.3125 C 94.894939,67.662698 94.53783,64.689329 93.78125,61.875 92.923992,58.709236 91.651185,55.823093 90.0625,53.1875 88.473815,50.551906 86.561231,48.18605 84.4375,46.125 79.843638,41.646681 74.339466,38.542668 68.40625,36.90625 66.477501,36.377902 64.529466,36.058309 62.5625,35.84375 l 0,-12 z" style="fill:#aaaaaa"/>
</svg>