<?xml version="1.0" encoding="UTF-8" standalone="no"?>
<svg xmlns:dc="http://purl.org/dc/elements/1.1/"
     xmlns:cc="http://creativecommons.org/ns#"
     xmlns:rdf="http://www.w3.org/1999/02/22-rdf-syntax-ns#"
     xmlns:svg="http://www.w3.org/2000/svg"
     xmlns="http://www.w3.org/2000/svg"
     xmlns:xlink="http://www.w3.org/1999/xlink"
     width="128" height="128" version="1.1">
    <title>List View icon</title>
    <desc>This is shape (source) for Clarity vector icon theme for gtk</desc>
    <metadata>
        <rdf:RDF>
            <cc:Work rdf:about="">
                <dc:title>List View icon</dc:title>
                <dc:description>This is shape (source) for Clarity vector icon theme for gtk</dc:description>
                <dc:creator>
                    <cc:Agent>
                        <dc:title>Jakub Jankiewicz</dc:title>
                    </cc:Agent>
                </dc:creator>
                <dc:rights>
                    <cc:Agent>
                        <dc:title>Jakub Jankiewicz</dc:title>
                    </cc:Agent>
                </dc:rights>
                <dc:date>2010</dc:date>
                <dc:format>image/svg+xml</dc:format>
                <dc:type rdf:resource="http://purl.org/dc/dcmitype/StillImage" />
                <cc:license rdf:resource="http://creativecommons.org/licenses/by-sa/3.0/" />
             </cc:Work>
        </rdf:RDF>
    </metadata>
    <path d="m 12.56457 4.07571 c -4.755102 0 -8.572571 3.81745 -8.572571 8.57257 v 17.14514 c 0 4.75512 3.817469 8.57258 8.572571 8.57258 h 17.145143 c 4.755103 0 8.572572 -3.81746 8.572572 -8.57258 V 12.64828 c 0 -4.75512 -3.817469 -8.57257 -8.572572 -8.57257 z m 42.862861 8.57257 V 29.79342 H 124.008 V 12.64828 Z M 12.56457 47.07256 c -4.755102 0 -8.572571 3.81745 -8.572571 8.57257 v 16.97763 c 0 4.72169 3.817469 8.57257 8.572571 8.57257 h 17.145143 c 4.755103 0 8.572572 -3.85088 8.572572 -8.57257 V 55.64513 c 0 -4.75512 -3.817469 -8.57257 -8.572572 -8.57257 z m 42.862861 8.43858 V 72.65628 H 124.008 V 55.51114 Z M 12.56457 89.80142 c -4.755102 0 -8.572571 3.81746 -8.572571 8.57258 v 16.97772 c 0 4.7216 3.817469 8.57257 8.572571 8.57257 h 17.145143 c 4.755103 0 8.572572 -3.85097 8.572572 -8.57257 V 98.374 c 0 -4.75512 -3.817469 -8.57258 -8.572572 -8.57258 z m 42.862861 8.43867 v 17.14515 H 124.008 V 98.24009 Z m 0 0" style="fill:#aaaaaa"/>
</svg>