<?xml version="1.0" encoding="UTF-8" standalone="no"?>
<svg xmlns:dc="http://purl.org/dc/elements/1.1/"
     xmlns:cc="http://creativecommons.org/ns#"
     xmlns:rdf="http://www.w3.org/1999/02/22-rdf-syntax-ns#"
     xmlns:svg="http://www.w3.org/2000/svg"
     xmlns="http://www.w3.org/2000/svg"
     xmlns:xlink="http://www.w3.org/1999/xlink"
     width="128" height="128" version="1.1">
    <title>Dual View icon</title>
    <desc>This is shape (source) for Clarity vector icon theme for gtk</desc>
    <metadata>
        <rdf:RDF>
            <cc:Work rdf:about="">
                <dc:title>Dual View icon</dc:title>
                <dc:description>This is shape (source) for Clarity vector icon theme for gtk</dc:description>
                <dc:creator>
                    <cc:Agent>
                        <dc:title>Jakub Jankiewicz</dc:title>
                    </cc:Agent>
                </dc:creator>
                <dc:rights>
                    <cc:Agent>
                        <dc:title>Jakub Jankiewicz</dc:title>
                    </cc:Agent>
                </dc:rights>
                <dc:date>2010</dc:date>
                <dc:format>image/svg+xml</dc:format>
                <dc:type rdf:resource="http://purl.org/dc/dcmitype/StillImage" />
                <cc:license rdf:resource="http://creativecommons.org/licenses/by-sa/3.0/" />
             </cc:Work>
        </rdf:RDF>
    </metadata>
    <path d="m 26.495111 11.493146 c -12.335585 0 -22.5029365 10.167354 -22.5029365 22.502939 v 60.00783 c 0 12.335585 10.1673515 22.502935 22.5029365 22.502935 H 101.5049 c 12.33559 0 22.50293 -10.16735 22.50293 -22.502935 v -60.00783 c 0 -12.335585 -10.16734 -22.502939 -22.50293 -22.502939 z m 0 15.001963 H 56.499025 V 101.50489 H 26.495111 c -4.277883 0 -7.500979 -3.223088 -7.500979 -7.500975 v -60.00783 c 0 -4.277887 3.223096 -7.500976 7.500979 -7.500976 z m 45.00587 0 H 101.5049 c 4.27788 0 7.50098 3.223089 7.50098 7.500976 v 60.00783 c 0 4.277887 -3.2231 7.500975 -7.50098 7.500975 H 71.500981 Z M 30.2456 41.497061 c -2.080322 0 -3.750489 1.670174 -3.750489 3.750488 v 7.500987 c 0 2.080313 1.670167 3.750488 3.750489 3.750488 h 15.001956 c 2.080322 0 3.75049 -1.670175 3.75049 -3.750488 v -7.500987 c 0 -2.080314 -1.670168 -3.750488 -3.75049 -3.750488 z m 52.50685 0 c -2.080322 0 -3.75049 1.670174 -3.75049 3.750488 v 7.500987 c 0 2.080313 1.670168 3.750488 3.75049 3.750488 h 15.001956 c 2.08032 0 3.750494 -1.670175 3.750494 -3.750488 v -7.500987 c 0 -2.080314 -1.670174 -3.750488 -3.750494 -3.750488 z M 30.2456 64 c -2.080322 0 -3.750489 1.670164 -3.750489 3.750488 v 7.500976 c 0 2.080324 1.670167 3.750488 3.750489 3.750488 h 15.001956 c 2.080322 0 3.75049 -1.670164 3.75049 -3.750488 V 67.750488 C 48.998046 65.670164 47.327878 64 45.247556 64 Z m 52.50685 0 c -2.080322 0 -3.75049 1.670164 -3.75049 3.750488 v 7.500976 c 0 2.080324 1.670168 3.750488 3.75049 3.750488 h 15.001956 c 2.08032 0 3.750494 -1.670164 3.750494 -3.750488 V 67.750488 C 101.5049 65.670164 99.834726 64 97.754406 64 Z" style="fill:#aaaaaa"/>
</svg>