<?xml version="1.0" encoding="UTF-8" standalone="no"?>
<svg xmlns:dc="http://purl.org/dc/elements/1.1/"
     xmlns:cc="http://creativecommons.org/ns#"
     xmlns:rdf="http://www.w3.org/1999/02/22-rdf-syntax-ns#"
     xmlns:svg="http://www.w3.org/2000/svg"
     xmlns="http://www.w3.org/2000/svg"
     xmlns:xlink="http://www.w3.org/1999/xlink"
     width="128" height="128" version="1.1">
    <title>View Grid icon</title>
    <desc>This is shape (source) for Clarity vector icon theme for gtk</desc>
    <metadata>
        <rdf:RDF>
            <cc:Work rdf:about="">
                <dc:title>View Grid icon</dc:title>
                <dc:description>This is shape (source) for Clarity vector icon theme for gtk</dc:description>
                <dc:creator>
                    <cc:Agent>
                        <dc:title>Jakub Jankiewicz</dc:title>
                    </cc:Agent>
                </dc:creator>
                <dc:rights>
                    <cc:Agent>
                        <dc:title>Jakub Jankiewicz</dc:title>
                    </cc:Agent>
                </dc:rights>
                <dc:date>2010</dc:date>
                <dc:format>image/svg+xml</dc:format>
                <dc:type rdf:resource="http://purl.org/dc/dcmitype/StillImage" />
                <cc:license rdf:resource="http://creativecommons.org/licenses/by-sa/3.0/" />
             </cc:Work>
        </rdf:RDF>
    </metadata>
    <path d="m 24.164714 17.5255 c -3.682692 0 -6.639214 2.95651 -6.639214 6.63921 v 26.55686 c 0 3.68271 2.956522 6.63922 6.639214 6.63922 H 50.72157 c 3.68269 0 6.63922 -2.95651 6.63922 -6.63922 V 24.16471 c 0 -3.6827 -2.95653 -6.63921 -6.63922 -6.63921 z m 53.113716 0 c -3.68269 0 -6.63922 2.95651 -6.63922 6.63921 v 26.55686 c 0 3.68271 2.95653 6.63922 6.63922 6.63922 h 26.55686 c 3.6827 0 6.63921 -2.95651 6.63921 -6.63922 V 24.16471 c 0 -3.6827 -2.95651 -6.63921 -6.63921 -6.63921 z M 24.164714 70.63921 c -3.682692 0 -6.639214 2.95651 -6.639214 6.63922 v 26.55686 c 0 3.6827 2.956522 6.63921 6.639214 6.63921 H 50.72157 c 3.68269 0 6.63922 -2.95651 6.63922 -6.63921 V 77.27843 c 0 -3.68271 -2.95653 -6.63922 -6.63922 -6.63922 z m 53.113716 0 c -3.68269 0 -6.63922 2.95651 -6.63922 6.63922 v 26.55686 c 0 3.6827 2.95653 6.63921 6.63922 6.63921 h 26.55686 c 3.6827 0 6.63921 -2.95651 6.63921 -6.63921 V 77.27843 c 0 -3.68271 -2.95651 -6.63922 -6.63921 -6.63922 z m 0 0" style="fill:#aaaaaa"/>
</svg>