<?xml version="1.0" encoding="UTF-8" standalone="no"?>
<svg xmlns:dc="http://purl.org/dc/elements/1.1/"
     xmlns:cc="http://creativecommons.org/ns#"
     xmlns:rdf="http://www.w3.org/1999/02/22-rdf-syntax-ns#"
     xmlns:svg="http://www.w3.org/2000/svg"
     xmlns="http://www.w3.org/2000/svg"
     xmlns:xlink="http://www.w3.org/1999/xlink"
     width="128" height="128" version="1.1">
    <title>Abort Icon</title>
    <desc>This is shape (source) for Clarity vector icon theme for gtk</desc>
    <metadata>
        <rdf:RDF>
            <cc:Work rdf:about="">
                <dc:title>Abort Icon</dc:title>
                <dc:description>This is shape (source) for Clarity vector icon theme for gtk</dc:description>
                <dc:creator>
                    <cc:Agent>
                        <dc:title>Jakub Jankiewicz</dc:title>
                    </cc:Agent>
                </dc:creator>
                <dc:rights>
                    <cc:Agent>
                        <dc:title>Jakub Jankiewicz</dc:title>
                    </cc:Agent>
                </dc:rights>
                <dc:date>2010</dc:date>
                <dc:format>image/svg+xml</dc:format>
                <dc:type rdf:resource="http://purl.org/dc/dcmitype/StillImage" />
                <cc:license rdf:resource="http://creativecommons.org/licenses/by-sa/3.0/" />
             </cc:Work>
        </rdf:RDF>
    </metadata>
    <path d="M 45.404297 10.65625 C 40.643126 10.65625 37.494271 14.538176 36.810547 19.25 L 24.666016 102.93164 L 103.33398 102.93164 L 91.189453 19.25 C 90.505729 14.538176 87.356872 10.65625 82.595703 10.65625 L 45.404297 10.65625 z M 63.439453 29.345703 C 65.631659 29.345703 67.350133 30.005868 68.595703 31.326172 C 69.866186 32.646478 70.501953 34.415696 70.501953 36.632812 C 70.501953 39.672004 69.91693 43.807666 68.746094 49.039062 C 67.425789 55.067624 66.653892 59.191089 66.429688 61.408203 C 66.379868 62.803243 66.341315 64.21091 66.316406 65.630859 C 66.166938 67.524127 65.667299 68.694173 64.820312 69.142578 C 64.496464 69.341869 64.098317 69.441406 63.625 69.441406 C 62.479075 69.441406 61.794515 68.545576 61.570312 66.751953 C 61.545403 66.577574 61.533203 65.255294 61.533203 62.789062 C 61.533203 58.255187 60.562231 51.740886 58.619141 43.246094 C 57.871799 39.932877 57.498047 37.755263 57.498047 36.708984 C 57.498047 34.815717 57.995729 33.156279 58.992188 31.736328 C 60.1132 30.141997 61.596008 29.345703 63.439453 29.345703 z M 63.474609 73.365234 C 65.019117 73.365234 66.355549 73.826325 67.476562 74.748047 C 68.672312 75.744504 69.267578 77.001888 69.267578 78.521484 C 69.267578 80.190547 68.7333 81.561622 67.662109 82.632812 C 66.61583 83.704003 65.25891 84.238281 63.589844 84.238281 C 62.194806 84.238281 60.974013 83.714248 59.927734 82.667969 C 58.881453 81.621691 58.357422 80.400897 58.357422 79.005859 C 58.357422 77.511174 58.842908 76.204999 59.814453 75.083984 C 60.785999 73.938059 62.004835 73.365234 63.474609 73.365234 z M 23.648438 107.92969 C 23.357256 112.40194 27.70168 116.00195 32.285156 116.00195 L 95.714844 116.00195 C 100.29832 116.00195 104.64274 112.40194 104.35156 107.92969 L 23.648438 107.92969 z " style="fill:#aaaaaa"/>
</svg>