<?xml version="1.0" encoding="UTF-8" standalone="no"?>
<svg xmlns:dc="http://purl.org/dc/elements/1.1/"
     xmlns:cc="http://creativecommons.org/ns#"
     xmlns:rdf="http://www.w3.org/1999/02/22-rdf-syntax-ns#"
     xmlns:svg="http://www.w3.org/2000/svg"
     xmlns="http://www.w3.org/2000/svg"
     xmlns:xlink="http://www.w3.org/1999/xlink"
     width="128" height="128" version="1.1">
    <title>Ailurus Icons</title>
    <desc>This is shape (source) for Clarity vector icon theme for gtk</desc>
    <metadata>
        <rdf:RDF>
            <cc:Work rdf:about="">
                <dc:title>Ailurus Icons</dc:title>
                <dc:description>This is shape (source) for Clarity vector icon theme for gtk</dc:description>
                <dc:creator>
                    <cc:Agent>
                        <dc:title>Jakub Jankiewicz</dc:title>
                    </cc:Agent>
                </dc:creator>
                <dc:rights>
                    <cc:Agent>
                        <dc:title>Jakub Jankiewicz</dc:title>
                    </cc:Agent>
                </dc:rights>
                <dc:date>2010</dc:date>
                <dc:format>image/svg+xml</dc:format>
                <dc:type rdf:resource="http://purl.org/dc/dcmitype/StillImage" />
                <cc:license rdf:resource="http://creativecommons.org/licenses/by-sa/3.0/" />
             </cc:Work>
        </rdf:RDF>
    </metadata>
    <path d="m 55.504954,19.064853 c -2.278169,0.06588 -4.897556,0.746048 -7.65625,2 -4.737597,2.153452 -15.46697,13.238865 -17.5,16 -0.0071,-0.408143 0.03125,-0.6875 0.03125,-0.6875 0,0 -2.77417,3.959311 -4.75,6.59375 -1.97583,2.63444 -6.02653,8.317505 -7.34375,11.28125 -1.016335,2.286755 -1.451157,4.862847 -1.59375,5.9375 -0.919952,0.690231 -3.378757,2.535007 -4.84375,4 -1.760089,1.760089 -0.057,2.489759 1.5,3.4375 1.557002,0.94774 1.854067,3.651281 1.3125,4.9375 -0.541565,1.28622 -1.922064,1.760845 -2.9375,4.0625 -1.015436,2.301656 -1.551806,5.375 -0.0625,5.375 1.489306,0 5.755498,0.458585 7.3125,1.8125 1.557002,1.353914 -0.349173,1.416792 -1.5,2.09375 -1.150828,0.676957 -3.651129,3.385769 -4.125,5.28125 -0.47387,1.895481 0.146085,2.994732 1.5,2.65625 1.298234,-0.32456 4.968168,-0.11293 5.28125,-0.09375 0.49444,0.140133 0.972158,0.307321 1.34375,0.5 1.351014,0.700524 2.788204,1.839186 3.53125,2.4375 0.08016,0.265876 0.21875,0.704675 0.21875,1.53125 0,1.21853 0.448043,1.952937 1.125,0.9375 0.676957,-1.015432 2.094052,-1.958438 3.71875,-2.5 1.624698,-0.541563 3.870107,-0.515475 5.5625,0.09375 1.692394,0.609264 2.416944,0.45331 3.90625,1.46875 0.664603,0.453143 1.639284,0.688481 2.5,0.8125 0.723607,0.27894 1.463865,0.49333 2.15625,0.65625 1.866061,0.439067 3.056993,1.323017 4.59375,2.749997 1.536756,1.42699 2.774173,2.61949 4.75,4.15625 1.975836,1.53676 6.988199,2.34375 10.28125,2.34375 3.293051,0 6.819082,0.0848 9.34375,-1.78125 2.524676,-1.86605 4.178854,-3.49214 6.59375,-5.6875 2.414905,-2.195367 4.508151,-2.983191 6.59375,-3.312497 0.895234,-0.141357 1.607746,-0.614446 2.3125,-1.25 2.900856,-0.06254 3.602656,-0.5 5.03125,-0.5 1.537252,0 3.929364,-0.0041 5.125,0.59375 1.195626,0.597814 2.050086,1.20847 2.562496,2.0625 0.51242,0.85402 0.9375,0.43108 0.9375,-0.59375 0,-1.024833 1.03574,-2.654314 3,-3.59375 1.96426,-0.939427 4.71062,-1.466614 5.90625,-1.125 1.19564,0.341613 3.04795,1.022697 3.21875,-0.34375 0.1708,-1.366443 -0.78146,-3.487793 -2.0625,-5.28125 -1.28104,-1.793457 -2.53766,-2.245931 -3.5625,-2.84375 -1.02483,-0.597819 -0.5976,-1.316778 1.28125,-2 1.87886,-0.683221 3.83989,-1.40625 5.71875,-1.40625 1.87886,0 1.68943,-1.867072 0.75,-4.34375 -0.93943,-2.476679 -2.72303,-3.664806 -3.40625,-5.03125 -0.68322,-1.366443 -0.74358,-2.398113 0.28125,-3.59375 1.02483,-1.195638 2.37093,-2.575125 2.96875,-3.34375 0.59782,-0.768624 -0.52098,-0.998071 -1.375,-1.9375 -0.63341,-0.696753 -2.85027,-2.11122 -4.34375,-3.625 -0.49432,-1.615611 -1.95721,-6.229457 -3.78125,-9.96875 -2.22925,-4.569957 -8.249873,-11.70193 -11.593746,-15.9375 -3.34386,-4.235571 -8.367538,-7.782143 -12.9375,-11.90625 -4.569953,-4.124107 -12.253033,-3.466723 -14.59375,-1.90625 -2.340707,1.560473 -4.789474,1.453185 -7.6875,-0.21875 -1.267884,-0.731471 -2.821835,-1.051241 -4.59375,-1 z m -34.9375,5.40625 c -2.509226,0.04911 -1.753881,1.693843 -1.59375,4.65625 0.170806,3.159899 1.541737,9.877349 1.96875,11.5 0.427014,1.622651 0.914806,1.62907 2.28125,1.03125 1.366442,-0.597819 2.162668,-1.168876 3.1875,-1.9375 1.024833,-0.768625 0.333264,-1.625 -0.09375,-1.625 -0.427013,0 -1.137415,-0.181292 -0.625,-0.4375 0.512417,-0.256208 0.78339,-0.443918 1.125,-1.46875 0.341611,-1.024832 0.700126,-1.518833 1.46875,-2.03125 0.768625,-0.512416 -0.350168,-1.03339 -1.375,-1.375 -1.024833,-0.341611 -0.418456,-1.183431 1.375,-1.78125 1.793457,-0.597818 2.139765,-0.950126 3.25,-1.71875 1.110235,-0.768624 0.933013,-1.520973 -1.03125,-2.375 0,0 -6.24635,-2.235445 -9.40625,-2.40625 -0.197493,-0.01068 -0.363968,-0.03453 -0.53125,-0.03125 z m 86.437496,0 c -0.16728,-0.0032 -0.36501,0.02058 -0.5625,0.03125 -3.15991,0.170805 -9.374996,2.40625 -9.374996,2.40625 -1.964261,0.854027 -2.141489,1.606376 -1.03125,2.375 1.110239,0.768624 1.456542,1.120932 3.25,1.71875 1.793446,0.597819 2.399826,1.439639 1.374996,1.78125 -1.024831,0.34161 -2.143621,0.862584 -1.374996,1.375 0.768616,0.512417 1.095886,1.006418 1.437496,2.03125 0.34161,1.024832 0.58134,1.212542 1.09375,1.46875 0.51242,0.256208 -0.16673,0.4375 -0.59375,0.4375 -0.42701,0 -1.0874,0.856375 -0.0625,1.625 1.02483,0.768624 1.78981,1.339681 3.15625,1.9375 1.36644,0.59782 1.85423,0.591401 2.28125,-1.03125 0.42701,-1.622651 1.82919,-8.340101 2,-11.5 0.16012,-2.962407 0.91547,-4.607148 -1.59375,-4.65625 z m -58.156246,24.125 c 1.582939,-0.02687 2.945904,0.635995 4.6875,2.65625 2.786564,3.232409 2.429152,6.169667 2.875,9.625 0.445855,3.455333 0.572881,3.763538 1.6875,3.875 1.114627,0.111462 1.214462,-0.554151 4.78125,-1 l 2.6875,0 c 1.783399,0 2.117669,1.116651 3.34375,1.5625 1.226089,0.44585 1.65625,-0.219764 1.65625,-1 0,-0.780237 0.214577,-1.690541 0.4375,-4.03125 0.222932,-2.34071 1.349958,-6.007215 2.6875,-8.125 1.337551,-2.117785 2.678021,-3.34375 5.6875,-3.34375 3.009487,0 5.036441,1.567688 5.59375,2.125 0.557318,0.557312 1.552127,1.5625 0.4375,1.5625 -1.114619,0 -2.578063,-0.125 -4.25,-0.125 -1.671936,0 -1.981271,1.21875 -1.3125,1.21875 0.66878,0 1.863496,0.46875 3.3125,0.46875 1.449013,0 2.346916,0.55415 1.34375,1 -1.003157,0.445849 -3.337542,1.125 -2,1.125 1.337551,0 3.216601,0.782263 5,1.5625 1.783398,0.780237 4.9375,3.78125 4.9375,3.78125 0,0 0.868675,-1.550989 2.875,-3 2.00633,-1.449011 4.348816,-2.0167 8.249996,-1.125 2.5665,0.58663 4.83257,1.798893 6.15625,2.59375 0.65421,0.689884 1.48423,1.52286 2.3125,2.15625 1.45185,1.110235 2.58133,1.893835 3.09375,2.40625 0.51241,0.512417 1.01641,0.779321 -0.0937,1.71875 -1.11024,0.93943 -2.37541,1.68771 -4.9375,2.96875 -2.56208,1.281041 -4.71488,2.114723 -6.59375,2.96875 -1.87885,0.854027 -0.92466,1.229237 1.125,1.65625 2.04967,0.427014 5.73779,0.418876 7.53125,1.1875 1.79346,0.768625 2.45847,0.785738 3.3125,2.75 0.85402,1.964262 0.75814,2.366653 -0.4375,2.28125 -1.19564,-0.0854 -4.67336,-0.420596 -7.40625,1.03125 -2.73288,1.451847 -4.36066,2.062709 -5.8125,3.34375 -1.45185,1.28104 -0.50792,2.560361 1.96875,2.21875 2.47669,-0.341611 5.0398,-0.362375 6.40625,0.40625 1.36644,0.768624 1.61258,1.266904 2.125,2.71875 0.51242,1.451846 1.11623,2.156041 -1.53125,0.875 -2.64749,-1.28104 -5.0398,-1.09375 -6.40625,-1.09375 -1.36644,0 -2.98138,0.579403 -3.75,2.03125 -0.768624,1.451845 0.42294,1.033596 0.59375,2.65625 0.1708,1.622647 0.25,2.293883 0.25,3.0625 0,0.768625 -0.16887,0.933228 -0.9375,0.25 -0.768616,-0.683219 -1.885694,-1.868792 -3.593746,-2.125 -1.708061,-0.256208 -2.916946,-0.247825 -4.625,0.09375 -0.837051,0.167405 -1.811294,0.268965 -2.59375,0.3125 0.591768,-0.667555 1.194276,-1.427658 1.90625,-2.21875 1.975835,-2.195368 5.15625,-5.920194 5.15625,-10.75 0,-4.829807 -2.194865,-7.593248 -4.5,-12.09375 -2.305184,-4.500502 -4.290235,-6.992133 -6.1563,-9.1875 -1.399539,-1.646524 -3.151292,-2.396715 -4.875,-2.46875 -0.574564,-0.02402 -1.16991,0.04648 -1.71875,0.15625 -2.195362,0.439073 -4.291755,2.181207 -5.71875,3.9375 -1.426987,1.756293 -3.28125,3.0625 -3.28125,3.0625 l 4.1875,3.625 c 0,0 -0.78125,-1.74528 -0.78125,-3.0625 0,-1.31722 0.558569,-3.512084 1.65625,-4.5 1.097689,-0.987915 2.851117,-2.423055 5.15625,-2.09375 2.305142,0.329305 3.699591,0.994493 4.6875,2.53125 0.987918,1.536757 2.081668,3.428847 1.09375,5.84375 -0.987909,2.414904 -2.399957,3.936714 -4.15625,4.15625 -1.756293,0.219537 -2.40625,0.65625 -2.40625,0.65625 0,0 2.089819,0.869493 3.1875,2.40625 1.097689,1.536756 3.294125,2.984268 4.0625,7.375 0.768383,4.390734 1.094543,3.846394 0.875,7.46875 -0.219534,3.622357 -3.065928,4.149957 -6.46875,5.90625 -3.402814,1.756293 -5.84375,2.0625 -5.84375,2.0625 0,0 0.90625,-0.854263 0.90625,-2.28125 0,-1.426987 -1.88407,-2.643209 -3.625,-2.875 -2.38713,-0.317827 -3.780006,2.025128 -4.8125,3.46875 -1.046774,1.463589 -2.58925,2.090103 -4.1438,2.55632 -3.727304,1.117817 -11.6687,0.34993 -11.6687,0.34993 -2.396544,-0.22851 -5.031154,-1.126063 -8.0625,-2.75 -3.073513,-1.646563 -6.216095,-3.168055 -6.84375,-6.25 -0.581828,-2.85692 0.694421,-6.515878 1.40625,-8.9375 1.055438,-3.590574 6.78125,-9.375 6.78125,-9.375 0,0 -2.291761,0.103972 -3.71875,-2.75 -1.426988,-2.853977 -1.005507,-5.039403 0.53125,-7.125 1.536757,-2.085599 3.087457,-2.4375 4.84375,-2.4375 1.756293,0 3.839816,0.758938 4.9375,2.625 1.097686,1.866061 1.21875,5.0625 1.21875,5.0625 l 3.0625,-2.84375 c 0,0 -1.105048,0.209025 -2.3125,-1.4375 -1.207452,-1.646526 -2.411255,-3.608195 -5.375,-3.9375 -2.963746,-0.329305 -4.601115,-0.0063 -6.90625,1.75 -2.305135,1.756293 -6.821438,8.658109 -8.6875,12.5 -1.866061,3.841892 -2.501573,7.704589 -2.0625,11.65625 0.439073,3.951659 2.290189,5.367134 4.15625,7.5625 1.124345,1.322762 1.187998,1.617554 1.5,2.03125 -0.69941,-0.126976 -1.662743,-0.28125 -2.96875,-0.28125 -2.775526,0 -3.58366,-0.135239 -5.34375,0.8125 -1.760089,0.947738 -2.53125,2.03125 -2.53125,2.03125 l -0.46875,-0.84375 c -0.365125,-1.097997 -0.530989,-2.455542 -0.21875,-3.46875 0.709501,-2.302339 2.65625,-3.1875 2.65625,-3.1875 0,0 -1.40693,-0.479141 -5.0625,-0.34375 -2.72215,0.10082 -5.400245,1.731606 -6.59375,2.5625 -0.746265,-0.271339 -1.492563,-0.895802 -1.34375,-1.9375 0.203088,-1.421611 0.891041,-2.510618 3.125,-3.59375 2.23396,-1.083132 3.458737,-0.474021 5.625,-0.8125 2.166264,-0.338478 2.04149,-1.713705 1.09375,-2.59375 -0.94774,-0.880045 -2.120182,-1.797064 -4.21875,-2.8125 -2.098569,-1.015436 -5.151432,-0.770858 -7.25,-0.90625 -2.098568,-0.135391 -1.874924,-0.312802 -1.46875,-1.9375 0.406174,-1.624698 2.370031,-3.807455 3.65625,-4.6875 1.28622,-0.880044 3.307681,-1.099021 5.40625,-1.4375 2.098568,-0.338478 1.963252,-1.80738 0.40625,-2.28125 -1.557003,-0.47387 -5.479368,-0.760543 -6.5625,-1.4375 -1.083131,-0.676958 -2.838554,-1.411672 -2.90625,-2.5625 -0.06769,-1.150827 1.260694,-1.838781 2.75,-3.125 0.936511,-0.808805 1.647044,-1.398772 2.15625,-1.8125 0.116257,-0.0636 1.14264,-0.612759 4.0625,-2.28125 3.073513,-1.756293 8.460883,-1.630507 10.65625,-0.09375 2.195366,1.536756 4.0625,3.28125 4.0625,3.28125 l 4.1875,-3.75 c 0,0 -0.21599,-0.26628 -0.25,-0.3125 1.402938,-0.613428 2.900901,-0.46875 3.9375,-0.46875 1.337549,0 1.9771,-0.688514 1.53125,-1.46875 -0.445849,-0.780237 -1.75,-1.4375 -1.75,-1.4375 0,0 2.10514,-0.245825 4,-0.46875 1.89486,-0.222925 0.761511,-1.206225 -0.6875,-1.875 -1.44901,-0.668774 -5.125,0.21875 -5.125,0.21875 0,0 0.812379,-1.684339 4.15625,-2.6875 1.253951,-0.376186 2.268987,-0.640128 3.21875,-0.65625 z m -1.3125,13.34375 c -2.576493,0 -4.65625,2.111007 -4.65625,4.6875 0,2.576494 2.079757,4.65625 4.65625,4.65625 2.576493,0 4.65625,-2.079756 4.65625,-4.65625 0,-2.576493 -2.079757,-4.6875 -4.65625,-4.6875 z m 32.9375,0 c -2.576489,0 -4.6875,2.111007 -4.6875,4.6875 0,2.576494 2.111011,4.65625 4.6875,4.65625 2.576498,0 4.65625,-2.079756 4.65625,-4.65625 0,-2.576493 -2.079752,-4.6875 -4.65625,-4.6875 z m -34.125,1.3125 c 0.939662,0 1.6875,0.747838 1.6875,1.6875 0,0.939662 -0.747838,1.71875 -1.6875,1.71875 -0.939662,0 -1.71875,-0.779088 -1.71875,-1.71875 0,-0.939662 0.779088,-1.6875 1.71875,-1.6875 z m 32.90625,0 c 0.939669,0 1.6875,0.747838 1.6875,1.6875 0,0.939662 -0.747831,1.71875 -1.6875,1.71875 -0.939661,0 -1.71875,-0.779088 -1.71875,-1.71875 0,-0.939662 0.779089,-1.6875 1.71875,-1.6875 z m -30.1875,4.15625 c 0.757792,0 1.375,0.648458 1.375,1.40625 0,0.757791 -0.617208,1.375 -1.375,1.375 -0.757792,0 -1.375,-0.617209 -1.375,-1.375 0,-0.757792 0.617208,-1.40625 1.375,-1.40625 z m 32.9375,0 c 0.757791,0 1.375,0.648458 1.375,1.40625 0,0.757791 -0.617209,1.375 -1.375,1.375 -0.757791,0 -1.375,-0.617209 -1.375,-1.375 0,-0.757792 0.617209,-1.40625 1.375,-1.40625 z m -18.1875,7.3125 c -1.054129,-0.02613 -2.152311,0.251448 -3.25,0.9375 -4.720038,2.963744 -6.0625,7.02181 -6.0625,9.65625 0,2.63444 1.883151,3.726902 3.96875,5.8125 2.085598,2.085598 6.552276,3.180143 9.40625,0.875 2.853982,-2.305135 5.609771,-4.821438 5.5,-6.6875 -0.109763,-1.866062 -1.633151,-5.163615 -3.71875,-7.46875 -1.433848,-1.58478 -3.524652,-3.067516 -5.84375,-3.125 z m 11.21875,25.15625 c 0.41436,0.0129 0.65625,0.156247 0.65625,0.156247 0,0 -4.370276,3.96402 -5.6875,5.28125 -1.317215,1.31721 -6.585095,1.42306 -9,1.09375 -2.414896,-0.3293 -3.431207,-1.11871 -5.1875,-2.875 -0.714698,-0.7147 -1.543204,-1.59442 -2.34375,-2.46875 0,0 6.349733,-0.26355 8.037517,0.34993 2.945847,1.07077 4.641101,1.41082 6.712483,1.18132 1.749267,-0.19151 3.839035,-1.13708 5.15625,-2.125 0.658612,-0.493957 1.24189,-0.606637 1.65625,-0.593747 z" style="fill:#aaaaaa"/>
</svg>