<?xml version="1.0" encoding="UTF-8" standalone="no"?>
<svg xmlns:dc="http://purl.org/dc/elements/1.1/"
     xmlns:cc="http://creativecommons.org/ns#"
     xmlns:rdf="http://www.w3.org/1999/02/22-rdf-syntax-ns#"
     xmlns:svg="http://www.w3.org/2000/svg"
     xmlns="http://www.w3.org/2000/svg"
     xmlns:xlink="http://www.w3.org/1999/xlink"
     width="128" height="128" version="1.1">
    <title>Clarity Icon</title>
    <desc>This is shape (source) for Clarity vector icon theme for gtk</desc>
    <metadata>
        <rdf:RDF>
            <cc:Work rdf:about="">
                <dc:title>Clarity Icon</dc:title>
                <dc:description>This is shape (source) for Clarity vector icon theme for gtk</dc:description>
                <dc:creator>
                    <cc:Agent>
                        <dc:title>Jakub Jankiewicz</dc:title>
                    </cc:Agent>
                </dc:creator>
                <dc:rights>
                    <cc:Agent>
                        <dc:title>Jakub Jankiewicz</dc:title>
                    </cc:Agent>
                </dc:rights>
                <dc:date>2010</dc:date>
                <dc:format>image/svg+xml</dc:format>
                <dc:type rdf:resource="http://purl.org/dc/dcmitype/StillImage" />
                <cc:license rdf:resource="http://creativecommons.org/licenses/by-sa/3.0/" />
             </cc:Work>
        </rdf:RDF>
    </metadata>
    <path d="M 37 12.28125 C 33.191834 12.28125 30.125 15.348084 30.125 19.15625 L 30.125 108.84375 C 30.125 112.65192 33.191834 115.71875 37 115.71875 L 91 115.71875 C 94.808165 115.71875 97.875 112.65192 97.875 108.84375 L 97.875 77.84375 L 87.03125 88.6875 A 2.2295714 2.2295714 0 0 1 85.96875 89.3125 C 85.937566 89.407119 85.980806 89.541673 85.9375 89.625 C 85.892672 89.711256 85.829829 89.766459 85.78125 89.84375 L 87.71875 89.84375 C 90.076186 89.84375 91.96875 91.767567 91.96875 94.125 L 91.96875 98.375 C 91.96875 100.73243 90.076186 102.625 87.71875 102.625 L 55 102.625 C 52.642565 102.625 50.75 100.73243 50.75 98.375 L 50.75 94.125 C 50.75 91.767567 52.642565 89.84375 55 89.84375 L 66.46875 89.84375 L 68.53125 84.875 L 55 84.875 C 52.642565 84.875 50.75 82.982436 50.75 80.625 L 50.75 76.375 C 50.75 74.017564 52.642565 72.09375 55 72.09375 L 76.90625 72.09375 L 81.875 67.125 L 55 67.125 C 52.642565 67.125 50.75 65.201186 50.75 62.84375 L 50.75 58.59375 C 50.75 56.236314 52.642565 54.34375 55 54.34375 L 87.71875 54.34375 C 89.59992 54.34375 91.187771 55.560793 91.75 57.25 L 92.5625 56.4375 A 2.2295714 2.2295714 0 0 1 93.28125 55.9375 A 2.2295714 2.2295714 0 0 1 93.8125 55.125 L 97.875 51.09375 L 97.875 19.15625 C 97.875 15.348084 94.808165 12.28125 91 12.28125 L 37 12.28125 z M 38.3125 18.8125 L 42.5625 18.8125 C 44.919936 18.8125 46.8125 20.736314 46.8125 23.09375 L 46.8125 27.34375 C 46.8125 29.701186 44.919936 31.59375 42.5625 31.59375 L 38.3125 31.59375 C 35.955067 31.59375 34.0625 29.701186 34.0625 27.34375 L 34.0625 23.09375 C 34.0625 20.736314 35.955067 18.8125 38.3125 18.8125 z M 55 18.8125 L 87.71875 18.8125 C 90.076186 18.8125 91.96875 20.736314 91.96875 23.09375 L 91.96875 27.34375 C 91.96875 29.701186 90.076186 31.59375 87.71875 31.59375 L 55 31.59375 C 52.642565 31.59375 50.75 29.701186 50.75 27.34375 L 50.75 23.09375 C 50.75 20.736314 52.642565 18.8125 55 18.8125 z M 38.3125 36.59375 L 42.5625 36.59375 C 44.919936 36.59375 46.8125 38.486314 46.8125 40.84375 L 46.8125 45.09375 C 46.8125 47.451186 44.919936 49.375 42.5625 49.375 L 38.3125 49.375 C 35.955067 49.375 34.0625 47.451186 34.0625 45.09375 L 34.0625 40.84375 C 34.0625 38.486314 35.955067 36.59375 38.3125 36.59375 z M 55 36.59375 L 87.71875 36.59375 C 90.076186 36.59375 91.96875 38.486314 91.96875 40.84375 L 91.96875 45.09375 C 91.96875 47.451186 90.076186 49.375 87.71875 49.375 L 55 49.375 C 52.642565 49.375 50.75 47.451186 50.75 45.09375 L 50.75 40.84375 C 50.75 38.486314 52.642565 36.59375 55 36.59375 z M 101.5 51.375 C 100.9865 51.417842 100.4597 51.665301 100.03125 52.09375 L 95.375 56.71875 L 105.625 66.96875 L 110.28125 62.34375 C 111.13815 61.486853 111.24576 60.214504 110.53125 59.5 L 102.875 51.84375 C 102.51774 51.486495 102.0135 51.332158 101.5 51.375 z M 38.3125 54.34375 L 42.5625 54.34375 C 44.919936 54.34375 46.8125 56.236314 46.8125 58.59375 L 46.8125 62.84375 C 46.8125 65.201186 44.919936 67.125 42.5625 67.125 L 38.3125 67.125 C 35.955067 67.125 34.0625 65.201186 34.0625 62.84375 L 34.0625 58.59375 C 34.0625 56.236314 35.955067 54.34375 38.3125 54.34375 z M 94.125 58 L 87.9375 64.1875 L 98.15625 74.4375 L 104.375 68.25 L 94.125 58 z M 86.6875 65.4375 L 75.21875 76.90625 L 85.46875 87.125 L 96.90625 75.6875 L 86.6875 65.4375 z M 38.3125 72.09375 L 42.5625 72.09375 C 44.919936 72.09375 46.8125 74.017564 46.8125 76.375 L 46.8125 80.625 C 46.8125 82.982436 44.919936 84.875 42.5625 84.875 L 38.3125 84.875 C 35.955067 84.875 34.0625 82.982436 34.0625 80.625 L 34.0625 76.375 C 34.0625 74.017564 35.955067 72.09375 38.3125 72.09375 z M 73.9375 78.375 C 73.695475 78.390425 73.492352 78.620504 73.375 78.90625 L 66.9375 94.59375 C 66.535573 95.572395 66.823557 95.893308 67.78125 95.5 L 83.34375 89.09375 C 83.958474 88.841294 84.199358 88.38685 83.875 88.0625 L 74.40625 78.59375 C 74.242473 78.429972 74.082715 78.365745 73.9375 78.375 z M 38.3125 89.84375 L 42.5625 89.84375 C 44.919936 89.84375 46.8125 91.767567 46.8125 94.125 L 46.8125 98.375 C 46.8125 100.73243 44.919936 102.625 42.5625 102.625 L 38.3125 102.625 C 35.955067 102.625 34.0625 100.73243 34.0625 98.375 L 34.0625 94.125 C 34.0625 91.767567 35.955067 89.84375 38.3125 89.84375 z " style="fill:#aaaaaa"/>
</svg>