<?xml version="1.0" encoding="UTF-8" standalone="no"?>
<svg xmlns:dc="http://purl.org/dc/elements/1.1/"
     xmlns:cc="http://creativecommons.org/ns#"
     xmlns:rdf="http://www.w3.org/1999/02/22-rdf-syntax-ns#"
     xmlns:svg="http://www.w3.org/2000/svg"
     xmlns="http://www.w3.org/2000/svg"
     xmlns:xlink="http://www.w3.org/1999/xlink"
     width="128" height="128" version="1.1">
    <title>Amarok Icon</title>
    <desc>This is shape (source) for Clarity vector icon theme for gtk</desc>
    <metadata>
        <rdf:RDF>
            <cc:Work rdf:about="">
                <dc:title>Amarok Icon</dc:title>
                <dc:description>This is shape (source) for Clarity vector icon theme for gtk</dc:description>
                <dc:creator>
                    <cc:Agent>
                        <dc:title>Jakub Jankiewicz</dc:title>
                    </cc:Agent>
                </dc:creator>
                <dc:rights>
                    <cc:Agent>
                        <dc:title>Jakub Jankiewicz</dc:title>
                    </cc:Agent>
                </dc:rights>
                <dc:date>2010</dc:date>
                <dc:format>image/svg+xml</dc:format>
                <dc:type rdf:resource="http://purl.org/dc/dcmitype/StillImage" />
                <cc:license rdf:resource="http://creativecommons.org/licenses/by-sa/3.0/" />
             </cc:Work>
        </rdf:RDF>
    </metadata>
    <path d="m 63.985304,8.3957863 c -30.694541,0 -55.5895154,24.9256267 -55.5895154,55.6193257 0,30.6937 24.8949764,55.589098 55.5895154,55.589098 30.694538,0 55.618906,-24.895401 55.618906,-55.589098 0,-30.693699 -24.924368,-55.6193257 -55.618906,-55.6193257 z m 0,13.8141487 c 22.894917,0 41.479006,18.596654 41.479006,41.502898 0,15.891203 -8.955574,29.719525 -22.077062,36.696667 0.01365,0.0701 0.01718,0.14121 0.0294,0.2116 -5.800027,3.06402 -12.420338,4.80623 -19.431342,4.80623 -8.796432,0 -16.937043,-2.7453 -23.664495,-7.405831 0.02325,-0.05277 0.06409,-0.0986 0.08819,-0.151143 -10.813576,-7.4982 -17.902713,-20.010427 -17.902709,-34.157521 0,-22.906243 18.584091,-41.5029 41.479009,-41.502897 z m 0,2.871649 c -21.309121,0 -38.598106,17.311583 -38.598114,38.631249 0,8.388911 2.684367,16.155589 7.231634,22.489552 0.06923,-0.03708 0.155969,-0.08874 0.235181,-0.120913 l 2.586924,-2.055496 0.734924,-1.420713 0.176392,-1.088202 -2.145974,-1.632307 -2.704513,-2.87165 -3.410039,-3.053017 -0.176392,-1.783446 3.762802,-1.813674 4.321342,-2.327546 3.762801,-3.59712 1.234671,-1.269574 4.321342,-0.876607 1.264066,-0.544102 8.613286,-7.526746 1.469845,-0.725471 6.790682,-0.362734 8.995447,-6.831503 7.701985,-5.743301 1.616829,-1.088205 1.440447,0.181371 2.704513,4.503957 -0.176391,2.327547 -2.880895,5.773529 -2.498735,5.380564 0,2.146181 6.085156,0 2.675116,-1.813673 1.616829,0.725469 0.558542,3.415751 -1.087687,0.906836 -2.704513,0.695243 -3.204261,1.632307 -2.880895,2.327546 -3.057276,2.539144 -1.969592,2.327547 -1.087684,2.327549 -0.529145,2.508915 -0.205786,2.508915 -0.67613,4.866691 -0.176391,5.078287 c 4.049679,1.859107 7.171257,4.593828 8.730874,7.829025 11.997438,-6.552304 20.136869,-19.31315 20.136869,-33.945926 0,-21.319666 -17.28898,-38.631252 -38.598112,-38.631249 z m -3.733406,32.374073 -1.264065,0.181372 -2.880896,2.478687 -1.998988,2.720512 -0.911303,2.871648 0,2.146182 1.822605,-1.632308 1.646226,-1.783444 2.322356,-1.783447 1.940195,-1.088205 0.73492,-0.876608 1.264066,-1.26957 -0.205786,-1.964816 -2.469338,0 z" style="fill:#aaaaaa"/>
</svg>