<?xml version="1.0" encoding="UTF-8" standalone="no"?>
<svg xmlns:dc="http://purl.org/dc/elements/1.1/"
     xmlns:cc="http://creativecommons.org/ns#"
     xmlns:rdf="http://www.w3.org/1999/02/22-rdf-syntax-ns#"
     xmlns:svg="http://www.w3.org/2000/svg"
     xmlns="http://www.w3.org/2000/svg"
     xmlns:xlink="http://www.w3.org/1999/xlink"
     width="128" height="128" version="1.1">
    <title>Windows File Icon</title>
    <desc>This is shape (source) for Clarity vector icon theme for gtk</desc>
    <metadata>
        <rdf:RDF>
            <cc:Work rdf:about="">
                <dc:title>Windows File Icon</dc:title>
                <dc:description>This is shape (source) for Clarity vector icon theme for gtk</dc:description>
                <dc:creator>
                    <cc:Agent>
                        <dc:title>Jakub Jankiewicz</dc:title>
                    </cc:Agent>
                </dc:creator>
                <dc:rights>
                    <cc:Agent>
                        <dc:title>Jakub Jankiewicz</dc:title>
                    </cc:Agent>
                </dc:rights>
                <dc:date>2010</dc:date>
                <dc:format>image/svg+xml</dc:format>
                <dc:type rdf:resource="http://purl.org/dc/dcmitype/StillImage" />
                <cc:license rdf:resource="http://creativecommons.org/licenses/by-sa/3.0/" />
             </cc:Work>
        </rdf:RDF>
    </metadata>
    <path d="M 28.5 11.253906 C 25.598125 11.547496 23.375 14.01909 23.375 17.003906 L 23.375 111.00391 C 23.375 114.18771 25.90994 116.75391 29.09375 116.75391 L 98.90625 116.75391 C 102.09005 116.75391 104.625 114.18771 104.625 111.00391 L 104.625 40.378906 L 83.59375 40.378906 C 79.28764 40.378906 75.53125 37.237797 75.53125 33.066406 L 75.53125 11.253906 L 29.09375 11.253906 C 28.894762 11.253906 28.693458 11.234336 28.5 11.253906 z M 79.53125 11.253906 L 79.53125 33.066406 C 79.53125 34.780528 81.16322 36.378906 83.59375 36.378906 L 104.625 36.378906 L 79.53125 11.253906 z M 51.0625 53.576172 C 51.909233 53.556678 52.732597 53.626731 53.53125 53.732422 C 57.478306 54.254762 60.854621 56.174139 64.25 58.076172 L 62.625 72.388672 C 59.392967 70.56075 56.01495 68.740771 51.9375 68.201172 C 49.349456 67.858681 46.509202 68.066914 43.375 69.169922 L 44.96875 54.826172 C 46.172073 54.359528 47.341581 54.065526 48.4375 53.857422 C 49.35077 53.683998 50.215767 53.595662 51.0625 53.576172 z M 86.53125 59.482422 L 84.90625 73.857422 C 84.629903 73.851255 84.357963 73.927398 84.125 74.076172 C 76.743655 78.056541 71.979414 77.026513 67.25 74.826172 C 66.603978 74.525614 65.954916 74.201842 65.3125 73.857422 L 66.875 59.513672 C 72.217876 62.279721 78.021204 64.071445 86.53125 59.482422 z M 49.09375 70.794922 C 49.636188 70.778642 50.165441 70.819882 50.6875 70.857422 C 50.985818 70.878872 51.30166 70.912522 51.59375 70.951172 C 55.381505 71.452437 58.742487 73.467468 62.34375 75.451172 L 60.71875 89.732422 C 55.124327 86.595882 49.635932 83.377722 41.46875 86.544922 L 43.03125 72.076172 C 43.259429 72.123352 43.495792 72.112602 43.71875 72.044922 C 45.036911 71.533749 46.282362 71.135 47.4375 70.951172 C 48.015068 70.859252 48.551312 70.811192 49.09375 70.794922 z M 64.9375 76.826172 C 65.295137 77.00489 65.665338 77.187186 66.03125 77.357422 C 70.994367 79.666492 76.926206 80.802664 84.5625 76.982422 L 83 91.138672 C 74.491618 95.726802 68.68471 93.93714 63.34375 91.169922 L 64.9375 76.826172 z " style="fill:#aaaaaa"/>
</svg>