<?xml version="1.0" encoding="UTF-8" standalone="no"?>
<svg xmlns:dc="http://purl.org/dc/elements/1.1/"
     xmlns:cc="http://creativecommons.org/ns#"
     xmlns:rdf="http://www.w3.org/1999/02/22-rdf-syntax-ns#"
     xmlns:svg="http://www.w3.org/2000/svg"
     xmlns="http://www.w3.org/2000/svg"
     xmlns:xlink="http://www.w3.org/1999/xlink"
     width="128" height="128" version="1.1">
    <title>Bang Warning Icon</title>
    <desc>This is shape (source) for Clarity vector icon theme for gtk</desc>
    <metadata>
        <rdf:RDF>
            <cc:Work rdf:about="">
                <dc:title>Bang Warning Icon</dc:title>
                <dc:description>This is shape (source) for Clarity vector icon theme for gtk</dc:description>
                <dc:creator>
                    <cc:Agent>
                        <dc:title>Jakub Jankiewicz</dc:title>
                    </cc:Agent>
                </dc:creator>
                <dc:rights>
                    <cc:Agent>
                        <dc:title>Jakub Jankiewicz</dc:title>
                    </cc:Agent>
                </dc:rights>
                <dc:date>2010</dc:date>
                <dc:format>image/svg+xml</dc:format>
                <dc:type rdf:resource="http://purl.org/dc/dcmitype/StillImage" />
                <cc:license rdf:resource="http://creativecommons.org/licenses/by-sa/3.0/" />
             </cc:Work>
        </rdf:RDF>
    </metadata>
    <path d="M 42.90625,8.859375 42.5,34.734375 11.59375,29.328125 38.75,56.484375 l -28,6.65625 22.5625,8.375 -23.40625,34.250005 34.25,-12.531255 1.6875,22.562505 18.375,-17.562505 9.1875,15.062505 4.1875,-15.468755 34.65625,21.312505 -18.375,-35.531255 18.375,0.4375 -14.1875,-12.96875 18.375,-11.28125 -17.96875,-7.90625 19.625,-42.21875 -39.25,18.8125 -4.1875,-13.78125 -8.78125,13.375 -22.96875,-19.21875 z m 21.625,23.25 c 2.475003,6.2e-5 4.406224,0.759426 5.8125,2.25 1.434366,1.490693 2.15623,3.465664 2.15625,5.96875 -2e-5,3.431323 -0.678135,8.125005 -2,14.03125 -1.490651,6.806329 -2.340639,11.434386 -2.59375,13.9375 -0.05626,1.575034 -0.128137,3.178136 -0.15625,4.78125 -0.168766,2.137533 -0.731258,3.462514 -1.6875,3.96875 -0.36564,0.225018 -0.809384,0.343767 -1.34375,0.34375 -1.293769,1.7e-5 -2.059383,-1.037469 -2.3125,-3.0625 -0.02813,-0.196857 -0.03126,-1.684335 -0.03125,-4.46875 -1e-5,-5.118756 -1.118744,-12.471773 -3.3125,-22.0625 -0.843762,-3.740601 -1.250005,-6.19369 -1.25,-7.375 -5e-6,-2.137459 0.562487,-4.021807 1.6875,-5.625 1.265626,-1.799952 2.949976,-2.687438 5.03125,-2.6875 z m 0.03125,49.6875 c 1.743748,1.2e-5 3.234351,0.521879 4.5,1.5625 1.349992,1.125017 2.031232,2.565621 2.03125,4.28125 -1.8e-5,1.884392 -0.603134,3.41562 -1.8125,4.625 -1.181273,1.209384 -2.709376,1.8125 -4.59375,1.8125 -1.575021,0 -2.943751,-0.568742 -4.125,-1.75 -1.181265,-1.181255 -1.781256,-2.581235 -1.78125,-4.15625 -6e-6,-1.687504 0.559361,-3.140607 1.65625,-4.40625 1.096873,-1.293747 2.465603,-1.968738 4.125,-1.96875 z" style="fill:#aaaaaa"/>
</svg>