<?xml version="1.0" encoding="UTF-8" standalone="no"?>
<svg xmlns:dc="http://purl.org/dc/elements/1.1/"
     xmlns:cc="http://creativecommons.org/ns#"
     xmlns:rdf="http://www.w3.org/1999/02/22-rdf-syntax-ns#"
     xmlns:svg="http://www.w3.org/2000/svg"
     xmlns="http://www.w3.org/2000/svg"
     xmlns:xlink="http://www.w3.org/1999/xlink"
     width="128" height="128" version="1.1">
    <title>Aqsis Icon</title>
    <desc>This is shape (source) for Clarity vector icon theme for gtk</desc>
    <metadata>
        <rdf:RDF>
            <cc:Work rdf:about="">
                <dc:title>Aqsis Icon</dc:title>
                <dc:description>This is shape (source) for Clarity vector icon theme for gtk</dc:description>
                <dc:creator>
                    <cc:Agent>
                        <dc:title>Jakub Jankiewicz</dc:title>
                    </cc:Agent>
                </dc:creator>
                <dc:rights>
                    <cc:Agent>
                        <dc:title>Jakub Jankiewicz</dc:title>
                    </cc:Agent>
                </dc:rights>
                <dc:date>2010</dc:date>
                <dc:format>image/svg+xml</dc:format>
                <dc:type rdf:resource="http://purl.org/dc/dcmitype/StillImage" />
                <cc:license rdf:resource="http://creativecommons.org/licenses/by-sa/3.0/" />
             </cc:Work>
        </rdf:RDF>
    </metadata>
    <path d="m 61.477621,11.804428 c -11.283966,0.571979 -21.566613,4.91481 -29.656799,11.770997 5.999391,0.115937 14.558174,0.51697 21.248944,1.910877 11.377654,2.370342 29.83028,8.947205 36.230213,18.191541 6.399929,9.244336 4.563771,21.323667 2.904531,26.064352 -1.659242,4.740685 -3.553801,5.260272 -4.738973,0.993655 C 86.280364,66.469234 78.446202,60.799294 78.446202,60.799294 79.868407,52.977164 78.884198,46.0645 72.484268,40.849746 66.084336,35.634993 55.645827,30.424715 45.044085,29.460924 c -6.387573,-0.580686 -13.937108,-0.321785 -19.108762,0 -7.326073,8.671183 -11.770997,19.870887 -11.770997,32.102721 l 0,4.815408 c 0,3.278122 0.31266,6.452732 0.91722,9.554381 L 52.84046,74.786908 c 0,0 -1.643781,4.905589 -0.45861,9.172206 1.185174,4.266616 5.885499,8.79003 5.885499,8.79003 l -36.383083,0.15287 C 30.709867,106.89635 46.237962,116.2147 63.999978,116.2147 l 39.211182,0 c 5.49379,0 10.62447,-4.21586 10.62447,-11.23595 0,-18.256503 -0.001,-21.98761 0,-38.599697 1e-4,-1.605136 0,18.659324 0,-4.815408 0,-27.516887 -22.318756,-49.759217 -49.835652,-49.759217 -0.859903,0 -1.673153,-0.04305 -2.522357,0 z m -23.00695,36.841693 c 2.421844,0 4.433233,2.01138 4.433233,4.433233 0,2.421854 -2.011389,4.356798 -4.433233,4.356798 -2.421844,0 -4.356797,-1.934944 -4.356797,-4.356798 0,-2.421853 1.934953,-4.433233 4.356797,-4.433233 z m 13.681874,3.592448 c 4.320048,0 7.796375,3.476315 7.796375,7.796375 0,4.320035 -3.476327,7.87281 -7.796375,7.87281 -4.320048,0 -7.87281,-3.552775 -7.87281,-7.87281 0,-4.32006 3.552762,-7.796375 7.87281,-7.796375 z m 17.274321,11.159517 c 8.116453,0 14.675529,6.559081 14.675529,14.675529 0,8.116448 -6.559076,14.675529 -14.675529,14.675529 -8.116453,0 -14.675529,-6.559081 -14.675529,-14.675529 0,-8.116448 6.559076,-14.675529 14.675529,-14.675529 z" style="fill:#aaaaaa"/>
</svg>