<?xml version="1.0" encoding="UTF-8" standalone="no"?>
<svg xmlns:dc="http://purl.org/dc/elements/1.1/"
     xmlns:cc="http://creativecommons.org/ns#"
     xmlns:rdf="http://www.w3.org/1999/02/22-rdf-syntax-ns#"
     xmlns:svg="http://www.w3.org/2000/svg"
     xmlns="http://www.w3.org/2000/svg"
     xmlns:xlink="http://www.w3.org/1999/xlink"
     width="128" height="128" version="1.1">
    <title>Clarity Icon</title>
    <desc>This is shape (source) for Clarity vector icon theme for gtk</desc>
    <metadata>
        <rdf:RDF>
            <cc:Work rdf:about="">
                <dc:title>Clarity Icon</dc:title>
                <dc:description>This is shape (source) for Clarity vector icon theme for gtk</dc:description>
                <dc:creator>
                    <cc:Agent>
                        <dc:title>Jakub Jankiewicz</dc:title>
                    </cc:Agent>
                </dc:creator>
                <dc:rights>
                    <cc:Agent>
                        <dc:title>Jakub Jankiewicz</dc:title>
                    </cc:Agent>
                </dc:rights>
                <dc:date>2010</dc:date>
                <dc:format>image/svg+xml</dc:format>
                <dc:type rdf:resource="http://purl.org/dc/dcmitype/StillImage" />
                <cc:license rdf:resource="http://creativecommons.org/licenses/by-sa/3.0/" />
             </cc:Work>
        </rdf:RDF>
    </metadata>
    <path d="m 63.940797,13.161355 c -24.336964,0 -43.479135,19.808575 -44.104564,44.045364 l -0.355204,13.29057 0,0.0296 0,0.0592 0,16.605812 c 0,4.05938 3.143702,7.46527 7.10409,7.873701 1.085523,10.990427 6.61867,19.405327 13.349771,19.743447 l 0,-47.390201 c -0.09951,0.005 -0.19702,-0.0085 -0.296004,0 -6.997745,0.603705 -12.63869,9.991612 -13.201768,21.785879 -0.768476,-0.34024 -1.272817,-1.083851 -1.272817,-2.012826 l 0,-16.546611 0,-0.0592 0.355205,-13.231369 C 26.07038,36.007126 42.678203,18.844628 63.940797,18.844628 c 0.01982,0 0.03939,-2.9e-5 0.0592,0 0.01981,-2.9e-5 0.03939,0 0.0592,0 21.262594,0 37.870421,17.162498 38.421291,38.510093 l 0.35521,13.231369 0,0.0592 0,16.546611 c 0,0.928975 -0.50435,1.672586 -1.27282,2.012826 -0.56308,-11.794267 -6.204021,-21.182174 -13.201768,-21.785879 -0.09898,-0.0085 -0.196489,0.005 -0.296004,0 l 0,47.390201 c 6.731098,-0.33812 12.264242,-8.75302 13.349772,-19.743447 3.96039,-0.408431 7.10409,-3.814321 7.10409,-7.873701 l 0,-16.605812 0,-0.0592 0,-0.0296 -0.35521,-13.29057 C 107.53834,32.96993 88.396159,13.161355 64.059199,13.161355 c -0.01973,0 -0.03948,-2.5e-5 -0.0592,0 -0.01973,-2.5e-5 -0.03947,0 -0.0592,0 z m -21.845079,54.227894 0,47.449411 4.232854,0 0,-47.449411 -4.232854,0 z m 39.575707,0 0,47.449411 4.232856,0 0,-47.449411 -4.232856,0 z m -13.645774,9.945727 c -0.934022,0.06764 -1.695015,0.428038 -2.190429,1.006413 -0.967612,1.083096 -1.443274,2.056391 -1.657621,2.752835 L 60.21115,94.503196 c -0.446542,-0.681568 -1.039801,-1.388021 -1.805624,-2.072027 -1.588496,-1.176919 -3.312779,-1.62838 -4.854462,-1.56882 l -2.930437,0 c -2.120184,0 -3.848049,1.2647 -3.848049,2.841637 0,1.576936 1.727865,2.841636 3.848049,2.841636 l 2.930437,0 c 0.632579,0.05956 1.178531,0.0961 1.272817,0.296004 0.315525,0.158673 0.581149,0.815518 1.065613,1.65762 0.279802,0.586883 0.661726,1.259546 1.213616,1.983224 0.252708,0.6255 1.230793,1.34416 2.930437,1.83522 2.249365,-0.17509 3.543253,-0.95937 3.84805,-1.89442 0.921732,-1.398463 1.375832,-2.710163 1.628021,-3.759246 l 3.167241,-10.774538 2.042426,5.061664 c 0.228519,0.896601 0.80886,2.425404 2.33843,4.025652 1.847602,1.231045 3.407193,1.482266 4.321655,1.302417 0.01128,-0.0022 0.01855,0.0024 0.0296,0 2.105436,-0.01261 3.818448,-1.272585 3.818448,-2.841637 0,-1.569052 -1.713012,-2.858629 -3.818448,-2.871236 -0.01011,-0.0024 -0.01963,0.0023 -0.0296,0 -0.324484,-0.07253 -0.539717,-0.05112 -0.680809,-0.0296 -0.111529,-0.273683 -0.294992,-0.872924 -0.710409,-1.687221 L 73.294518,82.071037 C 73.011692,81.33945 72.632829,80.518718 72.110503,79.643806 71.96011,79.122626 71.256157,78.312514 69.890474,77.512579 69.197601,77.344135 68.586063,77.294394 68.025651,77.334976 z m 8.702511,13.320171 c 0.03525,0.0093 0.04105,0.02179 0.0888,0.0296 -0.03114,0.02493 -0.05806,0.02253 -0.0888,-0.0296 z m -17.405024,6.364081 c -0.02655,0.03904 -0.06021,0.08695 -0.0888,0.118402 -0.09097,-0.05763 -0.02562,-0.07836 0.0888,-0.118402 z" style="fill:#aaaaaa"/>
</svg>