<?xml version="1.0" encoding="UTF-8" standalone="no"?>
<svg xmlns:dc="http://purl.org/dc/elements/1.1/"
     xmlns:cc="http://creativecommons.org/ns#"
     xmlns:rdf="http://www.w3.org/1999/02/22-rdf-syntax-ns#"
     xmlns:svg="http://www.w3.org/2000/svg"
     xmlns="http://www.w3.org/2000/svg"
     xmlns:xlink="http://www.w3.org/1999/xlink"
     width="128" height="128" version="1.1">
    <title>Beryl Icons</title>
    <desc>This is shape (source) for Clarity vector icon theme for gtk</desc>
    <metadata>
        <rdf:RDF>
            <cc:Work rdf:about="">
                <dc:title>Beryl Icons</dc:title>
                <dc:description>This is shape (source) for Clarity vector icon theme for gtk</dc:description>
                <dc:creator>
                    <cc:Agent>
                        <dc:title>Jakub Jankiewicz</dc:title>
                    </cc:Agent>
                </dc:creator>
                <dc:rights>
                    <cc:Agent>
                        <dc:title>Jakub Jankiewicz</dc:title>
                    </cc:Agent>
                </dc:rights>
                <dc:date>2010</dc:date>
                <dc:format>image/svg+xml</dc:format>
                <dc:type rdf:resource="http://purl.org/dc/dcmitype/StillImage" />
                <cc:license rdf:resource="http://creativecommons.org/licenses/by-sa/3.0/" />
             </cc:Work>
        </rdf:RDF>
    </metadata>
    <path d="m 46.3125,10.59375 c -0.27687,-0.0038 -0.589847,0.03047 -0.90625,0.1875 l -25.625,13.375 a 0.55998918,0.55998918 0 0 0 -0.03125,0 c -0.364735,0.199471 -0.610706,0.536916 -0.78125,0.90625 -0.0063,0.01361 -0.02528,0.0175 -0.03125,0.03125 l -8.03125,17.25 c -0.393157,0.786142 -0.144857,1.690381 0.46875,2.28125 l -0.03125,0.03125 52.1875,72.53125 a 0.55998918,0.55998918 0 0 0 0.9375,0 L 116.65625,44.65625 116.625,44.625 c 0.61361,-0.590869 0.86191,-1.495108 0.46875,-2.28125 l -8.03125,-17.25 c -0.003,-0.0074 0.003,-0.02392 0,-0.03125 l -0.0312,0 C 108.8607,24.69317 108.61473,24.355721 108.25,24.15625 a 0.55998918,0.55998918 0 0 0 -0.0312,0 l -25.625,-13.375 c -0.316458,-0.157063 -0.629501,-0.1913 -0.90625,-0.1875 -0.01035,-5.49e-4 -0.02096,3.92e-4 -0.03125,0 -0.05144,-0.002 -0.104808,-0.002 -0.15625,0 -0.01041,2.69e-4 -0.02084,-2.68e-4 -0.03125,0 -11.636326,0.299674 -23.285304,0.137132 -34.9375,0 -0.01042,-1.23e-4 -0.02083,1.23e-4 -0.03125,0 -0.05144,-0.002 -0.104808,-0.002 -0.15625,0 l -0.03125,0 z m 0.78125,3.9375 c 11.286103,0.2921 22.541866,0.135879 33.8125,0 L 92.0625,26 80.625,34.15625 l -33.25,0 L 35.9375,26 47.09375,14.53125 z M 36.375,19.9375 l -4.78125,4.9375 -0.03125,0 0,0.03125 -0.03125,0 -13.375,11.1875 4.0625,-8.75 L 36.375,19.9375 z m 55.25,0 14.15625,7.40625 4.0625,8.75 L 96.4375,24.90625 96.40625,24.875 91.625,19.9375 z m -58.53125,8.84375 11.21875,8.0625 -7.96875,20.96875 -20.4375,-14.71875 17.1875,-14.3125 z m 61.8125,0 17.1875,14.3125 -20.4375,14.71875 -7.96875,-20.96875 11.21875,-8.0625 z m -46.875,9.3125 31.9375,0 7.90625,20.84375 -47.75,0 7.90625,-20.84375 z M 21.5,51.96875 35.78125,62.3125 l 16.625,32.65625 -30.90625,-43 z m 85,0 -30.90625,43 L 92.21875,62.3125 106.5,51.96875 z m -66,10.9375 47,0 -23.5,46.0625 -23.5,-46.0625 z" style="fill:#aaaaaa"/>
</svg>