<?xml version="1.0" encoding="UTF-8" standalone="no"?>
<svg xmlns:dc="http://purl.org/dc/elements/1.1/"
     xmlns:cc="http://creativecommons.org/ns#"
     xmlns:rdf="http://www.w3.org/1999/02/22-rdf-syntax-ns#"
     xmlns:svg="http://www.w3.org/2000/svg"
     xmlns="http://www.w3.org/2000/svg"
     xmlns:xlink="http://www.w3.org/1999/xlink"
     width="128" height="128" version="1.1">
    <title>Blender Icon</title>
    <desc>This is shape (source) for Clarity vector icon theme for gtk</desc>
    <metadata>
        <rdf:RDF>
            <cc:Work rdf:about="">
                <dc:title>Blender Icon</dc:title>
                <dc:description>This is shape (source) for Clarity vector icon theme for gtk</dc:description>
                <dc:creator>
                    <cc:Agent>
                        <dc:title>Jakub Jankiewicz</dc:title>
                    </cc:Agent>
                </dc:creator>
                <dc:rights>
                    <cc:Agent>
                        <dc:title>Jakub Jankiewicz</dc:title>
                    </cc:Agent>
                </dc:rights>
                <dc:date>2010</dc:date>
                <dc:format>image/svg+xml</dc:format>
                <dc:type rdf:resource="http://purl.org/dc/dcmitype/StillImage" />
                <cc:license rdf:resource="http://creativecommons.org/licenses/by-sa/3.0/" />
             </cc:Work>
        </rdf:RDF>
    </metadata>
    <path d="m 66.486416,14.174396 a 7.0007,7.0007 0 0 0 -3.84375,12.65625 l 8.15625,6.125 c -3.262107,0.781693 -6.374385,1.959218 -9.28125,3.46875 l -33.90625,0 a 8.0008,8.0008 0 1 0 0,16 l 17.21875,0 c -0.695024,1.209627 -1.335118,2.466807 -1.90625,3.75 l -33.3124999,26.625 a 8.0039053,8.0039053 0 1 0 9.9999999,12.5 l 20.25,-16.1875 c 3.03277,19.650236 20.031816,34.718754 40.53125,34.718754 22.643424,0 41.000004,-18.356582 41.000004,-41.000004 0,-16.409475 -9.66781,-30.573163 -23.593754,-37.125 l -26.75,-20.0625 a 7.0007,7.0007 0 0 0 -4.5625,-1.46875 z m 14.75,32.59375 c 13.444532,0 24.343754,10.123943 24.343754,22.625 0,12.501057 -10.899222,22.65625 -24.343754,22.65625 -13.444532,0 -24.34375,-10.155193 -24.34375,-22.65625 0,-12.501057 10.899218,-22.625 24.34375,-22.625 z m 0,6.84375 c -9.385806,0 -17,7.054097 -17,15.78125 0,8.727153 7.614194,15.8125 17,15.8125 9.385806,0 17,-7.085347 17,-15.8125 0,-8.727153 -7.614194,-15.78125 -17,-15.78125 z" style="fill:#aaaaaa"/>
</svg>