<?xml version="1.0" encoding="UTF-8" standalone="no"?>
<svg xmlns:dc="http://purl.org/dc/elements/1.1/"
     xmlns:cc="http://creativecommons.org/ns#"
     xmlns:rdf="http://www.w3.org/1999/02/22-rdf-syntax-ns#"
     xmlns:svg="http://www.w3.org/2000/svg"
     xmlns="http://www.w3.org/2000/svg"
     xmlns:xlink="http://www.w3.org/1999/xlink"
     width="128" height="128" version="1.1">
    <title>Caffeine Icon</title>
    <desc>This is shape (source) for Clarity vector icon theme for gtk</desc>
    <metadata>
        <rdf:RDF>
            <cc:Work rdf:about="">
                <dc:title>Caffeine Icon</dc:title>
                <dc:description>This is shape (source) for Clarity vector icon theme for gtk</dc:description>
                <dc:creator>
                    <cc:Agent>
                        <dc:title>Jakub Jankiewicz</dc:title>
                    </cc:Agent>
                </dc:creator>
                <dc:rights>
                    <cc:Agent>
                        <dc:title>Jakub Jankiewicz</dc:title>
                    </cc:Agent>
                </dc:rights>
                <dc:date>2010</dc:date>
                <dc:format>image/svg+xml</dc:format>
                <dc:type rdf:resource="http://purl.org/dc/dcmitype/StillImage" />
                <cc:license rdf:resource="http://creativecommons.org/licenses/by-sa/3.0/" />
             </cc:Work>
        </rdf:RDF>
    </metadata>
    <path d="m 45.5625,10.293217 c -1.02525,0.03785 -1.988194,0.773539 -2.294209,1.752786 -0.306015,0.979247 0.06669,2.13233 0.887959,2.747214 1.487961,1.127718 2.704927,2.707205 3.40625,4.4375 0.701325,1.730292 0.90787,3.685777 0.625,5.53125 -0.344237,2.245839 -1.464687,4.55834 -2.78125,7 -1.321006,2.4499 -2.864887,5.105674 -3.59375,8.3125 -1.04048,4.577866 -0.128993,9.485546 2.5,13.375 0.736311,1.088104 2.396271,1.408185 3.484374,0.671874 1.088104,-0.736311 1.408187,-2.39627 0.671876,-3.484374 -1.825879,-2.70129 -2.50388,-6.258096 -1.78125,-9.4375 0.516627,-2.273034 1.778884,-4.56603 3.125,-7.0625 1.350559,-2.504708 2.836569,-5.316093 3.34375,-8.625 0.421682,-2.751101 0.07674,-5.576838 -0.96875,-8.15625 -1.045485,-2.579407 -2.781847,-4.850124 -5,-6.53125 -0.457713,-0.358841 -1.043707,-0.550416 -1.625,-0.53125 z m 16.625,0 c -1.020158,0.04975 -1.970868,0.789874 -2.269331,1.766663 -0.298463,0.976788 0.07621,2.121889 0.894331,2.733337 1.487961,1.127718 2.673677,2.707205 3.375,4.4375 0.701325,1.730292 0.93912,3.685777 0.65625,5.53125 -0.344237,2.245839 -1.495937,4.55834 -2.8125,7 -1.321006,2.4499 -2.833637,5.105674 -3.5625,8.3125 -1.04048,4.577866 -0.128993,9.485546 2.5,13.375 0.699645,1.161638 2.429844,1.539718 3.55026,0.775798 1.120416,-0.76392 1.400513,-2.512656 0.57474,-3.588298 -1.825879,-2.70129 -2.47263,-6.258096 -1.75,-9.4375 0.516627,-2.273034 1.747634,-4.56603 3.09375,-7.0625 1.350559,-2.504708 2.836569,-5.316093 3.34375,-8.625 0.421682,-2.751101 0.07674,-5.576838 -0.96875,-8.15625 -1.045485,-2.579407 -2.750597,-4.850124 -4.96875,-6.53125 -0.465747,-0.365705 -1.06468,-0.557816 -1.65625,-0.53125 z m 16.65625,0 c -1.02525,0.03785 -1.988194,0.773539 -2.294209,1.752786 -0.306015,0.979247 0.06669,2.13233 0.887959,2.747214 1.487961,1.127718 2.704927,2.707205 3.40625,4.4375 0.701325,1.730292 0.90787,3.685777 0.625,5.53125 -0.344237,2.245839 -1.464687,4.55834 -2.78125,7 -1.321006,2.4499 -2.864887,5.105674 -3.59375,8.3125 -1.04048,4.577866 -0.128993,9.485546 2.5,13.375 0.736311,1.088104 2.396271,1.408185 3.484374,0.671874 1.088104,-0.736311 1.408187,-2.39627 0.671876,-3.484374 -1.825879,-2.70129 -2.50388,-6.258096 -1.78125,-9.4375 0.516627,-2.273034 1.778884,-4.56603 3.125,-7.0625 1.350559,-2.504708 2.805319,-5.316093 3.3125,-8.625 0.421682,-2.751101 0.107991,-5.576838 -0.9375,-8.15625 -1.045485,-2.579407 -2.781847,-4.850124 -5,-6.53125 -0.457713,-0.358841 -1.043707,-0.550416 -1.625,-0.53125 z m -52.90625,49.625 0,33.0625 c 0,4.625494 3.718254,8.343743 8.34375,8.343743 l 56.75,0 c 4.625497,0 8.34375,-3.718249 8.34375,-8.343743 l 0,-2.5 c 0.396228,0.03434 0.81289,0.0625 1.21875,0.0625 7.07319,0 12.78125,-5.316232 12.78125,-11.875 0,-6.558764 -5.70806,-11.875 -12.78125,-11.875 -0.40586,0 -0.822522,0.02827 -1.21875,0.0625 l 0,-6.9375 z m 74.65625,12.46875 c 3.7295,0 6.75,2.823005 6.75,6.28125 0,3.458257 -3.0205,6.25 -6.75,6.25 -0.41126,0 -0.827668,-0.02843 -1.21875,-0.09375 l 0,-12.3125 c 0.391082,-0.06534 0.80749,-0.125 1.21875,-0.125 z M 14.625,107.36546 l 0,2 c 0,4.62549 3.718253,8.34375 8.34375,8.34375 l 79.375,0 c 4.6255,0 8.34375,-3.71826 8.34375,-8.34375 l 0,-2 z" style="fill:#aaaaaa"/>
</svg>