<?xml version="1.0" encoding="UTF-8" standalone="no"?>
<svg xmlns:dc="http://purl.org/dc/elements/1.1/"
     xmlns:cc="http://creativecommons.org/ns#"
     xmlns:rdf="http://www.w3.org/1999/02/22-rdf-syntax-ns#"
     xmlns:svg="http://www.w3.org/2000/svg"
     xmlns="http://www.w3.org/2000/svg"
     xmlns:xlink="http://www.w3.org/1999/xlink"
     width="128" height="128" version="1.1">
    <title></title>
    <desc>This icon is a part of Clarity icon theme</desc>
    <metadata>
        <rdf:RDF>
            <cc:Work rdf:about="">
                <dc:title></dc:title>
                <dc:description>This icon is a part of Clarity icon theme</dc:description>
                <dc:creator>
                    <cc:Agent>
                        <dc:title>Jakub Jankiewicz</dc:title>
                    </cc:Agent>
                </dc:creator>
                <dc:rights>
                    <cc:Agent>
                        <dc:title>Jakub Jankiewicz</dc:title>
                    </cc:Agent>
                </dc:rights>
                <dc:date>2010</dc:date>
                <dc:format>image/svg+xml</dc:format>
                <dc:type rdf:resource="http://purl.org/dc/dcmitype/StillImage" />
                <cc:license rdf:resource="http://creativecommons.org/licenses/by-sa/3.0/" />
             </cc:Work>
        </rdf:RDF>
    </metadata>
    <path d="M 28.71875 18.3125 C 19.792048 18.3125 12.5625 25.448291 12.5625 34.375 L 12.5625 51.96875 C 12.5625 60.895459 19.792048 68.0625 28.71875 68.0625 L 60.75 68.0625 C 60.449229 74.257846 57.638881 78.287908 53.84375 82.53125 C 63.320613 80.548877 70.508487 75.969822 74.71875 68.0625 L 77.1875 68.0625 C 86.114215 68.0625 93.28125 60.895459 93.28125 51.96875 L 93.28125 34.375 C 93.28125 25.448291 86.114215 18.3125 77.1875 18.3125 L 28.71875 18.3125 z M 96.1875 45.46875 L 96.1875 51.96875 C 96.1875 62.458467 87.713744 70.96875 77.21875 70.96875 L 76.375 70.96875 C 71.616659 78.731338 63.882366 83.39932 54.4375 85.375 A 2.9282327 2.9282327 0 0 1 51.625 80.5625 C 54.526135 77.318737 56.525668 74.599156 57.375 70.96875 L 34.71875 70.96875 L 34.71875 79.15625 C 34.71875 88.082959 41.885785 95.25 50.8125 95.25 L 53.3125 95.25 C 57.522764 103.15732 64.679387 107.70512 74.15625 109.6875 C 70.361119 105.44416 67.550771 101.44534 67.25 95.25 L 99.28125 95.25 C 108.20795 95.25 115.4375 88.082959 115.4375 79.15625 L 115.4375 61.5625 C 115.4375 52.635791 108.20795 45.46875 99.28125 45.46875 L 96.1875 45.46875 z" style="fill:#aaaaaa"/>
</svg>