<?xml version="1.0" encoding="UTF-8" standalone="no"?>
<svg xmlns:dc="http://purl.org/dc/elements/1.1/"
     xmlns:cc="http://creativecommons.org/ns#"
     xmlns:rdf="http://www.w3.org/1999/02/22-rdf-syntax-ns#"
     xmlns:svg="http://www.w3.org/2000/svg"
     xmlns="http://www.w3.org/2000/svg"
     xmlns:xlink="http://www.w3.org/1999/xlink"
     width="128" height="128" version="1.1">
    <title>Clarity Icon</title>
    <desc>This is shape (source) for Clarity vector icon theme for gtk</desc>
    <metadata>
        <rdf:RDF>
            <cc:Work rdf:about="">
                <dc:title>Clarity Icon</dc:title>
                <dc:description>This is shape (source) for Clarity vector icon theme for gtk</dc:description>
                <dc:creator>
                    <cc:Agent>
                        <dc:title>Jakub Jankiewicz</dc:title>
                    </cc:Agent>
                </dc:creator>
                <dc:rights>
                    <cc:Agent>
                        <dc:title>Jakub Jankiewicz</dc:title>
                    </cc:Agent>
                </dc:rights>
                <dc:date>2010</dc:date>
                <dc:format>image/svg+xml</dc:format>
                <dc:type rdf:resource="http://purl.org/dc/dcmitype/StillImage" />
                <cc:license rdf:resource="http://creativecommons.org/licenses/by-sa/3.0/" />
             </cc:Work>
        </rdf:RDF>
    </metadata>
    <path d="m 32.796875,26.864738 c -2.13162,-0.01036 -3.80996,0.112027 -5.75,1.5 -1.56929,1.122729 -2.032,4.957608 0.5,6.9375 l 31.5625,24.6875 c 1.28214,1.002563 2.95576,1.5 4.625,1.5 1.66924,0 3.34286,-0.497437 4.625,-1.5 l 31.5625,-24.6875 c 2.531995,-1.979892 2.069285,-5.814771 0.500005,-6.9375 -1.940045,-1.387973 -3.619275,-1.5625 -5.750005,-1.5 -21.62458,0.634306 -39.26061,0.109888 -61.875,0 z m 77.875005,12.8125 -40.562505,31.75 c -3.55755,2.781813 -9.2862,2.781813 -12.84375,0 l -40.5,-31.65625 c -3.79869,0.69708 -6.65625,4.025059 -6.65625,8.03125 l 0,29.46875 c 5.399817,-5.55011 13.419232,-8.674177 23.5625,-11.3125 -12.512703,9.73762 -22.198638,20.244274 -19.5,34.093752 1.205618,0.70216 2.593446,1.09375 4.09375,1.09375 l 7.3125,0 c 0.0039,-10.197263 6.169392,-18.437528 15.71875,-27.687502 -4.077635,9.795138 -6.890568,19.27525 -5.5625,27.687502 l 53.375,0 c 2.770358,-7.464511 1.559717,-15.673805 -1.125,-23.437502 8.32287,9.641084 12.666575,15.567132 11.625,23.437502 l 7.406255,0 c 5.59406,-11.872363 -0.21385,-24.332953 -8.718755,-36.937502 9.476385,6.079002 16.451585,11.910877 19.593755,19.625 l 0,-36.03125 c 0,-4.201973 -3.14311,-7.666885 -7.21875,-8.125 z" style="fill:#aaaaaa"/>
</svg>