<?xml version="1.0" encoding="UTF-8" standalone="no"?>
<svg xmlns:dc="http://purl.org/dc/elements/1.1/"
     xmlns:cc="http://creativecommons.org/ns#"
     xmlns:rdf="http://www.w3.org/1999/02/22-rdf-syntax-ns#"
     xmlns:svg="http://www.w3.org/2000/svg"
     xmlns="http://www.w3.org/2000/svg"
     xmlns:xlink="http://www.w3.org/1999/xlink"
     width="128" height="128" version="1.1">
    <title>Clementine Icon</title>
    <desc>This is shape (source) for Clarity vector icon theme for gtk</desc>
    <metadata>
        <rdf:RDF>
            <cc:Work rdf:about="">
                <dc:title>Clementine Icon</dc:title>
                <dc:description>This is shape (source) for Clarity vector icon theme for gtk</dc:description>
                <dc:creator>
                    <cc:Agent>
                        <dc:title>Jakub Jankiewicz</dc:title>
                    </cc:Agent>
                </dc:creator>
                <dc:rights>
                    <cc:Agent>
                        <dc:title>Jakub Jankiewicz</dc:title>
                    </cc:Agent>
                </dc:rights>
                <dc:date>2010</dc:date>
                <dc:format>image/svg+xml</dc:format>
                <dc:type rdf:resource="http://purl.org/dc/dcmitype/StillImage" />
                <cc:license rdf:resource="http://creativecommons.org/licenses/by-sa/3.0/" />
             </cc:Work>
        </rdf:RDF>
    </metadata>
    <path d="m 111.5761,11.016272 c -0.21017,0.0074 -0.42944,0.0494 -0.65625,0.125 -1.8145,0.604833 -2.42542,4.247003 -3.9375,6.96875 -1.51209,2.721746 -4.51717,4.834666 -7.843749,3.625 -3.326579,-1.209665 -16.348839,-6.654252 -21.1875,-8.46875 -4.83866,-1.814498 -10.86092,-2.730832 -14.1875,-1.21875 -3.326579,1.512081 -8.477835,8.778253 -9.6875,11.5 -1.209665,2.721747 0.06737,5.480791 1.8125,6.0625 1.814497,0.604832 4.540334,-0.923421 5.75,-4.25 0.647248,-1.779933 2.412338,-4.84375 6.34375,-4.84375 3.931412,0 8.775256,0.923421 14.21875,4.25 5.443493,3.32658 12.388178,5.4375 19.343749,5.4375 6.95558,0 9.373,-5.445586 11.1875,-7.5625 1.81449,-2.116914 1.92742,-6.748003 1.625,-8.5625 -0.26462,-1.587686 -1.31004,-3.114534 -2.78125,-3.0625 z m -52.999999,21.3125 c -24.896781,0 -45.0625,18.929714 -45.0625,42.3125 0,23.382786 20.165719,42.343748 45.0625,42.343748 24.896781,0 45.093749,-18.960962 45.093749,-42.343748 0,-23.382786 -20.196968,-42.3125 -45.093749,-42.3125 z m 0,8.46875 c 16.044726,0 29.0625,15.137521 29.0625,33.84375 0,18.706229 -13.017774,33.874998 -29.0625,33.874998 -16.044726,0 -29.03125,-15.168769 -29.03125,-33.874998 0,-18.706229 12.986524,-33.84375 29.03125,-33.84375 z" style="fill:#aaaaaa"/>
</svg>