<?xml version="1.0" encoding="UTF-8" standalone="no"?>
<svg xmlns:dc="http://purl.org/dc/elements/1.1/"
     xmlns:cc="http://creativecommons.org/ns#"
     xmlns:rdf="http://www.w3.org/1999/02/22-rdf-syntax-ns#"
     xmlns:svg="http://www.w3.org/2000/svg"
     xmlns="http://www.w3.org/2000/svg"
     xmlns:xlink="http://www.w3.org/1999/xlink"
     width="128" height="128" version="1.1">
    <title>Window Preferences Icon</title>
    <desc>This is shape (source) for Clarity vector icon theme for gtk</desc>
    <metadata>
        <rdf:RDF>
            <cc:Work rdf:about="">
                <dc:title>Window Preferences Icon</dc:title>
                <dc:description>This is shape (source) for Clarity vector icon theme for gtk</dc:description>
                <dc:creator>
                    <cc:Agent>
                        <dc:title>Jakub Jankiewicz</dc:title>
                    </cc:Agent>
                </dc:creator>
                <dc:rights>
                    <cc:Agent>
                        <dc:title>Jakub Jankiewicz</dc:title>
                    </cc:Agent>
                </dc:rights>
                <dc:date>2010</dc:date>
                <dc:format>image/svg+xml</dc:format>
                <dc:type rdf:resource="http://purl.org/dc/dcmitype/StillImage" />
                <cc:license rdf:resource="http://creativecommons.org/licenses/by-sa/3.0/" />
             </cc:Work>
        </rdf:RDF>
    </metadata>
    <path d="M 13.96875 19.5625 C 10.757746 19.5625 8.1875 22.132745 8.1875 25.34375 L 8.1875 95.34375 C 8.1875 98.554748 10.757746 101.15625 13.96875 101.15625 L 84.875 101.15625 L 79.09375 95.34375 L 14.1875 95.34375 L 14.1875 38.3125 L 94.4375 38.3125 L 94.4375 79.34375 L 100.4375 85.34375 L 100.4375 25.34375 C 100.4375 22.132745 97.8985 19.5625 94.6875 19.5625 L 13.96875 19.5625 z M 68.65625 51.90625 C 64.248528 51.90315 59.89232 53.57643 56.53125 56.9375 C 56.325308 57.143452 56.099808 57.380429 55.90625 57.59375 L 69.90625 63.21875 C 72.751032 64.366748 74.116749 67.592718 72.96875 70.4375 L 71.625 73.71875 C 70.477002 76.563532 67.282279 77.960495 64.4375 76.8125 L 51.65625 71.625 C 52.176702 75.162887 53.810041 78.591292 56.53125 81.3125 C 61.076773 85.858023 67.530239 87.289359 73.3125 85.6875 L 108.9375 121.375 C 111.99255 124.43005 116.94496 124.43004 120 121.375 L 120.75 120.59375 C 123.80504 117.53871 123.80506 112.61756 120.75 109.5625 L 85.21875 74 C 86.951797 68.144721 85.465213 61.590218 80.84375 56.96875 C 77.48268 53.607681 73.063971 51.909319 68.65625 51.90625 z M 114.46875 110.90625 C 115.5355 110.90625 116.59234 111.34233 117.40625 112.15625 C 119.03405 113.78405 119.03405 116.40343 117.40625 118.03125 C 115.77843 119.65906 113.15905 119.65905 111.53125 118.03125 C 109.90343 116.40343 109.90343 113.78406 111.53125 112.15625 C 112.34516 111.34234 113.40199 110.90625 114.46875 110.90625 z " style="fill:#aaaaaa"/>
</svg>