<?xml version="1.0" encoding="UTF-8" standalone="no"?>
<svg xmlns:dc="http://purl.org/dc/elements/1.1/"
     xmlns:cc="http://creativecommons.org/ns#"
     xmlns:rdf="http://www.w3.org/1999/02/22-rdf-syntax-ns#"
     xmlns:svg="http://www.w3.org/2000/svg"
     xmlns="http://www.w3.org/2000/svg"
     xmlns:xlink="http://www.w3.org/1999/xlink"
     width="128" height="128" version="1.1">
    <title>DockbarX icon</title>
    <desc>This is shape (source) for Clarity vector icon theme for gtk</desc>
    <metadata>
        <rdf:RDF>
            <cc:Work rdf:about="">
                <dc:title>DockbarX icon</dc:title>
                <dc:description>This is shape (source) for Clarity vector icon theme for gtk</dc:description>
                <dc:creator>
                    <cc:Agent>
                        <dc:title>Jakub Jankiewicz</dc:title>
                    </cc:Agent>
                </dc:creator>
                <dc:rights>
                    <cc:Agent>
                        <dc:title>Jakub Jankiewicz</dc:title>
                    </cc:Agent>
                </dc:rights>
                <dc:date>2010</dc:date>
                <dc:format>image/svg+xml</dc:format>
                <dc:type rdf:resource="http://purl.org/dc/dcmitype/StillImage" />
                <cc:license rdf:resource="http://creativecommons.org/licenses/by-sa/3.0/" />
             </cc:Work>
        </rdf:RDF>
    </metadata>
    <path d="m 26.46875,10.265625 0,30.84375 29.34375,0 8.1875,9.84375 8.1875,-9.84375 29.34375,0 0,-30.84375 -75.0625,0 z m -19.8125,46.28125 0,8.15625 20.28125,0 c 1.765294,0 3.125,1.422203 3.125,3.1875 l 0,38.500005 c 0,1.76528 -1.359706,3.1875 -3.125,3.1875 l -20.28125,0 0,8.15625 114.6875,0 0,-8.15625 -20.25,0 c -1.765305,0 -3.15625,-1.42222 -3.15625,-3.1875 l 0,-38.500005 c 0,-1.765297 1.390945,-3.1875 3.15625,-3.1875 l 20.25,0 0,-8.15625 -114.6875,0 z m 34.46875,8.15625 44.375,0 c 1.765295,0 3.1875,1.422203 3.1875,3.1875 l 0,38.500005 c 0,1.76528 -1.422205,3.1875 -3.1875,3.1875 l -44.375,0 c -1.765297,0 -3.1875,-1.42222 -3.1875,-3.1875 l 0,-38.500005 c 0,-1.765297 1.422203,-3.1875 3.1875,-3.1875 z m -34.46875,11.4375 0,29.125005 18.53125,0 0,-29.125005 -18.53125,0 z m 36.15625,0 0,29.125005 41,0 0,-29.125005 -41,0 z m 60,0 0,29.125005 18.53125,0 0,-29.125005 -18.53125,0 z" style="fill:#aaaaaa"/>
</svg>