<?xml version="1.0" encoding="UTF-8" standalone="no"?>
<svg xmlns:dc="http://purl.org/dc/elements/1.1/"
     xmlns:cc="http://creativecommons.org/ns#"
     xmlns:rdf="http://www.w3.org/1999/02/22-rdf-syntax-ns#"
     xmlns:svg="http://www.w3.org/2000/svg"
     xmlns="http://www.w3.org/2000/svg"
     xmlns:xlink="http://www.w3.org/1999/xlink"
     width="128" height="128" version="1.1">
    <title>Clarity Icon</title>
    <desc>This is shape (source) for Clarity vector icon theme for gtk</desc>
    <metadata>
        <rdf:RDF>
            <cc:Work rdf:about="">
                <dc:title>Clarity Icon</dc:title>
                <dc:description>This is shape (source) for Clarity vector icon theme for gtk</dc:description>
                <dc:creator>
                    <cc:Agent>
                        <dc:title>Jakub Jankiewicz</dc:title>
                    </cc:Agent>
                </dc:creator>
                <dc:rights>
                    <cc:Agent>
                        <dc:title>Jakub Jankiewicz</dc:title>
                    </cc:Agent>
                </dc:rights>
                <dc:date>2010</dc:date>
                <dc:format>image/svg+xml</dc:format>
                <dc:type rdf:resource="http://purl.org/dc/dcmitype/StillImage" />
                <cc:license rdf:resource="http://creativecommons.org/licenses/by-sa/3.0/" />
             </cc:Work>
        </rdf:RDF>
    </metadata>
    <path d="m 17.390625,11.828125 c -5.187248,0 -9.34375,4.187752 -9.34375,9.375 l 0,85.593755 c 0,5.18725 4.156502,9.375 9.34375,9.375 l 93.187505,0 c 5.18725,0 9.375,-4.18775 9.375,-9.375 l 0,-85.593755 c 0,-5.187248 -4.18775,-9.375 -9.375,-9.375 l -93.187505,0 z m 0.4375,24.96875 12.5,0 0,16.0625 -12.5,0 0,-16.0625 z m 19.96875,0 12.46875,0 0,16.0625 -12.46875,0 0,-16.0625 z m 19.9375,0 12.5,0 0,16.0625 -12.5,0 0,-16.0625 z m 19.96875,0 12.46875,0 0,16.0625 -12.46875,0 0,-16.0625 z m 19.9375,0 12.500005,0 0,16.0625 -12.500005,0 0,-16.0625 z m -79.8125,22.46875 12.5,0 0,12.90625 -12.5,0 0,-12.90625 z m 19.96875,0 12.46875,0 0,12.90625 -12.46875,0 0,-12.90625 z m 19.9375,0 12.5,0 0,12.90625 -12.5,0 0,-12.90625 z m 19.96875,0 12.46875,0 0,12.90625 -12.46875,0 0,-12.90625 z m 19.9375,0 12.500005,0 0,12.90625 -12.500005,0 0,-12.90625 z m -79.8125,19.3125 12.5,0 0,10.25 -12.5,0 0,-10.25 z m 19.96875,0 12.46875,0 0,10.25 -12.46875,0 0,-10.25 z m 19.9375,0 12.5,0 0,10.25 -12.5,0 0,-10.25 z m 19.96875,0 12.46875,0 0,10.25 -12.46875,0 0,-10.25 z m 19.9375,0 12.500005,0 0,10.25 -12.500005,0 0,-10.25 z m -79.8125,16.65625 12.5,0 0,10.250005 -12.5,0 0,-10.250005 z m 19.96875,0 12.46875,0 0,10.250005 -12.46875,0 0,-10.250005 z m 19.9375,0 12.5,0 0,10.250005 -12.5,0 0,-10.250005 z m 19.96875,0 12.46875,0 0,10.250005 -12.46875,0 0,-10.250005 z m 19.9375,0 12.500005,0 0,10.250005 -12.500005,0 0,-10.250005 z" style="fill:#aaaaaa"/>
</svg>