<?xml version="1.0" encoding="UTF-8" standalone="no"?>
<svg xmlns:dc="http://purl.org/dc/elements/1.1/"
     xmlns:cc="http://creativecommons.org/ns#"
     xmlns:rdf="http://www.w3.org/1999/02/22-rdf-syntax-ns#"
     xmlns:svg="http://www.w3.org/2000/svg"
     xmlns="http://www.w3.org/2000/svg"
     xmlns:xlink="http://www.w3.org/1999/xlink"
     width="128" height="128" version="1.1">
    <title>Exaile Icon</title>
    <desc>This is shape (source) for Clarity vector icon theme for gtk</desc>
    <metadata>
        <rdf:RDF>
            <cc:Work rdf:about="">
                <dc:title>Exaile Icon</dc:title>
                <dc:description>This is shape (source) for Clarity vector icon theme for gtk</dc:description>
                <dc:creator>
                    <cc:Agent>
                        <dc:title>Jakub Jankiewicz</dc:title>
                    </cc:Agent>
                </dc:creator>
                <dc:rights>
                    <cc:Agent>
                        <dc:title>Jakub Jankiewicz</dc:title>
                    </cc:Agent>
                </dc:rights>
                <dc:date>2010</dc:date>
                <dc:format>image/svg+xml</dc:format>
                <dc:type rdf:resource="http://purl.org/dc/dcmitype/StillImage" />
                <cc:license rdf:resource="http://creativecommons.org/licenses/by-sa/3.0/" />
             </cc:Work>
        </rdf:RDF>
    </metadata>
    <path d="m 64.015625,7.296875 c -31.316775,0 -56.71875,25.401975 -56.71875,56.71875 0,31.316775 25.401975,56.687505 56.71875,56.687505 31.31678,0 56.687505,-25.37073 56.687505,-56.687505 0,-31.316775 -25.370725,-56.71875 -56.687505,-56.71875 z m -15.34375,23.96875 c 0.54331,-0.03809 1.082544,0.09335 1.59375,0.28125 20.241655,7.440117 33.517294,15.080842 51.625005,29.84375 1.61925,1.320207 1.59368,3.956691 0.0312,5.34375 -16.909922,15.011827 -29.806322,21.508264 -51.625005,29.8125 -1.966717,0.74854 -4.290535,-0.58393 -4.65625,-2.65625 -3.99331,-22.628072 -3.771002,-36.559496 0,-59.625 0.250217,-1.530469 1.484044,-2.894643 3.03125,-3 z" style="fill:#aaaaaa"/>
</svg>