<?xml version="1.0" encoding="UTF-8" standalone="no"?>
<svg xmlns:dc="http://purl.org/dc/elements/1.1/"
     xmlns:cc="http://creativecommons.org/ns#"
     xmlns:rdf="http://www.w3.org/1999/02/22-rdf-syntax-ns#"
     xmlns:svg="http://www.w3.org/2000/svg"
     xmlns="http://www.w3.org/2000/svg"
     xmlns:xlink="http://www.w3.org/1999/xlink"
     width="128" height="128" version="1.1">
    <title>Clarity Icon</title>
    <desc>This is shape (source) for Clarity vector icon theme for gtk</desc>
    <metadata>
        <rdf:RDF>
            <cc:Work rdf:about="">
                <dc:title>Clarity Icon</dc:title>
                <dc:description>This is shape (source) for Clarity vector icon theme for gtk</dc:description>
                <dc:creator>
                    <cc:Agent>
                        <dc:title>Jakub Jankiewicz</dc:title>
                    </cc:Agent>
                </dc:creator>
                <dc:rights>
                    <cc:Agent>
                        <dc:title>Jakub Jankiewicz</dc:title>
                    </cc:Agent>
                </dc:rights>
                <dc:date>2010</dc:date>
                <dc:format>image/svg+xml</dc:format>
                <dc:type rdf:resource="http://purl.org/dc/dcmitype/StillImage" />
                <cc:license rdf:resource="http://creativecommons.org/licenses/by-sa/3.0/" />
             </cc:Work>
        </rdf:RDF>
    </metadata>
    <path d="m 28.109854,13.609076 c -2.738722,0 -4.949367,2.210645 -4.949367,4.949366 v 90.883118 c 0,2.73871 2.210645,4.94936 4.949367,4.94936 h 71.809235 c 2.738721,0 4.920421,-2.21065 4.920421,-4.94936 V 18.558442 c 0,-2.738721 -2.1817,-4.949366 -4.920421,-4.949366 z m 7.959508,7.351691 h 55.861276 c 3.081403,0 5.557184,2.50473 5.557184,5.586127 v 12.648382 c 0,3.0814 -2.475781,5.557184 -5.557184,5.557184 H 36.069362 c -3.081403,0 -5.52824,-2.475784 -5.52824,-5.557184 V 26.546894 c 0,-3.081397 2.446837,-5.586127 5.52824,-5.586127 z m 21.070989,9.00148 c -2.32444,0 -4.196831,1.591991 -4.196831,3.560071 0,1.968079 1.872391,3.531127 4.196831,3.531127 h 15.108594 c 2.324447,0 4.196831,-1.563048 4.196831,-3.531127 0,-1.96808 -1.872384,-3.560071 -4.196831,-3.560071 z M 36.069362,52.104151 h 55.861276 c 3.081403,0 5.557184,2.504731 5.557184,5.586128 v 12.648382 c 0,3.081403 -2.475781,5.557184 -5.557184,5.557184 H 36.069362 c -3.081403,0 -5.52824,-2.475781 -5.52824,-5.557184 V 57.690279 c 0,-3.081397 2.446837,-5.586128 5.52824,-5.586128 z m 21.070989,9.00148 c -2.32444,0 -4.196831,1.591996 -4.196831,3.560071 0,1.968078 1.872391,3.531128 4.196831,3.531128 h 15.108594 c 2.324447,0 4.196831,-1.563051 4.196831,-3.531128 0,-1.968076 -1.872384,-3.560071 -4.196831,-3.560071 z M 36.069362,83.247536 h 55.861276 c 3.081403,0 5.557184,2.50473 5.557184,5.586128 v 12.648386 c 0,3.0814 -2.475781,5.55718 -5.557184,5.55718 H 36.069362 c -3.081403,0 -5.52824,-2.47578 -5.52824,-5.55718 V 88.833664 c 0,-3.081398 2.446837,-5.586128 5.52824,-5.586128 z m 21.070989,9.00148 c -2.32444,0 -4.196831,1.591997 -4.196831,3.560071 0,1.968079 1.872391,3.531129 4.196831,3.531129 h 15.108594 c 2.324447,0 4.196831,-1.56305 4.196831,-3.531129 0,-1.968074 -1.872384,-3.560071 -4.196831,-3.560071 z" style="fill:#aaaaaa"/>
</svg>