<?xml version="1.0" encoding="UTF-8" standalone="no"?>
<svg xmlns:dc="http://purl.org/dc/elements/1.1/"
     xmlns:cc="http://creativecommons.org/ns#"
     xmlns:rdf="http://www.w3.org/1999/02/22-rdf-syntax-ns#"
     xmlns:svg="http://www.w3.org/2000/svg"
     xmlns="http://www.w3.org/2000/svg"
     xmlns:xlink="http://www.w3.org/1999/xlink"
     width="128" height="128" version="1.1">
    <title>Key Pair Icon</title>
    <desc>This is shape (source) for Clarity vector icon theme for gtk</desc>
    <metadata>
        <rdf:RDF>
            <cc:Work rdf:about="">
                <dc:title>Key Pair Icon</dc:title>
                <dc:description>This is shape (source) for Clarity vector icon theme for gtk</dc:description>
                <dc:creator>
                    <cc:Agent>
                        <dc:title>Jakub Jankiewicz</dc:title>
                    </cc:Agent>
                </dc:creator>
                <dc:rights>
                    <cc:Agent>
                        <dc:title>Jakub Jankiewicz</dc:title>
                    </cc:Agent>
                </dc:rights>
                <dc:date>2010</dc:date>
                <dc:format>image/svg+xml</dc:format>
                <dc:type rdf:resource="http://purl.org/dc/dcmitype/StillImage" />
                <cc:license rdf:resource="http://creativecommons.org/licenses/by-sa/3.0/" />
             </cc:Work>
        </rdf:RDF>
    </metadata>
    <path d="m 86.929003,33.523197 c -8.109372,0.221211 -15.068398,4.850964 -18.711754,11.509 C 65.63971,44.34658 63.752275,42.56809 63.121335,38.782603 l -4.565358,0.299216 c 0.0931,3.081928 0.08671,6.147122 -3.331463,8.328678 l -41.307167,1.128999 -6.3729873,5.725195 0.033941,1.184523 49.7808183,-1.391197 c 2.303724,-0.06284 2.201287,1.61312 0.04626,1.671904 l -49.8178233,1.360352 0.1295553,3.383911 4.630127,4.725754 1.616385,-2.27959 4.398766,5.305677 4.929354,-4.429624 a 2.2875084,2.2875084 0 0 1 0.30229,-0.225183 l 0.956258,-1.567025 1.030282,1.187608 20.500891,-0.561415 0.228265,-0.277622 0.209771,0.265284 18.64081,-0.508975 c 0.942817,-0.704491 1.505845,-1.359045 1.755195,-2.208642 0.287002,-0.977855 0.304896,-2.275347 0.25911,-3.791091 a 2.2875084,2.2875084 0 0 1 2.137702,-2.350538 l 4.565341,-0.299217 a 2.2875084,2.2875084 0 0 1 2.402987,1.906343 c 0.376647,2.25986 1.138074,3.135161 2.146941,3.720142 C 82.6681,52.78441 89.629574,48.419199 97.771718,48.197094 a 2.2875084,2.2875084 0 0 1 0.13881,0 c 0.567103,0.01892 1.12157,0.08053 1.678075,0.132635 0.400811,-0.113888 0.814227,-0.194805 1.249297,-0.206675 1.12845,-0.0308 2.18426,0.350241 3.06001,0.95934 1.81075,0.469492 3.53893,1.112002 5.1607,1.921766 -0.9422,-4.453926 -3.21726,-8.398819 -6.39148,-11.41646 h -0.003 C 98.581679,35.70669 92.9955,33.35767 86.928925,33.523189 Z m 10.901325,16.962742 c -8.109372,0.22121 -15.068414,4.847879 -18.71177,11.505915 -2.577539,-0.685616 -4.461894,-2.464107 -5.092834,-6.249593 l -4.565342,0.299215 c 0.0931,3.081929 0.08361,6.150209 -3.334559,8.331764 l -41.304071,1.125913 -6.372988,5.725195 0.03392,1.184523 49.780819,-1.391197 c 2.30374,-0.06284 2.201271,1.616206 0.04628,1.67499 l -49.81784,1.357266 0.126476,3.383912 4.633207,4.725754 1.613305,-2.279591 5.77455,6.965237 4.815213,-7.881391 6.595078,7.606865 5.611055,-5.496933 4.417292,4.525245 5.136014,-6.286607 4.593107,5.845491 5.105184,-4.818287 c 1.52952,0.760586 3.14712,4.177788 3.451764,8.843818 l 4.605458,-0.126507 c -0.0077,-2.204714 1.973257,-4.656928 4.639382,-5.25633 C 83.57914,90.361507 90.86072,94.70062 99.067286,94.476745 111.20042,94.145711 120.77829,84.029906 120.44731,71.896766 120.2818,65.830189 117.65077,60.428261 113.56844,56.547319 109.48615,52.66631 103.8969,50.320373 97.830328,50.485892 Z M 111.7423,65.08272 c 1.43798,-0.03925 2.76667,0.578954 3.74174,1.502246 0.97506,0.923282 1.62917,2.183435 1.66882,3.621433 0.0785,2.876044 -2.25079,5.264215 -5.12676,5.342694 -2.87603,0.07846 -5.26112,-2.179801 -5.33961,-5.055817 -0.0784,-2.875949 2.17982,-5.332094 5.05581,-5.410556 z" style="fill:#aaaaaa"/>
</svg>