<?xml version="1.0" encoding="UTF-8" standalone="no"?>
<svg xmlns:dc="http://purl.org/dc/elements/1.1/"
     xmlns:cc="http://creativecommons.org/ns#"
     xmlns:rdf="http://www.w3.org/1999/02/22-rdf-syntax-ns#"
     xmlns:svg="http://www.w3.org/2000/svg"
     xmlns="http://www.w3.org/2000/svg"
     xmlns:xlink="http://www.w3.org/1999/xlink"
     width="128" height="128" version="1.1">
    <title>Smart Card Icon</title>
    <desc>This is shape (source) for Clarity vector icon theme for gtk</desc>
    <metadata>
        <rdf:RDF>
            <cc:Work>
                <dc:title>Smart Card Icon</dc:title>
                <dc:description>This is shape (source) for Clarity vector icon theme for gtk</dc:description>
                <dc:creator>
                    <cc:Agent>
                        <dc:title>Jakub Jankiewicz</dc:title>
                    </cc:Agent>
                </dc:creator>
                <dc:contributor>
                    <cc:Agent>
                        <dc:title>wanglizhong</dc:title>
                    </cc:Agent>
                </dc:contributor>
                <dc:rights>
                    <cc:Agent>
                        <dc:title>Jakub Jankiewicz</dc:title>
                    </cc:Agent>
                </dc:rights>
                <dc:date>2010</dc:date>
                <dc:format>image/svg+xml</dc:format>
                <dc:type rdf:resource="http://purl.org/dc/dcmitype/StillImage" />
                <cc:license rdf:resource="http://creativecommons.org/licenses/by-sa/3.0/" />
             </cc:Work>
        </rdf:RDF>
    </metadata>
    <path d="m 15.019533,27.552734 c -5.013602,0 -9.0488283,4.033274 -9.0488283,9.046875 V 91.40039 c 0,5.0136 4.0352273,9.04688 9.0488283,9.04688 h 97.962897 c 5.01361,0 9.04687,-4.03328 9.04687,-9.04688 V 36.599609 c 0,-5.013601 -4.03326,-9.046875 -9.04687,-9.046875 z m 11.671874,8.474609 c 1.347175,0.01474 3.117405,0.01489 3.916016,0.01563 0.79535,0.01448 2.757606,0.01407 4.351563,0.0293 1.593959,0.01524 3.292307,0.01214 3.77539,-0.0039 2.247857,-0.04743 2.839006,-0.02329 3.804688,0.191406 2.058376,0.444972 3.540984,1.478871 4.634765,3.234375 1.15343,1.871331 1.231079,2.340629 1.267578,8.550781 0.02389,2.285844 0.05199,5.778248 0.05859,7.769532 0.03638,4.191371 -0.0632,5.096799 -0.699218,6.36914 -0.9877,1.958611 -2.664548,3.274672 -4.791016,3.728517 -0.687228,0.141876 -1.511953,0.251233 -1.824219,0.220703 -0.315529,-0.01681 -1.228733,-0.03052 -2.027344,-0.03125 -7.448035,-0.01039 -13.332565,0.0015 -14.675781,0.03125 -3.515803,0.06601 -5.121494,-0.3875 -6.767578,-1.896484 -0.835159,-0.764629 -1.739412,-2.09775 -1.916016,-2.822266 -0.05778,-0.246088 -0.155971,-0.50233 -0.201172,-0.556641 -0.135616,-0.162896 -0.327027,-2.109325 -0.242187,-2.466796 0.03915,-0.164987 0.0238,-0.342821 -0.03516,-0.400391 -0.05568,-0.07131 -0.08387,-0.383536 -0.06055,-0.726563 0.03389,-0.326014 0.02442,-0.895153 0.0098,-1.261718 -0.02844,-0.369831 -0.02569,-1.182085 -0.0059,-1.816406 0.01985,-0.634321 0.01527,-1.289479 -0.01758,-1.457032 -0.0329,-0.167553 -0.05067,-1.188826 -0.04297,-2.261718 -0.006,-1.076157 -0.03183,-2.620644 -0.05859,-3.425782 -0.06241,-2.062596 -0.07749,-2.793392 -0.05859,-3.791015 0.01919,-1.549448 0.771681,-3.433596 1.863281,-4.728516 1.047788,-1.232706 3.27262,-2.287367 4.992187,-2.373047 0.441836,-0.02584 1.133847,-0.06341 1.544922,-0.08203 0.397325,-0.02188 1.840894,-0.04336 3.205078,-0.03906 z m 13.337891,2.4375 c -0.264651,0.0012 -0.482573,0.01201 -0.607422,0.0332 -0.181303,0.02959 -0.34448,0.105822 -0.34375,0.164062 -0.01634,0.06874 -0.02564,0.472893 -0.02734,0.908203 -0.0017,0.435311 -0.01804,1.360799 -0.02344,2.056641 -0.03433,1.429673 -0.03375,1.430263 1.271484,1.376953 0.602863,-0.0312 1.604379,-0.02557 4.552735,0.03516 0.665082,0.01262 1.096133,-0.218136 1.064453,-0.574219 -0.03703,-0.517102 -0.563074,-1.601664 -1.091797,-2.25 -0.539211,-0.66534 -1.656152,-1.410392 -2.371094,-1.580078 -0.412468,-0.09786 -1.629874,-0.173451 -2.423829,-0.169922 z m -4.689453,0.03125 c -0.860802,-0.0064 -2.263871,-0.0026 -4.445312,0.0098 l -3.347657,0.0332 -0.136719,0.388672 c -0.07645,0.199712 -0.128599,0.609096 -0.125,0.900391 0.05239,0.941925 0.05312,1.668603 0.04492,2.988281 -0.01031,1.144901 0.02482,3.753261 0.04687,5.3125 0.0068,0.277544 0.01887,1.325286 0.01367,2.326172 0.0086,1.004149 0.0164,3.053554 0.03125,4.582031 0.01919,3.039946 -0.04977,3.576107 -0.515625,3.886719 -0.401067,0.282409 -0.620369,0.288007 -7.464844,0.304687 -1.264684,0.0048 -1.313416,0.02187 -1.435546,0.414063 -0.241693,0.712376 0.610129,2.265988 1.685546,3.058593 0.988967,0.728519 1.994057,1.026016 3.216797,0.953126 0.558351,-0.02715 1.33309,-0.04803 1.734375,-0.02539 0.387536,0.01939 1.503896,0.02423 2.466797,0.0059 1.878031,-0.01901 6.144684,-0.0093 7.910157,0.01758 1.285651,0.02919 1.607887,-0.03932 1.679687,-0.341796 0.02944,-0.123741 0.03966,-1.573755 0.02344,-3.21875 7.8e-4,-1.655482 -0.02326,-3.941602 -0.02344,-5.103516 -1.7e-4,-1.161911 -0.02484,-3.448111 -0.02734,-5.089844 -0.0025,-1.641731 -0.01122,-4.228768 -0.01563,-5.740234 -0.0064,-2.54311 -0.06993,-5.46215 -0.123047,-5.605469 -0.0141,-0.03239 -0.332557,-0.05022 -1.193359,-0.05664 z m -11.431641,0.07227 c -0.967539,-0.0023 -2.500404,0.119535 -2.894531,0.265625 -0.969211,0.350904 -1.970685,1.08649 -2.421875,1.763672 -0.44466,0.649681 -0.887678,1.777501 -0.892578,2.226562 0.01257,0.19179 0.08597,0.252868 0.322266,0.236329 0.650637,-0.0489 2.404023,-0.09589 3.171875,-0.08789 0.435308,0.0016 0.901703,-0.0044 1.021484,-0.01953 0.11978,-0.0151 0.630714,-0.02579 1.134766,-0.0078 1.165873,0.04433 1.585446,-0.131384 1.503906,-0.644531 -0.02306,-0.2088 -0.05469,-1.116196 -0.05859,-2.017578 -0.01114,-0.932138 -0.08938,-1.648389 -0.171875,-1.667969 -0.134052,-0.03182 -0.39233,-0.04612 -0.714844,-0.04687 z m 16.611329,6.8125 c -0.593076,-0.01006 -1.13184,-0.0086 -1.19336,0.0059 -0.126308,0.04264 -0.215049,0.415328 -0.255859,1.015625 -0.05365,0.960336 0.0086,3.269589 0.08203,3.388672 0.04194,0.06805 0.279329,0.108337 0.515625,0.0918 0.503358,-0.04029 4.821605,-0.0024 5.535156,0.05078 0.768553,0.06622 0.812845,-0.05318 0.796875,-2.25 -0.01322,-1.106915 -0.05961,-2.076501 -0.101562,-2.144531 -0.04521,-0.05431 -1.032758,-0.115336 -2.191406,-0.128906 -1.161912,1.7e-4 -2.594426,-0.01925 -3.1875,-0.0293 z m -15.892579,0.07617 c -0.09624,-0.02288 -1.639288,-0.01181 -3.445312,0.0098 l -3.279297,0.05078 -0.140625,0.474609 c -0.08956,0.254703 -0.124671,0.580725 -0.08203,0.707031 0.04267,0.126306 0.05503,0.753042 0.04883,1.390625 -0.03994,1.820474 -0.09678,1.690928 0.572266,1.748047 1.142333,0.08232 6.22107,-0.01943 6.408203,-0.134765 0.306212,-0.188743 0.24072,-4.198534 -0.08203,-4.246094 z m 16.714844,6.857422 c -0.750837,-0.01843 -1.551454,-0.0049 -1.791015,0.02539 -0.225814,0.03355 -0.414014,0.147979 -0.433594,0.230469 -0.05522,0.538775 -0.07012,1.029679 -0.04687,2.400391 0.0032,0.843121 0.05702,1.595934 0.0957,1.677734 0.04195,0.06806 0.416253,0.142831 0.851562,0.144531 0.942626,0.0059 1.954441,0.02754 2.427735,0.05273 0.199011,0.0182 0.52167,0.0074 0.730469,-0.01563 0.2088,-0.02307 0.691798,-0.03807 1.099609,-0.04297 1.713738,8.4e-5 1.71245,-0.0013 1.75,-0.587891 0.0576,-0.915825 -0.0073,-3.574763 -0.08789,-3.724609 -0.03868,-0.0818 -0.766022,-0.137931 -1.65039,-0.144531 -0.860134,0.01371 -2.194475,0.0028 -2.945313,-0.01563 z m -17.068359,0.01563 c -3.629755,-0.0046 -6.141017,0.05285 -6.31836,0.126953 -0.248655,0.129788 -0.217015,-0.06697 -0.203125,1.955078 0.01438,0.918393 -0.0019,1.787061 -0.01758,1.914062 -0.02937,0.12374 0.0035,0.290098 0.0625,0.347657 0.10416,0.11188 2.171128,0.15379 3.753907,0.09375 0.280809,-0.0206 0.790507,-0.03169 1.123046,-0.02539 2.090796,0.0024 2.307154,-0.04686 2.277344,-0.533203 -0.03933,-0.996926 -0.06196,-3.108372 -0.01953,-3.287109 0.104421,-0.439967 -0.06513,-0.581747 -0.658203,-0.591797 z m 15.34375,6.880859 c -0.240919,0.01975 -0.308323,0.107886 -0.392578,0.371094 -0.06923,0.230467 -0.09713,1.21085 -0.08203,2.1875 0.03464,1.751027 0.05065,1.798609 0.421875,1.886719 0.522458,0.124002 2.238942,0.05233 2.980469,-0.134766 1.589084,-0.392584 2.938545,-1.727547 3.310547,-3.294922 l 0.208984,-0.880859 -0.65625,-0.05273 c -0.353511,-0.04034 -1.611447,-0.06341 -2.787109,-0.06641 -1.161914,1.69e-4 -2.381737,0.0012 -2.697266,-0.01563 -0.126013,-0.0045 -0.226334,-0.0066 -0.30664,0 z m 9.845703,25.603516 h 0.810547 v 4.02539 l 2.404297,-2.113281 h 1.027343 l -2.599609,2.292966 2.708984,2.611328 h -1.050781 l -2.490234,-2.394531 v 2.394531 h -0.810547 z m 10.615234,0 h 0.810547 v 2.65625 c 0.16936,-0.291999 0.383665,-0.508277 0.640625,-0.648438 0.25988,-0.143079 0.568574,-0.214844 0.927735,-0.214844 0.595679,0 1.080331,0.235945 1.451171,0.708985 0.37376,0.47304 0.558594,1.096307 0.558594,1.867187 0,0.77088 -0.184834,1.392195 -0.558594,1.865235 -0.37084,0.47304 -0.855492,0.708984 -1.451171,0.708984 -0.35916,0 -0.667855,-0.07078 -0.927735,-0.210937 -0.25696,-0.143081 -0.471265,-0.360344 -0.640625,-0.652344 v 0.736325 h -0.810547 z m 22.390625,0 h 0.8125 v 4.02539 l 2.404297,-2.113281 h 1.029297 l -2.603516,2.292966 2.710938,2.611328 h -1.050781 l -2.490235,-2.394531 v 2.394531 h -0.8125 z m 5.234375,0 h 0.806641 v 1.021484 h -0.806641 z m 15.347664,0 h 0.80664 v 1.021484 h -0.80664 z M 41.380861,85.0918 h 0.884765 v 6.083984 c 0,0.788399 -0.150412,1.360558 -0.451172,1.716797 -0.29784,0.35624 -0.778566,0.535156 -1.441406,0.535156 h -0.335937 v -0.744141 h 0.27539 c 0.39128,0 0.665572,-0.111078 0.826172,-0.330078 0.160601,-0.218999 0.242188,-0.611255 0.242188,-1.177734 z m 27.314453,0 h 0.884765 v 6.083984 c 0,0.788399 -0.150412,1.360558 -0.451172,1.716797 -0.297838,0.35624 -0.778567,0.535156 -1.441406,0.535156 h -0.335937 v -0.744141 h 0.273437 c 0.39128,0 0.667525,-0.111078 0.828125,-0.330078 0.160602,-0.218999 0.242188,-0.611255 0.242188,-1.177734 z m -22.982422,1.515624 c 0.70956,1e-6 1.239443,0.182862 1.589844,0.550782 0.350399,0.36792 0.52539,0.926308 0.52539,1.673828 v 2.798825 h -0.80664 v -0.744141 c -0.183959,0.29784 -0.41302,0.517077 -0.6875,0.660157 -0.274478,0.140166 -0.608741,0.210937 -1.00586,0.210937 -0.50224,0 -0.901378,-0.139601 -1.199219,-0.419922 -0.294919,-0.28324 -0.443359,-0.661725 -0.443359,-1.134765 0,-0.551879 0.182861,-0.967726 0.550781,-1.248047 0.37084,-0.280319 0.923331,-0.419922 1.65625,-0.419922 h 1.128907 v -0.07813 c 0,-0.37084 -0.121909,-0.657894 -0.367188,-0.859375 -0.24236,-0.204397 -0.584471,-0.306641 -1.025391,-0.306641 -0.280318,0 -0.552638,0.03245 -0.818359,0.09961 -0.26572,0.06716 -0.522298,0.170366 -0.767578,0.304687 v -0.746094 c 0.29492,-0.113877 0.581975,-0.200379 0.859375,-0.255859 0.2774,-0.05841 0.547747,-0.08594 0.810547,-0.08594 z m 27.314453,0 c 0.70956,1e-6 1.239445,0.182862 1.589844,0.550782 0.3504,0.36792 0.52539,0.926308 0.52539,1.673828 v 2.798825 h -0.80664 v -0.744141 c -0.18396,0.29784 -0.41302,0.517077 -0.6875,0.660157 -0.274479,0.140166 -0.610693,0.210937 -1.007813,0.210937 -0.50224,0 -0.903332,-0.139601 -1.201172,-0.419922 -0.29492,-0.28324 -0.441406,-0.661725 -0.441406,-1.134765 0,-0.551879 0.182861,-0.967726 0.550781,-1.248047 0.37084,-0.280319 0.925283,-0.419922 1.658204,-0.419922 h 1.128906 v -0.07813 c 0,-0.37084 -0.121907,-0.657894 -0.367188,-0.859375 -0.24236,-0.204397 -0.584471,-0.306641 -1.02539,-0.306641 -0.28032,0 -0.554594,0.03245 -0.820313,0.09961 -0.265721,0.06716 -0.520345,0.170366 -0.765625,0.304687 v -0.746094 c 0.29492,-0.113877 0.581975,-0.200379 0.859375,-0.255859 0.2774,-0.05841 0.547748,-0.08594 0.810547,-0.08594 z m 6.144531,0 c 0.56356,1e-6 0.988264,0.174992 1.277344,0.525391 0.289079,0.34748 0.435547,0.85967 0.435547,1.537109 v 2.960935 h -0.806641 v -2.933594 c 0,-0.46428 -0.0924,-0.812287 -0.273437,-1.042968 -0.181038,-0.23068 -0.450419,-0.345704 -0.8125,-0.345704 -0.435079,0 -0.778177,0.138616 -1.029297,0.416016 -0.25112,0.2774 -0.375,0.653932 -0.375,1.132812 v 2.773438 h -0.810547 v -4.904297 h 0.810547 v 0.761719 c 0.19272,-0.29492 0.415901,-0.516108 0.675781,-0.66211 0.2628,-0.146 0.566563,-0.21875 0.908203,-0.21875 z m 13.074219,0 c 0.65992,0 1.181933,0.212352 1.564453,0.638672 0.385439,0.4234 0.578125,1.00047 0.578125,1.730469 v 0.394531 h -3.707031 c 0.03504,0.5548 0.202161,0.977533 0.5,1.269532 0.30076,0.289081 0.717594,0.433593 1.251953,0.433593 0.30952,0 0.609356,-0.03736 0.898438,-0.113281 0.292,-0.07592 0.58298,-0.188004 0.86914,-0.339844 v 0.761719 c -0.28908,0.12264 -0.588898,0.213104 -0.892578,0.277344 -0.30368,0.06423 -0.609436,0.09766 -0.921875,0.09766 -0.782563,0 -1.402888,-0.228074 -1.861328,-0.683594 -0.455519,-0.45552 -0.683594,-1.070935 -0.683594,-1.847656 0,-0.802999 0.214325,-1.440036 0.646485,-1.910156 0.435079,-0.47304 1.021973,-0.708984 1.757812,-0.708985 z m 15.410165,0 c 0.2482,1e-6 0.48809,0.02557 0.72461,0.07813 0.23652,0.04964 0.46753,0.126313 0.68945,0.228515 v 0.753906 c -0.22776,-0.125559 -0.45877,-0.21993 -0.68945,-0.28125 -0.22776,-0.06424 -0.45781,-0.0957 -0.69141,-0.0957 -0.52268,0 -0.92967,0.165166 -1.21875,0.498047 -0.28908,0.32996 -0.43164,0.79593 -0.43164,1.394531 0,0.5986 0.14256,1.063602 0.43164,1.396485 0.28908,0.329959 0.69607,0.49414 1.21875,0.49414 0.2336,0 0.46365,-0.02851 0.69141,-0.08984 0.23068,-0.06424 0.46169,-0.159597 0.68945,-0.285157 v 0.744127 c -0.22483,0.10512 -0.45881,0.183768 -0.70117,0.236328 -0.23944,0.05257 -0.49407,0.07813 -0.76563,0.07813 -0.73876,0 -1.32665,-0.231033 -1.76172,-0.695313 -0.43509,-0.464279 -0.65429,-1.090507 -0.65429,-1.878906 0,-0.80008 0.2202,-1.430232 0.6582,-1.888672 0.44092,-0.458438 1.04552,-0.6875 1.81055,-0.6875 z m -53.324227,0.119141 h 0.80664 v 2.9375 c 0,0.46428 0.09045,0.813275 0.271484,1.046875 0.18104,0.230681 0.452374,0.345703 0.814454,0.345703 0.43508,0 0.778176,-0.138615 1.029296,-0.416015 0.254042,-0.2774 0.38086,-0.653933 0.38086,-1.132813 v -2.78125 h 0.80664 v 4.904294 h -0.80664 v -0.753906 c -0.195641,0.29784 -0.421762,0.520017 -0.681641,0.666015 -0.25696,0.143079 -0.558749,0.214844 -0.90039,0.214844 -0.563559,0 -0.991204,-0.174988 -1.283203,-0.525391 -0.292001,-0.350397 -0.4375,-0.862589 -0.4375,-1.537109 z m 33.371093,0 h 0.806641 v 4.904294 h -0.806641 z m 7.53711,0 h 0.80664 l 1.007813,3.826172 1.003906,-3.826172 h 0.95117 l 1.005865,3.826172 1.00391,-3.826172 h 0.80469 l -1.28321,4.904294 h -0.949225 l -1.05468,-4.021484 -1.060551,4.021484 h -0.951172 z m 7.810554,0 h 0.80664 v 4.904294 h -0.80664 z m 7.07812,0 h 3.82813 v 0.736328 l -3.03125,3.525391 h 3.03125 v 0.642575 h -3.9375 v -0.736328 l 3.03125,-3.525391 h -2.92188 z m -47.86719,0.556641 c -0.426321,0 -0.764486,0.167139 -1.009766,0.505859 -0.24236,0.3358 -0.363281,0.80177 -0.363281,1.394531 0,0.592759 0.120921,1.057763 0.363281,1.396485 0.24528,0.3358 0.583445,0.503906 1.009766,0.503906 0.426319,0 0.759593,-0.168106 1.001953,-0.503906 0.24528,-0.338722 0.367188,-0.803726 0.367188,-1.396485 0,-0.592761 -0.121908,-1.058731 -0.367188,-1.394531 -0.24236,-0.33872 -0.575634,-0.505859 -1.001953,-0.505859 z m 29.992187,0.0078 c -0.44968,0 -0.808519,0.126822 -1.080078,0.38086 -0.26864,0.254041 -0.423963,0.612858 -0.464843,1.074218 l 2.873047,-0.0059 c -0.0058,-0.440917 -0.128735,-0.79384 -0.371094,-1.056641 -0.23944,-0.2628 -0.559911,-0.392578 -0.957032,-0.392578 z m -46.033203,1.875 c -0.65116,0 -1.102395,0.07374 -1.353515,0.222656 -0.25112,0.148922 -0.375,0.404512 -0.375,0.763672 0,0.28616 0.09242,0.512284 0.279297,0.681641 0.1898,0.166435 0.447363,0.25 0.771484,0.25 0.446759,0 0.803626,-0.159249 1.072266,-0.474609 0.27156,-0.31828 0.40625,-0.738072 0.40625,-1.263672 v -0.179688 z m 27.3125,0 c -0.65116,0 -1.100442,0.07374 -1.351562,0.222656 -0.25112,0.148922 -0.376953,0.404512 -0.376953,0.763672 0,0.28616 0.09242,0.512284 0.279297,0.681641 0.189799,0.166435 0.447364,0.25 0.771484,0.25 0.44676,0 0.80558,-0.159249 1.074219,-0.474609 0.271561,-0.31828 0.40625,-0.738072 0.40625,-1.263672 v -0.179688 z" style="fill:#aaaaaa"/>
</svg>