<?xml version="1.0" encoding="UTF-8" standalone="no"?>
<svg xmlns:dc="http://purl.org/dc/elements/1.1/"
     xmlns:cc="http://creativecommons.org/ns#"
     xmlns:rdf="http://www.w3.org/1999/02/22-rdf-syntax-ns#"
     xmlns:svg="http://www.w3.org/2000/svg"
     xmlns="http://www.w3.org/2000/svg"
     xmlns:xlink="http://www.w3.org/1999/xlink"
     width="128" height="128" version="1.1">
    <title>Clarity Icon</title>
    <desc>This is shape (source) for Clarity vector icon theme for gtk</desc>
    <metadata>
        <rdf:RDF>
            <cc:Work rdf:about="">
                <dc:title>Clarity Icon</dc:title>
                <dc:description>This is shape (source) for Clarity vector icon theme for gtk</dc:description>
                <dc:creator>
                    <cc:Agent>
                        <dc:title>Jakub Jankiewicz</dc:title>
                    </cc:Agent>
                </dc:creator>
                <dc:rights>
                    <cc:Agent>
                        <dc:title>Jakub Jankiewicz</dc:title>
                    </cc:Agent>
                </dc:rights>
                <dc:date>2010</dc:date>
                <dc:format>image/svg+xml</dc:format>
                <dc:type rdf:resource="http://purl.org/dc/dcmitype/StillImage" />
                <cc:license rdf:resource="http://creativecommons.org/licenses/by-sa/3.0/" />
             </cc:Work>
        </rdf:RDF>
    </metadata>
    <path d="m 117.00061,25.703032 c -11.37857,23.509735 -25.457007,28.963767 -44.468747,29.71875 -15.892443,0.631112 -25.059831,-7.743162 -41.40625,-24.125 1.933804,8.459859 1.791487,17.544429 10.40625,24 -3.93521,3.358015 -9.334543,9.516561 -12.8125,14.96875 -1.932078,-3.127951 -4.860655,-5.09375 -8.125,-5.09375 -5.8174,0 -10.53125,6.319376 -10.53125,14.125 0,7.805624 4.71385,14.125002 10.53125,14.125002 1.336322,0 2.604982,-0.32849 3.78125,-0.9375 1.010425,1.78307 3.474057,4.29344 9.4375,6.28125 10.4,3.466676 31.20417,5.329176 42.9375,1.0625 11.73333,-4.26667 17.0375,-12.275002 19.4375,-17.875002 2.4,-5.6 3.75,-10.9375 3.75,-10.9375 0,0 9.612747,-7.223119 14.406247,-16.25 5.23945,-9.866666 3.42474,-29.0625 2.65625,-29.0625 z" style="fill:#aaaaaa"/>
</svg>