<?xml version="1.0" encoding="UTF-8" standalone="no"?>
<svg xmlns:dc="http://purl.org/dc/elements/1.1/"
     xmlns:cc="http://creativecommons.org/ns#"
     xmlns:rdf="http://www.w3.org/1999/02/22-rdf-syntax-ns#"
     xmlns:svg="http://www.w3.org/2000/svg"
     xmlns="http://www.w3.org/2000/svg"
     xmlns:xlink="http://www.w3.org/1999/xlink"
     width="128" height="128" version="1.1">
    <title>Root Terminal</title>
    <desc>This is shape (source) for Clarity vector icon theme for gtk</desc>
    <metadata>
        <rdf:RDF>
            <cc:Work rdf:about="">
                <dc:title>Root Terminal</dc:title>
                <dc:description>This is shape (source) for Clarity vector icon theme for gtk</dc:description>
                <dc:creator>
                    <cc:Agent>
                        <dc:title>Jakub Jankiewicz</dc:title>
                    </cc:Agent>
                </dc:creator>
                <dc:rights>
                    <cc:Agent>
                        <dc:title>Jakub Jankiewicz</dc:title>
                    </cc:Agent>
                </dc:rights>
                <dc:date>2010</dc:date>
                <dc:format>image/svg+xml</dc:format>
                <dc:type rdf:resource="http://purl.org/dc/dcmitype/StillImage" />
                <cc:license rdf:resource="http://creativecommons.org/licenses/by-sa/3.0/" />
             </cc:Work>
        </rdf:RDF>
    </metadata>
    <path d="M 20.25 11.78125 C 16.28536 11.78125 13.09375 14.972864 13.09375 18.9375 L 13.09375 89.96875 C 13.09375 93.93338 16.28536 97.09375 20.25 97.09375 L 107.78125 97.09375 C 111.74589 97.09375 114.90625 93.93338 114.90625 89.96875 L 114.90625 18.9375 C 114.90625 14.972864 111.74589 11.78125 107.78125 11.78125 L 20.25 11.78125 z M 21.34375 22.25 L 106.6875 22.25 L 106.6875 86.65625 L 21.34375 86.65625 L 21.34375 22.25 z M 41.84375 31.59375 L 39.90625 41.1875 L 32.90625 41.1875 L 32.90625 46.625 L 38.8125 46.625 L 37.34375 53.875 L 32.90625 53.875 L 32.90625 59.3125 L 36.25 59.3125 L 34.3125 68.875 L 39.875 68.875 L 41.8125 59.3125 L 47.28125 59.3125 L 45.375 68.875 L 50.84375 68.875 L 52.8125 59.3125 L 59.875 59.3125 L 59.875 53.875 L 53.90625 53.875 L 55.375 46.625 L 59.875 46.625 L 59.875 41.1875 L 56.5 41.1875 L 58.46875 31.59375 L 52.75 31.59375 L 50.84375 41.1875 L 45.4375 41.1875 L 47.375 31.59375 L 41.84375 31.59375 z M 44.34375 46.625 L 49.78125 46.625 L 48.34375 53.875 L 42.875 53.875 L 44.34375 46.625 z M 60.03125 73.75 L 60.03125 78.21875 L 88.75 78.21875 L 88.75 73.75 L 60.03125 73.75 z " style="fill:#aaaaaa"/>
</svg>