<?xml version="1.0" encoding="UTF-8" standalone="no"?>
<svg xmlns:dc="http://purl.org/dc/elements/1.1/"
     xmlns:cc="http://creativecommons.org/ns#"
     xmlns:rdf="http://www.w3.org/1999/02/22-rdf-syntax-ns#"
     xmlns:svg="http://www.w3.org/2000/svg"
     xmlns="http://www.w3.org/2000/svg"
     xmlns:xlink="http://www.w3.org/1999/xlink"
     width="128" height="128" version="1.1">
    <title>Gnibbles Icon</title>
    <desc>This is shape (source) for Clarity vector icon theme for gtk</desc>
    <metadata>
        <rdf:RDF>
            <cc:Work rdf:about="">
                <dc:title>Gnibbles Icon</dc:title>
                <dc:description>This is shape (source) for Clarity vector icon theme for gtk</dc:description>
                <dc:creator>
                    <cc:Agent>
                        <dc:title>Jakub Jankiewicz</dc:title>
                    </cc:Agent>
                </dc:creator>
                <dc:rights>
                    <cc:Agent>
                        <dc:title>Jakub Jankiewicz</dc:title>
                    </cc:Agent>
                </dc:rights>
                <dc:date>2010</dc:date>
                <dc:format>image/svg+xml</dc:format>
                <dc:type rdf:resource="http://purl.org/dc/dcmitype/StillImage" />
                <cc:license rdf:resource="http://creativecommons.org/licenses/by-sa/3.0/" />
             </cc:Work>
        </rdf:RDF>
    </metadata>
    <path d="m 42.786414,13.457613 c -13.5852,-0.334771 -29.088269,12.387059 -27.256637,27.184719 1.631056,21.918702 21.26628,74.030638 33.369603,73.787098 11.926066,1.86715 17.489764,-18.640069 26.249795,-27.975811 3.038682,-1.822457 9.263193,25.962121 26.681295,25.962121 5.29684,0.37761 10.60512,-1.44812 10.78759,-6.18488 0.0734,-7.395602 -14.033779,-2.23603 -19.705325,-22.438179 C 88.594764,68.411986 81.556606,60.98458 76.515603,61.138748 68.682814,63.98453 58.904351,86.053022 54.724677,88.898805 40.518114,76.392559 65.993946,55.365026 61.772567,36.039628 60.453384,20.044558 52.081551,13.686666 42.786414,13.457613 z" style="fill:#aaaaaa"/>
</svg>