<?xml version="1.0" encoding="UTF-8" standalone="no"?>
<svg xmlns:dc="http://purl.org/dc/elements/1.1/"
     xmlns:cc="http://creativecommons.org/ns#"
     xmlns:rdf="http://www.w3.org/1999/02/22-rdf-syntax-ns#"
     xmlns:svg="http://www.w3.org/2000/svg"
     xmlns="http://www.w3.org/2000/svg"
     xmlns:xlink="http://www.w3.org/1999/xlink"
     width="128" height="128" version="1.1">
    <title>Launcher Icon</title>
    <desc>This is shape (source) for Clarity vector icon theme for gtk</desc>
    <metadata>
        <rdf:RDF>
            <cc:Work rdf:about="">
                <dc:title>Launcher Icon</dc:title>
                <dc:description>This is shape (source) for Clarity vector icon theme for gtk</dc:description>
                <dc:creator>
                    <cc:Agent>
                        <dc:title>Jakub Jankiewicz</dc:title>
                    </cc:Agent>
                </dc:creator>
                <dc:rights>
                    <cc:Agent>
                        <dc:title>Jakub Jankiewicz</dc:title>
                    </cc:Agent>
                </dc:rights>
                <dc:date>2010</dc:date>
                <dc:format>image/svg+xml</dc:format>
                <dc:type rdf:resource="http://purl.org/dc/dcmitype/StillImage" />
                <cc:license rdf:resource="http://creativecommons.org/licenses/by-sa/3.0/" />
             </cc:Work>
        </rdf:RDF>
    </metadata>
    <path d="m 31.8125,24.119918 -11.1875,21 0,7 21.96875,0 c 0.379975,0.749739 0.855864,1.442002 1.40625,2.09375 -1.383177,1.681301 -2.268089,3.68916 -2.375,5.875 a 4.1976639,4.1976639 0 0 0 -0.03125,0.09375 c -0.0044,0.114715 0,0.228128 0,0.34375 a 4.203125,4.203125 0 0 0 0.03125,0.40625 c 0.111373,2.11246 1.051833,4.069737 2.34375,5.5625 -1.392891,1.805138 -2.281673,3.905846 -2.375,6.1875 a 4.1976639,4.1976639 0 0 0 0,0.09375 c -0.0033,0.10443 0,0.207389 0,0.3125 0,3.374527 1.740331,6.052446 4.21875,8.09375 -0.902799,2.152295 -1.327353,4.506618 -1.375,6.90625 a 4.1976639,4.1976639 0 0 0 -0.03125,0.125 c -0.0013,0.09426 0,0.186868 0,0.28125 0,5.363145 2.786796,10.012815 6.9375,12.375002 4.150704,2.36218 9.177668,3.00002 14.84375,3 l 2,0 a 4.1976639,4.1976639 0 1 0 0,-8.375002 l -2,0 c -4.926934,2.1e-5 -8.692247,-0.770742 -10.6875,-1.90625 -1.949948,-1.109725 -2.656469,-2.035971 -2.6875,-4.90625 a 4.203125,4.203125 0 0 0 0,-0.1875 c 0,-1.323904 0.13846,-2.43389 0.4375,-3.40625 3.905864,1.308119 8.453652,1.999944 13.34375,2 1.948768,2.2e-5 5.989707,0.03523 9.875,-0.5625 1.942647,-0.298865 3.85365,-0.704826 5.71875,-1.65625 1.780812,-0.908427 3.961248,-2.956641 4.15625,-5.75 a 4.1976639,4.1976639 0 0 0 0.03125,-0.40625 c 0,-0.13828 -0.02057,-0.269746 -0.03125,-0.40625 a 4.1976639,4.1976639 0 0 0 -0.03125,-0.40625 c -0.0016,-0.01016 0.0016,-0.0211 0,-0.03125 a 4.1976639,4.1976639 0 0 0 -0.03125,-0.125 c -0.332356,-1.814546 -1.52755,-3.407099 -2.71875,-4.28125 -0.918008,-0.673672 -1.863605,-1.116551 -2.875,-1.46875 0.322751,-0.0873 0.650291,-0.172948 0.96875,-0.28125 0.861872,-0.293106 1.708306,-0.66196 2.65625,-1.4375 0.66096,-0.54075 1.392581,-1.468206 1.78125,-2.59375 a 4.1976639,4.1976639 0 0 0 0.09375,-0.25 c 0.01149,-0.03986 0.0207,-0.08471 0.03125,-0.125 a 4.1976639,4.1976639 0 0 0 0.15625,-1.1875 c 0,-0.292363 -0.04367,-0.573756 -0.09375,-0.84375 a 4.1976639,4.1976639 0 0 0 -0.25,-0.875 c -0.334428,-0.860586 -0.852915,-1.548734 -1.3125,-1.96875 -0.735336,-0.672026 -1.408555,-0.99863 -2.0625,-1.28125 -0.476847,-0.206082 -0.96736,-0.382693 -1.46875,-0.53125 0.154108,-0.04702 0.315619,-0.07292 0.46875,-0.125 0.861872,-0.293106 1.708306,-0.63071 2.65625,-1.40625 0.666451,-0.545242 1.395301,-1.508863 1.78125,-2.65625 0.04529,-0.134656 0.09042,-0.266586 0.125,-0.40625 a 4.1976639,4.1976639 0 0 0 0.03125,-0.125 c 0.02036,-0.09208 0.04739,-0.187365 0.0625,-0.28125 a 4.1976639,4.1976639 0 0 0 0,-0.0625 4.1976639,4.1976639 0 0 0 0.0625,-0.65625 c 0,-0.136496 -0.01965,-0.27481 -0.03125,-0.40625 -0.01324,-0.150094 -0.0358,-0.294394 -0.0625,-0.4375 a 4.1976639,4.1976639 0 0 0 -0.0625,-0.34375 c -0.006,-0.0227 -0.02493,-0.04001 -0.03125,-0.0625 -0.167903,-0.597517 -0.451838,-1.098369 -0.75,-1.53125 l 21.9375,0 0,-7 -11.21875,-21 -64.34375,0 z m 18.96875,34.8125 c 1.187253,0.520193 2.449266,0.989271 3.78125,1.375 -1.325134,0.332358 -2.588547,0.71014 -3.75,1.1875 -0.184557,-0.134646 -0.323833,-0.262621 -0.4375,-0.375 C 49.920332,60.670404 50,60.672677 50,60.526168 c 0,-0.695121 0.05404,-1.108945 0.78125,-1.59375 z m 0.375,11.96875 c 1.381196,0.478674 2.852353,0.873695 4.40625,1.1875 -1.662596,0.63393 -3.186596,1.44855 -4.53125,2.4375 C 50.255941,73.812966 50,73.258371 50,73.088668 c 0,-0.728345 0.221597,-1.410724 1.15625,-2.1875 z" style="fill:#aaaaaa"/>
</svg>