<?xml version="1.0" encoding="UTF-8" standalone="no"?>
<svg xmlns:dc="http://purl.org/dc/elements/1.1/"
     xmlns:cc="http://creativecommons.org/ns#"
     xmlns:rdf="http://www.w3.org/1999/02/22-rdf-syntax-ns#"
     xmlns:svg="http://www.w3.org/2000/svg"
     xmlns="http://www.w3.org/2000/svg"
     xmlns:xlink="http://www.w3.org/1999/xlink"
     width="128" height="128" version="1.1">
    <title>Config Drive Icon</title>
    <desc>This is shape (source) for Clarity vector icon theme for gtk</desc>
    <metadata>
        <rdf:RDF>
            <cc:Work rdf:about="">
                <dc:title>Config Drive Icon</dc:title>
                <dc:description>This is shape (source) for Clarity vector icon theme for gtk</dc:description>
                <dc:creator>
                    <cc:Agent>
                        <dc:title>Jakub Jankiewicz</dc:title>
                    </cc:Agent>
                </dc:creator>
                <dc:rights>
                    <cc:Agent>
                        <dc:title>Jakub Jankiewicz</dc:title>
                    </cc:Agent>
                </dc:rights>
                <dc:date>2010</dc:date>
                <dc:format>image/svg+xml</dc:format>
                <dc:type rdf:resource="http://purl.org/dc/dcmitype/StillImage" />
                <cc:license rdf:resource="http://creativecommons.org/licenses/by-sa/3.0/" />
             </cc:Work>
        </rdf:RDF>
    </metadata>
    <path d="M 28.9375 31.041016 C 26.773576 31.041016 25.392965 32.813786 25.03125 34.947266 L 17.21875 73.353516 C 16.974963 75.503697 18.961076 77.259766 21.125 77.259766 L 50.662109 77.259766 C 50.005969 75.680936 49.546052 74.040328 49.300781 72.373047 A 3.5231899 3.5231899 0 0 1 54.107422 68.59375 L 66.759766 73.716797 C 67.815047 74.14265 68.859946 73.691082 69.298828 72.603516 A 3.5231899 3.5231899 0 0 1 69.310547 72.576172 L 70.642578 69.353516 C 71.065055 68.306602 70.596116 67.213713 69.529297 66.783203 L 55.65625 61.189453 A 3.5231899 3.5231899 0 0 1 54.363281 55.554688 C 54.714795 55.167276 54.983012 54.931056 55.107422 54.806641 C 59.10206 50.812002 64.361301 48.769737 69.630859 48.773438 C 74.893821 48.777101 80.201147 50.794897 84.212891 54.806641 C 89.137085 59.730839 90.900083 66.543464 89.763672 72.951172 L 94.068359 77.259766 L 106.875 77.259766 C 109.03893 77.259766 111.02385 75.503831 110.78125 73.353516 L 102.96875 34.947266 C 102.63523 32.809196 101.22642 31.041016 99.0625 31.041016 L 28.9375 31.041016 z M 69.628906 52.296875 C 65.258966 52.293775 60.929915 53.964616 57.597656 57.296875 C 57.393478 57.501062 57.164553 57.710381 56.972656 57.921875 L 70.847656 63.515625 C 73.668053 64.653782 75.048314 67.851477 73.910156 70.671875 L 72.566406 73.921875 C 71.428249 76.742272 68.261799 78.12253 65.441406 76.984375 L 52.785156 71.859375 C 53.301147 75.366937 54.899772 78.723992 57.597656 81.421875 C 62.104216 85.928435 68.489958 87.385004 74.222656 85.796875 L 109.56641 121.14062 C 112.59528 124.16948 117.47506 124.16947 120.50391 121.14062 L 121.25391 120.39062 C 124.28277 117.36177 124.28278 112.48199 121.25391 109.45312 L 86.035156 74.203125 C 87.753347 68.398035 86.304505 61.878728 81.722656 57.296875 C 78.390397 53.964616 73.998845 52.299918 69.628906 52.296875 z M 21.125 81.208984 C 18.961043 81.208984 17.21875 82.951277 17.21875 85.115234 L 17.21875 93.052734 C 17.21875 95.216694 18.961043 96.958984 21.125 96.958984 L 80.404297 96.958984 L 72.949219 89.503906 C 66.636162 90.527209 59.955522 88.760209 55.107422 83.912109 C 54.260483 83.065171 53.507471 82.158052 52.837891 81.208984 L 21.125 81.208984 z M 98.013672 81.208984 L 110.6875 93.894531 C 110.74684 93.622997 110.78125 93.342571 110.78125 93.052734 L 110.78125 85.115234 C 110.78125 82.951277 109.03896 81.208984 106.875 81.208984 L 98.013672 81.208984 z M 24.9375 85.927734 L 34.5 85.927734 C 35.222218 85.927734 35.8125 86.486766 35.8125 87.208984 L 35.8125 90.927734 C 35.8125 91.649954 35.222218 92.240234 34.5 92.240234 L 24.9375 92.240234 C 24.215282 92.240234 23.625 91.649954 23.625 90.927734 L 23.625 87.208984 C 23.625 86.486766 24.215282 85.927734 24.9375 85.927734 z M 115.06641 110.79688 C 116.12402 110.79688 117.16572 111.20869 117.97266 112.01562 C 119.58651 113.62947 119.58651 116.24551 117.97266 117.85938 C 116.35879 119.47324 113.74277 119.47323 112.12891 117.85938 C 110.51505 116.2455 110.51505 113.62949 112.12891 112.01562 C 112.93584 111.2087 114.0088 110.79688 115.06641 110.79688 z " style="fill:#aaaaaa"/>
</svg>