<?xml version="1.0" encoding="UTF-8" standalone="no"?>
<svg xmlns:dc="http://purl.org/dc/elements/1.1/"
     xmlns:cc="http://creativecommons.org/ns#"
     xmlns:rdf="http://www.w3.org/1999/02/22-rdf-syntax-ns#"
     xmlns:svg="http://www.w3.org/2000/svg"
     xmlns="http://www.w3.org/2000/svg"
     xmlns:xlink="http://www.w3.org/1999/xlink"
     width="128" height="128" version="1.1">
    <title>Hibernate Icon</title>
    <desc>This is shape (source) for Clarity vector icon theme for gtk</desc>
    <metadata>
        <rdf:RDF>
            <cc:Work rdf:about="">
                <dc:title>Hibernate Icon</dc:title>
                <dc:description>This is shape (source) for Clarity vector icon theme for gtk</dc:description>
                <dc:creator>
                    <cc:Agent>
                        <dc:title>Jakub Jankiewicz</dc:title>
                    </cc:Agent>
                </dc:creator>
                <dc:rights>
                    <cc:Agent>
                        <dc:title>Jakub Jankiewicz</dc:title>
                    </cc:Agent>
                </dc:rights>
                <dc:date>2010</dc:date>
                <dc:format>image/svg+xml</dc:format>
                <dc:type rdf:resource="http://purl.org/dc/dcmitype/StillImage" />
                <cc:license rdf:resource="http://creativecommons.org/licenses/by-sa/3.0/" />
             </cc:Work>
        </rdf:RDF>
    </metadata>
    <path d="m 62.481058,12.704714 0,15.551628 29.375296,0 -30.573719,30.601587 0,4.905174 13.572837,0 a 3.8019266,3.8019266 0 0 1 3.79036,3.79036 l 0,5.295357 36.036318,0 0,-14.520426 -30.768831,0 30.768831,-30.74094 0,-14.88274 -52.201091,0 z m -25.334102,54.848749 0,11.231731 21.237168,0 -22.101147,22.101146 0,10.08905 38.572495,0 0,-10.47923 -22.212629,0 22.212629,-22.212632 0,-10.730065 -37.708516,0 z m -23.35531,24.720955 0,5.936373 11.23173,0 -11.705525,11.705519 0,5.37898 20.428928,0 0,-5.57406 -11.761265,0 11.761265,-11.761271 0,-5.685541 -19.955133,0 z" style="fill:#aaaaaa"/>
</svg>