<?xml version="1.0" encoding="UTF-8" standalone="no"?>
<svg xmlns:dc="http://purl.org/dc/elements/1.1/"
     xmlns:cc="http://creativecommons.org/ns#"
     xmlns:rdf="http://www.w3.org/1999/02/22-rdf-syntax-ns#"
     xmlns:svg="http://www.w3.org/2000/svg"
     xmlns="http://www.w3.org/2000/svg"
     xmlns:xlink="http://www.w3.org/1999/xlink"
     width="128" height="128" version="1.1">
    <title>Double Dice Icon</title>
    <desc>This is shape (source) for Clarity vector icon theme for gtk</desc>
    <metadata>
        <rdf:RDF>
            <cc:Work rdf:about="">
                <dc:title>Double Dice Icon</dc:title>
                <dc:description>This is shape (source) for Clarity vector icon theme for gtk</dc:description>
                <dc:creator>
                    <cc:Agent>
                        <dc:title>Jakub Jankiewicz</dc:title>
                    </cc:Agent>
                </dc:creator>
                <dc:rights>
                    <cc:Agent>
                        <dc:title>Jakub Jankiewicz</dc:title>
                    </cc:Agent>
                </dc:rights>
                <dc:date>2010</dc:date>
                <dc:format>image/svg+xml</dc:format>
                <dc:type rdf:resource="http://purl.org/dc/dcmitype/StillImage" />
                <cc:license rdf:resource="http://creativecommons.org/licenses/by-sa/3.0/" />
             </cc:Work>
        </rdf:RDF>
    </metadata>
    <path d="m 39.74914,21.234318 c -0.161183,0.0025 -0.33497,0.02428 -0.5,0.0625 -0.700398,0.1622 -21.395926,4.445436 -21.71875,4.53125 -0.501436,0.133293 -1.260265,0.654779 -1.5,1.125 -0.318078,0.623883 -10.2628843,29.573493 -10.34375,30.3125 -0.034667,0.316815 0.059394,0.853526 0.15625,1.15625 0.2987476,0.933731 0.3755392,0.977259 12.96875,8.625 6.181267,3.751686 10.379129,6.148044 11.78125,7.03125 0.363174,0.228766 0.819791,0.352139 1.03125,0.34375 0.911962,-0.03618 3.387781,-0.236132 11.28125,-1.03125 6.35399,-0.636442 11.475373,-1.23956 11.71875,-1.3125 0.47371,-0.141973 0.873007,-0.463222 1.0625,-0.65625 0.198829,-0.202537 0.468648,-0.655998 0.53125,-0.8125 0.0626,-0.156503 2.110633,-6.945252 4.5625,-15.0625 3.143593,-10.405687 4.216654,-13.830927 4.40625,-15.25 0.139386,-1.043257 -0.283937,-1.661196 -0.96875,-2.3125 -0.919774,-0.874766 -22.760998,-16.051073 -23.125,-16.3125 -0.393619,-0.282695 -0.8602,-0.444912 -1.34375,-0.4375 z m -6.125,4 c 0.177369,-0.0052 0.327746,0.05713 0.5625,0.15625 1.03291,0.427772 0.980898,2.392891 -0.09375,4.21875 -0.521674,0.876412 -1.696774,2.020312 -2.40625,2.34375 -1.043348,0.47994 -1.905745,0.303277 -2.21875,-0.4375 -0.761644,-1.825859 1.225602,-5.321672 3.4375,-6.09375 0.328654,-0.10955 0.541381,-0.182284 0.71875,-0.1875 z m -13.90625,2.90625 c 0.490373,0 0.593346,0.04123 0.84375,0.3125 0.709476,0.761644 0.418449,2.497327 -0.6875,4.15625 -0.907713,1.366786 -2.092186,2.239528 -3.0625,2.25 -0.500807,0 -0.582914,-0.01 -0.84375,-0.3125 -0.386037,-0.427773 -0.458569,-0.977821 -0.3125,-1.8125 0.281704,-1.669357 1.549696,-3.467389 3.03125,-4.3125 0.344305,-0.198239 0.634778,-0.28125 1.03125,-0.28125 z m 28.5,14.53125 c 0.09585,-0.01709 0.163272,-0.0026 0.25,0 0.173457,0.0052 0.374496,0.0311 0.6875,0.125 1.074648,0.313004 2.082863,1.62273 2.375,3.03125 0.073,0.333871 0.11462,0.999194 0.09375,1.5 -0.0939,1.971928 -1.289263,3.36482 -2.78125,3.21875 -1.189417,-0.114768 -2.124041,-0.987094 -2.71875,-2.53125 -0.354778,-0.907713 -0.344306,-2.540221 0,-3.4375 0.302571,-0.782512 1.144859,-1.645565 1.75,-1.8125 0.14346,-0.03652 0.247897,-0.07666 0.34375,-0.09375 z m -21.09375,1.875 c 0.506187,-0.002 0.983996,0.202494 1.21875,0.59375 0.427772,0.730343 0.313509,1.935331 -0.3125,3.28125 -1.147683,2.493603 -3.654585,4.053934 -4.6875,2.90625 -0.563409,-0.626009 -0.594456,-1.581197 -0.15625,-2.90625 0.552974,-1.638056 2.164615,-3.426462 3.4375,-3.8125 0.174761,-0.05217 0.331271,-0.06184 0.5,-0.0625 z m 69.15625,1.625 c -1.25465,0.139016 -4.296964,1.047201 -13.9375,3.875 -10.631718,3.109177 -13.374444,3.947531 -13.71875,4.1875 -0.229536,0.166936 -0.4375,0.333215 -0.4375,0.40625 -0.13047,-0.09451 -0.184277,-0.05654 -0.40625,0.28125 -0.146068,0.219103 -0.322832,0.541381 -0.375,0.71875 -0.0626,0.166936 -1.320512,6.810071 -2.8125,14.78125 -2.065829,10.976022 -2.739668,14.614062 -2.6875,14.9375 0.04174,0.239969 0.208115,0.66618 0.34375,0.96875 0.23997,0.490374 1.233606,1.392127 11.40625,10.15625 6.124453,5.279342 11.355213,9.668582 11.5625,9.812502 0.458879,0.31862 0.79052,0.47769 1.375,0.46875 0.678097,-0.0104 1.229926,-0.22167 13.6875,-4.875 8.30506,-3.10918 13.16618,-4.947583 13.46875,-5.156252 0.27127,-0.177369 0.62475,-0.582914 0.78125,-0.84375 0.21911,-0.365173 1.13069,-3.606841 4.0625,-14.875 2.06583,-7.950312 3.6409,-14.012293 3.71875,-14.90625 0.0376,-0.431668 -0.039,-0.881324 -0.28125,-1.25 -0.22278,-0.339221 -0.87751,-1.215716 -12.25,-9.5625 -6.44789,-4.726366 -11.99949,-8.739314 -12.3125,-8.90625 -0.263451,-0.133026 -0.429989,-0.197557 -0.75,-0.21875 -0.120004,-0.008 -0.258264,-0.01985 -0.4375,0 z m -83.125,0.65625 c 1.074689,-0.09214 1.677673,0.983132 1.3125,2.5625 -0.740777,3.161345 -4.206853,5.690628 -5.125,3.75 -0.135635,-0.302571 -0.156297,-0.603175 -0.125,-1.21875 0.125202,-1.982361 1.788961,-4.363609 3.46875,-4.96875 0.172153,-0.0613 0.315223,-0.111836 0.46875,-0.125 z m 81.3125,1.71875 c 0.773707,-0.05575 1.842643,0.03095 2.53125,0.21875 1.88847,0.500806 3.25,1.592136 3.25,2.59375 0,0.427773 -0.64471,1.04133 -1.34375,1.25 -0.79295,0.239967 -2.362952,0.229587 -3.375,-0.03125 -1.585889,-0.396472 -3.072631,-1.467388 -3.25,-2.3125 -0.135635,-0.709476 0.4253,-1.311995 1.53125,-1.625 0.172152,-0.04695 0.398347,-0.07516 0.65625,-0.09375 z m -16.6875,4.9375 c 0.783978,-0.02739 1.928767,0.07008 2.5,0.21875 2.065829,0.521673 3.604789,1.956703 3.21875,2.96875 -0.156502,0.41734 -0.801057,0.874697 -1.4375,1.0625 -0.824244,0.239972 -2.383769,0.240021 -3.40625,-0.03125 -2.076262,-0.532108 -3.552621,-1.862952 -3.21875,-2.875 0.187803,-0.573841 0.831903,-1.051764 1.71875,-1.25 0.151285,-0.0339 0.363674,-0.08462 0.625,-0.09375 z m 24,0.46875 c 0.13211,-0.0027 0.31746,-4.07e-4 0.46875,0 0.90771,0.0024 2.13924,0.179171 3,0.5 1.30418,0.490374 2.4375,1.571723 2.4375,2.3125 0,1.387652 -2.44379,1.990777 -5,1.25 -1.25201,-0.365173 -2.68709,-1.31144 -2.9375,-1.96875 -0.38604,-0.99118 0.22676,-1.728629 1.71875,-2.0625 0.10428,-0.02347 0.18038,-0.02849 0.3125,-0.03125 z m -74.78125,4.5 c 1.43815,-0.05806 3.82583,0.613053 5.25,1.5625 1.64849,1.095515 1.461393,2.03125 -0.4375,2.03125 -1.961494,0 -4.623334,-0.956552 -5.65625,-2.0625 -0.709476,-0.761644 -0.61608,-1.249647 0.3125,-1.46875 0.161718,-0.04043 0.325801,-0.05421 0.53125,-0.0625 z m 58.53125,0.59375 c 0.874945,-0.01272 1.826636,0.19477 2.75,0.53125 1.64849,0.594708 2.59375,1.488003 2.59375,2.46875 0,0.396472 -0.06194,0.509878 -0.40625,0.84375 -0.573842,0.532107 -1.372982,0.760472 -2.625,0.75 -1.189417,-0.01047 -2.16507,-0.238811 -3.15625,-0.71875 -2.191031,-1.053782 -2.721373,-2.634121 -1.09375,-3.4375 0.313004,-0.146068 0.812046,-0.322836 1.09375,-0.375 0.273878,-0.04434 0.552101,-0.05826 0.84375,-0.0625 z m 24.09375,0.4375 c 0.71307,-0.01223 1.6552,0.101267 2.3125,0.28125 2.02409,0.563407 3.34375,1.633618 3.34375,2.75 0,0.313005 -0.0828,0.478679 -0.40625,0.78125 -0.49038,0.469507 -0.95649,0.614467 -2.09375,0.6875 -1.80498,0.114768 -3.75856,-0.498234 -4.90625,-1.59375 -0.52167,-0.47994 -0.71875,-0.853327 -0.71875,-1.375 0,-0.730344 0.65429,-1.218396 1.875,-1.4375 0.16693,-0.0313 0.35607,-0.08967 0.59375,-0.09375 z m -39.59375,2.15625 c 0.71991,0 1.332359,0.301008 1.9375,0.96875 1.481555,1.64849 1.970163,4.44531 1.09375,6.0625 -0.678176,1.252017 -1.98765,1.262348 -3.1875,0.0625 -1.220716,-1.220718 -1.885837,-3.309827 -1.625,-4.96875 0.135635,-0.834678 0.384627,-1.353478 0.875,-1.78125 0.313005,-0.281708 0.457611,-0.34375 0.90625,-0.34375 z m 23.09375,3.25 c 1.773691,-0.01047 3.425355,0.54012 4.5,1.5 1.24159,1.116383 1.09608,2.228123 -0.34375,2.875 -0.459073,0.208673 -0.675246,0.25 -1.8125,0.25 -1.930195,0 -3.352367,-0.467136 -4.46875,-1.46875 -0.636442,-0.573843 -0.875,-0.947075 -0.875,-1.46875 0,-0.740777 0.498387,-1.249495 1.5,-1.5625 0.23997,-0.07303 0.915725,-0.125 1.5,-0.125 z m -64.6875,4.8125 c 0.228233,0.0013 0.483643,0.03114 0.9375,0.09375 2.337099,0.323438 4.96875,1.675655 4.96875,2.5625 0,0.532104 -0.435432,0.666783 -1.71875,0.59375 -1.220717,-0.0626 -2.498083,-0.384474 -3.6875,-0.96875 -0.834678,-0.406905 -1.749849,-1.124444 -1.84375,-1.46875 -0.07303,-0.292137 0.228478,-0.64566 0.65625,-0.75 0.260837,-0.05737 0.459267,-0.06381 0.6875,-0.0625 z m 88.71875,0.9375 c 1.50719,-0.07946 2.02916,1.676245 0.90625,3.8125 -1.35635,2.587504 -4.15453,4.106201 -5.21875,2.84375 -1.27288,-1.523288 0.95408,-5.560987 3.59375,-6.5 0.25432,-0.08998 0.50344,-0.1449 0.71875,-0.15625 z m -32.5,2.6875 c 2.389267,-0.01047 4.481151,4.51678 3.25,7.03125 -0.386038,0.78251 -0.863357,1.09375 -1.625,1.09375 -0.772078,0 -1.300957,-0.280039 -2,-1.03125 -1.095515,-1.189417 -1.739768,-2.914059 -1.625,-4.53125 0.07303,-1.231151 0.488307,-2.040978 1.28125,-2.46875 0.11477,-0.06259 0.44748,-0.09375 0.71875,-0.09375 z m -9.4375,3.46875 c 0.604489,-0.05674 1.241165,0.264591 1.875,0.90625 1.043348,1.032914 1.583218,2.41406 1.65625,4.03125 0.0626,1.523288 -0.238305,2.280392 -1.03125,2.8125 -1.012048,0.68861 -2.592238,-0.174243 -3.53125,-1.9375 -0.824246,-1.544156 -0.990576,-3.675252 -0.375,-4.8125 0.239971,-0.438207 0.426511,-0.624698 0.78125,-0.8125 0.190411,-0.09911 0.423504,-0.168589 0.625,-0.1875 z m -8.8125,3.3125 c 0.113465,0.0065 0.285962,0.06235 0.59375,0.15625 0.678176,0.198236 1.540876,1.061038 2.03125,1.96875 1.074649,2.034529 1.012301,4.675856 -0.15625,5.4375 -1.043348,0.699043 -2.581904,-0.174141 -3.46875,-2 -0.532107,-1.064215 -0.6875,-1.852519 -0.6875,-2.875 0,-1.325051 0.477872,-2.32253 1.28125,-2.5625 0.208669,-0.05738 0.292785,-0.131523 0.40625,-0.125 z m 40.125,2.8125 c 0.35604,-0.02608 0.69232,0.02582 0.9375,0.15625 0.74078,0.375606 0.83433,1.841632 0.21875,3.15625 -0.93902,2.024096 -2.71628,3.531049 -4.25,3.65625 -0.70948,0.0626 -1.14542,-0.176157 -1.40625,-0.75 -0.22958,-0.521673 -0.24001,-0.967539 -0.0312,-1.71875 0.44864,-1.711091 1.87248,-3.446722 3.4375,-4.1875 0.35474,-0.172152 0.7377,-0.286417 1.09375,-0.3125 z m -26.34375,9.1875 c 0.367291,-0.04549 0.866721,0.03887 1.15625,0.15625 1.690223,0.709477 3.094305,3.62162 2.75,5.71875 -0.292138,1.77373 -1.37273,2.480292 -2.78125,1.78125 -1.867593,-0.92858 -3.22006,-4.548939 -2.40625,-6.5 0.187803,-0.459074 0.655745,-0.906048 0.96875,-1.03125 0.08347,-0.03652 0.190069,-0.109833 0.3125,-0.125 z m 15.59375,3.03125 c 0.106783,-0.004 0.228931,-0.0079 0.375,0 0.719907,0.04174 1.020465,0.228276 1.25,0.78125 0.76164,1.784125 -1.537749,5.238352 -3.96875,6.000002 -1.137249,0.35474 -1.926713,0.0223 -2.15625,-0.9375 -0.396472,-1.648492 1.392487,-4.467086 3.46875,-5.500002 0.524283,-0.266052 0.71091,-0.331523 1.03125,-0.34375 z" style="fill:#aaaaaa"/>
</svg>