<?xml version="1.0" encoding="UTF-8" standalone="no"?>
<svg xmlns:dc="http://purl.org/dc/elements/1.1/"
     xmlns:cc="http://creativecommons.org/ns#"
     xmlns:rdf="http://www.w3.org/1999/02/22-rdf-syntax-ns#"
     xmlns:svg="http://www.w3.org/2000/svg"
     xmlns="http://www.w3.org/2000/svg"
     xmlns:xlink="http://www.w3.org/1999/xlink"
     width="128" height="128" version="1.1">
    <title>Tetravex Icon</title>
    <desc>This is shape (source) for Clarity vector icon theme for gtk</desc>
    <metadata>
        <rdf:RDF>
            <cc:Work rdf:about="">
                <dc:title>Tetravex Icon</dc:title>
                <dc:description>This is shape (source) for Clarity vector icon theme for gtk</dc:description>
                <dc:creator>
                    <cc:Agent>
                        <dc:title>Jakub Jankiewicz</dc:title>
                    </cc:Agent>
                </dc:creator>
                <dc:rights>
                    <cc:Agent>
                        <dc:title>Jakub Jankiewicz</dc:title>
                    </cc:Agent>
                </dc:rights>
                <dc:date>2010</dc:date>
                <dc:format>image/svg+xml</dc:format>
                <dc:type rdf:resource="http://purl.org/dc/dcmitype/StillImage" />
                <cc:license rdf:resource="http://creativecommons.org/licenses/by-sa/3.0/" />
             </cc:Work>
        </rdf:RDF>
    </metadata>
    <path d="m 27.363683,9.7717886 c -3.695163,0 -7.019594,1.4536804 -9.441519,3.8792184 -0.251438,0.24364 -0.403483,0.538608 -0.403483,0.888986 0,0.350379 0.152045,0.72617 0.403483,0.969804 L 63.354429,61.00977 c 0.49793,0.47202 1.277396,0.47202 1.775327,0 L 110.40063,15.671431 c 0.25143,-0.24364 0.40348,-0.619425 0.40348,-0.969804 0,-0.350379 -0.15205,-0.645352 -0.40348,-0.888986 -2.42735,-2.496738 -5.75568,-4.0408524 -9.52222,-4.0408524 l -73.514727,0 z M 14.694294,17.368588 c -0.337247,0.01343 -0.655877,0.158373 -0.887664,0.404086 -2.49302,2.430965 -4.0348373,5.84507 -4.0348373,9.617223 l 0,73.543473 c 0,3.70066 1.4515193,7.11087 3.8734443,9.5364 0.243278,0.25183 0.537807,0.40409 0.887664,0.40409 0.349858,0 0.72509,-0.15228 0.968361,-0.40409 L 60.933526,64.969802 c 0.251438,-0.24364 0.403484,-0.53861 0.403484,-0.888986 0,-0.350379 -0.152046,-0.726173 -0.403484,-0.969804 L 15.581959,17.772674 c -0.231787,-0.245706 -0.550416,-0.390748 -0.887665,-0.404086 z m 98.692106,0 c -0.33724,0.01343 -0.65587,0.158373 -0.88766,0.404086 L 67.066478,63.272646 c -0.251438,0.243639 -0.403483,0.619425 -0.403483,0.969804 0,0.350378 0.152045,0.645355 0.403483,0.888986 l 45.270872,45.338334 c 0.24328,0.25183 0.61851,0.40409 0.96836,0.40409 0.34985,0 0.6444,-0.15228 0.88766,-0.40409 2.49302,-2.43096 4.03484,-5.84506 4.03484,-9.61722 l 0,-73.543469 c 0,-3.70067 -1.45152,-7.110873 -3.87344,-9.536407 -0.25116,-0.265858 -0.60303,-0.41269 -0.96837,-0.404086 z m -46.400618,0.808171 c 0.884764,1.8e-5 1.749045,0.02505 2.582295,0.161626 0.833221,0.136655 1.60483,0.37326 2.420903,0.646535 l 0,3.475131 c -0.816076,-0.384305 -1.537957,-0.628804 -2.25951,-0.80817 -0.721578,-0.187888 -1.410922,-0.242426 -2.098115,-0.242452 -1.477501,1.6e-5 -2.645322,0.392387 -3.46996,1.212256 -0.824656,0.811358 -1.315106,2.031174 -1.452541,3.636766 0.566939,-0.418472 1.194583,-0.764822 1.856026,-0.969804 0.661428,-0.213504 1.397104,-0.323258 2.178812,-0.323268 1.967115,10e-6 3.558482,0.552748 4.761107,1.697157 1.211182,1.14443 1.77531,2.67248 1.775328,4.52575 -1.8e-5,2.049713 -0.668794,3.691474 -2.017418,4.929837 -1.348654,1.229823 -3.138915,1.85879 -5.406682,1.85879 -2.499719,0 -4.435759,-0.831398 -5.810166,-2.505327 -1.365822,-1.682466 -2.098117,-4.109605 -2.098115,-7.192713 0,-3.15995 0.823146,-5.633113 2.420903,-7.435163 1.60634,-1.810553 3.825351,-2.666941 6.617133,-2.666959 z m -52.130094,2.505327 43.253453,43.39873 -43.33415,43.398724 c -1.410122,-1.82745 -2.420902,-4.01789 -2.420902,-6.54617 l 0,-73.543473 c 0,-2.598763 0.998334,-4.855219 2.501599,-6.707811 z m 98.369332,0.08083 c 1.41011,1.827441 2.4209,4.017884 2.4209,6.546176 l 0,73.543469 c 0,2.5798 -1.09886,4.7809 -2.5823,6.62699 L 69.890864,64.24245 113.22502,20.762902 z m -47.368993,7.354347 c -0.867604,7e-6 -1.498636,0.325325 -1.936722,0.888986 -0.429511,0.555137 -0.645581,1.386535 -0.645574,2.505327 -7e-6,1.118806 0.216061,1.941662 0.645574,2.505328 0.438086,0.555132 1.069118,0.808171 1.936722,0.808168 0.876179,3e-6 1.587903,-0.253012 2.017419,-0.808168 0.438079,-0.563666 0.645561,-1.386522 0.645573,-2.505328 -1.2e-5,-1.118792 -0.207487,-1.95019 -0.645573,-2.505327 -0.429516,-0.563661 -1.14124,-0.888976 -2.017419,-0.888986 z M 29.461798,54.059518 c -1.047996,2.1e-5 -2.136938,0.126842 -3.22787,0.323268 -1.090942,0.187913 -2.191857,0.440949 -3.308566,0.80817 l 0,4.202482 c 1.047986,-0.649059 2.066637,-1.130151 2.98578,-1.454705 0.919131,-0.333062 1.728485,-0.484883 2.501598,-0.484901 1.00503,1.5e-5 1.819587,0.261594 2.420902,0.808168 0.609884,0.546605 0.887655,1.285327 0.887664,2.182061 -9e-6,0.580761 -0.102856,1.15912 -0.403483,1.697156 -0.300662,0.538061 -0.744778,1.052681 -1.371845,1.61634 l -7.020616,6.222909 0,3.555949 13.960536,0 0,-3.555949 -8.473158,0 4.115534,-3.636764 c 1.735181,-1.511652 2.848075,-2.740009 3.389263,-3.636765 0.541158,-0.905278 0.806952,-1.867462 0.806968,-2.909414 -1.6e-5,-1.802018 -0.656815,-3.194691 -1.936722,-4.202485 -1.271345,-1.00775 -3.023856,-1.535499 -5.325985,-1.53552 z m 61.652308,0.727352 0,10.748662 c 0.927724,-0.384313 1.774823,-0.62881 2.582296,-0.808171 0.80746,-0.187887 1.627226,-0.242452 2.340206,-0.242452 1.202601,1e-5 2.137169,0.227423 2.824386,0.808171 0.695783,0.580758 1.049049,1.416746 1.049056,2.42451 -9e-6,0.999237 -0.353273,1.754406 -1.049056,2.343694 -0.687217,0.580755 -1.62178,0.888989 -2.824386,0.888986 -0.833245,3e-6 -1.718095,-0.105177 -2.662993,-0.404086 -0.936322,-0.298911 -1.937799,-0.776054 -2.985779,-1.373886 l 0,3.879215 c 1.056575,0.427023 2.082001,0.764836 3.147173,0.969804 1.073752,0.213504 2.136924,0.323267 3.22787,0.323267 2.525469,0 4.554181,-0.607932 5.971561,-1.777973 1.42593,-1.170041 2.0981,-2.78223 2.09812,-4.849021 -2e-5,-2.083861 -0.63106,-3.68751 -1.93673,-4.849019 -1.3057,-1.170028 -3.142297,-1.777963 -5.487378,-1.777976 -0.412333,1.3e-5 -0.823904,0.02091 -1.210451,0.08083 -0.377971,0.05126 -0.751795,0.139986 -1.129754,0.242451 l 0,-2.990229 8.392453,0 0,-3.636765 -12.346594,0 z M 63.838609,66.66696 c -0.250844,0.06668 -0.475819,0.207487 -0.645575,0.404085 l -45.27087,45.338335 c -0.494608,0.47692 -0.530063,1.25808 -0.08069,1.77797 2.427348,2.49673 5.836373,4.04086 9.602912,4.04086 l 73.514727,0 c 3.69516,-1e-5 7.01959,-1.45368 9.44152,-3.87922 0.47132,-0.49868 0.47132,-1.27931 0,-1.77798 L 64.968363,67.071045 C 64.6809,66.758701 64.258606,66.607657 63.838609,66.66696 z m -6.697829,23.760198 14.444715,0 0,2.747779 -7.504796,16.325023 -4.841804,0 7.101312,-15.516855 -9.199427,0 0,-3.555947 z" style="fill:#aaaaaa"/>
</svg>