<?xml version="1.0" encoding="UTF-8" standalone="no"?>
<svg xmlns:dc="http://purl.org/dc/elements/1.1/"
     xmlns:cc="http://creativecommons.org/ns#"
     xmlns:rdf="http://www.w3.org/1999/02/22-rdf-syntax-ns#"
     xmlns:svg="http://www.w3.org/2000/svg"
     xmlns="http://www.w3.org/2000/svg"
     xmlns:xlink="http://www.w3.org/1999/xlink"
     width="128" height="128" version="1.1">
    <title>Clarity Icon</title>
    <desc>This is shape (source) for Clarity vector icon theme for gtk</desc>
    <metadata>
        <rdf:RDF>
            <cc:Work rdf:about="">
                <dc:title>Clarity Icon</dc:title>
                <dc:description>This is shape (source) for Clarity vector icon theme for gtk</dc:description>
                <dc:creator>
                    <cc:Agent>
                        <dc:title>Jakub Jankiewicz</dc:title>
                    </cc:Agent>
                </dc:creator>
                <dc:rights>
                    <cc:Agent>
                        <dc:title>Jakub Jankiewicz</dc:title>
                    </cc:Agent>
                </dc:rights>
                <dc:date>2010</dc:date>
                <dc:format>image/svg+xml</dc:format>
                <dc:type rdf:resource="http://purl.org/dc/dcmitype/StillImage" />
                <cc:license rdf:resource="http://creativecommons.org/licenses/by-sa/3.0/" />
             </cc:Work>
        </rdf:RDF>
    </metadata>
    <path d="M 24.34375 34.34375 C 19.290609 34.34375 15.25 38.415609 15.25 43.46875 L 15.25 64.21875 C 15.25 69.271891 19.290609 73.34375 24.34375 73.34375 L 107.84375 73.34375 C 112.89689 73.34375 116.96875 69.271891 116.96875 64.21875 L 116.96875 43.46875 C 116.96875 38.415609 112.89689 34.34375 107.84375 34.34375 L 24.34375 34.34375 z M 53.71875 48 L 78.5 48 C 82.311823 48 85.375 50.616323 85.375 53.84375 C 85.375 57.071177 82.311823 59.65625 78.5 59.65625 L 53.71875 59.65625 C 49.906927 59.65625 46.84375 57.071177 46.84375 53.84375 C 46.84375 50.616323 49.906927 48 53.71875 48 z " style="fill:#aaaaaa"/>
</svg>