<?xml version="1.0" encoding="UTF-8" standalone="no"?>
<svg xmlns:dc="http://purl.org/dc/elements/1.1/"
     xmlns:cc="http://creativecommons.org/ns#"
     xmlns:rdf="http://www.w3.org/1999/02/22-rdf-syntax-ns#"
     xmlns:svg="http://www.w3.org/2000/svg"
     xmlns="http://www.w3.org/2000/svg"
     xmlns:xlink="http://www.w3.org/1999/xlink"
     width="128" height="128" version="1.1">
    <title>Clarity Icon</title>
    <desc>This is shape (source) for Clarity vector icon theme for gtk</desc>
    <metadata>
        <rdf:RDF>
            <cc:Work rdf:about="">
                <dc:title>Clarity Icon</dc:title>
                <dc:description>This is shape (source) for Clarity vector icon theme for gtk</dc:description>
                <dc:creator>
                    <cc:Agent>
                        <dc:title>Jakub Jankiewicz</dc:title>
                    </cc:Agent>
                </dc:creator>
                <dc:rights>
                    <cc:Agent>
                        <dc:title>Jakub Jankiewicz</dc:title>
                    </cc:Agent>
                </dc:rights>
                <dc:date>2010</dc:date>
                <dc:format>image/svg+xml</dc:format>
                <dc:type rdf:resource="http://purl.org/dc/dcmitype/StillImage" />
                <cc:license rdf:resource="http://creativecommons.org/licenses/by-sa/3.0/" />
             </cc:Work>
        </rdf:RDF>
    </metadata>
    <path d="m 17.328125,17.359349 0,93.218751 c 0,0 20.023486,0.0537 41,0.0625 l 0,-0.0312 c 0.243085,0.0101 0.478735,0.0252 0.71875,0.0312 0.779476,2.9e-4 1.436303,-1.5e-4 2.21875,0 20.502858,-0.56946 28.589763,-16.540441 18.28125,-32.343751 15.402283,9.89489 31.000005,0.86637 31.000005,-16.28125 0.0402,0.033 0.085,0.0606 0.125,0.0937 -0.009,-22.57048 -0.125,-44.75 -0.125,-44.75 l -93.218755,0 z m 92.687505,61.78125 c -1.2636,1.96569 -2.77617,3.77169 -4.65625,5.21875 -4.31266,3.31938 -10.205102,4.68028 -16.625005,2.84375 2.46589,7.1002 1.2654,13.403911 -2.25,17.906251 -1.27579,1.63397 -2.86163,2.95038 -4.5625,4.125 7.95845,-1.83203 14.31662,-5.37989 18.937505,-10.437501 4.7361,-5.18372 7.73474,-11.94484 9.15625,-19.65625 z" style="fill:#aaaaaa"/>
</svg>