<?xml version="1.0" encoding="UTF-8" standalone="no"?>
<svg xmlns:dc="http://purl.org/dc/elements/1.1/"
     xmlns:cc="http://creativecommons.org/ns#"
     xmlns:rdf="http://www.w3.org/1999/02/22-rdf-syntax-ns#"
     xmlns:svg="http://www.w3.org/2000/svg"
     xmlns="http://www.w3.org/2000/svg"
     xmlns:xlink="http://www.w3.org/1999/xlink"
     width="128" height="128" version="1.1">
    <title>Gnumeric Icon</title>
    <desc>This is shape (source) for Clarity vector icon theme for gtk</desc>
    <metadata>
        <rdf:RDF>
            <cc:Work rdf:about="">
                <dc:title>Gnumeric Icon</dc:title>
                <dc:description>This is shape (source) for Clarity vector icon theme for gtk</dc:description>
                <dc:creator>
                    <cc:Agent>
                        <dc:title>Jakub Jankiewicz</dc:title>
                    </cc:Agent>
                </dc:creator>
                <dc:rights>
                    <cc:Agent>
                        <dc:title>Jakub Jankiewicz</dc:title>
                    </cc:Agent>
                </dc:rights>
                <dc:date>2010</dc:date>
                <dc:format>image/svg+xml</dc:format>
                <dc:type rdf:resource="http://purl.org/dc/dcmitype/StillImage" />
                <cc:license rdf:resource="http://creativecommons.org/licenses/by-sa/3.0/" />
             </cc:Work>
        </rdf:RDF>
    </metadata>
    <path d="m 13.296875,10.796875 c -3.3977868,0 -6.125,2.727215 -6.125,6.125 l 0,74.0625 c 0,3.397788 2.7272132,6.15625 6.125,6.15625 l 49.625,0 c -0.533701,-1.984444 -0.876207,-4.035808 -1,-6.15625 l -48.40625,0 0,-60.375 84.9375,0 0,28.1875 c 2.208295,0.412982 4.327685,1.048267 6.343755,1.90625 l 0,-43.78125 c 0,-3.397785 -2.69596,-6.125 -6.093755,-6.125 l -85.40625,0 z m 4.5,23.5625 0,6.09375 12.40625,0 0,-6.09375 -12.40625,0 z m 15.84375,0 0,6.09375 12.4375,0 0,-6.09375 -12.4375,0 z m 15.875,0 0,6.09375 12.375,0 0,-6.09375 -12.375,0 z m 15.84375,0 0,6.09375 12.40625,0 0,-6.09375 -12.40625,0 z m 15.875,0 0,6.09375 12.375,0 0,-6.09375 -12.375,0 z m -63.4375,9.375 0,6.0625 12.40625,0 0,-6.0625 -12.40625,0 z m 15.84375,0 0,6.0625 59.96875,0 0,-6.0625 -59.96875,0 z m -15.84375,9.34375 0,6.0625 12.40625,0 0,-6.0625 -12.40625,0 z m 15.84375,0 0,6.0625 51.8125,0 c 2.3439,-0.571743 4.796779,-0.875 7.3125,-0.875 0.283562,0 0.562018,0.02362 0.84375,0.03125 l 0,-5.21875 -59.96875,0 z m 59.125,8 c -15.509169,0 -28.09375,12.584581 -28.09375,28.09375 0,9.92898 5.15995,18.631555 12.9375,23.625005 l 14.125,-24.437505 0.0625,-0.125 a 0.42446379,0.42446379 0 0 1 0.28125,-0.1875 l 0.375,-0.09375 27.062505,-7.28125 C 115.91794,69.311208 105.31655,61.078125 92.765625,61.078125 z m -74.96875,1.375 0,6.0625 12.40625,0 0,-6.0625 -12.40625,0 z m 15.84375,0 0,6.0625 36.15625,0 c 2.155654,-2.391165 4.701074,-4.434614 7.5,-6.0625 l -43.65625,0 z m -15.84375,9.34375 0,6.0625 12.40625,0 0,-6.0625 -12.40625,0 z m 15.84375,0 0,6.0625 30.375,0 c 0.850624,-2.147618 1.931468,-4.180084 3.21875,-6.0625 l -33.59375,0 z m -15.84375,9.375 0,6.0625 12.40625,0 0,-6.0625 -12.40625,0 z m 15.84375,0 0,6.0625 28.28125,0 c 0.129518,-2.081927 0.475629,-4.110572 1,-6.0625 l -29.28125,0 z m 86.562505,1.9375 -26.156255,7 0,27.093755 c 14.912415,-0.67196 26.781255,-12.95297 26.781255,-28.031255 0,-2.07751 -0.19697,-4.113534 -0.625,-6.0625 z m -28.750005,10.84375 -11.625,20.156255 c 3.51326,1.82675 7.438145,2.90466 11.625,3.09375 l 0,-23.250005 z" style="fill:#aaaaaa"/>
</svg>