<?xml version="1.0" encoding="UTF-8" standalone="no"?>
<svg xmlns:dc="http://purl.org/dc/elements/1.1/"
     xmlns:cc="http://creativecommons.org/ns#"
     xmlns:rdf="http://www.w3.org/1999/02/22-rdf-syntax-ns#"
     xmlns:svg="http://www.w3.org/2000/svg"
     xmlns="http://www.w3.org/2000/svg"
     xmlns:xlink="http://www.w3.org/1999/xlink"
     width="128" height="128" version="1.1">
    <title>Gwibber Icon</title>
    <desc>This is shape (source) for Clarity vector icon theme for gtk</desc>
    <metadata>
        <rdf:RDF>
            <cc:Work rdf:about="">
                <dc:title>Gwibber Icon</dc:title>
                <dc:description>This is shape (source) for Clarity vector icon theme for gtk</dc:description>
                <dc:creator>
                    <cc:Agent>
                        <dc:title>Jakub Jankiewicz</dc:title>
                    </cc:Agent>
                </dc:creator>
                <dc:rights>
                    <cc:Agent>
                        <dc:title>Jakub Jankiewicz</dc:title>
                    </cc:Agent>
                </dc:rights>
                <dc:date>2010</dc:date>
                <dc:format>image/svg+xml</dc:format>
                <dc:type rdf:resource="http://purl.org/dc/dcmitype/StillImage" />
                <cc:license rdf:resource="http://creativecommons.org/licenses/by-sa/3.0/" />
             </cc:Work>
        </rdf:RDF>
    </metadata>
    <path d="m 61.515625,23.516555 c -29.396093,0 -53.21875,16.318424 -53.21875,36.4375 0,20.119076 23.822657,36.40625 53.21875,36.40625 5.814292,0 11.418773,-0.633107 16.65625,-1.8125 11.579777,9.063405 25.606625,11.592365 41.531255,8.937505 -8.57323,-4.35164 -15.50822,-8.976708 -19.968755,-18.187505 9.294595,-6.558453 15.000005,-15.485345 15.000005,-25.34375 0,-20.119076 -23.822662,-36.4375 -53.218755,-36.4375 z m -7.3125,7.125 c 15.58531,0 28.21875,12.632012 28.21875,28.21875 0,15.587454 -12.63344,28.21875 -28.21875,28.21875 -15.58673,0 -28.21875,-12.63144 -28.21875,-28.21875 0,-15.586738 12.63202,-28.21875 28.21875,-28.21875 z m 0,2.15625 c -1.80024,0 -3.55301,0.184435 -5.25,0.53125 l -0.21875,0.0625 -1.375,0.375 -0.71875,0.6875 2.375,1.65625 0,0.9375 -0.9375,0.9375 1.25,2.46875 0.84375,-0.46875 1.03125,-1.65625 c 1.60566,-0.496424 3.03635,-1.044112 4.5625,-1.75 l 1.25,-3.15625 -1.46875,-0.59375 c -0.4544,-0.02356 -0.88346,-0.03125 -1.34375,-0.03125 z m -11.5,2.6875 c -0.39373,0.193811 -0.80533,0.380957 -1.1875,0.59375 l -0.1875,0.375 -0.09375,-0.21875 c -0.18794,0.107807 -0.37755,0.23143 -0.5625,0.34375 l 0.03125,0.46875 -0.8125,0.6875 -0.53125,1.3125 1.03125,0 0.53125,-1.1875 c 0.44824,-0.316985 0.88722,-0.632383 1.34375,-0.9375 l 1.03125,0.34375 c 0.69259,0.470544 1.40059,0.967671 2.09375,1.4375 l 1.03125,-0.96875 -1.125,-0.46875 -0.53125,-1.03125 -1.96875,-0.25 -0.09375,-0.5 z m 24.65625,0.875 -1.90625,0.46875 -1.25,0.8125 0,0.6875 -1.96875,1.3125 0.4375,1.875 1.125,-0.8125 0.75,0.8125 0.8125,0.46875 0.5,-1.40625 -0.28125,-0.8125 0.28125,-0.59375 1.15625,-1.0625 0.53125,0 -0.53125,1.1875 0,1.03125 c 0.47755,-0.129964 0.98004,-0.15799 1.46875,-0.21875 l -1.375,0.9375 -0.09375,0.59375 -1.5625,1.28125 -1.53125,-0.34375 0,-0.9375 -0.75,0.46875 0.3125,0.8125 -1.15625,0 -0.625,1.0625 -0.75,0.90625 -1.40625,0.28125 0.8125,0.8125 0.21875,0.8125 -1.03125,0 -1.375,0.71875 0,2.125 0.625,0 0.59375,0.65625 1.28125,-0.65625 0.53125,-1.28125 0.9375,-0.59375 0.1875,-0.46875 1.59375,-0.375 0.8125,0.96875 0.9375,0.46875 -0.5,1.03125 0.8125,-0.21875 0.40625,-1.0625 -1.03125,-1.1875 0.40625,0 1.0625,0.84375 0.1875,1.15625 0.9375,1.0625 0.21875,-1.53125 0.53125,-0.21875 c 0.51387,0.533455 0.8797,1.149631 1.3125,1.75 l 1.59375,0.125 0.90625,0.59375 -0.40625,0.59375 -0.9375,0.8125 -1.34375,0 -1.75,-0.59375 -0.96875,0.125 -0.65625,0.75 -1.90625,-1.9375 -1.375,-0.34375 -1.96875,0.21875 -1.78125,0.5 c -0.99141,1.123959 -1.96787,2.238969 -2.90625,3.40625 l -1.125,2.6875 0.5,0.59375 -0.9375,1.40625 1.0625,2.46875 c 0.88376,0.999711 1.74253,1.999576 2.625,3 l 1.3125,-1.09375 0.5625,0.625 1.40625,-0.875 0.46875,0.53125 1.40625,0 0.8125,0.90625 -0.5,1.625 1,1.09375 -0.0625,1.96875 0.71875,1.40625 -0.53125,1.1875 c -0.0518,0.865597 -0.0625,1.728012 -0.0625,2.59375 0.42593,1.172857 0.81655,2.31871 1.21875,3.5 l 0.3125,1.90625 0,0.9375 0.75,0 1.125,-0.71875 0.875,0 c 0.53185,-0.38499 1.06196,-0.79559 1.5625,-1.21875 l 0.9375,-1.0625 -0.25,-0.78125 1.34375,-1.1875 -1,-1.09375 1.21875,-1 1.125,-0.71875 0.53125,-0.59375 -0.3125,-1.28125 0,-3.3125 0.9375,-1.96875 1.125,-1.3125 1.25,-3.0625 0,-0.8125 c -0.61877,0.07794 -1.20716,0.14391 -1.8125,0.1875 l 1.25,-1.25 1.71875,-1.1875 0.9375,-1.03125 0,-1.1875 c -0.20804,-0.392334 -0.41553,-0.795166 -0.625,-1.1875 l -0.84375,0.9375 -0.625,-0.6875 -0.90625,-0.71875 0,-1.53125 1.0625,1.25 1.21875,-0.1875 c 0.20018,0.181725 0.39831,0.349714 0.59375,0.53125 -1.03484,-6.207728 -4.24741,-11.667147 -8.84375,-15.5625 l -0.40625,0.4375 -1.3125,-1.40625 0.46875,0 c -0.78196,-0.585602 -1.5909,-1.128778 -2.4375,-1.625 z m -27.625,0.8125 c -6.9901,4.664251 -11.58335,12.61588 -11.59375,21.65625 l 1.75,1.03125 2.1875,0.59375 0.9375,1.1875 1.46875,1.0625 0.8125,-0.125 0.625,0.28125 0,0.1875 -0.8125,2.25 -0.625,0.9375 0.1875,0.46875 -0.5,1.75 1.875,3.40625 1.84375,1.65625 0.84375,1.1875 -0.09375,2.46875 0.625,1.40625 -0.34375,1.40625 c 1.18595,0.85911 2.45642,1.62895 3.78125,2.28125 l 0.5,-0.53125 0.3125,-0.8125 1.34375,-0.46875 1.0625,-2.59375 -0.3125,-0.6875 0.71875,-1.0625 1.5625,-0.375 0.8125,-1.875 -0.1875,-2.34375 1.21875,-1.78125 0.21875,-1.75 c -1.70631,-0.84615 -3.40016,-1.722578 -5.09375,-2.59375 l -0.8125,-1.65625 -1.5625,-0.34375 -0.84375,-2.21875 -2.0625,0.21875 -1.78125,-1.28125 -1.875,1.625 0,0.28125 c -0.5662,-0.163425 -1.24585,-0.190022 -1.75,-0.5 l -0.40625,-1.1875 0,-1.28125 -1.25,0.125 c 0.10409,-0.823846 0.17645,-1.645047 0.28125,-2.46875 l -0.71875,0 -0.71875,0.9375 -0.71875,0.34375 -1.03125,-0.59375 -0.125,-1.28125 0.21875,-1.40625 1.5625,-1.1875 1.25,0 0.1875,-0.71875 1.5625,0.375 1.15625,1.40625 0.1875,-2.375 1.96875,-1.625 0.75,-1.78125 1.4375,-0.5625 0.84375,-1.1875 1.875,-0.34375 0.9375,-1.40625 -2.8125,0 1.75,-0.84375 1.25,0 1.78125,-0.59375 0.21875,-0.6875 -0.625,-0.59375 -0.75,-0.21875 0.21875,-0.71875 -0.53125,-1.0625 -1.25,0.46875 0.21875,-0.9375 -1.4375,-0.8125 -1.15625,2 0.09375,0.6875 -1.125,0.46875 -0.75,1.53125 -0.3125,-1.40625 -1.96875,-0.8125 -0.3125,-1.0625 2.59375,-1.53125 1.15625,-1.0625 0.0625,-0.9375 z m 17.40625,0.6875 -0.84375,0.46875 -0.40625,-0.09375 -0.125,0.6875 0.75,0.46875 1.25,-0.8125 -0.625,-0.71875 z m -13.71875,0.25 -0.84375,0.59375 1.03125,0.6875 0.84375,0 0,-0.8125 -1.03125,-0.46875 z m 16.40625,2.6875 0,0.71875 0.4375,0.46875 0,1.0625 -0.21875,1.40625 1.125,-0.21875 0.84375,-0.84375 -0.71875,-0.6875 c -0.24435,-0.650698 -0.53792,-1.282145 -0.84375,-1.90625 l -0.625,0 z m -0.40625,1.4375 -0.75,0.21875 0.21875,1.28125 0.9375,-0.46875 -0.40625,-1.03125 z m -14.34375,2.09375 0.3125,1.65625 0.625,-0.9375 -0.9375,-0.71875 z m 27.15625,9.1875 1.1875,1.34375 1.375,3 0.84375,0.9375 -0.40625,1.0625 0.78125,0.90625 c -0.3665,0.02496 -0.71687,0.03125 -1.09375,0.03125 -0.66185,-1.390758 -1.15225,-2.763795 -1.65625,-4.21875 l -0.875,-1 -0.5,-1.6875 0.34375,-0.375 z" style="fill:#aaaaaa"/>
</svg>