<?xml version="1.0" encoding="UTF-8" standalone="no"?>
<svg xmlns:dc="http://purl.org/dc/elements/1.1/"
     xmlns:cc="http://creativecommons.org/ns#"
     xmlns:rdf="http://www.w3.org/1999/02/22-rdf-syntax-ns#"
     xmlns:svg="http://www.w3.org/2000/svg"
     xmlns="http://www.w3.org/2000/svg"
     xmlns:xlink="http://www.w3.org/1999/xlink"
     width="128" height="128" version="1.1">
    <title>Homebank</title>
    <desc>This is shape (source) for Clarity vector icon theme for gtk</desc>
    <metadata>
        <rdf:RDF>
            <cc:Work rdf:about="">
                <dc:title>Homebank</dc:title>
                <dc:description>This is shape (source) for Clarity vector icon theme for gtk</dc:description>
                <dc:creator>
                    <cc:Agent>
                        <dc:title>Jakub Jankiewicz</dc:title>
                    </cc:Agent>
                </dc:creator>
                <dc:rights>
                    <cc:Agent>
                        <dc:title>Jakub Jankiewicz</dc:title>
                    </cc:Agent>
                </dc:rights>
                <dc:date>2010</dc:date>
                <dc:format>image/svg+xml</dc:format>
                <dc:type rdf:resource="http://purl.org/dc/dcmitype/StillImage" />
                <cc:license rdf:resource="http://creativecommons.org/licenses/by-sa/3.0/" />
             </cc:Work>
        </rdf:RDF>
    </metadata>
    <path d="M 64.5 3.4375 C 30.748956 3.4375 3.15625 30.542048 3.15625 63.9375 C 3.15625 97.333891 30.748543 124.4375 64.5 124.4375 C 98.248982 124.4375 125.875 97.334349 125.875 63.9375 C 125.875 30.541834 98.248611 3.4375 64.5 3.4375 z M 64.5 17.1875 C 90.934415 17.1875 112.125 38.09199 112.125 63.9375 C 112.125 89.784539 90.934044 110.6875 64.5 110.6875 C 38.062893 110.6875 16.90625 89.784437 16.90625 63.9375 C 16.90625 38.091776 38.06248 17.1875 64.5 17.1875 z M 62.78125 27.15625 L 29.21875 62 L 36.96875 62 L 37.0625 89.46875 L 90 89.375 L 89.78125 61.84375 L 96.34375 61.90625 L 82.625 47.6875 L 82.65625 30.09375 L 72.28125 30.0625 L 72.34375 36.8125 L 62.78125 27.15625 z " style="fill:#aaaaaa"/>
</svg>