<?xml version="1.0" encoding="UTF-8" standalone="no"?>
<svg xmlns:dc="http://purl.org/dc/elements/1.1/"
     xmlns:cc="http://creativecommons.org/ns#"
     xmlns:rdf="http://www.w3.org/1999/02/22-rdf-syntax-ns#"
     xmlns:svg="http://www.w3.org/2000/svg"
     xmlns="http://www.w3.org/2000/svg"
     xmlns:xlink="http://www.w3.org/1999/xlink"
     width="128" height="128" version="1.1">
    <title>Icecat Icon</title>
    <desc>This is shape (source) for Clarity vector icon theme for gtk</desc>
    <metadata>
        <rdf:RDF>
            <cc:Work rdf:about="">
                <dc:title>Icecat Icon</dc:title>
                <dc:description>This is shape (source) for Clarity vector icon theme for gtk</dc:description>
                <dc:creator>
                    <cc:Agent>
                        <dc:title>Jakub Jankiewicz</dc:title>
                    </cc:Agent>
                </dc:creator>
                <dc:rights>
                    <cc:Agent>
                        <dc:title>Jakub Jankiewicz</dc:title>
                    </cc:Agent>
                </dc:rights>
                <dc:date>2010</dc:date>
                <dc:format>image/svg+xml</dc:format>
                <dc:type rdf:resource="http://purl.org/dc/dcmitype/StillImage" />
                <cc:license rdf:resource="http://creativecommons.org/licenses/by-sa/3.0/" />
             </cc:Work>
        </rdf:RDF>
    </metadata>
    <path d="m 51.689444,8.7751492 c -0.39386,-0.00393 -0.782279,0.00622 -1.171622,0.016977 -0.4153,0.011463 -0.8308,0.038724 -1.239543,0.067918 -6.53987,0.4671338 -12.143044,3.2760478 -17.047946,6.0788498 -4.904903,2.802801 -7.236183,5.126504 -11.206818,8.863573 -3.970636,3.737069 -6.549406,7.707104 -8.184374,12.378441 -1.634967,4.671335 -0.933901,16.589486 -0.933901,16.589486 0,0 7.711622,-12.844476 11.682259,-15.180144 3.970636,-2.335668 14.015366,-6.77955 18.219569,-6.07885 4.204202,0.700701 7.95044,5.605001 9.118274,12.37844 1.167834,6.773438 1.154642,10.514425 1.154642,11.682258 0,1.167835 1.634236,1.408611 1.867804,3.277146 0.233565,1.868535 0.0041,4.660468 0.237719,6.06187 0.233567,1.4014 1.642178,6.073964 3.277146,7.708926 1.634967,1.634973 3.030752,3.046639 3.497886,6.316574 0.467133,3.269934 1.400303,3.259792 2.801703,4.194068 1.401402,0.934266 2.563985,1.862909 2.563985,3.497881 0,1.634973 0.008,3.27678 1.409342,4.211046 1.4014,0.934265 1.17541,0.0087 2.343243,0.475446 1.167835,0.467127 2.096485,1.634602 3.497886,0.933894 1.401401,-0.700696 2.801704,-2.567764 2.801704,-3.735599 0,-1.167834 -1.404822,-3.510349 -2.105522,-4.211045 -0.700701,-0.700707 -0.933902,-2.809653 -0.933902,-4.211056 0,-1.401393 -0.938055,-1.400301 -1.171622,-2.801705 -0.233567,-1.401392 -1.154276,-3.972956 -2.088544,-4.907222 -0.934267,-0.934265 -1.647062,-3.72657 -1.647062,-5.127965 0,-1.401401 -1.171621,-1.399937 -1.171621,-3.735606 0,-2.335668 -0.454308,-10.513692 -0.220741,-13.550061 0.233567,-3.036369 2.801339,-3.505461 3.735606,-5.841129 0.934267,-2.335669 4.431055,-6.31388 6.29959,-2.343244 1.868534,3.970635 2.5806,7.016538 3.514866,8.184373 0.934265,1.167833 2.087809,2.092331 3.956345,3.260164 1.868532,1.167835 5.1397,3.277146 7.708933,3.277146 2.569233,0 5.369476,1.171987 6.53731,0.23772 1.167837,-0.934267 2.572302,-3.03454 3.039422,-4.669508 0.46714,-1.634967 2.57608,-3.276778 4.21104,-4.211046 1.63498,-0.934268 0.93807,-2.334205 1.17163,-3.735605 0.23356,-1.401402 0.2249,-3.497154 0.45845,-5.36569 0.23357,-1.868534 1.40934,-1.638023 1.40934,-3.039424 0,-1.401402 -0.23392,-3.047366 0.93391,-4.448768 1.16783,-1.4014 2.57156,-3.25528 4.90723,-4.890247 2.33567,-1.634967 1.39346,-4.907228 -1.40934,-4.907228 -2.80281,0 -9.10057,0.933902 -10.96909,0.933902 -1.86854,0 -3.272266,0.229779 -4.907234,-1.171622 -1.634967,-1.401402 -3.038691,-1.63387 -4.907227,-2.801705 -1.868532,-1.167834 -1.638027,-1.63387 -3.039426,-2.801704 C 88.28934,14.467241 87.589736,15.400776 86.88904,17.502877 86.188337,19.60498 85.951714,20.76341 83.849614,19.829142 81.747514,18.89488 74.041507,14.460037 68.66947,12.357936 63.947953,10.510385 57.597336,8.8348341 51.689444,8.7751492 z M 91.439686,43.176684 c 0,0 2.145597,0.238266 2.937545,1.188602 0.791949,0.950335 0.628262,3.073385 0.628262,3.073385 l -3.565807,-4.261987 z m 5.87509,11.037018 c 0.879804,-0.02227 2.037603,0.20376 2.037603,0.20376 0,0 0.163415,0.951155 -1.103702,1.426323 -1.267112,0.475168 -1.505924,0.469326 -2.139484,-0.322621 -0.633552,-0.791947 -0.237312,-0.871823 0.475441,-1.188602 0.17819,-0.0792 0.436874,-0.111435 0.730142,-0.11886 z m -71.859475,9.033375 c -2.020899,0.104917 -3.610149,1.87941 -4.194066,6.11281 -0.934268,6.773438 1.395053,12.374413 5.365688,22.651354 3.970637,10.276939 17.285798,19.844039 27.796304,23.347539 10.510508,3.50349 21.960558,5.3796 29.901828,2.34324 7.941274,-3.03637 13.770074,-8.1735 15.638608,-14.24625 1.868527,-6.072725 -0.458464,-13.312328 -0.458464,-13.312328 0,0 -4.681238,5.138236 -7.250471,11.444538 -2.569233,6.30629 -9.105212,8.64356 -20.783553,6.77503 C 59.792834,106.49448 53.728509,98.545126 49.991441,96.443026 46.254372,94.340928 48.812975,92.93757 44.608772,90.601901 40.40457,88.266232 36.433438,77.286868 35.032037,73.316238 c -1.401401,-3.970642 -1.165639,-4.438632 -5.603409,-8.64284 -1.4014,-0.963463 -2.760786,-1.489275 -3.973327,-1.426321 z" style="fill:#aaaaaa"/>
</svg>