<?xml version="1.0" encoding="UTF-8" standalone="no"?>
<svg xmlns:dc="http://purl.org/dc/elements/1.1/"
     xmlns:cc="http://creativecommons.org/ns#"
     xmlns:rdf="http://www.w3.org/1999/02/22-rdf-syntax-ns#"
     xmlns:svg="http://www.w3.org/2000/svg"
     xmlns="http://www.w3.org/2000/svg"
     xmlns:xlink="http://www.w3.org/1999/xlink"
     width="128" height="128" version="1.1">
    <title>Input Method Icon</title>
    <desc>This is shape (source) for Clarity vector icon theme for gtk</desc>
    <metadata>
        <rdf:RDF>
            <cc:Work rdf:about="">
                <dc:title>Input Method Icon</dc:title>
                <dc:description>This is shape (source) for Clarity vector icon theme for gtk</dc:description>
                <dc:creator>
                    <cc:Agent>
                        <dc:title>Jakub Jankiewicz</dc:title>
                    </cc:Agent>
                </dc:creator>
                <dc:rights>
                    <cc:Agent>
                        <dc:title>Jakub Jankiewicz</dc:title>
                    </cc:Agent>
                </dc:rights>
                <dc:date>2010</dc:date>
                <dc:format>image/svg+xml</dc:format>
                <dc:type rdf:resource="http://purl.org/dc/dcmitype/StillImage" />
                <cc:license rdf:resource="http://creativecommons.org/licenses/by-sa/3.0/" />
             </cc:Work>
        </rdf:RDF>
    </metadata>
    <path d="m 36.003904,5.4863266 c -4.67429,0 -8.4375,3.7632115 -8.4375,8.4374994 v 38.431641 c 0,4.674288 3.76321,8.4375 8.4375,8.4375 h 21.125 l 6.871094,8.943359 6.869141,-8.943359 h 21.126953 c 4.674287,0 8.437498,-3.763212 8.437498,-8.4375 V 13.923826 c 0,-4.6742879 -3.763211,-8.4374994 -8.437498,-8.4374994 z m 26.585938,4.7031244 c 0.01107,-1.69e-4 0.02214,-1.69e-4 0.0332,0 0.368332,0.0074 0.707593,0.201694 0.900391,0.515625 1.536989,2.513771 2.642281,4.784788 3.515624,6.931641 h 17.740235 c 0.597556,7.9e-5 1.081952,0.484475 1.082031,1.082031 v 4.271484 c -7.9e-5,0.597556 -0.484474,1.081953 -1.082031,1.082032 h -6.939453 c -2.231041,7.01506 -5.145346,12.597375 -8.761719,16.77539 3.916413,2.946571 9.269197,5.733624 16.345703,8.275391 0.665751,0.239001 0.926986,1.041983 0.529297,1.626953 l -2.566406,3.78125 c -0.279109,0.411615 -0.80283,0.580011 -1.269531,0.408203 -7.037565,-2.582457 -12.988919,-5.805908 -17.970704,-9.609375 -5.372919,4.127146 -11.540791,7.241385 -18.519531,9.283203 -0.46508,0.13578 -0.963736,-0.05411 -1.220703,-0.464844 l -2.382812,-3.80664 c -0.373425,-0.598368 -0.08381,-1.388318 0.58789,-1.603516 7.082071,-2.274325 12.461841,-4.942555 16.4375,-7.886718 -3.411775,-3.824205 -6.298437,-8.763933 -8.642578,-14.908204 -0.209844,-0.550532 0.05928,-1.167775 0.605469,-1.388672 l 1.195312,-0.482421 h -8.939453 c -0.597557,-7.9e-5 -1.081952,-0.484476 -1.082031,-1.082032 v -4.271484 c 7.9e-5,-0.597556 0.484475,-1.081952 1.082031,-1.082031 h 16.431641 c -0.751481,-1.478993 -1.497299,-2.960737 -2.447266,-4.324219 -0.415456,-0.597522 -0.134523,-1.426569 0.558594,-1.648437 l 4.458984,-1.423829 c 0.103614,-0.03292 0.211597,-0.05004 0.320313,-0.05078 z M 56.79492,24.072264 c 2.065927,5.433569 4.520906,9.511676 7.271484,12.423828 2.664695,-2.911906 4.880727,-7.114732 6.681641,-12.423828 z M 31.117186,72.380857 c -2.389103,0 -4.308594,1.917532 -4.308594,4.306641 v 41.519532 c 0,2.3891 1.919491,4.30664 4.308594,4.30664 H 96.88281 c 2.38911,0 4.3086,-1.91754 4.3086,-4.30664 V 76.687498 c 0,-2.389109 -1.919491,-4.306641 -4.3086,-4.306641 z m 2.154296,9.28711 h 6.185547 v 6.066406 h -6.185547 z m 11.046875,0 h 6.205079 v 6.066406 h -6.205079 z m 11.046875,0 h 6.205078 v 6.066406 h -6.205078 z m 11.064454,0 h 6.185546 v 6.066406 h -6.185546 z m 11.046874,0 h 6.185547 v 6.066406 H 77.47656 Z m 11.046876,0 h 6.205078 v 6.066406 h -6.205078 z m -49.71875,12.390625 h 6.185546 V 100.125 h -6.185546 z m 11.046874,0 h 6.185547 V 100.125 H 49.85156 Z m 11.046876,0 h 6.183593 V 100.125 h -6.183593 z m 11.044921,0 h 6.205079 V 100.125 h -6.205079 z m 11.046875,0 H 89.19531 V 100.125 h -6.205078 z m -49.83789,13.398438 h 8.833984 v 6.0664 h -8.833984 z m 13.398437,0 h 34.898438 v 6.0664 H 46.550779 Z m 39.44336,0 h 8.853515 v 6.0664 h -8.853515 z" style="fill:#aaaaaa"/>
</svg>