<?xml version="1.0" encoding="UTF-8" standalone="no"?>
<svg xmlns:dc="http://purl.org/dc/elements/1.1/"
     xmlns:cc="http://creativecommons.org/ns#"
     xmlns:rdf="http://www.w3.org/1999/02/22-rdf-syntax-ns#"
     xmlns:svg="http://www.w3.org/2000/svg"
     xmlns="http://www.w3.org/2000/svg"
     xmlns:xlink="http://www.w3.org/1999/xlink"
     width="128" height="128" version="1.1">
    <title>Invest Applet</title>
    <desc>This is shape (source) for Clarity vector icon theme for gtk</desc>
    <metadata>
        <rdf:RDF>
            <cc:Work rdf:about="">
                <dc:title>Invest Applet</dc:title>
                <dc:description>This is shape (source) for Clarity vector icon theme for gtk</dc:description>
                <dc:creator>
                    <cc:Agent>
                        <dc:title>Jakub Jankiewicz</dc:title>
                    </cc:Agent>
                </dc:creator>
                <dc:rights>
                    <cc:Agent>
                        <dc:title>Jakub Jankiewicz</dc:title>
                    </cc:Agent>
                </dc:rights>
                <dc:date>2010</dc:date>
                <dc:format>image/svg+xml</dc:format>
                <dc:type rdf:resource="http://purl.org/dc/dcmitype/StillImage" />
                <cc:license rdf:resource="http://creativecommons.org/licenses/by-sa/3.0/" />
             </cc:Work>
        </rdf:RDF>
    </metadata>
    <path d="m 15.625002,16.140625 0,95.718755 95.687498,0 0,-95.718755 z m 5.40625,5.40625 18.343746,0 0,16.46875 -18.343746,0 z m 24.562496,0 15.5,0 0,13.53125 0.65625,-1.5625 c 0.738328,-1.737033 3.238296,-2.411367 4.75,-1.28125 l 0.78125,0.59375 0,-11.28125 17.0625,0 0,16.46875 -10.09375,0 8.375,6.21875 1.71875,0 0,1.28125 6.1875,4.625 0,-5.90625 4.3125,0 2.59375,-6.21875 -6.90625,0 0,-16.46875 15.375002,0 0,15.96875 -2.65625,-5.28125 -2.53125,6.03125 -7.437502,17.78125 -25.59375,-19.03125 -3.0625,-2.28125 -1.46875,3.5 -14.0625,33.03125 -4.90625,-10.28125 -3.625,-7.625 -1.96875,8.21875 -4.374996,18 -12.9375,-23.78125 -0.25,0.125 0,-11.6875 18.343746,0 0,6.28125 c 1.447981,-0.600678 3.304022,0.09534 4,1.5 l 2.21875,4.65625 0,-12.4375 11.625,0 2.625,-6.21875 -14.25,0 z m 21.5625,22.53125 25.625,19.0625 3.09375,2.28125 1.46875,-3.53125 6.375002,-15.28125 2.1875,4.375 0,8.75 -4.28125,0 -1.40625,3.34375 0,0.03125 -1.187502,2.8125 6.875002,0 0,17.0625 -15.375002,0 0,-17.0625 0.75,0 -0.34375,-0.25 c -0.01047,-0.01034 -0.02087,-0.02076 -0.0312,-0.03125 l -7.9375,-5.90625 -15.6875,0 0,-8 -6.1875,14.59375 0,16.65625 -7.09375,0 -1.71875,4.09375 c -0.470674,1.093838 -1.613063,1.864056 -2.80358,1.890221 -1.190517,0.02617 -2.365643,-0.693118 -2.88392,-1.765221 l -2.875,-6.03125 -0.34375,-0.71875 -2.125,8.8125 c 5.2e-5,0.01042 5.2e-5,0.02083 0,0.03125 l -1.84375,7.5625 c -0.0099,0.03141 -0.02031,0.06267 -0.0312,0.09375 l 0,9.468755 -18.343746,0 0,-17.250005 8,0 -3.375,-6.1875 -4.625,0 0,-15.0625 11.625,21.375 3.71875,6.8125 1.843746,-7.5625 4.1875,-17.34375 4.125,8.625 2.875,6.03125 2.59375,-6.125 15.15625,-35.65625 z m -40.156246,15.65625 3.34375,6.1875 3.96875,0 1.25,-5.0625 0,-0.03125 0.25,-1.09375 z m 20.031246,0 1.90625,3.9375 1.6875,-3.9375 z m 20.25,6.1875 17.0625,0 0,17.0625 -17.0625,0 z m -21.6875,23.25 15.5,0 0,17.250005 -15.5,0 z m 21.6875,0 17.0625,0 0,17.250005 -17.0625,0 z m 23.25,0 15.375002,0 0,17.250005 -15.375002,0 z" style="fill:#aaaaaa"/>
</svg>