<?xml version="1.0" encoding="UTF-8" standalone="no"?>
<svg xmlns:dc="http://purl.org/dc/elements/1.1/"
     xmlns:cc="http://creativecommons.org/ns#"
     xmlns:rdf="http://www.w3.org/1999/02/22-rdf-syntax-ns#"
     xmlns:svg="http://www.w3.org/2000/svg"
     xmlns="http://www.w3.org/2000/svg"
     xmlns:xlink="http://www.w3.org/1999/xlink"
     width="128" height="128" version="1.1">
    <title>Joomla Icon</title>
    <desc>This is shape (source) for Clarity vector icon theme for gtk</desc>
    <metadata>
        <rdf:RDF>
            <cc:Work rdf:about="">
                <dc:title>Joomla Icon</dc:title>
                <dc:description>This is shape (source) for Clarity vector icon theme for gtk</dc:description>
                <dc:creator>
                    <cc:Agent>
                        <dc:title>Jakub Jankiewicz</dc:title>
                    </cc:Agent>
                </dc:creator>
                <dc:rights>
                    <cc:Agent>
                        <dc:title>Jakub Jankiewicz</dc:title>
                    </cc:Agent>
                </dc:rights>
                <dc:date>2010</dc:date>
                <dc:format>image/svg+xml</dc:format>
                <dc:type rdf:resource="http://purl.org/dc/dcmitype/StillImage" />
                <cc:license rdf:resource="http://creativecommons.org/licenses/by-sa/3.0/" />
             </cc:Work>
        </rdf:RDF>
    </metadata>
    <path d="m 12.967068,12.616707 c -5.9434084,5.943408 -5.9434084,15.558896 0,21.502303 2.553981,2.553983 5.797746,4.005524 9.129468,4.364527 -2.296784,8.164723 0.372082,17.629983 6.907169,24.165064 L 52.367935,86.012836 62.618568,75.762203 39.254338,52.39797 C 34.84581,47.989444 34.918637,42.478879 37.592613,39.804908 l 2.222308,-2.222306 c 2.673967,-2.67397 8.164512,-2.726781 12.573037,1.681745 l 0.360367,0.360374 10.250634,-10.250632 -0.360376,-0.360374 C 56.204319,22.579444 46.944948,19.881253 38.873939,21.986426 38.564247,18.563212 37.109895,15.217186 34.489393,12.596687 28.545984,6.6532798 18.910477,6.6733005 12.967068,12.61671 z m 16.036637,52.754719 c -6.434272,6.43427 -9.132467,15.693645 -7.027291,23.764653 -3.423214,0.309702 -6.769243,1.764041 -9.389736,4.384543 -5.9434088,5.943402 -5.9233944,15.578918 0.02002,21.522328 5.943409,5.9434 15.558893,5.9434 21.502302,0 2.553981,-2.55399 4.005514,-5.79775 4.364522,-9.12948 8.164729,2.2968 17.62998,-0.37207 24.165067,-6.907157 L 86.002825,75.642079 75.752192,65.391447 52.387958,88.75568 c -4.408525,4.408525 -9.919084,4.335689 -12.59306,1.661722 L 37.57259,88.195097 C 34.898623,85.52113 34.84581,80.030585 39.254338,75.622058 L 39.614714,75.261684 29.364081,65.011052 29.003705,65.371426 z M 41.997182,52.377949 52.247812,62.628581 75.612046,39.264347 c 4.408519,-4.408526 9.919087,-4.335695 12.593055,-1.661724 l 2.222308,2.222305 c 2.673976,2.673972 2.72678,8.164516 -1.68174,12.573042 l -0.360376,0.360373 10.250632,10.250633 0.360376,-0.360375 c 6.434269,-6.43427 9.132459,-15.693643 7.027279,-23.764649 3.42322,-0.309696 6.76925,-1.764047 9.38975,-4.384547 5.94341,-5.943407 5.92338,-15.578917 -0.02,-21.522323 -5.9434,-5.9434073 -15.558897,-5.9434073 -21.502304,0 -2.553981,2.553982 -4.005524,5.797741 -4.364523,9.129469 -8.16472,-2.296787 -17.629983,0.372082 -24.165061,6.907164 L 41.997173,52.377949 z m 23.36423,-0.140146 23.364234,23.364234 c 4.408528,4.408525 4.335692,9.919093 1.661725,12.59306 l -2.222308,2.222305 c -2.673967,2.673967 -8.164512,2.72678 -12.573041,-1.681745 l -0.360376,-0.360367 -10.250633,10.250623 0.360376,0.360376 c 6.434272,6.434271 15.693647,9.132471 23.764647,7.027291 0.309701,3.42322 1.764053,6.76924 4.384555,9.38974 5.943407,5.9434 15.578919,5.92338 21.522319,-0.02 5.9434,-5.94341 5.9434,-15.558899 0,-21.50231 -2.55399,-2.553972 -5.79773,-4.005506 -9.12946,-4.364514 2.29678,-8.164716 -0.37209,-17.629976 -6.907173,-24.165061 L 75.612046,41.987171 65.361412,52.237803 z" style="fill:#aaaaaa"/>
</svg>