<?xml version="1.0" encoding="UTF-8" standalone="no"?>
<svg xmlns:dc="http://purl.org/dc/elements/1.1/"
     xmlns:cc="http://creativecommons.org/ns#"
     xmlns:rdf="http://www.w3.org/1999/02/22-rdf-syntax-ns#"
     xmlns:svg="http://www.w3.org/2000/svg"
     xmlns="http://www.w3.org/2000/svg"
     xmlns:xlink="http://www.w3.org/1999/xlink"
     width="128" height="128" version="1.1">
    <title>Equation Icon</title>
    <desc>This is shape (source) for Clarity vector icon theme for gtk</desc>
    <metadata>
        <rdf:RDF>
            <cc:Work rdf:about="">
                <dc:title>Equation Icon</dc:title>
                <dc:description>This is shape (source) for Clarity vector icon theme for gtk</dc:description>
                <dc:creator>
                    <cc:Agent>
                        <dc:title>Jakub Jankiewicz</dc:title>
                    </cc:Agent>
                </dc:creator>
                <dc:rights>
                    <cc:Agent>
                        <dc:title>Jakub Jankiewicz</dc:title>
                    </cc:Agent>
                </dc:rights>
                <dc:date>2010</dc:date>
                <dc:format>image/svg+xml</dc:format>
                <dc:type rdf:resource="http://purl.org/dc/dcmitype/StillImage" />
                <cc:license rdf:resource="http://creativecommons.org/licenses/by-sa/3.0/" />
             </cc:Work>
        </rdf:RDF>
    </metadata>
    <path d="m 70.622741,17.877339 c -0.649788,0 -1.230149,0.352534 -1.498001,0.946106 3e-6,0 -23.719684,52.47057 -26.017911,57.554773 C 40.593659,72.403444 31.595874,58.16568 31.595874,58.16568 31.293299,57.684542 30.743829,57.377259 30.176715,57.377259 l -18.843275,0 c -0.914332,2e-6 -1.6556852,0.741356 -1.6556852,1.655685 l 0,13.245482 c 0,0.91433 0.7413532,1.655686 1.6556852,1.655686 l 10.643691,0 c 0.930865,1.474835 21.918119,34.611708 21.918119,34.611708 0.325721,0.51586 0.892857,0.75092 1.498001,0.70958 0.606797,-0.043 1.167841,-0.39223 1.419159,-0.94611 0,0 32.572614,-72.059143 33.429074,-73.953941 l 36.425076,0 c 0.91433,3e-6 1.65569,-0.741353 1.65569,-1.655685 l 0,-13.16664 c 0,-0.914329 -0.74136,-1.655685 -1.65569,-1.655685 l -46.043819,0 z m -54.322245,1.576843 c -1.225084,3e-5 -2.179291,0.240942 -2.996002,0.788422 -0.816722,0.54754 -1.26148,1.204566 -1.261475,1.971054 -5e-6,3.03871 -0.10836,7.627492 -0.39421,13.718535 -0.285855,6.09107 -0.473058,10.679852 -0.473053,13.718535 -5e-6,0.780204 0.389157,1.444348 1.10379,2.128738 0.9188,0.876016 2.171399,1.340314 3.784423,1.340317 1.367991,-3e-6 2.439049,-0.326874 3.153687,-1.024948 0.510435,-0.50645 0.709566,-1.053423 0.709579,-1.655686 l 0.07884,-8.672637 c 5.165718,3.353511 8.387986,5.383176 9.776427,6.149688 4.655263,2.559615 8.433477,3.863266 11.353271,3.863266 1.34755,0 2.398187,-0.364652 3.153686,-1.10379 0.551247,-0.54751 0.867226,-1.145951 0.867264,-1.734528 -3.8e-5,-1.327712 -1.126689,-2.215245 -3.311371,-2.680633 -1.20469,-0.260063 -2.270089,-0.597336 -3.31137,-1.10379 -2.082657,-1.040265 -4.482324,-2.405783 -7.095794,-4.02095 -2.245995,-1.409829 -4.47605,-2.76878 -6.701583,-4.178634 3.981475,-2.545911 7.75969,-5.190988 11.35327,-7.805374 4.859434,-3.558798 7.332285,-5.695229 7.33232,-6.543899 -3.5e-5,-0.780176 -0.46238,-1.502355 -1.340316,-2.049896 -0.857586,-0.547482 -1.832211,-0.788391 -2.996002,-0.788421 -1.225106,3e-5 -2.372175,0.340588 -3.311371,1.024948 -9.16767,6.707033 -14.418032,10.528738 -15.847273,11.432112 0.04082,-0.889685 0.169593,-2.609453 0.394211,-5.045898 0.183746,-2.094206 0.236526,-3.73513 0.236526,-4.967055 -1.2e-5,-0.766488 -0.365928,-1.423514 -1.182632,-1.971054 -0.796311,-0.54748 -1.849778,-0.788392 -3.074844,-0.788422 z m 81.522789,21.839277 c -1.905397,6.8e-5 -6.721333,5.727932 -14.506957,17.266432 -5.716084,8.463684 -10.446608,15.954872 -14.191588,22.470015 -3.219404,0.700257 -4.809384,2.34337 -4.809371,4.809371 -1.3e-5,1.035143 0.229941,1.889091 0.788421,2.680633 -4.960493,9.650999 -7.41117,15.25319 -7.411162,16.71454 -8e-6,1.30913 0.479615,2.34963 1.498001,3.23253 1.051219,0.88289 2.233851,1.34031 3.547897,1.34031 1.806787,0 3.285073,-0.81804 4.336318,-2.52295 3.974939,-7.672065 6.7147,-13.514677 8.357269,-17.502955 l 13.16664,-2.522949 c 5.420356,-1.095989 9.8158,-1.860173 13.166637,-2.286423 1.28114,6.850087 2.29951,11.688099 3.15369,14.428115 2.23381,7.184962 4.86187,10.722532 7.88421,10.722532 1.31398,0 2.52946,-0.45742 3.5479,-1.34032 1.01831,-0.88289 1.49794,-1.9234 1.498,-3.23252 -6e-5,-0.82201 -0.46655,-2.50103 -1.41916,-4.96706 l -2.83831,-7.174636 -7.33232,-31.773389 -3.07485,-15.37422 c -0.95272,-3.348857 -2.76609,-4.966988 -5.361265,-4.967056 z m -2.365265,16.635695 3.942108,17.660643 c -8.081361,1.3396 -14.07993,2.446456 -18.054854,3.390213 L 95.45802,57.929154 z" style="fill:#aaaaaa"/>
</svg>