<?xml version="1.0" encoding="UTF-8" standalone="no"?>
<svg xmlns:dc="http://purl.org/dc/elements/1.1/"
     xmlns:cc="http://creativecommons.org/ns#"
     xmlns:rdf="http://www.w3.org/1999/02/22-rdf-syntax-ns#"
     xmlns:svg="http://www.w3.org/2000/svg"
     xmlns="http://www.w3.org/2000/svg"
     xmlns:xlink="http://www.w3.org/1999/xlink"
     width="128" height="128" version="1.1">
    <title>Kishsen Icon</title>
    <desc>This is shape (source) for Clarity vector icon theme for gtk</desc>
    <metadata>
        <rdf:RDF>
            <cc:Work rdf:about="">
                <dc:title>Kishsen Icon</dc:title>
                <dc:description>This is shape (source) for Clarity vector icon theme for gtk</dc:description>
                <dc:creator>
                    <cc:Agent>
                        <dc:title>Jakub Jankiewicz</dc:title>
                    </cc:Agent>
                </dc:creator>
                <dc:rights>
                    <cc:Agent>
                        <dc:title>Jakub Jankiewicz</dc:title>
                    </cc:Agent>
                </dc:rights>
                <dc:date>2010</dc:date>
                <dc:format>image/svg+xml</dc:format>
                <dc:type rdf:resource="http://purl.org/dc/dcmitype/StillImage" />
                <cc:license rdf:resource="http://creativecommons.org/licenses/by-sa/3.0/" />
             </cc:Work>
        </rdf:RDF>
    </metadata>
    <path d="m 85.28125,5.078125 c -4.381802,0 -8.03125,3.6181977 -8.03125,8 l 0,13.3125 c -0.65049,-0.175013 -1.329934,-0.28125 -2.03125,-0.28125 l -23.03125,0 c -4.381802,0 -8,3.649448 -8,8.03125 l 0,35.0625 c 0,1.024329 0.203513,2.001847 0.5625,2.90625 -0.641958,-0.170148 -1.308842,-0.28125 -2,-0.28125 l -23.03125,0 c -4.381802,0 -8.03125,3.649448 -8.03125,8.03125 l 0,35.031255 c 0,4.38179 3.649448,8.03125 8.03125,8.03125 l 23.03125,0 c 4.381802,0 8,-3.64946 8,-8.03125 l 0,-35.031255 c 0,-1.034951 -0.196416,-2.022698 -0.5625,-2.9375 0.641958,0.168838 1.308842,0.28125 2,0.28125 l 23.03125,0 c 0.701316,0 1.38076,-0.107582 2.03125,-0.28125 l 0,15.71875 c 0,4.381802 3.649448,8.031255 8.03125,8.031255 l 23.03125,0 c 4.3818,0 8,-3.649453 8,-8.031255 l 0,-35.03125 c 0,-1.768057 -0.60311,-3.412053 -1.59375,-4.75 0.9858,-1.329959 1.59375,-2.955467 1.59375,-4.71875 l 0,-35.0625 c 0,-4.3818023 -3.6182,-8 -8,-8 l -23.03125,0 z m 0,6.5625 23.03125,0 c 0.85593,0 1.4375,0.581568 1.4375,1.4375 l 0,35.0625 c 0,0.855932 -0.58157,1.4375 -1.4375,1.4375 l -23.03125,0 c -0.855932,0 -1.4375,-0.581568 -1.4375,-1.4375 l 0,-35.0625 c 0,-0.855932 0.581568,-1.4375 1.4375,-1.4375 z m 11.59375,4.34375 a 1.9710467,1.9710467 0 0 0 -1.75,2 l 0,14.34375 -7.125,0 a 1.9710467,1.9710467 0 0 0 -0.1875,0 1.9710467,1.9710467 0 0 0 0.1875,3.9375 l 7.125,0 0,7.125 a 1.9710467,1.9710467 0 1 0 3.9375,0 l 0,-16.21875 6.34375,0 a 1.9710467,1.9710467 0 1 0 0,-3.9375 l -6.34375,0 0,-5.25 a 1.9710467,1.9710467 0 0 0 -2,-2 1.9710467,1.9710467 0 0 0 -0.1875,0 z m -44.6875,16.71875 23.03125,0 c 0.855932,0 1.4375,0.581568 1.4375,1.4375 l 0,35.0625 c 0,0.855932 -0.581568,1.4375 -1.4375,1.4375 l -23.03125,0 c -0.855932,0 -1.4375,-0.581568 -1.4375,-1.4375 l 0,-35.0625 c 0,-0.855932 0.581568,-1.4375 1.4375,-1.4375 z m 11.78125,4.15625 a 1.9710467,1.9710467 0 0 0 -1.75,2 l 0,14.34375 -7.125,0 a 1.9710467,1.9710467 0 0 0 -0.1875,0 1.9710467,1.9710467 0 0 0 0.1875,3.9375 l 7.125,0 0,7.125 a 1.9710467,1.9710467 0 1 0 3.9375,0 l 0,-16.21875 6.34375,0 a 1.9710467,1.9710467 0 1 0 0,-3.9375 l -6.34375,0 0,-5.25 a 1.9710467,1.9710467 0 0 0 -2.1875,-2 z m 21.3125,19.28125 23.03125,0 c 0.85593,0 1.4375,0.612818 1.4375,1.46875 l 0,35.03125 c 0,0.855932 -0.58157,1.4375 -1.4375,1.4375 l -23.03125,0 c -0.855932,0 -1.4375,-0.581568 -1.4375,-1.4375 l 0,-35.03125 c 0,-0.855932 0.581568,-1.46875 1.4375,-1.46875 z m 3.875,4.28125 a 1.9710467,1.9710467 0 0 0 0.1875,3.9375 l 14.96875,0 a 1.9710467,1.9710467 0 1 0 0,-3.9375 l -14.96875,0 a 1.9710467,1.9710467 0 0 0 -0.1875,0 z m 0,7.4375 a 1.9710467,1.9710467 0 0 0 0.1875,3.9375 l 14.96875,0 a 1.9710467,1.9710467 0 1 0 0,-3.9375 l -14.96875,0 a 1.9710467,1.9710467 0 0 0 -0.1875,0 z m 0,7.46875 a 1.9710467,1.9710467 0 0 0 0.1875,3.9375 l 14.96875,0 a 1.9710467,1.9710467 0 1 0 0,-3.9375 l -14.96875,0 a 1.9710467,1.9710467 0 0 0 -0.1875,0 z m -69.4375,3.09375 23.03125,0 c 0.855932,0 1.4375,0.581568 1.4375,1.4375 l 0,35.031255 c 0,0.85593 -0.581568,1.46875 -1.4375,1.46875 l -23.03125,0 c -0.855932,0 -1.4375,-0.61282 -1.4375,-1.46875 l 0,-35.031255 c 0,-0.855932 0.581568,-1.4375 1.4375,-1.4375 z M 23.5,81.828125 a 1.9710467,1.9710467 0 0 0 0.1875,3.9375 l 14.96875,0 a 1.9710467,1.9710467 0 1 0 0,-3.9375 l -14.96875,0 a 1.9710467,1.9710467 0 0 0 -0.1875,0 z m 0,7.4375 a 1.9710467,1.9710467 0 0 0 0.1875,3.9375 l 14.96875,0 a 1.9710467,1.9710467 0 1 0 0,-3.9375 l -14.96875,0 a 1.9710467,1.9710467 0 0 0 -0.1875,0 z m 0,7.4375 a 1.9865883,1.9865883 0 1 0 0.1875,3.968755 l 14.96875,0 a 1.984375,1.984375 0 0 0 0,-3.968755 l -14.96875,0 a 1.984375,1.984375 0 0 0 -0.1875,0 z" style="fill:#aaaaaa"/>
</svg>