<?xml version="1.0" encoding="UTF-8" standalone="no"?>
<!-- Created with Inkscape (http://www.inkscape.org/) -->

<svg
   xmlns:dc="http://purl.org/dc/elements/1.1/"
   xmlns:cc="http://creativecommons.org/ns#"
   xmlns:rdf="http://www.w3.org/1999/02/22-rdf-syntax-ns#"
   xmlns:svg="http://www.w3.org/2000/svg"
   xmlns="http://www.w3.org/2000/svg"
   version="1.1"
   width="128"
   height="128"
   viewBox="0 0 128 128">
  <metadata>
    <rdf:RDF>
        <cc:Work rdf:about="">
            <dc:title>Kupfer Icons</dc:title>
            <dc:description>This is shape (source) for Clarity vector icon theme for gtk</dc:description>
            <dc:creator>
                <cc:Agent>
                    <dc:title>ShadowKyogre</dc:title>
                </cc:Agent>
            </dc:creator>
            <dc:rights>
                <cc:Agent>
                    <dc:title>ShadowKyogre</dc:title>
                </cc:Agent>
            </dc:rights>
            <dc:date>2016</dc:date>
            <dc:format>image/svg+xml</dc:format>
            <dc:type rdf:resource="http://purl.org/dc/dcmitype/StillImage" />
            <cc:license rdf:resource="http://creativecommons.org/licenses/by-sa/3.0/" />
         </cc:Work>
    </rdf:RDF>
  </metadata>
    <path d="M 64,7.8652344 A 38.508476,38.508476 0 0 0 25.492188,46.373047 38.508476,38.508476 0 0 0 55.136719,83.800781 c 0.200911,1.366219 0.424348,2.729794 0.640625,4.107422 l -6.91211,0 c -1.6066,0 -2.898437,1.293791 -2.898437,2.900391 l 0,6.675781 c 0,1.6066 1.291837,2.898435 2.898437,2.898435 l 9.056641,0 C 60.180157,112.3738 62.61233,122.08594 64,122.08594 c 1.387668,0 3.817916,-9.71215 6.076172,-21.70313 l 9.058594,0 c 1.6066,0 2.898437,-1.291835 2.898437,-2.898435 l 0,-6.675781 c 0,-1.6066 -1.291837,-2.900391 -2.898437,-2.900391 l -6.91211,0 c 0.21609,-1.376444 0.437919,-2.738451 0.638672,-4.103515 A 38.508476,38.508476 0 0 0 102.50781,46.373047 38.508476,38.508476 0 0 0 64,7.8652344 Z m 0,8.6777346 a 24.406778,27.38983 0 0 1 24.40625,27.388672 24.406778,27.38983 0 0 1 -13.632812,24.558593 24.406778,27.38983 0 0 1 -2.220704,1.078125 24.406778,27.38983 0 0 1 -0.15625,0.05859 24.406778,27.38983 0 0 1 -2.130859,0.763672 24.406778,27.38983 0 0 1 -0.474609,0.119141 24.406778,27.38983 0 0 1 -1.863282,0.443359 24.406778,27.38983 0 0 1 -0.859375,0.117187 24.406778,27.38983 0 0 1 -1.566406,0.19336 A 24.406778,27.38983 0 0 1 64,71.322266 24.406778,27.38983 0 0 1 53.224609,68.470703 24.406778,27.38983 0 0 1 39.59375,43.931641 24.406778,27.38983 0 0 1 64,16.542969 Z" style="fill:#aaaaaa" />
</svg>
