<?xml version="1.0" encoding="UTF-8" standalone="no"?>
<svg xmlns:dc="http://purl.org/dc/elements/1.1/"
     xmlns:cc="http://creativecommons.org/ns#"
     xmlns:rdf="http://www.w3.org/1999/02/22-rdf-syntax-ns#"
     xmlns:svg="http://www.w3.org/2000/svg"
     xmlns="http://www.w3.org/2000/svg"
     xmlns:xlink="http://www.w3.org/1999/xlink"
     width="128" height="128" version="1.1">
    <title>Makehuman Logo</title>
    <desc>This is shape (source) for Clarity vector icon theme for gtk</desc>
    <metadata>
        <rdf:RDF>
            <cc:Work rdf:about="">
                <dc:title>Makehuman Logo</dc:title>
                <dc:description>This is shape (source) for Clarity vector icon theme for gtk</dc:description>
                <dc:creator>
                    <cc:Agent>
                        <dc:title>Jakub Jankiewicz</dc:title>
                    </cc:Agent>
                </dc:creator>
                <dc:rights>
                    <cc:Agent>
                        <dc:title>Jakub Jankiewicz</dc:title>
                    </cc:Agent>
                </dc:rights>
                <dc:date>2010</dc:date>
                <dc:format>image/svg+xml</dc:format>
                <dc:type rdf:resource="http://purl.org/dc/dcmitype/StillImage" />
                <cc:license rdf:resource="http://creativecommons.org/licenses/by-sa/3.0/" />
             </cc:Work>
        </rdf:RDF>
    </metadata>
    <path d="m 64,7.52329 c -31.164484,0 -56.47671,25.340143 -56.47671,56.504627 0,31.164486 25.312226,56.448793 56.47671,56.448793 31.164477,0 56.47671,-25.284307 56.47671,-56.448793 C 120.47671,32.863433 95.164477,7.52329 64,7.52329 z m 0,5.38804 c 28.267661,0 51.1445,22.848929 51.1445,51.116587 C 115.1445,92.295579 92.267661,115.1445 64,115.1445 35.732341,115.1445 12.883413,92.295579 12.883413,64.027917 12.883413,35.760259 35.732341,12.91133 64,12.91133 z m 0,13.763232 c -2.882903,0 -5.220536,2.337633 -5.220536,5.220536 0,2.882903 2.337633,5.220536 5.220536,5.220536 2.882903,0 5.220536,-2.337633 5.220536,-5.220536 0,-2.882903 -2.337633,-5.220536 -5.220536,-5.220536 z m -35.343309,4.410934 21.691746,14.070322 11.250675,64.628562 0,-50.586157 4.801776,0 0,50.586157 11.250675,-64.628562 21.691746,-14.070322 -32.942421,12.060276 0,10.441073 -4.801776,0 0,-10.441073 -32.942421,-12.060276 z" style="fill:#aaaaaa"/>
</svg>