<?xml version="1.0" encoding="UTF-8" standalone="no"?>
<svg xmlns:dc="http://purl.org/dc/elements/1.1/"
     xmlns:cc="http://creativecommons.org/ns#"
     xmlns:rdf="http://www.w3.org/1999/02/22-rdf-syntax-ns#"
     xmlns:svg="http://www.w3.org/2000/svg"
     xmlns="http://www.w3.org/2000/svg"
     xmlns:xlink="http://www.w3.org/1999/xlink"
     width="128" height="128" version="1.1">
    <title>Midori Icon</title>
    <desc>This is shape (source) for Clarity vector icon theme for gtk</desc>
    <metadata>
        <rdf:RDF>
            <cc:Work rdf:about="">
                <dc:title>Midori Icon</dc:title>
                <dc:description>This is shape (source) for Clarity vector icon theme for gtk</dc:description>
                <dc:creator>
                    <cc:Agent>
                        <dc:title>Jakub Jankiewicz</dc:title>
                    </cc:Agent>
                </dc:creator>
                <dc:rights>
                    <cc:Agent>
                        <dc:title>Jakub Jankiewicz</dc:title>
                    </cc:Agent>
                </dc:rights>
                <dc:date>2010</dc:date>
                <dc:format>image/svg+xml</dc:format>
                <dc:type rdf:resource="http://purl.org/dc/dcmitype/StillImage" />
                <cc:license rdf:resource="http://creativecommons.org/licenses/by-sa/3.0/" />
             </cc:Work>
        </rdf:RDF>
    </metadata>
    <path d="M 82.864011,9.3171195 C 63.371704,15.182187 44.45714,24.656667 29.986966,39.20288 22.420911,46.973508 16.285265,56.370838 14.188308,67.639588 c -1.663679,10.474024 -1.712292,19.904454 2.410151,28.711003 1.13813,3.142841 6.769059,7.876159 8.885714,5.483319 -1.292782,-11.640972 -1.019234,-25.009611 7.139303,-34.270371 4.444595,-4.317477 11.578794,2.658714 7.362784,7.175286 -5.165256,7.562852 -4.728098,17.350911 -4.297655,26.110975 0.04598,5.54463 2.906323,11.27638 7.464644,14.66968 5.366187,3.01302 12.434921,4.43231 18.190369,1.72413 1.122331,-4.08522 -4.093913,-9.91021 -3.748956,-15.11749 -0.853655,-8.472964 1.722851,-16.948753 5.043797,-24.629383 2.591718,-4.167721 9.193017,-1.690315 9.292776,2.907078 -0.819977,4.734899 -3.282146,9.156539 -3.905195,14.002205 -1.863083,7.23908 2.921682,17.91683 4.438816,19.73417 2.794007,3.41806 8.304003,5.08699 12.789334,3.3969 7.093307,-2.05204 10.787304,-9.17036 14.466351,-14.97084 10.092009,-18.93649 13.945529,-40.581473 14.927999,-61.832846 0.40232,-5.060466 -0.2762,-10.192926 0.19632,-15.211811 0.37527,-2.237999 -3.60244,3.69535 -5.20628,4.648331 C 98.693803,40.464968 85.784435,49.336883 71.128419,53.263884 65.419106,54.727546 57.274856,55.096454 54.181284,48.931108 50.642703,41.235741 56.050368,33.267863 60.970765,27.6034 67.30359,20.461742 74.973299,14.6229 82.864011,9.3171195 z" style="fill:#aaaaaa"/>
</svg>