<?xml version="1.0" encoding="UTF-8" standalone="no"?>
<svg xmlns:dc="http://purl.org/dc/elements/1.1/"
     xmlns:cc="http://creativecommons.org/ns#"
     xmlns:rdf="http://www.w3.org/1999/02/22-rdf-syntax-ns#"
     xmlns:svg="http://www.w3.org/2000/svg"
     xmlns="http://www.w3.org/2000/svg"
     xmlns:xlink="http://www.w3.org/1999/xlink"
     width="128" height="128" version="1.1">
    <title>Miro Icon</title>
    <desc>This is shape (source) for Clarity vector icon theme for gtk</desc>
    <metadata>
        <rdf:RDF>
            <cc:Work rdf:about="">
                <dc:title>Miro Icon</dc:title>
                <dc:description>This is shape (source) for Clarity vector icon theme for gtk</dc:description>
                <dc:creator>
                    <cc:Agent>
                        <dc:title>Jakub Jankiewicz</dc:title>
                    </cc:Agent>
                </dc:creator>
                <dc:rights>
                    <cc:Agent>
                        <dc:title>Jakub Jankiewicz</dc:title>
                    </cc:Agent>
                </dc:rights>
                <dc:date>2010</dc:date>
                <dc:format>image/svg+xml</dc:format>
                <dc:type rdf:resource="http://purl.org/dc/dcmitype/StillImage" />
                <cc:license rdf:resource="http://creativecommons.org/licenses/by-sa/3.0/" />
             </cc:Work>
        </rdf:RDF>
    </metadata>
    <path d="M 77.814636,23.321661 C 46.098146,23.609685 18.728184,53.648235 8.8470882,82.967571 88.35195,138.14416 131.04676,75.06516 116.25157,38.471933 103.29653,27.649157 90.225434,23.208952 77.814636,23.321661 z M 41.89462,48.825428 c -1.1e-5,0 28.206928,0.08366 41.832315,0.08366 13.625381,0 12.18715,13.58155 12.18715,13.58155 l 0,24.464934 -12.270817,0 c 0,0 0,-22.99282 0,-25.622285 0,-4.66558 -8.519844,-5.645106 -8.519844,0 l 0,25.420103 -12.312646,0 c 0,0 -10e-6,-20.475927 0,-25.336446 0,-4.978084 -8.484995,-4.916759 -8.484995,0 l 0,25.336446 -12.431163,0 0,-37.927971 z" style="fill:#aaaaaa"/>
</svg>