<?xml version="1.0" encoding="UTF-8" standalone="no"?>
<svg xmlns:dc="http://purl.org/dc/elements/1.1/"
     xmlns:cc="http://creativecommons.org/ns#"
     xmlns:rdf="http://www.w3.org/1999/02/22-rdf-syntax-ns#"
     xmlns:svg="http://www.w3.org/2000/svg"
     xmlns="http://www.w3.org/2000/svg"
     xmlns:xlink="http://www.w3.org/1999/xlink"
     width="128" height="128" version="1.1">
    <title>Mono Logo</title>
    <desc>This is shape (source) for Clarity vector icon theme for gtk</desc>
    <metadata>
        <rdf:RDF>
            <cc:Work rdf:about="">
                <dc:title>Mono Logo</dc:title>
                <dc:description>This is shape (source) for Clarity vector icon theme for gtk</dc:description>
                <dc:creator>
                    <cc:Agent>
                        <dc:title>Jakub Jankiewicz</dc:title>
                    </cc:Agent>
                </dc:creator>
                <dc:rights>
                    <cc:Agent>
                        <dc:title>Jakub Jankiewicz</dc:title>
                    </cc:Agent>
                </dc:rights>
                <dc:date>2010</dc:date>
                <dc:format>image/svg+xml</dc:format>
                <dc:type rdf:resource="http://purl.org/dc/dcmitype/StillImage" />
                <cc:license rdf:resource="http://creativecommons.org/licenses/by-sa/3.0/" />
             </cc:Work>
        </rdf:RDF>
    </metadata>
    <path d="m 55.9375,19.6875 c -1.495371,0.0046 -2.843048,0.03549 -4,0.15625 -4.00102,0.417626 -8.125338,1.41814 -9.40625,2.25 -0.361034,0.234467 2.244871,0.870515 6.6875,1.6875 3.988302,0.733435 6.873558,1.414814 6.4375,1.5 C 55.220191,25.36644 48.973711,24.67692 41.75,23.75 29.068214,22.122721 28.570801,22.106872 27.6875,22.90625 c -1.841649,1.666668 -4.485735,6.218637 -5.03125,8.65625 -0.528149,2.360032 -0.487544,2.629543 0.6875,5.03125 2.002846,4.09367 5.712806,7.057406 14.1875,11.34375 4.007401,2.026871 7.21252,3.78748 7.09375,3.90625 C 44.50623,51.96252 41.061085,50.679387 37,49 L 29.625,45.96875 18.78125,49 C 13.56694,50.459188 8.4811896,51.622289 7.0625,51.90625 l 0,62.71875 c 0,3.49529 3.407854,6.3125 7.625,6.3125 l 1.90625,0 C 20.574798,115.57597 40.548634,91.308609 41,91.40625 c 0.286344,0.06194 10.901282,4.579242 23.59375,10.03125 21.677198,9.31136 23.101354,9.8792 23.6875,9.09375 0.886452,-1.18786 3.947515,-7.58049 5.5625,-11.625 l 1.375,-3.4375 -2.3125,-1.25 C 89.635067,92.429887 84.848115,88.422014 81.84375,85 c -2.741579,-3.122699 -7.6875,-10.632858 -7.6875,-11.6875 0,-0.349083 1.579531,1.242303 3.5,3.53125 5.394352,6.429371 17.813083,16.462998 18.59375,15.03125 0.926384,-1.698992 1.529681,-6.688225 1.5,-12.5 -0.03625,-7.095053 -0.964037,-12.625902 -3.40625,-20.25 l -1.375,-4.28125 -6.78125,-2.125 c -3.721342,-1.169782 -7.443036,-2.330246 -8.28125,-2.59375 -2.923216,-0.91895 -1.092131,-0.893146 3.1875,0.0625 5.117008,1.142633 10.312772,2.126154 13.53125,2.53125 2.833814,0.356683 3.446964,-0.189995 3.75,-3.34375 0.386368,-4.02105 -2.194608,-15.127183 -4.8125,-20.65625 -1.044833,-2.206722 -1.533152,-2.69857 -3.625,-3.65625 -6.092927,-2.789433 -23.532401,-5.407127 -34,-5.375 z" style="fill:#aaaaaa"/>
</svg>