<?xml version="1.0" encoding="UTF-8" standalone="no"?>
<svg xmlns:dc="http://purl.org/dc/elements/1.1/"
     xmlns:cc="http://creativecommons.org/ns#"
     xmlns:rdf="http://www.w3.org/1999/02/22-rdf-syntax-ns#"
     xmlns:svg="http://www.w3.org/2000/svg"
     xmlns="http://www.w3.org/2000/svg"
     xmlns:xlink="http://www.w3.org/1999/xlink"
     width="128" height="128" version="1.1">
    <title>Magic Wand Icon</title>
    <desc>This is shape (source) for Clarity vector icon theme for gtk</desc>
    <metadata>
        <rdf:RDF>
            <cc:Work rdf:about="">
                <dc:title>Magic Wand Icon</dc:title>
                <dc:description>This is shape (source) for Clarity vector icon theme for gtk</dc:description>
                <dc:creator>
                    <cc:Agent>
                        <dc:title>Jakub Jankiewicz</dc:title>
                    </cc:Agent>
                </dc:creator>
                <dc:rights>
                    <cc:Agent>
                        <dc:title>Jakub Jankiewicz</dc:title>
                    </cc:Agent>
                </dc:rights>
                <dc:date>2010</dc:date>
                <dc:format>image/svg+xml</dc:format>
                <dc:type rdf:resource="http://purl.org/dc/dcmitype/StillImage" />
                <cc:license rdf:resource="http://creativecommons.org/licenses/by-sa/3.0/" />
             </cc:Work>
        </rdf:RDF>
    </metadata>
    <path d="m 27.220674,9.68942 -7.34375,11.1875 -13.0000003,3.3125 8.4062503,10.4375 -0.875,13.375 12.53125,-4.75 12.4375,4.9375 -0.65625,-13.375 8.5625,-10.28125 -12.9375,-3.53125 -7.125,-11.3125 z m 49.28125,3.25 -5.46875,8.40625 -9.75,2.46875 6.3125,7.8125 -0.65625,10.03125 9.375,-3.5625 9.3125,3.71875 -0.46875,-10.03125 6.40625,-7.71875 -9.6875,-2.625 -5.375,-8.5 z m -25.65625,29.34375 c -0.826781,0 -1.62756,0.315062 -2.25,0.9375 l -2.5625,2.5625 c -1.24487,1.244876 -1.24487,3.317624 0,4.5625 l 67.031246,67.03125 c 1.24487,1.24488 3.31762,1.24488 4.5625,0 l 2.5625,-2.5625 c 1.24487,-1.24487 1.24487,-3.28637 0,-4.53125 L 53.126924,43.22067 c -0.622435,-0.622438 -1.454469,-0.9375 -2.28125,-0.9375 z m 0,2.3125 c 0.228549,0 0.47253,0.06628 0.65625,0.25 l 12.625,12.625 -3.84375,3.84375 -12.625,-12.625 c -0.36744,-0.367436 -0.36744,-0.913817 0,-1.28125 l 2.5625,-2.5625 c 0.183715,-0.183717 0.396451,-0.25 0.625,-0.25 z m -14.09375,24.28125 -4.6875,7.1875 -8.3125,2.09375 5.375,6.6875 -0.5625,8.5625 8.03125,-3.03125 7.96875,3.15625 -0.4375,-8.5625 5.5,-6.59375 -8.28125,-2.25 -4.59375,-7.25 z m 69.187496,30.40625 12.59375,12.625 c 0.36744,0.36743 0.36744,0.91381 0,1.28125 l -2.5625,2.5625 c -0.36743,0.36743 -0.91382,0.36743 -1.28125,0 l -12.59375,-12.625 3.84375,-3.84375 z" style="fill:#aaaaaa"/>
</svg>