<?xml version="1.0" encoding="UTF-8" standalone="no"?>
<svg xmlns:dc="http://purl.org/dc/elements/1.1/"
     xmlns:cc="http://creativecommons.org/ns#"
     xmlns:rdf="http://www.w3.org/1999/02/22-rdf-syntax-ns#"
     xmlns:svg="http://www.w3.org/2000/svg"
     xmlns="http://www.w3.org/2000/svg"
     xmlns:xlink="http://www.w3.org/1999/xlink"
     width="128" height="128" version="1.1">
    <title>OpenOffice Writer Icon</title>
    <desc>This is shape (source) for Clarity vector icon theme for gtk</desc>
    <metadata>
        <rdf:RDF>
            <cc:Work rdf:about="">
                <dc:title>OpenOffice Writer Icon</dc:title>
                <dc:description>This is shape (source) for Clarity vector icon theme for gtk</dc:description>
                <dc:creator>
                    <cc:Agent>
                        <dc:title>Jakub Jankiewicz</dc:title>
                    </cc:Agent>
                </dc:creator>
                <dc:rights>
                    <cc:Agent>
                        <dc:title>Jakub Jankiewicz</dc:title>
                    </cc:Agent>
                </dc:rights>
                <dc:date>2010</dc:date>
                <dc:format>image/svg+xml</dc:format>
                <dc:type rdf:resource="http://purl.org/dc/dcmitype/StillImage" />
                <cc:license rdf:resource="http://creativecommons.org/licenses/by-sa/3.0/" />
             </cc:Work>
        </rdf:RDF>
    </metadata>
    <path d="M 70 12.03125 C 64.512689 12.192931 58.519762 14.349172 52 20.5625 C 32.757446 14.040608 25.723835 23.502227 17.65625 31.59375 C 29.168574 26.583302 40.713735 22.061624 53.96875 29.25 C 60.573252 22.229645 68.597591 16.072868 88.34375 16.9375 C 83.426592 15.017958 77.642149 12.147456 71.09375 12.03125 C 70.732625 12.02485 70.365821 12.02047 70 12.03125 z M 103.46875 34.53125 C 88.995295 34.53935 72.672162 37.481755 59.28125 58.96875 C 47.396619 58.90947 38.641327 61.11814 31.90625 64.78125 C 19.048378 71.774464 13.531669 84.03962 7.65625 95.8125 C 23.682666 81.138667 40.10622 67.249003 65.84375 71.5625 C 72.706949 56.358206 84.34942 44.593091 117.15625 34.90625 C 112.92045 34.83981 108.29323 34.528551 103.46875 34.53125 z M 81.03125 60.875 C 80.292519 60.875 79.6875 61.480017 79.6875 62.21875 L 79.6875 69.9375 C 79.6875 70.676234 80.292519 71.28125 81.03125 71.28125 L 83.15625 71.28125 C 83.894987 71.28125 84.5 70.676234 84.5 69.9375 L 84.5 62.21875 C 84.5 61.480017 83.894987 60.875 83.15625 60.875 L 81.03125 60.875 z M 90.53125 60.875 C 89.792519 60.875 89.1875 61.480017 89.1875 62.21875 L 89.1875 69.9375 C 89.1875 70.676234 89.792519 71.28125 90.53125 71.28125 L 92.6875 71.28125 C 93.426237 71.28125 94.03125 70.676234 94.03125 69.9375 L 94.03125 62.21875 C 94.03125 61.480017 93.426237 60.875 92.6875 60.875 L 90.53125 60.875 z M 100.0625 60.875 C 99.32377 60.875 98.71875 61.480017 98.71875 62.21875 L 98.71875 69.9375 C 98.71875 70.676234 99.32377 71.28125 100.0625 71.28125 L 102.1875 71.28125 C 102.92623 71.28125 103.53125 70.676234 103.53125 69.9375 L 103.53125 62.21875 C 103.53125 61.480017 102.92623 60.875 102.1875 60.875 L 100.0625 60.875 z M 109.5625 60.875 C 108.82377 60.875 108.21875 61.480017 108.21875 62.21875 L 108.21875 69.9375 C 108.21875 70.676234 108.82377 71.28125 109.5625 71.28125 L 111.6875 71.28125 C 112.42624 71.28125 113.03125 70.676234 113.03125 69.9375 L 113.03125 62.21875 C 113.03125 61.480017 112.42624 60.875 111.6875 60.875 L 109.5625 60.875 z M 86 65.40625 L 86 70.875 C 86 72.068338 85.005839 73.03125 83.8125 73.03125 L 80.375 73.03125 C 79.181662 73.03125 78.21875 72.068338 78.21875 70.875 L 78.21875 65.4375 C 76.215364 65.5103 74.625 67.134453 74.625 69.15625 L 74.625 117.15625 C 74.625 119.22471 76.306547 120.875 78.375 120.875 L 114.375 120.875 C 116.44345 120.875 118.09375 119.22471 118.09375 117.15625 L 118.09375 69.15625 C 118.09375 67.139591 116.52745 65.518034 114.53125 65.4375 L 114.53125 70.875 C 114.53125 72.068338 113.56834 73.03125 112.375 73.03125 L 108.90625 73.03125 C 107.71291 73.03125 106.75 72.068338 106.75 70.875 L 106.75 65.40625 L 105 65.40625 L 105 70.875 C 105 72.068338 104.03709 73.03125 102.84375 73.03125 L 99.40625 73.03125 C 98.212911 73.03125 97.25 72.068338 97.25 70.875 L 97.25 65.40625 L 95.5 65.40625 L 95.5 70.875 C 95.5 72.068338 94.505839 73.03125 93.3125 73.03125 L 89.875 73.03125 C 88.681661 73.03125 87.75 72.068338 87.75 70.875 L 87.75 65.40625 L 86 65.40625 z M 81.65625 80.03125 L 91.65625 80.03125 C 92.23506 80.03125 92.6875 80.514947 92.6875 81.09375 L 92.6875 82 C 92.6875 82.578804 92.23506 83.03125 91.65625 83.03125 L 81.65625 83.03125 C 81.07745 83.03125 80.625 82.578804 80.625 82 L 80.625 81.09375 C 80.625 80.514947 81.07745 80.03125 81.65625 80.03125 z M 97.75 80.03125 L 111.0625 80.03125 C 111.6413 80.03125 112.09375 80.514947 112.09375 81.09375 L 112.09375 93.96875 C 112.09375 94.54756 111.6413 95.03125 111.0625 95.03125 L 97.75 95.03125 C 97.1712 95.03125 96.71875 94.54756 96.71875 93.96875 L 96.71875 81.09375 C 96.71875 80.514947 97.1712 80.03125 97.75 80.03125 z M 81.65625 86.0625 L 91.65625 86.0625 C 92.23506 86.0625 92.6875 86.514947 92.6875 87.09375 L 92.6875 87.96875 C 92.6875 88.547553 92.23506 89.03125 91.65625 89.03125 L 81.65625 89.03125 C 81.07745 89.03125 80.625 88.547553 80.625 87.96875 L 80.625 87.09375 C 80.625 86.514947 81.07745 86.0625 81.65625 86.0625 z M 81.65625 92.03125 L 91.65625 92.03125 C 92.23506 92.03125 92.6875 92.514947 92.6875 93.09375 L 92.6875 93.96875 C 92.6875 94.54756 92.23506 95.03125 91.65625 95.03125 L 81.65625 95.03125 C 81.07745 95.03125 80.625 94.54756 80.625 93.96875 L 80.625 93.09375 C 80.625 92.514947 81.07745 92.03125 81.65625 92.03125 z M 81.65625 98.03125 L 111.0625 98.03125 C 111.6413 98.03125 112.09375 98.514937 112.09375 99.09375 L 112.09375 100 C 112.09375 100.57881 111.6413 101.03125 111.0625 101.03125 L 81.65625 101.03125 C 81.07745 101.03125 80.625 100.57881 80.625 100 L 80.625 99.09375 C 80.625 98.514937 81.07745 98.03125 81.65625 98.03125 z M 81.65625 104.0625 L 111.0625 104.0625 C 111.6413 104.0625 112.09375 104.51495 112.09375 105.09375 L 112.09375 105.96875 C 112.09375 106.54756 111.6413 107.03125 111.0625 107.03125 L 81.65625 107.03125 C 81.07745 107.03125 80.625 106.54756 80.625 105.96875 L 80.625 105.09375 C 80.625 104.51495 81.07745 104.0625 81.65625 104.0625 z M 81.65625 110.03125 L 111.0625 110.03125 C 111.6413 110.03125 112.09375 110.51495 112.09375 111.09375 L 112.09375 112 C 112.09375 112.5788 111.6413 113.03125 111.0625 113.03125 L 81.65625 113.03125 C 81.07745 113.03125 80.625 112.5788 80.625 112 L 80.625 111.09375 C 80.625 110.51495 81.07745 110.03125 81.65625 110.03125 z " style="fill:#aaaaaa"/>
</svg>