<?xml version="1.0" encoding="UTF-8" standalone="no"?>
<svg xmlns:dc="http://purl.org/dc/elements/1.1/"
     xmlns:cc="http://creativecommons.org/ns#"
     xmlns:rdf="http://www.w3.org/1999/02/22-rdf-syntax-ns#"
     xmlns:svg="http://www.w3.org/2000/svg"
     xmlns="http://www.w3.org/2000/svg"
     xmlns:xlink="http://www.w3.org/1999/xlink"
     width="128" height="128" version="1.1">
    <title>Clarity Icon</title>
    <desc>This is shape (source) for Clarity vector icon theme for gtk</desc>
    <metadata>
        <rdf:RDF>
            <cc:Work rdf:about="">
                <dc:title>Clarity Icon</dc:title>
                <dc:description>This is shape (source) for Clarity vector icon theme for gtk</dc:description>
                <dc:creator>
                    <cc:Agent>
                        <dc:title>Jakub Jankiewicz</dc:title>
                    </cc:Agent>
                </dc:creator>
                <dc:rights>
                    <cc:Agent>
                        <dc:title>Jakub Jankiewicz</dc:title>
                    </cc:Agent>
                </dc:rights>
                <dc:date>2010</dc:date>
                <dc:format>image/svg+xml</dc:format>
                <dc:type rdf:resource="http://purl.org/dc/dcmitype/StillImage" />
                <cc:license rdf:resource="http://creativecommons.org/licenses/by-sa/3.0/" />
             </cc:Work>
        </rdf:RDF>
    </metadata>
    <path d="M 70 12.03125 C 64.512689 12.192931 58.519762 14.349172 52 20.5625 C 32.757446 14.040608 25.723835 23.502226 17.65625 31.59375 C 29.168574 26.583302 40.713735 22.061624 53.96875 29.25 C 60.573252 22.229644 68.597591 16.072868 88.34375 16.9375 C 83.426592 15.017958 77.642149 12.147456 71.09375 12.03125 C 70.732625 12.02485 70.365821 12.02047 70 12.03125 z M 103.46875 34.53125 C 88.995295 34.53935 72.672162 37.481755 59.28125 58.96875 C 47.396619 58.90947 38.641327 61.11814 31.90625 64.78125 C 19.048378 71.774464 13.531669 84.03962 7.65625 95.8125 C 23.682666 81.138667 40.10622 67.249004 65.84375 71.5625 C 72.706949 56.358207 84.34942 44.59309 117.15625 34.90625 C 112.92045 34.83981 108.29323 34.52855 103.46875 34.53125 z M 82.34375 72.5625 L 82.34375 73.71875 L 99.40625 95.59375 L 82.34375 115.75 L 82.34375 116.9375 L 116.65625 116.9375 L 118.5625 103.53125 L 117.3125 103.21875 C 116.50511 106.33908 115.30218 108.39309 113.6875 109.375 C 112.07276 110.35692 109.74233 110.84376 106.6875 110.84375 L 89.8125 110.84375 L 105.21875 92.6875 L 91.6875 75.34375 L 106.84375 75.34375 C 109.0694 75.343792 110.69316 75.601352 111.71875 76.125 C 112.74428 76.64873 113.56707 77.509238 114.15625 78.6875 C 114.74537 79.844018 115.09722 81.514926 115.25 83.71875 L 116.5 83.71875 L 115.625 72.5625 L 82.34375 72.5625 z " style="fill:#aaaaaa"/>
</svg>