<?xml version="1.0" encoding="UTF-8" standalone="no"?>
<svg xmlns:dc="http://purl.org/dc/elements/1.1/"
     xmlns:cc="http://creativecommons.org/ns#"
     xmlns:rdf="http://www.w3.org/1999/02/22-rdf-syntax-ns#"
     xmlns:svg="http://www.w3.org/2000/svg"
     xmlns="http://www.w3.org/2000/svg"
     xmlns:xlink="http://www.w3.org/1999/xlink"
     width="128" height="128" version="1.1">
    <title>OpenOffice Draw Icon</title>
    <desc>This is shape (source) for Clarity vector icon theme for gtk</desc>
    <metadata>
        <rdf:RDF>
            <cc:Work rdf:about="">
                <dc:title>OpenOffice Draw Icon</dc:title>
                <dc:description>This is shape (source) for Clarity vector icon theme for gtk</dc:description>
                <dc:creator>
                    <cc:Agent>
                        <dc:title>Jakub Jankiewicz</dc:title>
                    </cc:Agent>
                </dc:creator>
                <dc:rights>
                    <cc:Agent>
                        <dc:title>Jakub Jankiewicz</dc:title>
                    </cc:Agent>
                </dc:rights>
                <dc:date>2010</dc:date>
                <dc:format>image/svg+xml</dc:format>
                <dc:type rdf:resource="http://purl.org/dc/dcmitype/StillImage" />
                <cc:license rdf:resource="http://creativecommons.org/licenses/by-sa/3.0/" />
             </cc:Work>
        </rdf:RDF>
    </metadata>
    <path d="M 70 12.03125 C 64.512689 12.192931 58.519762 14.349172 52 20.5625 C 32.757446 14.040608 25.723835 23.502227 17.65625 31.59375 C 29.168574 26.583302 40.713735 22.061624 53.96875 29.25 C 60.573252 22.229645 68.597591 16.072868 88.34375 16.9375 C 83.426592 15.017958 77.642149 12.147456 71.09375 12.03125 C 70.732625 12.02485 70.365821 12.02047 70 12.03125 z M 103.46875 34.53125 C 88.995295 34.53935 72.672162 37.481755 59.28125 58.96875 C 47.396619 58.90947 38.641327 61.11814 31.90625 64.78125 C 19.048378 71.774464 13.531669 84.03962 7.65625 95.8125 C 23.682666 81.138667 40.10622 67.249003 65.84375 71.5625 C 72.706949 56.358206 84.34942 44.593091 117.15625 34.90625 C 112.92045 34.83981 108.29323 34.528551 103.46875 34.53125 z M 96.53125 55.4375 L 96.53125 56.75 L 96.53125 64.90625 L 83 78.4375 C 82.271053 78.022001 81.430335 77.75 80.53125 77.75 C 77.770704 77.75 75.53125 80.020706 75.53125 82.78125 C 75.53125 83.680334 75.803258 84.489803 76.21875 85.21875 L 62.6875 98.75 L 54.53125 98.75 L 53.21875 98.75 L 53.21875 100.0625 L 53.21875 108.78125 L 53.21875 110.09375 L 54.53125 110.09375 L 63.25 110.09375 L 64.5625 110.09375 L 64.5625 108.78125 L 64.5625 100.625 L 77.03125 88.15625 C 72.190707 97.508227 72.557546 109.13344 78.96875 118.375 L 81.0625 116.875 C 74.830926 107.89237 74.876808 96.471857 80.21875 87.71875 C 80.325833 87.72475 80.422412 87.78125 80.53125 87.78125 C 83.291797 87.78125 85.5625 85.541797 85.5625 82.78125 C 85.5625 82.387872 85.460747 81.960946 85.375 81.59375 C 86.141855 80.920391 86.953437 80.283462 87.8125 79.6875 C 96.436149 73.704963 107.76765 73.310426 116.78125 78.6875 L 118.09375 76.4375 C 113.15312 73.49016 107.6166 72.122908 102.09375 72.3125 C 97.745497 72.461779 93.441618 73.614792 89.5 75.6875 L 98.40625 66.78125 L 106.5625 66.78125 L 107.875 66.78125 L 107.875 65.46875 L 107.875 56.75 L 107.875 55.4375 L 106.5625 55.4375 L 97.84375 55.4375 L 96.53125 55.4375 z M 99.15625 58.0625 L 105.25 58.0625 L 105.25 64.15625 L 99.15625 64.15625 L 99.15625 58.0625 z M 55.84375 101.375 L 61.9375 101.375 L 61.9375 107.46875 L 55.84375 107.46875 L 55.84375 101.375 z " style="fill:#aaaaaa"/>
</svg>