<?xml version="1.0" encoding="UTF-8" standalone="no"?>
<svg xmlns:dc="http://purl.org/dc/elements/1.1/"
     xmlns:cc="http://creativecommons.org/ns#"
     xmlns:rdf="http://www.w3.org/1999/02/22-rdf-syntax-ns#"
     xmlns:svg="http://www.w3.org/2000/svg"
     xmlns="http://www.w3.org/2000/svg"
     xmlns:xlink="http://www.w3.org/1999/xlink"
     width="128" height="128" version="1.1">
    <title>Settings Editor Icon</title>
    <desc>This is shape (source) for Clarity vector icon theme for gtk</desc>
    <metadata>
        <rdf:RDF>
            <cc:Work rdf:about="">
                <dc:title>Settings Editor Icon</dc:title>
                <dc:description>This is shape (source) for Clarity vector icon theme for gtk</dc:description>
                <dc:creator>
                    <cc:Agent>
                        <dc:title>Jakub Jankiewicz</dc:title>
                    </cc:Agent>
                </dc:creator>
                <dc:rights>
                    <cc:Agent>
                        <dc:title>Jakub Jankiewicz</dc:title>
                    </cc:Agent>
                </dc:rights>
                <dc:date>2010</dc:date>
                <dc:format>image/svg+xml</dc:format>
                <dc:type rdf:resource="http://purl.org/dc/dcmitype/StillImage" />
                <cc:license rdf:resource="http://creativecommons.org/licenses/by-sa/3.0/" />
             </cc:Work>
        </rdf:RDF>
    </metadata>
    <path d="M 14.273438 13.736328 C 10.316987 13.736328 7.1523437 16.900974 7.1523438 20.857422 L 7.1523438 107.10938 C 7.1523438 111.06582 10.316987 114.26367 14.273438 114.26367 L 113.72656 114.26367 C 117.683 114.26367 120.84766 111.06582 120.84766 107.10938 L 120.84766 20.857422 C 120.84766 16.900974 117.683 13.736328 113.72656 13.736328 L 14.273438 13.736328 z M 68.441406 41.197266 L 75.84375 41.197266 A 1.4257589 1.4257589 0 0 1 77.175781 43.128906 L 60.951172 85.882812 A 1.4257589 1.4257589 0 0 1 59.619141 86.802734 L 52.15625 86.802734 A 1.4257589 1.4257589 0 0 1 50.824219 84.869141 L 67.109375 42.115234 A 1.4257589 1.4257589 0 0 1 68.441406 41.197266 z M 41.107422 47.537109 A 1.4257589 1.4257589 0 0 1 42.628906 48.960938 L 42.628906 55.949219 A 1.4257589 1.4257589 0 0 1 41.833984 57.228516 L 28.046875 64.023438 L 41.802734 70.404297 A 1.4257589 1.4257589 0 0 1 42.628906 71.697266 L 42.628906 78.625 A 1.4257589 1.4257589 0 0 1 40.580078 79.90625 L 15.119141 67.53125 A 1.4257589 1.4257589 0 0 1 14.316406 66.25 L 14.316406 62.105469 A 1.4257589 1.4257589 0 0 1 15.087891 60.837891 L 40.548828 47.693359 A 1.4257589 1.4257589 0 0 1 41.107422 47.537109 z M 86.697266 47.537109 A 1.4257589 1.4257589 0 0 1 87.451172 47.693359 L 112.91211 60.837891 A 1.4257589 1.4257589 0 0 1 113.68359 62.105469 L 113.68359 66.25 A 1.4257589 1.4257589 0 0 1 112.88086 67.53125 L 87.419922 79.90625 A 1.4257589 1.4257589 0 0 1 85.371094 78.625 L 85.371094 71.697266 A 1.4257589 1.4257589 0 0 1 86.197266 70.404297 L 99.953125 64.023438 L 86.166016 57.228516 A 1.4257589 1.4257589 0 0 1 85.371094 55.949219 L 85.371094 48.960938 A 1.4257589 1.4257589 0 0 1 86.697266 47.537109 z" style="fill:#aaaaaa"/>
</svg>