<?xml version="1.0" encoding="UTF-8" standalone="no"?>
<svg xmlns:dc="http://purl.org/dc/elements/1.1/"
     xmlns:cc="http://creativecommons.org/ns#"
     xmlns:rdf="http://www.w3.org/1999/02/22-rdf-syntax-ns#"
     xmlns:svg="http://www.w3.org/2000/svg"
     xmlns="http://www.w3.org/2000/svg"
     xmlns:xlink="http://www.w3.org/1999/xlink"
     width="128" height="128" version="1.1">
    <title>Panel Separator Icon</title>
    <desc>This is shape (source) for Clarity vector icon theme for gtk</desc>
    <metadata>
        <rdf:RDF>
            <cc:Work rdf:about="">
                <dc:title>Panel Separator Icon</dc:title>
                <dc:description>This is shape (source) for Clarity vector icon theme for gtk</dc:description>
                <dc:creator>
                    <cc:Agent>
                        <dc:title>Jakub Jankiewicz</dc:title>
                    </cc:Agent>
                </dc:creator>
                <dc:rights>
                    <cc:Agent>
                        <dc:title>Jakub Jankiewicz</dc:title>
                    </cc:Agent>
                </dc:rights>
                <dc:date>2010</dc:date>
                <dc:format>image/svg+xml</dc:format>
                <dc:type rdf:resource="http://purl.org/dc/dcmitype/StillImage" />
                <cc:license rdf:resource="http://creativecommons.org/licenses/by-sa/3.0/" />
             </cc:Work>
        </rdf:RDF>
    </metadata>
    <path d="M 54.123047 15.326172 C 52.317809 15.326172 50.863281 16.778747 50.863281 18.583984 L 50.863281 109.21289 C 50.863281 111.01813 52.317809 112.4707 54.123047 112.4707 L 73.876953 112.4707 C 75.682191 112.4707 77.136719 111.01813 77.136719 109.21289 L 77.136719 18.583984 C 77.136719 16.778747 75.682191 15.326172 73.876953 15.326172 L 54.123047 15.326172 z M 57.992188 29.886719 L 70.007812 29.886719 C 71.023259 29.886719 71.841797 30.705256 71.841797 31.720703 L 71.841797 38.847656 C 71.841797 39.863103 71.023258 40.681641 70.007812 40.681641 L 57.992188 40.681641 C 56.976741 40.681641 56.158203 39.863103 56.158203 38.847656 L 56.158203 31.720703 C 56.158203 30.705256 56.97674 29.886719 57.992188 29.886719 z M 57.992188 58.603516 L 70.007812 58.603516 C 71.023259 58.603516 71.841797 59.4201 71.841797 60.435547 L 71.841797 67.564453 C 71.841797 68.5799 71.023258 69.396484 70.007812 69.396484 L 57.992188 69.396484 C 56.976741 69.396484 56.158203 68.5799 56.158203 67.564453 L 56.158203 60.435547 C 56.158203 59.4201 56.97674 58.603516 57.992188 58.603516 z M 57.992188 87.318359 L 70.007812 87.318359 C 71.023259 87.318359 71.841797 88.136897 71.841797 89.152344 L 71.841797 96.279297 C 71.841797 97.294743 71.023258 98.113281 70.007812 98.113281 L 57.992188 98.113281 C 56.976741 98.113281 56.158203 97.294743 56.158203 96.279297 L 56.158203 89.152344 C 56.158203 88.136897 56.97674 87.318359 57.992188 87.318359 z" style="fill:#aaaaaa"/>
</svg>