<?xml version="1.0" encoding="UTF-8" standalone="no"?>
<svg xmlns:dc="http://purl.org/dc/elements/1.1/"
     xmlns:cc="http://creativecommons.org/ns#"
     xmlns:rdf="http://www.w3.org/1999/02/22-rdf-syntax-ns#"
     xmlns:svg="http://www.w3.org/2000/svg"
     xmlns="http://www.w3.org/2000/svg"
     xmlns:xlink="http://www.w3.org/1999/xlink"
     width="128" height="128" version="1.1">
    <title>Panel Icon</title>
    <desc>This is shape (source) for Clarity vector icon theme for gtk</desc>
    <metadata>
        <rdf:RDF>
            <cc:Work rdf:about="">
                <dc:title>Panel Icon</dc:title>
                <dc:description>This is shape (source) for Clarity vector icon theme for gtk</dc:description>
                <dc:creator>
                    <cc:Agent>
                        <dc:title>Jakub Jankiewicz</dc:title>
                    </cc:Agent>
                </dc:creator>
                <dc:rights>
                    <cc:Agent>
                        <dc:title>Jakub Jankiewicz</dc:title>
                    </cc:Agent>
                </dc:rights>
                <dc:date>2010</dc:date>
                <dc:format>image/svg+xml</dc:format>
                <dc:type rdf:resource="http://purl.org/dc/dcmitype/StillImage" />
                <cc:license rdf:resource="http://creativecommons.org/licenses/by-sa/3.0/" />
             </cc:Work>
        </rdf:RDF>
    </metadata>
    <path d="M 16 8 C 10.46 8 6 12.46 6 18 L 6 110 C 6 115.54 10.46 120 16 120 L 112 120 C 117.54 120 122 115.54 122 110 L 122 18 C 122 12.46 117.54 8 112 8 L 16 8 z M 9.2578125 91.240234 L 118.74219 91.240234 L 118.74219 110 C 118.74219 113.79113 115.79113 116.74219 112 116.74219 L 16 116.74219 C 12.208874 116.74219 9.2578125 113.79113 9.2578125 110 L 9.2578125 91.240234 z M 16.287109 93.669922 C 14.369043 93.669922 12.824219 95.214746 12.824219 97.132812 L 12.824219 109.64844 C 12.824219 111.5665 14.369043 113.10938 16.287109 113.10938 L 31.167969 113.10938 C 33.086035 113.10938 34.630859 111.5665 34.630859 109.64844 L 34.630859 97.132812 C 34.630859 95.214746 33.086035 93.669922 31.167969 93.669922 L 16.287109 93.669922 z M 43.033203 93.669922 C 41.115137 93.669922 39.572266 95.214746 39.572266 97.132812 L 39.572266 109.64844 C 39.572266 111.5665 41.115137 113.10938 43.033203 113.10938 L 57.916016 113.10938 C 59.834082 113.10938 61.378906 111.5665 61.378906 109.64844 L 61.378906 97.132812 C 61.378906 95.214746 59.834082 93.669922 57.916016 93.669922 L 43.033203 93.669922 z M 69.78125 93.669922 C 67.863184 93.669922 66.318359 95.214746 66.318359 97.132812 L 66.318359 109.64844 C 66.318359 111.5665 67.863184 113.10938 69.78125 113.10938 L 84.664062 113.10938 C 86.582129 113.10938 88.125 111.5665 88.125 109.64844 L 88.125 97.132812 C 88.125 95.214746 86.582129 93.669922 84.664062 93.669922 L 69.78125 93.669922 z M 96.527344 93.669922 C 94.609277 93.669922 93.066406 95.214746 93.066406 97.132812 L 93.066406 109.64844 C 93.066406 111.5665 94.609277 113.10938 96.527344 113.10938 L 111.41016 113.10938 C 113.32822 113.10938 114.87305 111.5665 114.87305 109.64844 L 114.87305 97.132812 C 114.87305 95.214746 113.32822 93.669922 111.41016 93.669922 L 96.527344 93.669922 z" style="fill:#aaaaaa"/>
</svg>