<?xml version="1.0" encoding="UTF-8" standalone="no"?>
<svg xmlns:dc="http://purl.org/dc/elements/1.1/"
     xmlns:cc="http://creativecommons.org/ns#"
     xmlns:rdf="http://www.w3.org/1999/02/22-rdf-syntax-ns#"
     xmlns:svg="http://www.w3.org/2000/svg"
     xmlns="http://www.w3.org/2000/svg"
     xmlns:xlink="http://www.w3.org/1999/xlink"
     width="128" height="128" version="1.1">
    <title>Task List Icon</title>
    <desc>This is shape (source) for Clarity vector icon theme for gtk</desc>
    <metadata>
        <rdf:RDF>
            <cc:Work rdf:about="">
                <dc:title>Task List Icon</dc:title>
                <dc:description>This is shape (source) for Clarity vector icon theme for gtk</dc:description>
                <dc:creator>
                    <cc:Agent>
                        <dc:title>Jakub Jankiewicz</dc:title>
                    </cc:Agent>
                </dc:creator>
                <dc:rights>
                    <cc:Agent>
                        <dc:title>Jakub Jankiewicz</dc:title>
                    </cc:Agent>
                </dc:rights>
                <dc:date>2010</dc:date>
                <dc:format>image/svg+xml</dc:format>
                <dc:type rdf:resource="http://purl.org/dc/dcmitype/StillImage" />
                <cc:license rdf:resource="http://creativecommons.org/licenses/by-sa/3.0/" />
             </cc:Work>
        </rdf:RDF>
    </metadata>
    <path d="m 41.296099,16.427347 c -2.780536,0 -5.006223,2.225685 -5.006223,5.006224 v 16.425826 h 5.195647 V 32.663748 H 110.97732 V 82.049469 H 94.767981 v 5.033283 h 16.425829 c 2.78053,0 5.00622,-2.252738 5.00622,-5.033283 V 21.433571 c 0,-2.780539 -2.22569,-5.006224 -5.00622,-5.006224 H 41.2961 Z M 16.806194,40.917252 c -2.780538,0 -5.006224,2.225686 -5.006224,5.006224 v 60.615894 c 0,2.78054 2.225686,5.03328 5.006224,5.03328 h 69.897707 c 2.780538,0 5.006223,-2.25274 5.006223,-5.03328 V 45.923476 c 0,-2.780538 -2.225685,-5.006224 -5.006223,-5.006224 z m 0.189425,16.236402 H 86.487415 V 106.53937 H 16.995619 Z" style="fill:#aaaaaa"/>
</svg>