<?xml version="1.0" encoding="UTF-8" standalone="no"?>
<svg xmlns:dc="http://purl.org/dc/elements/1.1/"
     xmlns:cc="http://creativecommons.org/ns#"
     xmlns:rdf="http://www.w3.org/1999/02/22-rdf-syntax-ns#"
     xmlns:svg="http://www.w3.org/2000/svg"
     xmlns="http://www.w3.org/2000/svg"
     xmlns:xlink="http://www.w3.org/1999/xlink"
     width="128" height="128" version="1.1">
    <title>About Xfce icon</title>
    <desc>This is shape (source) for Clarity vector icon theme for gtk</desc>
    <metadata>
        <rdf:RDF>
            <cc:Work rdf:about="">
                <dc:title>About Xfce icon</dc:title>
                <dc:description>This is shape (source) for Clarity vector icon theme for gtk</dc:description>
                <dc:creator>
                    <cc:Agent>
                        <dc:title>Jakub Jankiewicz</dc:title>
                    </cc:Agent>
                </dc:creator>
                <dc:rights>
                    <cc:Agent>
                        <dc:title>Jakub Jankiewicz</dc:title>
                    </cc:Agent>
                </dc:rights>
                <dc:date>2010</dc:date>
                <dc:format>image/svg+xml</dc:format>
                <dc:type rdf:resource="http://purl.org/dc/dcmitype/StillImage" />
                <cc:license rdf:resource="http://creativecommons.org/licenses/by-sa/3.0/" />
             </cc:Work>
        </rdf:RDF>
    </metadata>
    <path d="M 64.316406 12.972656 L 44.882812 42.667969 L 10.488281 51.416016 L 32.724609 79.076172 L 30.416016 114.49023 L 63.59375 101.88867 L 96.560547 115.02734 L 94.828125 79.580078 L 117.51172 52.287109 L 83.265625 42.980469 L 64.316406 12.972656 z M 24.515625 51.074219 C 24.551419 51.072553 24.598488 51.078069 24.652344 51.085938 C 25.169348 51.161432 26.550425 51.781107 27.666016 52.404297 C 29.15347 53.235215 33.187038 54.795747 34.408203 55.042969 C 37.563706 55.681797 44.873604 59.390224 49.628906 64.359375 C 50.226533 64.953776 51.880122 62.412962 55.554688 63.039062 C 56.611069 63.13884 65.101166 65.386574 68.638672 64.714844 C 69.848206 63.952291 69.827127 61.909891 70.984375 60.988281 C 70.979858 60.207628 70.342438 57.689954 70.335938 57.15625 C 70.297228 55.298423 72.032038 54.373247 72.533203 54.476562 C 73.056417 54.610113 73.859792 54.48956 75.736328 59.082031 C 76.292726 59.942749 77.164542 60.239812 77.076172 59.417969 C 76.041099 56.207363 75.303508 52.788505 77.746094 52.445312 C 78.084337 52.44732 80.398734 51.31324 80.992188 56.130859 C 81.095641 56.842599 81.117646 58.822286 81.160156 59.542969 C 81.241226 60.166471 87.375566 59.380972 93.386719 63.3125 C 94.087472 63.73406 97.020484 66.754866 94.119141 69.154297 C 92.172977 70.768231 83.756186 74.911877 83.191406 75.308594 C 82.869574 75.529124 82.574415 76.475995 83.001953 77.277344 C 83.535562 78.277457 83.775849 77.949769 85.535156 80.125 C 87.294464 82.300231 86.922518 83.34794 84.132812 82.636719 C 83.200192 82.398958 80.761704 81.11697 79.777344 81.464844 C 79.316711 81.627703 82.105184 84.292619 82.478516 85.337891 C 83.715907 88.647167 79.509049 86.862867 77.976562 86.132812 C 76.444076 85.402742 73.769698 83.818098 72.826172 83.767578 C 70.992967 84.553874 61.090467 85.435103 52.287109 83.347656 C 51.751219 83.492125 47.278373 87.993715 46.949219 88.164062 C 44.192113 89.035483 46.3173 84.887481 46.759766 83.181641 C 46.976953 82.344319 46.383879 82.882696 45.861328 83.181641 C 45.615283 83.322404 43.991766 83.968554 42.951172 83.494141 C 41.91058 83.019736 45.194006 79.701521 45.546875 79.181641 C 46.033809 78.568792 44.077846 72.83719 48.205078 66.285156 C 47.784255 65.521448 42.420346 61.001308 38.449219 58.789062 C 34.69656 56.650089 25.630217 52.581428 25.384766 52.298828 C 24.991003 52.018622 23.854048 51.210753 24.441406 51.189453 C 24.408846 51.13427 24.427311 51.104698 24.462891 51.085938 C 24.476241 51.078903 24.494149 51.075218 24.515625 51.074219 z M 92.349609 56.386719 C 92.670482 56.392424 92.761636 61.406609 91.626953 61.615234 L 91.625 61.617188 C 91.624027 61.617113 91.620112 61.615434 91.619141 61.615234 C 91.618171 61.61491 91.614248 61.61373 91.613281 61.613281 C 91.612316 61.61271 91.608384 61.612022 91.607422 61.611328 C 91.369372 61.409256 91.210196 57.487228 92.318359 56.402344 C 92.329155 56.391775 92.339259 56.386535 92.349609 56.386719 z M 95.595703 56.986328 L 95.597656 56.988281 L 95.599609 56.988281 L 95.601562 56.988281 L 95.603516 56.988281 L 95.603516 56.990234 L 95.605469 56.990234 L 95.607422 56.992188 C 95.608352 56.993023 95.610501 56.9951 95.611328 56.996094 C 95.617216 57.005116 95.623203 57.020555 95.626953 57.03125 C 96.033465 58.106648 93.182567 62.548595 92.947266 61.929688 C 92.441631 60.599813 95.143202 57.135586 95.583984 56.988281 C 95.585806 56.987667 95.588203 56.988594 95.589844 56.988281 C 95.590621 56.988196 95.594967 56.986346 95.595703 56.986328 z M 40.019531 61.091797 C 41.364688 61.987525 42.750693 63.003971 43.955078 63.960938 C 44.883758 64.698838 45.701283 65.386377 46.300781 65.929688 C 46.528964 66.136483 46.688485 66.299547 46.84375 66.453125 C 46.661929 66.77353 46.499485 67.099946 46.341797 67.416016 L 40.019531 61.091797 z M 79.945312 63.521484 C 79.925352 63.522564 79.920627 63.525089 79.904297 63.542969 C 79.675796 63.793223 79.75153 65.783788 80.720703 66.326172 C 81.702077 66.787976 83.106221 66.132891 83.136719 65.994141 L 83.136719 65.992188 L 83.136719 65.990234 L 83.136719 65.988281 L 83.136719 65.986328 L 83.134766 65.986328 L 83.134766 65.984375 L 83.134766 65.982422 L 83.132812 65.982422 L 83.132812 65.980469 L 83.130859 65.978516 L 83.128906 65.978516 C 83.124109 65.976083 83.115753 65.971635 83.107422 65.970703 C 80.789569 65.713674 80.362014 64.605698 80.007812 63.542969 C 79.986362 63.520729 79.965283 63.520384 79.945312 63.521484 z M 86.267578 68.818359 C 84.928032 68.863143 81.896612 70.716293 82.007812 70.982422 C 82.008356 70.983432 82.011075 70.987323 82.011719 70.988281 C 82.012464 70.989189 82.014778 70.993285 82.015625 70.994141 L 82.017578 70.996094 C 82.371363 71.295235 86.754798 69.122756 86.558594 68.859375 C 86.551033 68.851347 86.537067 68.843683 86.519531 68.839844 C 86.445725 68.825104 86.358658 68.815359 86.267578 68.818359 z M 87.189453 70.283203 C 86.202675 70.209764 83.786365 72.767334 84.001953 73.021484 C 84.002884 73.022413 84.0068 73.026487 84.007812 73.027344 C 84.360267 73.325264 87.429432 70.551473 87.230469 70.300781 C 87.228634 70.298911 87.222976 70.2945 87.220703 70.292969 C 87.213219 70.28889 87.201029 70.284092 87.189453 70.283203 z" style="fill:#aaaaaa"/>
</svg>