<?xml version="1.0" encoding="UTF-8" standalone="no"?>
<svg xmlns:dc="http://purl.org/dc/elements/1.1/"
     xmlns:cc="http://creativecommons.org/ns#"
     xmlns:rdf="http://www.w3.org/1999/02/22-rdf-syntax-ns#"
     xmlns:svg="http://www.w3.org/2000/svg"
     xmlns="http://www.w3.org/2000/svg"
     xmlns:xlink="http://www.w3.org/1999/xlink"
     width="128" height="128" version="1.1">
    <title>Workspaces Icon</title>
    <desc>This is shape (source) for Clarity vector icon theme for gtk</desc>
    <metadata>
        <rdf:RDF>
            <cc:Work rdf:about="">
                <dc:title>Workspaces Icon</dc:title>
                <dc:description>This is shape (source) for Clarity vector icon theme for gtk</dc:description>
                <dc:creator>
                    <cc:Agent>
                        <dc:title>Jakub Jankiewicz</dc:title>
                    </cc:Agent>
                </dc:creator>
                <dc:rights>
                    <cc:Agent>
                        <dc:title>Jakub Jankiewicz</dc:title>
                    </cc:Agent>
                </dc:rights>
                <dc:date>2010</dc:date>
                <dc:format>image/svg+xml</dc:format>
                <dc:type rdf:resource="http://purl.org/dc/dcmitype/StillImage" />
                <cc:license rdf:resource="http://creativecommons.org/licenses/by-sa/3.0/" />
             </cc:Work>
        </rdf:RDF>
    </metadata>
    <path d="m 20,14.000002 c -4.432,0 -8,3.567999 -8,7.999999 V 106 c 0,4.432 3.568,8 8,8 h 88 c 4.43201,0 8,-3.568 8,-8 V 22.000001 c 0,-4.432 -3.56799,-7.999999 -8,-7.999999 z m 0,4.464843 H 60.92969 V 60.929689 H 16.46485 V 22.000001 c 0,-2.035852 1.49932,-3.535156 3.53515,-3.535156 z m 47.07032,0 H 108 c 2.03589,0 3.53516,1.499298 3.53516,3.535156 V 60.929689 H 67.07032 Z M 16.46485,67.070314 H 60.92969 V 109.53516 H 20 c -2.03583,0 -3.53515,-1.49931 -3.53515,-3.53516 z m 50.60547,0 h 44.46484 V 106 c 0,2.03586 -1.49928,3.53516 -3.53516,3.53516 H 67.07032 Z m 18.23242,9.232422 v 8 h -8 v 8 h 8 v 8.000004 h 8 v -8.000004 h 8 v -8 h -8 v -8 z" style="fill:#aaaaaa"/>
</svg>