<?xml version="1.0" encoding="UTF-8" standalone="no"?>
<svg xmlns:dc="http://purl.org/dc/elements/1.1/"
     xmlns:cc="http://creativecommons.org/ns#"
     xmlns:rdf="http://www.w3.org/1999/02/22-rdf-syntax-ns#"
     xmlns:svg="http://www.w3.org/2000/svg"
     xmlns="http://www.w3.org/2000/svg"
     xmlns:xlink="http://www.w3.org/1999/xlink"
     width="128" height="128" version="1.1">
    <title>D10 Icon (from openclipart)</title>
    <desc>This is shape (source) for Clarity vector icon theme for gtk</desc>
    <metadata>
        <rdf:RDF>
            <cc:Work rdf:about="">
                <dc:title>D10 Icon (from openclipart)</dc:title>
                <dc:description>This is shape (source) for Clarity vector icon theme for gtk</dc:description>
                <dc:creator>
                    <cc:Agent>
                        <dc:title>Jakub Jankiewicz</dc:title>
                    </cc:Agent>
                </dc:creator>
                <dc:rights>
                    <cc:Agent>
                        <dc:title>Jakub Jankiewicz</dc:title>
                    </cc:Agent>
                </dc:rights>
                <dc:date>2010</dc:date>
                <dc:format>image/svg+xml</dc:format>
                <dc:type rdf:resource="http://purl.org/dc/dcmitype/StillImage" />
                <cc:license rdf:resource="http://creativecommons.org/licenses/by-sa/3.0/" />
             </cc:Work>
        </rdf:RDF>
    </metadata>
    <path d="m 47.017336,14.510457 c -0.157177,0.0037 -0.317968,0.0123 -0.465825,0.04658 -1.582229,0.251061 -2.384812,1.872021 -3.540271,3.400523 -1.306472,17.854669 -3.151814,34.202858 -4.460276,52.079252 5.475596,-0.41 13.000815,-0.325966 20.729219,-0.430907 8.40785,-0.114071 16.601409,-0.689458 20.612763,-2.142795 C 88.160027,64.467969 94.538187,56.884112 99.8652,45.615913 83.490298,35.646398 65.863869,23.797073 50.743938,15.709939 49.429893,15.162091 48.117582,14.487092 47.017336,14.510457 z m -7.127124,7.301791 c -9.792718,18.515618 -18.454461,33.667531 -28.333815,52.510159 -0.191793,5.062662 0.807059,7.976417 2.084567,9.82891 1.28049,1.856817 2.440909,2.337026 4.15749,2.224297 2.475797,-0.820821 5.587133,-3.02574 8.804095,-5.81115 1.21978,-1.086715 9.03178,-7.864433 9.700809,-9.363086 1.22585,-16.753271 2.352141,-32.538446 3.586854,-49.38913 z m 27.961154,0.885068 c 11.919542,7.395589 23.314854,14.833214 33.690804,20.973796 3.1012,1.835314 8.98157,4.011872 13.42741,5.333698 -4.23146,-4.28507 -9.06097,-7.968107 -14.44058,-10.620814 L 67.851366,22.697316 z m -7.59295,6.905876 c 1.203487,-0.0313 2.39673,0.306923 3.575208,1.001524 2.36107,1.37247 4.5534,4.130341 6.57978,8.280061 1.892342,3.875181 2.605383,7.461625 2.142796,10.760561 -0.458491,3.282018 -2.031821,5.751562 -4.716479,7.40662 -0.720979,0.444472 -1.485483,0.814821 -2.305835,1.106316 l -2.666849,0.675446 -1.478995,-3.027863 c 0.91396,-0.04927 1.79011,-0.194939 2.631912,-0.442534 0.841795,-0.247595 1.617636,-0.597821 2.329126,-1.03648 1.897284,-1.169593 2.983032,-2.794354 3.260776,-4.879499 0.28185,-2.101915 -0.233971,-4.69522 -1.560514,-7.790945 -0.0892,1.283405 -0.438766,2.433285 -1.036461,3.458771 -0.597706,1.025486 -1.409404,1.848916 -2.433937,2.480537 -2.124971,1.310012 -4.170815,1.612612 -6.137246,0.896695 -1.962301,-0.732724 -3.573147,-2.392776 -4.832936,-4.972702 -1.232972,-2.524884 -1.581461,-4.945498 -1.036461,-7.266872 0.545019,-2.3213 1.897101,-4.140031 4.041033,-5.461782 1.228497,-0.75732 2.441595,-1.156476 3.645082,-1.187854 z m -0.267849,3.132693 c -0.694836,0.02582 -1.390656,0.252105 -2.096213,0.687073 -1.290154,0.795406 -2.062473,1.947336 -2.317481,3.447107 -0.250871,1.483001 0.05693,3.10042 0.920005,4.867872 0.868451,1.778446 1.931278,2.946438 3.179257,3.505316 l 3.819766,-0.360996 c 1.290153,-0.795368 2.054952,-1.929149 2.305834,-3.412188 0.260363,-1.488702 -0.03992,-3.124308 -0.908359,-4.902791 -0.863088,-1.767415 -1.921789,-2.928885 -3.179256,-3.482061 -0.470003,-0.213646 -0.945588,-0.32768 -1.420767,-0.349332 -0.099,-0.0045 -0.203525,-0.0037 -0.302786,0 z m -25.445699,9.32813 c 0.247893,-0.01379 0.450173,0.05825 0.605573,0.209621 0.500523,0.473055 0.467163,1.713156 -0.116457,3.726602 -0.406591,1.402692 -0.984053,2.777137 -1.711907,4.122552 -0.724604,1.334198 -1.549633,2.537666 -2.480519,3.598481 0.808963,-0.410411 1.314909,-0.275769 1.502286,0.407615 0.193631,0.67813 0.0529,1.829911 -0.419243,3.458733 -0.724633,2.499954 -1.769721,4.832508 -3.121028,6.999042 -1.351329,2.166571 -2.899821,3.980457 -4.658252,5.450154 -0.590334,0.493402 -1.169485,0.901167 -1.735198,1.211146 -0.562717,0.316053 -1.120951,0.537599 -1.665325,0.675446 l 0.966587,-3.307358 c 0.366869,0.1134 0.816498,0.05575 1.362539,-0.186331 0.54604,-0.242117 1.167119,-0.650627 1.851655,-1.222772 1.19322,-0.997276 2.218442,-2.1839 3.086091,-3.551935 0.873918,-1.373253 1.545809,-2.866017 2.014694,-4.483586 0.432796,-1.493063 0.481156,-2.411074 0.139748,-2.759995 -0.331866,-0.365468 -1.01342,-0.120705 -2.049631,0.74532 l -1.642034,1.374184 0.815194,-2.818242 1.711908,-1.432431 c 0.935727,-0.782065 1.755993,-1.712821 2.445582,-2.794951 0.692849,-1.09331 1.21656,-2.273338 1.583805,-3.540271 0.37705,-1.300808 0.408115,-2.081121 0.09317,-2.340753 -0.305417,-0.276104 -0.932026,-0.01755 -1.886592,0.780276 -0.521262,0.435677 -1.114514,0.998058 -1.770135,1.700224 -0.65564,0.70239 -1.395437,1.568788 -2.235961,2.596994 l 0.885068,-3.051154 c 0.827126,-0.9656 1.578767,-1.797936 2.259252,-2.503792 0.686745,-0.711185 1.304359,-1.302969 1.8633,-1.770136 0.993039,-0.829988 1.760473,-1.262237 2.305835,-1.292683 z m 67.928952,4.867873 C 97.207757,58.062351 90.499364,66.534965 81.90764,70.060107 l 1.30431,42.401713 c 2.245807,-1.25389 2.670095,-2.0048 3.656728,-4.37875 L 116.16908,54.315216 c 0.4087,-1.047212 0.44632,-1.72523 -0.19798,-2.166086 -4.83161,-1.351937 -8.98248,-3.003119 -13.49728,-5.217242 z m -22.115049,7.418284 1.024816,2.084549 -16.990973,8.349934 -1.036461,-2.084586 17.002618,-8.349897 z m 24.921649,7.825862 -1.16457,3.051118 c -1.29402,1.729292 -3.04671,4.056853 -5.252174,6.97575 -2.216538,2.933506 -3.629386,4.80698 -4.227364,5.636485 -1.131236,1.561855 -1.993262,2.844477 -2.585329,3.843057 -0.603128,1.013114 -1.072609,1.955944 -1.409121,2.829869 -0.548515,1.424568 -0.72286,2.480687 -0.524054,3.155984 0.192356,0.677869 0.726799,0.832523 1.595451,0.477452 0.615859,-0.251769 1.338476,-0.709917 2.177733,-1.385811 0.832799,-0.673285 1.801379,-1.570129 2.888116,-2.690121 l -1.420767,3.65669 c -1.016728,0.909812 -1.922673,1.655803 -2.725077,2.23596 -0.802378,0.580195 -1.490789,0.989599 -2.061276,1.22281 -1.503941,0.614703 -2.435043,0.405752 -2.794951,-0.617237 -0.359874,-1.023026 -0.09068,-2.696867 0.803548,-5.019247 0.424099,-1.10136 0.939406,-2.186062 1.548869,-3.272441 0.598406,-1.071733 1.455875,-2.400937 2.562038,-3.982767 0.295758,-0.413467 1.192405,-1.626065 2.701786,-3.645101 l 6.358512,-8.454726 -6.859274,2.794951 1.176209,-3.051155 9.211695,-3.76152 z m -25.69026,8.722558 c -4.739812,1.421698 -12.358677,1.720758 -20.286685,1.828345 -6.728222,0.06376 -15.939807,-0.465788 -21.369729,0.512408 -3.170682,3.05503 -6.584096,6.32147 -9.922076,9.211711 -2.972113,2.489369 -6.015919,5.07496 -9.770682,6.265348 -0.461816,0.03727 -0.536836,-0.01491 -1.001524,-0.06987 1.3919,1.252995 2.855511,2.012104 4.436984,2.911407 L 75.129884,112.9626 c 0.280747,0.0546 3.241711,1.15163 5.659776,0.0116 L 79.59016,70.898592 z M 53.911549,82.718924 c 0.238822,-0.008 0.475473,-0.0072 0.710383,0 0.268468,0.0082 0.528447,0.03056 0.791903,0.05821 2.107631,0.22177 3.783864,1.02284 5.030911,2.410664 0.891731,0.992394 1.258008,2.001781 1.083044,3.027863 -0.164086,1.021425 -0.844403,1.953075 -2.02634,2.794951 1.826877,-0.408472 3.528939,-0.406572 5.100786,-0.01166 1.582713,0.390138 2.870098,1.138887 3.866348,2.247625 1.511763,1.682337 1.944589,3.274788 1.304311,4.786335 -0.629427,1.507 -2.282737,2.834153 -4.972684,3.971173 -2.689965,1.13688 -5.161693,1.55653 -7.418265,1.26936 -2.245691,-0.29172 -4.124703,-1.27558 -5.636484,-2.95799 -0.996233,-1.108701 -1.391167,-2.232234 -1.187855,-3.377232 0.203324,-1.144999 0.975979,-2.185391 2.329126,-3.121029 l 0,-0.01163 c -1.638702,0.350301 -3.161682,0.354027 -4.576732,0 -1.404146,-0.358611 -2.55536,-1.033908 -3.447106,-2.026376 -1.247036,-1.387712 -1.543618,-2.778182 -0.885068,-4.169098 0.669458,-1.395501 2.217272,-2.599938 4.63496,-3.621809 1.859388,-0.785903 3.626997,-1.213568 5.298762,-1.269355 z m -0.582282,2.42229 c -0.96737,0.01789 -1.989327,0.261571 -3.051155,0.710365 -1.426654,0.603039 -2.301381,1.314521 -2.643557,2.154423 -0.331277,0.835467 -0.09775,1.709317 0.710383,2.608621 0.80814,0.89934 1.825848,1.434629 3.0628,1.607134 1.247845,0.167958 2.591088,-0.04923 4.017742,-0.652156 1.41577,-0.598454 2.289736,-1.314484 2.631912,-2.154459 0.353059,-0.84456 0.13269,-1.720833 -0.675446,-2.620286 -0.80814,-0.899266 -1.850653,-1.432095 -3.109383,-1.595432 -0.311961,-0.042 -0.620841,-0.06417 -0.943296,-0.05821 z m 7.185353,7.523039 c -1.10016,0 -2.239475,0.256428 -3.423815,0.756985 -1.568236,0.66285 -2.543931,1.478268 -2.911407,2.457209 -0.356584,0.974543 -0.06708,1.981247 0.873422,3.027863 0.940509,1.046765 2.134102,1.69039 3.563563,1.90988 1.440346,0.21503 2.938615,-0.0127 4.506858,-0.67541 1.568221,-0.662921 2.543919,-1.489891 2.911407,-2.468869 0.360497,-0.986767 0.07175,-2.000589 -0.861776,-3.039528 -0.940516,-1.046653 -2.134866,-1.671641 -3.575208,-1.886592 -0.357367,-0.05486 -0.716324,-0.08202 -1.083044,-0.08154 z" style="fill:#aaaaaa"/>
</svg>