<?xml version="1.0" encoding="UTF-8" standalone="no"?>
<svg xmlns:dc="http://purl.org/dc/elements/1.1/"
     xmlns:cc="http://creativecommons.org/ns#"
     xmlns:rdf="http://www.w3.org/1999/02/22-rdf-syntax-ns#"
     xmlns:svg="http://www.w3.org/2000/svg"
     xmlns="http://www.w3.org/2000/svg"
     xmlns:xlink="http://www.w3.org/1999/xlink"
     width="128" height="128" version="1.1">
    <title>Pdf Edit Application</title>
    <desc>This is shape (source) for Clarity vector icon theme for gtk</desc>
    <metadata>
        <rdf:RDF>
            <cc:Work rdf:about="">
                <dc:title>Pdf Edit Application</dc:title>
                <dc:description>This is shape (source) for Clarity vector icon theme for gtk</dc:description>
                <dc:creator>
                    <cc:Agent>
                        <dc:title>Jakub Jankiewicz</dc:title>
                    </cc:Agent>
                </dc:creator>
                <dc:rights>
                    <cc:Agent>
                        <dc:title>Jakub Jankiewicz</dc:title>
                    </cc:Agent>
                </dc:rights>
                <dc:date>2010</dc:date>
                <dc:format>image/svg+xml</dc:format>
                <dc:type rdf:resource="http://purl.org/dc/dcmitype/StillImage" />
                <cc:license rdf:resource="http://creativecommons.org/licenses/by-sa/3.0/" />
             </cc:Work>
        </rdf:RDF>
    </metadata>
    <path d="M 23.65625 23.21875 C 20.44524 23.21875 17.875 25.788995 17.875 29 L 17.875 99 C 17.875 102.211 20.44524 104.78125 23.65625 104.78125 L 104.34375 104.78125 C 107.55475 104.78125 110.125 102.211 110.125 99 L 110.125 29 C 110.125 25.788995 107.55475 23.21875 104.34375 23.21875 L 23.65625 23.21875 z M 23.875 41.9375 L 104.125 41.9375 L 104.125 99 L 23.875 99 L 23.875 41.9375 z M 63.3125 45.90625 C 63.013607 45.90395 62.714994 45.969317 62.4375 46.09375 C 61.882515 46.342617 61.506966 46.798233 61.25 47.28125 C 60.736073 48.247288 60.56661 49.463699 60.625 51.125 C 60.68698 52.888436 61.489379 55.584799 62.65625 58.75 C 62.843397 59.257653 63.10816 59.763688 63.3125 60.28125 C 62.565162 63.073767 61.458417 66.194162 60.125 70.75 C 58.88741 74.978433 57.780193 78.890897 56.46875 82.21875 C 53.825841 83.411162 51.293075 84.599401 49.96875 85.3125 C 48.462543 86.123527 46.925939 87.187801 45.6875 88.3125 C 44.449057 89.437204 43.399307 90.447522 43.25 92.03125 C 43.17478 92.829207 43.488297 93.41611 43.96875 93.90625 C 44.449207 94.396377 45.148056 94.755048 45.96875 94.90625 C 47.61013 95.208655 49.723989 94.698324 52.34375 92.84375 C 55.270393 90.771923 57.188116 87.733981 58.6875 84.15625 C 61.596312 82.862072 64.747092 81.512004 67.09375 80.59375 C 69.825221 79.524915 72.530542 78.682842 74.84375 78.125 C 76.086632 79.376953 77.299097 80.407427 78.5 80.90625 C 79.692963 81.401768 80.930324 81.407236 81.96875 81.09375 C 83.007172 80.780272 83.911556 80.198829 84.4375 79.25 C 84.700474 78.77558 84.844703 78.148323 84.71875 77.53125 C 84.592801 76.914176 84.207034 76.383061 83.71875 76 C 82.742188 75.233878 81.378218 74.894067 79.375 74.78125 C 78.325012 74.72212 77.079746 74.878972 75.75 75.125 C 75.386902 74.741752 75.051932 74.454653 74.6875 74.03125 C 72.723016 71.748877 70.714889 68.969102 69.25 66.5625 C 68.1583 64.768985 67.064781 62.402902 66.09375 60.03125 C 66.702802 57.515908 67.0789 55.074155 66.96875 52.125 C 66.91324 50.638495 66.641893 49.365417 66.1875 48.34375 C 65.733107 47.322084 65.160455 46.504686 64.15625 46.09375 C 63.905198 45.991015 63.611384 45.908543 63.3125 45.90625 z M 63.46875 49.0625 C 63.583853 49.204918 63.593209 49.155233 63.71875 49.4375 C 64.005357 50.081909 64.237033 51.034847 64.28125 52.21875 C 64.31414 53.099923 64.234211 53.861577 64.1875 54.65625 C 63.691983 52.975349 63.330712 51.549569 63.3125 51.03125 C 63.27918 50.084125 63.367287 49.484555 63.46875 49.0625 z M 64.9375 64.125 C 65.579945 65.4848 66.246884 66.834171 66.9375 67.96875 C 68.495197 70.527826 70.585063 73.374915 72.65625 75.78125 C 72.67872 75.80735 72.72759 75.81775 72.75 75.84375 C 70.6412 76.438421 68.388823 77.195676 66.09375 78.09375 C 64.327528 78.784878 62.077189 79.81022 59.90625 80.75 C 60.882444 77.839602 61.742804 74.758961 62.6875 71.53125 C 63.594836 68.431177 64.251687 66.346381 64.9375 64.125 z M 79.21875 77.46875 C 80.779794 77.55667 81.599766 77.87841 81.90625 78.0625 C 81.785812 78.186958 81.598053 78.40731 81.1875 78.53125 C 80.683676 78.683346 80.083236 78.666779 79.53125 78.4375 C 79.28312 78.334435 78.763582 77.8849 78.3125 77.53125 C 78.613537 77.51134 78.98136 77.45539 79.21875 77.46875 z M 54.6875 86.03125 C 53.608308 87.938374 52.354762 89.542328 50.78125 90.65625 C 48.52719 92.251942 47.095546 92.40249 46.4375 92.28125 C 46.189604 92.23561 46.116952 92.157127 46.03125 92.09375 C 46.16481 91.864362 46.609076 91.090349 47.5 90.28125 C 48.542076 89.334882 49.949517 88.356511 51.25 87.65625 C 51.890686 87.311266 53.512648 86.587225 54.6875 86.03125 z " style="fill:#aaaaaa"/>
</svg>