<?xml version="1.0" encoding="UTF-8" standalone="no"?>
<svg xmlns:dc="http://purl.org/dc/elements/1.1/"
     xmlns:cc="http://creativecommons.org/ns#"
     xmlns:rdf="http://www.w3.org/1999/02/22-rdf-syntax-ns#"
     xmlns:svg="http://www.w3.org/2000/svg"
     xmlns="http://www.w3.org/2000/svg"
     xmlns:xlink="http://www.w3.org/1999/xlink"
     width="128" height="128" version="1.1">
    <title>Picasa Font Config Icon</title>
    <desc>This is shape (source) for Clarity vector icon theme for gtk</desc>
    <metadata>
        <rdf:RDF>
            <cc:Work rdf:about="">
                <dc:title>Picasa Font Config Icon</dc:title>
                <dc:description>This is shape (source) for Clarity vector icon theme for gtk</dc:description>
                <dc:creator>
                    <cc:Agent>
                        <dc:title>Jakub Jankiewicz</dc:title>
                    </cc:Agent>
                </dc:creator>
                <dc:rights>
                    <cc:Agent>
                        <dc:title>Jakub Jankiewicz</dc:title>
                    </cc:Agent>
                </dc:rights>
                <dc:date>2010</dc:date>
                <dc:format>image/svg+xml</dc:format>
                <dc:type rdf:resource="http://purl.org/dc/dcmitype/StillImage" />
                <cc:license rdf:resource="http://creativecommons.org/licenses/by-sa/3.0/" />
             </cc:Work>
        </rdf:RDF>
    </metadata>
    <path d="M 63.961889,9.8974026 C 56.77346,9.8632193 49.636649,11.4282 42.995202,14.140488 50.168237,21.23345 57.447289,28.218108 64.73271,35.201534 l 16.727097,-19.903855 0.154194,-0.231414 0.462508,-0.617168 0.462483,-0.462901 0.539604,-0.540023 C 76.985926,11.124731 70.484384,9.8910578 63.961914,9.8974272 z M 39.372263,15.837701 C 20.722859,25.203583 8.6259036,46.030412 10.003491,66.908862 10.489582,70.443686 10.601404,77.753504 12.701414,79.252356 28.299774,64.550952 43.842874,49.84849 59.491057,35.201534 52.791768,28.741531 46.135516,22.225897 39.372263,15.837701 z m 48.408382,3.317306 -0.154194,0.231413 -55.65421,66.423376 c -4.040639,4.814239 -7.186511,7.936749 -9.250027,9.411894 -1.550545,1.071536 -3.243676,1.826839 -5.241654,2.160114 l -0.385435,0.07722 -0.153948,0.38573 -0.616676,2.160116 -0.231168,0.77146 0.847918,0 23.433345,0 0.616677,0 0,-0.61717 0,-2.160114 0,-0.617168 -0.616677,0 c -2.216775,-0.112879 -3.627636,-0.508053 -4.470832,-1.157191 -0.876716,-0.737031 -1.233329,-1.454242 -1.233329,-2.160114 0,-0.817768 0.114846,-1.66817 0.462508,-2.468699 0.471385,-1.088775 1.248109,-2.295372 2.312488,-3.703036 l 5.550017,-6.634635 4.702098,-5.863151 23.433345,0 -0.53958,9.411919 c -0.191328,4.21249 -0.740056,7.147803 -1.541692,8.717579 -0.856673,1.640184 -1.799591,2.713466 -2.697923,3.163013 -0.09739,0.0332 -0.713103,0.190837 -1.61874,0.308585 -0.94732,0.123207 -2.25477,0.231413 -3.931252,0.38573 l -0.385411,0.07722 -0.153947,0.38573 -0.693749,2.160112 -0.231168,0.77146 0.847893,0 33.993799,0 0.462507,0 0.153948,-0.46287 0.616652,-2.160093 0.153948,-0.694339 -0.693749,-0.07722 c -2.380216,-0.186164 -3.996963,-0.813932 -4.93334,-1.851506 -0.896488,-1.030098 -1.387572,-2.773397 -1.387498,-5.323127 -7.4e-5,-0.672821 0.03861,-2.736263 0.154194,-6.094613 l 2.620851,-64.340383 0,-0.617193 -0.616701,0 -2.620827,0 -0.308338,0 z m 10.868767,3.394476 -2.466682,59.094401 c 6.34661,-0.03984 12.693,-0.120257 19.03961,-0.154194 7.09525,-20.071651 0.74748,-43.940894 -15.339575,-57.860064 -0.407962,-0.36431 -0.814005,-0.729285 -1.233353,-1.080045 z m -26.131269,23.684037 -1.387498,23.221187 -18.422958,0 L 72.518143,46.23352 z M 38.524345,60.042788 c -7.906107,7.412491 -15.777908,14.862263 -23.664611,22.295435 -3.122633,1.278923 -0.862453,4.125999 1.541691,7.71468 0.730097,-0.149521 1.328624,-0.399871 2.004175,-0.848631 0.938983,-0.671247 4.102046,-3.528135 7.939577,-8.100411 L 38.601442,66.445986 c -0.02533,-2.13444 -0.06812,-4.268807 -0.07722,-6.403198 z m 74.231335,25.149864 c -5.54992,0.03738 -11.1001,0.03959 -16.650023,0.07722 -0.07722,2.405742 -0.152472,4.385447 -0.154193,4.783105 l 0.462532,0.07722 8.170814,0.925753 -1.7729,8.023264 -0.15395,0.694315 -0.0772,0.231411 -0.0772,0.23142 -0.61665,2.16011 0,0.15419 c 5.01014,-4.946 9.00717,-10.89124 11.79373,-17.358008 -0.30792,-4.9e-5 -0.61862,2.46e-4 -0.92499,0 z m -49.641734,0.308584 c -4.68085,0.02828 -9.348298,0.04918 -14.029173,0.07722 l -0.308314,0.38573 -0.07722,0 0,0.07722 -3.314576,3.934499 3.006237,0 0,7.406071 0,0.617169 0,2.160115 0,0.61717 0,7.40609 -5.704161,0 c -0.0123,1.82522 -0.0123,3.6331 0,5.47742 16.896169,7.60576 37.502801,5.23268 52.493804,-5.47742 l -0.53958,0 -0.462507,0 -33.993799,0 -0.847893,0 -9.943776,0 2.852092,-9.489036 0.231168,-0.771485 0,-0.07722 0.07722,-0.07722 0.693774,-2.16009 0.07722,-0.231413 0.07722,-0.231414 0.153948,-0.38573 1.46457,-3.780182 3.931277,-0.771461 0.385411,-0.07722 0.385411,-0.07722 0.38541,0 c 1.140222,-0.105009 1.764105,-0.161325 2.466658,-0.231413 -0.109928,0.112879 0.3287,-1.51946 0.539579,-4.320204 z M 32.820184,108.18238 c 1.973975,1.41902 4.024064,2.70232 6.166668,3.85735 -0.001,-1.28576 0.01476,-2.57167 0,-3.85735 l -6.166668,0 z" style="fill:#aaaaaa"/>
</svg>