<?xml version="1.0" encoding="UTF-8" standalone="no"?>
<svg xmlns:dc="http://purl.org/dc/elements/1.1/"
     xmlns:cc="http://creativecommons.org/ns#"
     xmlns:rdf="http://www.w3.org/1999/02/22-rdf-syntax-ns#"
     xmlns:svg="http://www.w3.org/2000/svg"
     xmlns="http://www.w3.org/2000/svg"
     xmlns:xlink="http://www.w3.org/1999/xlink"
     width="128" height="128" version="1.1">
    <title>Rhythnmbox Icon</title>
    <desc>This is shape (source) for Clarity vector icon theme for gtk</desc>
    <metadata>
        <rdf:RDF>
            <cc:Work rdf:about="">
                <dc:title>Rhythnmbox Icon</dc:title>
                <dc:description>This is shape (source) for Clarity vector icon theme for gtk</dc:description>
                <dc:creator>
                    <cc:Agent>
                        <dc:title>Jakub Jankiewicz</dc:title>
                    </cc:Agent>
                </dc:creator>
                <dc:rights>
                    <cc:Agent>
                        <dc:title>Jakub Jankiewicz</dc:title>
                    </cc:Agent>
                </dc:rights>
                <dc:date>2010</dc:date>
                <dc:format>image/svg+xml</dc:format>
                <dc:type rdf:resource="http://purl.org/dc/dcmitype/StillImage" />
                <cc:license rdf:resource="http://creativecommons.org/licenses/by-sa/3.0/" />
             </cc:Work>
        </rdf:RDF>
    </metadata>
    <path d="m 36.011818,15.416182 c -3.844945,0 -6.948994,3.104048 -6.948994,6.948994 l 0,83.299224 c 0,3.84494 3.104049,6.91942 6.948994,6.91942 l 55.976363,0 c 3.844946,0 6.948999,-3.07448 6.948999,-6.91942 l 0,-83.299224 c 0,-3.844946 -3.104053,-6.948994 -6.948999,-6.948994 l -55.976363,0 z m -15.051225,4.67209 a 2.2399208,1.5992716 0 0 0 -1.774211,0.857535 c -14.374671,17.776573 -14.374671,39.707869 0,57.484443 a 2.2639948,1.61646 0 1 0 3.873695,-1.65593 c -13.5780946,-16.791482 -13.5780946,-37.469812 0,-54.261293 a 2.2399208,1.5992716 0 0 0 -1.892492,-2.424756 2.2399208,1.5992716 0 0 0 -0.206992,0 z m 85.753547,0.02957 a 2.2639948,1.61646 0 0 0 -1.80378,2.454325 c 13.57809,16.791481 13.57809,37.469811 0,54.261293 a 2.2399208,1.5992716 0 0 0 1.89249,2.424756 2.2399208,1.5992716 0 0 0 2.01077,-0.857536 c 14.37467,-17.776573 14.37467,-39.70787 0,-57.484442 a 2.2639948,1.61646 0 0 0 -2.09948,-0.798396 z m -42.728925,6.41673 c 12.776804,0 23.153457,10.347083 23.153457,23.123887 0,12.776804 -10.376653,23.153455 -23.153457,23.153455 -12.776803,0 -23.123886,-10.376652 -23.123886,-23.153455 0,-12.776804 10.347083,-23.123887 23.123886,-23.123887 z m 40.747715,11.621086 a 2.2399208,1.5992716 0 0 0 -1.83334,2.306475 c 3.03015,5.944128 3.03015,12.448527 0,18.392656 a 2.2399208,1.5992716 0 0 0 2.21776,2.188194 2.2399208,1.5992716 0 0 0 1.95163,-1.094097 c 3.39002,-6.650052 3.39002,-13.930799 0,-20.580849 a 2.2399208,1.5992716 0 0 0 -2.33605,-1.212379 z m -81.879845,0.11828 a 2.2399208,1.5992716 0 0 0 -1.922062,1.094099 c -3.390011,6.650052 -3.390011,13.960369 0,20.610419 A 2.2399208,1.5992716 0 1 0 25.10042,58.88436 c -3.030153,-5.94413 -3.030153,-12.478099 0,-18.422226 a 2.2399208,1.5992716 0 0 0 -2.247335,-2.188195 z m 41.13213,7.215128 c -2.299824,0 -4.169396,1.869571 -4.169396,4.169396 0,2.299824 1.869572,4.169395 4.169396,4.169395 2.299825,0 4.169397,-1.869571 4.169397,-4.169395 0,-2.299825 -1.869572,-4.169396 -4.169397,-4.169396 z M 47.3372,80.204462 c 6.516169,0 11.798505,5.282334 11.798505,11.798504 0,6.516171 -5.282336,11.798504 -11.798505,11.798504 -6.516169,0 -11.798505,-5.282333 -11.798505,-11.798504 0,-6.516171 5.282336,-11.798504 11.798505,-11.798504 z m 33.325601,0 c 6.516169,0 11.798504,5.282334 11.798504,11.798504 0,6.516171 -5.282335,11.798504 -11.798504,11.798504 -6.51617,0 -11.798505,-5.282333 -11.798505,-11.798504 0,-6.516171 5.282335,-11.798504 11.798505,-11.798504 z" style="fill:#aaaaaa"/>
</svg>