<?xml version="1.0" encoding="UTF-8" standalone="no"?>
<svg xmlns:dc="http://purl.org/dc/elements/1.1/"
     xmlns:cc="http://creativecommons.org/ns#"
     xmlns:rdf="http://www.w3.org/1999/02/22-rdf-syntax-ns#"
     xmlns:svg="http://www.w3.org/2000/svg"
     xmlns="http://www.w3.org/2000/svg"
     xmlns:xlink="http://www.w3.org/1999/xlink"
     width="128" height="128" version="1.1">
    <title>Ristretto Icon</title>
    <desc>This is shape (source) for Clarity vector icon theme for gtk</desc>
    <metadata>
        <rdf:RDF>
            <cc:Work rdf:about="">
                <dc:title>Ristretto Icon</dc:title>
                <dc:description>This is shape (source) for Clarity vector icon theme for gtk</dc:description>
                <dc:creator>
                    <cc:Agent>
                        <dc:title>Jakub Jankiewicz</dc:title>
                    </cc:Agent>
                </dc:creator>
                <dc:rights>
                    <cc:Agent>
                        <dc:title>Jakub Jankiewicz</dc:title>
                    </cc:Agent>
                </dc:rights>
                <dc:date>2010</dc:date>
                <dc:format>image/svg+xml</dc:format>
                <dc:type rdf:resource="http://purl.org/dc/dcmitype/StillImage" />
                <cc:license rdf:resource="http://creativecommons.org/licenses/by-sa/3.0/" />
             </cc:Work>
        </rdf:RDF>
    </metadata>
    <path d="M 23.65625 23.21875 C 20.44525 23.21875 17.875 25.788995 17.875 29 L 17.875 99 C 17.875 102.211 20.44525 104.78125 23.65625 104.78125 L 104.34375 104.78125 C 107.55475 104.78125 110.125 102.211 110.125 99 L 110.125 29 C 110.125 25.788995 107.55475 23.21875 104.34375 23.21875 L 23.65625 23.21875 z M 23.875 41.9375 L 104.125 41.9375 L 104.125 99 L 23.875 99 L 23.875 41.9375 z M 40.4375 52.59375 L 40.4375 73.03125 C 40.4375 75.893275 42.762969 78.1875 45.625 78.1875 L 80.71875 78.1875 C 83.580779 78.1875 85.875 75.893275 85.875 73.03125 L 85.875 71.5 C 86.120166 71.52122 86.405124 71.53125 86.65625 71.53125 C 91.03279 71.53125 94.5625 68.245741 94.5625 64.1875 C 94.5625 60.129264 91.03279 56.84375 86.65625 56.84375 C 86.405124 56.84375 86.120166 56.85382 85.875 56.875 L 85.875 52.59375 L 40.4375 52.59375 z M 86.65625 60.28125 C 88.96388 60.28125 90.8125 62.047705 90.8125 64.1875 C 90.8125 66.327299 88.963878 68.0625 86.65625 68.0625 C 86.401782 68.0625 86.116982 68.04041 85.875 68 L 85.875 60.375 C 86.11698 60.3346 86.401782 60.28125 86.65625 60.28125 z M 33.4375 81.9375 L 33.4375 83.1875 C 33.4375 86.049525 35.762969 88.34375 38.625 88.34375 L 87.71875 88.34375 C 90.580781 88.34375 92.875 86.049525 92.875 83.1875 L 92.875 81.9375 L 33.4375 81.9375 z " style="fill:#aaaaaa"/>
</svg>