<?xml version="1.0" encoding="UTF-8" standalone="no"?>
<svg xmlns:dc="http://purl.org/dc/elements/1.1/"
     xmlns:cc="http://creativecommons.org/ns#"
     xmlns:rdf="http://www.w3.org/1999/02/22-rdf-syntax-ns#"
     xmlns:svg="http://www.w3.org/2000/svg"
     xmlns="http://www.w3.org/2000/svg"
     xmlns:xlink="http://www.w3.org/1999/xlink"
     width="128" height="128" version="1.1">
    <title>SCIM Icon</title>
    <desc>This is shape (source) for Clarity vector icon theme for gtk</desc>
    <metadata>
        <rdf:RDF>
            <cc:Work rdf:about="">
                <dc:title>SCIM Icon</dc:title>
                <dc:description>This is shape (source) for Clarity vector icon theme for gtk</dc:description>
                <dc:creator>
                    <cc:Agent>
                        <dc:title>Jakub Jankiewicz</dc:title>
                    </cc:Agent>
                </dc:creator>
                <dc:rights>
                    <cc:Agent>
                        <dc:title>Jakub Jankiewicz</dc:title>
                    </cc:Agent>
                </dc:rights>
                <dc:date>2010</dc:date>
                <dc:format>image/svg+xml</dc:format>
                <dc:type rdf:resource="http://purl.org/dc/dcmitype/StillImage" />
                <cc:license rdf:resource="http://creativecommons.org/licenses/by-sa/3.0/" />
             </cc:Work>
        </rdf:RDF>
    </metadata>
    <path d="m 15.894379,23.819347 c -4.604362,0 -8.3492266,3.708877 -8.3492266,8.313238 l 0,45.560867 c 0.3074819,2.263332 0.2961039,3.097518 1.8353904,6.6218 l 5.9740152,13.675457 c 1.741564,3.987391 2.655464,6.189941 7.953354,6.189941 l 89.430298,0 c 7.6269,0 11.75365,-7.490163 2.01533,-13.279586 L 96.183705,79.852734 C 93.514797,78.599118 92.22502,77.156589 92.22502,74.454527 l 0,-42.321942 c 0,-4.604361 -3.708876,-8.313238 -8.313239,-8.313238 z m 2.12329,10.508509 63.446925,0 0,40.666492 -63.446925,0 z m 10.111231,3.742757 0,3.179353 c -1.667935,0.108216 -2.950911,0.62801 -3.870517,1.520561 -0.919621,0.892582 -1.382328,2.088421 -1.382328,3.594051 0,1.415497 0.424651,2.544231 1.290173,3.409741 0.865521,0.856513 2.186539,1.445416 3.962672,1.797025 l 0,4.469526 c -0.766348,-0.009 -1.567582,-0.16325 -2.442112,-0.460776 -0.865521,-0.297518 -1.743871,-0.740202 -2.672499,-1.290172 l 0,3.547974 c 0.928628,0.387681 1.815987,0.714188 2.672499,0.921552 0.856498,0.207363 1.657732,0.295495 2.442112,0.322543 l 0,4.100905 1.935259,0 0,-4.100905 c 1.622845,-0.08114 2.942875,-0.573898 3.916593,-1.520561 0.982715,-0.94666 1.474468,-2.161527 1.474484,-3.640128 -1.6e-5,-1.550717 -0.471747,-2.803645 -1.382327,-3.732285 -0.901603,-0.937637 -2.232648,-1.563601 -4.00875,-1.843103 l 0,-4.146983 c 0.820432,0.05411 1.572579,0.198333 2.257801,0.414698 0.685192,0.216395 1.284112,0.514855 1.843104,0.875474 l 0,-3.455818 c -0.721289,-0.225379 -1.425368,-0.426692 -2.119569,-0.552931 -0.685222,-0.126205 -1.34122,-0.194308 -1.981336,-0.230388 l 0,-3.179353 z m 0,6.128318 0,3.82444 c -0.558991,-0.153258 -0.955597,-0.394628 -1.244095,-0.737242 -0.279502,-0.34259 -0.414698,-0.776258 -0.414698,-1.290172 0,-0.522904 0.13521,-0.900482 0.414698,-1.198017 0.288498,-0.306525 0.685104,-0.526867 1.244095,-0.599009 z m 24.697584,3.916595 c -0.658164,0.577024 -1.313174,1.010692 -1.935259,1.290172 -0.622099,0.270485 -1.258087,0.414707 -1.889181,0.414699 -0.838478,8e-6 -1.76491,-0.241362 -2.810731,-0.737242 l -0.460777,-0.230387 c -0.667174,-0.279482 -1.208014,-0.453746 -1.658792,-0.552932 -0.450793,-0.09916 -0.904492,-0.138218 -1.382328,-0.138232 -0.748314,1e-5 -1.461419,0.125193 -2.119569,0.36862 -0.658164,0.243438 -1.324174,0.648062 -2.027413,1.198017 l 0,3.087199 c 0.667174,-0.567993 1.304151,-0.982629 1.935258,-1.244096 0.640118,-0.26145 1.324175,-0.41469 2.027414,-0.414698 0.459802,8e-6 0.922509,0.07613 1.382327,0.184311 0.468812,0.108203 1.01064,0.292478 1.704871,0.599009 0.09923,0.03607 0.262413,0.09416 0.460776,0.18431 1.018779,0.459813 1.953217,0.691169 2.764654,0.691164 0.712235,5e-6 1.387282,-0.125181 2.027414,-0.368622 0.649126,-0.252435 1.305139,-0.610983 1.981336,-1.151939 z m -22.762325,3.82444 c 0.577009,0.108203 1.029705,0.330537 1.336249,0.691163 0.31554,0.351624 0.460762,0.823352 0.460776,1.382328 -1.4e-5,0.54997 -0.145236,1.021699 -0.460776,1.382327 -0.315568,0.351622 -0.768264,0.563946 -1.336249,0.645086 z" style="fill:#aaaaaa"/>
</svg>