<?xml version="1.0" encoding="UTF-8" standalone="no"?>
<svg xmlns:dc="http://purl.org/dc/elements/1.1/"
     xmlns:cc="http://creativecommons.org/ns#"
     xmlns:rdf="http://www.w3.org/1999/02/22-rdf-syntax-ns#"
     xmlns:svg="http://www.w3.org/2000/svg"
     xmlns="http://www.w3.org/2000/svg"
     xmlns:xlink="http://www.w3.org/1999/xlink"
     width="128" height="128" version="1.1">
    <title>scrcpy icon</title>
    <desc>This is shape (source) for Clarity vector icon theme for gtk</desc>
    <metadata>
        <rdf:RDF>
            <cc:Work rdf:about="">
                <dc:title>scrcpy icon</dc:title>
                <dc:description>This is shape (source) for Clarity vector icon theme for gtk</dc:description>
                <dc:creator>
                    <cc:Agent>
                        <dc:title>Jakub Jankiewicz</dc:title>
                    </cc:Agent>
                </dc:creator>
                <dc:rights>
                    <cc:Agent>
                        <dc:title>Jakub Jankiewicz</dc:title>
                    </cc:Agent>
                </dc:rights>
                <dc:date>2010</dc:date>
                <dc:format>image/svg+xml</dc:format>
                <dc:type rdf:resource="http://purl.org/dc/dcmitype/StillImage" />
                <cc:license rdf:resource="http://creativecommons.org/licenses/by-sa/3.0/" />
             </cc:Work>
        </rdf:RDF>
    </metadata>
    <path d="m 17.117632,16.990679 c -4.454655,0 -8.050486,3.552055 -8.050486,8.00671 v 63.887323 c 0,4.454654 3.595831,8.050486 8.050486,8.050486 h 93.808518 c 4.45465,0 8.00671,-3.595832 8.00671,-8.050486 V 24.997389 c 0,-4.454655 -3.55206,-8.00671 -8.00671,-8.00671 z m 3.329197,9.186485 h 87.150111 v 61.56936 H 20.446829 Z M 41.65651,40.759093 c -0.124412,-0.0049 -0.249174,-3.32e-4 -0.374288,0.01313 -0.333642,0.03591 -0.665531,0.137378 -0.978404,0.310812 -1.251485,0.693711 -1.704947,2.261574 -1.011236,3.513059 L 45.020728,54.92952 C 34.603734,60.867929 28.150506,71.269119 27.871312,82.567772 H 100.12869 C 99.838217,71.271466 93.375044,60.877137 82.955194,54.947034 l 5.73909,-10.350937 c 0.693711,-1.251485 0.24025,-2.819348 -1.011236,-3.513059 -0.312867,-0.173435 -0.644763,-0.274895 -0.978402,-0.310812 -1.000915,-0.107711 -2.009995,0.381244 -2.530278,1.319859 l -5.866042,10.58733 C 73.787871,50.875741 68.915929,49.942821 63.991245,49.93901 59.070877,49.95205 54.204883,50.892179 49.691674,52.701303 L 43.812499,42.092085 c -0.45524,-0.821292 -1.285106,-1.298522 -2.155989,-1.332992 z m 5.647159,23.243095 c 1.650921,0 3.020574,1.36965 3.020574,3.020575 0,1.650917 -1.369653,3.020573 -3.020574,3.020573 -1.650918,0 -3.020573,-1.369652 -3.020573,-3.020573 0,-1.650922 1.369653,-3.020575 3.020573,-3.020575 z m 33.379529,0 c 1.650929,0 3.020573,1.36965 3.020573,3.020575 0,1.650917 -1.369644,3.020573 -3.020573,3.020573 -1.650913,0 -3.020574,-1.369652 -3.020574,-3.020573 0,-1.650922 1.36966,-3.020575 3.020574,-3.020575 z M 36.797325,102.45541 c -4.740819,0 -8.553914,3.81309 -8.553914,8.55391 h 71.556953 c 0,-4.74082 -3.81528,-8.55391 -8.556102,-8.55391 z" style="fill:#aaaaaa"/>
</svg>