<?xml version="1.0" encoding="UTF-8" standalone="no"?>
<svg xmlns:dc="http://purl.org/dc/elements/1.1/"
     xmlns:cc="http://creativecommons.org/ns#"
     xmlns:rdf="http://www.w3.org/1999/02/22-rdf-syntax-ns#"
     xmlns:svg="http://www.w3.org/2000/svg"
     xmlns="http://www.w3.org/2000/svg"
     xmlns:xlink="http://www.w3.org/1999/xlink"
     width="128" height="128" version="1.1">
    <title>SMPLayer Icon</title>
    <desc>This is shape (source) for Clarity vector icon theme for gtk</desc>
    <metadata>
        <rdf:RDF>
            <cc:Work rdf:about="">
                <dc:title>SMPLayer Icon</dc:title>
                <dc:description>This is shape (source) for Clarity vector icon theme for gtk</dc:description>
                <dc:creator>
                    <cc:Agent>
                        <dc:title>Jakub Jankiewicz</dc:title>
                    </cc:Agent>
                </dc:creator>
                <dc:rights>
                    <cc:Agent>
                        <dc:title>Jakub Jankiewicz</dc:title>
                    </cc:Agent>
                </dc:rights>
                <dc:date>2010</dc:date>
                <dc:format>image/svg+xml</dc:format>
                <dc:type rdf:resource="http://purl.org/dc/dcmitype/StillImage" />
                <cc:license rdf:resource="http://creativecommons.org/licenses/by-sa/3.0/" />
             </cc:Work>
        </rdf:RDF>
    </metadata>
    <path d="m 77.900515,13.034817 c -14.823808,0 -27.725707,8.360192 -34.174041,20.63757 L 35.145979,24.278226 10.95786,45.211674 74.42394,114.96518 86.185144,104.83132 c -0.518608,-0.64943 -1.026173,-1.29117 -1.479418,-1.99718 l -7.618877,6.50934 -17.826717,-19.601995 11.539294,-9.690042 c -0.02483,3.257826 0.752668,6.513336 2.662909,9.394164 2.307574,3.480054 6.160362,6.396812 11.909142,7.914767 0.347957,0.801908 0.780588,1.552571 1.183515,2.293063 2.939861,5.403093 7.393135,9.098283 13.314543,9.098283 5.997115,0 10.353105,-3.74146 13.166625,-9.172253 2.81355,-5.430797 4.14597,-12.571465 3.99437,-19.749934 -0.002,-0.126192 0.002,-0.243663 0,-0.369848 -0.12393,-6.225195 -1.38877,-12.464229 -3.69849,-17.308929 -0.0545,-0.121298 -0.0921,-0.249918 -0.14803,-0.369849 -0.0702,-0.141598 -0.14997,-0.304744 -0.22182,-0.44382 -0.21651,-0.447449 -0.43188,-0.905237 -0.66572,-1.331455 -2.96561,-5.405619 -7.38,-9.064803 -13.092662,-9.024315 -5.786898,0.04101 -10.105252,3.749313 -12.944694,9.172255 -0.400445,0.764778 -0.76711,1.611938 -1.109546,2.441002 -7.183184,0.257758 -12.698024,6.758562 -14.054263,14.12823 L 57.706768,88.04018 37.734923,66.071153 53.564466,52.682622 69.76385,70.583311 c 0.848096,-1.7626 1.906215,-3.369753 3.180697,-4.808036 2.565914,-2.894621 5.919479,-5.037418 9.837967,-5.769643 0.204213,-0.445775 0.361386,-0.89146 0.591758,-1.331456 2.132487,-4.072733 5.309856,-7.529827 9.320204,-9.394164 -1.93e-4,-0.02546 0,-0.04846 0,-0.07397 0,-5.524318 4.461592,-9.985919 9.985934,-9.985919 5.52431,0 10.05987,4.461601 10.05987,9.985919 0,1.61456 -0.43029,3.085283 -1.10954,4.438188 1.33852,1.462994 2.50086,3.103506 3.47657,4.882006 0.2194,0.399728 0.37489,0.661892 0.51779,0.961606 0.53233,-2.552626 0.81367,-5.205213 0.81367,-7.914765 0,-21.28705 -17.251212,-38.538257 -38.538255,-38.53826 z m 10.133871,5.029946 c 5.524315,0 9.985907,4.535571 9.985907,10.059891 0,5.52432 -4.461592,9.985921 -9.985907,9.985921 -5.524315,-2e-6 -10.059901,-4.461599 -10.059901,-9.985921 0,-5.524318 4.535586,-10.059891 10.059901,-10.059891 z m -24.410043,3.624519 c 5.524339,-2e-6 9.985931,4.461599 9.985931,9.985921 0,5.524321 -4.461616,10.059892 -9.985931,10.059892 -5.524315,0 -10.059877,-4.535571 -10.059877,-10.059892 0,-5.524322 4.535562,-9.985921 10.059877,-9.985921 z M 33.000856,30.121838 51.937133,50.981317 36.181557,64.369848 17.393232,43.658309 33.000856,30.121838 z m 19.380095,13.092653 c 0.05594,-9.21e-4 0.09186,0 0.148036,0 5.524315,-3e-6 9.985907,4.461601 9.985907,9.985921 0,0.353468 -0.03689,0.692781 -0.07402,1.035576 L 52.381,43.214491 z m -36.245206,1.775274 4.068339,4.438189 -2.367034,2.071153 -4.142307,-4.438188 2.441002,-2.071154 z m 6.361402,6.435372 4.142307,4.512156 -2.441002,2.071156 -4.068337,-4.512158 2.367032,-2.071154 z m 76.706661,0.369849 c 2.845112,-0.02001 5.398552,0.915138 7.544932,2.588941 -1.53434,-0.848047 -3.24519,-1.345421 -5.10393,-1.331454 -5.01996,0.03771 -8.793257,3.471929 -11.243394,8.432555 -2.450138,4.960627 -3.661717,11.505097 -3.624515,18.048627 0.03713,6.543532 1.309514,13.105961 3.846424,18.048629 2.536909,4.942666 6.404115,8.284616 11.539295,8.284616 3.68715,0 6.65739,-1.67083 8.95033,-4.43819 -2.68429,4.02598 -6.37972,6.50934 -11.243415,6.50934 -5.61169,10e-6 -9.866466,-3.4049 -12.722785,-8.654461 -2.856344,-5.249557 -4.321705,-12.322081 -4.364236,-19.380086 -0.04243,-7.058 1.383171,-14.110481 4.142327,-19.380083 2.759156,-5.269602 6.809381,-8.689668 12.278967,-8.728434 z m -70.493198,6.361402 4.068337,4.438186 -2.367034,2.071153 -4.068338,-4.438186 2.367035,-2.071153 z m 5.991551,6.509339 4.068338,4.512158 -2.441002,2.071153 -4.068338,-4.512155 2.441002,-2.071156 z m 62.282556,1.997186 c 2.619101,-0.01977 4.591713,1.775685 5.917603,4.364216 1.32588,2.588532 2.00388,5.983234 2.07115,9.394164 0.0673,3.410928 -0.4423,6.86524 -1.70131,9.468132 -1.25902,2.602893 -3.32622,4.364218 -6.065534,4.364218 -2.706692,0 -4.750502,-1.775627 -6.065514,-4.364218 -1.315035,-2.588592 -1.904092,-5.992427 -1.923211,-9.394162 -0.01929,-3.401737 0.579341,-6.796449 1.849242,-9.394164 1.269901,-2.597712 3.267758,-4.418073 5.917574,-4.438186 z m -55.995123,4.882004 4.142307,4.512158 -2.441002,2.071153 -4.06834,-4.512155 2.367035,-2.071156 z m 5.843612,6.139493 4.068328,4.512158 -2.36703,2.071154 -4.1423,-4.512158 2.441002,-2.071154 z m 6.287442,6.731251 4.068333,4.512158 -2.36703,2.071153 -4.068357,-4.512158 2.367054,-2.071153 z m 6.287423,6.731251 4.068332,4.512157 -2.367029,2.071154 -4.068333,-4.512158 2.36703,-2.071153 z m 5.991544,6.657281 4.142326,4.512157 -2.441023,2.07115 -4.068333,-4.512154 2.36703,-2.071153 z m 6.139508,6.287437 4.142302,4.51215 -2.440999,2.07115 -4.068333,-4.51215 2.36703,-2.07115 z" style="fill:#aaaaaa"/>
</svg>