<?xml version="1.0" encoding="UTF-8" standalone="no"?>
<svg xmlns:dc="http://purl.org/dc/elements/1.1/"
     xmlns:cc="http://creativecommons.org/ns#"
     xmlns:rdf="http://www.w3.org/1999/02/22-rdf-syntax-ns#"
     xmlns:svg="http://www.w3.org/2000/svg"
     xmlns="http://www.w3.org/2000/svg"
     xmlns:xlink="http://www.w3.org/1999/xlink"
     width="128" height="128" version="1.1">
    <title>Install Package Icon</title>
    <desc>This is shape (source) for Clarity vector icon theme for gtk</desc>
    <metadata>
        <rdf:RDF>
            <cc:Work rdf:about="">
                <dc:title>Install Package Icon</dc:title>
                <dc:description>This is shape (source) for Clarity vector icon theme for gtk</dc:description>
                <dc:creator>
                    <cc:Agent>
                        <dc:title>Jakub Jankiewicz</dc:title>
                    </cc:Agent>
                </dc:creator>
                <dc:rights>
                    <cc:Agent>
                        <dc:title>Jakub Jankiewicz</dc:title>
                    </cc:Agent>
                </dc:rights>
                <dc:date>2010</dc:date>
                <dc:format>image/svg+xml</dc:format>
                <dc:type rdf:resource="http://purl.org/dc/dcmitype/StillImage" />
                <cc:license rdf:resource="http://creativecommons.org/licenses/by-sa/3.0/" />
             </cc:Work>
        </rdf:RDF>
    </metadata>
    <path d="m 53.115914,13.765625 c -23.815457,3.165084 -26.768565,4.877779 -39.4375,11.1875 -3.153862,1.57077 -6.0445076,5.328025 -5.8124996,8.84375 l 2.4687496,45.03125 c 0.653311,5.558853 0.604478,11.193822 8,12.96875 l 28,9.593755 c 6.73153,1.61557 12.197841,2.03665 18.15625,-0.4375 -2.308844,-4.362995 -3.625,-9.329463 -3.625,-14.593755 0,-17.289985 14.120991,-31.375 31.40625,-31.375 3.653832,0 7.17214,0.624996 10.437496,1.78125 l 1.3125,-20.28125 c 0.38731,-5.88728 -2.54378,-9.06708 -7.593746,-12.15625 -11.907246,-7.283905 -24.465551,-10.415236 -43.3125,-10.5625 z m 4.0625,9.0625 c 10.082151,-0.103703 20.64106,1.462147 30.71875,4.96875 0,0 -16.123511,7.096366 -23.625,11.15625 -2.747774,1.487125 -6.054457,3.172182 -6.59375,6.6875 l -2.15625,42.15625 -2.03125,-43.28125 c -0.147218,-3.123647 -6.416439,-5.893471 -9.375,-6.90625 -13.871737,-4.74859 -21.5,-6.84375 -21.5,-6.84375 9.400894,-4.937532 21.599734,-7.804168 34.5625,-7.9375 z m 35.09375,35.65625 c -15.401306,0 -27.90625,12.473688 -27.90625,27.875 0,15.401305 12.504944,27.875005 27.90625,27.875005 15.401296,0 27.874996,-12.4737 27.874996,-27.875005 0,-15.401312 -12.4737,-27.875 -27.874996,-27.875 z m 0,22.4375 c 3.008632,0 5.4375,2.428871 5.4375,5.4375 0,3.008626 -2.428868,5.4375 -5.4375,5.4375 -3.008624,0 -5.4375,-2.428874 -5.4375,-5.4375 0,-3.008629 2.428876,-5.4375 5.4375,-5.4375 z" style="fill:#aaaaaa"/>
</svg>