<?xml version="1.0" encoding="UTF-8" standalone="no"?>
<svg xmlns:dc="http://purl.org/dc/elements/1.1/"
     xmlns:cc="http://creativecommons.org/ns#"
     xmlns:rdf="http://www.w3.org/1999/02/22-rdf-syntax-ns#"
     xmlns:svg="http://www.w3.org/2000/svg"
     xmlns="http://www.w3.org/2000/svg"
     xmlns:xlink="http://www.w3.org/1999/xlink"
     width="128" height="128" version="1.1">
    <title>Thunar Icon</title>
    <desc>This is shape (source) for Clarity vector icon theme for gtk</desc>
    <metadata>
        <rdf:RDF>
            <cc:Work rdf:about="">
                <dc:title>Thunar Icon</dc:title>
                <dc:description>This is shape (source) for Clarity vector icon theme for gtk</dc:description>
                <dc:creator>
                    <cc:Agent>
                        <dc:title>Jakub Jankiewicz</dc:title>
                    </cc:Agent>
                </dc:creator>
                <dc:rights>
                    <cc:Agent>
                        <dc:title>Jakub Jankiewicz</dc:title>
                    </cc:Agent>
                </dc:rights>
                <dc:date>2010</dc:date>
                <dc:format>image/svg+xml</dc:format>
                <dc:type rdf:resource="http://purl.org/dc/dcmitype/StillImage" />
                <cc:license rdf:resource="http://creativecommons.org/licenses/by-sa/3.0/" />
             </cc:Work>
        </rdf:RDF>
    </metadata>
    <path d="M 75.132354,5.2774166 C 50.184335,5.3408121 20.498408,6.2618133 20.498408,6.2618133 l -8.425268,37.2333107 7.788306,19.91953 31.587513,0 c 0,0 -2.809902,31.788498 -3.242715,48.235386 -0.432812,16.44689 31.66614,12.65797 31.153219,1.10021 l -2.17146,-48.930255 30.081967,-0.405341 8.65689,-19.282568 c 0,0 -4.96277,-26.385518 -8.42526,-37.6386499 C 103.36282,5.5196081 90.101168,5.2393793 75.132354,5.2774166 z m 30.313586,2.7173876 c 0,0 -55.697907,1.2285514 -66.562499,2.6057538 -10.864593,1.377201 -17.586793,3.346088 -17.586793,3.040044 l 1.13533,-5.3273169 c 0,0 60.672692,-2.6138179 83.013962,-0.3184809 z M 85.873847,11.502271 c 0,0 -4.744277,3.842756 -6.427526,7.209249 -1.683245,3.366495 -6.423537,7.172039 -8.106786,7.325059 0,2.907427 -0.757145,8.748024 -3.358525,10.278247 -2.601381,1.530224 -2.316224,4.574544 -2.316224,4.574544 0,0 -9.786048,-5.671347 -9.786048,-13.781536 -8.263211,-3.978583 -9.947428,-6.866186 -10.712539,-9.467569 -0.765113,-2.601379 -2.589332,-4.438132 -3.966534,-5.356267 6.579963,-0.153035 12.996211,-1.831994 18.964089,1.534497 -0.765114,1.989293 -1.679265,2.895281 -1.679265,2.895281 0,0 -4.889427,-1.828106 -10.857301,-1.216016 2.601379,2.142313 2.280467,9.781869 18.500844,9.322803 l 0,3.21376 -6.717052,-0.289527 c 0,0 0.132508,4.587076 1.96879,5.964278 1.836269,1.377203 3.387478,2.432036 3.387478,2.432036 0,0 4.272581,-5.050515 3.966536,-8.57003 -0.306045,-3.519517 -1.369235,-5.186924 -3.358524,-7.788306 1.224178,-2.601382 1.968788,-2.316225 1.968788,-2.316225 0,0 3.83003,3.383593 3.677008,6.137996 2.907425,-3.519517 6.43996,-7.197006 6.746004,-9.033277 -3.519517,-0.612086 -10.249683,-0.446339 -14.534309,3.532244 -4.284629,3.978582 -3.677009,5.356268 -3.677009,5.356268 l -3.358524,-1.389733 c 0,0 4.26063,-7.809097 9.004322,-9.033276 4.743698,-1.22418 20.672307,-1.5345 20.672307,-1.5345 z m -56.081588,7.122391 c 2.485118,-0.08966 5.133196,0.46135 8.193644,2.374131 4.896717,3.060447 6.71705,-0.14476 6.71705,-0.14476 0,0 1.848997,1.522355 3.532243,4.429778 -3.06045,2.754407 -15.601965,0.165555 -21.569841,1.389736 -5.967874,1.22418 -4.29687,6.274501 1.824027,6.427525 6.120897,0.153034 4.296967,-3.681089 -0.752772,-3.068998 7.804143,-5.508808 10.092094,-1.07932 9.786049,1.216017 -0.306048,2.295337 -5.972734,5.066741 -7.962021,5.066741 -1.989293,0 -8.888609,-1.092334 -9.959767,-5.529986 -1.071159,-4.437649 6.117978,-6.890767 13.463055,-6.890767 -2.907427,-4.43765 -7.643542,-4.574543 -7.643542,-4.574543 1.434586,-0.344302 2.880803,-0.641071 4.371875,-0.694869 z m 66.909937,0 c 0.316221,-0.01014 0.615851,-0.01122 0.926489,0 1.491079,0.05379 2.908345,0.350567 4.342925,0.694868 0,0 -4.736118,0.136886 -7.643543,4.574544 7.345083,0 14.534213,2.453118 13.463053,6.890768 -1.07115,4.437649 -7.941523,5.529984 -9.930811,5.529984 -1.989293,0 -7.655978,-2.771404 -7.962022,-5.066741 -0.306046,-2.295337 1.981906,-6.724824 9.786052,-1.216016 -5.049741,-0.612092 -6.873668,3.222019 -0.75277,3.068997 6.120901,-0.153033 7.791891,-5.203345 1.824021,-6.427524 -5.967878,-1.22418 -18.509394,1.36467 -21.569842,-1.389736 1.683247,-2.907423 3.532243,-4.429778 3.532243,-4.429778 0,0 1.820333,3.205212 6.717053,0.144759 2.67789,-1.673683 5.053615,-2.302579 7.267152,-2.374129 z M 17.10797,32.462625 c 0,0 -0.873129,5.229599 7.84917,5.994709 8.722279,0.765113 42.247876,3.660491 59.845453,3.966535 l -70.094746,0 2.400123,-9.961244 z m 74.382719,6.255284 4.632449,4.024442 -9.728141,8.425266 5.095692,-12.449708 z m 19.630011,8.222597 c 0.0299,0.01575 -0.0154,0.11195 -0.11583,0.260583 l 0.11583,-0.260583 z m -0.14476,0.28953 -6.05114,12.623423 -25.015226,0.23162 c 0,0 16.173054,-0.228337 21.338226,-3.82177 4.51951,-3.144257 8.88166,-7.820058 9.72814,-9.033276 z m -94.125587,0.289527 c 0.790815,1.334762 4.665445,6.029688 9.351757,8.975371 5.355785,3.366493 24.465123,4.285015 24.465123,4.285015 L 22.206624,60.171941 16.850353,47.519563 z m 46.961455,1.534499 c 3.144198,-0.06254 6.455416,1.422492 10.249291,6.109043 0.216406,14.066413 4.057198,56.002975 4.1113,57.355515 0.05411,1.35253 -2.932265,8.34602 -13.752583,8.45422 -10.82032,0.10823 -14.157925,-5.63016 -14.157925,-9.52547 0,-3.89531 4.125037,-55.837715 3.90863,-56.486935 0,0 3.638724,-5.786962 9.641287,-5.906373 z m 0.405339,2.432035 c -4.544533,0.216405 -8.222599,4.342923 -8.222599,4.342923 l -0.92649,15.89509 c 0,0 1.774787,-3.768304 6.427524,-5.066741 -4.533951,4.56536 -6.456476,11.754841 -6.456476,11.754841 0,0 -1.958648,10.960011 3.126904,19.83267 0,0 2.710575,-8.659847 5.848467,-9.525472 0,0 -3.030534,9.725818 8.222597,17.516442 0,0 -13.182649,-4.63919 -20.151154,3.04006 1.73125,6.05938 4.390776,9.52547 11.696934,9.52547 7.306157,0 12.783407,-6.50656 12.999812,-8.45422 0.216405,-1.94765 -4.111301,-54.51814 -4.111301,-54.51814 0,0 -4.558903,-4.342923 -8.454217,-4.342923 z" style="fill:#aaaaaa"/>
</svg>