<?xml version="1.0" encoding="UTF-8" standalone="no"?>
<svg xmlns:dc="http://purl.org/dc/elements/1.1/"
     xmlns:cc="http://creativecommons.org/ns#"
     xmlns:rdf="http://www.w3.org/1999/02/22-rdf-syntax-ns#"
     xmlns:svg="http://www.w3.org/2000/svg"
     xmlns="http://www.w3.org/2000/svg"
     xmlns:xlink="http://www.w3.org/1999/xlink"
     width="128" height="128" version="1.1">
    <title>Remote Terminal</title>
    <desc>This is shape (source) for Clarity vector icon theme for gtk</desc>
    <metadata>
        <rdf:RDF>
            <cc:Work rdf:about="">
                <dc:title>Remote Terminal</dc:title>
                <dc:description>This is shape (source) for Clarity vector icon theme for gtk</dc:description>
                <dc:creator>
                    <cc:Agent>
                        <dc:title>Jakub Jankiewicz</dc:title>
                    </cc:Agent>
                </dc:creator>
                <dc:rights>
                    <cc:Agent>
                        <dc:title>Jakub Jankiewicz</dc:title>
                    </cc:Agent>
                </dc:rights>
                <dc:date>2010</dc:date>
                <dc:format>image/svg+xml</dc:format>
                <dc:type rdf:resource="http://purl.org/dc/dcmitype/StillImage" />
                <cc:license rdf:resource="http://creativecommons.org/licenses/by-sa/3.0/" />
             </cc:Work>
        </rdf:RDF>
    </metadata>
    <path d="M 52.15625,6.15625 C 26.838914,6.15625 6.3125,26.682656 6.3125,52 c 0,19.996619 12.802154,36.979631 30.65625,43.25 l 0,-8.1875 -2.15625,0.78125 -0.5,1.3125 L 33.46875,90 C 31.316841,88.940468 29.301325,87.707942 27.375,86.3125 l 0.5,-2.28125 -1,-2.3125 0.15625,-4 L 25.6875,75.8125 22.65625,73.125 19.625,67.5625 l 0.84375,-2.84375 -0.34375,-0.75 1,-1.53125 L 22.5,58.78125 22.5,58.5 21.46875,58.03125 20.125,58.21875 17.78125,56.5 16.21875,54.59375 12.6875,53.625 9.8125,51.9375 C 9.8294,37.25334 17.33355,24.357335 28.6875,16.78125 l -0.125,1.5 L 26.6875,20 22.5,22.46875 l 0.5,1.75 3.1875,1.34375 0.5,2.28125 1.1875,-2.5 1.875,-0.75 -0.1875,-1.15625 1.875,-3.21875 2.34375,1.3125 -0.34375,1.53125 2.03125,-0.75 L 36.3125,24 36,25.1875 l 1.1875,0.375 1,0.9375 -0.34375,1.15625 -2.875,0.96875 -2,0 -2.875,1.3125 4.53125,0 -1.5,2.28125 -3.03125,0.59375 -1.375,1.90625 -2.34375,0.9375 -1.1875,2.875 -3.21875,2.6875 -0.3125,3.8125 -1.875,-2.28125 -2.53125,-0.59375 -0.3125,1.15625 -2.03125,0 -2.5625,1.9375 -0.3125,2.25 0.15625,2.125 1.6875,0.96875 L 15.0625,50 l 1.15625,-1.53125 1.1875,0 C 17.236022,49.806681 17.106569,51.161838 16.9375,52.5 l 2,-0.21875 0,2.09375 0.6875,1.9375 c 0.818878,0.503493 1.955332,0.547051 2.875,0.8125 l 0,-0.4375 3.03125,-2.65625 2.875,2.09375 3.375,-0.375 1.34375,3.625 2.53125,0.5625 1.3125,2.625 0,-3.125 c 0,-5.006862 4.171923,-9.125 9.15625,-9.125 l 8.46875,0 0.3125,-0.5 -0.8125,-0.9375 1.84375,-4.40625 c 1.524194,-1.896 3.108408,-3.705617 4.71875,-5.53125 l 2.875,-0.78125 3.21875,-0.375 2.1875,0.59375 3.125,3.125 1.09375,-1.25 1.53125,-0.1875 2.875,0.96875 2.15625,0 1.53125,-1.34375 0.6875,-0.96875 -1.5,-0.9375 -2.5625,-0.1875 c -0.702987,-0.975173 -1.352827,-2.008516 -2.1875,-2.875 l -0.84375,0.375 -0.34375,2.5 -1.53125,-1.71875 -0.3125,-1.90625 -1.6875,-1.34375 -0.6875,0 1.6875,1.90625 -0.6875,1.71875 -1.3125,0.375 0.84375,-1.6875 -1.53125,-0.78125 -1.34375,-1.53125 -2.5625,0.5625 -0.3125,0.78125 -1.53125,0.96875 -0.84375,2.09375 -2.09375,1.03125 -0.9375,-1.03125 -1.03125,0 0,-3.46875 2.21875,-1.125 1.65625,0 -0.3125,-1.34375 -1.34375,-1.34375 2.25,-0.46875 1.28125,-1.4375 1,-1.71875 1.875,0 -0.5,-1.34375 L 67.9375,24 l 0,1.5625 2.53125,0.5625 2.5,-2.125 0.1875,-0.9375 2.1875,-1.53125 c -0.793805,0.0987 -1.59932,0.163894 -2.375,0.375 l 0,-1.6875 0.84375,-1.9375 -0.84375,0 L 71.125,20 l -0.5,0.96875 0.5,1.34375 -0.84375,2.28125 -1.34375,-0.78125 -1.1875,-1.34375 -1.84375,1.34375 -0.6875,-3.03125 3.21875,-2.125 0,-1.125 2.03125,-1.34375 3.0625,-0.71875 c 1.37512,0.806008 2.698621,1.673813 3.96875,2.625 l -0.78125,0 L 78.875,20.375 79.5,19.6875 c 7.465782,6.327173 12.694128,15.198116 14.375,25.28125 -0.31744,-0.294866 -0.643598,-0.611077 -0.96875,-0.90625 l -1.9375,0.3125 -1.75,-2 0,2.46875 1.5,1.15625 1,1.15625 1.375,-1.5625 c 0.340238,0.637263 0.662078,1.268988 1,1.90625 l 0,1.9375 -0.78125,0.875 4.65625,0 C 97.085447,25.773086 76.909299,6.15625 52.15625,6.15625 z m 0,3.5 c 0.74765,0 1.480671,0.024294 2.21875,0.0625 l 2.375,0.9375 -2.03125,5.15625 c -2.478915,1.146565 -4.798202,2.037415 -7.40625,2.84375 l -1.6875,2.6875 -1.375,0.75 -2.03125,-4 1.53125,-1.53125 0,-1.53125 -3.875,-2.65625 1.1875,-1.15625 2.21875,-0.625 0.34375,-0.0625 c 2.756404,-0.5633279 5.607149,-0.875 8.53125,-0.875 z m -18.6875,4.375 0.15625,0.8125 3.21875,0.375 0.84375,1.71875 1.84375,0.78125 -1.6875,1.53125 c -1.12589,-0.763138 -2.25004,-1.548202 -3.375,-2.3125 l -1.6875,-0.5625 c -0.741539,0.495598 -1.459422,1.016375 -2.1875,1.53125 L 29.75,19.8125 l -1.6875,0 0.84375,-2.09375 1.34375,-1.15625 -0.0625,-0.75 c 0.300412,-0.182439 0.600987,-0.387391 0.90625,-0.5625 l 0.1875,0.34375 L 31.5625,15 c 0.620756,-0.345638 1.266732,-0.653945 1.90625,-0.96875 z m -7.09375,1.40625 0.0625,0 c -0.0376,0.0265 -0.05625,0.06714 -0.09375,0.09375 L 26.375,15.4375 z m 30.5625,2.46875 1,1.125 -2.03125,1.34375 -1.1875,-0.75 0.1875,-1.15625 0.65625,0.1875 1.375,-0.75 z m -22.3125,0.375 1.6875,0.75 0,1.34375 -1.34375,0 -1.65625,-1.125 1.3125,-0.96875 z m 26.6875,4.40625 1,0 c 0.496763,1.013725 0.978097,2.005578 1.375,3.0625 L 64.875,26.875 63.5,28.21875 61.65625,28.625 62,26.3125 l 0,-1.71875 -0.6875,-0.78125 0,-1.125 z m -0.6875,2.28125 0.6875,1.71875 -1.53125,0.75 -0.34375,-2.09375 1.1875,-0.375 z m -23.28125,3.4375 1.53125,1.15625 -1.03125,1.53125 -0.5,-2.6875 z m 44.09375,14.9375 -0.53125,0.5625 0.78125,2.75 1.4375,1.625 c 0.239191,0.69051 0.475105,1.356501 0.71875,2.03125 l 1.78125,0 L 83.375,45.5 81.4375,43.34375 z M 46.125,53.75 c -3.164862,0 -5.71875,2.522642 -5.71875,5.6875 l 0,56.6875 c 0,3.16486 2.553888,5.71875 5.71875,5.71875 l 69.875,0 c 3.16486,0 5.6875,-2.55389 5.6875,-5.71875 l 0,-56.6875 c 0,-3.164858 -2.52264,-5.6875 -5.6875,-5.6875 l -69.875,0 z m 0.875,8.34375 68.09375,0 0,51.40625 L 47,113.5 47,62.09375 z m 9.21875,7.4375 0,6.21875 15.5,6.03125 -15.5,6.09375 0,6.25 22.25,-9.65625 0,-5.3125 -22.25,-9.625 z M 27.03125,88.9375 c 0.642048,0.437637 1.27211,0.876792 1.9375,1.28125 -0.892395,-0.516311 -1.688853,-1.034426 -1.9375,-1.28125 z M 80.125,102.75 l 0,4 25.8125,0 0,-4 -25.8125,0 z" style="fill:#aaaaaa"/>
</svg>