<?xml version="1.0" encoding="UTF-8" standalone="no"?>
<svg xmlns:dc="http://purl.org/dc/elements/1.1/"
     xmlns:cc="http://creativecommons.org/ns#"
     xmlns:rdf="http://www.w3.org/1999/02/22-rdf-syntax-ns#"
     xmlns:svg="http://www.w3.org/2000/svg"
     xmlns="http://www.w3.org/2000/svg"
     xmlns:xlink="http://www.w3.org/1999/xlink"
     width="128" height="128" version="1.1">
    <title>Configure Ubuntu Icon</title>
    <desc>This is shape (source) for Clarity vector icon theme for gtk</desc>
    <metadata>
        <rdf:RDF>
            <cc:Work rdf:about="">
                <dc:title>Configure Ubuntu Icon</dc:title>
                <dc:description>This is shape (source) for Clarity vector icon theme for gtk</dc:description>
                <dc:creator>
                    <cc:Agent>
                        <dc:title>Jakub Jankiewicz</dc:title>
                    </cc:Agent>
                </dc:creator>
                <dc:rights>
                    <cc:Agent>
                        <dc:title>Jakub Jankiewicz</dc:title>
                    </cc:Agent>
                </dc:rights>
                <dc:date>2010</dc:date>
                <dc:format>image/svg+xml</dc:format>
                <dc:type rdf:resource="http://purl.org/dc/dcmitype/StillImage" />
                <cc:license rdf:resource="http://creativecommons.org/licenses/by-sa/3.0/" />
             </cc:Work>
        </rdf:RDF>
    </metadata>
    <path d="m 79.93166,8.296875 c -4.512171,0 -8.157018,3.62777 -8.15625,8.125 -7.68e-4,4.49723 3.644089,8.15625 8.15625,8.15625 4.512161,0 8.188272,-3.65902 8.1875,-8.15625 7.8e-4,-4.49723 -3.675331,-8.125 -8.1875,-8.125 z m -24.25,8.125 c -4.066509,0.299653 -7.953435,1.327597 -11.5625,2.8125 l 7.3125,12.46875 c 1.866815,-0.590175 3.799697,-0.927868 5.84375,-1.03125 0.40011,-0.02014 0.813614,0 1.21875,0 11.208543,0 20.572122,7.838672 22.90625,18.3125 l 14.5625,0 c -1.033549,-7.613851 -4.415621,-14.502021 -9.3125,-19.96875 -2.011145,1.076791 -4.277388,1.65625 -6.71875,1.65625 -7.665206,0 -13.960009,-6.009049 -14.3125,-13.5625 -2.306927,-0.43931 -4.691186,-0.6875 -7.125,-0.6875 -0.488795,0 -0.984427,-0.01832 -1.46875,0 -0.157647,0.006 -0.280345,-0.008 -0.4375,0 -0.148065,0.0076 -0.289813,-0.0091 -0.4375,0 -0.14306,0.0089 -0.326069,-0.01059 -0.46875,0 z m -20.34375,7.875 c -5.864905,4.551293 -10.336525,10.818676 -12.71875,18 3.762925,2.567381 6.21875,6.896264 6.21875,11.78125 0,4.884979 -2.455825,9.18262 -6.21875,11.75 2.381426,7.183071 6.851809,13.453214 12.71875,18 l 7.25,-12.53125 c -4.663622,-4.278086 -7.5625,-10.409829 -7.5625,-17.21875 0,-6.80646 2.90455,-12.961265 7.5625,-17.25 l -7.25,-12.53125 z m -20.71875,21.625 c -4.512169,0 -8.2195276,3.659017 -8.2187496,8.15625 -7.78e-4,4.497229 3.7065806,8.124998 8.2187496,8.125 4.512167,0 8.125779,-3.627773 8.125,-8.125 7.79e-4,-4.497231 -3.612833,-8.15625 -8.125,-8.15625 z m 52.40625,2.03125 c -4.408674,-0.0031 -8.794454,1.669453 -12.15625,5.03125 -0.205987,0.205996 -0.4314,0.411633 -0.625,0.625 l 14,5.65625 c 2.845397,1.148246 4.210747,4.342103 3.0625,7.1875 l -1.3125,3.3125 c -1.148246,2.845397 -4.373356,4.210743 -7.21875,3.0625 l -12.78125,-5.15625 c 0.520565,3.538652 2.153203,6.934453 4.875,9.65625 4.546506,4.546505 10.99774,6.008456 16.78125,4.40625 l 35.65625,35.656255 c 3.05572,3.05571 7.97555,3.0557 11.03125,0 l 0.75,-0.75 c 3.0557,-3.05569 3.05572,-7.97554 0,-11.03125 L 83.55666,70.046875 c 1.733421,-5.856545 0.278712,-12.440034 -4.34375,-17.0625 -3.361796,-3.361796 -7.778826,-5.02818 -12.1875,-5.03125 z m 47.5625,6.5625 c -1.78915,-0.0027 -3.59641,0.690166 -4.96875,2.0625 l -17.59375,17.59375 2.71875,2.71875 18.4375,-18.4375 c 0.2879,-0.287903 0.74334,-0.287903 1.03125,0 0.2879,0.287903 0.2879,0.743347 0,1.03125 l -18.4375,18.4375 2.4375,2.40625 18.40625,-18.40625 c 0.2879,-0.287903 0.77459,-0.287908 1.0625,0 0.2879,0.287903 0.2879,0.743348 0,1.03125 l -18.4375,18.4375 2.6875,2.6875 17.625,-17.59375 c 2.74467,-2.744667 2.71338,-7.161581 -0.0312,-9.90625 -1.37233,-1.372332 -3.14836,-2.059801 -4.9375,-2.0625 z m -28.78125,4.65625 c 0.984337,3.223144 1.150988,6.664002 0.46875,9.96875 l 3.625,3.625 c 0.09028,-0.145377 0.195146,-0.281696 0.3125,-0.40625 l 2.625,-2.625 c 1.526907,-3.297936 2.619108,-6.83574 3.125,-10.5625 l -10.15625,0 z m -34.6875,17.75 -7,11.9375 c 4.431999,1.823617 9.283457,2.875 14.375,2.875 2.433825,0 4.818083,-0.279437 7.125,-0.71875 0.110574,-2.251714 0.764048,-4.355772 1.8125,-6.21875 -5.195175,0.139272 -10.420418,-1.701668 -14.375,-5.65625 -0.704093,-0.704093 -1.362961,-1.441087 -1.9375,-2.21875 z m 27.65625,16.4375 -8.25,8.281255 -5.40625,1.03125 -8.71875,14 3.03125,3.03125 14,-8.6875 1.03125,-5.40625 8.28125,-8.281255 -3.96875,-3.96875 z m 34.0625,13.593755 c 1.06698,0 2.12341,0.40466 2.9375,1.21875 1.62815,1.62815 1.62815,4.27808 0,5.90625 -1.62818,1.62816 -4.27809,1.62815 -5.90625,0 -1.62817,-1.62817 -1.62817,-4.2781 0,-5.90625 0.81408,-0.81409 1.90177,-1.21875 2.96875,-1.21875 z" style="fill:#aaaaaa"/>
</svg>