<?xml version="1.0" encoding="UTF-8" standalone="no"?>
<svg xmlns:dc="http://purl.org/dc/elements/1.1/"
     xmlns:cc="http://creativecommons.org/ns#"
     xmlns:rdf="http://www.w3.org/1999/02/22-rdf-syntax-ns#"
     xmlns:svg="http://www.w3.org/2000/svg"
     xmlns="http://www.w3.org/2000/svg"
     xmlns:xlink="http://www.w3.org/1999/xlink"
     width="128" height="128" version="1.1">
    <title>Clarity Icon</title>
    <desc>This is shape (source) for Clarity vector icon theme for gtk</desc>
    <metadata>
        <rdf:RDF>
            <cc:Work rdf:about="">
                <dc:title>Clarity Icon</dc:title>
                <dc:description>This is shape (source) for Clarity vector icon theme for gtk</dc:description>
                <dc:creator>
                    <cc:Agent>
                        <dc:title>Jakub Jankiewicz</dc:title>
                    </cc:Agent>
                </dc:creator>
                <dc:rights>
                    <cc:Agent>
                        <dc:title>Jakub Jankiewicz</dc:title>
                    </cc:Agent>
                </dc:rights>
                <dc:date>2010</dc:date>
                <dc:format>image/svg+xml</dc:format>
                <dc:type rdf:resource="http://purl.org/dc/dcmitype/StillImage" />
                <cc:license rdf:resource="http://creativecommons.org/licenses/by-sa/3.0/" />
             </cc:Work>
        </rdf:RDF>
    </metadata>
    <path d="M 17.375 11.8125 C 12.187752 11.8125 8.0625 16.000252 8.0625 21.1875 L 8.0625 106.8125 C 8.0625 111.99975 12.187752 116.1875 17.375 116.1875 L 110.59375 116.1875 C 115.781 116.1875 119.96875 111.99975 119.96875 106.8125 L 119.96875 21.1875 C 119.96875 16.000252 115.781 11.8125 110.59375 11.8125 L 17.375 11.8125 z M 17.8125 36.8125 L 30.3125 36.8125 L 30.3125 52.875 L 17.8125 52.875 L 17.8125 36.8125 z M 37.8125 36.8125 L 102.4375 36.8125 L 110.15625 36.8125 L 110.15625 52.875 L 102.4375 52.875 L 37.8125 52.875 L 37.8125 36.8125 z M 17.8125 59.25 L 30.3125 59.25 L 30.3125 72.1875 L 17.8125 72.1875 L 17.8125 59.25 z M 37.8125 59.25 L 104.65625 59.25 L 110.15625 59.25 L 110.15625 72.1875 L 104.65625 72.1875 L 37.8125 72.1875 L 37.8125 59.25 z M 17.8125 78.5625 L 30.3125 78.5625 L 30.3125 88.8125 L 17.8125 88.8125 L 17.8125 78.5625 z M 37.8125 78.5625 L 104.21875 78.5625 L 110.15625 78.5625 L 110.15625 88.8125 L 104.21875 88.8125 L 37.8125 88.8125 L 37.8125 78.5625 z M 17.8125 95.25 L 30.3125 95.25 L 30.3125 105.5 L 17.8125 105.5 L 17.8125 95.25 z M 37.8125 95.25 L 46.375 95.25 L 50.25 95.25 L 110.15625 95.25 L 110.15625 105.5 L 50.25 105.5 L 46.375 105.5 L 37.8125 105.5 L 37.8125 95.25 z " style="fill:#aaaaaa"/>
</svg>