<?xml version="1.0" encoding="UTF-8" standalone="no"?>
<svg xmlns:dc="http://purl.org/dc/elements/1.1/"
     xmlns:cc="http://creativecommons.org/ns#"
     xmlns:rdf="http://www.w3.org/1999/02/22-rdf-syntax-ns#"
     xmlns:svg="http://www.w3.org/2000/svg"
     xmlns="http://www.w3.org/2000/svg"
     xmlns:xlink="http://www.w3.org/1999/xlink"
     width="128" height="128" version="1.1">
    <title>Clarity Icon</title>
    <desc>This is shape (source) for Clarity vector icon theme for gtk</desc>
    <metadata>
        <rdf:RDF>
            <cc:Work rdf:about="">
                <dc:title>Clarity Icon</dc:title>
                <dc:description>This is shape (source) for Clarity vector icon theme for gtk</dc:description>
                <dc:creator>
                    <cc:Agent>
                        <dc:title>Jakub Jankiewicz</dc:title>
                    </cc:Agent>
                </dc:creator>
                <dc:rights>
                    <cc:Agent>
                        <dc:title>Jakub Jankiewicz</dc:title>
                    </cc:Agent>
                </dc:rights>
                <dc:date>2010</dc:date>
                <dc:format>image/svg+xml</dc:format>
                <dc:type rdf:resource="http://purl.org/dc/dcmitype/StillImage" />
                <cc:license rdf:resource="http://creativecommons.org/licenses/by-sa/3.0/" />
             </cc:Work>
        </rdf:RDF>
    </metadata>
    <path d="m 17.390625,11.828125 c -5.187252,0 -9.34375,4.187752 -9.34375,9.375 l 0,85.593755 c 0,5.18725 4.156498,9.375 9.34375,9.375 l 93.187505,0 c 5.18725,0 9.375,-4.18775 9.375,-9.375 l 0,-85.593755 c 0,-5.187248 -4.18775,-9.375 -9.375,-9.375 l -93.187505,0 z m 5.15625,7.375 36.5625,0 0,17.15625 -42.375,0 0,-11.375 c 0,-3.211154 2.601346,-5.78125 5.8125,-5.78125 z m 44.5625,0 38.343755,0 c 3.21115,0 5.8125,2.570096 5.8125,5.78125 l 0,11.375 -44.156255,0 0,-17.15625 z m -50.375,25.1875 42.375,0 0,15.375 -42.375,0 0,-15.375 z m 50.375,0 44.156255,0 0,15.375 -44.156255,0 0,-15.375 z m -50.375,23.40625 42.375,0 0,41.000005 -36.5625,0 c -3.211154,0 -5.8125,-2.5701 -5.8125,-5.78125 l 0,-35.218755 z m 50.375,0 44.156255,0 0,15.375 -44.156255,0 0,-15.375 z m 0,23.40625 44.156255,0 0,11.812505 c 0,3.21115 -2.60135,5.78125 -5.8125,5.78125 l -38.343755,0 0,-17.593755 z" style="fill:#aaaaaa"/>
</svg>