<?xml version="1.0" encoding="UTF-8" standalone="no"?>
<svg xmlns:dc="http://purl.org/dc/elements/1.1/"
     xmlns:cc="http://creativecommons.org/ns#"
     xmlns:rdf="http://www.w3.org/1999/02/22-rdf-syntax-ns#"
     xmlns:svg="http://www.w3.org/2000/svg"
     xmlns="http://www.w3.org/2000/svg"
     xmlns:xlink="http://www.w3.org/1999/xlink"
     width="128" height="128" version="1.1">
    <title>Wine FileBrowser Icon</title>
    <desc>This is shape (source) for Clarity vector icon theme for gtk</desc>
    <metadata>
        <rdf:RDF>
            <cc:Work rdf:about="">
                <dc:title>Wine FileBrowser Icon</dc:title>
                <dc:description>This is shape (source) for Clarity vector icon theme for gtk</dc:description>
                <dc:creator>
                    <cc:Agent>
                        <dc:title>Jakub Jankiewicz</dc:title>
                    </cc:Agent>
                </dc:creator>
                <dc:rights>
                    <cc:Agent>
                        <dc:title>Jakub Jankiewicz</dc:title>
                    </cc:Agent>
                </dc:rights>
                <dc:date>2010</dc:date>
                <dc:format>image/svg+xml</dc:format>
                <dc:type rdf:resource="http://purl.org/dc/dcmitype/StillImage" />
                <cc:license rdf:resource="http://creativecommons.org/licenses/by-sa/3.0/" />
             </cc:Work>
        </rdf:RDF>
    </metadata>
    <path d="M 12.582031 9.59375 C 9.6250782 9.59375 7.2382813 11.98055 7.2382812 14.9375 L 7.2382812 113.0625 C 7.2382812 116.01945 9.6250782 118.40625 12.582031 118.40625 L 70.619141 118.40625 C 68.803235 117.22901 67.159696 115.84332 66.035156 113.91992 C 65.402122 112.86531 65.191697 111.64596 65.333984 110.46875 L 21.175781 110.46875 C 17.848841 110.46875 15.207031 107.79569 15.207031 104.46875 L 15.207031 90.8125 C 15.207031 87.485566 17.848841 84.78125 21.175781 84.78125 L 79.544922 84.78125 C 79.102013 82.131594 79.067295 79.482403 79.289062 76.84375 L 21.175781 76.84375 C 17.848841 76.84375 15.207031 74.17069 15.207031 70.84375 L 15.207031 57.1875 C 15.207031 53.860566 17.848841 51.15625 21.175781 51.15625 L 81.488281 51.15625 C 82.70728 51.15625 83.835189 51.52277 84.779297 52.146484 C 85.42937 49.893813 86.163628 47.670298 87.080078 45.509766 C 88.471059 42.445136 92.022146 41.235422 95.171875 41.232422 C 95.256495 41.229822 95.341162 41.234122 95.425781 41.232422 L 95.425781 14.9375 C 95.425781 11.98055 93.070231 9.59375 90.113281 9.59375 L 12.582031 9.59375 z M 21.175781 17.53125 L 81.488281 17.53125 C 84.815221 17.53125 87.488281 20.235566 87.488281 23.5625 L 87.488281 37.21875 C 87.488281 40.545687 84.815221 43.21875 81.488281 43.21875 L 21.175781 43.21875 C 17.848841 43.21875 15.207031 40.545687 15.207031 37.21875 L 15.207031 23.5625 C 15.207031 20.235566 17.848841 17.53125 21.175781 17.53125 z M 43.925781 27.25 C 41.416121 27.25 39.394531 28.968847 39.394531 31.09375 C 39.394531 33.218653 41.416121 34.90625 43.925781 34.90625 L 60.238281 34.90625 C 62.747948 34.90625 64.769531 33.218653 64.769531 31.09375 C 64.769531 28.968847 62.747948 27.25 60.238281 27.25 L 43.925781 27.25 z M 96.042969 45.21875 C 93.824907 45.21365 92.065385 45.533966 91.136719 46.5625 C 90.699804 47.046397 90.394148 47.818663 89.949219 49.0625 C 89.50429 50.306337 88.997601 51.973141 88.417969 54.03125 C 87.258704 58.147469 85.851698 63.80882 84.292969 70.65625 C 82.021857 80.607251 83.606748 86.46919 85.199219 89.65625 C 86.186399 91.631937 87.008714 93.152381 87.230469 95.09375 C 87.452224 97.035119 87.106257 99.472575 85.574219 103.34375 C 84.470946 106.1315 83.356518 107.74947 82.324219 108.6875 C 81.325482 109.59503 80.406714 109.8985 79.449219 110.03125 C 76.897075 109.42297 74.672104 109.09747 72.949219 109.09375 C 72.076197 109.09175 71.30664 109.17705 70.699219 109.375 C 70.091798 109.57296 69.595337 109.92754 69.386719 110.5 C 69.10132 111.28318 69.469029 112.06841 70.105469 112.8125 C 70.741907 113.55659 71.704146 114.3251 72.917969 115.125 C 75.345615 116.72481 78.834932 118.40657 82.824219 119.84375 C 86.81245 121.28055 90.535856 122.20498 93.417969 122.53125 C 94.859026 122.69439 96.110979 122.72534 97.074219 122.5625 C 98.037463 122.39991 98.820629 122.03164 99.105469 121.25 C 99.314179 120.67723 99.159569 120.07888 98.824219 119.53125 C 98.488869 118.98362 97.962913 118.44097 97.292969 117.875 C 95.970535 116.75781 94.036062 115.53879 91.667969 114.375 C 90.644546 113.32469 89.759432 112.48857 89.292969 111.1875 C 88.813831 109.85108 88.730187 107.93176 89.542969 104.65625 C 91.141957 98.212376 93.060827 96.310747 95.355469 94.84375 C 97.650111 93.376753 100.49345 92.379983 103.48047 88.21875 C 108.47453 81.261499 109.81623 75.854837 112.66797 67.8125 C 114.18356 63.538321 115.24931 60.416788 115.91797 58.25 C 116.2523 57.166606 116.48103 56.337881 116.60547 55.6875 C 116.72991 55.037119 116.85015 54.612325 116.60547 54.125 C 115.16195 51.249947 111.63881 49.100911 107.69922 47.59375 C 103.75963 46.086589 99.366103 45.226405 96.042969 45.21875 z M 96.480469 48.1875 C 98.797543 48.20782 101.82072 48.762784 104.23047 49.625 C 106.85943 50.565652 109.35551 51.685806 111.13672 52.75 C 112.02732 53.282097 112.73115 53.776816 113.16797 54.21875 C 113.60479 54.660684 113.71544 55.001947 113.69922 55.09375 C 113.08232 58.585834 111.90219 61.292537 111.32422 62.78125 C 110.03305 61.93487 108.57714 61.92114 107.19922 62.375 C 105.57212 62.910936 103.91737 63.9277 102.13672 64.6875 C 100.35606 65.4473 98.508543 65.953734 96.449219 65.5625 C 94.448009 65.182306 92.194649 63.918243 89.667969 61.0625 C 89.768414 60.678786 91.67777 53.38398 93.042969 49.03125 C 93.086709 48.891787 93.334749 48.619246 93.949219 48.4375 C 94.563689 48.255754 95.458948 48.178544 96.480469 48.1875 z M 43.925781 60.875 C 41.416121 60.875 39.394531 62.593851 39.394531 64.71875 C 39.394531 66.843651 41.416121 68.53125 43.925781 68.53125 L 60.238281 68.53125 C 62.747948 68.53125 64.769531 66.84365 64.769531 64.71875 C 64.769531 62.59385 62.747948 60.875 60.238281 60.875 L 43.925781 60.875 z M 43.925781 94.5 C 41.416121 94.5 39.394531 96.218853 39.394531 98.34375 C 39.394531 100.46865 41.416121 102.15625 43.925781 102.15625 L 60.238281 102.15625 C 62.747948 102.15625 64.769531 100.46865 64.769531 98.34375 C 64.769531 96.218853 62.747948 94.5 60.238281 94.5 L 43.925781 94.5 z " style="fill:#aaaaaa"/>
</svg>