<?xml version="1.0" encoding="UTF-8" standalone="no"?>
<svg xmlns:dc="http://purl.org/dc/elements/1.1/"
     xmlns:cc="http://creativecommons.org/ns#"
     xmlns:rdf="http://www.w3.org/1999/02/22-rdf-syntax-ns#"
     xmlns:svg="http://www.w3.org/2000/svg"
     xmlns="http://www.w3.org/2000/svg"
     xmlns:xlink="http://www.w3.org/1999/xlink"
     width="128" height="128" version="1.1">
    <title>Wireshark Logo Icon</title>
    <desc>This is shape (source) for Clarity vector icon theme for gtk</desc>
    <metadata>
        <rdf:RDF>
            <cc:Work rdf:about="">
                <dc:title>Wireshark Logo Icon</dc:title>
                <dc:description>This is shape (source) for Clarity vector icon theme for gtk</dc:description>
                <dc:creator>
                    <cc:Agent>
                        <dc:title>Jakub Jankiewicz</dc:title>
                    </cc:Agent>
                </dc:creator>
                <dc:rights>
                    <cc:Agent>
                        <dc:title>Jakub Jankiewicz</dc:title>
                    </cc:Agent>
                </dc:rights>
                <dc:date>2010</dc:date>
                <dc:format>image/svg+xml</dc:format>
                <dc:type rdf:resource="http://purl.org/dc/dcmitype/StillImage" />
                <cc:license rdf:resource="http://creativecommons.org/licenses/by-sa/3.0/" />
             </cc:Work>
        </rdf:RDF>
    </metadata>
    <path d="m 17.28125,5.4375 c -2.682851,0 -4.84375,2.203877 -4.84375,4.90625 l 0,98 c 0,2.70237 2.160899,4.9375 4.84375,4.9375 l 98.125,0 c 2.68285,0 4.875,-2.23513 4.875,-4.9375 l 0,-98 c 0,-2.702373 -2.19215,-4.90625 -4.875,-4.90625 z m 2.75,5.25 92.625,0 c 1.30678,0 2.34375,1.036968 2.34375,2.34375 L 115,88.5 93.26414,88.5 C 87.163071,80.072001 79.909795,51.960723 91.13914,29.59375 67.423056,29.191483 40.07533,59.3572 40.0625,88.5 l -22.375,0 0,-75.46875 c 0,-1.306782 1.036968,-2.34375 2.34375,-2.34375 z" style="fill:#aaaaaa"/>
</svg>