<?xml version="1.0" encoding="UTF-8" standalone="no"?>
<svg xmlns:dc="http://purl.org/dc/elements/1.1/"
     xmlns:cc="http://creativecommons.org/ns#"
     xmlns:rdf="http://www.w3.org/1999/02/22-rdf-syntax-ns#"
     xmlns:svg="http://www.w3.org/2000/svg"
     xmlns="http://www.w3.org/2000/svg"
     xmlns:xlink="http://www.w3.org/1999/xlink"
     width="128" height="128" version="1.1">
    <title>Libre Office Writer</title>
    <desc>This is shape (source) for Clarity vector icon theme for gtk</desc>
    <metadata>
        <rdf:RDF>
            <cc:Work rdf:about="">
                <dc:title>Libre Office Writer</dc:title>
                <dc:description>This is shape (source) for Clarity vector icon theme for gtk</dc:description>
                <dc:creator>
                    <cc:Agent>
                        <dc:title>Jakub Jankiewicz</dc:title>
                    </cc:Agent>
                </dc:creator>
                <dc:rights>
                    <cc:Agent>
                        <dc:title>Jakub Jankiewicz</dc:title>
                    </cc:Agent>
                </dc:rights>
                <dc:date>2010</dc:date>
                <dc:format>image/svg+xml</dc:format>
                <dc:type rdf:resource="http://purl.org/dc/dcmitype/StillImage" />
                <cc:license rdf:resource="http://creativecommons.org/licenses/by-sa/3.0/" />
             </cc:Work>
        </rdf:RDF>
    </metadata>
    <path d="M 25.15625 7.84375 C 21.934691 7.84375 19.28125 10.528441 19.28125 13.75 L 19.28125 114.28125 C 19.28125 117.50281 21.919281 120.15625 25.15625 120.15625 L 102.8125 120.15625 C 106.04947 120.15625 108.71875 117.51822 108.71875 114.28125 L 108.71875 49.78125 L 108.71875 48.96875 L 108.125 48.375 L 68.25 8.4375 L 67.65625 7.84375 L 66.8125 7.84375 L 25.15625 7.84375 z M 104.375 8.28125 C 102.51902 8.28125 86.191384 8.4375 82.96875 8.4375 C 79.746122 8.4375 78.749033 10.806914 80.6875 13.1875 C 82.625964 15.568085 102.51936 35.042857 103.625 36.3125 C 105.10448 38.011404 108.3125 37.807027 108.3125 33.875 L 108.3125 12.21875 C 108.3125 10.333734 106.84395 8.28125 104.375 8.28125 z M 25.15625 11.84375 L 65.96875 11.84375 L 104.71875 50.59375 L 104.71875 114.28125 C 104.71875 115.34686 103.87809 116.15625 102.8125 116.15625 L 25.15625 116.15625 C 24.090645 116.15625 23.28125 115.36227 23.28125 114.28125 L 23.28125 13.75 C 23.28125 12.668987 24.075235 11.84375 25.15625 11.84375 z M 34.25 54.03125 C 33.38586 54.03125 32.6875 54.72961 32.6875 55.59375 L 32.6875 56.9375 C 32.6875 57.80164 33.38586 58.5 34.25 58.5 L 59.4375 58.5 C 60.301639 58.5 61 57.80164 61 56.9375 L 61 55.59375 C 61 54.72961 60.301639 54.03125 59.4375 54.03125 L 34.25 54.03125 z M 68.5625 54.03125 C 67.69836 54.03125 67 54.729609 67 55.59375 L 67 74.84375 C 67 75.707889 67.69836 76.40625 68.5625 76.40625 L 93.75 76.40625 C 94.614139 76.40625 95.3125 75.707889 95.3125 74.84375 L 95.3125 55.59375 C 95.3125 54.72961 94.614139 54.03125 93.75 54.03125 L 68.5625 54.03125 z M 34.25 63 C 33.38586 63 32.6875 63.69836 32.6875 64.5625 L 32.6875 65.875 C 32.6875 66.73914 33.38586 67.4375 34.25 67.4375 L 59.4375 67.4375 C 60.301639 67.4375 61 66.73914 61 65.875 L 61 64.5625 C 61 63.69836 60.301639 63 59.4375 63 L 34.25 63 z M 34.25 71.9375 C 33.38586 71.9375 32.6875 72.63586 32.6875 73.5 L 32.6875 74.84375 C 32.6875 75.707889 33.38586 76.40625 34.25 76.40625 L 59.4375 76.40625 C 60.301639 76.40625 61 75.707889 61 74.84375 L 61 73.5 C 61 72.63586 60.301639 71.9375 59.4375 71.9375 L 34.25 71.9375 z M 34.25 80.90625 C 33.38586 80.90625 32.6875 81.60461 32.6875 82.46875 L 32.6875 83.8125 C 32.6875 84.676639 33.38586 85.375 34.25 85.375 L 93.75 85.375 C 94.614139 85.375 95.3125 84.676639 95.3125 83.8125 L 95.3125 82.46875 C 95.3125 81.60461 94.614139 80.90625 93.75 80.90625 L 34.25 80.90625 z M 34.25 89.875 C 33.38586 89.875 32.6875 90.57336 32.6875 91.4375 L 32.6875 92.75 C 32.6875 93.614139 33.38586 94.3125 34.25 94.3125 L 93.75 94.3125 C 94.614139 94.3125 95.3125 93.614139 95.3125 92.75 L 95.3125 91.4375 C 95.3125 90.57336 94.614139 89.875 93.75 89.875 L 34.25 89.875 z M 34.25 98.8125 C 33.38586 98.8125 32.6875 99.510858 32.6875 100.375 L 32.6875 101.71875 C 32.6875 102.58289 33.38586 103.28125 34.25 103.28125 L 93.75 103.28125 C 94.614139 103.28125 95.3125 102.58289 95.3125 101.71875 L 95.3125 100.375 C 95.3125 99.510858 94.614139 98.8125 93.75 98.8125 L 34.25 98.8125 z " style="fill:#aaaaaa"/>
</svg>