<?xml version="1.0" encoding="UTF-8" standalone="no"?>
<svg xmlns:dc="http://purl.org/dc/elements/1.1/"
     xmlns:cc="http://creativecommons.org/ns#"
     xmlns:rdf="http://www.w3.org/1999/02/22-rdf-syntax-ns#"
     xmlns:svg="http://www.w3.org/2000/svg"
     xmlns="http://www.w3.org/2000/svg"
     xmlns:xlink="http://www.w3.org/1999/xlink"
     width="128" height="128" version="1.1">
    <title>XArchiver Icon</title>
    <desc>This is shape (source) for Clarity vector icon theme for gtk</desc>
    <metadata>
        <rdf:RDF>
            <cc:Work rdf:about="">
                <dc:title>XArchiver Icon</dc:title>
                <dc:description>This is shape (source) for Clarity vector icon theme for gtk</dc:description>
                <dc:creator>
                    <cc:Agent>
                        <dc:title>Jakub Jankiewicz</dc:title>
                    </cc:Agent>
                </dc:creator>
                <dc:rights>
                    <cc:Agent>
                        <dc:title>Jakub Jankiewicz</dc:title>
                    </cc:Agent>
                </dc:rights>
                <dc:date>2010</dc:date>
                <dc:format>image/svg+xml</dc:format>
                <dc:type rdf:resource="http://purl.org/dc/dcmitype/StillImage" />
                <cc:license rdf:resource="http://creativecommons.org/licenses/by-sa/3.0/" />
             </cc:Work>
        </rdf:RDF>
    </metadata>
    <path d="m 22.041242,12.319529 c -1.521207,0 -2.886488,0.970064 -3.26904,2.364839 l -2.46917,0 C 16.181571,13.4237 15.151781,12.354307 13.833863,12.354307 l -2.051845,0 c -1.405303,0 -2.5039459,1.204843 -2.5039459,2.5735 l 0,6.538082 c 0,1.368656 1.0986429,2.608277 2.5039459,2.608277 l 2.051845,0 c 1.32369,0 2.355072,-1.093311 2.469169,-2.364838 l 3.129933,0 c 0.408778,0.470869 0.952386,0.815421 1.564966,1.008534 l 0,3.651589 -0.312993,0 c -1.211446,0 -2.017068,1.094246 -2.017068,2.190952 l 0,2.677832 c 0,1.096707 0.805622,2.156175 2.017068,2.156175 l 0.312993,0 0,2.330061 -0.312993,0 c -1.211446,0 -2.017068,1.094246 -2.017068,2.190953 l 0,2.677831 c 0,1.096708 0.805622,2.156177 2.017068,2.156177 l 0.312993,0 0,11.719858 -3.51248,0 c -0.62079,-0.0063 -1.188636,0.561628 -1.182419,1.182419 l 0,9.355022 c -0.0063,0.62079 0.561629,1.188636 1.182419,1.182419 l 3.51248,0 0,2.330061 -0.312993,0 c -1.211446,0 -2.017068,1.094245 -2.017068,2.190953 l 0,2.643054 c 0,1.096706 0.805622,2.190952 2.017068,2.190952 l 0.312993,0 0,2.330061 -0.312993,0 c -1.211446,0 -2.017068,1.094246 -2.017068,2.190953 l 0,2.677831 c 0,1.096708 0.805622,2.156177 2.017068,2.156177 l 0.312993,0 0,2.364837 -0.312993,0 c -1.211446,0 -2.017068,1.059469 -2.017068,2.156176 l 0,2.677832 c 0,1.096707 0.805622,2.190953 2.017068,2.190953 l 0.312993,0 0,2.33006 -3.51248,0 c -0.03476,-0.0016 -0.06957,-0.0016 -0.104331,0 -0.58539,0.04643 -1.085778,0.595242 -1.078088,1.182419 l 0,9.355011 c 0.012,0.60918 0.573165,1.15383 1.182419,1.14765 l 14.258582,0 4.590568,4.3819 c 0.214781,0.19953 0.506718,0.31376 0.799872,0.313 l 24.587363,0 c 0.293151,7.6e-4 0.585089,-0.11347 0.799872,-0.313 l 4.938339,-4.6949 c 0.220079,-0.21752 0.348281,-0.5252 0.347769,-0.83465 l 0,-4.69489 c -0.01169,-0.59764 -0.550011,-1.13596 -1.147641,-1.14764 l -26.569654,0 -4.590569,-4.381906 C 35.285171,96.732523 34.993234,96.618286 34.700081,96.61905 l -2.017068,0 0,-2.33006 0.312993,0 c 1.211446,0 2.051845,-1.094246 2.051845,-2.190953 l 0,-2.677832 c 0,-1.096707 -0.840399,-2.156176 -2.051845,-2.156176 l -0.312993,0 0,-2.364837 0.312993,0 c 1.211446,0 2.051845,-1.059469 2.051845,-2.156177 l 0,-2.677831 c 0,-1.096707 -0.840399,-2.190953 -2.051845,-2.190953 l -0.312993,0 0,-2.330061 0.312993,0 c 1.211446,0 2.051845,-1.094246 2.051845,-2.190952 l 0,-2.643054 c 0,-1.096708 -0.840399,-2.190953 -2.051845,-2.190953 l -0.312993,0 0,-2.330061 2.017068,0 c 0.297795,-0.0084 0.590571,-0.135764 0.799871,-0.347771 l 4.590569,-4.347129 26.569654,0 c 0.609159,-0.012 1.153829,-0.573165 1.147641,-1.182418 l 0,-4.660123 c 0.01002,-0.320962 -0.119232,-0.643849 -0.347769,-0.869425 L 62.521708,50.122162 C 62.3124,49.910154 62.019627,49.782861 61.721836,49.774391 l -24.587363,0 c -0.297796,0.0084 -0.590572,0.135763 -0.799872,0.347771 l -3.651588,3.442926 0,-10.815656 0.312993,0 c 1.211446,0 2.051845,-1.059469 2.051845,-2.156177 l 0,-2.677831 c 0,-1.096707 -0.840399,-2.190953 -2.051845,-2.190953 l -0.312993,0 0,-2.330061 0.312993,0 c 1.211446,0 2.051845,-1.059468 2.051845,-2.156175 l 0,-2.677832 c 0,-1.096706 -0.840399,-2.190952 -2.051845,-2.190952 l -0.312993,0 0,-3.651589 c 0.620701,-0.192228 1.184679,-0.535005 1.599744,-1.008534 l 5.425216,0 c 0.108693,1.277138 1.172995,2.364838 2.503946,2.364838 l 2.051845,0 c 1.405886,0 2.50395,-1.203832 2.50395,-2.5735 l 0,-6.572859 c 0,-1.369668 -1.098064,-2.5735 -2.50395,-2.5735 l -2.051845,0 c -1.317571,0 -2.342803,1.069797 -2.469169,2.330061 l -4.79923,0 c -0.390203,-1.394775 -1.782611,-2.364839 -3.303818,-2.364839 z m 77.830735,41.833379 c -0.167388,0.03902 -0.325322,0.117986 -0.456971,0.228484 L 76.338174,72.692713 68.994061,65.446521 C 68.7899,65.239953 68.501122,65.119629 68.210689,65.120117 l -20.85728,0 c -0.814771,-0.0042 -1.373485,1.113263 -0.881297,1.762586 L 60.344328,85.324587 46.667956,96.128592 c -0.353872,0.281779 -0.502097,0.795644 -0.352661,1.222602 0.149436,0.426958 0.58576,0.73623 1.038114,0.735828 l 13.186762,0 c 0.245386,0.0033 0.491093,-0.07865 0.685451,-0.228484 l 5.287761,-4.243265 16.222329,21.608007 c 0.20054,0.27869 0.537969,0.45365 0.881294,0.45697 l 34.044054,0 c 0.87933,0.0195 1.4194,-1.28563 0.78337,-1.89315 L 83.812849,79.971544 113.94004,56.111338 c 0.35387,-0.281778 0.50209,-0.79564 0.35266,-1.222597 -0.14944,-0.426957 -0.58576,-0.73623 -1.03811,-0.735833 l -13.18677,0 c -0.0651,-0.0058 -0.130736,-0.0058 -0.195843,0 z" style="fill:#aaaaaa"/>
</svg>