<?xml version="1.0" encoding="UTF-8" standalone="no"?>
<svg xmlns:dc="http://purl.org/dc/elements/1.1/"
     xmlns:cc="http://creativecommons.org/ns#"
     xmlns:rdf="http://www.w3.org/1999/02/22-rdf-syntax-ns#"
     xmlns:svg="http://www.w3.org/2000/svg"
     xmlns="http://www.w3.org/2000/svg"
     xmlns:xlink="http://www.w3.org/1999/xlink"
     width="128" height="128" version="1.1">
    <title>Sensor Icon</title>
    <desc>This is shape (source) for Clarity vector icon theme for gtk</desc>
    <metadata>
        <rdf:RDF>
            <cc:Work rdf:about="">
                <dc:title>Sensor Icon</dc:title>
                <dc:description>This is shape (source) for Clarity vector icon theme for gtk</dc:description>
                <dc:creator>
                    <cc:Agent>
                        <dc:title>Jakub Jankiewicz</dc:title>
                    </cc:Agent>
                </dc:creator>
                <dc:rights>
                    <cc:Agent>
                        <dc:title>Jakub Jankiewicz</dc:title>
                    </cc:Agent>
                </dc:rights>
                <dc:date>2010</dc:date>
                <dc:format>image/svg+xml</dc:format>
                <dc:type rdf:resource="http://purl.org/dc/dcmitype/StillImage" />
                <cc:license rdf:resource="http://creativecommons.org/licenses/by-sa/3.0/" />
             </cc:Work>
        </rdf:RDF>
    </metadata>
    <path d="M 43.34375 10.40625 C 41.126627 10.40625 39.34375 12.189126 39.34375 14.40625 L 39.34375 27.28125 L 47.34375 27.28125 L 47.34375 14.40625 C 47.34375 12.189126 45.560876 10.40625 43.34375 10.40625 z M 57.09375 10.40625 C 54.876627 10.40625 53.125 12.189126 53.125 14.40625 L 53.125 27.28125 L 61.125 27.28125 L 61.125 14.40625 C 61.125 12.189126 59.310873 10.40625 57.09375 10.40625 z M 70.90625 10.40625 C 68.689127 10.40625 66.875 12.189126 66.875 14.40625 L 66.875 27.28125 L 74.875 27.28125 L 74.875 14.40625 C 74.875 12.189126 73.123373 10.40625 70.90625 10.40625 z M 84.6875 10.40625 C 82.470377 10.40625 80.65625 12.189126 80.65625 14.40625 L 80.65625 27.28125 L 88.65625 27.28125 L 88.65625 14.40625 C 88.65625 12.189126 86.904626 10.40625 84.6875 10.40625 z M 40.875 30.0625 C 34.8802 30.0625 30.03125 34.880196 30.03125 40.875 L 30.03125 87.125 C 30.03125 93.119803 34.8802 97.96875 40.875 97.96875 L 87.125 97.96875 C 93.119802 97.96875 97.9375 93.119803 97.9375 87.125 L 97.9375 40.875 C 97.9375 34.880197 93.119802 30.0625 87.125 30.0625 L 40.875 30.0625 z M 47.21875 36.6875 C 47.401244 36.669083 47.593733 36.6875 47.78125 36.6875 C 50.781513 36.6875 53.1875 39.093486 53.1875 42.09375 L 53.1875 74.46875 C 55.53232 76.15946 57.09375 78.888406 57.09375 82 C 57.09375 87.142202 52.923452 91.3125 47.78125 91.3125 C 42.639047 91.3125 38.46875 87.142202 38.46875 82 C 38.46875 78.877944 40.016788 76.126703 42.375 74.4375 L 42.375 42.09375 C 42.375 39.281002 44.481339 36.963757 47.21875 36.6875 z M 82.15625 38.59375 C 86.085698 38.59375 89.157269 40.787212 89.46875 44.8125 L 86.03125 44.8125 C 85.504129 42.560256 84.222014 41.65625 82.28125 41.65625 C 79.453964 41.65625 77.75 43.829932 77.75 47.6875 C 77.75 51.497148 79.376884 53.625 82.15625 53.625 C 84.384534 53.625 85.81561 52.603284 86.03125 50.375 L 89.53125 50.375 C 89.31561 54.376328 86.399269 56.65625 82.0625 56.65625 C 77.19861 56.65625 74.15625 53.231651 74.15625 47.625 C 74.15625 41.970429 77.22048 38.59375 82.15625 38.59375 z M 68.3125 39.28125 C 70.205344 39.28125 71.75 40.825906 71.75 42.71875 C 71.75 44.611594 70.205344 46.15625 68.3125 46.15625 C 66.419656 46.15625 64.875 44.611594 64.875 42.71875 C 64.875 40.825906 66.419656 39.28125 68.3125 39.28125 z M 14.40625 39.34375 C 12.189125 39.34375 10.40625 41.095375 10.40625 43.3125 C 10.40625 45.529622 12.189125 47.34375 14.40625 47.34375 L 27.28125 47.34375 L 27.28125 39.34375 L 14.40625 39.34375 z M 100.71875 39.34375 L 100.71875 47.34375 L 113.59375 47.34375 C 115.81087 47.34375 117.59375 45.560873 117.59375 43.34375 C 117.59375 41.126628 115.81087 39.34375 113.59375 39.34375 L 100.71875 39.34375 z M 68.3125 40.625 C 67.162418 40.625 66.21875 41.568668 66.21875 42.71875 C 66.21875 43.868832 67.162418 44.8125 68.3125 44.8125 C 69.462582 44.8125 70.40625 43.868832 70.40625 42.71875 C 70.40625 41.568668 69.462582 40.625 68.3125 40.625 z M 14.40625 53.125 C 12.189125 53.125 10.40625 54.876626 10.40625 57.09375 C 10.40625 59.310873 12.189125 61.125 14.40625 61.125 L 27.28125 61.125 L 27.28125 53.125 L 14.40625 53.125 z M 100.71875 53.125 L 100.71875 61.125 L 113.59375 61.125 C 115.81087 61.125 117.59375 59.310873 117.59375 57.09375 C 117.59375 54.876626 115.81087 53.125 113.59375 53.125 L 100.71875 53.125 z M 14.40625 66.875 C 12.189125 66.875 10.40625 68.689127 10.40625 70.90625 C 10.40625 73.123373 12.189125 74.875 14.40625 74.875 L 27.28125 74.875 L 27.28125 66.875 L 14.40625 66.875 z M 100.71875 66.875 L 100.71875 74.875 L 113.59375 74.875 C 115.81087 74.875 117.59375 73.123373 117.59375 70.90625 C 117.59375 68.689127 115.81087 66.875 113.59375 66.875 L 100.71875 66.875 z M 14.40625 80.65625 C 12.189125 80.65625 10.40625 82.439127 10.40625 84.65625 C 10.40625 86.873373 12.189125 88.65625 14.40625 88.65625 L 27.28125 88.65625 L 27.28125 80.65625 L 14.40625 80.65625 z M 100.71875 80.65625 L 100.71875 88.65625 L 113.59375 88.65625 C 115.81087 88.65625 117.59375 86.904623 117.59375 84.6875 C 117.59375 82.470377 115.81087 80.65625 113.59375 80.65625 L 100.71875 80.65625 z M 39.34375 100.71875 L 39.34375 113.59375 C 39.34375 115.81087 41.095377 117.59375 43.3125 117.59375 C 45.529625 117.59375 47.34375 115.81087 47.34375 113.59375 L 47.34375 100.71875 L 39.34375 100.71875 z M 53.125 100.71875 L 53.125 113.59375 C 53.125 115.81087 54.876626 117.59375 57.09375 117.59375 C 59.310873 117.59375 61.125 115.81087 61.125 113.59375 L 61.125 100.71875 L 53.125 100.71875 z M 66.875 100.71875 L 66.875 113.59375 C 66.875 115.81087 68.689127 117.59375 70.90625 117.59375 C 73.123373 117.59375 74.875 115.81087 74.875 113.59375 L 74.875 100.71875 L 66.875 100.71875 z M 80.65625 100.71875 L 80.65625 113.59375 C 80.65625 115.81087 82.439127 117.59375 84.65625 117.59375 C 86.873374 117.59375 88.65625 115.81087 88.65625 113.59375 L 88.65625 100.71875 L 80.65625 100.71875 z " style="fill:#aaaaaa"/>
</svg>