<?xml version="1.0" encoding="UTF-8" standalone="no"?>
<svg xmlns:dc="http://purl.org/dc/elements/1.1/"
     xmlns:cc="http://creativecommons.org/ns#"
     xmlns:rdf="http://www.w3.org/1999/02/22-rdf-syntax-ns#"
     xmlns:svg="http://www.w3.org/2000/svg"
     xmlns="http://www.w3.org/2000/svg"
     xmlns:xlink="http://www.w3.org/1999/xlink"
     width="128" height="128" version="1.1">
    <title>Xfdashboard Icon</title>
    <desc>This is shape (source) for Clarity vector icon theme for gtk</desc>
    <metadata>
        <rdf:RDF>
            <cc:Work rdf:about="">
                <dc:title>Xfdashboard Icon</dc:title>
                <dc:description>This is shape (source) for Clarity vector icon theme for gtk</dc:description>
                <dc:creator>
                    <cc:Agent>
                        <dc:title>Jakub Jankiewicz</dc:title>
                    </cc:Agent>
                </dc:creator>
                <dc:rights>
                    <cc:Agent>
                        <dc:title>Jakub Jankiewicz</dc:title>
                    </cc:Agent>
                </dc:rights>
                <dc:date>2010</dc:date>
                <dc:format>image/svg+xml</dc:format>
                <dc:type rdf:resource="http://purl.org/dc/dcmitype/StillImage" />
                <cc:license rdf:resource="http://creativecommons.org/licenses/by-sa/3.0/" />
             </cc:Work>
        </rdf:RDF>
    </metadata>
    <path d="M 13.753906 10.755859 C 10.320045 10.755859 7.5546875 13.519265 7.5546875 16.953125 L 7.5546875 111.04688 C 7.5546875 114.48072 10.320045 117.24609 13.753906 117.24609 L 114.24805 117.24609 C 117.68191 117.24609 120.44531 114.48073 120.44531 111.04688 L 120.44531 16.953125 C 120.44531 13.519265 117.68191 10.755859 114.24805 10.755859 L 13.753906 10.755859 z M 13.753906 14.523438 L 29.021484 14.523438 L 29.021484 113.47852 L 13.753906 113.47852 C 12.34285 113.47852 11.322266 112.45788 11.322266 111.04688 L 11.322266 16.953125 C 11.322266 15.542069 12.341421 14.523437 13.753906 14.523438 z M 33.910156 14.523438 L 114.24805 14.523438 C 115.66053 14.523434 116.67773 15.540637 116.67773 16.953125 L 116.67773 63.236328 L 33.910156 63.236328 L 33.910156 14.523438 z M 15.386719 16.904297 C 14.258445 16.904297 13.349609 17.811179 13.349609 18.939453 L 13.349609 26.373047 C 13.349609 27.501321 14.258445 28.410156 15.386719 28.410156 L 24.957031 28.410156 C 26.085305 28.410156 26.994141 27.501321 26.994141 26.373047 L 26.994141 18.939453 C 26.994141 17.811179 26.085305 16.904297 24.957031 16.904297 L 15.386719 16.904297 z M 15.386719 33.236328 C 14.258445 33.236328 13.349609 34.145164 13.349609 35.273438 L 13.349609 42.707031 C 13.349609 43.835305 14.258445 44.744141 15.386719 44.744141 L 24.957031 44.744141 C 26.085305 44.744141 26.994141 43.835305 26.994141 42.707031 L 26.994141 35.273438 C 26.994141 34.145164 26.085305 33.236328 24.957031 33.236328 L 15.386719 33.236328 z M 15.386719 49.570312 C 14.258445 49.570312 13.349609 50.479148 13.349609 51.607422 L 13.349609 59.041016 C 13.349609 60.169289 14.258445 61.078125 15.386719 61.078125 L 24.957031 61.078125 C 26.085305 61.078125 26.994141 60.169289 26.994141 59.041016 L 26.994141 51.607422 C 26.994141 50.479148 26.085305 49.570313 24.957031 49.570312 L 15.386719 49.570312 z M 15.386719 65.904297 C 14.258445 65.904297 13.349609 66.813133 13.349609 67.941406 L 13.349609 75.375 C 13.349609 76.503274 14.258445 77.410156 15.386719 77.410156 L 24.957031 77.410156 C 26.085305 77.410156 26.994141 76.503274 26.994141 75.375 L 26.994141 67.941406 C 26.994141 66.813133 26.085305 65.904297 24.957031 65.904297 L 15.386719 65.904297 z M 33.910156 69.548828 L 116.67773 69.548828 L 116.67773 111.04688 C 116.67773 112.45933 115.6591 113.47852 114.24805 113.47852 L 33.910156 113.47852 L 33.910156 69.548828 z M 15.386719 82.238281 C 14.258445 82.238281 13.349609 83.145163 13.349609 84.273438 L 13.349609 91.707031 C 13.349609 92.835305 14.258445 93.744141 15.386719 93.744141 L 24.957031 93.744141 C 26.085305 93.744141 26.994141 92.835305 26.994141 91.707031 L 26.994141 84.273438 C 26.994141 83.145163 26.085305 82.238281 24.957031 82.238281 L 15.386719 82.238281 z M 15.386719 98.570312 C 14.258445 98.570312 13.349609 99.47915 13.349609 100.60742 L 13.349609 108.04102 C 13.349609 109.16929 14.258445 110.07812 15.386719 110.07812 L 24.957031 110.07812 C 26.085305 110.07814 26.994141 109.16929 26.994141 108.04102 L 26.994141 100.60742 C 26.994141 99.47915 26.085305 98.570313 24.957031 98.570312 L 15.386719 98.570312 z" style="fill:#aaaaaa"/>
</svg>