<?xml version="1.0" encoding="UTF-8" standalone="no"?>
<svg xmlns:dc="http://purl.org/dc/elements/1.1/"
     xmlns:cc="http://creativecommons.org/ns#"
     xmlns:rdf="http://www.w3.org/1999/02/22-rdf-syntax-ns#"
     xmlns:svg="http://www.w3.org/2000/svg"
     xmlns="http://www.w3.org/2000/svg"
     xmlns:xlink="http://www.w3.org/1999/xlink"
     width="128" height="128" version="1.1">
    <title>Tux</title>
    <desc>This is shape (source) for Clarity vector icon theme for gtk</desc>
    <!--

    This icon is a part of Clarity vector icon theme for gtk

    Copyright (c) 2010 Jakub Jankiewicz <http://jcubic.pl> 

    This icon is free: you can redistribute it and/or modify
    it under the terms of the GNU General Public License as published by
    the Free Software Foundation, either version 3 of the License, or
    (at your option) any later version.

    This program is distributed in the hope that it will be useful,
    but WITHOUT ANY WARRANTY; without even the implied warranty of
    MERCHANTABILITY or FITNESS FOR A PARTICULAR PURPOSE.  See the
    GNU General Public License for more details.

    You should have received a copy of the GNU General Public License
    along with this program.  If not, see <http://www.gnu.org/licenses/>.

    -->
    <metadata>
        <rdf:RDF>
            <cc:Work rdf:about="">
                <dc:title>Tux</dc:title>
                <dc:description>This is shape (source) for Clarity vector icon theme for gtk</dc:description>
                <dc:creator>
                    <cc:Agent>
                        <dc:title>Jakub Jankiewicz</dc:title>
                    </cc:Agent>
                </dc:creator>
                <dc:rights>
                    <cc:Agent>
                        <dc:title>Jakub Jankiewicz</dc:title>
                    </cc:Agent>
                </dc:rights>
                <dc:date>2010</dc:date>
                <dc:format>image/svg+xml</dc:format>
                <dc:type rdf:resource="http://purl.org/dc/dcmitype/StillImage" />
                <cc:license rdf:resource="http://www.gnu.org/copyleft/gpl.html" />
             </cc:Work>
        </rdf:RDF>
    </metadata>
    <path d="m 63.3125,9.40625 c -2.346999,0.076032 -5.01631,0.656008 -7.90625,2.15625 -3.851856,2.006103 -5.391231,4.944636 -5.96875,9.96875 -0.577519,5.024114 0.0051,12.00368 0.6875,21.375 a 1.100873,1.100873 0 0 1 0,0.03125 c 0.19827,2.88729 -1.106727,5.260217 -2.84375,7.625 -1.737023,2.364783 -3.936866,4.820243 -5.96875,8.03125 -4.051494,6.381638 -4.483325,11.706131 -7.78125,17.375 -1.357737,2.334194 -1.929736,3.51211 -2.09375,4.3125 -0.164014,0.80039 -0.0193,1.455016 0.40625,3.0625 A 1.100873,1.100873 0 0 1 31.5,84.46875 c -0.285257,0.244617 -0.54765,0.510512 -0.84375,0.8125 -0.5611,0.572255 -1.142574,1.517349 -1.875,2.5625 -0.727371,1.037944 -1.521936,2.114651 -2.53125,2.84375 -0.566676,0.409331 -1.217061,0.596561 -1.96875,0.8125 -0.751689,0.215939 -1.601811,0.384041 -2.4375,0.5625 -1.710885,0.365355 -3.030156,0.597873 -3.71875,1.5 -0.591823,0.789244 -0.59783,1.789279 -0.4375,3.125 0.161485,1.345355 0.479811,3.027247 0.46875,5.25 0,1.89087 -0.315551,3.35952 -0.53125,4.5 a 1.100873,1.100873 0 0 1 -0.03125,0 c -0.300253,1.43805 -0.473805,2.46484 0.09375,3.4375 0.500609,0.83449 1.282823,1.46679 3.09375,2.0625 1.845554,0.60711 4.79808,1.25184 9.875,2.3125 2.729145,0.5654 5.38554,1.56091 7.78125,2.46875 2.401177,0.9099 4.506793,1.70393 6.21875,1.84375 1.701552,0.12857 2.72893,-0.0994 3.5625,-0.5625 0.866819,-0.48156 1.577277,-1.2256 2.625,-2.15625 0.009,-0.008 0.02235,0.008 0.03125,0 1.051545,-0.93721 1.642431,-1.20026 2.09375,-1.84375 -0.03306,0.0471 0.0067,-0.008 0.09375,-0.15625 a 1.100873,1.100873 0 0 1 0.5,-0.4375 c 1.297262,-0.55882 2.112658,-0.79166 3.25,-0.875 1.137342,-0.0833 2.614276,-0.0696 5.65625,-0.25 C 69.123544,111.88861 71.702805,111.59649 77.5,113 a 1.100873,1.100873 0 0 1 0.8125,0.8125 c 0.362838,1.57872 1.02305,2.63706 1.65625,3.1875 a 1.100873,1.100873 0 0 1 0,0.0312 c 0.94551,0.84327 2.430732,1.53125 5.625,1.53125 3.184254,0 5.161701,-0.72391 7.25,-2.8125 1.370731,-1.37044 2.862376,-2.6518 7.0625,-5.53125 1.67174,-1.13993 3.73236,-2.34284 5.53125,-3.375 0.91101,-0.52271 1.79264,-0.97724 2.4375,-1.375 0.65688,-0.40519 1.04109,-0.69735 1.34375,-1 0.30229,-0.30249 0.54881,-0.45371 0.84375,-0.875 0.29494,-0.42129 0.56386,-0.98534 0.59375,-1.8125 0.0197,-0.71436 -0.3151,-1.30369 -0.65625,-1.625 -0.408,-0.384272 -0.85945,-0.591887 -1.375,-0.90625 a 1.100873,1.100873 0 0 1 -0.0312,-0.03125 c -0.0126,-0.0073 -0.0496,-0.02365 -0.0625,-0.03125 a 1.100873,1.100873 0 0 1 -0.125,-0.09375 L 108.375,99.0625 C 107.70681,98.649103 106.80179,97.977251 105.71875,97 104.54919,95.944684 103.32159,94.685105 102.5,93.375 c -0.60813,-0.972841 -0.40362,-1.840326 -0.34375,-2.96875 0.057,-1.075008 0.057,-2.149264 -0.59375,-3.09375 -0.25394,-0.370609 -0.54909,-0.523431 -0.90625,-0.625 A 1.100873,1.100873 0 0 1 99.9375,85.21875 c 0.44673,-1.122823 0.79513,-2.155683 1,-3 0.72331,-2.931303 -0.06,-7.353165 -1.71875,-11.84375 -1.658789,-4.490585 -4.155468,-9.089478 -6.5625,-12.5 -4.896498,-6.93667 -9.079905,-11.462002 -11.125,-20.53125 -1.023498,-4.501201 -0.905719,-6.331555 -0.75,-7.78125 C 80.936969,28.112805 81.118332,27.124167 80.25,23.34375 79.418125,19.641906 77.908888,16.717509 76.34375,14.875 74.813156,13.034417 72.693942,11.938565 71.53125,11.3125 70.165795,10.578991 67.616902,9.4968716 64.3125,9.40625 c -0.326294,-0.00895 -0.67091,-0.01066 -1,0 z" fill="#ffffff"/>
    <path d="m 63.284063,8.31322 c -2.503158,0.081091 -5.357536,0.708118 -8.390913,2.282822 -8.313921,4.330012 -7.224951,13.684654 -5.861299,32.411957 0.346403,5.044464 -4.479807,8.389318 -8.658271,14.992586 -4.178457,6.581622 -4.633291,11.964942 -7.794499,17.398805 -2.729818,4.693047 -2.641223,5.008111 -1.789239,8.226385 -0.333801,0.286245 -0.633616,0.586679 -0.925469,0.884336 -0.702046,0.716003 -1.2922,1.711975 -1.994898,2.714705 -0.702698,1.002737 -1.476978,1.988633 -2.282822,2.570751 -0.641586,0.463442 -2.316458,0.839881 -3.969231,1.192826 -1.652773,0.352945 -3.366539,0.604745 -4.38055,1.933201 -0.85224,1.136531 -0.806245,2.481505 -0.637544,3.886967 0.1687,1.405461 0.462961,3.029415 0.452451,5.141489 0,1.76201 -0.2923,3.08416 -0.514149,4.25716 -0.0013,0.005 0.0013,0.0151 0,0.0205 -0.302876,1.45061 -0.5641,2.84101 0.226225,4.19545 0.653675,1.08965 1.706988,1.90749 3.660742,2.55018 1.953753,0.6427 4.935988,1.28329 10.015623,2.34452 2.611351,0.541 5.214548,1.51927 7.609407,2.42679 2.394858,0.90751 4.56128,1.7527 6.51941,1.91263 1.835201,0.13867 3.138885,-0.11226 4.195456,-0.69924 1.056571,-0.58698 1.799979,-1.40108 2.817537,-2.30339 0.961625,-0.86146 1.687653,-1.13754 2.303388,-2.01546 0.0489,-0.0697 0.08039,-0.15318 0.123395,-0.22623 2.511746,-1.08198 2.402394,-0.68518 8.534875,-1.04886 6.672164,-0.39366 9.010037,-0.67944 14.704663,0.69924 0.401856,1.74849 1.148206,3.03023 2.015464,3.78414 1.166739,1.04058 2.971594,1.8098 6.334317,1.8098 3.371546,0 5.777092,-0.86151 8.041289,-3.12602 1.334445,-1.33416 2.714352,-2.54645 6.889599,-5.40885 1.61482,-1.10112 3.67167,-2.27897 5.47054,-3.31112 0.89944,-0.51607 1.7432,-0.9974 2.42679,-1.41905 0.68358,-0.42166 1.1866,-0.73416 1.58358,-1.13113 0.30524,-0.30544 1.67165,-1.31916 1.7481,-3.43452 l 0,-0.0205 c 0.0291,-1.05435 -0.44331,-1.915754 -1.00773,-2.44735 -0.56442,-0.531596 -1.17603,-0.812899 -1.56301,-1.048864 l -0.0205,-0.02053 c -0.98918,-0.572682 -4.27343,-3.209218 -5.71734,-5.511678 -0.24843,-0.39742 -0.24354,-1.201954 -0.1851,-2.303388 0.0584,-1.101434 0.0931,-2.514701 -0.7815,-3.784143 -0.41203,-0.601329 -0.98136,-0.915715 -1.52188,-1.06943 0.46356,-1.165117 0.82876,-2.23949 1.04886,-3.14659 1.6454,-6.668222 -3.516996,-18.220601 -8.45261,-25.21387 C 88.620978,50.267274 84.587339,45.938524 82.595534,37.1056 80.582084,28.250726 83.075185,30.808686 81.299879,23.079614 80.433877,19.225903 78.897037,16.167442 77.186686,14.153986 75.476328,12.097231 73.191565,10.934919 72.065761,10.328717 70.592205,9.537137 67.85944,8.4099649 64.33296,8.3132529 c -0.34285,-0.0094 -0.691273,-0.011583 -1.048865,0 z m 4.565643,15.136548 c 0.177111,-0.0016 0.365864,0.0043 0.555281,0.02057 1.970456,0.151551 2.749238,0.557558 4.113193,2.982065 1.450548,2.533057 1.42481,4.6943 0.904902,6.642806 -0.275775,1.031618 -0.670806,1.868501 -1.357354,2.488481 -0.154267,-0.07874 -0.30891,-0.15559 -0.473017,-0.226225 -0.759703,-0.326991 -1.622684,-0.575625 -2.488481,-0.822639 0.536156,-0.212776 1.048015,-0.561006 1.398485,-1.028298 0.519599,-0.671151 0.705745,-1.644129 0.575847,-2.488481 -0.324751,-1.861905 -1.276044,-3.31112 -2.8998,-3.31112 -0.6928,0 -1.51998,0.09816 -1.974333,0.596413 -0.606199,0.671151 -0.946034,1.523953 -0.946034,2.714707 0,0.621604 0.03896,1.389731 0.164528,2.056596 -0.165259,-0.11126 -0.328385,-0.231944 -0.514149,-0.370187 -0.474577,-0.350672 -1.126061,-0.622106 -1.850937,-0.802073 -0.180342,-0.426353 -0.295663,-0.920115 -0.30849,-1.563013 -0.04297,-2.078405 -0.200302,-1.830243 0.51415,-3.475648 0.628923,-1.420785 1.929508,-3.389371 4.586209,-3.413954 z m -13.984854,0.781507 c 0.895096,0.0081 1.963447,0.288928 2.694141,1.295655 1.017551,1.407254 1.686409,2.153847 1.686409,4.318853 0.0088,0.899801 -0.08406,1.540424 -0.246792,2.077162 -0.332089,0.07406 -0.675728,0.173392 -1.06943,0.370187 -0.212195,0.11 -0.44564,0.264791 -0.678677,0.41132 0.07614,-0.501959 0.123396,-1.036021 0.123396,-1.563014 0,-0.930952 -0.28789,-1.759968 -0.699243,-2.344519 -0.389397,-0.584552 -1.221999,-1.007732 -1.871502,-1.007732 -0.6928,0 -1.193879,0.278134 -1.583579,0.884336 -0.562902,0.822702 -0.41132,1.756716 -0.41132,2.406218 0,1.039203 0.72845,2.290378 0.966601,2.550179 0.430944,0.444414 0.610417,0.80143 0.86377,1.007732 -0.205219,0.172386 -0.410082,0.347139 -0.575847,0.493583 -0.251326,0.217602 -0.468812,0.386437 -0.699243,0.575847 -0.407962,-0.442939 -0.75224,-1.017077 -0.987166,-1.706975 -0.584251,-1.732005 -0.80533,-2.710179 -0.740374,-5.264886 0.02191,-0.952603 0.292227,-1.856294 0.616978,-2.570745 0.498256,-1.060854 1.226337,-1.784903 1.789239,-1.871503 0.24356,-0.0433 0.524271,-0.0644 0.822639,-0.0617 z m 6.745635,8.082423 c 1.423297,-0.03527 3.157149,0.350437 3.907533,0.904903 0.944982,0.70324 1.651951,1.105827 2.529614,1.398485 1.444401,0.474067 3.063018,0.813957 4.27772,1.336788 0.607351,0.261415 1.119749,0.566288 1.439617,0.925468 0.319868,0.35918 0.46976,0.757557 0.431885,1.316222 -0.0956,1.497585 -0.350595,2.540526 -0.86377,3.290554 -0.513175,0.750027 -1.283191,1.257759 -2.509047,1.645277 -1.13074,0.348845 -2.527692,1.391552 -4.030929,2.344519 -1.503237,0.952967 -3.090094,1.789239 -4.359984,1.789239 -1.267054,0 -3.035905,0.03478 -3.928099,-0.287923 -0.377848,-0.134345 -0.967923,-0.599499 -1.624711,-1.213392 -0.656788,-0.613894 -1.383119,-1.362193 -2.200558,-2.036031 l -0.02053,0 c -1.59091,-1.289931 -2.963802,-2.614647 -3.002631,-4.257154 -0.03014,-0.890685 0.209207,-1.426491 0.699243,-1.974332 0.490036,-0.547841 1.239098,-1.092458 2.13886,-1.871503 0.915307,-0.808615 2.616925,-2.158757 3.722439,-2.735273 0.007,-0.0036 0.01356,0.0035 0.02053,0 1.003704,-0.495961 1.622677,-0.401284 2.776404,-0.534715 0.186417,-0.02298 0.393083,-0.03609 0.596414,-0.04113 z m 10.385811,5.779036 c -0.201191,0.0076 -0.448022,0.136566 -0.719808,0.287923 -0.271787,0.151357 -0.570247,0.351446 -0.884337,0.575847 -0.623744,0.445639 -1.26631,0.970533 -1.72754,1.316222 -0.0033,0.0024 -0.01731,-0.0024 -0.02053,0 -0.919973,0.55532 -2.528869,1.445447 -4.236588,2.13886 -1.714602,0.696206 -3.533035,1.187178 -4.791869,0.987166 -0.0068,-6.13e-4 -0.01371,-6.13e-4 -0.02053,0 -1.044922,-0.03468 -3.096398,-0.296494 -4.401116,-1.151694 -0.663896,-0.407703 -1.387982,-0.804144 -1.706975,-1.151694 l -0.08226,0.08226 -0.04113,0.08226 c 0.549325,0.379364 0.552958,0.460279 1.357354,0.987166 0.0075,0.0049 0.0129,-0.005 0.02053,0 0.112668,0.08677 0.243876,0.149828 0.329055,0.20566 0.409799,0.251658 0.829036,0.531483 1.089996,0.719808 1.140394,0.582055 1.174919,0.633961 3.023197,0.904903 0.0068,6.13e-4 0.01371,6.13e-4 0.02053,0 3.558938,0.211195 6.336968,-1.368657 8.123555,-2.303388 1.676221,-0.950761 2.618669,-1.620916 3.722439,-2.406218 0.405304,-0.274586 0.750042,-0.418767 0.9666,-0.575847 0.108279,-0.07854 0.187444,-0.162698 0.20566,-0.287923 0.01823,-0.125225 -0.03396,-0.25393 -0.143962,-0.370187 -0.0059,-0.0077 -0.01285,-0.01462 -0.02053,-0.02057 -0.0068,-6.13e-4 -0.0137,-6.13e-4 -0.02053,0 -0.0059,-0.0077 -0.01285,-0.01462 -0.02053,-0.02057 -0.0068,-6.13e-4 -0.01371,-6.13e-4 -0.02053,0 z m 1.994899,3.97522 c 0.618867,1.171994 0.82196,2.731239 2.385651,5.217765 2.316557,3.63721 2.172997,6.19316 4.771304,11.887126 1.298709,2.857807 2.831535,5.065479 3.784137,8.226385 1.039203,3.377412 1.542447,7.980028 1.542447,12.48354 0,1.731706 0.154834,3.613041 -0.473017,4.565643 -0.0039,0.0059 0.0033,0.01468 0,0.02053 -0.509852,-0.10104 -1.043955,-0.123396 -1.748107,-0.123396 -1.398742,0 -2.132812,0.173834 -3.331686,0.925467 -0.0066,0.0039 -0.01421,-0.0039 -0.02053,0 l 0,0.02053 c -0.54456,0.340079 -0.680579,0.796288 -0.802072,1.233958 -0.123706,0.445626 -0.177361,0.932227 -0.226226,1.501321 -0.09772,1.13817 -0.123396,2.551857 -0.123396,4.07206 0,2.409469 0.02317,5.097838 -0.185093,7.198087 -0.0084,0.08577 -0.01185,0.162211 -0.02053,0.246792 -0.15482,0.162705 -0.294642,0.320019 -0.473017,0.493578 -3.117609,3.00966 -7.413058,6.11805 -12.977122,7.15696 -6.516751,1.21493 -9.776848,0.45013 -11.414109,-0.37019 -0.288904,-0.56169 -0.631668,-1.09519 -1.007732,-1.60415 -0.930483,-1.25929 -2.049693,-2.52864 -3.249422,-4.27772 1.013141,-0.16751 2.749067,-0.5105 3.023196,-1.028291 0.3897,-0.757749 0.402711,-3.094555 -0.246791,-4.133758 -0.605897,-1.017552 -5.094778,-4.306802 -7.259785,-6.190355 -2.056754,-1.818906 -3.4106,-2.824736 -4.709606,-3.907539 -1.32065,-1.082801 -1.351937,0.176775 -1.460183,-4.174888 -0.108253,-4.351962 0.744646,-6.439062 1.480749,-9.686569 0.736104,-3.269158 3.904216,-7.301746 4.79187,-10.570904 0.108252,-0.476301 0.303066,-0.963317 0.411319,-1.439618 0.259802,-0.952603 0.579072,-1.927716 0.925468,-2.858668 0.562902,-1.558805 1.270687,-3.095608 2.179992,-4.524512 1.775307,-2.706258 2.611877,-2.850953 2.611877,-4.647908 0,-2.684607 -0.148298,-2.220331 -0.06166,-4.991539 0.0013,-0.04917 0.01718,-0.07941 0.02053,-0.123396 0.591905,0.725345 1.354353,1.375487 2.118295,1.994899 0.784665,0.646816 1.531279,1.369326 2.200558,1.994898 0.660901,0.617738 1.241736,1.119731 1.83037,1.336788 l 0,0.02057 c 0.0046,0.0016 0.01626,-0.0015 0.02053,0 1.143224,0.406434 2.895523,0.329055 4.133759,0.329055 1.544915,0 3.181906,-0.923592 4.709605,-1.892069 1.527699,-0.968476 2.962038,-2.003815 3.866401,-2.282821 1.307206,-0.413235 2.24604,-0.996691 2.858669,-1.892069 0.04528,-0.06618 0.08174,-0.136445 0.123396,-0.20566 z M 34.430017,84.16049 c 0.154301,0.0046 0.683948,0.202316 1.316222,0.719806 0.632273,0.517493 1.372227,1.293787 2.097728,2.159426 1.451003,1.731292 2.894319,3.871416 3.866401,5.388289 1.964434,3.10856 2.439031,3.974805 5.408848,8.678839 1.532602,2.42755 2.990521,3.9609 3.969231,5.28545 0.978709,1.32455 1.513326,2.35009 1.542447,4.17489 0.03166,1.99273 -0.146983,2.62268 -0.370187,2.94093 -0.221863,0.31634 -0.869766,0.69959 -1.974333,1.68641 l -0.02053,0 0,-0.0205 c -1.082493,0.95989 -1.750265,1.66932 -2.447349,2.05659 -0.6933,0.38517 -1.495333,0.56986 -3.084895,0.45246 -0.0053,-4.5e-4 -0.01514,4.6e-4 -0.02053,0 -1.483375,-0.12547 -3.583143,-0.88699 -5.964129,-1.78924 -2.389804,-0.9056 -5.074515,-1.92425 -7.89733,-2.50905 -5.074541,-1.06017 -8.061633,-1.72827 -9.809964,-2.30339 -1.737208,-0.57146 -2.14446,-0.90422 -2.591311,-1.64528 -0.0033,-0.006 0.0033,-0.0145 0,-0.0205 -0.405541,-0.70966 -0.278322,-1.36643 0.02053,-2.79697 l 0,-0.0205 c 0.210029,-1.11287 0.552622,-2.64133 0.555281,-4.62734 4.6e-5,-0.009 -3.3e-5,-0.0118 0,-0.0205 0.0089,-2.291532 -0.317473,-4.071847 -0.473017,-5.367713 -0.156137,-1.300796 -0.135018,-1.958742 0.246791,-2.467916 0.241698,-0.31665 1.612398,-0.847633 3.228857,-1.192826 1.616458,-0.345192 3.402992,-0.578064 4.709605,-1.521881 1.142665,-0.825435 2.013398,-1.984322 2.755839,-3.043762 0.742441,-1.059446 1.387133,-2.05782 1.789239,-2.467922 1.091246,-1.112938 1.733102,-1.762017 3.146592,-1.727539 z m 48.08322,2.159424 c 0.191024,-0.0053 0.420184,0 0.740375,0 0.672155,0 1.119591,0.02994 1.37792,0.08226 0.211747,0.04291 0.283303,0.06746 0.349621,0.123395 -0.01797,-0.0046 0.0254,0.104601 0.02053,0.390754 -0.0066,0.381539 -0.08698,0.967593 -0.164528,1.686415 l 0,0.02053 c -0.08014,0.868443 0.121488,1.618136 0.473017,2.159426 0.35153,0.541289 0.782053,0.84223 1.089996,1.110562 l 0,0.02053 c 0.580283,0.486692 1.622472,1.475978 3.948663,1.665843 l 0.02053,0 c 2.245461,0.160388 3.42933,-0.30229 4.48338,-0.966601 1.091437,-0.688074 2.452062,-1.718531 3.167158,-2.611877 l 0.02053,0 c 0.345489,-0.435617 0.738026,-1.119367 1.131128,-1.727541 0.196552,-0.304086 0.383304,-0.583599 0.514149,-0.760946 0.02086,-0.0039 0.04014,-0.01711 0.06167,-0.02053 0.140158,-0.02251 0.286414,-0.02705 0.431894,-0.02053 0.29095,0.01303 0.46981,0.04482 0.67867,0.349627 0.46767,0.678769 0.48718,1.508107 0.43189,2.550179 -0.0553,1.042073 -0.25314,2.293398 0.47301,3.455082 1.75378,2.796563 4.91016,5.283965 6.39602,6.149223 l 0,0.02053 c 0.003,0.002 0.0175,-0.002 0.0205,0 0.49387,0.300265 0.94217,0.546615 1.21339,0.802065 0.26943,0.25376 0.39979,0.44185 0.39076,0.94604 -1.7e-4,0.009 2.6e-4,0.0109 0,0.0205 -0.0583,1.44704 -0.48711,1.41216 -1.17226,2.09773 -0.10113,0.10113 -0.59141,0.44686 -1.23396,0.8432 -0.64255,0.39635 -1.447,0.88352 -2.34452,1.39849 -1.79504,1.02994 -3.89553,2.22124 -5.614512,3.39338 l -0.02053,0 c -4.224986,2.89651 -5.742938,4.24193 -7.136389,5.63508 -1.979222,1.9795 -3.583209,2.55018 -6.66337,2.55018 -3.089001,0 -4.193627,-0.58091 -5.018095,-1.31622 l -0.02053,0 c -0.641506,-0.55767 -1.745797,-2.53835 -1.645277,-5.59395 0.08149,-3.07609 1.117742,-6.08713 1.624711,-11.270141 0.225337,-2.272463 0.185094,-5.006295 0.185094,-7.403747 0,-1.510805 0.01652,-2.88186 0.10283,-3.886967 0.04317,-0.502553 0.118006,-0.930587 0.185093,-1.172265 0.0304,-0.109628 0.06981,-0.146022 0.08226,-0.164528 0.0013,-0.002 -6.45e-4,-0.01961 0,-0.02053 0.686008,-0.433294 0.845982,-0.51973 1.419052,-0.534715 z" style="fill:#000000"/>
</svg>