<?xml version="1.0" encoding="UTF-8" standalone="no"?>
<svg xmlns:dc="http://purl.org/dc/elements/1.1/"
     xmlns:cc="http://creativecommons.org/ns#"
     xmlns:rdf="http://www.w3.org/1999/02/22-rdf-syntax-ns#"
     xmlns:svg="http://www.w3.org/2000/svg"
     xmlns="http://www.w3.org/2000/svg"
     xmlns:xlink="http://www.w3.org/1999/xlink"
     width="128" height="128" version="1.1">
    <title>Geolocation file</title>
    <desc>This is shape (source) for Clarity vector icon theme for gtk</desc>
    <metadata>
        <rdf:RDF>
            <cc:Work rdf:about="">
                <dc:title>Geolocation file</dc:title>
                <dc:description>This is shape (source) for Clarity vector icon theme for gtk</dc:description>
                <dc:creator>
                    <cc:Agent>
                        <dc:title>Jakub Jankiewicz</dc:title>
                    </cc:Agent>
                </dc:creator>
                <dc:rights>
                    <cc:Agent>
                        <dc:title>Jakub Jankiewicz</dc:title>
                    </cc:Agent>
                </dc:rights>
                <dc:date>2010</dc:date>
                <dc:format>image/svg+xml</dc:format>
                <dc:type rdf:resource="http://purl.org/dc/dcmitype/StillImage" />
                <cc:license rdf:resource="http://creativecommons.org/licenses/by-sa/3.0/" />
             </cc:Work>
        </rdf:RDF>
    </metadata>
    <path d="M 28.5 11.25 C 25.598125 11.54359 23.375 14.015184 23.375 17 L 23.375 111 C 23.375 114.1838 25.90994 116.75 29.09375 116.75 L 98.90625 116.75 C 102.09005 116.75 104.625 114.1838 104.625 111 L 104.625 40.375 L 83.59375 40.375 C 79.28764 40.375 75.53125 37.233891 75.53125 33.0625 L 75.53125 11.25 L 29.09375 11.25 C 28.894762 11.25 28.693458 11.23043 28.5 11.25 z M 79.53125 11.25 L 79.53125 33.0625 C 79.53125 34.776622 81.16322 36.375 83.59375 36.375 L 104.625 36.375 L 79.53125 11.25 z M 64 50.875 C 79.504185 50.875 92.0625 63.43189 92.0625 78.9375 C 92.0625 94.443808 79.504185 107.03125 64 107.03125 C 48.4944 107.03125 35.9375 94.443667 35.9375 78.9375 C 35.9375 63.43189 48.4944 50.875 64 50.875 z M 64 53.03125 C 62.209131 53.03125 60.469411 53.217489 58.78125 53.5625 L 58.5625 53.59375 L 57.21875 53.96875 L 56.5 54.6875 L 58.875 56.3125 L 58.875 57.25 L 57.9375 58.1875 L 59.15625 60.65625 L 60 60.1875 L 61.03125 58.53125 C 62.628547 58.03741 64.044292 57.483464 65.5625 56.78125 L 66.8125 53.625 L 65.375 53.0625 C 64.922962 53.0391 64.457897 53.03125 64 53.03125 z M 52.5625 55.6875 C 52.170827 55.880303 51.786432 56.069563 51.40625 56.28125 L 51.21875 56.65625 L 51.09375 56.4375 C 50.906793 56.544746 50.746486 56.669516 50.5625 56.78125 L 50.59375 57.25 L 49.75 57.9375 L 49.25 59.21875 L 50.28125 59.21875 L 50.78125 58.0625 C 51.227159 57.747165 51.670845 57.42853 52.125 57.125 L 53.15625 57.46875 C 53.845232 57.936845 54.560447 58.407617 55.25 58.875 L 56.28125 57.9375 L 55.125 57.46875 L 54.625 56.4375 L 52.65625 56.1875 L 52.5625 55.6875 z M 77.09375 56.5625 L 75.21875 57.03125 L 73.96875 57.84375 L 73.96875 58.53125 L 72 59.8125 L 72.4375 61.6875 L 73.5625 60.875 L 74.28125 61.6875 L 75.09375 62.15625 L 75.625 60.75 L 75.3125 59.9375 L 75.625 59.34375 L 76.75 58.28125 L 77.28125 58.28125 L 76.75 59.46875 L 76.75 60.53125 C 77.225065 60.401955 77.732585 60.3417 78.21875 60.28125 L 76.875 61.21875 L 76.75 61.8125 L 75.21875 63.09375 L 73.65625 62.75 L 73.65625 61.8125 L 72.9375 62.28125 L 73.25 63.09375 L 72.09375 63.09375 L 71.46875 64.15625 L 70.71875 65.03125 L 69.3125 65.3125 L 70.15625 66.15625 L 70.34375 66.96875 L 69.3125 66.96875 L 67.96875 67.65625 L 67.96875 69.78125 L 68.59375 69.78125 L 69.15625 70.40625 L 70.46875 69.78125 L 70.96875 68.5 L 71.90625 67.90625 L 72.09375 67.4375 L 73.65625 67.09375 L 74.46875 68.03125 L 75.4375 68.5 L 74.90625 69.53125 L 75.71875 69.3125 L 76.125 68.25 L 75.09375 67.09375 L 75.53125 67.09375 L 76.5625 67.90625 L 76.75 69.0625 L 77.6875 70.125 L 77.90625 68.59375 L 78.4375 68.375 C 78.948695 68.905678 79.31945 69.527754 79.75 70.125 L 81.3125 70.21875 L 82.25 70.8125 L 81.84375 71.40625 L 80.90625 72.21875 L 79.5625 72.21875 L 77.8125 71.65625 L 76.875 71.75 L 76.1875 72.53125 L 74.28125 70.59375 L 72.9375 70.21875 L 70.96875 70.46875 L 69.21875 70.9375 C 68.232498 72.055607 67.245992 73.182555 66.3125 74.34375 L 65.1875 77.03125 L 65.6875 77.625 L 64.78125 79.03125 L 65.8125 81.46875 C 66.691647 82.463255 67.559622 83.473543 68.4375 84.46875 L 69.71875 83.34375 L 70.3125 84 L 71.6875 83.125 L 72.15625 83.625 L 73.5625 83.625 L 74.375 84.5625 L 73.875 86.15625 L 74.84375 87.25 L 74.8125 89.1875 L 75.53125 90.59375 L 75 91.78125 C 74.94848 92.642341 74.90625 93.482518 74.90625 94.34375 C 75.329965 95.510495 75.724896 96.66861 76.125 97.84375 L 76.4375 99.71875 L 76.4375 100.65625 L 77.1875 100.65625 L 78.3125 99.96875 L 79.1875 99.96875 C 79.716585 99.585753 80.22081 99.170963 80.71875 98.75 L 81.6875 97.6875 L 81.4375 96.9375 L 82.75 95.75 L 81.78125 94.625 L 82.96875 93.625 L 84.09375 92.9375 L 84.625 92.34375 L 84.3125 91.0625 L 84.3125 87.78125 L 85.25 85.8125 L 86.375 84.53125 L 87.625 81.46875 L 87.625 80.65625 C 87.009452 80.733757 86.414685 80.80036 85.8125 80.84375 L 87.03125 79.59375 L 88.75 78.4375 L 89.6875 77.375 L 89.6875 76.1875 C 89.480541 75.797213 89.270879 75.421549 89.0625 75.03125 L 88.25 75.96875 L 87.625 75.28125 L 86.6875 74.5625 L 86.6875 73.0625 L 87.78125 74.28125 L 88.96875 74.09375 C 89.16789 74.274526 89.368084 74.475662 89.5625 74.65625 C 88.533051 68.480833 85.322411 63.031326 80.75 59.15625 L 80.375 59.59375 L 79.03125 58.1875 L 79.53125 58.1875 C 78.753358 57.604946 77.935942 57.05614 77.09375 56.5625 z M 49.625 57.375 C 42.671274 62.014973 38.1041 69.912941 38.09375 78.90625 L 39.84375 79.9375 L 42 80.53125 L 42.9375 81.6875 L 44.375 82.75 L 45.21875 82.625 L 45.84375 82.9375 L 45.84375 83.125 L 45 85.34375 L 44.375 86.28125 L 44.59375 86.75 L 44.09375 88.5 L 45.9375 91.875 L 47.78125 93.53125 L 48.625 94.6875 L 48.53125 97.15625 L 49.125 98.5625 L 48.8125 99.96875 C 49.992277 100.82341 51.244563 101.56984 52.5625 102.21875 L 53.0625 101.71875 L 53.375 100.90625 L 54.71875 100.4375 L 55.75 97.84375 L 55.46875 97.15625 L 56.15625 96.09375 L 57.71875 95.75 L 58.53125 93.875 L 58.34375 91.53125 L 59.5625 89.78125 L 59.78125 88.03125 C 58.083821 87.189513 56.403523 86.335379 54.71875 85.46875 L 53.90625 83.8125 L 52.34375 83.46875 L 51.53125 81.25 L 49.46875 81.46875 L 47.6875 80.1875 L 45.84375 81.8125 L 45.84375 82.09375 C 45.2805 81.931176 44.595271 81.90212 44.09375 81.59375 L 43.65625 80.40625 L 43.65625 79.125 L 42.4375 79.25 C 42.541046 78.430437 42.614494 77.600671 42.71875 76.78125 L 42 76.78125 L 41.28125 77.71875 L 40.5625 78.09375 L 39.53125 77.5 L 39.4375 76.1875 L 39.625 74.8125 L 41.1875 73.625 L 42.4375 73.625 L 42.625 72.9375 L 44.1875 73.28125 L 45.3125 74.6875 L 45.53125 72.34375 L 47.5 70.6875 L 48.21875 68.9375 L 49.65625 68.375 L 50.5 67.1875 L 52.34375 66.84375 L 53.28125 65.4375 L 50.5 65.4375 L 52.25 64.625 L 53.5 64.625 L 55.25 64.03125 L 55.46875 63.34375 L 54.84375 62.75 L 54.09375 62.53125 L 54.3125 61.8125 L 53.78125 60.75 L 52.5625 61.21875 L 52.75 60.28125 L 51.3125 59.46875 L 50.15625 61.46875 L 50.28125 62.15625 L 49.125 62.625 L 48.40625 64.15625 L 48.09375 62.75 L 46.125 61.9375 L 45.84375 60.875 L 48.40625 59.34375 L 49.5625 58.28125 L 49.625 57.375 z M 66.9375 58.0625 L 66.09375 58.53125 L 65.6875 58.40625 L 65.5625 59.125 L 66.3125 59.59375 L 67.53125 58.75 L 66.9375 58.0625 z M 53.28125 58.28125 L 52.46875 58.875 L 53.5 59.59375 L 54.3125 59.59375 L 54.3125 58.75 L 53.28125 58.28125 z M 69.625 61 L 69.625 61.6875 L 70.03125 62.15625 L 70.03125 63.21875 L 69.8125 64.625 L 70.96875 64.375 L 71.78125 63.5625 L 71.0625 62.875 C 70.819419 62.227688 70.522989 61.620857 70.21875 61 L 69.625 61 z M 69.1875 62.40625 L 68.46875 62.625 L 68.6875 63.90625 L 69.625 63.4375 L 69.1875 62.40625 z M 54.9375 64.5 L 55.25 66.15625 L 55.875 65.1875 L 54.9375 64.5 z M 81.9375 73.65625 L 83.125 74.96875 L 84.5 77.96875 L 85.34375 78.90625 L 84.9375 79.9375 L 85.71875 80.84375 C 85.354156 80.86819 84.999919 80.875 84.625 80.875 C 83.966589 79.491477 83.47012 78.103629 82.96875 76.65625 L 82.09375 75.6875 L 81.625 74 L 81.9375 73.65625 z M 48.59375 101.5625 C 48.746034 101.71366 49.265954 102.02754 49.8125 102.34375 C 49.404983 102.09604 48.986972 101.83053 48.59375 101.5625 z " style="fill:#aaaaaa"/>
</svg>