<?xml version="1.0" encoding="UTF-8" standalone="no"?>
<svg xmlns:dc="http://purl.org/dc/elements/1.1/"
     xmlns:cc="http://creativecommons.org/ns#"
     xmlns:rdf="http://www.w3.org/1999/02/22-rdf-syntax-ns#"
     xmlns:svg="http://www.w3.org/2000/svg"
     xmlns="http://www.w3.org/2000/svg"
     xmlns:xlink="http://www.w3.org/1999/xlink"
     width="128" height="128" version="1.1">
    <title>JSON file icon</title>
    <desc>This is shape (source) for Clarity vector icon theme for gtk</desc>
    <metadata>
        <rdf:RDF>
            <cc:Work rdf:about="">
                <dc:title>JSON file icon</dc:title>
                <dc:description>This is shape (source) for Clarity vector icon theme for gtk</dc:description>
                <dc:creator>
                    <cc:Agent>
                        <dc:title>Jakub Jankiewicz</dc:title>
                    </cc:Agent>
                </dc:creator>
                <dc:rights>
                    <cc:Agent>
                        <dc:title>Jakub Jankiewicz</dc:title>
                    </cc:Agent>
                </dc:rights>
                <dc:date>2010</dc:date>
                <dc:format>image/svg+xml</dc:format>
                <dc:type rdf:resource="http://purl.org/dc/dcmitype/StillImage" />
                <cc:license rdf:resource="http://creativecommons.org/licenses/by-sa/3.0/" />
             </cc:Work>
        </rdf:RDF>
    </metadata>
    <path d="M 28.5 11.25 C 25.598125 11.54359 23.375 14.015184 23.375 17 L 23.375 111 C 23.375 114.1838 25.90994 116.75 29.09375 116.75 L 98.90625 116.75 C 102.09005 116.75 104.625 114.1838 104.625 111 L 104.625 40.375 L 83.59375 40.375 C 79.28764 40.375 75.53125 37.233891 75.53125 33.0625 L 75.53125 11.25 L 29.09375 11.25 C 28.894762 11.25 28.693458 11.23043 28.5 11.25 z M 79.53125 11.25 L 79.53125 33.0625 C 79.53125 34.776622 81.16322 36.375 83.59375 36.375 L 104.625 36.375 L 79.53125 11.25 z M 55.582031 54.65625 L 55.582031 56.3125 C 53.232567 56.806448 51.556501 57.471534 50.582031 58.3125 C 49.700974 59.073428 49.175155 60.187875 48.988281 61.65625 C 48.921521 62.243637 48.894521 64.023169 48.894531 67 C 48.894518 70.243853 48.135067 72.481849 46.613281 73.75 C 45.478595 74.711149 43.1869 75.510953 39.769531 76.125 C 43.62742 76.552183 46.179752 77.59472 47.394531 79.25 C 48.449099 80.691712 48.988267 83.441872 48.988281 87.5 C 48.988267 90.289964 49.415173 92.240319 50.269531 93.375 C 51.230652 94.643159 53.037189 95.420509 55.707031 95.6875 L 55.707031 97.4375 C 48.778823 97.437491 45.183957 94.759241 44.957031 89.40625 L 44.957031 85.40625 C 44.957022 82.44275 44.480659 80.442936 43.519531 79.375 C 42.571737 78.307078 40.648385 77.556734 37.738281 77.15625 L 37.738281 75 C 40.795224 74.546143 42.826289 73.714784 43.800781 72.5 C 44.561673 71.565578 44.925771 69.884958 44.925781 67.46875 C 44.925771 67.135041 44.907851 66.568868 44.894531 65.78125 C 44.881181 64.980324 44.894521 64.373492 44.894531 63.90625 C 44.894522 60.5156 45.851798 58.102537 47.800781 56.6875 C 49.375964 55.539507 51.977752 54.856518 55.582031 54.65625 z M 72.417969 54.65625 C 75.528308 54.829821 77.901019 55.373542 79.542969 56.28125 C 81.745561 57.522748 82.922813 59.51801 83.042969 62.28125 C 83.042955 62.161134 83.042955 63.868755 83.042969 67.40625 C 83.042956 70.036044 83.577879 71.887486 84.699219 72.96875 C 85.700389 73.916551 87.565179 74.599538 90.261719 75 L 90.261719 77.15625 C 87.578528 77.516686 85.749538 78.17267 84.761719 79.09375 C 83.62703 80.148338 83.042956 81.995229 83.042969 84.625 C 83.042959 85.038826 83.060899 85.618653 83.074219 86.40625 C 83.100869 87.180499 83.105458 87.782475 83.105469 88.15625 C 83.105456 89.985078 82.894278 91.432066 82.480469 92.5 C 81.919793 93.915 80.899709 95.038549 79.417969 95.90625 C 77.695924 96.920773 75.323212 97.437491 72.292969 97.4375 L 72.292969 95.6875 C 75.430007 95.367112 77.420716 94.302124 78.261719 92.5 C 78.768976 91.432066 79.011709 89.131265 79.011719 85.59375 C 79.011709 82.416663 79.744155 80.115863 81.199219 78.6875 C 82.574166 77.352597 84.919871 76.498786 88.230469 76.125 C 85.280298 75.591047 83.195226 74.966313 81.980469 74.21875 C 80.72564 73.444515 79.916734 72.258159 79.542969 70.65625 C 79.262627 69.454847 79.136711 67.235058 79.136719 64.03125 C 79.136711 61.428197 78.642445 59.585858 77.667969 58.53125 C 76.786919 57.583491 75.034391 56.859844 72.417969 56.3125 L 72.417969 54.65625 z " style="fill:#aaaaaa"/>
</svg>