<?xml version="1.0" encoding="UTF-8" standalone="no"?>
<svg xmlns:dc="http://purl.org/dc/elements/1.1/"
     xmlns:cc="http://creativecommons.org/ns#"
     xmlns:rdf="http://www.w3.org/1999/02/22-rdf-syntax-ns#"
     xmlns:svg="http://www.w3.org/2000/svg"
     xmlns="http://www.w3.org/2000/svg"
     xmlns:xlink="http://www.w3.org/1999/xlink"
     width="128" height="128" version="1.1">
    <title>XSLT Icon</title>
    <desc>This is shape (source) for Clarity vector icon theme for gtk</desc>
    <metadata>
        <rdf:RDF>
            <cc:Work rdf:about="">
                <dc:title>XSLT Icon</dc:title>
                <dc:description>This is shape (source) for Clarity vector icon theme for gtk</dc:description>
                <dc:creator>
                    <cc:Agent>
                        <dc:title>Jakub Jankiewicz</dc:title>
                    </cc:Agent>
                </dc:creator>
                <dc:rights>
                    <cc:Agent>
                        <dc:title>Jakub Jankiewicz</dc:title>
                    </cc:Agent>
                </dc:rights>
                <dc:date>2010</dc:date>
                <dc:format>image/svg+xml</dc:format>
                <dc:type rdf:resource="http://purl.org/dc/dcmitype/StillImage" />
                <cc:license rdf:resource="http://creativecommons.org/licenses/by-sa/3.0/" />
             </cc:Work>
        </rdf:RDF>
    </metadata>
    <path d="m 29.09375,11.21875 c -3.183804,0 -5.71875,2.566195 -5.71875,5.75 l 0,94.0625 c 0,3.1838 2.534946,5.75 5.71875,5.75 l 69.8125,0 c 3.1838,0 5.71875,-2.5662 5.71875,-5.75 l 0,-70.6875 -21.03125,0 c -4.30611,0 -8.0625,-3.141109 -8.0625,-7.3125 l 0,-21.8125 z m 50.4375,0 0,21.8125 c 0,1.714123 1.631969,3.3125 4.0625,3.3125 l 21.03125,0 z M 56.75,50.127557 l 13.78125,0 c 1.289311,0 2.3125,0.656354 2.3125,1.46875 l 0,10.278693 7.4375,0 -16.625,14.78125 -16.625,-14.78125 7.4375,0 0,-10.278693 c 0,-0.812396 0.99197,-1.46875 2.28125,-1.46875 z m 13.3125,30.216193 3.5625,0 -6.1875,25.53125 -3.5,0 z m -17.25,3.5625 0,4.78125 -11.84375,4.53125 11.84375,4.6875 0,4.75 -16.9375,-7.34375 0,-4.09375 z m 22.34375,0.03125 16.9375,7.3125 0,4.0625 -16.9375,7.34375 0,-4.75 L 87,93.28125 75.15625,88.65625 z" style="fill:#aaaaaa"/>
</svg>