<?xml version="1.0" encoding="UTF-8" standalone="no"?>
<svg xmlns:dc="http://purl.org/dc/elements/1.1/"
     xmlns:cc="http://creativecommons.org/ns#"
     xmlns:rdf="http://www.w3.org/1999/02/22-rdf-syntax-ns#"
     xmlns:svg="http://www.w3.org/2000/svg"
     xmlns="http://www.w3.org/2000/svg"
     xmlns:xlink="http://www.w3.org/1999/xlink"
     width="128" height="128" version="1.1">
    <title>Windows File Icon</title>
    <desc>This is shape (source) for Clarity vector icon theme for gtk</desc>
    <metadata>
        <rdf:RDF>
            <cc:Work rdf:about="">
                <dc:title>Windows File Icon</dc:title>
                <dc:description>This is shape (source) for Clarity vector icon theme for gtk</dc:description>
                <dc:creator>
                    <cc:Agent>
                        <dc:title>Jakub Jankiewicz</dc:title>
                    </cc:Agent>
                </dc:creator>
                <dc:rights>
                    <cc:Agent>
                        <dc:title>Jakub Jankiewicz</dc:title>
                    </cc:Agent>
                </dc:rights>
                <dc:date>2010</dc:date>
                <dc:format>image/svg+xml</dc:format>
                <dc:type rdf:resource="http://purl.org/dc/dcmitype/StillImage" />
                <cc:license rdf:resource="http://creativecommons.org/licenses/by-sa/3.0/" />
             </cc:Work>
        </rdf:RDF>
    </metadata>
    <path d="M 29.09375 11.234375 C 25.909946 11.234375 23.375 13.800571 23.375 16.984375 L 23.375 111.01562 C 23.375 114.19944 25.909946 116.76564 29.09375 116.76562 L 98.90625 116.76562 C 102.09005 116.76562 104.625 114.19943 104.625 111.01562 L 104.625 40.359375 L 83.59375 40.359375 C 79.287642 40.359375 75.53125 37.218266 75.53125 33.046875 L 75.53125 11.234375 L 29.09375 11.234375 z M 79.53125 11.234375 L 79.53125 33.046875 C 79.53125 34.760997 81.163218 36.359375 83.59375 36.359375 L 104.625 36.359375 L 79.53125 11.234375 z M 51.0625 56.751953 C 51.909233 56.732459 52.732597 56.802512 53.53125 56.908203 C 57.478306 57.430543 60.854621 59.34992 64.25 61.251953 L 62.625 75.564453 C 59.392967 73.736531 56.01495 71.916552 51.9375 71.376953 C 49.349456 71.034462 46.509202 71.242695 43.375 72.345703 L 44.96875 58.001953 C 46.172073 57.535309 47.341581 57.241307 48.4375 57.033203 C 49.35077 56.859779 50.215767 56.771443 51.0625 56.751953 z M 86.53125 62.658203 L 84.90625 77.033203 C 84.629903 77.027036 84.357963 77.103179 84.125 77.251953 C 76.743655 81.232322 71.979414 80.202294 67.25 78.001953 C 66.603978 77.701395 65.954916 77.377623 65.3125 77.033203 L 66.875 62.689453 C 72.217876 65.455502 78.021204 67.247226 86.53125 62.658203 z M 49.09375 73.970703 C 49.636188 73.954423 50.165441 73.995663 50.6875 74.033203 C 50.985818 74.054653 51.30166 74.088303 51.59375 74.126953 C 55.381505 74.628218 58.742487 76.643249 62.34375 78.626953 L 60.71875 92.908203 C 55.124327 89.771663 49.635932 86.553503 41.46875 89.720703 L 43.03125 75.251953 C 43.259429 75.299133 43.495792 75.288383 43.71875 75.220703 C 45.036911 74.70953 46.282362 74.310781 47.4375 74.126953 C 48.015068 74.035033 48.551312 73.986973 49.09375 73.970703 z M 64.9375 80.001953 C 65.295137 80.180671 65.665338 80.362967 66.03125 80.533203 C 70.994367 82.842273 76.926206 83.978445 84.5625 80.158203 L 83 94.314453 C 74.491618 98.902583 68.68471 97.112921 63.34375 94.345703 L 64.9375 80.001953 z" style="fill:#aaaaaa"/>
</svg>