<?xml version="1.0" encoding="UTF-8" standalone="no"?>
<svg xmlns:dc="http://purl.org/dc/elements/1.1/"
     xmlns:cc="http://creativecommons.org/ns#"
     xmlns:rdf="http://www.w3.org/1999/02/22-rdf-syntax-ns#"
     xmlns:svg="http://www.w3.org/2000/svg"
     xmlns="http://www.w3.org/2000/svg"
     xmlns:xlink="http://www.w3.org/1999/xlink"
     width="128" height="128" version="1.1">
    <title>Android file icon</title>
    <desc>This is shape (source) for Clarity vector icon theme for gtk</desc>
    <metadata>
        <rdf:RDF>
            <cc:Work rdf:about="">
                <dc:title>Android file icon</dc:title>
                <dc:description>This is shape (source) for Clarity vector icon theme for gtk</dc:description>
                <dc:creator>
                    <cc:Agent>
                        <dc:title>Jakub Jankiewicz</dc:title>
                    </cc:Agent>
                </dc:creator>
                <dc:rights>
                    <cc:Agent>
                        <dc:title>Jakub Jankiewicz</dc:title>
                    </cc:Agent>
                </dc:rights>
                <dc:date>2010</dc:date>
                <dc:format>image/svg+xml</dc:format>
                <dc:type rdf:resource="http://purl.org/dc/dcmitype/StillImage" />
                <cc:license rdf:resource="http://creativecommons.org/licenses/by-sa/3.0/" />
             </cc:Work>
        </rdf:RDF>
    </metadata>
    <path d="m 28.5,11.25 c -2.901875,0.29359 -5.125,2.765184 -5.125,5.75 l 0,94 c 0,3.1838 2.53494,5.75 5.71875,5.75 l 69.8125,0 c 3.1838,0 5.71875,-2.5662 5.71875,-5.75 l 0,-70.625 -21.03125,0 c -4.30611,0 -8.0625,-3.141109 -8.0625,-7.3125 l 0,-21.8125 -46.4375,0 c -0.198988,0 -0.400292,-0.01957 -0.59375,0 z m 51.03125,0 0,21.8125 c 0,1.714122 1.63197,3.3125 4.0625,3.3125 l 21.03125,0 z M 54.027344,43.685381 c 0.439538,-0.0473 0.882858,0.167899 1.111328,0.580078 l 2.582031,4.658203 c 1.981901,-0.794446 4.1186,-1.207164 6.279297,-1.21289 2.162593,0.0017 4.302027,0.411072 6.287109,1.203125 l 2.576172,-4.648438 c 0.228474,-0.412177 0.67179,-0.627378 1.111328,-0.580078 0.146513,0.01577 0.292296,0.06056 0.429688,0.136719 0.549569,0.304632 0.747991,0.9934 0.443359,1.542969 l -2.519531,4.544921 c 4.575707,2.604106 7.413459,7.168323 7.541016,12.128907 l -31.730469,0 c 0.122603,-4.961616 2.956801,-9.528967 7.53125,-12.136719 l -2.515625,-4.537109 c -0.304631,-0.549569 -0.10621,-1.238337 0.443359,-1.542969 0.137393,-0.07616 0.283175,-0.120949 0.429688,-0.136719 z m 2.644531,10.201172 c -0.724974,0 -1.326172,0.601198 -1.326172,1.326172 0,0.724974 0.601198,1.326172 1.326172,1.326172 0.724974,0 1.326172,-0.6012 1.326172,-1.326172 0,-0.724976 -0.601198,-1.326172 -1.326172,-1.326172 z m 14.658203,0 c -0.724974,0 -1.326172,0.601198 -1.326172,1.326172 0,0.724974 0.601198,1.326172 1.326172,1.326172 0.724974,0 1.326172,-0.6012 1.326172,-1.326172 0,-0.724976 -0.601198,-1.326172 -1.326172,-1.326172 z m -28.636719,9.607422 c 2.094716,0 3.78125,1.686534 3.78125,3.78125 l 0,13.392578 c 0,2.094715 -1.686534,3.78125 -3.78125,3.78125 -2.094714,0 -3.78125,-1.686535 -3.78125,-3.78125 l 0,-13.392578 c 0,-2.094716 1.686536,-3.78125 3.78125,-3.78125 z m 42.613282,0 c 2.094715,0 3.78125,1.686534 3.78125,3.78125 l 0,13.392578 c 0,2.094715 -1.686535,3.78125 -3.78125,3.78125 -2.094715,0 -3.78125,-1.686535 -3.78125,-3.78125 l 0,-13.392578 c 0,-2.094716 1.686535,-3.78125 3.78125,-3.78125 z m -37.185547,0.654297 31.757812,0 0,22.474609 c 0,2.126731 -1.711159,3.837891 -3.83789,3.837891 l -0.837891,0 c 0.05022,0.260178 0.08008,0.527448 0.08008,0.802734 l 0,14.832034 c 0,2.32007 -1.867429,4.1875 -4.1875,4.1875 -2.320071,0 -4.189453,-1.86743 -4.189453,-4.1875 l 0,-14.832034 c 0,-0.275286 0.02981,-0.542556 0.08008,-0.802734 l -5.972656,0 c 0.05027,0.260178 0.08008,0.527448 0.08008,0.802734 l 0,14.832034 c 0,2.32007 -1.869382,4.1875 -4.189453,4.1875 -2.320071,0 -4.1875,-1.86743 -4.1875,-4.1875 l 0,-14.832034 c 0,-0.275286 0.02986,-0.542556 0.08008,-0.802734 l -0.835937,0 c -2.126731,0 -3.839844,-1.71116 -3.839844,-3.837891 z" style="fill:#aaaaaa"/>
</svg>