<?xml version="1.0" encoding="UTF-8" standalone="no"?>
<svg xmlns:dc="http://purl.org/dc/elements/1.1/"
     xmlns:cc="http://creativecommons.org/ns#"
     xmlns:rdf="http://www.w3.org/1999/02/22-rdf-syntax-ns#"
     xmlns:svg="http://www.w3.org/2000/svg"
     xmlns="http://www.w3.org/2000/svg"
     xmlns:xlink="http://www.w3.org/1999/xlink"
     width="128" height="128" version="1.1">
    <title>Bookmark File Icon</title>
    <desc>This is shape (source) for Clarity vector icon theme for gtk</desc>
    <metadata>
        <rdf:RDF>
            <cc:Work rdf:about="">
                <dc:title>Bookmark File Icon</dc:title>
                <dc:description>This is shape (source) for Clarity vector icon theme for gtk</dc:description>
                <dc:creator>
                    <cc:Agent>
                        <dc:title>Jakub Jankiewicz</dc:title>
                    </cc:Agent>
                </dc:creator>
                <dc:rights>
                    <cc:Agent>
                        <dc:title>Jakub Jankiewicz</dc:title>
                    </cc:Agent>
                </dc:rights>
                <dc:date>2010</dc:date>
                <dc:format>image/svg+xml</dc:format>
                <dc:type rdf:resource="http://purl.org/dc/dcmitype/StillImage" />
                <cc:license rdf:resource="http://creativecommons.org/licenses/by-sa/3.0/" />
             </cc:Work>
        </rdf:RDF>
    </metadata>
    <path d="m 28.5,11.25 c -2.901875,0.29359 -5.125,2.765184 -5.125,5.75 l 0,94 c 0,3.1838 2.53494,5.75 5.71875,5.75 l 69.8125,0 c 3.1838,0 5.71875,-2.5662 5.71875,-5.75 l 0,-70.625 -21.03125,0 c -4.30611,0 -8.0625,-3.141109 -8.0625,-7.3125 l 0,-21.8125 -19.526639,0 0,73.204406 -10.03125,-16.778689 -10.28125,16.778689 0,-73.204406 -6.598361,0 c -0.198988,0 -0.400292,-0.01957 -0.59375,0 z m 51.03125,0 0,21.8125 c 0,1.714122 1.63197,3.3125 4.0625,3.3125 l 21.03125,0 z" style="fill:#aaaaaa"/>
</svg>