<?xml version="1.0" encoding="UTF-8" standalone="no"?>
<svg xmlns:dc="http://purl.org/dc/elements/1.1/"
     xmlns:cc="http://creativecommons.org/ns#"
     xmlns:rdf="http://www.w3.org/1999/02/22-rdf-syntax-ns#"
     xmlns:svg="http://www.w3.org/2000/svg"
     xmlns="http://www.w3.org/2000/svg"
     xmlns:xlink="http://www.w3.org/1999/xlink"
     width="128" height="128" version="1.1">
    <title>PHP File Icon</title>
    <desc>This is shape (source) for Clarity vector icon theme for gtk</desc>
    <metadata>
        <rdf:RDF>
            <cc:Work rdf:about="">
                <dc:title>PHP File Icon</dc:title>
                <dc:description>This is shape (source) for Clarity vector icon theme for gtk</dc:description>
                <dc:creator>
                    <cc:Agent>
                        <dc:title>Jakub Jankiewicz</dc:title>
                    </cc:Agent>
                </dc:creator>
                <dc:rights>
                    <cc:Agent>
                        <dc:title>Jakub Jankiewicz</dc:title>
                    </cc:Agent>
                </dc:rights>
                <dc:date>2010</dc:date>
                <dc:format>image/svg+xml</dc:format>
                <dc:type rdf:resource="http://purl.org/dc/dcmitype/StillImage" />
                <cc:license rdf:resource="http://creativecommons.org/licenses/by-sa/3.0/" />
             </cc:Work>
        </rdf:RDF>
    </metadata>
    <path d="m 29.09375,11.234375 c -3.183804,0 -5.71875,2.566196 -5.71875,5.75 l 0,94.031255 c 0,3.1838 2.534946,5.75 5.71875,5.75 l 69.8125,0 c 3.1838,0 5.71875,-2.5662 5.71875,-5.75 l 0,-70.656255 -21.03125,0 c -4.306108,0 -8.0625,-3.141109 -8.0625,-7.3125 l 0,-21.8125 -46.4375,0 z m 50.4375,0 0,21.8125 c 0,1.714122 1.631968,3.3125 4.0625,3.3125 l 21.03125,0 -25.09375,-25.125 z m -1.96875,52 c 3.668569,3.4e-5 6.582178,0.981033 8.75,2.90625 2.167776,1.91012 3.249974,4.14074 3.25,6.6875 -2.6e-5,1.409852 -0.384075,2.741787 -1.1875,4 -0.788316,1.258253 -2.486348,2.957216 -5.09375,5.125 -1.34921,1.121813 -2.19776,2.036588 -2.53125,2.71875 -0.318366,0.682187 -0.467836,1.897764 -0.4375,3.65625 l -5.78125,0 c -0.01517,-0.83376 -0.03126,-1.349326 -0.03125,-1.53125 -1.2e-5,-1.879759 0.315951,-3.412231 0.9375,-4.625 0.621524,-1.21274 1.854124,-2.577788 3.71875,-4.09375 1.864595,-1.515925 2.979904,-2.498786 3.34375,-2.96875 0.56088,-0.742791 0.84373,-1.574319 0.84375,-2.46875 -2e-5,-1.243049 -0.499496,-2.308226 -1.5,-3.1875 -0.985382,-0.894379 -2.317317,-1.343722 -4,-1.34375 -1.622074,2.8e-5 -2.971031,0.481552 -4.0625,1.40625 -1.09149,0.924753 -1.840704,2.323844 -2.25,4.21875 l -5.875,-0.71875 c 0.166751,-2.713515 1.300013,-5.04254 3.4375,-6.9375 2.152633,-1.894898 4.982066,-2.843716 8.46875,-2.84375 z m -16.5,4.5625 0,6.46875 -15.9375,6.09375 15.9375,6.34375 0,6.4375 -22.84375,-9.9375 0,-5.53125 22.84375,-9.875 z m 13.46875,22.75 6.375,0 0,6.375 -6.375,0 0,-6.375 z" style="fill:#aaaaaa"/>
</svg>