<?xml version="1.0" encoding="UTF-8" standalone="no"?>
<svg xmlns:dc="http://purl.org/dc/elements/1.1/"
     xmlns:cc="http://creativecommons.org/ns#"
     xmlns:rdf="http://www.w3.org/1999/02/22-rdf-syntax-ns#"
     xmlns:svg="http://www.w3.org/2000/svg"
     xmlns="http://www.w3.org/2000/svg"
     xmlns:xlink="http://www.w3.org/1999/xlink"
     width="128" height="128" version="1.1">
    <title>Flash File Icon</title>
    <desc>This is shape (source) for Clarity vector icon theme for gtk</desc>
    <metadata>
        <rdf:RDF>
            <cc:Work rdf:about="">
                <dc:title>Flash File Icon</dc:title>
                <dc:description>This is shape (source) for Clarity vector icon theme for gtk</dc:description>
                <dc:creator>
                    <cc:Agent>
                        <dc:title>Jakub Jankiewicz</dc:title>
                    </cc:Agent>
                </dc:creator>
                <dc:rights>
                    <cc:Agent>
                        <dc:title>Jakub Jankiewicz</dc:title>
                    </cc:Agent>
                </dc:rights>
                <dc:date>2010</dc:date>
                <dc:format>image/svg+xml</dc:format>
                <dc:type rdf:resource="http://purl.org/dc/dcmitype/StillImage" />
                <cc:license rdf:resource="http://creativecommons.org/licenses/by-sa/3.0/" />
             </cc:Work>
        </rdf:RDF>
    </metadata>
    <path d="m 29.09375,11.234375 c -3.183804,0 -5.71875,2.566196 -5.71875,5.75 l 0,94.031255 c 0,3.1838 2.534946,5.75 5.71875,5.75 l 69.8125,0 c 3.1838,0 5.71875,-2.5662 5.71875,-5.75 l 0,-70.656255 -21.03125,0 c -4.306108,0 -8.0625,-3.141109 -8.0625,-7.3125 l 0,-21.8125 -46.4375,0 z m 50.4375,0 0,21.8125 c 0,1.714122 1.631968,3.3125 4.0625,3.3125 l 21.03125,0 -25.09375,-25.125 z m 3.90625,39.1875 0,8.59375 c -2.070001,0.02571 -4.077151,0.359597 -5.6875,1.1875 -1.45211,0.683939 -2.784618,1.814242 -3.96875,3.1875 -1.406164,1.594302 -2.554797,3.563649 -3.59375,5.71875 l 11.65625,0 0,8.5625 -15.34375,0 c -1.586716,3.845094 -3.426456,7.924328 -6.375,11.71875 -1.670912,2.12655 -3.822432,4.013135 -6.4375,5.40625 -2.935876,1.484132 -6.088883,2.15071 -9.125,2.125 l 0,-8.59375 c 1.898141,-0.02571 3.713287,-0.334785 5.15625,-1.125 1.343901,-0.663155 2.571483,-1.799307 3.6875,-3.15625 2.580626,-3.094402 4.222031,-7.447592 6.1875,-12.03125 1.835641,-4.56303 3.911647,-9.625048 7.625,-14.15625 1.793216,-2.1521 4.058836,-3.996441 6.75,-5.34375 3.060706,-1.462095 6.336542,-2.11946 9.46875,-2.09375 z" style="fill:#aaaaaa"/>
</svg>