<?xml version="1.0" encoding="UTF-8" standalone="no"?>
<svg xmlns:dc="http://purl.org/dc/elements/1.1/"
     xmlns:cc="http://creativecommons.org/ns#"
     xmlns:rdf="http://www.w3.org/1999/02/22-rdf-syntax-ns#"
     xmlns:svg="http://www.w3.org/2000/svg"
     xmlns="http://www.w3.org/2000/svg"
     xmlns:xlink="http://www.w3.org/1999/xlink"
     width="128" height="128" version="1.1">
    <title>Chemical File Icon</title>
    <desc>This is shape (source) for Clarity vector icon theme for gtk</desc>
    <metadata>
        <rdf:RDF>
            <cc:Work rdf:about="">
                <dc:title>Chemical File Icon</dc:title>
                <dc:description>This is shape (source) for Clarity vector icon theme for gtk</dc:description>
                <dc:creator>
                    <cc:Agent>
                        <dc:title>Jakub Jankiewicz</dc:title>
                    </cc:Agent>
                </dc:creator>
                <dc:rights>
                    <cc:Agent>
                        <dc:title>Jakub Jankiewicz</dc:title>
                    </cc:Agent>
                </dc:rights>
                <dc:date>2010</dc:date>
                <dc:format>image/svg+xml</dc:format>
                <dc:type rdf:resource="http://purl.org/dc/dcmitype/StillImage" />
                <cc:license rdf:resource="http://creativecommons.org/licenses/by-sa/3.0/" />
             </cc:Work>
        </rdf:RDF>
    </metadata>
    <path d="M 28.5 11.25 C 25.598124 11.54359 23.375 14.015184 23.375 17 L 23.375 111 C 23.375 114.1838 25.90994 116.75 29.09375 116.75 L 98.90625 116.75 C 102.09005 116.75 104.625 114.1838 104.625 111 L 104.625 40.375 L 83.59375 40.375 C 79.287641 40.375 75.53125 37.233891 75.53125 33.0625 L 75.53125 11.25 L 29.09375 11.25 C 28.894762 11.25 28.693458 11.230427 28.5 11.25 z M 79.53125 11.25 L 79.53125 33.0625 C 79.53125 34.776622 81.16322 36.375 83.59375 36.375 L 104.625 36.375 L 79.53125 11.25 z M 63.96875 46.5625 L 64.90625 46.5625 C 68.835467 46.5625 72.09375 49.72813 72.09375 53.75 C 72.09375 56.413356 70.619001 58.641919 68.5 59.875 C 68.49621 61.065936 68.44145 71.52751 68.53125 76.28125 C 72.272981 77.820577 74.89474 81.424807 74.96875 85.6875 L 85.875 88.21875 C 86.800839 87.553798 87.951421 87.05107 89.28125 87.125 C 89.29619 87.125 89.29767 87.124905 89.3125 87.125 C 93.069893 87.148792 96.125 90.16196 96.125 93.875 C 96.125 97.602749 93.058949 100.65625 89.28125 100.65625 L 89.21875 100.65625 C 87.753753 100.47426 86.41162 100.01414 85.28125 99.25 C 84.210435 98.526118 83.326324 97.502327 82.875 96.09375 L 71.875 93.21875 C 70.810975 94.134058 69.733627 95.020718 68.40625 95.53125 C 70.852353 96.869343 72.625 99.321621 72.625 102.34375 C 72.625 106.78011 69.019737 110.25 64.6875 110.25 C 60.355262 110.25 56.6875 106.78202 56.6875 102.34375 L 56.6875 102.3125 C 57.048394 99.373823 58.482167 97.021926 60.84375 95.5625 C 59.404805 95.277927 58.310231 94.106362 57.1875 93.03125 L 45.375 96.03125 C 45.35603 96.15164 45.40819 96.298148 45.34375 96.40625 C 44.106001 98.579455 41.707403 99.96875 39.03125 99.96875 C 35.084227 99.96875 31.875 96.796715 31.875 92.90625 C 31.875 89.015544 35.089258 85.90625 39.03125 85.90625 C 40.725531 86.033134 42.537188 86.543149 43.78125 87.875 L 54.25 85.53125 C 54.387902 81.325638 57.012631 77.730578 60.71875 76.21875 L 60.46875 59.40625 C 58.776471 58.107307 57.6875 56.075815 57.6875 53.75 C 58.290405 49.831387 60.584021 47.453373 63.96875 46.5625 z M 64.34375 48.78125 C 61.667899 49.044748 59.6875 51.229564 59.6875 53.75 C 59.6875 56.438467 61.96138 58.71875 64.90625 58.71875 C 67.851121 58.71875 70.09375 56.438467 70.09375 53.75 C 70.09375 51.061535 67.851121 48.78125 64.90625 48.78125 C 64.722196 48.78125 64.52214 48.763683 64.34375 48.78125 z M 62.25 60.28125 L 62.5 76.84375 C 64.236371 77.481396 65.328276 77.500428 66.8125 76.875 C 66.71215 72.580279 66.71005 62.713615 66.71875 60.625 C 66.121561 60.778961 65.542804 60.9375 64.90625 60.9375 C 63.957582 60.9375 63.088077 60.614068 62.25 60.28125 z M 54.375 87.28125 L 44.03125 89.625 C 43.784988 90.666696 43.61789 91.575847 43.71875 92.25 C 43.825913 92.966272 44.260558 93.643434 45 94.40625 L 55.9375 91.53125 C 55.117321 90.274303 54.584955 88.836478 54.375 87.28125 z M 74.8125 87.53125 C 74.560126 89.069873 73.948202 90.454913 73.09375 91.6875 L 84.65625 94.6875 C 85.355663 93.952033 85.834338 93.314427 85.9375 92.625 C 86.038374 91.950754 85.80884 91.010615 85.5625 89.96875 L 74.8125 87.53125 z M 38.5 87.84375 C 35.830877 88.101932 33.78125 90.254595 33.78125 92.90625 C 33.78125 95.734403 36.108307 98.03125 39.03125 98.03125 C 40.790476 98.03125 42.536917 96.984477 43.5 95.6875 C 42.583329 94.695496 41.894284 93.642013 41.71875 92.46875 L 41.71875 92.4375 C 41.728237 91.21989 41.794321 89.946449 42.15625 88.6875 C 41.327166 88.17576 40.124264 87.84375 39.03125 87.84375 C 38.848202 87.84375 38.677942 87.826538 38.5 87.84375 z M 64.59375 88.75 C 63.380895 88.809116 62.117531 89.266102 61.1875 90.25 L 61.15625 90.3125 L 61.15625 95.3125 C 63.58861 94.402162 66.033965 93.924781 68.3125 95.4375 L 68.25 90.4375 L 68.25 90.40625 C 67.689036 89.40057 66.460088 88.81722 65.09375 88.75 C 64.923119 88.741604 64.767015 88.741555 64.59375 88.75 z M 89.28125 89.125 C 88.772256 89.125 88.063537 89.308435 87.53125 89.46875 C 87.926112 91.634435 88.028123 93.483704 86.78125 95.40625 C 86.43714 95.987594 85.875256 96.37797 85.28125 96.75 C 86.192839 97.792503 87.775043 98.59375 89.28125 98.59375 C 91.980656 98.59375 94.09375 96.481375 94.09375 93.875 C 94.09375 91.268619 91.980656 89.125 89.28125 89.125 z M 64.6875 96.78125 C 61.396265 96.78125 58.84375 99.335278 58.84375 102.34375 C 58.84375 105.35221 61.398541 107.90625 64.6875 107.90625 C 67.976457 107.90625 70.5 105.35221 70.5 102.34375 C 70.5 99.335278 67.978733 96.78125 64.6875 96.78125 z " style="fill:#aaaaaa"/>
</svg>