<?xml version="1.0" encoding="UTF-8" standalone="no"?>
<svg xmlns:dc="http://purl.org/dc/elements/1.1/"
     xmlns:cc="http://creativecommons.org/ns#"
     xmlns:rdf="http://www.w3.org/1999/02/22-rdf-syntax-ns#"
     xmlns:svg="http://www.w3.org/2000/svg"
     xmlns="http://www.w3.org/2000/svg"
     xmlns:xlink="http://www.w3.org/1999/xlink"
     width="128" height="128" version="1.1">
    <title>True Type Font File Icon</title>
    <desc>This is shape (source) for Clarity vector icon theme for gtk</desc>
    <metadata>
        <rdf:RDF>
            <cc:Work rdf:about="">
                <dc:title>True Type Font File Icon</dc:title>
                <dc:description>This is shape (source) for Clarity vector icon theme for gtk</dc:description>
                <dc:creator>
                    <cc:Agent>
                        <dc:title>Jakub Jankiewicz</dc:title>
                    </cc:Agent>
                </dc:creator>
                <dc:rights>
                    <cc:Agent>
                        <dc:title>Jakub Jankiewicz</dc:title>
                    </cc:Agent>
                </dc:rights>
                <dc:date>2010</dc:date>
                <dc:format>image/svg+xml</dc:format>
                <dc:type rdf:resource="http://purl.org/dc/dcmitype/StillImage" />
                <cc:license rdf:resource="http://creativecommons.org/licenses/by-sa/3.0/" />
             </cc:Work>
        </rdf:RDF>
    </metadata>
    <path d="M 29.09375 11.21875 C 25.909946 11.21875 23.375 13.784946 23.375 16.96875 L 23.375 111.03125 C 23.375 114.21505 25.909946 116.78125 29.09375 116.78125 L 98.90625 116.78125 C 102.09005 116.78125 104.625 114.21505 104.625 111.03125 L 104.625 40.34375 L 83.59375 40.34375 C 79.287642 40.34375 75.53125 37.202641 75.53125 33.03125 L 75.53125 11.21875 L 29.09375 11.21875 z M 79.53125 11.21875 L 79.53125 33.03125 C 79.53125 34.745372 81.163218 36.34375 83.59375 36.34375 L 104.625 36.34375 L 79.53125 11.21875 z M 43.0625 47.875 L 84.96875 47.875 L 85.53125 59.9375 L 84.09375 59.9375 C 83.816035 57.81714 83.448321 56.283786 82.96875 55.375 C 82.186179 53.910959 81.125088 52.837854 79.8125 52.15625 C 78.525075 51.449497 76.839114 51.093798 74.71875 51.09375 L 67.46875 51.09375 L 67.46875 90.34375 C 67.468723 93.499114 67.818415 95.467475 68.5 96.25 C 69.4592 97.310202 70.943282 97.843751 72.9375 97.84375 L 74.71875 97.84375 L 74.71875 99.25 L 52.9375 99.25 L 52.9375 97.84375 L 54.75 97.84375 C 56.92087 97.843751 58.466238 97.187631 59.375 95.875 C 59.930323 95.067232 60.21873 93.221443 60.21875 90.34375 L 60.21875 51.09375 L 54.03125 51.09375 C 51.633166 51.093798 49.947205 51.271648 48.9375 51.625 C 47.624863 52.104662 46.49648 53.043181 45.5625 54.40625 C 44.628509 55.769408 44.082946 57.615198 43.90625 59.9375 L 42.46875 59.9375 L 43.0625 47.875 z " style="fill:#aaaaaa"/>
</svg>