<?xml version="1.0" encoding="UTF-8" standalone="no"?>
<svg xmlns:dc="http://purl.org/dc/elements/1.1/"
     xmlns:cc="http://creativecommons.org/ns#"
     xmlns:rdf="http://www.w3.org/1999/02/22-rdf-syntax-ns#"
     xmlns:svg="http://www.w3.org/2000/svg"
     xmlns="http://www.w3.org/2000/svg"
     xmlns:xlink="http://www.w3.org/1999/xlink"
     width="128" height="128" version="1.1">
    <title>GIMP File Icon</title>
    <desc>This is shape (source) for Clarity vector icon theme for gtk</desc>
    <metadata>
        <rdf:RDF>
            <cc:Work rdf:about="">
                <dc:title>GIMP File Icon</dc:title>
                <dc:description>This is shape (source) for Clarity vector icon theme for gtk</dc:description>
                <dc:creator>
                    <cc:Agent>
                        <dc:title>Jakub Jankiewicz</dc:title>
                    </cc:Agent>
                </dc:creator>
                <dc:rights>
                    <cc:Agent>
                        <dc:title>Jakub Jankiewicz</dc:title>
                    </cc:Agent>
                </dc:rights>
                <dc:date>2010</dc:date>
                <dc:format>image/svg+xml</dc:format>
                <dc:type rdf:resource="http://purl.org/dc/dcmitype/StillImage" />
                <cc:license rdf:resource="http://creativecommons.org/licenses/by-sa/3.0/" />
             </cc:Work>
        </rdf:RDF>
    </metadata>
    <path d="m 29.09375,11.234375 c -3.1838,0 -5.71875,2.5662 -5.71875,5.75 l 0,94.031255 c 0,3.1838 2.53495,5.75 5.71875,5.75 l 69.8125,0 c 3.18379,0 5.71875,-2.5662 5.71875,-5.75 l 0,-70.656255 -21.03125,0 c -4.30611,0 -8.0625,-3.14111 -8.0625,-7.3125 l 0,-21.8125 -46.4375,0 z m 50.4375,0 0,21.8125 c 0,1.71413 1.63197,3.3125 4.0625,3.3125 l 21.03125,0 -25.09375,-25.125 z m 12.375,44.34375 c 0.40462,0 1.35235,10.08638 -1.40625,15.28125 -2.52382,4.75272 -7.5625,8.5625 -7.5625,8.5625 0,0 -0.73639,2.80156 -2,5.75 -1.26362,2.94844 -4.04107,7.15982 -10.21875,9.40625 -6.17768,2.24644 -17.14932,1.29399 -22.625,-0.53125 -3.1398,-1.04659 -4.43676,-2.3737 -4.96875,-3.3125 -0.61932,0.32065 -1.26517,0.46875 -1.96875,0.46875 -3.0629,0 -5.5625,-3.29653 -5.5625,-7.40625 0,-4.10971 2.4996,-7.4375 5.5625,-7.4375 1.7187,0 3.264,1.00936 4.28125,2.65625 1.83117,-2.87061 4.64683,-6.10698 6.71875,-7.875 -4.53574,-3.39891 -4.45059,-8.17082 -5.46875,-12.625 8.60651,8.62516 13.44501,13.01979 21.8125,12.6875 10.00982,-0.3975 17.41535,-3.24695 23.40625,-15.625 z" style="fill:#aaaaaa"/>
</svg>