<?xml version="1.0" encoding="UTF-8" standalone="no"?>
<svg xmlns:dc="http://purl.org/dc/elements/1.1/"
     xmlns:cc="http://creativecommons.org/ns#"
     xmlns:rdf="http://www.w3.org/1999/02/22-rdf-syntax-ns#"
     xmlns:svg="http://www.w3.org/2000/svg"
     xmlns="http://www.w3.org/2000/svg"
     xmlns:xlink="http://www.w3.org/1999/xlink"
     width="128" height="128" version="1.1">
    <title>JAVA File Icon</title>
    <desc>This is shape (source) for Clarity vector icon theme for gtk</desc>
    <metadata>
        <rdf:RDF>
            <cc:Work rdf:about="">
                <dc:title>JAVA File Icon</dc:title>
                <dc:description>This is shape (source) for Clarity vector icon theme for gtk</dc:description>
                <dc:creator>
                    <cc:Agent>
                        <dc:title>Jakub Jankiewicz</dc:title>
                    </cc:Agent>
                </dc:creator>
                <dc:rights>
                    <cc:Agent>
                        <dc:title>Jakub Jankiewicz</dc:title>
                    </cc:Agent>
                </dc:rights>
                <dc:date>2010</dc:date>
                <dc:format>image/svg+xml</dc:format>
                <dc:type rdf:resource="http://purl.org/dc/dcmitype/StillImage" />
                <cc:license rdf:resource="http://creativecommons.org/licenses/by-sa/3.0/" />
             </cc:Work>
        </rdf:RDF>
    </metadata>
    <path d="M 29.09375 11.21875 C 25.909946 11.21875 23.375 13.784946 23.375 16.96875 L 23.375 111.03125 C 23.375 114.21505 25.909946 116.78125 29.09375 116.78125 L 98.90625 116.78125 C 102.09005 116.78125 104.625 114.21505 104.625 111.03125 L 104.625 40.34375 L 83.59375 40.34375 C 79.28765 40.34375 75.53125 37.202641 75.53125 33.03125 L 75.53125 11.21875 L 29.09375 11.21875 z M 79.53125 11.21875 L 79.53125 33.03125 C 79.53125 34.745372 81.16322 36.34375 83.59375 36.34375 L 104.625 36.34375 L 79.53125 11.21875 z M 69.75 43.84375 A 0.50014383 0.50014383 0 0 1 69.78125 43.84375 A 0.50014383 0.50014383 0 0 1 69.84375 43.84375 A 0.50014383 0.50014383 0 0 1 70.28125 44 C 70.28125 44 71.986129 45.680463 72.03125 48.59375 C 72.076371 51.507037 70.492982 55.600993 64.40625 60.40625 C 62.038143 62.276423 60.768516 63.899386 60.1875 65.34375 C 59.606484 66.788114 59.692601 68.065574 60.125 69.3125 C 60.989798 71.806352 63.371355 74.128427 64.53125 76.75 A 0.50014383 0.50014383 0 0 1 63.71875 77.3125 C 60.894968 74.764768 58.439491 72.364261 57 70 C 55.560509 67.635739 55.192717 65.18184 56.6875 62.9375 C 58.818715 59.737283 62.665515 57.492763 65.625 54.8125 C 67.104743 53.472368 68.365965 52.031865 69.09375 50.375 C 69.821535 48.718135 70.036424 46.827445 69.4375 44.46875 A 0.50014383 0.50014383 0 0 1 69.75 43.84375 z M 77.40625 55.90625 A 0.50895305 0.50895305 0 0 1 77.625 56.90625 C 71.17754 60.64555 68.640428 63.077258 68.09375 64.84375 C 67.820411 65.726996 67.978428 66.471663 68.40625 67.34375 C 68.834072 68.215837 69.557524 69.176237 70.34375 70.28125 C 71.246772 71.552334 71.457623 72.8319 71.21875 73.96875 C 70.979877 75.1056 70.333273 76.072442 69.59375 76.875 C 68.114703 78.480116 66.21875 79.4375 66.21875 79.4375 A 0.50014383 0.50014383 0 0 1 65.6875 78.625 C 65.6875 78.625 66.510521 77.938038 67 76.90625 C 67.489479 75.874462 67.69085 74.577462 66.375 73.0625 C 63.878025 70.185365 63.256906 67.569161 63.84375 65.34375 C 64.430594 63.118339 66.136161 61.372797 68.125 60 C 72.102678 57.254406 77.25 55.96875 77.25 55.96875 A 0.5048592 0.5048592 0 0 1 77.3125 55.9375 A 0.50895305 0.50895305 0 0 1 77.40625 55.90625 z M 80.65625 75.96875 C 83.903741 75.801875 86.520246 78.070506 86.375 80.90625 C 86.302377 82.324122 85.547693 83.80337 83.96875 85.15625 C 82.389807 86.50913 79.986511 87.724881 76.5625 88.625 L 76.4375 88.15625 L 76.125 87.78125 C 76.134165 87.77258 76.1428 87.733555 76.15625 87.71875 C 76.183151 87.689139 76.2039 87.643654 76.1875 87.6875 A 0.50014383 0.50014383 0 0 1 76.4375 87.4375 C 79.1803 86.012235 80.880886 84.619501 81.84375 83.375 C 82.806614 82.130499 83.022897 81.044374 82.875 80.1875 C 82.579206 78.473751 80.633519 77.435527 79.125 77.75 C 78.273171 77.927301 77.96875 78.0625 77.96875 78.0625 A 0.50014383 0.50014383 0 0 1 77.34375 77.34375 C 77.34375 77.34375 77.751253 76.663012 78.5625 76.375 C 79.284174 76.121283 79.994269 76.002757 80.65625 75.96875 z M 56.5625 76.53125 C 57.049355 76.518482 57.3125 76.53125 57.3125 76.53125 A 0.50219246 0.50219246 0 0 1 57.40625 77.53125 C 57.40625 77.53125 54.69333 78.176273 52.9375 78.90625 C 52.498542 79.088744 52.118652 79.273674 51.875 79.4375 C 51.684951 79.565285 51.701565 79.599331 51.6875 79.59375 C 51.725847 79.619016 51.731001 79.621375 51.8125 79.65625 C 52.106801 79.782188 52.683013 79.917975 53.53125 80.03125 C 56.37844 80.412442 62.276161 80.331023 67.71875 79.875 C 72.156733 79.500642 76.59375 78.71875 76.59375 78.71875 A 0.50437539 0.50437539 0 1 1 76.875 79.6875 C 76.875 79.6875 75.320732 80.331386 74.25 81.0625 A 0.50014383 0.50014383 0 0 1 74.09375 81.125 C 68.517401 82.591586 60.4788 82.971109 54.53125 82.625 C 51.557475 82.451945 49.135935 82.134486 47.71875 81.59375 C 47.364454 81.458566 47.052622 81.317646 46.8125 81.125 C 46.572378 80.932354 46.362073 80.656926 46.34375 80.3125 C 46.325427 79.968074 46.511802 79.667501 46.75 79.4375 C 46.988198 79.207499 47.308829 79.010787 47.71875 78.8125 C 51.667701 76.903633 55.089147 76.570013 56.5625 76.53125 z M 54.71875 83.25 A 0.50014383 0.50014383 0 0 1 54.78125 83.25 A 0.50014383 0.50014383 0 0 1 55.09375 84.1875 C 55.09375 84.1875 54.961119 84.284981 54.8125 84.4375 C 54.663881 84.590019 54.502723 84.788528 54.46875 84.90625 C 54.434777 85.023972 54.384852 84.990874 54.5625 85.125 C 54.740148 85.259126 55.260663 85.466634 56.1875 85.5625 C 61.192527 86.078843 65.041476 86.128353 71.875 84.8125 A 0.50014383 0.50014383 0 0 1 72.3125 84.9375 C 72.3125 84.9375 73.211374 85.825106 74.59375 86.3125 A 0.50014383 0.50014383 0 0 1 74.5625 87.25 C 67.445533 89.331102 59.991096 89.429667 55.46875 88.5625 C 54.338164 88.345708 53.386554 88.088155 52.65625 87.75 C 51.925946 87.411845 51.372767 87.008602 51.15625 86.40625 C 51.047991 86.105074 51.057968 85.770689 51.1875 85.46875 C 51.317032 85.166811 51.548115 84.897931 51.84375 84.65625 C 52.435021 84.172888 53.335591 83.740457 54.625 83.3125 A 0.50014383 0.50014383 0 0 1 54.6875 83.28125 A 0.50014383 0.50014383 0 0 1 54.71875 83.25 z M 56.15625 89.75 A 0.50014383 0.50014383 0 0 1 56.21875 89.75 A 0.50014383 0.50014383 0 0 1 56.4375 90.71875 C 56.4375 90.71875 56.331921 90.778316 56.21875 90.875 C 56.122887 90.956897 56.07995 91.038889 56.0625 91.0625 C 56.075856 91.077097 56.074217 91.079626 56.15625 91.125 C 56.384119 91.25104 56.936568 91.42336 57.875 91.53125 C 62.55912 92.065628 64.83717 92.008392 70 91.03125 A 0.50014383 0.50014383 0 0 1 70.34375 91.09375 C 70.34375 91.09375 71.703008 91.933161 73.5625 92.65625 A 0.50014383 0.50014383 0 0 1 73.5625 93.59375 C 67.619721 96.140729 60.982059 96.045964 56.875 95 C 55.848235 94.738509 54.986812 94.439325 54.3125 94.0625 C 53.638188 93.685675 53.112551 93.238526 52.90625 92.65625 C 52.699949 92.073974 52.955339 91.427571 53.5 90.96875 C 54.044661 90.509929 54.882623 90.142179 56.0625 89.8125 A 0.50014383 0.50014383 0 0 1 56.09375 89.78125 A 0.50014383 0.50014383 0 0 1 56.15625 89.75 z M 49.84375 94.09375 C 50.658926 94.068637 51.343218 94.156633 51.875 94.53125 A 0.50014383 0.50014383 0 0 1 51.5625 95.4375 C 51.5625 95.4375 50.907169 95.384986 49.65625 95.65625 C 49.084391 95.779057 47.802574 96.167592 47 96.59375 C 46.642096 96.783793 46.44864 96.95842 46.40625 97 C 46.44173 97.032336 46.478792 97.07905 46.65625 97.15625 C 48.023117 97.751215 50.446217 98.228998 53.34375 98.5 C 56.241283 98.771002 59.637813 98.853461 63.0625 98.8125 C 69.911874 98.730578 76.896001 98.071935 80.125 97.09375 C 80.967908 96.838053 81.490025 96.560177 81.75 96.34375 C 82.009975 96.127323 82.027505 95.998016 82.03125 95.90625 C 82.038741 95.722718 81.8125 95.46875 81.8125 95.46875 A 0.50014383 0.50014383 0 0 1 82.34375 94.625 C 82.764973 94.815 83.091062 95.024457 83.34375 95.28125 C 83.596438 95.538043 83.773627 95.867697 83.78125 96.21875 C 83.796496 96.920855 83.260112 97.4719 82.53125 97.9375 C 81.073526 98.868699 78.443973 99.677093 74.875 100.3125 C 67.737055 101.58331 56.881786 102.02571 44.96875 100.09375 C 44.024642 99.94071 43.319078 99.743291 42.78125 99.5 C 42.243422 99.256709 41.868438 98.962282 41.6875 98.53125 C 41.506562 98.100218 41.602434 97.613084 41.84375 97.25 C 42.085066 96.886916 42.442566 96.574744 42.875 96.28125 C 44.604735 95.107274 47.65344 94.161244 49.84375 94.09375 z M 85.6875 97.6875 A 0.50014383 0.50014383 0 0 1 85.75 97.6875 A 0.50014383 0.50014383 0 0 1 86.34375 98.25 C 86.164998 99.758925 84.843818 100.86222 83 101.6875 C 81.156182 102.51278 78.696356 103.08893 75.9375 103.5 C 70.419789 104.32215 63.691423 104.43607 58.34375 104.09375 C 54.803659 103.86673 52.667946 103.44902 51.40625 103.09375 C 50.775402 102.91611 50.361332 102.75451 50.09375 102.625 C 49.959959 102.56024 49.880744 102.51215 49.8125 102.46875 C 49.744256 102.42535 50.375 102.34375 50.375 102.34375 L 50 102 L 50.09375 101.5 C 56.693699 102.58815 67.919386 102.79673 76.96875 101.09375 C 83.986953 99.772254 85.284154 98.099451 85.40625 97.90625 A 0.50014383 0.50014383 0 0 1 85.6875 97.6875 z " style="fill:#aaaaaa"/>
</svg>