<?xml version="1.0" encoding="UTF-8" standalone="no"?>
<svg xmlns:dc="http://purl.org/dc/elements/1.1/"
     xmlns:cc="http://creativecommons.org/ns#"
     xmlns:rdf="http://www.w3.org/1999/02/22-rdf-syntax-ns#"
     xmlns:svg="http://www.w3.org/2000/svg"
     xmlns="http://www.w3.org/2000/svg"
     xmlns:xlink="http://www.w3.org/1999/xlink"
     width="128" height="128" version="1.1">
    <title>C File Icon</title>
    <desc>This is shape (source) for Clarity vector icon theme for gtk</desc>
    <metadata>
        <rdf:RDF>
            <cc:Work rdf:about="">
                <dc:title>C File Icon</dc:title>
                <dc:description>This is shape (source) for Clarity vector icon theme for gtk</dc:description>
                <dc:creator>
                    <cc:Agent>
                        <dc:title>Jakub Jankiewicz</dc:title>
                    </cc:Agent>
                </dc:creator>
                <dc:rights>
                    <cc:Agent>
                        <dc:title>Jakub Jankiewicz</dc:title>
                    </cc:Agent>
                </dc:rights>
                <dc:date>2010</dc:date>
                <dc:format>image/svg+xml</dc:format>
                <dc:type rdf:resource="http://purl.org/dc/dcmitype/StillImage" />
                <cc:license rdf:resource="http://creativecommons.org/licenses/by-sa/3.0/" />
             </cc:Work>
        </rdf:RDF>
    </metadata>
    <path d="m 29.09375,11.234375 c -3.183804,0 -5.71875,2.566196 -5.71875,5.75 l 0,94.031255 c 0,3.1838 2.534946,5.75 5.71875,5.75 l 69.8125,0 c 3.1838,0 5.71875,-2.5662 5.71875,-5.75 l 0,-70.656255 -21.03125,0 c -4.306108,0 -8.0625,-3.141109 -8.0625,-7.3125 l 0,-21.8125 -46.4375,0 z m 50.4375,0 0,21.8125 c 0,1.714122 1.631968,3.3125 4.0625,3.3125 l 21.03125,0 -25.09375,-25.125 z m -15.25,51.6875 c 2.421861,3.2e-5 4.424463,0.468782 6,1.40625 1.575502,0.93753 2.598939,2.093779 3.09375,3.5 0.494771,1.393255 0.749979,3.575545 0.75,6.53125 l 0,3 -8.21875,0 0,-5.5 c -1.3e-5,-1.601537 -0.09897,-2.578099 -0.28125,-2.96875 -0.169283,-0.403619 -0.557303,-0.624973 -1.15625,-0.625 -0.677094,2.7e-5 -1.098969,0.237005 -1.28125,0.71875 -0.182302,0.481796 -0.281259,1.523462 -0.28125,3.125 l 0,14.6875 c -9e-6,1.536465 0.09895,2.562506 0.28125,3.03125 0.182281,0.468755 0.580718,0.687505 1.21875,0.6875 0.611967,5e-6 1.005196,-0.218745 1.1875,-0.6875 0.1953,-0.468744 0.312487,-1.580722 0.3125,-3.3125 l 0,-3.96875 8.21875,0 0,1.21875 c -2.1e-5,3.268237 -0.250021,5.601568 -0.71875,6.96875 -0.455749,1.36719 -1.473977,2.565106 -3.0625,3.59375 -1.575537,1.028646 -3.526055,1.531249 -5.84375,1.53125 -2.408863,-10e-7 -4.375007,-0.440105 -5.9375,-1.3125 -1.562504,-0.872394 -2.61719,-2.057289 -3.125,-3.59375 -0.507814,-1.549474 -0.750001,-3.869783 -0.75,-6.96875 l 0,-9.25 c -10e-7,-2.278623 0.09374,-3.992163 0.25,-5.125 0.156248,-1.145807 0.606768,-2.226534 1.375,-3.28125 0.781246,-1.054657 1.851558,-1.901011 3.21875,-2.5 1.380201,-0.611948 2.966136,-0.906218 4.75,-0.90625 z" style="fill:#aaaaaa"/>
</svg>