<?xml version="1.0" encoding="UTF-8" standalone="no"?>
<svg xmlns:dc="http://purl.org/dc/elements/1.1/"
     xmlns:cc="http://creativecommons.org/ns#"
     xmlns:rdf="http://www.w3.org/1999/02/22-rdf-syntax-ns#"
     xmlns:svg="http://www.w3.org/2000/svg"
     xmlns="http://www.w3.org/2000/svg"
     xmlns:xlink="http://www.w3.org/1999/xlink"
     width="128" height="128" version="1.1">
    <title>Configuration File Icon</title>
    <desc>This is shape (source) for Clarity vector icon theme for gtk</desc>
    <metadata>
        <rdf:RDF>
            <cc:Work rdf:about="">
                <dc:title>Configuration File Icon</dc:title>
                <dc:description>This is shape (source) for Clarity vector icon theme for gtk</dc:description>
                <dc:creator>
                    <cc:Agent>
                        <dc:title>Jakub Jankiewicz</dc:title>
                    </cc:Agent>
                </dc:creator>
                <dc:rights>
                    <cc:Agent>
                        <dc:title>Jakub Jankiewicz</dc:title>
                    </cc:Agent>
                </dc:rights>
                <dc:date>2010</dc:date>
                <dc:format>image/svg+xml</dc:format>
                <dc:type rdf:resource="http://purl.org/dc/dcmitype/StillImage" />
                <cc:license rdf:resource="http://creativecommons.org/licenses/by-sa/3.0/" />
             </cc:Work>
        </rdf:RDF>
    </metadata>
    <path d="M 28.5 11.25 C 25.598125 11.54359 23.375 14.015184 23.375 17 L 23.375 111 C 23.375 114.1838 25.90994 116.75 29.09375 116.75 L 98.90625 116.75 C 102.09005 116.75 104.625 114.1838 104.625 111 L 104.625 40.375 L 83.59375 40.375 C 79.28764 40.375 75.53125 37.233891 75.53125 33.0625 L 75.53125 11.25 L 29.09375 11.25 C 28.894762 11.25 28.693458 11.23043 28.5 11.25 z M 79.53125 11.25 L 79.53125 33.0625 C 79.53125 34.776622 81.16322 36.375 83.59375 36.375 L 104.625 36.375 L 79.53125 11.25 z M 49.125 46.21875 C 52.617833 46.221182 56.117821 47.586571 58.78125 50.25 C 62.443459 53.912212 63.592081 59.110072 62.21875 63.75 L 90.375 91.9375 C 92.795934 94.358425 92.79592 98.235331 90.375 100.65625 L 89.78125 101.25 C 87.36033 103.67092 83.452184 103.67093 81.03125 101.25 L 52.8125 73 C 48.230434 74.26937 43.102031 73.133282 39.5 69.53125 C 37.343619 67.37487 36.068675 64.678546 35.65625 61.875 L 45.75 65.96875 C 48.004302 66.878461 50.559036 65.785555 51.46875 63.53125 L 52.53125 60.90625 C 53.440964 58.651946 52.348055 56.097214 50.09375 55.1875 L 39 50.71875 C 39.153382 50.549706 39.336804 50.381953 39.5 50.21875 C 42.163429 47.55532 45.632168 46.21635 49.125 46.21875 z M 86.8125 51.4375 C 88.229972 51.439639 89.631498 51.975251 90.71875 53.0625 C 92.893238 55.237002 92.924505 58.763 90.75 60.9375 L 76.78125 74.84375 L 74.65625 72.71875 L 89.25 58.125 C 89.478092 57.896906 89.478092 57.540595 89.25 57.3125 C 89.021902 57.084401 88.634342 57.084405 88.40625 57.3125 L 73.8125 71.875 L 71.90625 70 L 86.5 55.375 C 86.728092 55.146905 86.728092 54.790595 86.5 54.5625 C 86.271901 54.334405 85.915592 54.334405 85.6875 54.5625 L 71.09375 69.15625 L 68.9375 67.03125 L 82.875 53.0625 C 83.962252 51.97525 85.395035 51.4354 86.8125 51.4375 z M 58.4375 82.21875 L 61.59375 85.375 L 55.03125 91.9375 L 54.21875 96.1875 L 43.09375 103.09375 L 40.71875 100.6875 L 47.625 89.59375 L 51.875 88.78125 L 58.4375 82.21875 z M 85.4375 93 C 84.592167 93 83.738718 93.323789 83.09375 93.96875 C 81.803809 95.258692 81.803809 97.335058 83.09375 98.625 C 84.383679 99.914929 86.460058 99.914935 87.75 98.625 C 89.039929 97.335058 89.039929 95.258685 87.75 93.96875 C 87.105026 93.323782 86.282834 93 85.4375 93 z " style="fill:#aaaaaa"/>
</svg>