<?xml version="1.0" encoding="UTF-8" standalone="no"?>
<svg xmlns:dc="http://purl.org/dc/elements/1.1/"
     xmlns:cc="http://creativecommons.org/ns#"
     xmlns:rdf="http://www.w3.org/1999/02/22-rdf-syntax-ns#"
     xmlns:svg="http://www.w3.org/2000/svg"
     xmlns="http://www.w3.org/2000/svg"
     xmlns:xlink="http://www.w3.org/1999/xlink"
     width="128" height="128" version="1.1">
    <title>Adobe raw file icon</title>
    <desc>This is shape (source) for Clarity vector icon theme for gtk</desc>
    <metadata>
        <rdf:RDF>
            <cc:Work rdf:about="">
                <dc:title>Adobe raw file icon</dc:title>
                <dc:description>This is shape (source) for Clarity vector icon theme for gtk</dc:description>
                <dc:creator>
                    <cc:Agent>
                        <dc:title>Jakub Jankiewicz</dc:title>
                    </cc:Agent>
                </dc:creator>
                <dc:rights>
                    <cc:Agent>
                        <dc:title>Jakub Jankiewicz</dc:title>
                    </cc:Agent>
                </dc:rights>
                <dc:date>2010</dc:date>
                <dc:format>image/svg+xml</dc:format>
                <dc:type rdf:resource="http://purl.org/dc/dcmitype/StillImage" />
                <cc:license rdf:resource="http://creativecommons.org/licenses/by-sa/3.0/" />
             </cc:Work>
        </rdf:RDF>
    </metadata>
    <path d="M 28.5 11.253906 C 25.598125 11.547496 23.375 14.019086 23.375 17.003906 L 23.375 111.00391 C 23.375 114.18771 25.90994 116.75391 29.09375 116.75391 L 98.90625 116.75391 C 102.09005 116.75391 104.625 114.18771 104.625 111.00391 L 104.625 40.378906 L 83.59375 40.378906 C 79.28764 40.378906 75.53125 37.237792 75.53125 33.066406 L 75.53125 11.253906 L 29.09375 11.253906 C 28.894762 11.253906 28.693458 11.234306 28.5 11.253906 z M 79.53125 11.253906 L 79.53125 33.066406 C 79.53125 34.780526 81.16322 36.378906 83.59375 36.378906 L 104.625 36.378906 L 79.53125 11.253906 z M 52 35.910156 L 53.25 35.910156 L 54.4375 38.378906 L 54.46875 38.910156 L 54.09375 40.660156 L 56.375 41.566406 L 57.34375 40.128906 L 57.75 39.722656 L 60.3125 38.816406 L 61.1875 39.691406 L 60.28125 42.285156 L 59.90625 42.691406 L 58.4375 43.597656 L 59.375 45.941406 L 61.09375 45.566406 L 61.65625 45.597656 L 64.125 46.753906 L 64.125 48.003906 L 61.65625 49.191406 L 61.09375 49.191406 L 59.375 48.816406 L 58.4375 51.097656 L 59.90625 52.097656 L 60.28125 52.503906 L 61.1875 55.066406 L 60.3125 55.941406 L 57.75 55.035156 L 57.34375 54.660156 L 56.375 53.191406 L 54.09375 54.128906 L 54.46875 55.847656 L 54.4375 56.410156 L 53.25 58.847656 L 52 58.847656 L 50.84375 56.410156 L 50.8125 55.847656 L 51.1875 54.128906 L 48.875 53.191406 L 47.96875 54.660156 L 47.53125 55.035156 L 44.96875 55.941406 L 44.0625 55.066406 L 45 52.503906 L 45.375 52.097656 L 46.84375 51.097656 L 45.90625 48.816406 L 44.1875 49.191406 L 43.625 49.191406 L 41.15625 48.003906 L 41.15625 46.753906 L 43.625 45.597656 L 44.1875 45.566406 L 45.90625 45.941406 L 46.84375 43.597656 L 45.375 42.691406 L 45 42.285156 L 44.0625 39.691406 L 44.96875 38.816406 L 47.53125 39.722656 L 47.96875 40.128906 L 48.875 41.566406 L 51.1875 40.660156 L 50.8125 38.910156 L 50.84375 38.378906 L 52 35.910156 z M 52.65625 43.597656 C 50.574572 43.597656 48.84375 45.297229 48.84375 47.378906 C 48.84375 49.460584 50.574572 51.128906 52.65625 51.128906 C 54.737927 51.128906 56.40625 49.460584 56.40625 47.378906 C 56.40625 45.297229 54.737927 43.597656 52.65625 43.597656 z M 65.5625 50.941406 L 67.75 53.347656 L 68.09375 54.128906 L 68.375 56.128906 L 71.5625 56.128906 L 71.84375 54.128906 L 72.15625 53.347656 L 74.375 50.941406 L 75.96875 51.472656 L 76.375 54.691406 L 76.15625 55.566406 L 75.21875 57.285156 L 77.8125 59.191406 L 79.15625 57.753906 L 79.90625 57.285156 L 83.09375 56.660156 L 84.09375 58.035156 L 82.5 60.847656 L 81.84375 61.410156 L 80.0625 62.285156 L 81.0625 65.316406 L 83 64.941406 L 83.875 65.035156 L 86.8125 66.378906 L 86.8125 68.066406 L 83.875 69.410156 L 83 69.503906 L 81.0625 69.160156 L 80.0625 72.191406 L 81.84375 73.066406 L 82.5 73.597656 L 84.09375 76.503906 L 83.09375 77.816406 L 79.90625 77.191406 L 79.15625 76.722656 L 77.8125 75.316406 L 75.21875 77.191406 L 76.15625 78.910156 L 76.375 79.785156 L 75.96875 83.003906 L 74.375 83.535156 L 72.15625 81.128906 L 71.84375 80.316406 L 71.5625 78.378906 L 68.375 78.378906 L 68.09375 80.316406 L 67.75 81.128906 L 65.5625 83.535156 L 63.96875 83.003906 L 63.59375 79.785156 L 63.8125 78.910156 L 64.71875 77.191406 L 62.125 75.316406 L 60.78125 76.722656 L 60 77.191406 L 56.8125 77.816406 L 55.875 76.503906 L 57.4375 73.597656 L 58.09375 73.066406 L 59.84375 72.191406 L 58.90625 69.160156 L 56.9375 69.503906 L 56.09375 69.410156 L 53.125 68.066406 L 53.125 66.378906 L 56.09375 65.035156 L 56.9375 64.941406 L 58.90625 65.316406 L 59.84375 62.285156 L 58.09375 61.410156 L 57.4375 60.847656 L 55.875 58.035156 L 56.8125 56.660156 L 60 57.285156 L 60.78125 57.753906 L 62.125 59.191406 L 64.71875 57.285156 L 63.8125 55.566406 L 63.59375 54.691406 L 63.96875 51.472656 L 65.5625 50.941406 z M 69.96875 60.972656 C 66.50904 60.972656 63.6875 63.794197 63.6875 67.253906 C 63.6875 70.713618 66.50904 73.503906 69.96875 73.503906 C 73.42846 73.503906 76.25 70.713618 76.25 67.253906 C 76.25 63.794197 73.42846 60.972656 69.96875 60.972656 z M 69.277344 90.400391 L 71.558594 90.400391 L 71.558594 104.1582 C 71.558594 105.05613 71.60774 106.36647 71.65625 107.19141 L 69.689453 107.19141 L 69.544922 105.75977 L 69.472656 105.75977 C 69.084414 106.58487 68.185089 107.38477 66.996094 107.38477 C 64.812422 107.38477 63.478516 105.00756 63.478516 101.34375 C 63.478516 97.170224 65.251123 95.205078 67.119141 95.205078 C 68.065483 95.205078 68.81796 95.641654 69.230469 96.539062 L 69.277344 96.539062 L 69.277344 90.400391 z M 82.492188 90.400391 L 84.771484 90.400391 L 84.771484 96.734375 L 84.820312 96.734375 C 85.426542 95.666706 86.251529 95.205078 87.294922 95.205078 C 89.308943 95.205078 90.570312 97.486244 90.570312 101.10156 C 90.570312 105.32346 88.847472 107.38477 86.90625 107.38477 C 85.741521 107.38477 85.087696 106.75435 84.578125 105.71094 L 84.480469 105.71094 L 84.359375 107.19141 L 82.394531 107.19141 C 82.443071 106.39077 82.492188 105.05613 82.492188 104.1582 L 82.492188 90.400391 z M 56.923828 90.837891 L 59.568359 90.837891 L 63.037109 107.19141 L 60.78125 107.19141 L 59.835938 102.67773 L 56.4375 102.67773 L 55.466797 107.19141 L 53.236328 107.19141 L 56.923828 90.837891 z M 28.763672 90.880859 L 35.582031 90.880859 L 28.763672 107.19141 L 28.763672 90.880859 z M 40.380859 90.880859 L 47.195312 90.880859 L 47.195312 107.19141 L 40.380859 90.880859 z M 58.111328 93.214844 C 57.941508 94.403433 57.698777 95.907769 57.480469 96.951172 L 56.705078 100.85742 L 59.568359 100.85742 L 58.816406 96.951172 C 58.598052 95.834973 58.378804 94.379573 58.208984 93.214844 L 58.111328 93.214844 z M 77.113281 95.205078 C 79.442332 95.205078 81.117188 97.292068 81.117188 101.27148 C 81.117188 105.95439 78.810846 107.38477 77.015625 107.38477 L 76.992188 107.38477 C 74.638466 107.38477 72.939453 105.37241 72.939453 101.32031 C 72.939453 97.025495 74.953676 95.205078 77.113281 95.205078 z M 95.925781 95.205078 C 98.376563 95.205078 99.517578 97.559182 99.517578 100.51953 C 99.517578 101.10169 99.49302 101.46384 99.46875 101.7793 L 93.935547 101.75586 C 93.959821 104.78869 95.271171 105.54102 96.654297 105.54102 C 97.479316 105.54102 98.181846 105.34602 98.691406 105.10352 L 99.03125 106.75391 C 98.327556 107.11788 97.260201 107.3125 96.216797 107.3125 C 93.256847 107.3125 91.703125 105.08104 91.703125 101.44141 C 91.703125 97.583357 93.474999 95.205078 95.925781 95.205078 z M 37.982422 96.890625 L 42.322266 107.19141 L 39.478516 107.19141 L 38.179688 103.91016 L 35.001953 103.91016 L 37.982422 96.890625 z M 95.755859 96.927734 C 94.566454 96.927734 94.033757 98.650956 93.960938 100.13086 L 97.357422 100.13086 C 97.381684 98.044171 96.653263 96.927734 95.755859 96.927734 z M 77.015625 97 C 75.511176 97 75.220703 99.523678 75.220703 101.29492 C 75.220703 103.26048 75.560834 105.58984 77.041016 105.58984 L 77.064453 105.58984 C 78.471833 105.58984 78.787109 103.09066 78.787109 101.29492 C 78.787109 99.523678 78.471543 97 77.015625 97 z M 67.701172 97.169922 C 66.269118 97.169922 65.785156 99.159894 65.785156 101.34375 C 65.785156 103.77015 66.413692 105.46875 67.626953 105.46875 C 68.136527 105.46875 68.816836 105.20038 69.205078 103.79297 C 69.253598 103.59896 69.277344 103.30797 69.277344 103.04102 L 69.277344 99.886719 C 69.277344 99.668257 69.278166 99.402804 69.253906 99.160156 C 69.132576 98.092565 68.526184 97.169922 67.701172 97.169922 z M 86.373047 97.169922 C 85.62123 97.169922 85.01361 98.068525 84.84375 98.917969 C 84.7951 99.160466 84.771484 99.476101 84.771484 99.71875 L 84.771484 103.01758 C 84.771484 103.28458 84.796321 103.5521 84.869141 103.74609 C 85.233114 105.17782 85.935449 105.46875 86.396484 105.46875 C 87.755336 105.46875 88.265625 103.67261 88.265625 101.24609 C 88.265625 98.989721 87.731888 97.169922 86.373047 97.169922 z " style="fill:#aaaaaa"/>
</svg>