<?xml version="1.0" encoding="UTF-8" standalone="no"?>
<svg xmlns:dc="http://purl.org/dc/elements/1.1/"
     xmlns:cc="http://creativecommons.org/ns#"
     xmlns:rdf="http://www.w3.org/1999/02/22-rdf-syntax-ns#"
     xmlns:svg="http://www.w3.org/2000/svg"
     xmlns="http://www.w3.org/2000/svg"
     xmlns:xlink="http://www.w3.org/1999/xlink"
     width="128" height="128" version="1.1">
    <title>Sony Raw File Icon</title>
    <desc>This is shape (source) for Clarity vector icon theme for gtk</desc>
    <metadata>
        <rdf:RDF>
            <cc:Work rdf:about="">
                <dc:title>Sony Raw File Icon</dc:title>
                <dc:description>This is shape (source) for Clarity vector icon theme for gtk</dc:description>
                <dc:creator>
                    <cc:Agent>
                        <dc:title>Jakub Jankiewicz</dc:title>
                    </cc:Agent>
                </dc:creator>
                <dc:rights>
                    <cc:Agent>
                        <dc:title>Jakub Jankiewicz</dc:title>
                    </cc:Agent>
                </dc:rights>
                <dc:date>2010</dc:date>
                <dc:format>image/svg+xml</dc:format>
                <dc:type rdf:resource="http://purl.org/dc/dcmitype/StillImage" />
                <cc:license rdf:resource="http://creativecommons.org/licenses/by-sa/3.0/" />
             </cc:Work>
        </rdf:RDF>
    </metadata>
    <path d="M 28.5 11.25 C 25.598125 11.54359 23.375 14.01518 23.375 17 L 23.375 111 C 23.375 114.1838 25.90994 116.75 29.09375 116.75 L 98.90625 116.75 C 102.09005 116.75 104.625 114.1838 104.625 111 L 104.625 40.375 L 83.59375 40.375 C 79.28764 40.375 75.53125 37.233886 75.53125 33.0625 L 75.53125 11.25 L 29.09375 11.25 C 28.894762 11.25 28.693458 11.2304 28.5 11.25 z M 79.53125 11.25 L 79.53125 33.0625 C 79.53125 34.77662 81.16322 36.375 83.59375 36.375 L 104.625 36.375 L 79.53125 11.25 z M 52 35.90625 L 53.25 35.90625 L 54.4375 38.375 L 54.46875 38.90625 L 54.09375 40.65625 L 56.375 41.5625 L 57.34375 40.125 L 57.75 39.71875 L 60.3125 38.8125 L 61.1875 39.6875 L 60.28125 42.28125 L 59.90625 42.6875 L 58.4375 43.59375 L 59.375 45.9375 L 61.09375 45.5625 L 61.65625 45.59375 L 64.125 46.75 L 64.125 48 L 61.65625 49.1875 L 61.09375 49.1875 L 59.375 48.8125 L 58.4375 51.09375 L 59.90625 52.09375 L 60.28125 52.5 L 61.1875 55.0625 L 60.3125 55.9375 L 57.75 55.03125 L 57.34375 54.65625 L 56.375 53.1875 L 54.09375 54.125 L 54.46875 55.84375 L 54.4375 56.40625 L 53.25 58.84375 L 52 58.84375 L 50.84375 56.40625 L 50.8125 55.84375 L 51.1875 54.125 L 48.875 53.1875 L 47.96875 54.65625 L 47.53125 55.03125 L 44.96875 55.9375 L 44.0625 55.0625 L 45 52.5 L 45.375 52.09375 L 46.84375 51.09375 L 45.90625 48.8125 L 44.1875 49.1875 L 43.625 49.1875 L 41.15625 48 L 41.15625 46.75 L 43.625 45.59375 L 44.1875 45.5625 L 45.90625 45.9375 L 46.84375 43.59375 L 45.375 42.6875 L 45 42.28125 L 44.0625 39.6875 L 44.96875 38.8125 L 47.53125 39.71875 L 47.96875 40.125 L 48.875 41.5625 L 51.1875 40.65625 L 50.8125 38.90625 L 50.84375 38.375 L 52 35.90625 z M 52.65625 43.59375 C 50.574572 43.59375 48.84375 45.293323 48.84375 47.375 C 48.84375 49.456678 50.574572 51.125 52.65625 51.125 C 54.737927 51.125 56.40625 49.456678 56.40625 47.375 C 56.40625 45.293323 54.737927 43.59375 52.65625 43.59375 z M 65.5625 50.9375 L 67.75 53.34375 L 68.09375 54.125 L 68.375 56.125 L 71.5625 56.125 L 71.84375 54.125 L 72.15625 53.34375 L 74.375 50.9375 L 75.96875 51.46875 L 76.375 54.6875 L 76.15625 55.5625 L 75.21875 57.28125 L 77.8125 59.1875 L 79.15625 57.75 L 79.90625 57.28125 L 83.09375 56.65625 L 84.09375 58.03125 L 82.5 60.84375 L 81.84375 61.40625 L 80.0625 62.28125 L 81.0625 65.3125 L 83 64.9375 L 83.875 65.03125 L 86.8125 66.375 L 86.8125 68.0625 L 83.875 69.40625 L 83 69.5 L 81.0625 69.15625 L 80.0625 72.1875 L 81.84375 73.0625 L 82.5 73.59375 L 84.09375 76.5 L 83.09375 77.8125 L 79.90625 77.1875 L 79.15625 76.71875 L 77.8125 75.3125 L 75.21875 77.1875 L 76.15625 78.90625 L 76.375 79.78125 L 75.96875 83 L 74.375 83.53125 L 72.15625 81.125 L 71.84375 80.3125 L 71.5625 78.375 L 68.375 78.375 L 68.09375 80.3125 L 67.75 81.125 L 65.5625 83.53125 L 63.96875 83 L 63.59375 79.78125 L 63.8125 78.90625 L 64.71875 77.1875 L 62.125 75.3125 L 60.78125 76.71875 L 60 77.1875 L 56.8125 77.8125 L 55.875 76.5 L 57.4375 73.59375 L 58.09375 73.0625 L 59.84375 72.1875 L 58.90625 69.15625 L 56.9375 69.5 L 56.09375 69.40625 L 53.125 68.0625 L 53.125 66.375 L 56.09375 65.03125 L 56.9375 64.9375 L 58.90625 65.3125 L 59.84375 62.28125 L 58.09375 61.40625 L 57.4375 60.84375 L 55.875 58.03125 L 56.8125 56.65625 L 60 57.28125 L 60.78125 57.75 L 62.125 59.1875 L 64.71875 57.28125 L 63.8125 55.5625 L 63.59375 54.6875 L 63.96875 51.46875 L 65.5625 50.9375 z M 69.96875 60.96875 C 66.50904 60.96875 63.6875 63.790291 63.6875 67.25 C 63.6875 70.709712 66.50904 73.5 69.96875 73.5 C 73.42846 73.5 76.25 70.709712 76.25 67.25 C 76.25 63.790291 73.42846 60.96875 69.96875 60.96875 z M 34.28125 91.1875 C 38.001973 91.1875 39.854538 92.40625 40.40625 92.40625 C 40.666164 92.40625 40.78125 92.145348 40.78125 91.71875 L 42.15625 91.71875 L 42.15625 95.375 L 40.78125 95.375 C 40.096757 93.120934 36.697506 92.78125 34.5625 92.78125 C 32.694672 92.78125 31.28125 93.270307 31.28125 94.21875 C 31.28125 95.315312 33.906737 95.337238 36.03125 95.625 C 38.766399 95.995498 42.78125 95.924974 42.78125 99.5 C 42.78125 102.32152 39.034392 103.30726 36.6875 103.3125 C 32.486501 103.3215 31.180109 102.09375 30.21875 102.09375 C 29.952379 102.09375 29.8125 102.35961 29.8125 102.875 L 28.4375 102.875 L 28.4375 98.78125 L 29.8125 98.78125 C 30.328695 101.24034 34.094519 101.78125 35.6875 101.78125 C 36.817157 101.78125 39.71875 101.5615 39.71875 100.21875 C 39.71875 98.946217 37.85952 99.010778 35.59375 98.6875 C 33.110846 98.332742 28.21875 98.270947 28.21875 94.96875 C 28.21875 92.421272 31.077933 91.1875 34.28125 91.1875 z M 53.6875 91.1875 C 58.725913 91.1875 62.0625 93.789594 62.0625 97.25 C 62.0625 100.71041 58.72555 103.3125 53.6875 103.3125 C 48.649449 103.3125 45.3125 100.71041 45.3125 97.25 C 45.3125 93.789594 48.649046 91.1875 53.6875 91.1875 z M 63.4375 91.875 L 68.96875 91.875 L 76.6875 98.4375 L 76.6875 93.8125 C 76.6875 93.435544 76.50236 93.21875 76.125 93.21875 L 74.5 93.21875 L 74.5 91.875 L 81.09375 91.875 L 81.09375 93.21875 L 79.5 93.21875 C 79.122641 93.21875 78.9375 93.435544 78.9375 93.8125 L 78.9375 102.625 L 76.71875 102.625 L 67.875 95.0625 L 67.875 100.6875 C 67.875 101.06486 68.060544 101.25 68.4375 101.25 L 70.0625 101.25 L 70.0625 102.625 L 63.4375 102.625 L 63.4375 101.25 L 65.0625 101.25 C 65.439456 101.25 65.625 101.06486 65.625 100.6875 L 65.625 93.8125 C 65.625 93.435544 65.439456 93.21875 65.0625 93.21875 L 63.4375 93.21875 L 63.4375 91.875 z M 82.21875 91.875 L 90.21875 91.875 L 90.21875 93.21875 L 89.40625 93.21875 C 89.212121 93.21875 89.085331 93.3027 89.03125 93.4375 C 88.97757 93.5723 89.02773 93.704741 89.125 93.8125 L 91.75 96.625 L 94.375 93.8125 C 94.47186 93.704741 94.491586 93.5723 94.4375 93.4375 C 94.38382 93.3027 94.256628 93.21875 94.0625 93.21875 L 93.28125 93.21875 L 93.28125 91.875 L 99.78125 91.875 L 99.78125 93.21875 L 98.5 93.21875 C 97.959185 93.21875 97.519483 93.435544 97.15625 93.8125 L 92.78125 98.4375 L 92.78125 100.6875 C 92.78125 101.06486 92.997641 101.25 93.375 101.25 L 94.96875 101.25 L 94.96875 102.625 L 87.125 102.625 L 87.125 101.25 L 88.75 101.25 C 89.127359 101.25 89.3125 101.06486 89.3125 100.6875 L 89.3125 98.59375 L 84.84375 93.8125 C 84.477692 93.435544 84.038393 93.21875 83.5 93.21875 L 82.21875 93.21875 L 82.21875 91.875 z M 53.6875 92.8125 C 50.798178 92.8125 48.875 94.712208 48.875 97.25 C 48.875 99.787388 50.797976 101.6875 53.6875 101.6875 C 56.576862 101.6875 58.46875 99.787388 58.46875 97.25 C 58.46875 94.712208 56.576862 92.8125 53.6875 92.8125 z " style="fill:#aaaaaa"/>
</svg>