<?xml version="1.0" encoding="UTF-8" standalone="no"?>
<svg xmlns:dc="http://purl.org/dc/elements/1.1/"
     xmlns:cc="http://creativecommons.org/ns#"
     xmlns:rdf="http://www.w3.org/1999/02/22-rdf-syntax-ns#"
     xmlns:svg="http://www.w3.org/2000/svg"
     xmlns="http://www.w3.org/2000/svg"
     xmlns:xlink="http://www.w3.org/1999/xlink"
     width="128" height="128" version="1.1">
    <title>Block Device Icon</title>
    <desc>This is shape (source) for Clarity vector icon theme for gtk</desc>
    <metadata>
        <rdf:RDF>
            <cc:Work rdf:about="">
                <dc:title>Block Device Icon</dc:title>
                <dc:description>This is shape (source) for Clarity vector icon theme for gtk</dc:description>
                <dc:creator>
                    <cc:Agent>
                        <dc:title>Jakub Jankiewicz</dc:title>
                    </cc:Agent>
                </dc:creator>
                <dc:rights>
                    <cc:Agent>
                        <dc:title>Jakub Jankiewicz</dc:title>
                    </cc:Agent>
                </dc:rights>
                <dc:date>2010</dc:date>
                <dc:format>image/svg+xml</dc:format>
                <dc:type rdf:resource="http://purl.org/dc/dcmitype/StillImage" />
                <cc:license rdf:resource="http://creativecommons.org/licenses/by-sa/3.0/" />
             </cc:Work>
        </rdf:RDF>
    </metadata>
    <path d="M 29.09375 11.21875 C 25.909946 11.21875 23.375 13.784946 23.375 16.96875 L 23.375 111.03125 C 23.375 114.21505 25.909946 116.78125 29.09375 116.78125 L 98.90625 116.78125 C 102.09005 116.78125 104.625 114.21505 104.625 111.03125 L 104.625 40.34375 L 83.59375 40.34375 C 79.28764 40.34375 75.53125 37.202641 75.53125 33.03125 L 75.53125 11.21875 L 29.09375 11.21875 z M 79.53125 11.21875 L 79.53125 33.03125 C 79.53125 34.745372 81.16322 36.34375 83.59375 36.34375 L 104.625 36.34375 L 79.53125 11.21875 z M 43.5 64.6875 L 84.5 64.6875 C 85.765998 64.6875 86.617375 65.717877 86.8125 66.96875 L 91.375 89.4375 C 91.516931 90.695539 90.359754 91.71875 89.09375 91.71875 L 38.90625 91.71875 C 37.64025 91.71875 36.482373 90.69546 36.625 89.4375 L 41.1875 66.96875 C 41.399121 65.720562 42.234 64.6875 43.5 64.6875 z M 38.90625 94.03125 L 89.09375 94.03125 C 90.359771 94.03125 91.375 95.04648 91.375 96.3125 L 91.375 100.96875 C 91.375 102.23478 90.359771 103.25 89.09375 103.25 L 38.90625 103.25 C 37.640231 103.25 36.625 102.23478 36.625 100.96875 L 36.625 96.3125 C 36.625 95.04648 37.640231 94.03125 38.90625 94.03125 z M 41.15625 96.8125 C 40.733717 96.8125 40.375 97.139967 40.375 97.5625 L 40.375 99.71875 C 40.375 100.14127 40.733717 100.5 41.15625 100.5 L 46.75 100.5 C 47.172533 100.5 47.5 100.14127 47.5 99.71875 L 47.5 97.5625 C 47.5 97.139967 47.172533 96.8125 46.75 96.8125 L 41.15625 96.8125 z " style="fill:#aaaaaa"/>
</svg>