<?xml version="1.0" encoding="UTF-8" standalone="no"?>
<svg xmlns:dc="http://purl.org/dc/elements/1.1/"
     xmlns:cc="http://creativecommons.org/ns#"
     xmlns:rdf="http://www.w3.org/1999/02/22-rdf-syntax-ns#"
     xmlns:svg="http://www.w3.org/2000/svg"
     xmlns="http://www.w3.org/2000/svg"
     xmlns:xlink="http://www.w3.org/1999/xlink"
     width="128" height="128" version="1.1">
    <title>Libreoffice Spreadsheet Template Icon</title>
    <desc>This is shape (source) for Clarity vector icon theme for gtk</desc>
    <metadata>
        <rdf:RDF>
            <cc:Work rdf:about="">
                <dc:title>Libreoffice Spreadsheet Template Icon</dc:title>
                <dc:description>This is shape (source) for Clarity vector icon theme for gtk</dc:description>
                <dc:creator>
                    <cc:Agent>
                        <dc:title>Jakub Jankiewicz</dc:title>
                    </cc:Agent>
                </dc:creator>
                <dc:rights>
                    <cc:Agent>
                        <dc:title>Jakub Jankiewicz</dc:title>
                    </cc:Agent>
                </dc:rights>
                <dc:date>2010</dc:date>
                <dc:format>image/svg+xml</dc:format>
                <dc:type rdf:resource="http://purl.org/dc/dcmitype/StillImage" />
                <cc:license rdf:resource="http://creativecommons.org/licenses/by-sa/3.0/" />
             </cc:Work>
        </rdf:RDF>
    </metadata>
    <path d="M 14.494141 7.84375 C 11.272582 7.84375 8.6191406 10.52844 8.6191406 13.75 L 8.6191406 114.28125 C 8.6191406 117.50281 11.257172 120.15625 14.494141 120.15625 L 92.150391 120.15625 C 95.387361 120.15625 98.056641 117.51822 98.056641 114.28125 L 98.056641 49.78125 L 98.056641 48.96875 L 97.462891 48.375 L 57.587891 8.4375 L 56.994141 7.84375 L 56.150391 7.84375 L 14.494141 7.84375 z M 106.58203 7.84375 L 106.58203 13.033203 L 115.34766 13.033203 L 115.34766 17.025391 L 106.58203 17.025391 L 106.58203 22.615234 L 111.07227 22.615234 L 111.07227 26.640625 L 106.58203 26.640625 L 106.58203 32.228516 L 111.07227 32.228516 L 111.07227 36.220703 L 106.58203 36.220703 L 106.58203 41.84375 L 111.07227 41.84375 L 111.07227 45.835938 L 106.58203 45.835938 L 106.58203 51.423828 L 115.34766 51.423828 L 115.34766 55.449219 L 106.58203 55.449219 L 106.58203 61.039062 L 111.07227 61.039062 L 111.07227 65.03125 L 106.58203 65.03125 L 106.58203 70.654297 L 111.07227 70.654297 L 111.07227 74.646484 L 106.58203 74.646484 L 106.58203 80.234375 L 111.07227 80.234375 L 111.07227 84.259766 L 106.58203 84.259766 L 106.58203 89.849609 L 115.34766 89.849609 L 115.34766 93.841797 L 106.58203 93.841797 L 106.58203 99.462891 L 111.07227 99.462891 L 111.07227 103.45508 L 106.58203 103.45508 L 106.58203 109.04492 L 111.07227 109.04492 L 111.07227 113.07031 L 106.58203 113.07031 L 106.58203 120.15625 L 119.38086 120.15625 L 119.38086 7.84375 L 106.58203 7.84375 z M 93.712891 8.28125 C 91.856911 8.28125 75.529275 8.4375 72.306641 8.4375 C 69.084013 8.4375 68.086924 10.80692 70.025391 13.1875 C 71.963855 15.56809 91.857251 35.04285 92.962891 36.3125 C 94.442371 38.0114 97.650391 37.80702 97.650391 33.875 L 97.650391 12.21875 C 97.650391 10.33374 96.181841 8.28125 93.712891 8.28125 z M 14.494141 11.84375 L 55.306641 11.84375 L 94.056641 50.59375 L 94.056641 114.28125 C 94.056641 115.34686 93.215981 116.15625 92.150391 116.15625 L 14.494141 116.15625 C 13.428536 116.15625 12.619141 115.36227 12.619141 114.28125 L 12.619141 13.75 C 12.619141 12.66899 13.413126 11.84375 14.494141 11.84375 z M 19.976562 58.197266 L 19.976562 63.572266 L 30.882812 63.572266 L 30.882812 58.197266 L 19.976562 58.197266 z M 33.914062 58.197266 L 33.914062 63.572266 L 44.853516 63.572266 L 44.853516 58.197266 L 33.914062 58.197266 z M 47.884766 58.197266 L 47.884766 63.572266 L 58.791016 63.572266 L 58.791016 58.197266 L 47.884766 58.197266 z M 61.822266 58.197266 L 61.822266 63.572266 L 72.759766 63.572266 L 72.759766 58.197266 L 61.822266 58.197266 z M 75.791016 58.197266 L 75.791016 63.572266 L 86.697266 63.572266 L 86.697266 58.197266 L 75.791016 58.197266 z M 19.976562 66.447266 L 19.976562 71.791016 L 30.882812 71.791016 L 30.882812 66.447266 L 19.976562 66.447266 z M 33.914062 66.447266 L 33.914062 71.791016 L 86.697266 71.791016 L 86.697266 66.447266 L 33.914062 66.447266 z M 19.976562 74.666016 L 19.976562 80.009766 L 30.882812 80.009766 L 30.882812 74.666016 L 19.976562 74.666016 z M 33.914062 74.666016 L 33.914062 80.009766 L 86.697266 80.009766 L 86.697266 74.666016 L 33.914062 74.666016 z M 19.976562 82.916016 L 19.976562 88.259766 L 30.882812 88.259766 L 30.882812 82.916016 L 19.976562 82.916016 z M 33.914062 82.916016 L 33.914062 88.259766 L 86.697266 88.259766 L 86.697266 82.916016 L 33.914062 82.916016 z M 19.976562 91.134766 L 19.976562 96.478516 L 30.882812 96.478516 L 30.882812 91.134766 L 19.976562 91.134766 z M 33.914062 91.134766 L 33.914062 96.478516 L 86.697266 96.478516 L 86.697266 91.134766 L 33.914062 91.134766 z M 19.976562 99.384766 L 19.976562 104.72852 L 30.882812 104.72852 L 30.882812 99.384766 L 19.976562 99.384766 z M 33.914062 99.384766 L 33.914062 104.72852 L 86.697266 104.72852 L 86.697266 99.384766 L 33.914062 99.384766 z " style="fill:#aaaaaa"/>
</svg>