<?xml version="1.0" encoding="UTF-8" standalone="no"?>
<svg xmlns:dc="http://purl.org/dc/elements/1.1/"
     xmlns:cc="http://creativecommons.org/ns#"
     xmlns:rdf="http://www.w3.org/1999/02/22-rdf-syntax-ns#"
     xmlns:svg="http://www.w3.org/2000/svg"
     xmlns="http://www.w3.org/2000/svg"
     xmlns:xlink="http://www.w3.org/1999/xlink"
     width="128" height="128" version="1.1">
    <title>Libreoffice Web Template Icon</title>
    <desc>This is shape (source) for Clarity vector icon theme for gtk</desc>
    <metadata>
        <rdf:RDF>
            <cc:Work rdf:about="">
                <dc:title>Libreoffice Web Template Icon</dc:title>
                <dc:description>This is shape (source) for Clarity vector icon theme for gtk</dc:description>
                <dc:creator>
                    <cc:Agent>
                        <dc:title>Jakub Jankiewicz</dc:title>
                    </cc:Agent>
                </dc:creator>
                <dc:rights>
                    <cc:Agent>
                        <dc:title>Jakub Jankiewicz</dc:title>
                    </cc:Agent>
                </dc:rights>
                <dc:date>2010</dc:date>
                <dc:format>image/svg+xml</dc:format>
                <dc:type rdf:resource="http://purl.org/dc/dcmitype/StillImage" />
                <cc:license rdf:resource="http://creativecommons.org/licenses/by-sa/3.0/" />
             </cc:Work>
        </rdf:RDF>
    </metadata>
    <path d="M 16.478516 7.84375 C 13.256957 7.84375 10.603516 10.528441 10.603516 13.75 L 10.603516 114.28125 C 10.603516 117.50281 13.241547 120.15625 16.478516 120.15625 L 94.134766 120.15625 C 97.371736 120.15625 100.04102 117.51822 100.04102 114.28125 L 100.04102 49.78125 L 100.04102 48.96875 L 99.447266 48.375 L 59.572266 8.4375 L 58.978516 7.84375 L 58.134766 7.84375 L 16.478516 7.84375 z M 108.56836 7.84375 L 108.56836 13.033203 L 117.33398 13.033203 L 117.33398 17.025391 L 108.56836 17.025391 L 108.56836 22.615234 L 113.05859 22.615234 L 113.05859 26.640625 L 108.56836 26.640625 L 108.56836 32.228516 L 113.05859 32.228516 L 113.05859 36.220703 L 108.56836 36.220703 L 108.56836 41.84375 L 113.05859 41.84375 L 113.05859 45.835938 L 108.56836 45.835938 L 108.56836 51.423828 L 117.33398 51.423828 L 117.33398 55.449219 L 108.56836 55.449219 L 108.56836 61.039062 L 113.05859 61.039062 L 113.05859 65.03125 L 108.56836 65.03125 L 108.56836 70.654297 L 113.05859 70.654297 L 113.05859 74.646484 L 108.56836 74.646484 L 108.56836 80.234375 L 113.05859 80.234375 L 113.05859 84.259766 L 108.56836 84.259766 L 108.56836 89.849609 L 117.33398 89.849609 L 117.33398 93.841797 L 108.56836 93.841797 L 108.56836 99.462891 L 113.05859 99.462891 L 113.05859 103.45508 L 108.56836 103.45508 L 108.56836 109.04492 L 113.05859 109.04492 L 113.05859 113.07031 L 108.56836 113.07031 L 108.56836 120.15625 L 121.36719 120.15625 L 121.36719 7.84375 L 108.56836 7.84375 z M 95.697266 8.28125 C 93.841286 8.28125 77.51365 8.4375 74.291016 8.4375 C 71.068388 8.4375 70.071299 10.806914 72.009766 13.1875 C 73.94823 15.568085 93.841626 35.042857 94.947266 36.3125 C 96.426746 38.011404 99.634766 37.807027 99.634766 33.875 L 99.634766 12.21875 C 99.634766 10.333734 98.166216 8.28125 95.697266 8.28125 z M 16.478516 11.84375 L 57.291016 11.84375 L 96.041016 50.59375 L 96.041016 114.28125 C 96.041016 115.34686 95.200356 116.15625 94.134766 116.15625 L 16.478516 116.15625 C 15.412911 116.15625 14.603516 115.36227 14.603516 114.28125 L 14.603516 13.75 C 14.603516 12.668987 15.397501 11.84375 16.478516 11.84375 z M 22.966797 58.847656 C 22.412797 58.847656 21.966797 59.293656 21.966797 59.847656 L 21.966797 61.916016 C 21.966797 62.470016 22.412797 62.916016 22.966797 62.916016 L 87.136719 62.916016 C 87.690719 62.916016 88.136719 62.470016 88.136719 61.916016 L 88.136719 59.847656 C 88.136719 59.293656 87.690719 58.847656 87.136719 58.847656 L 22.966797 58.847656 z M 22.966797 70.033203 C 22.412797 70.033203 21.966797 70.479203 21.966797 71.033203 L 21.966797 73.101562 C 21.966797 73.655563 22.412797 74.101562 22.966797 74.101562 L 87.136719 74.101562 C 87.690719 74.101562 88.136719 73.655563 88.136719 73.101562 L 88.136719 71.033203 C 88.136719 70.479203 87.690719 70.033203 87.136719 70.033203 L 22.966797 70.033203 z M 22.966797 81.220703 C 22.412797 81.220703 21.966797 81.666703 21.966797 82.220703 L 21.966797 84.289062 C 21.966797 84.843063 22.412797 85.289062 22.966797 85.289062 L 59.189453 85.289062 C 59.743453 85.289062 60.189453 84.843063 60.189453 84.289062 L 60.189453 82.220703 C 60.189453 81.666703 59.743453 81.220703 59.189453 81.220703 L 22.966797 81.220703 z M 74.304688 82.197266 C 66.682367 82.197266 60.505859 88.373771 60.505859 95.996094 C 60.505859 103.6187 66.682368 109.80273 74.304688 109.80273 C 81.926314 109.80273 88.105469 103.61877 88.105469 95.996094 C 88.105469 88.373771 81.926314 82.197266 74.304688 82.197266 z M 74.304688 83.253906 C 74.529783 83.253906 74.752395 83.258001 74.974609 83.269531 L 75.691406 83.552734 L 75.080078 85.101562 C 74.333749 85.446759 73.63091 85.72208 72.845703 85.964844 L 72.339844 86.769531 L 71.929688 87 L 71.318359 85.792969 L 71.78125 85.332031 L 71.78125 84.869141 L 70.611328 84.066406 L 70.96875 83.722656 L 71.638672 83.537109 L 71.736328 83.513672 C 72.566203 83.34407 73.424325 83.253906 74.304688 83.253906 z M 68.681641 84.564453 L 68.726562 84.810547 L 69.695312 84.929688 L 69.949219 85.443359 L 70.507812 85.673828 L 70 86.136719 C 69.661027 85.90696 69.319162 85.673467 68.980469 85.443359 L 68.474609 85.271484 C 68.251353 85.420695 68.02975 85.579361 67.810547 85.734375 L 67.558594 86.306641 L 67.050781 86.306641 L 67.304688 85.673828 L 67.714844 85.332031 L 67.691406 85.101562 C 67.781856 85.046633 67.874891 84.990221 67.966797 84.9375 L 68.019531 85.041016 L 68.109375 84.855469 C 68.296267 84.751408 68.489099 84.659231 68.681641 84.564453 z M 66.544922 84.988281 L 66.568359 84.988281 C 66.557039 84.996281 66.548399 85.011521 66.537109 85.019531 L 66.544922 84.988281 z M 80.748047 84.996094 C 81.162056 85.238759 81.557053 85.506594 81.939453 85.792969 L 81.701172 85.792969 L 82.355469 86.478516 L 82.542969 86.269531 C 84.790699 88.17446 86.363078 90.845118 86.869141 93.880859 C 86.773571 93.792079 86.676019 93.702149 86.578125 93.613281 L 85.990234 93.703125 L 85.460938 93.099609 L 85.460938 93.84375 L 85.916016 94.193359 L 86.220703 94.537109 L 86.630859 94.074219 C 86.733295 94.26608 86.833809 94.456575 86.935547 94.648438 L 86.935547 95.228516 L 86.474609 95.742188 L 85.632812 96.316406 L 85.021484 96.927734 C 85.317509 96.906414 85.613421 96.876011 85.916016 96.837891 L 85.916016 97.240234 L 85.304688 98.736328 L 84.746094 99.369141 L 84.292969 100.3457 L 84.292969 101.95312 L 84.441406 102.58789 L 84.1875 102.87695 L 83.628906 103.2207 L 83.041016 103.71094 L 83.525391 104.25586 L 82.869141 104.83594 L 82.996094 105.20898 L 82.527344 105.73828 C 82.282565 105.94522 82.027668 106.14571 81.767578 106.33398 L 81.34375 106.33398 L 80.785156 106.67578 L 80.427734 106.67578 L 80.427734 106.21484 L 80.271484 105.29102 C 80.074798 104.71334 79.876261 104.14387 79.667969 103.57031 C 79.667969 103.14694 79.687571 102.72799 79.712891 102.30469 L 79.972656 101.73047 L 79.615234 101.03711 L 79.636719 100.08398 L 79.154297 99.541016 L 79.398438 98.751953 L 79.003906 98.304688 L 78.320312 98.304688 L 78.087891 98.044922 L 77.404297 98.476562 L 77.121094 98.164062 L 76.488281 98.707031 C 76.056731 98.217798 75.623582 97.729119 75.191406 97.240234 L 74.685547 96.033203 L 75.138672 95.341797 L 74.886719 95.058594 L 75.445312 93.732422 C 75.904203 93.161591 76.382361 92.614098 76.867188 92.064453 L 77.730469 91.833984 L 78.699219 91.714844 L 79.361328 91.892578 L 80.300781 92.837891 L 80.628906 92.466797 L 81.089844 92.40625 L 81.953125 92.697266 L 82.609375 92.697266 L 83.070312 92.294922 L 83.271484 92.003906 L 82.818359 91.714844 L 82.050781 91.662109 C 81.839132 91.368513 81.645827 91.059701 81.394531 90.798828 L 81.134766 90.910156 L 81.037109 91.662109 L 80.576172 91.140625 L 80.478516 90.566406 L 79.972656 90.164062 L 79.763672 90.164062 L 80.271484 90.738281 L 80.070312 91.259766 L 79.667969 91.371094 L 79.919922 90.857422 L 79.458984 90.626953 L 79.056641 90.164062 L 78.289062 90.335938 L 78.193359 90.566406 L 77.730469 90.857422 L 77.478516 91.490234 L 76.845703 91.802734 L 76.5625 91.490234 L 76.255859 91.490234 L 76.255859 90.447266 L 76.919922 90.105469 L 77.425781 90.105469 L 77.328125 89.703125 L 76.919922 89.300781 L 77.605469 89.160156 L 77.984375 88.728516 L 78.289062 88.207031 L 78.847656 88.207031 L 78.699219 87.804688 L 79.056641 87.574219 L 79.056641 88.035156 L 79.816406 88.207031 L 80.576172 87.574219 L 80.628906 87.291016 L 81.291016 86.828125 C 81.052025 86.857845 80.809707 86.875895 80.576172 86.939453 L 80.576172 86.425781 L 80.830078 85.845703 L 80.576172 85.845703 L 80.017578 86.367188 L 79.869141 86.658203 L 80.017578 87.058594 L 79.763672 87.744141 L 79.361328 87.513672 L 79.003906 87.111328 L 78.445312 87.513672 L 78.238281 86.597656 L 79.205078 85.964844 L 79.205078 85.623047 L 79.816406 85.220703 L 80.748047 84.996094 z M 67.238281 85.390625 L 67.208984 85.845703 L 66.642578 86.367188 L 65.376953 87.111328 L 65.525391 87.632812 L 66.492188 88.035156 L 66.642578 88.728516 L 67 87.974609 L 67.558594 87.744141 L 67.505859 87.402344 L 68.072266 86.425781 L 68.779297 86.828125 L 68.675781 87.291016 L 69.285156 87.058594 L 69.539062 87.574219 L 69.441406 87.923828 L 69.798828 88.035156 L 70.105469 88.326172 L 70 88.667969 L 69.136719 88.958984 L 68.525391 88.958984 L 67.662109 89.361328 L 69.033203 89.361328 L 68.578125 90.044922 L 67.662109 90.224609 L 67.251953 90.798828 L 66.544922 91.080078 L 66.1875 91.945312 L 65.21875 92.75 L 65.123047 93.904297 L 64.564453 93.210938 L 63.796875 93.039062 L 63.701172 93.382812 L 63.089844 93.382812 L 62.322266 93.962891 L 62.226562 94.648438 L 62.277344 95.28125 L 62.785156 95.572266 L 63.142578 95.400391 L 63.492188 94.939453 L 63.849609 94.939453 C 63.798359 95.342265 63.75207 95.741648 63.701172 96.144531 L 64.310547 96.085938 L 64.310547 96.71875 L 64.511719 97.298828 C 64.75826 97.450415 65.100069 97.45719 65.376953 97.537109 L 65.376953 97.412109 L 66.292969 96.607422 L 67.15625 97.240234 L 68.167969 97.128906 L 68.578125 98.214844 L 69.337891 98.386719 L 69.748047 99.199219 C 70.576255 99.625245 71.399945 100.05105 72.234375 100.46484 L 72.130859 101.32031 L 71.527344 102.18555 L 71.625 103.33984 L 71.222656 104.25586 L 70.455078 104.43359 L 70.105469 104.94727 L 70.253906 105.29102 L 69.748047 106.55664 L 69.083984 106.78711 L 68.935547 107.18945 L 68.681641 107.44336 C 68.033764 107.12437 67.42371 106.7463 66.84375 106.32617 L 67 105.64062 L 66.693359 104.94727 L 66.746094 103.74219 L 66.335938 103.16797 L 65.427734 102.35547 L 64.511719 100.6875 L 64.765625 99.832031 L 64.660156 99.601562 L 64.966797 99.138672 L 65.375 98.044922 L 65.375 97.955078 L 65.070312 97.8125 L 64.660156 97.873047 L 63.953125 97.351562 L 63.492188 96.777344 L 62.427734 96.488281 L 61.5625 95.980469 C 61.5676 91.559492 63.819934 87.671566 67.238281 85.390625 z M 75.742188 85.734375 L 76.048828 86.076172 L 75.4375 86.478516 L 75.080078 86.255859 L 75.132812 85.904297 L 75.333984 85.964844 L 75.742188 85.734375 z M 69.033203 85.845703 L 69.539062 86.076172 L 69.539062 86.478516 L 69.136719 86.478516 L 68.630859 86.136719 L 69.033203 85.845703 z M 77.068359 87.171875 L 77.365234 87.171875 C 77.514795 87.477078 77.655896 87.775542 77.775391 88.09375 L 78.132812 88.4375 L 77.724609 88.839844 L 77.166016 88.958984 L 77.269531 88.265625 L 77.269531 87.744141 L 77.068359 87.513672 L 77.068359 87.171875 z M 76.859375 87.863281 L 77.068359 88.376953 L 76.607422 88.609375 L 76.501953 87.974609 L 76.859375 87.863281 z M 69.84375 88.898438 L 70.306641 89.242188 L 70 89.703125 L 69.84375 88.898438 z M 22.966797 92.40625 C 22.412797 92.40625 21.966797 92.85225 21.966797 93.40625 L 21.966797 95.474609 C 21.966797 96.028609 22.412797 96.474609 22.966797 96.474609 L 53.998047 96.474609 C 54.552047 96.474609 54.998047 96.028609 54.998047 95.474609 L 54.998047 93.40625 C 54.998047 92.85225 54.552047 92.40625 53.998047 92.40625 L 22.966797 92.40625 z M 83.123047 93.390625 L 82.966797 93.560547 L 83.197266 94.394531 L 83.628906 94.878906 C 83.875372 95.590418 84.117741 96.269102 84.441406 96.949219 C 84.62571 96.949219 84.805146 96.947717 84.984375 96.935547 L 84.597656 96.488281 L 84.798828 95.974609 L 84.388672 95.511719 L 83.703125 94.044922 L 83.123047 93.390625 z M 22.966797 103.59375 C 22.412797 103.59375 21.966797 104.03975 21.966797 104.59375 L 21.966797 106.66016 C 21.966797 107.21416 22.412797 107.66016 22.966797 107.66016 L 56.439453 107.66016 C 56.993453 107.66016 57.439453 107.21416 57.439453 106.66016 L 57.439453 104.59375 C 57.439453 104.03975 56.993453 103.59375 56.439453 103.59375 L 22.966797 103.59375 z " style="fill:#aaaaaa"/>
</svg>