<?xml version="1.0" encoding="UTF-8" standalone="no"?>
<svg xmlns:dc="http://purl.org/dc/elements/1.1/"
     xmlns:cc="http://creativecommons.org/ns#"
     xmlns:rdf="http://www.w3.org/1999/02/22-rdf-syntax-ns#"
     xmlns:svg="http://www.w3.org/2000/svg"
     xmlns="http://www.w3.org/2000/svg"
     xmlns:xlink="http://www.w3.org/1999/xlink"
     width="128" height="128" version="1.1">
    <title>Libreoffice Draw Template Icon</title>
    <desc>This is shape (source) for Clarity vector icon theme for gtk</desc>
    <metadata>
        <rdf:RDF>
            <cc:Work rdf:about="">
                <dc:title>Libreoffice Draw Template Icon</dc:title>
                <dc:description>This is shape (source) for Clarity vector icon theme for gtk</dc:description>
                <dc:creator>
                    <cc:Agent>
                        <dc:title>Jakub Jankiewicz</dc:title>
                    </cc:Agent>
                </dc:creator>
                <dc:rights>
                    <cc:Agent>
                        <dc:title>Jakub Jankiewicz</dc:title>
                    </cc:Agent>
                </dc:rights>
                <dc:date>2010</dc:date>
                <dc:format>image/svg+xml</dc:format>
                <dc:type rdf:resource="http://purl.org/dc/dcmitype/StillImage" />
                <cc:license rdf:resource="http://creativecommons.org/licenses/by-sa/3.0/" />
             </cc:Work>
        </rdf:RDF>
    </metadata>
    <path d="M 14.494141 7.84375 C 11.272581 7.84375 8.6191406 10.528441 8.6191406 13.75 L 8.6191406 114.28125 C 8.6191406 117.50281 11.257171 120.15625 14.494141 120.15625 L 92.148438 120.15625 C 95.385407 120.15625 98.054688 117.51822 98.054688 114.28125 L 98.054688 49.78125 L 98.054688 48.96875 L 97.460938 48.375 L 57.585938 8.4375 L 56.992188 7.84375 L 56.148438 7.84375 L 14.494141 7.84375 z M 106.58203 7.84375 L 106.58203 13.033203 L 115.34766 13.033203 L 115.34766 17.025391 L 106.58203 17.025391 L 106.58203 22.615234 L 111.07227 22.615234 L 111.07227 26.640625 L 106.58203 26.640625 L 106.58203 32.228516 L 111.07227 32.228516 L 111.07227 36.220703 L 106.58203 36.220703 L 106.58203 41.84375 L 111.07227 41.84375 L 111.07227 45.835938 L 106.58203 45.835938 L 106.58203 51.423828 L 115.34766 51.423828 L 115.34766 55.449219 L 106.58203 55.449219 L 106.58203 61.039062 L 111.07227 61.039062 L 111.07227 65.03125 L 106.58203 65.03125 L 106.58203 70.654297 L 111.07227 70.654297 L 111.07227 74.646484 L 106.58203 74.646484 L 106.58203 80.234375 L 111.07227 80.234375 L 111.07227 84.259766 L 106.58203 84.259766 L 106.58203 89.849609 L 115.34766 89.849609 L 115.34766 93.841797 L 106.58203 93.841797 L 106.58203 99.462891 L 111.07227 99.462891 L 111.07227 103.45508 L 106.58203 103.45508 L 106.58203 109.04492 L 111.07227 109.04492 L 111.07227 113.07031 L 106.58203 113.07031 L 106.58203 120.15625 L 119.38086 120.15625 L 119.38086 7.84375 L 106.58203 7.84375 z M 93.710938 8.28125 C 91.854957 8.28125 75.527322 8.4375 72.304688 8.4375 C 69.082059 8.4375 68.08497 10.806914 70.023438 13.1875 C 71.961901 15.568085 91.855297 35.042857 92.960938 36.3125 C 94.440417 38.011404 97.648438 37.807027 97.648438 33.875 L 97.648438 12.21875 C 97.648438 10.333734 96.179888 8.28125 93.710938 8.28125 z M 14.494141 11.84375 L 55.304688 11.84375 L 94.054688 50.59375 L 94.054688 114.28125 C 94.054688 115.34686 93.214028 116.15625 92.148438 116.15625 L 14.494141 116.15625 C 13.428531 116.15625 12.619141 115.36227 12.619141 114.28125 L 12.619141 13.75 C 12.619141 12.668987 13.413121 11.84375 14.494141 11.84375 z M 62.304688 52.71875 L 62.304688 53.78125 L 62.304688 60.53125 L 51.148438 71.65625 C 50.54759 71.313771 49.858273 71.09375 49.117188 71.09375 C 46.841766 71.09375 44.992187 72.97458 44.992188 75.25 C 44.992188 75.99108 45.212213 76.649151 45.554688 77.25 L 34.400391 88.40625 L 27.681641 88.40625 L 26.587891 88.40625 L 26.587891 89.5 L 26.587891 96.6875 L 26.587891 97.75 L 27.681641 97.75 L 34.867188 97.75 L 35.960938 97.75 L 35.960938 96.6875 L 35.960938 89.96875 L 46.242188 79.6875 C 42.25231 87.395981 42.551423 96.97627 47.835938 104.59375 L 49.554688 103.34375 C 44.418233 95.93971 44.464022 86.52736 48.867188 79.3125 C 48.955458 79.3174 49.027477 79.375 49.117188 79.375 C 51.392606 79.375 53.273438 77.52541 53.273438 75.25 C 53.273438 74.92575 53.187868 74.58391 53.117188 74.28125 C 53.749283 73.72622 54.409096 73.17873 55.117188 72.6875 C 62.225344 67.75631 71.562608 67.44287 78.992188 71.875 L 80.085938 70.03125 C 76.013559 67.60186 71.450718 66.46873 66.898438 66.625 C 63.314335 66.74805 59.741118 67.69779 56.492188 69.40625 L 63.835938 62.0625 L 70.554688 62.0625 L 71.648438 62.0625 L 71.648438 60.96875 L 71.648438 53.78125 L 71.648438 52.71875 L 70.554688 52.71875 L 63.367188 52.71875 L 62.304688 52.71875 z M 64.460938 54.875 L 69.492188 54.875 L 69.492188 59.90625 L 64.460938 59.90625 L 64.460938 54.875 z M 28.775391 90.5625 L 33.775391 90.5625 L 33.775391 95.59375 L 28.775391 95.59375 L 28.775391 90.5625 z " style="fill:#aaaaaa"/>
</svg>