<?xml version="1.0" encoding="UTF-8" standalone="no"?>
<svg xmlns:dc="http://purl.org/dc/elements/1.1/"
     xmlns:cc="http://creativecommons.org/ns#"
     xmlns:rdf="http://www.w3.org/1999/02/22-rdf-syntax-ns#"
     xmlns:svg="http://www.w3.org/2000/svg"
     xmlns="http://www.w3.org/2000/svg"
     xmlns:xlink="http://www.w3.org/1999/xlink"
     width="128" height="128" version="1.1">
    <title>Libreoffice Formula Icon</title>
    <desc>This is shape (source) for Clarity vector icon theme for gtk</desc>
    <metadata>
        <rdf:RDF>
            <cc:Work rdf:about="">
                <dc:title>Libreoffice Formula Icon</dc:title>
                <dc:description>This is shape (source) for Clarity vector icon theme for gtk</dc:description>
                <dc:creator>
                    <cc:Agent>
                        <dc:title>Jakub Jankiewicz</dc:title>
                    </cc:Agent>
                </dc:creator>
                <dc:rights>
                    <cc:Agent>
                        <dc:title>Jakub Jankiewicz</dc:title>
                    </cc:Agent>
                </dc:rights>
                <dc:date>2010</dc:date>
                <dc:format>image/svg+xml</dc:format>
                <dc:type rdf:resource="http://purl.org/dc/dcmitype/StillImage" />
                <cc:license rdf:resource="http://creativecommons.org/licenses/by-sa/3.0/" />
             </cc:Work>
        </rdf:RDF>
    </metadata>
    <path d="m 25.157228,7.8437477 c -3.22156,0 -5.875,2.6847003 -5.875,5.9062503 V 114.28125 c 0,3.22156 2.638029,5.875 5.875,5.875 h 77.654292 c 3.23697,0 5.90625,-2.63803 5.90625,-5.875 v -64.499997 -0.8125 l -0.59375,-0.59375 -39.874997,-39.9375053 -0.59375,-0.59375 h -0.84375 z m 79.216792,0.4375 c -1.85598,0 -18.183614,0.15625 -21.406247,0.15625 -3.222629,0 -4.219719,2.3694203 -2.28125,4.7500003 1.938462,2.38059 21.831857,21.855362 22.937497,23.125005 1.47948,1.698904 4.6875,1.494527 4.6875,-2.4375 V 12.218748 c 0,-1.88501 -1.46855,-3.9375003 -3.9375,-3.9375003 z M 25.157228,11.843748 h 40.810545 l 38.749997,38.750005 v 63.687497 c 0,1.06561 -0.84066,1.875 -1.90625,1.875 H 25.157228 c -1.06561,0 -1.875,-0.79398 -1.875,-1.875 V 13.749998 c 0,-1.08101 0.79398,-1.90625 1.875,-1.90625 z m 17.84375,41.093755 v 1.34375 L 62.813476,79.625003 43.000978,103 v 1.375 h 39.781248 l 2.21875,-15.562497 -1.4375,-0.34375 c -0.935656,3.616037 -2.34756,5.9871 -4.21875,7.125 -1.871265,1.137918 -4.584869,1.718757 -8.125,1.71875 h -19.53125 l 17.84375,-21.0625 -15.6875,-20.09375 h 17.5625 c 2.579231,4.8e-5 4.467733,0.299412 5.65625,0.90625 1.188448,0.606932 2.129716,1.603304 2.8125,2.96875 0.682707,1.340248 1.104202,3.289816 1.28125,5.84375 h 1.4375 l -1,-12.9375 z" style="fill:#aaaaaa"/>
</svg>