<?xml version="1.0" encoding="UTF-8" standalone="no"?>
<svg xmlns:dc="http://purl.org/dc/elements/1.1/"
     xmlns:cc="http://creativecommons.org/ns#"
     xmlns:rdf="http://www.w3.org/1999/02/22-rdf-syntax-ns#"
     xmlns:svg="http://www.w3.org/2000/svg"
     xmlns="http://www.w3.org/2000/svg"
     xmlns:xlink="http://www.w3.org/1999/xlink"
     width="128" height="128" version="1.1">
    <title>Libreoffice Text Template Icon</title>
    <desc>This is shape (source) for Clarity vector icon theme for gtk</desc>
    <metadata>
        <rdf:RDF>
            <cc:Work rdf:about="">
                <dc:title>Libreoffice Text Template Icon</dc:title>
                <dc:description>This is shape (source) for Clarity vector icon theme for gtk</dc:description>
                <dc:creator>
                    <cc:Agent>
                        <dc:title>Jakub Jankiewicz</dc:title>
                    </cc:Agent>
                </dc:creator>
                <dc:rights>
                    <cc:Agent>
                        <dc:title>Jakub Jankiewicz</dc:title>
                    </cc:Agent>
                </dc:rights>
                <dc:date>2010</dc:date>
                <dc:format>image/svg+xml</dc:format>
                <dc:type rdf:resource="http://purl.org/dc/dcmitype/StillImage" />
                <cc:license rdf:resource="http://creativecommons.org/licenses/by-sa/3.0/" />
             </cc:Work>
        </rdf:RDF>
    </metadata>
    <path d="M 16.478516 7.84375 C 13.256975 7.84375 10.603516 10.528455 10.603516 13.75 L 10.603516 114.28125 C 10.603516 117.50279 13.241565 120.15625 16.478516 120.15625 L 94.134766 120.15625 C 97.371718 120.15625 100.04102 117.5182 100.04102 114.28125 L 100.04102 49.78125 L 100.04102 48.96875 L 99.447266 48.375 L 59.572266 8.4375 L 58.978516 7.84375 L 58.134766 7.84375 L 16.478516 7.84375 z M 108.56836 7.84375 L 108.56836 13.033203 L 117.33398 13.033203 L 117.33398 17.025391 L 108.56836 17.025391 L 108.56836 22.615234 L 113.05859 22.615234 L 113.05859 26.640625 L 108.56836 26.640625 L 108.56836 32.228516 L 113.05859 32.228516 L 113.05859 36.220703 L 108.56836 36.220703 L 108.56836 41.84375 L 113.05859 41.84375 L 113.05859 45.835938 L 108.56836 45.835938 L 108.56836 51.423828 L 117.33398 51.423828 L 117.33398 55.449219 L 108.56836 55.449219 L 108.56836 61.039062 L 113.05859 61.039062 L 113.05859 65.03125 L 108.56836 65.03125 L 108.56836 70.654297 L 113.05859 70.654297 L 113.05859 74.646484 L 108.56836 74.646484 L 108.56836 80.234375 L 113.05859 80.234375 L 113.05859 84.259766 L 108.56836 84.259766 L 108.56836 89.849609 L 117.33398 89.849609 L 117.33398 93.841797 L 108.56836 93.841797 L 108.56836 99.462891 L 113.05859 99.462891 L 113.05859 103.45508 L 108.56836 103.45508 L 108.56836 109.04492 L 113.05859 109.04492 L 113.05859 113.07031 L 108.56836 113.07031 L 108.56836 120.15625 L 121.36719 120.15625 L 121.36719 7.84375 L 108.56836 7.84375 z M 95.697266 8.28125 C 93.841297 8.28125 77.513632 8.4375 74.291016 8.4375 C 71.068406 8.4375 70.07131 10.806925 72.009766 13.1875 C 73.948219 15.568075 93.841632 35.042863 94.947266 36.3125 C 96.426737 38.011397 99.634766 37.80701 99.634766 33.875 L 99.634766 12.21875 C 99.634766 10.333742 98.166203 8.28125 95.697266 8.28125 z M 16.478516 11.84375 L 57.291016 11.84375 L 96.041016 50.59375 L 96.041016 114.28125 C 96.041016 115.34685 95.20035 116.15625 94.134766 116.15625 L 16.478516 116.15625 C 15.412917 116.15625 14.603516 115.36226 14.603516 114.28125 L 14.603516 13.75 C 14.603516 12.668992 15.397507 11.84375 16.478516 11.84375 z M 25.572266 56.216797 C 24.708131 56.216797 24.009766 56.915161 24.009766 57.779297 L 24.009766 59.123047 C 24.009766 59.987183 24.708131 60.685547 25.572266 60.685547 L 50.759766 60.685547 C 51.623901 60.685547 52.322266 59.987183 52.322266 59.123047 L 52.322266 57.779297 C 52.322266 56.915161 51.623901 56.216797 50.759766 56.216797 L 25.572266 56.216797 z M 59.884766 56.216797 C 59.02063 56.216797 58.322266 56.915161 58.322266 57.779297 L 58.322266 77.029297 C 58.322266 77.893433 59.02063 78.591797 59.884766 78.591797 L 85.072266 78.591797 C 85.936402 78.591797 86.634766 77.893433 86.634766 77.029297 L 86.634766 57.779297 C 86.634766 56.915161 85.936402 56.216797 85.072266 56.216797 L 59.884766 56.216797 z M 25.572266 65.185547 C 24.70813 65.185547 24.009766 65.883911 24.009766 66.748047 L 24.009766 68.060547 C 24.009766 68.924683 24.708131 69.623047 25.572266 69.623047 L 50.759766 69.623047 C 51.623901 69.623047 52.322266 68.924683 52.322266 68.060547 L 52.322266 66.748047 C 52.322266 65.883911 51.623901 65.185547 50.759766 65.185547 L 25.572266 65.185547 z M 25.572266 74.123047 C 24.70813 74.123047 24.009766 74.821411 24.009766 75.685547 L 24.009766 77.029297 C 24.009766 77.893433 24.708131 78.591797 25.572266 78.591797 L 50.759766 78.591797 C 51.623901 78.591797 52.322266 77.893433 52.322266 77.029297 L 52.322266 75.685547 C 52.322266 74.821411 51.623901 74.123047 50.759766 74.123047 L 25.572266 74.123047 z M 25.572266 83.091797 C 24.70813 83.091797 24.009766 83.790161 24.009766 84.654297 L 24.009766 85.998047 C 24.009766 86.862183 24.708131 87.560547 25.572266 87.560547 L 85.072266 87.560547 C 85.936402 87.560547 86.634766 86.862183 86.634766 85.998047 L 86.634766 84.654297 C 86.634766 83.790161 85.936402 83.091797 85.072266 83.091797 L 25.572266 83.091797 z M 25.572266 92.060547 C 24.70813 92.060547 24.009766 92.758911 24.009766 93.623047 L 24.009766 94.935547 C 24.009766 95.799683 24.708131 96.498047 25.572266 96.498047 L 85.072266 96.498047 C 85.936402 96.498047 86.634766 95.799683 86.634766 94.935547 L 86.634766 93.623047 C 86.634766 92.758911 85.936402 92.060547 85.072266 92.060547 L 25.572266 92.060547 z M 25.572266 100.99805 C 24.70813 100.99805 24.009766 101.69641 24.009766 102.56055 L 24.009766 103.9043 C 24.009766 104.76844 24.708131 105.4668 25.572266 105.4668 L 85.072266 105.4668 C 85.936402 105.4668 86.634766 104.76844 86.634766 103.9043 L 86.634766 102.56055 C 86.634766 101.69641 85.936402 100.99805 85.072266 100.99805 L 25.572266 100.99805 z " style="fill:#aaaaaa"/>
</svg>