<?xml version="1.0" encoding="UTF-8" standalone="no"?>
<svg xmlns:dc="http://purl.org/dc/elements/1.1/"
     xmlns:cc="http://creativecommons.org/ns#"
     xmlns:rdf="http://www.w3.org/1999/02/22-rdf-syntax-ns#"
     xmlns:svg="http://www.w3.org/2000/svg"
     xmlns="http://www.w3.org/2000/svg"
     xmlns:xlink="http://www.w3.org/1999/xlink"
     width="128" height="128" version="1.1">
    <title>Formated Document Template Icon</title>
    <desc>This is shape (source) for Clarity vector icon theme for gtk</desc>
    <metadata>
        <rdf:RDF>
            <cc:Work rdf:about="">
                <dc:title>Formated Document Template Icon</dc:title>
                <dc:description>This is shape (source) for Clarity vector icon theme for gtk</dc:description>
                <dc:creator>
                    <cc:Agent>
                        <dc:title>Jakub Jankiewicz</dc:title>
                    </cc:Agent>
                </dc:creator>
                <dc:rights>
                    <cc:Agent>
                        <dc:title>Jakub Jankiewicz</dc:title>
                    </cc:Agent>
                </dc:rights>
                <dc:date>2010</dc:date>
                <dc:format>image/svg+xml</dc:format>
                <dc:type rdf:resource="http://purl.org/dc/dcmitype/StillImage" />
                <cc:license rdf:resource="http://creativecommons.org/licenses/by-sa/3.0/" />
             </cc:Work>
        </rdf:RDF>
    </metadata>
    <path d="M 14.4375 11.25 C 11.53563 11.54359 9.3125 14.015185 9.3125 17 L 9.3125 111 C 9.3125 114.1838 11.84744 116.75 15.03125 116.75 L 84.84375 116.75 C 88.027549 116.75 90.5625 114.1838 90.5625 111 L 90.5625 40.375 L 69.53125 40.375 C 65.22514 40.375 61.46875 37.233891 61.46875 33.0625 L 61.46875 11.25 L 15.03125 11.25 C 14.83226 11.25 14.63096 11.23043 14.4375 11.25 z M 65.46875 11.25 L 65.46875 33.0625 C 65.46875 34.776623 67.10072 36.375 69.53125 36.375 L 90.5625 36.375 L 65.46875 11.25 z M 103.71875 11.25 L 103.71875 16.125 L 113.96875 16.125 L 113.96875 19.875 L 103.71875 19.875 L 103.71875 25.125 L 108.96875 25.125 L 108.96875 28.90625 L 103.71875 28.90625 L 103.71875 34.15625 L 108.96875 34.15625 L 108.96875 37.90625 L 103.71875 37.90625 L 103.71875 43.1875 L 108.96875 43.1875 L 108.96875 46.9375 L 103.71875 46.9375 L 103.71875 52.1875 L 113.96875 52.1875 L 113.96875 55.96875 L 103.71875 55.96875 L 103.71875 61.21875 L 108.96875 61.21875 L 108.96875 64.96875 L 103.71875 64.96875 L 103.71875 70.25 L 108.96875 70.25 L 108.96875 74 L 103.71875 74 L 103.71875 79.25 L 108.96875 79.25 L 108.96875 83.03125 L 103.71875 83.03125 L 103.71875 88.28125 L 113.96875 88.28125 L 113.96875 92.03125 L 103.71875 92.03125 L 103.71875 97.3125 L 108.96875 97.3125 L 108.96875 101.0625 L 103.71875 101.0625 L 103.71875 106.3125 L 108.96875 106.3125 L 108.96875 110.09375 L 103.71875 110.09375 L 103.71875 116.75 L 118.6875 116.75 L 118.6875 11.25 L 103.71875 11.25 z M 20.1875 54.6875 L 45.375 54.6875 C 46.239139 54.6875 46.9375 55.385858 46.9375 56.25 L 46.9375 57.59375 C 46.9375 58.457892 46.239139 59.15625 45.375 59.15625 L 20.1875 59.15625 C 19.32336 59.15625 18.625 58.457892 18.625 57.59375 L 18.625 56.25 C 18.625 55.385858 19.32336 54.6875 20.1875 54.6875 z M 54.5 54.6875 L 79.6875 54.6875 C 80.551639 54.6875 81.25 55.385858 81.25 56.25 L 81.25 75.5 C 81.25 76.364142 80.551639 77.0625 79.6875 77.0625 L 54.5 77.0625 C 53.63586 77.0625 52.9375 76.364142 52.9375 75.5 L 52.9375 56.25 C 52.9375 55.385858 53.63586 54.6875 54.5 54.6875 z M 20.1875 63.65625 L 45.375 63.65625 C 46.239139 63.65625 46.9375 64.354608 46.9375 65.21875 L 46.9375 66.53125 C 46.9375 67.395392 46.239139 68.09375 45.375 68.09375 L 20.1875 68.09375 C 19.32336 68.09375 18.625 67.395392 18.625 66.53125 L 18.625 65.21875 C 18.625 64.354608 19.32336 63.65625 20.1875 63.65625 z M 20.1875 72.59375 L 45.375 72.59375 C 46.239139 72.59375 46.9375 73.292108 46.9375 74.15625 L 46.9375 75.5 C 46.9375 76.364142 46.239139 77.0625 45.375 77.0625 L 20.1875 77.0625 C 19.32336 77.0625 18.625 76.364142 18.625 75.5 L 18.625 74.15625 C 18.625 73.292108 19.32336 72.59375 20.1875 72.59375 z M 20.1875 81.5625 L 79.6875 81.5625 C 80.551639 81.5625 81.25 82.260858 81.25 83.125 L 81.25 84.46875 C 81.25 85.332892 80.551639 86.03125 79.6875 86.03125 L 20.1875 86.03125 C 19.32336 86.03125 18.625 85.332892 18.625 84.46875 L 18.625 83.125 C 18.625 82.260858 19.32336 81.5625 20.1875 81.5625 z M 20.1875 90.53125 L 79.6875 90.53125 C 80.551639 90.53125 81.25 91.22961 81.25 92.09375 L 81.25 93.40625 C 81.25 94.270391 80.551639 94.96875 79.6875 94.96875 L 20.1875 94.96875 C 19.32336 94.96875 18.625 94.270391 18.625 93.40625 L 18.625 92.09375 C 18.625 91.22961 19.32336 90.53125 20.1875 90.53125 z M 20.1875 99.46875 L 79.6875 99.46875 C 80.551639 99.46875 81.25 100.16711 81.25 101.03125 L 81.25 102.375 C 81.25 103.23914 80.551639 103.9375 79.6875 103.9375 L 20.1875 103.9375 C 19.32336 103.9375 18.625 103.23914 18.625 102.375 L 18.625 101.03125 C 18.625 100.16711 19.32336 99.46875 20.1875 99.46875 z " style="fill:#aaaaaa"/>
</svg>