<?xml version="1.0" encoding="UTF-8" standalone="no"?>
<svg xmlns:dc="http://purl.org/dc/elements/1.1/"
     xmlns:cc="http://creativecommons.org/ns#"
     xmlns:rdf="http://www.w3.org/1999/02/22-rdf-syntax-ns#"
     xmlns:svg="http://www.w3.org/2000/svg"
     xmlns="http://www.w3.org/2000/svg"
     xmlns:xlink="http://www.w3.org/1999/xlink"
     width="128" height="128" version="1.1">
    <title>Database File Icon</title>
    <desc>This is shape (source) for Clarity vector icon theme for gtk</desc>
    <metadata>
        <rdf:RDF>
            <cc:Work rdf:about="">
                <dc:title>Database File Icon</dc:title>
                <dc:description>This is shape (source) for Clarity vector icon theme for gtk</dc:description>
                <dc:creator>
                    <cc:Agent>
                        <dc:title>Jakub Jankiewicz</dc:title>
                    </cc:Agent>
                </dc:creator>
                <dc:rights>
                    <cc:Agent>
                        <dc:title>Jakub Jankiewicz</dc:title>
                    </cc:Agent>
                </dc:rights>
                <dc:date>2010</dc:date>
                <dc:format>image/svg+xml</dc:format>
                <dc:type rdf:resource="http://purl.org/dc/dcmitype/StillImage" />
                <cc:license rdf:resource="http://creativecommons.org/licenses/by-sa/3.0/" />
             </cc:Work>
        </rdf:RDF>
    </metadata>
    <path d="M 28.5 11.25 C 25.598125 11.54359 23.375 14.015184 23.375 17 L 23.375 111 C 23.375 114.1838 25.90994 116.75 29.09375 116.75 L 98.90625 116.75 C 102.09005 116.75 104.625 114.1838 104.625 111 L 104.625 40.375 L 83.59375 40.375 C 79.28764 40.375 75.53125 37.233891 75.53125 33.0625 L 75.53125 11.25 L 29.09375 11.25 C 28.894762 11.25 28.693458 11.23043 28.5 11.25 z M 79.53125 11.25 L 79.53125 33.0625 C 79.53125 34.776622 81.16322 36.375 83.59375 36.375 L 104.625 36.375 L 79.53125 11.25 z M 64 53.84375 C 77.894806 53.84375 89.15625 57.670336 89.15625 62.375 L 89.15625 68.6875 C 89.15625 73.392164 77.894806 77.21875 64 77.21875 C 50.105195 77.21875 38.84375 73.392164 38.84375 68.6875 L 38.84375 62.375 C 38.84375 57.670336 50.105195 53.84375 64 53.84375 z M 38.84375 73.6875 C 38.84375 78.392164 50.105195 82.21875 64 82.21875 C 77.894806 82.21875 89.15625 78.392164 89.15625 73.6875 L 89.15625 80 C 89.15625 84.704664 77.894806 88.53125 64 88.53125 C 50.105195 88.53125 38.84375 84.704664 38.84375 80 L 38.84375 73.6875 z M 38.84375 85 C 38.84375 89.704664 50.105195 93.53125 64 93.53125 C 77.894806 93.53125 89.15625 89.704664 89.15625 85 L 89.15625 91.3125 C 89.15625 96.017164 77.894806 99.84375 64 99.84375 C 50.105195 99.84375 38.84375 96.017164 38.84375 91.3125 L 38.84375 85 z " style="fill:#aaaaaa"/>
</svg>