<?xml version="1.0" encoding="UTF-8" standalone="no"?>
<svg xmlns:dc="http://purl.org/dc/elements/1.1/"
     xmlns:cc="http://creativecommons.org/ns#"
     xmlns:rdf="http://www.w3.org/1999/02/22-rdf-syntax-ns#"
     xmlns:svg="http://www.w3.org/2000/svg"
     xmlns="http://www.w3.org/2000/svg"
     xmlns:xlink="http://www.w3.org/1999/xlink"
     width="128" height="128" version="1.1">
    <title>Math Template FIle</title>
    <desc>This is shape (source) for Clarity vector icon theme for gtk</desc>
    <metadata>
        <rdf:RDF>
            <cc:Work rdf:about="">
                <dc:title>Math Template FIle</dc:title>
                <dc:description>This is shape (source) for Clarity vector icon theme for gtk</dc:description>
                <dc:creator>
                    <cc:Agent>
                        <dc:title>Jakub Jankiewicz</dc:title>
                    </cc:Agent>
                </dc:creator>
                <dc:rights>
                    <cc:Agent>
                        <dc:title>Jakub Jankiewicz</dc:title>
                    </cc:Agent>
                </dc:rights>
                <dc:date>2010</dc:date>
                <dc:format>image/svg+xml</dc:format>
                <dc:type rdf:resource="http://purl.org/dc/dcmitype/StillImage" />
                <cc:license rdf:resource="http://creativecommons.org/licenses/by-sa/3.0/" />
             </cc:Work>
        </rdf:RDF>
    </metadata>
    <path d="M 15.0625 10.1875 C 11.878696 10.1875 9.34375 12.753696 9.34375 15.9375 L 9.34375 109.96875 C 9.34375 113.15255 11.878696 115.71875 15.0625 115.71875 L 84.875 115.71875 C 88.0588 115.71875 90.59375 113.15255 90.59375 109.96875 L 90.59375 39.3125 L 69.5625 39.3125 C 65.256392 39.3125 61.5 36.171391 61.5 32 L 61.5 10.1875 L 15.0625 10.1875 z M 65.5 10.1875 L 65.5 32 C 65.5 33.714122 67.131968 35.3125 69.5625 35.3125 L 90.59375 35.3125 L 65.5 10.1875 z M 103.6875 10.21875 L 103.6875 15.09375 L 113.9375 15.09375 L 113.9375 18.84375 L 103.6875 18.84375 L 103.6875 24.09375 L 108.9375 24.09375 L 108.9375 27.875 L 103.6875 27.875 L 103.6875 33.125 L 108.9375 33.125 L 108.9375 36.875 L 103.6875 36.875 L 103.6875 42.15625 L 108.9375 42.15625 L 108.9375 45.90625 L 103.6875 45.90625 L 103.6875 51.15625 L 113.9375 51.15625 L 113.9375 54.9375 L 103.6875 54.9375 L 103.6875 60.1875 L 108.9375 60.1875 L 108.9375 63.9375 L 103.6875 63.9375 L 103.6875 69.21875 L 108.9375 69.21875 L 108.9375 72.96875 L 103.6875 72.96875 L 103.6875 78.21875 L 108.9375 78.21875 L 108.9375 82 L 103.6875 82 L 103.6875 87.25 L 113.9375 87.25 L 113.9375 91 L 103.6875 91 L 103.6875 96.28125 L 108.9375 96.28125 L 108.9375 100.03125 L 103.6875 100.03125 L 103.6875 105.28125 L 108.9375 105.28125 L 108.9375 109.0625 L 103.6875 109.0625 L 103.6875 115.71875 L 118.65625 115.71875 L 118.65625 10.21875 L 103.6875 10.21875 z M 28.96875 51.34375 L 67.5625 51.34375 L 68.5625 64.28125 L 67.125 64.28125 C 66.947952 61.727316 66.526457 59.777748 65.84375 58.4375 C 65.160966 57.072054 64.219698 56.075682 63.03125 55.46875 C 61.842733 54.861912 59.954231 54.562548 57.375 54.5625 L 39.8125 54.5625 L 55.5 74.65625 L 37.65625 95.71875 L 57.1875 95.71875 C 60.727631 95.718757 63.441235 95.137918 65.3125 94 C 67.18369 92.8621 68.595594 90.491037 69.53125 86.875 L 70.96875 87.21875 L 68.75 102.78125 L 28.96875 102.78125 L 28.96875 101.40625 L 48.78125 78.03125 L 28.96875 52.6875 L 28.96875 51.34375 z " style="fill:#aaaaaa"/>
</svg>