<?xml version="1.0" encoding="UTF-8" standalone="no"?>
<svg xmlns:dc="http://purl.org/dc/elements/1.1/"
     xmlns:cc="http://creativecommons.org/ns#"
     xmlns:rdf="http://www.w3.org/1999/02/22-rdf-syntax-ns#"
     xmlns:svg="http://www.w3.org/2000/svg"
     xmlns="http://www.w3.org/2000/svg"
     xmlns:xlink="http://www.w3.org/1999/xlink"
     width="128" height="128" version="1.1">
    <title>Gstreamer Editing Services project file icon</title>
    <desc>This is shape (source) for Clarity vector icon theme for gtk</desc>
    <metadata>
        <rdf:RDF>
            <cc:Work rdf:about="">
                <dc:title>Gstreamer Editing Services project file icon</dc:title>
                <dc:description>This is shape (source) for Clarity vector icon theme for gtk</dc:description>
                <dc:creator>
                    <cc:Agent>
                        <dc:title>Jakub Jankiewicz</dc:title>
                    </cc:Agent>
                </dc:creator>
                <dc:rights>
                    <cc:Agent>
                        <dc:title>Jakub Jankiewicz</dc:title>
                    </cc:Agent>
                </dc:rights>
                <dc:date>2010</dc:date>
                <dc:format>image/svg+xml</dc:format>
                <dc:type rdf:resource="http://purl.org/dc/dcmitype/StillImage" />
                <cc:license rdf:resource="http://creativecommons.org/licenses/by-sa/3.0/" />
             </cc:Work>
        </rdf:RDF>
    </metadata>
    <path d="m 29.09375,11.234377 c -3.183804,0 -5.71875,2.566196 -5.71875,5.75 l 0,94.031243 c 0,3.18381 2.534946,5.75 5.71875,5.75 l 69.8125,0 c 3.1838,0 5.71875,-2.56619 5.71875,-5.75 l 0,-70.656243 -21.03125,0 c -4.306108,0 -8.0625,-3.141109 -8.0625,-7.3125 l 0,-21.8125 -46.4375,0 z m 50.4375,0 0,21.8125 c 0,1.714122 1.631968,3.3125 4.0625,3.3125 l 21.03125,0 -25.09375,-25.125 z m -41.119141,44.830078 51.175782,0 c 3.297701,0 5.96875,2.651512 5.96875,5.949219 l 0,18.326172 0,2.304687 0,13.419922 c 0,4.657935 -14.069034,8.412105 -31.546875,8.412105 -17.477841,0 -31.566407,-3.75417 -31.566407,-8.412105 l 0,-13.419922 0,-2.304687 0,-18.326172 c 0,-3.297706 2.671042,-5.949219 5.96875,-5.949219 z m 0.300782,7.111328 0,30.605469 50.574218,0 0,-30.605469 -50.574218,0 z m 18.83789,2.476563 0.675781,0 0.621094,1.332031 0.01758,0.285156 -0.195312,0.941407 1.24414,0.496093 0.498047,-0.78125 0.230469,-0.21289 1.367188,-0.480469 0.480468,0.46289 -0.480468,1.384766 -0.195313,0.212891 -0.798828,0.515625 0.515625,1.24414 0.90625,-0.195312 0.318359,0 1.314453,0.638672 0,0.675781 -1.314453,0.638672 -0.318359,0 -0.90625,-0.195313 -0.515625,1.226563 0.798828,0.533203 0.195313,0.212891 0.480468,1.384765 -0.480468,0.480469 -1.367188,-0.498047 -0.230469,-0.21289 -0.498047,-0.78125 -1.24414,0.498046 0.195312,0.941407 -0.01758,0.283203 -0.621094,1.332031 -0.675781,0 -0.621093,-1.332031 -0.01758,-0.283203 0.195313,-0.941407 -1.244141,-0.498046 -0.496093,0.78125 -0.232422,0.21289 -1.367188,0.498047 -0.478516,-0.480469 0.478516,-1.384765 0.212891,-0.212891 0.800781,-0.533203 -0.515625,-1.226563 -0.923828,0.195313 -0.302735,0 -1.332031,-0.638672 0,-0.675781 1.332031,-0.638672 0.302735,0 0.923828,0.195312 0.515625,-1.24414 -0.800781,-0.515625 -0.212891,-0.212891 -0.478516,-1.384766 0.478516,-0.46289 1.367188,0.480469 0.232422,0.21289 0.496093,0.78125 1.244141,-0.496093 -0.195313,-0.941407 0.01758,-0.285156 0.621093,-1.332031 z m 0.337891,4.15625 c -1.120927,0 -2.025391,0.904466 -2.025391,2.02539 0,1.120925 0.904464,2.025391 2.025391,2.025391 1.120921,0 2.042969,-0.904466 2.042969,-2.025391 0,-1.120924 -0.922048,-2.02539 -2.042969,-2.02539 z m 6.964844,3.943359 1.189453,1.296875 0.160156,0.427734 0.160156,1.046876 1.722657,0 0.142578,-1.046876 0.177734,-0.427734 1.189453,-1.296875 0.871094,0.267578 0.195312,1.757813 -0.107421,0.46289 -0.498047,0.923828 1.386718,1.011719 0.728516,-0.763672 0.408203,-0.230468 1.722656,-0.355469 0.533204,0.728516 -0.851563,1.527343 -0.373047,0.302735 -0.943359,0.460937 0.533203,1.634766 1.048828,-0.177735 0.460938,0.03516 1.582031,0.728515 0,0.90625 -1.582031,0.728516 -0.460938,0.05273 -1.048828,-0.195312 -0.533203,1.634765 0.943359,0.460938 0.373047,0.302734 0.851563,1.544922 -0.533204,0.710938 -1.722656,-0.337891 -0.408203,-0.248047 -0.728516,-0.763672 -1.386718,1.011719 0.498047,0.941406 0.107421,0.462891 -0.195312,1.740234 -0.871094,0.285157 -1.189453,-1.296876 -0.177734,-0.445312 -0.142578,-1.029297 -1.722657,0 -0.160156,1.029297 -0.160156,0.445312 -1.189453,1.296876 -0.871094,-0.285157 -0.195313,-1.740234 0.125,-0.462891 0.478516,-0.941406 -1.384766,-1.011719 -0.728515,0.763672 -0.408203,0.248047 -1.72461,0.337891 -0.513672,-0.710938 0.833985,-1.544922 0.373047,-0.302734 0.941406,-0.460938 -0.515625,-1.634765 -1.046875,0.195312 -0.462891,-0.05273 -1.597656,-0.728516 0,-0.90625 1.597656,-0.728515 0.462891,-0.03516 1.046875,0.177735 0.515625,-1.634766 -0.941406,-0.460937 -0.373047,-0.302735 -0.833985,-1.527343 0.513672,-0.728516 1.72461,0.355469 0.408203,0.230468 0.728515,0.763672 1.384766,-1.011719 -0.478516,-0.923828 -0.125,-0.46289 0.195313,-1.757813 0.871094,-0.267578 z m 2.361328,5.400391 c -1.862957,0 -3.375,1.512044 -3.375,3.375 0,1.862956 1.512043,3.376953 3.375,3.376953 1.862952,0 3.392578,-1.513997 3.392578,-3.376953 0,-1.862956 -1.529626,-3.375 -3.392578,-3.375 z" style="fill:#aaaaaa"/>
</svg>