<?xml version="1.0" encoding="UTF-8" standalone="no"?>
<svg xmlns:dc="http://purl.org/dc/elements/1.1/"
     xmlns:cc="http://creativecommons.org/ns#"
     xmlns:rdf="http://www.w3.org/1999/02/22-rdf-syntax-ns#"
     xmlns:svg="http://www.w3.org/2000/svg"
     xmlns="http://www.w3.org/2000/svg"
     xmlns:xlink="http://www.w3.org/1999/xlink"
     width="128" height="128" version="1.1">
    <title>Ruby File Icon</title>
    <desc>This is shape (source) for Clarity vector icon theme for gtk</desc>
    <metadata>
        <rdf:RDF>
            <cc:Work rdf:about="">
                <dc:title>Ruby File Icon</dc:title>
                <dc:description>This is shape (source) for Clarity vector icon theme for gtk</dc:description>
                <dc:creator>
                    <cc:Agent>
                        <dc:title>Jakub Jankiewicz</dc:title>
                    </cc:Agent>
                </dc:creator>
                <dc:rights>
                    <cc:Agent>
                        <dc:title>Jakub Jankiewicz</dc:title>
                    </cc:Agent>
                </dc:rights>
                <dc:date>2010</dc:date>
                <dc:format>image/svg+xml</dc:format>
                <dc:type rdf:resource="http://purl.org/dc/dcmitype/StillImage" />
                <cc:license rdf:resource="http://creativecommons.org/licenses/by-sa/3.0/" />
             </cc:Work>
        </rdf:RDF>
    </metadata>
    <path d="m 29.09375,11.234375 c -3.1838,0 -5.71875,2.566196 -5.71875,5.75 l 0,94.031255 c 0,3.1838 2.53495,5.75 5.71875,5.75 l 69.8125,0 c 3.1838,0 5.71875,-2.5662 5.71875,-5.75 l 0,-70.656255 -21.03125,0 c -4.306108,0 -8.0625,-3.141109 -8.0625,-7.3125 l 0,-21.8125 -46.4375,0 z m 50.4375,0 0,21.8125 c 0,1.714122 1.631968,3.3125 4.0625,3.3125 l 21.03125,0 -25.09375,-25.125 z m -3.5625,45.15625 c 1.848566,0 3.432286,0.142575 4.96875,0.71875 4.623427,1.733783 5.973312,3.436177 5.78125,6.125 -0.06568,0.919495 -0.289175,2.360453 -0.65625,4.03125 l -14.4375,-7.4375 c -0.420386,-1.448135 -0.992542,-2.532184 -2.21875,-3.3125 2.592793,0 4.713935,-0.125 6.5625,-0.125 z m -9.84375,1.28125 c 1.35929,-0.03682 2.486112,0.27536 3.3125,1 3.305554,2.898565 0.301502,11.151446 -6.71875,18.40625 -7.020252,7.254803 -15.413195,10.773565 -18.71875,7.875 -3.305553,-2.898563 -0.270252,-11.151446 6.75,-18.40625 5.265189,-5.441103 11.297131,-8.764546 15.375,-8.875 z m 20.6875,9.96875 -2.46875,32.625005 -28.71875,1.96875 7.71875,-3.625005 10.34375,-8.15625 8.03125,-10.03125 4.59375,-9.34375 0.5,-3.4375 z m -0.875,0.25 c -0.748453,3.124441 -2.146966,7.060694 -4.625,10.71875 -1.877352,2.771329 -4.800542,6.101538 -7.90625,9.21875 -3.566481,3.579691 -7.353152,6.893193 -10.125,8.84375 -4.88638,3.438575 -9.098452,5.522085 -12.78125,5.750005 l 6.5625,-17.218755 16.34375,2.625 -3.78125,-15.1875 16.3125,-4.75 z m -44.375,18.03125 c 0,0 0.158668,0.944545 1.6875,1.6875 l 6.9375,14.812505 c -0.121348,0.004 -0.223536,0 -0.34375,0 -3.841174,0 -6.941397,-0.94464 -8.09375,-4.593755 -1.152351,-3.649115 -0.1875,-11.90625 -0.1875,-11.90625 z" style="fill:#aaaaaa"/>
</svg>