<?xml version="1.0" encoding="UTF-8" standalone="no"?>
<svg xmlns:dc="http://purl.org/dc/elements/1.1/"
     xmlns:cc="http://creativecommons.org/ns#"
     xmlns:rdf="http://www.w3.org/1999/02/22-rdf-syntax-ns#"
     xmlns:svg="http://www.w3.org/2000/svg"
     xmlns="http://www.w3.org/2000/svg"
     xmlns:xlink="http://www.w3.org/1999/xlink"
     width="128" height="128" version="1.1">
    <title>Erlang File Icon</title>
    <desc>This is shape (source) for Clarity vector icon theme for gtk</desc>
    <metadata>
        <rdf:RDF>
            <cc:Work rdf:about="">
                <dc:title>Erlang File Icon</dc:title>
                <dc:description>This is shape (source) for Clarity vector icon theme for gtk</dc:description>
                <dc:creator>
                    <cc:Agent>
                        <dc:title>Jakub Jankiewicz</dc:title>
                    </cc:Agent>
                </dc:creator>
                <dc:rights>
                    <cc:Agent>
                        <dc:title>Jakub Jankiewicz</dc:title>
                    </cc:Agent>
                </dc:rights>
                <dc:date>2010</dc:date>
                <dc:format>image/svg+xml</dc:format>
                <dc:type rdf:resource="http://purl.org/dc/dcmitype/StillImage" />
                <cc:license rdf:resource="http://creativecommons.org/licenses/by-sa/3.0/" />
             </cc:Work>
        </rdf:RDF>
    </metadata>
    <path d="M 28.5 11.25 C 25.598125 11.54359 23.375 14.015184 23.375 17 L 23.375 111 C 23.375 114.1838 25.90994 116.75 29.09375 116.75 L 98.90625 116.75 C 102.09005 116.75 104.625 114.1838 104.625 111 L 104.625 40.375 L 83.59375 40.375 C 79.28764 40.375 75.53125 37.233891 75.53125 33.0625 L 75.53125 11.25 L 29.09375 11.25 C 28.894762 11.25 28.693458 11.23043 28.5 11.25 z M 79.53125 11.25 L 79.53125 33.0625 C 79.53125 34.776622 81.16322 36.375 83.59375 36.375 L 104.625 36.375 L 79.53125 11.25 z M 31.78125 59.28125 L 41.09375 59.28125 C 37.611535 62.68044 36.329342 65.937032 34.65625 70.5 C 32.663917 75.93363 34.314434 89.165855 37.03125 93.875 C 38.863375 97.050676 40.941941 99.473909 42.15625 100.78125 L 31.78125 100.78125 L 31.78125 59.28125 z M 87.5625 59.28125 L 96.21875 59.28125 L 96.21875 100.78125 L 87.78125 100.78125 C 88.599104 99.691749 89.922087 97.958755 90.96875 96.78125 C 92.417717 95.151174 94.0625 92.4375 94.0625 92.4375 L 84.09375 87.375 C 84.09375 87.375 80.676613 94.595689 74.15625 97.3125 C 67.635896 100.02931 61.841169 96.790771 58.21875 92.625 C 54.596322 88.459216 54.59375 78.84375 54.59375 78.84375 L 92.4375 78.84375 C 93.161983 69.606579 90.799098 65.616687 89.53125 62.71875 C 88.959837 61.412673 88.353183 60.346685 87.5625 59.28125 z M 63.6875 60.375 C 63.90803 60.36484 64.142941 60.3693 64.375 60.375 C 71.800964 60.55612 72.5 68.34375 72.5 68.34375 L 55.5 68.34375 C 55.5 68.34375 56.851209 60.688396 63.6875 60.375 z " style="fill:#aaaaaa"/>
</svg>