<?xml version="1.0" encoding="UTF-8" standalone="no"?>
<svg xmlns:dc="http://purl.org/dc/elements/1.1/"
     xmlns:cc="http://creativecommons.org/ns#"
     xmlns:rdf="http://www.w3.org/1999/02/22-rdf-syntax-ns#"
     xmlns:svg="http://www.w3.org/2000/svg"
     xmlns="http://www.w3.org/2000/svg"
     xmlns:xlink="http://www.w3.org/1999/xlink"
     width="128" height="128" version="1.1">
    <title>Pitivi project file icon</title>
    <desc>This is shape (source) for Clarity vector icon theme for gtk</desc>
    <metadata>
        <rdf:RDF>
            <cc:Work rdf:about="">
                <dc:title>Pitivi project file icon</dc:title>
                <dc:description>This is shape (source) for Clarity vector icon theme for gtk</dc:description>
                <dc:creator>
                    <cc:Agent>
                        <dc:title>Jakub Jankiewicz</dc:title>
                    </cc:Agent>
                </dc:creator>
                <dc:rights>
                    <cc:Agent>
                        <dc:title>Jakub Jankiewicz</dc:title>
                    </cc:Agent>
                </dc:rights>
                <dc:date>2010</dc:date>
                <dc:format>image/svg+xml</dc:format>
                <dc:type rdf:resource="http://purl.org/dc/dcmitype/StillImage" />
                <cc:license rdf:resource="http://creativecommons.org/licenses/by-sa/3.0/" />
             </cc:Work>
        </rdf:RDF>
    </metadata>
    <path d="M 28.5 11.25 C 25.598129 11.54359 23.375 14.015184 23.375 17 L 23.375 111.03125 C 23.375 114.21505 25.909946 116.78125 29.09375 116.78125 L 98.90625 116.78125 C 102.09005 116.78125 104.625 114.21505 104.625 111.03125 L 104.625 40.375 L 83.59375 40.375 C 79.287642 40.375 75.53125 37.233891 75.53125 33.0625 L 75.53125 11.25 L 29.09375 11.25 C 28.894762 11.25 28.693458 11.230427 28.5 11.25 z M 79.53125 11.25 L 79.53125 33.0625 C 79.53125 34.776622 81.163218 36.375 83.59375 36.375 L 104.625 36.375 L 79.53125 11.25 z M 42.375 57.71875 L 85.625 57.71875 C 88.411533 57.71875 90.65625 59.963462 90.65625 62.75 L 90.65625 78.21875 L 90.65625 80.15625 L 90.65625 91.5 C 90.65625 95.43593 78.768648 98.625 64 98.625 C 49.23135 98.625 37.34375 95.43593 37.34375 91.5 L 37.34375 80.15625 L 37.34375 78.21875 L 37.34375 62.75 C 37.34375 59.963462 39.588461 57.71875 42.375 57.71875 z M 42.625 63.71875 L 42.625 89.59375 L 85.375 89.59375 L 85.375 63.71875 L 42.625 63.71875 z " style="fill:#aaaaaa"/>
</svg>