<?xml version="1.0" encoding="UTF-8" standalone="no"?>
<svg xmlns:dc="http://purl.org/dc/elements/1.1/"
     xmlns:cc="http://creativecommons.org/ns#"
     xmlns:rdf="http://www.w3.org/1999/02/22-rdf-syntax-ns#"
     xmlns:svg="http://www.w3.org/2000/svg"
     xmlns="http://www.w3.org/2000/svg"
     xmlns:xlink="http://www.w3.org/1999/xlink"
     width="128" height="128" version="1.1">
    <title>Lua File Icon</title>
    <desc>This is shape (source) for Clarity vector icon theme for gtk</desc>
    <metadata>
        <rdf:RDF>
            <cc:Work rdf:about="">
                <dc:title>Lua File Icon</dc:title>
                <dc:description>This is shape (source) for Clarity vector icon theme for gtk</dc:description>
                <dc:creator>
                    <cc:Agent>
                        <dc:title>Jakub Jankiewicz</dc:title>
                    </cc:Agent>
                </dc:creator>
                <dc:rights>
                    <cc:Agent>
                        <dc:title>Jakub Jankiewicz</dc:title>
                    </cc:Agent>
                </dc:rights>
                <dc:date>2010</dc:date>
                <dc:format>image/svg+xml</dc:format>
                <dc:type rdf:resource="http://purl.org/dc/dcmitype/StillImage" />
                <cc:license rdf:resource="http://creativecommons.org/licenses/by-sa/3.0/" />
             </cc:Work>
        </rdf:RDF>
    </metadata>
    <path d="M 28.5 11.25 C 25.598125 11.54359 23.375 14.015184 23.375 17 L 23.375 111 C 23.375 114.1838 25.90994 116.75 29.09375 116.75 L 98.90625 116.75 C 102.09005 116.75 104.625 114.1838 104.625 111 L 104.625 40.375 L 83.59375 40.375 C 79.28764 40.375 75.53125 37.233891 75.53125 33.0625 L 75.53125 11.25 L 29.09375 11.25 C 28.894762 11.25 28.693458 11.23043 28.5 11.25 z M 79.53125 11.25 L 79.53125 33.0625 C 79.53125 34.776622 81.16322 36.375 83.59375 36.375 L 104.625 36.375 L 79.53125 11.25 z M 83.5 52.6875 C 87.198841 52.6875 90.1875 55.676158 90.1875 59.375 C 90.1875 63.073777 87.198841 66.125 83.5 66.125 C 79.801222 66.125 76.8125 63.073777 76.8125 59.375 C 76.8125 55.676158 79.801222 52.6875 83.5 52.6875 z M 60.65625 59.375 C 73.284783 59.375 83.5 69.652717 83.5 82.28125 C 83.5 94.909783 73.284783 105.125 60.65625 105.125 C 48.027717 105.125 37.8125 94.909783 37.8125 82.28125 C 37.8125 69.652717 48.027717 59.375 60.65625 59.375 z M 70.125 66.09375 C 66.426159 66.09375 63.4375 69.082473 63.4375 72.78125 C 63.4375 76.480092 66.426159 79.5 70.125 79.5 C 73.823778 79.5 76.8125 76.480092 76.8125 72.78125 C 76.8125 69.082473 73.823778 66.09375 70.125 66.09375 z " style="fill:#aaaaaa"/>
</svg>