<?xml version="1.0" encoding="UTF-8" standalone="no"?>
<svg xmlns:dc="http://purl.org/dc/elements/1.1/"
     xmlns:cc="http://creativecommons.org/ns#"
     xmlns:rdf="http://www.w3.org/1999/02/22-rdf-syntax-ns#"
     xmlns:svg="http://www.w3.org/2000/svg"
     xmlns="http://www.w3.org/2000/svg"
     xmlns:xlink="http://www.w3.org/1999/xlink"
     width="128" height="128" version="1.1">
    <title>Call Icon</title>
    <desc>This icon is a part of Clarity icon theme for gtk</desc>
    <!--

    This icon is a part of Clarity vector icon theme for gtk

    Copyright (c) 2010 Jakub Jankiewicz <http://jcubic.pl> 

    This icon is free: you can redistribute it and/or modify
    it under the terms of the GNU General Public License as published by
    the Free Software Foundation, either version 3 of the License, or
    (at your option) any later version.

    This program is distributed in the hope that it will be useful,
    but WITHOUT ANY WARRANTY; without even the implied warranty of
    MERCHANTABILITY or FITNESS FOR A PARTICULAR PURPOSE.  See the
    GNU General Public License for more details.

    You should have received a copy of the GNU General Public License
    along with this program.  If not, see <http://www.gnu.org/licenses/>.

    -->
    <metadata>
        <rdf:RDF>
            <cc:Work rdf:about="">
                <dc:title>Call Icon</dc:title>
                <dc:description>This icon is a part of Clarity icon theme for gtk</dc:description>
                <dc:creator>
                    <cc:Agent>
                        <dc:title>Jakub Jankiewicz</dc:title>
                    </cc:Agent>
                </dc:creator>
                <dc:rights>
                    <cc:Agent>
                        <dc:title>Jakub Jankiewicz</dc:title>
                    </cc:Agent>
                </dc:rights>
                <dc:date>2010</dc:date>
                <dc:format>image/svg+xml</dc:format>
                <dc:type rdf:resource="http://purl.org/dc/dcmitype/StillImage" />
                <cc:license rdf:resource="http://www.gnu.org/copyleft/gpl.html" />
             </cc:Work>
        </rdf:RDF>
    </metadata>
    <defs>
        <linearGradient x1="0" y1="128" x2="128" y2="0" id="gradient" gradientUnits="userSpaceOnUse">
            <stop id="start" style="stop-color:#60cd0f;stop-opacity:1" offset="0" />
            <stop id="stop" style="stop-color:#0e4700;stop-opacity:1" offset="1" />
        </linearGradient>
    </defs>
    <path d="M 64 9.34375 C 33.81417 9.34375 9.34375 33.814171 9.34375 64 C 9.34375 94.185831 33.81417 118.65625 64 118.65625 C 94.185832 118.65625 118.65625 94.185831 118.65625 64 C 118.65625 33.814171 94.185832 9.34375 64 9.34375 z M 86.4375 31.125 C 92.193678 31.125 96.875 37.524364 96.875 45.375 C 96.875 48.4459 96.120178 51.269679 94.90625 53.59375 C 92.627324 60.638273 86.670942 69.704058 78.1875 78.1875 C 69.704057 86.670943 60.638272 92.627331 53.59375 94.90625 C 51.269678 96.120178 48.445898 96.875 45.375 96.875 C 37.524362 96.875 31.125 92.193681 31.125 86.4375 C 31.125 80.681319 37.524361 76 45.375 76 C 47.913486 76 50.286074 76.518845 52.34375 77.375 C 54.10415 78.107463 53.684306 80.698776 54.65625 82.375 C 55.474527 83.78621 58.22382 83.626435 59.59375 82.84375 C 64.176425 80.225522 68.064826 76.997673 72.53125 72.53125 C 76.997674 68.064826 80.225521 64.176425 82.84375 59.59375 C 83.626436 58.22382 83.78621 55.474528 82.375 54.65625 C 80.698777 53.684306 78.107464 54.104151 77.375 52.34375 C 76.518846 50.286074 76 47.913485 76 45.375 C 76 37.524363 80.681319 31.125 86.4375 31.125 z " style="fill:url(#gradient);fill-opacity:1;stroke:none" xlink:href="#shape" />
</svg>