<?xml version="1.0" encoding="UTF-8" standalone="no"?>
<svg xmlns:dc="http://purl.org/dc/elements/1.1/"
     xmlns:cc="http://creativecommons.org/ns#"
     xmlns:rdf="http://www.w3.org/1999/02/22-rdf-syntax-ns#"
     xmlns:svg="http://www.w3.org/2000/svg"
     xmlns="http://www.w3.org/2000/svg"
     xmlns:xlink="http://www.w3.org/1999/xlink"
     width="128" height="128" version="1.1">
    <title>Red Warning Icon</title>
    <desc>This icon is a part of Clarity icon theme for gtk</desc>
    <!--

    This icon is a part of Clarity vector icon theme for gtk

    Copyright (c) 2010 Jakub Jankiewicz <http://jcubic.pl> 

    This icon is free: you can redistribute it and/or modify
    it under the terms of the GNU General Public License as published by
    the Free Software Foundation, either version 3 of the License, or
    (at your option) any later version.

    This program is distributed in the hope that it will be useful,
    but WITHOUT ANY WARRANTY; without even the implied warranty of
    MERCHANTABILITY or FITNESS FOR A PARTICULAR PURPOSE.  See the
    GNU General Public License for more details.

    You should have received a copy of the GNU General Public License
    along with this program.  If not, see <http://www.gnu.org/licenses/>.

    -->
    <metadata>
        <rdf:RDF>
            <cc:Work rdf:about="">
                <dc:title>Red Warning Icon</dc:title>
                <dc:description>This icon is a part of Clarity icon theme for gtk</dc:description>
                <dc:creator>
                    <cc:Agent>
                        <dc:title>Jakub Jankiewicz</dc:title>
                    </cc:Agent>
                </dc:creator>
                <dc:rights>
                    <cc:Agent>
                        <dc:title>Jakub Jankiewicz</dc:title>
                    </cc:Agent>
                </dc:rights>
                <dc:date>2010</dc:date>
                <dc:format>image/svg+xml</dc:format>
                <dc:type rdf:resource="http://purl.org/dc/dcmitype/StillImage" />
                <cc:license rdf:resource="http://www.gnu.org/copyleft/gpl.html" />
             </cc:Work>
        </rdf:RDF>
    </metadata>
    <defs>
        <linearGradient x1="0" y1="128" x2="128" y2="0" id="gradient" gradientUnits="userSpaceOnUse">
            <stop id="start" style="stop-color:#621818;stop-opacity:1" offset="0" />
            <stop id="stop" style="stop-color:#d53535;stop-opacity:1" offset="1" />
        </linearGradient>
    </defs>
    <path d="m 63.874347,14.463464 c -1.549255,0.03378 -3.087608,1.075715 -4.222515,3.042696 L 8.5158966,106.14799 c -2.3028317,3.99116 -0.2402961,7.38939 4.2846074,7.38939 l 102.365036,0 c 5.18892,0 6.4106,-3.65554 4.25355,-7.38939 L 68.221068,17.50616 c -1.214386,-2.102112 -2.797444,-3.076479 -4.346721,-3.042696 z m -0.558853,21.360971 c 2.621348,6.4e-5 4.689107,0.811974 6.178542,2.39069 1.519191,1.57884 2.266468,3.682677 2.266489,6.333775 -2.1e-5,3.634225 -0.680168,8.585417 -2.080211,14.840915 -1.578805,7.208798 -2.495201,12.12767 -2.76327,14.778814 -0.05968,1.668154 -0.125548,3.362885 -0.155283,5.060795 -0.178823,2.263928 -0.756942,3.655299 -1.769729,4.191479 -0.387257,0.238314 -0.862232,0.372596 -1.428209,0.372576 -1.370268,2e-5 -2.215733,-1.084213 -2.483823,-3.228995 -0.02973,-0.208496 -0.03118,-1.80126 -0.03097,-4.750332 -2e-5,-5.421435 -1.153904,-13.19018 -3.477364,-23.34803 -0.893661,-3.961789 -1.335081,-6.572915 -1.335081,-7.824077 0,-2.263852 0.578201,-4.263209 1.769749,-5.961201 1.34045,-1.906386 3.104851,-2.856345 5.309185,-2.856409 z m 0.06215,52.657283 c 1.846853,0 3.440897,0.543387 4.781368,1.645523 1.429841,1.191548 2.142304,2.684885 2.142325,4.501963 -2.1e-5,1.995817 -0.644094,3.655733 -1.92497,4.936609 -1.251142,1.280897 -2.878741,1.893937 -4.874538,1.893937 -1.668155,0 -3.126657,-0.61178 -4.377757,-1.86288 -1.251121,-1.2511 -1.862878,-2.709602 -1.862878,-4.377757 0,-1.787301 0.576942,-3.347748 1.738693,-4.68824 1.16173,-1.370247 2.620232,-2.049155 4.377757,-2.049155 z" style="fill:url(#gradient);fill-opacity:1;stroke:none" />
</svg>