<?xml version="1.0" encoding="UTF-8" standalone="no"?>
<svg xmlns:dc="http://purl.org/dc/elements/1.1/"
     xmlns:cc="http://creativecommons.org/ns#"
     xmlns:rdf="http://www.w3.org/1999/02/22-rdf-syntax-ns#"
     xmlns:svg="http://www.w3.org/2000/svg"
     xmlns="http://www.w3.org/2000/svg"
     xmlns:xlink="http://www.w3.org/1999/xlink"
     width="128" height="128" version="1.1">
    <title>Warning Icon</title>
    <desc>This is shape (source) for Clarity vector icon theme for gtk</desc>
    <metadata>
        <rdf:RDF>
            <cc:Work rdf:about="">
                <dc:title>Warning Icon</dc:title>
                <dc:description>This is shape (source) for Clarity vector icon theme for gtk</dc:description>
                <dc:creator>
                    <cc:Agent>
                        <dc:title>Jakub Jankiewicz</dc:title>
                    </cc:Agent>
                </dc:creator>
                <dc:rights>
                    <cc:Agent>
                        <dc:title>Jakub Jankiewicz</dc:title>
                    </cc:Agent>
                </dc:rights>
                <dc:date>2010</dc:date>
                <dc:format>image/svg+xml</dc:format>
                <dc:type rdf:resource="http://purl.org/dc/dcmitype/StillImage" />
                <cc:license rdf:resource="http://creativecommons.org/licenses/by-sa/3.0/" />
             </cc:Work>
        </rdf:RDF>
    </metadata>
    <path d="m 63.873536,14.141054 c -1.559348,0.034 -3.107705,1.082717 -4.25,3.0625 L 8.1547857,106.4223 c -2.31781,4.01715 -0.241873,7.4375 4.3125003,7.4375 l 103.031244,0 c 5.22271,0 6.45233,-3.67934 4.28125,-7.4375 L 68.24854,17.203554 c -1.222289,-2.115792 -2.815656,-3.096502 -4.375004,-3.0625 z m -0.5625,21.499999 c 2.638415,6.6e-5 4.719625,0.81726 6.218754,2.40625 1.52907,1.589116 2.28122,3.706647 2.28125,6.375 -3e-5,3.657877 -0.68461,8.641295 -2.09375,14.9375 -1.589076,7.255717 -2.511431,12.206618 -2.781254,14.875 -0.05998,1.679026 -0.126284,3.384791 -0.15625,5.09375 -0.179909,2.278664 -0.761872,3.679089 -1.78125,4.21875 -0.389782,0.239875 -0.867852,0.375017 -1.4375,0.375 -1.379191,1.7e-5 -2.230171,-1.091266 -2.5,-3.25 -0.02999,-0.209854 -0.03126,-1.812994 -0.03125,-4.78125 -1e-5,-5.456722 -1.161401,-13.276045 -3.5,-23.5 -0.899471,-3.987574 -1.343755,-6.615694 -1.34375,-7.875 -5e-6,-2.278585 0.581958,-4.290956 1.78125,-6 1.349189,-1.918793 3.12506,-2.874934 5.34375,-2.875 z m 0.0625,53 c 1.858879,1.3e-5 3.463287,0.546922 4.8125,1.65625 1.439124,1.199296 2.156234,2.702347 2.156254,4.53125 -2e-5,2.008809 -0.64829,3.67952 -1.9375,4.96875 -1.259271,1.289227 -2.897464,1.906247 -4.906254,1.906247 -1.679012,0 -3.147009,-0.61575 -4.40625,-1.874997 -1.259258,-1.259248 -1.875006,-2.727245 -1.875,-4.40625 -6e-6,-1.798922 0.580689,-3.369544 1.75,-4.71875 1.169295,-1.379167 2.637292,-2.062487 4.40625,-2.0625 z" style="fill:#aaaaaa"/>
</svg>