<?xml version="1.0" encoding="UTF-8" standalone="no"?>
<svg xmlns:dc="http://purl.org/dc/elements/1.1/"
     xmlns:cc="http://creativecommons.org/ns#"
     xmlns:rdf="http://www.w3.org/1999/02/22-rdf-syntax-ns#"
     xmlns:svg="http://www.w3.org/2000/svg"
     xmlns="http://www.w3.org/2000/svg"
     xmlns:xlink="http://www.w3.org/1999/xlink"
     width="128" height="128" version="1.1">
    <title>Wireless Connection Stage 2 - 12</title>
    <desc>This is shape (source) for Clarity vector icon theme for gtk</desc>
    <metadata>
        <rdf:RDF>
            <cc:Work rdf:about="">
                <dc:title>Wireless Connection Stage 2 - 12</dc:title>
                <dc:description>This is shape (source) for Clarity vector icon theme for gtk</dc:description>
                <dc:creator>
                    <cc:Agent>
                        <dc:title>Jakub Jankiewicz</dc:title>
                    </cc:Agent>
                </dc:creator>
                <dc:rights>
                    <cc:Agent>
                        <dc:title>Jakub Jankiewicz</dc:title>
                    </cc:Agent>
                </dc:rights>
                <dc:date>2010</dc:date>
                <dc:format>image/svg+xml</dc:format>
                <dc:type rdf:resource="http://purl.org/dc/dcmitype/StillImage" />
                <cc:license rdf:resource="http://creativecommons.org/licenses/by-sa/3.0/" />
             </cc:Work>
        </rdf:RDF>
    </metadata>
    <path d="m 34.07815,12.17377 c -5.152965,2.975078 -6.936919,9.54741 -3.96184,14.700387 2.975082,5.152991 9.574496,6.921289 14.727459,3.946213 5.152981,-2.975041 6.921277,-9.574475 3.946213,-14.727461 C 45.814898,10.939946 39.231108,9.198686 34.07815,12.17377 z M 17.659642,33.236079 c -1.0107,0.617823 -1.887811,1.478943 -2.51966,2.573329 -2.021931,3.502078 -0.80247,7.966484 2.69963,9.988383 2.407659,1.390086 5.26932,1.257506 7.48436,-0.09921 1.006829,-0.616685 1.88778,-1.478938 2.51965,-2.573335 2.021916,-3.502077 0.829533,-7.982067 -2.67257,-10.004009 -2.40767,-1.39007 -5.287841,-1.244278 -7.51141,0.114844 z M 59.905436,8.8454565 c -1.953976,1.3219675 -3.2327,3.5608655 -3.23271,6.0882795 -1.51e-4,4.044195 3.283607,7.31649 7.32745,7.316501 1.263704,-10e-6 2.450914,-0.331838 3.488401,-0.895409 2.282458,-1.239905 3.828096,-3.651882 3.828104,-6.432032 -5e-6,-4.043792 -3.256526,-7.3321361 -7.300378,-7.3321292 -1.516433,-3.7e-6 -2.938461,0.4616037 -4.110861,1.254791 z M 11.611932,59.136139 c -1.555912,1.055523 -2.5636896,2.850141 -2.5636814,4.872075 2.18e-5,3.235018 2.6322824,5.850067 5.8673684,5.850079 1.010933,-1.2e-5 1.969242,-0.263172 2.799252,-0.714052 1.825951,-0.99194 3.050819,-2.929208 3.050799,-5.15334 2.9e-5,-3.235111 -2.632284,-5.85007 -5.867363,-5.850069 -1.213307,-7.1e-5 -2.352854,0.361976 -3.286399,0.99529 z M 85.494718,16.479888 c -0.806081,0.491823 -1.512515,1.19169 -2.018007,2.067211 -1.617542,2.801649 -0.669022,6.38877 2.132641,8.006309 1.751031,1.01089 3.81048,1.03888 5.501174,0.21584 1.014392,-0.493826 1.898569,-1.297861 2.505151,-2.34846 1.617532,-2.80168 0.669045,-6.38882 -2.132634,-8.006319 -1.926144,-1.112061 -4.214928,-1.016581 -5.988324,0.0654 z M 61.062522,58.912072 c -2.801654,1.617534 -3.740874,5.208121 -2.123337,8.009775 1.617521,2.801647 5.196688,3.783568 7.998334,2.166023 2.801662,-1.617541 3.740889,-5.208096 2.123336,-8.009773 -1.61752,-2.801651 -5.196673,-3.783565 -7.998333,-2.166025 z M 18.561713,83.486009 c -2.80163,1.617533 -3.756509,5.181055 -2.138961,7.98271 1.617541,2.801661 5.181051,3.756501 7.982711,2.138962 2.801653,-1.617532 3.783558,-5.196685 2.166023,-7.998332 -1.617543,-2.801667 -5.20812,-3.740872 -8.009773,-2.12334 z M 103.59458,34.392263 c -2.80163,1.617509 -3.783574,5.196676 -2.16602,7.998334 1.61752,2.801659 5.20811,3.740877 8.00977,2.123338 2.80168,-1.617541 3.75651,-5.181055 2.13896,-7.98271 -1.61753,-2.801668 -5.18102,-3.756508 -7.98271,-2.138962 z M 36.402373,101.51195 c -0.806089,0.49181 -1.512521,1.19168 -2.018004,2.0672 -1.617542,2.80167 -0.669032,6.3888 2.132638,8.00632 1.926147,1.11212 4.243356,1.00436 6.015375,-0.081 0.805466,-0.49337 1.485456,-1.17608 1.990944,-2.05159 1.617542,-2.80167 0.669025,-6.38877 -2.132631,-8.00632 -1.926145,-1.11206 -4.21492,-1.01659 -5.988322,0.0654 z M 109.79802,59.136946 c -1.55589,1.055517 -2.56366,2.850145 -2.56367,4.872068 3e-5,3.23503 2.63231,5.850087 5.86736,5.850086 1.01099,0 1.9422,-0.247539 2.77221,-0.698417 1.82592,-0.991932 3.07788,-2.944821 3.07792,-5.168923 3e-5,-3.235109 -2.63229,-5.850087 -5.86737,-5.85008 -1.2133,-6.1e-5 -2.35285,0.361981 -3.2864,0.995291 z M 60.704575,108.22959 c -1.55592,1.05551 -2.563686,2.85015 -2.56368,4.87208 -1.8e-4,3.23549 2.632291,5.85011 5.867364,5.85008 1.010967,3e-5 1.96929,-0.26315 2.799259,-0.71406 1.825987,-0.99188 3.050821,-2.92917 3.050815,-5.15332 -2.09e-4,-3.23456 -2.632282,-5.85008 -5.867368,-5.85008 -1.213168,1e-5 -2.352838,0.362 -3.286398,0.99531 z M 103.46458,83.542085 c -0.80608,0.491836 -1.51254,1.191688 -2.01802,2.067207 -1.61752,2.80167 -0.66903,6.388791 2.13265,8.006333 1.92613,1.112072 4.21631,1.019983 5.98831,-0.06543 0.80549,-0.493346 1.51254,-1.191688 2.01802,-2.067205 1.61752,-2.801672 0.66907,-6.388782 -2.13264,-8.006323 -1.92611,-1.11204 -4.21493,-1.016578 -5.98832,0.06542 z M 85.609389,101.4285 c -2.801646,1.61755 -3.740863,5.20812 -2.123331,8.00978 1.617523,2.80165 5.181066,3.75651 7.982718,2.13897 2.801661,-1.61754 3.756513,-5.18104 2.138955,-7.98272 -1.617515,-2.80165 -5.196675,-3.78356 -7.998342,-2.16603 z" style="fill:#aaaaaa"/>
</svg>