<?xml version="1.0" encoding="UTF-8" standalone="no"?>
<svg xmlns:dc="http://purl.org/dc/elements/1.1/"
     xmlns:cc="http://creativecommons.org/ns#"
     xmlns:rdf="http://www.w3.org/1999/02/22-rdf-syntax-ns#"
     xmlns:svg="http://www.w3.org/2000/svg"
     xmlns="http://www.w3.org/2000/svg"
     xmlns:xlink="http://www.w3.org/1999/xlink"
     width="128" height="128" version="1.1">
    <title>Wireless Connection Stage 3 - 03</title>
    <desc>This is shape (source) for Clarity vector icon theme for gtk</desc>
    <metadata>
        <rdf:RDF>
            <cc:Work rdf:about="">
                <dc:title>Wireless Connection Stage 3 - 03</dc:title>
                <dc:description>This is shape (source) for Clarity vector icon theme for gtk</dc:description>
                <dc:creator>
                    <cc:Agent>
                        <dc:title>Jakub Jankiewicz</dc:title>
                    </cc:Agent>
                </dc:creator>
                <dc:rights>
                    <cc:Agent>
                        <dc:title>Jakub Jankiewicz</dc:title>
                    </cc:Agent>
                </dc:rights>
                <dc:date>2010</dc:date>
                <dc:format>image/svg+xml</dc:format>
                <dc:type rdf:resource="http://purl.org/dc/dcmitype/StillImage" />
                <cc:license rdf:resource="http://creativecommons.org/licenses/by-sa/3.0/" />
             </cc:Work>
        </rdf:RDF>
    </metadata>
    <path d="m 115.82613,34.078142 c -2.97508,-5.152964 -9.54742,-6.936916 -14.7004,-3.961836 -5.152988,2.975082 -6.921285,9.574498 -3.946209,14.727461 2.975039,5.152981 9.574479,6.921275 14.727459,3.946211 5.15297,-2.975085 6.89424,-9.558877 3.91915,-14.711836 z M 94.763813,17.659638 c -0.617822,-1.0107 -1.478951,-1.887801 -2.573336,-2.51965 -3.502079,-2.021932 -7.96648,-0.802481 -9.988379,2.69962 -1.390086,2.407659 -1.257497,5.269313 0.09922,7.484353 0.616685,1.006829 1.478941,1.887781 2.573337,2.519651 3.502078,2.021916 7.982063,0.829546 10.004004,-2.672557 1.39007,-2.407669 1.244278,-5.287848 -0.114845,-7.511417 z m 24.390627,42.245803 c -1.32197,-1.953978 -3.56086,-3.232701 -6.08828,-3.23271 -4.0442,-1.52e-4 -7.31649,3.283599 -7.31651,7.327441 1e-5,1.263703 0.33185,2.450914 0.89542,3.488401 1.2399,2.282458 3.65188,3.828096 6.43202,3.828102 4.0438,-3e-6 7.33215,-3.256524 7.33213,-7.30038 10e-6,-1.516432 -0.46159,-2.938454 -1.25478,-4.110854 z M 68.863758,11.611926 c -1.055523,-1.555912 -2.85014,-2.563688 -4.872075,-2.5636803 -3.235017,2.23e-5 -5.850066,2.6322813 -5.850078,5.8673673 1.2e-5,1.010933 0.263164,1.969248 0.714043,2.799258 0.99194,1.825951 2.929192,3.05084 5.153322,3.050824 3.235111,2.9e-5 5.850079,-2.632287 5.850079,-5.867367 7.1e-5,-1.213307 -0.361979,-2.352852 -0.995294,-3.286397 z M 111.52001,85.49472 c -0.49182,-0.806077 -1.19169,-1.512517 -2.06721,-2.018009 -2.80165,-1.617538 -6.38879,-0.66903 -8.00633,2.132631 -1.01089,1.751031 -1.03886,3.810485 -0.21582,5.501181 0.49382,1.01439 1.29786,1.898573 2.34846,2.505149 2.80167,1.617529 6.38882,0.669043 8.00633,-2.132631 1.11206,-1.926146 1.01655,-4.214924 -0.0654,-5.988321 z M 75.63714,57.281267 C 71.930468,50.861124 63.701317,48.656129 57.281174,52.362801 50.86103,56.069472 48.656036,64.298624 52.362707,70.718767 56.069378,77.13891 64.29853,79.343905 70.718673,75.637233 77.138817,71.930562 79.343811,63.70141 75.63714,57.281267 z M 44.513884,18.561707 c -1.617533,-2.801629 -5.181056,-3.756508 -7.982711,-2.138961 -2.801662,1.617542 -3.756499,5.181052 -2.138961,7.982711 1.617532,2.801654 5.196689,3.78356 7.998337,2.166025 2.801666,-1.617543 3.740867,-5.208121 2.123335,-8.009775 z M 93.60763,103.59457 c -1.617509,-2.80163 -5.196675,-3.78357 -7.998332,-2.16602 -2.801656,1.61753 -3.740879,5.20811 -2.12334,8.00977 1.617542,2.80168 5.181056,3.75651 7.982719,2.13897 2.801659,-1.61754 3.7565,-5.18103 2.138953,-7.98272 z M 26.487948,36.402371 c -0.491813,-0.806086 -1.191687,-1.512525 -2.067207,-2.018008 -2.80167,-1.617543 -6.388808,-0.669037 -8.006328,2.132632 -1.112121,1.926148 -1.00431,4.243364 0.08105,6.015384 0.493372,0.805465 1.176072,1.485456 2.051583,1.990945 2.80167,1.617541 6.388778,0.669024 8.006328,-2.132633 1.11206,-1.926145 1.016565,-4.214918 -0.06543,-5.98832 z M 68.86295,109.79802 c -1.055518,-1.55589 -2.850156,-2.56366 -4.872077,-2.56368 -3.235026,4e-5 -5.850073,2.63232 -5.850079,5.86737 6e-6,1.01099 0.24754,1.94219 0.698419,2.7722 0.991937,1.82591 2.944847,3.07783 5.168925,3.07792 3.235109,3e-5 5.850089,-2.63228 5.850078,-5.86737 6.3e-5,-1.21328 -0.361979,-2.35284 -0.995291,-3.2864 z M 19.770304,60.704571 c -1.055503,-1.555925 -2.85014,-2.56369 -4.872074,-2.563682 -3.235493,-1.78e-4 -5.8501093,2.632294 -5.8500778,5.867368 -3.09e-5,1.010967 0.2631372,1.969287 0.7140422,2.799258 0.9918806,1.825987 2.9291776,3.050824 5.1533226,3.050824 3.234564,-2.11e-4 5.850072,-2.632278 5.850078,-5.867367 -1.4e-5,-1.213165 -0.361985,-2.352837 -0.995293,-3.286397 z m 24.6875,42.760009 c -0.491835,-0.80608 -1.191692,-1.51253 -2.067205,-2.01802 -2.801675,-1.617512 -6.388791,-0.66904 -8.006329,2.13264 -1.112075,1.92613 -1.019983,4.21631 0.06542,5.98832 0.493345,0.80549 1.191692,1.51253 2.067209,2.01801 2.801671,1.61752 6.388792,0.66907 8.006329,-2.13264 1.11204,-1.92611 1.016569,-4.21493 -0.06543,-5.98831 z M 26.57139,85.609388 c -1.617546,-2.801645 -5.208121,-3.740861 -8.009777,-2.123331 -2.801649,1.617523 -3.756503,5.181059 -2.138961,7.982711 1.617541,2.801661 5.181027,3.756521 7.982711,2.138961 2.801644,-1.617513 3.783558,-5.196673 2.166027,-7.998341 z" style="fill:#aaaaaa"/>
</svg>