<?xml version="1.0" encoding="UTF-8" standalone="no"?>
<svg xmlns:dc="http://purl.org/dc/elements/1.1/"
     xmlns:cc="http://creativecommons.org/ns#"
     xmlns:rdf="http://www.w3.org/1999/02/22-rdf-syntax-ns#"
     xmlns:svg="http://www.w3.org/2000/svg"
     xmlns="http://www.w3.org/2000/svg"
     xmlns:xlink="http://www.w3.org/1999/xlink"
     width="128" height="128" version="1.1">
    <title>Wireless Connection Stage 1 - 03</title>
    <desc>This is shape (source) for Clarity vector icon theme for gtk</desc>
    <metadata>
        <rdf:RDF>
            <cc:Work rdf:about="">
                <dc:title>Wireless Connection Stage 1 - 03</dc:title>
                <dc:description>This is shape (source) for Clarity vector icon theme for gtk</dc:description>
                <dc:creator>
                    <cc:Agent>
                        <dc:title>Jakub Jankiewicz</dc:title>
                    </cc:Agent>
                </dc:creator>
                <dc:rights>
                    <cc:Agent>
                        <dc:title>Jakub Jankiewicz</dc:title>
                    </cc:Agent>
                </dc:rights>
                <dc:date>2010</dc:date>
                <dc:format>image/svg+xml</dc:format>
                <dc:type rdf:resource="http://purl.org/dc/dcmitype/StillImage" />
                <cc:license rdf:resource="http://creativecommons.org/licenses/by-sa/3.0/" />
             </cc:Work>
        </rdf:RDF>
    </metadata>
    <path d="m 16.422692,91.468727 c -1.617542,-2.801651 -0.662693,-6.365179 2.138955,-7.982701 2.801663,-1.617538 6.392253,-0.678328 8.009789,2.123326 1.617539,2.801661 0.635631,6.380812 -2.166031,7.998338 -2.801666,1.617548 -6.365174,0.662698 -7.982713,-2.138963 z M 9.7622449,66.807481 c -0.450893,-0.82997 -0.7140538,-1.788298 -0.7140351,-2.799265 -2.27e-5,-3.235078 2.6145762,-5.867542 5.8500602,-5.867359 3.235091,3e-6 5.867397,2.614958 5.867376,5.850073 1.1e-5,3.235079 -2.61551,5.867144 -5.850072,5.86736 -2.224124,4e-6 -4.161425,-1.224841 -5.1533453,-3.050815 z M 34.449732,109.56748 c -1.085412,-1.77199 -1.177482,-4.06217 -0.06541,-5.98832 1.617539,-2.80166 5.20465,-3.750159 8.006325,-2.13263 2.801651,1.61754 3.750162,5.20467 2.132634,8.0063 -1.617547,2.8017 -5.204665,3.7502 -8.006336,2.13266 -0.875512,-0.50548 -1.573858,-1.21253 -2.067207,-2.01801 z M 16.495505,42.532351 c -1.085382,-1.772017 -1.193113,-4.089248 -0.081,-6.015393 1.617534,-2.801659 5.204672,-3.750172 8.00633,-2.132631 2.801649,1.617533 3.750178,5.204675 2.132633,8.00633 -1.617543,2.801659 -5.204661,3.750173 -8.00633,2.132636 -0.875509,-0.505483 -1.558239,-1.185486 -2.051589,-1.990941 z m 42.343756,73.341529 c -0.450887,-0.82999 -0.698417,-1.76123 -0.698421,-2.77221 4e-6,-3.23506 2.615041,-5.86734 5.85007,-5.86738 3.235084,2e-5 5.867554,2.61461 5.867372,5.85008 8e-6,3.23509 -2.614961,5.8674 -5.85007,5.86737 -2.224129,1e-5 -4.177038,-1.25191 -5.168968,-3.07783 z M 34.392254,24.405428 c -1.61754,-2.801657 -0.662697,-6.365172 2.138964,-7.982718 2.801653,-1.617537 6.365174,-0.662674 7.982705,2.138961 1.617533,2.801649 0.678331,6.392237 -2.123338,8.00978 -2.801651,1.617533 -6.380791,0.635631 -7.998331,-2.166023 z M 83.486003,109.4383 c -1.617536,-2.80167 -0.678325,-6.39226 2.123334,-8.00978 2.80167,-1.617537 6.380811,-0.63563 7.998327,2.16601 1.617546,2.80167 0.662718,6.36518 -2.138954,7.98272 -2.801656,1.61755 -6.365169,0.66271 -7.982707,-2.13895 z M 58.855688,17.714837 c -0.450874,-0.829997 -0.714036,-1.788311 -0.714037,-2.799264 0,-3.235063 2.61504,-5.8673351 5.850068,-5.8673568 3.235085,-8.9e-6 5.867552,2.6145858 5.867368,5.8500778 3e-6,3.235073 -2.614954,5.867386 -5.850075,5.867365 -2.22411,-2e-6 -4.161397,-1.224854 -5.153337,-3.050797 z m 42.375002,73.395656 c -0.82305,-1.690699 -0.79507,-3.75015 0.21582,-5.501186 1.61754,-2.801663 5.20468,-3.750167 8.00634,-2.132627 2.80164,1.617537 3.75015,5.204648 2.13262,8.006311 -1.61752,2.801675 -5.20466,3.750185 -8.00634,2.132647 -1.05059,-0.606572 -1.85462,-1.490746 -2.34844,-2.505145 z M 82.301363,25.323925 c -1.356729,-2.215023 -1.489299,-5.076686 -0.09922,-7.484352 2.021918,-3.502089 6.486302,-4.721545 9.988375,-2.699603 3.502058,2.021916 4.710106,6.52898 2.688178,10.031057 -2.021918,3.502074 -6.501919,4.694471 -10.003997,2.672542 -1.0944,-0.631848 -1.956652,-1.512811 -2.573334,-2.519644 z M 106.6451,67.48854 c -0.56358,-1.037488 -0.89541,-2.224701 -0.89541,-3.488405 0,-4.043836 3.27232,-7.327597 7.31651,-7.327441 4.04384,1.1e-5 7.34305,3.299724 7.34306,7.343568 2e-5,4.043849 -3.28832,7.300371 -7.33212,7.300379 -2.78015,2e-6 -5.19213,-1.545644 -6.43202,-3.828102 z M 97.179564,44.843729 c -2.975068,-5.152967 -1.20677,-11.752381 3.946216,-14.727464 5.15297,-2.975064 11.72532,-1.191132 14.70039,3.961847 2.97509,5.152955 1.23382,11.736766 -3.91915,14.71184 -5.15298,2.975068 -11.75239,1.20675 -14.727456,-3.946223 z" style="fill:#aaaaaa"/>
</svg>