<?xml version="1.0" encoding="UTF-8" standalone="no"?>
<svg xmlns:dc="http://purl.org/dc/elements/1.1/"
     xmlns:cc="http://creativecommons.org/ns#"
     xmlns:rdf="http://www.w3.org/1999/02/22-rdf-syntax-ns#"
     xmlns:svg="http://www.w3.org/2000/svg"
     xmlns="http://www.w3.org/2000/svg"
     xmlns:xlink="http://www.w3.org/1999/xlink"
     width="128" height="128" version="1.1">
    <title>Wireless Connection Stage 1 - 10</title>
    <desc>This is shape (source) for Clarity vector icon theme for gtk</desc>
    <metadata>
        <rdf:RDF>
            <cc:Work rdf:about="">
                <dc:title>Wireless Connection Stage 1 - 10</dc:title>
                <dc:description>This is shape (source) for Clarity vector icon theme for gtk</dc:description>
                <dc:creator>
                    <cc:Agent>
                        <dc:title>Jakub Jankiewicz</dc:title>
                    </cc:Agent>
                </dc:creator>
                <dc:rights>
                    <cc:Agent>
                        <dc:title>Jakub Jankiewicz</dc:title>
                    </cc:Agent>
                </dc:rights>
                <dc:date>2010</dc:date>
                <dc:format>image/svg+xml</dc:format>
                <dc:type rdf:resource="http://purl.org/dc/dcmitype/StillImage" />
                <cc:license rdf:resource="http://creativecommons.org/licenses/by-sa/3.0/" />
             </cc:Work>
        </rdf:RDF>
    </metadata>
    <path d="m 118.93749,63.999948 c 0,3.235071 -2.60869,5.843753 -5.84375,5.843743 -3.23508,-2e-6 -5.87501,-2.608677 -5.87501,-5.843745 0,-3.235081 2.63993,-5.843766 5.875,-5.843753 3.23509,-3e-6 5.84376,2.608675 5.84376,5.843755 z m -6.56251,24.687492 c -0.0245,0.944221 -0.27576,1.905738 -0.78126,2.781249 -1.61752,2.801669 -5.19806,3.774148 -7.99998,2.156251 -2.80167,-1.617547 -3.773833,-5.198314 -2.15626,-7.999996 1.61753,-2.801672 5.19867,-3.773348 7.99999,-2.156249 1.92616,1.112064 2.99148,3.141455 2.93752,5.218751 z m 1e-5,-49.374993 c 0.054,2.077295 -1.01136,4.106684 -2.93752,5.218743 -2.80166,1.61754 -6.38244,0.645407 -7.99999,-2.15625 -1.617533,-2.801658 -0.6454,-6.382458 2.15623,-7.999978 2.80169,-1.61757 6.38247,-0.645436 8.00002,2.156231 0.50548,0.875515 0.75674,1.83701 0.78125,2.781251 z M 94.406241,106.34369 c 0.05396,2.0773 -1.011364,4.13793 -2.937546,5.24998 -2.801653,1.61755 -6.382464,0.64541 -7.999995,-2.15624 -1.617532,-2.80165 -0.645413,-6.38247 2.156249,-8.00001 2.801666,-1.617532 6.382454,-0.64542 8.000002,2.15625 0.50547,0.87552 0.756725,1.80577 0.781258,2.75 z m -5e-6,-84.687512 c -0.02452,0.94424 -0.275768,1.874479 -0.781257,2.750021 -1.617531,2.801638 -5.198362,3.773742 -7.999997,2.156259 -2.801655,-1.617561 -3.774146,-5.19809 -2.156254,-8 1.617538,-2.801681 5.198324,-3.773841 7.999994,-2.15626 1.926158,1.11206 2.991467,3.172709 2.937542,5.24997 z M 69.843737,113.09369 c 0,3.23508 -2.608671,5.84375 -5.843753,5.84375 -3.235077,1e-5 -5.843738,-2.60869 -5.843747,-5.84374 1e-6,-3.23507 2.608667,-5.87501 5.843752,-5.87501 3.235068,0 5.843747,2.63993 5.843748,5.875 z m 0,-98.187505 c -6e-6,3.235082 -2.60868,5.875022 -5.843747,5.875005 -3.235085,3e-6 -5.843761,-2.639935 -5.843751,-5.874982 0,-3.235091 2.60866,-5.8437673 5.843748,-5.8437603 3.23508,-1.19e-5 5.843753,2.6086573 5.84375,5.8437373 z M 45.312494,106.65618 c -0.02454,0.94425 -0.275789,1.90575 -0.781254,2.78125 -1.617545,2.80166 -5.198368,3.77375 -7.999994,2.15626 -2.801669,-1.61754 -3.774162,-5.19807 -2.156261,-8 1.61754,-2.80166 5.198324,-3.773832 8.000002,-2.15625 1.926136,1.11206 2.991451,3.14145 2.937522,5.21874 z m -2e-6,-84.749987 c -0.132572,1.875702 -1.186531,3.645252 -2.937499,4.656261 -2.801668,1.61753 -6.382477,0.64539 -8.000009,-2.156261 -1.617529,-2.801658 -0.645405,-6.382445 2.156253,-7.99998 2.801645,-1.617571 6.382454,-0.645434 8.000013,2.156231 0.606559,1.05061 0.860781,2.218347 0.781242,3.343749 z m -16.50001,66.437496 c 0.06744,2.596634 -1.248574,5.141192 -3.656248,6.531247 -3.502078,2.021952 -7.978077,0.845832 -9.999986,-2.656253 -2.021928,-3.502061 -0.814592,-8.009322 2.687479,-10.031242 3.502082,-2.021931 7.97808,-0.814573 10.000006,2.6875 0.631849,1.094407 0.938101,2.288466 0.968739,3.468754 z m 1.6e-5,-48.687488 c -0.03068,1.180273 -0.336909,2.374344 -0.968752,3.46875 -2.021931,3.502061 -6.497721,4.709721 -10.00001,2.687486 -3.502071,-2.021923 -4.70941,-6.529167 -2.6875,-10.031242 2.021909,-3.502087 6.497969,-4.678142 10.00001,-2.656251 2.40768,1.390075 3.723681,3.934628 3.656222,6.531244 z m -3.125022,24.343743 c 9e-6,5.950136 -4.831079,10.781246 -10.781236,10.781249 -5.9501538,-2e-6 -10.7499905,-4.831109 -10.7500055,-10.781255 -7.6e-6,-5.950133 4.7998599,-10.781239 10.7500015,-10.781252 5.950149,7e-6 10.78126,4.831123 10.78124,10.781258 z" style="fill:#aaaaaa"/>
</svg>