<?xml version="1.0" encoding="UTF-8" standalone="no"?>
<svg xmlns:dc="http://purl.org/dc/elements/1.1/"
     xmlns:cc="http://creativecommons.org/ns#"
     xmlns:rdf="http://www.w3.org/1999/02/22-rdf-syntax-ns#"
     xmlns:svg="http://www.w3.org/2000/svg"
     xmlns="http://www.w3.org/2000/svg"
     xmlns:xlink="http://www.w3.org/1999/xlink"
     width="128" height="128" version="1.1">
    <title>Wireless Connection Stage 2 - 01</title>
    <desc>This is shape (source) for Clarity vector icon theme for gtk</desc>
    <metadata>
        <rdf:RDF>
            <cc:Work rdf:about="">
                <dc:title>Wireless Connection Stage 2 - 01</dc:title>
                <dc:description>This is shape (source) for Clarity vector icon theme for gtk</dc:description>
                <dc:creator>
                    <cc:Agent>
                        <dc:title>Jakub Jankiewicz</dc:title>
                    </cc:Agent>
                </dc:creator>
                <dc:rights>
                    <cc:Agent>
                        <dc:title>Jakub Jankiewicz</dc:title>
                    </cc:Agent>
                </dc:rights>
                <dc:date>2010</dc:date>
                <dc:format>image/svg+xml</dc:format>
                <dc:type rdf:resource="http://purl.org/dc/dcmitype/StillImage" />
                <cc:license rdf:resource="http://creativecommons.org/licenses/by-sa/3.0/" />
             </cc:Work>
        </rdf:RDF>
    </metadata>
    <path d="M 64 4.15625 C 58.049855 4.1562655 53.218753 8.9560953 53.21875 14.90625 C 53.218754 20.856406 58.049865 25.687509 64 25.6875 C 69.950135 25.68752 74.781242 20.856399 74.78125 14.90625 C 74.781236 8.956108 69.950133 4.156243 64 4.15625 z M 39.25 14.1875 C 38.065801 14.217156 36.875644 14.524398 35.78125 15.15625 C 32.279164 17.178159 31.103047 21.654172 33.125 25.15625 C 34.515054 27.563925 37.059616 28.87994 39.65625 28.8125 C 40.836537 28.781863 42.030593 28.475599 43.125 27.84375 C 46.627074 25.821825 47.834431 21.345833 45.8125 17.84375 C 44.42243 15.436077 41.855238 14.122256 39.25 14.1875 z M 88.03125 14.1875 C 85.678062 14.355382 83.451202 15.654956 82.1875 17.84375 C 80.165265 21.34604 81.372938 25.821819 84.875 27.84375 C 85.969406 28.475593 87.163478 28.78182 88.34375 28.8125 C 90.940364 28.879958 93.484925 27.563929 94.875 25.15625 C 96.896891 21.654208 95.720838 17.178159 92.21875 15.15625 C 90.905472 14.398034 89.443163 14.086771 88.03125 14.1875 z M 21.0625 33.59375 C 19.187285 33.729905 17.417213 34.780206 16.40625 36.53125 C 14.78876 39.332875 15.76084 42.913706 18.5625 44.53125 C 19.438001 45.036715 20.3995 45.28796 21.34375 45.3125 C 23.421039 45.366428 25.45044 44.301137 26.5625 42.375 C 28.180083 39.573323 27.207911 35.99254 24.40625 34.375 C 23.355526 33.768287 22.187629 33.512057 21.0625 33.59375 z M 106.375 33.59375 C 105.431 33.616633 104.46927 33.869522 103.59375 34.375 C 100.79209 35.992533 99.819974 39.573332 101.4375 42.375 C 102.44851 44.125968 104.21804 45.179928 106.09375 45.3125 C 107.21915 45.392039 108.38689 45.137809 109.4375 44.53125 C 112.23917 42.913691 113.21132 39.332896 111.59375 36.53125 C 110.48169 34.605111 108.4518 33.543407 106.375 33.59375 z M 64 58.125 C 60.76493 58.125 58.15625 60.76493 58.15625 64 C 58.15624 67.23506 60.76493 69.87501 64 69.875 C 67.23508 69.875 69.84375 67.2351 69.84375 64 C 69.84376 60.76494 67.23508 58.125 64 58.125 z M 14.90625 58.15625 C 11.6712 58.156259 9.0624902 60.764923 9.0625 64 C 9.0625001 67.235082 11.671171 69.84375 14.90625 69.84375 C 18.141318 69.843751 20.781254 67.235066 20.78125 64 C 20.78125 60.764915 18.141318 58.156252 14.90625 58.15625 z M 113.09375 58.15625 C 109.85871 58.156243 107.21874 60.764914 107.21875 64 C 107.21874 67.235068 109.85867 69.843747 113.09375 69.84375 C 116.32884 69.843756 118.93751 67.235079 118.9375 64 C 118.93751 60.764916 116.32885 58.156255 113.09375 58.15625 z M 21.34375 82.6875 C 20.399746 82.710384 19.438017 82.963271 18.5625 83.46875 C 15.760843 85.086291 14.788703 88.667096 16.40625 91.46875 C 17.518302 93.394936 19.578942 94.46022 21.65625 94.40625 C 22.600478 94.381718 23.53073 94.13047 24.40625 93.625 C 27.207924 92.007445 28.18003 88.426667 26.5625 85.625 C 25.450439 83.698859 23.42056 82.637155 21.34375 82.6875 z M 106.09375 82.6875 C 104.21854 82.823655 102.44848 83.873965 101.4375 85.625 C 99.820015 88.42663 100.79211 92.007473 103.59375 93.625 C 104.46929 94.130493 105.39951 94.38172 106.34375 94.40625 C 108.42102 94.460179 110.4817 93.39491 111.59375 91.46875 C 113.21133 88.667079 112.23917 85.086286 109.4375 83.46875 C 108.38678 82.862039 107.21888 82.605807 106.09375 82.6875 z M 39.03125 100.65625 C 37.156026 100.79239 35.385966 101.84271 34.375 103.59375 C 32.7571 106.39568 33.729575 109.97624 36.53125 111.59375 C 37.406754 112.09926 38.36828 112.3505 39.3125 112.375 C 41.389794 112.42897 43.419183 111.36366 44.53125 109.4375 C 46.148348 106.63618 45.176669 103.05503 42.375 101.4375 C 41.32437 100.83091 40.156384 100.57457 39.03125 100.65625 z M 88.40625 100.65625 C 87.462247 100.67913 86.50052 100.93202 85.625 101.4375 C 82.823345 103.05505 81.851211 106.63584 83.46875 109.4375 C 84.580807 111.36366 86.610205 112.429 88.6875 112.375 C 89.631747 112.3505 90.593234 112.09923 91.46875 111.59375 C 94.27041 109.97619 95.242577 106.39544 93.625 103.59375 C 92.51296 101.66764 90.483057 100.60591 88.40625 100.65625 z M 64 107.21875 C 60.764928 107.21875 58.156251 109.85868 58.15625 113.09375 C 58.15624 116.32881 60.764931 118.93751 64 118.9375 C 67.23508 118.9375 69.843754 116.32885 69.84375 113.09375 C 69.843764 109.85869 67.235079 107.21875 64 107.21875 z " style="fill:#aaaaaa"/>
</svg>