<?xml version="1.0" encoding="UTF-8" standalone="no"?>
<svg xmlns:dc="http://purl.org/dc/elements/1.1/"
     xmlns:cc="http://creativecommons.org/ns#"
     xmlns:rdf="http://www.w3.org/1999/02/22-rdf-syntax-ns#"
     xmlns:svg="http://www.w3.org/2000/svg"
     xmlns="http://www.w3.org/2000/svg"
     xmlns:xlink="http://www.w3.org/1999/xlink"
     width="128" height="128" version="1.1">
    <title>Wireless Connection Stage 3 - 11</title>
    <desc>This is shape (source) for Clarity vector icon theme for gtk</desc>
    <metadata>
        <rdf:RDF>
            <cc:Work rdf:about="">
                <dc:title>Wireless Connection Stage 3 - 11</dc:title>
                <dc:description>This is shape (source) for Clarity vector icon theme for gtk</dc:description>
                <dc:creator>
                    <cc:Agent>
                        <dc:title>Jakub Jankiewicz</dc:title>
                    </cc:Agent>
                </dc:creator>
                <dc:rights>
                    <cc:Agent>
                        <dc:title>Jakub Jankiewicz</dc:title>
                    </cc:Agent>
                </dc:rights>
                <dc:date>2010</dc:date>
                <dc:format>image/svg+xml</dc:format>
                <dc:type rdf:resource="http://purl.org/dc/dcmitype/StillImage" />
                <cc:license rdf:resource="http://creativecommons.org/licenses/by-sa/3.0/" />
             </cc:Work>
        </rdf:RDF>
    </metadata>
    <path d="m 12.173803,34.078037 c -2.9750395,5.152987 -1.233821,11.736773 3.91917,14.711846 5.152991,2.97508 11.75239,1.20676 14.727453,-3.946215 C 33.795515,39.690721 32.02719,33.091291 26.874224,30.11621 21.721233,27.14115 15.148863,28.925066 12.173803,34.078037 z m -3.687671,26.44976 c -0.566381,1.040401 -0.8954072,2.224709 -0.895412,3.488402 6e-7,4.043861 3.288274,7.300417 7.33213,7.300381 2.780135,1.5e-5 5.192114,-1.545634 6.432036,-3.828107 0.563598,-1.037479 0.895386,-2.224687 0.89541,-3.488403 -1.1e-5,-4.043841 -3.272621,-7.327434 -7.316504,-7.327438 -2.780139,-10e-7 -5.2015499,1.566352 -6.4476584,3.855169 z M 32.876758,18.281995 c -1.031211,2.121849 -1.01916,4.700157 0.244531,6.88896 2.021976,3.502456 6.50193,4.694468 10.004012,2.672563 1.094391,-0.631861 1.956627,-1.512849 2.573332,-2.519659 1.356711,-2.215011 1.489289,-5.076665 0.09922,-7.484339 -2.021908,-3.502032 -6.486308,-4.721565 -9.988378,-2.699622 -1.313281,0.75821 -2.313984,1.868977 -2.93272,3.142099 z M 16.198692,85.98176 c -0.819698,1.692064 -0.795151,3.750138 0.215823,5.50118 1.617526,2.801595 5.204656,3.750165 8.006331,2.132634 0.875487,-0.505478 1.573838,-1.212529 2.067209,-2.018007 1.08535,-1.772021 1.177509,-4.062174 0.0654,-5.988323 -1.617534,-2.801698 -5.204669,-3.750173 -8.006331,-2.132635 -1.050791,0.606593 -1.856652,1.489915 -2.34846,2.505146 z M 58.854943,12.098964 c -0.452176,0.828971 -0.714034,1.788295 -0.714043,2.799263 -4e-6,3.235068 2.614999,5.867369 5.850076,5.86737 2.021883,-6e-5 3.819408,-1.005563 4.872069,-2.563683 0.631575,-0.934859 0.995288,-2.073269 0.995301,-3.286405 -1.6e-5,-3.235069 -2.615002,-5.8674022 -5.850078,-5.8673691 -2.224122,0 -4.15851,1.2271051 -5.153341,3.0507991 z m -6.492135,45.182205 c -3.706668,6.420142 -1.501676,14.649295 4.918469,18.355965 6.420144,3.706672 14.649295,1.501677 18.355967,-4.918466 3.706669,-6.420143 1.501677,-14.649295 -4.918469,-18.355966 -6.420144,-3.706671 -14.649294,-1.501677 -18.355967,4.918467 z M 34.392316,103.59448 c -1.617516,2.80164 -0.662706,6.36518 2.138961,7.98271 2.801661,1.61754 6.365171,0.6627 7.982711,-2.13896 1.617542,-2.80165 0.678314,-6.39224 -2.123337,-8.00978 -2.801669,-1.617541 -6.380793,-0.63562 -7.998335,2.16603 z M 83.486062,18.561615 c -1.617529,2.801619 -0.678331,6.392241 2.123337,8.00977 2.801651,1.617536 6.380796,0.63564 7.998338,-2.166019 1.61755,-2.801671 0.662702,-6.36518 -2.138958,-7.98272 -2.801661,-1.61754 -6.365158,-0.662712 -7.982717,2.138969 z M 58.855749,110.28506 c -0.452185,0.82897 -0.714042,1.7883 -0.714042,2.79926 0,3.23509 2.615,5.86739 5.850079,5.86737 2.224152,5e-5 4.17702,-1.25193 5.168922,-3.07792 0.450868,-0.83001 0.69841,-1.76124 0.69842,-2.7722 0,-3.23509 -2.614994,-5.86736 -5.850073,-5.86737 -2.224126,1e-5 -4.158511,1.22708 -5.15334,3.0508 z M 101.23075,36.889414 c -0.81969,1.69205 -0.79512,3.750135 0.21582,5.501181 1.61755,2.801594 5.2047,3.750152 8.00633,2.132635 0.87555,-0.505504 1.55822,-1.185474 2.05159,-1.990953 1.08531,-1.771996 1.19306,-4.089225 0.0811,-6.01538 -1.61753,-2.801702 -5.20466,-3.750184 -8.00633,-2.132634 -1.05076,0.606587 -1.85663,1.489904 -2.34846,2.505155 z M 83.260899,103.95162 c -0.819728,1.69205 -0.795149,3.75014 0.215821,5.50118 1.617589,2.8021 5.204683,3.75019 8.006322,2.13263 0.875549,-0.50546 1.573885,-1.21253 2.067216,-2.01801 1.085412,-1.77198 1.177504,-4.06215 0.06543,-5.98832 -1.617462,-2.80111 -5.204654,-3.750173 -8.006329,-2.13263 -1.050622,0.60659 -1.85662,1.4899 -2.348454,2.50514 z M 107.9484,61.19161 c -0.45217,0.828979 -0.71404,1.788299 -0.71406,2.79926 4e-5,3.235081 2.615,5.867377 5.85009,5.867367 2.22412,2.2e-5 4.16142,-1.224825 5.15333,-3.050817 0.4509,-0.829992 0.71404,-1.7883 0.71404,-2.799259 -2e-5,-3.23508 -2.61496,-5.867391 -5.85008,-5.867362 -2.22408,-1e-6 -4.15852,1.227088 -5.15331,3.050819 z m -6.51984,24.417682 c -1.617522,2.801662 -0.63563,6.380792 2.16603,7.998339 2.80164,1.617538 6.36518,0.662692 7.98271,-2.138961 1.61754,-2.801662 0.66272,-6.365168 -2.13896,-7.98271 -2.80163,-1.617536 -6.39224,-0.678324 -8.00978,2.123332 z" style="fill:#aaaaaa"/>
</svg>