<?xml version="1.0" encoding="UTF-8" standalone="no"?>
<svg xmlns:dc="http://purl.org/dc/elements/1.1/"
     xmlns:cc="http://creativecommons.org/ns#"
     xmlns:rdf="http://www.w3.org/1999/02/22-rdf-syntax-ns#"
     xmlns:svg="http://www.w3.org/2000/svg"
     xmlns="http://www.w3.org/2000/svg"
     xmlns:xlink="http://www.w3.org/1999/xlink"
     width="128" height="128" version="1.1">
    <title>Wireless Connection Stage 3 - 02</title>
    <desc>This is shape (source) for Clarity vector icon theme for gtk</desc>
    <metadata>
        <rdf:RDF>
            <cc:Work rdf:about="">
                <dc:title>Wireless Connection Stage 3 - 02</dc:title>
                <dc:description>This is shape (source) for Clarity vector icon theme for gtk</dc:description>
                <dc:creator>
                    <cc:Agent>
                        <dc:title>Jakub Jankiewicz</dc:title>
                    </cc:Agent>
                </dc:creator>
                <dc:rights>
                    <cc:Agent>
                        <dc:title>Jakub Jankiewicz</dc:title>
                    </cc:Agent>
                </dc:rights>
                <dc:date>2010</dc:date>
                <dc:format>image/svg+xml</dc:format>
                <dc:type rdf:resource="http://purl.org/dc/dcmitype/StillImage" />
                <cc:license rdf:resource="http://creativecommons.org/licenses/by-sa/3.0/" />
             </cc:Work>
        </rdf:RDF>
    </metadata>
    <path d="m 93.92184,12.173811 c -5.152975,-2.9750592 -11.736767,-1.233835 -14.711836,3.919148 -2.97508,5.152992 -1.206762,11.752403 3.946211,14.727462 5.152952,2.975091 11.752377,1.206762 14.727461,-3.946212 2.975054,-5.15298 1.191142,-11.725347 -3.961836,-14.700398 z M 67.472086,8.4861284 c -1.0404,-0.566381 -2.22471,-0.8954082 -3.4884,-0.8954129 -4.043855,-4.8e-6 -7.300414,3.2882715 -7.30038,7.3321295 -2e-5,2.780136 1.545632,5.192107 3.828103,6.43203 1.037479,0.563597 2.224691,0.895396 3.488401,0.895413 4.043846,-8e-6 7.327442,-3.272623 7.327443,-7.316504 10e-7,-2.780138 -1.566348,-5.2015497 -3.855167,-6.4476556 z M 109.71789,32.876753 c -2.12185,-1.031208 -4.70015,-1.019168 -6.88896,0.244531 -3.502454,2.021967 -4.694471,6.501928 -2.67256,10.004004 0.63186,1.094394 1.51284,1.956633 2.51965,2.573337 2.21502,1.356714 5.07667,1.489288 7.48435,0.09922 3.50203,-2.021901 4.72156,-6.486304 2.69962,-9.988379 -0.75821,-1.313272 -1.86898,-2.313978 -3.1421,-2.932713 z M 42.018124,16.198684 c -1.692066,-0.819698 -3.750138,-0.795149 -5.501181,0.215825 -2.801596,1.617528 -3.750165,5.204655 -2.132632,8.006328 0.505477,0.875488 1.21253,1.573837 2.018008,2.067207 1.772021,1.08535 4.062175,1.177509 5.98832,0.06543 2.801702,-1.61753 3.750173,-5.204667 2.132633,-8.006328 -0.606592,-1.05079 -1.489909,-1.85664 -2.505148,-2.348457 z m 73.882796,42.65625 c -0.82897,-0.452172 -1.78829,-0.714035 -2.79926,-0.714043 -3.23507,-4e-6 -5.86737,2.614998 -5.86737,5.850078 6e-5,2.021882 1.00556,3.819409 2.56368,4.872075 0.93486,0.631575 2.07327,0.99528 3.2864,0.995293 3.23509,-1.8e-5 5.86741,-2.615006 5.86737,-5.850078 0,-2.224121 -1.2271,-4.158508 -3.05082,-5.153325 z M 70.718715,52.362802 c -6.420143,-3.706671 -14.649295,-1.501677 -18.355966,4.918467 -3.706672,6.420143 -1.501677,14.649295 4.918466,18.355966 6.420143,3.706672 14.649295,1.501677 18.355966,-4.918466 3.706672,-6.420144 1.501677,-14.649295 -4.918466,-18.355967 z M 24.405405,34.392308 c -2.801639,-1.617516 -6.36518,-0.662704 -7.982711,2.138961 -1.617539,2.801663 -0.662698,6.365172 2.138961,7.982711 2.801651,1.617537 6.392245,0.678314 8.009775,-2.123336 1.617543,-2.801667 0.635626,-6.380799 -2.166025,-7.998336 z m 85.032865,49.09375 c -2.80162,-1.61753 -6.39224,-0.678334 -8.00977,2.123336 -1.617542,2.801646 -0.63564,6.380796 2.16602,7.998336 2.80167,1.617552 6.36518,0.662704 7.98272,-2.138961 1.61754,-2.801657 0.66271,-6.365153 -2.13897,-7.982711 z M 17.714819,58.855744 c -0.828966,-0.452185 -1.788294,-0.714042 -2.799258,-0.714043 -3.235089,2e-6 -5.867389,2.615001 -5.8673675,5.850078 -5.11e-5,2.224153 1.2519235,4.177016 3.0778835,5.16895 0.830005,0.450867 1.761236,0.698407 2.772195,0.698417 3.235088,-3e-6 5.867356,-2.614997 5.867367,-5.850078 0,-2.22412 -1.227088,-4.158508 -3.05082,-5.153324 z m 73.395653,42.374996 c -1.69205,-0.81968 -3.75014,-0.79512 -5.501181,0.21583 -2.801599,1.61754 -3.750153,5.20469 -2.132633,8.00633 0.505501,0.87554 1.185468,1.55821 1.990945,2.05158 1.772,1.08532 4.089231,1.19306 6.015384,0.0811 2.801701,-1.61753 3.750183,-5.20467 2.132632,-8.00633 -0.60659,-1.05077 -1.489904,-1.85663 -2.505147,-2.34846 z M 24.048268,83.260888 c -1.692055,-0.819719 -3.750139,-0.79515 -5.501181,0.215824 -2.802108,1.617592 -3.750196,5.204688 -2.132632,8.006328 0.505457,0.875539 1.212527,1.573884 2.018008,2.067208 1.771987,1.085411 4.062154,1.177502 5.98832,0.06543 2.801109,-1.617465 3.750172,-5.204656 2.132633,-8.006328 -0.606595,-1.050625 -1.489907,-1.856624 -2.505148,-2.348457 z m 42.760005,24.687502 c -0.828982,-0.45217 -1.788298,-0.71404 -2.799259,-0.71405 -3.235079,3e-5 -5.867376,2.61499 -5.867367,5.85008 -1.8e-5,2.22412 1.224827,4.16143 3.05082,5.15333 0.829993,0.4509 1.788298,0.71404 2.799258,0.71404 3.23508,-2e-5 5.867394,-2.61496 5.867368,-5.85008 0,-2.22408 -1.22709,-4.15852 -3.05082,-5.15332 z M 42.39059,101.42855 c -2.801659,-1.617523 -6.380796,-0.63562 -7.998336,2.16603 -1.617538,2.80164 -0.662698,6.36518 2.138961,7.98271 2.801662,1.61754 6.365161,0.66273 7.982711,-2.13896 1.617538,-2.80163 0.678321,-6.39223 -2.123336,-8.00978 z" style="fill:#aaaaaa"/>
</svg>