<?xml version="1.0" encoding="UTF-8" standalone="no"?>
<svg xmlns:dc="http://purl.org/dc/elements/1.1/"
     xmlns:cc="http://creativecommons.org/ns#"
     xmlns:rdf="http://www.w3.org/1999/02/22-rdf-syntax-ns#"
     xmlns:svg="http://www.w3.org/2000/svg"
     xmlns="http://www.w3.org/2000/svg"
     xmlns:xlink="http://www.w3.org/1999/xlink"
     width="128" height="128" version="1.1">
    <title>Wireless Connection Stage 2 - 09</title>
    <desc>This is shape (source) for Clarity vector icon theme for gtk</desc>
    <metadata>
        <rdf:RDF>
            <cc:Work rdf:about="">
                <dc:title>Wireless Connection Stage 2 - 09</dc:title>
                <dc:description>This is shape (source) for Clarity vector icon theme for gtk</dc:description>
                <dc:creator>
                    <cc:Agent>
                        <dc:title>Jakub Jankiewicz</dc:title>
                    </cc:Agent>
                </dc:creator>
                <dc:rights>
                    <cc:Agent>
                        <dc:title>Jakub Jankiewicz</dc:title>
                    </cc:Agent>
                </dc:rights>
                <dc:date>2010</dc:date>
                <dc:format>image/svg+xml</dc:format>
                <dc:type rdf:resource="http://purl.org/dc/dcmitype/StillImage" />
                <cc:license rdf:resource="http://creativecommons.org/licenses/by-sa/3.0/" />
             </cc:Work>
        </rdf:RDF>
    </metadata>
    <path d="m 12.173775,93.921751 c 2.975079,5.152966 9.547411,6.936919 14.700388,3.96184 5.15299,-2.975081 6.921289,-9.574495 3.946213,-14.727458 -2.975041,-5.152981 -9.574475,-6.921277 -14.727462,-3.946214 -5.152962,2.975084 -6.8942227,9.558875 -3.919139,14.711832 z m 21.06231,16.418509 c 0.617822,1.0107 1.478942,1.88781 2.573329,2.51966 3.502077,2.02193 7.966483,0.80247 9.988382,-2.69963 1.390087,-2.40766 1.257507,-5.26932 -0.09921,-7.48436 -0.616684,-1.00683 -1.478939,-1.88778 -2.573335,-2.51965 -3.502078,-2.021917 -7.982068,-0.829533 -10.004009,2.67257 -1.39007,2.40767 -1.244278,5.28784 0.114844,7.51141 z M 8.8454621,68.094466 c 1.3219679,1.953975 3.5608659,3.2327 6.0882799,3.23271 4.044195,1.51e-4 7.316489,-3.283608 7.3165,-7.32745 -9e-6,-1.263704 -0.331838,-2.450914 -0.895408,-3.488401 -1.239904,-2.282459 -3.651883,-3.828097 -6.432032,-3.828105 -4.043792,6e-6 -7.332136,3.256527 -7.332129,7.300379 -4.7e-6,1.516432 0.4616037,2.938461 1.2547901,4.11086 z M 59.136145,116.38797 c 1.055521,1.55591 2.850141,2.56369 4.872073,2.56368 3.23502,-2e-5 5.850069,-2.63228 5.850079,-5.86737 -10e-6,-1.01093 -0.263171,-1.96924 -0.71405,-2.79925 -0.99194,-1.82595 -2.929209,-3.05082 -5.153339,-3.0508 -3.235111,-3e-5 -5.850072,2.63228 -5.850071,5.86736 -6.9e-5,1.21331 0.361979,2.35286 0.995291,3.2864 z M 16.479894,42.505183 c 0.491822,0.806081 1.19169,1.512516 2.06721,2.018008 2.80165,1.617541 6.38877,0.669022 8.006309,-2.132642 1.010891,-1.751031 1.038881,-3.810479 0.215841,-5.501173 -0.493827,-1.014392 -1.297861,-1.898569 -2.348461,-2.505152 -2.801679,-1.617531 -6.388819,-0.669045 -8.006319,2.132635 -1.11206,1.926143 -1.01658,4.214927 0.0654,5.988324 z m 42.432184,24.432196 c 1.617534,2.801654 5.208122,3.740874 8.009775,2.123336 2.801648,-1.61752 3.783568,-5.196688 2.166023,-7.998334 -1.617541,-2.801661 -5.208095,-3.740888 -8.009774,-2.123335 -2.80165,1.61752 -3.783564,5.196672 -2.166024,7.998333 z m 24.573938,42.500811 c 1.617533,2.80163 5.181056,3.75651 7.98271,2.13896 2.801662,-1.61754 3.756501,-5.18105 2.138962,-7.98271 -1.617532,-2.80165 -5.196685,-3.783559 -7.998333,-2.16602 -2.801667,1.61754 -3.740871,5.20812 -2.123339,8.00977 z M 34.392268,24.405323 c 1.617509,2.80163 5.196675,3.783574 7.998334,2.166019 2.801659,-1.617517 3.740877,-5.208107 2.123338,-8.009769 -1.617541,-2.801679 -5.181055,-3.75651 -7.98271,-2.138961 -2.801669,1.617532 -3.756508,5.181023 -2.138962,7.982711 z m 67.119682,67.192206 c 0.49181,0.806085 1.19169,1.512523 2.0672,2.018005 2.80167,1.617538 6.3888,0.669033 8.00633,-2.132633 1.11211,-1.926156 1.00435,-4.243361 -0.081,-6.015381 -0.49336,-0.805462 -1.17608,-1.485461 -2.05159,-1.990948 -2.80167,-1.617537 -6.38877,-0.669021 -8.00632,2.132634 -1.11206,1.926144 -1.01658,4.214926 0.0654,5.988318 z M 59.136953,18.20188 c 1.055516,1.55589 2.850141,2.563664 4.872068,2.563672 3.235028,-2.8e-5 5.850083,-2.632304 5.850081,-5.867358 1e-6,-1.010987 -0.247538,-1.942196 -0.698413,-2.772209 -0.991934,-1.82592 -2.944823,-3.077887 -5.168923,-3.077925 -3.235109,-2.93e-5 -5.850086,2.632283 -5.850081,5.867369 -6.4e-5,1.213305 0.361982,2.352851 0.995292,3.286399 z M 108.2296,67.295329 c 1.05551,1.55592 2.85014,2.56368 4.87207,2.563682 3.2355,1.77e-4 5.85011,-2.632292 5.85008,-5.867369 3e-5,-1.010962 -0.26315,-1.969289 -0.71405,-2.79926 -0.9919,-1.825972 -2.92918,-3.05082 -5.15332,-3.050816 -3.23456,2.15e-4 -5.85009,2.632286 -5.85008,5.867369 0,1.213167 0.36199,2.352838 0.9953,3.286397 z M 83.542093,24.535324 c 0.491818,0.806093 1.191689,1.512531 2.067208,2.018012 2.801668,1.617528 6.388788,0.66903 8.006331,-2.132642 1.112072,-1.926138 1.019986,-4.21632 -0.06543,-5.98831 -0.493335,-0.8055 -1.191686,-1.512539 -2.067201,-2.01802 -2.80168,-1.617518 -6.388785,-0.669069 -8.00633,2.132641 -1.11204,1.92611 -1.016575,4.21492 0.06542,5.98832 z m 17.886417,17.855184 c 1.61754,2.801652 5.20812,3.74087 8.00977,2.12334 2.80165,-1.617524 3.75651,-5.181069 2.13897,-7.982721 -1.61754,-2.80166 -5.18103,-3.756513 -7.98272,-2.138954 -2.80164,1.617514 -3.783557,5.196674 -2.16602,7.998335 z" style="fill:#aaaaaa"/>
</svg>