<?xml version="1.0" encoding="UTF-8" standalone="no"?>
<svg xmlns:dc="http://purl.org/dc/elements/1.1/"
     xmlns:cc="http://creativecommons.org/ns#"
     xmlns:rdf="http://www.w3.org/1999/02/22-rdf-syntax-ns#"
     xmlns:svg="http://www.w3.org/2000/svg"
     xmlns="http://www.w3.org/2000/svg"
     xmlns:xlink="http://www.w3.org/1999/xlink"
     width="128" height="128" version="1.1">
    <title>Wireless Connection Stage 1 - 05</title>
    <desc>This is shape (source) for Clarity vector icon theme for gtk</desc>
    <metadata>
        <rdf:RDF>
            <cc:Work rdf:about="">
                <dc:title>Wireless Connection Stage 1 - 05</dc:title>
                <dc:description>This is shape (source) for Clarity vector icon theme for gtk</dc:description>
                <dc:creator>
                    <cc:Agent>
                        <dc:title>Jakub Jankiewicz</dc:title>
                    </cc:Agent>
                </dc:creator>
                <dc:rights>
                    <cc:Agent>
                        <dc:title>Jakub Jankiewicz</dc:title>
                    </cc:Agent>
                </dc:rights>
                <dc:date>2010</dc:date>
                <dc:format>image/svg+xml</dc:format>
                <dc:type rdf:resource="http://purl.org/dc/dcmitype/StillImage" />
                <cc:license rdf:resource="http://creativecommons.org/licenses/by-sa/3.0/" />
             </cc:Work>
        </rdf:RDF>
    </metadata>
    <path d="m 16.422679,36.53121 c 1.61753,-2.801658 5.181061,-3.756498 7.9827,-2.138961 2.80166,1.617542 3.783575,5.196689 2.16604,7.998343 -1.61754,2.801661 -5.20813,3.740879 -8.009779,2.123332 -2.801671,-1.61754 -3.756501,-5.181054 -2.138961,-7.982714 z M 34.449722,18.432471 c 0.493328,-0.80547 1.191684,-1.512538 2.067217,-2.018005 2.801648,-1.617559 6.388728,-0.669482 8.006311,2.132621 1.617543,2.801672 0.669079,6.388794 -2.132624,8.006333 -2.801655,1.617549 -6.38885,0.668474 -8.006319,-2.132631 -1.112065,-1.926146 -1.019968,-4.21632 0.06541,-5.988335 z M 9.7622193,61.192461 c 0.9918817,-1.825989 2.9292017,-3.050814 5.1533317,-3.050807 3.235079,0 5.850058,2.63228 5.850075,5.867366 -6e-6,3.235071 -2.632295,5.850071 -5.867342,5.850066 -3.235117,1.3e-5 -5.8501017,-2.632273 -5.8501059,-5.867361 2.8e-6,-1.010955 0.2631524,-1.969266 0.714044,-2.799259 z M 58.839231,12.12608 c 0.99192,-1.825977 2.944836,-3.0778898 5.168982,-3.0778445 3.235076,-3.6e-6 5.850082,2.6322915 5.850078,5.8673695 0,3.235066 -2.632291,5.850087 -5.867368,5.85008 -3.235079,-4e-6 -5.850076,-2.632283 -5.850083,-5.867368 8e-6,-1.010954 0.247543,-1.942217 0.698412,-2.772198 z M 16.49548,85.467615 c 0.493355,-0.805475 1.176062,-1.485463 2.051597,-1.990959 2.801644,-1.617525 6.388785,-0.668977 8.006332,2.132623 1.617524,2.801676 0.669461,6.388751 -2.13263,8.00633 -2.801669,1.617557 -6.3888,0.66908 -8.006328,-2.132621 -1.112071,-1.926151 -1.004331,-4.24338 0.081,-6.015379 z M 83.485981,18.561657 c 1.617537,-2.801659 5.181052,-3.756498 7.982719,-2.138961 2.801654,1.617534 3.756479,5.181065 2.138958,7.982706 -1.617533,2.801649 -5.196675,3.78357 -7.998343,2.166025 -2.801649,-1.617534 -3.740867,-5.208111 -2.123334,-8.00977 z M 34.39223,103.59453 c 1.617546,-2.80166 5.196695,-3.783579 7.998336,-2.16603 2.801667,1.61754 3.740879,5.20813 2.123346,8.00976 -1.617545,2.80167 -5.18105,3.75652 -7.982715,2.13897 -2.801667,-1.61753 -3.756508,-5.18104 -2.138967,-7.9827 z m 67.11969,-67.192212 c 0.49336,-0.805467 1.1917,-1.512529 2.06721,-2.018007 2.80165,-1.617531 6.38879,-0.668976 8.00632,2.132629 1.61755,2.801662 0.66948,6.388743 -2.13263,8.006329 -2.80166,1.617539 -6.38879,0.669077 -8.00633,-2.132631 -1.11205,-1.926137 -1.01994,-4.216302 0.0654,-5.988319 z M 59.136918,109.79797 c 1.052661,-1.55812 2.85019,-2.56362 4.872078,-2.56369 3.235081,1e-5 5.85008,2.63231 5.85008,5.86738 -9e-6,3.23507 -2.632286,5.85006 -5.86736,5.85006 -3.235081,3e-5 -5.850087,-2.63227 -5.850098,-5.86736 1.1e-5,-1.21313 0.363717,-2.35153 0.9953,-3.28639 z M 106.64509,60.511412 c 1.23991,-2.282473 3.65189,-3.828114 6.43204,-3.828102 4.04385,-1.5e-5 7.33212,3.256528 7.3321,7.300381 1e-5,4.043833 -3.2992,7.343566 -7.34305,7.343564 -4.04385,4e-6 -7.3165,-3.283596 -7.31649,-7.327447 -1e-5,-1.263702 0.3318,-2.450916 0.89541,-3.488394 z M 82.301335,102.67601 c 0.616701,-1.00681 1.478943,-1.88779 2.573342,-2.51965 3.502067,-2.021913 7.982045,-0.829883 10.004002,2.67257 2.021917,3.50207 0.813884,8.00913 -2.68818,10.03106 -3.502069,2.02194 -7.966472,0.80241 -9.988381,-2.69962 -1.390075,-2.40768 -1.257494,-5.26933 0.09923,-7.48434 z M 97.179552,83.156216 c 2.975058,-5.152973 9.574468,-6.921288 14.727458,-3.946212 5.15297,2.975074 6.89421,9.558859 3.91914,14.711837 -2.97505,5.152977 -9.54742,6.936899 -14.7004,3.961838 -5.152977,-2.97508 -6.921276,-9.574497 -3.946198,-14.727463 z" style="fill:#aaaaaa"/>
</svg>