<?xml version="1.0" encoding="UTF-8" standalone="no"?>
<svg xmlns:dc="http://purl.org/dc/elements/1.1/"
     xmlns:cc="http://creativecommons.org/ns#"
     xmlns:rdf="http://www.w3.org/1999/02/22-rdf-syntax-ns#"
     xmlns:svg="http://www.w3.org/2000/svg"
     xmlns="http://www.w3.org/2000/svg"
     xmlns:xlink="http://www.w3.org/1999/xlink"
     width="128" height="128" version="1.1">
    <title>Wireless Connection Stage 2 - 11</title>
    <desc>This is shape (source) for Clarity vector icon theme for gtk</desc>
    <metadata>
        <rdf:RDF>
            <cc:Work rdf:about="">
                <dc:title>Wireless Connection Stage 2 - 11</dc:title>
                <dc:description>This is shape (source) for Clarity vector icon theme for gtk</dc:description>
                <dc:creator>
                    <cc:Agent>
                        <dc:title>Jakub Jankiewicz</dc:title>
                    </cc:Agent>
                </dc:creator>
                <dc:rights>
                    <cc:Agent>
                        <dc:title>Jakub Jankiewicz</dc:title>
                    </cc:Agent>
                </dc:rights>
                <dc:date>2010</dc:date>
                <dc:format>image/svg+xml</dc:format>
                <dc:type rdf:resource="http://purl.org/dc/dcmitype/StillImage" />
                <cc:license rdf:resource="http://creativecommons.org/licenses/by-sa/3.0/" />
             </cc:Work>
        </rdf:RDF>
    </metadata>
    <path d="m 12.173823,34.078061 c -2.9750597,5.152976 -1.233843,11.736759 3.919139,14.711829 5.152992,2.97508 11.752402,1.206764 14.72746,-3.946209 2.975092,-5.152952 1.206765,-11.752377 -3.946209,-14.727462 -5.15298,-2.975055 -11.72534,-1.191135 -14.70039,3.961842 z M 8.4861325,60.52781 c -0.5663806,1.0404 -0.895421,2.224707 -0.8954253,3.488398 -4.3e-6,4.043854 3.2882828,7.300412 7.3321398,7.300378 2.780137,2.1e-5 5.192118,-1.545627 6.43204,-3.828099 0.563597,-1.037479 0.895397,-2.224688 0.895414,-3.488398 -8e-6,-4.043846 -3.272637,-7.32744 -7.316518,-7.327441 -2.780139,-1e-6 -5.2015438,1.566344 -6.4476502,3.855163 z M 32.876752,18.282014 c -1.031209,2.121845 -1.019168,4.70015 0.244531,6.88896 2.021966,3.502451 6.501932,4.694462 10.004008,2.67255 1.094395,-0.63186 1.956635,-1.512837 2.573339,-2.519647 1.356714,-2.215018 1.489288,-5.076671 0.09922,-7.484355 -2.021901,-3.502024 -6.486303,-4.721553 -9.988378,-2.699621 -1.313271,0.758213 -2.31398,1.868991 -2.932714,3.142111 z m -16.67806,67.699761 c -0.819698,1.692065 -0.79515,3.750139 0.215824,5.501181 1.617528,2.801597 5.204657,3.750165 8.00633,2.132633 0.875487,-0.505477 1.573827,-1.212535 2.067197,-2.018013 1.08535,-1.772021 1.177483,-4.062178 0.0654,-5.988323 -1.617531,-2.801703 -5.20466,-3.750167 -8.00632,-2.132627 -1.050791,0.606592 -1.856644,1.489907 -2.34846,2.505146 z m 42.656244,-73.88279 c -0.452175,0.828971 -0.714032,1.788291 -0.71404,2.79926 -8e-6,3.235071 2.614995,5.867348 5.850076,5.867347 2.021882,-5.9e-5 3.819412,-1.005544 4.872076,-2.563664 0.631576,-0.934862 0.995279,-2.073265 0.995295,-3.286402 -1.7e-5,-3.235092 -2.615,-5.8674027 -5.850075,-5.8673588 -2.22412,-7e-7 -4.158525,1.2270798 -5.153341,3.0507998 z m 0.05719,48.963447 c -1.617537,2.801653 -0.635632,6.380802 2.166023,7.998337 2.801638,1.617537 6.392248,0.678322 8.009772,-2.123336 1.61754,-2.801662 0.635657,-6.380788 -2.166024,-7.998335 -2.801638,-1.617541 -6.392233,-0.678327 -8.009771,2.123334 z M 34.392314,103.59449 c -1.617517,2.80164 -0.662705,6.36518 2.13896,7.98271 2.801662,1.61754 6.365172,0.6627 7.982712,-2.13896 1.617536,-2.80165 0.678315,-6.39224 -2.123336,-8.00977 -2.801666,-1.617543 -6.3808,-0.63563 -7.998336,2.16602 z M 83.486063,18.561626 c -1.617528,2.801619 -0.678333,6.39224 2.123339,8.00977 2.80164,1.61755 6.380792,0.635641 7.998333,-2.16602 1.617554,-2.801671 0.662705,-6.36518 -2.138961,-7.98271 -2.801657,-1.61755 -6.365151,-0.66272 -7.982711,2.13896 z M 58.855747,110.28508 c -0.452185,0.82897 -0.714039,1.78829 -0.714042,2.79925 3e-6,3.23509 2.615001,5.86738 5.85008,5.86736 2.224152,5e-5 4.177032,-1.25188 5.168971,-3.07783 0.450871,-0.83 0.698404,-1.76124 0.698413,-2.7722 -3e-6,-3.23509 -2.614992,-5.86735 -5.850072,-5.86736 -2.22412,0 -4.158521,1.22707 -5.153338,3.0508 z M 101.23074,36.889431 c -0.81968,1.692048 -0.79512,3.750126 0.21583,5.50117 1.61754,2.801603 5.20469,3.750169 8.00633,2.13264 0.87554,-0.505493 1.55822,-1.185472 2.05159,-1.990948 1.08533,-1.772 1.19312,-4.089235 0.0811,-6.015381 -1.61753,-2.801701 -5.20467,-3.750182 -8.00633,-2.132634 -1.05078,0.606597 -1.85664,1.489911 -2.34846,2.505147 z M 83.260894,103.95163 c -0.81971,1.69206 -0.795145,3.75014 0.215825,5.50118 1.617591,2.80211 5.204687,3.7502 8.006329,2.13264 0.875536,-0.50546 1.573879,-1.21254 2.067201,-2.01802 1.085409,-1.77199 1.177501,-4.06215 0.06542,-5.98832 -1.617458,-2.8011 -5.204663,-3.750176 -8.006328,-2.13263 -1.050631,0.60659 -1.856617,1.48992 -2.348451,2.50516 z M 107.94839,61.191621 c -0.45217,0.828983 -0.71405,1.7883 -0.71405,2.799262 2e-5,3.235078 2.615,5.867369 5.85009,5.867366 2.22412,1.3e-5 4.16143,-1.224828 5.15332,-3.05082 0.4509,-0.829994 0.71405,-1.788299 0.71405,-2.799259 -2e-5,-3.235081 -2.61496,-5.867382 -5.85008,-5.867361 -2.22408,0 -4.15852,1.22708 -5.15333,3.050812 z m -6.51984,24.417685 c -1.617524,2.801658 -0.63562,6.380799 2.16603,7.998336 2.80164,1.617537 6.36519,0.6627 7.98272,-2.138959 1.61754,-2.801661 0.66272,-6.365162 -2.13897,-7.982715 -2.80163,-1.617536 -6.39223,-0.678318 -8.00978,2.123338 z" style="fill:#aaaaaa"/>
</svg>