<?xml version="1.0" encoding="UTF-8" standalone="no"?>
<svg xmlns:dc="http://purl.org/dc/elements/1.1/"
     xmlns:cc="http://creativecommons.org/ns#"
     xmlns:rdf="http://www.w3.org/1999/02/22-rdf-syntax-ns#"
     xmlns:svg="http://www.w3.org/2000/svg"
     xmlns="http://www.w3.org/2000/svg"
     xmlns:xlink="http://www.w3.org/1999/xlink"
     width="128" height="128" version="1.1">
    <title>Wireless Connection Stage 3 - 09</title>
    <desc>This is shape (source) for Clarity vector icon theme for gtk</desc>
    <metadata>
        <rdf:RDF>
            <cc:Work rdf:about="">
                <dc:title>Wireless Connection Stage 3 - 09</dc:title>
                <dc:description>This is shape (source) for Clarity vector icon theme for gtk</dc:description>
                <dc:creator>
                    <cc:Agent>
                        <dc:title>Jakub Jankiewicz</dc:title>
                    </cc:Agent>
                </dc:creator>
                <dc:rights>
                    <cc:Agent>
                        <dc:title>Jakub Jankiewicz</dc:title>
                    </cc:Agent>
                </dc:rights>
                <dc:date>2010</dc:date>
                <dc:format>image/svg+xml</dc:format>
                <dc:type rdf:resource="http://purl.org/dc/dcmitype/StillImage" />
                <cc:license rdf:resource="http://creativecommons.org/licenses/by-sa/3.0/" />
             </cc:Work>
        </rdf:RDF>
    </metadata>
    <path d="m 12.173749,93.921743 c 2.975097,5.152953 9.547433,6.936907 14.700417,3.961822 5.15299,-2.97508 6.92128,-9.574488 3.946204,-14.727455 -2.975039,-5.152977 -9.574475,-6.921278 -14.727454,-3.946218 -5.152973,2.97509 -6.8942417,9.558888 -3.919167,14.711851 z m 21.062329,16.418497 c 0.617823,1.0107 1.47895,1.8878 2.573338,2.51965 3.502086,2.02193 7.966483,0.80248 9.988381,-2.69962 1.39008,-2.40766 1.257497,-5.26932 -0.09922,-7.48436 -0.616684,-1.00683 -1.478943,-1.88777 -2.573341,-2.51965 -3.502075,-2.02191 -7.982055,-0.829543 -10.003999,2.67256 -1.390071,2.40767 -1.244276,5.28785 0.114844,7.51142 z M 8.8454529,68.094437 c 1.3219691,1.95398 3.5608741,3.232697 6.0882801,3.23271 4.044203,1.46e-4 7.316492,-3.283603 7.316512,-7.327447 -1.2e-5,-1.263701 -0.331851,-2.450913 -0.895422,-3.4884 -1.2399,-2.282452 -3.651877,-3.828095 -6.432018,-3.828097 -4.043803,8e-6 -7.332149,3.256526 -7.33213,7.300379 -1.22e-5,1.516439 0.4615896,2.938458 1.2547776,4.11086 z M 59.136136,116.38795 c 1.055521,1.55591 2.85014,2.56369 4.872072,2.56368 3.235018,-2e-5 5.850068,-2.63228 5.85008,-5.86737 -1.1e-5,-1.01093 -0.263161,-1.96925 -0.714041,-2.79926 -0.99194,-1.82595 -2.929191,-3.05084 -5.15334,-3.0508 -3.235107,-2e-5 -5.850079,2.63229 -5.85008,5.86737 -7e-5,1.21331 0.361981,2.35287 0.995291,3.2864 z M 16.479883,42.505154 c 0.491823,0.80608 1.191691,1.512518 2.067211,2.018011 2.80165,1.617537 6.38879,0.669029 8.00633,-2.132631 1.01089,-1.751031 1.03886,-3.810485 0.21582,-5.501177 -0.493824,-1.014389 -1.29786,-1.898579 -2.34846,-2.505158 -2.80166,-1.617521 -6.38882,-0.669043 -8.00633,2.132632 -1.112061,1.926146 -1.01655,4.214928 0.0654,5.988324 z m 35.88287,28.213455 c 3.706672,6.420141 11.935824,8.625138 18.355967,4.918464 6.420143,-3.706671 8.625138,-11.935823 4.918466,-18.355966 -3.706672,-6.420141 -11.935823,-8.625138 -18.355967,-4.918464 -6.420143,3.706671 -8.625137,11.935822 -4.918466,18.355966 z m 31.123258,38.719561 c 1.617533,2.80163 5.181055,3.75651 7.98271,2.13896 2.801662,-1.61754 3.756501,-5.18105 2.138962,-7.98271 -1.61753,-2.80166 -5.196685,-3.783557 -7.99834,-2.16603 -2.801667,1.61755 -3.740862,5.20812 -2.123332,8.00978 z M 34.392262,24.405304 c 1.61751,2.801631 5.196678,3.783572 7.998333,2.166022 2.801653,-1.617533 3.740879,-5.208112 2.123341,-8.009774 -1.617542,-2.801675 -5.181056,-3.756507 -7.982717,-2.138968 -2.801661,1.617539 -3.756504,5.181033 -2.138957,7.98272 z m 67.119678,67.192197 c 0.49182,0.806089 1.19169,1.51253 2.06721,2.018011 2.80167,1.617545 6.38881,0.669038 8.00633,-2.132632 1.11212,-1.926147 1.00431,-4.243369 -0.0811,-6.015382 -0.49337,-0.805468 -1.17607,-1.485458 -2.05158,-1.990946 -2.80167,-1.617545 -6.38878,-0.669027 -8.00633,2.13263 -1.11206,1.926146 -1.01657,4.214918 0.0654,5.988322 z M 59.136944,18.201857 c 1.055518,1.55589 2.850155,2.563658 4.872075,2.563679 3.235026,-4e-5 5.850075,-2.632321 5.850082,-5.867369 -8e-6,-1.010993 -0.247541,-1.942194 -0.698421,-2.772204 -0.991938,-1.825906 -2.944846,-3.0778266 -5.168923,-3.0779251 -3.235108,-3.01e-5 -5.850087,2.6322821 -5.850079,5.8673671 -6.3e-5,1.213282 0.361979,2.352841 0.995296,3.286407 z m 49.092646,49.093446 c 1.0555,1.555927 2.85014,2.563689 4.87208,2.563685 3.23548,1.74e-4 5.8501,-2.632297 5.85007,-5.867368 3e-5,-1.01097 -0.26314,-1.969288 -0.71404,-2.79926 -0.99188,-1.825989 -2.92918,-3.050826 -5.15332,-3.050824 -3.23457,2.1e-4 -5.85008,2.632278 -5.85008,5.86737 10e-6,1.213162 0.36198,2.352832 0.99529,3.286391 z M 83.542089,24.535296 c 0.491833,0.806079 1.191691,1.512529 2.067204,2.018019 2.801676,1.617513 6.388793,0.669039 8.006331,-2.132641 1.112074,-1.926128 1.019982,-4.216308 -0.06542,-5.988319 -0.493341,-0.805492 -1.191691,-1.51253 -2.067208,-2.018009 -2.801671,-1.617521 -6.388791,-0.669071 -8.006328,2.132639 -1.11204,1.926109 -1.016571,4.21493 0.06543,5.98831 z M 101.4285,42.390488 c 1.61755,2.801643 5.20812,3.740859 8.00978,2.123331 2.80165,-1.617524 3.7565,-5.181061 2.13896,-7.982711 -1.61754,-2.801662 -5.18103,-3.756523 -7.98271,-2.138961 -2.80164,1.617513 -3.783559,5.196673 -2.16603,7.998341 z" style="fill:#aaaaaa"/>
</svg>