<?xml version="1.0" encoding="UTF-8" standalone="no"?>
<svg xmlns:dc="http://purl.org/dc/elements/1.1/"
     xmlns:cc="http://creativecommons.org/ns#"
     xmlns:rdf="http://www.w3.org/1999/02/22-rdf-syntax-ns#"
     xmlns:svg="http://www.w3.org/2000/svg"
     xmlns="http://www.w3.org/2000/svg"
     xmlns:xlink="http://www.w3.org/1999/xlink"
     width="128" height="128" version="1.1">
    <title>Wireless Connection Stage 1 - 12</title>
    <desc>This is shape (source) for Clarity vector icon theme for gtk</desc>
    <metadata>
        <rdf:RDF>
            <cc:Work rdf:about="">
                <dc:title>Wireless Connection Stage 1 - 12</dc:title>
                <dc:description>This is shape (source) for Clarity vector icon theme for gtk</dc:description>
                <dc:creator>
                    <cc:Agent>
                        <dc:title>Jakub Jankiewicz</dc:title>
                    </cc:Agent>
                </dc:creator>
                <dc:rights>
                    <cc:Agent>
                        <dc:title>Jakub Jankiewicz</dc:title>
                    </cc:Agent>
                </dc:rights>
                <dc:date>2010</dc:date>
                <dc:format>image/svg+xml</dc:format>
                <dc:type rdf:resource="http://purl.org/dc/dcmitype/StillImage" />
                <cc:license rdf:resource="http://creativecommons.org/licenses/by-sa/3.0/" />
             </cc:Work>
        </rdf:RDF>
    </metadata>
    <path d="m 91.468733,111.57725 c -2.801649,1.61754 -6.365186,0.66268 -7.982707,-2.13897 -1.617538,-2.80166 -0.678321,-6.39224 2.123331,-8.00978 2.801662,-1.617538 6.380815,-0.63563 7.998333,2.16602 1.617555,2.80168 0.662704,6.36519 -2.138957,7.98273 z m -24.661248,6.66044 c -0.82997,0.45089 -1.788299,0.71406 -2.799261,0.71403 -3.235078,3e-5 -5.867539,-2.61457 -5.86736,-5.85006 10e-7,-3.23509 2.614957,-5.86739 5.85007,-5.86737 3.235083,-1e-5 5.867151,2.61551 5.867361,5.85007 3e-6,2.22414 -1.224839,4.16143 -3.050812,5.15334 z M 109.56749,93.550205 c -1.77199,1.085414 -4.06218,1.177477 -5.98833,0.0654 -2.80166,-1.617539 -3.750159,-5.204652 -2.13263,-8.00632 1.61755,-2.801651 5.20468,-3.75016 8.0063,-2.132638 2.80171,1.617549 3.7502,5.204663 2.13267,8.006338 -0.50548,0.875516 -1.21253,1.573861 -2.01802,2.067204 z M 42.532355,111.50443 c -1.772018,1.08539 -4.089234,1.1931 -6.015393,0.081 -2.801663,-1.61753 -3.750173,-5.20467 -2.132637,-8.00633 1.617537,-2.80165 5.204676,-3.750177 8.006339,-2.13264 2.801656,1.61755 3.750175,5.20466 2.132632,8.00634 -0.505488,0.87551 -1.185482,1.55823 -1.990941,2.05159 z M 115.87389,69.160675 c -0.83,0.450882 -1.76123,0.698418 -2.77222,0.698421 -3.23505,-3e-6 -5.86734,-2.615045 -5.86737,-5.850071 2e-5,-3.235086 2.6146,-5.86755 5.85008,-5.867371 3.23509,-1e-5 5.8674,2.61496 5.86737,5.850069 10e-6,2.224132 -1.25191,4.177041 -3.07784,5.168971 z M 24.405431,93.607678 c -2.801661,1.617539 -6.365171,0.6627 -7.982712,-2.138963 -1.617547,-2.801654 -0.662678,-6.36517 2.138953,-7.982703 2.801652,-1.617532 6.39224,-0.678331 8.009783,2.123335 1.617536,2.801647 0.635627,6.380798 -2.166024,7.998331 z M 109.4383,44.513929 c -2.80166,1.617536 -6.39225,0.678328 -8.00977,-2.123331 -1.617549,-2.801664 -0.63563,-6.380814 2.166,-7.998328 2.80168,-1.617545 6.36519,-0.662717 7.98272,2.138954 1.61755,2.801655 0.66272,6.365167 -2.13895,7.982705 z M 17.714856,69.144247 c -0.830015,0.450872 -1.788323,0.714034 -2.799261,0.714039 -3.235081,-5e-6 -5.8673471,-2.615044 -5.8673726,-5.850068 -3.8e-6,-3.235087 2.6145796,-5.867555 5.8500726,-5.867377 3.235079,0 5.867397,2.614965 5.867368,5.85008 -4e-6,2.224113 -1.22485,4.161397 -3.050799,5.153339 z m 73.39564,-42.374996 c -1.690691,0.82304 -3.750146,0.79506 -5.50119,-0.215818 -2.801656,-1.617551 -3.750162,-5.204692 -2.132627,-8.006342 1.617542,-2.80165 5.204657,-3.750159 8.006312,-2.13262 2.80168,1.617511 3.750189,5.204651 2.132655,8.00633 -0.606575,1.050601 -1.490754,1.854632 -2.50515,2.34845 z m -65.786564,18.92932 c -2.215031,1.356722 -5.07669,1.4893 -7.48435,0.09922 -3.502101,-2.021912 -4.721551,-6.486301 -2.69961,-9.988369 2.021909,-3.50207 6.52898,-4.710117 10.031049,-2.688195 3.502085,2.021927 4.694482,6.501934 2.67256,10.004009 -0.63186,1.094401 -1.512819,1.956653 -2.519659,2.573329 z m 42.164609,-24.34373 c -1.037486,0.563567 -2.224696,0.8954 -3.488401,0.895411 -4.04384,-1.3e-5 -7.327599,-3.27233 -7.327437,-7.316519 2e-6,-4.043844 3.29972,-7.3430523 7.343561,-7.3430644 4.043851,-1.92e-5 7.300374,3.2883354 7.300386,7.3321374 -10e-7,2.780149 -1.545648,5.192116 -3.828111,6.432003 z M 44.84373,30.820364 c -5.152964,2.975076 -11.752372,1.206786 -14.727453,-3.946199 -2.975075,-5.152986 -1.191132,-11.72532 3.961837,-14.700406 5.152963,-2.9750726 11.736757,-1.233819 14.71184,3.919148 2.975068,5.152984 1.206754,11.752407 -3.946224,14.727457 z" style="fill:#aaaaaa"/>
</svg>