<?xml version="1.0" encoding="UTF-8" standalone="no"?>
<svg xmlns:dc="http://purl.org/dc/elements/1.1/"
     xmlns:cc="http://creativecommons.org/ns#"
     xmlns:rdf="http://www.w3.org/1999/02/22-rdf-syntax-ns#"
     xmlns:svg="http://www.w3.org/2000/svg"
     xmlns="http://www.w3.org/2000/svg"
     xmlns:xlink="http://www.w3.org/1999/xlink"
     width="128" height="128" version="1.1">
    <title>Wireless Connection Stage 3 - 08</title>
    <desc>This is shape (source) for Clarity vector icon theme for gtk</desc>
    <metadata>
        <rdf:RDF>
            <cc:Work rdf:about="">
                <dc:title>Wireless Connection Stage 3 - 08</dc:title>
                <dc:description>This is shape (source) for Clarity vector icon theme for gtk</dc:description>
                <dc:creator>
                    <cc:Agent>
                        <dc:title>Jakub Jankiewicz</dc:title>
                    </cc:Agent>
                </dc:creator>
                <dc:rights>
                    <cc:Agent>
                        <dc:title>Jakub Jankiewicz</dc:title>
                    </cc:Agent>
                </dc:rights>
                <dc:date>2010</dc:date>
                <dc:format>image/svg+xml</dc:format>
                <dc:type rdf:resource="http://purl.org/dc/dcmitype/StillImage" />
                <cc:license rdf:resource="http://creativecommons.org/licenses/by-sa/3.0/" />
             </cc:Work>
        </rdf:RDF>
    </metadata>
    <path d="m 34.078046,115.82608 c 5.152986,2.97504 11.736772,1.23382 14.711846,-3.91917 2.97508,-5.15299 1.20676,-11.75239 -3.946215,-14.727452 -5.152948,-2.97509 -11.752378,-1.206765 -14.727458,3.946202 -2.975061,5.15299 -1.191145,11.72536 3.961827,14.70042 z m 26.44976,3.68767 c 1.0404,0.56638 2.22471,0.89541 3.4884,0.89541 4.04386,0 7.300419,-3.28827 7.300381,-7.33213 1.8e-5,-2.78013 -1.545633,-5.19211 -3.828107,-6.43203 -1.037479,-0.5636 -2.224689,-0.89539 -3.488403,-0.89541 -4.043842,1e-5 -7.327435,3.27262 -7.32744,7.3165 -1e-6,2.78014 1.56635,5.20155 3.855169,6.44766 z M 18.282004,95.123125 c 2.121849,1.031211 4.700156,1.01916 6.88896,-0.244531 3.502456,-2.021975 4.694466,-6.50193 2.672562,-10.004012 -0.631861,-1.094391 -1.512848,-1.956627 -2.519658,-2.573332 -2.215011,-1.356711 -5.076666,-1.489288 -7.48434,-0.09922 -3.502032,2.021909 -4.721564,6.486309 -2.699621,9.988379 0.758209,1.313281 1.868977,2.313984 3.142099,2.93272 z m 67.699764,16.678065 c 1.692065,0.8197 3.750138,0.79515 5.501181,-0.21582 2.801595,-1.61753 3.750164,-5.20466 2.132633,-8.00633 -0.505477,-0.87549 -1.212529,-1.57384 -2.018007,-2.06721 -1.772021,-1.08535 -4.062174,-1.17751 -5.988323,-0.0654 -2.801699,1.61753 -3.750172,5.20467 -2.132634,8.00633 0.606593,1.05079 1.489917,1.85665 2.505147,2.34846 z M 12.098973,69.14494 c 0.828971,0.452175 1.788293,0.714034 2.799263,0.714044 3.235068,3e-6 5.867368,-2.614999 5.867369,-5.850078 -5.9e-5,-2.021882 -1.005563,-3.819406 -2.563683,-4.872069 -0.934858,-0.631574 -2.073269,-0.995287 -3.286405,-0.9953 -3.235069,1.6e-5 -5.8674017,2.615002 -5.867369,5.850078 1e-7,2.224122 1.227106,4.15851 3.0508,5.153341 z m 45.182204,6.492134 c 6.420143,3.70667 14.649296,1.501677 18.355966,-4.918468 3.706671,-6.420143 1.501677,-14.649295 -4.918466,-18.355966 -6.420143,-3.70667 -14.649295,-1.501677 -18.355966,4.918468 -3.706672,6.420143 -1.501677,14.649294 4.918466,18.355966 z m 46.313313,17.970495 c 2.80164,1.617517 6.36518,0.662705 7.98271,-2.138961 1.61754,-2.801663 0.6627,-6.365171 -2.13896,-7.982711 -2.80165,-1.61754 -6.39224,-0.678314 -8.00978,2.123334 -1.617542,2.80167 -0.63562,6.380798 2.16603,7.998338 z M 18.561623,44.513821 c 2.801621,1.617529 6.392241,0.678331 8.009771,-2.123336 1.617536,-2.801652 0.63564,-6.380797 -2.16602,-7.998338 -2.80167,-1.617551 -6.36518,-0.662703 -7.98272,2.138958 -1.61754,2.80166 -0.662711,6.365157 2.138969,7.982716 z m 91.723447,24.63031 c 0.82897,0.452185 1.7883,0.714043 2.79926,0.714044 3.23509,0 5.86739,-2.615 5.86737,-5.850079 5e-5,-2.224151 -1.25193,-4.177018 -3.07788,-5.168949 -0.83001,-0.450868 -1.76124,-0.698407 -2.7722,-0.698417 -3.23509,1e-6 -5.86736,2.614997 -5.86737,5.850077 0,2.224122 1.22709,4.158508 3.05083,5.153321 z M 36.889423,26.769138 c 1.69205,0.819681 3.750135,0.795115 5.50118,-0.215827 2.801595,-1.617548 3.750153,-5.204694 2.132635,-8.006331 -0.505503,-0.875542 -1.185474,-1.558219 -1.990952,-2.051589 -1.771997,-1.085312 -4.089225,-1.193053 -6.015381,-0.0811 -2.801701,1.617528 -3.750183,5.204667 -2.132634,8.006329 0.606587,1.050764 1.489904,1.85663 2.505155,2.348464 z m 67.062197,17.96985 c 1.69206,0.819719 3.75014,0.795149 5.50119,-0.215825 2.8021,-1.617592 3.75019,-5.204688 2.13263,-8.006327 -0.50546,-0.87554 -1.21253,-1.573884 -2.01801,-2.067209 -1.77199,-1.085411 -4.06216,-1.177501 -5.98832,-0.06543 -2.80111,1.617465 -3.750174,5.204657 -2.13263,8.00633 0.60659,1.050624 1.4899,1.856622 2.50514,2.348455 z M 61.191618,20.051484 c 0.828979,0.452169 1.788299,0.714043 2.799261,0.714054 3.235078,-3.1e-5 5.867376,-2.614992 5.867365,-5.850087 2e-5,-2.224113 -1.224824,-4.161421 -3.050815,-5.1533257 -0.829992,-0.4509059 -1.7883,-0.7140437 -2.79926,-0.7140436 -3.235078,2.18e-5 -5.867391,2.6149633 -5.867364,5.8500843 0,2.224079 1.227089,4.158521 3.050819,5.153313 z m 24.417684,6.519843 c 2.801659,1.617521 6.380796,0.635618 7.998336,-2.16603 1.617537,-2.801641 0.662698,-6.365182 -2.13896,-7.982711 -2.801663,-1.61754 -6.365162,-0.662731 -7.982712,2.138961 -1.617538,2.801629 -0.678321,6.39223 2.123336,8.00978 z" style="fill:#aaaaaa"/>
</svg>