<?xml version="1.0" encoding="UTF-8" standalone="no"?>
<svg xmlns:dc="http://purl.org/dc/elements/1.1/"
     xmlns:cc="http://creativecommons.org/ns#"
     xmlns:rdf="http://www.w3.org/1999/02/22-rdf-syntax-ns#"
     xmlns:svg="http://www.w3.org/2000/svg"
     xmlns="http://www.w3.org/2000/svg"
     xmlns:xlink="http://www.w3.org/1999/xlink"
     width="128" height="128" version="1.1">
    <title>Moon with Clouds</title>
    <desc>This is shape (source) for Clarity vector icon theme for gtk</desc>
    <metadata>
        <rdf:RDF>
            <cc:Work rdf:about="">
                <dc:title>Moon with Clouds</dc:title>
                <dc:description>This is shape (source) for Clarity vector icon theme for gtk</dc:description>
                <dc:creator>
                    <cc:Agent>
                        <dc:title>Jakub Jankiewicz</dc:title>
                    </cc:Agent>
                </dc:creator>
                <dc:rights>
                    <cc:Agent>
                        <dc:title>Jakub Jankiewicz</dc:title>
                    </cc:Agent>
                </dc:rights>
                <dc:date>2010</dc:date>
                <dc:format>image/svg+xml</dc:format>
                <dc:type rdf:resource="http://purl.org/dc/dcmitype/StillImage" />
                <cc:license rdf:resource="http://creativecommons.org/licenses/by-sa/3.0/" />
             </cc:Work>
        </rdf:RDF>
    </metadata>
    <path d="m 46.4375,7.796875 c -15.882726,7.119008 -26.96875,23.030461 -26.96875,41.5625 0,9.857392 3.148231,18.982352 8.46875,26.4375 4.88757,-4.386472 11.30144,-7.0625 18.375,-7.0625 8.93032,0 16.749531,4.367341 21.84375,10.9375 2.29513,-0.93791 4.723655,-1.59375 7.34375,-1.59375 6.617042,0 12.456162,3.31981 16,8.375 6.207916,-4.44019 11.25125,-10.406942 14.59375,-17.34375 -5.67699,2.54016 -11.97206,3.96875 -18.59375,3.96875 -25.1641,0 -45.5625,-20.398405 -45.5625,-45.5625 0,-7.067208 1.628352,-13.749477 4.5,-19.71875 z m -0.125,65.0625 c -13.07152,0 -23.65625,10.615966 -23.65625,23.6875 0,0.343533 0.01685,0.660034 0.03125,1 C 19.36013,98.75746 17,101.95725 17,105.70313 c 0,4.78674 3.8695,8.65625 8.65625,8.65625 1.46134,0 2.82348,-0.33008 4.03125,-0.96875 4.27417,4.21926 10.14461,6.8125 16.625,6.8125 l 50.84375,0 c 7.6404,0 13.84375,-6.1721 13.84375,-13.8125 0,-7.640416 -6.20335,-13.843755 -13.84375,-13.843755 -2.38763,0 -4.63353,0.5914 -6.59375,1.65625 -1.59054,-6.870021 -7.70889,-12 -15.0625,-12 -3.18854,0 -6.161,0.974373 -8.625,2.625 -4.0761,-7.136244 -11.75572,-11.96875 -20.5625,-11.96875 z" style="fill:#aaaaaa"/>
</svg>