<?xml version="1.0" encoding="UTF-8" standalone="no"?>
<svg xmlns:dc="http://purl.org/dc/elements/1.1/"
     xmlns:cc="http://creativecommons.org/ns#"
     xmlns:rdf="http://www.w3.org/1999/02/22-rdf-syntax-ns#"
     xmlns:svg="http://www.w3.org/2000/svg"
     xmlns="http://www.w3.org/2000/svg"
     xmlns:xlink="http://www.w3.org/1999/xlink"
     width="128" height="128" version="1.1">
    <title>Mouse Charging 0% Icon</title>
    <desc>This is shape (source) for Clarity vector icon theme for gtk</desc>
    <metadata>
        <rdf:RDF>
            <cc:Work rdf:about="">
                <dc:title>Mouse Charging 0% Icon</dc:title>
                <dc:description>This is shape (source) for Clarity vector icon theme for gtk</dc:description>
                <dc:creator>
                    <cc:Agent>
                        <dc:title>Jakub Jankiewicz</dc:title>
                    </cc:Agent>
                </dc:creator>
                <dc:rights>
                    <cc:Agent>
                        <dc:title>Jakub Jankiewicz</dc:title>
                    </cc:Agent>
                </dc:rights>
                <dc:date>2010</dc:date>
                <dc:format>image/svg+xml</dc:format>
                <dc:type rdf:resource="http://purl.org/dc/dcmitype/StillImage" />
                <cc:license rdf:resource="http://creativecommons.org/licenses/by-sa/3.0/" />
             </cc:Work>
        </rdf:RDF>
    </metadata>
    <path d="M 30.5 13.90625 C 27.832628 13.90625 25.75 16.051371 25.75 18.71875 L 25.75 21.03125 L 23.78125 21.03125 L 21.3125 21.03125 C 17.329403 21.03125 14.125 24.235653 14.125 28.21875 L 14.125 31.375 L 14.125 32.125 L 14.125 109.25 C 14.125 111.91737 16.301376 114.09375 18.96875 114.09375 L 55.46875 114.09375 C 58.136124 114.09375 60.3125 111.91737 60.3125 109.25 L 60.3125 32.125 L 60.3125 31.75 L 60.3125 28.21875 C 60.3125 24.235653 57.108097 21.03125 53.125 21.03125 L 51.4375 21.03125 L 48.6875 21.03125 L 48.6875 18.71875 C 48.6875 16.051371 46.604872 13.90625 43.9375 13.90625 L 30.5 13.90625 z M 23.21875 26.8125 L 51.21875 26.8125 C 53.259832 26.8125 54.90625 28.458915 54.90625 30.5 L 54.90625 108.34375 L 19.53125 108.34375 L 19.53125 30.5 C 19.53125 28.458915 21.177668 26.8125 23.21875 26.8125 z M 81.65625 43.875 C 72.826908 43.875 65.71875 50.983158 65.71875 59.8125 L 65.71875 91.53125 L 65.71875 92.28125 C 65.71875 93.483514 65.875012 94.656417 66.125 95.78125 C 68.105731 106.22575 77.260449 114.09375 88.28125 114.09375 C 99.18996 114.09375 108.30134 106.38021 110.40625 96.09375 C 110.40925 96.07789 110.40325 96.04711 110.40625 96.03125 C 110.69732 94.82293 110.875 93.581426 110.875 92.28125 L 110.875 91.53125 L 110.875 59.8125 C 110.875 50.983158 103.76684 43.875 94.9375 43.875 L 91.625 43.875 L 91.625 53.46875 C 92.6457 54.229567 93.3125 55.467193 93.3125 56.84375 L 93.3125 65.1875 C 93.3125 66.564057 92.6457 67.801684 91.625 68.5625 L 91.625 75.21875 C 91.625 76.608286 90.514536 77.75 89.125 77.75 C 87.735464 77.75 86.625 76.608286 86.625 75.21875 L 86.625 68.53125 C 85.618044 67.769311 84.96875 66.553194 84.96875 65.1875 L 84.96875 56.84375 C 84.96875 55.478056 85.618044 54.261938 86.625 53.5 L 86.625 43.875 L 81.65625 43.875 z " style="fill:#aaaaaa"/>
</svg>