<?xml version="1.0" encoding="UTF-8" standalone="no"?>
<svg xmlns:dc="http://purl.org/dc/elements/1.1/"
     xmlns:cc="http://creativecommons.org/ns#"
     xmlns:rdf="http://www.w3.org/1999/02/22-rdf-syntax-ns#"
     xmlns:svg="http://www.w3.org/2000/svg"
     xmlns="http://www.w3.org/2000/svg"
     xmlns:xlink="http://www.w3.org/1999/xlink"
     width="128" height="128" version="1.1">
    <title>Clarity Icon</title>
    <desc>This is shape (source) for Clarity vector icon theme for gtk</desc>
    <metadata>
        <rdf:RDF>
            <cc:Work rdf:about="">
                <dc:title>Clarity Icon</dc:title>
                <dc:description>This is shape (source) for Clarity vector icon theme for gtk</dc:description>
                <dc:creator>
                    <cc:Agent>
                        <dc:title>Jakub Jankiewicz</dc:title>
                    </cc:Agent>
                </dc:creator>
                <dc:rights>
                    <cc:Agent>
                        <dc:title>Jakub Jankiewicz</dc:title>
                    </cc:Agent>
                </dc:rights>
                <dc:date>2010</dc:date>
                <dc:format>image/svg+xml</dc:format>
                <dc:type rdf:resource="http://purl.org/dc/dcmitype/StillImage" />
                <cc:license rdf:resource="http://www.gnu.org/copyleft/gpl.html" />
             </cc:Work>
        </rdf:RDF>
    </metadata>
    <path d="m 63.981494,6.8369118 c -31.562405,0 -57.1221758,25.5865632 -57.1445738,57.1445712 l 0,44.219457 c 0.01689,7.16545 5.8292278,12.96214 12.9991828,12.96214 l 44.182417,0 C 95.584565,121.15058 121.1631,95.58695 121.1631,64.018518 121.1631,32.441686 95.558085,6.8369118 63.981494,6.8369118 z M 80.758212,20.391619 c 0.48368,0 0.935653,0.01189 1.370294,0.03704 0.08234,0.0041 0.178161,-0.005 0.259234,0 0.279454,0.01927 0.545807,0.04368 0.814763,0.07407 0.134679,0.01369 0.274375,0.0207 0.407389,0.03704 0.06219,0.0085 0.123128,0.02997 0.185168,0.03704 0.01251,0.0016 0.02515,-0.0016 0.03704,0 0.05043,0.0058 0.09773,0.03093 0.148142,0.03704 13.241714,1.603889 23.628158,12.942616 23.628158,26.590927 0,14.736259 -12.113924,26.813137 -26.850187,26.813137 l -2.925732,0 -11.221526,0 0,14.184298 c 0,0.463077 -0.01389,0.912931 -0.03704,1.370284 -6.13e-4,0.01226 6.38e-4,0.02474 0,0.03704 -0.0458,0.902104 -0.126357,1.790187 -0.259233,2.666498 -0.0013,0.01214 0.0013,0.0249 0,0.03704 -0.101231,0.6616 -0.258645,1.31814 -0.407388,1.962841 -0.247934,1.074669 -0.552915,2.127099 -0.925868,3.147951 -0.0038,0.01076 0.0038,0.02629 0,0.03704 -0.144676,0.397481 -0.318595,0.79937 -0.481453,1.185111 -0.005,0.01051 0.005,0.02652 0,0.03704 -0.252739,0.596458 -0.520957,1.167198 -0.814764,1.740634 -0.298837,0.58325 -0.623514,1.14608 -0.962906,1.7036 -0.223821,0.36906 -0.462833,0.71687 -0.703648,1.074 -0.0063,0.008 0.0063,0.0286 0,0.037 -0.235934,0.3474 -0.488735,0.66367 -0.740699,0.99994 -0.0063,0.008 0.0063,0.029 0,0.037 -0.257806,0.34408 -0.504039,0.66893 -0.777725,0.99994 -0.07195,0.0876 -0.149193,0.17269 -0.222219,0.25924 -0.341495,0.40274 -0.709654,0.8033 -1.073998,1.18511 -0.151233,0.15848 -0.28939,0.3267 -0.444414,0.48145 -0.450446,0.4499 -0.923503,0.87728 -1.407321,1.29622 -0.490637,0.42465 -0.997642,0.8334 -1.518424,1.22215 -0.254816,0.1901 -0.515726,0.37443 -0.777737,0.55551 -0.448507,0.31089 -0.902481,0.60512 -1.370282,0.88883 -0.184768,0.11175 -0.36791,0.22595 -0.555518,0.33331 -0.559673,0.32096 -1.156571,0.60793 -1.740632,0.88885 -0.09973,0.0479 -0.195879,0.10135 -0.296284,0.14813 -0.05994,0.0279 -0.125006,0.0465 -0.185169,0.0741 -0.630709,0.28815 -1.270064,0.57508 -1.925799,0.81476 -0.400081,0.14614 -0.813413,0.28003 -1.222152,0.40737 -0.837989,0.26237 -1.722163,0.48713 -2.592434,0.66663 -0.430913,0.0877 -0.857797,0.15361 -1.296205,0.22221 -1.320993,0.2015 -2.697143,0.33148 -4.073819,0.33332 -0.483681,0 -0.935653,-0.0125 -1.370295,-0.037 -0.07333,-0.004 -0.14903,0.004 -0.222207,0 -0.293406,-0.0199 -0.570696,-0.0423 -0.85179,-0.0741 -0.198007,-0.0181 -0.395788,-0.0517 -0.592556,-0.0741 -13.331181,-1.51881 -23.813334,-12.91522 -23.813334,-26.627967 0,-14.736257 12.113921,-26.813136 26.850182,-26.813136 l 2.925732,0 11.221526,0 0,-14.184297 c 0,-0.01251 -2.5e-5,-0.02455 0,-0.03704 0,-0.450571 0.01502,-0.888158 0.03704,-1.33325 6.13e-4,-0.01226 -6.38e-4,-0.02475 0,-0.03704 0.02265,-0.445005 0.06707,-0.894257 0.111116,-1.333251 0.0012,-0.01201 -0.0012,-0.02498 0,-0.03704 0.04467,-0.438556 0.08259,-0.864194 0.14813,-1.296216 0.0025,-0.01214 -0.0025,-0.0249 0,-0.03704 0.100981,-0.659992 0.259121,-1.319664 0.407388,-1.96284 0.148268,-0.643212 0.324802,-1.264213 0.51848,-1.888771 0.0038,-0.01101 -0.0038,-0.02602 0,-0.03704 0.258245,-0.828806 0.554417,-1.652206 0.888841,-2.44429 0.0038,-0.01026 -0.0038,-0.02684 0,-0.03704 0.252739,-0.596458 0.557996,-1.1672 0.85179,-1.740632 0.101356,-0.198524 0.190211,-0.397004 0.296285,-0.592556 0.201648,-0.370515 0.411217,-0.751354 0.629582,-1.111041 0.005,-0.0089 -0.005,-0.02815 0,-0.03704 0.218942,-0.359652 0.468528,-0.688694 0.703661,-1.036972 0.0063,-0.0084 -0.0063,-0.02862 0,-0.03704 0.235659,-0.348158 0.489361,-0.663698 0.740699,-0.999937 0.0063,-0.008 -0.0063,-0.02898 0,-0.03704 0.306257,-0.408744 0.634313,-0.831923 0.962906,-1.222145 0.0224,-0.02659 0.05155,-0.04757 0.07408,-0.07407 0.338717,-0.399037 0.675806,-0.769609 1.036971,-1.148076 0.148018,-0.15542 0.292656,-0.329621 0.444415,-0.481452 0.151883,-0.151592 0.32599,-0.296477 0.481453,-0.444417 0.158303,-0.1509 0.319221,-0.297163 0.481453,-0.444417 0.305031,-0.276705 0.608298,-0.552138 0.925867,-0.814764 0.01326,-0.01101 0.02378,-0.02608 0.03704,-0.03704 0.48039,-0.395711 0.973843,-0.748909 1.481386,-1.111043 0.195028,-0.138857 0.393573,-0.273677 0.592556,-0.407381 0.473307,-0.319161 0.950243,-0.636708 1.444359,-0.925868 0.109865,-0.06404 0.22247,-0.122641 0.333311,-0.185173 0.613717,-0.347823 1.246177,-0.663196 1.888774,-0.962904 0.691385,-0.322467 1.389089,-0.624988 2.110968,-0.888832 0.400218,-0.146276 0.8133,-0.27985 1.222152,-0.407382 0.419001,-0.13118 0.861638,-0.258924 1.296217,-0.370347 0.846159,-0.21733 1.716256,-0.420662 2.592422,-0.555521 0.438408,-0.0686 0.888353,-0.10287 1.333255,-0.148139 0.448969,-0.04599 0.915257,-0.08775 1.370282,-0.111104 0.457303,-0.02311 0.907198,-0.03704 1.370282,-0.03704 z m 0,12.665873 c -0.488298,0 -0.968888,0.02576 -1.444347,0.07407 -0.938568,0.09775 -1.865049,0.28347 -2.740576,0.555521 -0.443451,0.137794 -0.872474,0.302467 -1.296205,0.481451 -0.422866,0.178984 -0.858559,0.374755 -1.25919,0.592556 -0.391822,0.213617 -0.779652,0.455286 -1.148075,0.703659 -0.744578,0.503426 -1.439492,1.108164 -2.073942,1.740633 -0.320973,0.320026 -0.636553,0.650577 -0.925868,0.999937 -0.288176,0.34936 -0.560585,0.697684 -0.814763,1.074006 -0.510534,0.752645 -0.97323,1.560992 -1.333256,2.407257 -0.358274,0.846265 -0.625353,1.745585 -0.814764,2.6665 -0.190411,0.920916 -0.29457,1.875076 -0.296272,2.851673 l 0,12.295527 c 0,0.120613 0.01664,0.218422 0.03704,0.333312 0.0038,0.02375 -0.005,0.05062 0,0.07406 0.06795,0.317871 0.245469,0.609077 0.444414,0.851798 0.124881,0.152325 0.243342,0.297586 0.407376,0.407382 0.02265,0.01518 0.0508,0.02279 0.07408,0.03704 0.08571,0.05291 0.165573,0.108463 0.259246,0.148139 0.01001,0.0044 0.0264,-0.0043 0.03704,0 0.109614,0.04412 0.215062,0.08687 0.333311,0.111103 l 12.554768,0 c 7.948691,0 14.295411,-6.30967 14.295411,-14.258366 0,-6.860194 -4.74272,-12.501645 -11.147459,-13.925055 -0.06795,-0.0089 -0.152634,-0.02803 -0.222207,-0.03704 -0.316155,-0.03654 -0.684415,-0.0816 -1.073997,-0.111104 -0.492202,-0.04188 -1.090978,-0.0729 -1.814709,-0.07406 -0.01476,-2.3e-5 -0.02215,0 -0.03704,0 z M 39.797824,73.980857 c -7.948693,0 -14.295413,6.30967 -14.295413,14.258366 0,6.860195 4.742718,12.501647 11.147461,13.925057 0.194641,0.0228 0.417699,0.0515 0.629583,0.0741 0.221056,0.0264 0.408439,0.0521 0.666621,0.0741 0.05506,0.004 0.09085,-0.004 0.148143,0 0.475371,0.0373 1.018439,0.0741 1.703605,0.0741 2.427549,-0.006 4.74248,-0.62016 6.740318,-1.7036 1.204859,-0.6534 2.296137,-1.484209 3.259055,-2.444291 0.635189,-0.633337 1.23399,-1.330271 1.740632,-2.073945 0.0063,-0.0086 -0.0063,-0.02833 0,-0.03704 0.255254,-0.376322 0.484819,-0.747163 0.70366,-1.148076 0.223308,-0.410978 0.409941,-0.824883 0.592544,-1.259181 0.175496,-0.412508 0.345098,-0.82778 0.481453,-1.259179 0.0038,-0.01126 -0.0038,-0.02571 0,-0.03704 0.138808,-0.44298 0.238099,-0.872792 0.333311,-1.333251 0.18941,-0.920914 0.294583,-1.875077 0.296285,-2.851673 l 0,-12.295527 c 0,-0.133386 -0.01251,-0.281115 -0.03704,-0.407382 -0.02102,-0.10262 -0.03791,-0.2 -0.07408,-0.296277 -0.01001,-0.02735 -0.0259,-0.04727 -0.03704,-0.07406 -0.07433,-0.175681 -0.177386,-0.335578 -0.296272,-0.48145 -0.04342,-0.05303 -0.0996,-0.09987 -0.148143,-0.14814 -0.09047,-0.09053 -0.189885,-0.187293 -0.296272,-0.259242 -0.10611,-0.07081 -0.214173,-0.135564 -0.333323,-0.185174 -0.01126,-0.0046 -0.0259,0.0045 -0.03704,0 -0.10586,-0.04194 -0.219391,-0.08775 -0.33331,-0.111103 l -12.554769,0 z" style="fill:#aaaaaa"/>
</svg>