<?xml version="1.0" encoding="UTF-8" standalone="no"?>
<svg xmlns:dc="http://purl.org/dc/elements/1.1/"
     xmlns:cc="http://creativecommons.org/ns#"
     xmlns:rdf="http://www.w3.org/1999/02/22-rdf-syntax-ns#"
     xmlns:svg="http://www.w3.org/2000/svg"
     xmlns="http://www.w3.org/2000/svg"
     xmlns:xlink="http://www.w3.org/1999/xlink"
     width="128" height="128" version="1.1">
    <title>Clarity Icon</title>
    <desc>This is shape (source) for Clarity vector icon theme for gtk</desc>
    <metadata>
        <rdf:RDF>
            <cc:Work rdf:about="">
                <dc:title>Clarity Icon</dc:title>
                <dc:description>This is shape (source) for Clarity vector icon theme for gtk</dc:description>
                <dc:creator>
                    <cc:Agent>
                        <dc:title>Jakub Jankiewicz</dc:title>
                    </cc:Agent>
                </dc:creator>
                <dc:rights>
                    <cc:Agent>
                        <dc:title>Jakub Jankiewicz</dc:title>
                    </cc:Agent>
                </dc:rights>
                <dc:date>2010</dc:date>
                <dc:format>image/svg+xml</dc:format>
                <dc:type rdf:resource="http://purl.org/dc/dcmitype/StillImage" />
                <cc:license rdf:resource="http://www.gnu.org/copyleft/gpl.html" />
             </cc:Work>
        </rdf:RDF>
    </metadata>
    <path d="M 99.18148,6.6446799 C 94.80815,6.92604 89.4102,8.6378533 84.806788,14.007323 c -6.005809,7.005029 -6.233702,21.018593 -4.382522,23.490337 2.303462,3.067768 5.13282,2.864419 9.992154,1.84066 4.85935,-1.023758 27.659,-22.007289 16.91656,-31.4665327 -0.40496,-0.3593666 -3.77818,-1.5084662 -8.1515,-1.2271074 z M 63.332424,11.465458 c -5.157366,0 -10.090329,6.219681 -8.677408,12.796975 1.370861,6.394982 3.257095,11.482217 7.099697,11.482217 3.579643,0 6.342381,-5.486922 7.713242,-12.008119 1.384872,-6.580802 -0.981681,-12.271073 -6.135531,-12.271073 z m -23.577995,9.290955 c -0.576668,-0.02923 -1.167052,-0.04162 -1.753009,0.08765 -4.687542,1.041287 -6.521195,7.253955 -3.944276,12.796973 2.503307,5.385247 5.181899,9.543388 8.677407,8.765051 3.253579,-0.72224 4.680537,-6.128524 4.64547,-12.18342 -0.0281,-5.344053 -3.588983,-9.261625 -7.625592,-9.466255 z M 23.539091,34.868145 c -0.975496,-0.05265 -1.8985,0.152498 -2.804824,0.613553 -3.625218,1.85118 -3.905706,7.306547 -0.613544,11.306916 3.197481,3.88467 6.328356,6.724547 9.027991,5.346682 2.524337,-1.283204 2.538361,-6.086452 1.227114,-11.043965 -0.99133,-3.757576 -3.910248,-6.065249 -6.836737,-6.223186 z m 50.048438,9.904507 c -3.816453,0.0071 -8.373478,0.385663 -13.848785,1.227108 -32.31499,4.964525 -34.797253,25.51331 -34.797253,34.972553 0,9.46275 13.350925,36.385477 36.112016,39.968627 22.761078,3.57614 31.946853,-14.87954 33.482493,-17.17949 1.53564,-2.29995 3.85663,-8.403936 0.78885,-11.21927 -3.06777,-2.811827 -15.605293,-0.82742 -18.932509,0.964156 -3.327204,1.791577 -1.805591,8.740504 -3.593667,11.043964 -1.791579,2.29644 -6.419521,3.26411 -10.255105,0.96416 -3.835597,-2.30696 -6.850774,-8.37238 -4.294886,-13.235231 2.559404,-4.859345 28.630171,-18.466209 33.745447,-23.577987 5.11528,-5.118789 1.8021,-14.549985 0.52591,-17.617753 0,0 -2.39452,-6.341504 -18.932511,-6.310837 z" style="fill:#aaaaaa"/>
</svg>