<?xml version="1.0" encoding="UTF-8" standalone="no"?>
<svg xmlns:dc="http://purl.org/dc/elements/1.1/"
     xmlns:cc="http://creativecommons.org/ns#"
     xmlns:rdf="http://www.w3.org/1999/02/22-rdf-syntax-ns#"
     xmlns:svg="http://www.w3.org/2000/svg"
     xmlns="http://www.w3.org/2000/svg"
     xmlns:xlink="http://www.w3.org/1999/xlink"
     width="128" height="128" version="1.1">
    <title>Clarity Icon</title>
    <desc>This is shape (source) for Clarity vector icon theme for gtk</desc>
    <metadata>
        <rdf:RDF>
            <cc:Work rdf:about="">
                <dc:title>Clarity Icon</dc:title>
                <dc:description>This is shape (source) for Clarity vector icon theme for gtk</dc:description>
                <dc:creator>
                    <cc:Agent>
                        <dc:title>Jakub Jankiewicz</dc:title>
                    </cc:Agent>
                </dc:creator>
                <dc:rights>
                    <cc:Agent>
                        <dc:title>Jakub Jankiewicz</dc:title>
                    </cc:Agent>
                </dc:rights>
                <dc:date>2010</dc:date>
                <dc:format>image/svg+xml</dc:format>
                <dc:type rdf:resource="http://purl.org/dc/dcmitype/StillImage" />
                <cc:license rdf:resource="http://creativecommons.org/licenses/by-sa/3.0/" />
             </cc:Work>
        </rdf:RDF>
    </metadata>
    <path d="M 76.824376,24.687259 62.05738,51.749915 32.340315,44.763051 53.514486,67.157628 37.679629,93.243954 65.53555,80.032984 85.458788,103.15981 81.492446,72.588466 105.50408,62.520059 l -3.75277,9.305649 6.59023,-7.56656 6.16308,7.902173 -3.2646,-9.48871 9.91586,-1.372965 -9.82433,-1.922151 3.75276,-9.275137 -6.59022,7.56656 -6.16309,-7.902173 3.26461,9.458199 -2.41032,0.335614 -23.828564,-4.454507 -2.53235,-30.418792 z M 24.590692,38.172822 c 0,0 -0.790845,0.915915 -2.105211,2.562867 -1.314353,1.646951 -3.160816,4.040947 -5.156241,7.047885 -1.995438,3.006936 -4.135047,6.645361 -5.949513,10.770143 -1.8144526,4.124782 -3.2631616,8.730336 -4.0273606,13.546584 -0.367495,2.360204 -0.523008,4.820792 -0.396629,7.230946 0.126366,2.410155 0.531123,4.789048 1.1899,7.047885 0.546853,1.849722 1.305187,3.579624 2.1967396,5.125734 1.137721,1.972994 2.649913,3.932833 4.607063,5.70543 3.036251,2.677479 6.890631,4.622594 10.953204,5.491854 4.261863,0.89668 8.556924,0.76271 12.448204,-0.061 3.914487,-0.84369 7.455715,-2.23357 10.495555,-3.813786 3.03984,-1.580214 5.58213,-3.335513 7.627584,-4.942672 2.045453,-1.607158 3.59287,-3.067465 4.637572,-4.088384 1.044678,-1.020917 1.58653,-1.617046 1.58653,-1.617046 0,0 -0.707531,0.388363 -2.013681,1.00684 -1.306151,0.618478 -3.19164,1.449423 -5.522361,2.318785 -2.330734,0.869362 -5.113953,1.766994 -8.115755,2.379805 -3.00179,0.612812 -6.235131,0.952027 -9.458193,0.793269 -3.151188,-0.147921 -6.214836,-0.736783 -8.756464,-1.86113 -2.370459,-1.041707 -4.372248,-2.487135 -5.766452,-4.057873 -0.933342,-0.998996 -1.687925,-2.11856 -2.318781,-3.234094 -0.494373,-0.874185 -0.973429,-1.834528 -1.403482,-2.89848 -0.54769,-1.339527 -0.989347,-2.852028 -1.311939,-4.515528 -0.322605,-1.663502 -0.535137,-3.481699 -0.640721,-5.369818 -0.22261,-3.970124 0.10841,-8.133328 0.76276,-12.143108 0.654364,-4.00978 1.633395,-7.861814 2.623892,-11.197288 0.990485,-3.335474 1.975819,-6.147536 2.6849,-8.115746 0.709093,-1.968209 1.12888,-3.112053 1.12888,-3.112053 z" style="fill:#aaaaaa"/>
</svg>