<?xml version="1.0" encoding="UTF-8" standalone="no"?>
<svg xmlns:dc="http://purl.org/dc/elements/1.1/"
     xmlns:cc="http://creativecommons.org/ns#"
     xmlns:rdf="http://www.w3.org/1999/02/22-rdf-syntax-ns#"
     xmlns:svg="http://www.w3.org/2000/svg"
     xmlns="http://www.w3.org/2000/svg"
     xmlns:xlink="http://www.w3.org/1999/xlink"
     width="128" height="128" version="1.1">
    <title>Clarity Icon</title>
    <desc>This is shape (source) for Clarity vector icon theme for gtk</desc>
    <metadata>
        <rdf:RDF>
            <cc:Work rdf:about="">
                <dc:title>Clarity Icon</dc:title>
                <dc:description>This is shape (source) for Clarity vector icon theme for gtk</dc:description>
                <dc:creator>
                    <cc:Agent>
                        <dc:title>Jakub Jankiewicz</dc:title>
                    </cc:Agent>
                </dc:creator>
                <dc:rights>
                    <cc:Agent>
                        <dc:title>Jakub Jankiewicz</dc:title>
                    </cc:Agent>
                </dc:rights>
                <dc:date>2010</dc:date>
                <dc:format>image/svg+xml</dc:format>
                <dc:type rdf:resource="http://purl.org/dc/dcmitype/StillImage" />
                <cc:license rdf:resource="http://www.gnu.org/copyleft/gpl.html" />
             </cc:Work>
        </rdf:RDF>
    </metadata>
    <path d="m 61.289286,35.435794 c -2.820159,0.002 -5.433518,0.06636 -6.664693,0.202951 -7.462069,0.825273 -14.014226,2.811503 -21.302199,6.450199 -11.747134,5.865392 -19.123597,12.503151 -23.288435,20.963628 -1.865029,3.788746 -2.510435,6.443466 -2.5316,10.411116 -0.01447,2.510442 0.170249,3.842611 0.818537,5.884628 2.336351,7.356266 8.994306,12.605109 16.709346,13.179336 7.464956,0.55499 13.011974,-2.399828 15.489712,-8.246943 0.898373,-2.119928 1.167691,-3.960919 0.917609,-6.279951 -0.61174,-5.67302 -4.282178,-9.987901 -9.705116,-11.416255 -1.661123,-0.437644 -4.21581,-0.45111 -5.846153,-0.0048 -4.468779,1.223479 -7.718886,5.250765 -6.5233,10.222593 1.013795,4.217734 5.942339,6.860911 10.110056,5.187283 1.664009,-0.668488 2.63356,-1.47837 2.150708,-3.253954 -0.491508,-1.810211 -1.706331,-2.237275 -4.033058,-1.584176 -0.916647,0.256815 -1.563976,0.09331 -2.249778,-0.528058 -1.149417,-1.040727 -1.131141,-2.631635 0.04713,-3.767585 1.434127,-1.382186 4.057105,-1.49857 6.452123,-0.282786 2.37001,1.20328 4.102311,4.609209 3.727187,7.33222 -0.401093,2.923077 -2.078568,4.940086 -4.890069,5.878857 -0.938771,0.313564 -1.327361,0.350115 -3.539627,0.344343 -2.372896,-0.0058 -2.547953,-0.02693 -3.883007,-0.476117 -5.007417,-1.682285 -8.314279,-6.242438 -8.345056,-11.509556 -0.01917,-3.326094 1.161929,-6.011592 3.784901,-8.600906 2.465234,-2.433492 5.649935,-3.622346 9.705116,-3.621383 5.041081,0.002 9.227074,1.764042 12.89174,5.431594 2.758601,2.760523 4.841017,6.501177 5.643204,10.12737 l 0.25489,1.15134 7.237958,3.550207 c 0.05867,-0.05386 0.04137,-0.541525 -0.03752,-0.873364 -0.297213,-1.253298 -0.342419,-4.746754 -0.08465,-6.223202 0.376086,-2.147822 0.883945,-3.266459 1.966993,-4.337966 1.671704,-1.652465 3.73392,-2.364239 6.862835,-2.367124 4.162908,-0.0038 7.694839,1.521654 10.85357,4.691928 0.708888,0.711772 2.253627,2.395981 3.435746,3.744501 1.18212,1.348521 2.330574,2.578733 2.550839,2.734554 0.621358,0.437644 9.059709,4.302377 9.163589,4.196572 0.051,-0.05098 -0.24912,-0.588655 -0.66752,-1.197508 -1.644776,-2.383478 -3.039466,-5.452756 -3.573295,-7.86028 -0.364544,-1.647657 -0.264511,-4.079225 0.217378,-5.187282 0.45111,-1.037842 1.412004,-1.914092 2.427722,-2.216114 1.089785,-0.324145 3.466525,-0.303946 6.656035,0.05675 3.8253,0.432835 5.940416,0.515554 8.462396,0.325108 5.7442,-0.433797 9.50505,-1.379301 13.71508,-3.437671 2.20073,-1.075353 2.66819,-1.490874 3.14528,-2.776874 0.45399,-1.226365 0.66849,-2.399828 0.43764,-2.399828 -0.0828,0 -0.85509,0.33184 -1.71787,0.740628 -3.23953,1.531274 -6.02218,2.211305 -8.49029,2.079531 -2.56816,-0.137545 -6.77243,-1.546663 -11.762526,-3.946491 l -2.27383,-1.093629 -1.85445,-4.441846 1.7323,1.080163 c 2.84901,1.891969 7.457256,4.157137 10.265876,5.045891 4.28986,1.357177 7.70445,1.180196 11.15943,-0.579999 1.21772,-0.620396 3.50212,-2.18822 3.50212,-2.404637 0,-0.408788 -1.22155,-4.379325 -1.90158,-6.181841 -1.70153,-4.507252 -2.86056,-6.009669 -5.66244,-7.346648 -3.11064,-1.484141 -6.54062,-2.547953 -12.84462,-3.984964 -3.014446,-0.640596 -6.043326,-1.260031 -9.102986,-1.640925 l -0.075,3.734883 C 83.806298,37.896209 77.570592,36.431304 70.66736,35.718569 68.880234,35.534856 64.914506,35.433861 61.289275,35.435784 z m 47.223234,7.64867 c 2.30171,-0.0058 4.49956,1.178272 5.78459,3.319361 2.19014,3.651202 0.39436,8.396031 -3.70507,9.779179 -2.70569,0.9128 -5.92694,-0.177943 -7.56306,-2.560457 -1.34275,-1.955451 -1.56878,-4.479359 -0.59346,-6.596402 0.55403,-1.202318 1.87465,-2.625863 2.94712,-3.173158 1.00995,-0.516517 2.08338,-0.766599 3.12988,-0.768523 z m -0.076,1.951604 c -1.08017,0.02308 -2.17957,0.423216 -3.10679,1.263877 -1.41682,1.282152 -1.87177,3.602146 -1.0542,5.370035 0.67042,1.452402 1.94295,2.454655 3.42709,2.697042 2.10453,0.343382 4.09654,-0.63771 4.9699,-2.451769 0.59731,-1.241753 0.70313,-2.092995 0.40495,-3.262611 -0.59443,-2.321917 -2.58163,-3.659858 -4.64095,-3.616574 z m 1.10133,2.399828 c 0.80025,0 1.76211,0.500164 1.88234,0.981091 0.16351,0.6531 -0.0586,1.10421 -0.69157,1.428356 -0.98014,0.500164 -2.23728,0.358771 -2.97598,-0.334726 -0.90703,-0.855089 0.14139,-2.074721 1.78521,-2.074721 z" style="fill:#aaaaaa"/>
</svg>