<?xml version="1.0" encoding="UTF-8" standalone="no"?>
<svg xmlns:dc="http://purl.org/dc/elements/1.1/"
     xmlns:cc="http://creativecommons.org/ns#"
     xmlns:rdf="http://www.w3.org/1999/02/22-rdf-syntax-ns#"
     xmlns:svg="http://www.w3.org/2000/svg"
     xmlns="http://www.w3.org/2000/svg"
     xmlns:xlink="http://www.w3.org/1999/xlink"
     width="128" height="128" version="1.1">
    <title>Clarity Icon</title>
    <desc>This is shape (source) for Clarity vector icon theme for gtk</desc>
    <metadata>
        <rdf:RDF>
            <cc:Work rdf:about="">
                <dc:title>Clarity Icon</dc:title>
                <dc:description>This is shape (source) for Clarity vector icon theme for gtk</dc:description>
                <dc:creator>
                    <cc:Agent>
                        <dc:title>Jakub Jankiewicz</dc:title>
                    </cc:Agent>
                </dc:creator>
                <dc:rights>
                    <cc:Agent>
                        <dc:title>Jakub Jankiewicz</dc:title>
                    </cc:Agent>
                </dc:rights>
                <dc:date>2010</dc:date>
                <dc:format>image/svg+xml</dc:format>
                <dc:type rdf:resource="http://purl.org/dc/dcmitype/StillImage" />
                <cc:license rdf:resource="http://www.gnu.org/copyleft/gpl.html" />
             </cc:Work>
        </rdf:RDF>
    </metadata>
    <path d="m 63.336475,7.0795685 c -3.928957,0 -7.780681,0.4241995 -11.485525,1.1823195 -3.704805,0.7581213 -7.236594,1.853703 -10.641008,3.293656 -3.404426,1.43993 -6.684314,3.190537 -9.712033,5.236035 -3.027719,2.045498 -5.786029,4.350352 -8.360788,6.925109 -2.574721,2.574755 -4.964021,5.417498 -7.009542,8.445222 -2.045496,3.027725 -3.79611,6.307607 -5.236065,9.712035 -1.3520208,3.196493 -2.3717538,6.501985 -3.1247228,9.96539 2.4367718,0.460334 4.9520728,0.872599 7.4318128,1.266786 4.015718,0.638308 7.873283,1.104622 10.89436,1.097877 1.510978,-0.0024 2.888383,-0.163098 3.884806,-0.422286 0.999731,-0.259977 1.704885,-0.386342 2.111302,-0.844501 1.56616,-1.765384 3.445727,-3.998997 4.307076,-7.431812 0.06413,-0.254477 0.185103,-1.088384 0.168843,-1.351232 -0.04021,-0.265405 -0.120493,-0.652704 -0.253238,-1.182342 -0.315151,-1.257247 -0.784613,-2.956651 -1.097855,-4.813774 -0.313497,-1.860662 -0.513805,-3.804499 -0.08436,-5.65832 0.422831,-1.825842 1.53626,-3.575755 3.462548,-4.644887 0.745997,-0.37283 1.643659,-0.514787 2.364667,-0.337796 0.74685,0.183426 1.398603,0.630106 2.026869,1.182321 1.257014,1.104932 2.330313,2.794843 3.293629,4.56042 0.959753,1.759095 1.778084,3.624325 2.449101,5.151615 0.336844,0.766706 0.683613,1.336667 0.928988,1.85796 0.10955,0.232929 0.181998,0.460502 0.253225,0.591148 0.07049,0.130574 0.10357,0.203992 0.08436,0.168837 0.06196,0.103074 0.150431,0.191079 0.253238,0.253354 -0.06031,-0.03755 0.212357,0.116942 0.422258,0.168838 0.317542,0.07844 0.539302,0.103545 0.844503,0.08442 0.153294,-0.01196 0.303648,-0.07104 0.42227,-0.168838 0.0299,-0.02559 0.05764,-0.05405 0.08436,-0.08442 0.0981,-0.118622 0.158078,-0.268922 0.168842,-0.422263 0.01145,-0.08345 0.01145,-0.169794 0,-0.253353 -0.129857,-0.454738 -0.466549,-1.246148 -0.844516,-2.618016 -0.436903,-1.585788 -0.822262,-3.560547 -1.097906,-5.573878 -0.276382,-2.017448 -0.337735,-4.054744 0.08436,-5.827208 0.41255,-1.731833 1.394226,-3.313052 3.124749,-3.969248 2.609546,-1.004204 4.917249,-0.298575 6.249461,1.266763 1.400231,1.645239 2.100639,4.042595 2.533598,6.587314 0.431113,2.534937 0.563604,5.203558 0.591151,7.262903 0.01145,1.028668 0.0025,1.811229 0,2.449107 -3.06e-4,0.05931 2.16e-4,0.125315 0,0.168839 0.0011,0.116942 0.03041,0.234125 0.08436,0.337796 0.06196,0.103074 0.150419,0.191079 0.253225,0.253376 0.078,0.0428 0.164771,0.07175 0.253225,0.08442 0.158307,0.03516 0.30674,0.116943 0.591151,0.168839 0.981383,0.17936 2.384172,0.331338 4.053724,0.591172 3.34077,0.519954 7.741721,1.349221 12.245594,2.533574 4.504788,1.184592 9.129561,2.798789 12.752311,5.151615 3.61027,2.344696 6.28056,5.459207 6.84065,9.543103 0.354637,2.533263 -1.49691,4.941668 -4.13817,7.262903 -2.63736,2.317839 -6.16182,4.629054 -9.880941,6.671755 -3.717694,2.041887 -7.561823,3.877582 -10.640983,5.320503 -1.540293,0.721793 -2.83983,1.356849 -3.884819,1.857933 -0.52864,0.253496 -0.998535,0.488889 -1.351233,0.675641 -0.352723,0.186773 -0.577116,0.294795 -0.760082,0.422239 -1.248121,0.870256 -1.810262,1.871183 -1.942409,2.95586 -0.135124,1.1084 0.113622,2.26073 0.591176,3.124722 0.02799,0.0014 0.05624,0.0014 0.08436,0 0.0051,0.0097 -0.0051,0.07605 0,0.08442 0.0051,0.0097 0.07889,-0.0097 0.08436,0 0.0089,0.0097 -0.0025,0.08107 0,0.08442 0.145876,0.212124 0.315456,0.353509 0.591177,0.675615 0.333269,0.389379 0.792578,0.926768 1.266773,1.435697 0.942653,1.011689 2.053334,2.214145 3.124724,3.462543 1.072561,1.249736 2.099189,2.553375 2.786938,3.800362 0.6978,1.265542 1.151421,2.450326 0.760082,3.631449 -0.01145,0.0366 -0.071,-0.0361 -0.08436,0 -0.116039,0.2941 -0.469424,0.51855 -0.675622,0.59117 -0.286141,0.10069 -0.521006,0.17267 -0.844516,0.16884 -0.60418,-0.007 -1.284994,-0.14396 -2.111315,-0.33782 -1.638952,-0.38426 -3.675197,-1.094096 -5.742756,-1.77349 -2.067749,-0.679465 -4.155882,-1.353 -5.742781,-1.773492 -0.576048,-0.152576 -0.984323,-0.190841 -1.35122,-0.253377 -0.398643,-0.05357 -0.809399,0.274923 -0.844529,0.675639 -0.01438,0.144684 0.0168,0.293984 0.08436,0.422239 0.100898,0.191317 0.219291,0.468537 0.506717,0.844525 0.84463,1.104576 2.174004,2.380946 3.462573,3.800356 1.291521,1.42269 2.480363,2.96648 3.124724,4.56045 0.61675,1.52557 0.540358,3.40552 -0.760082,4.81376 -0.05471,0.0476 -0.05738,0.0679 -0.08436,0.0844 -0.385563,0.24928 -0.532851,0.18127 -0.929,0.16884 -0.32421,-0.009 -0.687889,10e-4 -1.097881,-0.0844 -0.814488,-0.17267 -1.799345,-0.53034 -2.955831,-0.92899 -2.308874,-0.79591 -5.211711,-1.9257 -8.022989,-3.12472 -2.811214,-1.19899 -5.474033,-2.45291 -7.516259,-3.3781 -1.147286,-0.48326 -2.189171,-1.22407 -3.462535,-1.26676 -0.267272,-0.0215 -0.636587,0.01 -1.097881,0.0844 -0.923427,0.15186 -2.258056,0.29898 -3.884806,0.50668 -3.062619,0.39111 -7.322059,0.84477 -12.161147,1.09788 2.229454,2.0979 4.548761,4.10766 7.094002,5.82721 3.027731,2.04551 6.307607,3.79612 9.71202,5.23607 3.404414,1.43993 6.936217,2.53552 10.641022,3.29363 3.704843,0.75812 7.556567,1.18233 11.485524,1.18233 31.432518,0 56.921852,-25.48932 56.921852,-56.920906 0,-31.431561 -25.489334,-56.920909 -56.920923,-56.920909 z M 89.178894,24.476744 c 0.47369,-0.02701 1.01256,0.766134 1.09788,1.266789 0.36055,5.548384 -0.57032,11.280673 -1.9424,16.637119 -0.0763,1.13327 -1.56374,2.491174 -2.364675,1.097877 -0.934573,-3.188192 0.175306,-6.582027 0.506705,-9.796479 0.6922,-2.923168 0.74025,-6.2741 2.28023,-8.867486 0.13919,-0.230299 0.26431,-0.328803 0.42226,-0.33782 z m 11.823316,3.209191 c 0.89222,-0.109054 1.23063,0.781891 0.92899,1.52014 -2.250726,5.739391 -5.041666,11.395847 -8.698586,16.383766 -0.64142,1.242226 -2.52545,0.989878 -2.53358,-0.506705 0.25432,-4.132777 2.91912,-7.640518 4.89824,-11.147708 1.64982,-2.143311 2.8434,-5.102687 5.404936,-6.249493 z" style="fill:#aaaaaa"/>
</svg>