<?xml version="1.0" encoding="UTF-8" standalone="no"?>
<svg xmlns:dc="http://purl.org/dc/elements/1.1/"
     xmlns:cc="http://creativecommons.org/ns#"
     xmlns:rdf="http://www.w3.org/1999/02/22-rdf-syntax-ns#"
     xmlns:svg="http://www.w3.org/2000/svg"
     xmlns="http://www.w3.org/2000/svg"
     xmlns:xlink="http://www.w3.org/1999/xlink"
     width="128" height="128" version="1.1">
    <title>Blue Earth Icon Element</title>
    <desc>This icon is a part of Clarity icon theme</desc>
    <metadata>
        <rdf:RDF>
            <cc:Work rdf:about="">
                <dc:title>Blue Earth Icon Element</dc:title>
                <dc:description>This icon is a part of Clarity icon theme</dc:description>
                <dc:creator>
                    <cc:Agent>
                        <dc:title>Jakub Jankiewicz</dc:title>
                    </cc:Agent>
                </dc:creator>
                <dc:rights>
                    <cc:Agent>
                        <dc:title>Jakub Jankiewicz</dc:title>
                    </cc:Agent>
                </dc:rights>
                <dc:date>2010</dc:date>
                <dc:format>image/svg+xml</dc:format>
                <dc:type rdf:resource="http://purl.org/dc/dcmitype/StillImage" />
                <cc:license rdf:resource="http://www.gnu.org/copyleft/gpl.html" />
             </cc:Work>
        </rdf:RDF>
    </metadata>
    <path id="shape" d="M 64 21.59375 C 39.533579 21.59375 17.436077 31.933059 1.8125 48.4375 L 11.3125 57.28125 C 24.525602 43.338524 43.216313 34.65625 64 34.65625 C 84.78015 34.65625 103.46487 43.342679 116.6875 57.28125 L 126.1875 48.4375 C 110.56393 31.933058 88.466421 21.59375 64 21.59375 z M 64 44.96875 C 46.283961 44.96875 30.290301 52.441021 18.9375 64.375 L 28.40625 73.21875 C 37.355254 63.852901 49.969991 58.03125 64 58.03125 C 78.030006 58.03125 90.637794 63.852901 99.59375 73.21875 L 109.09375 64.375 C 97.733525 52.436244 81.720093 44.96875 64 44.96875 z M 64 70.15625 C 53.548981 70.15625 44.072534 74.521269 37.3125 81.53125 L 46.84375 90.40625 C 51.192051 85.96987 57.240917 83.21875 64 83.21875 C 70.752602 83.21875 76.801986 85.977375 81.15625 90.40625 L 90.6875 81.53125 C 83.927463 74.52127 74.451018 70.15625 64 70.15625 z " style="fill:#333333;fill-opacity:1;stroke:none" />
</svg>