<?xml version="1.0" encoding="UTF-8" standalone="no"?>
<svg xmlns:dc="http://purl.org/dc/elements/1.1/"
     xmlns:cc="http://creativecommons.org/ns#"
     xmlns:rdf="http://www.w3.org/1999/02/22-rdf-syntax-ns#"
     xmlns:svg="http://www.w3.org/2000/svg"
     xmlns="http://www.w3.org/2000/svg"
     xmlns:xlink="http://www.w3.org/1999/xlink"
     width="128" height="128" version="1.1">
    <title>Reload Icon Element</title>
    <desc>This icon is a part of Clarity icon theme</desc>
    <metadata>
        <rdf:RDF>
            <cc:Work rdf:about="">
                <dc:title>Reload Icon Element</dc:title>
                <dc:description>This icon is a part of Clarity icon theme</dc:description>
                <dc:creator>
                    <cc:Agent>
                        <dc:title>Jakub Jankiewicz</dc:title>
                    </cc:Agent>
                </dc:creator>
                <dc:rights>
                    <cc:Agent>
                        <dc:title>Jakub Jankiewicz</dc:title>
                    </cc:Agent>
                </dc:rights>
                <dc:date>2010</dc:date>
                <dc:format>image/svg+xml</dc:format>
                <dc:type rdf:resource="http://purl.org/dc/dcmitype/StillImage" />
                <cc:license rdf:resource="http://www.gnu.org/copyleft/gpl.html" />
             </cc:Work>
        </rdf:RDF>
    </metadata>
    <path id="shape" d="m 99.641369,0 c -13.99156,0 -25.339808,11.348248 -25.339808,25.339808 0,8.136482 3.838302,15.374822 9.803548,20.003512 l -5.351548,5.19908 17.564055,0.15247 0.365918,-17.56406 -5.549754,5.38204 c -4.319728,-2.79367 -7.181137,-7.64389 -7.181137,-13.173042 0,-8.666414 7.022309,-15.688726 15.688726,-15.688726 0.380351,0 0.754681,0.01914 1.128251,0.04574 l 0,-9.666329 C 100.39735,0.014253 100.01763,3e-6 99.641369,3e-6 z m 6.342571,3.96411 -0.36591,17.564055 5.54975,-5.382042 c 4.31973,2.793674 7.18114,7.64389 7.18114,13.173047 0,8.66641 -7.02231,15.68872 -15.68873,15.68872 -0.38035,0 -0.75468,-0.0191 -1.12825,-0.0457 l 0,9.66633 c 0.37227,0.01618 0.75199,0.03048 1.12825,0.03048 C 116.65175,54.659 128,43.31075 128,29.31919 128,21.182711 124.1617,13.944373 118.19645,9.315687 L 123.548,4.1166 105.98394,3.964134 z" style="fill:#15a100;fill-opacity:1;stroke:none" />
</svg>