<?xml version="1.0" encoding="UTF-8" standalone="no"?>
<svg xmlns:dc="http://purl.org/dc/elements/1.1/"
     xmlns:cc="http://creativecommons.org/ns#"
     xmlns:rdf="http://www.w3.org/1999/02/22-rdf-syntax-ns#"
     xmlns:svg="http://www.w3.org/2000/svg"
     xmlns="http://www.w3.org/2000/svg"
     xmlns:xlink="http://www.w3.org/1999/xlink"
     width="128" height="128" version="1.1">
    <title>Reload Icon Element</title>
    <desc>This icon is a part of Clarity icon theme</desc>
    <metadata>
        <rdf:RDF>
            <cc:Work rdf:about="">
                <dc:title>Reload Icon Element</dc:title>
                <dc:description>This icon is a part of Clarity icon theme</dc:description>
                <dc:creator>
                    <cc:Agent>
                        <dc:title>Jakub Jankiewicz</dc:title>
                    </cc:Agent>
                </dc:creator>
                <dc:rights>
                    <cc:Agent>
                        <dc:title>Jakub Jankiewicz</dc:title>
                    </cc:Agent>
                </dc:rights>
                <dc:date>2010</dc:date>
                <dc:format>image/svg+xml</dc:format>
                <dc:type rdf:resource="http://purl.org/dc/dcmitype/StillImage" />
                <cc:license rdf:resource="http://www.gnu.org/copyleft/gpl.html" />
             </cc:Work>
        </rdf:RDF>
    </metadata>
    <path id="shape" d="m 63.556014,42.1875 c -1.547381,0.05013 -3.312351,0.432813 -5.1875,1.40625 -5.139433,2.676693 -4.467972,8.454557 -3.625,20.03125 0.214137,3.118347 -2.76074,5.199294 -5.34375,9.28125 -2.583006,4.068573 -2.889579,7.390939 -4.84375,10.75 -1.687495,2.901111 -1.620422,3.104303 -1.09375,5.09375 -0.206345,0.176948 -0.382085,0.347247 -0.5625,0.53125 -0.433985,0.442613 -0.815612,1.06764 -1.25,1.6875 -0.434388,0.619864 -0.908101,1.233901 -1.40625,1.59375 -0.396611,0.286487 -1.415802,0.500569 -2.4375,0.71875 -1.021698,0.218181 -2.091917,0.397536 -2.71875,1.21875 -0.526831,0.702572 -0.510536,1.537434 -0.40625,2.40625 0.104286,0.868818 0.287747,1.850624 0.28125,3.15625 0,1.08923 -0.175359,1.93113 -0.3125,2.65625 -0.187229,0.89672 -0.332307,1.75647 0.15625,2.59375 0.404084,0.67358 1.042245,1.1652 2.25,1.5625 1.207757,0.3973 3.047412,0.81272 6.1875,1.46875 1.614264,0.33443 3.238316,0.93899 4.71875,1.5 1.480435,0.56099 2.820789,1.08864 4.03125,1.1875 1.134471,0.0857 1.940608,-0.0747 2.59375,-0.4375 0.653143,-0.36285 1.089725,-0.87972 1.71875,-1.4375 0.59445,-0.53253 1.05687,-0.7073 1.4375,-1.25 0.03023,-0.0431 0.03591,-0.0798 0.0625,-0.125 1.552692,-0.66885 1.490322,-0.43143 5.28125,-0.65625 4.124545,-0.24335 5.573492,-0.41476 9.09375,0.4375 0.248416,1.08087 0.713885,1.8777 1.25,2.34375 0.721246,0.64326 1.827509,1.125 3.90625,1.125 2.084194,0 3.569087,-0.53764 4.96875,-1.9375 0.824916,-0.82474 1.700231,-1.57429 4.28125,-3.34375 0.998241,-0.68068 2.262987,-1.42445 3.375,-2.0625 0.556005,-0.31902 1.077427,-0.61434 1.5,-0.875 0.422574,-0.26065 0.723348,-0.4421 0.96875,-0.6875 0.188694,-0.18881 1.04649,-0.81735 1.09375,-2.125 l 0,-0.03125 c 0.01798,-0.651767 -0.276091,-1.171382 -0.625,-1.5 -0.348911,-0.328618 -0.729529,-0.510383 -0.96875,-0.65625 l -0.03125,0 c -0.61148,-0.354016 -2.638663,-1.982934 -3.53125,-3.40625 -0.153573,-0.245674 -0.129881,-0.756624 -0.09375,-1.4375 0.03613,-0.680876 0.04068,-1.559016 -0.5,-2.34375 -0.254702,-0.371725 -0.603362,-0.561228 -0.9375,-0.65625 0.28656,-0.720243 0.520187,-1.376756 0.65625,-1.9375 C 88.510653,83.909128 85.325822,76.760544 82.274764,72.4375 79.223335,68.114642 76.724793,65.460267 75.493514,60 c -1.244658,-5.473835 0.284944,-3.909604 -0.8125,-8.6875 -0.535338,-2.382256 -1.473959,-4.255338 -2.53125,-5.5 -1.057295,-1.271428 -2.460309,-2.000263 -3.15625,-2.375 -0.910911,-0.489332 -2.601278,-1.190215 -4.78125,-1.25 -0.21194,-0.0058 -0.435198,-0.0072 -0.65625,0 z m 2.8125,9.34375 c 0.109485,-10e-4 0.226657,0.02124 0.34375,0.03125 1.21808,0.09368 1.719341,0.344988 2.5625,1.84375 0.896688,1.565865 0.852642,2.889238 0.53125,4.09375 -0.170476,0.637718 -0.388096,1.147996 -0.8125,1.53125 -0.09536,-0.04868 -0.211054,-0.08133 -0.3125,-0.125 -0.469628,-0.202136 -0.996038,-0.347303 -1.53125,-0.5 0.331437,-0.131532 0.658349,-0.367383 0.875,-0.65625 0.321201,-0.414887 0.424049,-1.009295 0.34375,-1.53125 -0.200753,-1.150977 -0.777489,-2.03125 -1.78125,-2.03125 -0.42827,0 -0.937882,0.03574 -1.21875,0.34375 -0.374735,0.414887 -0.59375,0.95141 -0.59375,1.6875 0,0.384259 0.01612,0.869013 0.09375,1.28125 -0.102158,-0.06878 -0.197665,-0.133292 -0.3125,-0.21875 -0.29337,-0.216775 -0.708151,-0.38875 -1.15625,-0.5 -0.111482,-0.263561 -0.179571,-0.571329 -0.1875,-0.96875 -0.02657,-1.284812 -0.129154,-1.139108 0.3125,-2.15625 0.388783,-0.87829 1.201452,-2.109807 2.84375,-2.125 z m -8.625,0.5 c 0.553324,0.005 1.204555,0.190169 1.65625,0.8125 0.629021,0.869924 1.03125,1.317903 1.03125,2.65625 0.0055,0.556231 -0.05566,0.949453 -0.15625,1.28125 -0.205288,0.04578 -0.412875,0.0971 -0.65625,0.21875 -0.131173,0.068 -0.262193,0.19067 -0.40625,0.28125 0.04707,-0.310297 0.0625,-0.642978 0.0625,-0.96875 0,-0.575488 -0.183214,-1.107396 -0.4375,-1.46875 -0.240715,-0.361354 -0.754746,-0.625 -1.15625,-0.625 -0.42827,0 -0.727848,0.187763 -0.96875,0.5625 -0.347971,0.508571 -0.25,1.067246 -0.25,1.46875 0,0.642406 0.446533,1.433149 0.59375,1.59375 0.266399,0.274724 0.374635,0.497471 0.53125,0.625 -0.12686,0.106565 -0.241279,0.221973 -0.34375,0.3125 -0.155363,0.134517 -0.295054,0.226662 -0.4375,0.34375 -0.252192,-0.273812 -0.479776,-0.636024 -0.625,-1.0625 -0.361167,-1.070677 -0.477654,-1.670752 -0.4375,-3.25 0.01355,-0.588872 0.174247,-1.152096 0.375,-1.59375 0.308007,-0.65579 0.74578,-1.102716 1.09375,-1.15625 0.150562,-0.02676 0.346808,-0.03292 0.53125,-0.03125 z m 4.15625,5 c 0.879842,-0.02181 1.942384,0.219746 2.40625,0.5625 0.584161,0.434724 1.019954,0.662837 1.5625,0.84375 0.892889,0.293055 1.905356,0.520551 2.65625,0.84375 0.375448,0.1616 0.677266,0.340464 0.875,0.5625 0.197733,0.222034 0.304663,0.467149 0.28125,0.8125 -0.0591,0.925765 -0.214019,1.567604 -0.53125,2.03125 -0.317231,0.463646 -0.80471,0.791698 -1.5625,1.03125 -0.698992,0.215646 -1.570741,0.848402 -2.5,1.4375 -0.929259,0.589097 -1.90249,1.125 -2.6875,1.125 -0.783257,0 -1.854721,0.01199 -2.40625,-0.1875 -0.233575,-0.08304 -0.625242,-0.370509 -1.03125,-0.75 -0.406008,-0.379492 -0.838431,-0.833453 -1.34375,-1.25 l -0.03125,0 c -0.983456,-0.797399 -1.819747,-1.640898 -1.84375,-2.65625 -0.01863,-0.550596 0.134573,-0.880091 0.4375,-1.21875 0.302926,-0.33866 0.756292,-0.674666 1.3125,-1.15625 0.565817,-0.499863 1.629102,-1.331115 2.3125,-1.6875 0.620462,-0.306589 1.005548,-0.230017 1.71875,-0.3125 0.115238,-0.0142 0.249307,-0.02814 0.375,-0.03125 z m 6.40625,3.5625 c -0.124371,0.0047 -0.26949,0.09394 -0.4375,0.1875 -0.168011,0.09356 -0.337089,0.205031 -0.53125,0.34375 -0.385582,0.275481 -0.80863,0.598805 -1.09375,0.8125 -0.568702,0.343283 -1.569336,0.915101 -2.625,1.34375 -1.05992,0.430375 -2.190574,0.717392 -2.96875,0.59375 -0.64595,-0.02144 -1.91221,-0.190089 -2.71875,-0.71875 -0.410402,-0.25203 -0.865308,-0.503905 -1.0625,-0.71875 l -0.03125,0.0625 -0.03125,0.0625 c 0.339577,0.234512 0.346495,0.268043 0.84375,0.59375 0.06965,0.05364 0.166095,0.09049 0.21875,0.125 0.253327,0.155568 0.494932,0.352332 0.65625,0.46875 0.704961,0.359809 0.732447,0.363762 1.875,0.53125 2.200036,0.130555 3.926833,-0.828425 5.03125,-1.40625 1.036194,-0.587734 1.63018,-1.014548 2.3125,-1.5 0.250547,-0.169741 0.45988,-0.246648 0.59375,-0.34375 0.06693,-0.04855 0.113739,-0.110089 0.125,-0.1875 0.01127,-0.07741 -0.02575,-0.146883 -0.09375,-0.21875 a 0.07087838,0.07087838 0 0 0 -0.03125,0 0.07087838,0.07087838 0 0 1 0,-0.03125 0.07087838,0.07087838 0 0 0 -0.03125,0 z m 1.25,2.1875 c 0.382567,0.724494 0.50212,1.962899 1.46875,3.5 1.43203,2.248422 1.331299,3.823901 2.9375,7.34375 0.802825,1.766616 1.754878,3.139766 2.34375,5.09375 0.642406,2.087821 0.96875,4.934805 0.96875,7.71875 0,1.070492 0.07562,2.223628 -0.3125,2.8125 -0.315176,-0.06246 -0.627213,-0.0625 -1.0625,-0.0625 -0.864663,0 -1.32139,0.09786 -2.0625,0.5625 l 0,0.03125 c -0.336631,0.210227 -0.424895,0.479445 -0.5,0.75 -0.07647,0.275474 -0.126043,0.585702 -0.15625,0.9375 -0.06041,0.703585 -0.0625,1.560253 -0.0625,2.5 0,1.489466 0.0037,3.170435 -0.125,4.46875 -0.0052,0.05302 0.0053,0.103965 0,0.15625 -0.09571,0.100579 -0.202233,0.173958 -0.3125,0.28125 -1.927217,1.86048 -4.560452,3.79527 -8,4.4375 -4.028473,0.75104 -6.050392,0.28835 -7.0625,-0.21875 -0.178593,-0.34722 -0.392527,-0.68538 -0.625,-1 -0.575198,-0.77846 -1.258361,-1.57502 -2,-2.65625 0.626296,-0.103554 1.674291,-0.304913 1.84375,-0.625 0.240902,-0.468419 0.276505,-1.920094 -0.125,-2.5625 -0.374547,-0.629022 -3.161653,-2.648141 -4.5,-3.8125 -1.271429,-1.124397 -2.103241,-1.768141 -2.90625,-2.4375 -0.81639,-0.669357 -0.839335,0.127576 -0.90625,-2.5625 -0.06691,-2.690261 0.451212,-3.992483 0.90625,-6 0.455039,-2.020903 2.420028,-4.510348 2.96875,-6.53125 0.06692,-0.294436 0.183081,-0.580564 0.25,-0.875 0.160603,-0.588873 0.348367,-1.205761 0.5625,-1.78125 0.34797,-0.963609 0.812893,-1.897942 1.375,-2.78125 1.097445,-1.672933 1.59375,-1.764173 1.59375,-2.875 0,-1.65955 -0.08481,-1.630666 -0.03125,-3.34375 8.13e-4,-0.03039 -0.0021,-0.06656 0,-0.09375 0.365899,0.448389 0.840252,0.867097 1.3125,1.25 0.485057,0.399844 0.961271,0.832039 1.375,1.21875 0.408551,0.381869 0.761122,0.709571 1.125,0.84375 0.706708,0.251246 1.797058,0.21875 2.5625,0.21875 0.955024,0 1.96187,-0.588816 2.90625,-1.1875 0.944381,-0.598686 1.847199,-1.233776 2.40625,-1.40625 0.808078,-0.255449 1.37129,-0.602752 1.75,-1.15625 0.02799,-0.04091 0.068,-0.113467 0.09375,-0.15625 z M 45.712264,89.0625 c 0.09539,0.0028 0.421646,0.148851 0.8125,0.46875 0.390853,0.319899 0.864015,0.777387 1.3125,1.3125 0.896969,1.070236 1.774085,2.406062 2.375,3.34375 1.214357,1.921625 1.507893,2.467099 3.34375,5.375 0.947412,1.50065 1.863739,2.43119 2.46875,3.25 0.605011,0.8188 0.919498,1.46571 0.9375,2.59375 0.01957,1.23184 -0.08077,1.61577 -0.21875,1.8125 -0.137149,0.19555 -0.535939,0.42123 -1.21875,1.03125 l -0.03125,0 c -0.669168,0.59338 -1.069082,1.04185 -1.5,1.28125 -0.428579,0.2381 -0.923627,0.35382 -1.90625,0.28125 -0.0033,-2.8e-4 -0.02796,2.9e-4 -0.03125,0 -0.916981,-0.0776 -2.215642,-0.56725 -3.6875,-1.125 -1.47731,-0.55981 -3.130015,-1.20099 -4.875,-1.5625 -3.13694,-0.65537 -4.981731,-1.05072 -6.0625,-1.40625 -1.073894,-0.35326 -1.317519,-0.57315 -1.59375,-1.03125 -0.250695,-0.4387 -0.184741,-0.83443 0,-1.71875 l 0,-0.0312 c 0.129834,-0.68794 0.342106,-1.61605 0.34375,-2.84375 2.9e-5,-0.006 -2e-5,-0.0255 0,-0.0312 0.0055,-1.41656 -0.185097,-2.511432 -0.28125,-3.3125 -0.09652,-0.804115 -0.07977,-1.216493 0.15625,-1.53125 0.149411,-0.195745 1.000751,-0.505363 2,-0.71875 0.999249,-0.213389 2.098538,-0.354059 2.90625,-0.9375 0.706363,-0.510261 1.228543,-1.251334 1.6875,-1.90625 0.458956,-0.65492 0.876429,-1.246486 1.125,-1.5 0.674577,-0.687987 1.06372,-1.115064 1.9375,-1.09375 z m 29.71875,1.34375 c 0.118086,-0.0033 0.270817,0 0.46875,0 0.415507,0 0.684058,0.03016 0.84375,0.0625 0.130896,0.02652 0.177754,0.02793 0.21875,0.0625 -0.0111,-0.0028 0.003,0.07311 0,0.25 -0.0041,0.235858 -0.04581,0.586895 -0.09375,1.03125 l 0,0.03125 c -0.04954,0.536847 0.09519,0.97789 0.3125,1.3125 0.217306,0.33461 0.465888,0.521625 0.65625,0.6875 l 0,0.03125 c 0.358714,0.30086 0.999514,0.913881 2.4375,1.03125 l 0.03125,0 c 1.388081,0.09915 2.098417,-0.183092 2.75,-0.59375 0.674697,-0.425348 1.526697,-1.072759 1.96875,-1.625 0.213572,-0.269286 0.475744,-0.686543 0.71875,-1.0625 0.121502,-0.187977 0.231615,-0.359119 0.3125,-0.46875 0.01289,-0.0025 0.01795,-0.02914 0.03125,-0.03125 0.08664,-0.01391 0.191321,-0.004 0.28125,0 0.179862,0.0081 0.27714,0.03032 0.40625,0.21875 0.289098,0.419595 0.315432,0.91832 0.28125,1.5625 -0.03418,0.64418 -0.167642,1.438129 0.28125,2.15625 1.084138,1.728756 3.050235,3.246372 3.96875,3.78125 l 0,0.03125 c 0.305295,0.185618 0.582336,0.342086 0.75,0.5 0.166551,0.156864 0.255581,0.250826 0.25,0.5625 -1.07e-4,0.0058 1.62e-4,0.02526 0,0.03125 -0.036,0.89452 -0.326458,0.85745 -0.75,1.28125 -0.06252,0.0625 -0.352792,0.28625 -0.75,0.53125 -0.397209,0.24501 -0.882678,0.52541 -1.4375,0.84375 -1.109641,0.63668 -2.406126,1.40042 -3.46875,2.125 l -0.03125,0 c -2.611768,1.79055 -3.544857,2.60754 -4.40625,3.46875 -1.223499,1.22367 -2.220931,1.59375 -4.125,1.59375 -1.909534,0 -2.584087,-0.38921 -3.09375,-0.84375 -0.396561,-0.34473 -1.093388,-1.54862 -1.03125,-3.4375 0.05038,-1.90156 0.686606,-3.76476 1,-6.96875 0.139297,-1.404773 0.125,-3.111713 0.125,-4.59375 0,-0.933938 0.0091,-1.753671 0.0625,-2.375 0.02669,-0.310664 0.08353,-0.600602 0.125,-0.75 0.01879,-0.06777 0.02355,-0.08231 0.03125,-0.09375 0.424072,-0.26785 0.520745,-0.334486 0.875,-0.34375 z" fill="#000000"/>
</svg>