<?xml version="1.0" encoding="UTF-8" standalone="no"?>
<svg xmlns:dc="http://purl.org/dc/elements/1.1/" xmlns:cc="http://creativecommons.org/ns#" xmlns:rdf="http://www.w3.org/1999/02/22-rdf-syntax-ns#" xmlns:svg="http://www.w3.org/2000/svg" xmlns="http://www.w3.org/2000/svg" id="svg9" version="1.1" height="128" width="128">
  <defs id="defs13" />
  <title id="title2">Yellow Lock Icon Element</title>
  <desc id="desc4">This icon is a part of Clarity icon theme</desc>
  <metadata id="metadata6">
    <rdf:RDF>
      <cc:Work rdf:about="">
        <dc:title>Yellow Lock Icon Element</dc:title>
        <dc:description>This icon is a part of Clarity icon theme</dc:description>
        <dc:creator>
          <cc:Agent>
            <dc:title>Jakub Jankiewicz</dc:title>
          </cc:Agent>
        </dc:creator>
        <dc:rights>
          <cc:Agent>
            <dc:title>Jakub Jankiewicz</dc:title>
          </cc:Agent>
        </dc:rights>
        <dc:date>2010</dc:date>
        <dc:format>image/svg+xml</dc:format>
        <dc:type rdf:resource="http://purl.org/dc/dcmitype/StillImage" />
        <cc:license rdf:resource="http://creativecommons.org/licenses/by-sa/3.0/" />
      </cc:Work>
    </rdf:RDF>
  </metadata>
  <path style="fill:#b3a91a;fill-opacity:1;stroke:none" d="m 26.865877,56.143924 c -10.69839,0 -19.44064,8.742246 -19.44064,19.440631 V 87.12743 C 3.166047,88.060257 0,91.828049 0,96.375229 V 118.51594 C 0,123.76818 4.231827,128 9.484057,128 h 34.76363 c 5.25223,0 9.45031,-4.23182 9.45031,-9.48406 V 96.375229 c 0,-4.535787 -3.14843,-8.303093 -7.39149,-9.247799 V 75.584555 c 0,-10.698385 -8.74225,-19.440631 -19.44063,-19.440631 z m 0,6.48021 c 7.19621,0 12.96042,5.7642 12.96042,12.960421 V 86.924923 H 13.905457 V 75.584555 c 0,-7.196221 5.7642,-12.960421 12.96042,-12.960421 z" id="shape" />
</svg>
