<?xml version="1.0" encoding="UTF-8" standalone="no"?>
<svg xmlns:dc="http://purl.org/dc/elements/1.1/"
     xmlns:cc="http://creativecommons.org/ns#"
     xmlns:rdf="http://www.w3.org/1999/02/22-rdf-syntax-ns#"
     xmlns:svg="http://www.w3.org/2000/svg"
     xmlns="http://www.w3.org/2000/svg"
     xmlns:xlink="http://www.w3.org/1999/xlink"
     width="128" height="128" version="1.1">
    <title>Yellow Clock Icon Element</title>
    <desc>This icon is a part of Clarity icon theme</desc>
    <metadata>
        <rdf:RDF>
            <cc:Work rdf:about="">
                <dc:title>Yellow Clock Icon Element</dc:title>
                <dc:description>This icon is a part of Clarity icon theme</dc:description>
                <dc:creator>
                    <cc:Agent>
                        <dc:title>Jakub Jankiewicz</dc:title>
                    </cc:Agent>
                </dc:creator>
                <dc:rights>
                    <cc:Agent>
                        <dc:title>Jakub Jankiewicz</dc:title>
                    </cc:Agent>
                </dc:rights>
                <dc:date>2010</dc:date>
                <dc:format>image/svg+xml</dc:format>
                <dc:type rdf:resource="http://purl.org/dc/dcmitype/StillImage" />
                <cc:license rdf:resource="http://www.gnu.org/copyleft/gpl.html" />
             </cc:Work>
        </rdf:RDF>
    </metadata>
    <path id="shape" d="m 101.151,74.301993 c -14.828668,0 -26.849,12.020333 -26.849,26.849007 0,14.82866 12.020332,26.849 26.849,26.849 C 115.97967,128 128,115.97966 128,101.151 128,86.322326 115.97967,74.301993 101.151,74.301993 z m 0,3.987157 c 1.69584,0 3.07076,1.41587 3.07076,3.15114 0,1.73527 -1.37492,3.135062 -3.07076,3.135062 -1.695831,0 -3.070752,-1.399792 -3.070752,-3.135062 0,-1.73527 1.374921,-3.15114 3.070752,-3.15114 z m 1.07718,16.109402 c 0.48971,0.01405 0.97802,0.156554 1.43087,0.418009 1.44913,0.836649 1.94598,2.682728 1.10933,4.131852 -0.0495,0.08573 -0.1834,0.290559 -0.27331,0.434086 5.73248,3.527211 12.8132,7.908961 14.27659,8.665641 2.35383,1.21709 3.86637,3.0107 3.36014,3.98715 -0.50623,0.97646 -2.82304,0.76693 -5.17687,-0.45016 -1.51214,-0.78189 -9.6753,-4.23781 -15.94862,-6.91322 -2.134393,3.19138 -4.426459,6.59701 -4.887487,7.39553 -0.836649,1.44912 -2.324754,2.1548 -3.327989,1.57557 -1.003242,-0.57922 -1.142122,-2.21649 -0.305468,-3.6656 0.434178,-0.75203 2.077227,-4.11102 3.681689,-7.37947 -1.127558,-0.49122 -2.056627,-0.90249 -2.363355,-1.06109 -1.810648,-0.93623 -2.513036,-3.159614 -1.575571,-4.96787 0.937461,-1.808255 3.173305,-2.527878 4.983947,-1.591647 0.298512,0.154352 1.129652,0.645071 2.138274,1.254025 0.04944,-0.09186 0.126148,-0.261578 0.160773,-0.321544 0.575197,-0.996275 1.639697,-1.542176 2.717057,-1.511262 z" style="fill:#b3a91a;fill-opacity:1;stroke:none" />
</svg>