<?xml version="1.0" encoding="UTF-8" standalone="no"?>
<svg xmlns:dc="http://purl.org/dc/elements/1.1/" xmlns:cc="http://creativecommons.org/ns#" xmlns:rdf="http://www.w3.org/1999/02/22-rdf-syntax-ns#" xmlns:svg="http://www.w3.org/2000/svg" xmlns="http://www.w3.org/2000/svg" id="svg9" version="1.1" height="128" width="128">
  <defs id="defs13" />
  <title id="title2">Java Logo Element</title>
  <desc id="desc4">This icon is a part of Clarity icon theme</desc>
  <metadata id="metadata6">
    <rdf:RDF>
      <cc:Work rdf:about="">
        <dc:title>Java Logo Element</dc:title>
        <dc:description>This icon is a part of Clarity icon theme</dc:description>
        <dc:creator>
          <cc:Agent>
            <dc:title>Jakub Jankiewicz</dc:title>
          </cc:Agent>
        </dc:creator>
        <dc:rights>
          <cc:Agent>
            <dc:title>Jakub Jankiewicz</dc:title>
          </cc:Agent>
        </dc:rights>
        <dc:date>2010</dc:date>
        <dc:format>image/svg+xml</dc:format>
        <dc:type rdf:resource="http://purl.org/dc/dcmitype/StillImage" />
        <cc:license rdf:resource="http://creativecommons.org/licenses/by-sa/3.0/" />
      </cc:Work>
    </rdf:RDF>
  </metadata>
  <path style="fill:#800000;fill-opacity:1;stroke:none" d="M 38.46045,45.948967 C 41.89997,59.494576 26.347622,63.582978 20.729249,72.019491 16.901407,77.766788 22.589113,83.950314 30.364012,90.96515 27.332228,84.112618 17.064643,78.105637 30.384222,67.586693 46.99431,54.473621 38.46042,45.948967 38.46042,45.948967 Z m 10.28247,16.759621 c 0,0 -28.089712,7.010291 -14.67479,22.467609 3.95743,4.556255 -1.0323,8.663181 -1.0323,8.663181 0,0 10.03948,-5.18326 5.42462,-11.679108 -4.31014,-6.057752 -7.611093,-9.074047 10.28247,-19.451682 z m 4.55425,27.629085 c -0.86014,0.04418 -1.77074,0.202361 -2.69207,0.526272 -0.86331,0.306495 -1.31566,1.032294 -1.31566,1.032294 0,0 0.5434,-0.232366 1.76096,-0.485791 4.96757,-1.035565 12.09345,6.655885 -3.2993,14.654552 -0.0712,0.1904 -0.32384,0.40505 -0.32384,0.40482 18.63048,-4.89766 14.18452,-16.559398 5.86991,-16.132147 z m -33.316838,0.769161 c -1.962458,0.05163 -6.560362,0.474446 -11.9017588,3.056407 -8.42125798,4.07352 20.8262078,5.925569 35.9684168,1.943153 1.57427,-1.074943 3.76484,-2.00388 3.76484,-2.00388 0,0 -6.19632,1.098751 -12.3673,1.619293 -7.550871,0.63267 -15.668623,0.767088 -19.735066,0.222657 -9.6308618,-1.286125 5.282919,-4.83763 5.282919,-4.83763 0,0 -0.357898,-0.01716 -1.012051,0 z m -2.449178,9.310906 c -13.8969898,4.61243 7.724578,9.84796 27.143316,4.16966 -2.06408,-0.72775 -3.38027,-2.0646 -3.38027,-2.0646 -9.490438,1.82747 -14.976141,1.76902 -21.921103,1.05255 -5.370476,-0.55549 -1.841943,-3.15761 -1.841943,-3.15761 z m 1.963387,8.98703 c -12.6150738,3.52489 7.661546,10.81027 23.722559,3.92677 -2.63062,-1.02295 -4.51376,-2.20627 -4.51376,-2.20627 -7.164547,1.356 -10.480914,1.45013 -16.982278,0.70844 -5.366494,-0.61698 -2.226521,-2.42894 -2.226521,-2.42894 z m -8.764386,5.95088 c -5.6653118,0.17458 -16.7502628,5.25992 -6.6188398,6.90222 32.7465248,5.31055 59.7039648,-2.38264 51.2099648,-6.21401 0,0 2.30475,1.92155 -2.57062,3.40049 -9.27063,2.80842 -38.572932,3.64578 -46.7164418,0.10111 -2.927383,-1.27351 2.56427,-3.02966 4.2911138,-3.40049 1.800924,-0.39054 2.81351,-0.32386 2.81351,-0.32386 -0.508674,-0.35834 -1.359555,-0.49787 -2.408687,-0.46555 z M 60.503,120.21352 c 0,0 -1.02746,2.6519 -12.20538,4.75666 -12.61088,2.37321 -28.160219,2.10796 -37.385299,0.587 2.23e-4,-2.3e-4 1.887457,1.56331 11.598142,2.18603 C 37.28559,128.689 59.96564,127.20469 60.503,120.21352 Z" id="shape" />
</svg>
