<?xml version="1.0" encoding="UTF-8" standalone="no"?>
<svg xmlns:dc="http://purl.org/dc/elements/1.1/"
     xmlns:cc="http://creativecommons.org/ns#"
     xmlns:rdf="http://www.w3.org/1999/02/22-rdf-syntax-ns#"
     xmlns:svg="http://www.w3.org/2000/svg"
     xmlns="http://www.w3.org/2000/svg"
     xmlns:xlink="http://www.w3.org/1999/xlink"
     width="128" height="128" version="1.1">
    <title>Debian Logo Element</title>
    <desc>This icon is a part of Clarity icon theme</desc>
    <metadata>
        <rdf:RDF>
            <cc:Work rdf:about="">
                <dc:title>Debian Logo Element</dc:title>
                <dc:description>This icon is a part of Clarity icon theme</dc:description>
                <dc:creator>
                    <cc:Agent>
                        <dc:title>Jakub Jankiewicz</dc:title>
                    </cc:Agent>
                </dc:creator>
                <dc:rights>
                    <cc:Agent>
                        <dc:title>Jakub Jankiewicz</dc:title>
                    </cc:Agent>
                </dc:rights>
                <dc:date>2010</dc:date>
                <dc:format>image/svg+xml</dc:format>
                <dc:type rdf:resource="http://purl.org/dc/dcmitype/StillImage" />
                <cc:license rdf:resource="http://www.gnu.org/copyleft/gpl.html" />
             </cc:Work>
        </rdf:RDF>
    </metadata>
    <path id="shape" d="M 102.125,52.6875 C 100.96009,52.78268 99.804452,52.853034 98.65625,53 l 0.53125,0.0625 c 0.84174,-0.306471 2.0398,-0.168757 2.9375,-0.375 z M 97.0625,53.25 c -1.89559,0.113585 -4.531264,1.087697 -3.71875,0.1875 -3.092233,1.379523 -8.573203,3.326082 -11.65625,6.21875 L 81.5625,59 c -1.412923,1.692678 -6.125059,5.051283 -6.5,7.25 l -0.40625,0.125 c -0.733184,1.242571 -1.200882,2.626936 -1.78125,3.90625 -0.719613,1.228167 -1.167812,0.973211 -1.28125,0.875 -1.888908,3.832932 -2.815825,7.07578 -3.625,9.71875 0.577864,0.860949 7.98e-4,5.213645 0.21875,8.6875 -0.94529,17.15467 12.053957,33.78205 26.25,37.625 2.078469,0.74405 5.180384,0.74069 7.8125,0.8125 -3.105588,-0.88684 -3.535408,-0.47407 -6.5625,-1.53125 -2.179512,-1.02714 -2.641801,-2.19098 -4.1875,-3.53125 L 92.125,124 c -3.030437,-1.06972 -1.752815,-1.3138 -4.21875,-2.09375 l 0.625,-0.84375 C 87.549217,120.9873 85.944254,119.40808 85.5,118.53125 l -1.09375,0.0312 c -1.288499,-1.59162 -1.955517,-2.73483 -1.90625,-3.625 l -0.34375,0.625 c -0.390809,-0.67221 -4.760513,-5.98254 -2.5,-4.75 -0.417532,-0.38162 -0.959586,-0.61981 -1.5625,-1.71875 l 0.4375,-0.53125 c -1.08558,-1.39956 -2.005976,-3.18418 -1.9375,-3.78125 0.577027,0.78246 0.977512,0.89763 1.375,1.03125 C 75.222234,98.998395 75.080973,105.4411 73,98.875 l 0.4375,-0.03125 C 73.100971,98.334336 72.895559,97.79112 72.625,97.25 l 0.1875,-1.90625 C 70.835074,93.060691 72.24399,85.640106 72.53125,81.5625 72.72749,79.905739 74.21022,78.147403 75.3125,75.375 L 74.625,75.25 c 1.28516,-2.243809 7.347938,-9.033216 10.15625,-8.6875 1.360315,-1.706031 -0.264031,-0.0099 -0.53125,-0.4375 2.987849,-3.088892 3.921662,-2.192177 5.9375,-2.75 2.17283,-1.288499 -1.874216,0.522468 -0.84375,-0.46875 3.757775,-0.959486 2.656513,-2.201495 7.5625,-2.6875 0.366232,0.20835 -0.344127,0.392412 -0.96875,0.59375 3.341152,-1.217166 9.55942,-0.776606 13.6875,1.125 5.10808,2.388277 10.83368,9.421257 11.0625,16.0625 l 0.28125,0.09375 c -0.12692,2.638793 0.39233,5.694195 -0.53125,8.5 l 0.59375,-1.28125 c 0.0541,1.959861 -0.59544,2.917137 -1.1875,4.625 L 118.75,90.5 c -0.88098,1.71271 0.0984,1.105093 -0.53125,2.46875 -1.37703,1.223365 -4.16565,3.821168 -5.0625,4.0625 -0.65302,-0.01336 0.41887,-0.768559 0.5625,-1.0625 -1.84298,1.265953 -1.49418,1.886323 -4.3125,2.65625 l -0.0625,-0.1875 c -6.95438,3.27177 -16.624424,-3.212519 -16.5,-12.0625 -0.07182,0.561162 -0.221349,0.430784 -0.375,0.65625 -0.359076,-4.55025 2.129326,-9.131132 6.28125,-11 4.0584,-2.006652 8.81274,-1.179359 11.71875,1.53125 -1.59497,-2.090994 -4.76346,-4.299176 -8.53125,-4.09375 -3.689294,0.05845 -7.157609,2.389728 -8.3125,4.9375 -1.888074,1.186622 -2.084549,4.595795 -2.90625,5.21875 -1.108961,8.14853 2.064233,11.670594 7.46875,15.8125 0.424209,0.285586 0.500905,0.445627 0.46875,0.59375 6.37402,2.37825 12.94983,1.79498 18.46875,-2.625 1.40289,-1.092261 2.93159,-2.974113 3.375,-3 -0.0704,-0.372277 -0.12621,-0.773885 1.0625,-2.5 l 0.75,1.0625 c -0.28058,-1.873044 2.32638,-4.163037 2.0625,-7.125 0.59706,-0.903536 0.66757,0.950277 0.0312,3.03125 0.881,-2.309779 0.21287,-2.657724 0.4375,-4.5625 0.24133,0.638822 0.55258,1.325271 0.71875,2 -0.57117,-2.230448 0.61564,-3.764815 0.90625,-5.0625 -0.28393,-0.124424 -0.8943,0.975865 -1.03125,-1.65625 0.02,-1.144868 0.32309,-0.594419 0.4375,-0.875 -0.22213,-0.126928 -0.82926,-1.00151 -1.1875,-2.6875 0.25719,-0.394983 0.70759,1.034461 1.0625,1.09375 -0.22464,-1.337768 -0.64039,-2.379124 -0.65625,-3.40625 -1.03464,-2.162809 -0.3491,0.307095 -1.1875,-0.90625 -1.09894,-3.435442 0.8943,-0.815941 1.03125,-2.375 1.66679,2.417502 2.62575,6.16637 3.0625,7.71875 -0.33236,-1.891414 -0.84114,-3.726329 -1.5,-5.5 0.50939,0.211271 -0.84889,-3.87688 0.625,-1.15625 -1.57494,-5.79616 -6.74433,-11.240158 -11.5,-13.78125 0.57703,0.531116 1.32637,1.204777 1.0625,1.3125 -2.36489,-1.405416 -1.94138,-1.53127 -2.28125,-2.125 -1.92398,-0.78327 -2.0686,0.06181 -3.34375,0 C 107.43169,54.981443 106.749,55.206663 103.40625,54 l 0.15625,0.71875 c -2.40413,-0.799152 -2.80586,0.300606 -5.40625,0 -0.15615,-0.120253 0.809974,-0.445574 1.625,-0.5625 -2.322309,0.306477 -2.191538,-0.475288 -4.46875,0.0625 0.557821,-0.390825 1.152931,-0.633048 1.75,-0.96875 z m 1.875,0.40625 c 0.665552,0.116919 1.42356,0.215494 1.3125,0.375 0.72734,-0.159506 0.90877,-0.309866 -1.3125,-0.375 z m 1.3125,0.375 -0.46875,0.09375 0.4375,-0.03125 0.0312,-0.0625 z m -4.4375,6.8125 c -0.213111,0.07328 -0.392277,0.123341 -0.5,0.21875 0.165029,-0.08079 0.315593,-0.148393 0.5,-0.21875 z M 69.53125,68.8125 c 0.1929,1.797052 -1.346415,2.499122 0.34375,1.3125 0.90938,-2.049242 -0.356275,-0.568461 -0.34375,-1.3125 z m -1.375,5.71875 c -1.079733,1.37952 -0.480181,1.654306 -0.59375,2.59375 0.390809,-1.197479 0.443438,-1.89898 0.59375,-2.59375 z m 44.5,8.34375 c -0.15366,0.0041 -0.36938,0.385366 -0.46875,0.8125 0.22797,0.121077 0.43162,1.591036 0.65625,0.6875 0.0752,-1.122324 -0.0339,-1.504069 -0.1875,-1.5 z m 13.625,3.78125 -0.1875,0.4375 c -0.33235,2.384935 -1.04311,4.776714 -2.15625,6.96875 1.22671,-2.30978 2.01056,-4.845118 2.34375,-7.40625 z m -15.46875,1.375 c -2.50518,3.157368 -0.37688,1.896919 -0.46875,2.78125 0.23153,-0.319191 0.27907,-0.694109 0.46875,-1.03125 -2.33231,1.468037 -0.21878,-0.859823 0,-1.75 z M 106.75,92.3125 c -1.01125,0.248013 -2.05326,0.250612 -3.09375,0.15625 -1.2459,0.01671 0.24747,0.655732 1.875,0.90625 0.45093,-0.351559 0.85718,-0.716784 1.21875,-1.0625 z M 91,92.46875 c 0.2739,1.011259 0.849747,1.897754 1.375,2.78125 L 92,94.09375 c -0.434233,-0.479324 -0.709399,-1.051312 -1,-1.625 z m -0.96875,1.71875 -0.15625,0.875 c 0.818359,1.112302 1.452834,2.316531 2.5,3.1875 -0.749884,-1.468038 -1.313285,-2.07255 -2.34375,-4.0625 z m 30.4375,0.28125 c -0.45878,0.733457 -0.0272,0.546913 -0.21875,1.03125 0.37466,-0.666646 0.2556,-0.802614 0.21875,-1.03125 z M 91.625,95.5 c 2.916034,5.22582 11.85741,9.1407 16.53125,7.1875 -2.15947,0.0777 -4.91372,0.0185 -7.34375,-0.875 -0.892888,-0.4596 -2.074214,-1.33699 -2.1875,-1.6875 -0.04595,0.11101 -0.136952,0.24023 -0.09375,0.40625 -1.793708,-0.838393 -3.430956,-2.130946 -4.78125,-3.6875 0.717318,1.047167 1.498762,2.072504 2.5,2.875 C 94.557327,99.147565 92.283864,95.643632 91.625,95.5 z" style="fill:#d70751;fill-opacity:1;stroke:none" />
</svg>