<?xml version="1.0" encoding="UTF-8" standalone="no"?>
<svg xmlns:dc="http://purl.org/dc/elements/1.1/"
     xmlns:cc="http://creativecommons.org/ns#"
     xmlns:rdf="http://www.w3.org/1999/02/22-rdf-syntax-ns#"
     xmlns:svg="http://www.w3.org/2000/svg"
     xmlns="http://www.w3.org/2000/svg"
     xmlns:xlink="http://www.w3.org/1999/xlink"
     width="128" height="128" version="1.1">
    <title>RPM element</title>
    <desc>This is shape (source) for Clarity vector icon theme for gtk</desc>
    <metadata>
        <rdf:RDF>
            <cc:Work rdf:about="">
                <dc:title>RPM element</dc:title>
                <dc:description>This is shape (source) for Clarity vector icon theme for gtk</dc:description>
                <dc:creator>
                    <cc:Agent>
                        <dc:title>Jakub Jankiewicz</dc:title>
                    </cc:Agent>
                </dc:creator>
                <dc:rights>
                    <cc:Agent>
                        <dc:title>Jakub Jankiewicz</dc:title>
                    </cc:Agent>
                </dc:rights>
                <dc:date>2010</dc:date>
                <dc:format>image/svg+xml</dc:format>
                <dc:type rdf:resource="http://purl.org/dc/dcmitype/StillImage" />
                <cc:license rdf:resource="http://creativecommons.org/licenses/by-sa/3.0/" />
             </cc:Work>
        </rdf:RDF>
    </metadata>
    <path id="shape" d="m 88.715763,63.332658 c -11.166833,-0.005 -21.453386,4.077881 -26.065992,10.34365 -1.551234,2.107292 -2.68935,4.797882 -2.68935,6.413064 0,0.595248 0.05164,1.086083 0.103437,1.086083 0.0518,0 2.049863,-0.346719 4.44777,-0.775774 2.397906,-0.429054 4.458196,-0.775045 4.551206,-0.775773 0.09301,-8.28e-4 0.162354,-1.029252 0.155072,-2.275604 -0.0099,-1.786555 0.173508,-2.595081 0.775774,-3.82715 3.568145,-7.297835 17.252292,-11.0049 27.669259,-7.499147 l 2.120464,0.724056 0.05164,0 c 3.571727,1.516048 6.352697,3.872265 7.654307,6.464781 0.75411,1.501898 0.89119,4.074488 0.82749,4.913234 L 108.2134,79.26188 C 93.687319,76.724839 89.771246,76.02435 89.491372,75.641602 c -0.246957,-0.337699 -0.545648,-0.437826 -1.086084,-0.258591 -0.416758,0.138191 -1.190976,0.233518 -1.706695,0.206873 l -0.930929,-0.05164 0.930929,0.362028 c 0.515736,0.189843 1.163728,0.528602 1.448104,0.775774 0.383675,0.333429 0.657972,0.398073 1.086084,0.155072 0.435426,-0.247089 4.183717,0.304186 15.153459,2.275603 15.29938,2.749475 15.93947,2.856834 15.46376,2.430758 -0.0902,-0.08076 -0.89944,-0.2409 -1.9653,-0.465464 -0.0149,-0.226948 -0.0301,-0.650128 -0.20687,-1.706703 -0.35847,-2.144363 -2.22546,-5.452924 -4.13746,-7.39571 -3.2528,-3.305119 -6.70901,-5.386079 -12.36066,-6.878528 l -0.10343,0 -1.189523,-0.413746 c -2.43698,-0.750403 -7.203169,-1.343019 -11.171159,-1.344674 z m -14.998286,19.290908 0,7.602577 0,7.602583 1.965293,-0.206873 c 3.269355,-0.361217 3.361687,-0.408847 3.361687,-1.706702 l 0,-1.18952 2.223885,-0.31031 c 2.719966,-0.42831 5.933392,-1.986924 6.981957,-3.361686 0.585683,-0.767913 0.827492,-1.405611 0.827492,-2.534195 0,-1.369929 -0.123296,-1.622579 -1.344674,-2.792779 -1.9729,-1.89019 -4.574535,-2.658831 -9.826462,-2.896222 l -4.189178,-0.206873 z m 19.084028,0.05164 0,5.947592 0,5.999318 2.637631,0 2.68935,0 0,-5.326981 0,-5.326973 2.120464,0 c 1.67635,0 2.23143,0.132564 2.37904,0.517183 0.10443,0.271913 0.15507,2.67635 0.15507,5.326973 l 0,4.809798 2.53419,0 2.48248,0 0,-5.326981 0,-5.326973 2.2756,0.05164 2.2756,0.103436 0.0516,5.223537 0.10344,5.275262 2.63763,0 2.68935,0 0,-5.32698 0,-5.326974 -1.18952,-0.517182 c -1.00359,-0.44438 -2.81381,-0.569894 -12.51582,-0.672338 L 92.80134,82.675119 z m -28.134723,0.155072 -4.861515,0.05163 -0.05164,5.844156 -0.103436,5.895881 2.689349,0 2.637631,0 0,-4.809797 0,-4.809791 0.930928,-0.206873 c 0.495635,-0.09913 1.393331,-0.01705 2.017012,0.155072 0.981538,0.271036 1.292129,0.213542 2.430758,-0.465465 L 71.700544,83.709318 70.61446,83.243853 C 69.814606,82.913932 68.240303,82.79767 64.666861,82.830107 z m 14.377675,1.086083 0.724055,0.258591 c 0.987695,0.306669 2.209536,1.203935 3.154814,2.327315 1.550025,1.841997 0.878052,4.374007 -1.603266,5.947599 -0.797835,0.505929 -1.637656,0.930929 -1.861857,0.930929 -0.317128,0 -0.413746,-1.094441 -0.413746,-4.75808 l 0,-4.706354 z" style="fill:#800000"/>
</svg>