<?xml version="1.0" encoding="UTF-8" standalone="no"?>
<svg xmlns:dc="http://purl.org/dc/elements/1.1/"
     xmlns:cc="http://creativecommons.org/ns#"
     xmlns:rdf="http://www.w3.org/1999/02/22-rdf-syntax-ns#"
     xmlns:svg="http://www.w3.org/2000/svg"
     xmlns="http://www.w3.org/2000/svg"
     xmlns:xlink="http://www.w3.org/1999/xlink"
     width="128" height="128" version="1.1">
    <title>Reload Icon Element</title>
    <desc>This icon is a part of Clarity icon theme</desc>
    <metadata>
        <rdf:RDF>
            <cc:Work rdf:about="">
                <dc:title>Reload Icon Element</dc:title>
                <dc:description>This icon is a part of Clarity icon theme</dc:description>
                <dc:creator>
                    <cc:Agent>
                        <dc:title>Jakub Jankiewicz</dc:title>
                    </cc:Agent>
                </dc:creator>
                <dc:rights>
                    <cc:Agent>
                        <dc:title>Jakub Jankiewicz</dc:title>
                    </cc:Agent>
                </dc:rights>
                <dc:date>2010</dc:date>
                <dc:format>image/svg+xml</dc:format>
                <dc:type rdf:resource="http://purl.org/dc/dcmitype/StillImage" />
                <cc:license rdf:resource="http://creativecommons.org/licenses/by-sa/3.0/" />
             </cc:Work>
        </rdf:RDF>
    </metadata>
    <path id="shape" d="M 101.125 73.78125 C 86.301791 73.78125 74.3125 85.931608 74.3125 100.90625 C 74.3125 115.8809 86.301791 128 101.125 128 C 115.94821 128 128 115.8809 128 100.90625 C 128 85.931608 115.94821 73.78125 101.125 73.78125 z M 100.65625 81.375 C 101.8059 81.375043 102.84051 81.819258 103.65625 82.625 C 103.66263 82.631299 103.68115 82.618652 103.6875 82.625 C 104.5177 83.423777 104.96874 84.485854 104.96875 85.65625 C 104.96874 86.851787 104.52055 87.916963 103.6875 88.75 C 102.85259 89.564058 101.76474 90.031284 100.5625 90.03125 C 99.36499 90.031284 98.326714 89.576757 97.53125 88.78125 C 96.732858 87.961892 96.312493 86.904804 96.3125 85.71875 C 96.312493 84.495606 96.736814 83.429547 97.5625 82.625 C 98.378134 81.830313 99.442709 81.375043 100.65625 81.375 z M 103.21875 92.28125 C 103.7117 92.281266 104.19583 92.414579 104.53125 92.75 C 104.86667 93.085421 104.99999 93.569554 105 94.0625 C 104.99999 94.49767 104.92239 95.004279 104.8125 95.71875 C 104.70574 96.395111 104.65624 96.901483 104.65625 97.21875 C 104.65625 98.4369 104.63046 100.2805 104.59375 102.71875 C 104.57555 105.13829 104.5625 106.95067 104.5625 108.15625 C 104.5624 111.01049 104.60243 112.95956 104.65625 114 C 104.72195 115.1008 105.06904 115.63707 105.65625 115.9375 C 106.31839 116.09275 106.98788 116.27027 107.65625 116.4375 C 107.6661 116.43996 107.67765 116.43504 107.6875 116.4375 C 108.12955 116.54165 108.53595 116.73065 108.8125 117.0625 C 109.09495 117.40144 109.21874 117.85664 109.21875 118.3125 C 109.21875 118.71357 109.03756 119.0985 108.75 119.375 C 108.46244 119.6515 108.06729 119.85694 107.625 120 C 106.74043 120.28612 105.5498 120.40625 103.96875 120.40625 C 100.58698 120.40625 97.73052 120.32914 95.375 120.21875 C 94.729507 120.18801 94.183138 120.04106 93.75 119.71875 C 93.316862 119.39644 93.062498 118.86573 93.0625 118.3125 C 93.062498 117.83619 93.225046 117.37548 93.53125 117.03125 C 93.837454 116.68702 94.264892 116.48525 94.75 116.375 C 95.420075 116.21895 95.919731 116.08595 96.28125 116 C 96.46201 115.95702 96.622634 115.93175 96.71875 115.90625 C 96.77642 115.89095 96.76688 115.91085 96.78125 115.90625 C 96.79083 115.90318 96.853574 115.85446 96.8125 115.875 C 97.364612 115.54042 97.656244 114.87167 97.65625 113.59375 C 97.65624 112.54409 97.669158 110.97778 97.6875 108.90625 C 97.705819 106.83506 97.71874 105.29002 97.71875 104.25 C 97.71874 101.70803 97.677813 99.997488 97.625 99.1875 C 97.594726 98.680477 97.443894 98.354038 97.1875 98.09375 C 96.931106 97.833462 96.553958 97.613568 95.9375 97.5 C 95.195876 97.361576 94.582153 97.165616 94.125 96.8125 C 93.667847 96.459384 93.374998 95.913414 93.375 95.34375 C 93.374998 94.881518 93.547133 94.416504 93.875 94.09375 C 94.202867 93.770996 94.653614 93.596826 95.15625 93.53125 A 0.58546407 0.58546407 0 0 1 95.375 93.5625 C 95.380954 93.562939 95.39803 93.561945 95.40625 93.5625 A 0.58546407 0.58546407 0 0 1 95.4375 93.59375 C 95.448033 93.594397 95.456321 93.593053 95.46875 93.59375 C 95.518468 93.596537 95.520689 93.591419 95.59375 93.59375 C 95.926585 93.604369 96.496239 93.59376 97.28125 93.59375 C 97.878014 93.593771 98.855855 93.39778 100.125 92.96875 C 101.47122 92.520033 102.46008 92.281282 103.21875 92.28125 z " style="fill:#276aef;fill-opacity:1;stroke:none" />
</svg>