<?xml version="1.0" encoding="UTF-8" standalone="no"?>
<svg xmlns:dc="http://purl.org/dc/elements/1.1/" xmlns:cc="http://creativecommons.org/ns#" xmlns:rdf="http://www.w3.org/1999/02/22-rdf-syntax-ns#" xmlns:svg="http://www.w3.org/2000/svg" xmlns="http://www.w3.org/2000/svg" id="svg9" version="1.1" height="128" width="128">
  <defs id="defs13" />
  <title id="title2">Yellow Package Icon Element</title>
  <desc id="desc4">This icon is a part of Clarity icon theme</desc>
  <metadata id="metadata6">
    <rdf:RDF>
      <cc:Work rdf:about="">
        <dc:title>Yellow Package Icon Element</dc:title>
        <dc:description>This icon is a part of Clarity icon theme</dc:description>
        <dc:creator>
          <cc:Agent>
            <dc:title>Jakub Jankiewicz</dc:title>
          </cc:Agent>
        </dc:creator>
        <dc:rights>
          <cc:Agent>
            <dc:title>Jakub Jankiewicz</dc:title>
          </cc:Agent>
        </dc:rights>
        <dc:date>2010</dc:date>
        <dc:format>image/svg+xml</dc:format>
        <dc:type rdf:resource="http://purl.org/dc/dcmitype/StillImage" />
        <cc:license rdf:resource="http://creativecommons.org/licenses/by-sa/3.0/" />
      </cc:Work>
    </rdf:RDF>
  </metadata>
  <path style="fill:#b3a91a;fill-opacity:1;stroke:none" d="m 25.267206,78.3623 c -13.290324,1.76629 -14.950088,2.733434 -22.0200442,6.254603 -1.760027,0.876575 -3.36932001,2.960591 -3.23984701,4.922557 l 1.38133001,25.1402 c 0.364583,3.10215 0.343381,6.24264 4.470486,7.23315 l 15.6123482,5.35135 c 3.938424,0.94522 7.108002,1.16227 10.623682,-0.45207 l 15.11928,-6.95688 c 2.09027,-1.25129 4.35635,-3.00515 4.92256,-5.37462 l 1.53202,-23.432379 c 0.21614,-3.285423 -1.42685,-5.057149 -4.24501,-6.781074 -6.64489,-4.064816 -13.63918,-5.822655 -24.156805,-5.904837 z m 19.398375,7.824598 c 0,0 -8.98692,3.977006 -13.17316,6.242643 -1.53341,0.829896 -3.39096,1.755294 -3.69192,3.717033 l -1.1973,23.526546 -1.138403,-24.154423 C 25.382638,93.775531 21.891898,92.241274 20.24086,91.676088 12.499674,89.026116 8.2461448,87.851739 8.2461448,87.851739 17.572744,82.953229 31.810951,81.71404 44.665581,86.186898 Z" id="shape" />
</svg>
