<?xml version="1.0" encoding="UTF-8" standalone="no"?>
<svg xmlns:dc="http://purl.org/dc/elements/1.1/" xmlns:cc="http://creativecommons.org/ns#" xmlns:rdf="http://www.w3.org/1999/02/22-rdf-syntax-ns#" xmlns:svg="http://www.w3.org/2000/svg" xmlns="http://www.w3.org/2000/svg" id="svg10" version="1.1" height="128" width="128">
  <defs id="defs14" />
  <title id="title2">Vlc Icon</title>
  <desc id="desc4">This is shape (source) for Clarity vector icon theme for gtk</desc>
  <metadata id="metadata6">
    <rdf:RDF>
      <cc:Work rdf:about="">
        <dc:title>Vlc Icon</dc:title>
        <dc:description>This is shape (source) for Clarity vector icon theme for gtk</dc:description>
        <dc:creator>
          <cc:Agent>
            <dc:title>Jakub Jankiewicz</dc:title>
          </cc:Agent>
        </dc:creator>
        <dc:rights>
          <cc:Agent>
            <dc:title>Jakub Jankiewicz</dc:title>
          </cc:Agent>
        </dc:rights>
        <dc:date>2010</dc:date>
        <dc:format>image/svg+xml</dc:format>
        <dc:type rdf:resource="http://purl.org/dc/dcmitype/StillImage" />
        <cc:license rdf:resource="http://creativecommons.org/licenses/by-sa/3.0/" />
      </cc:Work>
    </rdf:RDF>
  </metadata>
  <g id="shape"><path style="fill:#ffffff;stroke:none;stroke-width:1.18179512px;stroke-linecap:butt;stroke-linejoin:miter;stroke-opacity:1" d="m 109.45289,62.380529 c 0.16997,0.226619 1.24641,1.926256 1.24641,1.926256 l -2.03957,2.492803 -0.45324,2.209529 2.20953,0.509892 0.67985,2.096219 2.83273,-0.11331 1.52968,1.529673 1.18975,0.453237 2.37948,-1.076437 3.05935,0.453237 1.07644,-1.133093 0.5099,-3.682549 3.45592,-1.416365 -0.6232,-2.492801 0.90648,-2.266185 -1.35972,-2.209529 -1.47301,-0.509891 -1.01978,-1.756293 -2.20954,-0.623201 -0.33993,-2.152874 -1.64298,-0.6232 -2.15287,1.529674 -1.07644,-3.455931 -2.03957,1.019783 -1.69963,4.07913 -1.64299,0.339928 0.39659,3.002695 z" id="path845" /><path style="fill:#ffffff;stroke:none;stroke-width:1.18179512px;stroke-linecap:butt;stroke-linejoin:miter;stroke-opacity:1" d="m 80.049152,47.820298 2.322839,-1.189747 1.303055,0.963129 2.379494,0.283272 0.849819,-1.642983 1.416365,-3.229312 0.793164,-3.002694 0.509892,-3.172657 0.396582,-3.285967 -1.982912,-1.359711 0.05666,-2.549457 -1.473021,-1.416365 -2.492801,-0.906473 -3.455931,-1.35971 -3.56924,-1.529674 -2.832729,-1.529674 -0.396583,-2.776076 -3.795858,1.246401 -1.076437,-0.169964 -0.679856,-1.699638 -2.039566,0.84982 -1.416364,-1.642984 -0.849819,-1.019783 -1.982911,2.266185 -2.436148,1.076436 -4.362404,1.473021 -1.926256,-1.246402 -1.529674,1.699638 -8.724808,1.586328 -2.152875,4.475713 -4.928951,3.795859 2.719422,1.642983 -0.509892,2.889385 2.662767,-0.453237 -0.113311,3.909168 3.455931,1.2464 9.461318,-5.778769 c 0,0 4.022476,-1.416365 4.192439,-1.699637 0.169965,-0.283273 1.189747,-2.152875 1.189747,-2.152875 l 1.246401,1.642983 5.325532,-0.169963 3.965822,2.379492 0.396582,1.926257 6.798552,2.889385 2.152875,5.778768 z" id="path833" /><path style="fill:#ff0000;fill-opacity:1;fill-rule:evenodd;stroke:#000000;stroke-width:0.23769587px;stroke-linecap:butt;stroke-linejoin:miter;stroke-opacity:1" d="M 46.952601,22.002385 C 47.78703,20.045766 60.280546,5.7032367 70.043056,4.3449758 79.830155,2.9832923 86.681767,10.626941 88.040031,11.81542 c 1.358263,1.18848 6.621527,14.940883 6.621527,14.940883 l 4.584136,15.450232 3.056086,6.961095 2.88631,4.584134 2.37695,2.716524 3.90501,1.697829 c 0,0 -0.44568,-0.827691 -1.03992,0.191005 -0.59423,1.018695 2.82265,3.22587 -2.52552,4.11723 -5.37822,0.896372 -10.271851,-1.082363 -16.638706,-4.647801 -6.366856,-3.565438 -6.536637,-7.343108 -7.640226,-9.847403 -1.103589,-2.504295 3.225874,-0.169781 3.225874,-0.169781 l 0.339565,-2.546743 1.528045,-3.395654 1.697828,-7.30066 -1.697828,-1.86761 -1.018696,-0.848914 0.848914,-2.546743 -12.054578,-5.093483 -2.716524,-3.735219 -3.905003,1.528044 -1.358263,-2.716524 -2.886305,1.18848 -1.18848,-2.716524 -1.188479,-0.169784 -1.018699,3.056089 -7.300658,1.867612 -1.358263,-1.697828 -1.528044,2.037393 c 1.094485,-1.240415 -5.927912,1.107706 -5.093483,-0.848914 z" id="path3698" /><path id="path2801" d="m 115.02047,73.670785 c -0.29056,-0.203512 -0.52829,-0.564786 -0.52829,-0.802831 0,-0.804382 -0.49869,-0.948767 -1.97578,-0.57203 -1.65135,0.421183 -1.95522,0.260028 -2.23977,-1.187824 -0.1885,-0.95918 -0.2253,-0.991517 -1.20962,-1.062918 -0.83072,-0.06026 -1.05633,-0.181854 -1.2416,-0.669139 -0.29583,-0.778084 -0.2897,-1.923548 0.0118,-2.109569 0.13075,-0.0808 0.23771,-0.406657 0.23771,-0.724133 0,-0.414939 0.26731,-0.745982 0.95078,-1.177434 1.08769,-0.686624 1.16968,-1.024344 0.41597,-1.713407 -0.39546,-0.361536 -0.99936,-0.52888 -2.31754,-0.642194 -3.364,-0.289181 -5.11132,-0.5349 -5.7796,-0.812766 -0.36802,-0.153023 -1.16084,-0.278223 -1.761825,-0.278223 -1.000592,0 -2.643087,-0.365652 -4.462215,-0.993377 -0.392197,-0.135336 -1.144269,-0.321051 -1.671272,-0.412701 -0.98151,-0.170694 -2.368568,-1.028831 -2.588238,-1.601277 -0.06762,-0.176213 -0.269564,-0.320387 -0.448765,-0.320387 -0.179203,0 -0.721687,-0.427853 -1.20552,-0.950784 -0.483834,-0.522931 -1.040066,-0.950784 -1.236075,-0.950784 -0.434063,0 -2.239116,-1.798407 -2.239116,-2.230873 0,-0.170555 -0.213926,-0.503701 -0.475392,-0.740325 -0.261466,-0.236624 -0.475392,-0.535558 -0.475392,-0.664298 0,-0.128743 -0.166441,-0.355784 -0.369871,-0.504534 -0.203431,-0.148752 -0.455539,-0.855804 -0.560245,-1.571228 -0.104707,-0.715423 -0.365455,-1.62166 -0.579445,-2.013857 -0.213994,-0.392199 -0.389736,-0.840479 -0.390542,-0.996179 -0.0027,-0.529197 -0.478232,-0.580215 -1.132141,-0.121477 -0.838139,0.587981 -2.355004,1.080276 -2.801107,0.909089 -0.192655,-0.07393 -0.346742,-0.436887 -0.346742,-0.816766 0,-0.376182 -0.208652,-0.872533 -0.463887,-1.10352 -0.320547,-0.29009 -0.485803,-0.797241 -0.534816,-1.641285 -0.06385,-1.099711 -0.130164,-1.22956 -0.665168,-1.302574 -0.756843,-0.103288 -1.426175,-0.697161 -1.426175,-1.265397 0,-0.242481 -0.223691,-0.627016 -0.497094,-0.854518 -0.2734,-0.227502 -0.595896,-0.665502 -0.71666,-0.97333 -0.172647,-0.440089 -0.340823,-0.529253 -0.787015,-0.417265 -1.071203,0.268855 -2.067323,-0.102934 -2.40081,-0.896067 -0.275078,-0.654217 -0.401994,-0.725435 -1.174203,-0.658907 -0.951846,0.08201 -1.555095,-0.271662 -1.555095,-0.911713 0,-0.227827 -0.203448,-0.672872 -0.452106,-0.988991 -0.248659,-0.316119 -0.489326,-0.834657 -0.534816,-1.152309 -0.09322,-0.650954 -1.024331,-0.978955 -2.727024,-0.96065 -0.59354,0.0064 -1.097475,-0.130472 -1.277009,-0.346796 -0.379148,-0.456846 -0.82314,-0.452364 -1.537222,0.01552 -0.807113,0.528839 -2.086691,0.360491 -2.382358,-0.313436 -0.261523,-0.596098 -0.5973,-0.711863 -0.5973,-0.20593 0,0.407026 -1.783703,2.048074 -2.226112,2.048074 -0.177744,0 -0.72696,0.320889 -1.220478,0.713086 -0.641034,0.509431 -1.154938,0.713089 -1.799386,0.713089 -0.685981,0 -0.937366,0.111171 -1.049368,0.464061 -0.08449,0.266192 -0.775423,0.762212 -1.620466,1.163321 -0.810248,0.384594 -1.722135,0.988339 -2.026417,1.341656 -0.466758,0.541977 -0.678397,0.618914 -1.353913,0.492186 -0.657816,-0.123406 -0.848079,-0.06163 -1.066377,0.346266 -0.65412,1.222233 -2.942789,1.841765 -3.831775,1.037245 -0.233721,-0.211515 -0.77306,-0.455769 -1.198529,-0.542787 -1.153017,-0.235818 -1.676224,-1.256542 -1.321142,-2.577417 0.338101,-1.257699 0.08062,-1.620433 -0.888635,-1.251919 -1.427131,0.542593 -2.191913,-0.527587 -1.46555,-2.050783 0.655156,-1.373879 0.548936,-1.598469 -0.676571,-1.430493 -0.898026,0.123087 -1.140476,0.06518 -1.545022,-0.369057 -0.605376,-0.649793 -0.601734,-0.717169 0.09868,-1.826702 0.623215,-0.987238 1.554244,-1.816916 2.306939,-2.055813 0.695186,-0.220643 0.434748,-0.898015 -0.411847,-1.071162 -0.40282,-0.08238 -0.856767,-0.226654 -1.008772,-0.320599 -0.384901,-0.237881 -0.345272,-0.978142 0.07085,-1.323493 0.50827,-0.421824 2.12398,-0.579644 2.957942,-0.288922 0.669267,0.233308 0.76395,0.195177 1.255843,-0.505753 0.292602,-0.416947 0.670486,-0.865049 0.839743,-0.995782 0.169259,-0.130732 0.494076,-0.612067 0.721815,-1.06963 0.339077,-0.68126 0.576422,-0.853462 1.310459,-0.950784 0.619044,-0.08208 1.023531,-0.309514 1.307328,-0.735091 0.226018,-0.338935 0.624867,-0.929187 0.886332,-1.311671 0.261465,-0.382483 1.242898,-1.388731 2.180962,-2.236105 0.938065,-0.847375 1.773886,-1.762474 1.857385,-2.033554 0.137525,-0.446488 2.270494,-2.558839 5.848998,-5.792463 0.731664,-0.661147 1.503381,-1.202086 1.714933,-1.202086 0.211552,0 0.494011,-0.204365 0.627691,-0.4541459 0.133677,-0.2497807 0.645515,-0.6968869 1.137417,-0.9935694 0.491902,-0.2966826 1.287756,-0.8439294 1.768567,-1.2161062 0.480811,-0.3721768 1.229553,-0.7953306 1.663871,-0.9403417 0.434318,-0.1450087 1.057079,-0.4938679 1.383911,-0.775238 C 64.428007,5.6775353 65.497638,5.09147 66.478134,4.6565412 67.458629,4.22161 68.61076,3.6995657 69.038422,3.4964403 69.69627,3.183989 70.048174,3.1699056 71.32394,3.4049753 c 0.82937,0.1528171 1.851741,0.2778499 2.271934,0.2778499 0.745131,0 3.302326,0.8731758 4.566031,1.559109 0.347004,0.1883527 0.778743,0.342458 0.959417,0.342458 0.180678,0 1.661778,0.6884291 3.291335,1.5298395 2.661866,1.3744383 3.133863,1.7185073 4.64654,3.3871653 1.959599,2.161664 3.728918,4.692328 4.37299,6.254701 0.13473,0.326832 0.416664,0.898441 0.626513,1.27024 0.209853,0.371799 0.519088,1.227504 0.687189,1.901567 0.328775,1.318338 0.768269,2.638723 1.099131,3.30218 0.113216,0.227009 0.205836,0.621808 0.205836,0.877331 0,0.255525 0.09765,0.524944 0.217014,0.59871 0.119356,0.07377 0.292449,0.588156 0.38465,1.143084 0.0922,0.55493 0.313657,1.294364 0.492126,1.643188 0.483367,0.944758 1.508249,4.185622 1.673327,5.291354 0.141738,0.949409 1.232239,3.945432 1.870052,5.137742 0.177912,0.332585 0.452171,1.348735 0.609463,2.258112 0.168576,0.974596 0.711662,2.542204 1.322812,3.818284 0.57025,1.190681 1.03682,2.305373 1.03682,2.477091 0,0.171716 0.14283,0.481079 0.3174,0.687474 0.17457,0.206393 0.46153,0.74963 0.63769,1.207195 0.17616,0.457564 0.56815,1.134292 0.87108,1.503838 0.30294,0.369543 0.55079,0.781955 0.55079,0.916469 0,0.134512 0.26741,0.562365 0.59424,0.950784 0.32683,0.388416 0.59424,0.835731 0.59424,0.994033 0,0.158298 0.5432,0.818611 1.20712,1.46736 0.66393,0.64875 1.354,1.458338 1.53349,1.799085 0.22312,0.423567 0.66431,0.714164 1.39474,0.91867 0.98024,0.274451 1.12111,0.257655 1.70746,-0.203572 0.3515,-0.276488 0.78307,-0.502703 0.95905,-0.502703 0.17598,0 0.38034,-0.294148 0.45414,-0.653663 0.37372,-1.820551 0.67281,-2.461496 1.62652,-3.48562 1.0354,-1.111852 1.0428,-1.115018 1.84175,-0.78901 0.62224,0.253897 0.90703,0.590082 1.26963,1.49875 0.2571,0.644286 0.49952,1.217344 0.5387,1.273456 0.0392,0.05611 0.44791,-0.07758 0.90827,-0.297119 0.46035,-0.21953 1.0391,-0.399145 1.2861,-0.399145 0.7357,0 1.84705,1.114547 2.07545,2.081413 0.17628,0.746251 0.38936,0.974946 1.3209,1.417702 0.66068,0.314022 1.25453,0.80606 1.46571,1.214421 0.19525,0.37758 0.67037,0.817139 1.05582,0.976797 1.17172,0.485344 1.75477,1.299274 1.88243,2.627859 0.0905,0.942494 0.0219,1.306374 -0.3174,1.68126 -0.40968,0.452698 -0.41135,0.515054 -0.0308,1.159139 0.44894,0.759987 0.51923,1.727091 0.1726,2.374769 -0.12623,0.235859 -0.84824,0.674168 -1.60446,0.974021 -1.88803,0.748634 -1.96917,0.838049 -1.96917,2.169904 0,1.496232 -0.73142,2.987357 -1.56836,3.197419 -0.3365,0.08445 -1.2992,0.09837 -2.13935,0.03094 -1.20217,-0.09649 -1.71479,-0.02713 -2.40676,0.325641 -1.06868,0.544849 -2.15649,0.574554 -2.86508,0.07823 z m 2.91304,-1.426921 c 0.5766,-0.755966 0.61517,-0.919126 0.36186,-1.530676 -0.32686,-0.789128 -0.16521,-1.188604 0.48101,-1.188604 0.55462,0 0.94512,0.677551 0.94512,1.639882 0,1.120622 1.47341,1.633893 2.5098,0.874295 0.39484,-0.289395 0.4614,-0.633478 0.4614,-2.385381 0,-2.294038 0.13941,-2.514936 1.5543,-2.462766 2.3223,0.08562 3.30367,-1.953635 1.15194,-2.39371 -0.83305,-0.170376 -1.30581,-0.977021 -0.57261,-0.977021 0.21218,0 0.70135,-0.163191 1.08706,-0.362646 0.57448,-0.297073 0.70128,-0.51349 0.70128,-1.196842 0,-0.971326 -0.5973,-2.006636 -1.15638,-2.004383 -0.21376,9.51e-4 -0.70953,0.214084 -1.10172,0.473826 -1.52173,1.007799 -2.33712,0.238083 -1.09997,-1.038342 0.65715,-0.678002 0.70768,-0.821239 0.42575,-1.206798 -0.28389,-0.388239 -0.53476,-0.418744 -2.22855,-0.270995 -2.34295,0.204378 -2.63264,-0.09989 -1.40016,-1.470586 0.64365,-0.71584 0.75786,-0.989792 0.59453,-1.42613 -0.4756,-1.270559 -1.92168,-0.782605 -2.63883,0.890425 -0.85889,2.0037 -1.61559,1.721893 -1.61559,-0.601668 0,-2.91731 -0.83537,-3.545367 -2.14151,-1.610043 -0.79311,1.175167 -0.82475,1.622139 -0.33935,4.793753 0.27008,1.764643 -0.49014,1.889046 -1.61713,0.264637 -0.35827,-0.516399 -0.75939,-0.938909 -0.89136,-0.938909 -0.42897,0 -0.25395,0.659977 0.3724,1.404361 0.71409,0.84864 0.67826,1.534644 -0.0858,1.643562 -0.62322,0.08884 -1.41816,1.149706 -1.09668,1.463558 0.11747,0.114705 0.5871,0.242911 1.04359,0.284914 1.31298,0.120814 1.20997,0.749426 -0.27915,1.703554 -2.05318,1.31555 -3.26941,3.722717 -1.97467,3.908298 0.30297,0.04343 0.82061,-0.28266 1.415,-0.891359 1.37084,-1.403875 2.40589,-1.167632 1.42737,0.32579 -0.54733,0.835333 -0.72627,2.818769 -0.28719,3.183178 0.58902,0.488846 1.08424,0.07222 1.59442,-1.341374 0.65045,-1.802213 0.80657,-2.045552 1.36628,-2.129497 0.45695,-0.06853 0.47291,0.0268 0.36146,2.157646 -0.11558,2.210753 -0.11109,2.233655 0.53992,2.745778 0.91618,0.720663 1.38649,0.647932 2.13219,-0.329727 z m -8.06357,-10.844076 c 0.72453,-0.63616 0.83938,-0.865764 0.72329,-1.446177 -0.18723,-0.936156 -1.03228,-2.076124 -1.53901,-2.076124 -0.46893,0 -4.15862,-3.487322 -5.02977,-4.753918 -0.31471,-0.457565 -0.74844,-1.024416 -0.96384,-1.259671 -0.2154,-0.235253 -0.57531,-0.877032 -0.79981,-1.426175 -0.22449,-0.549143 -1.05437,-2.38896 -1.84417,-4.088487 -1.727915,-3.718181 -1.811519,-3.91254 -2.914053,-6.774332 -0.478479,-1.241961 -1.023119,-2.60937 -1.210316,-3.038687 -0.187194,-0.429318 -0.340354,-1.01002 -0.340354,-1.290451 0,-0.514144 -0.277475,-1.508953 -0.847769,-3.039434 -0.170498,-0.457564 -0.418316,-1.366751 -0.550703,-2.020415 -0.670079,-3.308477 -1.389209,-6.089236 -1.959883,-7.578541 -0.24463,-0.638415 -0.44478,-1.363086 -0.44478,-1.610383 0,-0.247293 -0.37437,-1.193028 -0.831935,-2.10163 -0.457564,-0.908602 -0.831935,-1.802022 -0.831935,-1.985377 0,-0.183355 -0.148425,-0.456554 -0.329832,-0.607108 -0.181407,-0.150555 -0.650769,-0.939135 -1.043029,-1.752399 -0.531097,-1.101123 -1.318387,-2.070392 -3.083462,-3.7962 -1.303647,-1.2746438 -2.495255,-2.3175355 -2.648019,-2.3175355 -0.363038,0 -3.84398,-1.6363145 -4.30506,-2.0237137 -0.407668,-0.342522 -2.906567,-1.1078552 -5.348157,-1.6379694 -2.330724,-0.5060425 -5.513841,-0.014951 -7.205906,1.1117488 -0.481664,0.3207255 -1.571015,0.9770086 -2.420777,1.4584071 -3.191423,1.8079716 -6.963578,4.4203527 -8.221438,5.6937027 -0.534442,0.541022 -2.50029,2.427681 -4.36855,4.192572 -1.868259,1.764892 -3.566442,3.465785 -3.773738,3.779762 -0.35684,0.540475 -0.346454,0.591095 0.195043,0.950783 0.677058,0.449735 3.333104,0.583882 3.333104,0.168341 0,-0.327811 1.58273,-1.808839 1.933051,-1.808839 0.139246,0 0.552932,0.320889 0.919301,0.713088 0.840267,0.899507 1.876414,0.938565 3.619597,0.136444 0.689242,-0.317154 1.868206,-0.754962 2.619919,-0.972908 0.751713,-0.217943 1.366751,-0.51426 1.366751,-0.658482 0,-0.535793 1.246651,-2.036913 1.924944,-2.317872 0.607031,-0.251439 0.768684,-0.230285 1.196614,0.156605 0.272124,0.246025 0.657161,0.852879 0.855634,1.348563 0.198476,0.495687 0.427691,0.867268 0.50937,0.825735 0.08167,-0.04153 0.547904,-0.278898 1.036055,-0.527483 0.776645,-0.395497 0.963077,-0.411552 1.492013,-0.128473 0.332458,0.177926 0.664683,0.563416 0.738278,0.856647 0.07359,0.293234 0.314851,0.696988 0.536122,0.897238 0.363365,0.328838 0.516633,0.30939 1.583072,-0.200872 2.420103,-1.157953 2.805358,-1.040524 3.326973,1.014089 0.262919,1.035629 0.347202,1.126201 1.173124,1.26067 0.857573,0.139622 1.304442,0.506627 1.31209,1.077594 0.0047,0.354208 0.566508,0.560248 1.527505,0.560248 0.525553,0 1.183115,0.301868 2.0604,0.945874 2.069685,1.519338 2.224425,1.570761 2.9676,0.986179 0.353717,-0.278233 0.879527,-0.505878 1.168466,-0.505878 0.64667,0 1.455975,0.850549 1.360343,1.429671 -0.05027,0.304439 0.164007,0.505073 0.743768,0.696411 1.574253,0.519551 1.788584,1.118074 1.217664,3.400346 -0.126302,0.504895 -0.07861,0.653664 0.209554,0.653664 1.357819,0 2.241396,1.278183 1.927944,2.788964 -0.224505,1.082066 -0.168543,1.490691 0.271665,1.983669 0.354849,0.397386 0.446526,1.598687 0.153181,2.007191 -0.09605,0.13375 -0.468782,0.430367 -0.828297,0.659142 -0.541617,0.344657 -0.654959,0.588181 -0.661223,1.420685 -0.0041,0.5526 -0.164604,1.212358 -0.356544,1.466126 -0.191941,0.25377 -0.348985,0.751724 -0.348985,1.106567 0,0.389202 -0.330063,1.040229 -0.831935,1.64093 -0.457564,0.547667 -0.831936,1.258361 -0.831936,1.579315 0,1.499241 -1.271273,2.577866 -2.35482,1.997971 -0.656318,-0.351252 -0.657176,0.03965 -0.0038,1.702647 0.512658,1.304713 2.114861,3.363331 3.999262,5.138519 1.758622,1.656698 2.012183,1.795092 5.286076,2.885156 0.737511,0.245556 1.539735,0.557367 1.782719,0.692909 1.486621,0.829269 4.223434,1.784394 5.550344,1.937034 0.85081,0.09786 1.84804,0.296568 2.21607,0.441553 0.36802,0.144985 1.49114,0.265244 2.4958,0.267246 1.00467,0.0019 1.98712,0.107331 2.18322,0.234057 0.52459,0.339021 0.61566,0.30871 1.55784,-0.518529 z M 81.815751,45.971428 c 0.08985,-0.283083 0.361917,-0.454127 0.722358,-0.454127 0.44729,0 0.57822,0.125587 0.57822,0.554624 0,0.867169 0.28297,0.941427 0.854771,0.224317 l 0.525738,-0.659337 0.438802,0.770632 c 0.758413,1.331941 1.629863,0.784812 1.367117,-0.858328 -0.143304,-0.896165 -0.106291,-0.990692 0.474425,-1.211478 1.016164,-0.386344 1.033358,-0.915814 0.05957,-1.834518 -0.477443,-0.450444 -0.868079,-0.89782 -0.868079,-0.994172 0,-0.442678 0.594282,-0.684475 1.41254,-0.574724 1.157877,0.155305 1.454238,-0.426231 0.721971,-1.416677 -0.6153,-0.832236 -0.534205,-1.622962 0.20405,-1.989601 0.338314,-0.168018 0.454591,-0.338625 0.297119,-0.435947 -0.423369,-0.261657 -0.296903,-0.938515 0.335518,-1.795714 1.159802,-1.572022 0.613301,-2.210241 -1.349732,-1.576251 -1.736065,0.560686 -2.012274,0.51357 -2.189692,-0.37352 -0.137059,-0.685294 -0.02814,-0.88697 1.09104,-2.020229 1.164205,-1.178852 1.217904,-1.284332 0.844091,-1.658144 -0.335329,-0.335329 -0.536399,-0.3571 -1.256624,-0.136057 -0.74352,0.228193 -0.918305,0.202261 -1.315784,-0.195219 -0.252103,-0.252103 -0.458369,-0.631287 -0.458369,-0.842634 0,-0.378943 -0.276,-0.374647 -1.229524,0.01913 -0.258203,0.106633 -0.549865,-0.01205 -0.831936,-0.338552 -1.336414,-1.546871 -2.312092,-2.268024 -3.469131,-2.564131 -0.946531,-0.242233 -1.376419,-0.251113 -1.888499,-0.039 -0.90003,0.372807 -1.470821,-0.07992 -1.283242,-1.017818 0.155362,-0.7768 -0.250661,-0.885738 -1.136917,-0.30504 -0.718257,0.470618 -1.408429,0.219852 -1.248348,-0.453578 0.352678,-1.483663 0.43075,-2.760709 0.168771,-2.760709 -0.493521,0 -1.54382,0.653408 -2.258342,1.404953 -0.793053,0.834147 -1.195533,0.91775 -1.532501,0.318342 -0.136221,-0.242317 -0.513262,-0.415969 -0.90317,-0.415969 -0.636041,0 -0.667089,-0.05024 -0.624325,-1.010206 0.05877,-1.319458 -0.402545,-1.336407 -1.617309,-0.05942 -1.220479,1.282987 -1.749713,1.278252 -1.543103,-0.01381 0.177632,-1.110858 -0.579895,-3.190664 -1.09968,-3.019191 -0.460758,0.151999 -0.887968,1.155085 -0.891869,2.094097 -0.005,1.20401 -0.336559,1.414291 -2.229989,1.414291 -1.445837,0 -1.848112,0.105593 -3.16954,0.831935 -2.052361,1.128119 -2.9938,1.108893 -3.616927,-0.07386 -0.459209,-0.871624 -0.841725,-0.502176 -0.765383,0.739239 0.100264,1.63045 -0.102367,2.068132 -0.95748,2.068132 -0.492224,0 -0.92916,-0.223317 -1.378883,-0.704747 -0.756746,-0.810098 -0.958575,-0.726872 -0.958575,0.395279 0,1.131634 -0.565309,1.259044 -1.512583,0.340911 -0.422487,-0.409491 -0.895507,-0.74453 -1.051155,-0.74453 -0.155648,0 -0.351089,0.425831 -0.434313,0.946295 -0.254437,1.591161 -0.673863,1.682074 -1.850011,0.401008 -1.127569,-1.228156 -1.43213,-1.335455 -1.806274,-0.636362 -0.190227,0.355443 -0.162725,0.648344 0.110486,1.176675 0.486911,0.94158 0.458597,1.202429 -0.130521,1.202429 -0.428002,0 -0.472794,0.09781 -0.33406,0.729463 0.134469,0.612232 0.08021,0.750385 -0.337657,0.859658 -0.273833,0.07161 -0.497875,0.269445 -0.497875,0.439637 0,0.170193 -0.684866,0.537351 -1.521924,0.815906 -1.721703,0.572947 -3.771948,1.832175 -3.63974,2.23547 0.140759,0.42938 1.320584,0.453672 2.334302,0.04806 1.936827,-0.774964 2.098183,-0.347611 0.688099,1.822462 -1.441114,2.217826 -1.286767,2.533098 0.699161,1.428122 0.934918,-0.520191 1.235312,-0.593543 1.471145,-0.359237 0.236517,0.234986 0.166268,0.663416 -0.34797,2.122148 -0.782837,2.220661 -0.57077,2.711371 0.657341,1.52104 1.135929,-1.100984 1.561154,-0.880672 1.561154,0.808843 0,0.723134 0.09822,1.314787 0.218253,1.314787 1.070227,0 1.774781,-1.24817 1.55014,-2.746186 -0.145396,-0.969559 -0.116643,-1.056948 0.347724,-1.056948 0.344515,0 0.632959,0.265758 0.902951,0.831935 0.728934,1.528594 1.901272,0.868691 1.633148,-0.919292 -0.126045,-0.840532 -0.08114,-1.071311 0.231832,-1.191408 0.449747,-0.172585 0.813148,0.0048 1.250097,0.610552 0.664277,0.920746 1.947514,0.173299 1.947514,-1.134368 0,-0.427964 0.182476,-0.960596 0.405505,-1.183623 0.38221,-0.382208 0.44124,-0.362702 1.027519,0.339565 0.342106,0.40979 0.736484,0.745072 0.876391,0.745072 0.364932,0 0.535804,-0.579135 0.286887,-0.972338 -0.310262,-0.490109 -0.266795,-0.847821 0.15418,-1.268794 0.533722,-0.533725 0.935772,-0.462569 1.2471,0.220717 0.753466,1.653685 2.62898,-0.538248 2.949049,-3.44659 0.04401,-0.399904 0.211514,-0.59424 0.512192,-0.59424 0.429244,0 0.77849,0.794256 1.201959,2.733503 0.249852,1.14417 0.518001,1.343809 1.104747,0.822485 0.288426,-0.256268 0.730617,-0.926874 0.982648,-1.490235 0.62934,-1.40676 1.228515,-1.292189 1.327913,0.253918 0.03985,0.619807 0.177157,1.126919 0.305137,1.126919 0.127977,0 0.456649,-0.379586 0.73038,-0.843525 0.679579,-1.151801 1.246047,-1.015235 1.342718,0.323708 0.08826,1.222406 0.558829,1.503082 1.32044,0.787585 0.800092,-0.751648 1.101643,-0.635072 1.101643,0.425878 0,1.603031 0.158916,1.776751 1.111298,1.214831 0.449593,-0.265267 0.918292,-0.482301 1.041551,-0.482301 0.417364,0 0.227102,0.854369 -0.370708,1.664653 -0.337725,0.457764 -0.505351,0.895694 -0.387823,1.013224 0.242824,0.242822 1.465242,-0.286158 2.622238,-1.134733 1.493398,-1.095299 2.104647,-0.529609 1.11747,1.03418 l -0.604563,0.957689 1.520018,-0.111089 c 1.381393,-0.100961 1.534332,-0.06599 1.67696,0.383394 0.09473,0.29847 2.39e-4,0.73361 -0.238302,1.097713 -0.487787,0.744454 -0.303397,0.978387 0.452364,0.573914 1.013849,-0.542593 1.363434,0.261979 0.743582,1.711359 -0.142589,0.333413 -0.05857,0.415967 0.423342,0.415967 0.779917,0 1.231489,1.236977 1.0044,2.751325 -0.179558,1.197367 0.117601,1.384867 0.725194,0.45757 0.456447,-0.696628 0.940296,-0.76381 1.255756,-0.174364 0.152845,0.285593 0.120205,0.608664 -0.10206,1.010206 -0.179724,0.324684 -0.330563,0.67302 -0.335193,0.774083 -0.01607,0.350626 1.16228,-0.585224 1.305652,-1.036951 z" style="fill:#000000;fill-opacity:1;stroke-width:0.23769587" /></g>
</svg>
