<?xml version="1.0" encoding="UTF-8" standalone="no"?>
<svg xmlns:dc="http://purl.org/dc/elements/1.1/"
     xmlns:cc="http://creativecommons.org/ns#"
     xmlns:rdf="http://www.w3.org/1999/02/22-rdf-syntax-ns#"
     xmlns:svg="http://www.w3.org/2000/svg"
     xmlns="http://www.w3.org/2000/svg"
     xmlns:xlink="http://www.w3.org/1999/xlink"
     width="128" height="128" version="1.1">
    <title>Clarity Icon</title>
    <desc>This is shape (source) for Clarity vector icon theme for gtk</desc>
    <metadata>
        <rdf:RDF>
            <cc:Work rdf:about="">
                <dc:title>Clarity Icon</dc:title>
                <dc:description>This is shape (source) for Clarity vector icon theme for gtk</dc:description>
                <dc:creator>
                    <cc:Agent>
                        <dc:title>Jakub Jankiewicz</dc:title>
                    </cc:Agent>
                </dc:creator>
                <dc:rights>
                    <cc:Agent>
                        <dc:title>Jakub Jankiewicz</dc:title>
                    </cc:Agent>
                </dc:rights>
                <dc:date>2010</dc:date>
                <dc:format>image/svg+xml</dc:format>
                <dc:type rdf:resource="http://purl.org/dc/dcmitype/StillImage" />
                <cc:license rdf:resource="http://creativecommons.org/licenses/by-sa/3.0/" />
             </cc:Work>
        </rdf:RDF>
    </metadata>
    <path d="m 64.003173,19.253177 c -24.70691,0 -44.75,20.012148 -44.75,44.71875 0,24.706297 20.04309,44.750003 44.75,44.750003 24.7079,0 44.718767,-20.043706 44.718767,-44.750003 0,-24.706602 -20.010867,-44.71875 -44.718767,-44.71875 z m -2.71875,8.96875 c 0.20426,0.02164 0.3761,0.149278 0.46875,0.34375 l 4.4375,9.28125 c 2.15199,0.06319 4.30103,0.452833 6.40625,1.125 l 7.09375,-7.09375 c 0.19544,-0.19616 0.51135,-0.238891 0.75,-0.09375 l 5.625,3.4375 c 0.24488,0.148944 0.3456,0.449993 0.25,0.71875 l -3.40625,9.65625 c 1.29588,1.438393 2.39206,3.011536 3.28125,4.6875 l 10.53125,0 c 0.27895,2.38e-4 0.52745,0.198607 0.59375,0.46875 l 1.5625,6.4375 c 0.0688,0.278111 -0.0848,0.563745 -0.34375,0.6875 l -13.1875,2.875 c -1.55818,-10.394678 -10.51435,-18.34375 -21.34375,-18.34375 -2.39793,0 -4.71987,0.372284 -6.875,1.09375 l -0.125,-0.0625 -2.8125,-13.0625 c 0.001,-0.279394 0.19928,-0.49654 0.46875,-0.5625 l 6.40625,-1.5625 c 0.0697,-0.01712 0.15066,-0.03846 0.21875,-0.03125 z m -20.9375,9.46875 c 0.13435,-0.01393 0.28611,0.01528 0.40625,0.09375 l 10.03125,9.125 c -5.10113,3.949655 -8.375,10.143081 -8.375,17.09375 0,6.271877 2.66732,11.898328 6.9375,15.84375 l 0,0.125 -9.03125,9.96875 c -0.23947,0.143932 -0.55362,0.10222 -0.75,-0.09375 l -4.65625,-4.65625 c -0.20331,-0.202479 -0.25109,-0.54096 -0.0937,-0.78125 l 5.65625,-8.59375 c -1.06422,-1.871493 -1.88664,-3.914533 -2.40625,-6.0625 l -9.71875,-2.375 c -0.26916,-0.06505 -0.46875,-0.314429 -0.46875,-0.59375 l 0,-6.59375 c 0,-0.286641 0.18943,-0.53581 0.46875,-0.59375 l 10.03125,-2.09375 c 0.5556,-1.854617 1.3426,-3.588159 2.3125,-5.21875 l -5.46875,-9.03125 c -0.14477,-0.238458 -0.10262,-0.521764 0.0937,-0.71875 l 4.65625,-4.6875 c 0.10093,-0.101647 0.24065,-0.142325 0.375,-0.15625 z m 44.75,30.96875 13.0625,2.90625 c 0.24427,0.135646 0.3843,0.41951 0.3125,0.6875 l -1.71875,6.375 c -0.074,0.277227 -0.33824,0.48513 -0.625,0.46875 l -10.25,-0.59375 c -1.09033,1.85641 -2.46074,3.571214 -4.0625,5.09375 l 2.78125,9.625 c 0.078,0.265691 -0.0392,0.548057 -0.28125,0.6875 l -5.71875,3.3125 c -0.24837,0.143096 -0.56036,0.0881 -0.75,-0.125 l -6.8125,-7.65625 c -1.88434,0.44445 -3.79044,0.65137 -5.6875,0.625 l -5.09375,9.21875 c -0.13435,0.244461 -0.41878,0.384316 -0.6875,0.312496 l -6.375,-1.718746 c -0.27693,-0.07343 -0.4535,-0.338447 -0.4375,-0.625 l 3.4375,-13.0625 0.0625,-0.03125 c 2.40317,0.923273 5.02179,1.4375 7.75,1.4375 10.32383,0 18.96032,-7.255151 21.09375,-16.9375 z" style="fill:#aaaaaa"/>
</svg>