<?xml version="1.0" encoding="UTF-8" standalone="no"?>
<svg xmlns:dc="http://purl.org/dc/elements/1.1/"
     xmlns:cc="http://creativecommons.org/ns#"
     xmlns:rdf="http://www.w3.org/1999/02/22-rdf-syntax-ns#"
     xmlns:svg="http://www.w3.org/2000/svg"
     xmlns="http://www.w3.org/2000/svg"
     xmlns:xlink="http://www.w3.org/1999/xlink"
     width="128" height="128" version="1.1">
    <title>Folder User Icon</title>
    <desc>This is shape (source) for Clarity vector icon theme for gtk</desc>
    <metadata>
        <rdf:RDF>
            <cc:Work rdf:about="">
                <dc:title>Folder User Icon</dc:title>
                <dc:description>This is shape (source) for Clarity vector icon theme for gtk</dc:description>
                <dc:creator>
                    <cc:Agent>
                        <dc:title>Jakub Jankiewicz</dc:title>
                    </cc:Agent>
                </dc:creator>
                <dc:rights>
                    <cc:Agent>
                        <dc:title>Jakub Jankiewicz</dc:title>
                    </cc:Agent>
                </dc:rights>
                <dc:date>2010</dc:date>
                <dc:format>image/svg+xml</dc:format>
                <dc:type rdf:resource="http://purl.org/dc/dcmitype/StillImage" />
                <cc:license rdf:resource="http://www.gnu.org/copyleft/gpl.html" />
             </cc:Work>
        </rdf:RDF>
    </metadata>
    <path d="M 15.15625 24.15625 C 11.06279 24.15625 7.75 27.469038 7.75 31.5625 L 7.75 44.6875 L 7.75 55.90625 L 7.75 96.4375 C 7.75 100.53096 11.06279 103.8125 15.15625 103.8125 L 112.84375 103.8125 C 116.93721 103.8125 120.25 100.53096 120.25 96.4375 L 120.25 44.6875 C 120.25 40.594038 116.93713 37.33765 112.84375 37.3125 L 53.40625 37.3125 L 53.40625 31.5625 C 53.40625 27.469038 50.12471 24.15625 46.03125 24.15625 L 15.15625 24.15625 z M 64 48.0625 C 69.020252 48.0625 73.09375 53.193041 73.09375 59.53125 C 73.09375 65.86946 69.020252 71.03125 64 71.03125 C 58.979732 71.03125 54.9375 65.86946 54.9375 59.53125 C 54.9375 53.193041 58.979732 48.0625 64 48.0625 z M 73.125 74.78125 C 73.804789 74.770097 74.492763 75.325342 75.21875 76.5625 C 78.114914 81.497864 79.995723 88.344765 80.4375 96.03125 L 47.5625 96.03125 C 47.976954 88.392562 49.742461 81.57468 52.71875 76.71875 C 53.849506 74.873875 55.525851 74.721805 57.03125 76.71875 C 58.824172 79.097102 61.300538 80.5625 64 80.5625 C 66.764789 80.5625 69.511225 79.165107 71.09375 76.53125 C 71.790614 75.371434 72.445212 74.79241 73.125 74.78125 z " style="fill:#aaaaaa"/>
</svg>