<?xml version="1.0" encoding="UTF-8" standalone="no"?>
<svg xmlns:dc="http://purl.org/dc/elements/1.1/"
     xmlns:cc="http://creativecommons.org/ns#"
     xmlns:rdf="http://www.w3.org/1999/02/22-rdf-syntax-ns#"
     xmlns:svg="http://www.w3.org/2000/svg"
     xmlns="http://www.w3.org/2000/svg"
     xmlns:xlink="http://www.w3.org/1999/xlink"
     width="128" height="128" version="1.1">
    <title>Clarity Icon</title>
    <desc>This is shape (source) for Clarity vector icon theme for gtk</desc>
    <metadata>
        <rdf:RDF>
            <cc:Work rdf:about="">
                <dc:title>Clarity Icon</dc:title>
                <dc:description>This is shape (source) for Clarity vector icon theme for gtk</dc:description>
                <dc:creator>
                    <cc:Agent>
                        <dc:title>Jakub Jankiewicz</dc:title>
                    </cc:Agent>
                </dc:creator>
                <dc:rights>
                    <cc:Agent>
                        <dc:title>Jakub Jankiewicz</dc:title>
                    </cc:Agent>
                </dc:rights>
                <dc:date>2010</dc:date>
                <dc:format>image/svg+xml</dc:format>
                <dc:type rdf:resource="http://purl.org/dc/dcmitype/StillImage" />
                <cc:license rdf:resource="http://www.gnu.org/copyleft/gpl.html" />
             </cc:Work>
        </rdf:RDF>
    </metadata>
    <path d="M 15.15625 26.90625 C 11.062789 26.90625 7.75 30.219038 7.75 34.3125 L 7.75 47.4375 L 7.75 58.65625 L 7.75 99.1875 C 7.75 103.28096 11.062789 106.5625 15.15625 106.5625 L 112.84375 106.5625 C 116.93721 106.5625 120.25 103.28097 120.25 99.1875 L 120.25 47.4375 C 120.25 43.344038 116.93713 40.08765 112.84375 40.0625 L 53.40625 40.0625 L 53.40625 34.3125 C 53.40625 30.219038 50.12471 26.90625 46.03125 26.90625 L 15.15625 26.90625 z M 34.625 48.65625 L 37.40625 48.65625 L 37.40625 50.75 C 37.40625 51.289385 37.835618 51.71875 38.375 51.71875 L 42.59375 51.71875 C 43.133134 51.71875 43.5625 51.289385 43.5625 50.75 L 43.5625 48.65625 L 46.3125 48.65625 L 46.3125 51.90625 C 46.3125 54.243587 48.193912 56.09375 50.53125 56.09375 L 77.46875 56.09375 C 79.806089 56.09375 81.6875 54.243587 81.6875 51.90625 L 81.6875 48.65625 L 84.46875 48.65625 L 84.46875 50.75 C 84.46875 51.289385 84.898119 51.71875 85.4375 51.71875 L 89.625 51.71875 C 90.164387 51.71875 90.59375 51.289385 90.59375 50.75 L 90.59375 48.65625 L 93.375 48.65625 L 93.375 97.65625 L 90.59375 97.65625 L 90.59375 95.53125 C 90.59375 94.99187 90.164387 94.5625 89.625 94.5625 L 85.4375 94.5625 C 84.898119 94.5625 84.46875 94.99187 84.46875 95.53125 L 84.46875 97.65625 L 81.6875 97.65625 L 81.6875 94.40625 C 81.6875 92.068911 79.806089 90.1875 77.46875 90.1875 L 50.53125 90.1875 C 48.193912 90.1875 46.3125 92.068911 46.3125 94.40625 L 46.3125 97.65625 L 43.5625 97.65625 L 43.5625 95.53125 C 43.5625 94.99187 43.133134 94.5625 42.59375 94.5625 L 38.375 94.5625 C 37.835618 94.5625 37.40625 94.99187 37.40625 95.53125 L 37.40625 97.65625 L 34.625 97.65625 L 34.625 48.65625 z M 38.375 54.28125 C 37.835618 54.28125 37.40625 54.710614 37.40625 55.25 L 37.40625 58.8125 C 37.40625 59.351885 37.835618 59.78125 38.375 59.78125 L 42.59375 59.78125 C 43.133134 59.78125 43.5625 59.351885 43.5625 58.8125 L 43.5625 55.25 C 43.5625 54.710614 43.133134 54.28125 42.59375 54.28125 L 38.375 54.28125 z M 85.4375 54.28125 C 84.898119 54.28125 84.46875 54.710614 84.46875 55.25 L 84.46875 58.8125 C 84.46875 59.351885 84.898119 59.78125 85.4375 59.78125 L 89.625 59.78125 C 90.164387 59.78125 90.59375 59.351885 90.59375 58.8125 L 90.59375 55.25 C 90.59375 54.710614 90.164387 54.28125 89.625 54.28125 L 85.4375 54.28125 z M 50.53125 60.8125 C 48.193912 60.8125 46.3125 62.693911 46.3125 65.03125 L 46.3125 81.25 C 46.3125 83.587334 48.193912 85.5 50.53125 85.5 L 77.46875 85.5 C 79.806089 85.5 81.6875 83.587334 81.6875 81.25 L 81.6875 65.03125 C 81.6875 62.693911 79.806089 60.8125 77.46875 60.8125 L 50.53125 60.8125 z M 38.375 62.34375 C 37.835618 62.34375 37.40625 62.773118 37.40625 63.3125 L 37.40625 66.875 C 37.40625 67.414387 37.835618 67.84375 38.375 67.84375 L 42.59375 67.84375 C 43.133134 67.84375 43.5625 67.414387 43.5625 66.875 L 43.5625 63.3125 C 43.5625 62.773118 43.133134 62.34375 42.59375 62.34375 L 38.375 62.34375 z M 85.4375 62.34375 C 84.898119 62.34375 84.46875 62.773118 84.46875 63.3125 L 84.46875 66.875 C 84.46875 67.414387 84.898119 67.84375 85.4375 67.84375 L 89.625 67.84375 C 90.164387 67.84375 90.59375 67.414387 90.59375 66.875 L 90.59375 63.3125 C 90.59375 62.773118 90.164387 62.34375 89.625 62.34375 L 85.4375 62.34375 z M 38.375 70.40625 C 37.835618 70.40625 37.40625 70.835613 37.40625 71.375 L 37.40625 74.9375 C 37.40625 75.476882 37.835618 75.90625 38.375 75.90625 L 42.59375 75.90625 C 43.133134 75.90625 43.5625 75.476882 43.5625 74.9375 L 43.5625 71.375 C 43.5625 70.835613 43.133134 70.40625 42.59375 70.40625 L 38.375 70.40625 z M 85.4375 70.40625 C 84.898119 70.40625 84.46875 70.835613 84.46875 71.375 L 84.46875 74.9375 C 84.46875 75.476882 84.898119 75.90625 85.4375 75.90625 L 89.625 75.90625 C 90.164387 75.90625 90.59375 75.476882 90.59375 74.9375 L 90.59375 71.375 C 90.59375 70.835613 90.164387 70.40625 89.625 70.40625 L 85.4375 70.40625 z M 38.375 78.46875 C 37.835618 78.46875 37.40625 78.898112 37.40625 79.4375 L 37.40625 83 C 37.40625 83.539388 37.835618 83.96875 38.375 83.96875 L 42.59375 83.96875 C 43.133134 83.96875 43.5625 83.539388 43.5625 83 L 43.5625 79.4375 C 43.5625 78.898112 43.133134 78.46875 42.59375 78.46875 L 38.375 78.46875 z M 85.4375 78.46875 C 84.898119 78.46875 84.46875 78.898112 84.46875 79.4375 L 84.46875 83 C 84.46875 83.539388 84.898119 83.96875 85.4375 83.96875 L 89.625 83.96875 C 90.164387 83.96875 90.59375 83.539388 90.59375 83 L 90.59375 79.4375 C 90.59375 78.898112 90.164387 78.46875 89.625 78.46875 L 85.4375 78.46875 z M 38.375 86.5 C 37.835618 86.5 37.40625 86.960613 37.40625 87.5 L 37.40625 91.0625 C 37.40625 91.601887 37.835618 92.03125 38.375 92.03125 L 42.59375 92.03125 C 43.133134 92.03125 43.5625 91.601887 43.5625 91.0625 L 43.5625 87.5 C 43.5625 86.960613 43.133134 86.5 42.59375 86.5 L 38.375 86.5 z M 85.4375 86.5 C 84.898119 86.5 84.46875 86.960613 84.46875 87.5 L 84.46875 91.0625 C 84.46875 91.601887 84.898119 92.03125 85.4375 92.03125 L 89.625 92.03125 C 90.164387 92.03125 90.59375 91.601887 90.59375 91.0625 L 90.59375 87.5 C 90.59375 86.960613 90.164387 86.5 89.625 86.5 L 85.4375 86.5 z " style="fill:#aaaaaa"/>
</svg>