<?xml version="1.0" encoding="UTF-8" standalone="no"?>
<svg xmlns:dc="http://purl.org/dc/elements/1.1/"
     xmlns:cc="http://creativecommons.org/ns#"
     xmlns:rdf="http://www.w3.org/1999/02/22-rdf-syntax-ns#"
     xmlns:svg="http://www.w3.org/2000/svg"
     xmlns="http://www.w3.org/2000/svg"
     xmlns:xlink="http://www.w3.org/1999/xlink"
     width="128" height="128" version="1.1">
    <title>Folder Joomla Icon</title>
    <desc>This is shape (source) for Clarity vector icon theme for gtk</desc>
    <metadata>
        <rdf:RDF>
            <cc:Work rdf:about="">
                <dc:title>Folder Joomla Icon</dc:title>
                <dc:description>This is shape (source) for Clarity vector icon theme for gtk</dc:description>
                <dc:creator>
                    <cc:Agent>
                        <dc:title>Jakub Jankiewicz</dc:title>
                    </cc:Agent>
                </dc:creator>
                <dc:rights>
                    <cc:Agent>
                        <dc:title>Jakub Jankiewicz</dc:title>
                    </cc:Agent>
                </dc:rights>
                <dc:date>2010</dc:date>
                <dc:format>image/svg+xml</dc:format>
                <dc:type rdf:resource="http://purl.org/dc/dcmitype/StillImage" />
                <cc:license rdf:resource="http://www.gnu.org/copyleft/gpl.html" />
             </cc:Work>
        </rdf:RDF>
    </metadata>
    <path d="M 15.15625 24.1875 C 11.06279 24.1875 7.75 27.50028 7.75 31.59375 L 7.75 44.71875 L 7.75 55.9375 L 7.75 96.4375 C 7.75 100.53096 11.06279 103.8125 15.15625 103.8125 L 112.84375 103.8125 C 116.93721 103.8125 120.25 100.53096 120.25 96.4375 L 120.25 44.71875 C 120.25 40.62528 116.93713 37.3689 112.84375 37.34375 L 53.40625 37.34375 L 53.40625 31.59375 C 53.40625 27.50028 50.12471 24.1875 46.03125 24.1875 L 15.15625 24.1875 z M 44.40625 43.8125 C 46.212182 43.812495 48.024174 44.492925 49.40625 45.875 C 50.624748 47.093498 51.293625 48.659655 51.4375 50.25 A 0.33542479 0.33542479 0 0 0 51.53125 50.4375 A 0.33542479 0.33542479 0 0 0 51.71875 50.5625 A 0.33542479 0.33542479 0 0 0 51.875 50.53125 C 55.646365 49.54756 59.983381 50.809759 63.03125 53.8125 L 58.53125 58.3125 C 56.296622 56.136001 53.446992 56.115505 52 57.5625 L 50.90625 58.625 C 49.444127 60.087122 49.472224 63.003474 51.71875 65.25 L 62.84375 76.375 L 58.34375 80.875 L 47.21875 69.75 C 44.120667 66.651921 42.85637 62.155753 43.9375 58.3125 A 0.33542479 0.33542479 0 0 0 43.96875 58.3125 A 0.33542479 0.33542479 0 0 0 43.90625 58.0625 A 0.33542479 0.33542479 0 0 0 43.65625 57.90625 C 42.106912 57.739305 40.592161 57.060914 39.40625 55.875 C 36.642098 53.110849 36.642098 48.639153 39.40625 45.875 C 40.788326 44.492946 42.600318 43.812505 44.40625 43.8125 z M 83.78125 44 C 85.587183 44 87.399177 44.680424 88.78125 46.0625 C 91.545357 48.826651 91.545401 53.29835 88.78125 56.0625 C 87.562752 57.280999 85.996599 57.949873 84.40625 58.09375 A 0.33542479 0.33542479 0 0 0 84.21875 58.1875 A 0.33542479 0.33542479 0 0 0 84.09375 58.375 A 0.33542479 0.33542479 0 0 0 84.125 58.53125 C 85.108912 62.303448 83.876352 66.671648 80.875 69.71875 L 76.34375 65.1875 C 78.520243 62.952873 78.540748 60.103247 77.09375 58.65625 L 76.03125 57.5625 C 74.56913 56.10038 71.651146 56.16135 69.40625 58.40625 L 58.3125 69.5 L 53.78125 65 L 64.90625 53.875 C 68.004329 50.776918 72.500498 49.512619 76.34375 50.59375 A 0.33542479 0.33542479 0 0 0 76.34375 50.625 A 0.33542479 0.33542479 0 0 0 76.59375 50.5625 A 0.33542479 0.33542479 0 0 0 76.75 50.3125 C 76.916944 48.763162 77.595338 47.248413 78.78125 46.0625 C 80.163326 44.680424 81.975317 44 83.78125 44 z M 69.65625 60.4375 L 80.78125 71.5625 C 83.879331 74.660581 85.143624 79.156756 84.0625 83 A 0.33542479 0.33542479 0 0 0 84.03125 83 A 0.33542479 0.33542479 0 0 0 84.09375 83.25 A 0.33542479 0.33542479 0 0 0 84.34375 83.40625 C 85.893094 83.573198 87.407835 84.251568 88.59375 85.4375 C 91.357899 88.201653 91.357901 92.673349 88.59375 95.4375 C 85.829602 98.201606 81.357896 98.201642 78.59375 95.4375 C 77.375252 94.219002 76.70638 92.652849 76.5625 91.0625 A 0.33542479 0.33542479 0 0 0 76.46875 90.875 A 0.33542479 0.33542479 0 0 0 76.28125 90.75 A 0.33542479 0.33542479 0 0 0 76.125 90.78125 C 72.353641 91.764943 68.016621 90.502743 64.96875 87.5 L 69.46875 83 C 71.703379 85.176497 74.553006 85.196994 76 83.75 L 77.09375 82.6875 C 78.555869 81.225381 78.527776 78.309026 76.28125 76.0625 L 65.15625 64.9375 L 69.65625 60.4375 z M 47.125 71.65625 L 51.65625 76.15625 C 49.502308 78.387298 49.464299 81.245549 50.90625 82.6875 L 52 83.75 C 53.462121 85.212119 56.348852 85.182396 58.59375 82.9375 L 69.71875 71.8125 L 74.21875 76.34375 L 63.125 87.4375 C 60.026917 90.535583 55.498084 91.830736 51.65625 90.75 A 0.33542479 0.33542479 0 0 0 51.25 91.0625 C 51.083121 92.611195 50.407474 94.061272 49.21875 95.25 C 46.454597 98.014148 41.982904 98.014148 39.21875 95.25 C 36.454635 92.485846 36.454599 88.014146 39.21875 85.25 C 40.437243 84.031502 41.969488 83.362872 43.5625 83.21875 A 0.33542479 0.33542479 0 0 0 43.78125 83.125 A 0.33542479 0.33542479 0 0 0 43.875 82.96875 A 0.33542479 0.33542479 0 0 0 43.84375 82.8125 C 42.862851 79.051838 44.137825 74.703446 47.125 71.65625 z " style="fill:#aaaaaa"/>
</svg>