<?xml version="1.0" encoding="UTF-8" standalone="no"?>
<svg xmlns:dc="http://purl.org/dc/elements/1.1/"
     xmlns:cc="http://creativecommons.org/ns#"
     xmlns:rdf="http://www.w3.org/1999/02/22-rdf-syntax-ns#"
     xmlns:svg="http://www.w3.org/2000/svg"
     xmlns="http://www.w3.org/2000/svg"
     xmlns:xlink="http://www.w3.org/1999/xlink"
     width="128" height="128" version="1.1">
    <title>Clarity Icon</title>
    <desc>This is shape (source) for Clarity vector icon theme for gtk</desc>
    <metadata>
        <rdf:RDF>
            <cc:Work rdf:about="">
                <dc:title>Clarity Icon</dc:title>
                <dc:description>This is shape (source) for Clarity vector icon theme for gtk</dc:description>
                <dc:creator>
                    <cc:Agent>
                        <dc:title>Jakub Jankiewicz</dc:title>
                    </cc:Agent>
                </dc:creator>
                <dc:rights>
                    <cc:Agent>
                        <dc:title>Jakub Jankiewicz</dc:title>
                    </cc:Agent>
                </dc:rights>
                <dc:date>2010</dc:date>
                <dc:format>image/svg+xml</dc:format>
                <dc:type rdf:resource="http://purl.org/dc/dcmitype/StillImage" />
                <cc:license rdf:resource="http://www.gnu.org/copyleft/gpl.html" />
             </cc:Work>
        </rdf:RDF>
    </metadata>
    <path d="M 15.15625 26.90625 C 11.062789 26.90625 7.75 30.219038 7.75 34.3125 L 7.75 47.4375 L 7.75 58.65625 L 7.75 99.1875 C 7.75 103.28096 11.062789 106.5625 15.15625 106.5625 L 112.84375 106.5625 C 116.93721 106.5625 120.25 103.28097 120.25 99.1875 L 120.25 47.4375 C 120.25 43.344038 116.93713 40.08765 112.84375 40.0625 L 53.40625 40.0625 L 53.40625 34.3125 C 53.40625 30.219038 50.12471 26.90625 46.03125 26.90625 L 15.15625 26.90625 z M 61.1875 47.5 L 81.1875 62.0625 L 81.1875 64.9375 L 81.1875 72.625 L 81.1875 93.875 C 81.1875 96.600677 77.146601 98.8125 72.125 98.8125 C 67.103395 98.8125 63.03125 96.600677 63.03125 93.875 C 63.03125 91.149336 67.103395 88.9375 72.125 88.9375 C 74.111168 88.9375 75.910623 89.319697 77.40625 89.90625 L 77.40625 69.875 L 64.96875 60.8125 L 64.96875 81.65625 C 64.96875 84.381914 60.896603 86.59375 55.875 86.59375 C 50.853396 86.59375 46.8125 84.381914 46.8125 81.65625 C 46.8125 78.930594 50.853396 76.71875 55.875 76.71875 C 57.861171 76.71875 59.691868 77.100955 61.1875 77.6875 L 61.1875 58.0625 L 61.1875 47.5 z " style="fill:#aaaaaa"/>
</svg>