<?xml version="1.0" encoding="UTF-8" standalone="no"?>
<svg xmlns:dc="http://purl.org/dc/elements/1.1/"
     xmlns:cc="http://creativecommons.org/ns#"
     xmlns:rdf="http://www.w3.org/1999/02/22-rdf-syntax-ns#"
     xmlns:svg="http://www.w3.org/2000/svg"
     xmlns="http://www.w3.org/2000/svg"
     xmlns:xlink="http://www.w3.org/1999/xlink"
     width="128" height="128" version="1.1">
    <title>Folder Templates Icon</title>
    <desc>This is shape (source) for Clarity vector icon theme for gtk</desc>
    <metadata>
        <rdf:RDF>
            <cc:Work rdf:about="">
                <dc:title>Folder Templates Icon</dc:title>
                <dc:description>This is shape (source) for Clarity vector icon theme for gtk</dc:description>
                <dc:creator>
                    <cc:Agent>
                        <dc:title>Jakub Jankiewicz</dc:title>
                    </cc:Agent>
                </dc:creator>
                <dc:rights>
                    <cc:Agent>
                        <dc:title>Jakub Jankiewicz</dc:title>
                    </cc:Agent>
                </dc:rights>
                <dc:date>2010</dc:date>
                <dc:format>image/svg+xml</dc:format>
                <dc:type rdf:resource="http://purl.org/dc/dcmitype/StillImage" />
                <cc:license rdf:resource="http://www.gnu.org/copyleft/gpl.html" />
             </cc:Work>
        </rdf:RDF>
    </metadata>
    <path d="M 15.15625 24.1875 C 11.06279 24.1875 7.75 27.50028 7.75 31.59375 L 7.75 44.71875 L 7.75 55.9375 L 7.75 96.4375 C 7.75 100.53096 11.06279 103.8125 15.15625 103.8125 L 112.84375 103.8125 C 116.93721 103.8125 120.25 100.53096 120.25 96.4375 L 120.25 44.71875 C 120.25 40.62528 116.93713 37.3689 112.84375 37.34375 L 53.40625 37.34375 L 53.40625 31.59375 C 53.40625 27.50028 50.12471 24.1875 46.03125 24.1875 L 15.15625 24.1875 z M 40.375 45.125 L 62.78125 45.125 L 62.78125 55.65625 C 62.78125 57.6691 64.609645 59.1875 66.6875 59.1875 L 76.84375 59.1875 L 76.84375 93.28125 C 76.84375 94.81756 75.5988 96.03125 74.0625 96.03125 L 40.375 96.03125 C 38.838695 96.03125 37.625 94.81756 37.625 93.28125 L 37.625 47.90625 C 37.625 46.369949 38.838695 45.125 40.375 45.125 z M 64.71875 45.125 L 76.84375 57.25 L 66.6875 57.25 C 65.514679 57.25 64.71875 56.483377 64.71875 55.65625 L 64.71875 45.125 z M 83.15625 45.125 L 90.375 45.125 L 90.375 96.03125 L 83.15625 96.03125 L 83.15625 92.84375 L 85.6875 92.84375 L 85.6875 91 L 83.15625 91 L 83.15625 88.46875 L 85.6875 88.46875 L 85.6875 86.65625 L 83.15625 86.65625 L 83.15625 84.125 L 88.09375 84.125 L 88.09375 82.3125 L 83.15625 82.3125 L 83.15625 79.78125 L 85.6875 79.78125 L 85.6875 77.9375 L 83.15625 77.9375 L 83.15625 75.40625 L 85.6875 75.40625 L 85.6875 73.59375 L 83.15625 73.59375 L 83.15625 71.0625 L 85.6875 71.0625 L 85.6875 69.25 L 83.15625 69.25 L 83.15625 66.71875 L 88.09375 66.71875 L 88.09375 64.875 L 83.15625 64.875 L 83.15625 62.34375 L 85.6875 62.34375 L 85.6875 60.53125 L 83.15625 60.53125 L 83.15625 58 L 85.6875 58 L 85.6875 56.1875 L 83.15625 56.1875 L 83.15625 53.65625 L 85.6875 53.65625 L 85.6875 51.84375 L 83.15625 51.84375 L 83.15625 49.28125 L 88.09375 49.28125 L 88.09375 47.5 L 83.15625 47.5 L 83.15625 45.125 z " style="fill:#aaaaaa"/>
</svg>