<?xml version="1.0" encoding="UTF-8" standalone="no"?>
<svg xmlns:dc="http://purl.org/dc/elements/1.1/"
     xmlns:cc="http://creativecommons.org/ns#"
     xmlns:rdf="http://www.w3.org/1999/02/22-rdf-syntax-ns#"
     xmlns:svg="http://www.w3.org/2000/svg"
     xmlns="http://www.w3.org/2000/svg"
     xmlns:xlink="http://www.w3.org/1999/xlink"
     width="128" height="128" version="1.1">
    <title>Folder User Icon</title>
    <desc>This is shape (source) for Clarity vector icon theme for gtk</desc>
    <metadata>
        <rdf:RDF>
            <cc:Work rdf:about="">
                <dc:title>Folder User Icon</dc:title>
                <dc:description>This is shape (source) for Clarity vector icon theme for gtk</dc:description>
                <dc:creator>
                    <cc:Agent>
                        <dc:title>Jakub Jankiewicz</dc:title>
                    </cc:Agent>
                </dc:creator>
                <dc:rights>
                    <cc:Agent>
                        <dc:title>Jakub Jankiewicz</dc:title>
                    </cc:Agent>
                </dc:rights>
                <dc:date>2010</dc:date>
                <dc:format>image/svg+xml</dc:format>
                <dc:type rdf:resource="http://purl.org/dc/dcmitype/StillImage" />
                <cc:license rdf:resource="http://www.gnu.org/copyleft/gpl.html" />
             </cc:Work>
        </rdf:RDF>
    </metadata>
    <path d="M 15.15625 24.1875 C 11.06279 24.1875 7.75 27.50028 7.75 31.59375 L 7.75 44.71875 L 7.75 55.9375 L 7.75 96.4375 C 7.75 100.53096 11.06279 103.8125 15.15625 103.8125 L 112.84375 103.8125 C 116.93721 103.8125 120.25 100.53096 120.25 96.4375 L 120.25 44.71875 C 120.25 40.62528 116.93713 37.3689 112.84375 37.34375 L 53.40625 37.34375 L 53.40625 31.59375 C 53.40625 27.50028 50.12471 24.1875 46.03125 24.1875 L 15.15625 24.1875 z M 64 43.5625 C 69.772542 43.5625 74.4375 49.493252 74.4375 56.78125 C 74.4375 64.069249 69.772542 69.96875 64 69.96875 C 58.227438 69.96875 53.5625 64.069249 53.5625 56.78125 C 53.5625 49.493252 58.227438 43.5625 64 43.5625 z M 74.5 74.28125 C 75.281656 74.268426 76.071472 74.921201 76.90625 76.34375 C 80.236407 82.018684 82.398272 89.880441 82.90625 98.71875 L 45.09375 98.71875 C 45.57031 89.935396 47.608961 82.083597 51.03125 76.5 C 52.331452 74.378675 54.269015 74.23506 56 76.53125 C 58.061593 79.266 60.89602 80.9375 64 80.9375 C 67.179096 80.9375 70.336583 79.341043 72.15625 76.3125 C 72.95754 74.978884 73.718345 74.29407 74.5 74.28125 z " style="fill:#aaaaaa"/>
</svg>