<?xml version="1.0" encoding="UTF-8" standalone="no"?>
<!--
    This is shape (source) for Clarity vector icon theme for gtk

    Copyright (c) 2010 Jakub Jankiewicz <http://jcubic.pl> 

    This svg file is free: you can redistribute it and/or modify
    it under the terms of the GNU General Public License as published by
    the Free Software Foundation, either version 3 of the License, or
    (at your option) any later version.

    This program is distributed in the hope that it will be useful,
    but WITHOUT ANY WARRANTY; without even the implied warranty of
    MERCHANTABILITY or FITNESS FOR A PARTICULAR PURPOSE.  See the
    GNU General Public License for more details.

    You should have received a copy of the GNU General Public License
    along with this program.  If not, see <http://www.gnu.org/licenses/>.

-->
<svg xmlns:dc="http://purl.org/dc/elements/1.1/"
     xmlns:cc="http://creativecommons.org/ns#"
     xmlns:rdf="http://www.w3.org/1999/02/22-rdf-syntax-ns#"
     xmlns:svg="http://www.w3.org/2000/svg"
     xmlns="http://www.w3.org/2000/svg"
     xmlns:xlink="http://www.w3.org/1999/xlink"
     width="128" height="128" version="1.1">
    <title>Folder HTML Icon</title>
    <desc>This is shape (source) for Clarity vector icon theme for gtk</desc>
    <metadata>
        <rdf:RDF>
            <cc:Work rdf:about="">
                <dc:title>Folder HTML Icon</dc:title>
                <dc:description>This is shape (source) for Clarity vector icon theme for gtk</dc:description>
                <dc:creator>
                    <cc:Agent>
                        <dc:title>Jakub Jankiewicz</dc:title>
                    </cc:Agent>
                </dc:creator>
                <dc:rights>
                    <cc:Agent>
                        <dc:title>Jakub Jankiewicz</dc:title>
                    </cc:Agent>
                </dc:rights>
                <dc:date>2010</dc:date>
                <dc:format>image/svg+xml</dc:format>
                <dc:type rdf:resource="http://purl.org/dc/dcmitype/StillImage" />
                <cc:license rdf:resource="http://www.gnu.org/copyleft/gpl.html" />
             </cc:Work>
        </rdf:RDF>
    </metadata>
    <path d="M 15.15625 24.15625 C 11.06279 24.15625 7.75 27.469038 7.75 31.5625 L 7.75 44.6875 L 7.75 55.90625 L 7.75 96.4375 C 7.75 100.53096 11.06279 103.8125 15.15625 103.8125 L 112.84375 103.8125 C 116.93721 103.8125 120.25 100.53096 120.25 96.4375 L 120.25 44.6875 C 120.25 40.594038 116.93713 37.33765 112.84375 37.3125 L 53.40625 37.3125 L 53.40625 31.5625 C 53.40625 27.469038 50.12471 24.15625 46.03125 24.15625 L 15.15625 24.15625 z M 70.65625 55.15625 L 74.53125 55.15625 L 67.78125 83.0625 L 63.96875 83.0625 L 70.65625 55.15625 z M 51.8125 59.03125 L 51.8125 64.28125 L 38.875 69.21875 L 51.8125 74.34375 L 51.8125 79.53125 L 33.28125 71.5 L 33.28125 67.03125 L 51.8125 59.03125 z M 76.1875 59.0625 L 94.71875 67.0625 L 94.71875 71.5 L 76.1875 79.53125 L 76.1875 74.34375 L 89.125 69.28125 L 76.1875 64.25 L 76.1875 59.0625 z " style="fill:#aaaaaa"/>
</svg>