<?xml version="1.0" encoding="UTF-8" standalone="no"?>
<svg xmlns:dc="http://purl.org/dc/elements/1.1/"
     xmlns:cc="http://creativecommons.org/ns#"
     xmlns:rdf="http://www.w3.org/1999/02/22-rdf-syntax-ns#"
     xmlns:svg="http://www.w3.org/2000/svg"
     xmlns="http://www.w3.org/2000/svg"
     xmlns:xlink="http://www.w3.org/1999/xlink"
     width="128" height="128" version="1.1">
    <title>Dropbox folder icon</title>
    <desc>This is shape (source) for Clarity vector icon theme for gtk</desc>
    <metadata>
        <rdf:RDF>
            <cc:Work rdf:about="">
                <dc:title>Dropbox folder icon</dc:title>
                <dc:description>This is shape (source) for Clarity vector icon theme for gtk</dc:description>
                <dc:creator>
                    <cc:Agent>
                        <dc:title>Jakub Jankiewicz</dc:title>
                    </cc:Agent>
                </dc:creator>
                <dc:rights>
                    <cc:Agent>
                        <dc:title>Jakub Jankiewicz</dc:title>
                    </cc:Agent>
                </dc:rights>
                <dc:date>2010</dc:date>
                <dc:format>image/svg+xml</dc:format>
                <dc:type rdf:resource="http://purl.org/dc/dcmitype/StillImage" />
                <cc:license rdf:resource="http://creativecommons.org/licenses/by-sa/3.0/" />
             </cc:Work>
        </rdf:RDF>
    </metadata>
    <path d="M 15.15625 24.15625 C 11.06279 24.15625 7.75 27.469038 7.75 31.5625 L 7.75 44.6875 L 7.75 55.90625 L 7.75 96.4375 C 7.75 100.53096 11.06279 103.8125 15.15625 103.8125 L 112.84375 103.8125 C 116.93721 103.8125 120.25 100.53096 120.25 96.4375 L 120.25 44.6875 C 120.25 40.594038 116.93713 37.33765 112.84375 37.3125 L 53.40625 37.3125 L 53.40625 31.5625 C 53.40625 27.469038 50.12471 24.15625 46.03125 24.15625 L 15.15625 24.15625 z M 73.0625 48.75 L 87.53125 57.59375 L 77.625 65.28125 L 64.34375 56.6875 L 73.0625 48.75 z M 54.28125 49.40625 L 62.375 56.78125 L 49.625 65.21875 L 40.5625 58.03125 L 54.28125 49.40625 z M 49.625 65.71875 L 62.8125 74.40625 L 54.90625 82.96875 L 40.46875 73.5 L 49.625 65.71875 z M 77.625 66.03125 L 87.125 73.71875 L 73.40625 82.875 L 65.0625 74.4375 L 77.625 66.03125 z M 64.53125 76.875 L 73.5 85.59375 L 77.84375 82.34375 L 77.84375 85.25 L 64.53125 92.0625 L 64.53125 76.875 z M 62.8125 77.21875 L 62.8125 92.375 L 49.53125 85.59375 L 49.53125 81.90625 L 55.125 86.03125 L 62.8125 77.21875 z " style="fill:#aaaaaa"/>
</svg>