<?xml version="1.0" encoding="UTF-8" standalone="no"?>
<svg xmlns:dc="http://purl.org/dc/elements/1.1/"
     xmlns:cc="http://creativecommons.org/ns#"
     xmlns:rdf="http://www.w3.org/1999/02/22-rdf-syntax-ns#"
     xmlns:svg="http://www.w3.org/2000/svg"
     xmlns="http://www.w3.org/2000/svg"
     xmlns:xlink="http://www.w3.org/1999/xlink"
     width="128" height="128" version="1.1">
    <title>Folder Icons</title>
    <desc>This is shape (source) for Clarity vector icon theme for gtk</desc>
    <!--

    This icon is a part of Clarity vector icon theme for gtk

    Copyright (c) 2010 Jakub Jankiewicz <http://jcubic.pl> 

    This icon is free: you can redistribute it and/or modify
    it under the terms of the GNU General Public License as published by
    the Free Software Foundation, either version 3 of the License, or
    (at your option) any later version.

    This program is distributed in the hope that it will be useful,
    but WITHOUT ANY WARRANTY; without even the implied warranty of
    MERCHANTABILITY or FITNESS FOR A PARTICULAR PURPOSE.  See the
    GNU General Public License for more details.

    You should have received a copy of the GNU General Public License
    along with this program.  If not, see <http://www.gnu.org/licenses/>.

    -->
    <metadata>
        <rdf:RDF>
            <cc:Work rdf:about="">
                <dc:title>Folder Icons</dc:title>
                <dc:description>This is shape (source) for Clarity vector icon theme for gtk</dc:description>
                <dc:creator>
                    <cc:Agent>
                        <dc:title>Jakub Jankiewicz</dc:title>
                    </cc:Agent>
                </dc:creator>
                <dc:rights>
                    <cc:Agent>
                        <dc:title>Jakub Jankiewicz</dc:title>
                    </cc:Agent>
                </dc:rights>
                <dc:date>2010</dc:date>
                <dc:format>image/svg+xml</dc:format>
                <dc:type rdf:resource="http://purl.org/dc/dcmitype/StillImage" />
                <cc:license rdf:resource="http://www.gnu.org/copyleft/gpl.html" />
             </cc:Work>
        </rdf:RDF>
    </metadata>
    <path d="m 15.156247,24.187499 c -4.09346,0 -7.4062495,3.31278 -7.4062495,7.40625 l 0,13.125001 0,11.21875 0,40.5 c 0,4.09346 3.3127895,7.375 7.4062495,7.375 l 97.687503,0 c 4.09346,0 7.40625,-3.28154 7.40625,-7.375 l 0,-51.71875 c 0,-4.09347 -3.31287,-7.349851 -7.40625,-7.375 l -59.437502,0 0,-5.75 c 0,-4.09347 -3.281541,-7.40625 -7.375,-7.40625 z m 13.641364,25.176545 17.756245,0 0,17.756245 -17.756245,0 z m 25.261764,0 17.75624,0 0,17.756245 -17.75624,0 z m 25.261758,0 17.756255,0 0,17.756245 -17.756255,0 z m -50.523522,26.254711 17.756245,0 0,17.756245 -17.756245,0 z m 25.261764,0 17.75624,0 0,17.756245 -17.75624,0 z m 25.261758,0 17.756255,0 0,17.756245 -17.756255,0 z" style="fill:#aaaaaa"/>
</svg>