<?xml version="1.0" encoding="UTF-8" standalone="no"?>
<svg xmlns:dc="http://purl.org/dc/elements/1.1/"
     xmlns:cc="http://creativecommons.org/ns#"
     xmlns:rdf="http://www.w3.org/1999/02/22-rdf-syntax-ns#"
     xmlns:svg="http://www.w3.org/2000/svg"
     xmlns="http://www.w3.org/2000/svg"
     xmlns:xlink="http://www.w3.org/1999/xlink"
     width="128" height="128" version="1.1">
    <title>Fonts Folder Icon</title>
    <desc>This is shape (source) for Clarity vector icon theme for gtk</desc>
    <metadata>
        <rdf:RDF>
            <cc:Work rdf:about="">
                <dc:title>Fonts Folder Icon</dc:title>
                <dc:description>This is shape (source) for Clarity vector icon theme for gtk</dc:description>
                <dc:creator>
                    <cc:Agent>
                        <dc:title>Jakub Jankiewicz</dc:title>
                    </cc:Agent>
                </dc:creator>
                <dc:rights>
                    <cc:Agent>
                        <dc:title>Jakub Jankiewicz</dc:title>
                    </cc:Agent>
                </dc:rights>
                <dc:date>2010</dc:date>
                <dc:format>image/svg+xml</dc:format>
                <dc:type rdf:resource="http://purl.org/dc/dcmitype/StillImage" />
                <cc:license rdf:resource="http://creativecommons.org/licenses/by-sa/3.0/" />
             </cc:Work>
        </rdf:RDF>
    </metadata>
    <path d="M 15.15625 24.1875 C 11.06279 24.1875 7.75 27.50028 7.75 31.59375 L 7.75 44.71875 L 7.75 55.9375 L 7.75 96.4375 C 7.75 100.53096 11.06279 103.8125 15.15625 103.8125 L 112.84375 103.8125 C 116.93721 103.8125 120.25 100.53096 120.25 96.4375 L 120.25 44.71875 C 120.25 40.62528 116.93713 37.3689 112.84375 37.34375 L 53.40625 37.34375 L 53.40625 31.59375 C 53.40625 27.50028 50.12471 24.1875 46.03125 24.1875 L 15.15625 24.1875 z M 33.53125 40.28125 L 40 55.375 L 35.1875 55.375 L 35.1875 84.40625 L 91.125 84.40625 L 91.125 79.59375 L 106.1875 86.0625 L 91.125 92.5 L 91.125 87.6875 L 35.1875 87.6875 L 35.1875 97.59375 L 31.875 97.59375 L 31.875 87.6875 L 21.8125 87.6875 L 21.8125 84.40625 L 31.875 84.40625 L 31.875 55.375 L 27.03125 55.375 L 33.53125 40.28125 z M 55.59375 48.6875 L 56.375 48.6875 L 66.59375 73.125 C 67.417021 75.08936 68.179315 76.376558 68.84375 76.96875 C 69.522573 77.546503 70.457377 77.865277 71.65625 77.9375 L 71.65625 78.75 L 60.03125 78.75 L 60.03125 77.9375 C 61.20118 77.879726 62.033051 77.707208 62.4375 77.375 C 62.856339 77.042793 63.062474 76.632898 63.0625 76.15625 C 63.062474 75.520727 62.765225 74.497165 62.1875 73.125 L 60.375 68.90625 L 49 68.90625 L 47.03125 73.5625 C 46.540154 74.703564 46.312485 75.561695 46.3125 76.125 C 46.312485 76.572759 46.518612 76.934601 46.9375 77.28125 C 47.370796 77.613457 48.303256 77.836401 49.71875 77.9375 L 49.71875 78.75 L 40.4375 78.75 L 40.4375 77.9375 C 41.665217 77.720845 42.482661 77.471652 42.84375 77.125 C 43.580379 76.4317 44.385725 75.02949 45.28125 72.90625 L 55.59375 48.6875 z M 54.8125 55.46875 L 49.71875 67.3125 L 59.78125 67.3125 L 54.8125 55.46875 z M 79.78125 62.0625 C 81.318053 62.062517 82.547755 62.372629 83.4375 63.03125 C 84.338779 63.678346 84.890472 64.393632 85.15625 65.15625 C 85.318011 65.641574 85.406233 66.786454 85.40625 68.53125 L 85.40625 74.8125 C 85.406229 75.552026 85.47341 76.022317 85.53125 76.21875 C 85.589005 76.403632 85.634436 76.53255 85.75 76.625 C 85.865539 76.717449 86.03727 76.781253 86.1875 76.78125 C 86.487918 76.781253 86.750506 76.552539 87.0625 76.125 L 87.59375 76.53125 C 87.01598 77.386324 86.405209 78.013379 85.78125 78.40625 C 85.168813 78.787565 84.50448 79 83.71875 79 C 82.794346 79 82.05122 78.771288 81.53125 78.34375 C 81.011261 77.90466 80.709289 77.221933 80.59375 76.34375 C 78.617822 78.088559 76.821478 79 75.25 79 C 74.325597 79 73.581159 78.694612 72.96875 78.09375 C 72.356314 77.481336 72.03125 76.725349 72.03125 75.8125 C 72.03125 74.576114 72.561934 73.450932 73.625 72.46875 C 74.688066 71.475025 77.023226 70.172074 80.59375 68.53125 L 80.59375 66.90625 C 80.593742 65.68143 80.513647 64.874499 80.375 64.5625 C 80.247887 64.238974 79.994741 63.981115 79.625 63.75 C 79.255233 63.507358 78.837189 63.406266 78.375 63.40625 C 77.623909 63.406266 77.016546 63.539918 76.53125 63.875 C 76.230816 64.083004 76.093741 64.316443 76.09375 64.59375 C 76.093741 64.836419 76.238958 65.141808 76.5625 65.5 C 77.001581 65.996878 77.218741 66.50656 77.21875 66.96875 C 77.218741 67.534957 76.990023 68.001835 76.5625 68.40625 C 76.146501 68.799132 75.619243 69.000009 74.9375 69 C 74.209535 69.000009 73.590605 68.782851 73.09375 68.34375 C 72.608445 67.90467 72.375 67.370568 72.375 66.78125 C 72.375 65.949301 72.685114 65.188592 73.34375 64.4375 C 74.002392 63.674884 74.946386 63.060691 76.125 62.65625 C 77.303596 62.251841 78.510188 62.062517 79.78125 62.0625 z M 80.59375 69.65625 C 79.195575 70.476665 78.1505 71.376551 77.46875 72.3125 C 77.018093 72.936478 76.781241 73.583227 76.78125 74.21875 C 76.781241 74.750284 76.993667 75.189327 77.375 75.59375 C 77.663868 75.90574 78.073771 76.093754 78.59375 76.09375 C 79.171504 76.093754 79.831101 75.772084 80.59375 75.125 L 80.59375 69.65625 z " style="fill:#aaaaaa"/>
</svg>