<?xml version="1.0" encoding="UTF-8" standalone="no"?>
<svg xmlns:dc="http://purl.org/dc/elements/1.1/"
     xmlns:cc="http://creativecommons.org/ns#"
     xmlns:rdf="http://www.w3.org/1999/02/22-rdf-syntax-ns#"
     xmlns:svg="http://www.w3.org/2000/svg"
     xmlns="http://www.w3.org/2000/svg"
     xmlns:xlink="http://www.w3.org/1999/xlink"
     width="128" height="128" version="1.1">
    <title>Folder Web Icon</title>
    <desc>This is shape (source) for Clarity vector icon theme for gtk</desc>
    <metadata>
        <rdf:RDF>
            <cc:Work rdf:about="">
                <dc:title>Folder Web Icon</dc:title>
                <dc:description>This is shape (source) for Clarity vector icon theme for gtk</dc:description>
                <dc:creator>
                    <cc:Agent>
                        <dc:title>Jakub Jankiewicz</dc:title>
                    </cc:Agent>
                </dc:creator>
                <dc:rights>
                    <cc:Agent>
                        <dc:title>Jakub Jankiewicz</dc:title>
                    </cc:Agent>
                </dc:rights>
                <dc:date>2010</dc:date>
                <dc:format>image/svg+xml</dc:format>
                <dc:type rdf:resource="http://purl.org/dc/dcmitype/StillImage" />
                <cc:license rdf:resource="http://www.gnu.org/copyleft/gpl.html" />
             </cc:Work>
        </rdf:RDF>
    </metadata>
    <path d="M 15.15625 24.15625 C 11.06279 24.15625 7.75 27.469038 7.75 31.5625 L 7.75 44.6875 L 7.75 55.90625 L 7.75 96.4375 C 7.75 100.53096 11.06279 103.8125 15.15625 103.8125 L 112.84375 103.8125 C 116.93721 103.8125 120.25 100.53096 120.25 96.4375 L 120.25 44.6875 C 120.25 40.594038 116.93713 37.33765 112.84375 37.3125 L 53.40625 37.3125 L 53.40625 31.5625 C 53.40625 27.469038 50.12471 24.15625 46.03125 24.15625 L 15.15625 24.15625 z M 64 45.09375 C 77.911009 45.09375 89.1875 56.368962 89.1875 70.28125 C 89.1875 84.194164 77.911009 95.5 64 95.5 C 50.087721 95.5 38.8125 84.194037 38.8125 70.28125 C 38.8125 56.368962 50.087721 45.09375 64 45.09375 z M 64 47.03125 C 62.393157 47.03125 60.827189 47.221692 59.3125 47.53125 L 59.125 47.5625 L 57.90625 47.875 L 57.28125 48.53125 L 59.40625 50 L 59.40625 50.84375 L 58.5625 51.65625 L 59.65625 53.875 L 60.40625 53.46875 L 61.34375 51.96875 C 62.776912 51.525655 64.044049 51.036306 65.40625 50.40625 L 66.53125 47.5625 L 65.21875 47.0625 C 64.813162 47.04151 64.410844 47.03125 64 47.03125 z M 53.75 49.4375 C 53.398574 49.610491 53.028615 49.778815 52.6875 49.96875 L 52.53125 50.28125 L 52.40625 50.09375 C 52.238505 50.18997 52.10258 50.305997 51.9375 50.40625 L 51.96875 50.84375 L 51.21875 51.4375 L 50.78125 52.59375 L 51.6875 52.59375 L 52.125 51.5625 C 52.525089 51.279568 52.936263 50.99109 53.34375 50.71875 L 54.28125 51.03125 C 54.899434 51.451244 55.537554 51.861894 56.15625 52.28125 L 57.0625 51.4375 L 56.03125 51.03125 L 55.59375 50.09375 L 53.8125 49.875 L 53.75 49.4375 z M 75.75 50.21875 L 74.0625 50.625 L 72.9375 51.375 L 72.9375 51.96875 L 71.1875 53.125 L 71.5625 54.8125 L 72.59375 54.09375 L 73.21875 54.8125 L 73.96875 55.21875 L 74.4375 53.96875 L 74.15625 53.25 L 74.4375 52.71875 L 75.4375 51.75 L 75.90625 51.75 L 75.4375 52.8125 L 75.4375 53.78125 C 75.863748 53.665241 76.313792 53.616739 76.75 53.5625 L 75.5625 54.375 L 75.4375 54.9375 L 74.0625 56.0625 L 72.65625 55.75 L 72.65625 54.9375 L 72.03125 55.34375 L 72.3125 56.0625 L 71.25 56.0625 L 70.6875 57.03125 L 70.03125 57.8125 L 68.78125 58.0625 L 69.53125 58.8125 L 69.6875 59.5625 L 68.78125 59.5625 L 67.5625 60.15625 L 67.5625 62.0625 L 68.125 62.0625 L 68.625 62.625 L 69.8125 62.0625 L 70.25 60.9375 L 71.09375 60.375 L 71.25 59.96875 L 72.65625 59.65625 L 73.40625 60.5 L 74.25 60.9375 L 73.78125 61.84375 L 74.5 61.65625 L 74.875 60.6875 L 73.96875 59.65625 L 74.34375 59.65625 L 75.28125 60.375 L 75.4375 61.4375 L 76.28125 62.375 L 76.46875 61 L 76.96875 60.8125 C 77.427416 61.288646 77.738692 61.839125 78.125 62.375 L 79.53125 62.46875 L 80.375 63 L 80 63.53125 L 79.15625 64.25 L 77.96875 64.25 L 76.40625 63.75 L 75.5625 63.84375 L 74.9375 64.53125 L 73.21875 62.8125 L 72.03125 62.46875 L 70.25 62.6875 L 68.6875 63.125 C 67.802593 64.128213 66.900069 65.114377 66.0625 66.15625 L 65.0625 68.5625 L 65.5 69.125 L 64.6875 70.375 L 65.625 72.5625 C 66.413808 73.454812 67.181081 74.357058 67.96875 75.25 L 69.125 74.25 L 69.65625 74.84375 L 70.90625 74.03125 L 71.3125 74.5 L 72.59375 74.5 L 73.3125 75.34375 L 72.875 76.75 L 73.71875 77.75 L 73.6875 79.5 L 74.34375 80.75 L 73.875 81.8125 C 73.82877 82.585108 73.78125 83.352266 73.78125 84.125 C 74.161425 85.171852 74.51601 86.195615 74.875 87.25 L 75.15625 88.9375 L 75.15625 89.78125 L 75.84375 89.78125 L 76.84375 89.15625 L 77.625 89.15625 C 78.099717 88.812606 78.553227 88.440206 79 88.0625 L 79.875 87.125 L 79.65625 86.4375 L 80.8125 85.375 L 79.96875 84.375 L 81.03125 83.46875 L 82.03125 82.84375 L 82.5 82.3125 L 82.21875 81.15625 L 82.21875 78.21875 L 83.0625 76.46875 L 84.0625 75.3125 L 85.1875 72.5625 L 85.1875 71.84375 C 84.635204 71.9133 84.102805 71.961068 83.5625 72 L 84.65625 70.875 L 86.21875 69.84375 L 87.0625 68.875 L 87.0625 67.8125 C 86.876808 67.462319 86.686966 67.131443 86.5 66.78125 L 85.75 67.625 L 85.1875 67 L 84.34375 66.375 L 84.34375 65.03125 L 85.34375 66.125 L 86.40625 65.9375 C 86.584927 66.099699 86.763062 66.275469 86.9375 66.4375 C 86.01384 60.896647 83.13381 56.008132 79.03125 52.53125 L 78.6875 52.9375 L 77.5 51.65625 L 77.9375 51.65625 C 77.239542 51.133557 76.50565 50.661665 75.75 50.21875 z M 51.09375 50.9375 C 44.854573 55.10068 40.759286 62.180823 40.75 70.25 L 42.3125 71.1875 L 44.25 71.71875 L 45.09375 72.75 L 46.40625 73.71875 L 47.15625 73.59375 L 47.71875 73.875 L 47.71875 74.03125 L 46.9375 76.03125 L 46.40625 76.875 L 46.59375 77.3125 L 46.125 78.875 L 47.78125 81.90625 L 49.4375 83.375 L 50.21875 84.40625 L 50.125 86.625 L 50.65625 87.90625 L 50.375 89.15625 C 51.433545 89.923087 52.567491 90.60527 53.75 91.1875 L 54.1875 90.71875 L 54.46875 90 L 55.6875 89.59375 L 56.59375 87.25 L 56.34375 86.625 L 56.96875 85.6875 L 58.375 85.375 L 59.09375 83.6875 L 58.9375 81.59375 L 60.03125 80.03125 L 60.21875 78.4375 C 58.695748 77.682258 57.19915 76.933826 55.6875 76.15625 L 54.9375 74.65625 L 53.53125 74.34375 L 52.8125 72.375 L 50.96875 72.5625 L 49.375 71.40625 L 47.71875 72.875 L 47.71875 73.125 C 47.213378 72.979132 46.574986 72.932933 46.125 72.65625 L 45.75 71.59375 L 45.75 70.46875 L 44.65625 70.5625 C 44.74916 69.827153 44.812707 69.078969 44.90625 68.34375 L 44.25 68.34375 L 43.625 69.1875 L 42.96875 69.53125 L 42.03125 69 L 41.96875 67.8125 L 42.125 66.59375 L 43.53125 65.53125 L 44.65625 65.53125 L 44.8125 64.90625 L 46.21875 65.21875 L 47.21875 66.46875 L 47.4375 64.375 L 49.1875 62.875 L 49.84375 61.3125 L 51.125 60.8125 L 51.875 59.75 L 53.53125 59.4375 L 54.375 58.1875 L 51.875 58.1875 L 53.46875 57.4375 L 54.59375 57.4375 L 56.15625 56.90625 L 56.34375 56.28125 L 55.78125 55.75 L 55.125 55.5625 L 55.3125 54.9375 L 54.84375 53.96875 L 53.75 54.375 L 53.90625 53.5625 L 52.625 52.8125 L 51.59375 54.625 L 51.6875 55.21875 L 50.65625 55.65625 L 50 57.03125 L 49.71875 55.75 L 47.96875 55.03125 L 47.71875 54.09375 L 50 52.71875 L 51.03125 51.75 L 51.09375 50.9375 z M 66.625 51.5625 L 65.875 51.96875 L 65.5 51.875 L 65.40625 52.5 L 66.0625 52.9375 L 67.15625 52.1875 L 66.625 51.5625 z M 54.375 51.75 L 53.65625 52.28125 L 54.59375 52.9375 L 55.3125 52.9375 L 55.3125 52.1875 L 54.375 51.75 z M 69.0625 54.1875 L 69.0625 54.8125 L 69.40625 55.21875 L 69.40625 56.1875 L 69.21875 57.4375 L 70.25 57.21875 L 70.96875 56.5 L 70.34375 55.875 C 70.125647 55.294205 69.866726 54.744559 69.59375 54.1875 L 69.0625 54.1875 z M 68.65625 55.46875 L 68 55.65625 L 68.21875 56.8125 L 69.0625 56.375 L 68.65625 55.46875 z M 55.875 57.34375 L 56.15625 58.8125 L 56.71875 57.9375 L 55.875 57.34375 z M 80.09375 65.5625 L 81.15625 66.71875 L 82.40625 69.40625 L 83.15625 70.25 L 82.78125 71.1875 L 83.5 72 C 83.17287 72.02193 82.836393 72.03125 82.5 72.03125 C 81.909245 70.789895 81.4811 69.548649 81.03125 68.25 L 80.25 67.375 L 79.8125 65.84375 L 80.09375 65.5625 z M 50.1875 90.59375 C 50.324135 90.729377 50.790866 90.997533 51.28125 91.28125 C 50.915608 91.058994 50.540315 90.834238 50.1875 90.59375 z " style="fill:#aaaaaa"/>
</svg>