<?xml version="1.0" encoding="UTF-8" standalone="no"?>
<svg xmlns:dc="http://purl.org/dc/elements/1.1/"
     xmlns:cc="http://creativecommons.org/ns#"
     xmlns:rdf="http://www.w3.org/1999/02/22-rdf-syntax-ns#"
     xmlns:svg="http://www.w3.org/2000/svg"
     xmlns="http://www.w3.org/2000/svg"
     xmlns:xlink="http://www.w3.org/1999/xlink"
     width="128" height="128" version="1.1">
    <title>Folder Window Icon</title>
    <desc>This is shape (source) for Clarity vector icon theme for gtk</desc>
    <metadata>
        <rdf:RDF>
            <cc:Work rdf:about="">
                <dc:title>Folder Window Icon</dc:title>
                <dc:description>This is shape (source) for Clarity vector icon theme for gtk</dc:description>
                <dc:creator>
                    <cc:Agent>
                        <dc:title>Jakub Jankiewicz</dc:title>
                    </cc:Agent>
                </dc:creator>
                <dc:rights>
                    <cc:Agent>
                        <dc:title>Jakub Jankiewicz</dc:title>
                    </cc:Agent>
                </dc:rights>
                <dc:date>2010</dc:date>
                <dc:format>image/svg+xml</dc:format>
                <dc:type rdf:resource="http://purl.org/dc/dcmitype/StillImage" />
                <cc:license rdf:resource="http://www.gnu.org/copyleft/gpl.html" />
             </cc:Work>
        </rdf:RDF>
    </metadata>
    <path d="M 15.15625 24.15625 C 11.06279 24.15625 7.75 27.469038 7.75 31.5625 L 7.75 44.6875 L 7.75 55.90625 L 7.75 96.4375 C 7.75 100.53096 11.06279 103.8125 15.15625 103.8125 L 112.84375 103.8125 C 116.93721 103.8125 120.25 100.53096 120.25 96.4375 L 120.25 44.6875 C 120.25 40.594038 116.93713 37.33765 112.84375 37.3125 L 53.40625 37.3125 L 53.40625 31.5625 C 53.40625 27.469038 50.12471 24.15625 46.03125 24.15625 L 15.15625 24.15625 z M 51.0625 51.0625 C 51.909233 51.043006 52.732597 51.113059 53.53125 51.21875 C 57.478306 51.74109 60.854621 53.660467 64.25 55.5625 L 62.625 69.875 C 59.392967 68.047078 56.01495 66.227099 51.9375 65.6875 C 49.349456 65.345009 46.509202 65.553242 43.375 66.65625 L 44.96875 52.3125 C 46.172073 51.845856 47.341581 51.551854 48.4375 51.34375 C 49.35077 51.170326 50.215767 51.08199 51.0625 51.0625 z M 86.53125 56.96875 L 84.90625 71.34375 C 84.631915 71.337627 84.356268 71.414809 84.125 71.5625 C 76.743655 75.542869 71.979414 74.512841 67.25 72.3125 C 66.603978 72.011942 65.954916 71.68817 65.3125 71.34375 L 66.875 57 C 72.217876 59.766049 78.021208 61.557773 86.53125 56.96875 z M 49.09375 68.28125 C 49.636188 68.26497 50.165441 68.30621 50.6875 68.34375 C 50.985818 68.3652 51.30166 68.39885 51.59375 68.4375 C 55.381505 68.938765 58.742487 70.953796 62.34375 72.9375 L 60.71875 87.21875 C 55.124327 84.08221 49.635932 80.86405 41.46875 84.03125 L 43.03125 69.5625 C 43.258246 69.60943 43.496948 69.59858 43.71875 69.53125 C 45.036911 69.020077 46.282362 68.621328 47.4375 68.4375 C 48.015068 68.34558 48.551312 68.29752 49.09375 68.28125 z M 64.9375 74.3125 C 65.295137 74.491218 65.665338 74.673514 66.03125 74.84375 C 70.994367 77.15282 76.926206 78.288992 84.5625 74.46875 L 83 88.625 C 74.491618 93.21313 68.68471 91.423468 63.34375 88.65625 L 64.9375 74.3125 z " style="fill:#aaaaaa"/>
</svg>