<?xml version="1.0" encoding="UTF-8" standalone="no"?>
<svg xmlns:dc="http://purl.org/dc/elements/1.1/"
     xmlns:cc="http://creativecommons.org/ns#"
     xmlns:rdf="http://www.w3.org/1999/02/22-rdf-syntax-ns#"
     xmlns:svg="http://www.w3.org/2000/svg"
     xmlns="http://www.w3.org/2000/svg"
     xmlns:xlink="http://www.w3.org/1999/xlink"
     width="128" height="128" version="1.1">
    <title>Clarity Icon</title>
    <desc>This is shape (source) for Clarity vector icon theme for gtk</desc>
    <metadata>
        <rdf:RDF>
            <cc:Work rdf:about="">
                <dc:title>Clarity Icon</dc:title>
                <dc:description>This is shape (source) for Clarity vector icon theme for gtk</dc:description>
                <dc:creator>
                    <cc:Agent>
                        <dc:title>Jakub Jankiewicz</dc:title>
                    </cc:Agent>
                </dc:creator>
                <dc:rights>
                    <cc:Agent>
                        <dc:title>Jakub Jankiewicz</dc:title>
                    </cc:Agent>
                </dc:rights>
                <dc:date>2010</dc:date>
                <dc:format>image/svg+xml</dc:format>
                <dc:type rdf:resource="http://purl.org/dc/dcmitype/StillImage" />
                <cc:license rdf:resource="http://www.gnu.org/copyleft/gpl.html" />
             </cc:Work>
        </rdf:RDF>
    </metadata>
    <path d="m 15.15625,26.90625 c -4.093461,0 -7.40625,3.312788 -7.40625,7.40625 l 0,13.125 0,11.21875 0,40.53125 c 0,4.09346 3.312789,7.375 7.40625,7.375 l 69.375,0 c 0.529356,-0.71417 1.170572,-1.79902 1.84375,-3.5 1.437407,-3.632064 1.623447,-5.551942 1.46875,-6.90625 -0.152093,-1.331504 -0.741726,-2.482097 -1.75,-4.5 -1.873223,-3.748937 -3.511724,-10.41744 -1.125,-20.875 1.565513,-6.877231 2.975701,-12.558206 4.15625,-16.75 0.588095,-2.088159 1.108816,-3.800575 1.59375,-5.15625 0.458072,-1.280579 0.757015,-2.337725 1.75,-3.4375 1.910898,-2.116386 4.478523,-2.255726 6.96875,-2.25 3.79922,0.0088 8.4008,0.934499 12.65625,2.5625 3.02086,1.155687 5.9693,2.651187 8.15625,4.84375 l 0,-3.15625 c 0,-4.093462 -3.31287,-7.34985 -7.40625,-7.375 l -59.4375,0 0,-5.75 c 0,-4.093462 -3.28154,-7.40625 -7.375,-7.40625 z m 84.28125,19.0625 c -2.21806,-0.0051 -3.97758,0.315216 -4.90625,1.34375 -0.43691,0.483897 -0.742571,1.256163 -1.1875,2.5 -0.444929,1.243837 -0.951618,2.910641 -1.53125,4.96875 -1.159265,4.116219 -2.566271,9.77757 -4.125,16.625 -2.271112,9.951001 -0.686221,15.81294 0.90625,19 0.98718,1.975687 1.809495,3.496131 2.03125,5.4375 0.221755,1.941369 -0.124212,4.37882 -1.65625,8.25 -1.103273,2.78775 -2.217701,4.40572 -3.25,5.34375 -0.998737,0.90753 -1.917505,1.211 -2.875,1.34375 -2.552144,-0.60828 -4.777115,-0.93378 -6.5,-0.9375 -0.873022,-0.002 -1.642579,0.0833 -2.25,0.28125 -0.607421,0.19796 -1.103882,0.55254 -1.3125,1.125 -0.285399,0.78318 0.08231,1.56841 0.71875,2.3125 0.636438,0.74409 1.598677,1.5126 2.8125,2.3125 2.427646,1.59981 5.916963,3.28157 9.90625,4.71875 3.988231,1.4368 7.711638,2.36123 10.59375,2.6875 1.44106,0.16314 2.693013,0.19399 3.65625,0.0312 0.96324,-0.16259 1.74642,-0.53086 2.03125,-1.3125 0.20872,-0.57277 0.0541,-1.17112 -0.28125,-1.71875 -0.33534,-0.54763 -0.8613,-1.09028 -1.53125,-1.65625 -1.322427,-1.11719 -3.25691,-2.33621 -5.625,-3.5 -1.023422,-1.05031 -1.908537,-1.88643 -2.375,-3.1875 -0.479138,-1.33642 -0.562782,-3.25574 0.25,-6.53125 1.59899,-6.443874 3.51786,-8.345503 5.8125,-9.8125 2.29464,-1.466997 5.13799,-2.463767 8.125,-6.625 4.99406,-6.957251 6.33576,-12.363913 9.1875,-20.40625 1.51559,-4.274179 2.58134,-7.395712 3.25,-9.5625 0.33433,-1.083394 0.56306,-1.912119 0.6875,-2.5625 0.12444,-0.650381 0.24468,-1.075175 0,-1.5625 -1.44352,-2.875053 -4.96666,-5.024089 -8.90625,-6.53125 -3.93959,-1.507161 -8.33311,-2.367345 -11.65625,-2.375 z m 0.4375,2.96875 c 2.31708,0.02032 5.34025,0.575284 7.75,1.4375 2.62896,0.940652 5.12504,2.060806 6.90625,3.125 0.8906,0.532097 1.59443,1.026816 2.03125,1.46875 0.43682,0.441934 0.54747,0.783197 0.53125,0.875 -0.6169,3.492084 -1.79703,6.198787 -2.375,7.6875 -1.29117,-0.84638 -2.74708,-0.86011 -4.125,-0.40625 -1.6271,0.535936 -3.28185,1.5527 -5.0625,2.3125 -1.78065,0.7598 -3.62818,1.266234 -5.6875,0.875 -2.00121,-0.380194 -4.25457,-1.644257 -6.78125,-4.5 0.100445,-0.383714 2.0098,-7.67852 3.375,-12.03125 0.0437,-0.139463 0.29178,-0.412004 0.90625,-0.59375 0.61447,-0.181746 1.50973,-0.258956 2.53125,-0.25 z m 20.375,16.03125 c -0.47072,1.37422 -0.94984,2.803464 -1.5625,4.53125 -2.8122,7.930842 -4.27577,13.77231 -9.53125,21.09375 -3.35327,4.671467 -7.00989,6.131378 -8.90625,7.34375 -0.983632,0.62885 -1.619986,1.122145 -2.34375,2.21875 -0.723764,1.09661 -1.497912,2.90661 -2.25,5.9375 -0.04471,0.18017 -0.05549,0.30072 -0.09375,0.46875 l 17.28125,0 c 4.09346,0 7.40625,-3.28153 7.40625,-7.375 z" style="fill:#aaaaaa"/>
</svg>