<?xml version="1.0" encoding="UTF-8" standalone="no"?>
<svg xmlns:dc="http://purl.org/dc/elements/1.1/"
     xmlns:cc="http://creativecommons.org/ns#"
     xmlns:rdf="http://www.w3.org/1999/02/22-rdf-syntax-ns#"
     xmlns:svg="http://www.w3.org/2000/svg"
     xmlns="http://www.w3.org/2000/svg"
     xmlns:xlink="http://www.w3.org/1999/xlink"
     width="128" height="128" version="1.1">
    <title>Share Folder Icon</title>
    <desc>This is shape (source) for Clarity vector icon theme for gtk</desc>
    <metadata>
        <rdf:RDF>
            <cc:Work rdf:about="">
                <dc:title>Share Folder Icon</dc:title>
                <dc:description>This is shape (source) for Clarity vector icon theme for gtk</dc:description>
                <dc:creator>
                    <cc:Agent>
                        <dc:title>Jakub Jankiewicz</dc:title>
                    </cc:Agent>
                </dc:creator>
                <dc:rights>
                    <cc:Agent>
                        <dc:title>Jakub Jankiewicz</dc:title>
                    </cc:Agent>
                </dc:rights>
                <dc:date>2010</dc:date>
                <dc:format>image/svg+xml</dc:format>
                <dc:type rdf:resource="http://purl.org/dc/dcmitype/StillImage" />
                <cc:license rdf:resource="http://creativecommons.org/licenses/by-sa/3.0/" />
             </cc:Work>
        </rdf:RDF>
    </metadata>
    <path d="M 15.15625 24.1875 C 11.06279 24.1875 7.75 27.50028 7.75 31.59375 L 7.75 44.71875 L 7.75 55.9375 L 7.75 96.4375 C 7.75 100.53096 11.06279 103.8125 15.15625 103.8125 L 112.84375 103.8125 C 116.93721 103.8125 120.25 100.53096 120.25 96.4375 L 120.25 44.71875 C 120.25 40.62528 116.93713 37.3689 112.84375 37.34375 L 53.40625 37.34375 L 53.40625 31.59375 C 53.40625 27.50028 50.12471 24.1875 46.03125 24.1875 L 15.15625 24.1875 z M 23.9375 51.75 C 25.258766 51.743667 26.67797 51.844915 27.4375 52.25 C 28.652749 52.898132 29.795151 54.033586 30.28125 54.84375 C 30.76735 55.653913 30.8646 55.84375 31.59375 55.84375 C 32.322899 55.84375 34.078734 57.209518 35.375 58.34375 C 36.671265 59.477983 38.09375 60.520852 38.09375 61.25 C 38.09375 61.979147 38.395851 61.650469 39.125 61.8125 C 39.854149 61.974532 40.259284 62.40858 41.3125 63.21875 C 42.365716 64.028913 45.511619 65.719915 47.375 66.125 C 48.615834 66.394726 50.072679 66.638877 51.625 66.40625 C 51.227702 66.850832 50.857513 67.349684 50.53125 67.90625 C 49.86217 69.047631 49.62925 70.178339 49.84375 71.21875 C 50.05825 72.259161 50.738834 73.170844 51.6875 73.78125 C 52.574695 74.352107 53.918583 74.811693 55.4375 75.25 C 56.956417 75.688307 58.614867 76.082333 60 76.4375 C 61.442682 76.807414 63.54707 77.148968 65.5 77.375 C 66.476465 77.488019 67.417329 77.56495 68.21875 77.59375 C 69.020171 77.622554 69.645425 77.621634 70.15625 77.5 C 70.786557 77.349927 72.687574 77.105989 74.65625 76.9375 C 76.624926 76.76901 78.751676 76.65625 80.03125 76.65625 C 82.696073 76.65625 85.84375 76.53125 85.84375 76.53125 C 86.184964 76.515258 86.45349 76.184958 86.4375 75.84375 C 86.421505 75.502535 86.122464 75.20278 85.78125 75.21875 C 85.78125 75.21875 82.649106 75.375 80.03125 75.375 C 78.669483 75.375 76.524585 75.485649 74.53125 75.65625 C 72.537916 75.82685 70.743832 76.043134 69.875 76.25 C 69.636256 76.30646 69.032509 76.33954 68.28125 76.3125 C 67.529992 76.285521 66.607249 76.203817 65.65625 76.09375 C 63.754252 75.873609 61.685184 75.500208 60.34375 75.15625 C 58.944768 74.797538 57.291435 74.395522 55.8125 73.96875 C 54.333566 73.541977 53.0199 73.082347 52.40625 72.6875 C 51.699306 72.232621 51.264014 71.67427 51.125 71 C 50.985987 70.32573 51.111746 69.491358 51.65625 68.5625 C 52.757846 66.683304 54.875 65.375 54.875 65.375 C 54.973857 65.322931 55.06454 65.21896 55.125 65.125 C 57.631287 64.209031 61.271381 63.93004 64 64 C 67.159647 64.081015 68.606535 64.563662 70.875 64.96875 C 73.143465 65.373829 75.723418 64.06865 77.34375 62.59375 C 78.964081 61.11885 83.683221 59.369639 86.84375 58.5625 C 90.043047 57.745468 95.1077 57.274149 97.78125 57.90625 C 100.4548 58.538344 102.97341 60.500952 104.59375 61.34375 C 106.21408 62.186549 110.85023 64 112.53125 64 L 112.53125 82.0625 C 112.53125 86.356384 111.71063 86.3507 111.0625 86.59375 C 110.41437 86.8368 108.89001 86.11572 107.59375 85.0625 C 106.29748 84.00929 99.3194 82.78125 97.375 82.78125 C 95.4306 82.78125 93.089029 82.47342 89.28125 84.09375 C 85.47347 85.71408 75.726816 89.053453 74.1875 89.5 C 72.648185 89.94658 71.534699 89.53125 70.5625 89.53125 C 69.590301 89.53125 68.528916 89.846586 67.71875 90.125 C 66.908585 90.403414 65.458298 91.178071 64 90.875 C 62.541701 90.57193 61.664316 90.178475 60.125 89.21875 C 58.585685 88.25903 54.672329 84.538064 49.40625 82.0625 C 44.140173 79.586941 38.555498 76.891128 36.125 73.8125 C 33.694502 70.733872 29.402696 67.328634 26 64.25 C 22.597303 61.171372 19.679382 59.460631 19.03125 58.8125 C 18.383117 58.164368 18.226867 57.70023 18.875 57.78125 C 19.523133 57.862266 19.611099 56.060163 19.125 55.25 C 18.6389 54.439837 19.201401 53.381953 19.6875 53.625 C 20.1736 53.868053 20.497718 52.037031 21.875 51.875 C 22.391481 51.814262 23.14474 51.7539 23.9375 51.75 z " style="fill:#aaaaaa"/>
</svg>