<?xml version="1.0" encoding="UTF-8" standalone="no"?>
<svg xmlns:dc="http://purl.org/dc/elements/1.1/"
     xmlns:cc="http://creativecommons.org/ns#"
     xmlns:rdf="http://www.w3.org/1999/02/22-rdf-syntax-ns#"
     xmlns:svg="http://www.w3.org/2000/svg"
     xmlns="http://www.w3.org/2000/svg"
     xmlns:xlink="http://www.w3.org/1999/xlink"
     width="128" height="128" version="1.1">
    <title>Folder Apple Icon</title>
    <desc>This is shape (source) for Clarity vector icon theme for gtk</desc>
    <metadata>
        <rdf:RDF>
            <cc:Work rdf:about="">
                <dc:title>Folder Apple Icon</dc:title>
                <dc:description>This is shape (source) for Clarity vector icon theme for gtk</dc:description>
                <dc:creator>
                    <cc:Agent>
                        <dc:title>Jakub Jankiewicz</dc:title>
                    </cc:Agent>
                </dc:creator>
                <dc:rights>
                    <cc:Agent>
                        <dc:title>Jakub Jankiewicz</dc:title>
                    </cc:Agent>
                </dc:rights>
                <dc:date>2010</dc:date>
                <dc:format>image/svg+xml</dc:format>
                <dc:type rdf:resource="http://purl.org/dc/dcmitype/StillImage" />
                <cc:license rdf:resource="http://www.gnu.org/copyleft/gpl.html" />
             </cc:Work>
        </rdf:RDF>
    </metadata>
    <path d="M 15.15625 24.1875 C 11.06279 24.1875 7.75 27.500288 7.75 31.59375 L 7.75 44.71875 L 7.75 55.9375 L 7.75 96.4375 C 7.75 100.53096 11.06279 103.8125 15.15625 103.8125 L 112.84375 103.8125 C 116.93721 103.8125 120.25 100.53096 120.25 96.4375 L 120.25 44.71875 C 120.25 40.625288 116.93713 37.3689 112.84375 37.34375 L 53.40625 37.34375 L 53.40625 31.59375 C 53.40625 27.500288 50.12471 24.1875 46.03125 24.1875 L 15.15625 24.1875 z M 73.21875 47.125 C 73.49995 49.829206 72.408212 52.548946 70.78125 54.53125 C 69.16575 56.438681 66.515617 57.968831 63.9375 57.8125 C 63.570452 55.138049 64.889248 52.344395 66.375 50.625 C 68.054398 48.65489 70.89842 47.21451 73.21875 47.125 z M 72.46875 58.25 C 72.692152 58.252235 72.931037 58.257867 73.15625 58.28125 C 74.665415 58.34686 78.874179 58.93405 81.59375 62.875 C 81.379618 63.019137 76.539851 65.87936 76.59375 71.6875 C 76.66643 78.699705 82.745432 80.976587 82.8125 81 C 82.75421 81.176329 81.856311 84.369369 79.625 87.625 C 77.696351 90.433345 75.683474 93.262991 72.53125 93.3125 C 69.429998 93.36811 68.446008 91.4375 64.90625 91.4375 C 61.372588 91.4375 60.273062 93.238635 57.34375 93.34375 C 54.313957 93.467644 51.970142 90.293712 50.03125 87.5 C 46.071032 81.775025 43.036255 71.255831 47.125 64.21875 C 49.135107 60.698746 52.750451 58.468929 56.6875 58.40625 C 59.657541 58.35016 62.480641 60.4375 64.28125 60.4375 C 66.01825 60.4375 69.117727 58.21648 72.46875 58.25 z " style="fill:#aaaaaa"/>
</svg>