<?xml version="1.0" encoding="UTF-8" standalone="no"?>
<svg xmlns:dc="http://purl.org/dc/elements/1.1/"
     xmlns:cc="http://creativecommons.org/ns#"
     xmlns:rdf="http://www.w3.org/1999/02/22-rdf-syntax-ns#"
     xmlns:svg="http://www.w3.org/2000/svg"
     xmlns="http://www.w3.org/2000/svg"
     xmlns:xlink="http://www.w3.org/1999/xlink"
     width="128" height="128" version="1.1">
    <title>Clarity Icon</title>
    <desc>This is shape (source) for Clarity vector icon theme for gtk</desc>
    <metadata>
        <rdf:RDF>
            <cc:Work rdf:about="">
                <dc:title>Clarity Icon</dc:title>
                <dc:description>This is shape (source) for Clarity vector icon theme for gtk</dc:description>
                <dc:creator>
                    <cc:Agent>
                        <dc:title>Jakub Jankiewicz</dc:title>
                    </cc:Agent>
                </dc:creator>
                <dc:rights>
                    <cc:Agent>
                        <dc:title>Jakub Jankiewicz</dc:title>
                    </cc:Agent>
                </dc:rights>
                <dc:date>2010</dc:date>
                <dc:format>image/svg+xml</dc:format>
                <dc:type rdf:resource="http://purl.org/dc/dcmitype/StillImage" />
                <cc:license rdf:resource="http://creativecommons.org/licenses/by-sa/3.0/" />
             </cc:Work>
        </rdf:RDF>
    </metadata>
    <path d="M 15.15625 16.84375 C 11.062788 16.84375 7.75 20.156538 7.75 24.25 L 7.75 37.375 L 7.75 48.59375 L 7.75 89.125 C 7.75 93.218455 11.062788 96.5 15.15625 96.5 L 58.15625 96.5 L 58.15625 101.15625 L 52.21875 101.15625 C 50.78024 101.15625 49.625 102.31149 49.625 103.75 L 49.625 108.5625 C 49.625 110.00101 50.78024 111.15625 52.21875 111.15625 L 75.78125 111.15625 C 77.21976 111.15625 78.375 110.00101 78.375 108.5625 L 78.375 103.75 C 78.375 102.31149 77.21976 101.15625 75.78125 101.15625 L 69.84375 101.15625 L 69.84375 96.5 L 112.84375 96.5 C 116.93721 96.5 120.25 93.218455 120.25 89.125 L 120.25 37.375 C 120.25 33.281538 116.93713 30.02515 112.84375 30 L 53.40625 30 L 53.40625 24.25 C 53.40625 20.156538 50.124712 16.84375 46.03125 16.84375 L 15.15625 16.84375 z M 47.5625 53.125 L 56.34375 53.125 L 56.34375 57.125 L 52.75 57.125 L 52.75 60.90625 L 55.96875 60.90625 L 55.96875 64.71875 L 52.75 64.71875 L 52.75 73.09375 L 47.5625 73.09375 L 47.5625 53.125 z M 56.71875 53.125 L 68.0625 53.125 L 68.0625 57.125 L 65 57.125 L 65 73.09375 L 59.8125 73.09375 L 59.8125 57.125 L 56.71875 57.125 L 56.71875 53.125 z M 69.25 53.125 L 74.5 53.125 C 75.913959 53.12502 76.993684 53.24681 77.75 53.46875 C 78.514518 53.690729 79.090586 54.018261 79.46875 54.4375 C 79.855113 54.856775 80.087206 55.368654 80.21875 55.96875 C 80.35849 56.56066 80.437488 57.469214 80.4375 58.71875 L 80.4375 60.46875 C 80.437488 61.742975 80.325551 62.666338 80.0625 63.25 C 79.799425 63.833681 79.300722 64.281371 78.59375 64.59375 C 77.894978 64.906146 76.978202 65.062508 75.84375 65.0625 L 74.4375 65.0625 L 74.4375 73.09375 L 69.25 73.09375 L 69.25 53.125 z M 74.4375 56.5625 L 74.4375 61.625 C 74.585467 61.6332 74.736874 61.65626 74.84375 61.65625 C 75.320546 61.656261 75.631637 61.542692 75.8125 61.3125 C 76.001569 61.074111 76.093742 60.583629 76.09375 59.84375 L 76.09375 58.1875 C 76.093742 57.505194 75.994981 57.080534 75.78125 56.875 C 75.567504 56.669498 75.111593 56.562517 74.4375 56.5625 z M 7.75 102.90625 L 7.75 109.40625 L 47.34375 109.40625 C 47.34265 109.36265 47.34375 109.32515 47.34375 109.28125 L 47.34375 103.84375 C 47.34375 103.52401 47.3816 103.20934 47.4375 102.90625 L 7.75 102.90625 z M 80.5625 102.90625 C 80.6184 103.20934 80.65625 103.52401 80.65625 103.84375 L 80.65625 109.28125 C 80.65625 109.32515 80.65735 109.36265 80.65625 109.40625 L 120.25 109.40625 L 120.25 102.90625 L 80.5625 102.90625 z " style="fill:#aaaaaa"/>
</svg>