<?xml version="1.0" encoding="UTF-8" standalone="no"?>
<svg xmlns:dc="http://purl.org/dc/elements/1.1/"
     xmlns:cc="http://creativecommons.org/ns#"
     xmlns:rdf="http://www.w3.org/1999/02/22-rdf-syntax-ns#"
     xmlns:svg="http://www.w3.org/2000/svg"
     xmlns="http://www.w3.org/2000/svg"
     xmlns:xlink="http://www.w3.org/1999/xlink"
     width="128" height="128" version="1.1">
    <title>Clarity Icon</title>
    <desc>This is shape (source) for Clarity vector icon theme for gtk</desc>
    <metadata>
        <rdf:RDF>
            <cc:Work rdf:about="">
                <dc:title>Clarity Icon</dc:title>
                <dc:description>This is shape (source) for Clarity vector icon theme for gtk</dc:description>
                <dc:creator>
                    <cc:Agent>
                        <dc:title>Jakub Jankiewicz</dc:title>
                    </cc:Agent>
                </dc:creator>
                <dc:rights>
                    <cc:Agent>
                        <dc:title>Jakub Jankiewicz</dc:title>
                    </cc:Agent>
                </dc:rights>
                <dc:date>2010</dc:date>
                <dc:format>image/svg+xml</dc:format>
                <dc:type rdf:resource="http://purl.org/dc/dcmitype/StillImage" />
                <cc:license rdf:resource="http://creativecommons.org/licenses/by-sa/3.0/" />
             </cc:Work>
        </rdf:RDF>
    </metadata>
    <path d="m 64,11.71875 c -24.062416,0 -43.5625,19.500076 -43.5625,43.5625 0,22.079464 16.423294,40.295847 37.71875,43.15625 l 0,7.84375 -5.9375,0 c -1.438509,0 -2.59375,1.15524 -2.59375,2.59375 l 0,4.8125 c 0,1.43851 1.155241,2.59375 2.59375,2.59375 l 23.5625,0 c 1.438511,0 2.59375,-1.15524 2.59375,-2.59375 l 0,-4.8125 c 0,-1.43851 -1.155239,-2.59375 -2.59375,-2.59375 l -5.9375,0 0,-7.84375 C 91.137814,95.577126 107.5625,77.360916 107.5625,55.28125 107.5625,31.218826 88.060219,11.71875 64,11.71875 z m 0,3.34375 c 0.710595,0 1.42351,-0.005 2.125,0.03125 L 68.375,16 66.4375,20.875 c -2.356043,1.089732 -4.55248,1.952384 -7.03125,2.71875 l -1.625,2.5625 L 56.5,26.875 l -1.9375,-3.8125 1.46875,-1.46875 0,-1.4375 -3.6875,-2.53125 1.125,-1.09375 2.125,-0.59375 L 55.875,15.875 C 58.494776,15.339596 61.220842,15.0625 64,15.0625 z m -17.75,4.125 0.15625,0.78125 3.03125,0.375 0.8125,1.625 1.75,0.71875 -1.59375,1.46875 C 49.336175,23.430935 48.2567,22.695161 47.1875,21.96875 l -1.59375,-0.5625 C 44.888968,21.877288 44.191989,22.385645 43.5,22.875 l -0.8125,1.8125 -1.59375,0 0.8125,-2 L 43.1875,21.59375 43.125,20.875 c 0.285522,-0.173394 0.584868,-0.33357 0.875,-0.5 l 0.15625,0.3125 0.28125,-0.59375 c 0.589986,-0.32851 1.204678,-0.607051 1.8125,-0.90625 z m -6.75,1.34375 0.0625,0 c -0.03573,0.02522 -0.0581,0.06844 -0.09375,0.09375 L 39.5,20.53125 z m 44.84375,0.03125 c 1.306958,0.766054 2.542828,1.595958 3.75,2.5 l -0.75,0 2.0625,2.15625 L 90,24.5625 c 7.095716,6.013544 12.05869,14.447914 13.65625,24.03125 C 103.35453,48.313499 103.05903,48.03054 102.75,47.75 l -1.875,0.28125 -1.65625,-1.90625 0,2.34375 1.4375,1.125 0.96875,1.0625 1.28125,-1.4375 c 0.32338,0.605673 0.64759,1.206826 0.96875,1.8125 l 0,1.8125 -1.46875,1.625 -2.65625,1.8125 -1.90625,1.9375 c 0.934503,-0.06728 1.857259,-0.160922 2.8125,-0.28125 l 0,1.25 -1.9375,4.75 -1.75,2 -1.4375,3.0625 0,5.09375 0.46875,2 L 95.1875,77 l -1.75,1.09375 -1.875,1.53125 1.53125,1.71875 -2.0625,1.84375 0.40625,1.15625 -1.46875,1.6875 c -0.772728,0.653262 -1.585186,1.280656 -2.40625,1.875 l -1.34375,0 -1.75,1.09375 -1.15625,0 0,-1.46875 -0.46875,-2.90625 c -0.620904,-1.823642 -1.248706,-3.626872 -1.90625,-5.4375 0,-1.336505 0.04504,-2.663716 0.125,-4 L 81.90625,73.375 80.75,71.1875 l 0.09375,-3 -1.53125,-1.71875 0.78125,-2.5 -1.25,-1.40625 -2.15625,0 -0.75,-0.8125 -2.15625,1.34375 -0.90625,-0.96875 -2,1.71875 C 69.512667,62.299322 68.176814,60.730823 66.8125,59.1875 l -1.625,-3.78125 1.4375,-2.1875 -0.78125,-0.90625 1.75,-4.1875 c 1.448642,-1.802019 2.969479,-3.51486 4.5,-5.25 l 2.71875,-0.75 3.0625,-0.375 2.09375,0.5625 2.96875,3 1.03125,-1.1875 1.4375,-0.1875 2.75,0.90625 2.0625,0 1.4375,-1.25 L 92.3125,42.6875 90.875,41.75 88.4375,41.59375 C 87.76936,40.666915 87.1683,39.698532 86.375,38.875 L 85.5625,39.21875 85.25,41.59375 83.78125,39.9375 83.5,38.125 l -1.59375,-1.25 -0.6875,0 1.625,1.8125 -0.65625,1.625 -1.25,0.375 0.78125,-1.625 -1.4375,-0.75 L 79,36.875 76.5625,37.40625 76.28125,38.125 74.8125,39.0625 74,41.0625 72.03125,42.03125 71.125,41.0625 l -0.96875,0 0,-3.3125 2.09375,-1.0625 1.59375,0 -0.3125,-1.28125 L 72.25,34.125 l 2.15625,-0.4375 1.21875,-1.375 0.9375,-1.625 1.78125,0 L 77.875,29.40625 79,28.6875 l 0,1.46875 2.40625,0.53125 2.375,-2 0.1875,-0.90625 2.09375,-1.4375 c -0.754457,0.09381 -1.544018,0.143111 -2.28125,0.34375 l 0,-1.625 0.8125,-1.84375 -0.8125,0 -1.75,1.65625 -0.46875,0.90625 0.46875,1.28125 -0.8125,2.15625 -1.25,-0.71875 -1.125,-1.28125 -1.78125,1.28125 -0.65625,-2.90625 3.0625,-2 0,-1.0625 1.9375,-1.28125 2.9375,-0.6875 z m -42.65625,1.21875 -0.09375,1.4375 -1.78125,1.65625 -4,2.34375 0.46875,1.65625 3.0625,1.28125 0.46875,2.15625 1.125,-2.34375 1.75,-0.75 -0.15625,-1.0625 1.78125,-3.09375 2.25,1.28125 -0.34375,1.4375 1.9375,-0.71875 0.8125,1.625 -0.3125,1.09375 1.125,0.375 0.96875,0.90625 -0.34375,1.0625 -2.71875,0.9375 -1.9375,0 -2.71875,1.25 4.3125,0 -1.4375,2.1875 -2.875,0.5625 L 41.75,38.875 39.5,39.75 38.375,42.5 35.3125,45.03125 35,48.65625 l -1.75,-2.1875 -2.4375,-0.53125 -0.28125,1.09375 -1.9375,0 -2.40625,1.8125 -0.3125,2.1875 0.15625,2 1.59375,0.90625 1.125,-0.53125 1.125,-1.46875 1.125,0 c -0.16179,1.271614 -0.308062,2.540673 -0.46875,3.8125 l 1.90625,-0.1875 0,2 0.65625,1.8125 c 0.77829,0.478535 1.844673,0.497711 2.71875,0.75 l 0,-0.375 2.90625,-2.5625 2.71875,2 3.1875,-0.34375 1.28125,3.4375 2.40625,0.53125 1.3125,2.5625 c 2.614519,1.344901 5.209597,2.693735 7.84375,4 l -0.34375,2.71875 -1.90625,2.71875 0.3125,3.65625 -1.25,2.875 -2.4375,0.5625 -1.09375,1.625 0.46875,1.09375 -1.59375,4 -2.09375,0.71875 L 47.0625,90.625 46.25,91.40625 C 44.204751,90.399239 42.268342,89.201273 40.4375,87.875 l 0.5,-2.15625 -0.96875,-2.1875 0.15625,-3.8125 -1.28125,-1.8125 -2.875,-2.5625 -2.875,-5.25 L 33.875,67.375 33.5625,66.65625 34.53125,65.1875 35.8125,61.75 l 0,-0.28125 L 34.84375,61 33.5625,61.1875 31.3125,59.5625 29.875,57.75 26.5,56.8125 23.78125,55.21875 C 23.797308,41.262451 30.896343,28.981807 41.6875,21.78125 z M 68.53125,22.875 69.5,23.96875 l -1.9375,1.25 -1.125,-0.6875 0.1875,-1.125 0.625,0.1875 1.28125,-0.71875 z m -21.1875,0.34375 1.625,0.75 0,1.25 -1.28125,0 -1.59375,-1.0625 1.25,-0.9375 z m 25.375,4.1875 0.9375,0 c 0.472142,0.963478 0.935268,1.93297 1.3125,2.9375 l 1.125,1.0625 -1.3125,1.28125 -1.75,0.375 0.3125,-2.1875 0,-1.65625 -0.625,-0.71875 0,-1.09375 z m -0.65625,2.1875 0.65625,1.625 -1.46875,0.71875 -0.3125,-1.96875 1.125,-0.375 z m -22.15625,3.28125 1.46875,1.0625 -0.96875,1.46875 -0.5,-2.53125 z m 41.9375,14.15625 -0.5,0.5625 0.71875,2.625 1.375,1.53125 c 0.778054,2.246124 1.540744,4.384234 2.5625,6.53125 0.581819,0 1.152955,0.0073 1.71875,-0.03125 L 96.5,56.8125 97.125,55.21875 95.84375,53.75 93.65625,49.125 91.84375,47.03125 z M 40.125,90.40625 c 0.610222,0.415944 1.211341,0.803087 1.84375,1.1875 -0.848164,-0.490721 -1.607431,-0.952911 -1.84375,-1.1875 z m -32.375,17.625 0,6.5 39.59375,0 c -10e-4,-0.0436 0,-0.0811 0,-0.125 l 0,-5.4375 c 0,-0.31974 0.03795,-0.63441 0.09375,-0.9375 l -39.6875,0 z m 72.8125,0 c 0.0559,0.30309 0.09375,0.61776 0.09375,0.9375 l 0,5.4375 c 0,0.0439 0.001,0.0814 0,0.125 l 39.59375,0 0,-6.5 -39.6875,0 z" style="fill:#aaaaaa"/>
</svg>