<?xml version="1.0" encoding="UTF-8" standalone="no"?>
<svg xmlns:dc="http://purl.org/dc/elements/1.1/"
     xmlns:cc="http://creativecommons.org/ns#"
     xmlns:rdf="http://www.w3.org/1999/02/22-rdf-syntax-ns#"
     xmlns:svg="http://www.w3.org/2000/svg"
     xmlns="http://www.w3.org/2000/svg"
     xmlns:xlink="http://www.w3.org/1999/xlink"
     width="128" height="128" version="1.1">
    <title>Clarity Icon</title>
    <desc>This is shape (source) for Clarity vector icon theme for gtk</desc>
    <metadata>
        <rdf:RDF>
            <cc:Work rdf:about="">
                <dc:title>Clarity Icon</dc:title>
                <dc:description>This is shape (source) for Clarity vector icon theme for gtk</dc:description>
                <dc:creator>
                    <cc:Agent>
                        <dc:title>Jakub Jankiewicz</dc:title>
                    </cc:Agent>
                </dc:creator>
                <dc:rights>
                    <cc:Agent>
                        <dc:title>Jakub Jankiewicz</dc:title>
                    </cc:Agent>
                </dc:rights>
                <dc:date>2010</dc:date>
                <dc:format>image/svg+xml</dc:format>
                <dc:type rdf:resource="http://purl.org/dc/dcmitype/StillImage" />
                <cc:license rdf:resource="http://creativecommons.org/licenses/by-sa/3.0/" />
             </cc:Work>
        </rdf:RDF>
    </metadata>
    <path d="M 21.125 10.84375 C 18.961043 10.84375 17.21875 12.586043 17.21875 14.75 L 17.21875 22.6875 C 17.21875 24.85146 18.961043 26.59375 21.125 26.59375 L 106.875 26.59375 C 109.03896 26.59375 110.78125 24.85146 110.78125 22.6875 L 110.78125 14.75 C 110.78125 12.586043 109.03896 10.84375 106.875 10.84375 L 21.125 10.84375 z M 24.6875 15.5625 C 24.772759 15.545803 24.847223 15.5625 24.9375 15.5625 L 34.5 15.5625 C 35.222218 15.5625 35.8125 16.121532 35.8125 16.84375 L 35.8125 20.5625 C 35.8125 21.28472 35.222218 21.875 34.5 21.875 L 24.9375 21.875 C 24.215282 21.875 23.625 21.28472 23.625 20.5625 L 23.625 16.84375 C 23.625 16.211809 24.090687 15.679376 24.6875 15.5625 z M 21.125 33.5625 C 18.961043 33.5625 17.21875 35.304793 17.21875 37.46875 L 17.21875 45.40625 C 17.21875 47.57021 18.961043 49.3125 21.125 49.3125 L 106.875 49.3125 C 109.03896 49.3125 110.78125 47.57021 110.78125 45.40625 L 110.78125 37.46875 C 110.78125 35.304793 109.03896 33.5625 106.875 33.5625 L 21.125 33.5625 z M 24.6875 38.28125 C 24.772759 38.264553 24.847223 38.28125 24.9375 38.28125 L 34.5 38.28125 C 35.222218 38.28125 35.8125 38.840282 35.8125 39.5625 L 35.8125 43.28125 C 35.8125 44.00347 35.222218 44.59375 34.5 44.59375 L 24.9375 44.59375 C 24.215282 44.59375 23.625 44.00347 23.625 43.28125 L 23.625 39.5625 C 23.625 38.930559 24.090687 38.398126 24.6875 38.28125 z M 21.125 56.3125 C 18.961043 56.3125 17.21875 58.054793 17.21875 60.21875 L 17.21875 68.15625 C 17.21875 70.32021 18.961043 72.0625 21.125 72.0625 L 106.875 72.0625 C 109.03896 72.0625 110.78125 70.32021 110.78125 68.15625 L 110.78125 60.21875 C 110.78125 58.054793 109.03896 56.3125 106.875 56.3125 L 21.125 56.3125 z M 24.6875 61.03125 C 24.772759 61.014553 24.847223 61.03125 24.9375 61.03125 L 34.5 61.03125 C 35.222218 61.03125 35.8125 61.590282 35.8125 62.3125 L 35.8125 66.03125 C 35.8125 66.75347 35.222218 67.34375 34.5 67.34375 L 24.9375 67.34375 C 24.215282 67.34375 23.625 66.75347 23.625 66.03125 L 23.625 62.3125 C 23.625 61.680559 24.090687 61.148126 24.6875 61.03125 z M 21.125 79.03125 C 18.961043 79.03125 17.21875 80.773543 17.21875 82.9375 L 17.21875 90.875 C 17.21875 93.03896 18.961043 94.78125 21.125 94.78125 L 58.15625 94.78125 L 58.15625 105.40625 L 52.21875 105.40625 C 50.78024 105.40625 49.625 106.56149 49.625 108 L 49.625 112.8125 C 49.625 114.25101 50.78024 115.40625 52.21875 115.40625 L 75.78125 115.40625 C 77.21976 115.40625 78.375 114.25101 78.375 112.8125 L 78.375 108 C 78.375 106.56149 77.21976 105.40625 75.78125 105.40625 L 69.84375 105.40625 L 69.84375 94.78125 L 106.875 94.78125 C 109.03896 94.78125 110.78125 93.03896 110.78125 90.875 L 110.78125 82.9375 C 110.78125 80.773543 109.03896 79.03125 106.875 79.03125 L 21.125 79.03125 z M 24.6875 83.75 C 24.772759 83.733303 24.847223 83.75 24.9375 83.75 L 34.5 83.75 C 35.222218 83.75 35.8125 84.309032 35.8125 85.03125 L 35.8125 88.75 C 35.8125 89.47222 35.222218 90.0625 34.5 90.0625 L 24.9375 90.0625 C 24.215282 90.0625 23.625 89.47222 23.625 88.75 L 23.625 85.03125 C 23.625 84.399309 24.090687 83.866876 24.6875 83.75 z M 7.75 107.15625 L 7.75 113.65625 L 47.34375 113.65625 C 47.34265 113.61265 47.34375 113.57515 47.34375 113.53125 L 47.34375 108.09375 C 47.34375 107.77401 47.3816 107.45934 47.4375 107.15625 L 7.75 107.15625 z M 80.5625 107.15625 C 80.6184 107.45934 80.65625 107.77401 80.65625 108.09375 L 80.65625 113.53125 C 80.65625 113.57515 80.65735 113.61265 80.65625 113.65625 L 120.25 113.65625 L 120.25 107.15625 L 80.5625 107.15625 z " style="fill:#aaaaaa"/>
</svg>