<?xml version="1.0" encoding="UTF-8" standalone="no"?>
<svg xmlns:dc="http://purl.org/dc/elements/1.1/"
     xmlns:cc="http://creativecommons.org/ns#"
     xmlns:rdf="http://www.w3.org/1999/02/22-rdf-syntax-ns#"
     xmlns:svg="http://www.w3.org/2000/svg"
     xmlns="http://www.w3.org/2000/svg"
     xmlns:xlink="http://www.w3.org/1999/xlink"
     width="128" height="128" version="1.1">
    <title>Clarity Icon</title>
    <desc>This is shape (source) for Clarity vector icon theme for gtk</desc>
    <metadata>
        <rdf:RDF>
            <cc:Work rdf:about="">
                <dc:title>Clarity Icon</dc:title>
                <dc:description>This is shape (source) for Clarity vector icon theme for gtk</dc:description>
                <dc:creator>
                    <cc:Agent>
                        <dc:title>Jakub Jankiewicz</dc:title>
                    </cc:Agent>
                </dc:creator>
                <dc:rights>
                    <cc:Agent>
                        <dc:title>Jakub Jankiewicz</dc:title>
                    </cc:Agent>
                </dc:rights>
                <dc:date>2010</dc:date>
                <dc:format>image/svg+xml</dc:format>
                <dc:type rdf:resource="http://purl.org/dc/dcmitype/StillImage" />
                <cc:license rdf:resource="http://www.gnu.org/copyleft/gpl.html" />
             </cc:Work>
        </rdf:RDF>
    </metadata>
    <path d="m 95.086137,8.9850248 c -0.432587,-0.0044 -0.881484,0.0015 -1.34375,0.03125 -3.698135,0.237921 -8.263555,1.6782692 -12.15625,6.2187502 -5.078577,5.923528 -5.284127,17.784866 -3.71875,19.875 1.947833,2.594137 4.359645,2.428201 8.46875,1.5625 4.109119,-0.865701 23.396433,-18.626162 14.312503,-26.625 -0.29963,-0.2658992 -2.534391,-1.0317452 -5.562503,-1.0625002 z m -31.65625,4.1250002 c -4.361124,0 -8.538531,5.25067 -7.34375,10.8125 1.159215,5.407666 2.750655,9.71875 6,9.71875 3.026985,0 5.372035,-4.641856 6.53125,-10.15625 1.171063,-5.564797 -0.829349,-10.375 -5.1875,-10.375 z m -20.6875,7.84375 c -0.2477,0.008 -0.502254,0.0078 -0.75,0.0625 -3.963836,0.880523 -5.49157,6.156514 -3.3125,10.84375 2.116823,4.553823 4.387911,8.064421 7.34375,7.40625 2.751261,-0.610733 3.935903,-5.192414 3.90625,-10.3125 -0.02376,-4.518988 -3.0241,-7.826962 -6.4375,-8 -0.243819,-0.01236 -0.5023,-0.008 -0.75,0 z m -13.5625,11.9375 c -0.603442,0.04828 -1.206452,0.238845 -1.78125,0.53125 -3.065523,1.565377 -3.283888,6.148495 -0.5,9.53125 2.703824,3.284919 5.342159,5.696388 7.625,4.53125 2.134606,-1.085091 2.140054,-5.151624 1.03125,-9.34375 -0.83828,-3.177447 -3.306579,-5.116447 -5.78125,-5.25 -0.206222,-0.01113 -0.392603,-0.01609 -0.59375,0 z m 39.75,7.9375 c -0.792457,0.06475 -1.558418,0.146305 -2.34375,0.21875 0.765432,-0.101228 1.644818,-0.05817 2.34375,-0.21875 z m -2.34375,0.21875 c -0.41311,0.03811 -0.839119,0.07241 -1.25,0.125 l 0.53125,0.03125 c 0.218457,-0.07954 0.463606,-0.122507 0.71875,-0.15625 z m -2.9375,0.34375 c -1.967843,0.117913 -4.687236,1.153261 -3.84375,0.21875 -3.210101,1.432108 -8.893184,3.465819 -12.09375,6.46875 l -0.125,-0.6875 c -1.466782,1.757198 -6.360766,5.248723 -6.75,7.53125 l -0.40625,0.125 c -0.761131,1.289935 -1.24126,2.734421 -1.84375,4.0625 -0.747044,1.274981 -1.225987,1.008203 -1.34375,0.90625 -1.960909,3.979034 -2.941232,7.350037 -3.78125,10.09375 0.599889,0.893766 0.02374,5.393729 0.25,9 -0.981322,17.808561 12.512835,35.073065 27.25,39.062495 2.157694,0.7724 5.361306,0.7692 8.09375,0.84375 -3.223972,-0.92065 -3.670018,-0.49627 -6.8125,-1.59375 -2.262589,-1.06629 -2.739133,-2.26489 -4.34375,-3.65625 l 0.625,1.125 c -3.14595,-1.11049 -1.815069,-1.40908 -4.375,-2.21875 l 0.6875,-0.84375 c -1.019464,-0.078 -2.726312,-1.74602 -3.1875,-2.65625 l -1.09375,0.0312 c -1.337614,-1.6523 -2.051146,-2.82591 -2,-3.75 l -0.375,0.65625 c -0.405705,-0.69783 -4.940427,-6.217025 -2.59375,-4.9375 -0.433446,-0.39617 -0.999105,-0.64043 -1.625,-1.781245 l 0.46875,-0.5625 c -1.126959,-1.452906 -2.071086,-3.286422 -2,-3.90625 0.599022,0.812279 1.02486,0.923798 1.4375,1.0625 -2.851207,-7.073836 -3.027204,-0.371131 -5.1875,-7.1875 l 0.46875,-0.0312 c -0.349357,-0.528768 -0.562878,-1.094506 -0.84375,-1.65625 l 0.1875,-1.96875 c -2.052802,-2.370112 -0.579461,-10.110718 -0.28125,-14.34375 0.20372,-1.719916 1.730704,-3.528168 2.875,-6.40625 l -0.6875,-0.15625 c 1.334146,-2.329337 7.615893,-9.358893 10.53125,-9 0.397172,-0.498111 0.522882,-0.713539 0.53125,-0.78125 -0.170796,0.04258 -0.889122,0.62116 -1.0625,0.34375 3.101738,-3.206633 4.032323,-2.264666 6.125,-2.84375 2.255653,-1.337615 -1.913494,0.529 -0.84375,-0.5 3.901014,-0.996058 2.750759,-2.27672 7.84375,-2.78125 0.237167,0.134924 0.0029,0.255196 -0.34375,0.375 3.584309,-0.983997 9.513662,-0.475711 13.53125,1.375 5.302779,2.479311 11.262469,9.79311 11.5,16.6875 l 0.25,0.09375 c -0.13177,2.739378 0.427533,5.899742 -0.53125,8.8125 l 0.625,-1.3125 c 0.05612,2.034567 -0.635366,3.039538 -1.25,4.8125 l -1.09375,0.5625 c -0.914569,1.777994 0.05988,1.146864 -0.59375,2.5625 -1.429508,1.269996 -4.318958,3.968218 -5.25,4.21875 -0.67791,-0.01387 0.444645,-0.788604 0.59375,-1.09375 -1.913231,1.314208 -1.54299,1.950726 -4.46875,2.75 l -0.0625,-0.1875 c -7.21948,3.396538 -17.254167,-3.343928 -17.125,-12.53125 -0.07456,0.582552 -0.215491,0.453438 -0.375,0.6875 -0.372763,-4.723695 2.189814,-9.497396 6.5,-11.4375 4.213094,-2.083141 9.139465,-1.220181 12.15625,1.59375 -1.655764,-2.170698 -4.963582,-4.463255 -8.875,-4.25 -3.829928,0.06068 -7.394836,2.480114 -8.59375,5.125 -1.960041,1.231854 -2.178229,4.790798 -3.03125,5.4375 -1.151233,8.459132 2.139474,12.106465 7.75,16.40625 0.440381,0.296477 0.502126,0.471236 0.46875,0.625 6.616987,2.468908 13.458212,1.869709 19.1875,-2.71875 1.456376,-1.133894 3.070927,-3.098125 3.53125,-3.125 -0.604549,0.909478 -0.07256,0.628406 -0.28125,1.15625 1.06303,-1.891476 -0.677275,-0.815273 1.34375,-3.75 l 0.78125,1.09375 c -0.291275,-1.944441 2.43019,-4.331383 2.15625,-7.40625 0.224089,-0.339115 0.397299,-0.288864 0.46875,0 -0.033,-0.433309 -0.0459,-0.908325 0.03125,-1.5625 0.250528,0.663172 0.577491,1.362052 0.75,2.0625 -0.592949,-2.315468 0.604576,-3.902849 0.90625,-5.25 -0.294747,-0.129167 -0.889081,1.013694 -1.03125,-1.71875 0.02076,-1.188509 0.287479,-0.614974 0.40625,-0.90625 -0.230596,-0.131767 -0.846853,-1.062245 -1.21875,-2.8125 0.267,-0.41004 0.756571,1.094701 1.125,1.15625 -0.233192,-1.388761 -0.671036,-2.464974 -0.6875,-3.53125 -1.074082,-2.245252 -0.379644,0.322095 -1.25,-0.9375 -1.140829,-3.566392 0.951579,-0.850262 1.09375,-2.46875 1.730325,2.509652 2.702867,6.388448 3.15625,8 -0.345026,-1.963511 -0.878521,-3.877472 -1.5625,-5.71875 0.528806,0.219323 -0.84256,-4.011834 0.6875,-1.1875 -1.634958,-6.017097 -7.000551,-11.643298 -11.9375,-14.28125 0.599023,0.551362 1.367689,1.23192 1.09375,1.34375 -2.455037,-1.458988 -2.022174,-1.571139 -2.375,-2.1875 -1.997319,-0.813126 -2.145005,0.06416 -3.46875,0 -3.769226,-1.998177 -4.498581,-1.778592 -7.96875,-3.03125 l 0.15625,0.75 c -2.495783,-0.829615 -2.894247,0.312063 -5.59375,0 -0.162108,-0.124842 0.841414,-0.472369 1.6875,-0.59375 -2.410827,0.318157 -2.292236,-0.495784 -4.65625,0.0625 0.579083,-0.405723 1.192673,-0.682752 1.8125,-1.03125 z m 1.96875,0.4375 c 0.690914,0.121375 1.490297,0.209413 1.375,0.375 0.755063,-0.165587 0.930933,-0.307381 -1.375,-0.375 z m 1.375,0.375 -0.5,0.125 0.46875,-0.03125 0.03125,-0.09375 z m -4.59375,7.09375 c -0.221234,0.07607 -0.450672,0.150954 -0.5625,0.25 0.171318,-0.08388 0.371063,-0.176962 0.5625,-0.25 z m -27.28125,8.28125 c 0.200254,1.865552 -1.410841,2.575603 0.34375,1.34375 0.944043,-2.127354 -0.356752,-0.57135 -0.34375,-1.34375 z m -1.4375,5.9375 c -1.120892,1.432105 -0.507103,1.743497 -0.625,2.71875 0.405706,-1.243123 0.468958,-1.997496 0.625,-2.71875 z m 46.1875,8.65625 c -0.15951,0.0042 -0.39684,0.400335 -0.5,0.84375 0.236661,0.1257 0.454306,1.656728 0.6875,0.71875 0.07802,-1.165104 -0.02799,-1.566725 -0.1875,-1.5625 z m 12.65625,3.71875 c -0.01903,0.642143 -0.17234,1.561911 -0.46875,2.53125 0.457289,-1.198912 0.497086,-1.892947 0.46875,-2.53125 z m 1.46875,0.21875 -0.1875,0.46875 c -0.258763,1.856883 -0.723472,3.702322 -1.4375,5.46875 0.807947,-1.901188 1.360795,-3.906576 1.625,-5.9375 z m -14.96875,0.875 c -0.172513,0.856491 -0.65337,1.593064 -1.09375,2.375 -2.421228,1.523997 -0.227125,-0.919642 0,-1.84375 -2.600674,3.277719 -0.373391,1.988209 -0.46875,2.90625 0.771535,-1.063679 1.366582,-2.231652 1.5625,-3.4375 z m -5.28125,5 c -1.049807,0.257468 -2.138603,0.254209 -3.21875,0.15625 -1.293403,0.01734 0.247926,0.677433 1.9375,0.9375 0.468121,-0.364961 0.905887,-0.734856 1.28125,-1.09375 z m -16.375,0.15625 c 0.28434,1.049806 0.892225,1.957829 1.4375,2.875 l -0.40625,-1.1875 c -0.450785,-0.497594 -0.729571,-1.091945 -1.03125,-1.6875 z m -1,1.78125 -0.15625,0.90625 c 0.849554,1.1547 1.506667,2.408332 2.59375,3.3125 -0.778469,-1.523996 -1.367756,-2.152946 -2.4375,-4.21875 z m 1.65625,1.34375 c 3.027186,5.425012 12.304255,9.496411 17.15625,7.46875 -2.241782,0.08062 -5.102343,0.05257 -7.625,-0.875 -0.926923,-0.477117 -2.163643,-1.417379 -2.28125,-1.78125 -0.04776,0.115257 -0.107318,0.233901 -0.0625,0.40625 -1.862083,-0.870361 -3.566984,-2.196614 -4.96875,-3.8125 0.74466,1.087082 1.523096,2.135668 2.5625,2.96875 -1.757189,-0.592953 -4.097273,-4.225893 -4.78125,-4.375 z" style="fill:#aaaaaa"/>
</svg>