<?xml version="1.0" encoding="UTF-8" standalone="no"?>
<!--
    This is shape (source) for Clarity vector icon theme for gtk

    Copyright (c) 2010 Jakub Jankiewicz <http://jcubic.pl> 

    This svg file is free: you can redistribute it and/or modify
    it under the terms of the GNU General Public License as published by
    the Free Software Foundation, either version 3 of the License, or
    (at your option) any later version.

    This program is distributed in the hope that it will be useful,
    but WITHOUT ANY WARRANTY; without even the implied warranty of
    MERCHANTABILITY or FITNESS FOR A PARTICULAR PURPOSE.  See the
    GNU General Public License for more details.

    You should have received a copy of the GNU General Public License
    along with this program.  If not, see <http://www.gnu.org/licenses/>.

-->
<svg xmlns:dc="http://purl.org/dc/elements/1.1/"
     xmlns:cc="http://creativecommons.org/ns#"
     xmlns:rdf="http://www.w3.org/1999/02/22-rdf-syntax-ns#"
     xmlns:svg="http://www.w3.org/2000/svg"
     xmlns="http://www.w3.org/2000/svg"
     xmlns:xlink="http://www.w3.org/1999/xlink"
     width="128" height="128" version="1.1">
    <title>Clarity Icon</title>
    <desc>This is shape (source) for Clarity vector icon theme for gtk</desc>
    <metadata>
        <rdf:RDF>
            <cc:Work rdf:about="">
                <dc:title>Clarity Icon</dc:title>
                <dc:description>This is shape (source) for Clarity vector icon theme for gtk</dc:description>
                <dc:creator>
                    <cc:Agent>
                        <dc:title>Jakub Jankiewicz</dc:title>
                    </cc:Agent>
                </dc:creator>
                <dc:rights>
                    <cc:Agent>
                        <dc:title>Jakub Jankiewicz</dc:title>
                    </cc:Agent>
                </dc:rights>
                <dc:date>2010</dc:date>
                <dc:format>image/svg+xml</dc:format>
                <dc:type rdf:resource="http://purl.org/dc/dcmitype/StillImage" />
                <cc:license rdf:resource="http://www.gnu.org/copyleft/gpl.html" />
             </cc:Work>
        </rdf:RDF>
    </metadata>
    <path d="m 56.859375,13.953125 c -1.16346,0 -2.32724,0.452246 -3.21875,1.34375 l -20.9375,20.90625 48.28125,0 -6.96875,-6.96875 2.375,-2.34375 c 0.46974,-0.469738 1.06598,-0.71875 1.65625,-0.71875 0.59027,0 1.18651,0.249012 1.65625,0.71875 l 9.28125,9.3125 6.3125,0 -12.46875,-12.4375 c -2.62653,-2.626542 -6.96721,-2.626542 -9.59375,0 l -2.3125,2.375 -10.84375,-10.84375 c -0.89151,-0.891504 -2.05529,-1.34375 -3.21875,-1.34375 z m -24.15625,24.53125 0,67.000005 c 0,4.73631 3.82618,8.5625 8.5625,8.5625 l 45.5,0 c 4.73632,0 8.53125,-3.82619 8.53125,-8.5625 l 0,-67.000005 -62.59375,0 z m 13.46875,9.5625 c 1.5399,0 2.78125,1.241348 2.78125,2.78125 l 0,50.875005 c 0,1.5399 -1.24135,2.78125 -2.78125,2.78125 -1.5399,0 -2.78125,-1.24135 -2.78125,-2.78125 l 0,-50.875005 c 0,-1.539902 1.24135,-2.78125 2.78125,-2.78125 z m 17.8125,0 c 1.5399,0 2.78125,1.241348 2.78125,2.78125 l 0,50.875005 c 0,1.5399 -1.24135,2.78125 -2.78125,2.78125 -1.5399,0 -2.78125,-1.24135 -2.78125,-2.78125 l 0,-50.875005 c 0,-1.539902 1.24135,-2.78125 2.78125,-2.78125 z m 17.8125,0 c 1.5399,0 2.78125,1.241348 2.78125,2.78125 l 0,50.875005 c 0,1.5399 -1.24135,2.78125 -2.78125,2.78125 -1.5399,0 -2.78125,-1.24135 -2.78125,-2.78125 l 0,-50.875005 c 0,-1.539902 1.24135,-2.78125 2.78125,-2.78125 z" style="fill:#aaaaaa"/>
</svg>