<?xml version="1.0" encoding="UTF-8" standalone="no"?>
<svg xmlns:dc="http://purl.org/dc/elements/1.1/"
     xmlns:cc="http://creativecommons.org/ns#"
     xmlns:rdf="http://www.w3.org/1999/02/22-rdf-syntax-ns#"
     xmlns:svg="http://www.w3.org/2000/svg"
     xmlns="http://www.w3.org/2000/svg"
     xmlns:xlink="http://www.w3.org/1999/xlink"
     width="128" height="128" version="1.1">
    <title>Pen Icon</title>
    <desc>This is shape (source) for Clarity vector icon theme for gtk</desc>
    <metadata>
        <rdf:RDF>
            <cc:Work rdf:about="">
                <dc:title>Pen Icon</dc:title>
                <dc:description>This is shape (source) for Clarity vector icon theme for gtk</dc:description>
                <dc:creator>
                    <cc:Agent>
                        <dc:title>Jakub Jankiewicz</dc:title>
                    </cc:Agent>
                </dc:creator>
                <dc:rights>
                    <cc:Agent>
                        <dc:title>Jakub Jankiewicz</dc:title>
                    </cc:Agent>
                </dc:rights>
                <dc:date>2010</dc:date>
                <dc:format>image/svg+xml</dc:format>
                <dc:type rdf:resource="http://purl.org/dc/dcmitype/StillImage" />
                <cc:license rdf:resource="http://creativecommons.org/licenses/by-sa/3.0/" />
             </cc:Work>
        </rdf:RDF>
    </metadata>
    <path d="m 98.191021,15.050417 c -1.37475,-1.374753 -4.062733,-0.934265 -6.021728,1.02472 L 81.562564,26.681876 101.26426,46.383568 111.87099,35.77683 c 1.95899,-1.958984 2.4255,-4.620944 1.05075,-5.995686 L 98.191021,15.050417 z M 78.66979,29.574627 64.502757,43.741668 84.204467,63.44336 98.371501,49.276317 78.66979,29.574627 z M 61.647089,46.59733 35.464025,72.7804 55.165717,92.4821 81.3488,66.299021 61.647089,46.59733 z M 33.404105,76.505981 c -0.840311,-0.840314 -1.745217,-0.17858 -2.223248,0.817848 L 14.788765,111.51772 c -1.02327,2.1329 -0.469713,2.7672 1.617524,1.76587 L 50.373745,96.961749 c 1.339758,-0.642734 1.872647,-1.613491 1.248564,-2.237556 L 33.404105,76.505981 z" style="fill:#aaaaaa"/>
</svg>